<svg xmlns="http://www.w3.org/2000/svg" width="800" height="540">
<style> .label{font-family:DejaVu Sans,Verdana,Geneva,sans-serif;font-size:12px;fill:#333} .value{font-family:DejaVu Sans,Verdana,Geneva,sans-serif;font-size:12px;fill:#555} </style>
<text x="10" y="20" class="label">延迟柱状图（越低越好，Top 15），单位 ms</text>
<text x="10" y="46" class="label">rockstargames.com</text>
<rect x="180" y="30" width="131.09" height="22" fill="#4c78a8" rx="3"/>
<text x="319.09000000000003" y="46" class="value">70.83</text>
<text x="10" y="78" class="label">eaassets-a.akamaihd.net</text>
<rect x="180" y="62" width="149.75" height="22" fill="#4c78a8" rx="3"/>
<text x="337.75" y="78" class="value">80.91</text>
<text x="10" y="110" class="label">ubisoft.com</text>
<rect x="180" y="94" width="204.57" height="22" fill="#4c78a8" rx="3"/>
<text x="392.57" y="110" class="value">110.53</text>
<text x="10" y="142" class="label">steamcdn-a.akamaihd.net</text>
<rect x="180" y="126" width="275.58" height="22" fill="#4c78a8" rx="3"/>
<text x="463.58" y="142" class="value">148.90</text>
<text x="10" y="174" class="label">store.akamai.steamstatic.com</text>
<rect x="180" y="158" width="300.57" height="22" fill="#4c78a8" rx="3"/>
<text x="488.57" y="174" class="value">162.40</text>
<text x="10" y="206" class="label">origin.com</text>
<rect x="180" y="190" width="303.12" height="22" fill="#4c78a8" rx="3"/>
<text x="491.12" y="206" class="value">163.78</text>
<text x="10" y="238" class="label">easyanticheat.net</text>
<rect x="180" y="222" width="326.98" height="22" fill="#4c78a8" rx="3"/>
<text x="514.98" y="238" class="value">176.67</text>
<text x="10" y="270" class="label">ea.com</text>
<rect x="180" y="254" width="378.63" height="22" fill="#4c78a8" rx="3"/>
<text x="566.63" y="270" class="value">204.58</text>
<text x="10" y="302" class="label">community.akamai.steamstatic.com</text>
<rect x="180" y="286" width="405.29" height="22" fill="#4c78a8" rx="3"/>
<text x="593.29" y="302" class="value">218.98</text>
<text x="10" y="334" class="label">steam-chat.com</text>
<rect x="180" y="318" width="431.4" height="22" fill="#4c78a8" rx="3"/>
<text x="619.4" y="334" class="value">233.09</text>
<text x="10" y="366" class="label">cdn.akamai.steamstatic.com</text>
<rect x="180" y="350" width="456.2" height="22" fill="#4c78a8" rx="3"/>
<text x="644.2" y="366" class="value">246.49</text>
<text x="10" y="398" class="label">ubi.com</text>
<rect x="180" y="382" width="472.75" height="22" fill="#4c78a8" rx="3"/>
<text x="660.75" y="398" class="value">255.43</text>
<text x="10" y="430" class="label">cdn.cloudflare.steamstatic.com</text>
<rect x="180" y="414" width="484.28" height="22" fill="#4c78a8" rx="3"/>
<text x="672.28" y="430" class="value">261.66</text>
<text x="10" y="462" class="label">www.steamcommunity.com</text>
<rect x="180" y="446" width="575.13" height="22" fill="#4c78a8" rx="3"/>
<text x="763.13" y="462" class="value">310.75</text>
<text x="10" y="494" class="label">steamcommunity.com</text>
<rect x="180" y="478" width="580.0" height="22" fill="#4c78a8" rx="3"/>
<text x="768.0" y="494" class="value">313.38</text>
<line x1="180" y1="30" x2="180" y2="520" stroke="#ccc"/>
<line x1="180" y1="520" x2="760" y2="520" stroke="#ccc"/>
</svg>