<svg xmlns="http://www.w3.org/2000/svg" width="800" height="540">
<style> .label{font-family:DejaVu Sans,Verdana,Geneva,sans-serif;font-size:12px;fill:#333} .value{font-family:DejaVu Sans,Verdana,Geneva,sans-serif;font-size:12px;fill:#555} </style>
<text x="10" y="20" class="label">延迟柱状图（越低越好，Top 15），单位 ms</text>
<text x="10" y="46" class="label">steamcdn-a.akamaihd.net</text>
<rect x="180" y="30" width="78.3" height="22" fill="#4c78a8" rx="3"/>
<text x="266.3" y="46" class="value">33.70</text>
<text x="10" y="78" class="label">cdn.akamai.steamstatic.com</text>
<rect x="180" y="62" width="98.24" height="22" fill="#4c78a8" rx="3"/>
<text x="286.24" y="78" class="value">42.28</text>
<text x="10" y="110" class="label">ubisoft.com</text>
<rect x="180" y="94" width="149.47" height="22" fill="#4c78a8" rx="3"/>
<text x="337.47" y="110" class="value">64.33</text>
<text x="10" y="142" class="label">rockstargames.com</text>
<rect x="180" y="126" width="149.5" height="22" fill="#4c78a8" rx="3"/>
<text x="337.5" y="142" class="value">64.34</text>
<text x="10" y="174" class="label">ea.com</text>
<rect x="180" y="158" width="174.24" height="22" fill="#4c78a8" rx="3"/>
<text x="362.24" y="174" class="value">74.99</text>
<text x="10" y="206" class="label">eaassets-a.akamaihd.net</text>
<rect x="180" y="190" width="215.51" height="22" fill="#4c78a8" rx="3"/>
<text x="403.51" y="206" class="value">92.75</text>
<text x="10" y="238" class="label">origin.com</text>
<rect x="180" y="222" width="219.64" height="22" fill="#4c78a8" rx="3"/>
<text x="407.64" y="238" class="value">94.53</text>
<text x="10" y="270" class="label">store.akamai.steamstatic.com</text>
<rect x="180" y="254" width="279.4" height="22" fill="#4c78a8" rx="3"/>
<text x="467.4" y="270" class="value">120.25</text>
<text x="10" y="302" class="label">community.akamai.steamstatic.com</text>
<rect x="180" y="286" width="314.23" height="22" fill="#4c78a8" rx="3"/>
<text x="502.23" y="302" class="value">135.24</text>
<text x="10" y="334" class="label">easyanticheat.net</text>
<rect x="180" y="318" width="483.34" height="22" fill="#4c78a8" rx="3"/>
<text x="671.3399999999999" y="334" class="value">208.02</text>
<text x="10" y="366" class="label">cdn.cloudflare.steamstatic.com</text>
<rect x="180" y="350" width="500.56" height="22" fill="#4c78a8" rx="3"/>
<text x="688.56" y="366" class="value">215.43</text>
<text x="10" y="398" class="label">www.steamcommunity.com</text>
<rect x="180" y="382" width="529.65" height="22" fill="#4c78a8" rx="3"/>
<text x="717.65" y="398" class="value">227.95</text>
<text x="10" y="430" class="label">launcher-public-service-prod06.ol.epicgames.com</text>
<rect x="180" y="414" width="544.96" height="22" fill="#4c78a8" rx="3"/>
<text x="732.96" y="430" class="value">234.54</text>
<text x="10" y="462" class="label">steam-chat.com</text>
<rect x="180" y="446" width="570.1" height="22" fill="#4c78a8" rx="3"/>
<text x="758.1" y="462" class="value">245.36</text>
<text x="10" y="494" class="label">api.steampowered.com</text>
<rect x="180" y="478" width="580.0" height="22" fill="#4c78a8" rx="3"/>
<text x="768.0" y="494" class="value">249.62</text>
<line x1="180" y1="30" x2="180" y2="520" stroke="#ccc"/>
<line x1="180" y1="520" x2="760" y2="520" stroke="#ccc"/>
</svg>