<svg xmlns="http://www.w3.org/2000/svg" width="800" height="540">
<style> .label{font-family:DejaVu Sans,Verdana,Geneva,sans-serif;font-size:12px;fill:#333} .value{font-family:DejaVu Sans,Verdana,Geneva,sans-serif;font-size:12px;fill:#555} </style>
<text x="10" y="20" class="label">延迟柱状图（越低越好，Top 15），单位 ms</text>
<text x="10" y="46" class="label">ea.com</text>
<rect x="180" y="30" width="215.73" height="22" fill="#4c78a8" rx="3"/>
<text x="403.73" y="46" class="value">88.04</text>
<text x="10" y="78" class="label">rockstargames.com</text>
<rect x="180" y="62" width="236.41" height="22" fill="#4c78a8" rx="3"/>
<text x="424.40999999999997" y="78" class="value">96.48</text>
<text x="10" y="110" class="label">steamcdn-a.akamaihd.net</text>
<rect x="180" y="94" width="257.43" height="22" fill="#4c78a8" rx="3"/>
<text x="445.43" y="110" class="value">105.06</text>
<text x="10" y="142" class="label">eaassets-a.akamaihd.net</text>
<rect x="180" y="126" width="260.67" height="22" fill="#4c78a8" rx="3"/>
<text x="448.67" y="142" class="value">106.38</text>
<text x="10" y="174" class="label">ubisoft.com</text>
<rect x="180" y="158" width="336.63" height="22" fill="#4c78a8" rx="3"/>
<text x="524.63" y="174" class="value">137.38</text>
<text x="10" y="206" class="label">community.akamai.steamstatic.com</text>
<rect x="180" y="190" width="351.04" height="22" fill="#4c78a8" rx="3"/>
<text x="539.04" y="206" class="value">143.26</text>
<text x="10" y="238" class="label">ubi.com</text>
<rect x="180" y="222" width="367.5" height="22" fill="#4c78a8" rx="3"/>
<text x="555.5" y="238" class="value">149.98</text>
<text x="10" y="270" class="label">battle.net</text>
<rect x="180" y="254" width="370.74" height="22" fill="#4c78a8" rx="3"/>
<text x="558.74" y="270" class="value">151.30</text>
<text x="10" y="302" class="label">static3.cdn.ubi.com</text>
<rect x="180" y="286" width="372.23" height="22" fill="#4c78a8" rx="3"/>
<text x="560.23" y="302" class="value">151.91</text>
<text x="10" y="334" class="label">api.steampowered.com</text>
<rect x="180" y="318" width="373.14" height="22" fill="#4c78a8" rx="3"/>
<text x="561.14" y="334" class="value">152.28</text>
<text x="10" y="366" class="label">socialclub.rockstargames.com</text>
<rect x="180" y="350" width="376.47" height="22" fill="#4c78a8" rx="3"/>
<text x="564.47" y="366" class="value">153.64</text>
<text x="10" y="398" class="label">blizzard.com</text>
<rect x="180" y="382" width="386.47" height="22" fill="#4c78a8" rx="3"/>
<text x="574.47" y="398" class="value">157.72</text>
<text x="10" y="430" class="label">origin.com</text>
<rect x="180" y="414" width="429.18" height="22" fill="#4c78a8" rx="3"/>
<text x="617.1800000000001" y="430" class="value">175.15</text>
<text x="10" y="462" class="label">store.akamai.steamstatic.com</text>
<rect x="180" y="446" width="492.45" height="22" fill="#4c78a8" rx="3"/>
<text x="680.45" y="462" class="value">200.97</text>
<text x="10" y="494" class="label">cdn.akamai.steamstatic.com</text>
<rect x="180" y="478" width="580.0" height="22" fill="#4c78a8" rx="3"/>
<text x="768.0" y="494" class="value">236.70</text>
<line x1="180" y1="30" x2="180" y2="520" stroke="#ccc"/>
<line x1="180" y1="520" x2="760" y2="520" stroke="#ccc"/>
</svg>