<svg xmlns="http://www.w3.org/2000/svg" width="800" height="540">
<style> .label{font-family:DejaVu Sans,Verdana,Geneva,sans-serif;font-size:12px;fill:#333} .value{font-family:DejaVu Sans,Verdana,Geneva,sans-serif;font-size:12px;fill:#555} </style>
<text x="10" y="20" class="label">延迟柱状图（越低越好，Top 15），单位 ms</text>
<text x="10" y="46" class="label">eaassets-a.akamaihd.net</text>
<rect x="180" y="30" width="230.13" height="22" fill="#4c78a8" rx="3"/>
<text x="418.13" y="46" class="value">85.39</text>
<text x="10" y="78" class="label">rockstargames.com</text>
<rect x="180" y="62" width="261.55" height="22" fill="#4c78a8" rx="3"/>
<text x="449.55" y="78" class="value">97.05</text>
<text x="10" y="110" class="label">socialclub.rockstargames.com</text>
<rect x="180" y="94" width="280.61" height="22" fill="#4c78a8" rx="3"/>
<text x="468.61" y="110" class="value">104.12</text>
<text x="10" y="142" class="label">ubi.com</text>
<rect x="180" y="126" width="312.76" height="22" fill="#4c78a8" rx="3"/>
<text x="500.76" y="142" class="value">116.05</text>
<text x="10" y="174" class="label">battle.net</text>
<rect x="180" y="158" width="313.22" height="22" fill="#4c78a8" rx="3"/>
<text x="501.22" y="174" class="value">116.22</text>
<text x="10" y="206" class="label">cdn.akamai.steamstatic.com</text>
<rect x="180" y="190" width="339.68" height="22" fill="#4c78a8" rx="3"/>
<text x="527.6800000000001" y="206" class="value">126.04</text>
<text x="10" y="238" class="label">ubisoft.com</text>
<rect x="180" y="222" width="359.73" height="22" fill="#4c78a8" rx="3"/>
<text x="547.73" y="238" class="value">133.48</text>
<text x="10" y="270" class="label">fortnite.com</text>
<rect x="180" y="254" width="367.98" height="22" fill="#4c78a8" rx="3"/>
<text x="555.98" y="270" class="value">136.54</text>
<text x="10" y="302" class="label">blizzard.com</text>
<rect x="180" y="286" width="375.9" height="22" fill="#4c78a8" rx="3"/>
<text x="563.9" y="302" class="value">139.48</text>
<text x="10" y="334" class="label">ea.com</text>
<rect x="180" y="318" width="379.57" height="22" fill="#4c78a8" rx="3"/>
<text x="567.5699999999999" y="334" class="value">140.84</text>
<text x="10" y="366" class="label">cdn.cloudflare.steamstatic.com</text>
<rect x="180" y="350" width="482.68" height="22" fill="#4c78a8" rx="3"/>
<text x="670.6800000000001" y="366" class="value">179.10</text>
<text x="10" y="398" class="label">unrealengine.com</text>
<rect x="180" y="382" width="495.03" height="22" fill="#4c78a8" rx="3"/>
<text x="683.03" y="398" class="value">183.68</text>
<text x="10" y="430" class="label">epicgames.com</text>
<rect x="180" y="414" width="534.18" height="22" fill="#4c78a8" rx="3"/>
<text x="722.18" y="430" class="value">198.21</text>
<text x="10" y="462" class="label">static3.cdn.ubi.com</text>
<rect x="180" y="446" width="540.89" height="22" fill="#4c78a8" rx="3"/>
<text x="728.89" y="462" class="value">200.70</text>
<text x="10" y="494" class="label">steam-chat.com</text>
<rect x="180" y="478" width="580.0" height="22" fill="#4c78a8" rx="3"/>
<text x="768.0" y="494" class="value">215.21</text>
<line x1="180" y1="30" x2="180" y2="520" stroke="#ccc"/>
<line x1="180" y1="520" x2="760" y2="520" stroke="#ccc"/>
</svg>