<svg xmlns="http://www.w3.org/2000/svg" width="800" height="540">
<style> .label{font-family:DejaVu Sans,Verdana,Geneva,sans-serif;font-size:12px;fill:#333} .value{font-family:DejaVu Sans,Verdana,Geneva,sans-serif;font-size:12px;fill:#555} </style>
<text x="10" y="20" class="label">延迟柱状图（越低越好，Top 15），单位 ms</text>
<text x="10" y="46" class="label">eaassets-a.akamaihd.net</text>
<rect x="180" y="30" width="221.26" height="22" fill="#4c78a8" rx="3"/>
<text x="409.26" y="46" class="value">88.53</text>
<text x="10" y="78" class="label">rockstargames.com</text>
<rect x="180" y="62" width="222.66" height="22" fill="#4c78a8" rx="3"/>
<text x="410.65999999999997" y="78" class="value">89.09</text>
<text x="10" y="110" class="label">ubisoft.com</text>
<rect x="180" y="94" width="225.78" height="22" fill="#4c78a8" rx="3"/>
<text x="413.78" y="110" class="value">90.34</text>
<text x="10" y="142" class="label">community.akamai.steamstatic.com</text>
<rect x="180" y="126" width="234.88" height="22" fill="#4c78a8" rx="3"/>
<text x="422.88" y="142" class="value">93.98</text>
<text x="10" y="174" class="label">cdn.cloudflare.steamstatic.com</text>
<rect x="180" y="158" width="239.2" height="22" fill="#4c78a8" rx="3"/>
<text x="427.2" y="174" class="value">95.71</text>
<text x="10" y="206" class="label">steamcdn-a.akamaihd.net</text>
<rect x="180" y="190" width="320.73" height="22" fill="#4c78a8" rx="3"/>
<text x="508.73" y="206" class="value">128.33</text>
<text x="10" y="238" class="label">store.akamai.steamstatic.com</text>
<rect x="180" y="222" width="365.39" height="22" fill="#4c78a8" rx="3"/>
<text x="553.39" y="238" class="value">146.20</text>
<text x="10" y="270" class="label">ea.com</text>
<rect x="180" y="254" width="384.63" height="22" fill="#4c78a8" rx="3"/>
<text x="572.63" y="270" class="value">153.90</text>
<text x="10" y="302" class="label">cdn.akamai.steamstatic.com</text>
<rect x="180" y="286" width="396.53" height="22" fill="#4c78a8" rx="3"/>
<text x="584.53" y="302" class="value">158.66</text>
<text x="10" y="334" class="label">origin.com</text>
<rect x="180" y="318" width="415.32" height="22" fill="#4c78a8" rx="3"/>
<text x="603.3199999999999" y="334" class="value">166.18</text>
<text x="10" y="366" class="label">easyanticheat.net</text>
<rect x="180" y="350" width="452.46" height="22" fill="#4c78a8" rx="3"/>
<text x="640.46" y="366" class="value">181.04</text>
<text x="10" y="398" class="label">static3.cdn.ubi.com</text>
<rect x="180" y="382" width="479.41" height="22" fill="#4c78a8" rx="3"/>
<text x="667.4100000000001" y="398" class="value">191.82</text>
<text x="10" y="430" class="label">www.steamcommunity.com</text>
<rect x="180" y="414" width="483.85" height="22" fill="#4c78a8" rx="3"/>
<text x="671.85" y="430" class="value">193.60</text>
<text x="10" y="462" class="label">api.steampowered.com</text>
<rect x="180" y="446" width="554.03" height="22" fill="#4c78a8" rx="3"/>
<text x="742.03" y="462" class="value">221.68</text>
<text x="10" y="494" class="label">steam-chat.com</text>
<rect x="180" y="478" width="580.0" height="22" fill="#4c78a8" rx="3"/>
<text x="768.0" y="494" class="value">232.07</text>
<line x1="180" y1="30" x2="180" y2="520" stroke="#ccc"/>
<line x1="180" y1="520" x2="760" y2="520" stroke="#ccc"/>
</svg>