<svg xmlns="http://www.w3.org/2000/svg" width="800" height="540">
<style> .label{font-family:DejaVu Sans,Verdana,Geneva,sans-serif;font-size:12px;fill:#333} .value{font-family:DejaVu Sans,Verdana,Geneva,sans-serif;font-size:12px;fill:#555} </style>
<text x="10" y="20" class="label">延迟柱状图（越低越好，Top 15），单位 ms</text>
<text x="10" y="46" class="label">rockstargames.com</text>
<rect x="180" y="30" width="137.08" height="22" fill="#4c78a8" rx="3"/>
<text x="325.08000000000004" y="46" class="value">40.88</text>
<text x="10" y="78" class="label">socialclub.rockstargames.com</text>
<rect x="180" y="62" width="214.74" height="22" fill="#4c78a8" rx="3"/>
<text x="402.74" y="78" class="value">64.04</text>
<text x="10" y="110" class="label">eaassets-a.akamaihd.net</text>
<rect x="180" y="94" width="237.0" height="22" fill="#4c78a8" rx="3"/>
<text x="425.0" y="110" class="value">70.68</text>
<text x="10" y="142" class="label">ea.com</text>
<rect x="180" y="126" width="286.5" height="22" fill="#4c78a8" rx="3"/>
<text x="474.5" y="142" class="value">85.44</text>
<text x="10" y="174" class="label">unrealengine.com</text>
<rect x="180" y="158" width="382.1" height="22" fill="#4c78a8" rx="3"/>
<text x="570.1" y="174" class="value">113.95</text>
<text x="10" y="206" class="label">community.akamai.steamstatic.com</text>
<rect x="180" y="190" width="400.37" height="22" fill="#4c78a8" rx="3"/>
<text x="588.37" y="206" class="value">119.40</text>
<text x="10" y="238" class="label">battle.net</text>
<rect x="180" y="222" width="418.75" height="22" fill="#4c78a8" rx="3"/>
<text x="606.75" y="238" class="value">124.88</text>
<text x="10" y="270" class="label">ubisoft.com</text>
<rect x="180" y="254" width="424.48" height="22" fill="#4c78a8" rx="3"/>
<text x="612.48" y="270" class="value">126.59</text>
<text x="10" y="302" class="label">store.akamai.steamstatic.com</text>
<rect x="180" y="286" width="434.81" height="22" fill="#4c78a8" rx="3"/>
<text x="622.81" y="302" class="value">129.67</text>
<text x="10" y="334" class="label">ubi.com</text>
<rect x="180" y="318" width="442.28" height="22" fill="#4c78a8" rx="3"/>
<text x="630.28" y="334" class="value">131.90</text>
<text x="10" y="366" class="label">blizzard.com</text>
<rect x="180" y="350" width="445.4" height="22" fill="#4c78a8" rx="3"/>
<text x="633.4" y="366" class="value">132.83</text>
<text x="10" y="398" class="label">fortnite.com</text>
<rect x="180" y="382" width="453.45" height="22" fill="#4c78a8" rx="3"/>
<text x="641.45" y="398" class="value">135.23</text>
<text x="10" y="430" class="label">origin.com</text>
<rect x="180" y="414" width="474.07" height="22" fill="#4c78a8" rx="3"/>
<text x="662.0699999999999" y="430" class="value">141.38</text>
<text x="10" y="462" class="label">steamcdn-a.akamaihd.net</text>
<rect x="180" y="446" width="537.35" height="22" fill="#4c78a8" rx="3"/>
<text x="725.35" y="462" class="value">160.25</text>
<text x="10" y="494" class="label">epicgames.com</text>
<rect x="180" y="478" width="580.0" height="22" fill="#4c78a8" rx="3"/>
<text x="768.0" y="494" class="value">172.97</text>
<line x1="180" y1="30" x2="180" y2="520" stroke="#ccc"/>
<line x1="180" y1="520" x2="760" y2="520" stroke="#ccc"/>
</svg>