<svg xmlns="http://www.w3.org/2000/svg" width="800" height="540">
<style> .label{font-family:DejaVu Sans,Verdana,Geneva,sans-serif;font-size:12px;fill:#333} .value{font-family:DejaVu Sans,Verdana,Geneva,sans-serif;font-size:12px;fill:#555} </style>
<text x="10" y="20" class="label">延迟柱状图（越低越好，Top 15），单位 ms</text>
<text x="10" y="46" class="label">rockstargames.com</text>
<rect x="180" y="30" width="179.99" height="22" fill="#4c78a8" rx="3"/>
<text x="367.99" y="46" class="value">73.85</text>
<text x="10" y="78" class="label">eaassets-a.akamaihd.net</text>
<rect x="180" y="62" width="186.27" height="22" fill="#4c78a8" rx="3"/>
<text x="374.27" y="78" class="value">76.43</text>
<text x="10" y="110" class="label">epicgames.com</text>
<rect x="180" y="94" width="213.59" height="22" fill="#4c78a8" rx="3"/>
<text x="401.59000000000003" y="110" class="value">87.64</text>
<text x="10" y="142" class="label">socialclub.rockstargames.com</text>
<rect x="180" y="126" width="237.7" height="22" fill="#4c78a8" rx="3"/>
<text x="425.7" y="142" class="value">97.53</text>
<text x="10" y="174" class="label">ubi.com</text>
<rect x="180" y="158" width="270.11" height="22" fill="#4c78a8" rx="3"/>
<text x="458.11" y="174" class="value">110.83</text>
<text x="10" y="206" class="label">blizzard.com</text>
<rect x="180" y="190" width="276.74" height="22" fill="#4c78a8" rx="3"/>
<text x="464.74" y="206" class="value">113.55</text>
<text x="10" y="238" class="label">battle.net</text>
<rect x="180" y="222" width="279.35" height="22" fill="#4c78a8" rx="3"/>
<text x="467.35" y="238" class="value">114.62</text>
<text x="10" y="270" class="label">ea.com</text>
<rect x="180" y="254" width="369.31" height="22" fill="#4c78a8" rx="3"/>
<text x="557.31" y="270" class="value">151.53</text>
<text x="10" y="302" class="label">origin.com</text>
<rect x="180" y="286" width="379.57" height="22" fill="#4c78a8" rx="3"/>
<text x="567.5699999999999" y="302" class="value">155.74</text>
<text x="10" y="334" class="label">ubisoft.com</text>
<rect x="180" y="318" width="399.53" height="22" fill="#4c78a8" rx="3"/>
<text x="587.53" y="334" class="value">163.93</text>
<text x="10" y="366" class="label">cdn.akamai.steamstatic.com</text>
<rect x="180" y="350" width="422.85" height="22" fill="#4c78a8" rx="3"/>
<text x="610.85" y="366" class="value">173.50</text>
<text x="10" y="398" class="label">unrealengine.com</text>
<rect x="180" y="382" width="552.22" height="22" fill="#4c78a8" rx="3"/>
<text x="740.22" y="398" class="value">226.58</text>
<text x="10" y="430" class="label">fortnite.com</text>
<rect x="180" y="414" width="562.96" height="22" fill="#4c78a8" rx="3"/>
<text x="750.96" y="430" class="value">230.99</text>
<text x="10" y="462" class="label">community.akamai.steamstatic.com</text>
<rect x="180" y="446" width="565.69" height="22" fill="#4c78a8" rx="3"/>
<text x="753.69" y="462" class="value">232.11</text>
<text x="10" y="494" class="label">store.akamai.steamstatic.com</text>
<rect x="180" y="478" width="580.0" height="22" fill="#4c78a8" rx="3"/>
<text x="768.0" y="494" class="value">237.98</text>
<line x1="180" y1="30" x2="180" y2="520" stroke="#ccc"/>
<line x1="180" y1="520" x2="760" y2="520" stroke="#ccc"/>
</svg>