<svg xmlns="http://www.w3.org/2000/svg" width="800" height="540">
<style> .label{font-family:DejaVu Sans,Verdana,Geneva,sans-serif;font-size:12px;fill:#333} .value{font-family:DejaVu Sans,Verdana,Geneva,sans-serif;font-size:12px;fill:#555} </style>
<text x="10" y="20" class="label">延迟柱状图（越低越好，Top 15），单位 ms</text>
<text x="10" y="46" class="label">rockstargames.com</text>
<rect x="180" y="30" width="112.14" height="22" fill="#4c78a8" rx="3"/>
<text x="300.14" y="46" class="value">40.74</text>
<text x="10" y="78" class="label">eaassets-a.akamaihd.net</text>
<rect x="180" y="62" width="166.83" height="22" fill="#4c78a8" rx="3"/>
<text x="354.83000000000004" y="78" class="value">60.61</text>
<text x="10" y="110" class="label">socialclub.rockstargames.com</text>
<rect x="180" y="94" width="246.51" height="22" fill="#4c78a8" rx="3"/>
<text x="434.51" y="110" class="value">89.56</text>
<text x="10" y="142" class="label">ubi.com</text>
<rect x="180" y="126" width="259.25" height="22" fill="#4c78a8" rx="3"/>
<text x="447.25" y="142" class="value">94.19</text>
<text x="10" y="174" class="label">ea.com</text>
<rect x="180" y="158" width="260.41" height="22" fill="#4c78a8" rx="3"/>
<text x="448.41" y="174" class="value">94.61</text>
<text x="10" y="206" class="label">battle.net</text>
<rect x="180" y="190" width="297.95" height="22" fill="#4c78a8" rx="3"/>
<text x="485.95" y="206" class="value">108.25</text>
<text x="10" y="238" class="label">blizzard.com</text>
<rect x="180" y="222" width="332.61" height="22" fill="#4c78a8" rx="3"/>
<text x="520.61" y="238" class="value">120.84</text>
<text x="10" y="270" class="label">fortnite.com</text>
<rect x="180" y="254" width="345.49" height="22" fill="#4c78a8" rx="3"/>
<text x="533.49" y="270" class="value">125.52</text>
<text x="10" y="302" class="label">static3.cdn.ubi.com</text>
<rect x="180" y="286" width="434.81" height="22" fill="#4c78a8" rx="3"/>
<text x="622.81" y="302" class="value">157.97</text>
<text x="10" y="334" class="label">origin.com</text>
<rect x="180" y="318" width="441.61" height="22" fill="#4c78a8" rx="3"/>
<text x="629.61" y="334" class="value">160.44</text>
<text x="10" y="366" class="label">epicgames.com</text>
<rect x="180" y="350" width="465.28" height="22" fill="#4c78a8" rx="3"/>
<text x="653.28" y="366" class="value">169.04</text>
<text x="10" y="398" class="label">ubisoft.com</text>
<rect x="180" y="382" width="511.85" height="22" fill="#4c78a8" rx="3"/>
<text x="699.85" y="398" class="value">185.96</text>
<text x="10" y="430" class="label">unrealengine.com</text>
<rect x="180" y="414" width="539.26" height="22" fill="#4c78a8" rx="3"/>
<text x="727.26" y="430" class="value">195.92</text>
<text x="10" y="462" class="label">cdn.akamai.steamstatic.com</text>
<rect x="180" y="446" width="569.98" height="22" fill="#4c78a8" rx="3"/>
<text x="757.98" y="462" class="value">207.08</text>
<text x="10" y="494" class="label">easyanticheat.net</text>
<rect x="180" y="478" width="580.0" height="22" fill="#4c78a8" rx="3"/>
<text x="768.0" y="494" class="value">210.72</text>
<line x1="180" y1="30" x2="180" y2="520" stroke="#ccc"/>
<line x1="180" y1="520" x2="760" y2="520" stroke="#ccc"/>
</svg>