<svg xmlns="http://www.w3.org/2000/svg" width="800" height="540">
<style> .label{font-family:DejaVu Sans,Verdana,Geneva,sans-serif;font-size:12px;fill:#333} .value{font-family:DejaVu Sans,Verdana,Geneva,sans-serif;font-size:12px;fill:#555} </style>
<text x="10" y="20" class="label">延迟柱状图（越低越好，Top 15），单位 ms</text>
<text x="10" y="46" class="label">rockstargames.com</text>
<rect x="180" y="30" width="227.45" height="22" fill="#4c78a8" rx="3"/>
<text x="415.45" y="46" class="value">85.24</text>
<text x="10" y="78" class="label">socialclub.rockstargames.com</text>
<rect x="180" y="62" width="251.34" height="22" fill="#4c78a8" rx="3"/>
<text x="439.34000000000003" y="78" class="value">94.19</text>
<text x="10" y="110" class="label">ubi.com</text>
<rect x="180" y="94" width="259.58" height="22" fill="#4c78a8" rx="3"/>
<text x="447.58" y="110" class="value">97.28</text>
<text x="10" y="142" class="label">unrealengine.com</text>
<rect x="180" y="126" width="285.52" height="22" fill="#4c78a8" rx="3"/>
<text x="473.52" y="142" class="value">107.00</text>
<text x="10" y="174" class="label">blizzard.com</text>
<rect x="180" y="158" width="287.71" height="22" fill="#4c78a8" rx="3"/>
<text x="475.71" y="174" class="value">107.82</text>
<text x="10" y="206" class="label">battle.net</text>
<rect x="180" y="190" width="310.25" height="22" fill="#4c78a8" rx="3"/>
<text x="498.25" y="206" class="value">116.27</text>
<text x="10" y="238" class="label">ubisoft.com</text>
<rect x="180" y="222" width="338.62" height="22" fill="#4c78a8" rx="3"/>
<text x="526.62" y="238" class="value">126.90</text>
<text x="10" y="270" class="label">ea.com</text>
<rect x="180" y="254" width="413.15" height="22" fill="#4c78a8" rx="3"/>
<text x="601.15" y="270" class="value">154.83</text>
<text x="10" y="302" class="label">epicgames.com</text>
<rect x="180" y="286" width="457.28" height="22" fill="#4c78a8" rx="3"/>
<text x="645.28" y="302" class="value">171.37</text>
<text x="10" y="334" class="label">static3.cdn.ubi.com</text>
<rect x="180" y="318" width="465.29" height="22" fill="#4c78a8" rx="3"/>
<text x="653.29" y="334" class="value">174.37</text>
<text x="10" y="366" class="label">fortnite.com</text>
<rect x="180" y="350" width="513.34" height="22" fill="#4c78a8" rx="3"/>
<text x="701.34" y="366" class="value">192.38</text>
<text x="10" y="398" class="label">origin.com</text>
<rect x="180" y="382" width="541.44" height="22" fill="#4c78a8" rx="3"/>
<text x="729.44" y="398" class="value">202.91</text>
<text x="10" y="430" class="label">cdn.cloudflare.steamstatic.com</text>
<rect x="180" y="414" width="552.65" height="22" fill="#4c78a8" rx="3"/>
<text x="740.65" y="430" class="value">207.11</text>
<text x="10" y="462" class="label">cdn.akamai.steamstatic.com</text>
<rect x="180" y="446" width="576.24" height="22" fill="#4c78a8" rx="3"/>
<text x="764.24" y="462" class="value">215.95</text>
<text x="10" y="494" class="label">store.akamai.steamstatic.com</text>
<rect x="180" y="478" width="580.0" height="22" fill="#4c78a8" rx="3"/>
<text x="768.0" y="494" class="value">217.36</text>
<line x1="180" y1="30" x2="180" y2="520" stroke="#ccc"/>
<line x1="180" y1="520" x2="760" y2="520" stroke="#ccc"/>
</svg>