<svg xmlns="http://www.w3.org/2000/svg" width="800" height="540">
<style> .label{font-family:DejaVu Sans,Verdana,Geneva,sans-serif;font-size:12px;fill:#333} .value{font-family:DejaVu Sans,Verdana,Geneva,sans-serif;font-size:12px;fill:#555} </style>
<text x="10" y="20" class="label">延迟柱状图（越低越好，Top 15），单位 ms</text>
<text x="10" y="46" class="label">eaassets-a.akamaihd.net</text>
<rect x="180" y="30" width="180.66" height="22" fill="#4c78a8" rx="3"/>
<text x="368.65999999999997" y="46" class="value">62.32</text>
<text x="10" y="78" class="label">rockstargames.com</text>
<rect x="180" y="62" width="246.36" height="22" fill="#4c78a8" rx="3"/>
<text x="434.36" y="78" class="value">84.98</text>
<text x="10" y="110" class="label">steamcdn-a.akamaihd.net</text>
<rect x="180" y="94" width="252.73" height="22" fill="#4c78a8" rx="3"/>
<text x="440.73" y="110" class="value">87.18</text>
<text x="10" y="142" class="label">store.akamai.steamstatic.com</text>
<rect x="180" y="126" width="267.55" height="22" fill="#4c78a8" rx="3"/>
<text x="455.55" y="142" class="value">92.29</text>
<text x="10" y="174" class="label">cdn.akamai.steamstatic.com</text>
<rect x="180" y="158" width="276.01" height="22" fill="#4c78a8" rx="3"/>
<text x="464.01" y="174" class="value">95.21</text>
<text x="10" y="206" class="label">ea.com</text>
<rect x="180" y="190" width="335.79" height="22" fill="#4c78a8" rx="3"/>
<text x="523.79" y="206" class="value">115.83</text>
<text x="10" y="238" class="label">origin.com</text>
<rect x="180" y="222" width="386.09" height="22" fill="#4c78a8" rx="3"/>
<text x="574.0899999999999" y="238" class="value">133.18</text>
<text x="10" y="270" class="label">ubi.com</text>
<rect x="180" y="254" width="401.97" height="22" fill="#4c78a8" rx="3"/>
<text x="589.97" y="270" class="value">138.66</text>
<text x="10" y="302" class="label">blizzard.com</text>
<rect x="180" y="286" width="404.35" height="22" fill="#4c78a8" rx="3"/>
<text x="592.35" y="302" class="value">139.48</text>
<text x="10" y="334" class="label">socialclub.rockstargames.com</text>
<rect x="180" y="318" width="427.02" height="22" fill="#4c78a8" rx="3"/>
<text x="615.02" y="334" class="value">147.30</text>
<text x="10" y="366" class="label">cdn.cloudflare.steamstatic.com</text>
<rect x="180" y="350" width="430.56" height="22" fill="#4c78a8" rx="3"/>
<text x="618.56" y="366" class="value">148.52</text>
<text x="10" y="398" class="label">ubisoft.com</text>
<rect x="180" y="382" width="466.24" height="22" fill="#4c78a8" rx="3"/>
<text x="654.24" y="398" class="value">160.83</text>
<text x="10" y="430" class="label">api.steampowered.com</text>
<rect x="180" y="414" width="547.56" height="22" fill="#4c78a8" rx="3"/>
<text x="735.56" y="430" class="value">188.88</text>
<text x="10" y="462" class="label">www.steamcommunity.com</text>
<rect x="180" y="446" width="571.77" height="22" fill="#4c78a8" rx="3"/>
<text x="759.77" y="462" class="value">197.23</text>
<text x="10" y="494" class="label">static3.cdn.ubi.com</text>
<rect x="180" y="478" width="580.0" height="22" fill="#4c78a8" rx="3"/>
<text x="768.0" y="494" class="value">200.07</text>
<line x1="180" y1="30" x2="180" y2="520" stroke="#ccc"/>
<line x1="180" y1="520" x2="760" y2="520" stroke="#ccc"/>
</svg>