<svg xmlns="http://www.w3.org/2000/svg" width="800" height="540">
<style> .label{font-family:DejaVu Sans,Verdana,Geneva,sans-serif;font-size:12px;fill:#333} .value{font-family:DejaVu Sans,Verdana,Geneva,sans-serif;font-size:12px;fill:#555} </style>
<text x="10" y="20" class="label">延迟柱状图（越低越好，Top 15），单位 ms</text>
<text x="10" y="46" class="label">rockstargames.com</text>
<rect x="180" y="30" width="95.32" height="22" fill="#4c78a8" rx="3"/>
<text x="283.32" y="46" class="value">41.14</text>
<text x="10" y="78" class="label">eaassets-a.akamaihd.net</text>
<rect x="180" y="62" width="100.35" height="22" fill="#4c78a8" rx="3"/>
<text x="288.35" y="78" class="value">43.31</text>
<text x="10" y="110" class="label">ea.com</text>
<rect x="180" y="94" width="141.84" height="22" fill="#4c78a8" rx="3"/>
<text x="329.84000000000003" y="110" class="value">61.22</text>
<text x="10" y="142" class="label">origin.com</text>
<rect x="180" y="126" width="266.56" height="22" fill="#4c78a8" rx="3"/>
<text x="454.56" y="142" class="value">115.05</text>
<text x="10" y="174" class="label">store.akamai.steamstatic.com</text>
<rect x="180" y="158" width="337.6" height="22" fill="#4c78a8" rx="3"/>
<text x="525.6" y="174" class="value">145.71</text>
<text x="10" y="206" class="label">cdn.cloudflare.steamstatic.com</text>
<rect x="180" y="190" width="360.28" height="22" fill="#4c78a8" rx="3"/>
<text x="548.28" y="206" class="value">155.50</text>
<text x="10" y="238" class="label">community.akamai.steamstatic.com</text>
<rect x="180" y="222" width="382.02" height="22" fill="#4c78a8" rx="3"/>
<text x="570.02" y="238" class="value">164.88</text>
<text x="10" y="270" class="label">ubisoft.com</text>
<rect x="180" y="254" width="387.23" height="22" fill="#4c78a8" rx="3"/>
<text x="575.23" y="270" class="value">167.13</text>
<text x="10" y="302" class="label">cdn.akamai.steamstatic.com</text>
<rect x="180" y="286" width="387.72" height="22" fill="#4c78a8" rx="3"/>
<text x="575.72" y="302" class="value">167.34</text>
<text x="10" y="334" class="label">steam-chat.com</text>
<rect x="180" y="318" width="464.25" height="22" fill="#4c78a8" rx="3"/>
<text x="652.25" y="334" class="value">200.37</text>
<text x="10" y="366" class="label">www.steamcommunity.com</text>
<rect x="180" y="350" width="481.58" height="22" fill="#4c78a8" rx="3"/>
<text x="669.5799999999999" y="366" class="value">207.85</text>
<text x="10" y="398" class="label">steamcdn-a.akamaihd.net</text>
<rect x="180" y="382" width="489.38" height="22" fill="#4c78a8" rx="3"/>
<text x="677.38" y="398" class="value">211.22</text>
<text x="10" y="430" class="label">easyanticheat.net</text>
<rect x="180" y="414" width="494.46" height="22" fill="#4c78a8" rx="3"/>
<text x="682.46" y="430" class="value">213.41</text>
<text x="10" y="462" class="label">launcher-public-service-prod06.ol.epicgames.com</text>
<rect x="180" y="446" width="503.89" height="22" fill="#4c78a8" rx="3"/>
<text x="691.89" y="462" class="value">217.48</text>
<text x="10" y="494" class="label">gog.com</text>
<rect x="180" y="478" width="580.0" height="22" fill="#4c78a8" rx="3"/>
<text x="768.0" y="494" class="value">250.33</text>
<line x1="180" y1="30" x2="180" y2="520" stroke="#ccc"/>
<line x1="180" y1="520" x2="760" y2="520" stroke="#ccc"/>
</svg>