<svg xmlns="http://www.w3.org/2000/svg" width="800" height="540">
<style> .label{font-family:DejaVu Sans,Verdana,Geneva,sans-serif;font-size:12px;fill:#333} .value{font-family:DejaVu Sans,Verdana,Geneva,sans-serif;font-size:12px;fill:#555} </style>
<text x="10" y="20" class="label">延迟柱状图（越低越好，Top 15），单位 ms</text>
<text x="10" y="46" class="label">rockstargames.com</text>
<rect x="180" y="30" width="206.99" height="22" fill="#4c78a8" rx="3"/>
<text x="394.99" y="46" class="value">86.94</text>
<text x="10" y="78" class="label">eaassets-a.akamaihd.net</text>
<rect x="180" y="62" width="226.78" height="22" fill="#4c78a8" rx="3"/>
<text x="414.78" y="78" class="value">95.25</text>
<text x="10" y="110" class="label">store.akamai.steamstatic.com</text>
<rect x="180" y="94" width="286.92" height="22" fill="#4c78a8" rx="3"/>
<text x="474.92" y="110" class="value">120.51</text>
<text x="10" y="142" class="label">community.akamai.steamstatic.com</text>
<rect x="180" y="126" width="321.34" height="22" fill="#4c78a8" rx="3"/>
<text x="509.34" y="142" class="value">134.97</text>
<text x="10" y="174" class="label">ea.com</text>
<rect x="180" y="158" width="322.37" height="22" fill="#4c78a8" rx="3"/>
<text x="510.37" y="174" class="value">135.40</text>
<text x="10" y="206" class="label">ubisoft.com</text>
<rect x="180" y="190" width="322.77" height="22" fill="#4c78a8" rx="3"/>
<text x="510.77" y="206" class="value">135.57</text>
<text x="10" y="238" class="label">origin.com</text>
<rect x="180" y="222" width="325.37" height="22" fill="#4c78a8" rx="3"/>
<text x="513.37" y="238" class="value">136.66</text>
<text x="10" y="270" class="label">steamcdn-a.akamaihd.net</text>
<rect x="180" y="254" width="361.91" height="22" fill="#4c78a8" rx="3"/>
<text x="549.9100000000001" y="270" class="value">152.01</text>
<text x="10" y="302" class="label">cdn.akamai.steamstatic.com</text>
<rect x="180" y="286" width="371.08" height="22" fill="#4c78a8" rx="3"/>
<text x="559.0799999999999" y="302" class="value">155.86</text>
<text x="10" y="334" class="label">cdn.cloudflare.steamstatic.com</text>
<rect x="180" y="318" width="396.39" height="22" fill="#4c78a8" rx="3"/>
<text x="584.39" y="334" class="value">166.49</text>
<text x="10" y="366" class="label">easyanticheat.net</text>
<rect x="180" y="350" width="403.96" height="22" fill="#4c78a8" rx="3"/>
<text x="591.96" y="366" class="value">169.67</text>
<text x="10" y="398" class="label">www.steamcommunity.com</text>
<rect x="180" y="382" width="502.38" height="22" fill="#4c78a8" rx="3"/>
<text x="690.38" y="398" class="value">211.01</text>
<text x="10" y="430" class="label">steam-chat.com</text>
<rect x="180" y="414" width="535.36" height="22" fill="#4c78a8" rx="3"/>
<text x="723.36" y="430" class="value">224.86</text>
<text x="10" y="462" class="label">launcher-public-service-prod06.ol.epicgames.com</text>
<rect x="180" y="446" width="570.33" height="22" fill="#4c78a8" rx="3"/>
<text x="758.33" y="462" class="value">239.55</text>
<text x="10" y="494" class="label">steamcommunity.com</text>
<rect x="180" y="478" width="580.0" height="22" fill="#4c78a8" rx="3"/>
<text x="768.0" y="494" class="value">243.61</text>
<line x1="180" y1="30" x2="180" y2="520" stroke="#ccc"/>
<line x1="180" y1="520" x2="760" y2="520" stroke="#ccc"/>
</svg>