<svg xmlns="http://www.w3.org/2000/svg" width="800" height="540">
<style> .label{font-family:DejaVu Sans,Verdana,Geneva,sans-serif;font-size:12px;fill:#333} .value{font-family:DejaVu Sans,Verdana,Geneva,sans-serif;font-size:12px;fill:#555} </style>
<text x="10" y="20" class="label">延迟柱状图（越低越好，Top 15），单位 ms</text>
<text x="10" y="46" class="label">rockstargames.com</text>
<rect x="180" y="30" width="222.86" height="22" fill="#4c78a8" rx="3"/>
<text x="410.86" y="46" class="value">73.38</text>
<text x="10" y="78" class="label">origin.com</text>
<rect x="180" y="62" width="319.38" height="22" fill="#4c78a8" rx="3"/>
<text x="507.38" y="78" class="value">105.16</text>
<text x="10" y="110" class="label">steamcdn-a.akamaihd.net</text>
<rect x="180" y="94" width="329.86" height="22" fill="#4c78a8" rx="3"/>
<text x="517.86" y="110" class="value">108.61</text>
<text x="10" y="142" class="label">blizzard.com</text>
<rect x="180" y="126" width="369.22" height="22" fill="#4c78a8" rx="3"/>
<text x="557.22" y="142" class="value">121.57</text>
<text x="10" y="174" class="label">ubi.com</text>
<rect x="180" y="158" width="395.71" height="22" fill="#4c78a8" rx="3"/>
<text x="583.71" y="174" class="value">130.29</text>
<text x="10" y="206" class="label">battle.net</text>
<rect x="180" y="190" width="413.41" height="22" fill="#4c78a8" rx="3"/>
<text x="601.4100000000001" y="206" class="value">136.12</text>
<text x="10" y="238" class="label">eaassets-a.akamaihd.net</text>
<rect x="180" y="222" width="422.16" height="22" fill="#4c78a8" rx="3"/>
<text x="610.1600000000001" y="238" class="value">139.00</text>
<text x="10" y="270" class="label">store.akamai.steamstatic.com</text>
<rect x="180" y="254" width="436.13" height="22" fill="#4c78a8" rx="3"/>
<text x="624.13" y="270" class="value">143.60</text>
<text x="10" y="302" class="label">socialclub.rockstargames.com</text>
<rect x="180" y="286" width="468.63" height="22" fill="#4c78a8" rx="3"/>
<text x="656.63" y="302" class="value">154.30</text>
<text x="10" y="334" class="label">cdn.akamai.steamstatic.com</text>
<rect x="180" y="318" width="484.33" height="22" fill="#4c78a8" rx="3"/>
<text x="672.3299999999999" y="334" class="value">159.47</text>
<text x="10" y="366" class="label">cdn.cloudflare.steamstatic.com</text>
<rect x="180" y="350" width="484.57" height="22" fill="#4c78a8" rx="3"/>
<text x="672.5699999999999" y="366" class="value">159.55</text>
<text x="10" y="398" class="label">api.steampowered.com</text>
<rect x="180" y="382" width="499.64" height="22" fill="#4c78a8" rx="3"/>
<text x="687.64" y="398" class="value">164.51</text>
<text x="10" y="430" class="label">community.akamai.steamstatic.com</text>
<rect x="180" y="414" width="509.02" height="22" fill="#4c78a8" rx="3"/>
<text x="697.02" y="430" class="value">167.60</text>
<text x="10" y="462" class="label">ea.com</text>
<rect x="180" y="446" width="529.1" height="22" fill="#4c78a8" rx="3"/>
<text x="717.1" y="462" class="value">174.21</text>
<text x="10" y="494" class="label">epicgames.com</text>
<rect x="180" y="478" width="580.0" height="22" fill="#4c78a8" rx="3"/>
<text x="768.0" y="494" class="value">190.97</text>
<line x1="180" y1="30" x2="180" y2="520" stroke="#ccc"/>
<line x1="180" y1="520" x2="760" y2="520" stroke="#ccc"/>
</svg>