<svg xmlns="http://www.w3.org/2000/svg" width="800" height="540">
<style> .label{font-family:DejaVu Sans,Verdana,Geneva,sans-serif;font-size:12px;fill:#333} .value{font-family:DejaVu Sans,Verdana,Geneva,sans-serif;font-size:12px;fill:#555} </style>
<text x="10" y="20" class="label">延迟柱状图（越低越好，Top 15），单位 ms</text>
<text x="10" y="46" class="label">eaassets-a.akamaihd.net</text>
<rect x="180" y="30" width="95.28" height="22" fill="#4c78a8" rx="3"/>
<text x="283.28" y="46" class="value">33.60</text>
<text x="10" y="78" class="label">rockstargames.com</text>
<rect x="180" y="62" width="227.08" height="22" fill="#4c78a8" rx="3"/>
<text x="415.08000000000004" y="78" class="value">80.08</text>
<text x="10" y="110" class="label">ea.com</text>
<rect x="180" y="94" width="255.24" height="22" fill="#4c78a8" rx="3"/>
<text x="443.24" y="110" class="value">90.01</text>
<text x="10" y="142" class="label">store.akamai.steamstatic.com</text>
<rect x="180" y="126" width="296.61" height="22" fill="#4c78a8" rx="3"/>
<text x="484.61" y="142" class="value">104.60</text>
<text x="10" y="174" class="label">battle.net</text>
<rect x="180" y="158" width="367.92" height="22" fill="#4c78a8" rx="3"/>
<text x="555.9200000000001" y="174" class="value">129.75</text>
<text x="10" y="206" class="label">blizzard.com</text>
<rect x="180" y="190" width="377.93" height="22" fill="#4c78a8" rx="3"/>
<text x="565.9300000000001" y="206" class="value">133.28</text>
<text x="10" y="238" class="label">steamcdn-a.akamaihd.net</text>
<rect x="180" y="222" width="405.78" height="22" fill="#4c78a8" rx="3"/>
<text x="593.78" y="238" class="value">143.10</text>
<text x="10" y="270" class="label">ubi.com</text>
<rect x="180" y="254" width="437.99" height="22" fill="#4c78a8" rx="3"/>
<text x="625.99" y="270" class="value">154.46</text>
<text x="10" y="302" class="label">socialclub.rockstargames.com</text>
<rect x="180" y="286" width="441.08" height="22" fill="#4c78a8" rx="3"/>
<text x="629.0799999999999" y="302" class="value">155.55</text>
<text x="10" y="334" class="label">community.akamai.steamstatic.com</text>
<rect x="180" y="318" width="487.62" height="22" fill="#4c78a8" rx="3"/>
<text x="675.62" y="334" class="value">171.96</text>
<text x="10" y="366" class="label">easyanticheat.net</text>
<rect x="180" y="350" width="492.29" height="22" fill="#4c78a8" rx="3"/>
<text x="680.29" y="366" class="value">173.61</text>
<text x="10" y="398" class="label">steamcommunity.com</text>
<rect x="180" y="382" width="495.81" height="22" fill="#4c78a8" rx="3"/>
<text x="683.81" y="398" class="value">174.85</text>
<text x="10" y="430" class="label">ubisoft.com</text>
<rect x="180" y="414" width="517.7" height="22" fill="#4c78a8" rx="3"/>
<text x="705.7" y="430" class="value">182.57</text>
<text x="10" y="462" class="label">launcher-public-service-prod06.ol.epicgames.com</text>
<rect x="180" y="446" width="557.46" height="22" fill="#4c78a8" rx="3"/>
<text x="745.46" y="462" class="value">196.59</text>
<text x="10" y="494" class="label">cdn.cloudflare.steamstatic.com</text>
<rect x="180" y="478" width="580.0" height="22" fill="#4c78a8" rx="3"/>
<text x="768.0" y="494" class="value">204.54</text>
<line x1="180" y1="30" x2="180" y2="520" stroke="#ccc"/>
<line x1="180" y1="520" x2="760" y2="520" stroke="#ccc"/>
</svg>