<svg xmlns="http://www.w3.org/2000/svg" width="800" height="540">
<style> .label{font-family:DejaVu Sans,Verdana,Geneva,sans-serif;font-size:12px;fill:#333} .value{font-family:DejaVu Sans,Verdana,Geneva,sans-serif;font-size:12px;fill:#555} </style>
<text x="10" y="20" class="label">延迟柱状图（越低越好，Top 15），单位 ms</text>
<text x="10" y="46" class="label">rockstargames.com</text>
<rect x="180" y="30" width="157.06" height="22" fill="#4c78a8" rx="3"/>
<text x="345.06" y="46" class="value">59.08</text>
<text x="10" y="78" class="label">ea.com</text>
<rect x="180" y="62" width="216.63" height="22" fill="#4c78a8" rx="3"/>
<text x="404.63" y="78" class="value">81.49</text>
<text x="10" y="110" class="label">store.akamai.steamstatic.com</text>
<rect x="180" y="94" width="243.4" height="22" fill="#4c78a8" rx="3"/>
<text x="431.4" y="110" class="value">91.56</text>
<text x="10" y="142" class="label">battle.net</text>
<rect x="180" y="126" width="358.67" height="22" fill="#4c78a8" rx="3"/>
<text x="546.6700000000001" y="142" class="value">134.92</text>
<text x="10" y="174" class="label">steamcdn-a.akamaihd.net</text>
<rect x="180" y="158" width="359.04" height="22" fill="#4c78a8" rx="3"/>
<text x="547.04" y="174" class="value">135.06</text>
<text x="10" y="206" class="label">ubi.com</text>
<rect x="180" y="190" width="367.09" height="22" fill="#4c78a8" rx="3"/>
<text x="555.0899999999999" y="206" class="value">138.09</text>
<text x="10" y="238" class="label">origin.com</text>
<rect x="180" y="222" width="367.94" height="22" fill="#4c78a8" rx="3"/>
<text x="555.94" y="238" class="value">138.41</text>
<text x="10" y="270" class="label">blizzard.com</text>
<rect x="180" y="254" width="376.93" height="22" fill="#4c78a8" rx="3"/>
<text x="564.9300000000001" y="270" class="value">141.79</text>
<text x="10" y="302" class="label">socialclub.rockstargames.com</text>
<rect x="180" y="286" width="380.22" height="22" fill="#4c78a8" rx="3"/>
<text x="568.22" y="302" class="value">143.03</text>
<text x="10" y="334" class="label">easyanticheat.net</text>
<rect x="180" y="318" width="395.43" height="22" fill="#4c78a8" rx="3"/>
<text x="583.4300000000001" y="334" class="value">148.75</text>
<text x="10" y="366" class="label">static3.cdn.ubi.com</text>
<rect x="180" y="350" width="416.51" height="22" fill="#4c78a8" rx="3"/>
<text x="604.51" y="366" class="value">156.68</text>
<text x="10" y="398" class="label">api.steampowered.com</text>
<rect x="180" y="382" width="418.03" height="22" fill="#4c78a8" rx="3"/>
<text x="606.03" y="398" class="value">157.25</text>
<text x="10" y="430" class="label">gog.com</text>
<rect x="180" y="414" width="535.79" height="22" fill="#4c78a8" rx="3"/>
<text x="723.79" y="430" class="value">201.55</text>
<text x="10" y="462" class="label">cdn.cloudflare.steamstatic.com</text>
<rect x="180" y="446" width="536.78" height="22" fill="#4c78a8" rx="3"/>
<text x="724.78" y="462" class="value">201.92</text>
<text x="10" y="494" class="label">unrealengine.com</text>
<rect x="180" y="478" width="580.0" height="22" fill="#4c78a8" rx="3"/>
<text x="768.0" y="494" class="value">218.18</text>
<line x1="180" y1="30" x2="180" y2="520" stroke="#ccc"/>
<line x1="180" y1="520" x2="760" y2="520" stroke="#ccc"/>
</svg>