<svg xmlns="http://www.w3.org/2000/svg" width="800" height="540">
<style> .label{font-family:DejaVu Sans,Verdana,Geneva,sans-serif;font-size:12px;fill:#333} .value{font-family:DejaVu Sans,Verdana,Geneva,sans-serif;font-size:12px;fill:#555} </style>
<text x="10" y="20" class="label">延迟柱状图（越低越好，Top 15），单位 ms</text>
<text x="10" y="46" class="label">blizzard.com</text>
<rect x="180" y="30" width="161.42" height="22" fill="#4c78a8" rx="3"/>
<text x="349.41999999999996" y="46" class="value">61.64</text>
<text x="10" y="78" class="label">rockstargames.com</text>
<rect x="180" y="62" width="197.32" height="22" fill="#4c78a8" rx="3"/>
<text x="385.32" y="78" class="value">75.35</text>
<text x="10" y="110" class="label">battle.net</text>
<rect x="180" y="94" width="219.66" height="22" fill="#4c78a8" rx="3"/>
<text x="407.65999999999997" y="110" class="value">83.88</text>
<text x="10" y="142" class="label">eaassets-a.akamaihd.net</text>
<rect x="180" y="126" width="231.42" height="22" fill="#4c78a8" rx="3"/>
<text x="419.41999999999996" y="142" class="value">88.37</text>
<text x="10" y="174" class="label">ea.com</text>
<rect x="180" y="158" width="236.73" height="22" fill="#4c78a8" rx="3"/>
<text x="424.73" y="174" class="value">90.40</text>
<text x="10" y="206" class="label">socialclub.rockstargames.com</text>
<rect x="180" y="190" width="272.4" height="22" fill="#4c78a8" rx="3"/>
<text x="460.4" y="206" class="value">104.02</text>
<text x="10" y="238" class="label">ubi.com</text>
<rect x="180" y="222" width="339.76" height="22" fill="#4c78a8" rx="3"/>
<text x="527.76" y="238" class="value">129.74</text>
<text x="10" y="270" class="label">epicgames.com</text>
<rect x="180" y="254" width="441.08" height="22" fill="#4c78a8" rx="3"/>
<text x="629.0799999999999" y="270" class="value">168.43</text>
<text x="10" y="302" class="label">community.akamai.steamstatic.com</text>
<rect x="180" y="286" width="467.97" height="22" fill="#4c78a8" rx="3"/>
<text x="655.97" y="302" class="value">178.70</text>
<text x="10" y="334" class="label">unrealengine.com</text>
<rect x="180" y="318" width="496.2" height="22" fill="#4c78a8" rx="3"/>
<text x="684.2" y="334" class="value">189.48</text>
<text x="10" y="366" class="label">steam-chat.com</text>
<rect x="180" y="350" width="503.85" height="22" fill="#4c78a8" rx="3"/>
<text x="691.85" y="366" class="value">192.40</text>
<text x="10" y="398" class="label">fortnite.com</text>
<rect x="180" y="382" width="515.63" height="22" fill="#4c78a8" rx="3"/>
<text x="703.63" y="398" class="value">196.90</text>
<text x="10" y="430" class="label">steamcdn-a.akamaihd.net</text>
<rect x="180" y="414" width="550.62" height="22" fill="#4c78a8" rx="3"/>
<text x="738.62" y="430" class="value">210.26</text>
<text x="10" y="462" class="label">store.akamai.steamstatic.com</text>
<rect x="180" y="446" width="575.57" height="22" fill="#4c78a8" rx="3"/>
<text x="763.57" y="462" class="value">219.79</text>
<text x="10" y="494" class="label">ubisoft.com</text>
<rect x="180" y="478" width="580.0" height="22" fill="#4c78a8" rx="3"/>
<text x="768.0" y="494" class="value">221.48</text>
<line x1="180" y1="30" x2="180" y2="520" stroke="#ccc"/>
<line x1="180" y1="520" x2="760" y2="520" stroke="#ccc"/>
</svg>