<svg xmlns="http://www.w3.org/2000/svg" width="800" height="540">
<style> .label{font-family:DejaVu Sans,Verdana,Geneva,sans-serif;font-size:12px;fill:#333} .value{font-family:DejaVu Sans,Verdana,Geneva,sans-serif;font-size:12px;fill:#555} </style>
<text x="10" y="20" class="label">延迟柱状图（越低越好，Top 15），单位 ms</text>
<text x="10" y="46" class="label">rockstargames.com</text>
<rect x="180" y="30" width="165.4" height="22" fill="#4c78a8" rx="3"/>
<text x="353.4" y="46" class="value">57.70</text>
<text x="10" y="78" class="label">socialclub.rockstargames.com</text>
<rect x="180" y="62" width="183.23" height="22" fill="#4c78a8" rx="3"/>
<text x="371.23" y="78" class="value">63.92</text>
<text x="10" y="110" class="label">blizzard.com</text>
<rect x="180" y="94" width="215.88" height="22" fill="#4c78a8" rx="3"/>
<text x="403.88" y="110" class="value">75.31</text>
<text x="10" y="142" class="label">ea.com</text>
<rect x="180" y="126" width="299.9" height="22" fill="#4c78a8" rx="3"/>
<text x="487.9" y="142" class="value">104.62</text>
<text x="10" y="174" class="label">ubi.com</text>
<rect x="180" y="158" width="303.54" height="22" fill="#4c78a8" rx="3"/>
<text x="491.54" y="174" class="value">105.89</text>
<text x="10" y="206" class="label">eaassets-a.akamaihd.net</text>
<rect x="180" y="190" width="303.77" height="22" fill="#4c78a8" rx="3"/>
<text x="491.77" y="206" class="value">105.97</text>
<text x="10" y="238" class="label">ubisoft.com</text>
<rect x="180" y="222" width="306.1" height="22" fill="#4c78a8" rx="3"/>
<text x="494.1" y="238" class="value">106.78</text>
<text x="10" y="270" class="label">origin.com</text>
<rect x="180" y="254" width="309.39" height="22" fill="#4c78a8" rx="3"/>
<text x="497.39" y="270" class="value">107.93</text>
<text x="10" y="302" class="label">battle.net</text>
<rect x="180" y="286" width="324.73" height="22" fill="#4c78a8" rx="3"/>
<text x="512.73" y="302" class="value">113.28</text>
<text x="10" y="334" class="label">epicgames.com</text>
<rect x="180" y="318" width="339.66" height="22" fill="#4c78a8" rx="3"/>
<text x="527.6600000000001" y="334" class="value">118.49</text>
<text x="10" y="366" class="label">unrealengine.com</text>
<rect x="180" y="350" width="355.69" height="22" fill="#4c78a8" rx="3"/>
<text x="543.69" y="366" class="value">124.08</text>
<text x="10" y="398" class="label">cdn.cloudflare.steamstatic.com</text>
<rect x="180" y="382" width="461.09" height="22" fill="#4c78a8" rx="3"/>
<text x="649.0899999999999" y="398" class="value">160.85</text>
<text x="10" y="430" class="label">static3.cdn.ubi.com</text>
<rect x="180" y="414" width="461.72" height="22" fill="#4c78a8" rx="3"/>
<text x="649.72" y="430" class="value">161.07</text>
<text x="10" y="462" class="label">steamcdn-a.akamaihd.net</text>
<rect x="180" y="446" width="481.33" height="22" fill="#4c78a8" rx="3"/>
<text x="669.3299999999999" y="462" class="value">167.91</text>
<text x="10" y="494" class="label">fortnite.com</text>
<rect x="180" y="478" width="580.0" height="22" fill="#4c78a8" rx="3"/>
<text x="768.0" y="494" class="value">202.33</text>
<line x1="180" y1="30" x2="180" y2="520" stroke="#ccc"/>
<line x1="180" y1="520" x2="760" y2="520" stroke="#ccc"/>
</svg>