<svg xmlns="http://www.w3.org/2000/svg" width="800" height="540">
<style> .label{font-family:DejaVu Sans,Verdana,Geneva,sans-serif;font-size:12px;fill:#333} .value{font-family:DejaVu Sans,Verdana,Geneva,sans-serif;font-size:12px;fill:#555} </style>
<text x="10" y="20" class="label">延迟柱状图（越低越好，Top 15），单位 ms</text>
<text x="10" y="46" class="label">rockstargames.com</text>
<rect x="180" y="30" width="79.1" height="22" fill="#4c78a8" rx="3"/>
<text x="267.1" y="46" class="value">37.80</text>
<text x="10" y="78" class="label">eaassets-a.akamaihd.net</text>
<rect x="180" y="62" width="87.49" height="22" fill="#4c78a8" rx="3"/>
<text x="275.49" y="78" class="value">41.81</text>
<text x="10" y="110" class="label">steamcdn-a.akamaihd.net</text>
<rect x="180" y="94" width="156.71" height="22" fill="#4c78a8" rx="3"/>
<text x="344.71000000000004" y="110" class="value">74.89</text>
<text x="10" y="142" class="label">origin.com</text>
<rect x="180" y="126" width="179.87" height="22" fill="#4c78a8" rx="3"/>
<text x="367.87" y="142" class="value">85.96</text>
<text x="10" y="174" class="label">community.akamai.steamstatic.com</text>
<rect x="180" y="158" width="219.0" height="22" fill="#4c78a8" rx="3"/>
<text x="407.0" y="174" class="value">104.66</text>
<text x="10" y="206" class="label">ea.com</text>
<rect x="180" y="190" width="229.97" height="22" fill="#4c78a8" rx="3"/>
<text x="417.97" y="206" class="value">109.90</text>
<text x="10" y="238" class="label">store.akamai.steamstatic.com</text>
<rect x="180" y="222" width="244.74" height="22" fill="#4c78a8" rx="3"/>
<text x="432.74" y="238" class="value">116.96</text>
<text x="10" y="270" class="label">ubisoft.com</text>
<rect x="180" y="254" width="260.7" height="22" fill="#4c78a8" rx="3"/>
<text x="448.7" y="270" class="value">124.59</text>
<text x="10" y="302" class="label">api.steampowered.com</text>
<rect x="180" y="286" width="411.91" height="22" fill="#4c78a8" rx="3"/>
<text x="599.9100000000001" y="302" class="value">196.85</text>
<text x="10" y="334" class="label">cdn.akamai.steamstatic.com</text>
<rect x="180" y="318" width="420.87" height="22" fill="#4c78a8" rx="3"/>
<text x="608.87" y="334" class="value">201.13</text>
<text x="10" y="366" class="label">cdn.cloudflare.steamstatic.com</text>
<rect x="180" y="350" width="421.45" height="22" fill="#4c78a8" rx="3"/>
<text x="609.45" y="366" class="value">201.41</text>
<text x="10" y="398" class="label">easyanticheat.net</text>
<rect x="180" y="382" width="477.68" height="22" fill="#4c78a8" rx="3"/>
<text x="665.6800000000001" y="398" class="value">228.28</text>
<text x="10" y="430" class="label">www.steamcommunity.com</text>
<rect x="180" y="414" width="495.44" height="22" fill="#4c78a8" rx="3"/>
<text x="683.44" y="430" class="value">236.77</text>
<text x="10" y="462" class="label">steam-chat.com</text>
<rect x="180" y="446" width="497.53" height="22" fill="#4c78a8" rx="3"/>
<text x="685.53" y="462" class="value">237.77</text>
<text x="10" y="494" class="label">battle.net</text>
<rect x="180" y="478" width="580.0" height="22" fill="#4c78a8" rx="3"/>
<text x="768.0" y="494" class="value">277.18</text>
<line x1="180" y1="30" x2="180" y2="520" stroke="#ccc"/>
<line x1="180" y1="520" x2="760" y2="520" stroke="#ccc"/>
</svg>