<svg xmlns="http://www.w3.org/2000/svg" width="800" height="540">
<style> .label{font-family:DejaVu Sans,Verdana,Geneva,sans-serif;font-size:12px;fill:#333} .value{font-family:DejaVu Sans,Verdana,Geneva,sans-serif;font-size:12px;fill:#555} </style>
<text x="10" y="20" class="label">延迟柱状图（越低越好，Top 15），单位 ms</text>
<text x="10" y="46" class="label">rockstargames.com</text>
<rect x="180" y="30" width="133.31" height="22" fill="#4c78a8" rx="3"/>
<text x="321.31" y="46" class="value">49.80</text>
<text x="10" y="78" class="label">socialclub.rockstargames.com</text>
<rect x="180" y="62" width="219.5" height="22" fill="#4c78a8" rx="3"/>
<text x="407.5" y="78" class="value">82.00</text>
<text x="10" y="110" class="label">blizzard.com</text>
<rect x="180" y="94" width="251.23" height="22" fill="#4c78a8" rx="3"/>
<text x="439.23" y="110" class="value">93.85</text>
<text x="10" y="142" class="label">ubi.com</text>
<rect x="180" y="126" width="284.45" height="22" fill="#4c78a8" rx="3"/>
<text x="472.45" y="142" class="value">106.26</text>
<text x="10" y="174" class="label">cdn.akamai.steamstatic.com</text>
<rect x="180" y="158" width="326.63" height="22" fill="#4c78a8" rx="3"/>
<text x="514.63" y="174" class="value">122.02</text>
<text x="10" y="206" class="label">battle.net</text>
<rect x="180" y="190" width="334.21" height="22" fill="#4c78a8" rx="3"/>
<text x="522.21" y="206" class="value">124.85</text>
<text x="10" y="238" class="label">ubisoft.com</text>
<rect x="180" y="222" width="360.31" height="22" fill="#4c78a8" rx="3"/>
<text x="548.31" y="238" class="value">134.60</text>
<text x="10" y="270" class="label">eaassets-a.akamaihd.net</text>
<rect x="180" y="254" width="365.42" height="22" fill="#4c78a8" rx="3"/>
<text x="553.4200000000001" y="270" class="value">136.51</text>
<text x="10" y="302" class="label">unrealengine.com</text>
<rect x="180" y="286" width="400.73" height="22" fill="#4c78a8" rx="3"/>
<text x="588.73" y="302" class="value">149.70</text>
<text x="10" y="334" class="label">ea.com</text>
<rect x="180" y="318" width="410.93" height="22" fill="#4c78a8" rx="3"/>
<text x="598.9300000000001" y="334" class="value">153.51</text>
<text x="10" y="366" class="label">origin.com</text>
<rect x="180" y="350" width="452.39" height="22" fill="#4c78a8" rx="3"/>
<text x="640.39" y="366" class="value">169.00</text>
<text x="10" y="398" class="label">cdn.cloudflare.steamstatic.com</text>
<rect x="180" y="382" width="481.01" height="22" fill="#4c78a8" rx="3"/>
<text x="669.01" y="398" class="value">179.69</text>
<text x="10" y="430" class="label">fortnite.com</text>
<rect x="180" y="414" width="489.79" height="22" fill="#4c78a8" rx="3"/>
<text x="677.79" y="430" class="value">182.97</text>
<text x="10" y="462" class="label">epicgames.com</text>
<rect x="180" y="446" width="535.16" height="22" fill="#4c78a8" rx="3"/>
<text x="723.16" y="462" class="value">199.92</text>
<text x="10" y="494" class="label">www.steamcommunity.com</text>
<rect x="180" y="478" width="580.0" height="22" fill="#4c78a8" rx="3"/>
<text x="768.0" y="494" class="value">216.67</text>
<line x1="180" y1="30" x2="180" y2="520" stroke="#ccc"/>
<line x1="180" y1="520" x2="760" y2="520" stroke="#ccc"/>
</svg>