<svg xmlns="http://www.w3.org/2000/svg" width="800" height="540">
<style> .label{font-family:DejaVu Sans,Verdana,Geneva,sans-serif;font-size:12px;fill:#333} .value{font-family:DejaVu Sans,Verdana,Geneva,sans-serif;font-size:12px;fill:#555} </style>
<text x="10" y="20" class="label">延迟柱状图（越低越好，Top 15），单位 ms</text>
<text x="10" y="46" class="label">rockstargames.com</text>
<rect x="180" y="30" width="141.91" height="22" fill="#4c78a8" rx="3"/>
<text x="329.90999999999997" y="46" class="value">53.69</text>
<text x="10" y="78" class="label">eaassets-a.akamaihd.net</text>
<rect x="180" y="62" width="233.0" height="22" fill="#4c78a8" rx="3"/>
<text x="421.0" y="78" class="value">88.15</text>
<text x="10" y="110" class="label">socialclub.rockstargames.com</text>
<rect x="180" y="94" width="234.96" height="22" fill="#4c78a8" rx="3"/>
<text x="422.96000000000004" y="110" class="value">88.89</text>
<text x="10" y="142" class="label">ea.com</text>
<rect x="180" y="126" width="268.84" height="22" fill="#4c78a8" rx="3"/>
<text x="456.84" y="142" class="value">101.71</text>
<text x="10" y="174" class="label">ubi.com</text>
<rect x="180" y="158" width="280.05" height="22" fill="#4c78a8" rx="3"/>
<text x="468.05" y="174" class="value">105.95</text>
<text x="10" y="206" class="label">battle.net</text>
<rect x="180" y="190" width="321.57" height="22" fill="#4c78a8" rx="3"/>
<text x="509.57" y="206" class="value">121.66</text>
<text x="10" y="238" class="label">store.akamai.steamstatic.com</text>
<rect x="180" y="222" width="356.07" height="22" fill="#4c78a8" rx="3"/>
<text x="544.0699999999999" y="238" class="value">134.71</text>
<text x="10" y="270" class="label">ubisoft.com</text>
<rect x="180" y="254" width="369.1" height="22" fill="#4c78a8" rx="3"/>
<text x="557.1" y="270" class="value">139.64</text>
<text x="10" y="302" class="label">blizzard.com</text>
<rect x="180" y="286" width="371.53" height="22" fill="#4c78a8" rx="3"/>
<text x="559.53" y="302" class="value">140.56</text>
<text x="10" y="334" class="label">unrealengine.com</text>
<rect x="180" y="318" width="389.16" height="22" fill="#4c78a8" rx="3"/>
<text x="577.1600000000001" y="334" class="value">147.23</text>
<text x="10" y="366" class="label">epicgames.com</text>
<rect x="180" y="350" width="447.31" height="22" fill="#4c78a8" rx="3"/>
<text x="635.31" y="366" class="value">169.23</text>
<text x="10" y="398" class="label">static3.cdn.ubi.com</text>
<rect x="180" y="382" width="476.86" height="22" fill="#4c78a8" rx="3"/>
<text x="664.86" y="398" class="value">180.41</text>
<text x="10" y="430" class="label">fortnite.com</text>
<rect x="180" y="414" width="509.95" height="22" fill="#4c78a8" rx="3"/>
<text x="697.95" y="430" class="value">192.93</text>
<text x="10" y="462" class="label">cdn.akamai.steamstatic.com</text>
<rect x="180" y="446" width="574.9" height="22" fill="#4c78a8" rx="3"/>
<text x="762.9" y="462" class="value">217.50</text>
<text x="10" y="494" class="label">steamcdn-a.akamaihd.net</text>
<rect x="180" y="478" width="580.0" height="22" fill="#4c78a8" rx="3"/>
<text x="768.0" y="494" class="value">219.43</text>
<line x1="180" y1="30" x2="180" y2="520" stroke="#ccc"/>
<line x1="180" y1="520" x2="760" y2="520" stroke="#ccc"/>
</svg>