<svg xmlns="http://www.w3.org/2000/svg" width="800" height="540">
<style> .label{font-family:DejaVu Sans,Verdana,Geneva,sans-serif;font-size:12px;fill:#333} .value{font-family:DejaVu Sans,Verdana,Geneva,sans-serif;font-size:12px;fill:#555} </style>
<text x="10" y="20" class="label">延迟柱状图（越低越好，Top 15），单位 ms</text>
<text x="10" y="46" class="label">ubisoft.com</text>
<rect x="180" y="30" width="277.51" height="22" fill="#4c78a8" rx="3"/>
<text x="465.51" y="46" class="value">126.34</text>
<text x="10" y="78" class="label">origin.com</text>
<rect x="180" y="62" width="314.88" height="22" fill="#4c78a8" rx="3"/>
<text x="502.88" y="78" class="value">143.35</text>
<text x="10" y="110" class="label">ea.com</text>
<rect x="180" y="94" width="331.22" height="22" fill="#4c78a8" rx="3"/>
<text x="519.22" y="110" class="value">150.79</text>
<text x="10" y="142" class="label">community.akamai.steamstatic.com</text>
<rect x="180" y="126" width="346.02" height="22" fill="#4c78a8" rx="3"/>
<text x="534.02" y="142" class="value">157.53</text>
<text x="10" y="174" class="label">easyanticheat.net</text>
<rect x="180" y="158" width="405.11" height="22" fill="#4c78a8" rx="3"/>
<text x="593.11" y="174" class="value">184.43</text>
<text x="10" y="206" class="label">rockstargames.com</text>
<rect x="180" y="190" width="410.6" height="22" fill="#4c78a8" rx="3"/>
<text x="598.6" y="206" class="value">186.93</text>
<text x="10" y="238" class="label">steamcdn-a.akamaihd.net</text>
<rect x="180" y="222" width="443.35" height="22" fill="#4c78a8" rx="3"/>
<text x="631.35" y="238" class="value">201.84</text>
<text x="10" y="270" class="label">launcher-public-service-prod06.ol.epicgames.com</text>
<rect x="180" y="254" width="498.93" height="22" fill="#4c78a8" rx="3"/>
<text x="686.9300000000001" y="270" class="value">227.14</text>
<text x="10" y="302" class="label">store.akamai.steamstatic.com</text>
<rect x="180" y="286" width="515.9" height="22" fill="#4c78a8" rx="3"/>
<text x="703.9" y="302" class="value">234.87</text>
<text x="10" y="334" class="label">steam-chat.com</text>
<rect x="180" y="318" width="520.08" height="22" fill="#4c78a8" rx="3"/>
<text x="708.08" y="334" class="value">236.77</text>
<text x="10" y="366" class="label">cdn.akamai.steamstatic.com</text>
<rect x="180" y="350" width="523.02" height="22" fill="#4c78a8" rx="3"/>
<text x="711.02" y="366" class="value">238.11</text>
<text x="10" y="398" class="label">steamcommunity.com</text>
<rect x="180" y="382" width="526.91" height="22" fill="#4c78a8" rx="3"/>
<text x="714.91" y="398" class="value">239.88</text>
<text x="10" y="430" class="label">socialclub.rockstargames.com</text>
<rect x="180" y="414" width="529.9" height="22" fill="#4c78a8" rx="3"/>
<text x="717.9" y="430" class="value">241.24</text>
<text x="10" y="462" class="label">ubi.com</text>
<rect x="180" y="446" width="536.99" height="22" fill="#4c78a8" rx="3"/>
<text x="724.99" y="462" class="value">244.47</text>
<text x="10" y="494" class="label">www.steamcommunity.com</text>
<rect x="180" y="478" width="580.0" height="22" fill="#4c78a8" rx="3"/>
<text x="768.0" y="494" class="value">264.05</text>
<line x1="180" y1="30" x2="180" y2="520" stroke="#ccc"/>
<line x1="180" y1="520" x2="760" y2="520" stroke="#ccc"/>
</svg>