<svg xmlns="http://www.w3.org/2000/svg" width="800" height="540">
<style> .label{font-family:DejaVu Sans,Verdana,Geneva,sans-serif;font-size:12px;fill:#333} .value{font-family:DejaVu Sans,Verdana,Geneva,sans-serif;font-size:12px;fill:#555} </style>
<text x="10" y="20" class="label">延迟柱状图（越低越好，Top 15），单位 ms</text>
<text x="10" y="46" class="label">rockstargames.com</text>
<rect x="180" y="30" width="183.77" height="22" fill="#4c78a8" rx="3"/>
<text x="371.77" y="46" class="value">66.25</text>
<text x="10" y="78" class="label">fortnite.com</text>
<rect x="180" y="62" width="196.01" height="22" fill="#4c78a8" rx="3"/>
<text x="384.01" y="78" class="value">70.66</text>
<text x="10" y="110" class="label">battle.net</text>
<rect x="180" y="94" width="199.5" height="22" fill="#4c78a8" rx="3"/>
<text x="387.5" y="110" class="value">71.92</text>
<text x="10" y="142" class="label">steamcdn-a.akamaihd.net</text>
<rect x="180" y="126" width="199.58" height="22" fill="#4c78a8" rx="3"/>
<text x="387.58000000000004" y="142" class="value">71.95</text>
<text x="10" y="174" class="label">blizzard.com</text>
<rect x="180" y="158" width="227.77" height="22" fill="#4c78a8" rx="3"/>
<text x="415.77" y="174" class="value">82.11</text>
<text x="10" y="206" class="label">ubi.com</text>
<rect x="180" y="190" width="257.84" height="22" fill="#4c78a8" rx="3"/>
<text x="445.84" y="206" class="value">92.95</text>
<text x="10" y="238" class="label">socialclub.rockstargames.com</text>
<rect x="180" y="222" width="257.98" height="22" fill="#4c78a8" rx="3"/>
<text x="445.98" y="238" class="value">93.00</text>
<text x="10" y="270" class="label">unrealengine.com</text>
<rect x="180" y="254" width="259.2" height="22" fill="#4c78a8" rx="3"/>
<text x="447.2" y="270" class="value">93.44</text>
<text x="10" y="302" class="label">epicgames.com</text>
<rect x="180" y="286" width="319.89" height="22" fill="#4c78a8" rx="3"/>
<text x="507.89" y="302" class="value">115.32</text>
<text x="10" y="334" class="label">static3.cdn.ubi.com</text>
<rect x="180" y="318" width="354.42" height="22" fill="#4c78a8" rx="3"/>
<text x="542.4200000000001" y="334" class="value">127.77</text>
<text x="10" y="366" class="label">cdn.cloudflare.steamstatic.com</text>
<rect x="180" y="350" width="399.36" height="22" fill="#4c78a8" rx="3"/>
<text x="587.36" y="366" class="value">143.97</text>
<text x="10" y="398" class="label">origin.com</text>
<rect x="180" y="382" width="418.86" height="22" fill="#4c78a8" rx="3"/>
<text x="606.86" y="398" class="value">151.00</text>
<text x="10" y="430" class="label">easyanticheat.net</text>
<rect x="180" y="414" width="558.17" height="22" fill="#4c78a8" rx="3"/>
<text x="746.17" y="430" class="value">201.22</text>
<text x="10" y="462" class="label">store.akamai.steamstatic.com</text>
<rect x="180" y="446" width="564.49" height="22" fill="#4c78a8" rx="3"/>
<text x="752.49" y="462" class="value">203.50</text>
<text x="10" y="494" class="label">gog.com</text>
<rect x="180" y="478" width="580.0" height="22" fill="#4c78a8" rx="3"/>
<text x="768.0" y="494" class="value">209.09</text>
<line x1="180" y1="30" x2="180" y2="520" stroke="#ccc"/>
<line x1="180" y1="520" x2="760" y2="520" stroke="#ccc"/>
</svg>