<svg xmlns="http://www.w3.org/2000/svg" width="800" height="540">
<style> .label{font-family:DejaVu Sans,Verdana,Geneva,sans-serif;font-size:12px;fill:#333} .value{font-family:DejaVu Sans,Verdana,Geneva,sans-serif;font-size:12px;fill:#555} </style>
<text x="10" y="20" class="label">延迟柱状图（越低越好，Top 15），单位 ms</text>
<text x="10" y="46" class="label">rockstargames.com</text>
<rect x="180" y="30" width="138.58" height="22" fill="#4c78a8" rx="3"/>
<text x="326.58000000000004" y="46" class="value">60.40</text>
<text x="10" y="78" class="label">eaassets-a.akamaihd.net</text>
<rect x="180" y="62" width="152.69" height="22" fill="#4c78a8" rx="3"/>
<text x="340.69" y="78" class="value">66.55</text>
<text x="10" y="110" class="label">origin.com</text>
<rect x="180" y="94" width="206.17" height="22" fill="#4c78a8" rx="3"/>
<text x="394.16999999999996" y="110" class="value">89.86</text>
<text x="10" y="142" class="label">community.akamai.steamstatic.com</text>
<rect x="180" y="126" width="214.98" height="22" fill="#4c78a8" rx="3"/>
<text x="402.98" y="142" class="value">93.70</text>
<text x="10" y="174" class="label">cdn.akamai.steamstatic.com</text>
<rect x="180" y="158" width="286.48" height="22" fill="#4c78a8" rx="3"/>
<text x="474.48" y="174" class="value">124.86</text>
<text x="10" y="206" class="label">cdn.cloudflare.steamstatic.com</text>
<rect x="180" y="190" width="293.43" height="22" fill="#4c78a8" rx="3"/>
<text x="481.43" y="206" class="value">127.89</text>
<text x="10" y="238" class="label">store.akamai.steamstatic.com</text>
<rect x="180" y="222" width="301.74" height="22" fill="#4c78a8" rx="3"/>
<text x="489.74" y="238" class="value">131.51</text>
<text x="10" y="270" class="label">ubisoft.com</text>
<rect x="180" y="254" width="330.46" height="22" fill="#4c78a8" rx="3"/>
<text x="518.46" y="270" class="value">144.03</text>
<text x="10" y="302" class="label">steamcdn-a.akamaihd.net</text>
<rect x="180" y="286" width="348.63" height="22" fill="#4c78a8" rx="3"/>
<text x="536.63" y="302" class="value">151.95</text>
<text x="10" y="334" class="label">easyanticheat.net</text>
<rect x="180" y="318" width="369.76" height="22" fill="#4c78a8" rx="3"/>
<text x="557.76" y="334" class="value">161.16</text>
<text x="10" y="366" class="label">ea.com</text>
<rect x="180" y="350" width="387.71" height="22" fill="#4c78a8" rx="3"/>
<text x="575.71" y="366" class="value">168.98</text>
<text x="10" y="398" class="label">steam-chat.com</text>
<rect x="180" y="382" width="461.45" height="22" fill="#4c78a8" rx="3"/>
<text x="649.45" y="398" class="value">201.12</text>
<text x="10" y="430" class="label">api.steampowered.com</text>
<rect x="180" y="414" width="484.69" height="22" fill="#4c78a8" rx="3"/>
<text x="672.69" y="430" class="value">211.25</text>
<text x="10" y="462" class="label">launcher-public-service-prod06.ol.epicgames.com</text>
<rect x="180" y="446" width="517.89" height="22" fill="#4c78a8" rx="3"/>
<text x="705.89" y="462" class="value">225.72</text>
<text x="10" y="494" class="label">www.steamcommunity.com</text>
<rect x="180" y="478" width="580.0" height="22" fill="#4c78a8" rx="3"/>
<text x="768.0" y="494" class="value">252.79</text>
<line x1="180" y1="30" x2="180" y2="520" stroke="#ccc"/>
<line x1="180" y1="520" x2="760" y2="520" stroke="#ccc"/>
</svg>