<svg xmlns="http://www.w3.org/2000/svg" width="800" height="540">
<style> .label{font-family:DejaVu Sans,Verdana,Geneva,sans-serif;font-size:12px;fill:#333} .value{font-family:DejaVu Sans,Verdana,Geneva,sans-serif;font-size:12px;fill:#555} </style>
<text x="10" y="20" class="label">延迟柱状图（越低越好，Top 15），单位 ms</text>
<text x="10" y="46" class="label">rockstargames.com</text>
<rect x="180" y="30" width="274.63" height="22" fill="#4c78a8" rx="3"/>
<text x="462.63" y="46" class="value">132.16</text>
<text x="10" y="78" class="label">eaassets-a.akamaihd.net</text>
<rect x="180" y="62" width="298.14" height="22" fill="#4c78a8" rx="3"/>
<text x="486.14" y="78" class="value">143.47</text>
<text x="10" y="110" class="label">ubisoft.com</text>
<rect x="180" y="94" width="303.46" height="22" fill="#4c78a8" rx="3"/>
<text x="491.46" y="110" class="value">146.03</text>
<text x="10" y="142" class="label">easyanticheat.net</text>
<rect x="180" y="126" width="304.18" height="22" fill="#4c78a8" rx="3"/>
<text x="492.18" y="142" class="value">146.38</text>
<text x="10" y="174" class="label">blizzard.com</text>
<rect x="180" y="158" width="352.66" height="22" fill="#4c78a8" rx="3"/>
<text x="540.6600000000001" y="174" class="value">169.71</text>
<text x="10" y="206" class="label">battle.net</text>
<rect x="180" y="190" width="353.39" height="22" fill="#4c78a8" rx="3"/>
<text x="541.39" y="206" class="value">170.06</text>
<text x="10" y="238" class="label">ubi.com</text>
<rect x="180" y="222" width="373.86" height="22" fill="#4c78a8" rx="3"/>
<text x="561.86" y="238" class="value">179.91</text>
<text x="10" y="270" class="label">static3.cdn.ubi.com</text>
<rect x="180" y="254" width="377.54" height="22" fill="#4c78a8" rx="3"/>
<text x="565.54" y="270" class="value">181.68</text>
<text x="10" y="302" class="label">store.akamai.steamstatic.com</text>
<rect x="180" y="286" width="433.54" height="22" fill="#4c78a8" rx="3"/>
<text x="621.54" y="302" class="value">208.63</text>
<text x="10" y="334" class="label">ea.com</text>
<rect x="180" y="318" width="435.7" height="22" fill="#4c78a8" rx="3"/>
<text x="623.7" y="334" class="value">209.67</text>
<text x="10" y="366" class="label">socialclub.rockstargames.com</text>
<rect x="180" y="350" width="471.26" height="22" fill="#4c78a8" rx="3"/>
<text x="659.26" y="366" class="value">226.78</text>
<text x="10" y="398" class="label">launcher-public-service-prod06.ol.epicgames.com</text>
<rect x="180" y="382" width="526.64" height="22" fill="#4c78a8" rx="3"/>
<text x="714.64" y="398" class="value">253.43</text>
<text x="10" y="430" class="label">api.steampowered.com</text>
<rect x="180" y="414" width="534.82" height="22" fill="#4c78a8" rx="3"/>
<text x="722.82" y="430" class="value">257.37</text>
<text x="10" y="462" class="label">community.akamai.steamstatic.com</text>
<rect x="180" y="446" width="553.55" height="22" fill="#4c78a8" rx="3"/>
<text x="741.55" y="462" class="value">266.38</text>
<text x="10" y="494" class="label">cdn.cloudflare.steamstatic.com</text>
<rect x="180" y="478" width="580.0" height="22" fill="#4c78a8" rx="3"/>
<text x="768.0" y="494" class="value">279.11</text>
<line x1="180" y1="30" x2="180" y2="520" stroke="#ccc"/>
<line x1="180" y1="520" x2="760" y2="520" stroke="#ccc"/>
</svg>