<svg xmlns="http://www.w3.org/2000/svg" width="800" height="540">
<style> .label{font-family:DejaVu Sans,Verdana,Geneva,sans-serif;font-size:12px;fill:#333} .value{font-family:DejaVu Sans,Verdana,Geneva,sans-serif;font-size:12px;fill:#555} </style>
<text x="10" y="20" class="label">延迟柱状图（越低越好，Top 15），单位 ms</text>
<text x="10" y="46" class="label">rockstargames.com</text>
<rect x="180" y="30" width="161.17" height="22" fill="#4c78a8" rx="3"/>
<text x="349.16999999999996" y="46" class="value">67.22</text>
<text x="10" y="78" class="label">socialclub.rockstargames.com</text>
<rect x="180" y="62" width="209.84" height="22" fill="#4c78a8" rx="3"/>
<text x="397.84000000000003" y="78" class="value">87.52</text>
<text x="10" y="110" class="label">eaassets-a.akamaihd.net</text>
<rect x="180" y="94" width="225.85" height="22" fill="#4c78a8" rx="3"/>
<text x="413.85" y="110" class="value">94.20</text>
<text x="10" y="142" class="label">battle.net</text>
<rect x="180" y="126" width="247.53" height="22" fill="#4c78a8" rx="3"/>
<text x="435.53" y="142" class="value">103.24</text>
<text x="10" y="174" class="label">blizzard.com</text>
<rect x="180" y="158" width="253.04" height="22" fill="#4c78a8" rx="3"/>
<text x="441.03999999999996" y="174" class="value">105.54</text>
<text x="10" y="206" class="label">ea.com</text>
<rect x="180" y="190" width="277.83" height="22" fill="#4c78a8" rx="3"/>
<text x="465.83" y="206" class="value">115.88</text>
<text x="10" y="238" class="label">store.akamai.steamstatic.com</text>
<rect x="180" y="222" width="310.85" height="22" fill="#4c78a8" rx="3"/>
<text x="498.85" y="238" class="value">129.65</text>
<text x="10" y="270" class="label">ubi.com</text>
<rect x="180" y="254" width="364.41" height="22" fill="#4c78a8" rx="3"/>
<text x="552.4100000000001" y="270" class="value">151.99</text>
<text x="10" y="302" class="label">ubisoft.com</text>
<rect x="180" y="286" width="440.29" height="22" fill="#4c78a8" rx="3"/>
<text x="628.29" y="302" class="value">183.64</text>
<text x="10" y="334" class="label">epicgames.com</text>
<rect x="180" y="318" width="450.0" height="22" fill="#4c78a8" rx="3"/>
<text x="638.0" y="334" class="value">187.69</text>
<text x="10" y="366" class="label">static3.cdn.ubi.com</text>
<rect x="180" y="350" width="477.36" height="22" fill="#4c78a8" rx="3"/>
<text x="665.36" y="366" class="value">199.10</text>
<text x="10" y="398" class="label">fortnite.com</text>
<rect x="180" y="382" width="502.27" height="22" fill="#4c78a8" rx="3"/>
<text x="690.27" y="398" class="value">209.49</text>
<text x="10" y="430" class="label">community.akamai.steamstatic.com</text>
<rect x="180" y="414" width="508.38" height="22" fill="#4c78a8" rx="3"/>
<text x="696.38" y="430" class="value">212.04</text>
<text x="10" y="462" class="label">steamcdn-a.akamaihd.net</text>
<rect x="180" y="446" width="509.92" height="22" fill="#4c78a8" rx="3"/>
<text x="697.9200000000001" y="462" class="value">212.68</text>
<text x="10" y="494" class="label">www.steamcommunity.com</text>
<rect x="180" y="478" width="580.0" height="22" fill="#4c78a8" rx="3"/>
<text x="768.0" y="494" class="value">241.91</text>
<line x1="180" y1="30" x2="180" y2="520" stroke="#ccc"/>
<line x1="180" y1="520" x2="760" y2="520" stroke="#ccc"/>
</svg>