<svg xmlns="http://www.w3.org/2000/svg" width="800" height="540">
<style> .label{font-family:DejaVu Sans,Verdana,Geneva,sans-serif;font-size:12px;fill:#333} .value{font-family:DejaVu Sans,Verdana,Geneva,sans-serif;font-size:12px;fill:#555} </style>
<text x="10" y="20" class="label">延迟柱状图（越低越好，Top 15），单位 ms</text>
<text x="10" y="46" class="label">eaassets-a.akamaihd.net</text>
<rect x="180" y="30" width="151.4" height="22" fill="#4c78a8" rx="3"/>
<text x="339.4" y="46" class="value">54.43</text>
<text x="10" y="78" class="label">rockstargames.com</text>
<rect x="180" y="62" width="205.98" height="22" fill="#4c78a8" rx="3"/>
<text x="393.98" y="78" class="value">74.05</text>
<text x="10" y="110" class="label">ubi.com</text>
<rect x="180" y="94" width="212.91" height="22" fill="#4c78a8" rx="3"/>
<text x="400.90999999999997" y="110" class="value">76.54</text>
<text x="10" y="142" class="label">socialclub.rockstargames.com</text>
<rect x="180" y="126" width="230.65" height="22" fill="#4c78a8" rx="3"/>
<text x="418.65" y="142" class="value">82.92</text>
<text x="10" y="174" class="label">blizzard.com</text>
<rect x="180" y="158" width="260.97" height="22" fill="#4c78a8" rx="3"/>
<text x="448.97" y="174" class="value">93.82</text>
<text x="10" y="206" class="label">ea.com</text>
<rect x="180" y="190" width="278.75" height="22" fill="#4c78a8" rx="3"/>
<text x="466.75" y="206" class="value">100.21</text>
<text x="10" y="238" class="label">ubisoft.com</text>
<rect x="180" y="222" width="294.94" height="22" fill="#4c78a8" rx="3"/>
<text x="482.94" y="238" class="value">106.03</text>
<text x="10" y="270" class="label">epicgames.com</text>
<rect x="180" y="254" width="340.75" height="22" fill="#4c78a8" rx="3"/>
<text x="528.75" y="270" class="value">122.50</text>
<text x="10" y="302" class="label">battle.net</text>
<rect x="180" y="286" width="341.36" height="22" fill="#4c78a8" rx="3"/>
<text x="529.36" y="302" class="value">122.72</text>
<text x="10" y="334" class="label">fortnite.com</text>
<rect x="180" y="318" width="421.5" height="22" fill="#4c78a8" rx="3"/>
<text x="609.5" y="334" class="value">151.53</text>
<text x="10" y="366" class="label">unrealengine.com</text>
<rect x="180" y="350" width="431.15" height="22" fill="#4c78a8" rx="3"/>
<text x="619.15" y="366" class="value">155.00</text>
<text x="10" y="398" class="label">steam-chat.com</text>
<rect x="180" y="382" width="541.61" height="22" fill="#4c78a8" rx="3"/>
<text x="729.61" y="398" class="value">194.71</text>
<text x="10" y="430" class="label">static3.cdn.ubi.com</text>
<rect x="180" y="414" width="553.74" height="22" fill="#4c78a8" rx="3"/>
<text x="741.74" y="430" class="value">199.07</text>
<text x="10" y="462" class="label">origin.com</text>
<rect x="180" y="446" width="564.48" height="22" fill="#4c78a8" rx="3"/>
<text x="752.48" y="462" class="value">202.93</text>
<text x="10" y="494" class="label">community.akamai.steamstatic.com</text>
<rect x="180" y="478" width="580.0" height="22" fill="#4c78a8" rx="3"/>
<text x="768.0" y="494" class="value">208.51</text>
<line x1="180" y1="30" x2="180" y2="520" stroke="#ccc"/>
<line x1="180" y1="520" x2="760" y2="520" stroke="#ccc"/>
</svg>