<svg xmlns="http://www.w3.org/2000/svg" width="800" height="540">
<style> .label{font-family:DejaVu Sans,Verdana,Geneva,sans-serif;font-size:12px;fill:#333} .value{font-family:DejaVu Sans,Verdana,Geneva,sans-serif;font-size:12px;fill:#555} </style>
<text x="10" y="20" class="label">延迟柱状图（越低越好，Top 15），单位 ms</text>
<text x="10" y="46" class="label">rockstargames.com</text>
<rect x="180" y="30" width="165.41" height="22" fill="#4c78a8" rx="3"/>
<text x="353.40999999999997" y="46" class="value">68.77</text>
<text x="10" y="78" class="label">eaassets-a.akamaihd.net</text>
<rect x="180" y="62" width="170.12" height="22" fill="#4c78a8" rx="3"/>
<text x="358.12" y="78" class="value">70.73</text>
<text x="10" y="110" class="label">ubi.com</text>
<rect x="180" y="94" width="212.17" height="22" fill="#4c78a8" rx="3"/>
<text x="400.16999999999996" y="110" class="value">88.21</text>
<text x="10" y="142" class="label">socialclub.rockstargames.com</text>
<rect x="180" y="126" width="226.89" height="22" fill="#4c78a8" rx="3"/>
<text x="414.89" y="142" class="value">94.33</text>
<text x="10" y="174" class="label">ubisoft.com</text>
<rect x="180" y="158" width="230.78" height="22" fill="#4c78a8" rx="3"/>
<text x="418.78" y="174" class="value">95.95</text>
<text x="10" y="206" class="label">unrealengine.com</text>
<rect x="180" y="190" width="232.32" height="22" fill="#4c78a8" rx="3"/>
<text x="420.32" y="206" class="value">96.59</text>
<text x="10" y="238" class="label">blizzard.com</text>
<rect x="180" y="222" width="261.47" height="22" fill="#4c78a8" rx="3"/>
<text x="449.47" y="238" class="value">108.71</text>
<text x="10" y="270" class="label">epicgames.com</text>
<rect x="180" y="254" width="263.21" height="22" fill="#4c78a8" rx="3"/>
<text x="451.21" y="270" class="value">109.43</text>
<text x="10" y="302" class="label">ea.com</text>
<rect x="180" y="286" width="267.37" height="22" fill="#4c78a8" rx="3"/>
<text x="455.37" y="302" class="value">111.16</text>
<text x="10" y="334" class="label">battle.net</text>
<rect x="180" y="318" width="295.7" height="22" fill="#4c78a8" rx="3"/>
<text x="483.7" y="334" class="value">122.94</text>
<text x="10" y="366" class="label">cdn.cloudflare.steamstatic.com</text>
<rect x="180" y="350" width="362.57" height="22" fill="#4c78a8" rx="3"/>
<text x="550.5699999999999" y="366" class="value">150.74</text>
<text x="10" y="398" class="label">fortnite.com</text>
<rect x="180" y="382" width="381.86" height="22" fill="#4c78a8" rx="3"/>
<text x="569.86" y="398" class="value">158.76</text>
<text x="10" y="430" class="label">origin.com</text>
<rect x="180" y="414" width="542.19" height="22" fill="#4c78a8" rx="3"/>
<text x="730.19" y="430" class="value">225.42</text>
<text x="10" y="462" class="label">community.akamai.steamstatic.com</text>
<rect x="180" y="446" width="570.4" height="22" fill="#4c78a8" rx="3"/>
<text x="758.4" y="462" class="value">237.15</text>
<text x="10" y="494" class="label">steamcdn-a.akamaihd.net</text>
<rect x="180" y="478" width="580.0" height="22" fill="#4c78a8" rx="3"/>
<text x="768.0" y="494" class="value">241.14</text>
<line x1="180" y1="30" x2="180" y2="520" stroke="#ccc"/>
<line x1="180" y1="520" x2="760" y2="520" stroke="#ccc"/>
</svg>