<svg xmlns="http://www.w3.org/2000/svg" width="800" height="540">
<style> .label{font-family:DejaVu Sans,Verdana,Geneva,sans-serif;font-size:12px;fill:#333} .value{font-family:DejaVu Sans,Verdana,Geneva,sans-serif;font-size:12px;fill:#555} </style>
<text x="10" y="20" class="label">延迟柱状图（越低越好，Top 15），单位 ms</text>
<text x="10" y="46" class="label">rockstargames.com</text>
<rect x="180" y="30" width="67.18" height="22" fill="#4c78a8" rx="3"/>
<text x="255.18" y="46" class="value">33.36</text>
<text x="10" y="78" class="label">community.akamai.steamstatic.com</text>
<rect x="180" y="62" width="165.73" height="22" fill="#4c78a8" rx="3"/>
<text x="353.73" y="78" class="value">82.30</text>
<text x="10" y="110" class="label">eaassets-a.akamaihd.net</text>
<rect x="180" y="94" width="193.37" height="22" fill="#4c78a8" rx="3"/>
<text x="381.37" y="110" class="value">96.03</text>
<text x="10" y="142" class="label">ubisoft.com</text>
<rect x="180" y="126" width="201.05" height="22" fill="#4c78a8" rx="3"/>
<text x="389.05" y="142" class="value">99.84</text>
<text x="10" y="174" class="label">ea.com</text>
<rect x="180" y="158" width="217.07" height="22" fill="#4c78a8" rx="3"/>
<text x="405.07" y="174" class="value">107.80</text>
<text x="10" y="206" class="label">origin.com</text>
<rect x="180" y="190" width="291.9" height="22" fill="#4c78a8" rx="3"/>
<text x="479.9" y="206" class="value">144.96</text>
<text x="10" y="238" class="label">cdn.akamai.steamstatic.com</text>
<rect x="180" y="222" width="344.8" height="22" fill="#4c78a8" rx="3"/>
<text x="532.8" y="238" class="value">171.23</text>
<text x="10" y="270" class="label">store.akamai.steamstatic.com</text>
<rect x="180" y="254" width="347.0" height="22" fill="#4c78a8" rx="3"/>
<text x="535.0" y="270" class="value">172.32</text>
<text x="10" y="302" class="label">cdn.cloudflare.steamstatic.com</text>
<rect x="180" y="286" width="350.46" height="22" fill="#4c78a8" rx="3"/>
<text x="538.46" y="302" class="value">174.04</text>
<text x="10" y="334" class="label">easyanticheat.net</text>
<rect x="180" y="318" width="416.53" height="22" fill="#4c78a8" rx="3"/>
<text x="604.53" y="334" class="value">206.85</text>
<text x="10" y="366" class="label">www.steamcommunity.com</text>
<rect x="180" y="350" width="453.76" height="22" fill="#4c78a8" rx="3"/>
<text x="641.76" y="366" class="value">225.34</text>
<text x="10" y="398" class="label">steamcdn-a.akamaihd.net</text>
<rect x="180" y="382" width="462.42" height="22" fill="#4c78a8" rx="3"/>
<text x="650.4200000000001" y="398" class="value">229.64</text>
<text x="10" y="430" class="label">api.steampowered.com</text>
<rect x="180" y="414" width="464.27" height="22" fill="#4c78a8" rx="3"/>
<text x="652.27" y="430" class="value">230.56</text>
<text x="10" y="462" class="label">steam-chat.com</text>
<rect x="180" y="446" width="534.93" height="22" fill="#4c78a8" rx="3"/>
<text x="722.93" y="462" class="value">265.65</text>
<text x="10" y="494" class="label">battle.net</text>
<rect x="180" y="478" width="580.0" height="22" fill="#4c78a8" rx="3"/>
<text x="768.0" y="494" class="value">288.03</text>
<line x1="180" y1="30" x2="180" y2="520" stroke="#ccc"/>
<line x1="180" y1="520" x2="760" y2="520" stroke="#ccc"/>
</svg>