<svg xmlns="http://www.w3.org/2000/svg" width="800" height="540">
<style> .label{font-family:DejaVu Sans,Verdana,Geneva,sans-serif;font-size:12px;fill:#333} .value{font-family:DejaVu Sans,Verdana,Geneva,sans-serif;font-size:12px;fill:#555} </style>
<text x="10" y="20" class="label">延迟柱状图（越低越好，Top 15），单位 ms</text>
<text x="10" y="46" class="label">rockstargames.com</text>
<rect x="180" y="30" width="161.64" height="22" fill="#4c78a8" rx="3"/>
<text x="349.64" y="46" class="value">66.18</text>
<text x="10" y="78" class="label">blizzard.com</text>
<rect x="180" y="62" width="178.78" height="22" fill="#4c78a8" rx="3"/>
<text x="366.78" y="78" class="value">73.20</text>
<text x="10" y="110" class="label">eaassets-a.akamaihd.net</text>
<rect x="180" y="94" width="200.64" height="22" fill="#4c78a8" rx="3"/>
<text x="388.64" y="110" class="value">82.15</text>
<text x="10" y="142" class="label">socialclub.rockstargames.com</text>
<rect x="180" y="126" width="212.17" height="22" fill="#4c78a8" rx="3"/>
<text x="400.16999999999996" y="142" class="value">86.87</text>
<text x="10" y="174" class="label">battle.net</text>
<rect x="180" y="158" width="241.26" height="22" fill="#4c78a8" rx="3"/>
<text x="429.26" y="174" class="value">98.78</text>
<text x="10" y="206" class="label">ea.com</text>
<rect x="180" y="190" width="338.01" height="22" fill="#4c78a8" rx="3"/>
<text x="526.01" y="206" class="value">138.39</text>
<text x="10" y="238" class="label">ubi.com</text>
<rect x="180" y="222" width="354.57" height="22" fill="#4c78a8" rx="3"/>
<text x="542.5699999999999" y="238" class="value">145.17</text>
<text x="10" y="270" class="label">unrealengine.com</text>
<rect x="180" y="254" width="372.71" height="22" fill="#4c78a8" rx="3"/>
<text x="560.71" y="270" class="value">152.60</text>
<text x="10" y="302" class="label">fortnite.com</text>
<rect x="180" y="286" width="384.73" height="22" fill="#4c78a8" rx="3"/>
<text x="572.73" y="302" class="value">157.52</text>
<text x="10" y="334" class="label">steamcdn-a.akamaihd.net</text>
<rect x="180" y="318" width="402.9" height="22" fill="#4c78a8" rx="3"/>
<text x="590.9" y="334" class="value">164.96</text>
<text x="10" y="366" class="label">origin.com</text>
<rect x="180" y="350" width="461.69" height="22" fill="#4c78a8" rx="3"/>
<text x="649.69" y="366" class="value">189.03</text>
<text x="10" y="398" class="label">gog.com</text>
<rect x="180" y="382" width="474.76" height="22" fill="#4c78a8" rx="3"/>
<text x="662.76" y="398" class="value">194.38</text>
<text x="10" y="430" class="label">epicgames.com</text>
<rect x="180" y="414" width="475.49" height="22" fill="#4c78a8" rx="3"/>
<text x="663.49" y="430" class="value">194.68</text>
<text x="10" y="462" class="label">ubisoft.com</text>
<rect x="180" y="446" width="531.37" height="22" fill="#4c78a8" rx="3"/>
<text x="719.37" y="462" class="value">217.56</text>
<text x="10" y="494" class="label">cdn.cloudflare.steamstatic.com</text>
<rect x="180" y="478" width="580.0" height="22" fill="#4c78a8" rx="3"/>
<text x="768.0" y="494" class="value">237.47</text>
<line x1="180" y1="30" x2="180" y2="520" stroke="#ccc"/>
<line x1="180" y1="520" x2="760" y2="520" stroke="#ccc"/>
</svg>