<svg xmlns="http://www.w3.org/2000/svg" width="800" height="540">
<style> .label{font-family:DejaVu Sans,Verdana,Geneva,sans-serif;font-size:12px;fill:#333} .value{font-family:DejaVu Sans,Verdana,Geneva,sans-serif;font-size:12px;fill:#555} </style>
<text x="10" y="20" class="label">延迟柱状图（越低越好，Top 15），单位 ms</text>
<text x="10" y="46" class="label">eaassets-a.akamaihd.net</text>
<rect x="180" y="30" width="84.45" height="22" fill="#4c78a8" rx="3"/>
<text x="272.45" y="46" class="value">39.65</text>
<text x="10" y="78" class="label">rockstargames.com</text>
<rect x="180" y="62" width="92.75" height="22" fill="#4c78a8" rx="3"/>
<text x="280.75" y="78" class="value">43.55</text>
<text x="10" y="110" class="label">ea.com</text>
<rect x="180" y="94" width="130.47" height="22" fill="#4c78a8" rx="3"/>
<text x="318.47" y="110" class="value">61.26</text>
<text x="10" y="142" class="label">steamcdn-a.akamaihd.net</text>
<rect x="180" y="126" width="205.83" height="22" fill="#4c78a8" rx="3"/>
<text x="393.83000000000004" y="142" class="value">96.64</text>
<text x="10" y="174" class="label">ubisoft.com</text>
<rect x="180" y="158" width="210.32" height="22" fill="#4c78a8" rx="3"/>
<text x="398.32" y="174" class="value">98.75</text>
<text x="10" y="206" class="label">community.akamai.steamstatic.com</text>
<rect x="180" y="190" width="231.77" height="22" fill="#4c78a8" rx="3"/>
<text x="419.77" y="206" class="value">108.82</text>
<text x="10" y="238" class="label">cdn.cloudflare.steamstatic.com</text>
<rect x="180" y="222" width="269.75" height="22" fill="#4c78a8" rx="3"/>
<text x="457.75" y="238" class="value">126.65</text>
<text x="10" y="270" class="label">static3.cdn.ubi.com</text>
<rect x="180" y="254" width="340.46" height="22" fill="#4c78a8" rx="3"/>
<text x="528.46" y="270" class="value">159.85</text>
<text x="10" y="302" class="label">easyanticheat.net</text>
<rect x="180" y="286" width="389.83" height="22" fill="#4c78a8" rx="3"/>
<text x="577.8299999999999" y="302" class="value">183.03</text>
<text x="10" y="334" class="label">store.akamai.steamstatic.com</text>
<rect x="180" y="318" width="429.08" height="22" fill="#4c78a8" rx="3"/>
<text x="617.0799999999999" y="334" class="value">201.46</text>
<text x="10" y="366" class="label">cdn.akamai.steamstatic.com</text>
<rect x="180" y="350" width="446.63" height="22" fill="#4c78a8" rx="3"/>
<text x="634.63" y="366" class="value">209.70</text>
<text x="10" y="398" class="label">origin.com</text>
<rect x="180" y="382" width="455.15" height="22" fill="#4c78a8" rx="3"/>
<text x="643.15" y="398" class="value">213.70</text>
<text x="10" y="430" class="label">steam-chat.com</text>
<rect x="180" y="414" width="489.03" height="22" fill="#4c78a8" rx="3"/>
<text x="677.03" y="430" class="value">229.61</text>
<text x="10" y="462" class="label">www.steamcommunity.com</text>
<rect x="180" y="446" width="512.72" height="22" fill="#4c78a8" rx="3"/>
<text x="700.72" y="462" class="value">240.73</text>
<text x="10" y="494" class="label">api.steampowered.com</text>
<rect x="180" y="478" width="580.0" height="22" fill="#4c78a8" rx="3"/>
<text x="768.0" y="494" class="value">272.32</text>
<line x1="180" y1="30" x2="180" y2="520" stroke="#ccc"/>
<line x1="180" y1="520" x2="760" y2="520" stroke="#ccc"/>
</svg>