<svg xmlns="http://www.w3.org/2000/svg" width="800" height="540">
<style> .label{font-family:DejaVu Sans,Verdana,Geneva,sans-serif;font-size:12px;fill:#333} .value{font-family:DejaVu Sans,Verdana,Geneva,sans-serif;font-size:12px;fill:#555} </style>
<text x="10" y="20" class="label">延迟柱状图（越低越好，Top 15），单位 ms</text>
<text x="10" y="46" class="label">rockstargames.com</text>
<rect x="180" y="30" width="236.76" height="22" fill="#4c78a8" rx="3"/>
<text x="424.76" y="46" class="value">95.44</text>
<text x="10" y="78" class="label">eaassets-a.akamaihd.net</text>
<rect x="180" y="62" width="293.87" height="22" fill="#4c78a8" rx="3"/>
<text x="481.87" y="78" class="value">118.46</text>
<text x="10" y="110" class="label">community.akamai.steamstatic.com</text>
<rect x="180" y="94" width="314.19" height="22" fill="#4c78a8" rx="3"/>
<text x="502.19" y="110" class="value">126.65</text>
<text x="10" y="142" class="label">origin.com</text>
<rect x="180" y="126" width="325.35" height="22" fill="#4c78a8" rx="3"/>
<text x="513.35" y="142" class="value">131.15</text>
<text x="10" y="174" class="label">cdn.akamai.steamstatic.com</text>
<rect x="180" y="158" width="348.89" height="22" fill="#4c78a8" rx="3"/>
<text x="536.89" y="174" class="value">140.64</text>
<text x="10" y="206" class="label">steamcdn-a.akamaihd.net</text>
<rect x="180" y="190" width="355.17" height="22" fill="#4c78a8" rx="3"/>
<text x="543.1700000000001" y="206" class="value">143.17</text>
<text x="10" y="238" class="label">cdn.cloudflare.steamstatic.com</text>
<rect x="180" y="222" width="356.09" height="22" fill="#4c78a8" rx="3"/>
<text x="544.0899999999999" y="238" class="value">143.54</text>
<text x="10" y="270" class="label">store.akamai.steamstatic.com</text>
<rect x="180" y="254" width="357.28" height="22" fill="#4c78a8" rx="3"/>
<text x="545.28" y="270" class="value">144.02</text>
<text x="10" y="302" class="label">ea.com</text>
<rect x="180" y="286" width="390.37" height="22" fill="#4c78a8" rx="3"/>
<text x="578.37" y="302" class="value">157.36</text>
<text x="10" y="334" class="label">easyanticheat.net</text>
<rect x="180" y="318" width="403.94" height="22" fill="#4c78a8" rx="3"/>
<text x="591.94" y="334" class="value">162.83</text>
<text x="10" y="366" class="label">battle.net</text>
<rect x="180" y="350" width="480.77" height="22" fill="#4c78a8" rx="3"/>
<text x="668.77" y="366" class="value">193.80</text>
<text x="10" y="398" class="label">api.steampowered.com</text>
<rect x="180" y="382" width="511.66" height="22" fill="#4c78a8" rx="3"/>
<text x="699.6600000000001" y="398" class="value">206.25</text>
<text x="10" y="430" class="label">steam-chat.com</text>
<rect x="180" y="414" width="519.87" height="22" fill="#4c78a8" rx="3"/>
<text x="707.87" y="430" class="value">209.56</text>
<text x="10" y="462" class="label">launcher-public-service-prod06.ol.epicgames.com</text>
<rect x="180" y="446" width="548.59" height="22" fill="#4c78a8" rx="3"/>
<text x="736.59" y="462" class="value">221.14</text>
<text x="10" y="494" class="label">ubi.com</text>
<rect x="180" y="478" width="580.0" height="22" fill="#4c78a8" rx="3"/>
<text x="768.0" y="494" class="value">233.80</text>
<line x1="180" y1="30" x2="180" y2="520" stroke="#ccc"/>
<line x1="180" y1="520" x2="760" y2="520" stroke="#ccc"/>
</svg>