<svg xmlns="http://www.w3.org/2000/svg" width="800" height="540">
<style> .label{font-family:DejaVu Sans,Verdana,Geneva,sans-serif;font-size:12px;fill:#333} .value{font-family:DejaVu Sans,Verdana,Geneva,sans-serif;font-size:12px;fill:#555} </style>
<text x="10" y="20" class="label">延迟柱状图（越低越好，Top 15），单位 ms</text>
<text x="10" y="46" class="label">rockstargames.com</text>
<rect x="180" y="30" width="165.55" height="22" fill="#4c78a8" rx="3"/>
<text x="353.55" y="46" class="value">57.89</text>
<text x="10" y="78" class="label">eaassets-a.akamaihd.net</text>
<rect x="180" y="62" width="220.38" height="22" fill="#4c78a8" rx="3"/>
<text x="408.38" y="78" class="value">77.06</text>
<text x="10" y="110" class="label">battle.net</text>
<rect x="180" y="94" width="253.55" height="22" fill="#4c78a8" rx="3"/>
<text x="441.55" y="110" class="value">88.66</text>
<text x="10" y="142" class="label">blizzard.com</text>
<rect x="180" y="126" width="258.76" height="22" fill="#4c78a8" rx="3"/>
<text x="446.76" y="142" class="value">90.48</text>
<text x="10" y="174" class="label">socialclub.rockstargames.com</text>
<rect x="180" y="158" width="263.79" height="22" fill="#4c78a8" rx="3"/>
<text x="451.79" y="174" class="value">92.24</text>
<text x="10" y="206" class="label">store.akamai.steamstatic.com</text>
<rect x="180" y="190" width="279.0" height="22" fill="#4c78a8" rx="3"/>
<text x="467.0" y="206" class="value">97.56</text>
<text x="10" y="238" class="label">epicgames.com</text>
<rect x="180" y="222" width="289.16" height="22" fill="#4c78a8" rx="3"/>
<text x="477.16" y="238" class="value">101.11</text>
<text x="10" y="270" class="label">ea.com</text>
<rect x="180" y="254" width="344.98" height="22" fill="#4c78a8" rx="3"/>
<text x="532.98" y="270" class="value">120.63</text>
<text x="10" y="302" class="label">ubi.com</text>
<rect x="180" y="286" width="376.44" height="22" fill="#4c78a8" rx="3"/>
<text x="564.44" y="302" class="value">131.63</text>
<text x="10" y="334" class="label">cdn.akamai.steamstatic.com</text>
<rect x="180" y="318" width="447.73" height="22" fill="#4c78a8" rx="3"/>
<text x="635.73" y="334" class="value">156.56</text>
<text x="10" y="366" class="label">fortnite.com</text>
<rect x="180" y="350" width="496.12" height="22" fill="#4c78a8" rx="3"/>
<text x="684.12" y="366" class="value">173.48</text>
<text x="10" y="398" class="label">origin.com</text>
<rect x="180" y="382" width="502.96" height="22" fill="#4c78a8" rx="3"/>
<text x="690.96" y="398" class="value">175.87</text>
<text x="10" y="430" class="label">ubisoft.com</text>
<rect x="180" y="414" width="540.99" height="22" fill="#4c78a8" rx="3"/>
<text x="728.99" y="430" class="value">189.17</text>
<text x="10" y="462" class="label">unrealengine.com</text>
<rect x="180" y="446" width="561.93" height="22" fill="#4c78a8" rx="3"/>
<text x="749.93" y="462" class="value">196.49</text>
<text x="10" y="494" class="label">community.akamai.steamstatic.com</text>
<rect x="180" y="478" width="580.0" height="22" fill="#4c78a8" rx="3"/>
<text x="768.0" y="494" class="value">202.81</text>
<line x1="180" y1="30" x2="180" y2="520" stroke="#ccc"/>
<line x1="180" y1="520" x2="760" y2="520" stroke="#ccc"/>
</svg>