<svg xmlns="http://www.w3.org/2000/svg" width="800" height="540">
<style> .label{font-family:DejaVu Sans,Verdana,Geneva,sans-serif;font-size:12px;fill:#333} .value{font-family:DejaVu Sans,Verdana,Geneva,sans-serif;font-size:12px;fill:#555} </style>
<text x="10" y="20" class="label">延迟柱状图（越低越好，Top 15），单位 ms</text>
<text x="10" y="46" class="label">rockstargames.com</text>
<rect x="180" y="30" width="77.95" height="22" fill="#4c78a8" rx="3"/>
<text x="265.95" y="46" class="value">36.37</text>
<text x="10" y="78" class="label">eaassets-a.akamaihd.net</text>
<rect x="180" y="62" width="86.44" height="22" fill="#4c78a8" rx="3"/>
<text x="274.44" y="78" class="value">40.33</text>
<text x="10" y="110" class="label">ea.com</text>
<rect x="180" y="94" width="169.04" height="22" fill="#4c78a8" rx="3"/>
<text x="357.03999999999996" y="110" class="value">78.87</text>
<text x="10" y="142" class="label">community.akamai.steamstatic.com</text>
<rect x="180" y="126" width="219.06" height="22" fill="#4c78a8" rx="3"/>
<text x="407.06" y="142" class="value">102.21</text>
<text x="10" y="174" class="label">steamcdn-a.akamaihd.net</text>
<rect x="180" y="158" width="326.54" height="22" fill="#4c78a8" rx="3"/>
<text x="514.54" y="174" class="value">152.36</text>
<text x="10" y="206" class="label">store.akamai.steamstatic.com</text>
<rect x="180" y="190" width="329.76" height="22" fill="#4c78a8" rx="3"/>
<text x="517.76" y="206" class="value">153.86</text>
<text x="10" y="238" class="label">cdn.cloudflare.steamstatic.com</text>
<rect x="180" y="222" width="342.51" height="22" fill="#4c78a8" rx="3"/>
<text x="530.51" y="238" class="value">159.81</text>
<text x="10" y="270" class="label">origin.com</text>
<rect x="180" y="254" width="349.84" height="22" fill="#4c78a8" rx="3"/>
<text x="537.8399999999999" y="270" class="value">163.23</text>
<text x="10" y="302" class="label">cdn.akamai.steamstatic.com</text>
<rect x="180" y="286" width="395.19" height="22" fill="#4c78a8" rx="3"/>
<text x="583.19" y="302" class="value">184.39</text>
<text x="10" y="334" class="label">easyanticheat.net</text>
<rect x="180" y="318" width="423.72" height="22" fill="#4c78a8" rx="3"/>
<text x="611.72" y="334" class="value">197.70</text>
<text x="10" y="366" class="label">ubisoft.com</text>
<rect x="180" y="350" width="446.65" height="22" fill="#4c78a8" rx="3"/>
<text x="634.65" y="366" class="value">208.40</text>
<text x="10" y="398" class="label">steam-chat.com</text>
<rect x="180" y="382" width="485.78" height="22" fill="#4c78a8" rx="3"/>
<text x="673.78" y="398" class="value">226.66</text>
<text x="10" y="430" class="label">api.steampowered.com</text>
<rect x="180" y="414" width="495.09" height="22" fill="#4c78a8" rx="3"/>
<text x="683.0899999999999" y="430" class="value">231.00</text>
<text x="10" y="462" class="label">www.steamcommunity.com</text>
<rect x="180" y="446" width="575.41" height="22" fill="#4c78a8" rx="3"/>
<text x="763.41" y="462" class="value">268.48</text>
<text x="10" y="494" class="label">launcher-public-service-prod06.ol.epicgames.com</text>
<rect x="180" y="478" width="580.0" height="22" fill="#4c78a8" rx="3"/>
<text x="768.0" y="494" class="value">270.62</text>
<line x1="180" y1="30" x2="180" y2="520" stroke="#ccc"/>
<line x1="180" y1="520" x2="760" y2="520" stroke="#ccc"/>
</svg>