<svg xmlns="http://www.w3.org/2000/svg" width="800" height="540">
<style> .label{font-family:DejaVu Sans,Verdana,Geneva,sans-serif;font-size:12px;fill:#333} .value{font-family:DejaVu Sans,Verdana,Geneva,sans-serif;font-size:12px;fill:#555} </style>
<text x="10" y="20" class="label">延迟柱状图（越低越好，Top 15），单位 ms</text>
<text x="10" y="46" class="label">ea.com</text>
<rect x="180" y="30" width="198.78" height="22" fill="#4c78a8" rx="3"/>
<text x="386.78" y="46" class="value">65.66</text>
<text x="10" y="78" class="label">eaassets-a.akamaihd.net</text>
<rect x="180" y="62" width="251.4" height="22" fill="#4c78a8" rx="3"/>
<text x="439.4" y="78" class="value">83.04</text>
<text x="10" y="110" class="label">rockstargames.com</text>
<rect x="180" y="94" width="326.63" height="22" fill="#4c78a8" rx="3"/>
<text x="514.63" y="110" class="value">107.89</text>
<text x="10" y="142" class="label">static3.cdn.ubi.com</text>
<rect x="180" y="126" width="370.29" height="22" fill="#4c78a8" rx="3"/>
<text x="558.29" y="142" class="value">122.31</text>
<text x="10" y="174" class="label">blizzard.com</text>
<rect x="180" y="158" width="399.59" height="22" fill="#4c78a8" rx="3"/>
<text x="587.5899999999999" y="174" class="value">131.99</text>
<text x="10" y="206" class="label">ubi.com</text>
<rect x="180" y="190" width="399.93" height="22" fill="#4c78a8" rx="3"/>
<text x="587.9300000000001" y="206" class="value">132.10</text>
<text x="10" y="238" class="label">cdn.akamai.steamstatic.com</text>
<rect x="180" y="222" width="442.1" height="22" fill="#4c78a8" rx="3"/>
<text x="630.1" y="238" class="value">146.03</text>
<text x="10" y="270" class="label">socialclub.rockstargames.com</text>
<rect x="180" y="254" width="458.36" height="22" fill="#4c78a8" rx="3"/>
<text x="646.36" y="270" class="value">151.40</text>
<text x="10" y="302" class="label">easyanticheat.net</text>
<rect x="180" y="286" width="460.87" height="22" fill="#4c78a8" rx="3"/>
<text x="648.87" y="302" class="value">152.23</text>
<text x="10" y="334" class="label">battle.net</text>
<rect x="180" y="318" width="502.01" height="22" fill="#4c78a8" rx="3"/>
<text x="690.01" y="334" class="value">165.82</text>
<text x="10" y="366" class="label">ubisoft.com</text>
<rect x="180" y="350" width="502.16" height="22" fill="#4c78a8" rx="3"/>
<text x="690.1600000000001" y="366" class="value">165.87</text>
<text x="10" y="398" class="label">steamcdn-a.akamaihd.net</text>
<rect x="180" y="382" width="523.39" height="22" fill="#4c78a8" rx="3"/>
<text x="711.39" y="398" class="value">172.88</text>
<text x="10" y="430" class="label">launcher-public-service-prod06.ol.epicgames.com</text>
<rect x="180" y="414" width="535.31" height="22" fill="#4c78a8" rx="3"/>
<text x="723.31" y="430" class="value">176.82</text>
<text x="10" y="462" class="label">steam-chat.com</text>
<rect x="180" y="446" width="571.49" height="22" fill="#4c78a8" rx="3"/>
<text x="759.49" y="462" class="value">188.77</text>
<text x="10" y="494" class="label">origin.com</text>
<rect x="180" y="478" width="580.0" height="22" fill="#4c78a8" rx="3"/>
<text x="768.0" y="494" class="value">191.58</text>
<line x1="180" y1="30" x2="180" y2="520" stroke="#ccc"/>
<line x1="180" y1="520" x2="760" y2="520" stroke="#ccc"/>
</svg>