<svg xmlns="http://www.w3.org/2000/svg" width="800" height="540">
<style> .label{font-family:DejaVu Sans,Verdana,Geneva,sans-serif;font-size:12px;fill:#333} .value{font-family:DejaVu Sans,Verdana,Geneva,sans-serif;font-size:12px;fill:#555} </style>
<text x="10" y="20" class="label">延迟柱状图（越低越好，Top 15），单位 ms</text>
<text x="10" y="46" class="label">eaassets-a.akamaihd.net</text>
<rect x="180" y="30" width="106.33" height="22" fill="#4c78a8" rx="3"/>
<text x="294.33" y="46" class="value">44.94</text>
<text x="10" y="78" class="label">rockstargames.com</text>
<rect x="180" y="62" width="110.57" height="22" fill="#4c78a8" rx="3"/>
<text x="298.57" y="78" class="value">46.73</text>
<text x="10" y="110" class="label">steamcdn-a.akamaihd.net</text>
<rect x="180" y="94" width="217.09" height="22" fill="#4c78a8" rx="3"/>
<text x="405.09000000000003" y="110" class="value">91.75</text>
<text x="10" y="142" class="label">ea.com</text>
<rect x="180" y="126" width="283.74" height="22" fill="#4c78a8" rx="3"/>
<text x="471.74" y="142" class="value">119.92</text>
<text x="10" y="174" class="label">community.akamai.steamstatic.com</text>
<rect x="180" y="158" width="319.45" height="22" fill="#4c78a8" rx="3"/>
<text x="507.45" y="174" class="value">135.01</text>
<text x="10" y="206" class="label">cdn.cloudflare.steamstatic.com</text>
<rect x="180" y="190" width="325.43" height="22" fill="#4c78a8" rx="3"/>
<text x="513.4300000000001" y="206" class="value">137.54</text>
<text x="10" y="238" class="label">store.akamai.steamstatic.com</text>
<rect x="180" y="222" width="340.79" height="22" fill="#4c78a8" rx="3"/>
<text x="528.79" y="238" class="value">144.03</text>
<text x="10" y="270" class="label">origin.com</text>
<rect x="180" y="254" width="389.17" height="22" fill="#4c78a8" rx="3"/>
<text x="577.1700000000001" y="270" class="value">164.48</text>
<text x="10" y="302" class="label">steam-chat.com</text>
<rect x="180" y="286" width="391.52" height="22" fill="#4c78a8" rx="3"/>
<text x="579.52" y="302" class="value">165.47</text>
<text x="10" y="334" class="label">www.steamcommunity.com</text>
<rect x="180" y="318" width="398.26" height="22" fill="#4c78a8" rx="3"/>
<text x="586.26" y="334" class="value">168.32</text>
<text x="10" y="366" class="label">cdn.akamai.steamstatic.com</text>
<rect x="180" y="350" width="442.7" height="22" fill="#4c78a8" rx="3"/>
<text x="630.7" y="366" class="value">187.10</text>
<text x="10" y="398" class="label">easyanticheat.net</text>
<rect x="180" y="382" width="510.46" height="22" fill="#4c78a8" rx="3"/>
<text x="698.46" y="398" class="value">215.74</text>
<text x="10" y="430" class="label">launcher-public-service-prod06.ol.epicgames.com</text>
<rect x="180" y="414" width="546.28" height="22" fill="#4c78a8" rx="3"/>
<text x="734.28" y="430" class="value">230.88</text>
<text x="10" y="462" class="label">api.steampowered.com</text>
<rect x="180" y="446" width="579.22" height="22" fill="#4c78a8" rx="3"/>
<text x="767.22" y="462" class="value">244.80</text>
<text x="10" y="494" class="label">ubisoft.com</text>
<rect x="180" y="478" width="580.0" height="22" fill="#4c78a8" rx="3"/>
<text x="768.0" y="494" class="value">245.13</text>
<line x1="180" y1="30" x2="180" y2="520" stroke="#ccc"/>
<line x1="180" y1="520" x2="760" y2="520" stroke="#ccc"/>
</svg>