<svg xmlns="http://www.w3.org/2000/svg" width="800" height="540">
<style> .label{font-family:DejaVu Sans,Verdana,Geneva,sans-serif;font-size:12px;fill:#333} .value{font-family:DejaVu Sans,Verdana,Geneva,sans-serif;font-size:12px;fill:#555} </style>
<text x="10" y="20" class="label">延迟柱状图（越低越好，Top 15），单位 ms</text>
<text x="10" y="46" class="label">ubisoft.com</text>
<rect x="180" y="30" width="274.91" height="22" fill="#4c78a8" rx="3"/>
<text x="462.91" y="46" class="value">147.28</text>
<text x="10" y="78" class="label">eaassets-a.akamaihd.net</text>
<rect x="180" y="62" width="289.32" height="22" fill="#4c78a8" rx="3"/>
<text x="477.32" y="78" class="value">155.00</text>
<text x="10" y="110" class="label">cdn.akamai.steamstatic.com</text>
<rect x="180" y="94" width="313.19" height="22" fill="#4c78a8" rx="3"/>
<text x="501.19" y="110" class="value">167.79</text>
<text x="10" y="142" class="label">rockstargames.com</text>
<rect x="180" y="126" width="400.29" height="22" fill="#4c78a8" rx="3"/>
<text x="588.29" y="142" class="value">214.45</text>
<text x="10" y="174" class="label">battle.net</text>
<rect x="180" y="158" width="404.54" height="22" fill="#4c78a8" rx="3"/>
<text x="592.54" y="174" class="value">216.73</text>
<text x="10" y="206" class="label">blizzard.com</text>
<rect x="180" y="190" width="404.77" height="22" fill="#4c78a8" rx="3"/>
<text x="592.77" y="206" class="value">216.85</text>
<text x="10" y="238" class="label">cdn.cloudflare.steamstatic.com</text>
<rect x="180" y="222" width="406.69" height="22" fill="#4c78a8" rx="3"/>
<text x="594.69" y="238" class="value">217.88</text>
<text x="10" y="270" class="label">ubi.com</text>
<rect x="180" y="254" width="443.12" height="22" fill="#4c78a8" rx="3"/>
<text x="631.12" y="270" class="value">237.40</text>
<text x="10" y="302" class="label">community.akamai.steamstatic.com</text>
<rect x="180" y="286" width="476.7" height="22" fill="#4c78a8" rx="3"/>
<text x="664.7" y="302" class="value">255.39</text>
<text x="10" y="334" class="label">steamcdn-a.akamaihd.net</text>
<rect x="180" y="318" width="497.55" height="22" fill="#4c78a8" rx="3"/>
<text x="685.55" y="334" class="value">266.56</text>
<text x="10" y="366" class="label">socialclub.rockstargames.com</text>
<rect x="180" y="350" width="498.08" height="22" fill="#4c78a8" rx="3"/>
<text x="686.0799999999999" y="366" class="value">266.84</text>
<text x="10" y="398" class="label">unrealengine.com</text>
<rect x="180" y="382" width="516.85" height="22" fill="#4c78a8" rx="3"/>
<text x="704.85" y="398" class="value">276.90</text>
<text x="10" y="430" class="label">easyanticheat.net</text>
<rect x="180" y="414" width="520.85" height="22" fill="#4c78a8" rx="3"/>
<text x="708.85" y="430" class="value">279.04</text>
<text x="10" y="462" class="label">api.steampowered.com</text>
<rect x="180" y="446" width="532.59" height="22" fill="#4c78a8" rx="3"/>
<text x="720.59" y="462" class="value">285.33</text>
<text x="10" y="494" class="label">steam-chat.com</text>
<rect x="180" y="478" width="580.0" height="22" fill="#4c78a8" rx="3"/>
<text x="768.0" y="494" class="value">310.73</text>
<line x1="180" y1="30" x2="180" y2="520" stroke="#ccc"/>
<line x1="180" y1="520" x2="760" y2="520" stroke="#ccc"/>
</svg>