<svg xmlns="http://www.w3.org/2000/svg" width="800" height="540">
<style> .label{font-family:DejaVu Sans,Verdana,Geneva,sans-serif;font-size:12px;fill:#333} .value{font-family:DejaVu Sans,Verdana,Geneva,sans-serif;font-size:12px;fill:#555} </style>
<text x="10" y="20" class="label">延迟柱状图（越低越好，Top 15），单位 ms</text>
<text x="10" y="46" class="label">rockstargames.com</text>
<rect x="180" y="30" width="73.72" height="22" fill="#4c78a8" rx="3"/>
<text x="261.72" y="46" class="value">36.59</text>
<text x="10" y="78" class="label">ea.com</text>
<rect x="180" y="62" width="124.66" height="22" fill="#4c78a8" rx="3"/>
<text x="312.65999999999997" y="78" class="value">61.87</text>
<text x="10" y="110" class="label">eaassets-a.akamaihd.net</text>
<rect x="180" y="94" width="139.31" height="22" fill="#4c78a8" rx="3"/>
<text x="327.31" y="110" class="value">69.14</text>
<text x="10" y="142" class="label">origin.com</text>
<rect x="180" y="126" width="167.9" height="22" fill="#4c78a8" rx="3"/>
<text x="355.9" y="142" class="value">83.33</text>
<text x="10" y="174" class="label">store.akamai.steamstatic.com</text>
<rect x="180" y="158" width="169.19" height="22" fill="#4c78a8" rx="3"/>
<text x="357.19" y="174" class="value">83.97</text>
<text x="10" y="206" class="label">cdn.cloudflare.steamstatic.com</text>
<rect x="180" y="190" width="196.75" height="22" fill="#4c78a8" rx="3"/>
<text x="384.75" y="206" class="value">97.65</text>
<text x="10" y="238" class="label">ubisoft.com</text>
<rect x="180" y="222" width="261.75" height="22" fill="#4c78a8" rx="3"/>
<text x="449.75" y="238" class="value">129.91</text>
<text x="10" y="270" class="label">community.akamai.steamstatic.com</text>
<rect x="180" y="254" width="318.53" height="22" fill="#4c78a8" rx="3"/>
<text x="506.53" y="270" class="value">158.09</text>
<text x="10" y="302" class="label">api.steampowered.com</text>
<rect x="180" y="286" width="331.65" height="22" fill="#4c78a8" rx="3"/>
<text x="519.65" y="302" class="value">164.60</text>
<text x="10" y="334" class="label">steamcdn-a.akamaihd.net</text>
<rect x="180" y="318" width="364.93" height="22" fill="#4c78a8" rx="3"/>
<text x="552.9300000000001" y="334" class="value">181.12</text>
<text x="10" y="366" class="label">easyanticheat.net</text>
<rect x="180" y="350" width="419.8" height="22" fill="#4c78a8" rx="3"/>
<text x="607.8" y="366" class="value">208.35</text>
<text x="10" y="398" class="label">cdn.akamai.steamstatic.com</text>
<rect x="180" y="382" width="423.22" height="22" fill="#4c78a8" rx="3"/>
<text x="611.22" y="398" class="value">210.05</text>
<text x="10" y="430" class="label">steam-chat.com</text>
<rect x="180" y="414" width="544.03" height="22" fill="#4c78a8" rx="3"/>
<text x="732.03" y="430" class="value">270.01</text>
<text x="10" y="462" class="label">www.steamcommunity.com</text>
<rect x="180" y="446" width="567.08" height="22" fill="#4c78a8" rx="3"/>
<text x="755.08" y="462" class="value">281.45</text>
<text x="10" y="494" class="label">launcher-public-service-prod06.ol.epicgames.com</text>
<rect x="180" y="478" width="580.0" height="22" fill="#4c78a8" rx="3"/>
<text x="768.0" y="494" class="value">287.86</text>
<line x1="180" y1="30" x2="180" y2="520" stroke="#ccc"/>
<line x1="180" y1="520" x2="760" y2="520" stroke="#ccc"/>
</svg>