<svg xmlns="http://www.w3.org/2000/svg" width="800" height="540">
<style> .label{font-family:DejaVu Sans,Verdana,Geneva,sans-serif;font-size:12px;fill:#333} .value{font-family:DejaVu Sans,Verdana,Geneva,sans-serif;font-size:12px;fill:#555} </style>
<text x="10" y="20" class="label">延迟柱状图（越低越好，Top 15），单位 ms</text>
<text x="10" y="46" class="label">rockstargames.com</text>
<rect x="180" y="30" width="112.1" height="22" fill="#4c78a8" rx="3"/>
<text x="300.1" y="46" class="value">52.99</text>
<text x="10" y="78" class="label">ea.com</text>
<rect x="180" y="62" width="118.01" height="22" fill="#4c78a8" rx="3"/>
<text x="306.01" y="78" class="value">55.78</text>
<text x="10" y="110" class="label">steamcdn-a.akamaihd.net</text>
<rect x="180" y="94" width="178.95" height="22" fill="#4c78a8" rx="3"/>
<text x="366.95" y="110" class="value">84.59</text>
<text x="10" y="142" class="label">origin.com</text>
<rect x="180" y="126" width="212.91" height="22" fill="#4c78a8" rx="3"/>
<text x="400.90999999999997" y="142" class="value">100.64</text>
<text x="10" y="174" class="label">eaassets-a.akamaihd.net</text>
<rect x="180" y="158" width="229.28" height="22" fill="#4c78a8" rx="3"/>
<text x="417.28" y="174" class="value">108.38</text>
<text x="10" y="206" class="label">store.akamai.steamstatic.com</text>
<rect x="180" y="190" width="321.48" height="22" fill="#4c78a8" rx="3"/>
<text x="509.48" y="206" class="value">151.96</text>
<text x="10" y="238" class="label">easyanticheat.net</text>
<rect x="180" y="222" width="323.55" height="22" fill="#4c78a8" rx="3"/>
<text x="511.55" y="238" class="value">152.94</text>
<text x="10" y="270" class="label">cdn.akamai.steamstatic.com</text>
<rect x="180" y="254" width="326.98" height="22" fill="#4c78a8" rx="3"/>
<text x="514.98" y="270" class="value">154.56</text>
<text x="10" y="302" class="label">community.akamai.steamstatic.com</text>
<rect x="180" y="286" width="453.21" height="22" fill="#4c78a8" rx="3"/>
<text x="641.21" y="302" class="value">214.23</text>
<text x="10" y="334" class="label">ubisoft.com</text>
<rect x="180" y="318" width="524.13" height="22" fill="#4c78a8" rx="3"/>
<text x="712.13" y="334" class="value">247.75</text>
<text x="10" y="366" class="label">steam-chat.com</text>
<rect x="180" y="350" width="524.81" height="22" fill="#4c78a8" rx="3"/>
<text x="712.81" y="366" class="value">248.07</text>
<text x="10" y="398" class="label">www.steamcommunity.com</text>
<rect x="180" y="382" width="533.06" height="22" fill="#4c78a8" rx="3"/>
<text x="721.06" y="398" class="value">251.97</text>
<text x="10" y="430" class="label">launcher-public-service-prod06.ol.epicgames.com</text>
<rect x="180" y="414" width="557.47" height="22" fill="#4c78a8" rx="3"/>
<text x="745.47" y="430" class="value">263.51</text>
<text x="10" y="462" class="label">cdn.cloudflare.steamstatic.com</text>
<rect x="180" y="446" width="579.47" height="22" fill="#4c78a8" rx="3"/>
<text x="767.47" y="462" class="value">273.91</text>
<text x="10" y="494" class="label">api.steampowered.com</text>
<rect x="180" y="478" width="580.0" height="22" fill="#4c78a8" rx="3"/>
<text x="768.0" y="494" class="value">274.16</text>
<line x1="180" y1="30" x2="180" y2="520" stroke="#ccc"/>
<line x1="180" y1="520" x2="760" y2="520" stroke="#ccc"/>
</svg>