<svg xmlns="http://www.w3.org/2000/svg" width="800" height="540">
<style> .label{font-family:DejaVu Sans,Verdana,Geneva,sans-serif;font-size:12px;fill:#333} .value{font-family:DejaVu Sans,Verdana,Geneva,sans-serif;font-size:12px;fill:#555} </style>
<text x="10" y="20" class="label">延迟柱状图（越低越好，Top 15），单位 ms</text>
<text x="10" y="46" class="label">rockstargames.com</text>
<rect x="180" y="30" width="72.95" height="22" fill="#4c78a8" rx="3"/>
<text x="260.95" y="46" class="value">38.43</text>
<text x="10" y="78" class="label">ea.com</text>
<rect x="180" y="62" width="141.34" height="22" fill="#4c78a8" rx="3"/>
<text x="329.34000000000003" y="78" class="value">74.46</text>
<text x="10" y="110" class="label">eaassets-a.akamaihd.net</text>
<rect x="180" y="94" width="174.44" height="22" fill="#4c78a8" rx="3"/>
<text x="362.44" y="110" class="value">91.90</text>
<text x="10" y="142" class="label">ubisoft.com</text>
<rect x="180" y="126" width="234.92" height="22" fill="#4c78a8" rx="3"/>
<text x="422.91999999999996" y="142" class="value">123.76</text>
<text x="10" y="174" class="label">cdn.akamai.steamstatic.com</text>
<rect x="180" y="158" width="244.67" height="22" fill="#4c78a8" rx="3"/>
<text x="432.66999999999996" y="174" class="value">128.90</text>
<text x="10" y="206" class="label">community.akamai.steamstatic.com</text>
<rect x="180" y="190" width="317.41" height="22" fill="#4c78a8" rx="3"/>
<text x="505.41" y="206" class="value">167.22</text>
<text x="10" y="238" class="label">origin.com</text>
<rect x="180" y="222" width="323.33" height="22" fill="#4c78a8" rx="3"/>
<text x="511.33" y="238" class="value">170.34</text>
<text x="10" y="270" class="label">steamcdn-a.akamaihd.net</text>
<rect x="180" y="254" width="327.05" height="22" fill="#4c78a8" rx="3"/>
<text x="515.05" y="270" class="value">172.30</text>
<text x="10" y="302" class="label">store.akamai.steamstatic.com</text>
<rect x="180" y="286" width="332.71" height="22" fill="#4c78a8" rx="3"/>
<text x="520.71" y="302" class="value">175.28</text>
<text x="10" y="334" class="label">launcher-public-service-prod06.ol.epicgames.com</text>
<rect x="180" y="318" width="354.5" height="22" fill="#4c78a8" rx="3"/>
<text x="542.5" y="334" class="value">186.76</text>
<text x="10" y="366" class="label">api.steampowered.com</text>
<rect x="180" y="350" width="428.76" height="22" fill="#4c78a8" rx="3"/>
<text x="616.76" y="366" class="value">225.88</text>
<text x="10" y="398" class="label">www.steamcommunity.com</text>
<rect x="180" y="382" width="429.69" height="22" fill="#4c78a8" rx="3"/>
<text x="617.69" y="398" class="value">226.37</text>
<text x="10" y="430" class="label">steam-chat.com</text>
<rect x="180" y="414" width="437.2" height="22" fill="#4c78a8" rx="3"/>
<text x="625.2" y="430" class="value">230.33</text>
<text x="10" y="462" class="label">easyanticheat.net</text>
<rect x="180" y="446" width="439.76" height="22" fill="#4c78a8" rx="3"/>
<text x="627.76" y="462" class="value">231.68</text>
<text x="10" y="494" class="label">blizzard.com</text>
<rect x="180" y="478" width="580.0" height="22" fill="#4c78a8" rx="3"/>
<text x="768.0" y="494" class="value">305.56</text>
<line x1="180" y1="30" x2="180" y2="520" stroke="#ccc"/>
<line x1="180" y1="520" x2="760" y2="520" stroke="#ccc"/>
</svg>