<svg xmlns="http://www.w3.org/2000/svg" width="800" height="540">
<style> .label{font-family:DejaVu Sans,Verdana,Geneva,sans-serif;font-size:12px;fill:#333} .value{font-family:DejaVu Sans,Verdana,Geneva,sans-serif;font-size:12px;fill:#555} </style>
<text x="10" y="20" class="label">延迟柱状图（越低越好，Top 15），单位 ms</text>
<text x="10" y="46" class="label">eaassets-a.akamaihd.net</text>
<rect x="180" y="30" width="75.59" height="22" fill="#4c78a8" rx="3"/>
<text x="263.59000000000003" y="46" class="value">33.54</text>
<text x="10" y="78" class="label">rockstargames.com</text>
<rect x="180" y="62" width="76.29" height="22" fill="#4c78a8" rx="3"/>
<text x="264.29" y="78" class="value">33.85</text>
<text x="10" y="110" class="label">community.akamai.steamstatic.com</text>
<rect x="180" y="94" width="165.04" height="22" fill="#4c78a8" rx="3"/>
<text x="353.03999999999996" y="110" class="value">73.23</text>
<text x="10" y="142" class="label">ea.com</text>
<rect x="180" y="126" width="216.25" height="22" fill="#4c78a8" rx="3"/>
<text x="404.25" y="142" class="value">95.95</text>
<text x="10" y="174" class="label">origin.com</text>
<rect x="180" y="158" width="247.73" height="22" fill="#4c78a8" rx="3"/>
<text x="435.73" y="174" class="value">109.92</text>
<text x="10" y="206" class="label">ubisoft.com</text>
<rect x="180" y="190" width="253.52" height="22" fill="#4c78a8" rx="3"/>
<text x="441.52" y="206" class="value">112.49</text>
<text x="10" y="238" class="label">cdn.akamai.steamstatic.com</text>
<rect x="180" y="222" width="272.34" height="22" fill="#4c78a8" rx="3"/>
<text x="460.34" y="238" class="value">120.84</text>
<text x="10" y="270" class="label">store.akamai.steamstatic.com</text>
<rect x="180" y="254" width="290.89" height="22" fill="#4c78a8" rx="3"/>
<text x="478.89" y="270" class="value">129.07</text>
<text x="10" y="302" class="label">cdn.cloudflare.steamstatic.com</text>
<rect x="180" y="286" width="336.42" height="22" fill="#4c78a8" rx="3"/>
<text x="524.4200000000001" y="302" class="value">149.27</text>
<text x="10" y="334" class="label">easyanticheat.net</text>
<rect x="180" y="318" width="365.65" height="22" fill="#4c78a8" rx="3"/>
<text x="553.65" y="334" class="value">162.24</text>
<text x="10" y="366" class="label">steamcdn-a.akamaihd.net</text>
<rect x="180" y="350" width="371.84" height="22" fill="#4c78a8" rx="3"/>
<text x="559.8399999999999" y="366" class="value">164.99</text>
<text x="10" y="398" class="label">api.steampowered.com</text>
<rect x="180" y="382" width="487.57" height="22" fill="#4c78a8" rx="3"/>
<text x="675.5699999999999" y="398" class="value">216.34</text>
<text x="10" y="430" class="label">steam-chat.com</text>
<rect x="180" y="414" width="551.99" height="22" fill="#4c78a8" rx="3"/>
<text x="739.99" y="430" class="value">244.92</text>
<text x="10" y="462" class="label">www.steamcommunity.com</text>
<rect x="180" y="446" width="568.91" height="22" fill="#4c78a8" rx="3"/>
<text x="756.91" y="462" class="value">252.43</text>
<text x="10" y="494" class="label">steamcommunity.com</text>
<rect x="180" y="478" width="580.0" height="22" fill="#4c78a8" rx="3"/>
<text x="768.0" y="494" class="value">257.35</text>
<line x1="180" y1="30" x2="180" y2="520" stroke="#ccc"/>
<line x1="180" y1="520" x2="760" y2="520" stroke="#ccc"/>
</svg>