<svg xmlns="http://www.w3.org/2000/svg" width="800" height="540">
<style> .label{font-family:DejaVu Sans,Verdana,Geneva,sans-serif;font-size:12px;fill:#333} .value{font-family:DejaVu Sans,Verdana,Geneva,sans-serif;font-size:12px;fill:#555} </style>
<text x="10" y="20" class="label">延迟柱状图（越低越好，Top 15），单位 ms</text>
<text x="10" y="46" class="label">rockstargames.com</text>
<rect x="180" y="30" width="74.6" height="22" fill="#4c78a8" rx="3"/>
<text x="262.6" y="46" class="value">32.79</text>
<text x="10" y="78" class="label">eaassets-a.akamaihd.net</text>
<rect x="180" y="62" width="100.06" height="22" fill="#4c78a8" rx="3"/>
<text x="288.06" y="78" class="value">43.98</text>
<text x="10" y="110" class="label">ea.com</text>
<rect x="180" y="94" width="116.13" height="22" fill="#4c78a8" rx="3"/>
<text x="304.13" y="110" class="value">51.04</text>
<text x="10" y="142" class="label">cdn.akamai.steamstatic.com</text>
<rect x="180" y="126" width="217.28" height="22" fill="#4c78a8" rx="3"/>
<text x="405.28" y="142" class="value">95.50</text>
<text x="10" y="174" class="label">ubisoft.com</text>
<rect x="180" y="158" width="256.62" height="22" fill="#4c78a8" rx="3"/>
<text x="444.62" y="174" class="value">112.79</text>
<text x="10" y="206" class="label">steamcdn-a.akamaihd.net</text>
<rect x="180" y="190" width="366.06" height="22" fill="#4c78a8" rx="3"/>
<text x="554.06" y="206" class="value">160.89</text>
<text x="10" y="238" class="label">origin.com</text>
<rect x="180" y="222" width="366.9" height="22" fill="#4c78a8" rx="3"/>
<text x="554.9" y="238" class="value">161.26</text>
<text x="10" y="270" class="label">cdn.cloudflare.steamstatic.com</text>
<rect x="180" y="254" width="377.51" height="22" fill="#4c78a8" rx="3"/>
<text x="565.51" y="270" class="value">165.92</text>
<text x="10" y="302" class="label">store.akamai.steamstatic.com</text>
<rect x="180" y="286" width="386.01" height="22" fill="#4c78a8" rx="3"/>
<text x="574.01" y="302" class="value">169.66</text>
<text x="10" y="334" class="label">community.akamai.steamstatic.com</text>
<rect x="180" y="318" width="412.52" height="22" fill="#4c78a8" rx="3"/>
<text x="600.52" y="334" class="value">181.31</text>
<text x="10" y="366" class="label">www.steamcommunity.com</text>
<rect x="180" y="350" width="471.9" height="22" fill="#4c78a8" rx="3"/>
<text x="659.9" y="366" class="value">207.41</text>
<text x="10" y="398" class="label">launcher-public-service-prod06.ol.epicgames.com</text>
<rect x="180" y="382" width="500.5" height="22" fill="#4c78a8" rx="3"/>
<text x="688.5" y="398" class="value">219.98</text>
<text x="10" y="430" class="label">easyanticheat.net</text>
<rect x="180" y="414" width="522.96" height="22" fill="#4c78a8" rx="3"/>
<text x="710.96" y="430" class="value">229.85</text>
<text x="10" y="462" class="label">steam-chat.com</text>
<rect x="180" y="446" width="578.45" height="22" fill="#4c78a8" rx="3"/>
<text x="766.45" y="462" class="value">254.24</text>
<text x="10" y="494" class="label">api.steampowered.com</text>
<rect x="180" y="478" width="580.0" height="22" fill="#4c78a8" rx="3"/>
<text x="768.0" y="494" class="value">254.92</text>
<line x1="180" y1="30" x2="180" y2="520" stroke="#ccc"/>
<line x1="180" y1="520" x2="760" y2="520" stroke="#ccc"/>
</svg>