<svg xmlns="http://www.w3.org/2000/svg" width="800" height="540">
<style> .label{font-family:DejaVu Sans,Verdana,Geneva,sans-serif;font-size:12px;fill:#333} .value{font-family:DejaVu Sans,Verdana,Geneva,sans-serif;font-size:12px;fill:#555} </style>
<text x="10" y="20" class="label">延迟柱状图（越低越好，Top 15），单位 ms</text>
<text x="10" y="46" class="label">rockstargames.com</text>
<rect x="180" y="30" width="169.54" height="22" fill="#4c78a8" rx="3"/>
<text x="357.53999999999996" y="46" class="value">94.72</text>
<text x="10" y="78" class="label">community.akamai.steamstatic.com</text>
<rect x="180" y="62" width="191.9" height="22" fill="#4c78a8" rx="3"/>
<text x="379.9" y="78" class="value">107.21</text>
<text x="10" y="110" class="label">ubisoft.com</text>
<rect x="180" y="94" width="244.44" height="22" fill="#4c78a8" rx="3"/>
<text x="432.44" y="110" class="value">136.56</text>
<text x="10" y="142" class="label">ea.com</text>
<rect x="180" y="126" width="264.77" height="22" fill="#4c78a8" rx="3"/>
<text x="452.77" y="142" class="value">147.92</text>
<text x="10" y="174" class="label">eaassets-a.akamaihd.net</text>
<rect x="180" y="158" width="279.7" height="22" fill="#4c78a8" rx="3"/>
<text x="467.7" y="174" class="value">156.26</text>
<text x="10" y="206" class="label">steamcdn-a.akamaihd.net</text>
<rect x="180" y="190" width="330.8" height="22" fill="#4c78a8" rx="3"/>
<text x="518.8" y="206" class="value">184.81</text>
<text x="10" y="238" class="label">origin.com</text>
<rect x="180" y="222" width="332.56" height="22" fill="#4c78a8" rx="3"/>
<text x="520.56" y="238" class="value">185.79</text>
<text x="10" y="270" class="label">cdn.cloudflare.steamstatic.com</text>
<rect x="180" y="254" width="409.17" height="22" fill="#4c78a8" rx="3"/>
<text x="597.1700000000001" y="270" class="value">228.59</text>
<text x="10" y="302" class="label">easyanticheat.net</text>
<rect x="180" y="286" width="411.87" height="22" fill="#4c78a8" rx="3"/>
<text x="599.87" y="302" class="value">230.10</text>
<text x="10" y="334" class="label">ubi.com</text>
<rect x="180" y="318" width="495.23" height="22" fill="#4c78a8" rx="3"/>
<text x="683.23" y="334" class="value">276.67</text>
<text x="10" y="366" class="label">cdn.akamai.steamstatic.com</text>
<rect x="180" y="350" width="500.13" height="22" fill="#4c78a8" rx="3"/>
<text x="688.13" y="366" class="value">279.41</text>
<text x="10" y="398" class="label">www.steamcommunity.com</text>
<rect x="180" y="382" width="529.52" height="22" fill="#4c78a8" rx="3"/>
<text x="717.52" y="398" class="value">295.83</text>
<text x="10" y="430" class="label">steam-chat.com</text>
<rect x="180" y="414" width="533.64" height="22" fill="#4c78a8" rx="3"/>
<text x="721.64" y="430" class="value">298.13</text>
<text x="10" y="462" class="label">api.steampowered.com</text>
<rect x="180" y="446" width="541.18" height="22" fill="#4c78a8" rx="3"/>
<text x="729.18" y="462" class="value">302.34</text>
<text x="10" y="494" class="label">launcher-public-service-prod06.ol.epicgames.com</text>
<rect x="180" y="478" width="580.0" height="22" fill="#4c78a8" rx="3"/>
<text x="768.0" y="494" class="value">324.03</text>
<line x1="180" y1="30" x2="180" y2="520" stroke="#ccc"/>
<line x1="180" y1="520" x2="760" y2="520" stroke="#ccc"/>
</svg>