<svg xmlns="http://www.w3.org/2000/svg" width="800" height="540">
<style> .label{font-family:DejaVu Sans,Verdana,Geneva,sans-serif;font-size:12px;fill:#333} .value{font-family:DejaVu Sans,Verdana,Geneva,sans-serif;font-size:12px;fill:#555} </style>
<text x="10" y="20" class="label">延迟柱状图（越低越好，Top 15），单位 ms</text>
<text x="10" y="46" class="label">socialclub.rockstargames.com</text>
<rect x="180" y="30" width="153.49" height="22" fill="#4c78a8" rx="3"/>
<text x="341.49" y="46" class="value">61.09</text>
<text x="10" y="78" class="label">rockstargames.com</text>
<rect x="180" y="62" width="185.59" height="22" fill="#4c78a8" rx="3"/>
<text x="373.59000000000003" y="78" class="value">73.87</text>
<text x="10" y="110" class="label">battle.net</text>
<rect x="180" y="94" width="216.52" height="22" fill="#4c78a8" rx="3"/>
<text x="404.52" y="110" class="value">86.18</text>
<text x="10" y="142" class="label">blizzard.com</text>
<rect x="180" y="126" width="257.4" height="22" fill="#4c78a8" rx="3"/>
<text x="445.4" y="142" class="value">102.45</text>
<text x="10" y="174" class="label">ea.com</text>
<rect x="180" y="158" width="263.61" height="22" fill="#4c78a8" rx="3"/>
<text x="451.61" y="174" class="value">104.92</text>
<text x="10" y="206" class="label">eaassets-a.akamaihd.net</text>
<rect x="180" y="190" width="280.11" height="22" fill="#4c78a8" rx="3"/>
<text x="468.11" y="206" class="value">111.49</text>
<text x="10" y="238" class="label">ubisoft.com</text>
<rect x="180" y="222" width="323.6" height="22" fill="#4c78a8" rx="3"/>
<text x="511.6" y="238" class="value">128.80</text>
<text x="10" y="270" class="label">epicgames.com</text>
<rect x="180" y="254" width="347.87" height="22" fill="#4c78a8" rx="3"/>
<text x="535.87" y="270" class="value">138.46</text>
<text x="10" y="302" class="label">ubi.com</text>
<rect x="180" y="286" width="364.36" height="22" fill="#4c78a8" rx="3"/>
<text x="552.36" y="302" class="value">145.02</text>
<text x="10" y="334" class="label">cdn.akamai.steamstatic.com</text>
<rect x="180" y="318" width="374.18" height="22" fill="#4c78a8" rx="3"/>
<text x="562.1800000000001" y="334" class="value">148.93</text>
<text x="10" y="366" class="label">fortnite.com</text>
<rect x="180" y="350" width="399.28" height="22" fill="#4c78a8" rx="3"/>
<text x="587.28" y="366" class="value">158.92</text>
<text x="10" y="398" class="label">unrealengine.com</text>
<rect x="180" y="382" width="473.8" height="22" fill="#4c78a8" rx="3"/>
<text x="661.8" y="398" class="value">188.58</text>
<text x="10" y="430" class="label">steamcdn-a.akamaihd.net</text>
<rect x="180" y="414" width="501.79" height="22" fill="#4c78a8" rx="3"/>
<text x="689.79" y="430" class="value">199.72</text>
<text x="10" y="462" class="label">easyanticheat.net</text>
<rect x="180" y="446" width="547.74" height="22" fill="#4c78a8" rx="3"/>
<text x="735.74" y="462" class="value">218.01</text>
<text x="10" y="494" class="label">origin.com</text>
<rect x="180" y="478" width="580.0" height="22" fill="#4c78a8" rx="3"/>
<text x="768.0" y="494" class="value">230.85</text>
<line x1="180" y1="30" x2="180" y2="520" stroke="#ccc"/>
<line x1="180" y1="520" x2="760" y2="520" stroke="#ccc"/>
</svg>