<svg xmlns="http://www.w3.org/2000/svg" width="800" height="540">
<style> .label{font-family:DejaVu Sans,Verdana,Geneva,sans-serif;font-size:12px;fill:#333} .value{font-family:DejaVu Sans,Verdana,Geneva,sans-serif;font-size:12px;fill:#555} </style>
<text x="10" y="20" class="label">延迟柱状图（越低越好，Top 15），单位 ms</text>
<text x="10" y="46" class="label">rockstargames.com</text>
<rect x="180" y="30" width="250.61" height="22" fill="#4c78a8" rx="3"/>
<text x="438.61" y="46" class="value">105.83</text>
<text x="10" y="78" class="label">eaassets-a.akamaihd.net</text>
<rect x="180" y="62" width="351.41" height="22" fill="#4c78a8" rx="3"/>
<text x="539.4100000000001" y="78" class="value">148.40</text>
<text x="10" y="110" class="label">steamcdn-a.akamaihd.net</text>
<rect x="180" y="94" width="358.59" height="22" fill="#4c78a8" rx="3"/>
<text x="546.5899999999999" y="110" class="value">151.43</text>
<text x="10" y="142" class="label">store.akamai.steamstatic.com</text>
<rect x="180" y="126" width="370.95" height="22" fill="#4c78a8" rx="3"/>
<text x="558.95" y="142" class="value">156.65</text>
<text x="10" y="174" class="label">ubisoft.com</text>
<rect x="180" y="158" width="382.89" height="22" fill="#4c78a8" rx="3"/>
<text x="570.89" y="174" class="value">161.69</text>
<text x="10" y="206" class="label">community.akamai.steamstatic.com</text>
<rect x="180" y="190" width="385.42" height="22" fill="#4c78a8" rx="3"/>
<text x="573.4200000000001" y="206" class="value">162.76</text>
<text x="10" y="238" class="label">cdn.cloudflare.steamstatic.com</text>
<rect x="180" y="222" width="402.94" height="22" fill="#4c78a8" rx="3"/>
<text x="590.94" y="238" class="value">170.16</text>
<text x="10" y="270" class="label">cdn.akamai.steamstatic.com</text>
<rect x="180" y="254" width="406.97" height="22" fill="#4c78a8" rx="3"/>
<text x="594.97" y="270" class="value">171.86</text>
<text x="10" y="302" class="label">ea.com</text>
<rect x="180" y="286" width="414.66" height="22" fill="#4c78a8" rx="3"/>
<text x="602.6600000000001" y="302" class="value">175.11</text>
<text x="10" y="334" class="label">origin.com</text>
<rect x="180" y="318" width="422.17" height="22" fill="#4c78a8" rx="3"/>
<text x="610.1700000000001" y="334" class="value">178.28</text>
<text x="10" y="366" class="label">easyanticheat.net</text>
<rect x="180" y="350" width="483.98" height="22" fill="#4c78a8" rx="3"/>
<text x="671.98" y="366" class="value">204.38</text>
<text x="10" y="398" class="label">www.steamcommunity.com</text>
<rect x="180" y="382" width="491.58" height="22" fill="#4c78a8" rx="3"/>
<text x="679.5799999999999" y="398" class="value">207.59</text>
<text x="10" y="430" class="label">api.steampowered.com</text>
<rect x="180" y="414" width="525.3" height="22" fill="#4c78a8" rx="3"/>
<text x="713.3" y="430" class="value">221.83</text>
<text x="10" y="462" class="label">steam-chat.com</text>
<rect x="180" y="446" width="554.38" height="22" fill="#4c78a8" rx="3"/>
<text x="742.38" y="462" class="value">234.11</text>
<text x="10" y="494" class="label">ubi.com</text>
<rect x="180" y="478" width="580.0" height="22" fill="#4c78a8" rx="3"/>
<text x="768.0" y="494" class="value">244.93</text>
<line x1="180" y1="30" x2="180" y2="520" stroke="#ccc"/>
<line x1="180" y1="520" x2="760" y2="520" stroke="#ccc"/>
</svg>