<svg xmlns="http://www.w3.org/2000/svg" width="800" height="540">
<style> .label{font-family:DejaVu Sans,Verdana,Geneva,sans-serif;font-size:12px;fill:#333} .value{font-family:DejaVu Sans,Verdana,Geneva,sans-serif;font-size:12px;fill:#555} </style>
<text x="10" y="20" class="label">延迟柱状图（越低越好，Top 15），单位 ms</text>
<text x="10" y="46" class="label">rockstargames.com</text>
<rect x="180" y="30" width="67.53" height="22" fill="#4c78a8" rx="3"/>
<text x="255.53" y="46" class="value">34.51</text>
<text x="10" y="78" class="label">ea.com</text>
<rect x="180" y="62" width="151.08" height="22" fill="#4c78a8" rx="3"/>
<text x="339.08000000000004" y="78" class="value">77.21</text>
<text x="10" y="110" class="label">ubisoft.com</text>
<rect x="180" y="94" width="198.78" height="22" fill="#4c78a8" rx="3"/>
<text x="386.78" y="110" class="value">101.59</text>
<text x="10" y="142" class="label">store.akamai.steamstatic.com</text>
<rect x="180" y="126" width="204.18" height="22" fill="#4c78a8" rx="3"/>
<text x="392.18" y="142" class="value">104.35</text>
<text x="10" y="174" class="label">cdn.akamai.steamstatic.com</text>
<rect x="180" y="158" width="206.33" height="22" fill="#4c78a8" rx="3"/>
<text x="394.33000000000004" y="174" class="value">105.45</text>
<text x="10" y="206" class="label">community.akamai.steamstatic.com</text>
<rect x="180" y="190" width="209.09" height="22" fill="#4c78a8" rx="3"/>
<text x="397.09000000000003" y="206" class="value">106.86</text>
<text x="10" y="238" class="label">eaassets-a.akamaihd.net</text>
<rect x="180" y="222" width="248.32" height="22" fill="#4c78a8" rx="3"/>
<text x="436.32" y="238" class="value">126.91</text>
<text x="10" y="270" class="label">cdn.cloudflare.steamstatic.com</text>
<rect x="180" y="254" width="268.67" height="22" fill="#4c78a8" rx="3"/>
<text x="456.67" y="270" class="value">137.31</text>
<text x="10" y="302" class="label">origin.com</text>
<rect x="180" y="286" width="352.89" height="22" fill="#4c78a8" rx="3"/>
<text x="540.89" y="302" class="value">180.35</text>
<text x="10" y="334" class="label">steamcdn-a.akamaihd.net</text>
<rect x="180" y="318" width="417.52" height="22" fill="#4c78a8" rx="3"/>
<text x="605.52" y="334" class="value">213.38</text>
<text x="10" y="366" class="label">easyanticheat.net</text>
<rect x="180" y="350" width="449.12" height="22" fill="#4c78a8" rx="3"/>
<text x="637.12" y="366" class="value">229.53</text>
<text x="10" y="398" class="label">steam-chat.com</text>
<rect x="180" y="382" width="494.53" height="22" fill="#4c78a8" rx="3"/>
<text x="682.53" y="398" class="value">252.74</text>
<text x="10" y="430" class="label">www.steamcommunity.com</text>
<rect x="180" y="414" width="505.37" height="22" fill="#4c78a8" rx="3"/>
<text x="693.37" y="430" class="value">258.28</text>
<text x="10" y="462" class="label">api.steampowered.com</text>
<rect x="180" y="446" width="534.21" height="22" fill="#4c78a8" rx="3"/>
<text x="722.21" y="462" class="value">273.02</text>
<text x="10" y="494" class="label">battle.net</text>
<rect x="180" y="478" width="580.0" height="22" fill="#4c78a8" rx="3"/>
<text x="768.0" y="494" class="value">296.42</text>
<line x1="180" y1="30" x2="180" y2="520" stroke="#ccc"/>
<line x1="180" y1="520" x2="760" y2="520" stroke="#ccc"/>
</svg>