<svg xmlns="http://www.w3.org/2000/svg" width="800" height="540">
<style> .label{font-family:DejaVu Sans,Verdana,Geneva,sans-serif;font-size:12px;fill:#333} .value{font-family:DejaVu Sans,Verdana,Geneva,sans-serif;font-size:12px;fill:#555} </style>
<text x="10" y="20" class="label">延迟柱状图（越低越好，Top 15），单位 ms</text>
<text x="10" y="46" class="label">eaassets-a.akamaihd.net</text>
<rect x="180" y="30" width="277.15" height="22" fill="#4c78a8" rx="3"/>
<text x="465.15" y="46" class="value">113.25</text>
<text x="10" y="78" class="label">ea.com</text>
<rect x="180" y="62" width="294.53" height="22" fill="#4c78a8" rx="3"/>
<text x="482.53" y="78" class="value">120.35</text>
<text x="10" y="110" class="label">ubisoft.com</text>
<rect x="180" y="94" width="314.23" height="22" fill="#4c78a8" rx="3"/>
<text x="502.23" y="110" class="value">128.40</text>
<text x="10" y="142" class="label">rockstargames.com</text>
<rect x="180" y="126" width="451.62" height="22" fill="#4c78a8" rx="3"/>
<text x="639.62" y="142" class="value">184.54</text>
<text x="10" y="174" class="label">store.akamai.steamstatic.com</text>
<rect x="180" y="158" width="466.06" height="22" fill="#4c78a8" rx="3"/>
<text x="654.06" y="174" class="value">190.44</text>
<text x="10" y="206" class="label">cdn.akamai.steamstatic.com</text>
<rect x="180" y="190" width="482.67" height="22" fill="#4c78a8" rx="3"/>
<text x="670.6700000000001" y="206" class="value">197.23</text>
<text x="10" y="238" class="label">www.steamcommunity.com</text>
<rect x="180" y="222" width="483.19" height="22" fill="#4c78a8" rx="3"/>
<text x="671.19" y="238" class="value">197.44</text>
<text x="10" y="270" class="label">steamcdn-a.akamaihd.net</text>
<rect x="180" y="254" width="488.99" height="22" fill="#4c78a8" rx="3"/>
<text x="676.99" y="270" class="value">199.81</text>
<text x="10" y="302" class="label">origin.com</text>
<rect x="180" y="286" width="501.35" height="22" fill="#4c78a8" rx="3"/>
<text x="689.35" y="302" class="value">204.86</text>
<text x="10" y="334" class="label">steam-chat.com</text>
<rect x="180" y="318" width="511.01" height="22" fill="#4c78a8" rx="3"/>
<text x="699.01" y="334" class="value">208.81</text>
<text x="10" y="366" class="label">community.akamai.steamstatic.com</text>
<rect x="180" y="350" width="519.92" height="22" fill="#4c78a8" rx="3"/>
<text x="707.92" y="366" class="value">212.45</text>
<text x="10" y="398" class="label">api.steampowered.com</text>
<rect x="180" y="382" width="528.29" height="22" fill="#4c78a8" rx="3"/>
<text x="716.29" y="398" class="value">215.87</text>
<text x="10" y="430" class="label">ubi.com</text>
<rect x="180" y="414" width="560.57" height="22" fill="#4c78a8" rx="3"/>
<text x="748.57" y="430" class="value">229.06</text>
<text x="10" y="462" class="label">easyanticheat.net</text>
<rect x="180" y="446" width="562.8" height="22" fill="#4c78a8" rx="3"/>
<text x="750.8" y="462" class="value">229.97</text>
<text x="10" y="494" class="label">fortnite.com</text>
<rect x="180" y="478" width="580.0" height="22" fill="#4c78a8" rx="3"/>
<text x="768.0" y="494" class="value">237.00</text>
<line x1="180" y1="30" x2="180" y2="520" stroke="#ccc"/>
<line x1="180" y1="520" x2="760" y2="520" stroke="#ccc"/>
</svg>