<svg xmlns="http://www.w3.org/2000/svg" width="800" height="540">
<style> .label{font-family:DejaVu Sans,Verdana,Geneva,sans-serif;font-size:12px;fill:#333} .value{font-family:DejaVu Sans,Verdana,Geneva,sans-serif;font-size:12px;fill:#555} </style>
<text x="10" y="20" class="label">延迟柱状图（越低越好，Top 15），单位 ms</text>
<text x="10" y="46" class="label">rockstargames.com</text>
<rect x="180" y="30" width="318.98" height="22" fill="#4c78a8" rx="3"/>
<text x="506.98" y="46" class="value">106.83</text>
<text x="10" y="78" class="label">cdn.akamai.steamstatic.com</text>
<rect x="180" y="62" width="401.27" height="22" fill="#4c78a8" rx="3"/>
<text x="589.27" y="78" class="value">134.39</text>
<text x="10" y="110" class="label">easyanticheat.net</text>
<rect x="180" y="94" width="425.99" height="22" fill="#4c78a8" rx="3"/>
<text x="613.99" y="110" class="value">142.67</text>
<text x="10" y="142" class="label">battle.net</text>
<rect x="180" y="126" width="434.59" height="22" fill="#4c78a8" rx="3"/>
<text x="622.5899999999999" y="142" class="value">145.55</text>
<text x="10" y="174" class="label">ubi.com</text>
<rect x="180" y="158" width="434.83" height="22" fill="#4c78a8" rx="3"/>
<text x="622.8299999999999" y="174" class="value">145.63</text>
<text x="10" y="206" class="label">eaassets-a.akamaihd.net</text>
<rect x="180" y="190" width="444.44" height="22" fill="#4c78a8" rx="3"/>
<text x="632.44" y="206" class="value">148.85</text>
<text x="10" y="238" class="label">ubisoft.com</text>
<rect x="180" y="222" width="445.4" height="22" fill="#4c78a8" rx="3"/>
<text x="633.4" y="238" class="value">149.17</text>
<text x="10" y="270" class="label">origin.com</text>
<rect x="180" y="254" width="450.12" height="22" fill="#4c78a8" rx="3"/>
<text x="638.12" y="270" class="value">150.75</text>
<text x="10" y="302" class="label">blizzard.com</text>
<rect x="180" y="286" width="478.6" height="22" fill="#4c78a8" rx="3"/>
<text x="666.6" y="302" class="value">160.29</text>
<text x="10" y="334" class="label">community.akamai.steamstatic.com</text>
<rect x="180" y="318" width="521.18" height="22" fill="#4c78a8" rx="3"/>
<text x="709.18" y="334" class="value">174.55</text>
<text x="10" y="366" class="label">cdn.cloudflare.steamstatic.com</text>
<rect x="180" y="350" width="534.05" height="22" fill="#4c78a8" rx="3"/>
<text x="722.05" y="366" class="value">178.86</text>
<text x="10" y="398" class="label">ea.com</text>
<rect x="180" y="382" width="539.78" height="22" fill="#4c78a8" rx="3"/>
<text x="727.78" y="398" class="value">180.78</text>
<text x="10" y="430" class="label">unrealengine.com</text>
<rect x="180" y="414" width="554.71" height="22" fill="#4c78a8" rx="3"/>
<text x="742.71" y="430" class="value">185.78</text>
<text x="10" y="462" class="label">epicgames.com</text>
<rect x="180" y="446" width="555.31" height="22" fill="#4c78a8" rx="3"/>
<text x="743.31" y="462" class="value">185.98</text>
<text x="10" y="494" class="label">steamcdn-a.akamaihd.net</text>
<rect x="180" y="478" width="580.0" height="22" fill="#4c78a8" rx="3"/>
<text x="768.0" y="494" class="value">194.25</text>
<line x1="180" y1="30" x2="180" y2="520" stroke="#ccc"/>
<line x1="180" y1="520" x2="760" y2="520" stroke="#ccc"/>
</svg>