<svg xmlns="http://www.w3.org/2000/svg" width="800" height="540">
<style> .label{font-family:DejaVu Sans,Verdana,Geneva,sans-serif;font-size:12px;fill:#333} .value{font-family:DejaVu Sans,Verdana,Geneva,sans-serif;font-size:12px;fill:#555} </style>
<text x="10" y="20" class="label">延迟柱状图（越低越好，Top 15），单位 ms</text>
<text x="10" y="46" class="label">eaassets-a.akamaihd.net</text>
<rect x="180" y="30" width="209.59" height="22" fill="#4c78a8" rx="3"/>
<text x="397.59000000000003" y="46" class="value">75.98</text>
<text x="10" y="78" class="label">rockstargames.com</text>
<rect x="180" y="62" width="210.31" height="22" fill="#4c78a8" rx="3"/>
<text x="398.31" y="78" class="value">76.24</text>
<text x="10" y="110" class="label">store.akamai.steamstatic.com</text>
<rect x="180" y="94" width="234.36" height="22" fill="#4c78a8" rx="3"/>
<text x="422.36" y="110" class="value">84.96</text>
<text x="10" y="142" class="label">origin.com</text>
<rect x="180" y="126" width="326.44" height="22" fill="#4c78a8" rx="3"/>
<text x="514.44" y="142" class="value">118.34</text>
<text x="10" y="174" class="label">ea.com</text>
<rect x="180" y="158" width="338.8" height="22" fill="#4c78a8" rx="3"/>
<text x="526.8" y="174" class="value">122.82</text>
<text x="10" y="206" class="label">ubi.com</text>
<rect x="180" y="190" width="354.66" height="22" fill="#4c78a8" rx="3"/>
<text x="542.6600000000001" y="206" class="value">128.57</text>
<text x="10" y="238" class="label">battle.net</text>
<rect x="180" y="222" width="372.62" height="22" fill="#4c78a8" rx="3"/>
<text x="560.62" y="238" class="value">135.08</text>
<text x="10" y="270" class="label">ubisoft.com</text>
<rect x="180" y="254" width="379.4" height="22" fill="#4c78a8" rx="3"/>
<text x="567.4" y="270" class="value">137.54</text>
<text x="10" y="302" class="label">socialclub.rockstargames.com</text>
<rect x="180" y="286" width="384.31" height="22" fill="#4c78a8" rx="3"/>
<text x="572.31" y="302" class="value">139.32</text>
<text x="10" y="334" class="label">blizzard.com</text>
<rect x="180" y="318" width="412.97" height="22" fill="#4c78a8" rx="3"/>
<text x="600.97" y="334" class="value">149.71</text>
<text x="10" y="366" class="label">cdn.akamai.steamstatic.com</text>
<rect x="180" y="350" width="448.36" height="22" fill="#4c78a8" rx="3"/>
<text x="636.36" y="366" class="value">162.54</text>
<text x="10" y="398" class="label">community.akamai.steamstatic.com</text>
<rect x="180" y="382" width="488.97" height="22" fill="#4c78a8" rx="3"/>
<text x="676.97" y="398" class="value">177.26</text>
<text x="10" y="430" class="label">api.steampowered.com</text>
<rect x="180" y="414" width="557.35" height="22" fill="#4c78a8" rx="3"/>
<text x="745.35" y="430" class="value">202.05</text>
<text x="10" y="462" class="label">steamcdn-a.akamaihd.net</text>
<rect x="180" y="446" width="569.02" height="22" fill="#4c78a8" rx="3"/>
<text x="757.02" y="462" class="value">206.28</text>
<text x="10" y="494" class="label">steam-chat.com</text>
<rect x="180" y="478" width="580.0" height="22" fill="#4c78a8" rx="3"/>
<text x="768.0" y="494" class="value">210.26</text>
<line x1="180" y1="30" x2="180" y2="520" stroke="#ccc"/>
<line x1="180" y1="520" x2="760" y2="520" stroke="#ccc"/>
</svg>