<svg xmlns="http://www.w3.org/2000/svg" width="800" height="540">
<style> .label{font-family:DejaVu Sans,Verdana,Geneva,sans-serif;font-size:12px;fill:#333} .value{font-family:DejaVu Sans,Verdana,Geneva,sans-serif;font-size:12px;fill:#555} </style>
<text x="10" y="20" class="label">延迟柱状图（越低越好，Top 15），单位 ms</text>
<text x="10" y="46" class="label">eaassets-a.akamaihd.net</text>
<rect x="180" y="30" width="206.85" height="22" fill="#4c78a8" rx="3"/>
<text x="394.85" y="46" class="value">110.01</text>
<text x="10" y="78" class="label">ubisoft.com</text>
<rect x="180" y="62" width="211.73" height="22" fill="#4c78a8" rx="3"/>
<text x="399.73" y="78" class="value">112.61</text>
<text x="10" y="110" class="label">rockstargames.com</text>
<rect x="180" y="94" width="248.59" height="22" fill="#4c78a8" rx="3"/>
<text x="436.59000000000003" y="110" class="value">132.21</text>
<text x="10" y="142" class="label">ea.com</text>
<rect x="180" y="126" width="254.02" height="22" fill="#4c78a8" rx="3"/>
<text x="442.02" y="142" class="value">135.10</text>
<text x="10" y="174" class="label">steamcdn-a.akamaihd.net</text>
<rect x="180" y="158" width="285.76" height="22" fill="#4c78a8" rx="3"/>
<text x="473.76" y="174" class="value">151.98</text>
<text x="10" y="206" class="label">community.akamai.steamstatic.com</text>
<rect x="180" y="190" width="331.77" height="22" fill="#4c78a8" rx="3"/>
<text x="519.77" y="206" class="value">176.45</text>
<text x="10" y="238" class="label">easyanticheat.net</text>
<rect x="180" y="222" width="340.4" height="22" fill="#4c78a8" rx="3"/>
<text x="528.4" y="238" class="value">181.04</text>
<text x="10" y="270" class="label">store.akamai.steamstatic.com</text>
<rect x="180" y="254" width="364.49" height="22" fill="#4c78a8" rx="3"/>
<text x="552.49" y="270" class="value">193.85</text>
<text x="10" y="302" class="label">origin.com</text>
<rect x="180" y="286" width="378.17" height="22" fill="#4c78a8" rx="3"/>
<text x="566.1700000000001" y="302" class="value">201.13</text>
<text x="10" y="334" class="label">cdn.akamai.steamstatic.com</text>
<rect x="180" y="318" width="428.56" height="22" fill="#4c78a8" rx="3"/>
<text x="616.56" y="334" class="value">227.93</text>
<text x="10" y="366" class="label">ubi.com</text>
<rect x="180" y="350" width="530.83" height="22" fill="#4c78a8" rx="3"/>
<text x="718.83" y="366" class="value">282.32</text>
<text x="10" y="398" class="label">cdn.cloudflare.steamstatic.com</text>
<rect x="180" y="382" width="551.14" height="22" fill="#4c78a8" rx="3"/>
<text x="739.14" y="398" class="value">293.12</text>
<text x="10" y="430" class="label">www.steamcommunity.com</text>
<rect x="180" y="414" width="568.55" height="22" fill="#4c78a8" rx="3"/>
<text x="756.55" y="430" class="value">302.38</text>
<text x="10" y="462" class="label">socialclub.rockstargames.com</text>
<rect x="180" y="446" width="574.1" height="22" fill="#4c78a8" rx="3"/>
<text x="762.1" y="462" class="value">305.33</text>
<text x="10" y="494" class="label">steam-chat.com</text>
<rect x="180" y="478" width="580.0" height="22" fill="#4c78a8" rx="3"/>
<text x="768.0" y="494" class="value">308.47</text>
<line x1="180" y1="30" x2="180" y2="520" stroke="#ccc"/>
<line x1="180" y1="520" x2="760" y2="520" stroke="#ccc"/>
</svg>