<svg xmlns="http://www.w3.org/2000/svg" width="800" height="540">
<style> .label{font-family:DejaVu Sans,Verdana,Geneva,sans-serif;font-size:12px;fill:#333} .value{font-family:DejaVu Sans,Verdana,Geneva,sans-serif;font-size:12px;fill:#555} </style>
<text x="10" y="20" class="label">延迟柱状图（越低越好，Top 15），单位 ms</text>
<text x="10" y="46" class="label">ea.com</text>
<rect x="180" y="30" width="144.26" height="22" fill="#4c78a8" rx="3"/>
<text x="332.26" y="46" class="value">56.70</text>
<text x="10" y="78" class="label">community.akamai.steamstatic.com</text>
<rect x="180" y="62" width="223.9" height="22" fill="#4c78a8" rx="3"/>
<text x="411.9" y="78" class="value">88.00</text>
<text x="10" y="110" class="label">origin.com</text>
<rect x="180" y="94" width="241.71" height="22" fill="#4c78a8" rx="3"/>
<text x="429.71000000000004" y="110" class="value">95.00</text>
<text x="10" y="142" class="label">steamcdn-a.akamaihd.net</text>
<rect x="180" y="126" width="284.33" height="22" fill="#4c78a8" rx="3"/>
<text x="472.33" y="142" class="value">111.75</text>
<text x="10" y="174" class="label">rockstargames.com</text>
<rect x="180" y="158" width="310.13" height="22" fill="#4c78a8" rx="3"/>
<text x="498.13" y="174" class="value">121.89</text>
<text x="10" y="206" class="label">eaassets-a.akamaihd.net</text>
<rect x="180" y="190" width="330.68" height="22" fill="#4c78a8" rx="3"/>
<text x="518.6800000000001" y="206" class="value">129.97</text>
<text x="10" y="238" class="label">blizzard.com</text>
<rect x="180" y="222" width="350.45" height="22" fill="#4c78a8" rx="3"/>
<text x="538.45" y="238" class="value">137.74</text>
<text x="10" y="270" class="label">ubisoft.com</text>
<rect x="180" y="254" width="357.2" height="22" fill="#4c78a8" rx="3"/>
<text x="545.2" y="270" class="value">140.39</text>
<text x="10" y="302" class="label">cdn.akamai.steamstatic.com</text>
<rect x="180" y="286" width="369.51" height="22" fill="#4c78a8" rx="3"/>
<text x="557.51" y="302" class="value">145.23</text>
<text x="10" y="334" class="label">socialclub.rockstargames.com</text>
<rect x="180" y="318" width="415.49" height="22" fill="#4c78a8" rx="3"/>
<text x="603.49" y="334" class="value">163.30</text>
<text x="10" y="366" class="label">battle.net</text>
<rect x="180" y="350" width="419.76" height="22" fill="#4c78a8" rx="3"/>
<text x="607.76" y="366" class="value">164.98</text>
<text x="10" y="398" class="label">ubi.com</text>
<rect x="180" y="382" width="434.06" height="22" fill="#4c78a8" rx="3"/>
<text x="622.06" y="398" class="value">170.60</text>
<text x="10" y="430" class="label">store.akamai.steamstatic.com</text>
<rect x="180" y="414" width="529.09" height="22" fill="#4c78a8" rx="3"/>
<text x="717.09" y="430" class="value">207.95</text>
<text x="10" y="462" class="label">cdn.cloudflare.steamstatic.com</text>
<rect x="180" y="446" width="573.31" height="22" fill="#4c78a8" rx="3"/>
<text x="761.31" y="462" class="value">225.33</text>
<text x="10" y="494" class="label">steamcommunity.com</text>
<rect x="180" y="478" width="580.0" height="22" fill="#4c78a8" rx="3"/>
<text x="768.0" y="494" class="value">227.96</text>
<line x1="180" y1="30" x2="180" y2="520" stroke="#ccc"/>
<line x1="180" y1="520" x2="760" y2="520" stroke="#ccc"/>
</svg>