<svg xmlns="http://www.w3.org/2000/svg" width="800" height="540">
<style> .label{font-family:DejaVu Sans,Verdana,Geneva,sans-serif;font-size:12px;fill:#333} .value{font-family:DejaVu Sans,Verdana,Geneva,sans-serif;font-size:12px;fill:#555} </style>
<text x="10" y="20" class="label">延迟柱状图（越低越好，Top 15），单位 ms</text>
<text x="10" y="46" class="label">rockstargames.com</text>
<rect x="180" y="30" width="181.08" height="22" fill="#4c78a8" rx="3"/>
<text x="369.08000000000004" y="46" class="value">67.39</text>
<text x="10" y="78" class="label">eaassets-a.akamaihd.net</text>
<rect x="180" y="62" width="226.98" height="22" fill="#4c78a8" rx="3"/>
<text x="414.98" y="78" class="value">84.47</text>
<text x="10" y="110" class="label">battle.net</text>
<rect x="180" y="94" width="237.8" height="22" fill="#4c78a8" rx="3"/>
<text x="425.8" y="110" class="value">88.50</text>
<text x="10" y="142" class="label">socialclub.rockstargames.com</text>
<rect x="180" y="126" width="245.03" height="22" fill="#4c78a8" rx="3"/>
<text x="433.03" y="142" class="value">91.19</text>
<text x="10" y="174" class="label">ubi.com</text>
<rect x="180" y="158" width="249.2" height="22" fill="#4c78a8" rx="3"/>
<text x="437.2" y="174" class="value">92.74</text>
<text x="10" y="206" class="label">blizzard.com</text>
<rect x="180" y="190" width="262.61" height="22" fill="#4c78a8" rx="3"/>
<text x="450.61" y="206" class="value">97.73</text>
<text x="10" y="238" class="label">cdn.akamai.steamstatic.com</text>
<rect x="180" y="222" width="314.71" height="22" fill="#4c78a8" rx="3"/>
<text x="502.71" y="238" class="value">117.12</text>
<text x="10" y="270" class="label">unrealengine.com</text>
<rect x="180" y="254" width="323.52" height="22" fill="#4c78a8" rx="3"/>
<text x="511.52" y="270" class="value">120.40</text>
<text x="10" y="302" class="label">origin.com</text>
<rect x="180" y="286" width="354.42" height="22" fill="#4c78a8" rx="3"/>
<text x="542.4200000000001" y="302" class="value">131.90</text>
<text x="10" y="334" class="label">easyanticheat.net</text>
<rect x="180" y="318" width="365.65" height="22" fill="#4c78a8" rx="3"/>
<text x="553.65" y="334" class="value">136.08</text>
<text x="10" y="366" class="label">ea.com</text>
<rect x="180" y="350" width="381.45" height="22" fill="#4c78a8" rx="3"/>
<text x="569.45" y="366" class="value">141.96</text>
<text x="10" y="398" class="label">fortnite.com</text>
<rect x="180" y="382" width="406.93" height="22" fill="#4c78a8" rx="3"/>
<text x="594.9300000000001" y="398" class="value">151.44</text>
<text x="10" y="430" class="label">gog.com</text>
<rect x="180" y="414" width="483.08" height="22" fill="#4c78a8" rx="3"/>
<text x="671.0799999999999" y="430" class="value">179.78</text>
<text x="10" y="462" class="label">ubisoft.com</text>
<rect x="180" y="446" width="573.58" height="22" fill="#4c78a8" rx="3"/>
<text x="761.58" y="462" class="value">213.46</text>
<text x="10" y="494" class="label">cdn.cloudflare.steamstatic.com</text>
<rect x="180" y="478" width="580.0" height="22" fill="#4c78a8" rx="3"/>
<text x="768.0" y="494" class="value">215.85</text>
<line x1="180" y1="30" x2="180" y2="520" stroke="#ccc"/>
<line x1="180" y1="520" x2="760" y2="520" stroke="#ccc"/>
</svg>