<svg xmlns="http://www.w3.org/2000/svg" width="800" height="540">
<style> .label{font-family:DejaVu Sans,Verdana,Geneva,sans-serif;font-size:12px;fill:#333} .value{font-family:DejaVu Sans,Verdana,Geneva,sans-serif;font-size:12px;fill:#555} </style>
<text x="10" y="20" class="label">延迟柱状图（越低越好，Top 15），单位 ms</text>
<text x="10" y="46" class="label">rockstargames.com</text>
<rect x="180" y="30" width="151.58" height="22" fill="#4c78a8" rx="3"/>
<text x="339.58000000000004" y="46" class="value">59.87</text>
<text x="10" y="78" class="label">blizzard.com</text>
<rect x="180" y="62" width="261.78" height="22" fill="#4c78a8" rx="3"/>
<text x="449.78" y="78" class="value">103.40</text>
<text x="10" y="110" class="label">socialclub.rockstargames.com</text>
<rect x="180" y="94" width="264.37" height="22" fill="#4c78a8" rx="3"/>
<text x="452.37" y="110" class="value">104.42</text>
<text x="10" y="142" class="label">eaassets-a.akamaihd.net</text>
<rect x="180" y="126" width="268.9" height="22" fill="#4c78a8" rx="3"/>
<text x="456.9" y="142" class="value">106.21</text>
<text x="10" y="174" class="label">ea.com</text>
<rect x="180" y="158" width="277.46" height="22" fill="#4c78a8" rx="3"/>
<text x="465.46" y="174" class="value">109.59</text>
<text x="10" y="206" class="label">battle.net</text>
<rect x="180" y="190" width="336.5" height="22" fill="#4c78a8" rx="3"/>
<text x="524.5" y="206" class="value">132.91</text>
<text x="10" y="238" class="label">ubi.com</text>
<rect x="180" y="222" width="341.96" height="22" fill="#4c78a8" rx="3"/>
<text x="529.96" y="238" class="value">135.07</text>
<text x="10" y="270" class="label">steamcdn-a.akamaihd.net</text>
<rect x="180" y="254" width="344.29" height="22" fill="#4c78a8" rx="3"/>
<text x="532.29" y="270" class="value">135.99</text>
<text x="10" y="302" class="label">fortnite.com</text>
<rect x="180" y="286" width="347.79" height="22" fill="#4c78a8" rx="3"/>
<text x="535.79" y="302" class="value">137.37</text>
<text x="10" y="334" class="label">ubisoft.com</text>
<rect x="180" y="318" width="367.31" height="22" fill="#4c78a8" rx="3"/>
<text x="555.31" y="334" class="value">145.08</text>
<text x="10" y="366" class="label">epicgames.com</text>
<rect x="180" y="350" width="380.14" height="22" fill="#4c78a8" rx="3"/>
<text x="568.14" y="366" class="value">150.15</text>
<text x="10" y="398" class="label">unrealengine.com</text>
<rect x="180" y="382" width="460.15" height="22" fill="#4c78a8" rx="3"/>
<text x="648.15" y="398" class="value">181.75</text>
<text x="10" y="430" class="label">origin.com</text>
<rect x="180" y="414" width="512.81" height="22" fill="#4c78a8" rx="3"/>
<text x="700.81" y="430" class="value">202.55</text>
<text x="10" y="462" class="label">cdn.cloudflare.steamstatic.com</text>
<rect x="180" y="446" width="539.04" height="22" fill="#4c78a8" rx="3"/>
<text x="727.04" y="462" class="value">212.91</text>
<text x="10" y="494" class="label">store.akamai.steamstatic.com</text>
<rect x="180" y="478" width="580.0" height="22" fill="#4c78a8" rx="3"/>
<text x="768.0" y="494" class="value">229.09</text>
<line x1="180" y1="30" x2="180" y2="520" stroke="#ccc"/>
<line x1="180" y1="520" x2="760" y2="520" stroke="#ccc"/>
</svg>