<svg xmlns="http://www.w3.org/2000/svg" width="800" height="540">
<style> .label{font-family:DejaVu Sans,Verdana,Geneva,sans-serif;font-size:12px;fill:#333} .value{font-family:DejaVu Sans,Verdana,Geneva,sans-serif;font-size:12px;fill:#555} </style>
<text x="10" y="20" class="label">延迟柱状图（越低越好，Top 15），单位 ms</text>
<text x="10" y="46" class="label">rockstargames.com</text>
<rect x="180" y="30" width="184.54" height="22" fill="#4c78a8" rx="3"/>
<text x="372.53999999999996" y="46" class="value">68.96</text>
<text x="10" y="78" class="label">eaassets-a.akamaihd.net</text>
<rect x="180" y="62" width="185.31" height="22" fill="#4c78a8" rx="3"/>
<text x="373.31" y="78" class="value">69.25</text>
<text x="10" y="110" class="label">origin.com</text>
<rect x="180" y="94" width="225.62" height="22" fill="#4c78a8" rx="3"/>
<text x="413.62" y="110" class="value">84.31</text>
<text x="10" y="142" class="label">blizzard.com</text>
<rect x="180" y="126" width="328.75" height="22" fill="#4c78a8" rx="3"/>
<text x="516.75" y="142" class="value">122.85</text>
<text x="10" y="174" class="label">ubi.com</text>
<rect x="180" y="158" width="345.63" height="22" fill="#4c78a8" rx="3"/>
<text x="533.63" y="174" class="value">129.16</text>
<text x="10" y="206" class="label">steamcdn-a.akamaihd.net</text>
<rect x="180" y="190" width="345.69" height="22" fill="#4c78a8" rx="3"/>
<text x="533.69" y="206" class="value">129.18</text>
<text x="10" y="238" class="label">battle.net</text>
<rect x="180" y="222" width="363.51" height="22" fill="#4c78a8" rx="3"/>
<text x="551.51" y="238" class="value">135.84</text>
<text x="10" y="270" class="label">socialclub.rockstargames.com</text>
<rect x="180" y="254" width="367.77" height="22" fill="#4c78a8" rx="3"/>
<text x="555.77" y="270" class="value">137.43</text>
<text x="10" y="302" class="label">ubisoft.com</text>
<rect x="180" y="286" width="385.4" height="22" fill="#4c78a8" rx="3"/>
<text x="573.4" y="302" class="value">144.02</text>
<text x="10" y="334" class="label">static3.cdn.ubi.com</text>
<rect x="180" y="318" width="429.07" height="22" fill="#4c78a8" rx="3"/>
<text x="617.0699999999999" y="334" class="value">160.34</text>
<text x="10" y="366" class="label">store.akamai.steamstatic.com</text>
<rect x="180" y="350" width="441.36" height="22" fill="#4c78a8" rx="3"/>
<text x="629.36" y="366" class="value">164.93</text>
<text x="10" y="398" class="label">ea.com</text>
<rect x="180" y="382" width="485.22" height="22" fill="#4c78a8" rx="3"/>
<text x="673.22" y="398" class="value">181.32</text>
<text x="10" y="430" class="label">cdn.akamai.steamstatic.com</text>
<rect x="180" y="414" width="532.77" height="22" fill="#4c78a8" rx="3"/>
<text x="720.77" y="430" class="value">199.09</text>
<text x="10" y="462" class="label">unrealengine.com</text>
<rect x="180" y="446" width="575.42" height="22" fill="#4c78a8" rx="3"/>
<text x="763.42" y="462" class="value">215.03</text>
<text x="10" y="494" class="label">community.akamai.steamstatic.com</text>
<rect x="180" y="478" width="580.0" height="22" fill="#4c78a8" rx="3"/>
<text x="768.0" y="494" class="value">216.74</text>
<line x1="180" y1="30" x2="180" y2="520" stroke="#ccc"/>
<line x1="180" y1="520" x2="760" y2="520" stroke="#ccc"/>
</svg>