<svg xmlns="http://www.w3.org/2000/svg" width="800" height="540">
<style> .label{font-family:DejaVu Sans,Verdana,Geneva,sans-serif;font-size:12px;fill:#333} .value{font-family:DejaVu Sans,Verdana,Geneva,sans-serif;font-size:12px;fill:#555} </style>
<text x="10" y="20" class="label">延迟柱状图（越低越好，Top 15），单位 ms</text>
<text x="10" y="46" class="label">rockstargames.com</text>
<rect x="180" y="30" width="199.08" height="22" fill="#4c78a8" rx="3"/>
<text x="387.08000000000004" y="46" class="value">77.63</text>
<text x="10" y="78" class="label">steamcdn-a.akamaihd.net</text>
<rect x="180" y="62" width="280.78" height="22" fill="#4c78a8" rx="3"/>
<text x="468.78" y="78" class="value">109.49</text>
<text x="10" y="110" class="label">ea.com</text>
<rect x="180" y="94" width="294.68" height="22" fill="#4c78a8" rx="3"/>
<text x="482.68" y="110" class="value">114.91</text>
<text x="10" y="142" class="label">eaassets-a.akamaihd.net</text>
<rect x="180" y="126" width="352.35" height="22" fill="#4c78a8" rx="3"/>
<text x="540.35" y="142" class="value">137.40</text>
<text x="10" y="174" class="label">community.akamai.steamstatic.com</text>
<rect x="180" y="158" width="389.26" height="22" fill="#4c78a8" rx="3"/>
<text x="577.26" y="174" class="value">151.79</text>
<text x="10" y="206" class="label">store.akamai.steamstatic.com</text>
<rect x="180" y="190" width="418.03" height="22" fill="#4c78a8" rx="3"/>
<text x="606.03" y="206" class="value">163.01</text>
<text x="10" y="238" class="label">easyanticheat.net</text>
<rect x="180" y="222" width="436.65" height="22" fill="#4c78a8" rx="3"/>
<text x="624.65" y="238" class="value">170.27</text>
<text x="10" y="270" class="label">socialclub.rockstargames.com</text>
<rect x="180" y="254" width="446.55" height="22" fill="#4c78a8" rx="3"/>
<text x="634.55" y="270" class="value">174.13</text>
<text x="10" y="302" class="label">cdn.cloudflare.steamstatic.com</text>
<rect x="180" y="286" width="502.53" height="22" fill="#4c78a8" rx="3"/>
<text x="690.53" y="302" class="value">195.96</text>
<text x="10" y="334" class="label">ubi.com</text>
<rect x="180" y="318" width="511.68" height="22" fill="#4c78a8" rx="3"/>
<text x="699.6800000000001" y="334" class="value">199.53</text>
<text x="10" y="366" class="label">ubisoft.com</text>
<rect x="180" y="350" width="518.63" height="22" fill="#4c78a8" rx="3"/>
<text x="706.63" y="366" class="value">202.24</text>
<text x="10" y="398" class="label">origin.com</text>
<rect x="180" y="382" width="560.46" height="22" fill="#4c78a8" rx="3"/>
<text x="748.46" y="398" class="value">218.55</text>
<text x="10" y="430" class="label">fortnite.com</text>
<rect x="180" y="414" width="576.61" height="22" fill="#4c78a8" rx="3"/>
<text x="764.61" y="430" class="value">224.85</text>
<text x="10" y="462" class="label">blizzard.com</text>
<rect x="180" y="446" width="578.62" height="22" fill="#4c78a8" rx="3"/>
<text x="766.62" y="462" class="value">225.63</text>
<text x="10" y="494" class="label">battle.net</text>
<rect x="180" y="478" width="580.0" height="22" fill="#4c78a8" rx="3"/>
<text x="768.0" y="494" class="value">226.17</text>
<line x1="180" y1="30" x2="180" y2="520" stroke="#ccc"/>
<line x1="180" y1="520" x2="760" y2="520" stroke="#ccc"/>
</svg>