<svg xmlns="http://www.w3.org/2000/svg" width="800" height="540">
<style> .label{font-family:DejaVu Sans,Verdana,Geneva,sans-serif;font-size:12px;fill:#333} .value{font-family:DejaVu Sans,Verdana,Geneva,sans-serif;font-size:12px;fill:#555} </style>
<text x="10" y="20" class="label">延迟柱状图（越低越好，Top 15），单位 ms</text>
<text x="10" y="46" class="label">community.akamai.steamstatic.com</text>
<rect x="180" y="30" width="266.38" height="22" fill="#4c78a8" rx="3"/>
<text x="454.38" y="46" class="value">110.64</text>
<text x="10" y="78" class="label">steamcdn-a.akamaihd.net</text>
<rect x="180" y="62" width="291.25" height="22" fill="#4c78a8" rx="3"/>
<text x="479.25" y="78" class="value">120.97</text>
<text x="10" y="110" class="label">eaassets-a.akamaihd.net</text>
<rect x="180" y="94" width="326.52" height="22" fill="#4c78a8" rx="3"/>
<text x="514.52" y="110" class="value">135.62</text>
<text x="10" y="142" class="label">easyanticheat.net</text>
<rect x="180" y="126" width="367.19" height="22" fill="#4c78a8" rx="3"/>
<text x="555.19" y="142" class="value">152.51</text>
<text x="10" y="174" class="label">cdn.akamai.steamstatic.com</text>
<rect x="180" y="158" width="439.39" height="22" fill="#4c78a8" rx="3"/>
<text x="627.39" y="174" class="value">182.50</text>
<text x="10" y="206" class="label">rockstargames.com</text>
<rect x="180" y="190" width="443.03" height="22" fill="#4c78a8" rx="3"/>
<text x="631.03" y="206" class="value">184.01</text>
<text x="10" y="238" class="label">steam-chat.com</text>
<rect x="180" y="222" width="470.72" height="22" fill="#4c78a8" rx="3"/>
<text x="658.72" y="238" class="value">195.51</text>
<text x="10" y="270" class="label">api.steampowered.com</text>
<rect x="180" y="254" width="481.26" height="22" fill="#4c78a8" rx="3"/>
<text x="669.26" y="270" class="value">199.89</text>
<text x="10" y="302" class="label">launcher-public-service-prod06.ol.epicgames.com</text>
<rect x="180" y="286" width="496.41" height="22" fill="#4c78a8" rx="3"/>
<text x="684.4100000000001" y="302" class="value">206.18</text>
<text x="10" y="334" class="label">ubisoft.com</text>
<rect x="180" y="318" width="503.92" height="22" fill="#4c78a8" rx="3"/>
<text x="691.9200000000001" y="334" class="value">209.30</text>
<text x="10" y="366" class="label">cdn.cloudflare.steamstatic.com</text>
<rect x="180" y="350" width="546.63" height="22" fill="#4c78a8" rx="3"/>
<text x="734.63" y="366" class="value">227.04</text>
<text x="10" y="398" class="label">ubi.com</text>
<rect x="180" y="382" width="548.92" height="22" fill="#4c78a8" rx="3"/>
<text x="736.92" y="398" class="value">227.99</text>
<text x="10" y="430" class="label">battle.net</text>
<rect x="180" y="414" width="552.41" height="22" fill="#4c78a8" rx="3"/>
<text x="740.41" y="430" class="value">229.44</text>
<text x="10" y="462" class="label">blizzard.com</text>
<rect x="180" y="446" width="570.59" height="22" fill="#4c78a8" rx="3"/>
<text x="758.59" y="462" class="value">236.99</text>
<text x="10" y="494" class="label">store.akamai.steamstatic.com</text>
<rect x="180" y="478" width="580.0" height="22" fill="#4c78a8" rx="3"/>
<text x="768.0" y="494" class="value">240.90</text>
<line x1="180" y1="30" x2="180" y2="520" stroke="#ccc"/>
<line x1="180" y1="520" x2="760" y2="520" stroke="#ccc"/>
</svg>