<svg xmlns="http://www.w3.org/2000/svg" width="800" height="540">
<style> .label{font-family:DejaVu Sans,Verdana,Geneva,sans-serif;font-size:12px;fill:#333} .value{font-family:DejaVu Sans,Verdana,Geneva,sans-serif;font-size:12px;fill:#555} </style>
<text x="10" y="20" class="label">延迟柱状图（越低越好，Top 15），单位 ms</text>
<text x="10" y="46" class="label">ea.com</text>
<rect x="180" y="30" width="231.27" height="22" fill="#4c78a8" rx="3"/>
<text x="419.27" y="46" class="value">96.89</text>
<text x="10" y="78" class="label">rockstargames.com</text>
<rect x="180" y="62" width="279.25" height="22" fill="#4c78a8" rx="3"/>
<text x="467.25" y="78" class="value">116.99</text>
<text x="10" y="110" class="label">eaassets-a.akamaihd.net</text>
<rect x="180" y="94" width="391.98" height="22" fill="#4c78a8" rx="3"/>
<text x="579.98" y="110" class="value">164.22</text>
<text x="10" y="142" class="label">ubi.com</text>
<rect x="180" y="126" width="414.25" height="22" fill="#4c78a8" rx="3"/>
<text x="602.25" y="142" class="value">173.55</text>
<text x="10" y="174" class="label">ubisoft.com</text>
<rect x="180" y="158" width="429.46" height="22" fill="#4c78a8" rx="3"/>
<text x="617.46" y="174" class="value">179.92</text>
<text x="10" y="206" class="label">battle.net</text>
<rect x="180" y="190" width="432.87" height="22" fill="#4c78a8" rx="3"/>
<text x="620.87" y="206" class="value">181.35</text>
<text x="10" y="238" class="label">blizzard.com</text>
<rect x="180" y="222" width="443.83" height="22" fill="#4c78a8" rx="3"/>
<text x="631.8299999999999" y="238" class="value">185.94</text>
<text x="10" y="270" class="label">socialclub.rockstargames.com</text>
<rect x="180" y="254" width="453.04" height="22" fill="#4c78a8" rx="3"/>
<text x="641.04" y="270" class="value">189.80</text>
<text x="10" y="302" class="label">steamcdn-a.akamaihd.net</text>
<rect x="180" y="286" width="453.95" height="22" fill="#4c78a8" rx="3"/>
<text x="641.95" y="302" class="value">190.18</text>
<text x="10" y="334" class="label">store.akamai.steamstatic.com</text>
<rect x="180" y="318" width="494.62" height="22" fill="#4c78a8" rx="3"/>
<text x="682.62" y="334" class="value">207.22</text>
<text x="10" y="366" class="label">community.akamai.steamstatic.com</text>
<rect x="180" y="350" width="533.84" height="22" fill="#4c78a8" rx="3"/>
<text x="721.84" y="366" class="value">223.65</text>
<text x="10" y="398" class="label">easyanticheat.net</text>
<rect x="180" y="382" width="536.96" height="22" fill="#4c78a8" rx="3"/>
<text x="724.96" y="398" class="value">224.96</text>
<text x="10" y="430" class="label">gog.com</text>
<rect x="180" y="414" width="554.98" height="22" fill="#4c78a8" rx="3"/>
<text x="742.98" y="430" class="value">232.51</text>
<text x="10" y="462" class="label">cdn.cloudflare.steamstatic.com</text>
<rect x="180" y="446" width="560.4" height="22" fill="#4c78a8" rx="3"/>
<text x="748.4" y="462" class="value">234.78</text>
<text x="10" y="494" class="label">cdn.akamai.steamstatic.com</text>
<rect x="180" y="478" width="580.0" height="22" fill="#4c78a8" rx="3"/>
<text x="768.0" y="494" class="value">242.99</text>
<line x1="180" y1="30" x2="180" y2="520" stroke="#ccc"/>
<line x1="180" y1="520" x2="760" y2="520" stroke="#ccc"/>
</svg>