<svg xmlns="http://www.w3.org/2000/svg" width="800" height="540">
<style> .label{font-family:DejaVu Sans,Verdana,Geneva,sans-serif;font-size:12px;fill:#333} .value{font-family:DejaVu Sans,Verdana,Geneva,sans-serif;font-size:12px;fill:#555} </style>
<text x="10" y="20" class="label">延迟柱状图（越低越好，Top 15），单位 ms</text>
<text x="10" y="46" class="label">rockstargames.com</text>
<rect x="180" y="30" width="91.5" height="22" fill="#4c78a8" rx="3"/>
<text x="279.5" y="46" class="value">41.46</text>
<text x="10" y="78" class="label">ubisoft.com</text>
<rect x="180" y="62" width="168.34" height="22" fill="#4c78a8" rx="3"/>
<text x="356.34000000000003" y="78" class="value">76.28</text>
<text x="10" y="110" class="label">eaassets-a.akamaihd.net</text>
<rect x="180" y="94" width="186.87" height="22" fill="#4c78a8" rx="3"/>
<text x="374.87" y="110" class="value">84.68</text>
<text x="10" y="142" class="label">origin.com</text>
<rect x="180" y="126" width="193.56" height="22" fill="#4c78a8" rx="3"/>
<text x="381.56" y="142" class="value">87.71</text>
<text x="10" y="174" class="label">cdn.cloudflare.steamstatic.com</text>
<rect x="180" y="158" width="195.11" height="22" fill="#4c78a8" rx="3"/>
<text x="383.11" y="174" class="value">88.41</text>
<text x="10" y="206" class="label">store.akamai.steamstatic.com</text>
<rect x="180" y="190" width="206.45" height="22" fill="#4c78a8" rx="3"/>
<text x="394.45" y="206" class="value">93.55</text>
<text x="10" y="238" class="label">ea.com</text>
<rect x="180" y="222" width="246.81" height="22" fill="#4c78a8" rx="3"/>
<text x="434.81" y="238" class="value">111.84</text>
<text x="10" y="270" class="label">cdn.akamai.steamstatic.com</text>
<rect x="180" y="254" width="290.15" height="22" fill="#4c78a8" rx="3"/>
<text x="478.15" y="270" class="value">131.48</text>
<text x="10" y="302" class="label">community.akamai.steamstatic.com</text>
<rect x="180" y="286" width="301.54" height="22" fill="#4c78a8" rx="3"/>
<text x="489.54" y="302" class="value">136.64</text>
<text x="10" y="334" class="label">easyanticheat.net</text>
<rect x="180" y="318" width="322.42" height="22" fill="#4c78a8" rx="3"/>
<text x="510.42" y="334" class="value">146.10</text>
<text x="10" y="366" class="label">steamcdn-a.akamaihd.net</text>
<rect x="180" y="350" width="330.45" height="22" fill="#4c78a8" rx="3"/>
<text x="518.45" y="366" class="value">149.74</text>
<text x="10" y="398" class="label">steam-chat.com</text>
<rect x="180" y="382" width="512.52" height="22" fill="#4c78a8" rx="3"/>
<text x="700.52" y="398" class="value">232.24</text>
<text x="10" y="430" class="label">api.steampowered.com</text>
<rect x="180" y="414" width="513.79" height="22" fill="#4c78a8" rx="3"/>
<text x="701.79" y="430" class="value">232.82</text>
<text x="10" y="462" class="label">www.steamcommunity.com</text>
<rect x="180" y="446" width="576.62" height="22" fill="#4c78a8" rx="3"/>
<text x="764.62" y="462" class="value">261.29</text>
<text x="10" y="494" class="label">steamcommunity.com</text>
<rect x="180" y="478" width="580.0" height="22" fill="#4c78a8" rx="3"/>
<text x="768.0" y="494" class="value">262.82</text>
<line x1="180" y1="30" x2="180" y2="520" stroke="#ccc"/>
<line x1="180" y1="520" x2="760" y2="520" stroke="#ccc"/>
</svg>