<svg xmlns="http://www.w3.org/2000/svg" width="800" height="540">
<style> .label{font-family:DejaVu Sans,Verdana,Geneva,sans-serif;font-size:12px;fill:#333} .value{font-family:DejaVu Sans,Verdana,Geneva,sans-serif;font-size:12px;fill:#555} </style>
<text x="10" y="20" class="label">延迟柱状图（越低越好，Top 15），单位 ms</text>
<text x="10" y="46" class="label">eaassets-a.akamaihd.net</text>
<rect x="180" y="30" width="188.56" height="22" fill="#4c78a8" rx="3"/>
<text x="376.56" y="46" class="value">72.38</text>
<text x="10" y="78" class="label">rockstargames.com</text>
<rect x="180" y="62" width="206.06" height="22" fill="#4c78a8" rx="3"/>
<text x="394.06" y="78" class="value">79.10</text>
<text x="10" y="110" class="label">blizzard.com</text>
<rect x="180" y="94" width="226.59" height="22" fill="#4c78a8" rx="3"/>
<text x="414.59000000000003" y="110" class="value">86.98</text>
<text x="10" y="142" class="label">socialclub.rockstargames.com</text>
<rect x="180" y="126" width="244.23" height="22" fill="#4c78a8" rx="3"/>
<text x="432.23" y="142" class="value">93.75</text>
<text x="10" y="174" class="label">ubi.com</text>
<rect x="180" y="158" width="288.41" height="22" fill="#4c78a8" rx="3"/>
<text x="476.41" y="174" class="value">110.71</text>
<text x="10" y="206" class="label">unrealengine.com</text>
<rect x="180" y="190" width="294.14" height="22" fill="#4c78a8" rx="3"/>
<text x="482.14" y="206" class="value">112.91</text>
<text x="10" y="238" class="label">battle.net</text>
<rect x="180" y="222" width="299.46" height="22" fill="#4c78a8" rx="3"/>
<text x="487.46" y="238" class="value">114.95</text>
<text x="10" y="270" class="label">epicgames.com</text>
<rect x="180" y="254" width="388.06" height="22" fill="#4c78a8" rx="3"/>
<text x="576.06" y="270" class="value">148.96</text>
<text x="10" y="302" class="label">ea.com</text>
<rect x="180" y="286" width="404.78" height="22" fill="#4c78a8" rx="3"/>
<text x="592.78" y="302" class="value">155.38</text>
<text x="10" y="334" class="label">fortnite.com</text>
<rect x="180" y="318" width="412.31" height="22" fill="#4c78a8" rx="3"/>
<text x="600.31" y="334" class="value">158.27</text>
<text x="10" y="366" class="label">store.akamai.steamstatic.com</text>
<rect x="180" y="350" width="419.63" height="22" fill="#4c78a8" rx="3"/>
<text x="607.63" y="366" class="value">161.08</text>
<text x="10" y="398" class="label">static3.cdn.ubi.com</text>
<rect x="180" y="382" width="509.82" height="22" fill="#4c78a8" rx="3"/>
<text x="697.8199999999999" y="398" class="value">195.70</text>
<text x="10" y="430" class="label">origin.com</text>
<rect x="180" y="414" width="509.97" height="22" fill="#4c78a8" rx="3"/>
<text x="697.97" y="430" class="value">195.76</text>
<text x="10" y="462" class="label">cdn.cloudflare.steamstatic.com</text>
<rect x="180" y="446" width="517.4" height="22" fill="#4c78a8" rx="3"/>
<text x="705.4" y="462" class="value">198.61</text>
<text x="10" y="494" class="label">community.akamai.steamstatic.com</text>
<rect x="180" y="478" width="580.0" height="22" fill="#4c78a8" rx="3"/>
<text x="768.0" y="494" class="value">222.64</text>
<line x1="180" y1="30" x2="180" y2="520" stroke="#ccc"/>
<line x1="180" y1="520" x2="760" y2="520" stroke="#ccc"/>
</svg>