<svg xmlns="http://www.w3.org/2000/svg" width="800" height="540">
<style> .label{font-family:DejaVu Sans,Verdana,Geneva,sans-serif;font-size:12px;fill:#333} .value{font-family:DejaVu Sans,Verdana,Geneva,sans-serif;font-size:12px;fill:#555} </style>
<text x="10" y="20" class="label">延迟柱状图（越低越好，Top 15），单位 ms</text>
<text x="10" y="46" class="label">rockstargames.com</text>
<rect x="180" y="30" width="77.89" height="22" fill="#4c78a8" rx="3"/>
<text x="265.89" y="46" class="value">39.46</text>
<text x="10" y="78" class="label">community.akamai.steamstatic.com</text>
<rect x="180" y="62" width="202.24" height="22" fill="#4c78a8" rx="3"/>
<text x="390.24" y="78" class="value">102.46</text>
<text x="10" y="110" class="label">eaassets-a.akamaihd.net</text>
<rect x="180" y="94" width="240.69" height="22" fill="#4c78a8" rx="3"/>
<text x="428.69" y="110" class="value">121.94</text>
<text x="10" y="142" class="label">steamcdn-a.akamaihd.net</text>
<rect x="180" y="126" width="276.04" height="22" fill="#4c78a8" rx="3"/>
<text x="464.04" y="142" class="value">139.85</text>
<text x="10" y="174" class="label">ea.com</text>
<rect x="180" y="158" width="276.32" height="22" fill="#4c78a8" rx="3"/>
<text x="464.32" y="174" class="value">139.99</text>
<text x="10" y="206" class="label">cdn.cloudflare.steamstatic.com</text>
<rect x="180" y="190" width="320.04" height="22" fill="#4c78a8" rx="3"/>
<text x="508.04" y="206" class="value">162.14</text>
<text x="10" y="238" class="label">easyanticheat.net</text>
<rect x="180" y="222" width="342.8" height="22" fill="#4c78a8" rx="3"/>
<text x="530.8" y="238" class="value">173.67</text>
<text x="10" y="270" class="label">origin.com</text>
<rect x="180" y="254" width="363.25" height="22" fill="#4c78a8" rx="3"/>
<text x="551.25" y="270" class="value">184.03</text>
<text x="10" y="302" class="label">cdn.akamai.steamstatic.com</text>
<rect x="180" y="286" width="368.3" height="22" fill="#4c78a8" rx="3"/>
<text x="556.3" y="302" class="value">186.59</text>
<text x="10" y="334" class="label">store.akamai.steamstatic.com</text>
<rect x="180" y="318" width="399.79" height="22" fill="#4c78a8" rx="3"/>
<text x="587.79" y="334" class="value">202.54</text>
<text x="10" y="366" class="label">ubisoft.com</text>
<rect x="180" y="350" width="506.83" height="22" fill="#4c78a8" rx="3"/>
<text x="694.8299999999999" y="366" class="value">256.77</text>
<text x="10" y="398" class="label">www.steamcommunity.com</text>
<rect x="180" y="382" width="507.28" height="22" fill="#4c78a8" rx="3"/>
<text x="695.28" y="398" class="value">257.00</text>
<text x="10" y="430" class="label">steam-chat.com</text>
<rect x="180" y="414" width="553.41" height="22" fill="#4c78a8" rx="3"/>
<text x="741.41" y="430" class="value">280.37</text>
<text x="10" y="462" class="label">blizzard.com</text>
<rect x="180" y="446" width="575.05" height="22" fill="#4c78a8" rx="3"/>
<text x="763.05" y="462" class="value">291.33</text>
<text x="10" y="494" class="label">battle.net</text>
<rect x="180" y="478" width="580.0" height="22" fill="#4c78a8" rx="3"/>
<text x="768.0" y="494" class="value">293.84</text>
<line x1="180" y1="30" x2="180" y2="520" stroke="#ccc"/>
<line x1="180" y1="520" x2="760" y2="520" stroke="#ccc"/>
</svg>