<svg xmlns="http://www.w3.org/2000/svg" width="800" height="540">
<style> .label{font-family:DejaVu Sans,Verdana,Geneva,sans-serif;font-size:12px;fill:#333} .value{font-family:DejaVu Sans,Verdana,Geneva,sans-serif;font-size:12px;fill:#555} </style>
<text x="10" y="20" class="label">延迟柱状图（越低越好，Top 15），单位 ms</text>
<text x="10" y="46" class="label">rockstargames.com</text>
<rect x="180" y="30" width="65.23" height="22" fill="#4c78a8" rx="3"/>
<text x="253.23000000000002" y="46" class="value">30.59</text>
<text x="10" y="78" class="label">eaassets-a.akamaihd.net</text>
<rect x="180" y="62" width="67.64" height="22" fill="#4c78a8" rx="3"/>
<text x="255.64" y="78" class="value">31.72</text>
<text x="10" y="110" class="label">steamcdn-a.akamaihd.net</text>
<rect x="180" y="94" width="204.14" height="22" fill="#4c78a8" rx="3"/>
<text x="392.14" y="110" class="value">95.74</text>
<text x="10" y="142" class="label">ea.com</text>
<rect x="180" y="126" width="244.98" height="22" fill="#4c78a8" rx="3"/>
<text x="432.98" y="142" class="value">114.89</text>
<text x="10" y="174" class="label">store.akamai.steamstatic.com</text>
<rect x="180" y="158" width="269.63" height="22" fill="#4c78a8" rx="3"/>
<text x="457.63" y="174" class="value">126.45</text>
<text x="10" y="206" class="label">ubisoft.com</text>
<rect x="180" y="190" width="323.49" height="22" fill="#4c78a8" rx="3"/>
<text x="511.49" y="206" class="value">151.71</text>
<text x="10" y="238" class="label">cdn.akamai.steamstatic.com</text>
<rect x="180" y="222" width="342.02" height="22" fill="#4c78a8" rx="3"/>
<text x="530.02" y="238" class="value">160.40</text>
<text x="10" y="270" class="label">origin.com</text>
<rect x="180" y="254" width="343.83" height="22" fill="#4c78a8" rx="3"/>
<text x="531.8299999999999" y="270" class="value">161.25</text>
<text x="10" y="302" class="label">community.akamai.steamstatic.com</text>
<rect x="180" y="286" width="404.85" height="22" fill="#4c78a8" rx="3"/>
<text x="592.85" y="302" class="value">189.87</text>
<text x="10" y="334" class="label">steam-chat.com</text>
<rect x="180" y="318" width="406.37" height="22" fill="#4c78a8" rx="3"/>
<text x="594.37" y="334" class="value">190.58</text>
<text x="10" y="366" class="label">api.steampowered.com</text>
<rect x="180" y="350" width="408.22" height="22" fill="#4c78a8" rx="3"/>
<text x="596.22" y="366" class="value">191.45</text>
<text x="10" y="398" class="label">cdn.cloudflare.steamstatic.com</text>
<rect x="180" y="382" width="424.98" height="22" fill="#4c78a8" rx="3"/>
<text x="612.98" y="398" class="value">199.31</text>
<text x="10" y="430" class="label">easyanticheat.net</text>
<rect x="180" y="414" width="460.7" height="22" fill="#4c78a8" rx="3"/>
<text x="648.7" y="430" class="value">216.06</text>
<text x="10" y="462" class="label">launcher-public-service-prod06.ol.epicgames.com</text>
<rect x="180" y="446" width="561.02" height="22" fill="#4c78a8" rx="3"/>
<text x="749.02" y="462" class="value">263.11</text>
<text x="10" y="494" class="label">www.steamcommunity.com</text>
<rect x="180" y="478" width="580.0" height="22" fill="#4c78a8" rx="3"/>
<text x="768.0" y="494" class="value">272.01</text>
<line x1="180" y1="30" x2="180" y2="520" stroke="#ccc"/>
<line x1="180" y1="520" x2="760" y2="520" stroke="#ccc"/>
</svg>