<svg xmlns="http://www.w3.org/2000/svg" width="800" height="540">
<style> .label{font-family:DejaVu Sans,Verdana,Geneva,sans-serif;font-size:12px;fill:#333} .value{font-family:DejaVu Sans,Verdana,Geneva,sans-serif;font-size:12px;fill:#555} </style>
<text x="10" y="20" class="label">延迟柱状图（越低越好，Top 15），单位 ms</text>
<text x="10" y="46" class="label">rockstargames.com</text>
<rect x="180" y="30" width="194.76" height="22" fill="#4c78a8" rx="3"/>
<text x="382.76" y="46" class="value">58.11</text>
<text x="10" y="78" class="label">eaassets-a.akamaihd.net</text>
<rect x="180" y="62" width="221.01" height="22" fill="#4c78a8" rx="3"/>
<text x="409.01" y="78" class="value">65.94</text>
<text x="10" y="110" class="label">fortnite.com</text>
<rect x="180" y="94" width="281.13" height="22" fill="#4c78a8" rx="3"/>
<text x="469.13" y="110" class="value">83.88</text>
<text x="10" y="142" class="label">socialclub.rockstargames.com</text>
<rect x="180" y="126" width="296.59" height="22" fill="#4c78a8" rx="3"/>
<text x="484.59" y="142" class="value">88.49</text>
<text x="10" y="174" class="label">ubi.com</text>
<rect x="180" y="158" width="348.23" height="22" fill="#4c78a8" rx="3"/>
<text x="536.23" y="174" class="value">103.90</text>
<text x="10" y="206" class="label">unrealengine.com</text>
<rect x="180" y="190" width="352.66" height="22" fill="#4c78a8" rx="3"/>
<text x="540.6600000000001" y="206" class="value">105.22</text>
<text x="10" y="238" class="label">battle.net</text>
<rect x="180" y="222" width="367.24" height="22" fill="#4c78a8" rx="3"/>
<text x="555.24" y="238" class="value">109.57</text>
<text x="10" y="270" class="label">blizzard.com</text>
<rect x="180" y="254" width="375.68" height="22" fill="#4c78a8" rx="3"/>
<text x="563.6800000000001" y="270" class="value">112.09</text>
<text x="10" y="302" class="label">ubisoft.com</text>
<rect x="180" y="286" width="388.86" height="22" fill="#4c78a8" rx="3"/>
<text x="576.86" y="302" class="value">116.02</text>
<text x="10" y="334" class="label">origin.com</text>
<rect x="180" y="318" width="468.02" height="22" fill="#4c78a8" rx="3"/>
<text x="656.02" y="334" class="value">139.64</text>
<text x="10" y="366" class="label">community.akamai.steamstatic.com</text>
<rect x="180" y="350" width="498.35" height="22" fill="#4c78a8" rx="3"/>
<text x="686.35" y="366" class="value">148.69</text>
<text x="10" y="398" class="label">launcher-public-service-prod06.ol.epicgames.com</text>
<rect x="180" y="382" width="533.08" height="22" fill="#4c78a8" rx="3"/>
<text x="721.08" y="398" class="value">159.05</text>
<text x="10" y="430" class="label">cdn.cloudflare.steamstatic.com</text>
<rect x="180" y="414" width="565.39" height="22" fill="#4c78a8" rx="3"/>
<text x="753.39" y="430" class="value">168.69</text>
<text x="10" y="462" class="label">api.steampowered.com</text>
<rect x="180" y="446" width="579.06" height="22" fill="#4c78a8" rx="3"/>
<text x="767.06" y="462" class="value">172.77</text>
<text x="10" y="494" class="label">epicgames.com</text>
<rect x="180" y="478" width="580.0" height="22" fill="#4c78a8" rx="3"/>
<text x="768.0" y="494" class="value">173.05</text>
<line x1="180" y1="30" x2="180" y2="520" stroke="#ccc"/>
<line x1="180" y1="520" x2="760" y2="520" stroke="#ccc"/>
</svg>