<svg xmlns="http://www.w3.org/2000/svg" width="800" height="540">
<style> .label{font-family:DejaVu Sans,Verdana,Geneva,sans-serif;font-size:12px;fill:#333} .value{font-family:DejaVu Sans,Verdana,Geneva,sans-serif;font-size:12px;fill:#555} </style>
<text x="10" y="20" class="label">延迟柱状图（越低越好，Top 15），单位 ms</text>
<text x="10" y="46" class="label">eaassets-a.akamaihd.net</text>
<rect x="180" y="30" width="159.04" height="22" fill="#4c78a8" rx="3"/>
<text x="347.03999999999996" y="46" class="value">58.92</text>
<text x="10" y="78" class="label">ea.com</text>
<rect x="180" y="62" width="200.18" height="22" fill="#4c78a8" rx="3"/>
<text x="388.18" y="78" class="value">74.16</text>
<text x="10" y="110" class="label">rockstargames.com</text>
<rect x="180" y="94" width="212.73" height="22" fill="#4c78a8" rx="3"/>
<text x="400.73" y="110" class="value">78.81</text>
<text x="10" y="142" class="label">cdn.akamai.steamstatic.com</text>
<rect x="180" y="126" width="306.4" height="22" fill="#4c78a8" rx="3"/>
<text x="494.4" y="142" class="value">113.51</text>
<text x="10" y="174" class="label">blizzard.com</text>
<rect x="180" y="158" width="333.28" height="22" fill="#4c78a8" rx="3"/>
<text x="521.28" y="174" class="value">123.47</text>
<text x="10" y="206" class="label">battle.net</text>
<rect x="180" y="190" width="336.31" height="22" fill="#4c78a8" rx="3"/>
<text x="524.31" y="206" class="value">124.59</text>
<text x="10" y="238" class="label">static3.cdn.ubi.com</text>
<rect x="180" y="222" width="367.32" height="22" fill="#4c78a8" rx="3"/>
<text x="555.3199999999999" y="238" class="value">136.08</text>
<text x="10" y="270" class="label">socialclub.rockstargames.com</text>
<rect x="180" y="254" width="410.75" height="22" fill="#4c78a8" rx="3"/>
<text x="598.75" y="270" class="value">152.17</text>
<text x="10" y="302" class="label">community.akamai.steamstatic.com</text>
<rect x="180" y="286" width="450.54" height="22" fill="#4c78a8" rx="3"/>
<text x="638.54" y="302" class="value">166.91</text>
<text x="10" y="334" class="label">ubi.com</text>
<rect x="180" y="318" width="452.59" height="22" fill="#4c78a8" rx="3"/>
<text x="640.5899999999999" y="334" class="value">167.67</text>
<text x="10" y="366" class="label">ubisoft.com</text>
<rect x="180" y="350" width="456.32" height="22" fill="#4c78a8" rx="3"/>
<text x="644.3199999999999" y="366" class="value">169.05</text>
<text x="10" y="398" class="label">origin.com</text>
<rect x="180" y="382" width="465.41" height="22" fill="#4c78a8" rx="3"/>
<text x="653.4100000000001" y="398" class="value">172.42</text>
<text x="10" y="430" class="label">store.akamai.steamstatic.com</text>
<rect x="180" y="414" width="507.6" height="22" fill="#4c78a8" rx="3"/>
<text x="695.6" y="430" class="value">188.05</text>
<text x="10" y="462" class="label">steamcdn-a.akamaihd.net</text>
<rect x="180" y="446" width="563.67" height="22" fill="#4c78a8" rx="3"/>
<text x="751.67" y="462" class="value">208.82</text>
<text x="10" y="494" class="label">cdn.cloudflare.steamstatic.com</text>
<rect x="180" y="478" width="580.0" height="22" fill="#4c78a8" rx="3"/>
<text x="768.0" y="494" class="value">214.87</text>
<line x1="180" y1="30" x2="180" y2="520" stroke="#ccc"/>
<line x1="180" y1="520" x2="760" y2="520" stroke="#ccc"/>
</svg>