<svg xmlns="http://www.w3.org/2000/svg" width="800" height="540">
<style> .label{font-family:DejaVu Sans,Verdana,Geneva,sans-serif;font-size:12px;fill:#333} .value{font-family:DejaVu Sans,Verdana,Geneva,sans-serif;font-size:12px;fill:#555} </style>
<text x="10" y="20" class="label">延迟柱状图（越低越好，Top 15），单位 ms</text>
<text x="10" y="46" class="label">rockstargames.com</text>
<rect x="180" y="30" width="145.87" height="22" fill="#4c78a8" rx="3"/>
<text x="333.87" y="46" class="value">56.00</text>
<text x="10" y="78" class="label">eaassets-a.akamaihd.net</text>
<rect x="180" y="62" width="201.17" height="22" fill="#4c78a8" rx="3"/>
<text x="389.16999999999996" y="78" class="value">77.23</text>
<text x="10" y="110" class="label">battle.net</text>
<rect x="180" y="94" width="213.76" height="22" fill="#4c78a8" rx="3"/>
<text x="401.76" y="110" class="value">82.06</text>
<text x="10" y="142" class="label">socialclub.rockstargames.com</text>
<rect x="180" y="126" width="221.1" height="22" fill="#4c78a8" rx="3"/>
<text x="409.1" y="142" class="value">84.88</text>
<text x="10" y="174" class="label">ubi.com</text>
<rect x="180" y="158" width="290.39" height="22" fill="#4c78a8" rx="3"/>
<text x="478.39" y="174" class="value">111.48</text>
<text x="10" y="206" class="label">fortnite.com</text>
<rect x="180" y="190" width="331.16" height="22" fill="#4c78a8" rx="3"/>
<text x="519.1600000000001" y="206" class="value">127.13</text>
<text x="10" y="238" class="label">ea.com</text>
<rect x="180" y="222" width="359.42" height="22" fill="#4c78a8" rx="3"/>
<text x="547.4200000000001" y="238" class="value">137.98</text>
<text x="10" y="270" class="label">epicgames.com</text>
<rect x="180" y="254" width="441.32" height="22" fill="#4c78a8" rx="3"/>
<text x="629.3199999999999" y="270" class="value">169.42</text>
<text x="10" y="302" class="label">unrealengine.com</text>
<rect x="180" y="286" width="452.8" height="22" fill="#4c78a8" rx="3"/>
<text x="640.8" y="302" class="value">173.83</text>
<text x="10" y="334" class="label">steamcdn-a.akamaihd.net</text>
<rect x="180" y="318" width="489.48" height="22" fill="#4c78a8" rx="3"/>
<text x="677.48" y="334" class="value">187.91</text>
<text x="10" y="366" class="label">origin.com</text>
<rect x="180" y="350" width="512.3" height="22" fill="#4c78a8" rx="3"/>
<text x="700.3" y="366" class="value">196.67</text>
<text x="10" y="398" class="label">ubisoft.com</text>
<rect x="180" y="382" width="534.83" height="22" fill="#4c78a8" rx="3"/>
<text x="722.83" y="398" class="value">205.32</text>
<text x="10" y="430" class="label">store.akamai.steamstatic.com</text>
<rect x="180" y="414" width="561.09" height="22" fill="#4c78a8" rx="3"/>
<text x="749.09" y="430" class="value">215.40</text>
<text x="10" y="462" class="label">community.akamai.steamstatic.com</text>
<rect x="180" y="446" width="569.32" height="22" fill="#4c78a8" rx="3"/>
<text x="757.32" y="462" class="value">218.56</text>
<text x="10" y="494" class="label">cdn.akamai.steamstatic.com</text>
<rect x="180" y="478" width="580.0" height="22" fill="#4c78a8" rx="3"/>
<text x="768.0" y="494" class="value">222.66</text>
<line x1="180" y1="30" x2="180" y2="520" stroke="#ccc"/>
<line x1="180" y1="520" x2="760" y2="520" stroke="#ccc"/>
</svg>