<svg xmlns="http://www.w3.org/2000/svg" width="800" height="540">
<style> .label{font-family:DejaVu Sans,Verdana,Geneva,sans-serif;font-size:12px;fill:#333} .value{font-family:DejaVu Sans,Verdana,Geneva,sans-serif;font-size:12px;fill:#555} </style>
<text x="10" y="20" class="label">延迟柱状图（越低越好，Top 15），单位 ms</text>
<text x="10" y="46" class="label">rockstargames.com</text>
<rect x="180" y="30" width="228.65" height="22" fill="#4c78a8" rx="3"/>
<text x="416.65" y="46" class="value">70.13</text>
<text x="10" y="78" class="label">eaassets-a.akamaihd.net</text>
<rect x="180" y="62" width="233.84" height="22" fill="#4c78a8" rx="3"/>
<text x="421.84000000000003" y="78" class="value">71.72</text>
<text x="10" y="110" class="label">ea.com</text>
<rect x="180" y="94" width="276.16" height="22" fill="#4c78a8" rx="3"/>
<text x="464.16" y="110" class="value">84.70</text>
<text x="10" y="142" class="label">store.akamai.steamstatic.com</text>
<rect x="180" y="126" width="351.28" height="22" fill="#4c78a8" rx="3"/>
<text x="539.28" y="142" class="value">107.74</text>
<text x="10" y="174" class="label">ubisoft.com</text>
<rect x="180" y="158" width="402.37" height="22" fill="#4c78a8" rx="3"/>
<text x="590.37" y="174" class="value">123.41</text>
<text x="10" y="206" class="label">socialclub.rockstargames.com</text>
<rect x="180" y="190" width="446.45" height="22" fill="#4c78a8" rx="3"/>
<text x="634.45" y="206" class="value">136.93</text>
<text x="10" y="238" class="label">ubi.com</text>
<rect x="180" y="222" width="466.86" height="22" fill="#4c78a8" rx="3"/>
<text x="654.86" y="238" class="value">143.19</text>
<text x="10" y="270" class="label">blizzard.com</text>
<rect x="180" y="254" width="471.33" height="22" fill="#4c78a8" rx="3"/>
<text x="659.3299999999999" y="270" class="value">144.56</text>
<text x="10" y="302" class="label">battle.net</text>
<rect x="180" y="286" width="498.16" height="22" fill="#4c78a8" rx="3"/>
<text x="686.1600000000001" y="302" class="value">152.79</text>
<text x="10" y="334" class="label">static3.cdn.ubi.com</text>
<rect x="180" y="318" width="499.92" height="22" fill="#4c78a8" rx="3"/>
<text x="687.9200000000001" y="334" class="value">153.33</text>
<text x="10" y="366" class="label">easyanticheat.net</text>
<rect x="180" y="350" width="507.32" height="22" fill="#4c78a8" rx="3"/>
<text x="695.3199999999999" y="366" class="value">155.60</text>
<text x="10" y="398" class="label">cdn.akamai.steamstatic.com</text>
<rect x="180" y="382" width="522.88" height="22" fill="#4c78a8" rx="3"/>
<text x="710.88" y="398" class="value">160.37</text>
<text x="10" y="430" class="label">community.akamai.steamstatic.com</text>
<rect x="180" y="414" width="531.22" height="22" fill="#4c78a8" rx="3"/>
<text x="719.22" y="430" class="value">162.93</text>
<text x="10" y="462" class="label">origin.com</text>
<rect x="180" y="446" width="534.88" height="22" fill="#4c78a8" rx="3"/>
<text x="722.88" y="462" class="value">164.05</text>
<text x="10" y="494" class="label">www.steamcommunity.com</text>
<rect x="180" y="478" width="580.0" height="22" fill="#4c78a8" rx="3"/>
<text x="768.0" y="494" class="value">177.89</text>
<line x1="180" y1="30" x2="180" y2="520" stroke="#ccc"/>
<line x1="180" y1="520" x2="760" y2="520" stroke="#ccc"/>
</svg>