<svg xmlns="http://www.w3.org/2000/svg" width="800" height="540">
<style> .label{font-family:DejaVu Sans,Verdana,Geneva,sans-serif;font-size:12px;fill:#333} .value{font-family:DejaVu Sans,Verdana,Geneva,sans-serif;font-size:12px;fill:#555} </style>
<text x="10" y="20" class="label">延迟柱状图（越低越好，Top 15），单位 ms</text>
<text x="10" y="46" class="label">eaassets-a.akamaihd.net</text>
<rect x="180" y="30" width="166.49" height="22" fill="#4c78a8" rx="3"/>
<text x="354.49" y="46" class="value">78.25</text>
<text x="10" y="78" class="label">ubisoft.com</text>
<rect x="180" y="62" width="187.96" height="22" fill="#4c78a8" rx="3"/>
<text x="375.96000000000004" y="78" class="value">88.34</text>
<text x="10" y="110" class="label">rockstargames.com</text>
<rect x="180" y="94" width="221.26" height="22" fill="#4c78a8" rx="3"/>
<text x="409.26" y="110" class="value">103.99</text>
<text x="10" y="142" class="label">ea.com</text>
<rect x="180" y="126" width="242.02" height="22" fill="#4c78a8" rx="3"/>
<text x="430.02" y="142" class="value">113.75</text>
<text x="10" y="174" class="label">cdn.cloudflare.steamstatic.com</text>
<rect x="180" y="158" width="264.3" height="22" fill="#4c78a8" rx="3"/>
<text x="452.3" y="174" class="value">124.22</text>
<text x="10" y="206" class="label">easyanticheat.net</text>
<rect x="180" y="190" width="319.02" height="22" fill="#4c78a8" rx="3"/>
<text x="507.02" y="206" class="value">149.94</text>
<text x="10" y="238" class="label">community.akamai.steamstatic.com</text>
<rect x="180" y="222" width="319.02" height="22" fill="#4c78a8" rx="3"/>
<text x="507.02" y="238" class="value">149.94</text>
<text x="10" y="270" class="label">store.akamai.steamstatic.com</text>
<rect x="180" y="254" width="328.57" height="22" fill="#4c78a8" rx="3"/>
<text x="516.5699999999999" y="270" class="value">154.43</text>
<text x="10" y="302" class="label">steamcdn-a.akamaihd.net</text>
<rect x="180" y="286" width="332.43" height="22" fill="#4c78a8" rx="3"/>
<text x="520.4300000000001" y="302" class="value">156.24</text>
<text x="10" y="334" class="label">cdn.akamai.steamstatic.com</text>
<rect x="180" y="318" width="333.17" height="22" fill="#4c78a8" rx="3"/>
<text x="521.1700000000001" y="334" class="value">156.59</text>
<text x="10" y="366" class="label">origin.com</text>
<rect x="180" y="350" width="373.11" height="22" fill="#4c78a8" rx="3"/>
<text x="561.11" y="366" class="value">175.36</text>
<text x="10" y="398" class="label">steamcommunity.com</text>
<rect x="180" y="382" width="519.43" height="22" fill="#4c78a8" rx="3"/>
<text x="707.43" y="398" class="value">244.13</text>
<text x="10" y="430" class="label">ubi.com</text>
<rect x="180" y="414" width="548.98" height="22" fill="#4c78a8" rx="3"/>
<text x="736.98" y="430" class="value">258.02</text>
<text x="10" y="462" class="label">launcher-public-service-prod06.ol.epicgames.com</text>
<rect x="180" y="446" width="553.94" height="22" fill="#4c78a8" rx="3"/>
<text x="741.94" y="462" class="value">260.35</text>
<text x="10" y="494" class="label">unrealengine.com</text>
<rect x="180" y="478" width="580.0" height="22" fill="#4c78a8" rx="3"/>
<text x="768.0" y="494" class="value">272.60</text>
<line x1="180" y1="30" x2="180" y2="520" stroke="#ccc"/>
<line x1="180" y1="520" x2="760" y2="520" stroke="#ccc"/>
</svg>