<svg xmlns="http://www.w3.org/2000/svg" width="800" height="540">
<style> .label{font-family:DejaVu Sans,Verdana,Geneva,sans-serif;font-size:12px;fill:#333} .value{font-family:DejaVu Sans,Verdana,Geneva,sans-serif;font-size:12px;fill:#555} </style>
<text x="10" y="20" class="label">延迟柱状图（越低越好，Top 15），单位 ms</text>
<text x="10" y="46" class="label">rockstargames.com</text>
<rect x="180" y="30" width="190.11" height="22" fill="#4c78a8" rx="3"/>
<text x="378.11" y="46" class="value">74.86</text>
<text x="10" y="78" class="label">epicgames.com</text>
<rect x="180" y="62" width="217.94" height="22" fill="#4c78a8" rx="3"/>
<text x="405.94" y="78" class="value">85.82</text>
<text x="10" y="110" class="label">ubi.com</text>
<rect x="180" y="94" width="228.81" height="22" fill="#4c78a8" rx="3"/>
<text x="416.81" y="110" class="value">90.10</text>
<text x="10" y="142" class="label">blizzard.com</text>
<rect x="180" y="126" width="238.05" height="22" fill="#4c78a8" rx="3"/>
<text x="426.05" y="142" class="value">93.74</text>
<text x="10" y="174" class="label">socialclub.rockstargames.com</text>
<rect x="180" y="158" width="250.8" height="22" fill="#4c78a8" rx="3"/>
<text x="438.8" y="174" class="value">98.76</text>
<text x="10" y="206" class="label">battle.net</text>
<rect x="180" y="190" width="254.43" height="22" fill="#4c78a8" rx="3"/>
<text x="442.43" y="206" class="value">100.19</text>
<text x="10" y="238" class="label">ea.com</text>
<rect x="180" y="222" width="364.34" height="22" fill="#4c78a8" rx="3"/>
<text x="552.3399999999999" y="238" class="value">143.47</text>
<text x="10" y="270" class="label">eaassets-a.akamaihd.net</text>
<rect x="180" y="254" width="388.8" height="22" fill="#4c78a8" rx="3"/>
<text x="576.8" y="270" class="value">153.10</text>
<text x="10" y="302" class="label">community.akamai.steamstatic.com</text>
<rect x="180" y="286" width="424.28" height="22" fill="#4c78a8" rx="3"/>
<text x="612.28" y="302" class="value">167.07</text>
<text x="10" y="334" class="label">store.akamai.steamstatic.com</text>
<rect x="180" y="318" width="516.03" height="22" fill="#4c78a8" rx="3"/>
<text x="704.03" y="334" class="value">203.20</text>
<text x="10" y="366" class="label">fortnite.com</text>
<rect x="180" y="350" width="519.46" height="22" fill="#4c78a8" rx="3"/>
<text x="707.46" y="366" class="value">204.55</text>
<text x="10" y="398" class="label">unrealengine.com</text>
<rect x="180" y="382" width="533.12" height="22" fill="#4c78a8" rx="3"/>
<text x="721.12" y="398" class="value">209.93</text>
<text x="10" y="430" class="label">steamcdn-a.akamaihd.net</text>
<rect x="180" y="414" width="535.89" height="22" fill="#4c78a8" rx="3"/>
<text x="723.89" y="430" class="value">211.02</text>
<text x="10" y="462" class="label">origin.com</text>
<rect x="180" y="446" width="546.12" height="22" fill="#4c78a8" rx="3"/>
<text x="734.12" y="462" class="value">215.05</text>
<text x="10" y="494" class="label">ubisoft.com</text>
<rect x="180" y="478" width="580.0" height="22" fill="#4c78a8" rx="3"/>
<text x="768.0" y="494" class="value">228.39</text>
<line x1="180" y1="30" x2="180" y2="520" stroke="#ccc"/>
<line x1="180" y1="520" x2="760" y2="520" stroke="#ccc"/>
</svg>