<svg xmlns="http://www.w3.org/2000/svg" width="800" height="540">
<style> .label{font-family:DejaVu Sans,Verdana,Geneva,sans-serif;font-size:12px;fill:#333} .value{font-family:DejaVu Sans,Verdana,Geneva,sans-serif;font-size:12px;fill:#555} </style>
<text x="10" y="20" class="label">延迟柱状图（越低越好，Top 15），单位 ms</text>
<text x="10" y="46" class="label">rockstargames.com</text>
<rect x="180" y="30" width="203.82" height="22" fill="#4c78a8" rx="3"/>
<text x="391.82" y="46" class="value">84.79</text>
<text x="10" y="78" class="label">eaassets-a.akamaihd.net</text>
<rect x="180" y="62" width="221.73" height="22" fill="#4c78a8" rx="3"/>
<text x="409.73" y="78" class="value">92.24</text>
<text x="10" y="110" class="label">socialclub.rockstargames.com</text>
<rect x="180" y="94" width="247.12" height="22" fill="#4c78a8" rx="3"/>
<text x="435.12" y="110" class="value">102.80</text>
<text x="10" y="142" class="label">ea.com</text>
<rect x="180" y="126" width="266.03" height="22" fill="#4c78a8" rx="3"/>
<text x="454.03" y="142" class="value">110.67</text>
<text x="10" y="174" class="label">ubi.com</text>
<rect x="180" y="158" width="275.29" height="22" fill="#4c78a8" rx="3"/>
<text x="463.29" y="174" class="value">114.52</text>
<text x="10" y="206" class="label">battle.net</text>
<rect x="180" y="190" width="283.75" height="22" fill="#4c78a8" rx="3"/>
<text x="471.75" y="206" class="value">118.04</text>
<text x="10" y="238" class="label">blizzard.com</text>
<rect x="180" y="222" width="289.38" height="22" fill="#4c78a8" rx="3"/>
<text x="477.38" y="238" class="value">120.38</text>
<text x="10" y="270" class="label">ubisoft.com</text>
<rect x="180" y="254" width="400.14" height="22" fill="#4c78a8" rx="3"/>
<text x="588.14" y="270" class="value">166.46</text>
<text x="10" y="302" class="label">fortnite.com</text>
<rect x="180" y="286" width="447.14" height="22" fill="#4c78a8" rx="3"/>
<text x="635.14" y="302" class="value">186.01</text>
<text x="10" y="334" class="label">community.akamai.steamstatic.com</text>
<rect x="180" y="318" width="511.25" height="22" fill="#4c78a8" rx="3"/>
<text x="699.25" y="334" class="value">212.68</text>
<text x="10" y="366" class="label">unrealengine.com</text>
<rect x="180" y="350" width="515.0" height="22" fill="#4c78a8" rx="3"/>
<text x="703.0" y="366" class="value">214.24</text>
<text x="10" y="398" class="label">www.steamcommunity.com</text>
<rect x="180" y="382" width="540.14" height="22" fill="#4c78a8" rx="3"/>
<text x="728.14" y="398" class="value">224.70</text>
<text x="10" y="430" class="label">steamcdn-a.akamaihd.net</text>
<rect x="180" y="414" width="544.3" height="22" fill="#4c78a8" rx="3"/>
<text x="732.3" y="430" class="value">226.43</text>
<text x="10" y="462" class="label">epicgames.com</text>
<rect x="180" y="446" width="559.45" height="22" fill="#4c78a8" rx="3"/>
<text x="747.45" y="462" class="value">232.73</text>
<text x="10" y="494" class="label">origin.com</text>
<rect x="180" y="478" width="580.0" height="22" fill="#4c78a8" rx="3"/>
<text x="768.0" y="494" class="value">241.28</text>
<line x1="180" y1="30" x2="180" y2="520" stroke="#ccc"/>
<line x1="180" y1="520" x2="760" y2="520" stroke="#ccc"/>
</svg>