<svg xmlns="http://www.w3.org/2000/svg" width="800" height="540">
<style> .label{font-family:DejaVu Sans,Verdana,Geneva,sans-serif;font-size:12px;fill:#333} .value{font-family:DejaVu Sans,Verdana,Geneva,sans-serif;font-size:12px;fill:#555} </style>
<text x="10" y="20" class="label">延迟柱状图（越低越好，Top 15），单位 ms</text>
<text x="10" y="46" class="label">eaassets-a.akamaihd.net</text>
<rect x="180" y="30" width="134.55" height="22" fill="#4c78a8" rx="3"/>
<text x="322.55" y="46" class="value">49.73</text>
<text x="10" y="78" class="label">rockstargames.com</text>
<rect x="180" y="62" width="154.33" height="22" fill="#4c78a8" rx="3"/>
<text x="342.33000000000004" y="78" class="value">57.04</text>
<text x="10" y="110" class="label">ea.com</text>
<rect x="180" y="94" width="218.02" height="22" fill="#4c78a8" rx="3"/>
<text x="406.02" y="110" class="value">80.58</text>
<text x="10" y="142" class="label">easyanticheat.net</text>
<rect x="180" y="126" width="307.79" height="22" fill="#4c78a8" rx="3"/>
<text x="495.79" y="142" class="value">113.76</text>
<text x="10" y="174" class="label">origin.com</text>
<rect x="180" y="158" width="329.27" height="22" fill="#4c78a8" rx="3"/>
<text x="517.27" y="174" class="value">121.70</text>
<text x="10" y="206" class="label">socialclub.rockstargames.com</text>
<rect x="180" y="190" width="335.58" height="22" fill="#4c78a8" rx="3"/>
<text x="523.5799999999999" y="206" class="value">124.03</text>
<text x="10" y="238" class="label">www.steamcommunity.com</text>
<rect x="180" y="222" width="352.08" height="22" fill="#4c78a8" rx="3"/>
<text x="540.0799999999999" y="238" class="value">130.13</text>
<text x="10" y="270" class="label">ubi.com</text>
<rect x="180" y="254" width="372.26" height="22" fill="#4c78a8" rx="3"/>
<text x="560.26" y="270" class="value">137.59</text>
<text x="10" y="302" class="label">blizzard.com</text>
<rect x="180" y="286" width="380.73" height="22" fill="#4c78a8" rx="3"/>
<text x="568.73" y="302" class="value">140.72</text>
<text x="10" y="334" class="label">static3.cdn.ubi.com</text>
<rect x="180" y="318" width="393.34" height="22" fill="#4c78a8" rx="3"/>
<text x="581.3399999999999" y="334" class="value">145.38</text>
<text x="10" y="366" class="label">battle.net</text>
<rect x="180" y="350" width="394.91" height="22" fill="#4c78a8" rx="3"/>
<text x="582.9100000000001" y="366" class="value">145.96</text>
<text x="10" y="398" class="label">cdn.cloudflare.steamstatic.com</text>
<rect x="180" y="382" width="468.07" height="22" fill="#4c78a8" rx="3"/>
<text x="656.0699999999999" y="398" class="value">173.00</text>
<text x="10" y="430" class="label">gog.com</text>
<rect x="180" y="414" width="503.0" height="22" fill="#4c78a8" rx="3"/>
<text x="691.0" y="430" class="value">185.91</text>
<text x="10" y="462" class="label">steamcdn-a.akamaihd.net</text>
<rect x="180" y="446" width="566.47" height="22" fill="#4c78a8" rx="3"/>
<text x="754.47" y="462" class="value">209.37</text>
<text x="10" y="494" class="label">steamcommunity.com</text>
<rect x="180" y="478" width="580.0" height="22" fill="#4c78a8" rx="3"/>
<text x="768.0" y="494" class="value">214.37</text>
<line x1="180" y1="30" x2="180" y2="520" stroke="#ccc"/>
<line x1="180" y1="520" x2="760" y2="520" stroke="#ccc"/>
</svg>