<svg xmlns="http://www.w3.org/2000/svg" width="800" height="540">
<style> .label{font-family:DejaVu Sans,Verdana,Geneva,sans-serif;font-size:12px;fill:#333} .value{font-family:DejaVu Sans,Verdana,Geneva,sans-serif;font-size:12px;fill:#555} </style>
<text x="10" y="20" class="label">延迟柱状图（越低越好，Top 15），单位 ms</text>
<text x="10" y="46" class="label">ea.com</text>
<rect x="180" y="30" width="244.15" height="22" fill="#4c78a8" rx="3"/>
<text x="432.15" y="46" class="value">134.55</text>
<text x="10" y="78" class="label">ubisoft.com</text>
<rect x="180" y="62" width="262.83" height="22" fill="#4c78a8" rx="3"/>
<text x="450.83" y="78" class="value">144.84</text>
<text x="10" y="110" class="label">community.akamai.steamstatic.com</text>
<rect x="180" y="94" width="301.62" height="22" fill="#4c78a8" rx="3"/>
<text x="489.62" y="110" class="value">166.22</text>
<text x="10" y="142" class="label">store.akamai.steamstatic.com</text>
<rect x="180" y="126" width="302.19" height="22" fill="#4c78a8" rx="3"/>
<text x="490.19" y="142" class="value">166.53</text>
<text x="10" y="174" class="label">steamcdn-a.akamaihd.net</text>
<rect x="180" y="158" width="326.23" height="22" fill="#4c78a8" rx="3"/>
<text x="514.23" y="174" class="value">179.78</text>
<text x="10" y="206" class="label">rockstargames.com</text>
<rect x="180" y="190" width="333.69" height="22" fill="#4c78a8" rx="3"/>
<text x="521.69" y="206" class="value">183.89</text>
<text x="10" y="238" class="label">easyanticheat.net</text>
<rect x="180" y="222" width="388.76" height="22" fill="#4c78a8" rx="3"/>
<text x="576.76" y="238" class="value">214.24</text>
<text x="10" y="270" class="label">cdn.cloudflare.steamstatic.com</text>
<rect x="180" y="254" width="424.18" height="22" fill="#4c78a8" rx="3"/>
<text x="612.1800000000001" y="270" class="value">233.76</text>
<text x="10" y="302" class="label">steam-chat.com</text>
<rect x="180" y="286" width="465.44" height="22" fill="#4c78a8" rx="3"/>
<text x="653.44" y="302" class="value">256.50</text>
<text x="10" y="334" class="label">socialclub.rockstargames.com</text>
<rect x="180" y="318" width="478.69" height="22" fill="#4c78a8" rx="3"/>
<text x="666.69" y="334" class="value">263.80</text>
<text x="10" y="366" class="label">steamcommunity.com</text>
<rect x="180" y="350" width="479.65" height="22" fill="#4c78a8" rx="3"/>
<text x="667.65" y="366" class="value">264.33</text>
<text x="10" y="398" class="label">ubi.com</text>
<rect x="180" y="382" width="488.0" height="22" fill="#4c78a8" rx="3"/>
<text x="676.0" y="398" class="value">268.93</text>
<text x="10" y="430" class="label">api.steampowered.com</text>
<rect x="180" y="414" width="502.63" height="22" fill="#4c78a8" rx="3"/>
<text x="690.63" y="430" class="value">276.99</text>
<text x="10" y="462" class="label">epicgames.com</text>
<rect x="180" y="446" width="553.16" height="22" fill="#4c78a8" rx="3"/>
<text x="741.16" y="462" class="value">304.84</text>
<text x="10" y="494" class="label">launcher-public-service-prod06.ol.epicgames.com</text>
<rect x="180" y="478" width="580.0" height="22" fill="#4c78a8" rx="3"/>
<text x="768.0" y="494" class="value">319.63</text>
<line x1="180" y1="30" x2="180" y2="520" stroke="#ccc"/>
<line x1="180" y1="520" x2="760" y2="520" stroke="#ccc"/>
</svg>