<svg xmlns="http://www.w3.org/2000/svg" width="800" height="540">
<style> .label{font-family:DejaVu Sans,Verdana,Geneva,sans-serif;font-size:12px;fill:#333} .value{font-family:DejaVu Sans,Verdana,Geneva,sans-serif;font-size:12px;fill:#555} </style>
<text x="10" y="20" class="label">延迟柱状图（越低越好，Top 15），单位 ms</text>
<text x="10" y="46" class="label">rockstargames.com</text>
<rect x="180" y="30" width="186.16" height="22" fill="#4c78a8" rx="3"/>
<text x="374.15999999999997" y="46" class="value">57.62</text>
<text x="10" y="78" class="label">fortnite.com</text>
<rect x="180" y="62" width="290.94" height="22" fill="#4c78a8" rx="3"/>
<text x="478.94" y="78" class="value">90.05</text>
<text x="10" y="110" class="label">socialclub.rockstargames.com</text>
<rect x="180" y="94" width="299.37" height="22" fill="#4c78a8" rx="3"/>
<text x="487.37" y="110" class="value">92.66</text>
<text x="10" y="142" class="label">ubi.com</text>
<rect x="180" y="126" width="328.38" height="22" fill="#4c78a8" rx="3"/>
<text x="516.38" y="142" class="value">101.64</text>
<text x="10" y="174" class="label">blizzard.com</text>
<rect x="180" y="158" width="337.95" height="22" fill="#4c78a8" rx="3"/>
<text x="525.95" y="174" class="value">104.60</text>
<text x="10" y="206" class="label">battle.net</text>
<rect x="180" y="190" width="357.07" height="22" fill="#4c78a8" rx="3"/>
<text x="545.0699999999999" y="206" class="value">110.52</text>
<text x="10" y="238" class="label">eaassets-a.akamaihd.net</text>
<rect x="180" y="222" width="388.77" height="22" fill="#4c78a8" rx="3"/>
<text x="576.77" y="238" class="value">120.33</text>
<text x="10" y="270" class="label">community.akamai.steamstatic.com</text>
<rect x="180" y="254" width="402.59" height="22" fill="#4c78a8" rx="3"/>
<text x="590.5899999999999" y="270" class="value">124.61</text>
<text x="10" y="302" class="label">epicgames.com</text>
<rect x="180" y="286" width="436.97" height="22" fill="#4c78a8" rx="3"/>
<text x="624.97" y="302" class="value">135.25</text>
<text x="10" y="334" class="label">steamcdn-a.akamaihd.net</text>
<rect x="180" y="318" width="464.08" height="22" fill="#4c78a8" rx="3"/>
<text x="652.0799999999999" y="334" class="value">143.64</text>
<text x="10" y="366" class="label">ubisoft.com</text>
<rect x="180" y="350" width="512.86" height="22" fill="#4c78a8" rx="3"/>
<text x="700.86" y="366" class="value">158.74</text>
<text x="10" y="398" class="label">store.akamai.steamstatic.com</text>
<rect x="180" y="382" width="536.03" height="22" fill="#4c78a8" rx="3"/>
<text x="724.03" y="398" class="value">165.91</text>
<text x="10" y="430" class="label">cdn.akamai.steamstatic.com</text>
<rect x="180" y="414" width="539.78" height="22" fill="#4c78a8" rx="3"/>
<text x="727.78" y="430" class="value">167.07</text>
<text x="10" y="462" class="label">easyanticheat.net</text>
<rect x="180" y="446" width="576.12" height="22" fill="#4c78a8" rx="3"/>
<text x="764.12" y="462" class="value">178.32</text>
<text x="10" y="494" class="label">ea.com</text>
<rect x="180" y="478" width="580.0" height="22" fill="#4c78a8" rx="3"/>
<text x="768.0" y="494" class="value">179.52</text>
<line x1="180" y1="30" x2="180" y2="520" stroke="#ccc"/>
<line x1="180" y1="520" x2="760" y2="520" stroke="#ccc"/>
</svg>