<svg xmlns="http://www.w3.org/2000/svg" width="800" height="540">
<style> .label{font-family:DejaVu Sans,Verdana,Geneva,sans-serif;font-size:12px;fill:#333} .value{font-family:DejaVu Sans,Verdana,Geneva,sans-serif;font-size:12px;fill:#555} </style>
<text x="10" y="20" class="label">延迟柱状图（越低越好，Top 15），单位 ms</text>
<text x="10" y="46" class="label">steamcdn-a.akamaihd.net</text>
<rect x="180" y="30" width="261.77" height="22" fill="#4c78a8" rx="3"/>
<text x="449.77" y="46" class="value">119.46</text>
<text x="10" y="78" class="label">community.akamai.steamstatic.com</text>
<rect x="180" y="62" width="301.3" height="22" fill="#4c78a8" rx="3"/>
<text x="489.3" y="78" class="value">137.50</text>
<text x="10" y="110" class="label">cdn.akamai.steamstatic.com</text>
<rect x="180" y="94" width="304.28" height="22" fill="#4c78a8" rx="3"/>
<text x="492.28" y="110" class="value">138.86</text>
<text x="10" y="142" class="label">eaassets-a.akamaihd.net</text>
<rect x="180" y="126" width="329.96" height="22" fill="#4c78a8" rx="3"/>
<text x="517.96" y="142" class="value">150.58</text>
<text x="10" y="174" class="label">store.akamai.steamstatic.com</text>
<rect x="180" y="158" width="367.23" height="22" fill="#4c78a8" rx="3"/>
<text x="555.23" y="174" class="value">167.59</text>
<text x="10" y="206" class="label">origin.com</text>
<rect x="180" y="190" width="430.08" height="22" fill="#4c78a8" rx="3"/>
<text x="618.0799999999999" y="206" class="value">196.27</text>
<text x="10" y="238" class="label">api.steampowered.com</text>
<rect x="180" y="222" width="456.28" height="22" fill="#4c78a8" rx="3"/>
<text x="644.28" y="238" class="value">208.23</text>
<text x="10" y="270" class="label">easyanticheat.net</text>
<rect x="180" y="254" width="509.07" height="22" fill="#4c78a8" rx="3"/>
<text x="697.0699999999999" y="270" class="value">232.32</text>
<text x="10" y="302" class="label">ubi.com</text>
<rect x="180" y="286" width="511.09" height="22" fill="#4c78a8" rx="3"/>
<text x="699.0899999999999" y="302" class="value">233.24</text>
<text x="10" y="334" class="label">rockstargames.com</text>
<rect x="180" y="318" width="525.18" height="22" fill="#4c78a8" rx="3"/>
<text x="713.18" y="334" class="value">239.67</text>
<text x="10" y="366" class="label">steam-chat.com</text>
<rect x="180" y="350" width="534.49" height="22" fill="#4c78a8" rx="3"/>
<text x="722.49" y="366" class="value">243.92</text>
<text x="10" y="398" class="label">epicgames.com</text>
<rect x="180" y="382" width="538.43" height="22" fill="#4c78a8" rx="3"/>
<text x="726.43" y="398" class="value">245.72</text>
<text x="10" y="430" class="label">ubisoft.com</text>
<rect x="180" y="414" width="547.13" height="22" fill="#4c78a8" rx="3"/>
<text x="735.13" y="430" class="value">249.69</text>
<text x="10" y="462" class="label">ea.com</text>
<rect x="180" y="446" width="575.31" height="22" fill="#4c78a8" rx="3"/>
<text x="763.31" y="462" class="value">262.55</text>
<text x="10" y="494" class="label">unrealengine.com</text>
<rect x="180" y="478" width="580.0" height="22" fill="#4c78a8" rx="3"/>
<text x="768.0" y="494" class="value">264.69</text>
<line x1="180" y1="30" x2="180" y2="520" stroke="#ccc"/>
<line x1="180" y1="520" x2="760" y2="520" stroke="#ccc"/>
</svg>