<svg xmlns="http://www.w3.org/2000/svg" width="800" height="540">
<style> .label{font-family:DejaVu Sans,Verdana,Geneva,sans-serif;font-size:12px;fill:#333} .value{font-family:DejaVu Sans,Verdana,Geneva,sans-serif;font-size:12px;fill:#555} </style>
<text x="10" y="20" class="label">延迟柱状图（越低越好，Top 15），单位 ms</text>
<text x="10" y="46" class="label">store.akamai.steamstatic.com</text>
<rect x="180" y="30" width="277.87" height="22" fill="#4c78a8" rx="3"/>
<text x="465.87" y="46" class="value">104.91</text>
<text x="10" y="78" class="label">ea.com</text>
<rect x="180" y="62" width="291.48" height="22" fill="#4c78a8" rx="3"/>
<text x="479.48" y="78" class="value">110.05</text>
<text x="10" y="110" class="label">rockstargames.com</text>
<rect x="180" y="94" width="335.42" height="22" fill="#4c78a8" rx="3"/>
<text x="523.4200000000001" y="110" class="value">126.64</text>
<text x="10" y="142" class="label">eaassets-a.akamaihd.net</text>
<rect x="180" y="126" width="378.86" height="22" fill="#4c78a8" rx="3"/>
<text x="566.86" y="142" class="value">143.04</text>
<text x="10" y="174" class="label">origin.com</text>
<rect x="180" y="158" width="396.5" height="22" fill="#4c78a8" rx="3"/>
<text x="584.5" y="174" class="value">149.70</text>
<text x="10" y="206" class="label">steamcdn-a.akamaihd.net</text>
<rect x="180" y="190" width="415.86" height="22" fill="#4c78a8" rx="3"/>
<text x="603.86" y="206" class="value">157.01</text>
<text x="10" y="238" class="label">blizzard.com</text>
<rect x="180" y="222" width="434.38" height="22" fill="#4c78a8" rx="3"/>
<text x="622.38" y="238" class="value">164.00</text>
<text x="10" y="270" class="label">cdn.akamai.steamstatic.com</text>
<rect x="180" y="254" width="454.08" height="22" fill="#4c78a8" rx="3"/>
<text x="642.0799999999999" y="270" class="value">171.44</text>
<text x="10" y="302" class="label">battle.net</text>
<rect x="180" y="286" width="484.49" height="22" fill="#4c78a8" rx="3"/>
<text x="672.49" y="302" class="value">182.92</text>
<text x="10" y="334" class="label">unrealengine.com</text>
<rect x="180" y="318" width="522.71" height="22" fill="#4c78a8" rx="3"/>
<text x="710.71" y="334" class="value">197.35</text>
<text x="10" y="366" class="label">ubi.com</text>
<rect x="180" y="350" width="523.35" height="22" fill="#4c78a8" rx="3"/>
<text x="711.35" y="366" class="value">197.59</text>
<text x="10" y="398" class="label">socialclub.rockstargames.com</text>
<rect x="180" y="382" width="554.07" height="22" fill="#4c78a8" rx="3"/>
<text x="742.07" y="398" class="value">209.19</text>
<text x="10" y="430" class="label">static3.cdn.ubi.com</text>
<rect x="180" y="414" width="555.0" height="22" fill="#4c78a8" rx="3"/>
<text x="743.0" y="430" class="value">209.54</text>
<text x="10" y="462" class="label">easyanticheat.net</text>
<rect x="180" y="446" width="562.76" height="22" fill="#4c78a8" rx="3"/>
<text x="750.76" y="462" class="value">212.47</text>
<text x="10" y="494" class="label">ubisoft.com</text>
<rect x="180" y="478" width="580.0" height="22" fill="#4c78a8" rx="3"/>
<text x="768.0" y="494" class="value">218.98</text>
<line x1="180" y1="30" x2="180" y2="520" stroke="#ccc"/>
<line x1="180" y1="520" x2="760" y2="520" stroke="#ccc"/>
</svg>