<svg xmlns="http://www.w3.org/2000/svg" width="800" height="540">
<style> .label{font-family:DejaVu Sans,Verdana,Geneva,sans-serif;font-size:12px;fill:#333} .value{font-family:DejaVu Sans,Verdana,Geneva,sans-serif;font-size:12px;fill:#555} </style>
<text x="10" y="20" class="label">延迟柱状图（越低越好，Top 15），单位 ms</text>
<text x="10" y="46" class="label">eaassets-a.akamaihd.net</text>
<rect x="180" y="30" width="159.34" height="22" fill="#4c78a8" rx="3"/>
<text x="347.34000000000003" y="46" class="value">80.19</text>
<text x="10" y="78" class="label">community.akamai.steamstatic.com</text>
<rect x="180" y="62" width="242.25" height="22" fill="#4c78a8" rx="3"/>
<text x="430.25" y="78" class="value">121.92</text>
<text x="10" y="110" class="label">ubisoft.com</text>
<rect x="180" y="94" width="243.11" height="22" fill="#4c78a8" rx="3"/>
<text x="431.11" y="110" class="value">122.35</text>
<text x="10" y="142" class="label">rockstargames.com</text>
<rect x="180" y="126" width="285.51" height="22" fill="#4c78a8" rx="3"/>
<text x="473.51" y="142" class="value">143.69</text>
<text x="10" y="174" class="label">ea.com</text>
<rect x="180" y="158" width="301.33" height="22" fill="#4c78a8" rx="3"/>
<text x="489.33" y="174" class="value">151.65</text>
<text x="10" y="206" class="label">steamcdn-a.akamaihd.net</text>
<rect x="180" y="190" width="379.33" height="22" fill="#4c78a8" rx="3"/>
<text x="567.3299999999999" y="206" class="value">190.91</text>
<text x="10" y="238" class="label">cdn.akamai.steamstatic.com</text>
<rect x="180" y="222" width="383.55" height="22" fill="#4c78a8" rx="3"/>
<text x="571.55" y="238" class="value">193.03</text>
<text x="10" y="270" class="label">static3.cdn.ubi.com</text>
<rect x="180" y="254" width="397.99" height="22" fill="#4c78a8" rx="3"/>
<text x="585.99" y="270" class="value">200.30</text>
<text x="10" y="302" class="label">origin.com</text>
<rect x="180" y="286" width="418.12" height="22" fill="#4c78a8" rx="3"/>
<text x="606.12" y="302" class="value">210.43</text>
<text x="10" y="334" class="label">store.akamai.steamstatic.com</text>
<rect x="180" y="318" width="426.47" height="22" fill="#4c78a8" rx="3"/>
<text x="614.47" y="334" class="value">214.63</text>
<text x="10" y="366" class="label">easyanticheat.net</text>
<rect x="180" y="350" width="438.13" height="22" fill="#4c78a8" rx="3"/>
<text x="626.13" y="366" class="value">220.50</text>
<text x="10" y="398" class="label">steamcommunity.com</text>
<rect x="180" y="382" width="496.71" height="22" fill="#4c78a8" rx="3"/>
<text x="684.71" y="398" class="value">249.98</text>
<text x="10" y="430" class="label">ubi.com</text>
<rect x="180" y="414" width="537.4" height="22" fill="#4c78a8" rx="3"/>
<text x="725.4" y="430" class="value">270.46</text>
<text x="10" y="462" class="label">launcher-public-service-prod06.ol.epicgames.com</text>
<rect x="180" y="446" width="576.2" height="22" fill="#4c78a8" rx="3"/>
<text x="764.2" y="462" class="value">289.99</text>
<text x="10" y="494" class="label">cdn.cloudflare.steamstatic.com</text>
<rect x="180" y="478" width="580.0" height="22" fill="#4c78a8" rx="3"/>
<text x="768.0" y="494" class="value">291.90</text>
<line x1="180" y1="30" x2="180" y2="520" stroke="#ccc"/>
<line x1="180" y1="520" x2="760" y2="520" stroke="#ccc"/>
</svg>