<svg xmlns="http://www.w3.org/2000/svg" width="800" height="540">
<style> .label{font-family:DejaVu Sans,Verdana,Geneva,sans-serif;font-size:12px;fill:#333} .value{font-family:DejaVu Sans,Verdana,Geneva,sans-serif;font-size:12px;fill:#555} </style>
<text x="10" y="20" class="label">延迟柱状图（越低越好，Top 15），单位 ms</text>
<text x="10" y="46" class="label">eaassets-a.akamaihd.net</text>
<rect x="180" y="30" width="119.25" height="22" fill="#4c78a8" rx="3"/>
<text x="307.25" y="46" class="value">57.67</text>
<text x="10" y="78" class="label">rockstargames.com</text>
<rect x="180" y="62" width="133.2" height="22" fill="#4c78a8" rx="3"/>
<text x="321.2" y="78" class="value">64.42</text>
<text x="10" y="110" class="label">ubisoft.com</text>
<rect x="180" y="94" width="193.42" height="22" fill="#4c78a8" rx="3"/>
<text x="381.41999999999996" y="110" class="value">93.54</text>
<text x="10" y="142" class="label">ea.com</text>
<rect x="180" y="126" width="205.26" height="22" fill="#4c78a8" rx="3"/>
<text x="393.26" y="142" class="value">99.27</text>
<text x="10" y="174" class="label">community.akamai.steamstatic.com</text>
<rect x="180" y="158" width="233.3" height="22" fill="#4c78a8" rx="3"/>
<text x="421.3" y="174" class="value">112.83</text>
<text x="10" y="206" class="label">origin.com</text>
<rect x="180" y="190" width="293.2" height="22" fill="#4c78a8" rx="3"/>
<text x="481.2" y="206" class="value">141.80</text>
<text x="10" y="238" class="label">cdn.akamai.steamstatic.com</text>
<rect x="180" y="222" width="316.53" height="22" fill="#4c78a8" rx="3"/>
<text x="504.53" y="238" class="value">153.08</text>
<text x="10" y="270" class="label">static3.cdn.ubi.com</text>
<rect x="180" y="254" width="385.03" height="22" fill="#4c78a8" rx="3"/>
<text x="573.03" y="270" class="value">186.21</text>
<text x="10" y="302" class="label">store.akamai.steamstatic.com</text>
<rect x="180" y="286" width="417.74" height="22" fill="#4c78a8" rx="3"/>
<text x="605.74" y="302" class="value">202.03</text>
<text x="10" y="334" class="label">steamcdn-a.akamaihd.net</text>
<rect x="180" y="318" width="443.24" height="22" fill="#4c78a8" rx="3"/>
<text x="631.24" y="334" class="value">214.36</text>
<text x="10" y="366" class="label">cdn.cloudflare.steamstatic.com</text>
<rect x="180" y="350" width="459.74" height="22" fill="#4c78a8" rx="3"/>
<text x="647.74" y="366" class="value">222.34</text>
<text x="10" y="398" class="label">steam-chat.com</text>
<rect x="180" y="382" width="507.48" height="22" fill="#4c78a8" rx="3"/>
<text x="695.48" y="398" class="value">245.43</text>
<text x="10" y="430" class="label">www.steamcommunity.com</text>
<rect x="180" y="414" width="526.69" height="22" fill="#4c78a8" rx="3"/>
<text x="714.69" y="430" class="value">254.72</text>
<text x="10" y="462" class="label">api.steampowered.com</text>
<rect x="180" y="446" width="547.81" height="22" fill="#4c78a8" rx="3"/>
<text x="735.81" y="462" class="value">264.93</text>
<text x="10" y="494" class="label">easyanticheat.net</text>
<rect x="180" y="478" width="580.0" height="22" fill="#4c78a8" rx="3"/>
<text x="768.0" y="494" class="value">280.50</text>
<line x1="180" y1="30" x2="180" y2="520" stroke="#ccc"/>
<line x1="180" y1="520" x2="760" y2="520" stroke="#ccc"/>
</svg>