<svg xmlns="http://www.w3.org/2000/svg" width="800" height="540">
<style> .label{font-family:DejaVu Sans,Verdana,Geneva,sans-serif;font-size:12px;fill:#333} .value{font-family:DejaVu Sans,Verdana,Geneva,sans-serif;font-size:12px;fill:#555} </style>
<text x="10" y="20" class="label">延迟柱状图（越低越好，Top 15），单位 ms</text>
<text x="10" y="46" class="label">rockstargames.com</text>
<rect x="180" y="30" width="179.74" height="22" fill="#4c78a8" rx="3"/>
<text x="367.74" y="46" class="value">54.48</text>
<text x="10" y="78" class="label">socialclub.rockstargames.com</text>
<rect x="180" y="62" width="219.73" height="22" fill="#4c78a8" rx="3"/>
<text x="407.73" y="78" class="value">66.60</text>
<text x="10" y="110" class="label">eaassets-a.akamaihd.net</text>
<rect x="180" y="94" width="258.33" height="22" fill="#4c78a8" rx="3"/>
<text x="446.33" y="110" class="value">78.30</text>
<text x="10" y="142" class="label">battle.net</text>
<rect x="180" y="126" width="287.49" height="22" fill="#4c78a8" rx="3"/>
<text x="475.49" y="142" class="value">87.14</text>
<text x="10" y="174" class="label">blizzard.com</text>
<rect x="180" y="158" width="367.89" height="22" fill="#4c78a8" rx="3"/>
<text x="555.89" y="174" class="value">111.51</text>
<text x="10" y="206" class="label">unrealengine.com</text>
<rect x="180" y="190" width="388.12" height="22" fill="#4c78a8" rx="3"/>
<text x="576.12" y="206" class="value">117.64</text>
<text x="10" y="238" class="label">ubi.com</text>
<rect x="180" y="222" width="410.59" height="22" fill="#4c78a8" rx="3"/>
<text x="598.5899999999999" y="238" class="value">124.45</text>
<text x="10" y="270" class="label">epicgames.com</text>
<rect x="180" y="254" width="462.55" height="22" fill="#4c78a8" rx="3"/>
<text x="650.55" y="270" class="value">140.20</text>
<text x="10" y="302" class="label">cdn.akamai.steamstatic.com</text>
<rect x="180" y="286" width="469.77" height="22" fill="#4c78a8" rx="3"/>
<text x="657.77" y="302" class="value">142.39</text>
<text x="10" y="334" class="label">cdn.cloudflare.steamstatic.com</text>
<rect x="180" y="318" width="469.77" height="22" fill="#4c78a8" rx="3"/>
<text x="657.77" y="334" class="value">142.39</text>
<text x="10" y="366" class="label">fortnite.com</text>
<rect x="180" y="350" width="473.86" height="22" fill="#4c78a8" rx="3"/>
<text x="661.86" y="366" class="value">143.63</text>
<text x="10" y="398" class="label">ea.com</text>
<rect x="180" y="382" width="497.85" height="22" fill="#4c78a8" rx="3"/>
<text x="685.85" y="398" class="value">150.90</text>
<text x="10" y="430" class="label">ubisoft.com</text>
<rect x="180" y="414" width="501.54" height="22" fill="#4c78a8" rx="3"/>
<text x="689.54" y="430" class="value">152.02</text>
<text x="10" y="462" class="label">steamcdn-a.akamaihd.net</text>
<rect x="180" y="446" width="511.41" height="22" fill="#4c78a8" rx="3"/>
<text x="699.4100000000001" y="462" class="value">155.01</text>
<text x="10" y="494" class="label">origin.com</text>
<rect x="180" y="478" width="580.0" height="22" fill="#4c78a8" rx="3"/>
<text x="768.0" y="494" class="value">175.80</text>
<line x1="180" y1="30" x2="180" y2="520" stroke="#ccc"/>
<line x1="180" y1="520" x2="760" y2="520" stroke="#ccc"/>
</svg>