<svg xmlns="http://www.w3.org/2000/svg" width="800" height="540">
<style> .label{font-family:DejaVu Sans,Verdana,Geneva,sans-serif;font-size:12px;fill:#333} .value{font-family:DejaVu Sans,Verdana,Geneva,sans-serif;font-size:12px;fill:#555} </style>
<text x="10" y="20" class="label">延迟柱状图（越低越好，Top 15），单位 ms</text>
<text x="10" y="46" class="label">rockstargames.com</text>
<rect x="180" y="30" width="85.89" height="22" fill="#4c78a8" rx="3"/>
<text x="273.89" y="46" class="value">41.01</text>
<text x="10" y="78" class="label">store.akamai.steamstatic.com</text>
<rect x="180" y="62" width="201.01" height="22" fill="#4c78a8" rx="3"/>
<text x="389.01" y="78" class="value">95.98</text>
<text x="10" y="110" class="label">eaassets-a.akamaihd.net</text>
<rect x="180" y="94" width="249.33" height="22" fill="#4c78a8" rx="3"/>
<text x="437.33000000000004" y="110" class="value">119.05</text>
<text x="10" y="142" class="label">community.akamai.steamstatic.com</text>
<rect x="180" y="126" width="255.51" height="22" fill="#4c78a8" rx="3"/>
<text x="443.51" y="142" class="value">122.00</text>
<text x="10" y="174" class="label">cdn.akamai.steamstatic.com</text>
<rect x="180" y="158" width="281.39" height="22" fill="#4c78a8" rx="3"/>
<text x="469.39" y="174" class="value">134.36</text>
<text x="10" y="206" class="label">easyanticheat.net</text>
<rect x="180" y="190" width="317.75" height="22" fill="#4c78a8" rx="3"/>
<text x="505.75" y="206" class="value">151.72</text>
<text x="10" y="238" class="label">ubisoft.com</text>
<rect x="180" y="222" width="341.56" height="22" fill="#4c78a8" rx="3"/>
<text x="529.56" y="238" class="value">163.09</text>
<text x="10" y="270" class="label">origin.com</text>
<rect x="180" y="254" width="354.59" height="22" fill="#4c78a8" rx="3"/>
<text x="542.5899999999999" y="270" class="value">169.31</text>
<text x="10" y="302" class="label">steamcdn-a.akamaihd.net</text>
<rect x="180" y="286" width="360.03" height="22" fill="#4c78a8" rx="3"/>
<text x="548.03" y="302" class="value">171.91</text>
<text x="10" y="334" class="label">ea.com</text>
<rect x="180" y="318" width="401.31" height="22" fill="#4c78a8" rx="3"/>
<text x="589.31" y="334" class="value">191.62</text>
<text x="10" y="366" class="label">cdn.cloudflare.steamstatic.com</text>
<rect x="180" y="350" width="479.24" height="22" fill="#4c78a8" rx="3"/>
<text x="667.24" y="366" class="value">228.83</text>
<text x="10" y="398" class="label">steamcommunity.com</text>
<rect x="180" y="382" width="482.82" height="22" fill="#4c78a8" rx="3"/>
<text x="670.8199999999999" y="398" class="value">230.54</text>
<text x="10" y="430" class="label">api.steampowered.com</text>
<rect x="180" y="414" width="484.19" height="22" fill="#4c78a8" rx="3"/>
<text x="672.19" y="430" class="value">231.19</text>
<text x="10" y="462" class="label">www.steamcommunity.com</text>
<rect x="180" y="446" width="506.97" height="22" fill="#4c78a8" rx="3"/>
<text x="694.97" y="462" class="value">242.07</text>
<text x="10" y="494" class="label">steam-chat.com</text>
<rect x="180" y="478" width="580.0" height="22" fill="#4c78a8" rx="3"/>
<text x="768.0" y="494" class="value">276.94</text>
<line x1="180" y1="30" x2="180" y2="520" stroke="#ccc"/>
<line x1="180" y1="520" x2="760" y2="520" stroke="#ccc"/>
</svg>