<svg xmlns="http://www.w3.org/2000/svg" width="800" height="540">
<style> .label{font-family:DejaVu Sans,Verdana,Geneva,sans-serif;font-size:12px;fill:#333} .value{font-family:DejaVu Sans,Verdana,Geneva,sans-serif;font-size:12px;fill:#555} </style>
<text x="10" y="20" class="label">延迟柱状图（越低越好，Top 15），单位 ms</text>
<text x="10" y="46" class="label">rockstargames.com</text>
<rect x="180" y="30" width="202.93" height="22" fill="#4c78a8" rx="3"/>
<text x="390.93" y="46" class="value">77.04</text>
<text x="10" y="78" class="label">eaassets-a.akamaihd.net</text>
<rect x="180" y="62" width="222.45" height="22" fill="#4c78a8" rx="3"/>
<text x="410.45" y="78" class="value">84.45</text>
<text x="10" y="110" class="label">ea.com</text>
<rect x="180" y="94" width="235.09" height="22" fill="#4c78a8" rx="3"/>
<text x="423.09000000000003" y="110" class="value">89.25</text>
<text x="10" y="142" class="label">blizzard.com</text>
<rect x="180" y="126" width="250.29" height="22" fill="#4c78a8" rx="3"/>
<text x="438.28999999999996" y="142" class="value">95.02</text>
<text x="10" y="174" class="label">battle.net</text>
<rect x="180" y="158" width="255.64" height="22" fill="#4c78a8" rx="3"/>
<text x="443.64" y="174" class="value">97.05</text>
<text x="10" y="206" class="label">ubi.com</text>
<rect x="180" y="190" width="265.91" height="22" fill="#4c78a8" rx="3"/>
<text x="453.91" y="206" class="value">100.95</text>
<text x="10" y="238" class="label">socialclub.rockstargames.com</text>
<rect x="180" y="222" width="304.13" height="22" fill="#4c78a8" rx="3"/>
<text x="492.13" y="238" class="value">115.46</text>
<text x="10" y="270" class="label">cdn.akamai.steamstatic.com</text>
<rect x="180" y="254" width="349.36" height="22" fill="#4c78a8" rx="3"/>
<text x="537.36" y="270" class="value">132.63</text>
<text x="10" y="302" class="label">origin.com</text>
<rect x="180" y="286" width="361.0" height="22" fill="#4c78a8" rx="3"/>
<text x="549.0" y="302" class="value">137.05</text>
<text x="10" y="334" class="label">fortnite.com</text>
<rect x="180" y="318" width="436.02" height="22" fill="#4c78a8" rx="3"/>
<text x="624.02" y="334" class="value">165.53</text>
<text x="10" y="366" class="label">unrealengine.com</text>
<rect x="180" y="350" width="483.62" height="22" fill="#4c78a8" rx="3"/>
<text x="671.62" y="366" class="value">183.60</text>
<text x="10" y="398" class="label">epicgames.com</text>
<rect x="180" y="382" width="524.32" height="22" fill="#4c78a8" rx="3"/>
<text x="712.32" y="398" class="value">199.05</text>
<text x="10" y="430" class="label">community.akamai.steamstatic.com</text>
<rect x="180" y="414" width="538.2" height="22" fill="#4c78a8" rx="3"/>
<text x="726.2" y="430" class="value">204.32</text>
<text x="10" y="462" class="label">steamcdn-a.akamaihd.net</text>
<rect x="180" y="446" width="566.28" height="22" fill="#4c78a8" rx="3"/>
<text x="754.28" y="462" class="value">214.98</text>
<text x="10" y="494" class="label">store.akamai.steamstatic.com</text>
<rect x="180" y="478" width="580.0" height="22" fill="#4c78a8" rx="3"/>
<text x="768.0" y="494" class="value">220.19</text>
<line x1="180" y1="30" x2="180" y2="520" stroke="#ccc"/>
<line x1="180" y1="520" x2="760" y2="520" stroke="#ccc"/>
</svg>