<svg xmlns="http://www.w3.org/2000/svg" width="800" height="540">
<style> .label{font-family:DejaVu Sans,Verdana,Geneva,sans-serif;font-size:12px;fill:#333} .value{font-family:DejaVu Sans,Verdana,Geneva,sans-serif;font-size:12px;fill:#555} </style>
<text x="10" y="20" class="label">延迟柱状图（越低越好，Top 15），单位 ms</text>
<text x="10" y="46" class="label">eaassets-a.akamaihd.net</text>
<rect x="180" y="30" width="194.86" height="22" fill="#4c78a8" rx="3"/>
<text x="382.86" y="46" class="value">58.82</text>
<text x="10" y="78" class="label">rockstargames.com</text>
<rect x="180" y="62" width="205.79" height="22" fill="#4c78a8" rx="3"/>
<text x="393.78999999999996" y="78" class="value">62.12</text>
<text x="10" y="110" class="label">api.steampowered.com</text>
<rect x="180" y="94" width="282.51" height="22" fill="#4c78a8" rx="3"/>
<text x="470.51" y="110" class="value">85.28</text>
<text x="10" y="142" class="label">ubisoft.com</text>
<rect x="180" y="126" width="316.67" height="22" fill="#4c78a8" rx="3"/>
<text x="504.67" y="142" class="value">95.59</text>
<text x="10" y="174" class="label">community.akamai.steamstatic.com</text>
<rect x="180" y="158" width="319.25" height="22" fill="#4c78a8" rx="3"/>
<text x="507.25" y="174" class="value">96.37</text>
<text x="10" y="206" class="label">store.akamai.steamstatic.com</text>
<rect x="180" y="190" width="343.37" height="22" fill="#4c78a8" rx="3"/>
<text x="531.37" y="206" class="value">103.65</text>
<text x="10" y="238" class="label">ea.com</text>
<rect x="180" y="222" width="382.96" height="22" fill="#4c78a8" rx="3"/>
<text x="570.96" y="238" class="value">115.60</text>
<text x="10" y="270" class="label">blizzard.com</text>
<rect x="180" y="254" width="398.53" height="22" fill="#4c78a8" rx="3"/>
<text x="586.53" y="270" class="value">120.30</text>
<text x="10" y="302" class="label">origin.com</text>
<rect x="180" y="286" width="403.43" height="22" fill="#4c78a8" rx="3"/>
<text x="591.4300000000001" y="302" class="value">121.78</text>
<text x="10" y="334" class="label">battle.net</text>
<rect x="180" y="318" width="407.54" height="22" fill="#4c78a8" rx="3"/>
<text x="595.54" y="334" class="value">123.02</text>
<text x="10" y="366" class="label">socialclub.rockstargames.com</text>
<rect x="180" y="350" width="453.82" height="22" fill="#4c78a8" rx="3"/>
<text x="641.8199999999999" y="366" class="value">136.99</text>
<text x="10" y="398" class="label">ubi.com</text>
<rect x="180" y="382" width="471.14" height="22" fill="#4c78a8" rx="3"/>
<text x="659.14" y="398" class="value">142.22</text>
<text x="10" y="430" class="label">cdn.akamai.steamstatic.com</text>
<rect x="180" y="414" width="479.09" height="22" fill="#4c78a8" rx="3"/>
<text x="667.0899999999999" y="430" class="value">144.62</text>
<text x="10" y="462" class="label">static3.cdn.ubi.com</text>
<rect x="180" y="446" width="495.86" height="22" fill="#4c78a8" rx="3"/>
<text x="683.86" y="462" class="value">149.68</text>
<text x="10" y="494" class="label">steamcdn-a.akamaihd.net</text>
<rect x="180" y="478" width="580.0" height="22" fill="#4c78a8" rx="3"/>
<text x="768.0" y="494" class="value">175.08</text>
<line x1="180" y1="30" x2="180" y2="520" stroke="#ccc"/>
<line x1="180" y1="520" x2="760" y2="520" stroke="#ccc"/>
</svg>