<svg xmlns="http://www.w3.org/2000/svg" width="800" height="540">
<style> .label{font-family:DejaVu Sans,Verdana,Geneva,sans-serif;font-size:12px;fill:#333} .value{font-family:DejaVu Sans,Verdana,Geneva,sans-serif;font-size:12px;fill:#555} </style>
<text x="10" y="20" class="label">延迟柱状图（越低越好，Top 15），单位 ms</text>
<text x="10" y="46" class="label">ubisoft.com</text>
<rect x="180" y="30" width="189.11" height="22" fill="#4c78a8" rx="3"/>
<text x="377.11" y="46" class="value">104.94</text>
<text x="10" y="78" class="label">origin.com</text>
<rect x="180" y="62" width="196.12" height="22" fill="#4c78a8" rx="3"/>
<text x="384.12" y="78" class="value">108.83</text>
<text x="10" y="110" class="label">eaassets-a.akamaihd.net</text>
<rect x="180" y="94" width="198.86" height="22" fill="#4c78a8" rx="3"/>
<text x="386.86" y="110" class="value">110.35</text>
<text x="10" y="142" class="label">rockstargames.com</text>
<rect x="180" y="126" width="231.73" height="22" fill="#4c78a8" rx="3"/>
<text x="419.73" y="142" class="value">128.59</text>
<text x="10" y="174" class="label">steamcdn-a.akamaihd.net</text>
<rect x="180" y="158" width="234.13" height="22" fill="#4c78a8" rx="3"/>
<text x="422.13" y="174" class="value">129.92</text>
<text x="10" y="206" class="label">store.akamai.steamstatic.com</text>
<rect x="180" y="190" width="275.65" height="22" fill="#4c78a8" rx="3"/>
<text x="463.65" y="206" class="value">152.96</text>
<text x="10" y="238" class="label">ea.com</text>
<rect x="180" y="222" width="371.14" height="22" fill="#4c78a8" rx="3"/>
<text x="559.14" y="238" class="value">205.95</text>
<text x="10" y="270" class="label">community.akamai.steamstatic.com</text>
<rect x="180" y="254" width="375.28" height="22" fill="#4c78a8" rx="3"/>
<text x="563.28" y="270" class="value">208.25</text>
<text x="10" y="302" class="label">easyanticheat.net</text>
<rect x="180" y="286" width="380.74" height="22" fill="#4c78a8" rx="3"/>
<text x="568.74" y="302" class="value">211.28</text>
<text x="10" y="334" class="label">static3.cdn.ubi.com</text>
<rect x="180" y="318" width="431.76" height="22" fill="#4c78a8" rx="3"/>
<text x="619.76" y="334" class="value">239.59</text>
<text x="10" y="366" class="label">cdn.cloudflare.steamstatic.com</text>
<rect x="180" y="350" width="482.98" height="22" fill="#4c78a8" rx="3"/>
<text x="670.98" y="366" class="value">268.01</text>
<text x="10" y="398" class="label">ubi.com</text>
<rect x="180" y="382" width="523.25" height="22" fill="#4c78a8" rx="3"/>
<text x="711.25" y="398" class="value">290.36</text>
<text x="10" y="430" class="label">socialclub.rockstargames.com</text>
<rect x="180" y="414" width="562.2" height="22" fill="#4c78a8" rx="3"/>
<text x="750.2" y="430" class="value">311.97</text>
<text x="10" y="462" class="label">blizzard.com</text>
<rect x="180" y="446" width="570.18" height="22" fill="#4c78a8" rx="3"/>
<text x="758.18" y="462" class="value">316.40</text>
<text x="10" y="494" class="label">steam-chat.com</text>
<rect x="180" y="478" width="580.0" height="22" fill="#4c78a8" rx="3"/>
<text x="768.0" y="494" class="value">321.85</text>
<line x1="180" y1="30" x2="180" y2="520" stroke="#ccc"/>
<line x1="180" y1="520" x2="760" y2="520" stroke="#ccc"/>
</svg>