<svg xmlns="http://www.w3.org/2000/svg" width="800" height="540">
<style> .label{font-family:DejaVu Sans,Verdana,Geneva,sans-serif;font-size:12px;fill:#333} .value{font-family:DejaVu Sans,Verdana,Geneva,sans-serif;font-size:12px;fill:#555} </style>
<text x="10" y="20" class="label">延迟柱状图（越低越好，Top 15），单位 ms</text>
<text x="10" y="46" class="label">rockstargames.com</text>
<rect x="180" y="30" width="228.07" height="22" fill="#4c78a8" rx="3"/>
<text x="416.07" y="46" class="value">75.72</text>
<text x="10" y="78" class="label">battle.net</text>
<rect x="180" y="62" width="261.45" height="22" fill="#4c78a8" rx="3"/>
<text x="449.45" y="78" class="value">86.80</text>
<text x="10" y="110" class="label">socialclub.rockstargames.com</text>
<rect x="180" y="94" width="273.73" height="22" fill="#4c78a8" rx="3"/>
<text x="461.73" y="110" class="value">90.88</text>
<text x="10" y="142" class="label">eaassets-a.akamaihd.net</text>
<rect x="180" y="126" width="285.03" height="22" fill="#4c78a8" rx="3"/>
<text x="473.03" y="142" class="value">94.63</text>
<text x="10" y="174" class="label">blizzard.com</text>
<rect x="180" y="158" width="315.45" height="22" fill="#4c78a8" rx="3"/>
<text x="503.45" y="174" class="value">104.73</text>
<text x="10" y="206" class="label">ubi.com</text>
<rect x="180" y="190" width="317.23" height="22" fill="#4c78a8" rx="3"/>
<text x="505.23" y="206" class="value">105.32</text>
<text x="10" y="238" class="label">origin.com</text>
<rect x="180" y="222" width="348.31" height="22" fill="#4c78a8" rx="3"/>
<text x="536.31" y="238" class="value">115.64</text>
<text x="10" y="270" class="label">community.akamai.steamstatic.com</text>
<rect x="180" y="254" width="386.78" height="22" fill="#4c78a8" rx="3"/>
<text x="574.78" y="270" class="value">128.41</text>
<text x="10" y="302" class="label">ubisoft.com</text>
<rect x="180" y="286" width="413.04" height="22" fill="#4c78a8" rx="3"/>
<text x="601.04" y="302" class="value">137.13</text>
<text x="10" y="334" class="label">easyanticheat.net</text>
<rect x="180" y="318" width="429.55" height="22" fill="#4c78a8" rx="3"/>
<text x="617.55" y="334" class="value">142.61</text>
<text x="10" y="366" class="label">ea.com</text>
<rect x="180" y="350" width="442.71" height="22" fill="#4c78a8" rx="3"/>
<text x="630.71" y="366" class="value">146.98</text>
<text x="10" y="398" class="label">www.steamcommunity.com</text>
<rect x="180" y="382" width="493.1" height="22" fill="#4c78a8" rx="3"/>
<text x="681.1" y="398" class="value">163.71</text>
<text x="10" y="430" class="label">static3.cdn.ubi.com</text>
<rect x="180" y="414" width="513.86" height="22" fill="#4c78a8" rx="3"/>
<text x="701.86" y="430" class="value">170.60</text>
<text x="10" y="462" class="label">store.akamai.steamstatic.com</text>
<rect x="180" y="446" width="526.17" height="22" fill="#4c78a8" rx="3"/>
<text x="714.17" y="462" class="value">174.69</text>
<text x="10" y="494" class="label">steamcdn-a.akamaihd.net</text>
<rect x="180" y="478" width="580.0" height="22" fill="#4c78a8" rx="3"/>
<text x="768.0" y="494" class="value">192.56</text>
<line x1="180" y1="30" x2="180" y2="520" stroke="#ccc"/>
<line x1="180" y1="520" x2="760" y2="520" stroke="#ccc"/>
</svg>