<svg xmlns="http://www.w3.org/2000/svg" width="800" height="540">
<style> .label{font-family:DejaVu Sans,Verdana,Geneva,sans-serif;font-size:12px;fill:#333} .value{font-family:DejaVu Sans,Verdana,Geneva,sans-serif;font-size:12px;fill:#555} </style>
<text x="10" y="20" class="label">延迟柱状图（越低越好，Top 15），单位 ms</text>
<text x="10" y="46" class="label">community.akamai.steamstatic.com</text>
<rect x="180" y="30" width="283.83" height="22" fill="#4c78a8" rx="3"/>
<text x="471.83" y="46" class="value">102.10</text>
<text x="10" y="78" class="label">steamcdn-a.akamaihd.net</text>
<rect x="180" y="62" width="298.17" height="22" fill="#4c78a8" rx="3"/>
<text x="486.17" y="78" class="value">107.26</text>
<text x="10" y="110" class="label">eaassets-a.akamaihd.net</text>
<rect x="180" y="94" width="356.55" height="22" fill="#4c78a8" rx="3"/>
<text x="544.55" y="110" class="value">128.26</text>
<text x="10" y="142" class="label">ubi.com</text>
<rect x="180" y="126" width="378.29" height="22" fill="#4c78a8" rx="3"/>
<text x="566.29" y="142" class="value">136.08</text>
<text x="10" y="174" class="label">rockstargames.com</text>
<rect x="180" y="158" width="383.24" height="22" fill="#4c78a8" rx="3"/>
<text x="571.24" y="174" class="value">137.86</text>
<text x="10" y="206" class="label">blizzard.com</text>
<rect x="180" y="190" width="433.28" height="22" fill="#4c78a8" rx="3"/>
<text x="621.28" y="206" class="value">155.86</text>
<text x="10" y="238" class="label">ea.com</text>
<rect x="180" y="222" width="448.4" height="22" fill="#4c78a8" rx="3"/>
<text x="636.4" y="238" class="value">161.30</text>
<text x="10" y="270" class="label">battle.net</text>
<rect x="180" y="254" width="465.25" height="22" fill="#4c78a8" rx="3"/>
<text x="653.25" y="270" class="value">167.36</text>
<text x="10" y="302" class="label">origin.com</text>
<rect x="180" y="286" width="477.06" height="22" fill="#4c78a8" rx="3"/>
<text x="665.06" y="302" class="value">171.61</text>
<text x="10" y="334" class="label">easyanticheat.net</text>
<rect x="180" y="318" width="481.17" height="22" fill="#4c78a8" rx="3"/>
<text x="669.1700000000001" y="334" class="value">173.09</text>
<text x="10" y="366" class="label">ubisoft.com</text>
<rect x="180" y="350" width="530.96" height="22" fill="#4c78a8" rx="3"/>
<text x="718.96" y="366" class="value">191.00</text>
<text x="10" y="398" class="label">socialclub.rockstargames.com</text>
<rect x="180" y="382" width="545.03" height="22" fill="#4c78a8" rx="3"/>
<text x="733.03" y="398" class="value">196.06</text>
<text x="10" y="430" class="label">cdn.akamai.steamstatic.com</text>
<rect x="180" y="414" width="569.66" height="22" fill="#4c78a8" rx="3"/>
<text x="757.66" y="430" class="value">204.92</text>
<text x="10" y="462" class="label">fortnite.com</text>
<rect x="180" y="446" width="575.72" height="22" fill="#4c78a8" rx="3"/>
<text x="763.72" y="462" class="value">207.10</text>
<text x="10" y="494" class="label">static3.cdn.ubi.com</text>
<rect x="180" y="478" width="580.0" height="22" fill="#4c78a8" rx="3"/>
<text x="768.0" y="494" class="value">208.64</text>
<line x1="180" y1="30" x2="180" y2="520" stroke="#ccc"/>
<line x1="180" y1="520" x2="760" y2="520" stroke="#ccc"/>
</svg>