<svg xmlns="http://www.w3.org/2000/svg" width="800" height="540">
<style> .label{font-family:DejaVu Sans,Verdana,Geneva,sans-serif;font-size:12px;fill:#333} .value{font-family:DejaVu Sans,Verdana,Geneva,sans-serif;font-size:12px;fill:#555} </style>
<text x="10" y="20" class="label">延迟柱状图（越低越好，Top 15），单位 ms</text>
<text x="10" y="46" class="label">rockstargames.com</text>
<rect x="180" y="30" width="161.08" height="22" fill="#4c78a8" rx="3"/>
<text x="349.08000000000004" y="46" class="value">63.96</text>
<text x="10" y="78" class="label">eaassets-a.akamaihd.net</text>
<rect x="180" y="62" width="199.46" height="22" fill="#4c78a8" rx="3"/>
<text x="387.46000000000004" y="78" class="value">79.20</text>
<text x="10" y="110" class="label">socialclub.rockstargames.com</text>
<rect x="180" y="94" width="234.27" height="22" fill="#4c78a8" rx="3"/>
<text x="422.27" y="110" class="value">93.02</text>
<text x="10" y="142" class="label">store.akamai.steamstatic.com</text>
<rect x="180" y="126" width="265.02" height="22" fill="#4c78a8" rx="3"/>
<text x="453.02" y="142" class="value">105.23</text>
<text x="10" y="174" class="label">blizzard.com</text>
<rect x="180" y="158" width="290.53" height="22" fill="#4c78a8" rx="3"/>
<text x="478.53" y="174" class="value">115.36</text>
<text x="10" y="206" class="label">battle.net</text>
<rect x="180" y="190" width="313.67" height="22" fill="#4c78a8" rx="3"/>
<text x="501.67" y="206" class="value">124.55</text>
<text x="10" y="238" class="label">ubisoft.com</text>
<rect x="180" y="222" width="357.6" height="22" fill="#4c78a8" rx="3"/>
<text x="545.6" y="238" class="value">141.99</text>
<text x="10" y="270" class="label">ubi.com</text>
<rect x="180" y="254" width="437.71" height="22" fill="#4c78a8" rx="3"/>
<text x="625.71" y="270" class="value">173.80</text>
<text x="10" y="302" class="label">steamcdn-a.akamaihd.net</text>
<rect x="180" y="286" width="448.41" height="22" fill="#4c78a8" rx="3"/>
<text x="636.4100000000001" y="302" class="value">178.05</text>
<text x="10" y="334" class="label">fortnite.com</text>
<rect x="180" y="318" width="476.67" height="22" fill="#4c78a8" rx="3"/>
<text x="664.6700000000001" y="334" class="value">189.27</text>
<text x="10" y="366" class="label">community.akamai.steamstatic.com</text>
<rect x="180" y="350" width="484.53" height="22" fill="#4c78a8" rx="3"/>
<text x="672.53" y="366" class="value">192.39</text>
<text x="10" y="398" class="label">static3.cdn.ubi.com</text>
<rect x="180" y="382" width="499.11" height="22" fill="#4c78a8" rx="3"/>
<text x="687.11" y="398" class="value">198.18</text>
<text x="10" y="430" class="label">epicgames.com</text>
<rect x="180" y="414" width="525.9" height="22" fill="#4c78a8" rx="3"/>
<text x="713.9" y="430" class="value">208.82</text>
<text x="10" y="462" class="label">unrealengine.com</text>
<rect x="180" y="446" width="546.38" height="22" fill="#4c78a8" rx="3"/>
<text x="734.38" y="462" class="value">216.95</text>
<text x="10" y="494" class="label">ea.com</text>
<rect x="180" y="478" width="580.0" height="22" fill="#4c78a8" rx="3"/>
<text x="768.0" y="494" class="value">230.30</text>
<line x1="180" y1="30" x2="180" y2="520" stroke="#ccc"/>
<line x1="180" y1="520" x2="760" y2="520" stroke="#ccc"/>
</svg>