<svg xmlns="http://www.w3.org/2000/svg" width="800" height="540">
<style> .label{font-family:DejaVu Sans,Verdana,Geneva,sans-serif;font-size:12px;fill:#333} .value{font-family:DejaVu Sans,Verdana,Geneva,sans-serif;font-size:12px;fill:#555} </style>
<text x="10" y="20" class="label">延迟柱状图（越低越好，Top 15），单位 ms</text>
<text x="10" y="46" class="label">eaassets-a.akamaihd.net</text>
<rect x="180" y="30" width="338.15" height="22" fill="#4c78a8" rx="3"/>
<text x="526.15" y="46" class="value">134.06</text>
<text x="10" y="78" class="label">steamcdn-a.akamaihd.net</text>
<rect x="180" y="62" width="346.63" height="22" fill="#4c78a8" rx="3"/>
<text x="534.63" y="78" class="value">137.42</text>
<text x="10" y="110" class="label">steam-chat.com</text>
<rect x="180" y="94" width="389.79" height="22" fill="#4c78a8" rx="3"/>
<text x="577.79" y="110" class="value">154.53</text>
<text x="10" y="142" class="label">community.akamai.steamstatic.com</text>
<rect x="180" y="126" width="390.34" height="22" fill="#4c78a8" rx="3"/>
<text x="578.3399999999999" y="142" class="value">154.75</text>
<text x="10" y="174" class="label">store.akamai.steamstatic.com</text>
<rect x="180" y="158" width="391.83" height="22" fill="#4c78a8" rx="3"/>
<text x="579.8299999999999" y="174" class="value">155.34</text>
<text x="10" y="206" class="label">origin.com</text>
<rect x="180" y="190" width="419.85" height="22" fill="#4c78a8" rx="3"/>
<text x="607.85" y="206" class="value">166.45</text>
<text x="10" y="238" class="label">cdn.akamai.steamstatic.com</text>
<rect x="180" y="222" width="433.07" height="22" fill="#4c78a8" rx="3"/>
<text x="621.0699999999999" y="238" class="value">171.69</text>
<text x="10" y="270" class="label">cdn.cloudflare.steamstatic.com</text>
<rect x="180" y="254" width="438.22" height="22" fill="#4c78a8" rx="3"/>
<text x="626.22" y="270" class="value">173.73</text>
<text x="10" y="302" class="label">rockstargames.com</text>
<rect x="180" y="286" width="518.3" height="22" fill="#4c78a8" rx="3"/>
<text x="706.3" y="302" class="value">205.48</text>
<text x="10" y="334" class="label">ubisoft.com</text>
<rect x="180" y="318" width="527.64" height="22" fill="#4c78a8" rx="3"/>
<text x="715.64" y="334" class="value">209.18</text>
<text x="10" y="366" class="label">www.steamcommunity.com</text>
<rect x="180" y="350" width="547.11" height="22" fill="#4c78a8" rx="3"/>
<text x="735.11" y="366" class="value">216.90</text>
<text x="10" y="398" class="label">api.steampowered.com</text>
<rect x="180" y="382" width="554.25" height="22" fill="#4c78a8" rx="3"/>
<text x="742.25" y="398" class="value">219.73</text>
<text x="10" y="430" class="label">easyanticheat.net</text>
<rect x="180" y="414" width="568.98" height="22" fill="#4c78a8" rx="3"/>
<text x="756.98" y="430" class="value">225.57</text>
<text x="10" y="462" class="label">blizzard.com</text>
<rect x="180" y="446" width="575.41" height="22" fill="#4c78a8" rx="3"/>
<text x="763.41" y="462" class="value">228.12</text>
<text x="10" y="494" class="label">battle.net</text>
<rect x="180" y="478" width="580.0" height="22" fill="#4c78a8" rx="3"/>
<text x="768.0" y="494" class="value">229.94</text>
<line x1="180" y1="30" x2="180" y2="520" stroke="#ccc"/>
<line x1="180" y1="520" x2="760" y2="520" stroke="#ccc"/>
</svg>