<svg xmlns="http://www.w3.org/2000/svg" width="800" height="540">
<style> .label{font-family:DejaVu Sans,Verdana,Geneva,sans-serif;font-size:12px;fill:#333} .value{font-family:DejaVu Sans,Verdana,Geneva,sans-serif;font-size:12px;fill:#555} </style>
<text x="10" y="20" class="label">延迟柱状图（越低越好，Top 15），单位 ms</text>
<text x="10" y="46" class="label">eaassets-a.akamaihd.net</text>
<rect x="180" y="30" width="267.36" height="22" fill="#4c78a8" rx="3"/>
<text x="455.36" y="46" class="value">118.74</text>
<text x="10" y="78" class="label">cdn.cloudflare.steamstatic.com</text>
<rect x="180" y="62" width="301.99" height="22" fill="#4c78a8" rx="3"/>
<text x="489.99" y="78" class="value">134.12</text>
<text x="10" y="110" class="label">community.akamai.steamstatic.com</text>
<rect x="180" y="94" width="331.33" height="22" fill="#4c78a8" rx="3"/>
<text x="519.3299999999999" y="110" class="value">147.15</text>
<text x="10" y="142" class="label">store.akamai.steamstatic.com</text>
<rect x="180" y="126" width="333.36" height="22" fill="#4c78a8" rx="3"/>
<text x="521.36" y="142" class="value">148.05</text>
<text x="10" y="174" class="label">rockstargames.com</text>
<rect x="180" y="158" width="358.8" height="22" fill="#4c78a8" rx="3"/>
<text x="546.8" y="174" class="value">159.35</text>
<text x="10" y="206" class="label">steamcdn-a.akamaihd.net</text>
<rect x="180" y="190" width="364.43" height="22" fill="#4c78a8" rx="3"/>
<text x="552.4300000000001" y="206" class="value">161.85</text>
<text x="10" y="238" class="label">origin.com</text>
<rect x="180" y="222" width="459.0" height="22" fill="#4c78a8" rx="3"/>
<text x="647.0" y="238" class="value">203.85</text>
<text x="10" y="270" class="label">battle.net</text>
<rect x="180" y="254" width="469.35" height="22" fill="#4c78a8" rx="3"/>
<text x="657.35" y="270" class="value">208.45</text>
<text x="10" y="302" class="label">cdn.akamai.steamstatic.com</text>
<rect x="180" y="286" width="480.18" height="22" fill="#4c78a8" rx="3"/>
<text x="668.1800000000001" y="302" class="value">213.26</text>
<text x="10" y="334" class="label">steam-chat.com</text>
<rect x="180" y="318" width="488.97" height="22" fill="#4c78a8" rx="3"/>
<text x="676.97" y="334" class="value">217.16</text>
<text x="10" y="366" class="label">ubisoft.com</text>
<rect x="180" y="350" width="502.18" height="22" fill="#4c78a8" rx="3"/>
<text x="690.1800000000001" y="366" class="value">223.03</text>
<text x="10" y="398" class="label">easyanticheat.net</text>
<rect x="180" y="382" width="505.49" height="22" fill="#4c78a8" rx="3"/>
<text x="693.49" y="398" class="value">224.50</text>
<text x="10" y="430" class="label">ubi.com</text>
<rect x="180" y="414" width="510.87" height="22" fill="#4c78a8" rx="3"/>
<text x="698.87" y="430" class="value">226.89</text>
<text x="10" y="462" class="label">www.steamcommunity.com</text>
<rect x="180" y="446" width="551.49" height="22" fill="#4c78a8" rx="3"/>
<text x="739.49" y="462" class="value">244.93</text>
<text x="10" y="494" class="label">steamcommunity.com</text>
<rect x="180" y="478" width="580.0" height="22" fill="#4c78a8" rx="3"/>
<text x="768.0" y="494" class="value">257.59</text>
<line x1="180" y1="30" x2="180" y2="520" stroke="#ccc"/>
<line x1="180" y1="520" x2="760" y2="520" stroke="#ccc"/>
</svg>