<svg xmlns="http://www.w3.org/2000/svg" width="800" height="540">
<style> .label{font-family:DejaVu Sans,Verdana,Geneva,sans-serif;font-size:12px;fill:#333} .value{font-family:DejaVu Sans,Verdana,Geneva,sans-serif;font-size:12px;fill:#555} </style>
<text x="10" y="20" class="label">延迟柱状图（越低越好，Top 15），单位 ms</text>
<text x="10" y="46" class="label">rockstargames.com</text>
<rect x="180" y="30" width="125.91" height="22" fill="#4c78a8" rx="3"/>
<text x="313.90999999999997" y="46" class="value">72.86</text>
<text x="10" y="78" class="label">community.akamai.steamstatic.com</text>
<rect x="180" y="62" width="169.48" height="22" fill="#4c78a8" rx="3"/>
<text x="357.48" y="78" class="value">98.07</text>
<text x="10" y="110" class="label">ubisoft.com</text>
<rect x="180" y="94" width="214.7" height="22" fill="#4c78a8" rx="3"/>
<text x="402.7" y="110" class="value">124.24</text>
<text x="10" y="142" class="label">eaassets-a.akamaihd.net</text>
<rect x="180" y="126" width="221.55" height="22" fill="#4c78a8" rx="3"/>
<text x="409.55" y="142" class="value">128.20</text>
<text x="10" y="174" class="label">ea.com</text>
<rect x="180" y="158" width="258.67" height="22" fill="#4c78a8" rx="3"/>
<text x="446.67" y="174" class="value">149.68</text>
<text x="10" y="206" class="label">store.akamai.steamstatic.com</text>
<rect x="180" y="190" width="260.33" height="22" fill="#4c78a8" rx="3"/>
<text x="448.33" y="206" class="value">150.64</text>
<text x="10" y="238" class="label">steamcdn-a.akamaihd.net</text>
<rect x="180" y="222" width="393.86" height="22" fill="#4c78a8" rx="3"/>
<text x="581.86" y="238" class="value">227.91</text>
<text x="10" y="270" class="label">ubi.com</text>
<rect x="180" y="254" width="434.68" height="22" fill="#4c78a8" rx="3"/>
<text x="622.6800000000001" y="270" class="value">251.53</text>
<text x="10" y="302" class="label">cdn.akamai.steamstatic.com</text>
<rect x="180" y="286" width="450.23" height="22" fill="#4c78a8" rx="3"/>
<text x="638.23" y="302" class="value">260.53</text>
<text x="10" y="334" class="label">origin.com</text>
<rect x="180" y="318" width="464.78" height="22" fill="#4c78a8" rx="3"/>
<text x="652.78" y="334" class="value">268.95</text>
<text x="10" y="366" class="label">easyanticheat.net</text>
<rect x="180" y="350" width="513.67" height="22" fill="#4c78a8" rx="3"/>
<text x="701.67" y="366" class="value">297.24</text>
<text x="10" y="398" class="label">blizzard.com</text>
<rect x="180" y="382" width="564.14" height="22" fill="#4c78a8" rx="3"/>
<text x="752.14" y="398" class="value">326.44</text>
<text x="10" y="430" class="label">battle.net</text>
<rect x="180" y="414" width="575.8" height="22" fill="#4c78a8" rx="3"/>
<text x="763.8" y="430" class="value">333.19</text>
<text x="10" y="462" class="label">socialclub.rockstargames.com</text>
<rect x="180" y="446" width="576.84" height="22" fill="#4c78a8" rx="3"/>
<text x="764.84" y="462" class="value">333.79</text>
<text x="10" y="494" class="label">cdn.cloudflare.steamstatic.com</text>
<rect x="180" y="478" width="580.0" height="22" fill="#4c78a8" rx="3"/>
<text x="768.0" y="494" class="value">335.62</text>
<line x1="180" y1="30" x2="180" y2="520" stroke="#ccc"/>
<line x1="180" y1="520" x2="760" y2="520" stroke="#ccc"/>
</svg>