<svg xmlns="http://www.w3.org/2000/svg" width="800" height="540">
<style> .label{font-family:DejaVu Sans,Verdana,Geneva,sans-serif;font-size:12px;fill:#333} .value{font-family:DejaVu Sans,Verdana,Geneva,sans-serif;font-size:12px;fill:#555} </style>
<text x="10" y="20" class="label">延迟柱状图（越低越好，Top 15），单位 ms</text>
<text x="10" y="46" class="label">rockstargames.com</text>
<rect x="180" y="30" width="105.57" height="22" fill="#4c78a8" rx="3"/>
<text x="293.57" y="46" class="value">53.75</text>
<text x="10" y="78" class="label">eaassets-a.akamaihd.net</text>
<rect x="180" y="62" width="123.07" height="22" fill="#4c78a8" rx="3"/>
<text x="311.07" y="78" class="value">62.66</text>
<text x="10" y="110" class="label">ubisoft.com</text>
<rect x="180" y="94" width="155.67" height="22" fill="#4c78a8" rx="3"/>
<text x="343.66999999999996" y="110" class="value">79.26</text>
<text x="10" y="142" class="label">cdn.akamai.steamstatic.com</text>
<rect x="180" y="126" width="173.59" height="22" fill="#4c78a8" rx="3"/>
<text x="361.59000000000003" y="142" class="value">88.38</text>
<text x="10" y="174" class="label">ea.com</text>
<rect x="180" y="158" width="218.96" height="22" fill="#4c78a8" rx="3"/>
<text x="406.96000000000004" y="174" class="value">111.48</text>
<text x="10" y="206" class="label">origin.com</text>
<rect x="180" y="190" width="247.38" height="22" fill="#4c78a8" rx="3"/>
<text x="435.38" y="206" class="value">125.95</text>
<text x="10" y="238" class="label">cdn.cloudflare.steamstatic.com</text>
<rect x="180" y="222" width="276.92" height="22" fill="#4c78a8" rx="3"/>
<text x="464.92" y="238" class="value">140.99</text>
<text x="10" y="270" class="label">community.akamai.steamstatic.com</text>
<rect x="180" y="254" width="282.48" height="22" fill="#4c78a8" rx="3"/>
<text x="470.48" y="270" class="value">143.82</text>
<text x="10" y="302" class="label">store.akamai.steamstatic.com</text>
<rect x="180" y="286" width="306.73" height="22" fill="#4c78a8" rx="3"/>
<text x="494.73" y="302" class="value">156.17</text>
<text x="10" y="334" class="label">steamcdn-a.akamaihd.net</text>
<rect x="180" y="318" width="312.35" height="22" fill="#4c78a8" rx="3"/>
<text x="500.35" y="334" class="value">159.03</text>
<text x="10" y="366" class="label">easyanticheat.net</text>
<rect x="180" y="350" width="361.43" height="22" fill="#4c78a8" rx="3"/>
<text x="549.4300000000001" y="366" class="value">184.02</text>
<text x="10" y="398" class="label">gog.com</text>
<rect x="180" y="382" width="503.14" height="22" fill="#4c78a8" rx="3"/>
<text x="691.14" y="398" class="value">256.17</text>
<text x="10" y="430" class="label">www.steamcommunity.com</text>
<rect x="180" y="414" width="505.34" height="22" fill="#4c78a8" rx="3"/>
<text x="693.3399999999999" y="430" class="value">257.29</text>
<text x="10" y="462" class="label">blizzard.com</text>
<rect x="180" y="446" width="562.36" height="22" fill="#4c78a8" rx="3"/>
<text x="750.36" y="462" class="value">286.32</text>
<text x="10" y="494" class="label">battle.net</text>
<rect x="180" y="478" width="580.0" height="22" fill="#4c78a8" rx="3"/>
<text x="768.0" y="494" class="value">295.30</text>
<line x1="180" y1="30" x2="180" y2="520" stroke="#ccc"/>
<line x1="180" y1="520" x2="760" y2="520" stroke="#ccc"/>
</svg>