<svg xmlns="http://www.w3.org/2000/svg" width="800" height="540">
<style> .label{font-family:DejaVu Sans,Verdana,Geneva,sans-serif;font-size:12px;fill:#333} .value{font-family:DejaVu Sans,Verdana,Geneva,sans-serif;font-size:12px;fill:#555} </style>
<text x="10" y="20" class="label">延迟柱状图（越低越好，Top 15），单位 ms</text>
<text x="10" y="46" class="label">rockstargames.com</text>
<rect x="180" y="30" width="83.49" height="22" fill="#4c78a8" rx="3"/>
<text x="271.49" y="46" class="value">32.30</text>
<text x="10" y="78" class="label">ea.com</text>
<rect x="180" y="62" width="218.19" height="22" fill="#4c78a8" rx="3"/>
<text x="406.19" y="78" class="value">84.41</text>
<text x="10" y="110" class="label">cdn.akamai.steamstatic.com</text>
<rect x="180" y="94" width="223.46" height="22" fill="#4c78a8" rx="3"/>
<text x="411.46000000000004" y="110" class="value">86.45</text>
<text x="10" y="142" class="label">eaassets-a.akamaihd.net</text>
<rect x="180" y="126" width="224.42" height="22" fill="#4c78a8" rx="3"/>
<text x="412.41999999999996" y="142" class="value">86.82</text>
<text x="10" y="174" class="label">cdn.cloudflare.steamstatic.com</text>
<rect x="180" y="158" width="254.59" height="22" fill="#4c78a8" rx="3"/>
<text x="442.59000000000003" y="174" class="value">98.49</text>
<text x="10" y="206" class="label">steamcdn-a.akamaihd.net</text>
<rect x="180" y="190" width="309.36" height="22" fill="#4c78a8" rx="3"/>
<text x="497.36" y="206" class="value">119.68</text>
<text x="10" y="238" class="label">store.akamai.steamstatic.com</text>
<rect x="180" y="222" width="354.05" height="22" fill="#4c78a8" rx="3"/>
<text x="542.05" y="238" class="value">136.97</text>
<text x="10" y="270" class="label">community.akamai.steamstatic.com</text>
<rect x="180" y="254" width="355.73" height="22" fill="#4c78a8" rx="3"/>
<text x="543.73" y="270" class="value">137.62</text>
<text x="10" y="302" class="label">ubisoft.com</text>
<rect x="180" y="286" width="359.59" height="22" fill="#4c78a8" rx="3"/>
<text x="547.5899999999999" y="302" class="value">139.11</text>
<text x="10" y="334" class="label">easyanticheat.net</text>
<rect x="180" y="318" width="428.65" height="22" fill="#4c78a8" rx="3"/>
<text x="616.65" y="334" class="value">165.83</text>
<text x="10" y="366" class="label">origin.com</text>
<rect x="180" y="350" width="460.66" height="22" fill="#4c78a8" rx="3"/>
<text x="648.6600000000001" y="366" class="value">178.21</text>
<text x="10" y="398" class="label">www.steamcommunity.com</text>
<rect x="180" y="382" width="469.19" height="22" fill="#4c78a8" rx="3"/>
<text x="657.19" y="398" class="value">181.51</text>
<text x="10" y="430" class="label">steam-chat.com</text>
<rect x="180" y="414" width="499.48" height="22" fill="#4c78a8" rx="3"/>
<text x="687.48" y="430" class="value">193.23</text>
<text x="10" y="462" class="label">launcher-public-service-prod06.ol.epicgames.com</text>
<rect x="180" y="446" width="566.02" height="22" fill="#4c78a8" rx="3"/>
<text x="754.02" y="462" class="value">218.97</text>
<text x="10" y="494" class="label">api.steampowered.com</text>
<rect x="180" y="478" width="580.0" height="22" fill="#4c78a8" rx="3"/>
<text x="768.0" y="494" class="value">224.38</text>
<line x1="180" y1="30" x2="180" y2="520" stroke="#ccc"/>
<line x1="180" y1="520" x2="760" y2="520" stroke="#ccc"/>
</svg>