<svg xmlns="http://www.w3.org/2000/svg" width="800" height="540">
<style> .label{font-family:DejaVu Sans,Verdana,Geneva,sans-serif;font-size:12px;fill:#333} .value{font-family:DejaVu Sans,Verdana,Geneva,sans-serif;font-size:12px;fill:#555} </style>
<text x="10" y="20" class="label">延迟柱状图（越低越好，Top 15），单位 ms</text>
<text x="10" y="46" class="label">rockstargames.com</text>
<rect x="180" y="30" width="139.57" height="22" fill="#4c78a8" rx="3"/>
<text x="327.57" y="46" class="value">68.55</text>
<text x="10" y="78" class="label">ubisoft.com</text>
<rect x="180" y="62" width="227.61" height="22" fill="#4c78a8" rx="3"/>
<text x="415.61" y="78" class="value">111.79</text>
<text x="10" y="110" class="label">steamcdn-a.akamaihd.net</text>
<rect x="180" y="94" width="229.93" height="22" fill="#4c78a8" rx="3"/>
<text x="417.93" y="110" class="value">112.93</text>
<text x="10" y="142" class="label">eaassets-a.akamaihd.net</text>
<rect x="180" y="126" width="243.18" height="22" fill="#4c78a8" rx="3"/>
<text x="431.18" y="142" class="value">119.44</text>
<text x="10" y="174" class="label">community.akamai.steamstatic.com</text>
<rect x="180" y="158" width="258.37" height="22" fill="#4c78a8" rx="3"/>
<text x="446.37" y="174" class="value">126.90</text>
<text x="10" y="206" class="label">ea.com</text>
<rect x="180" y="190" width="264.66" height="22" fill="#4c78a8" rx="3"/>
<text x="452.66" y="206" class="value">129.99</text>
<text x="10" y="238" class="label">store.akamai.steamstatic.com</text>
<rect x="180" y="222" width="300.39" height="22" fill="#4c78a8" rx="3"/>
<text x="488.39" y="238" class="value">147.54</text>
<text x="10" y="270" class="label">cdn.akamai.steamstatic.com</text>
<rect x="180" y="254" width="341.34" height="22" fill="#4c78a8" rx="3"/>
<text x="529.3399999999999" y="270" class="value">167.65</text>
<text x="10" y="302" class="label">origin.com</text>
<rect x="180" y="286" width="352.94" height="22" fill="#4c78a8" rx="3"/>
<text x="540.94" y="302" class="value">173.35</text>
<text x="10" y="334" class="label">easyanticheat.net</text>
<rect x="180" y="318" width="426.08" height="22" fill="#4c78a8" rx="3"/>
<text x="614.0799999999999" y="334" class="value">209.27</text>
<text x="10" y="366" class="label">steam-chat.com</text>
<rect x="180" y="350" width="477.0" height="22" fill="#4c78a8" rx="3"/>
<text x="665.0" y="366" class="value">234.28</text>
<text x="10" y="398" class="label">api.steampowered.com</text>
<rect x="180" y="382" width="489.97" height="22" fill="#4c78a8" rx="3"/>
<text x="677.97" y="398" class="value">240.65</text>
<text x="10" y="430" class="label">launcher-public-service-prod06.ol.epicgames.com</text>
<rect x="180" y="414" width="519.86" height="22" fill="#4c78a8" rx="3"/>
<text x="707.86" y="430" class="value">255.33</text>
<text x="10" y="462" class="label">ubi.com</text>
<rect x="180" y="446" width="554.08" height="22" fill="#4c78a8" rx="3"/>
<text x="742.08" y="462" class="value">272.14</text>
<text x="10" y="494" class="label">www.steamcommunity.com</text>
<rect x="180" y="478" width="580.0" height="22" fill="#4c78a8" rx="3"/>
<text x="768.0" y="494" class="value">284.87</text>
<line x1="180" y1="30" x2="180" y2="520" stroke="#ccc"/>
<line x1="180" y1="520" x2="760" y2="520" stroke="#ccc"/>
</svg>