<svg xmlns="http://www.w3.org/2000/svg" width="800" height="540">
<style> .label{font-family:DejaVu Sans,Verdana,Geneva,sans-serif;font-size:12px;fill:#333} .value{font-family:DejaVu Sans,Verdana,Geneva,sans-serif;font-size:12px;fill:#555} </style>
<text x="10" y="20" class="label">延迟柱状图（越低越好，Top 15），单位 ms</text>
<text x="10" y="46" class="label">eaassets-a.akamaihd.net</text>
<rect x="180" y="30" width="84.65" height="22" fill="#4c78a8" rx="3"/>
<text x="272.65" y="46" class="value">39.70</text>
<text x="10" y="78" class="label">rockstargames.com</text>
<rect x="180" y="62" width="101.97" height="22" fill="#4c78a8" rx="3"/>
<text x="289.97" y="78" class="value">47.82</text>
<text x="10" y="110" class="label">community.akamai.steamstatic.com</text>
<rect x="180" y="94" width="155.98" height="22" fill="#4c78a8" rx="3"/>
<text x="343.98" y="110" class="value">73.15</text>
<text x="10" y="142" class="label">ea.com</text>
<rect x="180" y="126" width="172.61" height="22" fill="#4c78a8" rx="3"/>
<text x="360.61" y="142" class="value">80.95</text>
<text x="10" y="174" class="label">steamcdn-a.akamaihd.net</text>
<rect x="180" y="158" width="209.09" height="22" fill="#4c78a8" rx="3"/>
<text x="397.09000000000003" y="174" class="value">98.06</text>
<text x="10" y="206" class="label">ubisoft.com</text>
<rect x="180" y="190" width="214.25" height="22" fill="#4c78a8" rx="3"/>
<text x="402.25" y="206" class="value">100.48</text>
<text x="10" y="238" class="label">store.akamai.steamstatic.com</text>
<rect x="180" y="222" width="215.96" height="22" fill="#4c78a8" rx="3"/>
<text x="403.96000000000004" y="238" class="value">101.28</text>
<text x="10" y="270" class="label">cdn.akamai.steamstatic.com</text>
<rect x="180" y="254" width="314.57" height="22" fill="#4c78a8" rx="3"/>
<text x="502.57" y="270" class="value">147.53</text>
<text x="10" y="302" class="label">easyanticheat.net</text>
<rect x="180" y="286" width="386.13" height="22" fill="#4c78a8" rx="3"/>
<text x="574.13" y="302" class="value">181.09</text>
<text x="10" y="334" class="label">origin.com</text>
<rect x="180" y="318" width="390.97" height="22" fill="#4c78a8" rx="3"/>
<text x="578.97" y="334" class="value">183.36</text>
<text x="10" y="366" class="label">cdn.cloudflare.steamstatic.com</text>
<rect x="180" y="350" width="440.55" height="22" fill="#4c78a8" rx="3"/>
<text x="628.55" y="366" class="value">206.61</text>
<text x="10" y="398" class="label">steam-chat.com</text>
<rect x="180" y="382" width="468.55" height="22" fill="#4c78a8" rx="3"/>
<text x="656.55" y="398" class="value">219.74</text>
<text x="10" y="430" class="label">www.steamcommunity.com</text>
<rect x="180" y="414" width="488.14" height="22" fill="#4c78a8" rx="3"/>
<text x="676.14" y="430" class="value">228.93</text>
<text x="10" y="462" class="label">api.steampowered.com</text>
<rect x="180" y="446" width="496.35" height="22" fill="#4c78a8" rx="3"/>
<text x="684.35" y="462" class="value">232.78</text>
<text x="10" y="494" class="label">launcher-public-service-prod06.ol.epicgames.com</text>
<rect x="180" y="478" width="580.0" height="22" fill="#4c78a8" rx="3"/>
<text x="768.0" y="494" class="value">272.01</text>
<line x1="180" y1="30" x2="180" y2="520" stroke="#ccc"/>
<line x1="180" y1="520" x2="760" y2="520" stroke="#ccc"/>
</svg>