<svg xmlns="http://www.w3.org/2000/svg" width="800" height="540">
<style> .label{font-family:DejaVu Sans,Verdana,Geneva,sans-serif;font-size:12px;fill:#333} .value{font-family:DejaVu Sans,Verdana,Geneva,sans-serif;font-size:12px;fill:#555} </style>
<text x="10" y="20" class="label">延迟柱状图（越低越好，Top 15），单位 ms</text>
<text x="10" y="46" class="label">rockstargames.com</text>
<rect x="180" y="30" width="134.65" height="22" fill="#4c78a8" rx="3"/>
<text x="322.65" y="46" class="value">49.58</text>
<text x="10" y="78" class="label">socialclub.rockstargames.com</text>
<rect x="180" y="62" width="245.34" height="22" fill="#4c78a8" rx="3"/>
<text x="433.34000000000003" y="78" class="value">90.34</text>
<text x="10" y="110" class="label">eaassets-a.akamaihd.net</text>
<rect x="180" y="94" width="260.77" height="22" fill="#4c78a8" rx="3"/>
<text x="448.77" y="110" class="value">96.02</text>
<text x="10" y="142" class="label">epicgames.com</text>
<rect x="180" y="126" width="265.98" height="22" fill="#4c78a8" rx="3"/>
<text x="453.98" y="142" class="value">97.94</text>
<text x="10" y="174" class="label">blizzard.com</text>
<rect x="180" y="158" width="287.46" height="22" fill="#4c78a8" rx="3"/>
<text x="475.46" y="174" class="value">105.85</text>
<text x="10" y="206" class="label">battle.net</text>
<rect x="180" y="190" width="301.37" height="22" fill="#4c78a8" rx="3"/>
<text x="489.37" y="206" class="value">110.97</text>
<text x="10" y="238" class="label">cdn.akamai.steamstatic.com</text>
<rect x="180" y="222" width="328.74" height="22" fill="#4c78a8" rx="3"/>
<text x="516.74" y="238" class="value">121.05</text>
<text x="10" y="270" class="label">ubi.com</text>
<rect x="180" y="254" width="332.92" height="22" fill="#4c78a8" rx="3"/>
<text x="520.9200000000001" y="270" class="value">122.59</text>
<text x="10" y="302" class="label">origin.com</text>
<rect x="180" y="286" width="342.02" height="22" fill="#4c78a8" rx="3"/>
<text x="530.02" y="302" class="value">125.94</text>
<text x="10" y="334" class="label">ea.com</text>
<rect x="180" y="318" width="373.33" height="22" fill="#4c78a8" rx="3"/>
<text x="561.3299999999999" y="334" class="value">137.47</text>
<text x="10" y="366" class="label">easyanticheat.net</text>
<rect x="180" y="350" width="398.81" height="22" fill="#4c78a8" rx="3"/>
<text x="586.81" y="366" class="value">146.85</text>
<text x="10" y="398" class="label">ubisoft.com</text>
<rect x="180" y="382" width="424.36" height="22" fill="#4c78a8" rx="3"/>
<text x="612.36" y="398" class="value">156.26</text>
<text x="10" y="430" class="label">fortnite.com</text>
<rect x="180" y="414" width="537.88" height="22" fill="#4c78a8" rx="3"/>
<text x="725.88" y="430" class="value">198.06</text>
<text x="10" y="462" class="label">steam-chat.com</text>
<rect x="180" y="446" width="569.35" height="22" fill="#4c78a8" rx="3"/>
<text x="757.35" y="462" class="value">209.65</text>
<text x="10" y="494" class="label">unrealengine.com</text>
<rect x="180" y="478" width="580.0" height="22" fill="#4c78a8" rx="3"/>
<text x="768.0" y="494" class="value">213.57</text>
<line x1="180" y1="30" x2="180" y2="520" stroke="#ccc"/>
<line x1="180" y1="520" x2="760" y2="520" stroke="#ccc"/>
</svg>