<svg xmlns="http://www.w3.org/2000/svg" width="800" height="540">
<style> .label{font-family:DejaVu Sans,Verdana,Geneva,sans-serif;font-size:12px;fill:#333} .value{font-family:DejaVu Sans,Verdana,Geneva,sans-serif;font-size:12px;fill:#555} </style>
<text x="10" y="20" class="label">延迟柱状图（越低越好，Top 15），单位 ms</text>
<text x="10" y="46" class="label">rockstargames.com</text>
<rect x="180" y="30" width="126.28" height="22" fill="#4c78a8" rx="3"/>
<text x="314.28" y="46" class="value">49.04</text>
<text x="10" y="78" class="label">battle.net</text>
<rect x="180" y="62" width="170.98" height="22" fill="#4c78a8" rx="3"/>
<text x="358.98" y="78" class="value">66.40</text>
<text x="10" y="110" class="label">blizzard.com</text>
<rect x="180" y="94" width="189.03" height="22" fill="#4c78a8" rx="3"/>
<text x="377.03" y="110" class="value">73.41</text>
<text x="10" y="142" class="label">ubi.com</text>
<rect x="180" y="126" width="218.34" height="22" fill="#4c78a8" rx="3"/>
<text x="406.34000000000003" y="142" class="value">84.79</text>
<text x="10" y="174" class="label">socialclub.rockstargames.com</text>
<rect x="180" y="158" width="224.59" height="22" fill="#4c78a8" rx="3"/>
<text x="412.59000000000003" y="174" class="value">87.22</text>
<text x="10" y="206" class="label">ea.com</text>
<rect x="180" y="190" width="242.9" height="22" fill="#4c78a8" rx="3"/>
<text x="430.9" y="206" class="value">94.33</text>
<text x="10" y="238" class="label">eaassets-a.akamaihd.net</text>
<rect x="180" y="222" width="273.19" height="22" fill="#4c78a8" rx="3"/>
<text x="461.19" y="238" class="value">106.09</text>
<text x="10" y="270" class="label">fortnite.com</text>
<rect x="180" y="254" width="275.86" height="22" fill="#4c78a8" rx="3"/>
<text x="463.86" y="270" class="value">107.13</text>
<text x="10" y="302" class="label">community.akamai.steamstatic.com</text>
<rect x="180" y="286" width="467.63" height="22" fill="#4c78a8" rx="3"/>
<text x="655.63" y="302" class="value">181.60</text>
<text x="10" y="334" class="label">unrealengine.com</text>
<rect x="180" y="318" width="472.21" height="22" fill="#4c78a8" rx="3"/>
<text x="660.21" y="334" class="value">183.38</text>
<text x="10" y="366" class="label">origin.com</text>
<rect x="180" y="350" width="517.66" height="22" fill="#4c78a8" rx="3"/>
<text x="705.66" y="366" class="value">201.03</text>
<text x="10" y="398" class="label">www.steamcommunity.com</text>
<rect x="180" y="382" width="547.71" height="22" fill="#4c78a8" rx="3"/>
<text x="735.71" y="398" class="value">212.70</text>
<text x="10" y="430" class="label">cdn.cloudflare.steamstatic.com</text>
<rect x="180" y="414" width="552.81" height="22" fill="#4c78a8" rx="3"/>
<text x="740.81" y="430" class="value">214.68</text>
<text x="10" y="462" class="label">ubisoft.com</text>
<rect x="180" y="446" width="553.07" height="22" fill="#4c78a8" rx="3"/>
<text x="741.07" y="462" class="value">214.78</text>
<text x="10" y="494" class="label">cdn.akamai.steamstatic.com</text>
<rect x="180" y="478" width="580.0" height="22" fill="#4c78a8" rx="3"/>
<text x="768.0" y="494" class="value">225.24</text>
<line x1="180" y1="30" x2="180" y2="520" stroke="#ccc"/>
<line x1="180" y1="520" x2="760" y2="520" stroke="#ccc"/>
</svg>