<svg xmlns="http://www.w3.org/2000/svg" width="800" height="540">
<style> .label{font-family:DejaVu Sans,Verdana,Geneva,sans-serif;font-size:12px;fill:#333} .value{font-family:DejaVu Sans,Verdana,Geneva,sans-serif;font-size:12px;fill:#555} </style>
<text x="10" y="20" class="label">延迟柱状图（越低越好，Top 15），单位 ms</text>
<text x="10" y="46" class="label">origin.com</text>
<rect x="180" y="30" width="328.25" height="22" fill="#4c78a8" rx="3"/>
<text x="516.25" y="46" class="value">122.94</text>
<text x="10" y="78" class="label">rockstargames.com</text>
<rect x="180" y="62" width="366.64" height="22" fill="#4c78a8" rx="3"/>
<text x="554.64" y="78" class="value">137.32</text>
<text x="10" y="110" class="label">community.akamai.steamstatic.com</text>
<rect x="180" y="94" width="370.86" height="22" fill="#4c78a8" rx="3"/>
<text x="558.86" y="110" class="value">138.90</text>
<text x="10" y="142" class="label">eaassets-a.akamaihd.net</text>
<rect x="180" y="126" width="385.92" height="22" fill="#4c78a8" rx="3"/>
<text x="573.9200000000001" y="142" class="value">144.54</text>
<text x="10" y="174" class="label">battle.net</text>
<rect x="180" y="158" width="418.92" height="22" fill="#4c78a8" rx="3"/>
<text x="606.9200000000001" y="174" class="value">156.90</text>
<text x="10" y="206" class="label">easyanticheat.net</text>
<rect x="180" y="190" width="430.11" height="22" fill="#4c78a8" rx="3"/>
<text x="618.11" y="206" class="value">161.09</text>
<text x="10" y="238" class="label">ubisoft.com</text>
<rect x="180" y="222" width="434.83" height="22" fill="#4c78a8" rx="3"/>
<text x="622.8299999999999" y="238" class="value">162.86</text>
<text x="10" y="270" class="label">blizzard.com</text>
<rect x="180" y="254" width="437.74" height="22" fill="#4c78a8" rx="3"/>
<text x="625.74" y="270" class="value">163.95</text>
<text x="10" y="302" class="label">ea.com</text>
<rect x="180" y="286" width="455.9" height="22" fill="#4c78a8" rx="3"/>
<text x="643.9" y="302" class="value">170.75</text>
<text x="10" y="334" class="label">store.akamai.steamstatic.com</text>
<rect x="180" y="318" width="468.13" height="22" fill="#4c78a8" rx="3"/>
<text x="656.13" y="334" class="value">175.33</text>
<text x="10" y="366" class="label">ubi.com</text>
<rect x="180" y="350" width="472.37" height="22" fill="#4c78a8" rx="3"/>
<text x="660.37" y="366" class="value">176.92</text>
<text x="10" y="398" class="label">cdn.akamai.steamstatic.com</text>
<rect x="180" y="382" width="487.14" height="22" fill="#4c78a8" rx="3"/>
<text x="675.14" y="398" class="value">182.45</text>
<text x="10" y="430" class="label">launcher-public-service-prod06.ol.epicgames.com</text>
<rect x="180" y="414" width="574.13" height="22" fill="#4c78a8" rx="3"/>
<text x="762.13" y="430" class="value">215.03</text>
<text x="10" y="462" class="label">www.steamcommunity.com</text>
<rect x="180" y="446" width="579.49" height="22" fill="#4c78a8" rx="3"/>
<text x="767.49" y="462" class="value">217.04</text>
<text x="10" y="494" class="label">fortnite.com</text>
<rect x="180" y="478" width="580.0" height="22" fill="#4c78a8" rx="3"/>
<text x="768.0" y="494" class="value">217.23</text>
<line x1="180" y1="30" x2="180" y2="520" stroke="#ccc"/>
<line x1="180" y1="520" x2="760" y2="520" stroke="#ccc"/>
</svg>