<svg xmlns="http://www.w3.org/2000/svg" width="800" height="540">
<style> .label{font-family:DejaVu Sans,Verdana,Geneva,sans-serif;font-size:12px;fill:#333} .value{font-family:DejaVu Sans,Verdana,Geneva,sans-serif;font-size:12px;fill:#555} </style>
<text x="10" y="20" class="label">延迟柱状图（越低越好，Top 15），单位 ms</text>
<text x="10" y="46" class="label">rockstargames.com</text>
<rect x="180" y="30" width="90.98" height="22" fill="#4c78a8" rx="3"/>
<text x="278.98" y="46" class="value">46.01</text>
<text x="10" y="78" class="label">eaassets-a.akamaihd.net</text>
<rect x="180" y="62" width="187.79" height="22" fill="#4c78a8" rx="3"/>
<text x="375.78999999999996" y="78" class="value">94.97</text>
<text x="10" y="110" class="label">ubisoft.com</text>
<rect x="180" y="94" width="213.2" height="22" fill="#4c78a8" rx="3"/>
<text x="401.2" y="110" class="value">107.82</text>
<text x="10" y="142" class="label">ea.com</text>
<rect x="180" y="126" width="213.26" height="22" fill="#4c78a8" rx="3"/>
<text x="401.26" y="142" class="value">107.85</text>
<text x="10" y="174" class="label">community.akamai.steamstatic.com</text>
<rect x="180" y="158" width="243.83" height="22" fill="#4c78a8" rx="3"/>
<text x="431.83000000000004" y="174" class="value">123.31</text>
<text x="10" y="206" class="label">steamcdn-a.akamaihd.net</text>
<rect x="180" y="190" width="255.2" height="22" fill="#4c78a8" rx="3"/>
<text x="443.2" y="206" class="value">129.06</text>
<text x="10" y="238" class="label">origin.com</text>
<rect x="180" y="222" width="266.79" height="22" fill="#4c78a8" rx="3"/>
<text x="454.79" y="238" class="value">134.92</text>
<text x="10" y="270" class="label">easyanticheat.net</text>
<rect x="180" y="254" width="337.12" height="22" fill="#4c78a8" rx="3"/>
<text x="525.12" y="270" class="value">170.49</text>
<text x="10" y="302" class="label">store.akamai.steamstatic.com</text>
<rect x="180" y="286" width="346.02" height="22" fill="#4c78a8" rx="3"/>
<text x="534.02" y="302" class="value">174.99</text>
<text x="10" y="334" class="label">cdn.akamai.steamstatic.com</text>
<rect x="180" y="318" width="399.15" height="22" fill="#4c78a8" rx="3"/>
<text x="587.15" y="334" class="value">201.86</text>
<text x="10" y="366" class="label">cdn.cloudflare.steamstatic.com</text>
<rect x="180" y="350" width="410.64" height="22" fill="#4c78a8" rx="3"/>
<text x="598.64" y="366" class="value">207.67</text>
<text x="10" y="398" class="label">steam-chat.com</text>
<rect x="180" y="382" width="450.23" height="22" fill="#4c78a8" rx="3"/>
<text x="638.23" y="398" class="value">227.69</text>
<text x="10" y="430" class="label">www.steamcommunity.com</text>
<rect x="180" y="414" width="457.88" height="22" fill="#4c78a8" rx="3"/>
<text x="645.88" y="430" class="value">231.56</text>
<text x="10" y="462" class="label">launcher-public-service-prod06.ol.epicgames.com</text>
<rect x="180" y="446" width="501.24" height="22" fill="#4c78a8" rx="3"/>
<text x="689.24" y="462" class="value">253.49</text>
<text x="10" y="494" class="label">battle.net</text>
<rect x="180" y="478" width="580.0" height="22" fill="#4c78a8" rx="3"/>
<text x="768.0" y="494" class="value">293.32</text>
<line x1="180" y1="30" x2="180" y2="520" stroke="#ccc"/>
<line x1="180" y1="520" x2="760" y2="520" stroke="#ccc"/>
</svg>