<svg xmlns="http://www.w3.org/2000/svg" width="800" height="540">
<style> .label{font-family:DejaVu Sans,Verdana,Geneva,sans-serif;font-size:12px;fill:#333} .value{font-family:DejaVu Sans,Verdana,Geneva,sans-serif;font-size:12px;fill:#555} </style>
<text x="10" y="20" class="label">延迟柱状图（越低越好，Top 15），单位 ms</text>
<text x="10" y="46" class="label">store.akamai.steamstatic.com</text>
<rect x="180" y="30" width="269.02" height="22" fill="#4c78a8" rx="3"/>
<text x="457.02" y="46" class="value">98.75</text>
<text x="10" y="78" class="label">ubisoft.com</text>
<rect x="180" y="62" width="276.84" height="22" fill="#4c78a8" rx="3"/>
<text x="464.84" y="78" class="value">101.62</text>
<text x="10" y="110" class="label">ea.com</text>
<rect x="180" y="94" width="312.97" height="22" fill="#4c78a8" rx="3"/>
<text x="500.97" y="110" class="value">114.88</text>
<text x="10" y="142" class="label">steamcdn-a.akamaihd.net</text>
<rect x="180" y="126" width="335.3" height="22" fill="#4c78a8" rx="3"/>
<text x="523.3" y="142" class="value">123.08</text>
<text x="10" y="174" class="label">rockstargames.com</text>
<rect x="180" y="158" width="344.62" height="22" fill="#4c78a8" rx="3"/>
<text x="532.62" y="174" class="value">126.50</text>
<text x="10" y="206" class="label">easyanticheat.net</text>
<rect x="180" y="190" width="426.6" height="22" fill="#4c78a8" rx="3"/>
<text x="614.6" y="206" class="value">156.59</text>
<text x="10" y="238" class="label">blizzard.com</text>
<rect x="180" y="222" width="431.88" height="22" fill="#4c78a8" rx="3"/>
<text x="619.88" y="238" class="value">158.53</text>
<text x="10" y="270" class="label">battle.net</text>
<rect x="180" y="254" width="458.91" height="22" fill="#4c78a8" rx="3"/>
<text x="646.9100000000001" y="270" class="value">168.45</text>
<text x="10" y="302" class="label">eaassets-a.akamaihd.net</text>
<rect x="180" y="286" width="481.03" height="22" fill="#4c78a8" rx="3"/>
<text x="669.03" y="302" class="value">176.57</text>
<text x="10" y="334" class="label">ubi.com</text>
<rect x="180" y="318" width="484.24" height="22" fill="#4c78a8" rx="3"/>
<text x="672.24" y="334" class="value">177.75</text>
<text x="10" y="366" class="label">socialclub.rockstargames.com</text>
<rect x="180" y="350" width="503.72" height="22" fill="#4c78a8" rx="3"/>
<text x="691.72" y="366" class="value">184.90</text>
<text x="10" y="398" class="label">cdn.akamai.steamstatic.com</text>
<rect x="180" y="382" width="513.34" height="22" fill="#4c78a8" rx="3"/>
<text x="701.34" y="398" class="value">188.43</text>
<text x="10" y="430" class="label">cdn.cloudflare.steamstatic.com</text>
<rect x="180" y="414" width="532.62" height="22" fill="#4c78a8" rx="3"/>
<text x="720.62" y="430" class="value">195.51</text>
<text x="10" y="462" class="label">origin.com</text>
<rect x="180" y="446" width="546.16" height="22" fill="#4c78a8" rx="3"/>
<text x="734.16" y="462" class="value">200.48</text>
<text x="10" y="494" class="label">launcher-public-service-prod06.ol.epicgames.com</text>
<rect x="180" y="478" width="580.0" height="22" fill="#4c78a8" rx="3"/>
<text x="768.0" y="494" class="value">212.90</text>
<line x1="180" y1="30" x2="180" y2="520" stroke="#ccc"/>
<line x1="180" y1="520" x2="760" y2="520" stroke="#ccc"/>
</svg>