<svg xmlns="http://www.w3.org/2000/svg" width="800" height="540">
<style> .label{font-family:DejaVu Sans,Verdana,Geneva,sans-serif;font-size:12px;fill:#333} .value{font-family:DejaVu Sans,Verdana,Geneva,sans-serif;font-size:12px;fill:#555} </style>
<text x="10" y="20" class="label">延迟柱状图（越低越好，Top 15），单位 ms</text>
<text x="10" y="46" class="label">ubi.com</text>
<rect x="180" y="30" width="184.16" height="22" fill="#4c78a8" rx="3"/>
<text x="372.15999999999997" y="46" class="value">66.94</text>
<text x="10" y="78" class="label">cdn.akamai.steamstatic.com</text>
<rect x="180" y="62" width="191.7" height="22" fill="#4c78a8" rx="3"/>
<text x="379.7" y="78" class="value">69.68</text>
<text x="10" y="110" class="label">battle.net</text>
<rect x="180" y="94" width="195.72" height="22" fill="#4c78a8" rx="3"/>
<text x="383.72" y="110" class="value">71.14</text>
<text x="10" y="142" class="label">rockstargames.com</text>
<rect x="180" y="126" width="256.88" height="22" fill="#4c78a8" rx="3"/>
<text x="444.88" y="142" class="value">93.37</text>
<text x="10" y="174" class="label">blizzard.com</text>
<rect x="180" y="158" width="261.39" height="22" fill="#4c78a8" rx="3"/>
<text x="449.39" y="174" class="value">95.01</text>
<text x="10" y="206" class="label">socialclub.rockstargames.com</text>
<rect x="180" y="190" width="269.34" height="22" fill="#4c78a8" rx="3"/>
<text x="457.34" y="206" class="value">97.90</text>
<text x="10" y="238" class="label">eaassets-a.akamaihd.net</text>
<rect x="180" y="222" width="294.59" height="22" fill="#4c78a8" rx="3"/>
<text x="482.59" y="238" class="value">107.08</text>
<text x="10" y="270" class="label">ea.com</text>
<rect x="180" y="254" width="396.03" height="22" fill="#4c78a8" rx="3"/>
<text x="584.03" y="270" class="value">143.95</text>
<text x="10" y="302" class="label">cdn.cloudflare.steamstatic.com</text>
<rect x="180" y="286" width="399.03" height="22" fill="#4c78a8" rx="3"/>
<text x="587.03" y="302" class="value">145.04</text>
<text x="10" y="334" class="label">origin.com</text>
<rect x="180" y="318" width="441.42" height="22" fill="#4c78a8" rx="3"/>
<text x="629.4200000000001" y="334" class="value">160.45</text>
<text x="10" y="366" class="label">steamcdn-a.akamaihd.net</text>
<rect x="180" y="350" width="449.82" height="22" fill="#4c78a8" rx="3"/>
<text x="637.8199999999999" y="366" class="value">163.50</text>
<text x="10" y="398" class="label">static3.cdn.ubi.com</text>
<rect x="180" y="382" width="464.81" height="22" fill="#4c78a8" rx="3"/>
<text x="652.81" y="398" class="value">168.95</text>
<text x="10" y="430" class="label">unrealengine.com</text>
<rect x="180" y="414" width="521.46" height="22" fill="#4c78a8" rx="3"/>
<text x="709.46" y="430" class="value">189.54</text>
<text x="10" y="462" class="label">epicgames.com</text>
<rect x="180" y="446" width="528.11" height="22" fill="#4c78a8" rx="3"/>
<text x="716.11" y="462" class="value">191.96</text>
<text x="10" y="494" class="label">store.akamai.steamstatic.com</text>
<rect x="180" y="478" width="580.0" height="22" fill="#4c78a8" rx="3"/>
<text x="768.0" y="494" class="value">210.82</text>
<line x1="180" y1="30" x2="180" y2="520" stroke="#ccc"/>
<line x1="180" y1="520" x2="760" y2="520" stroke="#ccc"/>
</svg>