<svg xmlns="http://www.w3.org/2000/svg" width="800" height="540">
<style> .label{font-family:DejaVu Sans,Verdana,Geneva,sans-serif;font-size:12px;fill:#333} .value{font-family:DejaVu Sans,Verdana,Geneva,sans-serif;font-size:12px;fill:#555} </style>
<text x="10" y="20" class="label">延迟柱状图（越低越好，Top 15），单位 ms</text>
<text x="10" y="46" class="label">eaassets-a.akamaihd.net</text>
<rect x="180" y="30" width="399.0" height="22" fill="#4c78a8" rx="3"/>
<text x="587.0" y="46" class="value">133.76</text>
<text x="10" y="78" class="label">ea.com</text>
<rect x="180" y="62" width="473.48" height="22" fill="#4c78a8" rx="3"/>
<text x="661.48" y="78" class="value">158.73</text>
<text x="10" y="110" class="label">store.akamai.steamstatic.com</text>
<rect x="180" y="94" width="478.64" height="22" fill="#4c78a8" rx="3"/>
<text x="666.64" y="110" class="value">160.46</text>
<text x="10" y="142" class="label">ubi.com</text>
<rect x="180" y="126" width="491.17" height="22" fill="#4c78a8" rx="3"/>
<text x="679.1700000000001" y="142" class="value">164.66</text>
<text x="10" y="174" class="label">rockstargames.com</text>
<rect x="180" y="158" width="503.94" height="22" fill="#4c78a8" rx="3"/>
<text x="691.94" y="174" class="value">168.94</text>
<text x="10" y="206" class="label">battle.net</text>
<rect x="180" y="190" width="524.97" height="22" fill="#4c78a8" rx="3"/>
<text x="712.97" y="206" class="value">175.99</text>
<text x="10" y="238" class="label">blizzard.com</text>
<rect x="180" y="222" width="535.82" height="22" fill="#4c78a8" rx="3"/>
<text x="723.82" y="238" class="value">179.63</text>
<text x="10" y="270" class="label">cdn.akamai.steamstatic.com</text>
<rect x="180" y="254" width="542.3" height="22" fill="#4c78a8" rx="3"/>
<text x="730.3" y="270" class="value">181.80</text>
<text x="10" y="302" class="label">epicgames.com</text>
<rect x="180" y="286" width="543.43" height="22" fill="#4c78a8" rx="3"/>
<text x="731.43" y="302" class="value">182.18</text>
<text x="10" y="334" class="label">easyanticheat.net</text>
<rect x="180" y="318" width="544.38" height="22" fill="#4c78a8" rx="3"/>
<text x="732.38" y="334" class="value">182.50</text>
<text x="10" y="366" class="label">community.akamai.steamstatic.com</text>
<rect x="180" y="350" width="553.24" height="22" fill="#4c78a8" rx="3"/>
<text x="741.24" y="366" class="value">185.47</text>
<text x="10" y="398" class="label">ubisoft.com</text>
<rect x="180" y="382" width="566.07" height="22" fill="#4c78a8" rx="3"/>
<text x="754.07" y="398" class="value">189.77</text>
<text x="10" y="430" class="label">launcher-public-service-prod06.ol.epicgames.com</text>
<rect x="180" y="414" width="566.28" height="22" fill="#4c78a8" rx="3"/>
<text x="754.28" y="430" class="value">189.84</text>
<text x="10" y="462" class="label">steamcdn-a.akamaihd.net</text>
<rect x="180" y="446" width="569.26" height="22" fill="#4c78a8" rx="3"/>
<text x="757.26" y="462" class="value">190.84</text>
<text x="10" y="494" class="label">unrealengine.com</text>
<rect x="180" y="478" width="580.0" height="22" fill="#4c78a8" rx="3"/>
<text x="768.0" y="494" class="value">194.44</text>
<line x1="180" y1="30" x2="180" y2="520" stroke="#ccc"/>
<line x1="180" y1="520" x2="760" y2="520" stroke="#ccc"/>
</svg>