<svg xmlns="http://www.w3.org/2000/svg" width="800" height="540">
<style> .label{font-family:DejaVu Sans,Verdana,Geneva,sans-serif;font-size:12px;fill:#333} .value{font-family:DejaVu Sans,Verdana,Geneva,sans-serif;font-size:12px;fill:#555} </style>
<text x="10" y="20" class="label">延迟柱状图（越低越好，Top 15），单位 ms</text>
<text x="10" y="46" class="label">rockstargames.com</text>
<rect x="180" y="30" width="182.63" height="22" fill="#4c78a8" rx="3"/>
<text x="370.63" y="46" class="value">80.98</text>
<text x="10" y="78" class="label">eaassets-a.akamaihd.net</text>
<rect x="180" y="62" width="203.65" height="22" fill="#4c78a8" rx="3"/>
<text x="391.65" y="78" class="value">90.30</text>
<text x="10" y="110" class="label">store.akamai.steamstatic.com</text>
<rect x="180" y="94" width="204.91" height="22" fill="#4c78a8" rx="3"/>
<text x="392.90999999999997" y="110" class="value">90.86</text>
<text x="10" y="142" class="label">ea.com</text>
<rect x="180" y="126" width="254.93" height="22" fill="#4c78a8" rx="3"/>
<text x="442.93" y="142" class="value">113.04</text>
<text x="10" y="174" class="label">steamcdn-a.akamaihd.net</text>
<rect x="180" y="158" width="261.43" height="22" fill="#4c78a8" rx="3"/>
<text x="449.43" y="174" class="value">115.92</text>
<text x="10" y="206" class="label">origin.com</text>
<rect x="180" y="190" width="282.96" height="22" fill="#4c78a8" rx="3"/>
<text x="470.96" y="206" class="value">125.47</text>
<text x="10" y="238" class="label">blizzard.com</text>
<rect x="180" y="222" width="293.97" height="22" fill="#4c78a8" rx="3"/>
<text x="481.97" y="238" class="value">130.35</text>
<text x="10" y="270" class="label">ubi.com</text>
<rect x="180" y="254" width="300.89" height="22" fill="#4c78a8" rx="3"/>
<text x="488.89" y="270" class="value">133.42</text>
<text x="10" y="302" class="label">community.akamai.steamstatic.com</text>
<rect x="180" y="286" width="307.0" height="22" fill="#4c78a8" rx="3"/>
<text x="495.0" y="302" class="value">136.13</text>
<text x="10" y="334" class="label">static3.cdn.ubi.com</text>
<rect x="180" y="318" width="315.84" height="22" fill="#4c78a8" rx="3"/>
<text x="503.84" y="334" class="value">140.05</text>
<text x="10" y="366" class="label">battle.net</text>
<rect x="180" y="350" width="327.78" height="22" fill="#4c78a8" rx="3"/>
<text x="515.78" y="366" class="value">145.34</text>
<text x="10" y="398" class="label">socialclub.rockstargames.com</text>
<rect x="180" y="382" width="348.23" height="22" fill="#4c78a8" rx="3"/>
<text x="536.23" y="398" class="value">154.41</text>
<text x="10" y="430" class="label">easyanticheat.net</text>
<rect x="180" y="414" width="468.01" height="22" fill="#4c78a8" rx="3"/>
<text x="656.01" y="430" class="value">207.52</text>
<text x="10" y="462" class="label">launcher-public-service-prod06.ol.epicgames.com</text>
<rect x="180" y="446" width="560.04" height="22" fill="#4c78a8" rx="3"/>
<text x="748.04" y="462" class="value">248.33</text>
<text x="10" y="494" class="label">unrealengine.com</text>
<rect x="180" y="478" width="580.0" height="22" fill="#4c78a8" rx="3"/>
<text x="768.0" y="494" class="value">257.18</text>
<line x1="180" y1="30" x2="180" y2="520" stroke="#ccc"/>
<line x1="180" y1="520" x2="760" y2="520" stroke="#ccc"/>
</svg>