<svg xmlns="http://www.w3.org/2000/svg" width="800" height="540">
<style> .label{font-family:DejaVu Sans,Verdana,Geneva,sans-serif;font-size:12px;fill:#333} .value{font-family:DejaVu Sans,Verdana,Geneva,sans-serif;font-size:12px;fill:#555} </style>
<text x="10" y="20" class="label">延迟柱状图（越低越好，Top 15），单位 ms</text>
<text x="10" y="46" class="label">origin.com</text>
<rect x="180" y="30" width="191.28" height="22" fill="#4c78a8" rx="3"/>
<text x="379.28" y="46" class="value">89.33</text>
<text x="10" y="78" class="label">community.akamai.steamstatic.com</text>
<rect x="180" y="62" width="193.74" height="22" fill="#4c78a8" rx="3"/>
<text x="381.74" y="78" class="value">90.48</text>
<text x="10" y="110" class="label">rockstargames.com</text>
<rect x="180" y="94" width="199.46" height="22" fill="#4c78a8" rx="3"/>
<text x="387.46000000000004" y="110" class="value">93.15</text>
<text x="10" y="142" class="label">ea.com</text>
<rect x="180" y="126" width="201.41" height="22" fill="#4c78a8" rx="3"/>
<text x="389.40999999999997" y="142" class="value">94.06</text>
<text x="10" y="174" class="label">blizzard.com</text>
<rect x="180" y="158" width="283.84" height="22" fill="#4c78a8" rx="3"/>
<text x="471.84" y="174" class="value">132.56</text>
<text x="10" y="206" class="label">socialclub.rockstargames.com</text>
<rect x="180" y="190" width="288.15" height="22" fill="#4c78a8" rx="3"/>
<text x="476.15" y="206" class="value">134.57</text>
<text x="10" y="238" class="label">battle.net</text>
<rect x="180" y="222" width="307.46" height="22" fill="#4c78a8" rx="3"/>
<text x="495.46" y="238" class="value">143.59</text>
<text x="10" y="270" class="label">easyanticheat.net</text>
<rect x="180" y="254" width="355.3" height="22" fill="#4c78a8" rx="3"/>
<text x="543.3" y="270" class="value">165.93</text>
<text x="10" y="302" class="label">ubisoft.com</text>
<rect x="180" y="286" width="370.31" height="22" fill="#4c78a8" rx="3"/>
<text x="558.31" y="302" class="value">172.94</text>
<text x="10" y="334" class="label">steam-chat.com</text>
<rect x="180" y="318" width="404.37" height="22" fill="#4c78a8" rx="3"/>
<text x="592.37" y="334" class="value">188.85</text>
<text x="10" y="366" class="label">static3.cdn.ubi.com</text>
<rect x="180" y="350" width="483.54" height="22" fill="#4c78a8" rx="3"/>
<text x="671.54" y="366" class="value">225.82</text>
<text x="10" y="398" class="label">ubi.com</text>
<rect x="180" y="382" width="491.1" height="22" fill="#4c78a8" rx="3"/>
<text x="679.1" y="398" class="value">229.35</text>
<text x="10" y="430" class="label">steamcommunity.com</text>
<rect x="180" y="414" width="518.76" height="22" fill="#4c78a8" rx="3"/>
<text x="706.76" y="430" class="value">242.27</text>
<text x="10" y="462" class="label">cdn.akamai.steamstatic.com</text>
<rect x="180" y="446" width="562.4" height="22" fill="#4c78a8" rx="3"/>
<text x="750.4" y="462" class="value">262.65</text>
<text x="10" y="494" class="label">steamcdn-a.akamaihd.net</text>
<rect x="180" y="478" width="580.0" height="22" fill="#4c78a8" rx="3"/>
<text x="768.0" y="494" class="value">270.87</text>
<line x1="180" y1="30" x2="180" y2="520" stroke="#ccc"/>
<line x1="180" y1="520" x2="760" y2="520" stroke="#ccc"/>
</svg>