<svg xmlns="http://www.w3.org/2000/svg" width="800" height="540">
<style> .label{font-family:DejaVu Sans,Verdana,Geneva,sans-serif;font-size:12px;fill:#333} .value{font-family:DejaVu Sans,Verdana,Geneva,sans-serif;font-size:12px;fill:#555} </style>
<text x="10" y="20" class="label">延迟柱状图（越低越好，Top 15），单位 ms</text>
<text x="10" y="46" class="label">eaassets-a.akamaihd.net</text>
<rect x="180" y="30" width="136.76" height="22" fill="#4c78a8" rx="3"/>
<text x="324.76" y="46" class="value">48.15</text>
<text x="10" y="78" class="label">rockstargames.com</text>
<rect x="180" y="62" width="176.5" height="22" fill="#4c78a8" rx="3"/>
<text x="364.5" y="78" class="value">62.14</text>
<text x="10" y="110" class="label">socialclub.rockstargames.com</text>
<rect x="180" y="94" width="270.6" height="22" fill="#4c78a8" rx="3"/>
<text x="458.6" y="110" class="value">95.27</text>
<text x="10" y="142" class="label">battle.net</text>
<rect x="180" y="126" width="307.7" height="22" fill="#4c78a8" rx="3"/>
<text x="495.7" y="142" class="value">108.33</text>
<text x="10" y="174" class="label">blizzard.com</text>
<rect x="180" y="158" width="318.66" height="22" fill="#4c78a8" rx="3"/>
<text x="506.66" y="174" class="value">112.19</text>
<text x="10" y="206" class="label">ea.com</text>
<rect x="180" y="190" width="330.42" height="22" fill="#4c78a8" rx="3"/>
<text x="518.4200000000001" y="206" class="value">116.33</text>
<text x="10" y="238" class="label">ubi.com</text>
<rect x="180" y="222" width="393.81" height="22" fill="#4c78a8" rx="3"/>
<text x="581.81" y="238" class="value">138.65</text>
<text x="10" y="270" class="label">steamcdn-a.akamaihd.net</text>
<rect x="180" y="254" width="411.94" height="22" fill="#4c78a8" rx="3"/>
<text x="599.94" y="270" class="value">145.03</text>
<text x="10" y="302" class="label">epicgames.com</text>
<rect x="180" y="286" width="434.2" height="22" fill="#4c78a8" rx="3"/>
<text x="622.2" y="302" class="value">152.87</text>
<text x="10" y="334" class="label">unrealengine.com</text>
<rect x="180" y="318" width="448.26" height="22" fill="#4c78a8" rx="3"/>
<text x="636.26" y="334" class="value">157.82</text>
<text x="10" y="366" class="label">origin.com</text>
<rect x="180" y="350" width="487.75" height="22" fill="#4c78a8" rx="3"/>
<text x="675.75" y="366" class="value">171.72</text>
<text x="10" y="398" class="label">ubisoft.com</text>
<rect x="180" y="382" width="503.65" height="22" fill="#4c78a8" rx="3"/>
<text x="691.65" y="398" class="value">177.32</text>
<text x="10" y="430" class="label">static3.cdn.ubi.com</text>
<rect x="180" y="414" width="506.72" height="22" fill="#4c78a8" rx="3"/>
<text x="694.72" y="430" class="value">178.40</text>
<text x="10" y="462" class="label">community.akamai.steamstatic.com</text>
<rect x="180" y="446" width="516.69" height="22" fill="#4c78a8" rx="3"/>
<text x="704.69" y="462" class="value">181.91</text>
<text x="10" y="494" class="label">fortnite.com</text>
<rect x="180" y="478" width="580.0" height="22" fill="#4c78a8" rx="3"/>
<text x="768.0" y="494" class="value">204.20</text>
<line x1="180" y1="30" x2="180" y2="520" stroke="#ccc"/>
<line x1="180" y1="520" x2="760" y2="520" stroke="#ccc"/>
</svg>