<svg xmlns="http://www.w3.org/2000/svg" width="800" height="540">
<style> .label{font-family:DejaVu Sans,Verdana,Geneva,sans-serif;font-size:12px;fill:#333} .value{font-family:DejaVu Sans,Verdana,Geneva,sans-serif;font-size:12px;fill:#555} </style>
<text x="10" y="20" class="label">延迟柱状图（越低越好，Top 15），单位 ms</text>
<text x="10" y="46" class="label">community.akamai.steamstatic.com</text>
<rect x="180" y="30" width="139.48" height="22" fill="#4c78a8" rx="3"/>
<text x="327.48" y="46" class="value">41.46</text>
<text x="10" y="78" class="label">socialclub.rockstargames.com</text>
<rect x="180" y="62" width="217.1" height="22" fill="#4c78a8" rx="3"/>
<text x="405.1" y="78" class="value">64.53</text>
<text x="10" y="110" class="label">rockstargames.com</text>
<rect x="180" y="94" width="225.37" height="22" fill="#4c78a8" rx="3"/>
<text x="413.37" y="110" class="value">66.99</text>
<text x="10" y="142" class="label">blizzard.com</text>
<rect x="180" y="126" width="239.91" height="22" fill="#4c78a8" rx="3"/>
<text x="427.90999999999997" y="142" class="value">71.31</text>
<text x="10" y="174" class="label">epicgames.com</text>
<rect x="180" y="158" width="254.54" height="22" fill="#4c78a8" rx="3"/>
<text x="442.53999999999996" y="174" class="value">75.66</text>
<text x="10" y="206" class="label">unrealengine.com</text>
<rect x="180" y="190" width="281.59" height="22" fill="#4c78a8" rx="3"/>
<text x="469.59" y="206" class="value">83.70</text>
<text x="10" y="238" class="label">battle.net</text>
<rect x="180" y="222" width="309.18" height="22" fill="#4c78a8" rx="3"/>
<text x="497.18" y="238" class="value">91.90</text>
<text x="10" y="270" class="label">ea.com</text>
<rect x="180" y="254" width="316.07" height="22" fill="#4c78a8" rx="3"/>
<text x="504.07" y="270" class="value">93.95</text>
<text x="10" y="302" class="label">ubi.com</text>
<rect x="180" y="286" width="379.56" height="22" fill="#4c78a8" rx="3"/>
<text x="567.56" y="302" class="value">112.82</text>
<text x="10" y="334" class="label">fortnite.com</text>
<rect x="180" y="318" width="397.29" height="22" fill="#4c78a8" rx="3"/>
<text x="585.29" y="334" class="value">118.09</text>
<text x="10" y="366" class="label">eaassets-a.akamaihd.net</text>
<rect x="180" y="350" width="492.5" height="22" fill="#4c78a8" rx="3"/>
<text x="680.5" y="366" class="value">146.39</text>
<text x="10" y="398" class="label">store.akamai.steamstatic.com</text>
<rect x="180" y="382" width="522.03" height="22" fill="#4c78a8" rx="3"/>
<text x="710.03" y="398" class="value">155.17</text>
<text x="10" y="430" class="label">cdn.akamai.steamstatic.com</text>
<rect x="180" y="414" width="544.14" height="22" fill="#4c78a8" rx="3"/>
<text x="732.14" y="430" class="value">161.74</text>
<text x="10" y="462" class="label">cdn.cloudflare.steamstatic.com</text>
<rect x="180" y="446" width="560.62" height="22" fill="#4c78a8" rx="3"/>
<text x="748.62" y="462" class="value">166.64</text>
<text x="10" y="494" class="label">steamcdn-a.akamaihd.net</text>
<rect x="180" y="478" width="580.0" height="22" fill="#4c78a8" rx="3"/>
<text x="768.0" y="494" class="value">172.40</text>
<line x1="180" y1="30" x2="180" y2="520" stroke="#ccc"/>
<line x1="180" y1="520" x2="760" y2="520" stroke="#ccc"/>
</svg>