<svg xmlns="http://www.w3.org/2000/svg" width="800" height="540">
<style> .label{font-family:DejaVu Sans,Verdana,Geneva,sans-serif;font-size:12px;fill:#333} .value{font-family:DejaVu Sans,Verdana,Geneva,sans-serif;font-size:12px;fill:#555} </style>
<text x="10" y="20" class="label">延迟柱状图（越低越好，Top 15），单位 ms</text>
<text x="10" y="46" class="label">rockstargames.com</text>
<rect x="180" y="30" width="125.77" height="22" fill="#4c78a8" rx="3"/>
<text x="313.77" y="46" class="value">60.27</text>
<text x="10" y="78" class="label">ea.com</text>
<rect x="180" y="62" width="163.71" height="22" fill="#4c78a8" rx="3"/>
<text x="351.71000000000004" y="78" class="value">78.45</text>
<text x="10" y="110" class="label">eaassets-a.akamaihd.net</text>
<rect x="180" y="94" width="181.22" height="22" fill="#4c78a8" rx="3"/>
<text x="369.22" y="110" class="value">86.84</text>
<text x="10" y="142" class="label">origin.com</text>
<rect x="180" y="126" width="189.19" height="22" fill="#4c78a8" rx="3"/>
<text x="377.19" y="142" class="value">90.66</text>
<text x="10" y="174" class="label">ubisoft.com</text>
<rect x="180" y="158" width="207.89" height="22" fill="#4c78a8" rx="3"/>
<text x="395.89" y="174" class="value">99.62</text>
<text x="10" y="206" class="label">cdn.akamai.steamstatic.com</text>
<rect x="180" y="190" width="234.77" height="22" fill="#4c78a8" rx="3"/>
<text x="422.77" y="206" class="value">112.50</text>
<text x="10" y="238" class="label">community.akamai.steamstatic.com</text>
<rect x="180" y="222" width="372.57" height="22" fill="#4c78a8" rx="3"/>
<text x="560.5699999999999" y="238" class="value">178.53</text>
<text x="10" y="270" class="label">steamcdn-a.akamaihd.net</text>
<rect x="180" y="254" width="404.66" height="22" fill="#4c78a8" rx="3"/>
<text x="592.6600000000001" y="270" class="value">193.91</text>
<text x="10" y="302" class="label">store.akamai.steamstatic.com</text>
<rect x="180" y="286" width="407.63" height="22" fill="#4c78a8" rx="3"/>
<text x="595.63" y="302" class="value">195.33</text>
<text x="10" y="334" class="label">cdn.cloudflare.steamstatic.com</text>
<rect x="180" y="318" width="429.87" height="22" fill="#4c78a8" rx="3"/>
<text x="617.87" y="334" class="value">205.99</text>
<text x="10" y="366" class="label">easyanticheat.net</text>
<rect x="180" y="350" width="438.85" height="22" fill="#4c78a8" rx="3"/>
<text x="626.85" y="366" class="value">210.29</text>
<text x="10" y="398" class="label">api.steampowered.com</text>
<rect x="180" y="382" width="516.23" height="22" fill="#4c78a8" rx="3"/>
<text x="704.23" y="398" class="value">247.37</text>
<text x="10" y="430" class="label">steam-chat.com</text>
<rect x="180" y="414" width="548.93" height="22" fill="#4c78a8" rx="3"/>
<text x="736.93" y="430" class="value">263.04</text>
<text x="10" y="462" class="label">www.steamcommunity.com</text>
<rect x="180" y="446" width="550.14" height="22" fill="#4c78a8" rx="3"/>
<text x="738.14" y="462" class="value">263.62</text>
<text x="10" y="494" class="label">blizzard.com</text>
<rect x="180" y="478" width="580.0" height="22" fill="#4c78a8" rx="3"/>
<text x="768.0" y="494" class="value">277.93</text>
<line x1="180" y1="30" x2="180" y2="520" stroke="#ccc"/>
<line x1="180" y1="520" x2="760" y2="520" stroke="#ccc"/>
</svg>