<svg xmlns="http://www.w3.org/2000/svg" width="800" height="540">
<style> .label{font-family:DejaVu Sans,Verdana,Geneva,sans-serif;font-size:12px;fill:#333} .value{font-family:DejaVu Sans,Verdana,Geneva,sans-serif;font-size:12px;fill:#555} </style>
<text x="10" y="20" class="label">延迟柱状图（越低越好，Top 15），单位 ms</text>
<text x="10" y="46" class="label">rockstargames.com</text>
<rect x="180" y="30" width="183.45" height="22" fill="#4c78a8" rx="3"/>
<text x="371.45" y="46" class="value">68.50</text>
<text x="10" y="78" class="label">ea.com</text>
<rect x="180" y="62" width="218.51" height="22" fill="#4c78a8" rx="3"/>
<text x="406.51" y="78" class="value">81.59</text>
<text x="10" y="110" class="label">eaassets-a.akamaihd.net</text>
<rect x="180" y="94" width="226.27" height="22" fill="#4c78a8" rx="3"/>
<text x="414.27" y="110" class="value">84.49</text>
<text x="10" y="142" class="label">origin.com</text>
<rect x="180" y="126" width="250.83" height="22" fill="#4c78a8" rx="3"/>
<text x="438.83000000000004" y="142" class="value">93.66</text>
<text x="10" y="174" class="label">store.akamai.steamstatic.com</text>
<rect x="180" y="158" width="268.67" height="22" fill="#4c78a8" rx="3"/>
<text x="456.67" y="174" class="value">100.32</text>
<text x="10" y="206" class="label">cdn.akamai.steamstatic.com</text>
<rect x="180" y="190" width="307.21" height="22" fill="#4c78a8" rx="3"/>
<text x="495.21" y="206" class="value">114.71</text>
<text x="10" y="238" class="label">blizzard.com</text>
<rect x="180" y="222" width="330.32" height="22" fill="#4c78a8" rx="3"/>
<text x="518.3199999999999" y="238" class="value">123.34</text>
<text x="10" y="270" class="label">ubisoft.com</text>
<rect x="180" y="254" width="343.6" height="22" fill="#4c78a8" rx="3"/>
<text x="531.6" y="270" class="value">128.30</text>
<text x="10" y="302" class="label">battle.net</text>
<rect x="180" y="286" width="352.28" height="22" fill="#4c78a8" rx="3"/>
<text x="540.28" y="302" class="value">131.54</text>
<text x="10" y="334" class="label">ubi.com</text>
<rect x="180" y="318" width="406.94" height="22" fill="#4c78a8" rx="3"/>
<text x="594.94" y="334" class="value">151.95</text>
<text x="10" y="366" class="label">socialclub.rockstargames.com</text>
<rect x="180" y="350" width="420.01" height="22" fill="#4c78a8" rx="3"/>
<text x="608.01" y="366" class="value">156.83</text>
<text x="10" y="398" class="label">community.akamai.steamstatic.com</text>
<rect x="180" y="382" width="423.71" height="22" fill="#4c78a8" rx="3"/>
<text x="611.71" y="398" class="value">158.21</text>
<text x="10" y="430" class="label">steamcdn-a.akamaihd.net</text>
<rect x="180" y="414" width="454.91" height="22" fill="#4c78a8" rx="3"/>
<text x="642.9100000000001" y="430" class="value">169.86</text>
<text x="10" y="462" class="label">easyanticheat.net</text>
<rect x="180" y="446" width="575.07" height="22" fill="#4c78a8" rx="3"/>
<text x="763.07" y="462" class="value">214.73</text>
<text x="10" y="494" class="label">cdn.cloudflare.steamstatic.com</text>
<rect x="180" y="478" width="580.0" height="22" fill="#4c78a8" rx="3"/>
<text x="768.0" y="494" class="value">216.57</text>
<line x1="180" y1="30" x2="180" y2="520" stroke="#ccc"/>
<line x1="180" y1="520" x2="760" y2="520" stroke="#ccc"/>
</svg>