<svg xmlns="http://www.w3.org/2000/svg" width="800" height="540">
<style> .label{font-family:DejaVu Sans,Verdana,Geneva,sans-serif;font-size:12px;fill:#333} .value{font-family:DejaVu Sans,Verdana,Geneva,sans-serif;font-size:12px;fill:#555} </style>
<text x="10" y="20" class="label">延迟柱状图（越低越好，Top 15），单位 ms</text>
<text x="10" y="46" class="label">rockstargames.com</text>
<rect x="180" y="30" width="197.95" height="22" fill="#4c78a8" rx="3"/>
<text x="385.95" y="46" class="value">68.79</text>
<text x="10" y="78" class="label">eaassets-a.akamaihd.net</text>
<rect x="180" y="62" width="326.34" height="22" fill="#4c78a8" rx="3"/>
<text x="514.3399999999999" y="78" class="value">113.41</text>
<text x="10" y="110" class="label">community.akamai.steamstatic.com</text>
<rect x="180" y="94" width="332.47" height="22" fill="#4c78a8" rx="3"/>
<text x="520.47" y="110" class="value">115.54</text>
<text x="10" y="142" class="label">origin.com</text>
<rect x="180" y="126" width="351.38" height="22" fill="#4c78a8" rx="3"/>
<text x="539.38" y="142" class="value">122.11</text>
<text x="10" y="174" class="label">store.akamai.steamstatic.com</text>
<rect x="180" y="158" width="365.48" height="22" fill="#4c78a8" rx="3"/>
<text x="553.48" y="174" class="value">127.01</text>
<text x="10" y="206" class="label">ea.com</text>
<rect x="180" y="190" width="384.15" height="22" fill="#4c78a8" rx="3"/>
<text x="572.15" y="206" class="value">133.50</text>
<text x="10" y="238" class="label">socialclub.rockstargames.com</text>
<rect x="180" y="222" width="398.94" height="22" fill="#4c78a8" rx="3"/>
<text x="586.94" y="238" class="value">138.64</text>
<text x="10" y="270" class="label">ubi.com</text>
<rect x="180" y="254" width="405.36" height="22" fill="#4c78a8" rx="3"/>
<text x="593.36" y="270" class="value">140.87</text>
<text x="10" y="302" class="label">easyanticheat.net</text>
<rect x="180" y="286" width="416.07" height="22" fill="#4c78a8" rx="3"/>
<text x="604.0699999999999" y="302" class="value">144.59</text>
<text x="10" y="334" class="label">blizzard.com</text>
<rect x="180" y="318" width="434.97" height="22" fill="#4c78a8" rx="3"/>
<text x="622.97" y="334" class="value">151.16</text>
<text x="10" y="366" class="label">ubisoft.com</text>
<rect x="180" y="350" width="441.22" height="22" fill="#4c78a8" rx="3"/>
<text x="629.22" y="366" class="value">153.33</text>
<text x="10" y="398" class="label">cdn.akamai.steamstatic.com</text>
<rect x="180" y="382" width="451.2" height="22" fill="#4c78a8" rx="3"/>
<text x="639.2" y="398" class="value">156.80</text>
<text x="10" y="430" class="label">battle.net</text>
<rect x="180" y="414" width="458.16" height="22" fill="#4c78a8" rx="3"/>
<text x="646.1600000000001" y="430" class="value">159.22</text>
<text x="10" y="462" class="label">static3.cdn.ubi.com</text>
<rect x="180" y="446" width="528.92" height="22" fill="#4c78a8" rx="3"/>
<text x="716.92" y="462" class="value">183.81</text>
<text x="10" y="494" class="label">launcher-public-service-prod06.ol.epicgames.com</text>
<rect x="180" y="478" width="580.0" height="22" fill="#4c78a8" rx="3"/>
<text x="768.0" y="494" class="value">201.56</text>
<line x1="180" y1="30" x2="180" y2="520" stroke="#ccc"/>
<line x1="180" y1="520" x2="760" y2="520" stroke="#ccc"/>
</svg>