<svg xmlns="http://www.w3.org/2000/svg" width="800" height="540">
<style> .label{font-family:DejaVu Sans,Verdana,Geneva,sans-serif;font-size:12px;fill:#333} .value{font-family:DejaVu Sans,Verdana,Geneva,sans-serif;font-size:12px;fill:#555} </style>
<text x="10" y="20" class="label">延迟柱状图（越低越好，Top 15），单位 ms</text>
<text x="10" y="46" class="label">rockstargames.com</text>
<rect x="180" y="30" width="175.95" height="22" fill="#4c78a8" rx="3"/>
<text x="363.95" y="46" class="value">69.87</text>
<text x="10" y="78" class="label">blizzard.com</text>
<rect x="180" y="62" width="227.93" height="22" fill="#4c78a8" rx="3"/>
<text x="415.93" y="78" class="value">90.51</text>
<text x="10" y="110" class="label">socialclub.rockstargames.com</text>
<rect x="180" y="94" width="240.74" height="22" fill="#4c78a8" rx="3"/>
<text x="428.74" y="110" class="value">95.60</text>
<text x="10" y="142" class="label">ubisoft.com</text>
<rect x="180" y="126" width="271.54" height="22" fill="#4c78a8" rx="3"/>
<text x="459.54" y="142" class="value">107.83</text>
<text x="10" y="174" class="label">ubi.com</text>
<rect x="180" y="158" width="280.46" height="22" fill="#4c78a8" rx="3"/>
<text x="468.46" y="174" class="value">111.37</text>
<text x="10" y="206" class="label">store.akamai.steamstatic.com</text>
<rect x="180" y="190" width="349.28" height="22" fill="#4c78a8" rx="3"/>
<text x="537.28" y="206" class="value">138.70</text>
<text x="10" y="238" class="label">origin.com</text>
<rect x="180" y="222" width="354.34" height="22" fill="#4c78a8" rx="3"/>
<text x="542.3399999999999" y="238" class="value">140.71</text>
<text x="10" y="270" class="label">epicgames.com</text>
<rect x="180" y="254" width="380.3" height="22" fill="#4c78a8" rx="3"/>
<text x="568.3" y="270" class="value">151.02</text>
<text x="10" y="302" class="label">ea.com</text>
<rect x="180" y="286" width="399.04" height="22" fill="#4c78a8" rx="3"/>
<text x="587.04" y="302" class="value">158.46</text>
<text x="10" y="334" class="label">unrealengine.com</text>
<rect x="180" y="318" width="412.66" height="22" fill="#4c78a8" rx="3"/>
<text x="600.6600000000001" y="334" class="value">163.87</text>
<text x="10" y="366" class="label">fortnite.com</text>
<rect x="180" y="350" width="415.48" height="22" fill="#4c78a8" rx="3"/>
<text x="603.48" y="366" class="value">164.99</text>
<text x="10" y="398" class="label">steamcdn-a.akamaihd.net</text>
<rect x="180" y="382" width="416.99" height="22" fill="#4c78a8" rx="3"/>
<text x="604.99" y="398" class="value">165.59</text>
<text x="10" y="430" class="label">cdn.cloudflare.steamstatic.com</text>
<rect x="180" y="414" width="469.35" height="22" fill="#4c78a8" rx="3"/>
<text x="657.35" y="430" class="value">186.38</text>
<text x="10" y="462" class="label">steam-chat.com</text>
<rect x="180" y="446" width="557.24" height="22" fill="#4c78a8" rx="3"/>
<text x="745.24" y="462" class="value">221.28</text>
<text x="10" y="494" class="label">community.akamai.steamstatic.com</text>
<rect x="180" y="478" width="580.0" height="22" fill="#4c78a8" rx="3"/>
<text x="768.0" y="494" class="value">230.32</text>
<line x1="180" y1="30" x2="180" y2="520" stroke="#ccc"/>
<line x1="180" y1="520" x2="760" y2="520" stroke="#ccc"/>
</svg>