<svg xmlns="http://www.w3.org/2000/svg" width="800" height="540">
<style> .label{font-family:DejaVu Sans,Verdana,Geneva,sans-serif;font-size:12px;fill:#333} .value{font-family:DejaVu Sans,Verdana,Geneva,sans-serif;font-size:12px;fill:#555} </style>
<text x="10" y="20" class="label">延迟柱状图（越低越好，Top 15），单位 ms</text>
<text x="10" y="46" class="label">eaassets-a.akamaihd.net</text>
<rect x="180" y="30" width="90.68" height="22" fill="#4c78a8" rx="3"/>
<text x="278.68" y="46" class="value">35.90</text>
<text x="10" y="78" class="label">rockstargames.com</text>
<rect x="180" y="62" width="94.54" height="22" fill="#4c78a8" rx="3"/>
<text x="282.54" y="78" class="value">37.43</text>
<text x="10" y="110" class="label">ea.com</text>
<rect x="180" y="94" width="139.73" height="22" fill="#4c78a8" rx="3"/>
<text x="327.73" y="110" class="value">55.32</text>
<text x="10" y="142" class="label">ubisoft.com</text>
<rect x="180" y="126" width="277.72" height="22" fill="#4c78a8" rx="3"/>
<text x="465.72" y="142" class="value">109.95</text>
<text x="10" y="174" class="label">steamcdn-a.akamaihd.net</text>
<rect x="180" y="158" width="370.48" height="22" fill="#4c78a8" rx="3"/>
<text x="558.48" y="174" class="value">146.67</text>
<text x="10" y="206" class="label">community.akamai.steamstatic.com</text>
<rect x="180" y="190" width="374.77" height="22" fill="#4c78a8" rx="3"/>
<text x="562.77" y="206" class="value">148.37</text>
<text x="10" y="238" class="label">origin.com</text>
<rect x="180" y="222" width="381.34" height="22" fill="#4c78a8" rx="3"/>
<text x="569.3399999999999" y="238" class="value">150.97</text>
<text x="10" y="270" class="label">store.akamai.steamstatic.com</text>
<rect x="180" y="254" width="385.08" height="22" fill="#4c78a8" rx="3"/>
<text x="573.0799999999999" y="270" class="value">152.45</text>
<text x="10" y="302" class="label">easyanticheat.net</text>
<rect x="180" y="286" width="415.87" height="22" fill="#4c78a8" rx="3"/>
<text x="603.87" y="302" class="value">164.64</text>
<text x="10" y="334" class="label">cdn.akamai.steamstatic.com</text>
<rect x="180" y="318" width="437.16" height="22" fill="#4c78a8" rx="3"/>
<text x="625.1600000000001" y="334" class="value">173.07</text>
<text x="10" y="366" class="label">cdn.cloudflare.steamstatic.com</text>
<rect x="180" y="350" width="487.3" height="22" fill="#4c78a8" rx="3"/>
<text x="675.3" y="366" class="value">192.92</text>
<text x="10" y="398" class="label">steam-chat.com</text>
<rect x="180" y="382" width="556.48" height="22" fill="#4c78a8" rx="3"/>
<text x="744.48" y="398" class="value">220.31</text>
<text x="10" y="430" class="label">www.steamcommunity.com</text>
<rect x="180" y="414" width="570.1" height="22" fill="#4c78a8" rx="3"/>
<text x="758.1" y="430" class="value">225.70</text>
<text x="10" y="462" class="label">api.steampowered.com</text>
<rect x="180" y="446" width="571.36" height="22" fill="#4c78a8" rx="3"/>
<text x="759.36" y="462" class="value">226.20</text>
<text x="10" y="494" class="label">launcher-public-service-prod06.ol.epicgames.com</text>
<rect x="180" y="478" width="580.0" height="22" fill="#4c78a8" rx="3"/>
<text x="768.0" y="494" class="value">229.62</text>
<line x1="180" y1="30" x2="180" y2="520" stroke="#ccc"/>
<line x1="180" y1="520" x2="760" y2="520" stroke="#ccc"/>
</svg>