<svg xmlns="http://www.w3.org/2000/svg" width="800" height="540">
<style> .label{font-family:DejaVu Sans,Verdana,Geneva,sans-serif;font-size:12px;fill:#333} .value{font-family:DejaVu Sans,Verdana,Geneva,sans-serif;font-size:12px;fill:#555} </style>
<text x="10" y="20" class="label">延迟柱状图（越低越好，Top 15），单位 ms</text>
<text x="10" y="46" class="label">eaassets-a.akamaihd.net</text>
<rect x="180" y="30" width="133.5" height="22" fill="#4c78a8" rx="3"/>
<text x="321.5" y="46" class="value">53.45</text>
<text x="10" y="78" class="label">rockstargames.com</text>
<rect x="180" y="62" width="152.76" height="22" fill="#4c78a8" rx="3"/>
<text x="340.76" y="78" class="value">61.16</text>
<text x="10" y="110" class="label">socialclub.rockstargames.com</text>
<rect x="180" y="94" width="219.03" height="22" fill="#4c78a8" rx="3"/>
<text x="407.03" y="110" class="value">87.69</text>
<text x="10" y="142" class="label">fortnite.com</text>
<rect x="180" y="126" width="222.77" height="22" fill="#4c78a8" rx="3"/>
<text x="410.77" y="142" class="value">89.19</text>
<text x="10" y="174" class="label">blizzard.com</text>
<rect x="180" y="158" width="238.81" height="22" fill="#4c78a8" rx="3"/>
<text x="426.81" y="174" class="value">95.61</text>
<text x="10" y="206" class="label">battle.net</text>
<rect x="180" y="190" width="267.01" height="22" fill="#4c78a8" rx="3"/>
<text x="455.01" y="206" class="value">106.90</text>
<text x="10" y="238" class="label">community.akamai.steamstatic.com</text>
<rect x="180" y="222" width="269.06" height="22" fill="#4c78a8" rx="3"/>
<text x="457.06" y="238" class="value">107.72</text>
<text x="10" y="270" class="label">ubi.com</text>
<rect x="180" y="254" width="301.15" height="22" fill="#4c78a8" rx="3"/>
<text x="489.15" y="270" class="value">120.57</text>
<text x="10" y="302" class="label">ubisoft.com</text>
<rect x="180" y="286" width="315.09" height="22" fill="#4c78a8" rx="3"/>
<text x="503.09" y="302" class="value">126.15</text>
<text x="10" y="334" class="label">store.akamai.steamstatic.com</text>
<rect x="180" y="318" width="323.16" height="22" fill="#4c78a8" rx="3"/>
<text x="511.16" y="334" class="value">129.38</text>
<text x="10" y="366" class="label">epicgames.com</text>
<rect x="180" y="350" width="432.31" height="22" fill="#4c78a8" rx="3"/>
<text x="620.31" y="366" class="value">173.08</text>
<text x="10" y="398" class="label">unrealengine.com</text>
<rect x="180" y="382" width="455.14" height="22" fill="#4c78a8" rx="3"/>
<text x="643.14" y="398" class="value">182.22</text>
<text x="10" y="430" class="label">steamcdn-a.akamaihd.net</text>
<rect x="180" y="414" width="513.83" height="22" fill="#4c78a8" rx="3"/>
<text x="701.83" y="430" class="value">205.72</text>
<text x="10" y="462" class="label">cdn.cloudflare.steamstatic.com</text>
<rect x="180" y="446" width="551.0" height="22" fill="#4c78a8" rx="3"/>
<text x="739.0" y="462" class="value">220.60</text>
<text x="10" y="494" class="label">easyanticheat.net</text>
<rect x="180" y="478" width="580.0" height="22" fill="#4c78a8" rx="3"/>
<text x="768.0" y="494" class="value">232.21</text>
<line x1="180" y1="30" x2="180" y2="520" stroke="#ccc"/>
<line x1="180" y1="520" x2="760" y2="520" stroke="#ccc"/>
</svg>