<svg xmlns="http://www.w3.org/2000/svg" width="800" height="540">
<style> .label{font-family:DejaVu Sans,Verdana,Geneva,sans-serif;font-size:12px;fill:#333} .value{font-family:DejaVu Sans,Verdana,Geneva,sans-serif;font-size:12px;fill:#555} </style>
<text x="10" y="20" class="label">延迟柱状图（越低越好，Top 15），单位 ms</text>
<text x="10" y="46" class="label">eaassets-a.akamaihd.net</text>
<rect x="180" y="30" width="129.25" height="22" fill="#4c78a8" rx="3"/>
<text x="317.25" y="46" class="value">50.84</text>
<text x="10" y="78" class="label">rockstargames.com</text>
<rect x="180" y="62" width="134.23" height="22" fill="#4c78a8" rx="3"/>
<text x="322.23" y="78" class="value">52.80</text>
<text x="10" y="110" class="label">origin.com</text>
<rect x="180" y="94" width="214.88" height="22" fill="#4c78a8" rx="3"/>
<text x="402.88" y="110" class="value">84.52</text>
<text x="10" y="142" class="label">ea.com</text>
<rect x="180" y="126" width="223.9" height="22" fill="#4c78a8" rx="3"/>
<text x="411.9" y="142" class="value">88.07</text>
<text x="10" y="174" class="label">ubi.com</text>
<rect x="180" y="158" width="291.68" height="22" fill="#4c78a8" rx="3"/>
<text x="479.68" y="174" class="value">114.73</text>
<text x="10" y="206" class="label">easyanticheat.net</text>
<rect x="180" y="190" width="312.86" height="22" fill="#4c78a8" rx="3"/>
<text x="500.86" y="206" class="value">123.06</text>
<text x="10" y="238" class="label">blizzard.com</text>
<rect x="180" y="222" width="321.02" height="22" fill="#4c78a8" rx="3"/>
<text x="509.02" y="238" class="value">126.27</text>
<text x="10" y="270" class="label">steamcdn-a.akamaihd.net</text>
<rect x="180" y="254" width="324.42" height="22" fill="#4c78a8" rx="3"/>
<text x="512.4200000000001" y="270" class="value">127.61</text>
<text x="10" y="302" class="label">battle.net</text>
<rect x="180" y="286" width="332.3" height="22" fill="#4c78a8" rx="3"/>
<text x="520.3" y="302" class="value">130.71</text>
<text x="10" y="334" class="label">socialclub.rockstargames.com</text>
<rect x="180" y="318" width="355.54" height="22" fill="#4c78a8" rx="3"/>
<text x="543.54" y="334" class="value">139.85</text>
<text x="10" y="366" class="label">community.akamai.steamstatic.com</text>
<rect x="180" y="350" width="424.79" height="22" fill="#4c78a8" rx="3"/>
<text x="612.79" y="366" class="value">167.09</text>
<text x="10" y="398" class="label">cdn.cloudflare.steamstatic.com</text>
<rect x="180" y="382" width="449.68" height="22" fill="#4c78a8" rx="3"/>
<text x="637.6800000000001" y="398" class="value">176.88</text>
<text x="10" y="430" class="label">store.akamai.steamstatic.com</text>
<rect x="180" y="414" width="493.82" height="22" fill="#4c78a8" rx="3"/>
<text x="681.8199999999999" y="430" class="value">194.24</text>
<text x="10" y="462" class="label">launcher-public-service-prod06.ol.epicgames.com</text>
<rect x="180" y="446" width="570.72" height="22" fill="#4c78a8" rx="3"/>
<text x="758.72" y="462" class="value">224.49</text>
<text x="10" y="494" class="label">steam-chat.com</text>
<rect x="180" y="478" width="580.0" height="22" fill="#4c78a8" rx="3"/>
<text x="768.0" y="494" class="value">228.14</text>
<line x1="180" y1="30" x2="180" y2="520" stroke="#ccc"/>
<line x1="180" y1="520" x2="760" y2="520" stroke="#ccc"/>
</svg>