<svg xmlns="http://www.w3.org/2000/svg" width="800" height="540">
<style> .label{font-family:DejaVu Sans,Verdana,Geneva,sans-serif;font-size:12px;fill:#333} .value{font-family:DejaVu Sans,Verdana,Geneva,sans-serif;font-size:12px;fill:#555} </style>
<text x="10" y="20" class="label">延迟柱状图（越低越好，Top 15），单位 ms</text>
<text x="10" y="46" class="label">ea.com</text>
<rect x="180" y="30" width="236.94" height="22" fill="#4c78a8" rx="3"/>
<text x="424.94" y="46" class="value">104.00</text>
<text x="10" y="78" class="label">eaassets-a.akamaihd.net</text>
<rect x="180" y="62" width="247.42" height="22" fill="#4c78a8" rx="3"/>
<text x="435.41999999999996" y="78" class="value">108.60</text>
<text x="10" y="110" class="label">steamcdn-a.akamaihd.net</text>
<rect x="180" y="94" width="290.18" height="22" fill="#4c78a8" rx="3"/>
<text x="478.18" y="110" class="value">127.37</text>
<text x="10" y="142" class="label">ubi.com</text>
<rect x="180" y="126" width="315.74" height="22" fill="#4c78a8" rx="3"/>
<text x="503.74" y="142" class="value">138.59</text>
<text x="10" y="174" class="label">battle.net</text>
<rect x="180" y="158" width="328.96" height="22" fill="#4c78a8" rx="3"/>
<text x="516.96" y="174" class="value">144.39</text>
<text x="10" y="206" class="label">rockstargames.com</text>
<rect x="180" y="190" width="334.13" height="22" fill="#4c78a8" rx="3"/>
<text x="522.13" y="206" class="value">146.66</text>
<text x="10" y="238" class="label">blizzard.com</text>
<rect x="180" y="222" width="356.55" height="22" fill="#4c78a8" rx="3"/>
<text x="544.55" y="238" class="value">156.50</text>
<text x="10" y="270" class="label">gog.com</text>
<rect x="180" y="254" width="364.57" height="22" fill="#4c78a8" rx="3"/>
<text x="552.5699999999999" y="270" class="value">160.02</text>
<text x="10" y="302" class="label">origin.com</text>
<rect x="180" y="286" width="420.73" height="22" fill="#4c78a8" rx="3"/>
<text x="608.73" y="302" class="value">184.67</text>
<text x="10" y="334" class="label">socialclub.rockstargames.com</text>
<rect x="180" y="318" width="446.45" height="22" fill="#4c78a8" rx="3"/>
<text x="634.45" y="334" class="value">195.96</text>
<text x="10" y="366" class="label">static3.cdn.ubi.com</text>
<rect x="180" y="350" width="467.98" height="22" fill="#4c78a8" rx="3"/>
<text x="655.98" y="366" class="value">205.41</text>
<text x="10" y="398" class="label">store.akamai.steamstatic.com</text>
<rect x="180" y="382" width="524.91" height="22" fill="#4c78a8" rx="3"/>
<text x="712.91" y="398" class="value">230.40</text>
<text x="10" y="430" class="label">community.akamai.steamstatic.com</text>
<rect x="180" y="414" width="539.99" height="22" fill="#4c78a8" rx="3"/>
<text x="727.99" y="430" class="value">237.02</text>
<text x="10" y="462" class="label">easyanticheat.net</text>
<rect x="180" y="446" width="569.34" height="22" fill="#4c78a8" rx="3"/>
<text x="757.34" y="462" class="value">249.90</text>
<text x="10" y="494" class="label">cdn.akamai.steamstatic.com</text>
<rect x="180" y="478" width="580.0" height="22" fill="#4c78a8" rx="3"/>
<text x="768.0" y="494" class="value">254.58</text>
<line x1="180" y1="30" x2="180" y2="520" stroke="#ccc"/>
<line x1="180" y1="520" x2="760" y2="520" stroke="#ccc"/>
</svg>