<svg xmlns="http://www.w3.org/2000/svg" width="800" height="540">
<style> .label{font-family:DejaVu Sans,Verdana,Geneva,sans-serif;font-size:12px;fill:#333} .value{font-family:DejaVu Sans,Verdana,Geneva,sans-serif;font-size:12px;fill:#555} </style>
<text x="10" y="20" class="label">延迟柱状图（越低越好，Top 15），单位 ms</text>
<text x="10" y="46" class="label">rockstargames.com</text>
<rect x="180" y="30" width="215.75" height="22" fill="#4c78a8" rx="3"/>
<text x="403.75" y="46" class="value">86.15</text>
<text x="10" y="78" class="label">eaassets-a.akamaihd.net</text>
<rect x="180" y="62" width="237.31" height="22" fill="#4c78a8" rx="3"/>
<text x="425.31" y="78" class="value">94.76</text>
<text x="10" y="110" class="label">cdn.cloudflare.steamstatic.com</text>
<rect x="180" y="94" width="267.59" height="22" fill="#4c78a8" rx="3"/>
<text x="455.59" y="110" class="value">106.85</text>
<text x="10" y="142" class="label">ea.com</text>
<rect x="180" y="126" width="271.49" height="22" fill="#4c78a8" rx="3"/>
<text x="459.49" y="142" class="value">108.41</text>
<text x="10" y="174" class="label">steamcdn-a.akamaihd.net</text>
<rect x="180" y="158" width="320.33" height="22" fill="#4c78a8" rx="3"/>
<text x="508.33" y="174" class="value">127.91</text>
<text x="10" y="206" class="label">blizzard.com</text>
<rect x="180" y="190" width="352.63" height="22" fill="#4c78a8" rx="3"/>
<text x="540.63" y="206" class="value">140.81</text>
<text x="10" y="238" class="label">socialclub.rockstargames.com</text>
<rect x="180" y="222" width="374.87" height="22" fill="#4c78a8" rx="3"/>
<text x="562.87" y="238" class="value">149.69</text>
<text x="10" y="270" class="label">battle.net</text>
<rect x="180" y="254" width="382.78" height="22" fill="#4c78a8" rx="3"/>
<text x="570.78" y="270" class="value">152.85</text>
<text x="10" y="302" class="label">ubi.com</text>
<rect x="180" y="286" width="423.33" height="22" fill="#4c78a8" rx="3"/>
<text x="611.3299999999999" y="302" class="value">169.04</text>
<text x="10" y="334" class="label">ubisoft.com</text>
<rect x="180" y="318" width="427.99" height="22" fill="#4c78a8" rx="3"/>
<text x="615.99" y="334" class="value">170.90</text>
<text x="10" y="366" class="label">store.akamai.steamstatic.com</text>
<rect x="180" y="350" width="454.13" height="22" fill="#4c78a8" rx="3"/>
<text x="642.13" y="366" class="value">181.34</text>
<text x="10" y="398" class="label">origin.com</text>
<rect x="180" y="382" width="480.65" height="22" fill="#4c78a8" rx="3"/>
<text x="668.65" y="398" class="value">191.93</text>
<text x="10" y="430" class="label">static3.cdn.ubi.com</text>
<rect x="180" y="414" width="486.36" height="22" fill="#4c78a8" rx="3"/>
<text x="674.36" y="430" class="value">194.21</text>
<text x="10" y="462" class="label">cdn.akamai.steamstatic.com</text>
<rect x="180" y="446" width="536.8" height="22" fill="#4c78a8" rx="3"/>
<text x="724.8" y="462" class="value">214.35</text>
<text x="10" y="494" class="label">community.akamai.steamstatic.com</text>
<rect x="180" y="478" width="580.0" height="22" fill="#4c78a8" rx="3"/>
<text x="768.0" y="494" class="value">231.60</text>
<line x1="180" y1="30" x2="180" y2="520" stroke="#ccc"/>
<line x1="180" y1="520" x2="760" y2="520" stroke="#ccc"/>
</svg>