<svg xmlns="http://www.w3.org/2000/svg" width="800" height="540">
<style> .label{font-family:DejaVu Sans,Verdana,Geneva,sans-serif;font-size:12px;fill:#333} .value{font-family:DejaVu Sans,Verdana,Geneva,sans-serif;font-size:12px;fill:#555} </style>
<text x="10" y="20" class="label">延迟柱状图（越低越好，Top 15），单位 ms</text>
<text x="10" y="46" class="label">rockstargames.com</text>
<rect x="180" y="30" width="86.99" height="22" fill="#4c78a8" rx="3"/>
<text x="274.99" y="46" class="value">40.71</text>
<text x="10" y="78" class="label">eaassets-a.akamaihd.net</text>
<rect x="180" y="62" width="88.02" height="22" fill="#4c78a8" rx="3"/>
<text x="276.02" y="78" class="value">41.19</text>
<text x="10" y="110" class="label">store.akamai.steamstatic.com</text>
<rect x="180" y="94" width="154.86" height="22" fill="#4c78a8" rx="3"/>
<text x="342.86" y="110" class="value">72.47</text>
<text x="10" y="142" class="label">ea.com</text>
<rect x="180" y="126" width="172.36" height="22" fill="#4c78a8" rx="3"/>
<text x="360.36" y="142" class="value">80.66</text>
<text x="10" y="174" class="label">steamcdn-a.akamaihd.net</text>
<rect x="180" y="158" width="200.93" height="22" fill="#4c78a8" rx="3"/>
<text x="388.93" y="174" class="value">94.03</text>
<text x="10" y="206" class="label">ubisoft.com</text>
<rect x="180" y="190" width="209.15" height="22" fill="#4c78a8" rx="3"/>
<text x="397.15" y="206" class="value">97.88</text>
<text x="10" y="238" class="label">cdn.akamai.steamstatic.com</text>
<rect x="180" y="222" width="264.24" height="22" fill="#4c78a8" rx="3"/>
<text x="452.24" y="238" class="value">123.66</text>
<text x="10" y="270" class="label">easyanticheat.net</text>
<rect x="180" y="254" width="282.21" height="22" fill="#4c78a8" rx="3"/>
<text x="470.21" y="270" class="value">132.07</text>
<text x="10" y="302" class="label">origin.com</text>
<rect x="180" y="286" width="306.21" height="22" fill="#4c78a8" rx="3"/>
<text x="494.21" y="302" class="value">143.30</text>
<text x="10" y="334" class="label">community.akamai.steamstatic.com</text>
<rect x="180" y="318" width="347.6" height="22" fill="#4c78a8" rx="3"/>
<text x="535.6" y="334" class="value">162.67</text>
<text x="10" y="366" class="label">cdn.cloudflare.steamstatic.com</text>
<rect x="180" y="350" width="378.18" height="22" fill="#4c78a8" rx="3"/>
<text x="566.1800000000001" y="366" class="value">176.98</text>
<text x="10" y="398" class="label">api.steampowered.com</text>
<rect x="180" y="382" width="512.75" height="22" fill="#4c78a8" rx="3"/>
<text x="700.75" y="398" class="value">239.96</text>
<text x="10" y="430" class="label">www.steamcommunity.com</text>
<rect x="180" y="414" width="517.65" height="22" fill="#4c78a8" rx="3"/>
<text x="705.65" y="430" class="value">242.25</text>
<text x="10" y="462" class="label">launcher-public-service-prod06.ol.epicgames.com</text>
<rect x="180" y="446" width="568.1" height="22" fill="#4c78a8" rx="3"/>
<text x="756.1" y="462" class="value">265.86</text>
<text x="10" y="494" class="label">steamcommunity.com</text>
<rect x="180" y="478" width="580.0" height="22" fill="#4c78a8" rx="3"/>
<text x="768.0" y="494" class="value">271.43</text>
<line x1="180" y1="30" x2="180" y2="520" stroke="#ccc"/>
<line x1="180" y1="520" x2="760" y2="520" stroke="#ccc"/>
</svg>