<svg xmlns="http://www.w3.org/2000/svg" width="800" height="540">
<style> .label{font-family:DejaVu Sans,Verdana,Geneva,sans-serif;font-size:12px;fill:#333} .value{font-family:DejaVu Sans,Verdana,Geneva,sans-serif;font-size:12px;fill:#555} </style>
<text x="10" y="20" class="label">延迟柱状图（越低越好，Top 15），单位 ms</text>
<text x="10" y="46" class="label">rockstargames.com</text>
<rect x="180" y="30" width="108.29" height="22" fill="#4c78a8" rx="3"/>
<text x="296.29" y="46" class="value">47.75</text>
<text x="10" y="78" class="label">eaassets-a.akamaihd.net</text>
<rect x="180" y="62" width="127.32" height="22" fill="#4c78a8" rx="3"/>
<text x="315.32" y="78" class="value">56.14</text>
<text x="10" y="110" class="label">steamcdn-a.akamaihd.net</text>
<rect x="180" y="94" width="164.04" height="22" fill="#4c78a8" rx="3"/>
<text x="352.03999999999996" y="110" class="value">72.33</text>
<text x="10" y="142" class="label">ea.com</text>
<rect x="180" y="126" width="204.2" height="22" fill="#4c78a8" rx="3"/>
<text x="392.2" y="142" class="value">90.04</text>
<text x="10" y="174" class="label">ubisoft.com</text>
<rect x="180" y="158" width="269.09" height="22" fill="#4c78a8" rx="3"/>
<text x="457.09" y="174" class="value">118.65</text>
<text x="10" y="206" class="label">store.akamai.steamstatic.com</text>
<rect x="180" y="190" width="303.15" height="22" fill="#4c78a8" rx="3"/>
<text x="491.15" y="206" class="value">133.67</text>
<text x="10" y="238" class="label">cdn.cloudflare.steamstatic.com</text>
<rect x="180" y="222" width="337.22" height="22" fill="#4c78a8" rx="3"/>
<text x="525.22" y="238" class="value">148.69</text>
<text x="10" y="270" class="label">community.akamai.steamstatic.com</text>
<rect x="180" y="254" width="354.93" height="22" fill="#4c78a8" rx="3"/>
<text x="542.9300000000001" y="270" class="value">156.50</text>
<text x="10" y="302" class="label">cdn.akamai.steamstatic.com</text>
<rect x="180" y="286" width="374.14" height="22" fill="#4c78a8" rx="3"/>
<text x="562.14" y="302" class="value">164.97</text>
<text x="10" y="334" class="label">origin.com</text>
<rect x="180" y="318" width="383.48" height="22" fill="#4c78a8" rx="3"/>
<text x="571.48" y="334" class="value">169.09</text>
<text x="10" y="366" class="label">steam-chat.com</text>
<rect x="180" y="350" width="397.43" height="22" fill="#4c78a8" rx="3"/>
<text x="585.4300000000001" y="366" class="value">175.24</text>
<text x="10" y="398" class="label">easyanticheat.net</text>
<rect x="180" y="382" width="487.08" height="22" fill="#4c78a8" rx="3"/>
<text x="675.0799999999999" y="398" class="value">214.77</text>
<text x="10" y="430" class="label">www.steamcommunity.com</text>
<rect x="180" y="414" width="501.78" height="22" fill="#4c78a8" rx="3"/>
<text x="689.78" y="430" class="value">221.25</text>
<text x="10" y="462" class="label">launcher-public-service-prod06.ol.epicgames.com</text>
<rect x="180" y="446" width="578.34" height="22" fill="#4c78a8" rx="3"/>
<text x="766.34" y="462" class="value">255.01</text>
<text x="10" y="494" class="label">api.steampowered.com</text>
<rect x="180" y="478" width="580.0" height="22" fill="#4c78a8" rx="3"/>
<text x="768.0" y="494" class="value">255.74</text>
<line x1="180" y1="30" x2="180" y2="520" stroke="#ccc"/>
<line x1="180" y1="520" x2="760" y2="520" stroke="#ccc"/>
</svg>