<svg xmlns="http://www.w3.org/2000/svg" width="800" height="540">
<style> .label{font-family:DejaVu Sans,Verdana,Geneva,sans-serif;font-size:12px;fill:#333} .value{font-family:DejaVu Sans,Verdana,Geneva,sans-serif;font-size:12px;fill:#555} </style>
<text x="10" y="20" class="label">延迟柱状图（越低越好，Top 15），单位 ms</text>
<text x="10" y="46" class="label">rockstargames.com</text>
<rect x="180" y="30" width="128.78" height="22" fill="#4c78a8" rx="3"/>
<text x="316.78" y="46" class="value">60.38</text>
<text x="10" y="78" class="label">ubisoft.com</text>
<rect x="180" y="62" width="181.89" height="22" fill="#4c78a8" rx="3"/>
<text x="369.89" y="78" class="value">85.28</text>
<text x="10" y="110" class="label">ea.com</text>
<rect x="180" y="94" width="230.47" height="22" fill="#4c78a8" rx="3"/>
<text x="418.47" y="110" class="value">108.06</text>
<text x="10" y="142" class="label">steamcdn-a.akamaihd.net</text>
<rect x="180" y="126" width="257.11" height="22" fill="#4c78a8" rx="3"/>
<text x="445.11" y="142" class="value">120.55</text>
<text x="10" y="174" class="label">store.akamai.steamstatic.com</text>
<rect x="180" y="158" width="263.92" height="22" fill="#4c78a8" rx="3"/>
<text x="451.92" y="174" class="value">123.74</text>
<text x="10" y="206" class="label">origin.com</text>
<rect x="180" y="190" width="279.7" height="22" fill="#4c78a8" rx="3"/>
<text x="467.7" y="206" class="value">131.14</text>
<text x="10" y="238" class="label">community.akamai.steamstatic.com</text>
<rect x="180" y="222" width="317.62" height="22" fill="#4c78a8" rx="3"/>
<text x="505.62" y="238" class="value">148.92</text>
<text x="10" y="270" class="label">cdn.akamai.steamstatic.com</text>
<rect x="180" y="254" width="327.62" height="22" fill="#4c78a8" rx="3"/>
<text x="515.62" y="270" class="value">153.61</text>
<text x="10" y="302" class="label">eaassets-a.akamaihd.net</text>
<rect x="180" y="286" width="330.14" height="22" fill="#4c78a8" rx="3"/>
<text x="518.14" y="302" class="value">154.79</text>
<text x="10" y="334" class="label">cdn.cloudflare.steamstatic.com</text>
<rect x="180" y="318" width="340.06" height="22" fill="#4c78a8" rx="3"/>
<text x="528.06" y="334" class="value">159.44</text>
<text x="10" y="366" class="label">easyanticheat.net</text>
<rect x="180" y="350" width="502.45" height="22" fill="#4c78a8" rx="3"/>
<text x="690.45" y="366" class="value">235.58</text>
<text x="10" y="398" class="label">ubi.com</text>
<rect x="180" y="382" width="542.14" height="22" fill="#4c78a8" rx="3"/>
<text x="730.14" y="398" class="value">254.19</text>
<text x="10" y="430" class="label">api.steampowered.com</text>
<rect x="180" y="414" width="564.09" height="22" fill="#4c78a8" rx="3"/>
<text x="752.09" y="430" class="value">264.48</text>
<text x="10" y="462" class="label">www.steamcommunity.com</text>
<rect x="180" y="446" width="572.75" height="22" fill="#4c78a8" rx="3"/>
<text x="760.75" y="462" class="value">268.54</text>
<text x="10" y="494" class="label">steam-chat.com</text>
<rect x="180" y="478" width="580.0" height="22" fill="#4c78a8" rx="3"/>
<text x="768.0" y="494" class="value">271.94</text>
<line x1="180" y1="30" x2="180" y2="520" stroke="#ccc"/>
<line x1="180" y1="520" x2="760" y2="520" stroke="#ccc"/>
</svg>