<svg xmlns="http://www.w3.org/2000/svg" width="800" height="540">
<style> .label{font-family:DejaVu Sans,Verdana,Geneva,sans-serif;font-size:12px;fill:#333} .value{font-family:DejaVu Sans,Verdana,Geneva,sans-serif;font-size:12px;fill:#555} </style>
<text x="10" y="20" class="label">延迟柱状图（越低越好，Top 15），单位 ms</text>
<text x="10" y="46" class="label">rockstargames.com</text>
<rect x="180" y="30" width="126.73" height="22" fill="#4c78a8" rx="3"/>
<text x="314.73" y="46" class="value">52.91</text>
<text x="10" y="78" class="label">socialclub.rockstargames.com</text>
<rect x="180" y="62" width="199.82" height="22" fill="#4c78a8" rx="3"/>
<text x="387.82" y="78" class="value">83.43</text>
<text x="10" y="110" class="label">blizzard.com</text>
<rect x="180" y="94" width="209.28" height="22" fill="#4c78a8" rx="3"/>
<text x="397.28" y="110" class="value">87.38</text>
<text x="10" y="142" class="label">ubi.com</text>
<rect x="180" y="126" width="234.98" height="22" fill="#4c78a8" rx="3"/>
<text x="422.98" y="142" class="value">98.11</text>
<text x="10" y="174" class="label">ea.com</text>
<rect x="180" y="158" width="247.27" height="22" fill="#4c78a8" rx="3"/>
<text x="435.27" y="174" class="value">103.24</text>
<text x="10" y="206" class="label">ubisoft.com</text>
<rect x="180" y="190" width="348.68" height="22" fill="#4c78a8" rx="3"/>
<text x="536.6800000000001" y="206" class="value">145.58</text>
<text x="10" y="238" class="label">unrealengine.com</text>
<rect x="180" y="222" width="372.18" height="22" fill="#4c78a8" rx="3"/>
<text x="560.1800000000001" y="238" class="value">155.39</text>
<text x="10" y="270" class="label">cdn.akamai.steamstatic.com</text>
<rect x="180" y="254" width="467.91" height="22" fill="#4c78a8" rx="3"/>
<text x="655.9100000000001" y="270" class="value">195.36</text>
<text x="10" y="302" class="label">epicgames.com</text>
<rect x="180" y="286" width="489.32" height="22" fill="#4c78a8" rx="3"/>
<text x="677.3199999999999" y="302" class="value">204.30</text>
<text x="10" y="334" class="label">steam-chat.com</text>
<rect x="180" y="318" width="497.97" height="22" fill="#4c78a8" rx="3"/>
<text x="685.97" y="334" class="value">207.91</text>
<text x="10" y="366" class="label">community.akamai.steamstatic.com</text>
<rect x="180" y="350" width="525.51" height="22" fill="#4c78a8" rx="3"/>
<text x="713.51" y="366" class="value">219.41</text>
<text x="10" y="398" class="label">origin.com</text>
<rect x="180" y="382" width="526.52" height="22" fill="#4c78a8" rx="3"/>
<text x="714.52" y="398" class="value">219.83</text>
<text x="10" y="430" class="label">fortnite.com</text>
<rect x="180" y="414" width="558.04" height="22" fill="#4c78a8" rx="3"/>
<text x="746.04" y="430" class="value">232.99</text>
<text x="10" y="462" class="label">easyanticheat.net</text>
<rect x="180" y="446" width="567.16" height="22" fill="#4c78a8" rx="3"/>
<text x="755.16" y="462" class="value">236.80</text>
<text x="10" y="494" class="label">api.steampowered.com</text>
<rect x="180" y="478" width="580.0" height="22" fill="#4c78a8" rx="3"/>
<text x="768.0" y="494" class="value">242.16</text>
<line x1="180" y1="30" x2="180" y2="520" stroke="#ccc"/>
<line x1="180" y1="520" x2="760" y2="520" stroke="#ccc"/>
</svg>