<svg xmlns="http://www.w3.org/2000/svg" width="800" height="540">
<style> .label{font-family:DejaVu Sans,Verdana,Geneva,sans-serif;font-size:12px;fill:#333} .value{font-family:DejaVu Sans,Verdana,Geneva,sans-serif;font-size:12px;fill:#555} </style>
<text x="10" y="20" class="label">延迟柱状图（越低越好，Top 15），单位 ms</text>
<text x="10" y="46" class="label">rockstargames.com</text>
<rect x="180" y="30" width="72.98" height="22" fill="#4c78a8" rx="3"/>
<text x="260.98" y="46" class="value">34.86</text>
<text x="10" y="78" class="label">cdn.akamai.steamstatic.com</text>
<rect x="180" y="62" width="214.16" height="22" fill="#4c78a8" rx="3"/>
<text x="402.15999999999997" y="78" class="value">102.29</text>
<text x="10" y="110" class="label">community.akamai.steamstatic.com</text>
<rect x="180" y="94" width="219.29" height="22" fill="#4c78a8" rx="3"/>
<text x="407.28999999999996" y="110" class="value">104.74</text>
<text x="10" y="142" class="label">steamcdn-a.akamaihd.net</text>
<rect x="180" y="126" width="250.36" height="22" fill="#4c78a8" rx="3"/>
<text x="438.36" y="142" class="value">119.58</text>
<text x="10" y="174" class="label">ubisoft.com</text>
<rect x="180" y="158" width="260.76" height="22" fill="#4c78a8" rx="3"/>
<text x="448.76" y="174" class="value">124.55</text>
<text x="10" y="206" class="label">eaassets-a.akamaihd.net</text>
<rect x="180" y="190" width="275.84" height="22" fill="#4c78a8" rx="3"/>
<text x="463.84" y="206" class="value">131.75</text>
<text x="10" y="238" class="label">origin.com</text>
<rect x="180" y="222" width="283.16" height="22" fill="#4c78a8" rx="3"/>
<text x="471.16" y="238" class="value">135.25</text>
<text x="10" y="270" class="label">ea.com</text>
<rect x="180" y="254" width="354.75" height="22" fill="#4c78a8" rx="3"/>
<text x="542.75" y="270" class="value">169.44</text>
<text x="10" y="302" class="label">api.steampowered.com</text>
<rect x="180" y="286" width="384.31" height="22" fill="#4c78a8" rx="3"/>
<text x="572.31" y="302" class="value">183.56</text>
<text x="10" y="334" class="label">store.akamai.steamstatic.com</text>
<rect x="180" y="318" width="391.95" height="22" fill="#4c78a8" rx="3"/>
<text x="579.95" y="334" class="value">187.21</text>
<text x="10" y="366" class="label">easyanticheat.net</text>
<rect x="180" y="350" width="414.77" height="22" fill="#4c78a8" rx="3"/>
<text x="602.77" y="366" class="value">198.11</text>
<text x="10" y="398" class="label">cdn.cloudflare.steamstatic.com</text>
<rect x="180" y="382" width="496.05" height="22" fill="#4c78a8" rx="3"/>
<text x="684.05" y="398" class="value">236.93</text>
<text x="10" y="430" class="label">steam-chat.com</text>
<rect x="180" y="414" width="548.13" height="22" fill="#4c78a8" rx="3"/>
<text x="736.13" y="430" class="value">261.81</text>
<text x="10" y="462" class="label">www.steamcommunity.com</text>
<rect x="180" y="446" width="569.34" height="22" fill="#4c78a8" rx="3"/>
<text x="757.34" y="462" class="value">271.94</text>
<text x="10" y="494" class="label">battle.net</text>
<rect x="180" y="478" width="580.0" height="22" fill="#4c78a8" rx="3"/>
<text x="768.0" y="494" class="value">277.03</text>
<line x1="180" y1="30" x2="180" y2="520" stroke="#ccc"/>
<line x1="180" y1="520" x2="760" y2="520" stroke="#ccc"/>
</svg>