<svg xmlns="http://www.w3.org/2000/svg" width="800" height="540">
<style> .label{font-family:DejaVu Sans,Verdana,Geneva,sans-serif;font-size:12px;fill:#333} .value{font-family:DejaVu Sans,Verdana,Geneva,sans-serif;font-size:12px;fill:#555} </style>
<text x="10" y="20" class="label">延迟柱状图（越低越好，Top 15），单位 ms</text>
<text x="10" y="46" class="label">rockstargames.com</text>
<rect x="180" y="30" width="262.39" height="22" fill="#4c78a8" rx="3"/>
<text x="450.39" y="46" class="value">125.82</text>
<text x="10" y="78" class="label">ea.com</text>
<rect x="180" y="62" width="282.89" height="22" fill="#4c78a8" rx="3"/>
<text x="470.89" y="78" class="value">135.65</text>
<text x="10" y="110" class="label">eaassets-a.akamaihd.net</text>
<rect x="180" y="94" width="289.71" height="22" fill="#4c78a8" rx="3"/>
<text x="477.71" y="110" class="value">138.92</text>
<text x="10" y="142" class="label">store.akamai.steamstatic.com</text>
<rect x="180" y="126" width="296.59" height="22" fill="#4c78a8" rx="3"/>
<text x="484.59" y="142" class="value">142.22</text>
<text x="10" y="174" class="label">steamcdn-a.akamaihd.net</text>
<rect x="180" y="158" width="311.9" height="22" fill="#4c78a8" rx="3"/>
<text x="499.9" y="174" class="value">149.56</text>
<text x="10" y="206" class="label">origin.com</text>
<rect x="180" y="190" width="338.36" height="22" fill="#4c78a8" rx="3"/>
<text x="526.36" y="206" class="value">162.25</text>
<text x="10" y="238" class="label">community.akamai.steamstatic.com</text>
<rect x="180" y="222" width="377.23" height="22" fill="#4c78a8" rx="3"/>
<text x="565.23" y="238" class="value">180.89</text>
<text x="10" y="270" class="label">cdn.cloudflare.steamstatic.com</text>
<rect x="180" y="254" width="391.77" height="22" fill="#4c78a8" rx="3"/>
<text x="579.77" y="270" class="value">187.86</text>
<text x="10" y="302" class="label">easyanticheat.net</text>
<rect x="180" y="286" width="464.32" height="22" fill="#4c78a8" rx="3"/>
<text x="652.3199999999999" y="302" class="value">222.65</text>
<text x="10" y="334" class="label">api.steampowered.com</text>
<rect x="180" y="318" width="467.76" height="22" fill="#4c78a8" rx="3"/>
<text x="655.76" y="334" class="value">224.30</text>
<text x="10" y="366" class="label">cdn.akamai.steamstatic.com</text>
<rect x="180" y="350" width="481.3" height="22" fill="#4c78a8" rx="3"/>
<text x="669.3" y="366" class="value">230.79</text>
<text x="10" y="398" class="label">launcher-public-service-prod06.ol.epicgames.com</text>
<rect x="180" y="382" width="483.99" height="22" fill="#4c78a8" rx="3"/>
<text x="671.99" y="398" class="value">232.08</text>
<text x="10" y="430" class="label">ubisoft.com</text>
<rect x="180" y="414" width="519.81" height="22" fill="#4c78a8" rx="3"/>
<text x="707.81" y="430" class="value">249.26</text>
<text x="10" y="462" class="label">steam-chat.com</text>
<rect x="180" y="446" width="557.46" height="22" fill="#4c78a8" rx="3"/>
<text x="745.46" y="462" class="value">267.31</text>
<text x="10" y="494" class="label">www.steamcommunity.com</text>
<rect x="180" y="478" width="580.0" height="22" fill="#4c78a8" rx="3"/>
<text x="768.0" y="494" class="value">278.12</text>
<line x1="180" y1="30" x2="180" y2="520" stroke="#ccc"/>
<line x1="180" y1="520" x2="760" y2="520" stroke="#ccc"/>
</svg>