<svg xmlns="http://www.w3.org/2000/svg" width="800" height="540">
<style> .label{font-family:DejaVu Sans,Verdana,Geneva,sans-serif;font-size:12px;fill:#333} .value{font-family:DejaVu Sans,Verdana,Geneva,sans-serif;font-size:12px;fill:#555} </style>
<text x="10" y="20" class="label">延迟柱状图（越低越好，Top 15），单位 ms</text>
<text x="10" y="46" class="label">ea.com</text>
<rect x="180" y="30" width="99.16" height="22" fill="#4c78a8" rx="3"/>
<text x="287.15999999999997" y="46" class="value">48.66</text>
<text x="10" y="78" class="label">rockstargames.com</text>
<rect x="180" y="62" width="118.72" height="22" fill="#4c78a8" rx="3"/>
<text x="306.72" y="78" class="value">58.26</text>
<text x="10" y="110" class="label">ubisoft.com</text>
<rect x="180" y="94" width="172.11" height="22" fill="#4c78a8" rx="3"/>
<text x="360.11" y="110" class="value">84.46</text>
<text x="10" y="142" class="label">eaassets-a.akamaihd.net</text>
<rect x="180" y="126" width="185.56" height="22" fill="#4c78a8" rx="3"/>
<text x="373.56" y="142" class="value">91.06</text>
<text x="10" y="174" class="label">origin.com</text>
<rect x="180" y="158" width="244.8" height="22" fill="#4c78a8" rx="3"/>
<text x="432.8" y="174" class="value">120.13</text>
<text x="10" y="206" class="label">community.akamai.steamstatic.com</text>
<rect x="180" y="190" width="281.26" height="22" fill="#4c78a8" rx="3"/>
<text x="469.26" y="206" class="value">138.02</text>
<text x="10" y="238" class="label">store.akamai.steamstatic.com</text>
<rect x="180" y="222" width="354.86" height="22" fill="#4c78a8" rx="3"/>
<text x="542.86" y="238" class="value">174.14</text>
<text x="10" y="270" class="label">cdn.cloudflare.steamstatic.com</text>
<rect x="180" y="254" width="368.09" height="22" fill="#4c78a8" rx="3"/>
<text x="556.0899999999999" y="270" class="value">180.63</text>
<text x="10" y="302" class="label">steamcdn-a.akamaihd.net</text>
<rect x="180" y="286" width="388.24" height="22" fill="#4c78a8" rx="3"/>
<text x="576.24" y="302" class="value">190.52</text>
<text x="10" y="334" class="label">cdn.akamai.steamstatic.com</text>
<rect x="180" y="318" width="416.87" height="22" fill="#4c78a8" rx="3"/>
<text x="604.87" y="334" class="value">204.57</text>
<text x="10" y="366" class="label">launcher-public-service-prod06.ol.epicgames.com</text>
<rect x="180" y="350" width="519.01" height="22" fill="#4c78a8" rx="3"/>
<text x="707.01" y="366" class="value">254.69</text>
<text x="10" y="398" class="label">easyanticheat.net</text>
<rect x="180" y="382" width="530.3" height="22" fill="#4c78a8" rx="3"/>
<text x="718.3" y="398" class="value">260.23</text>
<text x="10" y="430" class="label">www.steamcommunity.com</text>
<rect x="180" y="414" width="533.64" height="22" fill="#4c78a8" rx="3"/>
<text x="721.64" y="430" class="value">261.87</text>
<text x="10" y="462" class="label">steam-chat.com</text>
<rect x="180" y="446" width="578.49" height="22" fill="#4c78a8" rx="3"/>
<text x="766.49" y="462" class="value">283.88</text>
<text x="10" y="494" class="label">blizzard.com</text>
<rect x="180" y="478" width="580.0" height="22" fill="#4c78a8" rx="3"/>
<text x="768.0" y="494" class="value">284.62</text>
<line x1="180" y1="30" x2="180" y2="520" stroke="#ccc"/>
<line x1="180" y1="520" x2="760" y2="520" stroke="#ccc"/>
</svg>