<svg xmlns="http://www.w3.org/2000/svg" width="800" height="540">
<style> .label{font-family:DejaVu Sans,Verdana,Geneva,sans-serif;font-size:12px;fill:#333} .value{font-family:DejaVu Sans,Verdana,Geneva,sans-serif;font-size:12px;fill:#555} </style>
<text x="10" y="20" class="label">延迟柱状图（越低越好，Top 15），单位 ms</text>
<text x="10" y="46" class="label">rockstargames.com</text>
<rect x="180" y="30" width="170.21" height="22" fill="#4c78a8" rx="3"/>
<text x="358.21000000000004" y="46" class="value">57.37</text>
<text x="10" y="78" class="label">blizzard.com</text>
<rect x="180" y="62" width="237.35" height="22" fill="#4c78a8" rx="3"/>
<text x="425.35" y="78" class="value">80.00</text>
<text x="10" y="110" class="label">socialclub.rockstargames.com</text>
<rect x="180" y="94" width="260.97" height="22" fill="#4c78a8" rx="3"/>
<text x="448.97" y="110" class="value">87.96</text>
<text x="10" y="142" class="label">eaassets-a.akamaihd.net</text>
<rect x="180" y="126" width="261.03" height="22" fill="#4c78a8" rx="3"/>
<text x="449.03" y="142" class="value">87.98</text>
<text x="10" y="174" class="label">unrealengine.com</text>
<rect x="180" y="158" width="274.05" height="22" fill="#4c78a8" rx="3"/>
<text x="462.05" y="174" class="value">92.37</text>
<text x="10" y="206" class="label">cdn.akamai.steamstatic.com</text>
<rect x="180" y="190" width="276.52" height="22" fill="#4c78a8" rx="3"/>
<text x="464.52" y="206" class="value">93.20</text>
<text x="10" y="238" class="label">ubi.com</text>
<rect x="180" y="222" width="285.45" height="22" fill="#4c78a8" rx="3"/>
<text x="473.45" y="238" class="value">96.21</text>
<text x="10" y="270" class="label">ubisoft.com</text>
<rect x="180" y="254" width="312.33" height="22" fill="#4c78a8" rx="3"/>
<text x="500.33" y="270" class="value">105.27</text>
<text x="10" y="302" class="label">ea.com</text>
<rect x="180" y="286" width="317.67" height="22" fill="#4c78a8" rx="3"/>
<text x="505.67" y="302" class="value">107.07</text>
<text x="10" y="334" class="label">origin.com</text>
<rect x="180" y="318" width="397.3" height="22" fill="#4c78a8" rx="3"/>
<text x="585.3" y="334" class="value">133.91</text>
<text x="10" y="366" class="label">steam-chat.com</text>
<rect x="180" y="350" width="419.73" height="22" fill="#4c78a8" rx="3"/>
<text x="607.73" y="366" class="value">141.47</text>
<text x="10" y="398" class="label">epicgames.com</text>
<rect x="180" y="382" width="419.91" height="22" fill="#4c78a8" rx="3"/>
<text x="607.9100000000001" y="398" class="value">141.53</text>
<text x="10" y="430" class="label">easyanticheat.net</text>
<rect x="180" y="414" width="518.11" height="22" fill="#4c78a8" rx="3"/>
<text x="706.11" y="430" class="value">174.63</text>
<text x="10" y="462" class="label">www.steamcommunity.com</text>
<rect x="180" y="446" width="574.63" height="22" fill="#4c78a8" rx="3"/>
<text x="762.63" y="462" class="value">193.68</text>
<text x="10" y="494" class="label">community.akamai.steamstatic.com</text>
<rect x="180" y="478" width="580.0" height="22" fill="#4c78a8" rx="3"/>
<text x="768.0" y="494" class="value">195.49</text>
<line x1="180" y1="30" x2="180" y2="520" stroke="#ccc"/>
<line x1="180" y1="520" x2="760" y2="520" stroke="#ccc"/>
</svg>