<svg xmlns="http://www.w3.org/2000/svg" width="800" height="540">
<style> .label{font-family:DejaVu Sans,Verdana,Geneva,sans-serif;font-size:12px;fill:#333} .value{font-family:DejaVu Sans,Verdana,Geneva,sans-serif;font-size:12px;fill:#555} </style>
<text x="10" y="20" class="label">延迟柱状图（越低越好，Top 15），单位 ms</text>
<text x="10" y="46" class="label">rockstargames.com</text>
<rect x="180" y="30" width="144.98" height="22" fill="#4c78a8" rx="3"/>
<text x="332.98" y="46" class="value">57.11</text>
<text x="10" y="78" class="label">eaassets-a.akamaihd.net</text>
<rect x="180" y="62" width="211.06" height="22" fill="#4c78a8" rx="3"/>
<text x="399.06" y="78" class="value">83.14</text>
<text x="10" y="110" class="label">ubi.com</text>
<rect x="180" y="94" width="224.9" height="22" fill="#4c78a8" rx="3"/>
<text x="412.9" y="110" class="value">88.59</text>
<text x="10" y="142" class="label">blizzard.com</text>
<rect x="180" y="126" width="230.05" height="22" fill="#4c78a8" rx="3"/>
<text x="418.05" y="142" class="value">90.62</text>
<text x="10" y="174" class="label">socialclub.rockstargames.com</text>
<rect x="180" y="158" width="230.81" height="22" fill="#4c78a8" rx="3"/>
<text x="418.81" y="174" class="value">90.92</text>
<text x="10" y="206" class="label">origin.com</text>
<rect x="180" y="190" width="233.12" height="22" fill="#4c78a8" rx="3"/>
<text x="421.12" y="206" class="value">91.83</text>
<text x="10" y="238" class="label">cdn.akamai.steamstatic.com</text>
<rect x="180" y="222" width="245.76" height="22" fill="#4c78a8" rx="3"/>
<text x="433.76" y="238" class="value">96.81</text>
<text x="10" y="270" class="label">ea.com</text>
<rect x="180" y="254" width="263.38" height="22" fill="#4c78a8" rx="3"/>
<text x="451.38" y="270" class="value">103.75</text>
<text x="10" y="302" class="label">battle.net</text>
<rect x="180" y="286" width="312.2" height="22" fill="#4c78a8" rx="3"/>
<text x="500.2" y="302" class="value">122.98</text>
<text x="10" y="334" class="label">unrealengine.com</text>
<rect x="180" y="318" width="434.92" height="22" fill="#4c78a8" rx="3"/>
<text x="622.9200000000001" y="334" class="value">171.32</text>
<text x="10" y="366" class="label">store.akamai.steamstatic.com</text>
<rect x="180" y="350" width="463.88" height="22" fill="#4c78a8" rx="3"/>
<text x="651.88" y="366" class="value">182.73</text>
<text x="10" y="398" class="label">steamcdn-a.akamaihd.net</text>
<rect x="180" y="382" width="521.13" height="22" fill="#4c78a8" rx="3"/>
<text x="709.13" y="398" class="value">205.28</text>
<text x="10" y="430" class="label">fortnite.com</text>
<rect x="180" y="414" width="538.01" height="22" fill="#4c78a8" rx="3"/>
<text x="726.01" y="430" class="value">211.93</text>
<text x="10" y="462" class="label">epicgames.com</text>
<rect x="180" y="446" width="560.68" height="22" fill="#4c78a8" rx="3"/>
<text x="748.68" y="462" class="value">220.86</text>
<text x="10" y="494" class="label">community.akamai.steamstatic.com</text>
<rect x="180" y="478" width="580.0" height="22" fill="#4c78a8" rx="3"/>
<text x="768.0" y="494" class="value">228.47</text>
<line x1="180" y1="30" x2="180" y2="520" stroke="#ccc"/>
<line x1="180" y1="520" x2="760" y2="520" stroke="#ccc"/>
</svg>