<svg xmlns="http://www.w3.org/2000/svg" width="800" height="540">
<style> .label{font-family:DejaVu Sans,Verdana,Geneva,sans-serif;font-size:12px;fill:#333} .value{font-family:DejaVu Sans,Verdana,Geneva,sans-serif;font-size:12px;fill:#555} </style>
<text x="10" y="20" class="label">延迟柱状图（越低越好，Top 15），单位 ms</text>
<text x="10" y="46" class="label">rockstargames.com</text>
<rect x="180" y="30" width="183.41" height="22" fill="#4c78a8" rx="3"/>
<text x="371.40999999999997" y="46" class="value">73.90</text>
<text x="10" y="78" class="label">eaassets-a.akamaihd.net</text>
<rect x="180" y="62" width="233.54" height="22" fill="#4c78a8" rx="3"/>
<text x="421.53999999999996" y="78" class="value">94.10</text>
<text x="10" y="110" class="label">steamcdn-a.akamaihd.net</text>
<rect x="180" y="94" width="377.29" height="22" fill="#4c78a8" rx="3"/>
<text x="565.29" y="110" class="value">152.02</text>
<text x="10" y="142" class="label">blizzard.com</text>
<rect x="180" y="126" width="379.97" height="22" fill="#4c78a8" rx="3"/>
<text x="567.97" y="142" class="value">153.10</text>
<text x="10" y="174" class="label">community.akamai.steamstatic.com</text>
<rect x="180" y="158" width="386.29" height="22" fill="#4c78a8" rx="3"/>
<text x="574.29" y="174" class="value">155.65</text>
<text x="10" y="206" class="label">easyanticheat.net</text>
<rect x="180" y="190" width="400.07" height="22" fill="#4c78a8" rx="3"/>
<text x="588.0699999999999" y="206" class="value">161.20</text>
<text x="10" y="238" class="label">origin.com</text>
<rect x="180" y="222" width="432.85" height="22" fill="#4c78a8" rx="3"/>
<text x="620.85" y="238" class="value">174.41</text>
<text x="10" y="270" class="label">ea.com</text>
<rect x="180" y="254" width="445.44" height="22" fill="#4c78a8" rx="3"/>
<text x="633.44" y="270" class="value">179.48</text>
<text x="10" y="302" class="label">ubi.com</text>
<rect x="180" y="286" width="457.8" height="22" fill="#4c78a8" rx="3"/>
<text x="645.8" y="302" class="value">184.46</text>
<text x="10" y="334" class="label">battle.net</text>
<rect x="180" y="318" width="489.96" height="22" fill="#4c78a8" rx="3"/>
<text x="677.96" y="334" class="value">197.42</text>
<text x="10" y="366" class="label">launcher-public-service-prod06.ol.epicgames.com</text>
<rect x="180" y="350" width="504.93" height="22" fill="#4c78a8" rx="3"/>
<text x="692.9300000000001" y="366" class="value">203.45</text>
<text x="10" y="398" class="label">socialclub.rockstargames.com</text>
<rect x="180" y="382" width="527.56" height="22" fill="#4c78a8" rx="3"/>
<text x="715.56" y="398" class="value">212.57</text>
<text x="10" y="430" class="label">cdn.akamai.steamstatic.com</text>
<rect x="180" y="414" width="537.09" height="22" fill="#4c78a8" rx="3"/>
<text x="725.09" y="430" class="value">216.41</text>
<text x="10" y="462" class="label">ubisoft.com</text>
<rect x="180" y="446" width="559.55" height="22" fill="#4c78a8" rx="3"/>
<text x="747.55" y="462" class="value">225.46</text>
<text x="10" y="494" class="label">store.akamai.steamstatic.com</text>
<rect x="180" y="478" width="580.0" height="22" fill="#4c78a8" rx="3"/>
<text x="768.0" y="494" class="value">233.70</text>
<line x1="180" y1="30" x2="180" y2="520" stroke="#ccc"/>
<line x1="180" y1="520" x2="760" y2="520" stroke="#ccc"/>
</svg>