<svg xmlns="http://www.w3.org/2000/svg" width="800" height="540">
<style> .label{font-family:DejaVu Sans,Verdana,Geneva,sans-serif;font-size:12px;fill:#333} .value{font-family:DejaVu Sans,Verdana,Geneva,sans-serif;font-size:12px;fill:#555} </style>
<text x="10" y="20" class="label">延迟柱状图（越低越好，Top 15），单位 ms</text>
<text x="10" y="46" class="label">rockstargames.com</text>
<rect x="180" y="30" width="89.56" height="22" fill="#4c78a8" rx="3"/>
<text x="277.56" y="46" class="value">41.37</text>
<text x="10" y="78" class="label">ubisoft.com</text>
<rect x="180" y="62" width="101.73" height="22" fill="#4c78a8" rx="3"/>
<text x="289.73" y="78" class="value">46.99</text>
<text x="10" y="110" class="label">eaassets-a.akamaihd.net</text>
<rect x="180" y="94" width="114.52" height="22" fill="#4c78a8" rx="3"/>
<text x="302.52" y="110" class="value">52.90</text>
<text x="10" y="142" class="label">steamcdn-a.akamaihd.net</text>
<rect x="180" y="126" width="217.14" height="22" fill="#4c78a8" rx="3"/>
<text x="405.14" y="142" class="value">100.30</text>
<text x="10" y="174" class="label">community.akamai.steamstatic.com</text>
<rect x="180" y="158" width="259.68" height="22" fill="#4c78a8" rx="3"/>
<text x="447.68" y="174" class="value">119.95</text>
<text x="10" y="206" class="label">cdn.akamai.steamstatic.com</text>
<rect x="180" y="190" width="282.84" height="22" fill="#4c78a8" rx="3"/>
<text x="470.84" y="206" class="value">130.65</text>
<text x="10" y="238" class="label">store.akamai.steamstatic.com</text>
<rect x="180" y="222" width="371.54" height="22" fill="#4c78a8" rx="3"/>
<text x="559.54" y="238" class="value">171.62</text>
<text x="10" y="270" class="label">origin.com</text>
<rect x="180" y="254" width="374.85" height="22" fill="#4c78a8" rx="3"/>
<text x="562.85" y="270" class="value">173.15</text>
<text x="10" y="302" class="label">ea.com</text>
<rect x="180" y="286" width="383.47" height="22" fill="#4c78a8" rx="3"/>
<text x="571.47" y="302" class="value">177.13</text>
<text x="10" y="334" class="label">cdn.cloudflare.steamstatic.com</text>
<rect x="180" y="318" width="428.95" height="22" fill="#4c78a8" rx="3"/>
<text x="616.95" y="334" class="value">198.14</text>
<text x="10" y="366" class="label">www.steamcommunity.com</text>
<rect x="180" y="350" width="439.45" height="22" fill="#4c78a8" rx="3"/>
<text x="627.45" y="366" class="value">202.99</text>
<text x="10" y="398" class="label">gog.com</text>
<rect x="180" y="382" width="531.14" height="22" fill="#4c78a8" rx="3"/>
<text x="719.14" y="398" class="value">245.34</text>
<text x="10" y="430" class="label">easyanticheat.net</text>
<rect x="180" y="414" width="536.83" height="22" fill="#4c78a8" rx="3"/>
<text x="724.83" y="430" class="value">247.97</text>
<text x="10" y="462" class="label">api.steampowered.com</text>
<rect x="180" y="446" width="545.66" height="22" fill="#4c78a8" rx="3"/>
<text x="733.66" y="462" class="value">252.05</text>
<text x="10" y="494" class="label">steam-chat.com</text>
<rect x="180" y="478" width="580.0" height="22" fill="#4c78a8" rx="3"/>
<text x="768.0" y="494" class="value">267.91</text>
<line x1="180" y1="30" x2="180" y2="520" stroke="#ccc"/>
<line x1="180" y1="520" x2="760" y2="520" stroke="#ccc"/>
</svg>