<svg xmlns="http://www.w3.org/2000/svg" width="800" height="540">
<style> .label{font-family:DejaVu Sans,Verdana,Geneva,sans-serif;font-size:12px;fill:#333} .value{font-family:DejaVu Sans,Verdana,Geneva,sans-serif;font-size:12px;fill:#555} </style>
<text x="10" y="20" class="label">延迟柱状图（越低越好，Top 15），单位 ms</text>
<text x="10" y="46" class="label">eaassets-a.akamaihd.net</text>
<rect x="180" y="30" width="207.56" height="22" fill="#4c78a8" rx="3"/>
<text x="395.56" y="46" class="value">68.63</text>
<text x="10" y="78" class="label">rockstargames.com</text>
<rect x="180" y="62" width="251.32" height="22" fill="#4c78a8" rx="3"/>
<text x="439.32" y="78" class="value">83.10</text>
<text x="10" y="110" class="label">store.akamai.steamstatic.com</text>
<rect x="180" y="94" width="265.56" height="22" fill="#4c78a8" rx="3"/>
<text x="453.56" y="110" class="value">87.81</text>
<text x="10" y="142" class="label">ea.com</text>
<rect x="180" y="126" width="286.92" height="22" fill="#4c78a8" rx="3"/>
<text x="474.92" y="142" class="value">94.87</text>
<text x="10" y="174" class="label">community.akamai.steamstatic.com</text>
<rect x="180" y="158" width="350.64" height="22" fill="#4c78a8" rx="3"/>
<text x="538.64" y="174" class="value">115.94</text>
<text x="10" y="206" class="label">blizzard.com</text>
<rect x="180" y="190" width="385.75" height="22" fill="#4c78a8" rx="3"/>
<text x="573.75" y="206" class="value">127.55</text>
<text x="10" y="238" class="label">battle.net</text>
<rect x="180" y="222" width="403.26" height="22" fill="#4c78a8" rx="3"/>
<text x="591.26" y="238" class="value">133.34</text>
<text x="10" y="270" class="label">socialclub.rockstargames.com</text>
<rect x="180" y="254" width="413.39" height="22" fill="#4c78a8" rx="3"/>
<text x="601.39" y="270" class="value">136.69</text>
<text x="10" y="302" class="label">ubi.com</text>
<rect x="180" y="286" width="472.18" height="22" fill="#4c78a8" rx="3"/>
<text x="660.1800000000001" y="302" class="value">156.13</text>
<text x="10" y="334" class="label">steamcdn-a.akamaihd.net</text>
<rect x="180" y="318" width="497.19" height="22" fill="#4c78a8" rx="3"/>
<text x="685.19" y="334" class="value">164.40</text>
<text x="10" y="366" class="label">ubisoft.com</text>
<rect x="180" y="350" width="502.67" height="22" fill="#4c78a8" rx="3"/>
<text x="690.6700000000001" y="366" class="value">166.21</text>
<text x="10" y="398" class="label">origin.com</text>
<rect x="180" y="382" width="526.38" height="22" fill="#4c78a8" rx="3"/>
<text x="714.38" y="398" class="value">174.05</text>
<text x="10" y="430" class="label">api.steampowered.com</text>
<rect x="180" y="414" width="538.23" height="22" fill="#4c78a8" rx="3"/>
<text x="726.23" y="430" class="value">177.97</text>
<text x="10" y="462" class="label">cdn.cloudflare.steamstatic.com</text>
<rect x="180" y="446" width="564.36" height="22" fill="#4c78a8" rx="3"/>
<text x="752.36" y="462" class="value">186.61</text>
<text x="10" y="494" class="label">easyanticheat.net</text>
<rect x="180" y="478" width="580.0" height="22" fill="#4c78a8" rx="3"/>
<text x="768.0" y="494" class="value">191.78</text>
<line x1="180" y1="30" x2="180" y2="520" stroke="#ccc"/>
<line x1="180" y1="520" x2="760" y2="520" stroke="#ccc"/>
</svg>