<svg xmlns="http://www.w3.org/2000/svg" width="800" height="540">
<style> .label{font-family:DejaVu Sans,Verdana,Geneva,sans-serif;font-size:12px;fill:#333} .value{font-family:DejaVu Sans,Verdana,Geneva,sans-serif;font-size:12px;fill:#555} </style>
<text x="10" y="20" class="label">延迟柱状图（越低越好，Top 15），单位 ms</text>
<text x="10" y="46" class="label">rockstargames.com</text>
<rect x="180" y="30" width="244.74" height="22" fill="#4c78a8" rx="3"/>
<text x="432.74" y="46" class="value">76.43</text>
<text x="10" y="78" class="label">ea.com</text>
<rect x="180" y="62" width="246.05" height="22" fill="#4c78a8" rx="3"/>
<text x="434.05" y="78" class="value">76.84</text>
<text x="10" y="110" class="label">eaassets-a.akamaihd.net</text>
<rect x="180" y="94" width="299.72" height="22" fill="#4c78a8" rx="3"/>
<text x="487.72" y="110" class="value">93.60</text>
<text x="10" y="142" class="label">cdn.cloudflare.steamstatic.com</text>
<rect x="180" y="126" width="356.33" height="22" fill="#4c78a8" rx="3"/>
<text x="544.3299999999999" y="142" class="value">111.28</text>
<text x="10" y="174" class="label">cdn.akamai.steamstatic.com</text>
<rect x="180" y="158" width="399.75" height="22" fill="#4c78a8" rx="3"/>
<text x="587.75" y="174" class="value">124.84</text>
<text x="10" y="206" class="label">store.akamai.steamstatic.com</text>
<rect x="180" y="190" width="404.04" height="22" fill="#4c78a8" rx="3"/>
<text x="592.04" y="206" class="value">126.18</text>
<text x="10" y="238" class="label">steamcdn-a.akamaihd.net</text>
<rect x="180" y="222" width="419.61" height="22" fill="#4c78a8" rx="3"/>
<text x="607.61" y="238" class="value">131.04</text>
<text x="10" y="270" class="label">socialclub.rockstargames.com</text>
<rect x="180" y="254" width="425.95" height="22" fill="#4c78a8" rx="3"/>
<text x="613.95" y="270" class="value">133.02</text>
<text x="10" y="302" class="label">static3.cdn.ubi.com</text>
<rect x="180" y="286" width="497.39" height="22" fill="#4c78a8" rx="3"/>
<text x="685.39" y="302" class="value">155.33</text>
<text x="10" y="334" class="label">origin.com</text>
<rect x="180" y="318" width="518.49" height="22" fill="#4c78a8" rx="3"/>
<text x="706.49" y="334" class="value">161.92</text>
<text x="10" y="366" class="label">community.akamai.steamstatic.com</text>
<rect x="180" y="350" width="537.51" height="22" fill="#4c78a8" rx="3"/>
<text x="725.51" y="366" class="value">167.86</text>
<text x="10" y="398" class="label">blizzard.com</text>
<rect x="180" y="382" width="560.88" height="22" fill="#4c78a8" rx="3"/>
<text x="748.88" y="398" class="value">175.16</text>
<text x="10" y="430" class="label">ubisoft.com</text>
<rect x="180" y="414" width="567.29" height="22" fill="#4c78a8" rx="3"/>
<text x="755.29" y="430" class="value">177.16</text>
<text x="10" y="462" class="label">ubi.com</text>
<rect x="180" y="446" width="570.43" height="22" fill="#4c78a8" rx="3"/>
<text x="758.43" y="462" class="value">178.14</text>
<text x="10" y="494" class="label">battle.net</text>
<rect x="180" y="478" width="580.0" height="22" fill="#4c78a8" rx="3"/>
<text x="768.0" y="494" class="value">181.13</text>
<line x1="180" y1="30" x2="180" y2="520" stroke="#ccc"/>
<line x1="180" y1="520" x2="760" y2="520" stroke="#ccc"/>
</svg>