<svg xmlns="http://www.w3.org/2000/svg" width="800" height="540">
<style> .label{font-family:DejaVu Sans,Verdana,Geneva,sans-serif;font-size:12px;fill:#333} .value{font-family:DejaVu Sans,Verdana,Geneva,sans-serif;font-size:12px;fill:#555} </style>
<text x="10" y="20" class="label">延迟柱状图（越低越好，Top 15），单位 ms</text>
<text x="10" y="46" class="label">steamcdn-a.akamaihd.net</text>
<rect x="180" y="30" width="157.57" height="22" fill="#4c78a8" rx="3"/>
<text x="345.57" y="46" class="value">46.93</text>
<text x="10" y="78" class="label">eaassets-a.akamaihd.net</text>
<rect x="180" y="62" width="266.35" height="22" fill="#4c78a8" rx="3"/>
<text x="454.35" y="78" class="value">79.33</text>
<text x="10" y="110" class="label">cdn.cloudflare.steamstatic.com</text>
<rect x="180" y="94" width="284.14" height="22" fill="#4c78a8" rx="3"/>
<text x="472.14" y="110" class="value">84.63</text>
<text x="10" y="142" class="label">origin.com</text>
<rect x="180" y="126" width="293.91" height="22" fill="#4c78a8" rx="3"/>
<text x="481.91" y="142" class="value">87.54</text>
<text x="10" y="174" class="label">rockstargames.com</text>
<rect x="180" y="158" width="308.85" height="22" fill="#4c78a8" rx="3"/>
<text x="496.85" y="174" class="value">91.99</text>
<text x="10" y="206" class="label">ea.com</text>
<rect x="180" y="190" width="358.84" height="22" fill="#4c78a8" rx="3"/>
<text x="546.8399999999999" y="206" class="value">106.88</text>
<text x="10" y="238" class="label">store.akamai.steamstatic.com</text>
<rect x="180" y="222" width="408.6" height="22" fill="#4c78a8" rx="3"/>
<text x="596.6" y="238" class="value">121.70</text>
<text x="10" y="270" class="label">blizzard.com</text>
<rect x="180" y="254" width="428.24" height="22" fill="#4c78a8" rx="3"/>
<text x="616.24" y="270" class="value">127.55</text>
<text x="10" y="302" class="label">socialclub.rockstargames.com</text>
<rect x="180" y="286" width="432.44" height="22" fill="#4c78a8" rx="3"/>
<text x="620.44" y="302" class="value">128.80</text>
<text x="10" y="334" class="label">ubi.com</text>
<rect x="180" y="318" width="479.38" height="22" fill="#4c78a8" rx="3"/>
<text x="667.38" y="334" class="value">142.78</text>
<text x="10" y="366" class="label">battle.net</text>
<rect x="180" y="350" width="481.12" height="22" fill="#4c78a8" rx="3"/>
<text x="669.12" y="366" class="value">143.30</text>
<text x="10" y="398" class="label">www.steamcommunity.com</text>
<rect x="180" y="382" width="541.66" height="22" fill="#4c78a8" rx="3"/>
<text x="729.66" y="398" class="value">161.33</text>
<text x="10" y="430" class="label">ubisoft.com</text>
<rect x="180" y="414" width="549.72" height="22" fill="#4c78a8" rx="3"/>
<text x="737.72" y="430" class="value">163.73</text>
<text x="10" y="462" class="label">cdn.akamai.steamstatic.com</text>
<rect x="180" y="446" width="561.23" height="22" fill="#4c78a8" rx="3"/>
<text x="749.23" y="462" class="value">167.16</text>
<text x="10" y="494" class="label">community.akamai.steamstatic.com</text>
<rect x="180" y="478" width="580.0" height="22" fill="#4c78a8" rx="3"/>
<text x="768.0" y="494" class="value">172.75</text>
<line x1="180" y1="30" x2="180" y2="520" stroke="#ccc"/>
<line x1="180" y1="520" x2="760" y2="520" stroke="#ccc"/>
</svg>