<svg xmlns="http://www.w3.org/2000/svg" width="800" height="540">
<style> .label{font-family:DejaVu Sans,Verdana,Geneva,sans-serif;font-size:12px;fill:#333} .value{font-family:DejaVu Sans,Verdana,Geneva,sans-serif;font-size:12px;fill:#555} </style>
<text x="10" y="20" class="label">延迟柱状图（越低越好，Top 15），单位 ms</text>
<text x="10" y="46" class="label">rockstargames.com</text>
<rect x="180" y="30" width="165.5" height="22" fill="#4c78a8" rx="3"/>
<text x="353.5" y="46" class="value">54.86</text>
<text x="10" y="78" class="label">eaassets-a.akamaihd.net</text>
<rect x="180" y="62" width="228.52" height="22" fill="#4c78a8" rx="3"/>
<text x="416.52" y="78" class="value">75.75</text>
<text x="10" y="110" class="label">blizzard.com</text>
<rect x="180" y="94" width="244.21" height="22" fill="#4c78a8" rx="3"/>
<text x="432.21000000000004" y="110" class="value">80.95</text>
<text x="10" y="142" class="label">socialclub.rockstargames.com</text>
<rect x="180" y="126" width="254.98" height="22" fill="#4c78a8" rx="3"/>
<text x="442.98" y="142" class="value">84.52</text>
<text x="10" y="174" class="label">battle.net</text>
<rect x="180" y="158" width="266.02" height="22" fill="#4c78a8" rx="3"/>
<text x="454.02" y="174" class="value">88.18</text>
<text x="10" y="206" class="label">ubi.com</text>
<rect x="180" y="190" width="286.32" height="22" fill="#4c78a8" rx="3"/>
<text x="474.32" y="206" class="value">94.91</text>
<text x="10" y="238" class="label">ea.com</text>
<rect x="180" y="222" width="355.58" height="22" fill="#4c78a8" rx="3"/>
<text x="543.5799999999999" y="238" class="value">117.87</text>
<text x="10" y="270" class="label">origin.com</text>
<rect x="180" y="254" width="373.05" height="22" fill="#4c78a8" rx="3"/>
<text x="561.05" y="270" class="value">123.66</text>
<text x="10" y="302" class="label">unrealengine.com</text>
<rect x="180" y="286" width="392.9" height="22" fill="#4c78a8" rx="3"/>
<text x="580.9" y="302" class="value">130.24</text>
<text x="10" y="334" class="label">cdn.akamai.steamstatic.com</text>
<rect x="180" y="318" width="410.94" height="22" fill="#4c78a8" rx="3"/>
<text x="598.94" y="334" class="value">136.22</text>
<text x="10" y="366" class="label">community.akamai.steamstatic.com</text>
<rect x="180" y="350" width="425.36" height="22" fill="#4c78a8" rx="3"/>
<text x="613.36" y="366" class="value">141.00</text>
<text x="10" y="398" class="label">cdn.cloudflare.steamstatic.com</text>
<rect x="180" y="382" width="464.07" height="22" fill="#4c78a8" rx="3"/>
<text x="652.0699999999999" y="398" class="value">153.83</text>
<text x="10" y="430" class="label">epicgames.com</text>
<rect x="180" y="414" width="500.27" height="22" fill="#4c78a8" rx="3"/>
<text x="688.27" y="430" class="value">165.83</text>
<text x="10" y="462" class="label">ubisoft.com</text>
<rect x="180" y="446" width="551.46" height="22" fill="#4c78a8" rx="3"/>
<text x="739.46" y="462" class="value">182.80</text>
<text x="10" y="494" class="label">www.steamcommunity.com</text>
<rect x="180" y="478" width="580.0" height="22" fill="#4c78a8" rx="3"/>
<text x="768.0" y="494" class="value">192.26</text>
<line x1="180" y1="30" x2="180" y2="520" stroke="#ccc"/>
<line x1="180" y1="520" x2="760" y2="520" stroke="#ccc"/>
</svg>