<svg xmlns="http://www.w3.org/2000/svg" width="800" height="540">
<style> .label{font-family:DejaVu Sans,Verdana,Geneva,sans-serif;font-size:12px;fill:#333} .value{font-family:DejaVu Sans,Verdana,Geneva,sans-serif;font-size:12px;fill:#555} </style>
<text x="10" y="20" class="label">延迟柱状图（越低越好，Top 15），单位 ms</text>
<text x="10" y="46" class="label">rockstargames.com</text>
<rect x="180" y="30" width="77.97" height="22" fill="#4c78a8" rx="3"/>
<text x="265.97" y="46" class="value">39.55</text>
<text x="10" y="78" class="label">eaassets-a.akamaihd.net</text>
<rect x="180" y="62" width="78.62" height="22" fill="#4c78a8" rx="3"/>
<text x="266.62" y="78" class="value">39.88</text>
<text x="10" y="110" class="label">ubisoft.com</text>
<rect x="180" y="94" width="94.69" height="22" fill="#4c78a8" rx="3"/>
<text x="282.69" y="110" class="value">48.03</text>
<text x="10" y="142" class="label">ea.com</text>
<rect x="180" y="126" width="109.39" height="22" fill="#4c78a8" rx="3"/>
<text x="297.39" y="142" class="value">55.49</text>
<text x="10" y="174" class="label">steamcdn-a.akamaihd.net</text>
<rect x="180" y="158" width="167.51" height="22" fill="#4c78a8" rx="3"/>
<text x="355.51" y="174" class="value">84.97</text>
<text x="10" y="206" class="label">origin.com</text>
<rect x="180" y="190" width="172.24" height="22" fill="#4c78a8" rx="3"/>
<text x="360.24" y="206" class="value">87.37</text>
<text x="10" y="238" class="label">cdn.cloudflare.steamstatic.com</text>
<rect x="180" y="222" width="243.98" height="22" fill="#4c78a8" rx="3"/>
<text x="431.98" y="238" class="value">123.76</text>
<text x="10" y="270" class="label">store.akamai.steamstatic.com</text>
<rect x="180" y="254" width="304.26" height="22" fill="#4c78a8" rx="3"/>
<text x="492.26" y="270" class="value">154.34</text>
<text x="10" y="302" class="label">easyanticheat.net</text>
<rect x="180" y="286" width="363.33" height="22" fill="#4c78a8" rx="3"/>
<text x="551.3299999999999" y="302" class="value">184.30</text>
<text x="10" y="334" class="label">cdn.akamai.steamstatic.com</text>
<rect x="180" y="318" width="384.62" height="22" fill="#4c78a8" rx="3"/>
<text x="572.62" y="334" class="value">195.10</text>
<text x="10" y="366" class="label">community.akamai.steamstatic.com</text>
<rect x="180" y="350" width="398.79" height="22" fill="#4c78a8" rx="3"/>
<text x="586.79" y="366" class="value">202.29</text>
<text x="10" y="398" class="label">api.steampowered.com</text>
<rect x="180" y="382" width="431.46" height="22" fill="#4c78a8" rx="3"/>
<text x="619.46" y="398" class="value">218.86</text>
<text x="10" y="430" class="label">www.steamcommunity.com</text>
<rect x="180" y="414" width="479.1" height="22" fill="#4c78a8" rx="3"/>
<text x="667.1" y="430" class="value">243.03</text>
<text x="10" y="462" class="label">steam-chat.com</text>
<rect x="180" y="446" width="563.07" height="22" fill="#4c78a8" rx="3"/>
<text x="751.07" y="462" class="value">285.62</text>
<text x="10" y="494" class="label">ubi.com</text>
<rect x="180" y="478" width="580.0" height="22" fill="#4c78a8" rx="3"/>
<text x="768.0" y="494" class="value">294.21</text>
<line x1="180" y1="30" x2="180" y2="520" stroke="#ccc"/>
<line x1="180" y1="520" x2="760" y2="520" stroke="#ccc"/>
</svg>