<svg xmlns="http://www.w3.org/2000/svg" width="800" height="540">
<style> .label{font-family:DejaVu Sans,Verdana,Geneva,sans-serif;font-size:12px;fill:#333} .value{font-family:DejaVu Sans,Verdana,Geneva,sans-serif;font-size:12px;fill:#555} </style>
<text x="10" y="20" class="label">延迟柱状图（越低越好，Top 15），单位 ms</text>
<text x="10" y="46" class="label">rockstargames.com</text>
<rect x="180" y="30" width="134.85" height="22" fill="#4c78a8" rx="3"/>
<text x="322.85" y="46" class="value">71.32</text>
<text x="10" y="78" class="label">ubisoft.com</text>
<rect x="180" y="62" width="191.95" height="22" fill="#4c78a8" rx="3"/>
<text x="379.95" y="78" class="value">101.52</text>
<text x="10" y="110" class="label">eaassets-a.akamaihd.net</text>
<rect x="180" y="94" width="212.12" height="22" fill="#4c78a8" rx="3"/>
<text x="400.12" y="110" class="value">112.19</text>
<text x="10" y="142" class="label">easyanticheat.net</text>
<rect x="180" y="126" width="297.75" height="22" fill="#4c78a8" rx="3"/>
<text x="485.75" y="142" class="value">157.48</text>
<text x="10" y="174" class="label">ea.com</text>
<rect x="180" y="158" width="312.18" height="22" fill="#4c78a8" rx="3"/>
<text x="500.18" y="174" class="value">165.11</text>
<text x="10" y="206" class="label">cdn.cloudflare.steamstatic.com</text>
<rect x="180" y="190" width="329.97" height="22" fill="#4c78a8" rx="3"/>
<text x="517.97" y="206" class="value">174.52</text>
<text x="10" y="238" class="label">store.akamai.steamstatic.com</text>
<rect x="180" y="222" width="380.45" height="22" fill="#4c78a8" rx="3"/>
<text x="568.45" y="238" class="value">201.22</text>
<text x="10" y="270" class="label">steamcdn-a.akamaihd.net</text>
<rect x="180" y="254" width="386.86" height="22" fill="#4c78a8" rx="3"/>
<text x="574.86" y="270" class="value">204.61</text>
<text x="10" y="302" class="label">cdn.akamai.steamstatic.com</text>
<rect x="180" y="286" width="435.49" height="22" fill="#4c78a8" rx="3"/>
<text x="623.49" y="302" class="value">230.33</text>
<text x="10" y="334" class="label">origin.com</text>
<rect x="180" y="318" width="461.24" height="22" fill="#4c78a8" rx="3"/>
<text x="649.24" y="334" class="value">243.95</text>
<text x="10" y="366" class="label">community.akamai.steamstatic.com</text>
<rect x="180" y="350" width="465.06" height="22" fill="#4c78a8" rx="3"/>
<text x="653.06" y="366" class="value">245.97</text>
<text x="10" y="398" class="label">ubi.com</text>
<rect x="180" y="382" width="472.72" height="22" fill="#4c78a8" rx="3"/>
<text x="660.72" y="398" class="value">250.02</text>
<text x="10" y="430" class="label">api.steampowered.com</text>
<rect x="180" y="414" width="523.07" height="22" fill="#4c78a8" rx="3"/>
<text x="711.07" y="430" class="value">276.65</text>
<text x="10" y="462" class="label">www.steamcommunity.com</text>
<rect x="180" y="446" width="524.24" height="22" fill="#4c78a8" rx="3"/>
<text x="712.24" y="462" class="value">277.27</text>
<text x="10" y="494" class="label">socialclub.rockstargames.com</text>
<rect x="180" y="478" width="580.0" height="22" fill="#4c78a8" rx="3"/>
<text x="768.0" y="494" class="value">306.76</text>
<line x1="180" y1="30" x2="180" y2="520" stroke="#ccc"/>
<line x1="180" y1="520" x2="760" y2="520" stroke="#ccc"/>
</svg>