<svg xmlns="http://www.w3.org/2000/svg" width="800" height="540">
<style> .label{font-family:DejaVu Sans,Verdana,Geneva,sans-serif;font-size:12px;fill:#333} .value{font-family:DejaVu Sans,Verdana,Geneva,sans-serif;font-size:12px;fill:#555} </style>
<text x="10" y="20" class="label">延迟柱状图（越低越好，Top 15），单位 ms</text>
<text x="10" y="46" class="label">eaassets-a.akamaihd.net</text>
<rect x="180" y="30" width="114.06" height="22" fill="#4c78a8" rx="3"/>
<text x="302.06" y="46" class="value">44.64</text>
<text x="10" y="78" class="label">rockstargames.com</text>
<rect x="180" y="62" width="147.51" height="22" fill="#4c78a8" rx="3"/>
<text x="335.51" y="78" class="value">57.73</text>
<text x="10" y="110" class="label">ubisoft.com</text>
<rect x="180" y="94" width="178.25" height="22" fill="#4c78a8" rx="3"/>
<text x="366.25" y="110" class="value">69.76</text>
<text x="10" y="142" class="label">ea.com</text>
<rect x="180" y="126" width="257.49" height="22" fill="#4c78a8" rx="3"/>
<text x="445.49" y="142" class="value">100.77</text>
<text x="10" y="174" class="label">cdn.cloudflare.steamstatic.com</text>
<rect x="180" y="158" width="298.98" height="22" fill="#4c78a8" rx="3"/>
<text x="486.98" y="174" class="value">117.01</text>
<text x="10" y="206" class="label">steamcdn-a.akamaihd.net</text>
<rect x="180" y="190" width="342.09" height="22" fill="#4c78a8" rx="3"/>
<text x="530.0899999999999" y="206" class="value">133.88</text>
<text x="10" y="238" class="label">store.akamai.steamstatic.com</text>
<rect x="180" y="222" width="345.15" height="22" fill="#4c78a8" rx="3"/>
<text x="533.15" y="238" class="value">135.08</text>
<text x="10" y="270" class="label">cdn.akamai.steamstatic.com</text>
<rect x="180" y="254" width="346.28" height="22" fill="#4c78a8" rx="3"/>
<text x="534.28" y="270" class="value">135.52</text>
<text x="10" y="302" class="label">origin.com</text>
<rect x="180" y="286" width="359.67" height="22" fill="#4c78a8" rx="3"/>
<text x="547.6700000000001" y="302" class="value">140.76</text>
<text x="10" y="334" class="label">static3.cdn.ubi.com</text>
<rect x="180" y="318" width="429.76" height="22" fill="#4c78a8" rx="3"/>
<text x="617.76" y="334" class="value">168.19</text>
<text x="10" y="366" class="label">www.steamcommunity.com</text>
<rect x="180" y="350" width="491.54" height="22" fill="#4c78a8" rx="3"/>
<text x="679.54" y="366" class="value">192.37</text>
<text x="10" y="398" class="label">community.akamai.steamstatic.com</text>
<rect x="180" y="382" width="494.22" height="22" fill="#4c78a8" rx="3"/>
<text x="682.22" y="398" class="value">193.42</text>
<text x="10" y="430" class="label">gog.com</text>
<rect x="180" y="414" width="538.53" height="22" fill="#4c78a8" rx="3"/>
<text x="726.53" y="430" class="value">210.76</text>
<text x="10" y="462" class="label">steam-chat.com</text>
<rect x="180" y="446" width="561.86" height="22" fill="#4c78a8" rx="3"/>
<text x="749.86" y="462" class="value">219.89</text>
<text x="10" y="494" class="label">launcher-public-service-prod06.ol.epicgames.com</text>
<rect x="180" y="478" width="580.0" height="22" fill="#4c78a8" rx="3"/>
<text x="768.0" y="494" class="value">226.99</text>
<line x1="180" y1="30" x2="180" y2="520" stroke="#ccc"/>
<line x1="180" y1="520" x2="760" y2="520" stroke="#ccc"/>
</svg>