<svg xmlns="http://www.w3.org/2000/svg" width="800" height="540">
<style> .label{font-family:DejaVu Sans,Verdana,Geneva,sans-serif;font-size:12px;fill:#333} .value{font-family:DejaVu Sans,Verdana,Geneva,sans-serif;font-size:12px;fill:#555} </style>
<text x="10" y="20" class="label">延迟柱状图（越低越好，Top 15），单位 ms</text>
<text x="10" y="46" class="label">socialclub.rockstargames.com</text>
<rect x="180" y="30" width="164.95" height="22" fill="#4c78a8" rx="3"/>
<text x="352.95" y="46" class="value">60.50</text>
<text x="10" y="78" class="label">rockstargames.com</text>
<rect x="180" y="62" width="206.67" height="22" fill="#4c78a8" rx="3"/>
<text x="394.66999999999996" y="78" class="value">75.80</text>
<text x="10" y="110" class="label">battle.net</text>
<rect x="180" y="94" width="228.61" height="22" fill="#4c78a8" rx="3"/>
<text x="416.61" y="110" class="value">83.85</text>
<text x="10" y="142" class="label">unrealengine.com</text>
<rect x="180" y="126" width="253.1" height="22" fill="#4c78a8" rx="3"/>
<text x="441.1" y="142" class="value">92.83</text>
<text x="10" y="174" class="label">ubisoft.com</text>
<rect x="180" y="158" width="285.0" height="22" fill="#4c78a8" rx="3"/>
<text x="473.0" y="174" class="value">104.53</text>
<text x="10" y="206" class="label">eaassets-a.akamaihd.net</text>
<rect x="180" y="190" width="313.9" height="22" fill="#4c78a8" rx="3"/>
<text x="501.9" y="206" class="value">115.13</text>
<text x="10" y="238" class="label">blizzard.com</text>
<rect x="180" y="222" width="321.56" height="22" fill="#4c78a8" rx="3"/>
<text x="509.56" y="238" class="value">117.94</text>
<text x="10" y="270" class="label">ubi.com</text>
<rect x="180" y="254" width="393.18" height="22" fill="#4c78a8" rx="3"/>
<text x="581.1800000000001" y="270" class="value">144.21</text>
<text x="10" y="302" class="label">fortnite.com</text>
<rect x="180" y="286" width="414.75" height="22" fill="#4c78a8" rx="3"/>
<text x="602.75" y="302" class="value">152.12</text>
<text x="10" y="334" class="label">cdn.akamai.steamstatic.com</text>
<rect x="180" y="318" width="455.7" height="22" fill="#4c78a8" rx="3"/>
<text x="643.7" y="334" class="value">167.14</text>
<text x="10" y="366" class="label">ea.com</text>
<rect x="180" y="350" width="460.44" height="22" fill="#4c78a8" rx="3"/>
<text x="648.44" y="366" class="value">168.88</text>
<text x="10" y="398" class="label">steamcdn-a.akamaihd.net</text>
<rect x="180" y="382" width="473.7" height="22" fill="#4c78a8" rx="3"/>
<text x="661.7" y="398" class="value">173.74</text>
<text x="10" y="430" class="label">epicgames.com</text>
<rect x="180" y="414" width="486.37" height="22" fill="#4c78a8" rx="3"/>
<text x="674.37" y="430" class="value">178.39</text>
<text x="10" y="462" class="label">store.akamai.steamstatic.com</text>
<rect x="180" y="446" width="519.31" height="22" fill="#4c78a8" rx="3"/>
<text x="707.31" y="462" class="value">190.47</text>
<text x="10" y="494" class="label">static3.cdn.ubi.com</text>
<rect x="180" y="478" width="580.0" height="22" fill="#4c78a8" rx="3"/>
<text x="768.0" y="494" class="value">212.73</text>
<line x1="180" y1="30" x2="180" y2="520" stroke="#ccc"/>
<line x1="180" y1="520" x2="760" y2="520" stroke="#ccc"/>
</svg>