<svg xmlns="http://www.w3.org/2000/svg" width="800" height="540">
<style> .label{font-family:DejaVu Sans,Verdana,Geneva,sans-serif;font-size:12px;fill:#333} .value{font-family:DejaVu Sans,Verdana,Geneva,sans-serif;font-size:12px;fill:#555} </style>
<text x="10" y="20" class="label">延迟柱状图（越低越好，Top 15），单位 ms</text>
<text x="10" y="46" class="label">rockstargames.com</text>
<rect x="180" y="30" width="106.71" height="22" fill="#4c78a8" rx="3"/>
<text x="294.71" y="46" class="value">47.80</text>
<text x="10" y="78" class="label">ea.com</text>
<rect x="180" y="62" width="195.21" height="22" fill="#4c78a8" rx="3"/>
<text x="383.21000000000004" y="78" class="value">87.44</text>
<text x="10" y="110" class="label">eaassets-a.akamaihd.net</text>
<rect x="180" y="94" width="197.02" height="22" fill="#4c78a8" rx="3"/>
<text x="385.02" y="110" class="value">88.25</text>
<text x="10" y="142" class="label">store.akamai.steamstatic.com</text>
<rect x="180" y="126" width="264.97" height="22" fill="#4c78a8" rx="3"/>
<text x="452.97" y="142" class="value">118.69</text>
<text x="10" y="174" class="label">steamcdn-a.akamaihd.net</text>
<rect x="180" y="158" width="286.67" height="22" fill="#4c78a8" rx="3"/>
<text x="474.67" y="174" class="value">128.41</text>
<text x="10" y="206" class="label">origin.com</text>
<rect x="180" y="190" width="292.32" height="22" fill="#4c78a8" rx="3"/>
<text x="480.32" y="206" class="value">130.94</text>
<text x="10" y="238" class="label">ubisoft.com</text>
<rect x="180" y="222" width="300.85" height="22" fill="#4c78a8" rx="3"/>
<text x="488.85" y="238" class="value">134.76</text>
<text x="10" y="270" class="label">cdn.cloudflare.steamstatic.com</text>
<rect x="180" y="254" width="313.13" height="22" fill="#4c78a8" rx="3"/>
<text x="501.13" y="270" class="value">140.26</text>
<text x="10" y="302" class="label">cdn.akamai.steamstatic.com</text>
<rect x="180" y="286" width="333.62" height="22" fill="#4c78a8" rx="3"/>
<text x="521.62" y="302" class="value">149.44</text>
<text x="10" y="334" class="label">community.akamai.steamstatic.com</text>
<rect x="180" y="318" width="380.26" height="22" fill="#4c78a8" rx="3"/>
<text x="568.26" y="334" class="value">170.33</text>
<text x="10" y="366" class="label">easyanticheat.net</text>
<rect x="180" y="350" width="504.23" height="22" fill="#4c78a8" rx="3"/>
<text x="692.23" y="366" class="value">225.86</text>
<text x="10" y="398" class="label">api.steampowered.com</text>
<rect x="180" y="382" width="551.71" height="22" fill="#4c78a8" rx="3"/>
<text x="739.71" y="398" class="value">247.13</text>
<text x="10" y="430" class="label">steamcommunity.com</text>
<rect x="180" y="414" width="554.71" height="22" fill="#4c78a8" rx="3"/>
<text x="742.71" y="430" class="value">248.47</text>
<text x="10" y="462" class="label">www.steamcommunity.com</text>
<rect x="180" y="446" width="573.21" height="22" fill="#4c78a8" rx="3"/>
<text x="761.21" y="462" class="value">256.76</text>
<text x="10" y="494" class="label">steam-chat.com</text>
<rect x="180" y="478" width="580.0" height="22" fill="#4c78a8" rx="3"/>
<text x="768.0" y="494" class="value">259.80</text>
<line x1="180" y1="30" x2="180" y2="520" stroke="#ccc"/>
<line x1="180" y1="520" x2="760" y2="520" stroke="#ccc"/>
</svg>