<svg xmlns="http://www.w3.org/2000/svg" width="800" height="540">
<style> .label{font-family:DejaVu Sans,Verdana,Geneva,sans-serif;font-size:12px;fill:#333} .value{font-family:DejaVu Sans,Verdana,Geneva,sans-serif;font-size:12px;fill:#555} </style>
<text x="10" y="20" class="label">延迟柱状图（越低越好，Top 15），单位 ms</text>
<text x="10" y="46" class="label">cdn.cloudflare.steamstatic.com</text>
<rect x="180" y="30" width="272.03" height="22" fill="#4c78a8" rx="3"/>
<text x="460.03" y="46" class="value">106.93</text>
<text x="10" y="78" class="label">ea.com</text>
<rect x="180" y="62" width="296.88" height="22" fill="#4c78a8" rx="3"/>
<text x="484.88" y="78" class="value">116.70</text>
<text x="10" y="110" class="label">community.akamai.steamstatic.com</text>
<rect x="180" y="94" width="318.71" height="22" fill="#4c78a8" rx="3"/>
<text x="506.71" y="110" class="value">125.28</text>
<text x="10" y="142" class="label">eaassets-a.akamaihd.net</text>
<rect x="180" y="126" width="330.31" height="22" fill="#4c78a8" rx="3"/>
<text x="518.31" y="142" class="value">129.84</text>
<text x="10" y="174" class="label">ubisoft.com</text>
<rect x="180" y="158" width="372.9" height="22" fill="#4c78a8" rx="3"/>
<text x="560.9" y="174" class="value">146.58</text>
<text x="10" y="206" class="label">rockstargames.com</text>
<rect x="180" y="190" width="412.71" height="22" fill="#4c78a8" rx="3"/>
<text x="600.71" y="206" class="value">162.23</text>
<text x="10" y="238" class="label">cdn.akamai.steamstatic.com</text>
<rect x="180" y="222" width="424.61" height="22" fill="#4c78a8" rx="3"/>
<text x="612.61" y="238" class="value">166.91</text>
<text x="10" y="270" class="label">easyanticheat.net</text>
<rect x="180" y="254" width="428.61" height="22" fill="#4c78a8" rx="3"/>
<text x="616.61" y="270" class="value">168.48</text>
<text x="10" y="302" class="label">store.akamai.steamstatic.com</text>
<rect x="180" y="286" width="457.43" height="22" fill="#4c78a8" rx="3"/>
<text x="645.4300000000001" y="302" class="value">179.81</text>
<text x="10" y="334" class="label">steamcdn-a.akamaihd.net</text>
<rect x="180" y="318" width="457.46" height="22" fill="#4c78a8" rx="3"/>
<text x="645.46" y="334" class="value">179.82</text>
<text x="10" y="366" class="label">origin.com</text>
<rect x="180" y="350" width="464.25" height="22" fill="#4c78a8" rx="3"/>
<text x="652.25" y="366" class="value">182.49</text>
<text x="10" y="398" class="label">ubi.com</text>
<rect x="180" y="382" width="540.75" height="22" fill="#4c78a8" rx="3"/>
<text x="728.75" y="398" class="value">212.56</text>
<text x="10" y="430" class="label">unrealengine.com</text>
<rect x="180" y="414" width="557.74" height="22" fill="#4c78a8" rx="3"/>
<text x="745.74" y="430" class="value">219.24</text>
<text x="10" y="462" class="label">api.steampowered.com</text>
<rect x="180" y="446" width="579.16" height="22" fill="#4c78a8" rx="3"/>
<text x="767.16" y="462" class="value">227.66</text>
<text x="10" y="494" class="label">blizzard.com</text>
<rect x="180" y="478" width="580.0" height="22" fill="#4c78a8" rx="3"/>
<text x="768.0" y="494" class="value">227.99</text>
<line x1="180" y1="30" x2="180" y2="520" stroke="#ccc"/>
<line x1="180" y1="520" x2="760" y2="520" stroke="#ccc"/>
</svg>