<svg xmlns="http://www.w3.org/2000/svg" width="800" height="540">
<style> .label{font-family:DejaVu Sans,Verdana,Geneva,sans-serif;font-size:12px;fill:#333} .value{font-family:DejaVu Sans,Verdana,Geneva,sans-serif;font-size:12px;fill:#555} </style>
<text x="10" y="20" class="label">延迟柱状图（越低越好，Top 15），单位 ms</text>
<text x="10" y="46" class="label">eaassets-a.akamaihd.net</text>
<rect x="180" y="30" width="132.36" height="22" fill="#4c78a8" rx="3"/>
<text x="320.36" y="46" class="value">43.10</text>
<text x="10" y="78" class="label">rockstargames.com</text>
<rect x="180" y="62" width="267.72" height="22" fill="#4c78a8" rx="3"/>
<text x="455.72" y="78" class="value">87.18</text>
<text x="10" y="110" class="label">steamcdn-a.akamaihd.net</text>
<rect x="180" y="94" width="287.19" height="22" fill="#4c78a8" rx="3"/>
<text x="475.19" y="110" class="value">93.52</text>
<text x="10" y="142" class="label">ea.com</text>
<rect x="180" y="126" width="326.68" height="22" fill="#4c78a8" rx="3"/>
<text x="514.6800000000001" y="142" class="value">106.38</text>
<text x="10" y="174" class="label">blizzard.com</text>
<rect x="180" y="158" width="394.27" height="22" fill="#4c78a8" rx="3"/>
<text x="582.27" y="174" class="value">128.39</text>
<text x="10" y="206" class="label">socialclub.rockstargames.com</text>
<rect x="180" y="190" width="430.26" height="22" fill="#4c78a8" rx="3"/>
<text x="618.26" y="206" class="value">140.11</text>
<text x="10" y="238" class="label">community.akamai.steamstatic.com</text>
<rect x="180" y="222" width="444.63" height="22" fill="#4c78a8" rx="3"/>
<text x="632.63" y="238" class="value">144.79</text>
<text x="10" y="270" class="label">battle.net</text>
<rect x="180" y="254" width="449.49" height="22" fill="#4c78a8" rx="3"/>
<text x="637.49" y="270" class="value">146.37</text>
<text x="10" y="302" class="label">cdn.cloudflare.steamstatic.com</text>
<rect x="180" y="286" width="480.56" height="22" fill="#4c78a8" rx="3"/>
<text x="668.56" y="302" class="value">156.49</text>
<text x="10" y="334" class="label">ubi.com</text>
<rect x="180" y="318" width="495.58" height="22" fill="#4c78a8" rx="3"/>
<text x="683.5799999999999" y="334" class="value">161.38</text>
<text x="10" y="366" class="label">origin.com</text>
<rect x="180" y="350" width="531.2" height="22" fill="#4c78a8" rx="3"/>
<text x="719.2" y="366" class="value">172.98</text>
<text x="10" y="398" class="label">steam-chat.com</text>
<rect x="180" y="382" width="552.73" height="22" fill="#4c78a8" rx="3"/>
<text x="740.73" y="398" class="value">179.99</text>
<text x="10" y="430" class="label">cdn.akamai.steamstatic.com</text>
<rect x="180" y="414" width="558.66" height="22" fill="#4c78a8" rx="3"/>
<text x="746.66" y="430" class="value">181.92</text>
<text x="10" y="462" class="label">static3.cdn.ubi.com</text>
<rect x="180" y="446" width="573.43" height="22" fill="#4c78a8" rx="3"/>
<text x="761.43" y="462" class="value">186.73</text>
<text x="10" y="494" class="label">api.steampowered.com</text>
<rect x="180" y="478" width="580.0" height="22" fill="#4c78a8" rx="3"/>
<text x="768.0" y="494" class="value">188.87</text>
<line x1="180" y1="30" x2="180" y2="520" stroke="#ccc"/>
<line x1="180" y1="520" x2="760" y2="520" stroke="#ccc"/>
</svg>