<svg xmlns="http://www.w3.org/2000/svg" width="800" height="540">
<style> .label{font-family:DejaVu Sans,Verdana,Geneva,sans-serif;font-size:12px;fill:#333} .value{font-family:DejaVu Sans,Verdana,Geneva,sans-serif;font-size:12px;fill:#555} </style>
<text x="10" y="20" class="label">延迟柱状图（越低越好，Top 15），单位 ms</text>
<text x="10" y="46" class="label">eaassets-a.akamaihd.net</text>
<rect x="180" y="30" width="149.67" height="22" fill="#4c78a8" rx="3"/>
<text x="337.66999999999996" y="46" class="value">61.44</text>
<text x="10" y="78" class="label">rockstargames.com</text>
<rect x="180" y="62" width="187.58" height="22" fill="#4c78a8" rx="3"/>
<text x="375.58000000000004" y="78" class="value">77.00</text>
<text x="10" y="110" class="label">socialclub.rockstargames.com</text>
<rect x="180" y="94" width="207.41" height="22" fill="#4c78a8" rx="3"/>
<text x="395.40999999999997" y="110" class="value">85.14</text>
<text x="10" y="142" class="label">ubi.com</text>
<rect x="180" y="126" width="250.69" height="22" fill="#4c78a8" rx="3"/>
<text x="438.69" y="142" class="value">102.91</text>
<text x="10" y="174" class="label">battle.net</text>
<rect x="180" y="158" width="252.55" height="22" fill="#4c78a8" rx="3"/>
<text x="440.55" y="174" class="value">103.67</text>
<text x="10" y="206" class="label">blizzard.com</text>
<rect x="180" y="190" width="254.98" height="22" fill="#4c78a8" rx="3"/>
<text x="442.98" y="206" class="value">104.67</text>
<text x="10" y="238" class="label">ea.com</text>
<rect x="180" y="222" width="294.96" height="22" fill="#4c78a8" rx="3"/>
<text x="482.96" y="238" class="value">121.08</text>
<text x="10" y="270" class="label">unrealengine.com</text>
<rect x="180" y="254" width="411.64" height="22" fill="#4c78a8" rx="3"/>
<text x="599.64" y="270" class="value">168.98</text>
<text x="10" y="302" class="label">fortnite.com</text>
<rect x="180" y="286" width="423.95" height="22" fill="#4c78a8" rx="3"/>
<text x="611.95" y="302" class="value">174.03</text>
<text x="10" y="334" class="label">cdn.akamai.steamstatic.com</text>
<rect x="180" y="318" width="428.65" height="22" fill="#4c78a8" rx="3"/>
<text x="616.65" y="334" class="value">175.96</text>
<text x="10" y="366" class="label">store.akamai.steamstatic.com</text>
<rect x="180" y="350" width="455.83" height="22" fill="#4c78a8" rx="3"/>
<text x="643.8299999999999" y="366" class="value">187.12</text>
<text x="10" y="398" class="label">community.akamai.steamstatic.com</text>
<rect x="180" y="382" width="524.92" height="22" fill="#4c78a8" rx="3"/>
<text x="712.92" y="398" class="value">215.48</text>
<text x="10" y="430" class="label">gog.com</text>
<rect x="180" y="414" width="531.16" height="22" fill="#4c78a8" rx="3"/>
<text x="719.16" y="430" class="value">218.04</text>
<text x="10" y="462" class="label">static3.cdn.ubi.com</text>
<rect x="180" y="446" width="546.38" height="22" fill="#4c78a8" rx="3"/>
<text x="734.38" y="462" class="value">224.29</text>
<text x="10" y="494" class="label">epicgames.com</text>
<rect x="180" y="478" width="580.0" height="22" fill="#4c78a8" rx="3"/>
<text x="768.0" y="494" class="value">238.09</text>
<line x1="180" y1="30" x2="180" y2="520" stroke="#ccc"/>
<line x1="180" y1="520" x2="760" y2="520" stroke="#ccc"/>
</svg>