<svg xmlns="http://www.w3.org/2000/svg" width="800" height="540">
<style> .label{font-family:DejaVu Sans,Verdana,Geneva,sans-serif;font-size:12px;fill:#333} .value{font-family:DejaVu Sans,Verdana,Geneva,sans-serif;font-size:12px;fill:#555} </style>
<text x="10" y="20" class="label">延迟柱状图（越低越好，Top 15），单位 ms</text>
<text x="10" y="46" class="label">rockstargames.com</text>
<rect x="180" y="30" width="191.52" height="22" fill="#4c78a8" rx="3"/>
<text x="379.52" y="46" class="value">60.29</text>
<text x="10" y="78" class="label">fortnite.com</text>
<rect x="180" y="62" width="227.83" height="22" fill="#4c78a8" rx="3"/>
<text x="415.83000000000004" y="78" class="value">71.72</text>
<text x="10" y="110" class="label">socialclub.rockstargames.com</text>
<rect x="180" y="94" width="258.58" height="22" fill="#4c78a8" rx="3"/>
<text x="446.58" y="110" class="value">81.40</text>
<text x="10" y="142" class="label">blizzard.com</text>
<rect x="180" y="126" width="279.17" height="22" fill="#4c78a8" rx="3"/>
<text x="467.17" y="142" class="value">87.88</text>
<text x="10" y="174" class="label">eaassets-a.akamaihd.net</text>
<rect x="180" y="158" width="289.9" height="22" fill="#4c78a8" rx="3"/>
<text x="477.9" y="174" class="value">91.26</text>
<text x="10" y="206" class="label">ea.com</text>
<rect x="180" y="190" width="304.61" height="22" fill="#4c78a8" rx="3"/>
<text x="492.61" y="206" class="value">95.89</text>
<text x="10" y="238" class="label">battle.net</text>
<rect x="180" y="222" width="308.33" height="22" fill="#4c78a8" rx="3"/>
<text x="496.33" y="238" class="value">97.06</text>
<text x="10" y="270" class="label">ubisoft.com</text>
<rect x="180" y="254" width="317.54" height="22" fill="#4c78a8" rx="3"/>
<text x="505.54" y="270" class="value">99.96</text>
<text x="10" y="302" class="label">ubi.com</text>
<rect x="180" y="286" width="331.68" height="22" fill="#4c78a8" rx="3"/>
<text x="519.6800000000001" y="302" class="value">104.41</text>
<text x="10" y="334" class="label">static3.cdn.ubi.com</text>
<rect x="180" y="318" width="414.4" height="22" fill="#4c78a8" rx="3"/>
<text x="602.4" y="334" class="value">130.45</text>
<text x="10" y="366" class="label">origin.com</text>
<rect x="180" y="350" width="426.72" height="22" fill="#4c78a8" rx="3"/>
<text x="614.72" y="366" class="value">134.33</text>
<text x="10" y="398" class="label">cdn.akamai.steamstatic.com</text>
<rect x="180" y="382" width="480.41" height="22" fill="#4c78a8" rx="3"/>
<text x="668.4100000000001" y="398" class="value">151.23</text>
<text x="10" y="430" class="label">community.akamai.steamstatic.com</text>
<rect x="180" y="414" width="529.52" height="22" fill="#4c78a8" rx="3"/>
<text x="717.52" y="430" class="value">166.69</text>
<text x="10" y="462" class="label">unrealengine.com</text>
<rect x="180" y="446" width="539.15" height="22" fill="#4c78a8" rx="3"/>
<text x="727.15" y="462" class="value">169.72</text>
<text x="10" y="494" class="label">steamcdn-a.akamaihd.net</text>
<rect x="180" y="478" width="580.0" height="22" fill="#4c78a8" rx="3"/>
<text x="768.0" y="494" class="value">182.58</text>
<line x1="180" y1="30" x2="180" y2="520" stroke="#ccc"/>
<line x1="180" y1="520" x2="760" y2="520" stroke="#ccc"/>
</svg>