<svg xmlns="http://www.w3.org/2000/svg" width="800" height="540">
<style> .label{font-family:DejaVu Sans,Verdana,Geneva,sans-serif;font-size:12px;fill:#333} .value{font-family:DejaVu Sans,Verdana,Geneva,sans-serif;font-size:12px;fill:#555} </style>
<text x="10" y="20" class="label">延迟柱状图（越低越好，Top 15），单位 ms</text>
<text x="10" y="46" class="label">eaassets-a.akamaihd.net</text>
<rect x="180" y="30" width="66.33" height="22" fill="#4c78a8" rx="3"/>
<text x="254.32999999999998" y="46" class="value">33.29</text>
<text x="10" y="78" class="label">rockstargames.com</text>
<rect x="180" y="62" width="69.8" height="22" fill="#4c78a8" rx="3"/>
<text x="257.8" y="78" class="value">35.03</text>
<text x="10" y="110" class="label">ea.com</text>
<rect x="180" y="94" width="79.82" height="22" fill="#4c78a8" rx="3"/>
<text x="267.82" y="110" class="value">40.06</text>
<text x="10" y="142" class="label">cdn.akamai.steamstatic.com</text>
<rect x="180" y="126" width="165.38" height="22" fill="#4c78a8" rx="3"/>
<text x="353.38" y="142" class="value">83.00</text>
<text x="10" y="174" class="label">origin.com</text>
<rect x="180" y="158" width="236.75" height="22" fill="#4c78a8" rx="3"/>
<text x="424.75" y="174" class="value">118.82</text>
<text x="10" y="206" class="label">easyanticheat.net</text>
<rect x="180" y="190" width="330.58" height="22" fill="#4c78a8" rx="3"/>
<text x="518.5799999999999" y="206" class="value">165.91</text>
<text x="10" y="238" class="label">steamcdn-a.akamaihd.net</text>
<rect x="180" y="222" width="406.97" height="22" fill="#4c78a8" rx="3"/>
<text x="594.97" y="238" class="value">204.25</text>
<text x="10" y="270" class="label">community.akamai.steamstatic.com</text>
<rect x="180" y="254" width="412.49" height="22" fill="#4c78a8" rx="3"/>
<text x="600.49" y="270" class="value">207.02</text>
<text x="10" y="302" class="label">cdn.cloudflare.steamstatic.com</text>
<rect x="180" y="286" width="450.69" height="22" fill="#4c78a8" rx="3"/>
<text x="638.69" y="302" class="value">226.19</text>
<text x="10" y="334" class="label">steam-chat.com</text>
<rect x="180" y="318" width="538.14" height="22" fill="#4c78a8" rx="3"/>
<text x="726.14" y="334" class="value">270.08</text>
<text x="10" y="366" class="label">ubisoft.com</text>
<rect x="180" y="350" width="548.98" height="22" fill="#4c78a8" rx="3"/>
<text x="736.98" y="366" class="value">275.52</text>
<text x="10" y="398" class="label">launcher-public-service-prod06.ol.epicgames.com</text>
<rect x="180" y="382" width="564.28" height="22" fill="#4c78a8" rx="3"/>
<text x="752.28" y="398" class="value">283.20</text>
<text x="10" y="430" class="label">battle.net</text>
<rect x="180" y="414" width="569.8" height="22" fill="#4c78a8" rx="3"/>
<text x="757.8" y="430" class="value">285.97</text>
<text x="10" y="462" class="label">www.steamcommunity.com</text>
<rect x="180" y="446" width="579.16" height="22" fill="#4c78a8" rx="3"/>
<text x="767.16" y="462" class="value">290.67</text>
<text x="10" y="494" class="label">api.steampowered.com</text>
<rect x="180" y="478" width="580.0" height="22" fill="#4c78a8" rx="3"/>
<text x="768.0" y="494" class="value">291.09</text>
<line x1="180" y1="30" x2="180" y2="520" stroke="#ccc"/>
<line x1="180" y1="520" x2="760" y2="520" stroke="#ccc"/>
</svg>