<svg xmlns="http://www.w3.org/2000/svg" width="800" height="540">
<style> .label{font-family:DejaVu Sans,Verdana,Geneva,sans-serif;font-size:12px;fill:#333} .value{font-family:DejaVu Sans,Verdana,Geneva,sans-serif;font-size:12px;fill:#555} </style>
<text x="10" y="20" class="label">延迟柱状图（越低越好，Top 15），单位 ms</text>
<text x="10" y="46" class="label">steamcdn-a.akamaihd.net</text>
<rect x="180" y="30" width="275.05" height="22" fill="#4c78a8" rx="3"/>
<text x="463.05" y="46" class="value">119.37</text>
<text x="10" y="78" class="label">eaassets-a.akamaihd.net</text>
<rect x="180" y="62" width="297.17" height="22" fill="#4c78a8" rx="3"/>
<text x="485.17" y="78" class="value">128.97</text>
<text x="10" y="110" class="label">store.akamai.steamstatic.com</text>
<rect x="180" y="94" width="359.82" height="22" fill="#4c78a8" rx="3"/>
<text x="547.8199999999999" y="110" class="value">156.16</text>
<text x="10" y="142" class="label">ubisoft.com</text>
<rect x="180" y="126" width="375.85" height="22" fill="#4c78a8" rx="3"/>
<text x="563.85" y="142" class="value">163.12</text>
<text x="10" y="174" class="label">easyanticheat.net</text>
<rect x="180" y="158" width="402.0" height="22" fill="#4c78a8" rx="3"/>
<text x="590.0" y="174" class="value">174.47</text>
<text x="10" y="206" class="label">cdn.cloudflare.steamstatic.com</text>
<rect x="180" y="190" width="414.47" height="22" fill="#4c78a8" rx="3"/>
<text x="602.47" y="206" class="value">179.88</text>
<text x="10" y="238" class="label">rockstargames.com</text>
<rect x="180" y="222" width="438.92" height="22" fill="#4c78a8" rx="3"/>
<text x="626.9200000000001" y="238" class="value">190.49</text>
<text x="10" y="270" class="label">battle.net</text>
<rect x="180" y="254" width="501.24" height="22" fill="#4c78a8" rx="3"/>
<text x="689.24" y="270" class="value">217.54</text>
<text x="10" y="302" class="label">blizzard.com</text>
<rect x="180" y="286" width="506.24" height="22" fill="#4c78a8" rx="3"/>
<text x="694.24" y="302" class="value">219.71</text>
<text x="10" y="334" class="label">launcher-public-service-prod06.ol.epicgames.com</text>
<rect x="180" y="318" width="507.49" height="22" fill="#4c78a8" rx="3"/>
<text x="695.49" y="334" class="value">220.25</text>
<text x="10" y="366" class="label">steam-chat.com</text>
<rect x="180" y="350" width="530.55" height="22" fill="#4c78a8" rx="3"/>
<text x="718.55" y="366" class="value">230.26</text>
<text x="10" y="398" class="label">ubi.com</text>
<rect x="180" y="382" width="532.86" height="22" fill="#4c78a8" rx="3"/>
<text x="720.86" y="398" class="value">231.26</text>
<text x="10" y="430" class="label">cdn.akamai.steamstatic.com</text>
<rect x="180" y="414" width="537.88" height="22" fill="#4c78a8" rx="3"/>
<text x="725.88" y="430" class="value">233.44</text>
<text x="10" y="462" class="label">community.akamai.steamstatic.com</text>
<rect x="180" y="446" width="549.03" height="22" fill="#4c78a8" rx="3"/>
<text x="737.03" y="462" class="value">238.28</text>
<text x="10" y="494" class="label">socialclub.rockstargames.com</text>
<rect x="180" y="478" width="580.0" height="22" fill="#4c78a8" rx="3"/>
<text x="768.0" y="494" class="value">251.72</text>
<line x1="180" y1="30" x2="180" y2="520" stroke="#ccc"/>
<line x1="180" y1="520" x2="760" y2="520" stroke="#ccc"/>
</svg>