<svg xmlns="http://www.w3.org/2000/svg" width="800" height="540">
<style> .label{font-family:DejaVu Sans,Verdana,Geneva,sans-serif;font-size:12px;fill:#333} .value{font-family:DejaVu Sans,Verdana,Geneva,sans-serif;font-size:12px;fill:#555} </style>
<text x="10" y="20" class="label">延迟柱状图（越低越好，Top 15），单位 ms</text>
<text x="10" y="46" class="label">eaassets-a.akamaihd.net</text>
<rect x="180" y="30" width="192.04" height="22" fill="#4c78a8" rx="3"/>
<text x="380.03999999999996" y="46" class="value">63.66</text>
<text x="10" y="78" class="label">store.akamai.steamstatic.com</text>
<rect x="180" y="62" width="202.84" height="22" fill="#4c78a8" rx="3"/>
<text x="390.84000000000003" y="78" class="value">67.24</text>
<text x="10" y="110" class="label">community.akamai.steamstatic.com</text>
<rect x="180" y="94" width="206.64" height="22" fill="#4c78a8" rx="3"/>
<text x="394.64" y="110" class="value">68.50</text>
<text x="10" y="142" class="label">steamcdn-a.akamaihd.net</text>
<rect x="180" y="126" width="248.63" height="22" fill="#4c78a8" rx="3"/>
<text x="436.63" y="142" class="value">82.42</text>
<text x="10" y="174" class="label">ea.com</text>
<rect x="180" y="158" width="253.36" height="22" fill="#4c78a8" rx="3"/>
<text x="441.36" y="174" class="value">83.99</text>
<text x="10" y="206" class="label">rockstargames.com</text>
<rect x="180" y="190" width="254.9" height="22" fill="#4c78a8" rx="3"/>
<text x="442.9" y="206" class="value">84.50</text>
<text x="10" y="238" class="label">socialclub.rockstargames.com</text>
<rect x="180" y="222" width="386.91" height="22" fill="#4c78a8" rx="3"/>
<text x="574.9100000000001" y="238" class="value">128.26</text>
<text x="10" y="270" class="label">ubisoft.com</text>
<rect x="180" y="254" width="405.88" height="22" fill="#4c78a8" rx="3"/>
<text x="593.88" y="270" class="value">134.55</text>
<text x="10" y="302" class="label">cdn.akamai.steamstatic.com</text>
<rect x="180" y="286" width="441.09" height="22" fill="#4c78a8" rx="3"/>
<text x="629.0899999999999" y="302" class="value">146.22</text>
<text x="10" y="334" class="label">cdn.cloudflare.steamstatic.com</text>
<rect x="180" y="318" width="470.86" height="22" fill="#4c78a8" rx="3"/>
<text x="658.86" y="334" class="value">156.09</text>
<text x="10" y="366" class="label">blizzard.com</text>
<rect x="180" y="350" width="494.21" height="22" fill="#4c78a8" rx="3"/>
<text x="682.21" y="366" class="value">163.83</text>
<text x="10" y="398" class="label">battle.net</text>
<rect x="180" y="382" width="517.13" height="22" fill="#4c78a8" rx="3"/>
<text x="705.13" y="398" class="value">171.43</text>
<text x="10" y="430" class="label">ubi.com</text>
<rect x="180" y="414" width="531.61" height="22" fill="#4c78a8" rx="3"/>
<text x="719.61" y="430" class="value">176.23</text>
<text x="10" y="462" class="label">unrealengine.com</text>
<rect x="180" y="446" width="575.6" height="22" fill="#4c78a8" rx="3"/>
<text x="763.6" y="462" class="value">190.81</text>
<text x="10" y="494" class="label">origin.com</text>
<rect x="180" y="478" width="580.0" height="22" fill="#4c78a8" rx="3"/>
<text x="768.0" y="494" class="value">192.27</text>
<line x1="180" y1="30" x2="180" y2="520" stroke="#ccc"/>
<line x1="180" y1="520" x2="760" y2="520" stroke="#ccc"/>
</svg>