<svg xmlns="http://www.w3.org/2000/svg" width="800" height="540">
<style> .label{font-family:DejaVu Sans,Verdana,Geneva,sans-serif;font-size:12px;fill:#333} .value{font-family:DejaVu Sans,Verdana,Geneva,sans-serif;font-size:12px;fill:#555} </style>
<text x="10" y="20" class="label">延迟柱状图（越低越好，Top 15），单位 ms</text>
<text x="10" y="46" class="label">eaassets-a.akamaihd.net</text>
<rect x="180" y="30" width="206.6" height="22" fill="#4c78a8" rx="3"/>
<text x="394.6" y="46" class="value">61.48</text>
<text x="10" y="78" class="label">rockstargames.com</text>
<rect x="180" y="62" width="220.84" height="22" fill="#4c78a8" rx="3"/>
<text x="408.84000000000003" y="78" class="value">65.72</text>
<text x="10" y="110" class="label">ea.com</text>
<rect x="180" y="94" width="236.1" height="22" fill="#4c78a8" rx="3"/>
<text x="424.1" y="110" class="value">70.26</text>
<text x="10" y="142" class="label">easyanticheat.net</text>
<rect x="180" y="126" width="379.59" height="22" fill="#4c78a8" rx="3"/>
<text x="567.5899999999999" y="142" class="value">112.96</text>
<text x="10" y="174" class="label">origin.com</text>
<rect x="180" y="158" width="415.91" height="22" fill="#4c78a8" rx="3"/>
<text x="603.9100000000001" y="174" class="value">123.77</text>
<text x="10" y="206" class="label">steamcdn-a.akamaihd.net</text>
<rect x="180" y="190" width="453.52" height="22" fill="#4c78a8" rx="3"/>
<text x="641.52" y="206" class="value">134.96</text>
<text x="10" y="238" class="label">socialclub.rockstargames.com</text>
<rect x="180" y="222" width="457.08" height="22" fill="#4c78a8" rx="3"/>
<text x="645.0799999999999" y="238" class="value">136.02</text>
<text x="10" y="270" class="label">ubisoft.com</text>
<rect x="180" y="254" width="479.26" height="22" fill="#4c78a8" rx="3"/>
<text x="667.26" y="270" class="value">142.62</text>
<text x="10" y="302" class="label">blizzard.com</text>
<rect x="180" y="286" width="488.67" height="22" fill="#4c78a8" rx="3"/>
<text x="676.6700000000001" y="302" class="value">145.42</text>
<text x="10" y="334" class="label">cdn.akamai.steamstatic.com</text>
<rect x="180" y="318" width="499.12" height="22" fill="#4c78a8" rx="3"/>
<text x="687.12" y="334" class="value">148.53</text>
<text x="10" y="366" class="label">store.akamai.steamstatic.com</text>
<rect x="180" y="350" width="501.37" height="22" fill="#4c78a8" rx="3"/>
<text x="689.37" y="366" class="value">149.20</text>
<text x="10" y="398" class="label">ubi.com</text>
<rect x="180" y="382" width="507.75" height="22" fill="#4c78a8" rx="3"/>
<text x="695.75" y="398" class="value">151.10</text>
<text x="10" y="430" class="label">battle.net</text>
<rect x="180" y="414" width="526.3" height="22" fill="#4c78a8" rx="3"/>
<text x="714.3" y="430" class="value">156.62</text>
<text x="10" y="462" class="label">static3.cdn.ubi.com</text>
<rect x="180" y="446" width="575.06" height="22" fill="#4c78a8" rx="3"/>
<text x="763.06" y="462" class="value">171.13</text>
<text x="10" y="494" class="label">community.akamai.steamstatic.com</text>
<rect x="180" y="478" width="580.0" height="22" fill="#4c78a8" rx="3"/>
<text x="768.0" y="494" class="value">172.60</text>
<line x1="180" y1="30" x2="180" y2="520" stroke="#ccc"/>
<line x1="180" y1="520" x2="760" y2="520" stroke="#ccc"/>
</svg>