<svg xmlns="http://www.w3.org/2000/svg" width="800" height="540">
<style> .label{font-family:DejaVu Sans,Verdana,Geneva,sans-serif;font-size:12px;fill:#333} .value{font-family:DejaVu Sans,Verdana,Geneva,sans-serif;font-size:12px;fill:#555} </style>
<text x="10" y="20" class="label">延迟柱状图（越低越好，Top 15），单位 ms</text>
<text x="10" y="46" class="label">rockstargames.com</text>
<rect x="180" y="30" width="141.84" height="22" fill="#4c78a8" rx="3"/>
<text x="329.84000000000003" y="46" class="value">58.80</text>
<text x="10" y="78" class="label">blizzard.com</text>
<rect x="180" y="62" width="176.5" height="22" fill="#4c78a8" rx="3"/>
<text x="364.5" y="78" class="value">73.17</text>
<text x="10" y="110" class="label">socialclub.rockstargames.com</text>
<rect x="180" y="94" width="213.24" height="22" fill="#4c78a8" rx="3"/>
<text x="401.24" y="110" class="value">88.40</text>
<text x="10" y="142" class="label">battle.net</text>
<rect x="180" y="126" width="227.31" height="22" fill="#4c78a8" rx="3"/>
<text x="415.31" y="142" class="value">94.23</text>
<text x="10" y="174" class="label">ubi.com</text>
<rect x="180" y="158" width="251.28" height="22" fill="#4c78a8" rx="3"/>
<text x="439.28" y="174" class="value">104.17</text>
<text x="10" y="206" class="label">eaassets-a.akamaihd.net</text>
<rect x="180" y="190" width="280.76" height="22" fill="#4c78a8" rx="3"/>
<text x="468.76" y="206" class="value">116.39</text>
<text x="10" y="238" class="label">cdn.cloudflare.steamstatic.com</text>
<rect x="180" y="222" width="281.15" height="22" fill="#4c78a8" rx="3"/>
<text x="469.15" y="238" class="value">116.55</text>
<text x="10" y="270" class="label">ea.com</text>
<rect x="180" y="254" width="326.01" height="22" fill="#4c78a8" rx="3"/>
<text x="514.01" y="270" class="value">135.15</text>
<text x="10" y="302" class="label">epicgames.com</text>
<rect x="180" y="286" width="424.36" height="22" fill="#4c78a8" rx="3"/>
<text x="612.36" y="302" class="value">175.92</text>
<text x="10" y="334" class="label">unrealengine.com</text>
<rect x="180" y="318" width="456.28" height="22" fill="#4c78a8" rx="3"/>
<text x="644.28" y="334" class="value">189.15</text>
<text x="10" y="366" class="label">community.akamai.steamstatic.com</text>
<rect x="180" y="350" width="480.3" height="22" fill="#4c78a8" rx="3"/>
<text x="668.3" y="366" class="value">199.11</text>
<text x="10" y="398" class="label">fortnite.com</text>
<rect x="180" y="382" width="498.88" height="22" fill="#4c78a8" rx="3"/>
<text x="686.88" y="398" class="value">206.81</text>
<text x="10" y="430" class="label">ubisoft.com</text>
<rect x="180" y="414" width="514.46" height="22" fill="#4c78a8" rx="3"/>
<text x="702.46" y="430" class="value">213.27</text>
<text x="10" y="462" class="label">store.akamai.steamstatic.com</text>
<rect x="180" y="446" width="563.84" height="22" fill="#4c78a8" rx="3"/>
<text x="751.84" y="462" class="value">233.74</text>
<text x="10" y="494" class="label">steamcdn-a.akamaihd.net</text>
<rect x="180" y="478" width="580.0" height="22" fill="#4c78a8" rx="3"/>
<text x="768.0" y="494" class="value">240.44</text>
<line x1="180" y1="30" x2="180" y2="520" stroke="#ccc"/>
<line x1="180" y1="520" x2="760" y2="520" stroke="#ccc"/>
</svg>