<svg xmlns="http://www.w3.org/2000/svg" width="800" height="540">
<style> .label{font-family:DejaVu Sans,Verdana,Geneva,sans-serif;font-size:12px;fill:#333} .value{font-family:DejaVu Sans,Verdana,Geneva,sans-serif;font-size:12px;fill:#555} </style>
<text x="10" y="20" class="label">延迟柱状图（越低越好，Top 15），单位 ms</text>
<text x="10" y="46" class="label">rockstargames.com</text>
<rect x="180" y="30" width="210.64" height="22" fill="#4c78a8" rx="3"/>
<text x="398.64" y="46" class="value">81.93</text>
<text x="10" y="78" class="label">socialclub.rockstargames.com</text>
<rect x="180" y="62" width="237.13" height="22" fill="#4c78a8" rx="3"/>
<text x="425.13" y="78" class="value">92.23</text>
<text x="10" y="110" class="label">eaassets-a.akamaihd.net</text>
<rect x="180" y="94" width="259.42" height="22" fill="#4c78a8" rx="3"/>
<text x="447.42" y="110" class="value">100.90</text>
<text x="10" y="142" class="label">blizzard.com</text>
<rect x="180" y="126" width="276.36" height="22" fill="#4c78a8" rx="3"/>
<text x="464.36" y="142" class="value">107.49</text>
<text x="10" y="174" class="label">battle.net</text>
<rect x="180" y="158" width="283.02" height="22" fill="#4c78a8" rx="3"/>
<text x="471.02" y="174" class="value">110.08</text>
<text x="10" y="206" class="label">ea.com</text>
<rect x="180" y="190" width="287.78" height="22" fill="#4c78a8" rx="3"/>
<text x="475.78" y="206" class="value">111.93</text>
<text x="10" y="238" class="label">ubi.com</text>
<rect x="180" y="222" width="299.06" height="22" fill="#4c78a8" rx="3"/>
<text x="487.06" y="238" class="value">116.32</text>
<text x="10" y="270" class="label">ubisoft.com</text>
<rect x="180" y="254" width="360.41" height="22" fill="#4c78a8" rx="3"/>
<text x="548.4100000000001" y="270" class="value">140.18</text>
<text x="10" y="302" class="label">store.akamai.steamstatic.com</text>
<rect x="180" y="286" width="374.65" height="22" fill="#4c78a8" rx="3"/>
<text x="562.65" y="302" class="value">145.72</text>
<text x="10" y="334" class="label">unrealengine.com</text>
<rect x="180" y="318" width="432.78" height="22" fill="#4c78a8" rx="3"/>
<text x="620.78" y="334" class="value">168.33</text>
<text x="10" y="366" class="label">fortnite.com</text>
<rect x="180" y="350" width="467.18" height="22" fill="#4c78a8" rx="3"/>
<text x="655.1800000000001" y="366" class="value">181.71</text>
<text x="10" y="398" class="label">static3.cdn.ubi.com</text>
<rect x="180" y="382" width="486.62" height="22" fill="#4c78a8" rx="3"/>
<text x="674.62" y="398" class="value">189.27</text>
<text x="10" y="430" class="label">community.akamai.steamstatic.com</text>
<rect x="180" y="414" width="514.28" height="22" fill="#4c78a8" rx="3"/>
<text x="702.28" y="430" class="value">200.03</text>
<text x="10" y="462" class="label">origin.com</text>
<rect x="180" y="446" width="576.99" height="22" fill="#4c78a8" rx="3"/>
<text x="764.99" y="462" class="value">224.42</text>
<text x="10" y="494" class="label">epicgames.com</text>
<rect x="180" y="478" width="580.0" height="22" fill="#4c78a8" rx="3"/>
<text x="768.0" y="494" class="value">225.59</text>
<line x1="180" y1="30" x2="180" y2="520" stroke="#ccc"/>
<line x1="180" y1="520" x2="760" y2="520" stroke="#ccc"/>
</svg>