<svg xmlns="http://www.w3.org/2000/svg" width="800" height="540">
<style> .label{font-family:DejaVu Sans,Verdana,Geneva,sans-serif;font-size:12px;fill:#333} .value{font-family:DejaVu Sans,Verdana,Geneva,sans-serif;font-size:12px;fill:#555} </style>
<text x="10" y="20" class="label">延迟柱状图（越低越好，Top 15），单位 ms</text>
<text x="10" y="46" class="label">eaassets-a.akamaihd.net</text>
<rect x="180" y="30" width="166.55" height="22" fill="#4c78a8" rx="3"/>
<text x="354.55" y="46" class="value">75.86</text>
<text x="10" y="78" class="label">rockstargames.com</text>
<rect x="180" y="62" width="179.29" height="22" fill="#4c78a8" rx="3"/>
<text x="367.28999999999996" y="78" class="value">81.66</text>
<text x="10" y="110" class="label">ubisoft.com</text>
<rect x="180" y="94" width="232.53" height="22" fill="#4c78a8" rx="3"/>
<text x="420.53" y="110" class="value">105.91</text>
<text x="10" y="142" class="label">store.akamai.steamstatic.com</text>
<rect x="180" y="126" width="240.87" height="22" fill="#4c78a8" rx="3"/>
<text x="428.87" y="142" class="value">109.71</text>
<text x="10" y="174" class="label">ea.com</text>
<rect x="180" y="158" width="259.47" height="22" fill="#4c78a8" rx="3"/>
<text x="447.47" y="174" class="value">118.18</text>
<text x="10" y="206" class="label">cdn.akamai.steamstatic.com</text>
<rect x="180" y="190" width="262.59" height="22" fill="#4c78a8" rx="3"/>
<text x="450.59" y="206" class="value">119.60</text>
<text x="10" y="238" class="label">steamcdn-a.akamaihd.net</text>
<rect x="180" y="222" width="272.93" height="22" fill="#4c78a8" rx="3"/>
<text x="460.93" y="238" class="value">124.31</text>
<text x="10" y="270" class="label">community.akamai.steamstatic.com</text>
<rect x="180" y="254" width="307.33" height="22" fill="#4c78a8" rx="3"/>
<text x="495.33" y="270" class="value">139.98</text>
<text x="10" y="302" class="label">cdn.cloudflare.steamstatic.com</text>
<rect x="180" y="286" width="317.67" height="22" fill="#4c78a8" rx="3"/>
<text x="505.67" y="302" class="value">144.69</text>
<text x="10" y="334" class="label">origin.com</text>
<rect x="180" y="318" width="362.9" height="22" fill="#4c78a8" rx="3"/>
<text x="550.9" y="334" class="value">165.29</text>
<text x="10" y="366" class="label">easyanticheat.net</text>
<rect x="180" y="350" width="412.08" height="22" fill="#4c78a8" rx="3"/>
<text x="600.0799999999999" y="366" class="value">187.69</text>
<text x="10" y="398" class="label">www.steamcommunity.com</text>
<rect x="180" y="382" width="458.1" height="22" fill="#4c78a8" rx="3"/>
<text x="646.1" y="398" class="value">208.65</text>
<text x="10" y="430" class="label">api.steampowered.com</text>
<rect x="180" y="414" width="502.91" height="22" fill="#4c78a8" rx="3"/>
<text x="690.9100000000001" y="430" class="value">229.06</text>
<text x="10" y="462" class="label">steam-chat.com</text>
<rect x="180" y="446" width="560.68" height="22" fill="#4c78a8" rx="3"/>
<text x="748.68" y="462" class="value">255.37</text>
<text x="10" y="494" class="label">gog.com</text>
<rect x="180" y="478" width="580.0" height="22" fill="#4c78a8" rx="3"/>
<text x="768.0" y="494" class="value">264.17</text>
<line x1="180" y1="30" x2="180" y2="520" stroke="#ccc"/>
<line x1="180" y1="520" x2="760" y2="520" stroke="#ccc"/>
</svg>