<svg xmlns="http://www.w3.org/2000/svg" width="800" height="540">
<style> .label{font-family:DejaVu Sans,Verdana,Geneva,sans-serif;font-size:12px;fill:#333} .value{font-family:DejaVu Sans,Verdana,Geneva,sans-serif;font-size:12px;fill:#555} </style>
<text x="10" y="20" class="label">延迟柱状图（越低越好，Top 15），单位 ms</text>
<text x="10" y="46" class="label">eaassets-a.akamaihd.net</text>
<rect x="180" y="30" width="268.89" height="22" fill="#4c78a8" rx="3"/>
<text x="456.89" y="46" class="value">132.32</text>
<text x="10" y="78" class="label">ea.com</text>
<rect x="180" y="62" width="287.91" height="22" fill="#4c78a8" rx="3"/>
<text x="475.91" y="78" class="value">141.68</text>
<text x="10" y="110" class="label">store.akamai.steamstatic.com</text>
<rect x="180" y="94" width="312.23" height="22" fill="#4c78a8" rx="3"/>
<text x="500.23" y="110" class="value">153.65</text>
<text x="10" y="142" class="label">ubisoft.com</text>
<rect x="180" y="126" width="324.61" height="22" fill="#4c78a8" rx="3"/>
<text x="512.61" y="142" class="value">159.74</text>
<text x="10" y="174" class="label">steamcdn-a.akamaihd.net</text>
<rect x="180" y="158" width="363.91" height="22" fill="#4c78a8" rx="3"/>
<text x="551.9100000000001" y="174" class="value">179.08</text>
<text x="10" y="206" class="label">easyanticheat.net</text>
<rect x="180" y="190" width="380.57" height="22" fill="#4c78a8" rx="3"/>
<text x="568.5699999999999" y="206" class="value">187.28</text>
<text x="10" y="238" class="label">rockstargames.com</text>
<rect x="180" y="222" width="384.37" height="22" fill="#4c78a8" rx="3"/>
<text x="572.37" y="238" class="value">189.15</text>
<text x="10" y="270" class="label">ubi.com</text>
<rect x="180" y="254" width="418.59" height="22" fill="#4c78a8" rx="3"/>
<text x="606.5899999999999" y="270" class="value">205.99</text>
<text x="10" y="302" class="label">battle.net</text>
<rect x="180" y="286" width="472.97" height="22" fill="#4c78a8" rx="3"/>
<text x="660.97" y="302" class="value">232.75</text>
<text x="10" y="334" class="label">blizzard.com</text>
<rect x="180" y="318" width="473.03" height="22" fill="#4c78a8" rx="3"/>
<text x="661.03" y="334" class="value">232.78</text>
<text x="10" y="366" class="label">steam-chat.com</text>
<rect x="180" y="350" width="492.07" height="22" fill="#4c78a8" rx="3"/>
<text x="680.0699999999999" y="366" class="value">242.15</text>
<text x="10" y="398" class="label">cdn.akamai.steamstatic.com</text>
<rect x="180" y="382" width="525.46" height="22" fill="#4c78a8" rx="3"/>
<text x="713.46" y="398" class="value">258.58</text>
<text x="10" y="430" class="label">socialclub.rockstargames.com</text>
<rect x="180" y="414" width="533.32" height="22" fill="#4c78a8" rx="3"/>
<text x="721.32" y="430" class="value">262.45</text>
<text x="10" y="462" class="label">epicgames.com</text>
<rect x="180" y="446" width="536.35" height="22" fill="#4c78a8" rx="3"/>
<text x="724.35" y="462" class="value">263.94</text>
<text x="10" y="494" class="label">community.akamai.steamstatic.com</text>
<rect x="180" y="478" width="580.0" height="22" fill="#4c78a8" rx="3"/>
<text x="768.0" y="494" class="value">285.42</text>
<line x1="180" y1="30" x2="180" y2="520" stroke="#ccc"/>
<line x1="180" y1="520" x2="760" y2="520" stroke="#ccc"/>
</svg>