<svg xmlns="http://www.w3.org/2000/svg" width="800" height="540">
<style> .label{font-family:DejaVu Sans,Verdana,Geneva,sans-serif;font-size:12px;fill:#333} .value{font-family:DejaVu Sans,Verdana,Geneva,sans-serif;font-size:12px;fill:#555} </style>
<text x="10" y="20" class="label">延迟柱状图（越低越好，Top 15），单位 ms</text>
<text x="10" y="46" class="label">rockstargames.com</text>
<rect x="180" y="30" width="366.24" height="22" fill="#4c78a8" rx="3"/>
<text x="554.24" y="46" class="value">134.50</text>
<text x="10" y="78" class="label">eaassets-a.akamaihd.net</text>
<rect x="180" y="62" width="396.88" height="22" fill="#4c78a8" rx="3"/>
<text x="584.88" y="78" class="value">145.75</text>
<text x="10" y="110" class="label">easyanticheat.net</text>
<rect x="180" y="94" width="404.64" height="22" fill="#4c78a8" rx="3"/>
<text x="592.64" y="110" class="value">148.60</text>
<text x="10" y="142" class="label">battle.net</text>
<rect x="180" y="126" width="412.51" height="22" fill="#4c78a8" rx="3"/>
<text x="600.51" y="142" class="value">151.49</text>
<text x="10" y="174" class="label">store.akamai.steamstatic.com</text>
<rect x="180" y="158" width="433.39" height="22" fill="#4c78a8" rx="3"/>
<text x="621.39" y="174" class="value">159.16</text>
<text x="10" y="206" class="label">ubi.com</text>
<rect x="180" y="190" width="433.42" height="22" fill="#4c78a8" rx="3"/>
<text x="621.4200000000001" y="206" class="value">159.17</text>
<text x="10" y="238" class="label">community.akamai.steamstatic.com</text>
<rect x="180" y="222" width="444.86" height="22" fill="#4c78a8" rx="3"/>
<text x="632.86" y="238" class="value">163.37</text>
<text x="10" y="270" class="label">ubisoft.com</text>
<rect x="180" y="254" width="449.27" height="22" fill="#4c78a8" rx="3"/>
<text x="637.27" y="270" class="value">164.99</text>
<text x="10" y="302" class="label">blizzard.com</text>
<rect x="180" y="286" width="465.03" height="22" fill="#4c78a8" rx="3"/>
<text x="653.03" y="302" class="value">170.78</text>
<text x="10" y="334" class="label">socialclub.rockstargames.com</text>
<rect x="180" y="318" width="478.43" height="22" fill="#4c78a8" rx="3"/>
<text x="666.4300000000001" y="334" class="value">175.70</text>
<text x="10" y="366" class="label">steamcdn-a.akamaihd.net</text>
<rect x="180" y="350" width="493.65" height="22" fill="#4c78a8" rx="3"/>
<text x="681.65" y="366" class="value">181.29</text>
<text x="10" y="398" class="label">cdn.cloudflare.steamstatic.com</text>
<rect x="180" y="382" width="508.98" height="22" fill="#4c78a8" rx="3"/>
<text x="696.98" y="398" class="value">186.92</text>
<text x="10" y="430" class="label">launcher-public-service-prod06.ol.epicgames.com</text>
<rect x="180" y="414" width="516.55" height="22" fill="#4c78a8" rx="3"/>
<text x="704.55" y="430" class="value">189.70</text>
<text x="10" y="462" class="label">fortnite.com</text>
<rect x="180" y="446" width="522.25" height="22" fill="#4c78a8" rx="3"/>
<text x="710.25" y="462" class="value">191.79</text>
<text x="10" y="494" class="label">epicgames.com</text>
<rect x="180" y="478" width="580.0" height="22" fill="#4c78a8" rx="3"/>
<text x="768.0" y="494" class="value">213.00</text>
<line x1="180" y1="30" x2="180" y2="520" stroke="#ccc"/>
<line x1="180" y1="520" x2="760" y2="520" stroke="#ccc"/>
</svg>