<svg xmlns="http://www.w3.org/2000/svg" width="800" height="540">
<style> .label{font-family:DejaVu Sans,Verdana,Geneva,sans-serif;font-size:12px;fill:#333} .value{font-family:DejaVu Sans,Verdana,Geneva,sans-serif;font-size:12px;fill:#555} </style>
<text x="10" y="20" class="label">延迟柱状图（越低越好，Top 15），单位 ms</text>
<text x="10" y="46" class="label">rockstargames.com</text>
<rect x="180" y="30" width="179.25" height="22" fill="#4c78a8" rx="3"/>
<text x="367.25" y="46" class="value">82.24</text>
<text x="10" y="78" class="label">steamcdn-a.akamaihd.net</text>
<rect x="180" y="62" width="193.29" height="22" fill="#4c78a8" rx="3"/>
<text x="381.28999999999996" y="78" class="value">88.68</text>
<text x="10" y="110" class="label">eaassets-a.akamaihd.net</text>
<rect x="180" y="94" width="275.18" height="22" fill="#4c78a8" rx="3"/>
<text x="463.18" y="110" class="value">126.25</text>
<text x="10" y="142" class="label">easyanticheat.net</text>
<rect x="180" y="126" width="318.05" height="22" fill="#4c78a8" rx="3"/>
<text x="506.05" y="142" class="value">145.92</text>
<text x="10" y="174" class="label">blizzard.com</text>
<rect x="180" y="158" width="322.15" height="22" fill="#4c78a8" rx="3"/>
<text x="510.15" y="174" class="value">147.80</text>
<text x="10" y="206" class="label">community.akamai.steamstatic.com</text>
<rect x="180" y="190" width="331.57" height="22" fill="#4c78a8" rx="3"/>
<text x="519.5699999999999" y="206" class="value">152.12</text>
<text x="10" y="238" class="label">battle.net</text>
<rect x="180" y="222" width="335.9" height="22" fill="#4c78a8" rx="3"/>
<text x="523.9" y="238" class="value">154.11</text>
<text x="10" y="270" class="label">ubi.com</text>
<rect x="180" y="254" width="362.82" height="22" fill="#4c78a8" rx="3"/>
<text x="550.8199999999999" y="270" class="value">166.46</text>
<text x="10" y="302" class="label">launcher-public-service-prod06.ol.epicgames.com</text>
<rect x="180" y="286" width="392.99" height="22" fill="#4c78a8" rx="3"/>
<text x="580.99" y="302" class="value">180.30</text>
<text x="10" y="334" class="label">socialclub.rockstargames.com</text>
<rect x="180" y="318" width="402.36" height="22" fill="#4c78a8" rx="3"/>
<text x="590.36" y="334" class="value">184.60</text>
<text x="10" y="366" class="label">ea.com</text>
<rect x="180" y="350" width="410.71" height="22" fill="#4c78a8" rx="3"/>
<text x="598.71" y="366" class="value">188.43</text>
<text x="10" y="398" class="label">ubisoft.com</text>
<rect x="180" y="382" width="412.06" height="22" fill="#4c78a8" rx="3"/>
<text x="600.06" y="398" class="value">189.05</text>
<text x="10" y="430" class="label">www.steamcommunity.com</text>
<rect x="180" y="414" width="510.56" height="22" fill="#4c78a8" rx="3"/>
<text x="698.56" y="430" class="value">234.24</text>
<text x="10" y="462" class="label">cdn.cloudflare.steamstatic.com</text>
<rect x="180" y="446" width="511.06" height="22" fill="#4c78a8" rx="3"/>
<text x="699.06" y="462" class="value">234.47</text>
<text x="10" y="494" class="label">cdn.akamai.steamstatic.com</text>
<rect x="180" y="478" width="580.0" height="22" fill="#4c78a8" rx="3"/>
<text x="768.0" y="494" class="value">266.10</text>
<line x1="180" y1="30" x2="180" y2="520" stroke="#ccc"/>
<line x1="180" y1="520" x2="760" y2="520" stroke="#ccc"/>
</svg>