<svg xmlns="http://www.w3.org/2000/svg" width="800" height="540">
<style> .label{font-family:DejaVu Sans,Verdana,Geneva,sans-serif;font-size:12px;fill:#333} .value{font-family:DejaVu Sans,Verdana,Geneva,sans-serif;font-size:12px;fill:#555} </style>
<text x="10" y="20" class="label">延迟柱状图（越低越好，Top 15），单位 ms</text>
<text x="10" y="46" class="label">eaassets-a.akamaihd.net</text>
<rect x="180" y="30" width="197.78" height="22" fill="#4c78a8" rx="3"/>
<text x="385.78" y="46" class="value">62.80</text>
<text x="10" y="78" class="label">rockstargames.com</text>
<rect x="180" y="62" width="260.02" height="22" fill="#4c78a8" rx="3"/>
<text x="448.02" y="78" class="value">82.56</text>
<text x="10" y="110" class="label">ubi.com</text>
<rect x="180" y="94" width="273.4" height="22" fill="#4c78a8" rx="3"/>
<text x="461.4" y="110" class="value">86.81</text>
<text x="10" y="142" class="label">battle.net</text>
<rect x="180" y="126" width="302.03" height="22" fill="#4c78a8" rx="3"/>
<text x="490.03" y="142" class="value">95.90</text>
<text x="10" y="174" class="label">socialclub.rockstargames.com</text>
<rect x="180" y="158" width="317.27" height="22" fill="#4c78a8" rx="3"/>
<text x="505.27" y="174" class="value">100.74</text>
<text x="10" y="206" class="label">blizzard.com</text>
<rect x="180" y="190" width="346.75" height="22" fill="#4c78a8" rx="3"/>
<text x="534.75" y="206" class="value">110.10</text>
<text x="10" y="238" class="label">ea.com</text>
<rect x="180" y="222" width="408.36" height="22" fill="#4c78a8" rx="3"/>
<text x="596.36" y="238" class="value">129.66</text>
<text x="10" y="270" class="label">origin.com</text>
<rect x="180" y="254" width="434.46" height="22" fill="#4c78a8" rx="3"/>
<text x="622.46" y="270" class="value">137.95</text>
<text x="10" y="302" class="label">launcher-public-service-prod06.ol.epicgames.com</text>
<rect x="180" y="286" width="522.02" height="22" fill="#4c78a8" rx="3"/>
<text x="710.02" y="302" class="value">165.75</text>
<text x="10" y="334" class="label">fortnite.com</text>
<rect x="180" y="318" width="528.1" height="22" fill="#4c78a8" rx="3"/>
<text x="716.1" y="334" class="value">167.68</text>
<text x="10" y="366" class="label">epicgames.com</text>
<rect x="180" y="350" width="529.58" height="22" fill="#4c78a8" rx="3"/>
<text x="717.58" y="366" class="value">168.15</text>
<text x="10" y="398" class="label">static3.cdn.ubi.com</text>
<rect x="180" y="382" width="530.3" height="22" fill="#4c78a8" rx="3"/>
<text x="718.3" y="398" class="value">168.38</text>
<text x="10" y="430" class="label">unrealengine.com</text>
<rect x="180" y="414" width="538.33" height="22" fill="#4c78a8" rx="3"/>
<text x="726.33" y="430" class="value">170.93</text>
<text x="10" y="462" class="label">community.akamai.steamstatic.com</text>
<rect x="180" y="446" width="579.37" height="22" fill="#4c78a8" rx="3"/>
<text x="767.37" y="462" class="value">183.96</text>
<text x="10" y="494" class="label">gog.com</text>
<rect x="180" y="478" width="580.0" height="22" fill="#4c78a8" rx="3"/>
<text x="768.0" y="494" class="value">184.16</text>
<line x1="180" y1="30" x2="180" y2="520" stroke="#ccc"/>
<line x1="180" y1="520" x2="760" y2="520" stroke="#ccc"/>
</svg>