<svg xmlns="http://www.w3.org/2000/svg" width="800" height="540">
<style> .label{font-family:DejaVu Sans,Verdana,Geneva,sans-serif;font-size:12px;fill:#333} .value{font-family:DejaVu Sans,Verdana,Geneva,sans-serif;font-size:12px;fill:#555} </style>
<text x="10" y="20" class="label">延迟柱状图（越低越好，Top 15），单位 ms</text>
<text x="10" y="46" class="label">eaassets-a.akamaihd.net</text>
<rect x="180" y="30" width="237.18" height="22" fill="#4c78a8" rx="3"/>
<text x="425.18" y="46" class="value">139.24</text>
<text x="10" y="78" class="label">ea.com</text>
<rect x="180" y="62" width="255.73" height="22" fill="#4c78a8" rx="3"/>
<text x="443.73" y="78" class="value">150.13</text>
<text x="10" y="110" class="label">easyanticheat.net</text>
<rect x="180" y="94" width="267.94" height="22" fill="#4c78a8" rx="3"/>
<text x="455.94" y="110" class="value">157.30</text>
<text x="10" y="142" class="label">rockstargames.com</text>
<rect x="180" y="126" width="271.57" height="22" fill="#4c78a8" rx="3"/>
<text x="459.57" y="142" class="value">159.43</text>
<text x="10" y="174" class="label">ubisoft.com</text>
<rect x="180" y="158" width="292.25" height="22" fill="#4c78a8" rx="3"/>
<text x="480.25" y="174" class="value">171.57</text>
<text x="10" y="206" class="label">ubi.com</text>
<rect x="180" y="190" width="334.24" height="22" fill="#4c78a8" rx="3"/>
<text x="522.24" y="206" class="value">196.22</text>
<text x="10" y="238" class="label">store.akamai.steamstatic.com</text>
<rect x="180" y="222" width="433.1" height="22" fill="#4c78a8" rx="3"/>
<text x="621.1" y="238" class="value">254.26</text>
<text x="10" y="270" class="label">socialclub.rockstargames.com</text>
<rect x="180" y="254" width="469.43" height="22" fill="#4c78a8" rx="3"/>
<text x="657.4300000000001" y="270" class="value">275.59</text>
<text x="10" y="302" class="label">steamcdn-a.akamaihd.net</text>
<rect x="180" y="286" width="483.16" height="22" fill="#4c78a8" rx="3"/>
<text x="671.1600000000001" y="302" class="value">283.65</text>
<text x="10" y="334" class="label">api.steampowered.com</text>
<rect x="180" y="318" width="484.46" height="22" fill="#4c78a8" rx="3"/>
<text x="672.46" y="334" class="value">284.41</text>
<text x="10" y="366" class="label">cdn.akamai.steamstatic.com</text>
<rect x="180" y="350" width="509.79" height="22" fill="#4c78a8" rx="3"/>
<text x="697.79" y="366" class="value">299.28</text>
<text x="10" y="398" class="label">cdn.cloudflare.steamstatic.com</text>
<rect x="180" y="382" width="536.8" height="22" fill="#4c78a8" rx="3"/>
<text x="724.8" y="398" class="value">315.14</text>
<text x="10" y="430" class="label">community.akamai.steamstatic.com</text>
<rect x="180" y="414" width="545.64" height="22" fill="#4c78a8" rx="3"/>
<text x="733.64" y="430" class="value">320.33</text>
<text x="10" y="462" class="label">launcher-public-service-prod06.ol.epicgames.com</text>
<rect x="180" y="446" width="561.02" height="22" fill="#4c78a8" rx="3"/>
<text x="749.02" y="462" class="value">329.36</text>
<text x="10" y="494" class="label">static3.cdn.ubi.com</text>
<rect x="180" y="478" width="580.0" height="22" fill="#4c78a8" rx="3"/>
<text x="768.0" y="494" class="value">340.50</text>
<line x1="180" y1="30" x2="180" y2="520" stroke="#ccc"/>
<line x1="180" y1="520" x2="760" y2="520" stroke="#ccc"/>
</svg>