<svg xmlns="http://www.w3.org/2000/svg" width="800" height="540">
<style> .label{font-family:DejaVu Sans,Verdana,Geneva,sans-serif;font-size:12px;fill:#333} .value{font-family:DejaVu Sans,Verdana,Geneva,sans-serif;font-size:12px;fill:#555} </style>
<text x="10" y="20" class="label">延迟柱状图（越低越好，Top 15），单位 ms</text>
<text x="10" y="46" class="label">eaassets-a.akamaihd.net</text>
<rect x="180" y="30" width="153.0" height="22" fill="#4c78a8" rx="3"/>
<text x="341.0" y="46" class="value">81.65</text>
<text x="10" y="78" class="label">ubisoft.com</text>
<rect x="180" y="62" width="230.94" height="22" fill="#4c78a8" rx="3"/>
<text x="418.94" y="78" class="value">123.24</text>
<text x="10" y="110" class="label">rockstargames.com</text>
<rect x="180" y="94" width="249.49" height="22" fill="#4c78a8" rx="3"/>
<text x="437.49" y="110" class="value">133.14</text>
<text x="10" y="142" class="label">ea.com</text>
<rect x="180" y="126" width="347.75" height="22" fill="#4c78a8" rx="3"/>
<text x="535.75" y="142" class="value">185.58</text>
<text x="10" y="174" class="label">store.akamai.steamstatic.com</text>
<rect x="180" y="158" width="384.22" height="22" fill="#4c78a8" rx="3"/>
<text x="572.22" y="174" class="value">205.04</text>
<text x="10" y="206" class="label">origin.com</text>
<rect x="180" y="190" width="388.06" height="22" fill="#4c78a8" rx="3"/>
<text x="576.06" y="206" class="value">207.09</text>
<text x="10" y="238" class="label">community.akamai.steamstatic.com</text>
<rect x="180" y="222" width="399.02" height="22" fill="#4c78a8" rx="3"/>
<text x="587.02" y="238" class="value">212.94</text>
<text x="10" y="270" class="label">easyanticheat.net</text>
<rect x="180" y="254" width="420.51" height="22" fill="#4c78a8" rx="3"/>
<text x="608.51" y="270" class="value">224.41</text>
<text x="10" y="302" class="label">cdn.akamai.steamstatic.com</text>
<rect x="180" y="286" width="438.82" height="22" fill="#4c78a8" rx="3"/>
<text x="626.8199999999999" y="302" class="value">234.18</text>
<text x="10" y="334" class="label">gog.com</text>
<rect x="180" y="318" width="447.67" height="22" fill="#4c78a8" rx="3"/>
<text x="635.6700000000001" y="334" class="value">238.90</text>
<text x="10" y="366" class="label">steamcdn-a.akamaihd.net</text>
<rect x="180" y="350" width="454.51" height="22" fill="#4c78a8" rx="3"/>
<text x="642.51" y="366" class="value">242.55</text>
<text x="10" y="398" class="label">cdn.cloudflare.steamstatic.com</text>
<rect x="180" y="382" width="470.12" height="22" fill="#4c78a8" rx="3"/>
<text x="658.12" y="398" class="value">250.88</text>
<text x="10" y="430" class="label">www.steamcommunity.com</text>
<rect x="180" y="414" width="565.5" height="22" fill="#4c78a8" rx="3"/>
<text x="753.5" y="430" class="value">301.78</text>
<text x="10" y="462" class="label">api.steampowered.com</text>
<rect x="180" y="446" width="566.45" height="22" fill="#4c78a8" rx="3"/>
<text x="754.45" y="462" class="value">302.29</text>
<text x="10" y="494" class="label">socialclub.rockstargames.com</text>
<rect x="180" y="478" width="580.0" height="22" fill="#4c78a8" rx="3"/>
<text x="768.0" y="494" class="value">309.52</text>
<line x1="180" y1="30" x2="180" y2="520" stroke="#ccc"/>
<line x1="180" y1="520" x2="760" y2="520" stroke="#ccc"/>
</svg>