<svg xmlns="http://www.w3.org/2000/svg" width="800" height="540">
<style> .label{font-family:DejaVu Sans,Verdana,Geneva,sans-serif;font-size:12px;fill:#333} .value{font-family:DejaVu Sans,Verdana,Geneva,sans-serif;font-size:12px;fill:#555} </style>
<text x="10" y="20" class="label">延迟柱状图（越低越好，Top 15），单位 ms</text>
<text x="10" y="46" class="label">socialclub.rockstargames.com</text>
<rect x="180" y="30" width="202.64" height="22" fill="#4c78a8" rx="3"/>
<text x="390.64" y="46" class="value">78.82</text>
<text x="10" y="78" class="label">rockstargames.com</text>
<rect x="180" y="62" width="208.19" height="22" fill="#4c78a8" rx="3"/>
<text x="396.19" y="78" class="value">80.98</text>
<text x="10" y="110" class="label">ubi.com</text>
<rect x="180" y="94" width="254.68" height="22" fill="#4c78a8" rx="3"/>
<text x="442.68" y="110" class="value">99.06</text>
<text x="10" y="142" class="label">blizzard.com</text>
<rect x="180" y="126" width="292.85" height="22" fill="#4c78a8" rx="3"/>
<text x="480.85" y="142" class="value">113.91</text>
<text x="10" y="174" class="label">battle.net</text>
<rect x="180" y="158" width="311.72" height="22" fill="#4c78a8" rx="3"/>
<text x="499.72" y="174" class="value">121.25</text>
<text x="10" y="206" class="label">ea.com</text>
<rect x="180" y="190" width="335.76" height="22" fill="#4c78a8" rx="3"/>
<text x="523.76" y="206" class="value">130.60</text>
<text x="10" y="238" class="label">origin.com</text>
<rect x="180" y="222" width="338.41" height="22" fill="#4c78a8" rx="3"/>
<text x="526.4100000000001" y="238" class="value">131.63</text>
<text x="10" y="270" class="label">ubisoft.com</text>
<rect x="180" y="254" width="397.75" height="22" fill="#4c78a8" rx="3"/>
<text x="585.75" y="270" class="value">154.71</text>
<text x="10" y="302" class="label">epicgames.com</text>
<rect x="180" y="286" width="413.71" height="22" fill="#4c78a8" rx="3"/>
<text x="601.71" y="302" class="value">160.92</text>
<text x="10" y="334" class="label">unrealengine.com</text>
<rect x="180" y="318" width="416.03" height="22" fill="#4c78a8" rx="3"/>
<text x="604.03" y="334" class="value">161.82</text>
<text x="10" y="366" class="label">easyanticheat.net</text>
<rect x="180" y="350" width="443.97" height="22" fill="#4c78a8" rx="3"/>
<text x="631.97" y="366" class="value">172.69</text>
<text x="10" y="398" class="label">cdn.akamai.steamstatic.com</text>
<rect x="180" y="382" width="468.55" height="22" fill="#4c78a8" rx="3"/>
<text x="656.55" y="398" class="value">182.25</text>
<text x="10" y="430" class="label">store.akamai.steamstatic.com</text>
<rect x="180" y="414" width="524.21" height="22" fill="#4c78a8" rx="3"/>
<text x="712.21" y="430" class="value">203.90</text>
<text x="10" y="462" class="label">steam-chat.com</text>
<rect x="180" y="446" width="579.18" height="22" fill="#4c78a8" rx="3"/>
<text x="767.18" y="462" class="value">225.28</text>
<text x="10" y="494" class="label">static3.cdn.ubi.com</text>
<rect x="180" y="478" width="580.0" height="22" fill="#4c78a8" rx="3"/>
<text x="768.0" y="494" class="value">225.60</text>
<line x1="180" y1="30" x2="180" y2="520" stroke="#ccc"/>
<line x1="180" y1="520" x2="760" y2="520" stroke="#ccc"/>
</svg>