<svg xmlns="http://www.w3.org/2000/svg" width="800" height="540">
<style> .label{font-family:DejaVu Sans,Verdana,Geneva,sans-serif;font-size:12px;fill:#333} .value{font-family:DejaVu Sans,Verdana,Geneva,sans-serif;font-size:12px;fill:#555} </style>
<text x="10" y="20" class="label">延迟柱状图（越低越好，Top 15），单位 ms</text>
<text x="10" y="46" class="label">eaassets-a.akamaihd.net</text>
<rect x="180" y="30" width="177.21" height="22" fill="#4c78a8" rx="3"/>
<text x="365.21000000000004" y="46" class="value">67.03</text>
<text x="10" y="78" class="label">community.akamai.steamstatic.com</text>
<rect x="180" y="62" width="216.94" height="22" fill="#4c78a8" rx="3"/>
<text x="404.94" y="78" class="value">82.06</text>
<text x="10" y="110" class="label">ea.com</text>
<rect x="180" y="94" width="238.3" height="22" fill="#4c78a8" rx="3"/>
<text x="426.3" y="110" class="value">90.14</text>
<text x="10" y="142" class="label">rockstargames.com</text>
<rect x="180" y="126" width="250.01" height="22" fill="#4c78a8" rx="3"/>
<text x="438.01" y="142" class="value">94.57</text>
<text x="10" y="174" class="label">ubi.com</text>
<rect x="180" y="158" width="334.03" height="22" fill="#4c78a8" rx="3"/>
<text x="522.03" y="174" class="value">126.35</text>
<text x="10" y="206" class="label">blizzard.com</text>
<rect x="180" y="190" width="355.74" height="22" fill="#4c78a8" rx="3"/>
<text x="543.74" y="206" class="value">134.56</text>
<text x="10" y="238" class="label">battle.net</text>
<rect x="180" y="222" width="360.1" height="22" fill="#4c78a8" rx="3"/>
<text x="548.1" y="238" class="value">136.21</text>
<text x="10" y="270" class="label">socialclub.rockstargames.com</text>
<rect x="180" y="254" width="374.14" height="22" fill="#4c78a8" rx="3"/>
<text x="562.14" y="270" class="value">141.52</text>
<text x="10" y="302" class="label">store.akamai.steamstatic.com</text>
<rect x="180" y="286" width="408.45" height="22" fill="#4c78a8" rx="3"/>
<text x="596.45" y="302" class="value">154.50</text>
<text x="10" y="334" class="label">origin.com</text>
<rect x="180" y="318" width="409.24" height="22" fill="#4c78a8" rx="3"/>
<text x="597.24" y="334" class="value">154.80</text>
<text x="10" y="366" class="label">gog.com</text>
<rect x="180" y="350" width="463.89" height="22" fill="#4c78a8" rx="3"/>
<text x="651.89" y="366" class="value">175.47</text>
<text x="10" y="398" class="label">api.steampowered.com</text>
<rect x="180" y="382" width="501.03" height="22" fill="#4c78a8" rx="3"/>
<text x="689.03" y="398" class="value">189.52</text>
<text x="10" y="430" class="label">cdn.akamai.steamstatic.com</text>
<rect x="180" y="414" width="552.48" height="22" fill="#4c78a8" rx="3"/>
<text x="740.48" y="430" class="value">208.98</text>
<text x="10" y="462" class="label">steamcdn-a.akamaihd.net</text>
<rect x="180" y="446" width="562.18" height="22" fill="#4c78a8" rx="3"/>
<text x="750.18" y="462" class="value">212.65</text>
<text x="10" y="494" class="label">www.steamcommunity.com</text>
<rect x="180" y="478" width="580.0" height="22" fill="#4c78a8" rx="3"/>
<text x="768.0" y="494" class="value">219.39</text>
<line x1="180" y1="30" x2="180" y2="520" stroke="#ccc"/>
<line x1="180" y1="520" x2="760" y2="520" stroke="#ccc"/>
</svg>