<svg xmlns="http://www.w3.org/2000/svg" width="800" height="540">
<style> .label{font-family:DejaVu Sans,Verdana,Geneva,sans-serif;font-size:12px;fill:#333} .value{font-family:DejaVu Sans,Verdana,Geneva,sans-serif;font-size:12px;fill:#555} </style>
<text x="10" y="20" class="label">延迟柱状图（越低越好，Top 15），单位 ms</text>
<text x="10" y="46" class="label">rockstargames.com</text>
<rect x="180" y="30" width="132.9" height="22" fill="#4c78a8" rx="3"/>
<text x="320.9" y="46" class="value">63.95</text>
<text x="10" y="78" class="label">steamcdn-a.akamaihd.net</text>
<rect x="180" y="62" width="206.57" height="22" fill="#4c78a8" rx="3"/>
<text x="394.57" y="78" class="value">99.40</text>
<text x="10" y="110" class="label">ubisoft.com</text>
<rect x="180" y="94" width="220.12" height="22" fill="#4c78a8" rx="3"/>
<text x="408.12" y="110" class="value">105.92</text>
<text x="10" y="142" class="label">cdn.akamai.steamstatic.com</text>
<rect x="180" y="126" width="233.48" height="22" fill="#4c78a8" rx="3"/>
<text x="421.48" y="142" class="value">112.35</text>
<text x="10" y="174" class="label">eaassets-a.akamaihd.net</text>
<rect x="180" y="158" width="249.61" height="22" fill="#4c78a8" rx="3"/>
<text x="437.61" y="174" class="value">120.11</text>
<text x="10" y="206" class="label">origin.com</text>
<rect x="180" y="190" width="299.11" height="22" fill="#4c78a8" rx="3"/>
<text x="487.11" y="206" class="value">143.93</text>
<text x="10" y="238" class="label">cdn.cloudflare.steamstatic.com</text>
<rect x="180" y="222" width="301.84" height="22" fill="#4c78a8" rx="3"/>
<text x="489.84" y="238" class="value">145.24</text>
<text x="10" y="270" class="label">ea.com</text>
<rect x="180" y="254" width="313.18" height="22" fill="#4c78a8" rx="3"/>
<text x="501.18" y="270" class="value">150.70</text>
<text x="10" y="302" class="label">store.akamai.steamstatic.com</text>
<rect x="180" y="286" width="375.65" height="22" fill="#4c78a8" rx="3"/>
<text x="563.65" y="302" class="value">180.76</text>
<text x="10" y="334" class="label">community.akamai.steamstatic.com</text>
<rect x="180" y="318" width="377.92" height="22" fill="#4c78a8" rx="3"/>
<text x="565.9200000000001" y="334" class="value">181.85</text>
<text x="10" y="366" class="label">www.steamcommunity.com</text>
<rect x="180" y="350" width="416.3" height="22" fill="#4c78a8" rx="3"/>
<text x="604.3" y="366" class="value">200.32</text>
<text x="10" y="398" class="label">easyanticheat.net</text>
<rect x="180" y="382" width="428.79" height="22" fill="#4c78a8" rx="3"/>
<text x="616.79" y="398" class="value">206.33</text>
<text x="10" y="430" class="label">launcher-public-service-prod06.ol.epicgames.com</text>
<rect x="180" y="414" width="571.35" height="22" fill="#4c78a8" rx="3"/>
<text x="759.35" y="430" class="value">274.93</text>
<text x="10" y="462" class="label">api.steampowered.com</text>
<rect x="180" y="446" width="579.25" height="22" fill="#4c78a8" rx="3"/>
<text x="767.25" y="462" class="value">278.73</text>
<text x="10" y="494" class="label">ubi.com</text>
<rect x="180" y="478" width="580.0" height="22" fill="#4c78a8" rx="3"/>
<text x="768.0" y="494" class="value">279.09</text>
<line x1="180" y1="30" x2="180" y2="520" stroke="#ccc"/>
<line x1="180" y1="520" x2="760" y2="520" stroke="#ccc"/>
</svg>