<svg xmlns="http://www.w3.org/2000/svg" width="800" height="540">
<style> .label{font-family:DejaVu Sans,Verdana,Geneva,sans-serif;font-size:12px;fill:#333} .value{font-family:DejaVu Sans,Verdana,Geneva,sans-serif;font-size:12px;fill:#555} </style>
<text x="10" y="20" class="label">延迟柱状图（越低越好，Top 15），单位 ms</text>
<text x="10" y="46" class="label">eaassets-a.akamaihd.net</text>
<rect x="180" y="30" width="288.02" height="22" fill="#4c78a8" rx="3"/>
<text x="476.02" y="46" class="value">89.41</text>
<text x="10" y="78" class="label">ubisoft.com</text>
<rect x="180" y="62" width="302.74" height="22" fill="#4c78a8" rx="3"/>
<text x="490.74" y="78" class="value">93.98</text>
<text x="10" y="110" class="label">store.akamai.steamstatic.com</text>
<rect x="180" y="94" width="309.6" height="22" fill="#4c78a8" rx="3"/>
<text x="497.6" y="110" class="value">96.11</text>
<text x="10" y="142" class="label">rockstargames.com</text>
<rect x="180" y="126" width="339.11" height="22" fill="#4c78a8" rx="3"/>
<text x="527.11" y="142" class="value">105.27</text>
<text x="10" y="174" class="label">community.akamai.steamstatic.com</text>
<rect x="180" y="158" width="385.75" height="22" fill="#4c78a8" rx="3"/>
<text x="573.75" y="174" class="value">119.75</text>
<text x="10" y="206" class="label">steamcdn-a.akamaihd.net</text>
<rect x="180" y="190" width="389.17" height="22" fill="#4c78a8" rx="3"/>
<text x="577.1700000000001" y="206" class="value">120.81</text>
<text x="10" y="238" class="label">socialclub.rockstargames.com</text>
<rect x="180" y="222" width="405.69" height="22" fill="#4c78a8" rx="3"/>
<text x="593.69" y="238" class="value">125.94</text>
<text x="10" y="270" class="label">blizzard.com</text>
<rect x="180" y="254" width="437.1" height="22" fill="#4c78a8" rx="3"/>
<text x="625.1" y="270" class="value">135.69</text>
<text x="10" y="302" class="label">battle.net</text>
<rect x="180" y="286" width="481.65" height="22" fill="#4c78a8" rx="3"/>
<text x="669.65" y="302" class="value">149.52</text>
<text x="10" y="334" class="label">ubi.com</text>
<rect x="180" y="318" width="524.5" height="22" fill="#4c78a8" rx="3"/>
<text x="712.5" y="334" class="value">162.82</text>
<text x="10" y="366" class="label">ea.com</text>
<rect x="180" y="350" width="524.72" height="22" fill="#4c78a8" rx="3"/>
<text x="712.72" y="366" class="value">162.89</text>
<text x="10" y="398" class="label">cdn.cloudflare.steamstatic.com</text>
<rect x="180" y="382" width="564.44" height="22" fill="#4c78a8" rx="3"/>
<text x="752.44" y="398" class="value">175.22</text>
<text x="10" y="430" class="label">cdn.akamai.steamstatic.com</text>
<rect x="180" y="414" width="569.98" height="22" fill="#4c78a8" rx="3"/>
<text x="757.98" y="430" class="value">176.94</text>
<text x="10" y="462" class="label">origin.com</text>
<rect x="180" y="446" width="577.39" height="22" fill="#4c78a8" rx="3"/>
<text x="765.39" y="462" class="value">179.24</text>
<text x="10" y="494" class="label">launcher-public-service-prod06.ol.epicgames.com</text>
<rect x="180" y="478" width="580.0" height="22" fill="#4c78a8" rx="3"/>
<text x="768.0" y="494" class="value">180.05</text>
<line x1="180" y1="30" x2="180" y2="520" stroke="#ccc"/>
<line x1="180" y1="520" x2="760" y2="520" stroke="#ccc"/>
</svg>