<svg xmlns="http://www.w3.org/2000/svg" width="800" height="540">
<style> .label{font-family:DejaVu Sans,Verdana,Geneva,sans-serif;font-size:12px;fill:#333} .value{font-family:DejaVu Sans,Verdana,Geneva,sans-serif;font-size:12px;fill:#555} </style>
<text x="10" y="20" class="label">延迟柱状图（越低越好，Top 15），单位 ms</text>
<text x="10" y="46" class="label">cdn.akamai.steamstatic.com</text>
<rect x="180" y="30" width="123.63" height="22" fill="#4c78a8" rx="3"/>
<text x="311.63" y="46" class="value">36.44</text>
<text x="10" y="78" class="label">rockstargames.com</text>
<rect x="180" y="62" width="207.54" height="22" fill="#4c78a8" rx="3"/>
<text x="395.53999999999996" y="78" class="value">61.17</text>
<text x="10" y="110" class="label">eaassets-a.akamaihd.net</text>
<rect x="180" y="94" width="221.41" height="22" fill="#4c78a8" rx="3"/>
<text x="409.40999999999997" y="110" class="value">65.26</text>
<text x="10" y="142" class="label">battle.net</text>
<rect x="180" y="126" width="251.31" height="22" fill="#4c78a8" rx="3"/>
<text x="439.31" y="142" class="value">74.07</text>
<text x="10" y="174" class="label">ubi.com</text>
<rect x="180" y="158" width="257.68" height="22" fill="#4c78a8" rx="3"/>
<text x="445.68" y="174" class="value">75.95</text>
<text x="10" y="206" class="label">ubisoft.com</text>
<rect x="180" y="190" width="268.47" height="22" fill="#4c78a8" rx="3"/>
<text x="456.47" y="206" class="value">79.13</text>
<text x="10" y="238" class="label">socialclub.rockstargames.com</text>
<rect x="180" y="222" width="306.85" height="22" fill="#4c78a8" rx="3"/>
<text x="494.85" y="238" class="value">90.44</text>
<text x="10" y="270" class="label">blizzard.com</text>
<rect x="180" y="254" width="314.04" height="22" fill="#4c78a8" rx="3"/>
<text x="502.04" y="270" class="value">92.56</text>
<text x="10" y="302" class="label">fortnite.com</text>
<rect x="180" y="286" width="350.75" height="22" fill="#4c78a8" rx="3"/>
<text x="538.75" y="302" class="value">103.38</text>
<text x="10" y="334" class="label">unrealengine.com</text>
<rect x="180" y="318" width="387.09" height="22" fill="#4c78a8" rx="3"/>
<text x="575.0899999999999" y="334" class="value">114.09</text>
<text x="10" y="366" class="label">ea.com</text>
<rect x="180" y="350" width="488.02" height="22" fill="#4c78a8" rx="3"/>
<text x="676.02" y="366" class="value">143.84</text>
<text x="10" y="398" class="label">epicgames.com</text>
<rect x="180" y="382" width="560.9" height="22" fill="#4c78a8" rx="3"/>
<text x="748.9" y="398" class="value">165.32</text>
<text x="10" y="430" class="label">community.akamai.steamstatic.com</text>
<rect x="180" y="414" width="562.7" height="22" fill="#4c78a8" rx="3"/>
<text x="750.7" y="430" class="value">165.85</text>
<text x="10" y="462" class="label">static3.cdn.ubi.com</text>
<rect x="180" y="446" width="564.94" height="22" fill="#4c78a8" rx="3"/>
<text x="752.94" y="462" class="value">166.51</text>
<text x="10" y="494" class="label">origin.com</text>
<rect x="180" y="478" width="580.0" height="22" fill="#4c78a8" rx="3"/>
<text x="768.0" y="494" class="value">170.95</text>
<line x1="180" y1="30" x2="180" y2="520" stroke="#ccc"/>
<line x1="180" y1="520" x2="760" y2="520" stroke="#ccc"/>
</svg>