<svg xmlns="http://www.w3.org/2000/svg" width="800" height="540">
<style> .label{font-family:DejaVu Sans,Verdana,Geneva,sans-serif;font-size:12px;fill:#333} .value{font-family:DejaVu Sans,Verdana,Geneva,sans-serif;font-size:12px;fill:#555} </style>
<text x="10" y="20" class="label">延迟柱状图（越低越好，Top 15），单位 ms</text>
<text x="10" y="46" class="label">rockstargames.com</text>
<rect x="180" y="30" width="178.51" height="22" fill="#4c78a8" rx="3"/>
<text x="366.51" y="46" class="value">71.85</text>
<text x="10" y="78" class="label">eaassets-a.akamaihd.net</text>
<rect x="180" y="62" width="210.21" height="22" fill="#4c78a8" rx="3"/>
<text x="398.21000000000004" y="78" class="value">84.61</text>
<text x="10" y="110" class="label">steamcdn-a.akamaihd.net</text>
<rect x="180" y="94" width="304.75" height="22" fill="#4c78a8" rx="3"/>
<text x="492.75" y="110" class="value">122.66</text>
<text x="10" y="142" class="label">ea.com</text>
<rect x="180" y="126" width="324.22" height="22" fill="#4c78a8" rx="3"/>
<text x="512.22" y="142" class="value">130.50</text>
<text x="10" y="174" class="label">ubisoft.com</text>
<rect x="180" y="158" width="329.24" height="22" fill="#4c78a8" rx="3"/>
<text x="517.24" y="174" class="value">132.52</text>
<text x="10" y="206" class="label">cdn.cloudflare.steamstatic.com</text>
<rect x="180" y="190" width="337.96" height="22" fill="#4c78a8" rx="3"/>
<text x="525.96" y="206" class="value">136.03</text>
<text x="10" y="238" class="label">community.akamai.steamstatic.com</text>
<rect x="180" y="222" width="398.96" height="22" fill="#4c78a8" rx="3"/>
<text x="586.96" y="238" class="value">160.58</text>
<text x="10" y="270" class="label">cdn.akamai.steamstatic.com</text>
<rect x="180" y="254" width="435.88" height="22" fill="#4c78a8" rx="3"/>
<text x="623.88" y="270" class="value">175.44</text>
<text x="10" y="302" class="label">store.akamai.steamstatic.com</text>
<rect x="180" y="286" width="443.53" height="22" fill="#4c78a8" rx="3"/>
<text x="631.53" y="302" class="value">178.52</text>
<text x="10" y="334" class="label">origin.com</text>
<rect x="180" y="318" width="468.07" height="22" fill="#4c78a8" rx="3"/>
<text x="656.0699999999999" y="334" class="value">188.40</text>
<text x="10" y="366" class="label">easyanticheat.net</text>
<rect x="180" y="350" width="474.86" height="22" fill="#4c78a8" rx="3"/>
<text x="662.86" y="366" class="value">191.13</text>
<text x="10" y="398" class="label">api.steampowered.com</text>
<rect x="180" y="382" width="503.45" height="22" fill="#4c78a8" rx="3"/>
<text x="691.45" y="398" class="value">202.64</text>
<text x="10" y="430" class="label">steam-chat.com</text>
<rect x="180" y="414" width="524.97" height="22" fill="#4c78a8" rx="3"/>
<text x="712.97" y="430" class="value">211.30</text>
<text x="10" y="462" class="label">www.steamcommunity.com</text>
<rect x="180" y="446" width="538.93" height="22" fill="#4c78a8" rx="3"/>
<text x="726.93" y="462" class="value">216.92</text>
<text x="10" y="494" class="label">gog.com</text>
<rect x="180" y="478" width="580.0" height="22" fill="#4c78a8" rx="3"/>
<text x="768.0" y="494" class="value">233.45</text>
<line x1="180" y1="30" x2="180" y2="520" stroke="#ccc"/>
<line x1="180" y1="520" x2="760" y2="520" stroke="#ccc"/>
</svg>