<svg xmlns="http://www.w3.org/2000/svg" width="800" height="540">
<style> .label{font-family:DejaVu Sans,Verdana,Geneva,sans-serif;font-size:12px;fill:#333} .value{font-family:DejaVu Sans,Verdana,Geneva,sans-serif;font-size:12px;fill:#555} </style>
<text x="10" y="20" class="label">延迟柱状图（越低越好，Top 15），单位 ms</text>
<text x="10" y="46" class="label">eaassets-a.akamaihd.net</text>
<rect x="180" y="30" width="186.43" height="22" fill="#4c78a8" rx="3"/>
<text x="374.43" y="46" class="value">52.22</text>
<text x="10" y="78" class="label">rockstargames.com</text>
<rect x="180" y="62" width="213.89" height="22" fill="#4c78a8" rx="3"/>
<text x="401.89" y="78" class="value">59.91</text>
<text x="10" y="110" class="label">community.akamai.steamstatic.com</text>
<rect x="180" y="94" width="296.57" height="22" fill="#4c78a8" rx="3"/>
<text x="484.57" y="110" class="value">83.07</text>
<text x="10" y="142" class="label">steamcdn-a.akamaihd.net</text>
<rect x="180" y="126" width="316.63" height="22" fill="#4c78a8" rx="3"/>
<text x="504.63" y="142" class="value">88.69</text>
<text x="10" y="174" class="label">origin.com</text>
<rect x="180" y="158" width="364.08" height="22" fill="#4c78a8" rx="3"/>
<text x="552.0799999999999" y="174" class="value">101.98</text>
<text x="10" y="206" class="label">store.akamai.steamstatic.com</text>
<rect x="180" y="190" width="407.31" height="22" fill="#4c78a8" rx="3"/>
<text x="595.31" y="206" class="value">114.09</text>
<text x="10" y="238" class="label">ubisoft.com</text>
<rect x="180" y="222" width="414.28" height="22" fill="#4c78a8" rx="3"/>
<text x="602.28" y="238" class="value">116.04</text>
<text x="10" y="270" class="label">cdn.cloudflare.steamstatic.com</text>
<rect x="180" y="254" width="419.84" height="22" fill="#4c78a8" rx="3"/>
<text x="607.8399999999999" y="270" class="value">117.60</text>
<text x="10" y="302" class="label">launcher-public-service-prod06.ol.epicgames.com</text>
<rect x="180" y="286" width="452.4" height="22" fill="#4c78a8" rx="3"/>
<text x="640.4" y="302" class="value">126.72</text>
<text x="10" y="334" class="label">blizzard.com</text>
<rect x="180" y="318" width="458.08" height="22" fill="#4c78a8" rx="3"/>
<text x="646.0799999999999" y="334" class="value">128.31</text>
<text x="10" y="366" class="label">battle.net</text>
<rect x="180" y="350" width="468.58" height="22" fill="#4c78a8" rx="3"/>
<text x="656.5799999999999" y="366" class="value">131.25</text>
<text x="10" y="398" class="label">socialclub.rockstargames.com</text>
<rect x="180" y="382" width="469.47" height="22" fill="#4c78a8" rx="3"/>
<text x="657.47" y="398" class="value">131.50</text>
<text x="10" y="430" class="label">static3.cdn.ubi.com</text>
<rect x="180" y="414" width="472.33" height="22" fill="#4c78a8" rx="3"/>
<text x="660.3299999999999" y="430" class="value">132.30</text>
<text x="10" y="462" class="label">ubi.com</text>
<rect x="180" y="446" width="501.14" height="22" fill="#4c78a8" rx="3"/>
<text x="689.14" y="462" class="value">140.37</text>
<text x="10" y="494" class="label">easyanticheat.net</text>
<rect x="180" y="478" width="580.0" height="22" fill="#4c78a8" rx="3"/>
<text x="768.0" y="494" class="value">162.46</text>
<line x1="180" y1="30" x2="180" y2="520" stroke="#ccc"/>
<line x1="180" y1="520" x2="760" y2="520" stroke="#ccc"/>
</svg>