<svg xmlns="http://www.w3.org/2000/svg" width="800" height="540">
<style> .label{font-family:DejaVu Sans,Verdana,Geneva,sans-serif;font-size:12px;fill:#333} .value{font-family:DejaVu Sans,Verdana,Geneva,sans-serif;font-size:12px;fill:#555} </style>
<text x="10" y="20" class="label">延迟柱状图（越低越好，Top 15），单位 ms</text>
<text x="10" y="46" class="label">eaassets-a.akamaihd.net</text>
<rect x="180" y="30" width="132.16" height="22" fill="#4c78a8" rx="3"/>
<text x="320.15999999999997" y="46" class="value">45.72</text>
<text x="10" y="78" class="label">ea.com</text>
<rect x="180" y="62" width="223.13" height="22" fill="#4c78a8" rx="3"/>
<text x="411.13" y="78" class="value">77.19</text>
<text x="10" y="110" class="label">rockstargames.com</text>
<rect x="180" y="94" width="256.14" height="22" fill="#4c78a8" rx="3"/>
<text x="444.14" y="110" class="value">88.61</text>
<text x="10" y="142" class="label">community.akamai.steamstatic.com</text>
<rect x="180" y="126" width="297.79" height="22" fill="#4c78a8" rx="3"/>
<text x="485.79" y="142" class="value">103.02</text>
<text x="10" y="174" class="label">blizzard.com</text>
<rect x="180" y="158" width="378.41" height="22" fill="#4c78a8" rx="3"/>
<text x="566.4100000000001" y="174" class="value">130.91</text>
<text x="10" y="206" class="label">socialclub.rockstargames.com</text>
<rect x="180" y="190" width="402.86" height="22" fill="#4c78a8" rx="3"/>
<text x="590.86" y="206" class="value">139.37</text>
<text x="10" y="238" class="label">ubi.com</text>
<rect x="180" y="222" width="403.7" height="22" fill="#4c78a8" rx="3"/>
<text x="591.7" y="238" class="value">139.66</text>
<text x="10" y="270" class="label">cdn.akamai.steamstatic.com</text>
<rect x="180" y="254" width="405.81" height="22" fill="#4c78a8" rx="3"/>
<text x="593.81" y="270" class="value">140.39</text>
<text x="10" y="302" class="label">battle.net</text>
<rect x="180" y="286" width="418.27" height="22" fill="#4c78a8" rx="3"/>
<text x="606.27" y="302" class="value">144.70</text>
<text x="10" y="334" class="label">static3.cdn.ubi.com</text>
<rect x="180" y="318" width="447.96" height="22" fill="#4c78a8" rx="3"/>
<text x="635.96" y="334" class="value">154.97</text>
<text x="10" y="366" class="label">cdn.cloudflare.steamstatic.com</text>
<rect x="180" y="350" width="464.58" height="22" fill="#4c78a8" rx="3"/>
<text x="652.5799999999999" y="366" class="value">160.72</text>
<text x="10" y="398" class="label">ubisoft.com</text>
<rect x="180" y="382" width="486.03" height="22" fill="#4c78a8" rx="3"/>
<text x="674.03" y="398" class="value">168.14</text>
<text x="10" y="430" class="label">store.akamai.steamstatic.com</text>
<rect x="180" y="414" width="518.4" height="22" fill="#4c78a8" rx="3"/>
<text x="706.4" y="430" class="value">179.34</text>
<text x="10" y="462" class="label">steamcdn-a.akamaihd.net</text>
<rect x="180" y="446" width="569.07" height="22" fill="#4c78a8" rx="3"/>
<text x="757.07" y="462" class="value">196.87</text>
<text x="10" y="494" class="label">origin.com</text>
<rect x="180" y="478" width="580.0" height="22" fill="#4c78a8" rx="3"/>
<text x="768.0" y="494" class="value">200.65</text>
<line x1="180" y1="30" x2="180" y2="520" stroke="#ccc"/>
<line x1="180" y1="520" x2="760" y2="520" stroke="#ccc"/>
</svg>