<svg xmlns="http://www.w3.org/2000/svg" width="800" height="540">
<style> .label{font-family:DejaVu Sans,Verdana,Geneva,sans-serif;font-size:12px;fill:#333} .value{font-family:DejaVu Sans,Verdana,Geneva,sans-serif;font-size:12px;fill:#555} </style>
<text x="10" y="20" class="label">延迟柱状图（越低越好，Top 15），单位 ms</text>
<text x="10" y="46" class="label">rockstargames.com</text>
<rect x="180" y="30" width="90.95" height="22" fill="#4c78a8" rx="3"/>
<text x="278.95" y="46" class="value">33.73</text>
<text x="10" y="78" class="label">battle.net</text>
<rect x="180" y="62" width="176.74" height="22" fill="#4c78a8" rx="3"/>
<text x="364.74" y="78" class="value">65.55</text>
<text x="10" y="110" class="label">socialclub.rockstargames.com</text>
<rect x="180" y="94" width="242.67" height="22" fill="#4c78a8" rx="3"/>
<text x="430.66999999999996" y="110" class="value">90.00</text>
<text x="10" y="142" class="label">eaassets-a.akamaihd.net</text>
<rect x="180" y="126" width="276.02" height="22" fill="#4c78a8" rx="3"/>
<text x="464.02" y="142" class="value">102.37</text>
<text x="10" y="174" class="label">ea.com</text>
<rect x="180" y="158" width="289.74" height="22" fill="#4c78a8" rx="3"/>
<text x="477.74" y="174" class="value">107.46</text>
<text x="10" y="206" class="label">blizzard.com</text>
<rect x="180" y="190" width="290.69" height="22" fill="#4c78a8" rx="3"/>
<text x="478.69" y="206" class="value">107.81</text>
<text x="10" y="238" class="label">epicgames.com</text>
<rect x="180" y="222" width="304.87" height="22" fill="#4c78a8" rx="3"/>
<text x="492.87" y="238" class="value">113.07</text>
<text x="10" y="270" class="label">ubi.com</text>
<rect x="180" y="254" width="313.01" height="22" fill="#4c78a8" rx="3"/>
<text x="501.01" y="270" class="value">116.09</text>
<text x="10" y="302" class="label">ubisoft.com</text>
<rect x="180" y="286" width="323.31" height="22" fill="#4c78a8" rx="3"/>
<text x="511.31" y="302" class="value">119.91</text>
<text x="10" y="334" class="label">unrealengine.com</text>
<rect x="180" y="318" width="377.08" height="22" fill="#4c78a8" rx="3"/>
<text x="565.0799999999999" y="334" class="value">139.85</text>
<text x="10" y="366" class="label">cdn.cloudflare.steamstatic.com</text>
<rect x="180" y="350" width="398.43" height="22" fill="#4c78a8" rx="3"/>
<text x="586.4300000000001" y="366" class="value">147.77</text>
<text x="10" y="398" class="label">origin.com</text>
<rect x="180" y="382" width="440.55" height="22" fill="#4c78a8" rx="3"/>
<text x="628.55" y="398" class="value">163.39</text>
<text x="10" y="430" class="label">launcher-public-service-prod06.ol.epicgames.com</text>
<rect x="180" y="414" width="520.47" height="22" fill="#4c78a8" rx="3"/>
<text x="708.47" y="430" class="value">193.03</text>
<text x="10" y="462" class="label">community.akamai.steamstatic.com</text>
<rect x="180" y="446" width="552.44" height="22" fill="#4c78a8" rx="3"/>
<text x="740.44" y="462" class="value">204.89</text>
<text x="10" y="494" class="label">store.akamai.steamstatic.com</text>
<rect x="180" y="478" width="580.0" height="22" fill="#4c78a8" rx="3"/>
<text x="768.0" y="494" class="value">215.11</text>
<line x1="180" y1="30" x2="180" y2="520" stroke="#ccc"/>
<line x1="180" y1="520" x2="760" y2="520" stroke="#ccc"/>
</svg>