<svg xmlns="http://www.w3.org/2000/svg" width="800" height="540">
<style> .label{font-family:DejaVu Sans,Verdana,Geneva,sans-serif;font-size:12px;fill:#333} .value{font-family:DejaVu Sans,Verdana,Geneva,sans-serif;font-size:12px;fill:#555} </style>
<text x="10" y="20" class="label">延迟柱状图（越低越好，Top 15），单位 ms</text>
<text x="10" y="46" class="label">rockstargames.com</text>
<rect x="180" y="30" width="61.95" height="22" fill="#4c78a8" rx="3"/>
<text x="249.95" y="46" class="value">32.15</text>
<text x="10" y="78" class="label">ea.com</text>
<rect x="180" y="62" width="152.02" height="22" fill="#4c78a8" rx="3"/>
<text x="340.02" y="78" class="value">78.90</text>
<text x="10" y="110" class="label">eaassets-a.akamaihd.net</text>
<rect x="180" y="94" width="236.53" height="22" fill="#4c78a8" rx="3"/>
<text x="424.53" y="110" class="value">122.76</text>
<text x="10" y="142" class="label">community.akamai.steamstatic.com</text>
<rect x="180" y="126" width="238.03" height="22" fill="#4c78a8" rx="3"/>
<text x="426.03" y="142" class="value">123.54</text>
<text x="10" y="174" class="label">store.akamai.steamstatic.com</text>
<rect x="180" y="158" width="303.31" height="22" fill="#4c78a8" rx="3"/>
<text x="491.31" y="174" class="value">157.42</text>
<text x="10" y="206" class="label">ubisoft.com</text>
<rect x="180" y="190" width="311.54" height="22" fill="#4c78a8" rx="3"/>
<text x="499.54" y="206" class="value">161.69</text>
<text x="10" y="238" class="label">cdn.akamai.steamstatic.com</text>
<rect x="180" y="222" width="360.1" height="22" fill="#4c78a8" rx="3"/>
<text x="548.1" y="238" class="value">186.89</text>
<text x="10" y="270" class="label">origin.com</text>
<rect x="180" y="254" width="410.39" height="22" fill="#4c78a8" rx="3"/>
<text x="598.39" y="270" class="value">212.99</text>
<text x="10" y="302" class="label">steamcdn-a.akamaihd.net</text>
<rect x="180" y="286" width="410.77" height="22" fill="#4c78a8" rx="3"/>
<text x="598.77" y="302" class="value">213.19</text>
<text x="10" y="334" class="label">cdn.cloudflare.steamstatic.com</text>
<rect x="180" y="318" width="435.41" height="22" fill="#4c78a8" rx="3"/>
<text x="623.4100000000001" y="334" class="value">225.98</text>
<text x="10" y="366" class="label">easyanticheat.net</text>
<rect x="180" y="350" width="445.22" height="22" fill="#4c78a8" rx="3"/>
<text x="633.22" y="366" class="value">231.07</text>
<text x="10" y="398" class="label">api.steampowered.com</text>
<rect x="180" y="382" width="473.91" height="22" fill="#4c78a8" rx="3"/>
<text x="661.9100000000001" y="398" class="value">245.96</text>
<text x="10" y="430" class="label">steam-chat.com</text>
<rect x="180" y="414" width="512.56" height="22" fill="#4c78a8" rx="3"/>
<text x="700.56" y="430" class="value">266.02</text>
<text x="10" y="462" class="label">blizzard.com</text>
<rect x="180" y="446" width="575.93" height="22" fill="#4c78a8" rx="3"/>
<text x="763.93" y="462" class="value">298.91</text>
<text x="10" y="494" class="label">launcher-public-service-prod06.ol.epicgames.com</text>
<rect x="180" y="478" width="580.0" height="22" fill="#4c78a8" rx="3"/>
<text x="768.0" y="494" class="value">301.02</text>
<line x1="180" y1="30" x2="180" y2="520" stroke="#ccc"/>
<line x1="180" y1="520" x2="760" y2="520" stroke="#ccc"/>
</svg>