<svg xmlns="http://www.w3.org/2000/svg" width="800" height="540">
<style> .label{font-family:DejaVu Sans,Verdana,Geneva,sans-serif;font-size:12px;fill:#333} .value{font-family:DejaVu Sans,Verdana,Geneva,sans-serif;font-size:12px;fill:#555} </style>
<text x="10" y="20" class="label">延迟柱状图（越低越好，Top 15），单位 ms</text>
<text x="10" y="46" class="label">rockstargames.com</text>
<rect x="180" y="30" width="74.9" height="22" fill="#4c78a8" rx="3"/>
<text x="262.9" y="46" class="value">33.81</text>
<text x="10" y="78" class="label">ea.com</text>
<rect x="180" y="62" width="175.64" height="22" fill="#4c78a8" rx="3"/>
<text x="363.64" y="78" class="value">79.29</text>
<text x="10" y="110" class="label">eaassets-a.akamaihd.net</text>
<rect x="180" y="94" width="203.53" height="22" fill="#4c78a8" rx="3"/>
<text x="391.53" y="110" class="value">91.88</text>
<text x="10" y="142" class="label">cdn.akamai.steamstatic.com</text>
<rect x="180" y="126" width="251.91" height="22" fill="#4c78a8" rx="3"/>
<text x="439.90999999999997" y="142" class="value">113.72</text>
<text x="10" y="174" class="label">ubisoft.com</text>
<rect x="180" y="158" width="297.43" height="22" fill="#4c78a8" rx="3"/>
<text x="485.43" y="174" class="value">134.27</text>
<text x="10" y="206" class="label">cdn.cloudflare.steamstatic.com</text>
<rect x="180" y="190" width="312.45" height="22" fill="#4c78a8" rx="3"/>
<text x="500.45" y="206" class="value">141.05</text>
<text x="10" y="238" class="label">steamcdn-a.akamaihd.net</text>
<rect x="180" y="222" width="343.64" height="22" fill="#4c78a8" rx="3"/>
<text x="531.64" y="238" class="value">155.13</text>
<text x="10" y="270" class="label">community.akamai.steamstatic.com</text>
<rect x="180" y="254" width="344.48" height="22" fill="#4c78a8" rx="3"/>
<text x="532.48" y="270" class="value">155.51</text>
<text x="10" y="302" class="label">store.akamai.steamstatic.com</text>
<rect x="180" y="286" width="361.87" height="22" fill="#4c78a8" rx="3"/>
<text x="549.87" y="302" class="value">163.36</text>
<text x="10" y="334" class="label">www.steamcommunity.com</text>
<rect x="180" y="318" width="436.52" height="22" fill="#4c78a8" rx="3"/>
<text x="624.52" y="334" class="value">197.06</text>
<text x="10" y="366" class="label">origin.com</text>
<rect x="180" y="350" width="461.67" height="22" fill="#4c78a8" rx="3"/>
<text x="649.6700000000001" y="366" class="value">208.41</text>
<text x="10" y="398" class="label">easyanticheat.net</text>
<rect x="180" y="382" width="471.86" height="22" fill="#4c78a8" rx="3"/>
<text x="659.86" y="398" class="value">213.01</text>
<text x="10" y="430" class="label">api.steampowered.com</text>
<rect x="180" y="414" width="544.22" height="22" fill="#4c78a8" rx="3"/>
<text x="732.22" y="430" class="value">245.68</text>
<text x="10" y="462" class="label">launcher-public-service-prod06.ol.epicgames.com</text>
<rect x="180" y="446" width="565.76" height="22" fill="#4c78a8" rx="3"/>
<text x="753.76" y="462" class="value">255.40</text>
<text x="10" y="494" class="label">steam-chat.com</text>
<rect x="180" y="478" width="580.0" height="22" fill="#4c78a8" rx="3"/>
<text x="768.0" y="494" class="value">261.83</text>
<line x1="180" y1="30" x2="180" y2="520" stroke="#ccc"/>
<line x1="180" y1="520" x2="760" y2="520" stroke="#ccc"/>
</svg>