<svg xmlns="http://www.w3.org/2000/svg" width="800" height="540">
<style> .label{font-family:DejaVu Sans,Verdana,Geneva,sans-serif;font-size:12px;fill:#333} .value{font-family:DejaVu Sans,Verdana,Geneva,sans-serif;font-size:12px;fill:#555} </style>
<text x="10" y="20" class="label">延迟柱状图（越低越好，Top 15），单位 ms</text>
<text x="10" y="46" class="label">rockstargames.com</text>
<rect x="180" y="30" width="220.8" height="22" fill="#4c78a8" rx="3"/>
<text x="408.8" y="46" class="value">96.48</text>
<text x="10" y="78" class="label">store.akamai.steamstatic.com</text>
<rect x="180" y="62" width="233.32" height="22" fill="#4c78a8" rx="3"/>
<text x="421.32" y="78" class="value">101.95</text>
<text x="10" y="110" class="label">eaassets-a.akamaihd.net</text>
<rect x="180" y="94" width="270.72" height="22" fill="#4c78a8" rx="3"/>
<text x="458.72" y="110" class="value">118.29</text>
<text x="10" y="142" class="label">ubisoft.com</text>
<rect x="180" y="126" width="312.44" height="22" fill="#4c78a8" rx="3"/>
<text x="500.44" y="142" class="value">136.52</text>
<text x="10" y="174" class="label">battle.net</text>
<rect x="180" y="158" width="340.82" height="22" fill="#4c78a8" rx="3"/>
<text x="528.8199999999999" y="174" class="value">148.92</text>
<text x="10" y="206" class="label">cdn.cloudflare.steamstatic.com</text>
<rect x="180" y="190" width="355.99" height="22" fill="#4c78a8" rx="3"/>
<text x="543.99" y="206" class="value">155.55</text>
<text x="10" y="238" class="label">ea.com</text>
<rect x="180" y="222" width="372.52" height="22" fill="#4c78a8" rx="3"/>
<text x="560.52" y="238" class="value">162.77</text>
<text x="10" y="270" class="label">ubi.com</text>
<rect x="180" y="254" width="377.76" height="22" fill="#4c78a8" rx="3"/>
<text x="565.76" y="270" class="value">165.06</text>
<text x="10" y="302" class="label">easyanticheat.net</text>
<rect x="180" y="286" width="383.68" height="22" fill="#4c78a8" rx="3"/>
<text x="571.6800000000001" y="302" class="value">167.65</text>
<text x="10" y="334" class="label">blizzard.com</text>
<rect x="180" y="318" width="396.02" height="22" fill="#4c78a8" rx="3"/>
<text x="584.02" y="334" class="value">173.04</text>
<text x="10" y="366" class="label">community.akamai.steamstatic.com</text>
<rect x="180" y="350" width="440.78" height="22" fill="#4c78a8" rx="3"/>
<text x="628.78" y="366" class="value">192.60</text>
<text x="10" y="398" class="label">socialclub.rockstargames.com</text>
<rect x="180" y="382" width="486.92" height="22" fill="#4c78a8" rx="3"/>
<text x="674.9200000000001" y="398" class="value">212.76</text>
<text x="10" y="430" class="label">www.steamcommunity.com</text>
<rect x="180" y="414" width="518.3" height="22" fill="#4c78a8" rx="3"/>
<text x="706.3" y="430" class="value">226.47</text>
<text x="10" y="462" class="label">launcher-public-service-prod06.ol.epicgames.com</text>
<rect x="180" y="446" width="540.77" height="22" fill="#4c78a8" rx="3"/>
<text x="728.77" y="462" class="value">236.29</text>
<text x="10" y="494" class="label">steamcommunity.com</text>
<rect x="180" y="478" width="580.0" height="22" fill="#4c78a8" rx="3"/>
<text x="768.0" y="494" class="value">253.43</text>
<line x1="180" y1="30" x2="180" y2="520" stroke="#ccc"/>
<line x1="180" y1="520" x2="760" y2="520" stroke="#ccc"/>
</svg>