<svg xmlns="http://www.w3.org/2000/svg" width="800" height="540">
<style> .label{font-family:DejaVu Sans,Verdana,Geneva,sans-serif;font-size:12px;fill:#333} .value{font-family:DejaVu Sans,Verdana,Geneva,sans-serif;font-size:12px;fill:#555} </style>
<text x="10" y="20" class="label">延迟柱状图（越低越好，Top 15），单位 ms</text>
<text x="10" y="46" class="label">rockstargames.com</text>
<rect x="180" y="30" width="166.61" height="22" fill="#4c78a8" rx="3"/>
<text x="354.61" y="46" class="value">62.16</text>
<text x="10" y="78" class="label">epicgames.com</text>
<rect x="180" y="62" width="191.89" height="22" fill="#4c78a8" rx="3"/>
<text x="379.89" y="78" class="value">71.59</text>
<text x="10" y="110" class="label">socialclub.rockstargames.com</text>
<rect x="180" y="94" width="225.1" height="22" fill="#4c78a8" rx="3"/>
<text x="413.1" y="110" class="value">83.98</text>
<text x="10" y="142" class="label">ea.com</text>
<rect x="180" y="126" width="271.79" height="22" fill="#4c78a8" rx="3"/>
<text x="459.79" y="142" class="value">101.40</text>
<text x="10" y="174" class="label">ubi.com</text>
<rect x="180" y="158" width="279.13" height="22" fill="#4c78a8" rx="3"/>
<text x="467.13" y="174" class="value">104.14</text>
<text x="10" y="206" class="label">battle.net</text>
<rect x="180" y="190" width="314.06" height="22" fill="#4c78a8" rx="3"/>
<text x="502.06" y="206" class="value">117.17</text>
<text x="10" y="238" class="label">store.akamai.steamstatic.com</text>
<rect x="180" y="222" width="320.41" height="22" fill="#4c78a8" rx="3"/>
<text x="508.41" y="238" class="value">119.54</text>
<text x="10" y="270" class="label">blizzard.com</text>
<rect x="180" y="254" width="345.39" height="22" fill="#4c78a8" rx="3"/>
<text x="533.39" y="270" class="value">128.86</text>
<text x="10" y="302" class="label">unrealengine.com</text>
<rect x="180" y="286" width="347.83" height="22" fill="#4c78a8" rx="3"/>
<text x="535.8299999999999" y="302" class="value">129.77</text>
<text x="10" y="334" class="label">fortnite.com</text>
<rect x="180" y="318" width="428.48" height="22" fill="#4c78a8" rx="3"/>
<text x="616.48" y="334" class="value">159.86</text>
<text x="10" y="366" class="label">eaassets-a.akamaihd.net</text>
<rect x="180" y="350" width="481.07" height="22" fill="#4c78a8" rx="3"/>
<text x="669.0699999999999" y="366" class="value">179.48</text>
<text x="10" y="398" class="label">cdn.cloudflare.steamstatic.com</text>
<rect x="180" y="382" width="512.83" height="22" fill="#4c78a8" rx="3"/>
<text x="700.83" y="398" class="value">191.33</text>
<text x="10" y="430" class="label">steamcdn-a.akamaihd.net</text>
<rect x="180" y="414" width="515.56" height="22" fill="#4c78a8" rx="3"/>
<text x="703.56" y="430" class="value">192.35</text>
<text x="10" y="462" class="label">ubisoft.com</text>
<rect x="180" y="446" width="560.38" height="22" fill="#4c78a8" rx="3"/>
<text x="748.38" y="462" class="value">209.07</text>
<text x="10" y="494" class="label">origin.com</text>
<rect x="180" y="478" width="580.0" height="22" fill="#4c78a8" rx="3"/>
<text x="768.0" y="494" class="value">216.39</text>
<line x1="180" y1="30" x2="180" y2="520" stroke="#ccc"/>
<line x1="180" y1="520" x2="760" y2="520" stroke="#ccc"/>
</svg>