<svg xmlns="http://www.w3.org/2000/svg" width="800" height="540">
<style> .label{font-family:DejaVu Sans,Verdana,Geneva,sans-serif;font-size:12px;fill:#333} .value{font-family:DejaVu Sans,Verdana,Geneva,sans-serif;font-size:12px;fill:#555} </style>
<text x="10" y="20" class="label">延迟柱状图（越低越好，Top 15），单位 ms</text>
<text x="10" y="46" class="label">rockstargames.com</text>
<rect x="180" y="30" width="129.36" height="22" fill="#4c78a8" rx="3"/>
<text x="317.36" y="46" class="value">71.08</text>
<text x="10" y="78" class="label">origin.com</text>
<rect x="180" y="62" width="242.34" height="22" fill="#4c78a8" rx="3"/>
<text x="430.34000000000003" y="78" class="value">133.16</text>
<text x="10" y="110" class="label">steamcdn-a.akamaihd.net</text>
<rect x="180" y="94" width="242.95" height="22" fill="#4c78a8" rx="3"/>
<text x="430.95" y="110" class="value">133.49</text>
<text x="10" y="142" class="label">eaassets-a.akamaihd.net</text>
<rect x="180" y="126" width="248.13" height="22" fill="#4c78a8" rx="3"/>
<text x="436.13" y="142" class="value">136.34</text>
<text x="10" y="174" class="label">ubisoft.com</text>
<rect x="180" y="158" width="248.73" height="22" fill="#4c78a8" rx="3"/>
<text x="436.73" y="174" class="value">136.67</text>
<text x="10" y="206" class="label">cdn.cloudflare.steamstatic.com</text>
<rect x="180" y="190" width="273.32" height="22" fill="#4c78a8" rx="3"/>
<text x="461.32" y="206" class="value">150.18</text>
<text x="10" y="238" class="label">store.akamai.steamstatic.com</text>
<rect x="180" y="222" width="280.76" height="22" fill="#4c78a8" rx="3"/>
<text x="468.76" y="238" class="value">154.27</text>
<text x="10" y="270" class="label">ea.com</text>
<rect x="180" y="254" width="306.44" height="22" fill="#4c78a8" rx="3"/>
<text x="494.44" y="270" class="value">168.38</text>
<text x="10" y="302" class="label">static3.cdn.ubi.com</text>
<rect x="180" y="286" width="357.66" height="22" fill="#4c78a8" rx="3"/>
<text x="545.6600000000001" y="302" class="value">196.52</text>
<text x="10" y="334" class="label">community.akamai.steamstatic.com</text>
<rect x="180" y="318" width="394.84" height="22" fill="#4c78a8" rx="3"/>
<text x="582.8399999999999" y="334" class="value">216.95</text>
<text x="10" y="366" class="label">easyanticheat.net</text>
<rect x="180" y="350" width="401.37" height="22" fill="#4c78a8" rx="3"/>
<text x="589.37" y="366" class="value">220.54</text>
<text x="10" y="398" class="label">cdn.akamai.steamstatic.com</text>
<rect x="180" y="382" width="434.2" height="22" fill="#4c78a8" rx="3"/>
<text x="622.2" y="398" class="value">238.58</text>
<text x="10" y="430" class="label">ubi.com</text>
<rect x="180" y="414" width="455.21" height="22" fill="#4c78a8" rx="3"/>
<text x="643.21" y="430" class="value">250.12</text>
<text x="10" y="462" class="label">blizzard.com</text>
<rect x="180" y="446" width="569.17" height="22" fill="#4c78a8" rx="3"/>
<text x="757.17" y="462" class="value">312.74</text>
<text x="10" y="494" class="label">battle.net</text>
<rect x="180" y="478" width="580.0" height="22" fill="#4c78a8" rx="3"/>
<text x="768.0" y="494" class="value">318.69</text>
<line x1="180" y1="30" x2="180" y2="520" stroke="#ccc"/>
<line x1="180" y1="520" x2="760" y2="520" stroke="#ccc"/>
</svg>