<svg xmlns="http://www.w3.org/2000/svg" width="800" height="540">
<style> .label{font-family:DejaVu Sans,Verdana,Geneva,sans-serif;font-size:12px;fill:#333} .value{font-family:DejaVu Sans,Verdana,Geneva,sans-serif;font-size:12px;fill:#555} </style>
<text x="10" y="20" class="label">延迟柱状图（越低越好，Top 15），单位 ms</text>
<text x="10" y="46" class="label">rockstargames.com</text>
<rect x="180" y="30" width="196.44" height="22" fill="#4c78a8" rx="3"/>
<text x="384.44" y="46" class="value">70.69</text>
<text x="10" y="78" class="label">socialclub.rockstargames.com</text>
<rect x="180" y="62" width="222.95" height="22" fill="#4c78a8" rx="3"/>
<text x="410.95" y="78" class="value">80.23</text>
<text x="10" y="110" class="label">eaassets-a.akamaihd.net</text>
<rect x="180" y="94" width="306.4" height="22" fill="#4c78a8" rx="3"/>
<text x="494.4" y="110" class="value">110.26</text>
<text x="10" y="142" class="label">blizzard.com</text>
<rect x="180" y="126" width="311.81" height="22" fill="#4c78a8" rx="3"/>
<text x="499.81" y="142" class="value">112.21</text>
<text x="10" y="174" class="label">ea.com</text>
<rect x="180" y="158" width="332.6" height="22" fill="#4c78a8" rx="3"/>
<text x="520.6" y="174" class="value">119.69</text>
<text x="10" y="206" class="label">battle.net</text>
<rect x="180" y="190" width="361.69" height="22" fill="#4c78a8" rx="3"/>
<text x="549.69" y="206" class="value">130.16</text>
<text x="10" y="238" class="label">ubisoft.com</text>
<rect x="180" y="222" width="377.03" height="22" fill="#4c78a8" rx="3"/>
<text x="565.03" y="238" class="value">135.68</text>
<text x="10" y="270" class="label">ubi.com</text>
<rect x="180" y="254" width="394.71" height="22" fill="#4c78a8" rx="3"/>
<text x="582.71" y="270" class="value">142.04</text>
<text x="10" y="302" class="label">epicgames.com</text>
<rect x="180" y="286" width="399.15" height="22" fill="#4c78a8" rx="3"/>
<text x="587.15" y="302" class="value">143.64</text>
<text x="10" y="334" class="label">fortnite.com</text>
<rect x="180" y="318" width="456.81" height="22" fill="#4c78a8" rx="3"/>
<text x="644.81" y="334" class="value">164.39</text>
<text x="10" y="366" class="label">origin.com</text>
<rect x="180" y="350" width="462.12" height="22" fill="#4c78a8" rx="3"/>
<text x="650.12" y="366" class="value">166.30</text>
<text x="10" y="398" class="label">cdn.cloudflare.steamstatic.com</text>
<rect x="180" y="382" width="463.01" height="22" fill="#4c78a8" rx="3"/>
<text x="651.01" y="398" class="value">166.62</text>
<text x="10" y="430" class="label">unrealengine.com</text>
<rect x="180" y="414" width="573.5" height="22" fill="#4c78a8" rx="3"/>
<text x="761.5" y="430" class="value">206.38</text>
<text x="10" y="462" class="label">static3.cdn.ubi.com</text>
<rect x="180" y="446" width="576.3" height="22" fill="#4c78a8" rx="3"/>
<text x="764.3" y="462" class="value">207.39</text>
<text x="10" y="494" class="label">store.akamai.steamstatic.com</text>
<rect x="180" y="478" width="580.0" height="22" fill="#4c78a8" rx="3"/>
<text x="768.0" y="494" class="value">208.72</text>
<line x1="180" y1="30" x2="180" y2="520" stroke="#ccc"/>
<line x1="180" y1="520" x2="760" y2="520" stroke="#ccc"/>
</svg>