<svg xmlns="http://www.w3.org/2000/svg" width="800" height="540">
<style> .label{font-family:DejaVu Sans,Verdana,Geneva,sans-serif;font-size:12px;fill:#333} .value{font-family:DejaVu Sans,Verdana,Geneva,sans-serif;font-size:12px;fill:#555} </style>
<text x="10" y="20" class="label">延迟柱状图（越低越好，Top 15），单位 ms</text>
<text x="10" y="46" class="label">blizzard.com</text>
<rect x="180" y="30" width="162.11" height="22" fill="#4c78a8" rx="3"/>
<text x="350.11" y="46" class="value">54.98</text>
<text x="10" y="78" class="label">rockstargames.com</text>
<rect x="180" y="62" width="174.79" height="22" fill="#4c78a8" rx="3"/>
<text x="362.78999999999996" y="78" class="value">59.28</text>
<text x="10" y="110" class="label">socialclub.rockstargames.com</text>
<rect x="180" y="94" width="191.59" height="22" fill="#4c78a8" rx="3"/>
<text x="379.59000000000003" y="110" class="value">64.98</text>
<text x="10" y="142" class="label">ubi.com</text>
<rect x="180" y="126" width="235.59" height="22" fill="#4c78a8" rx="3"/>
<text x="423.59000000000003" y="142" class="value">79.90</text>
<text x="10" y="174" class="label">eaassets-a.akamaihd.net</text>
<rect x="180" y="158" width="238.09" height="22" fill="#4c78a8" rx="3"/>
<text x="426.09000000000003" y="174" class="value">80.75</text>
<text x="10" y="206" class="label">battle.net</text>
<rect x="180" y="190" width="243.05" height="22" fill="#4c78a8" rx="3"/>
<text x="431.05" y="206" class="value">82.43</text>
<text x="10" y="238" class="label">fortnite.com</text>
<rect x="180" y="222" width="254.51" height="22" fill="#4c78a8" rx="3"/>
<text x="442.51" y="238" class="value">86.32</text>
<text x="10" y="270" class="label">unrealengine.com</text>
<rect x="180" y="254" width="259.26" height="22" fill="#4c78a8" rx="3"/>
<text x="447.26" y="270" class="value">87.93</text>
<text x="10" y="302" class="label">ea.com</text>
<rect x="180" y="286" width="353.88" height="22" fill="#4c78a8" rx="3"/>
<text x="541.88" y="302" class="value">120.02</text>
<text x="10" y="334" class="label">store.akamai.steamstatic.com</text>
<rect x="180" y="318" width="418.75" height="22" fill="#4c78a8" rx="3"/>
<text x="606.75" y="334" class="value">142.02</text>
<text x="10" y="366" class="label">launcher-public-service-prod06.ol.epicgames.com</text>
<rect x="180" y="350" width="453.8" height="22" fill="#4c78a8" rx="3"/>
<text x="641.8" y="366" class="value">153.91</text>
<text x="10" y="398" class="label">cdn.akamai.steamstatic.com</text>
<rect x="180" y="382" width="495.05" height="22" fill="#4c78a8" rx="3"/>
<text x="683.05" y="398" class="value">167.90</text>
<text x="10" y="430" class="label">origin.com</text>
<rect x="180" y="414" width="551.99" height="22" fill="#4c78a8" rx="3"/>
<text x="739.99" y="430" class="value">187.21</text>
<text x="10" y="462" class="label">community.akamai.steamstatic.com</text>
<rect x="180" y="446" width="562.54" height="22" fill="#4c78a8" rx="3"/>
<text x="750.54" y="462" class="value">190.79</text>
<text x="10" y="494" class="label">easyanticheat.net</text>
<rect x="180" y="478" width="580.0" height="22" fill="#4c78a8" rx="3"/>
<text x="768.0" y="494" class="value">196.71</text>
<line x1="180" y1="30" x2="180" y2="520" stroke="#ccc"/>
<line x1="180" y1="520" x2="760" y2="520" stroke="#ccc"/>
</svg>