<svg xmlns="http://www.w3.org/2000/svg" width="800" height="540">
<style> .label{font-family:DejaVu Sans,Verdana,Geneva,sans-serif;font-size:12px;fill:#333} .value{font-family:DejaVu Sans,Verdana,Geneva,sans-serif;font-size:12px;fill:#555} </style>
<text x="10" y="20" class="label">延迟柱状图（越低越好，Top 15），单位 ms</text>
<text x="10" y="46" class="label">unrealengine.com</text>
<rect x="180" y="30" width="198.07" height="22" fill="#4c78a8" rx="3"/>
<text x="386.07" y="46" class="value">65.92</text>
<text x="10" y="78" class="label">rockstargames.com</text>
<rect x="180" y="62" width="227.43" height="22" fill="#4c78a8" rx="3"/>
<text x="415.43" y="78" class="value">75.69</text>
<text x="10" y="110" class="label">blizzard.com</text>
<rect x="180" y="94" width="264.72" height="22" fill="#4c78a8" rx="3"/>
<text x="452.72" y="110" class="value">88.10</text>
<text x="10" y="142" class="label">socialclub.rockstargames.com</text>
<rect x="180" y="126" width="265.17" height="22" fill="#4c78a8" rx="3"/>
<text x="453.17" y="142" class="value">88.25</text>
<text x="10" y="174" class="label">battle.net</text>
<rect x="180" y="158" width="312.28" height="22" fill="#4c78a8" rx="3"/>
<text x="500.28" y="174" class="value">103.93</text>
<text x="10" y="206" class="label">ubi.com</text>
<rect x="180" y="190" width="336.77" height="22" fill="#4c78a8" rx="3"/>
<text x="524.77" y="206" class="value">112.08</text>
<text x="10" y="238" class="label">epicgames.com</text>
<rect x="180" y="222" width="340.64" height="22" fill="#4c78a8" rx="3"/>
<text x="528.64" y="238" class="value">113.37</text>
<text x="10" y="270" class="label">eaassets-a.akamaihd.net</text>
<rect x="180" y="254" width="356.24" height="22" fill="#4c78a8" rx="3"/>
<text x="544.24" y="270" class="value">118.56</text>
<text x="10" y="302" class="label">cdn.akamai.steamstatic.com</text>
<rect x="180" y="286" width="426.52" height="22" fill="#4c78a8" rx="3"/>
<text x="614.52" y="302" class="value">141.95</text>
<text x="10" y="334" class="label">store.akamai.steamstatic.com</text>
<rect x="180" y="318" width="484.93" height="22" fill="#4c78a8" rx="3"/>
<text x="672.9300000000001" y="334" class="value">161.39</text>
<text x="10" y="366" class="label">ubisoft.com</text>
<rect x="180" y="350" width="498.36" height="22" fill="#4c78a8" rx="3"/>
<text x="686.36" y="366" class="value">165.86</text>
<text x="10" y="398" class="label">community.akamai.steamstatic.com</text>
<rect x="180" y="382" width="508.73" height="22" fill="#4c78a8" rx="3"/>
<text x="696.73" y="398" class="value">169.31</text>
<text x="10" y="430" class="label">cdn.cloudflare.steamstatic.com</text>
<rect x="180" y="414" width="528.95" height="22" fill="#4c78a8" rx="3"/>
<text x="716.95" y="430" class="value">176.04</text>
<text x="10" y="462" class="label">steamcdn-a.akamaihd.net</text>
<rect x="180" y="446" width="573.51" height="22" fill="#4c78a8" rx="3"/>
<text x="761.51" y="462" class="value">190.87</text>
<text x="10" y="494" class="label">ea.com</text>
<rect x="180" y="478" width="580.0" height="22" fill="#4c78a8" rx="3"/>
<text x="768.0" y="494" class="value">193.03</text>
<line x1="180" y1="30" x2="180" y2="520" stroke="#ccc"/>
<line x1="180" y1="520" x2="760" y2="520" stroke="#ccc"/>
</svg>