<svg xmlns="http://www.w3.org/2000/svg" width="800" height="540">
<style> .label{font-family:DejaVu Sans,Verdana,Geneva,sans-serif;font-size:12px;fill:#333} .value{font-family:DejaVu Sans,Verdana,Geneva,sans-serif;font-size:12px;fill:#555} </style>
<text x="10" y="20" class="label">延迟柱状图（越低越好，Top 15），单位 ms</text>
<text x="10" y="46" class="label">rockstargames.com</text>
<rect x="180" y="30" width="279.29" height="22" fill="#4c78a8" rx="3"/>
<text x="467.29" y="46" class="value">87.00</text>
<text x="10" y="78" class="label">origin.com</text>
<rect x="180" y="62" width="323.63" height="22" fill="#4c78a8" rx="3"/>
<text x="511.63" y="78" class="value">100.81</text>
<text x="10" y="110" class="label">eaassets-a.akamaihd.net</text>
<rect x="180" y="94" width="344.82" height="22" fill="#4c78a8" rx="3"/>
<text x="532.8199999999999" y="110" class="value">107.41</text>
<text x="10" y="142" class="label">ea.com</text>
<rect x="180" y="126" width="355.83" height="22" fill="#4c78a8" rx="3"/>
<text x="543.8299999999999" y="142" class="value">110.84</text>
<text x="10" y="174" class="label">store.akamai.steamstatic.com</text>
<rect x="180" y="158" width="423.56" height="22" fill="#4c78a8" rx="3"/>
<text x="611.56" y="174" class="value">131.94</text>
<text x="10" y="206" class="label">cdn.akamai.steamstatic.com</text>
<rect x="180" y="190" width="435.76" height="22" fill="#4c78a8" rx="3"/>
<text x="623.76" y="206" class="value">135.74</text>
<text x="10" y="238" class="label">blizzard.com</text>
<rect x="180" y="222" width="449.5" height="22" fill="#4c78a8" rx="3"/>
<text x="637.5" y="238" class="value">140.02</text>
<text x="10" y="270" class="label">battle.net</text>
<rect x="180" y="254" width="472.58" height="22" fill="#4c78a8" rx="3"/>
<text x="660.5799999999999" y="270" class="value">147.21</text>
<text x="10" y="302" class="label">ubi.com</text>
<rect x="180" y="286" width="474.06" height="22" fill="#4c78a8" rx="3"/>
<text x="662.06" y="302" class="value">147.67</text>
<text x="10" y="334" class="label">socialclub.rockstargames.com</text>
<rect x="180" y="318" width="492.81" height="22" fill="#4c78a8" rx="3"/>
<text x="680.81" y="334" class="value">153.51</text>
<text x="10" y="366" class="label">steamcdn-a.akamaihd.net</text>
<rect x="180" y="350" width="508.96" height="22" fill="#4c78a8" rx="3"/>
<text x="696.96" y="366" class="value">158.54</text>
<text x="10" y="398" class="label">api.steampowered.com</text>
<rect x="180" y="382" width="532.13" height="22" fill="#4c78a8" rx="3"/>
<text x="720.13" y="398" class="value">165.76</text>
<text x="10" y="430" class="label">ubisoft.com</text>
<rect x="180" y="414" width="545.59" height="22" fill="#4c78a8" rx="3"/>
<text x="733.59" y="430" class="value">169.95</text>
<text x="10" y="462" class="label">community.akamai.steamstatic.com</text>
<rect x="180" y="446" width="556.85" height="22" fill="#4c78a8" rx="3"/>
<text x="744.85" y="462" class="value">173.46</text>
<text x="10" y="494" class="label">cdn.cloudflare.steamstatic.com</text>
<rect x="180" y="478" width="580.0" height="22" fill="#4c78a8" rx="3"/>
<text x="768.0" y="494" class="value">180.67</text>
<line x1="180" y1="30" x2="180" y2="520" stroke="#ccc"/>
<line x1="180" y1="520" x2="760" y2="520" stroke="#ccc"/>
</svg>