<svg xmlns="http://www.w3.org/2000/svg" width="800" height="540">
<style> .label{font-family:DejaVu Sans,Verdana,Geneva,sans-serif;font-size:12px;fill:#333} .value{font-family:DejaVu Sans,Verdana,Geneva,sans-serif;font-size:12px;fill:#555} </style>
<text x="10" y="20" class="label">延迟柱状图（越低越好，Top 15），单位 ms</text>
<text x="10" y="46" class="label">rockstargames.com</text>
<rect x="180" y="30" width="166.66" height="22" fill="#4c78a8" rx="3"/>
<text x="354.65999999999997" y="46" class="value">79.82</text>
<text x="10" y="78" class="label">ea.com</text>
<rect x="180" y="62" width="231.43" height="22" fill="#4c78a8" rx="3"/>
<text x="419.43" y="78" class="value">110.84</text>
<text x="10" y="110" class="label">eaassets-a.akamaihd.net</text>
<rect x="180" y="94" width="246.61" height="22" fill="#4c78a8" rx="3"/>
<text x="434.61" y="110" class="value">118.11</text>
<text x="10" y="142" class="label">community.akamai.steamstatic.com</text>
<rect x="180" y="126" width="313.01" height="22" fill="#4c78a8" rx="3"/>
<text x="501.01" y="142" class="value">149.91</text>
<text x="10" y="174" class="label">store.akamai.steamstatic.com</text>
<rect x="180" y="158" width="316.14" height="22" fill="#4c78a8" rx="3"/>
<text x="504.14" y="174" class="value">151.41</text>
<text x="10" y="206" class="label">cdn.cloudflare.steamstatic.com</text>
<rect x="180" y="190" width="344.22" height="22" fill="#4c78a8" rx="3"/>
<text x="532.22" y="206" class="value">164.86</text>
<text x="10" y="238" class="label">steamcdn-a.akamaihd.net</text>
<rect x="180" y="222" width="353.1" height="22" fill="#4c78a8" rx="3"/>
<text x="541.1" y="238" class="value">169.11</text>
<text x="10" y="270" class="label">cdn.akamai.steamstatic.com</text>
<rect x="180" y="254" width="405.55" height="22" fill="#4c78a8" rx="3"/>
<text x="593.55" y="270" class="value">194.23</text>
<text x="10" y="302" class="label">origin.com</text>
<rect x="180" y="286" width="413.67" height="22" fill="#4c78a8" rx="3"/>
<text x="601.6700000000001" y="302" class="value">198.12</text>
<text x="10" y="334" class="label">easyanticheat.net</text>
<rect x="180" y="318" width="487.65" height="22" fill="#4c78a8" rx="3"/>
<text x="675.65" y="334" class="value">233.55</text>
<text x="10" y="366" class="label">ubi.com</text>
<rect x="180" y="350" width="525.23" height="22" fill="#4c78a8" rx="3"/>
<text x="713.23" y="366" class="value">251.55</text>
<text x="10" y="398" class="label">api.steampowered.com</text>
<rect x="180" y="382" width="540.24" height="22" fill="#4c78a8" rx="3"/>
<text x="728.24" y="398" class="value">258.74</text>
<text x="10" y="430" class="label">ubisoft.com</text>
<rect x="180" y="414" width="558.6" height="22" fill="#4c78a8" rx="3"/>
<text x="746.6" y="430" class="value">267.53</text>
<text x="10" y="462" class="label">epicgames.com</text>
<rect x="180" y="446" width="569.0" height="22" fill="#4c78a8" rx="3"/>
<text x="757.0" y="462" class="value">272.51</text>
<text x="10" y="494" class="label">fortnite.com</text>
<rect x="180" y="478" width="580.0" height="22" fill="#4c78a8" rx="3"/>
<text x="768.0" y="494" class="value">277.78</text>
<line x1="180" y1="30" x2="180" y2="520" stroke="#ccc"/>
<line x1="180" y1="520" x2="760" y2="520" stroke="#ccc"/>
</svg>