<svg xmlns="http://www.w3.org/2000/svg" width="800" height="540">
<style> .label{font-family:DejaVu Sans,Verdana,Geneva,sans-serif;font-size:12px;fill:#333} .value{font-family:DejaVu Sans,Verdana,Geneva,sans-serif;font-size:12px;fill:#555} </style>
<text x="10" y="20" class="label">延迟柱状图（越低越好，Top 15），单位 ms</text>
<text x="10" y="46" class="label">rockstargames.com</text>
<rect x="180" y="30" width="208.57" height="22" fill="#4c78a8" rx="3"/>
<text x="396.57" y="46" class="value">76.88</text>
<text x="10" y="78" class="label">socialclub.rockstargames.com</text>
<rect x="180" y="62" width="244.84" height="22" fill="#4c78a8" rx="3"/>
<text x="432.84000000000003" y="78" class="value">90.25</text>
<text x="10" y="110" class="label">eaassets-a.akamaihd.net</text>
<rect x="180" y="94" width="249.75" height="22" fill="#4c78a8" rx="3"/>
<text x="437.75" y="110" class="value">92.06</text>
<text x="10" y="142" class="label">blizzard.com</text>
<rect x="180" y="126" width="251.35" height="22" fill="#4c78a8" rx="3"/>
<text x="439.35" y="142" class="value">92.65</text>
<text x="10" y="174" class="label">ubi.com</text>
<rect x="180" y="158" width="259.6" height="22" fill="#4c78a8" rx="3"/>
<text x="447.6" y="174" class="value">95.69</text>
<text x="10" y="206" class="label">battle.net</text>
<rect x="180" y="190" width="275.91" height="22" fill="#4c78a8" rx="3"/>
<text x="463.91" y="206" class="value">101.70</text>
<text x="10" y="238" class="label">ea.com</text>
<rect x="180" y="222" width="361.61" height="22" fill="#4c78a8" rx="3"/>
<text x="549.61" y="238" class="value">133.29</text>
<text x="10" y="270" class="label">cdn.akamai.steamstatic.com</text>
<rect x="180" y="254" width="380.25" height="22" fill="#4c78a8" rx="3"/>
<text x="568.25" y="270" class="value">140.16</text>
<text x="10" y="302" class="label">epicgames.com</text>
<rect x="180" y="286" width="390.58" height="22" fill="#4c78a8" rx="3"/>
<text x="578.5799999999999" y="302" class="value">143.97</text>
<text x="10" y="334" class="label">fortnite.com</text>
<rect x="180" y="318" width="435.56" height="22" fill="#4c78a8" rx="3"/>
<text x="623.56" y="334" class="value">160.55</text>
<text x="10" y="366" class="label">steam-chat.com</text>
<rect x="180" y="350" width="497.8" height="22" fill="#4c78a8" rx="3"/>
<text x="685.8" y="366" class="value">183.49</text>
<text x="10" y="398" class="label">origin.com</text>
<rect x="180" y="382" width="519.53" height="22" fill="#4c78a8" rx="3"/>
<text x="707.53" y="398" class="value">191.50</text>
<text x="10" y="430" class="label">store.akamai.steamstatic.com</text>
<rect x="180" y="414" width="565.73" height="22" fill="#4c78a8" rx="3"/>
<text x="753.73" y="430" class="value">208.53</text>
<text x="10" y="462" class="label">unrealengine.com</text>
<rect x="180" y="446" width="570.5" height="22" fill="#4c78a8" rx="3"/>
<text x="758.5" y="462" class="value">210.29</text>
<text x="10" y="494" class="label">cdn.cloudflare.steamstatic.com</text>
<rect x="180" y="478" width="580.0" height="22" fill="#4c78a8" rx="3"/>
<text x="768.0" y="494" class="value">213.79</text>
<line x1="180" y1="30" x2="180" y2="520" stroke="#ccc"/>
<line x1="180" y1="520" x2="760" y2="520" stroke="#ccc"/>
</svg>