<svg xmlns="http://www.w3.org/2000/svg" width="800" height="540">
<style> .label{font-family:DejaVu Sans,Verdana,Geneva,sans-serif;font-size:12px;fill:#333} .value{font-family:DejaVu Sans,Verdana,Geneva,sans-serif;font-size:12px;fill:#555} </style>
<text x="10" y="20" class="label">延迟柱状图（越低越好，Top 15），单位 ms</text>
<text x="10" y="46" class="label">eaassets-a.akamaihd.net</text>
<rect x="180" y="30" width="84.67" height="22" fill="#4c78a8" rx="3"/>
<text x="272.67" y="46" class="value">37.15</text>
<text x="10" y="78" class="label">rockstargames.com</text>
<rect x="180" y="62" width="107.33" height="22" fill="#4c78a8" rx="3"/>
<text x="295.33" y="78" class="value">47.09</text>
<text x="10" y="110" class="label">ubisoft.com</text>
<rect x="180" y="94" width="204.46" height="22" fill="#4c78a8" rx="3"/>
<text x="392.46000000000004" y="110" class="value">89.71</text>
<text x="10" y="142" class="label">ea.com</text>
<rect x="180" y="126" width="241.5" height="22" fill="#4c78a8" rx="3"/>
<text x="429.5" y="142" class="value">105.96</text>
<text x="10" y="174" class="label">steamcdn-a.akamaihd.net</text>
<rect x="180" y="158" width="284.6" height="22" fill="#4c78a8" rx="3"/>
<text x="472.6" y="174" class="value">124.87</text>
<text x="10" y="206" class="label">community.akamai.steamstatic.com</text>
<rect x="180" y="190" width="317.78" height="22" fill="#4c78a8" rx="3"/>
<text x="505.78" y="206" class="value">139.43</text>
<text x="10" y="238" class="label">cdn.akamai.steamstatic.com</text>
<rect x="180" y="222" width="328.54" height="22" fill="#4c78a8" rx="3"/>
<text x="516.54" y="238" class="value">144.15</text>
<text x="10" y="270" class="label">cdn.cloudflare.steamstatic.com</text>
<rect x="180" y="254" width="366.6" height="22" fill="#4c78a8" rx="3"/>
<text x="554.6" y="270" class="value">160.85</text>
<text x="10" y="302" class="label">origin.com</text>
<rect x="180" y="286" width="368.27" height="22" fill="#4c78a8" rx="3"/>
<text x="556.27" y="302" class="value">161.58</text>
<text x="10" y="334" class="label">store.akamai.steamstatic.com</text>
<rect x="180" y="318" width="427.36" height="22" fill="#4c78a8" rx="3"/>
<text x="615.36" y="334" class="value">187.51</text>
<text x="10" y="366" class="label">api.steampowered.com</text>
<rect x="180" y="350" width="464.72" height="22" fill="#4c78a8" rx="3"/>
<text x="652.72" y="366" class="value">203.90</text>
<text x="10" y="398" class="label">steam-chat.com</text>
<rect x="180" y="382" width="497.47" height="22" fill="#4c78a8" rx="3"/>
<text x="685.47" y="398" class="value">218.27</text>
<text x="10" y="430" class="label">easyanticheat.net</text>
<rect x="180" y="414" width="503.06" height="22" fill="#4c78a8" rx="3"/>
<text x="691.06" y="430" class="value">220.72</text>
<text x="10" y="462" class="label">www.steamcommunity.com</text>
<rect x="180" y="446" width="546.88" height="22" fill="#4c78a8" rx="3"/>
<text x="734.88" y="462" class="value">239.95</text>
<text x="10" y="494" class="label">steamcommunity.com</text>
<rect x="180" y="478" width="580.0" height="22" fill="#4c78a8" rx="3"/>
<text x="768.0" y="494" class="value">254.48</text>
<line x1="180" y1="30" x2="180" y2="520" stroke="#ccc"/>
<line x1="180" y1="520" x2="760" y2="520" stroke="#ccc"/>
</svg>