<svg xmlns="http://www.w3.org/2000/svg" width="800" height="540">
<style> .label{font-family:DejaVu Sans,Verdana,Geneva,sans-serif;font-size:12px;fill:#333} .value{font-family:DejaVu Sans,Verdana,Geneva,sans-serif;font-size:12px;fill:#555} </style>
<text x="10" y="20" class="label">延迟柱状图（越低越好，Top 15），单位 ms</text>
<text x="10" y="46" class="label">rockstargames.com</text>
<rect x="180" y="30" width="192.06" height="22" fill="#4c78a8" rx="3"/>
<text x="380.06" y="46" class="value">79.63</text>
<text x="10" y="78" class="label">ea.com</text>
<rect x="180" y="62" width="215.31" height="22" fill="#4c78a8" rx="3"/>
<text x="403.31" y="78" class="value">89.27</text>
<text x="10" y="110" class="label">steamcdn-a.akamaihd.net</text>
<rect x="180" y="94" width="233.43" height="22" fill="#4c78a8" rx="3"/>
<text x="421.43" y="110" class="value">96.78</text>
<text x="10" y="142" class="label">store.akamai.steamstatic.com</text>
<rect x="180" y="126" width="236.18" height="22" fill="#4c78a8" rx="3"/>
<text x="424.18" y="142" class="value">97.92</text>
<text x="10" y="174" class="label">eaassets-a.akamaihd.net</text>
<rect x="180" y="158" width="236.39" height="22" fill="#4c78a8" rx="3"/>
<text x="424.39" y="174" class="value">98.01</text>
<text x="10" y="206" class="label">blizzard.com</text>
<rect x="180" y="190" width="338.83" height="22" fill="#4c78a8" rx="3"/>
<text x="526.8299999999999" y="206" class="value">140.48</text>
<text x="10" y="238" class="label">socialclub.rockstargames.com</text>
<rect x="180" y="222" width="341.27" height="22" fill="#4c78a8" rx="3"/>
<text x="529.27" y="238" class="value">141.49</text>
<text x="10" y="270" class="label">battle.net</text>
<rect x="180" y="254" width="361.79" height="22" fill="#4c78a8" rx="3"/>
<text x="549.79" y="270" class="value">150.00</text>
<text x="10" y="302" class="label">ubisoft.com</text>
<rect x="180" y="286" width="407.38" height="22" fill="#4c78a8" rx="3"/>
<text x="595.38" y="302" class="value">168.90</text>
<text x="10" y="334" class="label">ubi.com</text>
<rect x="180" y="318" width="416.57" height="22" fill="#4c78a8" rx="3"/>
<text x="604.5699999999999" y="334" class="value">172.71</text>
<text x="10" y="366" class="label">static3.cdn.ubi.com</text>
<rect x="180" y="350" width="491.87" height="22" fill="#4c78a8" rx="3"/>
<text x="679.87" y="366" class="value">203.93</text>
<text x="10" y="398" class="label">origin.com</text>
<rect x="180" y="382" width="508.29" height="22" fill="#4c78a8" rx="3"/>
<text x="696.29" y="398" class="value">210.74</text>
<text x="10" y="430" class="label">community.akamai.steamstatic.com</text>
<rect x="180" y="414" width="541.92" height="22" fill="#4c78a8" rx="3"/>
<text x="729.92" y="430" class="value">224.68</text>
<text x="10" y="462" class="label">cdn.cloudflare.steamstatic.com</text>
<rect x="180" y="446" width="549.66" height="22" fill="#4c78a8" rx="3"/>
<text x="737.66" y="462" class="value">227.89</text>
<text x="10" y="494" class="label">api.steampowered.com</text>
<rect x="180" y="478" width="580.0" height="22" fill="#4c78a8" rx="3"/>
<text x="768.0" y="494" class="value">240.47</text>
<line x1="180" y1="30" x2="180" y2="520" stroke="#ccc"/>
<line x1="180" y1="520" x2="760" y2="520" stroke="#ccc"/>
</svg>