<svg xmlns="http://www.w3.org/2000/svg" width="800" height="540">
<style> .label{font-family:DejaVu Sans,Verdana,Geneva,sans-serif;font-size:12px;fill:#333} .value{font-family:DejaVu Sans,Verdana,Geneva,sans-serif;font-size:12px;fill:#555} </style>
<text x="10" y="20" class="label">延迟柱状图（越低越好，Top 15），单位 ms</text>
<text x="10" y="46" class="label">eaassets-a.akamaihd.net</text>
<rect x="180" y="30" width="166.63" height="22" fill="#4c78a8" rx="3"/>
<text x="354.63" y="46" class="value">53.36</text>
<text x="10" y="78" class="label">rockstargames.com</text>
<rect x="180" y="62" width="269.0" height="22" fill="#4c78a8" rx="3"/>
<text x="457.0" y="78" class="value">86.14</text>
<text x="10" y="110" class="label">ea.com</text>
<rect x="180" y="94" width="286.17" height="22" fill="#4c78a8" rx="3"/>
<text x="474.17" y="110" class="value">91.64</text>
<text x="10" y="142" class="label">cdn.cloudflare.steamstatic.com</text>
<rect x="180" y="126" width="296.45" height="22" fill="#4c78a8" rx="3"/>
<text x="484.45" y="142" class="value">94.93</text>
<text x="10" y="174" class="label">ubisoft.com</text>
<rect x="180" y="158" width="308.66" height="22" fill="#4c78a8" rx="3"/>
<text x="496.66" y="174" class="value">98.84</text>
<text x="10" y="206" class="label">socialclub.rockstargames.com</text>
<rect x="180" y="190" width="388.45" height="22" fill="#4c78a8" rx="3"/>
<text x="576.45" y="206" class="value">124.39</text>
<text x="10" y="238" class="label">blizzard.com</text>
<rect x="180" y="222" width="402.87" height="22" fill="#4c78a8" rx="3"/>
<text x="590.87" y="238" class="value">129.01</text>
<text x="10" y="270" class="label">store.akamai.steamstatic.com</text>
<rect x="180" y="254" width="419.64" height="22" fill="#4c78a8" rx="3"/>
<text x="607.64" y="270" class="value">134.38</text>
<text x="10" y="302" class="label">steamcdn-a.akamaihd.net</text>
<rect x="180" y="286" width="459.83" height="22" fill="#4c78a8" rx="3"/>
<text x="647.8299999999999" y="302" class="value">147.25</text>
<text x="10" y="334" class="label">battle.net</text>
<rect x="180" y="318" width="473.95" height="22" fill="#4c78a8" rx="3"/>
<text x="661.95" y="334" class="value">151.77</text>
<text x="10" y="366" class="label">static3.cdn.ubi.com</text>
<rect x="180" y="350" width="476.45" height="22" fill="#4c78a8" rx="3"/>
<text x="664.45" y="366" class="value">152.57</text>
<text x="10" y="398" class="label">ubi.com</text>
<rect x="180" y="382" width="526.51" height="22" fill="#4c78a8" rx="3"/>
<text x="714.51" y="398" class="value">168.60</text>
<text x="10" y="430" class="label">community.akamai.steamstatic.com</text>
<rect x="180" y="414" width="541.9" height="22" fill="#4c78a8" rx="3"/>
<text x="729.9" y="430" class="value">173.53</text>
<text x="10" y="462" class="label">cdn.akamai.steamstatic.com</text>
<rect x="180" y="446" width="572.79" height="22" fill="#4c78a8" rx="3"/>
<text x="760.79" y="462" class="value">183.42</text>
<text x="10" y="494" class="label">origin.com</text>
<rect x="180" y="478" width="580.0" height="22" fill="#4c78a8" rx="3"/>
<text x="768.0" y="494" class="value">185.73</text>
<line x1="180" y1="30" x2="180" y2="520" stroke="#ccc"/>
<line x1="180" y1="520" x2="760" y2="520" stroke="#ccc"/>
</svg>