<svg xmlns="http://www.w3.org/2000/svg" width="800" height="540">
<style> .label{font-family:DejaVu Sans,Verdana,Geneva,sans-serif;font-size:12px;fill:#333} .value{font-family:DejaVu Sans,Verdana,Geneva,sans-serif;font-size:12px;fill:#555} </style>
<text x="10" y="20" class="label">延迟柱状图（越低越好，Top 15），单位 ms</text>
<text x="10" y="46" class="label">rockstargames.com</text>
<rect x="180" y="30" width="98.99" height="22" fill="#4c78a8" rx="3"/>
<text x="286.99" y="46" class="value">48.95</text>
<text x="10" y="78" class="label">ea.com</text>
<rect x="180" y="62" width="170.64" height="22" fill="#4c78a8" rx="3"/>
<text x="358.64" y="78" class="value">84.38</text>
<text x="10" y="110" class="label">ubisoft.com</text>
<rect x="180" y="94" width="179.34" height="22" fill="#4c78a8" rx="3"/>
<text x="367.34000000000003" y="110" class="value">88.68</text>
<text x="10" y="142" class="label">eaassets-a.akamaihd.net</text>
<rect x="180" y="126" width="184.01" height="22" fill="#4c78a8" rx="3"/>
<text x="372.01" y="142" class="value">90.99</text>
<text x="10" y="174" class="label">cdn.cloudflare.steamstatic.com</text>
<rect x="180" y="158" width="207.87" height="22" fill="#4c78a8" rx="3"/>
<text x="395.87" y="174" class="value">102.79</text>
<text x="10" y="206" class="label">origin.com</text>
<rect x="180" y="190" width="303.61" height="22" fill="#4c78a8" rx="3"/>
<text x="491.61" y="206" class="value">150.13</text>
<text x="10" y="238" class="label">steamcdn-a.akamaihd.net</text>
<rect x="180" y="222" width="304.6" height="22" fill="#4c78a8" rx="3"/>
<text x="492.6" y="238" class="value">150.62</text>
<text x="10" y="270" class="label">store.akamai.steamstatic.com</text>
<rect x="180" y="254" width="317.73" height="22" fill="#4c78a8" rx="3"/>
<text x="505.73" y="270" class="value">157.11</text>
<text x="10" y="302" class="label">easyanticheat.net</text>
<rect x="180" y="286" width="327.78" height="22" fill="#4c78a8" rx="3"/>
<text x="515.78" y="302" class="value">162.08</text>
<text x="10" y="334" class="label">community.akamai.steamstatic.com</text>
<rect x="180" y="318" width="351.34" height="22" fill="#4c78a8" rx="3"/>
<text x="539.3399999999999" y="334" class="value">173.73</text>
<text x="10" y="366" class="label">cdn.akamai.steamstatic.com</text>
<rect x="180" y="350" width="382.88" height="22" fill="#4c78a8" rx="3"/>
<text x="570.88" y="366" class="value">189.33</text>
<text x="10" y="398" class="label">steam-chat.com</text>
<rect x="180" y="382" width="470.71" height="22" fill="#4c78a8" rx="3"/>
<text x="658.71" y="398" class="value">232.76</text>
<text x="10" y="430" class="label">api.steampowered.com</text>
<rect x="180" y="414" width="483.33" height="22" fill="#4c78a8" rx="3"/>
<text x="671.3299999999999" y="430" class="value">239.00</text>
<text x="10" y="462" class="label">launcher-public-service-prod06.ol.epicgames.com</text>
<rect x="180" y="446" width="570.8" height="22" fill="#4c78a8" rx="3"/>
<text x="758.8" y="462" class="value">282.25</text>
<text x="10" y="494" class="label">battle.net</text>
<rect x="180" y="478" width="580.0" height="22" fill="#4c78a8" rx="3"/>
<text x="768.0" y="494" class="value">286.80</text>
<line x1="180" y1="30" x2="180" y2="520" stroke="#ccc"/>
<line x1="180" y1="520" x2="760" y2="520" stroke="#ccc"/>
</svg>