<svg xmlns="http://www.w3.org/2000/svg" width="800" height="540">
<style> .label{font-family:DejaVu Sans,Verdana,Geneva,sans-serif;font-size:12px;fill:#333} .value{font-family:DejaVu Sans,Verdana,Geneva,sans-serif;font-size:12px;fill:#555} </style>
<text x="10" y="20" class="label">延迟柱状图（越低越好，Top 15），单位 ms</text>
<text x="10" y="46" class="label">rockstargames.com</text>
<rect x="180" y="30" width="205.95" height="22" fill="#4c78a8" rx="3"/>
<text x="393.95" y="46" class="value">76.56</text>
<text x="10" y="78" class="label">eaassets-a.akamaihd.net</text>
<rect x="180" y="62" width="213.13" height="22" fill="#4c78a8" rx="3"/>
<text x="401.13" y="78" class="value">79.23</text>
<text x="10" y="110" class="label">ea.com</text>
<rect x="180" y="94" width="247.99" height="22" fill="#4c78a8" rx="3"/>
<text x="435.99" y="110" class="value">92.19</text>
<text x="10" y="142" class="label">blizzard.com</text>
<rect x="180" y="126" width="319.28" height="22" fill="#4c78a8" rx="3"/>
<text x="507.28" y="142" class="value">118.69</text>
<text x="10" y="174" class="label">store.akamai.steamstatic.com</text>
<rect x="180" y="158" width="350.0" height="22" fill="#4c78a8" rx="3"/>
<text x="538.0" y="174" class="value">130.11</text>
<text x="10" y="206" class="label">battle.net</text>
<rect x="180" y="190" width="371.84" height="22" fill="#4c78a8" rx="3"/>
<text x="559.8399999999999" y="206" class="value">138.23</text>
<text x="10" y="238" class="label">origin.com</text>
<rect x="180" y="222" width="387.69" height="22" fill="#4c78a8" rx="3"/>
<text x="575.69" y="238" class="value">144.12</text>
<text x="10" y="270" class="label">cdn.akamai.steamstatic.com</text>
<rect x="180" y="254" width="393.12" height="22" fill="#4c78a8" rx="3"/>
<text x="581.12" y="270" class="value">146.14</text>
<text x="10" y="302" class="label">socialclub.rockstargames.com</text>
<rect x="180" y="286" width="402.24" height="22" fill="#4c78a8" rx="3"/>
<text x="590.24" y="302" class="value">149.53</text>
<text x="10" y="334" class="label">ubi.com</text>
<rect x="180" y="318" width="416.53" height="22" fill="#4c78a8" rx="3"/>
<text x="604.53" y="334" class="value">154.84</text>
<text x="10" y="366" class="label">steamcdn-a.akamaihd.net</text>
<rect x="180" y="350" width="475.92" height="22" fill="#4c78a8" rx="3"/>
<text x="663.9200000000001" y="366" class="value">176.92</text>
<text x="10" y="398" class="label">community.akamai.steamstatic.com</text>
<rect x="180" y="382" width="502.26" height="22" fill="#4c78a8" rx="3"/>
<text x="690.26" y="398" class="value">186.71</text>
<text x="10" y="430" class="label">ubisoft.com</text>
<rect x="180" y="414" width="506.45" height="22" fill="#4c78a8" rx="3"/>
<text x="694.45" y="430" class="value">188.27</text>
<text x="10" y="462" class="label">cdn.cloudflare.steamstatic.com</text>
<rect x="180" y="446" width="521.84" height="22" fill="#4c78a8" rx="3"/>
<text x="709.84" y="462" class="value">193.99</text>
<text x="10" y="494" class="label">static3.cdn.ubi.com</text>
<rect x="180" y="478" width="580.0" height="22" fill="#4c78a8" rx="3"/>
<text x="768.0" y="494" class="value">215.61</text>
<line x1="180" y1="30" x2="180" y2="520" stroke="#ccc"/>
<line x1="180" y1="520" x2="760" y2="520" stroke="#ccc"/>
</svg>