<svg xmlns="http://www.w3.org/2000/svg" width="800" height="540">
<style> .label{font-family:DejaVu Sans,Verdana,Geneva,sans-serif;font-size:12px;fill:#333} .value{font-family:DejaVu Sans,Verdana,Geneva,sans-serif;font-size:12px;fill:#555} </style>
<text x="10" y="20" class="label">延迟柱状图（越低越好，Top 15），单位 ms</text>
<text x="10" y="46" class="label">rockstargames.com</text>
<rect x="180" y="30" width="118.25" height="22" fill="#4c78a8" rx="3"/>
<text x="306.25" y="46" class="value">64.25</text>
<text x="10" y="78" class="label">eaassets-a.akamaihd.net</text>
<rect x="180" y="62" width="148.47" height="22" fill="#4c78a8" rx="3"/>
<text x="336.47" y="78" class="value">80.67</text>
<text x="10" y="110" class="label">ubisoft.com</text>
<rect x="180" y="94" width="257.19" height="22" fill="#4c78a8" rx="3"/>
<text x="445.19" y="110" class="value">139.74</text>
<text x="10" y="142" class="label">community.akamai.steamstatic.com</text>
<rect x="180" y="126" width="294.87" height="22" fill="#4c78a8" rx="3"/>
<text x="482.87" y="142" class="value">160.21</text>
<text x="10" y="174" class="label">ea.com</text>
<rect x="180" y="158" width="304.92" height="22" fill="#4c78a8" rx="3"/>
<text x="492.92" y="174" class="value">165.67</text>
<text x="10" y="206" class="label">launcher-public-service-prod06.ol.epicgames.com</text>
<rect x="180" y="190" width="331.22" height="22" fill="#4c78a8" rx="3"/>
<text x="519.22" y="206" class="value">179.96</text>
<text x="10" y="238" class="label">steamcdn-a.akamaihd.net</text>
<rect x="180" y="222" width="347.45" height="22" fill="#4c78a8" rx="3"/>
<text x="535.45" y="238" class="value">188.78</text>
<text x="10" y="270" class="label">store.akamai.steamstatic.com</text>
<rect x="180" y="254" width="370.72" height="22" fill="#4c78a8" rx="3"/>
<text x="558.72" y="270" class="value">201.42</text>
<text x="10" y="302" class="label">origin.com</text>
<rect x="180" y="286" width="412.72" height="22" fill="#4c78a8" rx="3"/>
<text x="600.72" y="302" class="value">224.24</text>
<text x="10" y="334" class="label">cdn.akamai.steamstatic.com</text>
<rect x="180" y="318" width="433.99" height="22" fill="#4c78a8" rx="3"/>
<text x="621.99" y="334" class="value">235.80</text>
<text x="10" y="366" class="label">www.steamcommunity.com</text>
<rect x="180" y="350" width="468.93" height="22" fill="#4c78a8" rx="3"/>
<text x="656.9300000000001" y="366" class="value">254.78</text>
<text x="10" y="398" class="label">cdn.cloudflare.steamstatic.com</text>
<rect x="180" y="382" width="474.37" height="22" fill="#4c78a8" rx="3"/>
<text x="662.37" y="398" class="value">257.74</text>
<text x="10" y="430" class="label">ubi.com</text>
<rect x="180" y="414" width="477.24" height="22" fill="#4c78a8" rx="3"/>
<text x="665.24" y="430" class="value">259.30</text>
<text x="10" y="462" class="label">api.steampowered.com</text>
<rect x="180" y="446" width="489.15" height="22" fill="#4c78a8" rx="3"/>
<text x="677.15" y="462" class="value">265.77</text>
<text x="10" y="494" class="label">steam-chat.com</text>
<rect x="180" y="478" width="580.0" height="22" fill="#4c78a8" rx="3"/>
<text x="768.0" y="494" class="value">315.13</text>
<line x1="180" y1="30" x2="180" y2="520" stroke="#ccc"/>
<line x1="180" y1="520" x2="760" y2="520" stroke="#ccc"/>
</svg>