<svg xmlns="http://www.w3.org/2000/svg" width="800" height="540">
<style> .label{font-family:DejaVu Sans,Verdana,Geneva,sans-serif;font-size:12px;fill:#333} .value{font-family:DejaVu Sans,Verdana,Geneva,sans-serif;font-size:12px;fill:#555} </style>
<text x="10" y="20" class="label">延迟柱状图（越低越好，Top 15），单位 ms</text>
<text x="10" y="46" class="label">rockstargames.com</text>
<rect x="180" y="30" width="152.14" height="22" fill="#4c78a8" rx="3"/>
<text x="340.14" y="46" class="value">52.58</text>
<text x="10" y="78" class="label">socialclub.rockstargames.com</text>
<rect x="180" y="62" width="230.09" height="22" fill="#4c78a8" rx="3"/>
<text x="418.09000000000003" y="78" class="value">79.52</text>
<text x="10" y="110" class="label">eaassets-a.akamaihd.net</text>
<rect x="180" y="94" width="234.63" height="22" fill="#4c78a8" rx="3"/>
<text x="422.63" y="110" class="value">81.09</text>
<text x="10" y="142" class="label">ubi.com</text>
<rect x="180" y="126" width="400.66" height="22" fill="#4c78a8" rx="3"/>
<text x="588.6600000000001" y="142" class="value">138.47</text>
<text x="10" y="174" class="label">fortnite.com</text>
<rect x="180" y="158" width="418.11" height="22" fill="#4c78a8" rx="3"/>
<text x="606.11" y="174" class="value">144.50</text>
<text x="10" y="206" class="label">battle.net</text>
<rect x="180" y="190" width="418.63" height="22" fill="#4c78a8" rx="3"/>
<text x="606.63" y="206" class="value">144.68</text>
<text x="10" y="238" class="label">blizzard.com</text>
<rect x="180" y="222" width="425.26" height="22" fill="#4c78a8" rx="3"/>
<text x="613.26" y="238" class="value">146.97</text>
<text x="10" y="270" class="label">ubisoft.com</text>
<rect x="180" y="254" width="453.67" height="22" fill="#4c78a8" rx="3"/>
<text x="641.6700000000001" y="270" class="value">156.79</text>
<text x="10" y="302" class="label">ea.com</text>
<rect x="180" y="286" width="462.09" height="22" fill="#4c78a8" rx="3"/>
<text x="650.0899999999999" y="302" class="value">159.70</text>
<text x="10" y="334" class="label">community.akamai.steamstatic.com</text>
<rect x="180" y="318" width="518.25" height="22" fill="#4c78a8" rx="3"/>
<text x="706.25" y="334" class="value">179.11</text>
<text x="10" y="366" class="label">origin.com</text>
<rect x="180" y="350" width="528.35" height="22" fill="#4c78a8" rx="3"/>
<text x="716.35" y="366" class="value">182.60</text>
<text x="10" y="398" class="label">store.akamai.steamstatic.com</text>
<rect x="180" y="382" width="547.68" height="22" fill="#4c78a8" rx="3"/>
<text x="735.68" y="398" class="value">189.28</text>
<text x="10" y="430" class="label">unrealengine.com</text>
<rect x="180" y="414" width="548.08" height="22" fill="#4c78a8" rx="3"/>
<text x="736.08" y="430" class="value">189.42</text>
<text x="10" y="462" class="label">epicgames.com</text>
<rect x="180" y="446" width="556.53" height="22" fill="#4c78a8" rx="3"/>
<text x="744.53" y="462" class="value">192.34</text>
<text x="10" y="494" class="label">gog.com</text>
<rect x="180" y="478" width="580.0" height="22" fill="#4c78a8" rx="3"/>
<text x="768.0" y="494" class="value">200.45</text>
<line x1="180" y1="30" x2="180" y2="520" stroke="#ccc"/>
<line x1="180" y1="520" x2="760" y2="520" stroke="#ccc"/>
</svg>