<svg xmlns="http://www.w3.org/2000/svg" width="800" height="540">
<style> .label{font-family:DejaVu Sans,Verdana,Geneva,sans-serif;font-size:12px;fill:#333} .value{font-family:DejaVu Sans,Verdana,Geneva,sans-serif;font-size:12px;fill:#555} </style>
<text x="10" y="20" class="label">延迟柱状图（越低越好，Top 15），单位 ms</text>
<text x="10" y="46" class="label">rockstargames.com</text>
<rect x="180" y="30" width="169.44" height="22" fill="#4c78a8" rx="3"/>
<text x="357.44" y="46" class="value">57.29</text>
<text x="10" y="78" class="label">eaassets-a.akamaihd.net</text>
<rect x="180" y="62" width="246.66" height="22" fill="#4c78a8" rx="3"/>
<text x="434.65999999999997" y="78" class="value">83.40</text>
<text x="10" y="110" class="label">battle.net</text>
<rect x="180" y="94" width="255.2" height="22" fill="#4c78a8" rx="3"/>
<text x="443.2" y="110" class="value">86.29</text>
<text x="10" y="142" class="label">blizzard.com</text>
<rect x="180" y="126" width="258.43" height="22" fill="#4c78a8" rx="3"/>
<text x="446.43" y="142" class="value">87.38</text>
<text x="10" y="174" class="label">socialclub.rockstargames.com</text>
<rect x="180" y="158" width="263.16" height="22" fill="#4c78a8" rx="3"/>
<text x="451.16" y="174" class="value">88.98</text>
<text x="10" y="206" class="label">ubi.com</text>
<rect x="180" y="190" width="282.18" height="22" fill="#4c78a8" rx="3"/>
<text x="470.18" y="206" class="value">95.41</text>
<text x="10" y="238" class="label">ea.com</text>
<rect x="180" y="222" width="284.57" height="22" fill="#4c78a8" rx="3"/>
<text x="472.57" y="238" class="value">96.22</text>
<text x="10" y="270" class="label">store.akamai.steamstatic.com</text>
<rect x="180" y="254" width="341.86" height="22" fill="#4c78a8" rx="3"/>
<text x="529.86" y="270" class="value">115.59</text>
<text x="10" y="302" class="label">ubisoft.com</text>
<rect x="180" y="286" width="366.14" height="22" fill="#4c78a8" rx="3"/>
<text x="554.14" y="302" class="value">123.80</text>
<text x="10" y="334" class="label">unrealengine.com</text>
<rect x="180" y="318" width="375.34" height="22" fill="#4c78a8" rx="3"/>
<text x="563.3399999999999" y="334" class="value">126.91</text>
<text x="10" y="366" class="label">community.akamai.steamstatic.com</text>
<rect x="180" y="350" width="437.45" height="22" fill="#4c78a8" rx="3"/>
<text x="625.45" y="366" class="value">147.91</text>
<text x="10" y="398" class="label">www.steamcommunity.com</text>
<rect x="180" y="382" width="443.84" height="22" fill="#4c78a8" rx="3"/>
<text x="631.8399999999999" y="398" class="value">150.07</text>
<text x="10" y="430" class="label">epicgames.com</text>
<rect x="180" y="414" width="463.98" height="22" fill="#4c78a8" rx="3"/>
<text x="651.98" y="430" class="value">156.88</text>
<text x="10" y="462" class="label">cdn.akamai.steamstatic.com</text>
<rect x="180" y="446" width="494.59" height="22" fill="#4c78a8" rx="3"/>
<text x="682.5899999999999" y="462" class="value">167.23</text>
<text x="10" y="494" class="label">steam-chat.com</text>
<rect x="180" y="478" width="580.0" height="22" fill="#4c78a8" rx="3"/>
<text x="768.0" y="494" class="value">196.11</text>
<line x1="180" y1="30" x2="180" y2="520" stroke="#ccc"/>
<line x1="180" y1="520" x2="760" y2="520" stroke="#ccc"/>
</svg>