<svg xmlns="http://www.w3.org/2000/svg" width="800" height="540">
<style> .label{font-family:DejaVu Sans,Verdana,Geneva,sans-serif;font-size:12px;fill:#333} .value{font-family:DejaVu Sans,Verdana,Geneva,sans-serif;font-size:12px;fill:#555} </style>
<text x="10" y="20" class="label">延迟柱状图（越低越好，Top 15），单位 ms</text>
<text x="10" y="46" class="label">rockstargames.com</text>
<rect x="180" y="30" width="86.84" height="22" fill="#4c78a8" rx="3"/>
<text x="274.84000000000003" y="46" class="value">42.41</text>
<text x="10" y="78" class="label">store.akamai.steamstatic.com</text>
<rect x="180" y="62" width="222.22" height="22" fill="#4c78a8" rx="3"/>
<text x="410.22" y="78" class="value">108.52</text>
<text x="10" y="110" class="label">eaassets-a.akamaihd.net</text>
<rect x="180" y="94" width="222.36" height="22" fill="#4c78a8" rx="3"/>
<text x="410.36" y="110" class="value">108.59</text>
<text x="10" y="142" class="label">ea.com</text>
<rect x="180" y="126" width="231.39" height="22" fill="#4c78a8" rx="3"/>
<text x="419.39" y="142" class="value">113.00</text>
<text x="10" y="174" class="label">ubisoft.com</text>
<rect x="180" y="158" width="239.52" height="22" fill="#4c78a8" rx="3"/>
<text x="427.52" y="174" class="value">116.97</text>
<text x="10" y="206" class="label">community.akamai.steamstatic.com</text>
<rect x="180" y="190" width="275.73" height="22" fill="#4c78a8" rx="3"/>
<text x="463.73" y="206" class="value">134.65</text>
<text x="10" y="238" class="label">origin.com</text>
<rect x="180" y="222" width="288.57" height="22" fill="#4c78a8" rx="3"/>
<text x="476.57" y="238" class="value">140.92</text>
<text x="10" y="270" class="label">cdn.cloudflare.steamstatic.com</text>
<rect x="180" y="254" width="305.36" height="22" fill="#4c78a8" rx="3"/>
<text x="493.36" y="270" class="value">149.12</text>
<text x="10" y="302" class="label">steamcdn-a.akamaihd.net</text>
<rect x="180" y="286" width="376.13" height="22" fill="#4c78a8" rx="3"/>
<text x="564.13" y="302" class="value">183.68</text>
<text x="10" y="334" class="label">cdn.akamai.steamstatic.com</text>
<rect x="180" y="318" width="401.74" height="22" fill="#4c78a8" rx="3"/>
<text x="589.74" y="334" class="value">196.19</text>
<text x="10" y="366" class="label">easyanticheat.net</text>
<rect x="180" y="350" width="453.61" height="22" fill="#4c78a8" rx="3"/>
<text x="641.61" y="366" class="value">221.52</text>
<text x="10" y="398" class="label">api.steampowered.com</text>
<rect x="180" y="382" width="468.85" height="22" fill="#4c78a8" rx="3"/>
<text x="656.85" y="398" class="value">228.96</text>
<text x="10" y="430" class="label">www.steamcommunity.com</text>
<rect x="180" y="414" width="479.03" height="22" fill="#4c78a8" rx="3"/>
<text x="667.03" y="430" class="value">233.93</text>
<text x="10" y="462" class="label">steam-chat.com</text>
<rect x="180" y="446" width="513.33" height="22" fill="#4c78a8" rx="3"/>
<text x="701.33" y="462" class="value">250.68</text>
<text x="10" y="494" class="label">ubi.com</text>
<rect x="180" y="478" width="580.0" height="22" fill="#4c78a8" rx="3"/>
<text x="768.0" y="494" class="value">283.24</text>
<line x1="180" y1="30" x2="180" y2="520" stroke="#ccc"/>
<line x1="180" y1="520" x2="760" y2="520" stroke="#ccc"/>
</svg>