<svg xmlns="http://www.w3.org/2000/svg" width="800" height="540">
<style> .label{font-family:DejaVu Sans,Verdana,Geneva,sans-serif;font-size:12px;fill:#333} .value{font-family:DejaVu Sans,Verdana,Geneva,sans-serif;font-size:12px;fill:#555} </style>
<text x="10" y="20" class="label">延迟柱状图（越低越好，Top 15），单位 ms</text>
<text x="10" y="46" class="label">rockstargames.com</text>
<rect x="180" y="30" width="137.93" height="22" fill="#4c78a8" rx="3"/>
<text x="325.93" y="46" class="value">54.76</text>
<text x="10" y="78" class="label">ea.com</text>
<rect x="180" y="62" width="182.18" height="22" fill="#4c78a8" rx="3"/>
<text x="370.18" y="78" class="value">72.33</text>
<text x="10" y="110" class="label">steamcdn-a.akamaihd.net</text>
<rect x="180" y="94" width="198.25" height="22" fill="#4c78a8" rx="3"/>
<text x="386.25" y="110" class="value">78.71</text>
<text x="10" y="142" class="label">community.akamai.steamstatic.com</text>
<rect x="180" y="126" width="201.55" height="22" fill="#4c78a8" rx="3"/>
<text x="389.55" y="142" class="value">80.02</text>
<text x="10" y="174" class="label">eaassets-a.akamaihd.net</text>
<rect x="180" y="158" width="217.93" height="22" fill="#4c78a8" rx="3"/>
<text x="405.93" y="174" class="value">86.52</text>
<text x="10" y="206" class="label">store.akamai.steamstatic.com</text>
<rect x="180" y="190" width="324.65" height="22" fill="#4c78a8" rx="3"/>
<text x="512.65" y="206" class="value">128.89</text>
<text x="10" y="238" class="label">ubisoft.com</text>
<rect x="180" y="222" width="356.63" height="22" fill="#4c78a8" rx="3"/>
<text x="544.63" y="238" class="value">141.59</text>
<text x="10" y="270" class="label">blizzard.com</text>
<rect x="180" y="254" width="356.91" height="22" fill="#4c78a8" rx="3"/>
<text x="544.9100000000001" y="270" class="value">141.70</text>
<text x="10" y="302" class="label">battle.net</text>
<rect x="180" y="286" width="358.04" height="22" fill="#4c78a8" rx="3"/>
<text x="546.04" y="302" class="value">142.15</text>
<text x="10" y="334" class="label">ubi.com</text>
<rect x="180" y="318" width="359.68" height="22" fill="#4c78a8" rx="3"/>
<text x="547.6800000000001" y="334" class="value">142.80</text>
<text x="10" y="366" class="label">cdn.akamai.steamstatic.com</text>
<rect x="180" y="350" width="374.19" height="22" fill="#4c78a8" rx="3"/>
<text x="562.19" y="366" class="value">148.56</text>
<text x="10" y="398" class="label">static3.cdn.ubi.com</text>
<rect x="180" y="382" width="395.73" height="22" fill="#4c78a8" rx="3"/>
<text x="583.73" y="398" class="value">157.11</text>
<text x="10" y="430" class="label">socialclub.rockstargames.com</text>
<rect x="180" y="414" width="515.22" height="22" fill="#4c78a8" rx="3"/>
<text x="703.22" y="430" class="value">204.55</text>
<text x="10" y="462" class="label">easyanticheat.net</text>
<rect x="180" y="446" width="578.59" height="22" fill="#4c78a8" rx="3"/>
<text x="766.59" y="462" class="value">229.71</text>
<text x="10" y="494" class="label">origin.com</text>
<rect x="180" y="478" width="580.0" height="22" fill="#4c78a8" rx="3"/>
<text x="768.0" y="494" class="value">230.27</text>
<line x1="180" y1="30" x2="180" y2="520" stroke="#ccc"/>
<line x1="180" y1="520" x2="760" y2="520" stroke="#ccc"/>
</svg>