<svg xmlns="http://www.w3.org/2000/svg" width="800" height="540">
<style> .label{font-family:DejaVu Sans,Verdana,Geneva,sans-serif;font-size:12px;fill:#333} .value{font-family:DejaVu Sans,Verdana,Geneva,sans-serif;font-size:12px;fill:#555} </style>
<text x="10" y="20" class="label">延迟柱状图（越低越好，Top 15），单位 ms</text>
<text x="10" y="46" class="label">store.akamai.steamstatic.com</text>
<rect x="180" y="30" width="434.6" height="22" fill="#4c78a8" rx="3"/>
<text x="622.6" y="46" class="value">193.30</text>
<text x="10" y="78" class="label">community.akamai.steamstatic.com</text>
<rect x="180" y="62" width="437.14" height="22" fill="#4c78a8" rx="3"/>
<text x="625.14" y="78" class="value">194.43</text>
<text x="10" y="110" class="label">steamcdn-a.akamaihd.net</text>
<rect x="180" y="94" width="439.86" height="22" fill="#4c78a8" rx="3"/>
<text x="627.86" y="110" class="value">195.64</text>
<text x="10" y="142" class="label">rockstargames.com</text>
<rect x="180" y="126" width="440.51" height="22" fill="#4c78a8" rx="3"/>
<text x="628.51" y="142" class="value">195.93</text>
<text x="10" y="174" class="label">launcher-public-service-prod06.ol.epicgames.com</text>
<rect x="180" y="158" width="480.62" height="22" fill="#4c78a8" rx="3"/>
<text x="668.62" y="174" class="value">213.77</text>
<text x="10" y="206" class="label">ubisoft.com</text>
<rect x="180" y="190" width="489.24" height="22" fill="#4c78a8" rx="3"/>
<text x="677.24" y="206" class="value">217.60</text>
<text x="10" y="238" class="label">ea.com</text>
<rect x="180" y="222" width="498.18" height="22" fill="#4c78a8" rx="3"/>
<text x="686.1800000000001" y="238" class="value">221.58</text>
<text x="10" y="270" class="label">ubi.com</text>
<rect x="180" y="254" width="513.47" height="22" fill="#4c78a8" rx="3"/>
<text x="701.47" y="270" class="value">228.38</text>
<text x="10" y="302" class="label">www.steamcommunity.com</text>
<rect x="180" y="286" width="524.31" height="22" fill="#4c78a8" rx="3"/>
<text x="712.31" y="302" class="value">233.20</text>
<text x="10" y="334" class="label">cdn.cloudflare.steamstatic.com</text>
<rect x="180" y="318" width="527.93" height="22" fill="#4c78a8" rx="3"/>
<text x="715.93" y="334" class="value">234.81</text>
<text x="10" y="366" class="label">easyanticheat.net</text>
<rect x="180" y="350" width="528.38" height="22" fill="#4c78a8" rx="3"/>
<text x="716.38" y="366" class="value">235.01</text>
<text x="10" y="398" class="label">steam-chat.com</text>
<rect x="180" y="382" width="538.14" height="22" fill="#4c78a8" rx="3"/>
<text x="726.14" y="398" class="value">239.35</text>
<text x="10" y="430" class="label">cdn.akamai.steamstatic.com</text>
<rect x="180" y="414" width="548.28" height="22" fill="#4c78a8" rx="3"/>
<text x="736.28" y="430" class="value">243.86</text>
<text x="10" y="462" class="label">socialclub.rockstargames.com</text>
<rect x="180" y="446" width="558.64" height="22" fill="#4c78a8" rx="3"/>
<text x="746.64" y="462" class="value">248.47</text>
<text x="10" y="494" class="label">api.steampowered.com</text>
<rect x="180" y="478" width="580.0" height="22" fill="#4c78a8" rx="3"/>
<text x="768.0" y="494" class="value">257.97</text>
<line x1="180" y1="30" x2="180" y2="520" stroke="#ccc"/>
<line x1="180" y1="520" x2="760" y2="520" stroke="#ccc"/>
</svg>