<svg xmlns="http://www.w3.org/2000/svg" width="800" height="540">
<style> .label{font-family:DejaVu Sans,Verdana,Geneva,sans-serif;font-size:12px;fill:#333} .value{font-family:DejaVu Sans,Verdana,Geneva,sans-serif;font-size:12px;fill:#555} </style>
<text x="10" y="20" class="label">延迟柱状图（越低越好，Top 15），单位 ms</text>
<text x="10" y="46" class="label">cdn.akamai.steamstatic.com</text>
<rect x="180" y="30" width="249.98" height="22" fill="#4c78a8" rx="3"/>
<text x="437.98" y="46" class="value">111.72</text>
<text x="10" y="78" class="label">eaassets-a.akamaihd.net</text>
<rect x="180" y="62" width="264.1" height="22" fill="#4c78a8" rx="3"/>
<text x="452.1" y="78" class="value">118.03</text>
<text x="10" y="110" class="label">ubisoft.com</text>
<rect x="180" y="94" width="310.35" height="22" fill="#4c78a8" rx="3"/>
<text x="498.35" y="110" class="value">138.70</text>
<text x="10" y="142" class="label">community.akamai.steamstatic.com</text>
<rect x="180" y="126" width="351.21" height="22" fill="#4c78a8" rx="3"/>
<text x="539.21" y="142" class="value">156.96</text>
<text x="10" y="174" class="label">steamcdn-a.akamaihd.net</text>
<rect x="180" y="158" width="351.77" height="22" fill="#4c78a8" rx="3"/>
<text x="539.77" y="174" class="value">157.21</text>
<text x="10" y="206" class="label">easyanticheat.net</text>
<rect x="180" y="190" width="413.32" height="22" fill="#4c78a8" rx="3"/>
<text x="601.3199999999999" y="206" class="value">184.72</text>
<text x="10" y="238" class="label">store.akamai.steamstatic.com</text>
<rect x="180" y="222" width="434.4" height="22" fill="#4c78a8" rx="3"/>
<text x="622.4" y="238" class="value">194.14</text>
<text x="10" y="270" class="label">origin.com</text>
<rect x="180" y="254" width="440.6" height="22" fill="#4c78a8" rx="3"/>
<text x="628.6" y="270" class="value">196.91</text>
<text x="10" y="302" class="label">rockstargames.com</text>
<rect x="180" y="286" width="447.36" height="22" fill="#4c78a8" rx="3"/>
<text x="635.36" y="302" class="value">199.93</text>
<text x="10" y="334" class="label">www.steamcommunity.com</text>
<rect x="180" y="318" width="453.11" height="22" fill="#4c78a8" rx="3"/>
<text x="641.11" y="334" class="value">202.50</text>
<text x="10" y="366" class="label">cdn.cloudflare.steamstatic.com</text>
<rect x="180" y="350" width="471.34" height="22" fill="#4c78a8" rx="3"/>
<text x="659.3399999999999" y="366" class="value">210.65</text>
<text x="10" y="398" class="label">blizzard.com</text>
<rect x="180" y="382" width="488.17" height="22" fill="#4c78a8" rx="3"/>
<text x="676.1700000000001" y="398" class="value">218.17</text>
<text x="10" y="430" class="label">battle.net</text>
<rect x="180" y="414" width="497.23" height="22" fill="#4c78a8" rx="3"/>
<text x="685.23" y="430" class="value">222.22</text>
<text x="10" y="462" class="label">ubi.com</text>
<rect x="180" y="446" width="514.06" height="22" fill="#4c78a8" rx="3"/>
<text x="702.06" y="462" class="value">229.74</text>
<text x="10" y="494" class="label">api.steampowered.com</text>
<rect x="180" y="478" width="580.0" height="22" fill="#4c78a8" rx="3"/>
<text x="768.0" y="494" class="value">259.21</text>
<line x1="180" y1="30" x2="180" y2="520" stroke="#ccc"/>
<line x1="180" y1="520" x2="760" y2="520" stroke="#ccc"/>
</svg>