<svg xmlns="http://www.w3.org/2000/svg" width="800" height="540">
<style> .label{font-family:DejaVu Sans,Verdana,Geneva,sans-serif;font-size:12px;fill:#333} .value{font-family:DejaVu Sans,Verdana,Geneva,sans-serif;font-size:12px;fill:#555} </style>
<text x="10" y="20" class="label">延迟柱状图（越低越好，Top 15），单位 ms</text>
<text x="10" y="46" class="label">rockstargames.com</text>
<rect x="180" y="30" width="217.67" height="22" fill="#4c78a8" rx="3"/>
<text x="405.66999999999996" y="46" class="value">81.01</text>
<text x="10" y="78" class="label">ea.com</text>
<rect x="180" y="62" width="245.16" height="22" fill="#4c78a8" rx="3"/>
<text x="433.15999999999997" y="78" class="value">91.24</text>
<text x="10" y="110" class="label">socialclub.rockstargames.com</text>
<rect x="180" y="94" width="248.73" height="22" fill="#4c78a8" rx="3"/>
<text x="436.73" y="110" class="value">92.57</text>
<text x="10" y="142" class="label">ubi.com</text>
<rect x="180" y="126" width="255.42" height="22" fill="#4c78a8" rx="3"/>
<text x="443.41999999999996" y="142" class="value">95.06</text>
<text x="10" y="174" class="label">battle.net</text>
<rect x="180" y="158" width="277.0" height="22" fill="#4c78a8" rx="3"/>
<text x="465.0" y="174" class="value">103.09</text>
<text x="10" y="206" class="label">blizzard.com</text>
<rect x="180" y="190" width="371.71" height="22" fill="#4c78a8" rx="3"/>
<text x="559.71" y="206" class="value">138.34</text>
<text x="10" y="238" class="label">easyanticheat.net</text>
<rect x="180" y="222" width="476.63" height="22" fill="#4c78a8" rx="3"/>
<text x="664.63" y="238" class="value">177.39</text>
<text x="10" y="270" class="label">community.akamai.steamstatic.com</text>
<rect x="180" y="254" width="483.24" height="22" fill="#4c78a8" rx="3"/>
<text x="671.24" y="270" class="value">179.85</text>
<text x="10" y="302" class="label">cdn.akamai.steamstatic.com</text>
<rect x="180" y="286" width="500.49" height="22" fill="#4c78a8" rx="3"/>
<text x="688.49" y="302" class="value">186.27</text>
<text x="10" y="334" class="label">fortnite.com</text>
<rect x="180" y="318" width="515.67" height="22" fill="#4c78a8" rx="3"/>
<text x="703.67" y="334" class="value">191.92</text>
<text x="10" y="366" class="label">store.akamai.steamstatic.com</text>
<rect x="180" y="350" width="518.82" height="22" fill="#4c78a8" rx="3"/>
<text x="706.82" y="366" class="value">193.09</text>
<text x="10" y="398" class="label">steamcdn-a.akamaihd.net</text>
<rect x="180" y="382" width="533.76" height="22" fill="#4c78a8" rx="3"/>
<text x="721.76" y="398" class="value">198.65</text>
<text x="10" y="430" class="label">cdn.cloudflare.steamstatic.com</text>
<rect x="180" y="414" width="560.87" height="22" fill="#4c78a8" rx="3"/>
<text x="748.87" y="430" class="value">208.74</text>
<text x="10" y="462" class="label">ubisoft.com</text>
<rect x="180" y="446" width="574.3" height="22" fill="#4c78a8" rx="3"/>
<text x="762.3" y="462" class="value">213.74</text>
<text x="10" y="494" class="label">epicgames.com</text>
<rect x="180" y="478" width="580.0" height="22" fill="#4c78a8" rx="3"/>
<text x="768.0" y="494" class="value">215.86</text>
<line x1="180" y1="30" x2="180" y2="520" stroke="#ccc"/>
<line x1="180" y1="520" x2="760" y2="520" stroke="#ccc"/>
</svg>