<svg xmlns="http://www.w3.org/2000/svg" width="800" height="540">
<style> .label{font-family:DejaVu Sans,Verdana,Geneva,sans-serif;font-size:12px;fill:#333} .value{font-family:DejaVu Sans,Verdana,Geneva,sans-serif;font-size:12px;fill:#555} </style>
<text x="10" y="20" class="label">延迟柱状图（越低越好，Top 15），单位 ms</text>
<text x="10" y="46" class="label">eaassets-a.akamaihd.net</text>
<rect x="180" y="30" width="141.35" height="22" fill="#4c78a8" rx="3"/>
<text x="329.35" y="46" class="value">72.53</text>
<text x="10" y="78" class="label">store.akamai.steamstatic.com</text>
<rect x="180" y="62" width="159.37" height="22" fill="#4c78a8" rx="3"/>
<text x="347.37" y="78" class="value">81.78</text>
<text x="10" y="110" class="label">rockstargames.com</text>
<rect x="180" y="94" width="243.54" height="22" fill="#4c78a8" rx="3"/>
<text x="431.53999999999996" y="110" class="value">124.97</text>
<text x="10" y="142" class="label">ubisoft.com</text>
<rect x="180" y="126" width="255.19" height="22" fill="#4c78a8" rx="3"/>
<text x="443.19" y="142" class="value">130.95</text>
<text x="10" y="174" class="label">steamcdn-a.akamaihd.net</text>
<rect x="180" y="158" width="290.51" height="22" fill="#4c78a8" rx="3"/>
<text x="478.51" y="174" class="value">149.07</text>
<text x="10" y="206" class="label">ea.com</text>
<rect x="180" y="190" width="290.74" height="22" fill="#4c78a8" rx="3"/>
<text x="478.74" y="206" class="value">149.19</text>
<text x="10" y="238" class="label">community.akamai.steamstatic.com</text>
<rect x="180" y="222" width="299.1" height="22" fill="#4c78a8" rx="3"/>
<text x="487.1" y="238" class="value">153.48</text>
<text x="10" y="270" class="label">origin.com</text>
<rect x="180" y="254" width="352.32" height="22" fill="#4c78a8" rx="3"/>
<text x="540.3199999999999" y="270" class="value">180.79</text>
<text x="10" y="302" class="label">cdn.cloudflare.steamstatic.com</text>
<rect x="180" y="286" width="439.98" height="22" fill="#4c78a8" rx="3"/>
<text x="627.98" y="302" class="value">225.77</text>
<text x="10" y="334" class="label">ubi.com</text>
<rect x="180" y="318" width="452.55" height="22" fill="#4c78a8" rx="3"/>
<text x="640.55" y="334" class="value">232.22</text>
<text x="10" y="366" class="label">easyanticheat.net</text>
<rect x="180" y="350" width="492.54" height="22" fill="#4c78a8" rx="3"/>
<text x="680.54" y="366" class="value">252.74</text>
<text x="10" y="398" class="label">cdn.akamai.steamstatic.com</text>
<rect x="180" y="382" width="492.91" height="22" fill="#4c78a8" rx="3"/>
<text x="680.9100000000001" y="398" class="value">252.93</text>
<text x="10" y="430" class="label">api.steampowered.com</text>
<rect x="180" y="414" width="559.5" height="22" fill="#4c78a8" rx="3"/>
<text x="747.5" y="430" class="value">287.10</text>
<text x="10" y="462" class="label">steamcommunity.com</text>
<rect x="180" y="446" width="568.03" height="22" fill="#4c78a8" rx="3"/>
<text x="756.03" y="462" class="value">291.48</text>
<text x="10" y="494" class="label">launcher-public-service-prod06.ol.epicgames.com</text>
<rect x="180" y="478" width="580.0" height="22" fill="#4c78a8" rx="3"/>
<text x="768.0" y="494" class="value">297.62</text>
<line x1="180" y1="30" x2="180" y2="520" stroke="#ccc"/>
<line x1="180" y1="520" x2="760" y2="520" stroke="#ccc"/>
</svg>