<svg xmlns="http://www.w3.org/2000/svg" width="800" height="540">
<style> .label{font-family:DejaVu Sans,Verdana,Geneva,sans-serif;font-size:12px;fill:#333} .value{font-family:DejaVu Sans,Verdana,Geneva,sans-serif;font-size:12px;fill:#555} </style>
<text x="10" y="20" class="label">延迟柱状图（越低越好，Top 15），单位 ms</text>
<text x="10" y="46" class="label">rockstargames.com</text>
<rect x="180" y="30" width="189.57" height="22" fill="#4c78a8" rx="3"/>
<text x="377.57" y="46" class="value">62.02</text>
<text x="10" y="78" class="label">eaassets-a.akamaihd.net</text>
<rect x="180" y="62" width="192.94" height="22" fill="#4c78a8" rx="3"/>
<text x="380.94" y="78" class="value">63.12</text>
<text x="10" y="110" class="label">ea.com</text>
<rect x="180" y="94" width="250.37" height="22" fill="#4c78a8" rx="3"/>
<text x="438.37" y="110" class="value">81.91</text>
<text x="10" y="142" class="label">cdn.akamai.steamstatic.com</text>
<rect x="180" y="126" width="267.76" height="22" fill="#4c78a8" rx="3"/>
<text x="455.76" y="142" class="value">87.60</text>
<text x="10" y="174" class="label">ubisoft.com</text>
<rect x="180" y="158" width="335.5" height="22" fill="#4c78a8" rx="3"/>
<text x="523.5" y="174" class="value">109.76</text>
<text x="10" y="206" class="label">store.akamai.steamstatic.com</text>
<rect x="180" y="190" width="351.55" height="22" fill="#4c78a8" rx="3"/>
<text x="539.55" y="206" class="value">115.01</text>
<text x="10" y="238" class="label">battle.net</text>
<rect x="180" y="222" width="369.4" height="22" fill="#4c78a8" rx="3"/>
<text x="557.4" y="238" class="value">120.85</text>
<text x="10" y="270" class="label">origin.com</text>
<rect x="180" y="254" width="375.2" height="22" fill="#4c78a8" rx="3"/>
<text x="563.2" y="270" class="value">122.75</text>
<text x="10" y="302" class="label">blizzard.com</text>
<rect x="180" y="286" width="378.87" height="22" fill="#4c78a8" rx="3"/>
<text x="566.87" y="302" class="value">123.95</text>
<text x="10" y="334" class="label">steamcdn-a.akamaihd.net</text>
<rect x="180" y="318" width="389.82" height="22" fill="#4c78a8" rx="3"/>
<text x="577.8199999999999" y="334" class="value">127.53</text>
<text x="10" y="366" class="label">ubi.com</text>
<rect x="180" y="350" width="414.54" height="22" fill="#4c78a8" rx="3"/>
<text x="602.54" y="366" class="value">135.62</text>
<text x="10" y="398" class="label">easyanticheat.net</text>
<rect x="180" y="382" width="415.58" height="22" fill="#4c78a8" rx="3"/>
<text x="603.5799999999999" y="398" class="value">135.96</text>
<text x="10" y="430" class="label">socialclub.rockstargames.com</text>
<rect x="180" y="414" width="428.02" height="22" fill="#4c78a8" rx="3"/>
<text x="616.02" y="430" class="value">140.03</text>
<text x="10" y="462" class="label">static3.cdn.ubi.com</text>
<rect x="180" y="446" width="542.56" height="22" fill="#4c78a8" rx="3"/>
<text x="730.56" y="462" class="value">177.50</text>
<text x="10" y="494" class="label">community.akamai.steamstatic.com</text>
<rect x="180" y="478" width="580.0" height="22" fill="#4c78a8" rx="3"/>
<text x="768.0" y="494" class="value">189.75</text>
<line x1="180" y1="30" x2="180" y2="520" stroke="#ccc"/>
<line x1="180" y1="520" x2="760" y2="520" stroke="#ccc"/>
</svg>