<svg xmlns="http://www.w3.org/2000/svg" width="800" height="540">
<style> .label{font-family:DejaVu Sans,Verdana,Geneva,sans-serif;font-size:12px;fill:#333} .value{font-family:DejaVu Sans,Verdana,Geneva,sans-serif;font-size:12px;fill:#555} </style>
<text x="10" y="20" class="label">延迟柱状图（越低越好，Top 15），单位 ms</text>
<text x="10" y="46" class="label">eaassets-a.akamaihd.net</text>
<rect x="180" y="30" width="73.72" height="22" fill="#4c78a8" rx="3"/>
<text x="261.72" y="46" class="value">35.12</text>
<text x="10" y="78" class="label">rockstargames.com</text>
<rect x="180" y="62" width="77.96" height="22" fill="#4c78a8" rx="3"/>
<text x="265.96" y="78" class="value">37.14</text>
<text x="10" y="110" class="label">community.akamai.steamstatic.com</text>
<rect x="180" y="94" width="180.44" height="22" fill="#4c78a8" rx="3"/>
<text x="368.44" y="110" class="value">85.96</text>
<text x="10" y="142" class="label">ea.com</text>
<rect x="180" y="126" width="183.31" height="22" fill="#4c78a8" rx="3"/>
<text x="371.31" y="142" class="value">87.33</text>
<text x="10" y="174" class="label">api.steampowered.com</text>
<rect x="180" y="158" width="251.24" height="22" fill="#4c78a8" rx="3"/>
<text x="439.24" y="174" class="value">119.69</text>
<text x="10" y="206" class="label">cdn.cloudflare.steamstatic.com</text>
<rect x="180" y="190" width="351.77" height="22" fill="#4c78a8" rx="3"/>
<text x="539.77" y="206" class="value">167.58</text>
<text x="10" y="238" class="label">easyanticheat.net</text>
<rect x="180" y="222" width="356.38" height="22" fill="#4c78a8" rx="3"/>
<text x="544.38" y="238" class="value">169.78</text>
<text x="10" y="270" class="label">origin.com</text>
<rect x="180" y="254" width="390.75" height="22" fill="#4c78a8" rx="3"/>
<text x="578.75" y="270" class="value">186.15</text>
<text x="10" y="302" class="label">steamcdn-a.akamaihd.net</text>
<rect x="180" y="286" width="391.73" height="22" fill="#4c78a8" rx="3"/>
<text x="579.73" y="302" class="value">186.62</text>
<text x="10" y="334" class="label">cdn.akamai.steamstatic.com</text>
<rect x="180" y="318" width="465.43" height="22" fill="#4c78a8" rx="3"/>
<text x="653.4300000000001" y="334" class="value">221.73</text>
<text x="10" y="366" class="label">store.akamai.steamstatic.com</text>
<rect x="180" y="350" width="468.12" height="22" fill="#4c78a8" rx="3"/>
<text x="656.12" y="366" class="value">223.01</text>
<text x="10" y="398" class="label">steam-chat.com</text>
<rect x="180" y="382" width="502.44" height="22" fill="#4c78a8" rx="3"/>
<text x="690.44" y="398" class="value">239.36</text>
<text x="10" y="430" class="label">www.steamcommunity.com</text>
<rect x="180" y="414" width="536.97" height="22" fill="#4c78a8" rx="3"/>
<text x="724.97" y="430" class="value">255.81</text>
<text x="10" y="462" class="label">ubisoft.com</text>
<rect x="180" y="446" width="542.01" height="22" fill="#4c78a8" rx="3"/>
<text x="730.01" y="462" class="value">258.21</text>
<text x="10" y="494" class="label">launcher-public-service-prod06.ol.epicgames.com</text>
<rect x="180" y="478" width="580.0" height="22" fill="#4c78a8" rx="3"/>
<text x="768.0" y="494" class="value">276.31</text>
<line x1="180" y1="30" x2="180" y2="520" stroke="#ccc"/>
<line x1="180" y1="520" x2="760" y2="520" stroke="#ccc"/>
</svg>