<svg xmlns="http://www.w3.org/2000/svg" width="800" height="540">
<style> .label{font-family:DejaVu Sans,Verdana,Geneva,sans-serif;font-size:12px;fill:#333} .value{font-family:DejaVu Sans,Verdana,Geneva,sans-serif;font-size:12px;fill:#555} </style>
<text x="10" y="20" class="label">延迟柱状图（越低越好，Top 15），单位 ms</text>
<text x="10" y="46" class="label">eaassets-a.akamaihd.net</text>
<rect x="180" y="30" width="172.5" height="22" fill="#4c78a8" rx="3"/>
<text x="360.5" y="46" class="value">64.57</text>
<text x="10" y="78" class="label">rockstargames.com</text>
<rect x="180" y="62" width="192.05" height="22" fill="#4c78a8" rx="3"/>
<text x="380.05" y="78" class="value">71.89</text>
<text x="10" y="110" class="label">blizzard.com</text>
<rect x="180" y="94" width="226.75" height="22" fill="#4c78a8" rx="3"/>
<text x="414.75" y="110" class="value">84.88</text>
<text x="10" y="142" class="label">socialclub.rockstargames.com</text>
<rect x="180" y="126" width="258.14" height="22" fill="#4c78a8" rx="3"/>
<text x="446.14" y="142" class="value">96.63</text>
<text x="10" y="174" class="label">battle.net</text>
<rect x="180" y="158" width="267.04" height="22" fill="#4c78a8" rx="3"/>
<text x="455.04" y="174" class="value">99.96</text>
<text x="10" y="206" class="label">ubisoft.com</text>
<rect x="180" y="190" width="295.38" height="22" fill="#4c78a8" rx="3"/>
<text x="483.38" y="206" class="value">110.57</text>
<text x="10" y="238" class="label">unrealengine.com</text>
<rect x="180" y="222" width="418.06" height="22" fill="#4c78a8" rx="3"/>
<text x="606.06" y="238" class="value">156.49</text>
<text x="10" y="270" class="label">ubi.com</text>
<rect x="180" y="254" width="434.78" height="22" fill="#4c78a8" rx="3"/>
<text x="622.78" y="270" class="value">162.75</text>
<text x="10" y="302" class="label">ea.com</text>
<rect x="180" y="286" width="473.38" height="22" fill="#4c78a8" rx="3"/>
<text x="661.38" y="302" class="value">177.20</text>
<text x="10" y="334" class="label">origin.com</text>
<rect x="180" y="318" width="479.79" height="22" fill="#4c78a8" rx="3"/>
<text x="667.79" y="334" class="value">179.60</text>
<text x="10" y="366" class="label">epicgames.com</text>
<rect x="180" y="350" width="501.78" height="22" fill="#4c78a8" rx="3"/>
<text x="689.78" y="366" class="value">187.83</text>
<text x="10" y="398" class="label">static3.cdn.ubi.com</text>
<rect x="180" y="382" width="515.7" height="22" fill="#4c78a8" rx="3"/>
<text x="703.7" y="398" class="value">193.04</text>
<text x="10" y="430" class="label">fortnite.com</text>
<rect x="180" y="414" width="560.79" height="22" fill="#4c78a8" rx="3"/>
<text x="748.79" y="430" class="value">209.92</text>
<text x="10" y="462" class="label">launcher-public-service-prod06.ol.epicgames.com</text>
<rect x="180" y="446" width="565.31" height="22" fill="#4c78a8" rx="3"/>
<text x="753.31" y="462" class="value">211.61</text>
<text x="10" y="494" class="label">store.akamai.steamstatic.com</text>
<rect x="180" y="478" width="580.0" height="22" fill="#4c78a8" rx="3"/>
<text x="768.0" y="494" class="value">217.11</text>
<line x1="180" y1="30" x2="180" y2="520" stroke="#ccc"/>
<line x1="180" y1="520" x2="760" y2="520" stroke="#ccc"/>
</svg>