<svg xmlns="http://www.w3.org/2000/svg" width="800" height="540">
<style> .label{font-family:DejaVu Sans,Verdana,Geneva,sans-serif;font-size:12px;fill:#333} .value{font-family:DejaVu Sans,Verdana,Geneva,sans-serif;font-size:12px;fill:#555} </style>
<text x="10" y="20" class="label">延迟柱状图（越低越好，Top 15），单位 ms</text>
<text x="10" y="46" class="label">rockstargames.com</text>
<rect x="180" y="30" width="105.22" height="22" fill="#4c78a8" rx="3"/>
<text x="293.22" y="46" class="value">38.34</text>
<text x="10" y="78" class="label">socialclub.rockstargames.com</text>
<rect x="180" y="62" width="212.31" height="22" fill="#4c78a8" rx="3"/>
<text x="400.31" y="78" class="value">77.36</text>
<text x="10" y="110" class="label">blizzard.com</text>
<rect x="180" y="94" width="229.62" height="22" fill="#4c78a8" rx="3"/>
<text x="417.62" y="110" class="value">83.67</text>
<text x="10" y="142" class="label">battle.net</text>
<rect x="180" y="126" width="240.9" height="22" fill="#4c78a8" rx="3"/>
<text x="428.9" y="142" class="value">87.78</text>
<text x="10" y="174" class="label">eaassets-a.akamaihd.net</text>
<rect x="180" y="158" width="309.38" height="22" fill="#4c78a8" rx="3"/>
<text x="497.38" y="174" class="value">112.73</text>
<text x="10" y="206" class="label">ea.com</text>
<rect x="180" y="190" width="313.93" height="22" fill="#4c78a8" rx="3"/>
<text x="501.93" y="206" class="value">114.39</text>
<text x="10" y="238" class="label">ubi.com</text>
<rect x="180" y="222" width="355.26" height="22" fill="#4c78a8" rx="3"/>
<text x="543.26" y="238" class="value">129.45</text>
<text x="10" y="270" class="label">epicgames.com</text>
<rect x="180" y="254" width="438.2" height="22" fill="#4c78a8" rx="3"/>
<text x="626.2" y="270" class="value">159.67</text>
<text x="10" y="302" class="label">ubisoft.com</text>
<rect x="180" y="286" width="444.23" height="22" fill="#4c78a8" rx="3"/>
<text x="632.23" y="302" class="value">161.87</text>
<text x="10" y="334" class="label">cdn.cloudflare.steamstatic.com</text>
<rect x="180" y="318" width="466.9" height="22" fill="#4c78a8" rx="3"/>
<text x="654.9" y="334" class="value">170.13</text>
<text x="10" y="366" class="label">cdn.akamai.steamstatic.com</text>
<rect x="180" y="350" width="516.85" height="22" fill="#4c78a8" rx="3"/>
<text x="704.85" y="366" class="value">188.33</text>
<text x="10" y="398" class="label">fortnite.com</text>
<rect x="180" y="382" width="532.6" height="22" fill="#4c78a8" rx="3"/>
<text x="720.6" y="398" class="value">194.07</text>
<text x="10" y="430" class="label">origin.com</text>
<rect x="180" y="414" width="552.31" height="22" fill="#4c78a8" rx="3"/>
<text x="740.31" y="430" class="value">201.25</text>
<text x="10" y="462" class="label">unrealengine.com</text>
<rect x="180" y="446" width="555.96" height="22" fill="#4c78a8" rx="3"/>
<text x="743.96" y="462" class="value">202.58</text>
<text x="10" y="494" class="label">steamcdn-a.akamaihd.net</text>
<rect x="180" y="478" width="580.0" height="22" fill="#4c78a8" rx="3"/>
<text x="768.0" y="494" class="value">211.34</text>
<line x1="180" y1="30" x2="180" y2="520" stroke="#ccc"/>
<line x1="180" y1="520" x2="760" y2="520" stroke="#ccc"/>
</svg>