<svg xmlns="http://www.w3.org/2000/svg" width="800" height="540">
<style> .label{font-family:DejaVu Sans,Verdana,Geneva,sans-serif;font-size:12px;fill:#333} .value{font-family:DejaVu Sans,Verdana,Geneva,sans-serif;font-size:12px;fill:#555} </style>
<text x="10" y="20" class="label">延迟柱状图（越低越好，Top 15），单位 ms</text>
<text x="10" y="46" class="label">rockstargames.com</text>
<rect x="180" y="30" width="101.31" height="22" fill="#4c78a8" rx="3"/>
<text x="289.31" y="46" class="value">49.95</text>
<text x="10" y="78" class="label">ea.com</text>
<rect x="180" y="62" width="136.18" height="22" fill="#4c78a8" rx="3"/>
<text x="324.18" y="78" class="value">67.14</text>
<text x="10" y="110" class="label">eaassets-a.akamaihd.net</text>
<rect x="180" y="94" width="230.63" height="22" fill="#4c78a8" rx="3"/>
<text x="418.63" y="110" class="value">113.71</text>
<text x="10" y="142" class="label">ubisoft.com</text>
<rect x="180" y="126" width="242.25" height="22" fill="#4c78a8" rx="3"/>
<text x="430.25" y="142" class="value">119.44</text>
<text x="10" y="174" class="label">store.akamai.steamstatic.com</text>
<rect x="180" y="158" width="295.78" height="22" fill="#4c78a8" rx="3"/>
<text x="483.78" y="174" class="value">145.83</text>
<text x="10" y="206" class="label">origin.com</text>
<rect x="180" y="190" width="297.12" height="22" fill="#4c78a8" rx="3"/>
<text x="485.12" y="206" class="value">146.49</text>
<text x="10" y="238" class="label">cdn.akamai.steamstatic.com</text>
<rect x="180" y="222" width="307.22" height="22" fill="#4c78a8" rx="3"/>
<text x="495.22" y="238" class="value">151.47</text>
<text x="10" y="270" class="label">steamcdn-a.akamaihd.net</text>
<rect x="180" y="254" width="308.5" height="22" fill="#4c78a8" rx="3"/>
<text x="496.5" y="270" class="value">152.10</text>
<text x="10" y="302" class="label">cdn.cloudflare.steamstatic.com</text>
<rect x="180" y="286" width="333.0" height="22" fill="#4c78a8" rx="3"/>
<text x="521.0" y="302" class="value">164.18</text>
<text x="10" y="334" class="label">community.akamai.steamstatic.com</text>
<rect x="180" y="318" width="338.58" height="22" fill="#4c78a8" rx="3"/>
<text x="526.5799999999999" y="334" class="value">166.93</text>
<text x="10" y="366" class="label">easyanticheat.net</text>
<rect x="180" y="350" width="426.36" height="22" fill="#4c78a8" rx="3"/>
<text x="614.36" y="366" class="value">210.21</text>
<text x="10" y="398" class="label">steam-chat.com</text>
<rect x="180" y="382" width="438.96" height="22" fill="#4c78a8" rx="3"/>
<text x="626.96" y="398" class="value">216.42</text>
<text x="10" y="430" class="label">launcher-public-service-prod06.ol.epicgames.com</text>
<rect x="180" y="414" width="444.76" height="22" fill="#4c78a8" rx="3"/>
<text x="632.76" y="430" class="value">219.28</text>
<text x="10" y="462" class="label">api.steampowered.com</text>
<rect x="180" y="446" width="536.68" height="22" fill="#4c78a8" rx="3"/>
<text x="724.68" y="462" class="value">264.60</text>
<text x="10" y="494" class="label">www.steamcommunity.com</text>
<rect x="180" y="478" width="580.0" height="22" fill="#4c78a8" rx="3"/>
<text x="768.0" y="494" class="value">285.96</text>
<line x1="180" y1="30" x2="180" y2="520" stroke="#ccc"/>
<line x1="180" y1="520" x2="760" y2="520" stroke="#ccc"/>
</svg>