<svg xmlns="http://www.w3.org/2000/svg" width="800" height="540">
<style> .label{font-family:DejaVu Sans,Verdana,Geneva,sans-serif;font-size:12px;fill:#333} .value{font-family:DejaVu Sans,Verdana,Geneva,sans-serif;font-size:12px;fill:#555} </style>
<text x="10" y="20" class="label">延迟柱状图（越低越好，Top 15），单位 ms</text>
<text x="10" y="46" class="label">rockstargames.com</text>
<rect x="180" y="30" width="168.93" height="22" fill="#4c78a8" rx="3"/>
<text x="356.93" y="46" class="value">58.67</text>
<text x="10" y="78" class="label">eaassets-a.akamaihd.net</text>
<rect x="180" y="62" width="171.63" height="22" fill="#4c78a8" rx="3"/>
<text x="359.63" y="78" class="value">59.61</text>
<text x="10" y="110" class="label">socialclub.rockstargames.com</text>
<rect x="180" y="94" width="183.78" height="22" fill="#4c78a8" rx="3"/>
<text x="371.78" y="110" class="value">63.83</text>
<text x="10" y="142" class="label">unrealengine.com</text>
<rect x="180" y="126" width="259.48" height="22" fill="#4c78a8" rx="3"/>
<text x="447.48" y="142" class="value">90.12</text>
<text x="10" y="174" class="label">battle.net</text>
<rect x="180" y="158" width="266.19" height="22" fill="#4c78a8" rx="3"/>
<text x="454.19" y="174" class="value">92.45</text>
<text x="10" y="206" class="label">blizzard.com</text>
<rect x="180" y="190" width="290.81" height="22" fill="#4c78a8" rx="3"/>
<text x="478.81" y="206" class="value">101.00</text>
<text x="10" y="238" class="label">ea.com</text>
<rect x="180" y="222" width="322.77" height="22" fill="#4c78a8" rx="3"/>
<text x="510.77" y="238" class="value">112.10</text>
<text x="10" y="270" class="label">ubisoft.com</text>
<rect x="180" y="254" width="361.67" height="22" fill="#4c78a8" rx="3"/>
<text x="549.6700000000001" y="270" class="value">125.61</text>
<text x="10" y="302" class="label">ubi.com</text>
<rect x="180" y="286" width="367.11" height="22" fill="#4c78a8" rx="3"/>
<text x="555.11" y="302" class="value">127.50</text>
<text x="10" y="334" class="label">fortnite.com</text>
<rect x="180" y="318" width="378.77" height="22" fill="#4c78a8" rx="3"/>
<text x="566.77" y="334" class="value">131.55</text>
<text x="10" y="366" class="label">cdn.akamai.steamstatic.com</text>
<rect x="180" y="350" width="392.5" height="22" fill="#4c78a8" rx="3"/>
<text x="580.5" y="366" class="value">136.32</text>
<text x="10" y="398" class="label">static3.cdn.ubi.com</text>
<rect x="180" y="382" width="430.88" height="22" fill="#4c78a8" rx="3"/>
<text x="618.88" y="398" class="value">149.65</text>
<text x="10" y="430" class="label">steamcdn-a.akamaihd.net</text>
<rect x="180" y="414" width="537.99" height="22" fill="#4c78a8" rx="3"/>
<text x="725.99" y="430" class="value">186.85</text>
<text x="10" y="462" class="label">epicgames.com</text>
<rect x="180" y="446" width="560.45" height="22" fill="#4c78a8" rx="3"/>
<text x="748.45" y="462" class="value">194.65</text>
<text x="10" y="494" class="label">origin.com</text>
<rect x="180" y="478" width="580.0" height="22" fill="#4c78a8" rx="3"/>
<text x="768.0" y="494" class="value">201.44</text>
<line x1="180" y1="30" x2="180" y2="520" stroke="#ccc"/>
<line x1="180" y1="520" x2="760" y2="520" stroke="#ccc"/>
</svg>