<svg xmlns="http://www.w3.org/2000/svg" width="800" height="540">
<style> .label{font-family:DejaVu Sans,Verdana,Geneva,sans-serif;font-size:12px;fill:#333} .value{font-family:DejaVu Sans,Verdana,Geneva,sans-serif;font-size:12px;fill:#555} </style>
<text x="10" y="20" class="label">延迟柱状图（越低越好，Top 15），单位 ms</text>
<text x="10" y="46" class="label">rockstargames.com</text>
<rect x="180" y="30" width="182.95" height="22" fill="#4c78a8" rx="3"/>
<text x="370.95" y="46" class="value">66.82</text>
<text x="10" y="78" class="label">battle.net</text>
<rect x="180" y="62" width="249.31" height="22" fill="#4c78a8" rx="3"/>
<text x="437.31" y="78" class="value">91.06</text>
<text x="10" y="110" class="label">blizzard.com</text>
<rect x="180" y="94" width="278.91" height="22" fill="#4c78a8" rx="3"/>
<text x="466.91" y="110" class="value">101.87</text>
<text x="10" y="142" class="label">ea.com</text>
<rect x="180" y="126" width="281.35" height="22" fill="#4c78a8" rx="3"/>
<text x="469.35" y="142" class="value">102.76</text>
<text x="10" y="174" class="label">socialclub.rockstargames.com</text>
<rect x="180" y="158" width="304.26" height="22" fill="#4c78a8" rx="3"/>
<text x="492.26" y="174" class="value">111.13</text>
<text x="10" y="206" class="label">community.akamai.steamstatic.com</text>
<rect x="180" y="190" width="333.75" height="22" fill="#4c78a8" rx="3"/>
<text x="521.75" y="206" class="value">121.90</text>
<text x="10" y="238" class="label">ubi.com</text>
<rect x="180" y="222" width="377.12" height="22" fill="#4c78a8" rx="3"/>
<text x="565.12" y="238" class="value">137.74</text>
<text x="10" y="270" class="label">fortnite.com</text>
<rect x="180" y="254" width="420.16" height="22" fill="#4c78a8" rx="3"/>
<text x="608.1600000000001" y="270" class="value">153.46</text>
<text x="10" y="302" class="label">unrealengine.com</text>
<rect x="180" y="286" width="458.93" height="22" fill="#4c78a8" rx="3"/>
<text x="646.9300000000001" y="302" class="value">167.62</text>
<text x="10" y="334" class="label">epicgames.com</text>
<rect x="180" y="318" width="461.34" height="22" fill="#4c78a8" rx="3"/>
<text x="649.3399999999999" y="334" class="value">168.50</text>
<text x="10" y="366" class="label">cdn.akamai.steamstatic.com</text>
<rect x="180" y="350" width="475.41" height="22" fill="#4c78a8" rx="3"/>
<text x="663.4100000000001" y="366" class="value">173.64</text>
<text x="10" y="398" class="label">origin.com</text>
<rect x="180" y="382" width="481.74" height="22" fill="#4c78a8" rx="3"/>
<text x="669.74" y="398" class="value">175.95</text>
<text x="10" y="430" class="label">store.akamai.steamstatic.com</text>
<rect x="180" y="414" width="563.16" height="22" fill="#4c78a8" rx="3"/>
<text x="751.16" y="430" class="value">205.69</text>
<text x="10" y="462" class="label">cdn.cloudflare.steamstatic.com</text>
<rect x="180" y="446" width="577.45" height="22" fill="#4c78a8" rx="3"/>
<text x="765.45" y="462" class="value">210.91</text>
<text x="10" y="494" class="label">ubisoft.com</text>
<rect x="180" y="478" width="580.0" height="22" fill="#4c78a8" rx="3"/>
<text x="768.0" y="494" class="value">211.84</text>
<line x1="180" y1="30" x2="180" y2="520" stroke="#ccc"/>
<line x1="180" y1="520" x2="760" y2="520" stroke="#ccc"/>
</svg>