<svg xmlns="http://www.w3.org/2000/svg" width="800" height="540">
<style> .label{font-family:DejaVu Sans,Verdana,Geneva,sans-serif;font-size:12px;fill:#333} .value{font-family:DejaVu Sans,Verdana,Geneva,sans-serif;font-size:12px;fill:#555} </style>
<text x="10" y="20" class="label">延迟柱状图（越低越好，Top 15），单位 ms</text>
<text x="10" y="46" class="label">rockstargames.com</text>
<rect x="180" y="30" width="108.84" height="22" fill="#4c78a8" rx="3"/>
<text x="296.84000000000003" y="46" class="value">53.79</text>
<text x="10" y="78" class="label">ubisoft.com</text>
<rect x="180" y="62" width="151.48" height="22" fill="#4c78a8" rx="3"/>
<text x="339.48" y="78" class="value">74.86</text>
<text x="10" y="110" class="label">store.akamai.steamstatic.com</text>
<rect x="180" y="94" width="176.95" height="22" fill="#4c78a8" rx="3"/>
<text x="364.95" y="110" class="value">87.45</text>
<text x="10" y="142" class="label">eaassets-a.akamaihd.net</text>
<rect x="180" y="126" width="184.8" height="22" fill="#4c78a8" rx="3"/>
<text x="372.8" y="142" class="value">91.33</text>
<text x="10" y="174" class="label">ea.com</text>
<rect x="180" y="158" width="200.99" height="22" fill="#4c78a8" rx="3"/>
<text x="388.99" y="174" class="value">99.33</text>
<text x="10" y="206" class="label">community.akamai.steamstatic.com</text>
<rect x="180" y="190" width="208.92" height="22" fill="#4c78a8" rx="3"/>
<text x="396.91999999999996" y="206" class="value">103.25</text>
<text x="10" y="238" class="label">cdn.akamai.steamstatic.com</text>
<rect x="180" y="222" width="312.46" height="22" fill="#4c78a8" rx="3"/>
<text x="500.46" y="238" class="value">154.42</text>
<text x="10" y="270" class="label">steamcdn-a.akamaihd.net</text>
<rect x="180" y="254" width="359.63" height="22" fill="#4c78a8" rx="3"/>
<text x="547.63" y="270" class="value">177.73</text>
<text x="10" y="302" class="label">origin.com</text>
<rect x="180" y="286" width="373.69" height="22" fill="#4c78a8" rx="3"/>
<text x="561.69" y="302" class="value">184.68</text>
<text x="10" y="334" class="label">easyanticheat.net</text>
<rect x="180" y="318" width="418.0" height="22" fill="#4c78a8" rx="3"/>
<text x="606.0" y="334" class="value">206.58</text>
<text x="10" y="366" class="label">steam-chat.com</text>
<rect x="180" y="350" width="421.26" height="22" fill="#4c78a8" rx="3"/>
<text x="609.26" y="366" class="value">208.19</text>
<text x="10" y="398" class="label">www.steamcommunity.com</text>
<rect x="180" y="382" width="422.27" height="22" fill="#4c78a8" rx="3"/>
<text x="610.27" y="398" class="value">208.69</text>
<text x="10" y="430" class="label">api.steampowered.com</text>
<rect x="180" y="414" width="457.89" height="22" fill="#4c78a8" rx="3"/>
<text x="645.89" y="430" class="value">226.29</text>
<text x="10" y="462" class="label">launcher-public-service-prod06.ol.epicgames.com</text>
<rect x="180" y="446" width="564.4" height="22" fill="#4c78a8" rx="3"/>
<text x="752.4" y="462" class="value">278.93</text>
<text x="10" y="494" class="label">battle.net</text>
<rect x="180" y="478" width="580.0" height="22" fill="#4c78a8" rx="3"/>
<text x="768.0" y="494" class="value">286.64</text>
<line x1="180" y1="30" x2="180" y2="520" stroke="#ccc"/>
<line x1="180" y1="520" x2="760" y2="520" stroke="#ccc"/>
</svg>