<svg xmlns="http://www.w3.org/2000/svg" width="800" height="540">
<style> .label{font-family:DejaVu Sans,Verdana,Geneva,sans-serif;font-size:12px;fill:#333} .value{font-family:DejaVu Sans,Verdana,Geneva,sans-serif;font-size:12px;fill:#555} </style>
<text x="10" y="20" class="label">延迟柱状图（越低越好，Top 15），单位 ms</text>
<text x="10" y="46" class="label">rockstargames.com</text>
<rect x="180" y="30" width="126.29" height="22" fill="#4c78a8" rx="3"/>
<text x="314.29" y="46" class="value">63.51</text>
<text x="10" y="78" class="label">store.akamai.steamstatic.com</text>
<rect x="180" y="62" width="247.53" height="22" fill="#4c78a8" rx="3"/>
<text x="435.53" y="78" class="value">124.48</text>
<text x="10" y="110" class="label">ea.com</text>
<rect x="180" y="94" width="256.16" height="22" fill="#4c78a8" rx="3"/>
<text x="444.16" y="110" class="value">128.82</text>
<text x="10" y="142" class="label">eaassets-a.akamaihd.net</text>
<rect x="180" y="126" width="316.92" height="22" fill="#4c78a8" rx="3"/>
<text x="504.92" y="142" class="value">159.38</text>
<text x="10" y="174" class="label">origin.com</text>
<rect x="180" y="158" width="328.18" height="22" fill="#4c78a8" rx="3"/>
<text x="516.1800000000001" y="174" class="value">165.04</text>
<text x="10" y="206" class="label">easyanticheat.net</text>
<rect x="180" y="190" width="388.97" height="22" fill="#4c78a8" rx="3"/>
<text x="576.97" y="206" class="value">195.61</text>
<text x="10" y="238" class="label">cdn.cloudflare.steamstatic.com</text>
<rect x="180" y="222" width="395.23" height="22" fill="#4c78a8" rx="3"/>
<text x="583.23" y="238" class="value">198.76</text>
<text x="10" y="270" class="label">ubisoft.com</text>
<rect x="180" y="254" width="420.66" height="22" fill="#4c78a8" rx="3"/>
<text x="608.6600000000001" y="270" class="value">211.55</text>
<text x="10" y="302" class="label">cdn.akamai.steamstatic.com</text>
<rect x="180" y="286" width="421.26" height="22" fill="#4c78a8" rx="3"/>
<text x="609.26" y="302" class="value">211.85</text>
<text x="10" y="334" class="label">steamcdn-a.akamaihd.net</text>
<rect x="180" y="318" width="440.47" height="22" fill="#4c78a8" rx="3"/>
<text x="628.47" y="334" class="value">221.51</text>
<text x="10" y="366" class="label">community.akamai.steamstatic.com</text>
<rect x="180" y="350" width="457.43" height="22" fill="#4c78a8" rx="3"/>
<text x="645.4300000000001" y="366" class="value">230.04</text>
<text x="10" y="398" class="label">ubi.com</text>
<rect x="180" y="382" width="476.82" height="22" fill="#4c78a8" rx="3"/>
<text x="664.8199999999999" y="398" class="value">239.79</text>
<text x="10" y="430" class="label">steam-chat.com</text>
<rect x="180" y="414" width="510.78" height="22" fill="#4c78a8" rx="3"/>
<text x="698.78" y="430" class="value">256.87</text>
<text x="10" y="462" class="label">www.steamcommunity.com</text>
<rect x="180" y="446" width="531.7" height="22" fill="#4c78a8" rx="3"/>
<text x="719.7" y="462" class="value">267.39</text>
<text x="10" y="494" class="label">api.steampowered.com</text>
<rect x="180" y="478" width="580.0" height="22" fill="#4c78a8" rx="3"/>
<text x="768.0" y="494" class="value">291.68</text>
<line x1="180" y1="30" x2="180" y2="520" stroke="#ccc"/>
<line x1="180" y1="520" x2="760" y2="520" stroke="#ccc"/>
</svg>