<svg xmlns="http://www.w3.org/2000/svg" width="800" height="540">
<style> .label{font-family:DejaVu Sans,Verdana,Geneva,sans-serif;font-size:12px;fill:#333} .value{font-family:DejaVu Sans,Verdana,Geneva,sans-serif;font-size:12px;fill:#555} </style>
<text x="10" y="20" class="label">延迟柱状图（越低越好，Top 15），单位 ms</text>
<text x="10" y="46" class="label">rockstargames.com</text>
<rect x="180" y="30" width="72.68" height="22" fill="#4c78a8" rx="3"/>
<text x="260.68" y="46" class="value">33.22</text>
<text x="10" y="78" class="label">ea.com</text>
<rect x="180" y="62" width="223.85" height="22" fill="#4c78a8" rx="3"/>
<text x="411.85" y="78" class="value">102.32</text>
<text x="10" y="110" class="label">eaassets-a.akamaihd.net</text>
<rect x="180" y="94" width="242.41" height="22" fill="#4c78a8" rx="3"/>
<text x="430.40999999999997" y="110" class="value">110.80</text>
<text x="10" y="142" class="label">community.akamai.steamstatic.com</text>
<rect x="180" y="126" width="288.96" height="22" fill="#4c78a8" rx="3"/>
<text x="476.96" y="142" class="value">132.08</text>
<text x="10" y="174" class="label">cdn.cloudflare.steamstatic.com</text>
<rect x="180" y="158" width="321.14" height="22" fill="#4c78a8" rx="3"/>
<text x="509.14" y="174" class="value">146.79</text>
<text x="10" y="206" class="label">cdn.akamai.steamstatic.com</text>
<rect x="180" y="190" width="350.44" height="22" fill="#4c78a8" rx="3"/>
<text x="538.44" y="206" class="value">160.18</text>
<text x="10" y="238" class="label">easyanticheat.net</text>
<rect x="180" y="222" width="351.82" height="22" fill="#4c78a8" rx="3"/>
<text x="539.8199999999999" y="238" class="value">160.81</text>
<text x="10" y="270" class="label">store.akamai.steamstatic.com</text>
<rect x="180" y="254" width="363.5" height="22" fill="#4c78a8" rx="3"/>
<text x="551.5" y="270" class="value">166.15</text>
<text x="10" y="302" class="label">origin.com</text>
<rect x="180" y="286" width="373.89" height="22" fill="#4c78a8" rx="3"/>
<text x="561.89" y="302" class="value">170.90</text>
<text x="10" y="334" class="label">ubisoft.com</text>
<rect x="180" y="318" width="385.84" height="22" fill="#4c78a8" rx="3"/>
<text x="573.8399999999999" y="334" class="value">176.36</text>
<text x="10" y="366" class="label">steamcdn-a.akamaihd.net</text>
<rect x="180" y="350" width="395.68" height="22" fill="#4c78a8" rx="3"/>
<text x="583.6800000000001" y="366" class="value">180.86</text>
<text x="10" y="398" class="label">api.steampowered.com</text>
<rect x="180" y="382" width="484.59" height="22" fill="#4c78a8" rx="3"/>
<text x="672.5899999999999" y="398" class="value">221.50</text>
<text x="10" y="430" class="label">www.steamcommunity.com</text>
<rect x="180" y="414" width="512.07" height="22" fill="#4c78a8" rx="3"/>
<text x="700.07" y="430" class="value">234.06</text>
<text x="10" y="462" class="label">steamcommunity.com</text>
<rect x="180" y="446" width="579.3" height="22" fill="#4c78a8" rx="3"/>
<text x="767.3" y="462" class="value">264.79</text>
<text x="10" y="494" class="label">launcher-public-service-prod06.ol.epicgames.com</text>
<rect x="180" y="478" width="580.0" height="22" fill="#4c78a8" rx="3"/>
<text x="768.0" y="494" class="value">265.11</text>
<line x1="180" y1="30" x2="180" y2="520" stroke="#ccc"/>
<line x1="180" y1="520" x2="760" y2="520" stroke="#ccc"/>
</svg>