<svg xmlns="http://www.w3.org/2000/svg" width="800" height="540">
<style> .label{font-family:DejaVu Sans,Verdana,Geneva,sans-serif;font-size:12px;fill:#333} .value{font-family:DejaVu Sans,Verdana,Geneva,sans-serif;font-size:12px;fill:#555} </style>
<text x="10" y="20" class="label">延迟柱状图（越低越好，Top 15），单位 ms</text>
<text x="10" y="46" class="label">epicgames.com</text>
<rect x="180" y="30" width="229.97" height="22" fill="#4c78a8" rx="3"/>
<text x="417.97" y="46" class="value">82.58</text>
<text x="10" y="78" class="label">rockstargames.com</text>
<rect x="180" y="62" width="243.31" height="22" fill="#4c78a8" rx="3"/>
<text x="431.31" y="78" class="value">87.37</text>
<text x="10" y="110" class="label">ubi.com</text>
<rect x="180" y="94" width="259.24" height="22" fill="#4c78a8" rx="3"/>
<text x="447.24" y="110" class="value">93.09</text>
<text x="10" y="142" class="label">socialclub.rockstargames.com</text>
<rect x="180" y="126" width="270.49" height="22" fill="#4c78a8" rx="3"/>
<text x="458.49" y="142" class="value">97.13</text>
<text x="10" y="174" class="label">ubisoft.com</text>
<rect x="180" y="158" width="287.73" height="22" fill="#4c78a8" rx="3"/>
<text x="475.73" y="174" class="value">103.32</text>
<text x="10" y="206" class="label">blizzard.com</text>
<rect x="180" y="190" width="294.55" height="22" fill="#4c78a8" rx="3"/>
<text x="482.55" y="206" class="value">105.77</text>
<text x="10" y="238" class="label">battle.net</text>
<rect x="180" y="222" width="357.8" height="22" fill="#4c78a8" rx="3"/>
<text x="545.8" y="238" class="value">128.48</text>
<text x="10" y="270" class="label">eaassets-a.akamaihd.net</text>
<rect x="180" y="254" width="363.78" height="22" fill="#4c78a8" rx="3"/>
<text x="551.78" y="270" class="value">130.63</text>
<text x="10" y="302" class="label">community.akamai.steamstatic.com</text>
<rect x="180" y="286" width="439.28" height="22" fill="#4c78a8" rx="3"/>
<text x="627.28" y="302" class="value">157.74</text>
<text x="10" y="334" class="label">unrealengine.com</text>
<rect x="180" y="318" width="449.11" height="22" fill="#4c78a8" rx="3"/>
<text x="637.11" y="334" class="value">161.27</text>
<text x="10" y="366" class="label">steamcdn-a.akamaihd.net</text>
<rect x="180" y="350" width="506.4" height="22" fill="#4c78a8" rx="3"/>
<text x="694.4" y="366" class="value">181.84</text>
<text x="10" y="398" class="label">static3.cdn.ubi.com</text>
<rect x="180" y="382" width="517.29" height="22" fill="#4c78a8" rx="3"/>
<text x="705.29" y="398" class="value">185.75</text>
<text x="10" y="430" class="label">store.akamai.steamstatic.com</text>
<rect x="180" y="414" width="541.62" height="22" fill="#4c78a8" rx="3"/>
<text x="729.62" y="430" class="value">194.49</text>
<text x="10" y="462" class="label">fortnite.com</text>
<rect x="180" y="446" width="564.27" height="22" fill="#4c78a8" rx="3"/>
<text x="752.27" y="462" class="value">202.62</text>
<text x="10" y="494" class="label">cdn.cloudflare.steamstatic.com</text>
<rect x="180" y="478" width="580.0" height="22" fill="#4c78a8" rx="3"/>
<text x="768.0" y="494" class="value">208.27</text>
<line x1="180" y1="30" x2="180" y2="520" stroke="#ccc"/>
<line x1="180" y1="520" x2="760" y2="520" stroke="#ccc"/>
</svg>