<svg xmlns="http://www.w3.org/2000/svg" width="800" height="540">
<style> .label{font-family:DejaVu Sans,Verdana,Geneva,sans-serif;font-size:12px;fill:#333} .value{font-family:DejaVu Sans,Verdana,Geneva,sans-serif;font-size:12px;fill:#555} </style>
<text x="10" y="20" class="label">延迟柱状图（越低越好，Top 15），单位 ms</text>
<text x="10" y="46" class="label">rockstargames.com</text>
<rect x="180" y="30" width="112.26" height="22" fill="#4c78a8" rx="3"/>
<text x="300.26" y="46" class="value">53.14</text>
<text x="10" y="78" class="label">steamcdn-a.akamaihd.net</text>
<rect x="180" y="62" width="143.36" height="22" fill="#4c78a8" rx="3"/>
<text x="331.36" y="78" class="value">67.86</text>
<text x="10" y="110" class="label">store.akamai.steamstatic.com</text>
<rect x="180" y="94" width="160.58" height="22" fill="#4c78a8" rx="3"/>
<text x="348.58000000000004" y="110" class="value">76.01</text>
<text x="10" y="142" class="label">eaassets-a.akamaihd.net</text>
<rect x="180" y="126" width="166.37" height="22" fill="#4c78a8" rx="3"/>
<text x="354.37" y="142" class="value">78.75</text>
<text x="10" y="174" class="label">ubisoft.com</text>
<rect x="180" y="158" width="175.47" height="22" fill="#4c78a8" rx="3"/>
<text x="363.47" y="174" class="value">83.06</text>
<text x="10" y="206" class="label">ea.com</text>
<rect x="180" y="190" width="211.96" height="22" fill="#4c78a8" rx="3"/>
<text x="399.96000000000004" y="206" class="value">100.33</text>
<text x="10" y="238" class="label">cdn.akamai.steamstatic.com</text>
<rect x="180" y="222" width="246.75" height="22" fill="#4c78a8" rx="3"/>
<text x="434.75" y="238" class="value">116.80</text>
<text x="10" y="270" class="label">easyanticheat.net</text>
<rect x="180" y="254" width="270.54" height="22" fill="#4c78a8" rx="3"/>
<text x="458.54" y="270" class="value">128.06</text>
<text x="10" y="302" class="label">cdn.cloudflare.steamstatic.com</text>
<rect x="180" y="286" width="276.23" height="22" fill="#4c78a8" rx="3"/>
<text x="464.23" y="302" class="value">130.75</text>
<text x="10" y="334" class="label">origin.com</text>
<rect x="180" y="318" width="340.79" height="22" fill="#4c78a8" rx="3"/>
<text x="528.79" y="334" class="value">161.31</text>
<text x="10" y="366" class="label">community.akamai.steamstatic.com</text>
<rect x="180" y="350" width="404.4" height="22" fill="#4c78a8" rx="3"/>
<text x="592.4" y="366" class="value">191.42</text>
<text x="10" y="398" class="label">launcher-public-service-prod06.ol.epicgames.com</text>
<rect x="180" y="382" width="557.75" height="22" fill="#4c78a8" rx="3"/>
<text x="745.75" y="398" class="value">264.01</text>
<text x="10" y="430" class="label">steam-chat.com</text>
<rect x="180" y="414" width="563.97" height="22" fill="#4c78a8" rx="3"/>
<text x="751.97" y="430" class="value">266.95</text>
<text x="10" y="462" class="label">api.steampowered.com</text>
<rect x="180" y="446" width="563.99" height="22" fill="#4c78a8" rx="3"/>
<text x="751.99" y="462" class="value">266.96</text>
<text x="10" y="494" class="label">www.steamcommunity.com</text>
<rect x="180" y="478" width="580.0" height="22" fill="#4c78a8" rx="3"/>
<text x="768.0" y="494" class="value">274.54</text>
<line x1="180" y1="30" x2="180" y2="520" stroke="#ccc"/>
<line x1="180" y1="520" x2="760" y2="520" stroke="#ccc"/>
</svg>