<svg xmlns="http://www.w3.org/2000/svg" width="800" height="540">
<style> .label{font-family:DejaVu Sans,Verdana,Geneva,sans-serif;font-size:12px;fill:#333} .value{font-family:DejaVu Sans,Verdana,Geneva,sans-serif;font-size:12px;fill:#555} </style>
<text x="10" y="20" class="label">延迟柱状图（越低越好，Top 15），单位 ms</text>
<text x="10" y="46" class="label">eaassets-a.akamaihd.net</text>
<rect x="180" y="30" width="171.12" height="22" fill="#4c78a8" rx="3"/>
<text x="359.12" y="46" class="value">63.43</text>
<text x="10" y="78" class="label">blizzard.com</text>
<rect x="180" y="62" width="190.17" height="22" fill="#4c78a8" rx="3"/>
<text x="378.16999999999996" y="78" class="value">70.49</text>
<text x="10" y="110" class="label">socialclub.rockstargames.com</text>
<rect x="180" y="94" width="215.12" height="22" fill="#4c78a8" rx="3"/>
<text x="403.12" y="110" class="value">79.74</text>
<text x="10" y="142" class="label">fortnite.com</text>
<rect x="180" y="126" width="221.57" height="22" fill="#4c78a8" rx="3"/>
<text x="409.57" y="142" class="value">82.13</text>
<text x="10" y="174" class="label">battle.net</text>
<rect x="180" y="158" width="222.38" height="22" fill="#4c78a8" rx="3"/>
<text x="410.38" y="174" class="value">82.43</text>
<text x="10" y="206" class="label">rockstargames.com</text>
<rect x="180" y="190" width="245.8" height="22" fill="#4c78a8" rx="3"/>
<text x="433.8" y="206" class="value">91.11</text>
<text x="10" y="238" class="label">ubi.com</text>
<rect x="180" y="222" width="248.52" height="22" fill="#4c78a8" rx="3"/>
<text x="436.52" y="238" class="value">92.12</text>
<text x="10" y="270" class="label">ea.com</text>
<rect x="180" y="254" width="376.72" height="22" fill="#4c78a8" rx="3"/>
<text x="564.72" y="270" class="value">139.64</text>
<text x="10" y="302" class="label">ubisoft.com</text>
<rect x="180" y="286" width="441.23" height="22" fill="#4c78a8" rx="3"/>
<text x="629.23" y="302" class="value">163.55</text>
<text x="10" y="334" class="label">origin.com</text>
<rect x="180" y="318" width="465.88" height="22" fill="#4c78a8" rx="3"/>
<text x="653.88" y="334" class="value">172.69</text>
<text x="10" y="366" class="label">steamcdn-a.akamaihd.net</text>
<rect x="180" y="350" width="507.51" height="22" fill="#4c78a8" rx="3"/>
<text x="695.51" y="366" class="value">188.12</text>
<text x="10" y="398" class="label">cdn.cloudflare.steamstatic.com</text>
<rect x="180" y="382" width="536.57" height="22" fill="#4c78a8" rx="3"/>
<text x="724.57" y="398" class="value">198.89</text>
<text x="10" y="430" class="label">unrealengine.com</text>
<rect x="180" y="414" width="560.04" height="22" fill="#4c78a8" rx="3"/>
<text x="748.04" y="430" class="value">207.59</text>
<text x="10" y="462" class="label">store.akamai.steamstatic.com</text>
<rect x="180" y="446" width="577.87" height="22" fill="#4c78a8" rx="3"/>
<text x="765.87" y="462" class="value">214.20</text>
<text x="10" y="494" class="label">epicgames.com</text>
<rect x="180" y="478" width="580.0" height="22" fill="#4c78a8" rx="3"/>
<text x="768.0" y="494" class="value">214.99</text>
<line x1="180" y1="30" x2="180" y2="520" stroke="#ccc"/>
<line x1="180" y1="520" x2="760" y2="520" stroke="#ccc"/>
</svg>