<svg xmlns="http://www.w3.org/2000/svg" width="800" height="540">
<style> .label{font-family:DejaVu Sans,Verdana,Geneva,sans-serif;font-size:12px;fill:#333} .value{font-family:DejaVu Sans,Verdana,Geneva,sans-serif;font-size:12px;fill:#555} </style>
<text x="10" y="20" class="label">延迟柱状图（越低越好，Top 15），单位 ms</text>
<text x="10" y="46" class="label">eaassets-a.akamaihd.net</text>
<rect x="180" y="30" width="279.49" height="22" fill="#4c78a8" rx="3"/>
<text x="467.49" y="46" class="value">127.68</text>
<text x="10" y="78" class="label">ubisoft.com</text>
<rect x="180" y="62" width="283.48" height="22" fill="#4c78a8" rx="3"/>
<text x="471.48" y="78" class="value">129.50</text>
<text x="10" y="110" class="label">steamcdn-a.akamaihd.net</text>
<rect x="180" y="94" width="306.15" height="22" fill="#4c78a8" rx="3"/>
<text x="494.15" y="110" class="value">139.86</text>
<text x="10" y="142" class="label">cdn.cloudflare.steamstatic.com</text>
<rect x="180" y="126" width="319.9" height="22" fill="#4c78a8" rx="3"/>
<text x="507.9" y="142" class="value">146.14</text>
<text x="10" y="174" class="label">origin.com</text>
<rect x="180" y="158" width="376.47" height="22" fill="#4c78a8" rx="3"/>
<text x="564.47" y="174" class="value">171.98</text>
<text x="10" y="206" class="label">blizzard.com</text>
<rect x="180" y="190" width="405.32" height="22" fill="#4c78a8" rx="3"/>
<text x="593.3199999999999" y="206" class="value">185.16</text>
<text x="10" y="238" class="label">steam-chat.com</text>
<rect x="180" y="222" width="448.75" height="22" fill="#4c78a8" rx="3"/>
<text x="636.75" y="238" class="value">205.00</text>
<text x="10" y="270" class="label">ubi.com</text>
<rect x="180" y="254" width="472.3" height="22" fill="#4c78a8" rx="3"/>
<text x="660.3" y="270" class="value">215.76</text>
<text x="10" y="302" class="label">store.akamai.steamstatic.com</text>
<rect x="180" y="286" width="480.42" height="22" fill="#4c78a8" rx="3"/>
<text x="668.4200000000001" y="302" class="value">219.47</text>
<text x="10" y="334" class="label">easyanticheat.net</text>
<rect x="180" y="318" width="493.8" height="22" fill="#4c78a8" rx="3"/>
<text x="681.8" y="334" class="value">225.58</text>
<text x="10" y="366" class="label">www.steamcommunity.com</text>
<rect x="180" y="350" width="497.34" height="22" fill="#4c78a8" rx="3"/>
<text x="685.3399999999999" y="366" class="value">227.20</text>
<text x="10" y="398" class="label">rockstargames.com</text>
<rect x="180" y="382" width="526.11" height="22" fill="#4c78a8" rx="3"/>
<text x="714.11" y="398" class="value">240.34</text>
<text x="10" y="430" class="label">ea.com</text>
<rect x="180" y="414" width="546.05" height="22" fill="#4c78a8" rx="3"/>
<text x="734.05" y="430" class="value">249.45</text>
<text x="10" y="462" class="label">launcher-public-service-prod06.ol.epicgames.com</text>
<rect x="180" y="446" width="553.4" height="22" fill="#4c78a8" rx="3"/>
<text x="741.4" y="462" class="value">252.81</text>
<text x="10" y="494" class="label">api.steampowered.com</text>
<rect x="180" y="478" width="580.0" height="22" fill="#4c78a8" rx="3"/>
<text x="768.0" y="494" class="value">264.96</text>
<line x1="180" y1="30" x2="180" y2="520" stroke="#ccc"/>
<line x1="180" y1="520" x2="760" y2="520" stroke="#ccc"/>
</svg>