<svg xmlns="http://www.w3.org/2000/svg" width="800" height="540">
<style> .label{font-family:DejaVu Sans,Verdana,Geneva,sans-serif;font-size:12px;fill:#333} .value{font-family:DejaVu Sans,Verdana,Geneva,sans-serif;font-size:12px;fill:#555} </style>
<text x="10" y="20" class="label">延迟柱状图（越低越好，Top 15），单位 ms</text>
<text x="10" y="46" class="label">rockstargames.com</text>
<rect x="180" y="30" width="72.56" height="22" fill="#4c78a8" rx="3"/>
<text x="260.56" y="46" class="value">35.93</text>
<text x="10" y="78" class="label">eaassets-a.akamaihd.net</text>
<rect x="180" y="62" width="90.19" height="22" fill="#4c78a8" rx="3"/>
<text x="278.19" y="78" class="value">44.66</text>
<text x="10" y="110" class="label">ubisoft.com</text>
<rect x="180" y="94" width="154.07" height="22" fill="#4c78a8" rx="3"/>
<text x="342.07" y="110" class="value">76.29</text>
<text x="10" y="142" class="label">ea.com</text>
<rect x="180" y="126" width="190.36" height="22" fill="#4c78a8" rx="3"/>
<text x="378.36" y="142" class="value">94.26</text>
<text x="10" y="174" class="label">cdn.cloudflare.steamstatic.com</text>
<rect x="180" y="158" width="254.44" height="22" fill="#4c78a8" rx="3"/>
<text x="442.44" y="174" class="value">125.99</text>
<text x="10" y="206" class="label">community.akamai.steamstatic.com</text>
<rect x="180" y="190" width="302.38" height="22" fill="#4c78a8" rx="3"/>
<text x="490.38" y="206" class="value">149.73</text>
<text x="10" y="238" class="label">store.akamai.steamstatic.com</text>
<rect x="180" y="222" width="352.52" height="22" fill="#4c78a8" rx="3"/>
<text x="540.52" y="238" class="value">174.56</text>
<text x="10" y="270" class="label">origin.com</text>
<rect x="180" y="254" width="364.72" height="22" fill="#4c78a8" rx="3"/>
<text x="552.72" y="270" class="value">180.60</text>
<text x="10" y="302" class="label">steamcdn-a.akamaihd.net</text>
<rect x="180" y="286" width="375.95" height="22" fill="#4c78a8" rx="3"/>
<text x="563.95" y="302" class="value">186.16</text>
<text x="10" y="334" class="label">cdn.akamai.steamstatic.com</text>
<rect x="180" y="318" width="386.27" height="22" fill="#4c78a8" rx="3"/>
<text x="574.27" y="334" class="value">191.27</text>
<text x="10" y="366" class="label">api.steampowered.com</text>
<rect x="180" y="350" width="474.32" height="22" fill="#4c78a8" rx="3"/>
<text x="662.3199999999999" y="366" class="value">234.87</text>
<text x="10" y="398" class="label">www.steamcommunity.com</text>
<rect x="180" y="382" width="519.88" height="22" fill="#4c78a8" rx="3"/>
<text x="707.88" y="398" class="value">257.43</text>
<text x="10" y="430" class="label">easyanticheat.net</text>
<rect x="180" y="414" width="529.9" height="22" fill="#4c78a8" rx="3"/>
<text x="717.9" y="430" class="value">262.39</text>
<text x="10" y="462" class="label">steam-chat.com</text>
<rect x="180" y="446" width="566.27" height="22" fill="#4c78a8" rx="3"/>
<text x="754.27" y="462" class="value">280.40</text>
<text x="10" y="494" class="label">steamcommunity.com</text>
<rect x="180" y="478" width="580.0" height="22" fill="#4c78a8" rx="3"/>
<text x="768.0" y="494" class="value">287.20</text>
<line x1="180" y1="30" x2="180" y2="520" stroke="#ccc"/>
<line x1="180" y1="520" x2="760" y2="520" stroke="#ccc"/>
</svg>