<svg xmlns="http://www.w3.org/2000/svg" width="800" height="540">
<style> .label{font-family:DejaVu Sans,Verdana,Geneva,sans-serif;font-size:12px;fill:#333} .value{font-family:DejaVu Sans,Verdana,Geneva,sans-serif;font-size:12px;fill:#555} </style>
<text x="10" y="20" class="label">延迟柱状图（越低越好，Top 15），单位 ms</text>
<text x="10" y="46" class="label">socialclub.rockstargames.com</text>
<rect x="180" y="30" width="237.96" height="22" fill="#4c78a8" rx="3"/>
<text x="425.96000000000004" y="46" class="value">80.39</text>
<text x="10" y="78" class="label">eaassets-a.akamaihd.net</text>
<rect x="180" y="62" width="250.07" height="22" fill="#4c78a8" rx="3"/>
<text x="438.07" y="78" class="value">84.48</text>
<text x="10" y="110" class="label">blizzard.com</text>
<rect x="180" y="94" width="275.38" height="22" fill="#4c78a8" rx="3"/>
<text x="463.38" y="110" class="value">93.03</text>
<text x="10" y="142" class="label">rockstargames.com</text>
<rect x="180" y="126" width="280.08" height="22" fill="#4c78a8" rx="3"/>
<text x="468.08" y="142" class="value">94.62</text>
<text x="10" y="174" class="label">cdn.akamai.steamstatic.com</text>
<rect x="180" y="158" width="315.4" height="22" fill="#4c78a8" rx="3"/>
<text x="503.4" y="174" class="value">106.55</text>
<text x="10" y="206" class="label">ubi.com</text>
<rect x="180" y="190" width="338.19" height="22" fill="#4c78a8" rx="3"/>
<text x="526.19" y="206" class="value">114.25</text>
<text x="10" y="238" class="label">battle.net</text>
<rect x="180" y="222" width="362.58" height="22" fill="#4c78a8" rx="3"/>
<text x="550.5799999999999" y="238" class="value">122.49</text>
<text x="10" y="270" class="label">ea.com</text>
<rect x="180" y="254" width="392.33" height="22" fill="#4c78a8" rx="3"/>
<text x="580.3299999999999" y="270" class="value">132.54</text>
<text x="10" y="302" class="label">fortnite.com</text>
<rect x="180" y="286" width="402.96" height="22" fill="#4c78a8" rx="3"/>
<text x="590.96" y="302" class="value">136.13</text>
<text x="10" y="334" class="label">unrealengine.com</text>
<rect x="180" y="318" width="458.96" height="22" fill="#4c78a8" rx="3"/>
<text x="646.96" y="334" class="value">155.05</text>
<text x="10" y="366" class="label">steamcdn-a.akamaihd.net</text>
<rect x="180" y="350" width="493.77" height="22" fill="#4c78a8" rx="3"/>
<text x="681.77" y="366" class="value">166.81</text>
<text x="10" y="398" class="label">epicgames.com</text>
<rect x="180" y="382" width="511.09" height="22" fill="#4c78a8" rx="3"/>
<text x="699.0899999999999" y="398" class="value">172.66</text>
<text x="10" y="430" class="label">community.akamai.steamstatic.com</text>
<rect x="180" y="414" width="570.05" height="22" fill="#4c78a8" rx="3"/>
<text x="758.05" y="430" class="value">192.58</text>
<text x="10" y="462" class="label">ubisoft.com</text>
<rect x="180" y="446" width="577.81" height="22" fill="#4c78a8" rx="3"/>
<text x="765.81" y="462" class="value">195.20</text>
<text x="10" y="494" class="label">www.steamcommunity.com</text>
<rect x="180" y="478" width="580.0" height="22" fill="#4c78a8" rx="3"/>
<text x="768.0" y="494" class="value">195.94</text>
<line x1="180" y1="30" x2="180" y2="520" stroke="#ccc"/>
<line x1="180" y1="520" x2="760" y2="520" stroke="#ccc"/>
</svg>