<svg xmlns="http://www.w3.org/2000/svg" width="800" height="540">
<style> .label{font-family:DejaVu Sans,Verdana,Geneva,sans-serif;font-size:12px;fill:#333} .value{font-family:DejaVu Sans,Verdana,Geneva,sans-serif;font-size:12px;fill:#555} </style>
<text x="10" y="20" class="label">延迟柱状图（越低越好，Top 15），单位 ms</text>
<text x="10" y="46" class="label">rockstargames.com</text>
<rect x="180" y="30" width="194.38" height="22" fill="#4c78a8" rx="3"/>
<text x="382.38" y="46" class="value">82.93</text>
<text x="10" y="78" class="label">eaassets-a.akamaihd.net</text>
<rect x="180" y="62" width="201.97" height="22" fill="#4c78a8" rx="3"/>
<text x="389.97" y="78" class="value">86.17</text>
<text x="10" y="110" class="label">ea.com</text>
<rect x="180" y="94" width="203.59" height="22" fill="#4c78a8" rx="3"/>
<text x="391.59000000000003" y="110" class="value">86.86</text>
<text x="10" y="142" class="label">store.akamai.steamstatic.com</text>
<rect x="180" y="126" width="223.07" height="22" fill="#4c78a8" rx="3"/>
<text x="411.07" y="142" class="value">95.17</text>
<text x="10" y="174" class="label">socialclub.rockstargames.com</text>
<rect x="180" y="158" width="339.14" height="22" fill="#4c78a8" rx="3"/>
<text x="527.14" y="174" class="value">144.69</text>
<text x="10" y="206" class="label">ubi.com</text>
<rect x="180" y="190" width="344.02" height="22" fill="#4c78a8" rx="3"/>
<text x="532.02" y="206" class="value">146.77</text>
<text x="10" y="238" class="label">battle.net</text>
<rect x="180" y="222" width="356.65" height="22" fill="#4c78a8" rx="3"/>
<text x="544.65" y="238" class="value">152.16</text>
<text x="10" y="270" class="label">ubisoft.com</text>
<rect x="180" y="254" width="357.21" height="22" fill="#4c78a8" rx="3"/>
<text x="545.21" y="270" class="value">152.40</text>
<text x="10" y="302" class="label">blizzard.com</text>
<rect x="180" y="286" width="366.52" height="22" fill="#4c78a8" rx="3"/>
<text x="554.52" y="302" class="value">156.37</text>
<text x="10" y="334" class="label">cdn.cloudflare.steamstatic.com</text>
<rect x="180" y="318" width="424.34" height="22" fill="#4c78a8" rx="3"/>
<text x="612.3399999999999" y="334" class="value">181.04</text>
<text x="10" y="366" class="label">origin.com</text>
<rect x="180" y="350" width="442.65" height="22" fill="#4c78a8" rx="3"/>
<text x="630.65" y="366" class="value">188.85</text>
<text x="10" y="398" class="label">static3.cdn.ubi.com</text>
<rect x="180" y="382" width="452.75" height="22" fill="#4c78a8" rx="3"/>
<text x="640.75" y="398" class="value">193.16</text>
<text x="10" y="430" class="label">community.akamai.steamstatic.com</text>
<rect x="180" y="414" width="456.85" height="22" fill="#4c78a8" rx="3"/>
<text x="644.85" y="430" class="value">194.91</text>
<text x="10" y="462" class="label">steamcdn-a.akamaihd.net</text>
<rect x="180" y="446" width="489.17" height="22" fill="#4c78a8" rx="3"/>
<text x="677.1700000000001" y="462" class="value">208.70</text>
<text x="10" y="494" class="label">steam-chat.com</text>
<rect x="180" y="478" width="580.0" height="22" fill="#4c78a8" rx="3"/>
<text x="768.0" y="494" class="value">247.45</text>
<line x1="180" y1="30" x2="180" y2="520" stroke="#ccc"/>
<line x1="180" y1="520" x2="760" y2="520" stroke="#ccc"/>
</svg>