<svg xmlns="http://www.w3.org/2000/svg" width="800" height="540">
<style> .label{font-family:DejaVu Sans,Verdana,Geneva,sans-serif;font-size:12px;fill:#333} .value{font-family:DejaVu Sans,Verdana,Geneva,sans-serif;font-size:12px;fill:#555} </style>
<text x="10" y="20" class="label">延迟柱状图（越低越好，Top 15），单位 ms</text>
<text x="10" y="46" class="label">origin.com</text>
<rect x="180" y="30" width="156.21" height="22" fill="#4c78a8" rx="3"/>
<text x="344.21000000000004" y="46" class="value">71.82</text>
<text x="10" y="78" class="label">rockstargames.com</text>
<rect x="180" y="62" width="190.49" height="22" fill="#4c78a8" rx="3"/>
<text x="378.49" y="78" class="value">87.58</text>
<text x="10" y="110" class="label">eaassets-a.akamaihd.net</text>
<rect x="180" y="94" width="226.75" height="22" fill="#4c78a8" rx="3"/>
<text x="414.75" y="110" class="value">104.25</text>
<text x="10" y="142" class="label">store.akamai.steamstatic.com</text>
<rect x="180" y="126" width="227.75" height="22" fill="#4c78a8" rx="3"/>
<text x="415.75" y="142" class="value">104.71</text>
<text x="10" y="174" class="label">cdn.akamai.steamstatic.com</text>
<rect x="180" y="158" width="233.51" height="22" fill="#4c78a8" rx="3"/>
<text x="421.51" y="174" class="value">107.36</text>
<text x="10" y="206" class="label">ubisoft.com</text>
<rect x="180" y="190" width="235.04" height="22" fill="#4c78a8" rx="3"/>
<text x="423.03999999999996" y="206" class="value">108.06</text>
<text x="10" y="238" class="label">easyanticheat.net</text>
<rect x="180" y="222" width="253.33" height="22" fill="#4c78a8" rx="3"/>
<text x="441.33000000000004" y="238" class="value">116.47</text>
<text x="10" y="270" class="label">www.steamcommunity.com</text>
<rect x="180" y="254" width="369.22" height="22" fill="#4c78a8" rx="3"/>
<text x="557.22" y="270" class="value">169.75</text>
<text x="10" y="302" class="label">steamcdn-a.akamaihd.net</text>
<rect x="180" y="286" width="385.18" height="22" fill="#4c78a8" rx="3"/>
<text x="573.1800000000001" y="302" class="value">177.09</text>
<text x="10" y="334" class="label">community.akamai.steamstatic.com</text>
<rect x="180" y="318" width="405.78" height="22" fill="#4c78a8" rx="3"/>
<text x="593.78" y="334" class="value">186.56</text>
<text x="10" y="366" class="label">steam-chat.com</text>
<rect x="180" y="350" width="440.51" height="22" fill="#4c78a8" rx="3"/>
<text x="628.51" y="366" class="value">202.53</text>
<text x="10" y="398" class="label">api.steampowered.com</text>
<rect x="180" y="382" width="485.86" height="22" fill="#4c78a8" rx="3"/>
<text x="673.86" y="398" class="value">223.38</text>
<text x="10" y="430" class="label">launcher-public-service-prod06.ol.epicgames.com</text>
<rect x="180" y="414" width="507.74" height="22" fill="#4c78a8" rx="3"/>
<text x="695.74" y="430" class="value">233.44</text>
<text x="10" y="462" class="label">cdn.cloudflare.steamstatic.com</text>
<rect x="180" y="446" width="516.05" height="22" fill="#4c78a8" rx="3"/>
<text x="704.05" y="462" class="value">237.26</text>
<text x="10" y="494" class="label">ubi.com</text>
<rect x="180" y="478" width="580.0" height="22" fill="#4c78a8" rx="3"/>
<text x="768.0" y="494" class="value">266.66</text>
<line x1="180" y1="30" x2="180" y2="520" stroke="#ccc"/>
<line x1="180" y1="520" x2="760" y2="520" stroke="#ccc"/>
</svg>