<svg xmlns="http://www.w3.org/2000/svg" width="800" height="540">
<style> .label{font-family:DejaVu Sans,Verdana,Geneva,sans-serif;font-size:12px;fill:#333} .value{font-family:DejaVu Sans,Verdana,Geneva,sans-serif;font-size:12px;fill:#555} </style>
<text x="10" y="20" class="label">延迟柱状图（越低越好，Top 15），单位 ms</text>
<text x="10" y="46" class="label">ubisoft.com</text>
<rect x="180" y="30" width="316.92" height="22" fill="#4c78a8" rx="3"/>
<text x="504.92" y="46" class="value">134.33</text>
<text x="10" y="78" class="label">rockstargames.com</text>
<rect x="180" y="62" width="358.23" height="22" fill="#4c78a8" rx="3"/>
<text x="546.23" y="78" class="value">151.84</text>
<text x="10" y="110" class="label">eaassets-a.akamaihd.net</text>
<rect x="180" y="94" width="362.33" height="22" fill="#4c78a8" rx="3"/>
<text x="550.3299999999999" y="110" class="value">153.58</text>
<text x="10" y="142" class="label">easyanticheat.net</text>
<rect x="180" y="126" width="408.46" height="22" fill="#4c78a8" rx="3"/>
<text x="596.46" y="142" class="value">173.13</text>
<text x="10" y="174" class="label">api.steampowered.com</text>
<rect x="180" y="158" width="423.42" height="22" fill="#4c78a8" rx="3"/>
<text x="611.4200000000001" y="174" class="value">179.47</text>
<text x="10" y="206" class="label">steam-chat.com</text>
<rect x="180" y="190" width="468.83" height="22" fill="#4c78a8" rx="3"/>
<text x="656.8299999999999" y="206" class="value">198.72</text>
<text x="10" y="238" class="label">battle.net</text>
<rect x="180" y="222" width="500.56" height="22" fill="#4c78a8" rx="3"/>
<text x="688.56" y="238" class="value">212.17</text>
<text x="10" y="270" class="label">ubi.com</text>
<rect x="180" y="254" width="502.17" height="22" fill="#4c78a8" rx="3"/>
<text x="690.1700000000001" y="270" class="value">212.85</text>
<text x="10" y="302" class="label">launcher-public-service-prod06.ol.epicgames.com</text>
<rect x="180" y="286" width="506.37" height="22" fill="#4c78a8" rx="3"/>
<text x="694.37" y="302" class="value">214.63</text>
<text x="10" y="334" class="label">steamcdn-a.akamaihd.net</text>
<rect x="180" y="318" width="518.82" height="22" fill="#4c78a8" rx="3"/>
<text x="706.82" y="334" class="value">219.91</text>
<text x="10" y="366" class="label">blizzard.com</text>
<rect x="180" y="350" width="525.17" height="22" fill="#4c78a8" rx="3"/>
<text x="713.17" y="366" class="value">222.60</text>
<text x="10" y="398" class="label">community.akamai.steamstatic.com</text>
<rect x="180" y="382" width="527.74" height="22" fill="#4c78a8" rx="3"/>
<text x="715.74" y="398" class="value">223.69</text>
<text x="10" y="430" class="label">store.akamai.steamstatic.com</text>
<rect x="180" y="414" width="533.26" height="22" fill="#4c78a8" rx="3"/>
<text x="721.26" y="430" class="value">226.03</text>
<text x="10" y="462" class="label">cdn.cloudflare.steamstatic.com</text>
<rect x="180" y="446" width="543.36" height="22" fill="#4c78a8" rx="3"/>
<text x="731.36" y="462" class="value">230.31</text>
<text x="10" y="494" class="label">steamcommunity.com</text>
<rect x="180" y="478" width="580.0" height="22" fill="#4c78a8" rx="3"/>
<text x="768.0" y="494" class="value">245.84</text>
<line x1="180" y1="30" x2="180" y2="520" stroke="#ccc"/>
<line x1="180" y1="520" x2="760" y2="520" stroke="#ccc"/>
</svg>