<svg xmlns="http://www.w3.org/2000/svg" width="800" height="540">
<style> .label{font-family:DejaVu Sans,Verdana,Geneva,sans-serif;font-size:12px;fill:#333} .value{font-family:DejaVu Sans,Verdana,Geneva,sans-serif;font-size:12px;fill:#555} </style>
<text x="10" y="20" class="label">延迟柱状图（越低越好，Top 15），单位 ms</text>
<text x="10" y="46" class="label">eaassets-a.akamaihd.net</text>
<rect x="180" y="30" width="173.62" height="22" fill="#4c78a8" rx="3"/>
<text x="361.62" y="46" class="value">55.12</text>
<text x="10" y="78" class="label">rockstargames.com</text>
<rect x="180" y="62" width="202.4" height="22" fill="#4c78a8" rx="3"/>
<text x="390.4" y="78" class="value">64.26</text>
<text x="10" y="110" class="label">socialclub.rockstargames.com</text>
<rect x="180" y="94" width="262.53" height="22" fill="#4c78a8" rx="3"/>
<text x="450.53" y="110" class="value">83.35</text>
<text x="10" y="142" class="label">battle.net</text>
<rect x="180" y="126" width="297.94" height="22" fill="#4c78a8" rx="3"/>
<text x="485.94" y="142" class="value">94.59</text>
<text x="10" y="174" class="label">ubi.com</text>
<rect x="180" y="158" width="323.07" height="22" fill="#4c78a8" rx="3"/>
<text x="511.07" y="174" class="value">102.57</text>
<text x="10" y="206" class="label">blizzard.com</text>
<rect x="180" y="190" width="396.37" height="22" fill="#4c78a8" rx="3"/>
<text x="584.37" y="206" class="value">125.84</text>
<text x="10" y="238" class="label">unrealengine.com</text>
<rect x="180" y="222" width="402.23" height="22" fill="#4c78a8" rx="3"/>
<text x="590.23" y="238" class="value">127.70</text>
<text x="10" y="270" class="label">ubisoft.com</text>
<rect x="180" y="254" width="405.38" height="22" fill="#4c78a8" rx="3"/>
<text x="593.38" y="270" class="value">128.70</text>
<text x="10" y="302" class="label">epicgames.com</text>
<rect x="180" y="286" width="410.95" height="22" fill="#4c78a8" rx="3"/>
<text x="598.95" y="302" class="value">130.47</text>
<text x="10" y="334" class="label">ea.com</text>
<rect x="180" y="318" width="465.22" height="22" fill="#4c78a8" rx="3"/>
<text x="653.22" y="334" class="value">147.70</text>
<text x="10" y="366" class="label">fortnite.com</text>
<rect x="180" y="350" width="489.95" height="22" fill="#4c78a8" rx="3"/>
<text x="677.95" y="366" class="value">155.55</text>
<text x="10" y="398" class="label">store.akamai.steamstatic.com</text>
<rect x="180" y="382" width="493.54" height="22" fill="#4c78a8" rx="3"/>
<text x="681.54" y="398" class="value">156.69</text>
<text x="10" y="430" class="label">cdn.akamai.steamstatic.com</text>
<rect x="180" y="414" width="508.88" height="22" fill="#4c78a8" rx="3"/>
<text x="696.88" y="430" class="value">161.56</text>
<text x="10" y="462" class="label">cdn.cloudflare.steamstatic.com</text>
<rect x="180" y="446" width="575.62" height="22" fill="#4c78a8" rx="3"/>
<text x="763.62" y="462" class="value">182.75</text>
<text x="10" y="494" class="label">origin.com</text>
<rect x="180" y="478" width="580.0" height="22" fill="#4c78a8" rx="3"/>
<text x="768.0" y="494" class="value">184.14</text>
<line x1="180" y1="30" x2="180" y2="520" stroke="#ccc"/>
<line x1="180" y1="520" x2="760" y2="520" stroke="#ccc"/>
</svg>