<svg xmlns="http://www.w3.org/2000/svg" width="800" height="540">
<style> .label{font-family:DejaVu Sans,Verdana,Geneva,sans-serif;font-size:12px;fill:#333} .value{font-family:DejaVu Sans,Verdana,Geneva,sans-serif;font-size:12px;fill:#555} </style>
<text x="10" y="20" class="label">延迟柱状图（越低越好，Top 15），单位 ms</text>
<text x="10" y="46" class="label">rockstargames.com</text>
<rect x="180" y="30" width="67.75" height="22" fill="#4c78a8" rx="3"/>
<text x="255.75" y="46" class="value">33.66</text>
<text x="10" y="78" class="label">store.akamai.steamstatic.com</text>
<rect x="180" y="62" width="157.11" height="22" fill="#4c78a8" rx="3"/>
<text x="345.11" y="78" class="value">78.06</text>
<text x="10" y="110" class="label">ea.com</text>
<rect x="180" y="94" width="176.71" height="22" fill="#4c78a8" rx="3"/>
<text x="364.71000000000004" y="110" class="value">87.80</text>
<text x="10" y="142" class="label">origin.com</text>
<rect x="180" y="126" width="181.34" height="22" fill="#4c78a8" rx="3"/>
<text x="369.34000000000003" y="142" class="value">90.10</text>
<text x="10" y="174" class="label">ubisoft.com</text>
<rect x="180" y="158" width="251.02" height="22" fill="#4c78a8" rx="3"/>
<text x="439.02" y="174" class="value">124.72</text>
<text x="10" y="206" class="label">eaassets-a.akamaihd.net</text>
<rect x="180" y="190" width="259.55" height="22" fill="#4c78a8" rx="3"/>
<text x="447.55" y="206" class="value">128.96</text>
<text x="10" y="238" class="label">steamcdn-a.akamaihd.net</text>
<rect x="180" y="222" width="349.05" height="22" fill="#4c78a8" rx="3"/>
<text x="537.05" y="238" class="value">173.43</text>
<text x="10" y="270" class="label">cdn.cloudflare.steamstatic.com</text>
<rect x="180" y="254" width="376.36" height="22" fill="#4c78a8" rx="3"/>
<text x="564.36" y="270" class="value">187.00</text>
<text x="10" y="302" class="label">cdn.akamai.steamstatic.com</text>
<rect x="180" y="286" width="389.77" height="22" fill="#4c78a8" rx="3"/>
<text x="577.77" y="302" class="value">193.66</text>
<text x="10" y="334" class="label">community.akamai.steamstatic.com</text>
<rect x="180" y="318" width="396.43" height="22" fill="#4c78a8" rx="3"/>
<text x="584.4300000000001" y="334" class="value">196.97</text>
<text x="10" y="366" class="label">api.steampowered.com</text>
<rect x="180" y="350" width="439.1" height="22" fill="#4c78a8" rx="3"/>
<text x="627.1" y="366" class="value">218.17</text>
<text x="10" y="398" class="label">steam-chat.com</text>
<rect x="180" y="382" width="483.88" height="22" fill="#4c78a8" rx="3"/>
<text x="671.88" y="398" class="value">240.42</text>
<text x="10" y="430" class="label">easyanticheat.net</text>
<rect x="180" y="414" width="505.51" height="22" fill="#4c78a8" rx="3"/>
<text x="693.51" y="430" class="value">251.17</text>
<text x="10" y="462" class="label">www.steamcommunity.com</text>
<rect x="180" y="446" width="534.76" height="22" fill="#4c78a8" rx="3"/>
<text x="722.76" y="462" class="value">265.70</text>
<text x="10" y="494" class="label">blizzard.com</text>
<rect x="180" y="478" width="580.0" height="22" fill="#4c78a8" rx="3"/>
<text x="768.0" y="494" class="value">288.18</text>
<line x1="180" y1="30" x2="180" y2="520" stroke="#ccc"/>
<line x1="180" y1="520" x2="760" y2="520" stroke="#ccc"/>
</svg>