<svg xmlns="http://www.w3.org/2000/svg" width="800" height="540">
<style> .label{font-family:DejaVu Sans,Verdana,Geneva,sans-serif;font-size:12px;fill:#333} .value{font-family:DejaVu Sans,Verdana,Geneva,sans-serif;font-size:12px;fill:#555} </style>
<text x="10" y="20" class="label">延迟柱状图（越低越好，Top 15），单位 ms</text>
<text x="10" y="46" class="label">rockstargames.com</text>
<rect x="180" y="30" width="253.07" height="22" fill="#4c78a8" rx="3"/>
<text x="441.07" y="46" class="value">92.62</text>
<text x="10" y="78" class="label">origin.com</text>
<rect x="180" y="62" width="365.21" height="22" fill="#4c78a8" rx="3"/>
<text x="553.21" y="78" class="value">133.66</text>
<text x="10" y="110" class="label">eaassets-a.akamaihd.net</text>
<rect x="180" y="94" width="389.5" height="22" fill="#4c78a8" rx="3"/>
<text x="577.5" y="110" class="value">142.55</text>
<text x="10" y="142" class="label">blizzard.com</text>
<rect x="180" y="126" width="416.03" height="22" fill="#4c78a8" rx="3"/>
<text x="604.03" y="142" class="value">152.26</text>
<text x="10" y="174" class="label">battle.net</text>
<rect x="180" y="158" width="433.52" height="22" fill="#4c78a8" rx="3"/>
<text x="621.52" y="174" class="value">158.66</text>
<text x="10" y="206" class="label">steamcdn-a.akamaihd.net</text>
<rect x="180" y="190" width="440.65" height="22" fill="#4c78a8" rx="3"/>
<text x="628.65" y="206" class="value">161.27</text>
<text x="10" y="238" class="label">ea.com</text>
<rect x="180" y="222" width="441.99" height="22" fill="#4c78a8" rx="3"/>
<text x="629.99" y="238" class="value">161.76</text>
<text x="10" y="270" class="label">ubi.com</text>
<rect x="180" y="254" width="490.24" height="22" fill="#4c78a8" rx="3"/>
<text x="678.24" y="270" class="value">179.42</text>
<text x="10" y="302" class="label">community.akamai.steamstatic.com</text>
<rect x="180" y="286" width="521.94" height="22" fill="#4c78a8" rx="3"/>
<text x="709.94" y="302" class="value">191.02</text>
<text x="10" y="334" class="label">store.akamai.steamstatic.com</text>
<rect x="180" y="318" width="534.83" height="22" fill="#4c78a8" rx="3"/>
<text x="722.83" y="334" class="value">195.74</text>
<text x="10" y="366" class="label">ubisoft.com</text>
<rect x="180" y="350" width="559.56" height="22" fill="#4c78a8" rx="3"/>
<text x="747.56" y="366" class="value">204.79</text>
<text x="10" y="398" class="label">socialclub.rockstargames.com</text>
<rect x="180" y="382" width="572.38" height="22" fill="#4c78a8" rx="3"/>
<text x="760.38" y="398" class="value">209.48</text>
<text x="10" y="430" class="label">fortnite.com</text>
<rect x="180" y="414" width="577.19" height="22" fill="#4c78a8" rx="3"/>
<text x="765.19" y="430" class="value">211.24</text>
<text x="10" y="462" class="label">cdn.cloudflare.steamstatic.com</text>
<rect x="180" y="446" width="579.51" height="22" fill="#4c78a8" rx="3"/>
<text x="767.51" y="462" class="value">212.09</text>
<text x="10" y="494" class="label">easyanticheat.net</text>
<rect x="180" y="478" width="580.0" height="22" fill="#4c78a8" rx="3"/>
<text x="768.0" y="494" class="value">212.27</text>
<line x1="180" y1="30" x2="180" y2="520" stroke="#ccc"/>
<line x1="180" y1="520" x2="760" y2="520" stroke="#ccc"/>
</svg>