<svg xmlns="http://www.w3.org/2000/svg" width="800" height="540">
<style> .label{font-family:DejaVu Sans,Verdana,Geneva,sans-serif;font-size:12px;fill:#333} .value{font-family:DejaVu Sans,Verdana,Geneva,sans-serif;font-size:12px;fill:#555} </style>
<text x="10" y="20" class="label">延迟柱状图（越低越好，Top 15），单位 ms</text>
<text x="10" y="46" class="label">rockstargames.com</text>
<rect x="180" y="30" width="64.8" height="22" fill="#4c78a8" rx="3"/>
<text x="252.8" y="46" class="value">30.84</text>
<text x="10" y="78" class="label">ea.com</text>
<rect x="180" y="62" width="104.13" height="22" fill="#4c78a8" rx="3"/>
<text x="292.13" y="78" class="value">49.56</text>
<text x="10" y="110" class="label">ubisoft.com</text>
<rect x="180" y="94" width="144.74" height="22" fill="#4c78a8" rx="3"/>
<text x="332.74" y="110" class="value">68.89</text>
<text x="10" y="142" class="label">eaassets-a.akamaihd.net</text>
<rect x="180" y="126" width="188.95" height="22" fill="#4c78a8" rx="3"/>
<text x="376.95" y="142" class="value">89.93</text>
<text x="10" y="174" class="label">origin.com</text>
<rect x="180" y="158" width="209.54" height="22" fill="#4c78a8" rx="3"/>
<text x="397.53999999999996" y="174" class="value">99.73</text>
<text x="10" y="206" class="label">cdn.akamai.steamstatic.com</text>
<rect x="180" y="190" width="251.43" height="22" fill="#4c78a8" rx="3"/>
<text x="439.43" y="206" class="value">119.67</text>
<text x="10" y="238" class="label">cdn.cloudflare.steamstatic.com</text>
<rect x="180" y="222" width="275.16" height="22" fill="#4c78a8" rx="3"/>
<text x="463.16" y="238" class="value">130.96</text>
<text x="10" y="270" class="label">steamcdn-a.akamaihd.net</text>
<rect x="180" y="254" width="302.36" height="22" fill="#4c78a8" rx="3"/>
<text x="490.36" y="270" class="value">143.91</text>
<text x="10" y="302" class="label">store.akamai.steamstatic.com</text>
<rect x="180" y="286" width="312.22" height="22" fill="#4c78a8" rx="3"/>
<text x="500.22" y="302" class="value">148.60</text>
<text x="10" y="334" class="label">community.akamai.steamstatic.com</text>
<rect x="180" y="318" width="436.33" height="22" fill="#4c78a8" rx="3"/>
<text x="624.3299999999999" y="334" class="value">207.67</text>
<text x="10" y="366" class="label">www.steamcommunity.com</text>
<rect x="180" y="350" width="512.64" height="22" fill="#4c78a8" rx="3"/>
<text x="700.64" y="366" class="value">243.99</text>
<text x="10" y="398" class="label">easyanticheat.net</text>
<rect x="180" y="382" width="519.57" height="22" fill="#4c78a8" rx="3"/>
<text x="707.57" y="398" class="value">247.29</text>
<text x="10" y="430" class="label">launcher-public-service-prod06.ol.epicgames.com</text>
<rect x="180" y="414" width="525.14" height="22" fill="#4c78a8" rx="3"/>
<text x="713.14" y="430" class="value">249.94</text>
<text x="10" y="462" class="label">api.steampowered.com</text>
<rect x="180" y="446" width="539.74" height="22" fill="#4c78a8" rx="3"/>
<text x="727.74" y="462" class="value">256.89</text>
<text x="10" y="494" class="label">steam-chat.com</text>
<rect x="180" y="478" width="580.0" height="22" fill="#4c78a8" rx="3"/>
<text x="768.0" y="494" class="value">276.05</text>
<line x1="180" y1="30" x2="180" y2="520" stroke="#ccc"/>
<line x1="180" y1="520" x2="760" y2="520" stroke="#ccc"/>
</svg>