<svg xmlns="http://www.w3.org/2000/svg" width="800" height="540">
<style> .label{font-family:DejaVu Sans,Verdana,Geneva,sans-serif;font-size:12px;fill:#333} .value{font-family:DejaVu Sans,Verdana,Geneva,sans-serif;font-size:12px;fill:#555} </style>
<text x="10" y="20" class="label">延迟柱状图（越低越好，Top 15），单位 ms</text>
<text x="10" y="46" class="label">rockstargames.com</text>
<rect x="180" y="30" width="140.79" height="22" fill="#4c78a8" rx="3"/>
<text x="328.78999999999996" y="46" class="value">49.28</text>
<text x="10" y="78" class="label">eaassets-a.akamaihd.net</text>
<rect x="180" y="62" width="152.39" height="22" fill="#4c78a8" rx="3"/>
<text x="340.39" y="78" class="value">53.34</text>
<text x="10" y="110" class="label">socialclub.rockstargames.com</text>
<rect x="180" y="94" width="216.16" height="22" fill="#4c78a8" rx="3"/>
<text x="404.15999999999997" y="110" class="value">75.66</text>
<text x="10" y="142" class="label">blizzard.com</text>
<rect x="180" y="126" width="230.85" height="22" fill="#4c78a8" rx="3"/>
<text x="418.85" y="142" class="value">80.80</text>
<text x="10" y="174" class="label">ubi.com</text>
<rect x="180" y="158" width="364.04" height="22" fill="#4c78a8" rx="3"/>
<text x="552.04" y="174" class="value">127.42</text>
<text x="10" y="206" class="label">fortnite.com</text>
<rect x="180" y="190" width="387.07" height="22" fill="#4c78a8" rx="3"/>
<text x="575.0699999999999" y="206" class="value">135.48</text>
<text x="10" y="238" class="label">origin.com</text>
<rect x="180" y="222" width="387.92" height="22" fill="#4c78a8" rx="3"/>
<text x="575.9200000000001" y="238" class="value">135.78</text>
<text x="10" y="270" class="label">ubisoft.com</text>
<rect x="180" y="254" width="393.52" height="22" fill="#4c78a8" rx="3"/>
<text x="581.52" y="270" class="value">137.74</text>
<text x="10" y="302" class="label">battle.net</text>
<rect x="180" y="286" width="399.32" height="22" fill="#4c78a8" rx="3"/>
<text x="587.3199999999999" y="302" class="value">139.77</text>
<text x="10" y="334" class="label">steamcdn-a.akamaihd.net</text>
<rect x="180" y="318" width="401.29" height="22" fill="#4c78a8" rx="3"/>
<text x="589.29" y="334" class="value">140.46</text>
<text x="10" y="366" class="label">ea.com</text>
<rect x="180" y="350" width="438.52" height="22" fill="#4c78a8" rx="3"/>
<text x="626.52" y="366" class="value">153.49</text>
<text x="10" y="398" class="label">cdn.akamai.steamstatic.com</text>
<rect x="180" y="382" width="453.46" height="22" fill="#4c78a8" rx="3"/>
<text x="641.46" y="398" class="value">158.72</text>
<text x="10" y="430" class="label">static3.cdn.ubi.com</text>
<rect x="180" y="414" width="508.37" height="22" fill="#4c78a8" rx="3"/>
<text x="696.37" y="430" class="value">177.94</text>
<text x="10" y="462" class="label">unrealengine.com</text>
<rect x="180" y="446" width="516.23" height="22" fill="#4c78a8" rx="3"/>
<text x="704.23" y="462" class="value">180.69</text>
<text x="10" y="494" class="label">cdn.cloudflare.steamstatic.com</text>
<rect x="180" y="478" width="580.0" height="22" fill="#4c78a8" rx="3"/>
<text x="768.0" y="494" class="value">203.01</text>
<line x1="180" y1="30" x2="180" y2="520" stroke="#ccc"/>
<line x1="180" y1="520" x2="760" y2="520" stroke="#ccc"/>
</svg>