<svg xmlns="http://www.w3.org/2000/svg" width="800" height="540">
<style> .label{font-family:DejaVu Sans,Verdana,Geneva,sans-serif;font-size:12px;fill:#333} .value{font-family:DejaVu Sans,Verdana,Geneva,sans-serif;font-size:12px;fill:#555} </style>
<text x="10" y="20" class="label">延迟柱状图（越低越好，Top 15），单位 ms</text>
<text x="10" y="46" class="label">rockstargames.com</text>
<rect x="180" y="30" width="87.31" height="22" fill="#4c78a8" rx="3"/>
<text x="275.31" y="46" class="value">33.99</text>
<text x="10" y="78" class="label">ea.com</text>
<rect x="180" y="62" width="179.86" height="22" fill="#4c78a8" rx="3"/>
<text x="367.86" y="78" class="value">70.02</text>
<text x="10" y="110" class="label">eaassets-a.akamaihd.net</text>
<rect x="180" y="94" width="208.5" height="22" fill="#4c78a8" rx="3"/>
<text x="396.5" y="110" class="value">81.17</text>
<text x="10" y="142" class="label">steamcdn-a.akamaihd.net</text>
<rect x="180" y="126" width="248.98" height="22" fill="#4c78a8" rx="3"/>
<text x="436.98" y="142" class="value">96.93</text>
<text x="10" y="174" class="label">community.akamai.steamstatic.com</text>
<rect x="180" y="158" width="345.69" height="22" fill="#4c78a8" rx="3"/>
<text x="533.69" y="174" class="value">134.58</text>
<text x="10" y="206" class="label">ubisoft.com</text>
<rect x="180" y="190" width="382.34" height="22" fill="#4c78a8" rx="3"/>
<text x="570.3399999999999" y="206" class="value">148.85</text>
<text x="10" y="238" class="label">origin.com</text>
<rect x="180" y="222" width="392.18" height="22" fill="#4c78a8" rx="3"/>
<text x="580.1800000000001" y="238" class="value">152.68</text>
<text x="10" y="270" class="label">easyanticheat.net</text>
<rect x="180" y="254" width="422.98" height="22" fill="#4c78a8" rx="3"/>
<text x="610.98" y="270" class="value">164.67</text>
<text x="10" y="302" class="label">cdn.cloudflare.steamstatic.com</text>
<rect x="180" y="286" width="431.28" height="22" fill="#4c78a8" rx="3"/>
<text x="619.28" y="302" class="value">167.90</text>
<text x="10" y="334" class="label">cdn.akamai.steamstatic.com</text>
<rect x="180" y="318" width="439.34" height="22" fill="#4c78a8" rx="3"/>
<text x="627.3399999999999" y="334" class="value">171.04</text>
<text x="10" y="366" class="label">store.akamai.steamstatic.com</text>
<rect x="180" y="350" width="475.1" height="22" fill="#4c78a8" rx="3"/>
<text x="663.1" y="366" class="value">184.96</text>
<text x="10" y="398" class="label">api.steampowered.com</text>
<rect x="180" y="382" width="477.46" height="22" fill="#4c78a8" rx="3"/>
<text x="665.46" y="398" class="value">185.88</text>
<text x="10" y="430" class="label">steam-chat.com</text>
<rect x="180" y="414" width="518.15" height="22" fill="#4c78a8" rx="3"/>
<text x="706.15" y="430" class="value">201.72</text>
<text x="10" y="462" class="label">steamcommunity.com</text>
<rect x="180" y="446" width="569.52" height="22" fill="#4c78a8" rx="3"/>
<text x="757.52" y="462" class="value">221.72</text>
<text x="10" y="494" class="label">www.steamcommunity.com</text>
<rect x="180" y="478" width="580.0" height="22" fill="#4c78a8" rx="3"/>
<text x="768.0" y="494" class="value">225.80</text>
<line x1="180" y1="30" x2="180" y2="520" stroke="#ccc"/>
<line x1="180" y1="520" x2="760" y2="520" stroke="#ccc"/>
</svg>