<svg xmlns="http://www.w3.org/2000/svg" width="800" height="540">
<style> .label{font-family:DejaVu Sans,Verdana,Geneva,sans-serif;font-size:12px;fill:#333} .value{font-family:DejaVu Sans,Verdana,Geneva,sans-serif;font-size:12px;fill:#555} </style>
<text x="10" y="20" class="label">延迟柱状图（越低越好，Top 15），单位 ms</text>
<text x="10" y="46" class="label">store.akamai.steamstatic.com</text>
<rect x="180" y="30" width="249.78" height="22" fill="#4c78a8" rx="3"/>
<text x="437.78" y="46" class="value">114.89</text>
<text x="10" y="78" class="label">community.akamai.steamstatic.com</text>
<rect x="180" y="62" width="294.37" height="22" fill="#4c78a8" rx="3"/>
<text x="482.37" y="78" class="value">135.40</text>
<text x="10" y="110" class="label">ea.com</text>
<rect x="180" y="94" width="303.57" height="22" fill="#4c78a8" rx="3"/>
<text x="491.57" y="110" class="value">139.63</text>
<text x="10" y="142" class="label">steamcdn-a.akamaihd.net</text>
<rect x="180" y="126" width="318.46" height="22" fill="#4c78a8" rx="3"/>
<text x="506.46" y="142" class="value">146.48</text>
<text x="10" y="174" class="label">ubisoft.com</text>
<rect x="180" y="158" width="348.4" height="22" fill="#4c78a8" rx="3"/>
<text x="536.4" y="174" class="value">160.25</text>
<text x="10" y="206" class="label">origin.com</text>
<rect x="180" y="190" width="371.29" height="22" fill="#4c78a8" rx="3"/>
<text x="559.29" y="206" class="value">170.78</text>
<text x="10" y="238" class="label">eaassets-a.akamaihd.net</text>
<rect x="180" y="222" width="375.42" height="22" fill="#4c78a8" rx="3"/>
<text x="563.4200000000001" y="238" class="value">172.68</text>
<text x="10" y="270" class="label">rockstargames.com</text>
<rect x="180" y="254" width="378.12" height="22" fill="#4c78a8" rx="3"/>
<text x="566.12" y="270" class="value">173.92</text>
<text x="10" y="302" class="label">cdn.cloudflare.steamstatic.com</text>
<rect x="180" y="286" width="489.56" height="22" fill="#4c78a8" rx="3"/>
<text x="677.56" y="302" class="value">225.18</text>
<text x="10" y="334" class="label">www.steamcommunity.com</text>
<rect x="180" y="318" width="491.95" height="22" fill="#4c78a8" rx="3"/>
<text x="679.95" y="334" class="value">226.28</text>
<text x="10" y="366" class="label">static3.cdn.ubi.com</text>
<rect x="180" y="350" width="519.26" height="22" fill="#4c78a8" rx="3"/>
<text x="707.26" y="366" class="value">238.84</text>
<text x="10" y="398" class="label">ubi.com</text>
<rect x="180" y="382" width="532.37" height="22" fill="#4c78a8" rx="3"/>
<text x="720.37" y="398" class="value">244.87</text>
<text x="10" y="430" class="label">easyanticheat.net</text>
<rect x="180" y="414" width="553.82" height="22" fill="#4c78a8" rx="3"/>
<text x="741.82" y="430" class="value">254.74</text>
<text x="10" y="462" class="label">launcher-public-service-prod06.ol.epicgames.com</text>
<rect x="180" y="446" width="553.98" height="22" fill="#4c78a8" rx="3"/>
<text x="741.98" y="462" class="value">254.81</text>
<text x="10" y="494" class="label">api.steampowered.com</text>
<rect x="180" y="478" width="580.0" height="22" fill="#4c78a8" rx="3"/>
<text x="768.0" y="494" class="value">266.78</text>
<line x1="180" y1="30" x2="180" y2="520" stroke="#ccc"/>
<line x1="180" y1="520" x2="760" y2="520" stroke="#ccc"/>
</svg>