<svg xmlns="http://www.w3.org/2000/svg" width="800" height="540">
<style> .label{font-family:DejaVu Sans,Verdana,Geneva,sans-serif;font-size:12px;fill:#333} .value{font-family:DejaVu Sans,Verdana,Geneva,sans-serif;font-size:12px;fill:#555} </style>
<text x="10" y="20" class="label">延迟柱状图（越低越好，Top 15），单位 ms</text>
<text x="10" y="46" class="label">rockstargames.com</text>
<rect x="180" y="30" width="115.44" height="22" fill="#4c78a8" rx="3"/>
<text x="303.44" y="46" class="value">65.46</text>
<text x="10" y="78" class="label">ubisoft.com</text>
<rect x="180" y="62" width="190.45" height="22" fill="#4c78a8" rx="3"/>
<text x="378.45" y="78" class="value">107.99</text>
<text x="10" y="110" class="label">community.akamai.steamstatic.com</text>
<rect x="180" y="94" width="208.79" height="22" fill="#4c78a8" rx="3"/>
<text x="396.78999999999996" y="110" class="value">118.39</text>
<text x="10" y="142" class="label">ea.com</text>
<rect x="180" y="126" width="218.95" height="22" fill="#4c78a8" rx="3"/>
<text x="406.95" y="142" class="value">124.15</text>
<text x="10" y="174" class="label">eaassets-a.akamaihd.net</text>
<rect x="180" y="158" width="221.61" height="22" fill="#4c78a8" rx="3"/>
<text x="409.61" y="174" class="value">125.66</text>
<text x="10" y="206" class="label">store.akamai.steamstatic.com</text>
<rect x="180" y="190" width="230.18" height="22" fill="#4c78a8" rx="3"/>
<text x="418.18" y="206" class="value">130.52</text>
<text x="10" y="238" class="label">cdn.cloudflare.steamstatic.com</text>
<rect x="180" y="222" width="317.39" height="22" fill="#4c78a8" rx="3"/>
<text x="505.39" y="238" class="value">179.97</text>
<text x="10" y="270" class="label">cdn.akamai.steamstatic.com</text>
<rect x="180" y="254" width="360.6" height="22" fill="#4c78a8" rx="3"/>
<text x="548.6" y="270" class="value">204.47</text>
<text x="10" y="302" class="label">origin.com</text>
<rect x="180" y="286" width="370.19" height="22" fill="#4c78a8" rx="3"/>
<text x="558.19" y="302" class="value">209.91</text>
<text x="10" y="334" class="label">steamcdn-a.akamaihd.net</text>
<rect x="180" y="318" width="441.28" height="22" fill="#4c78a8" rx="3"/>
<text x="629.28" y="334" class="value">250.22</text>
<text x="10" y="366" class="label">ubi.com</text>
<rect x="180" y="350" width="448.51" height="22" fill="#4c78a8" rx="3"/>
<text x="636.51" y="366" class="value">254.32</text>
<text x="10" y="398" class="label">easyanticheat.net</text>
<rect x="180" y="382" width="455.39" height="22" fill="#4c78a8" rx="3"/>
<text x="643.39" y="398" class="value">258.22</text>
<text x="10" y="430" class="label">www.steamcommunity.com</text>
<rect x="180" y="414" width="511.22" height="22" fill="#4c78a8" rx="3"/>
<text x="699.22" y="430" class="value">289.88</text>
<text x="10" y="462" class="label">socialclub.rockstargames.com</text>
<rect x="180" y="446" width="539.79" height="22" fill="#4c78a8" rx="3"/>
<text x="727.79" y="462" class="value">306.08</text>
<text x="10" y="494" class="label">blizzard.com</text>
<rect x="180" y="478" width="580.0" height="22" fill="#4c78a8" rx="3"/>
<text x="768.0" y="494" class="value">328.88</text>
<line x1="180" y1="30" x2="180" y2="520" stroke="#ccc"/>
<line x1="180" y1="520" x2="760" y2="520" stroke="#ccc"/>
</svg>