<svg xmlns="http://www.w3.org/2000/svg" width="800" height="540">
<style> .label{font-family:DejaVu Sans,Verdana,Geneva,sans-serif;font-size:12px;fill:#333} .value{font-family:DejaVu Sans,Verdana,Geneva,sans-serif;font-size:12px;fill:#555} </style>
<text x="10" y="20" class="label">延迟柱状图（越低越好，Top 15），单位 ms</text>
<text x="10" y="46" class="label">eaassets-a.akamaihd.net</text>
<rect x="180" y="30" width="238.34" height="22" fill="#4c78a8" rx="3"/>
<text x="426.34000000000003" y="46" class="value">82.40</text>
<text x="10" y="78" class="label">socialclub.rockstargames.com</text>
<rect x="180" y="62" width="246.61" height="22" fill="#4c78a8" rx="3"/>
<text x="434.61" y="78" class="value">85.26</text>
<text x="10" y="110" class="label">rockstargames.com</text>
<rect x="180" y="94" width="250.95" height="22" fill="#4c78a8" rx="3"/>
<text x="438.95" y="110" class="value">86.76</text>
<text x="10" y="142" class="label">fortnite.com</text>
<rect x="180" y="126" width="280.4" height="22" fill="#4c78a8" rx="3"/>
<text x="468.4" y="142" class="value">96.94</text>
<text x="10" y="174" class="label">blizzard.com</text>
<rect x="180" y="158" width="332.78" height="22" fill="#4c78a8" rx="3"/>
<text x="520.78" y="174" class="value">115.05</text>
<text x="10" y="206" class="label">battle.net</text>
<rect x="180" y="190" width="346.52" height="22" fill="#4c78a8" rx="3"/>
<text x="534.52" y="206" class="value">119.80</text>
<text x="10" y="238" class="label">ea.com</text>
<rect x="180" y="222" width="384.9" height="22" fill="#4c78a8" rx="3"/>
<text x="572.9" y="238" class="value">133.07</text>
<text x="10" y="270" class="label">ubi.com</text>
<rect x="180" y="254" width="393.72" height="22" fill="#4c78a8" rx="3"/>
<text x="581.72" y="270" class="value">136.12</text>
<text x="10" y="302" class="label">ubisoft.com</text>
<rect x="180" y="286" width="445.24" height="22" fill="#4c78a8" rx="3"/>
<text x="633.24" y="302" class="value">153.93</text>
<text x="10" y="334" class="label">epicgames.com</text>
<rect x="180" y="318" width="479.75" height="22" fill="#4c78a8" rx="3"/>
<text x="667.75" y="334" class="value">165.86</text>
<text x="10" y="366" class="label">community.akamai.steamstatic.com</text>
<rect x="180" y="350" width="542.83" height="22" fill="#4c78a8" rx="3"/>
<text x="730.83" y="366" class="value">187.67</text>
<text x="10" y="398" class="label">steamcdn-a.akamaihd.net</text>
<rect x="180" y="382" width="545.03" height="22" fill="#4c78a8" rx="3"/>
<text x="733.03" y="398" class="value">188.43</text>
<text x="10" y="430" class="label">static3.cdn.ubi.com</text>
<rect x="180" y="414" width="547.84" height="22" fill="#4c78a8" rx="3"/>
<text x="735.84" y="430" class="value">189.40</text>
<text x="10" y="462" class="label">unrealengine.com</text>
<rect x="180" y="446" width="572.71" height="22" fill="#4c78a8" rx="3"/>
<text x="760.71" y="462" class="value">198.00</text>
<text x="10" y="494" class="label">cdn.akamai.steamstatic.com</text>
<rect x="180" y="478" width="580.0" height="22" fill="#4c78a8" rx="3"/>
<text x="768.0" y="494" class="value">200.52</text>
<line x1="180" y1="30" x2="180" y2="520" stroke="#ccc"/>
<line x1="180" y1="520" x2="760" y2="520" stroke="#ccc"/>
</svg>