<svg xmlns="http://www.w3.org/2000/svg" width="800" height="540">
<style> .label{font-family:DejaVu Sans,Verdana,Geneva,sans-serif;font-size:12px;fill:#333} .value{font-family:DejaVu Sans,Verdana,Geneva,sans-serif;font-size:12px;fill:#555} </style>
<text x="10" y="20" class="label">延迟柱状图（越低越好，Top 15），单位 ms</text>
<text x="10" y="46" class="label">rockstargames.com</text>
<rect x="180" y="30" width="181.39" height="22" fill="#4c78a8" rx="3"/>
<text x="369.39" y="46" class="value">62.54</text>
<text x="10" y="78" class="label">eaassets-a.akamaihd.net</text>
<rect x="180" y="62" width="200.39" height="22" fill="#4c78a8" rx="3"/>
<text x="388.39" y="78" class="value">69.09</text>
<text x="10" y="110" class="label">socialclub.rockstargames.com</text>
<rect x="180" y="94" width="248.65" height="22" fill="#4c78a8" rx="3"/>
<text x="436.65" y="110" class="value">85.73</text>
<text x="10" y="142" class="label">blizzard.com</text>
<rect x="180" y="126" width="271.74" height="22" fill="#4c78a8" rx="3"/>
<text x="459.74" y="142" class="value">93.69</text>
<text x="10" y="174" class="label">battle.net</text>
<rect x="180" y="158" width="291.67" height="22" fill="#4c78a8" rx="3"/>
<text x="479.67" y="174" class="value">100.56</text>
<text x="10" y="206" class="label">store.akamai.steamstatic.com</text>
<rect x="180" y="190" width="301.38" height="22" fill="#4c78a8" rx="3"/>
<text x="489.38" y="206" class="value">103.91</text>
<text x="10" y="238" class="label">ubi.com</text>
<rect x="180" y="222" width="314.49" height="22" fill="#4c78a8" rx="3"/>
<text x="502.49" y="238" class="value">108.43</text>
<text x="10" y="270" class="label">unrealengine.com</text>
<rect x="180" y="254" width="318.47" height="22" fill="#4c78a8" rx="3"/>
<text x="506.47" y="270" class="value">109.80</text>
<text x="10" y="302" class="label">fortnite.com</text>
<rect x="180" y="286" width="353.27" height="22" fill="#4c78a8" rx="3"/>
<text x="541.27" y="302" class="value">121.80</text>
<text x="10" y="334" class="label">ea.com</text>
<rect x="180" y="318" width="454.53" height="22" fill="#4c78a8" rx="3"/>
<text x="642.53" y="334" class="value">156.71</text>
<text x="10" y="366" class="label">epicgames.com</text>
<rect x="180" y="350" width="469.75" height="22" fill="#4c78a8" rx="3"/>
<text x="657.75" y="366" class="value">161.96</text>
<text x="10" y="398" class="label">ubisoft.com</text>
<rect x="180" y="382" width="494.84" height="22" fill="#4c78a8" rx="3"/>
<text x="682.8399999999999" y="398" class="value">170.61</text>
<text x="10" y="430" class="label">cdn.akamai.steamstatic.com</text>
<rect x="180" y="414" width="548.79" height="22" fill="#4c78a8" rx="3"/>
<text x="736.79" y="430" class="value">189.21</text>
<text x="10" y="462" class="label">easyanticheat.net</text>
<rect x="180" y="446" width="552.3" height="22" fill="#4c78a8" rx="3"/>
<text x="740.3" y="462" class="value">190.42</text>
<text x="10" y="494" class="label">origin.com</text>
<rect x="180" y="478" width="580.0" height="22" fill="#4c78a8" rx="3"/>
<text x="768.0" y="494" class="value">199.97</text>
<line x1="180" y1="30" x2="180" y2="520" stroke="#ccc"/>
<line x1="180" y1="520" x2="760" y2="520" stroke="#ccc"/>
</svg>