<svg xmlns="http://www.w3.org/2000/svg" width="800" height="540">
<style> .label{font-family:DejaVu Sans,Verdana,Geneva,sans-serif;font-size:12px;fill:#333} .value{font-family:DejaVu Sans,Verdana,Geneva,sans-serif;font-size:12px;fill:#555} </style>
<text x="10" y="20" class="label">延迟柱状图（越低越好，Top 15），单位 ms</text>
<text x="10" y="46" class="label">ea.com</text>
<rect x="180" y="30" width="245.86" height="22" fill="#4c78a8" rx="3"/>
<text x="433.86" y="46" class="value">90.04</text>
<text x="10" y="78" class="label">community.akamai.steamstatic.com</text>
<rect x="180" y="62" width="274.56" height="22" fill="#4c78a8" rx="3"/>
<text x="462.56" y="78" class="value">100.55</text>
<text x="10" y="110" class="label">eaassets-a.akamaihd.net</text>
<rect x="180" y="94" width="317.16" height="22" fill="#4c78a8" rx="3"/>
<text x="505.16" y="110" class="value">116.15</text>
<text x="10" y="142" class="label">origin.com</text>
<rect x="180" y="126" width="397.16" height="22" fill="#4c78a8" rx="3"/>
<text x="585.1600000000001" y="142" class="value">145.45</text>
<text x="10" y="174" class="label">steamcdn-a.akamaihd.net</text>
<rect x="180" y="158" width="424.71" height="22" fill="#4c78a8" rx="3"/>
<text x="612.71" y="174" class="value">155.54</text>
<text x="10" y="206" class="label">cdn.cloudflare.steamstatic.com</text>
<rect x="180" y="190" width="425.09" height="22" fill="#4c78a8" rx="3"/>
<text x="613.0899999999999" y="206" class="value">155.68</text>
<text x="10" y="238" class="label">rockstargames.com</text>
<rect x="180" y="222" width="425.8" height="22" fill="#4c78a8" rx="3"/>
<text x="613.8" y="238" class="value">155.94</text>
<text x="10" y="270" class="label">easyanticheat.net</text>
<rect x="180" y="254" width="432.0" height="22" fill="#4c78a8" rx="3"/>
<text x="620.0" y="270" class="value">158.21</text>
<text x="10" y="302" class="label">battle.net</text>
<rect x="180" y="286" width="474.05" height="22" fill="#4c78a8" rx="3"/>
<text x="662.05" y="302" class="value">173.61</text>
<text x="10" y="334" class="label">blizzard.com</text>
<rect x="180" y="318" width="485.17" height="22" fill="#4c78a8" rx="3"/>
<text x="673.1700000000001" y="334" class="value">177.68</text>
<text x="10" y="366" class="label">store.akamai.steamstatic.com</text>
<rect x="180" y="350" width="492.24" height="22" fill="#4c78a8" rx="3"/>
<text x="680.24" y="366" class="value">180.27</text>
<text x="10" y="398" class="label">cdn.akamai.steamstatic.com</text>
<rect x="180" y="382" width="518.34" height="22" fill="#4c78a8" rx="3"/>
<text x="706.34" y="398" class="value">189.83</text>
<text x="10" y="430" class="label">ubi.com</text>
<rect x="180" y="414" width="556.05" height="22" fill="#4c78a8" rx="3"/>
<text x="744.05" y="430" class="value">203.64</text>
<text x="10" y="462" class="label">socialclub.rockstargames.com</text>
<rect x="180" y="446" width="578.91" height="22" fill="#4c78a8" rx="3"/>
<text x="766.91" y="462" class="value">212.01</text>
<text x="10" y="494" class="label">epicgames.com</text>
<rect x="180" y="478" width="580.0" height="22" fill="#4c78a8" rx="3"/>
<text x="768.0" y="494" class="value">212.41</text>
<line x1="180" y1="30" x2="180" y2="520" stroke="#ccc"/>
<line x1="180" y1="520" x2="760" y2="520" stroke="#ccc"/>
</svg>