<svg xmlns="http://www.w3.org/2000/svg" width="800" height="540">
<style> .label{font-family:DejaVu Sans,Verdana,Geneva,sans-serif;font-size:12px;fill:#333} .value{font-family:DejaVu Sans,Verdana,Geneva,sans-serif;font-size:12px;fill:#555} </style>
<text x="10" y="20" class="label">延迟柱状图（越低越好，Top 15），单位 ms</text>
<text x="10" y="46" class="label">steamcdn-a.akamaihd.net</text>
<rect x="180" y="30" width="304.17" height="22" fill="#4c78a8" rx="3"/>
<text x="492.17" y="46" class="value">127.48</text>
<text x="10" y="78" class="label">cdn.akamai.steamstatic.com</text>
<rect x="180" y="62" width="309.18" height="22" fill="#4c78a8" rx="3"/>
<text x="497.18" y="78" class="value">129.58</text>
<text x="10" y="110" class="label">ubisoft.com</text>
<rect x="180" y="94" width="339.15" height="22" fill="#4c78a8" rx="3"/>
<text x="527.15" y="110" class="value">142.14</text>
<text x="10" y="142" class="label">cdn.cloudflare.steamstatic.com</text>
<rect x="180" y="126" width="349.91" height="22" fill="#4c78a8" rx="3"/>
<text x="537.9100000000001" y="142" class="value">146.65</text>
<text x="10" y="174" class="label">eaassets-a.akamaihd.net</text>
<rect x="180" y="158" width="378.21" height="22" fill="#4c78a8" rx="3"/>
<text x="566.21" y="174" class="value">158.51</text>
<text x="10" y="206" class="label">api.steampowered.com</text>
<rect x="180" y="190" width="393.48" height="22" fill="#4c78a8" rx="3"/>
<text x="581.48" y="206" class="value">164.91</text>
<text x="10" y="238" class="label">community.akamai.steamstatic.com</text>
<rect x="180" y="222" width="425.84" height="22" fill="#4c78a8" rx="3"/>
<text x="613.8399999999999" y="238" class="value">178.47</text>
<text x="10" y="270" class="label">store.akamai.steamstatic.com</text>
<rect x="180" y="254" width="462.82" height="22" fill="#4c78a8" rx="3"/>
<text x="650.8199999999999" y="270" class="value">193.97</text>
<text x="10" y="302" class="label">rockstargames.com</text>
<rect x="180" y="286" width="465.88" height="22" fill="#4c78a8" rx="3"/>
<text x="653.88" y="302" class="value">195.25</text>
<text x="10" y="334" class="label">ubi.com</text>
<rect x="180" y="318" width="520.21" height="22" fill="#4c78a8" rx="3"/>
<text x="708.21" y="334" class="value">218.02</text>
<text x="10" y="366" class="label">blizzard.com</text>
<rect x="180" y="350" width="547.22" height="22" fill="#4c78a8" rx="3"/>
<text x="735.22" y="366" class="value">229.34</text>
<text x="10" y="398" class="label">battle.net</text>
<rect x="180" y="382" width="551.32" height="22" fill="#4c78a8" rx="3"/>
<text x="739.32" y="398" class="value">231.06</text>
<text x="10" y="430" class="label">www.steamcommunity.com</text>
<rect x="180" y="414" width="557.14" height="22" fill="#4c78a8" rx="3"/>
<text x="745.14" y="430" class="value">233.50</text>
<text x="10" y="462" class="label">origin.com</text>
<rect x="180" y="446" width="578.04" height="22" fill="#4c78a8" rx="3"/>
<text x="766.04" y="462" class="value">242.26</text>
<text x="10" y="494" class="label">ea.com</text>
<rect x="180" y="478" width="580.0" height="22" fill="#4c78a8" rx="3"/>
<text x="768.0" y="494" class="value">243.08</text>
<line x1="180" y1="30" x2="180" y2="520" stroke="#ccc"/>
<line x1="180" y1="520" x2="760" y2="520" stroke="#ccc"/>
</svg>