<svg xmlns="http://www.w3.org/2000/svg" width="800" height="540">
<style> .label{font-family:DejaVu Sans,Verdana,Geneva,sans-serif;font-size:12px;fill:#333} .value{font-family:DejaVu Sans,Verdana,Geneva,sans-serif;font-size:12px;fill:#555} </style>
<text x="10" y="20" class="label">延迟柱状图（越低越好，Top 15），单位 ms</text>
<text x="10" y="46" class="label">rockstargames.com</text>
<rect x="180" y="30" width="115.79" height="22" fill="#4c78a8" rx="3"/>
<text x="303.79" y="46" class="value">41.30</text>
<text x="10" y="78" class="label">socialclub.rockstargames.com</text>
<rect x="180" y="62" width="180.67" height="22" fill="#4c78a8" rx="3"/>
<text x="368.66999999999996" y="78" class="value">64.44</text>
<text x="10" y="110" class="label">battle.net</text>
<rect x="180" y="94" width="204.73" height="22" fill="#4c78a8" rx="3"/>
<text x="392.73" y="110" class="value">73.02</text>
<text x="10" y="142" class="label">ubi.com</text>
<rect x="180" y="126" width="214.2" height="22" fill="#4c78a8" rx="3"/>
<text x="402.2" y="142" class="value">76.40</text>
<text x="10" y="174" class="label">eaassets-a.akamaihd.net</text>
<rect x="180" y="158" width="232.99" height="22" fill="#4c78a8" rx="3"/>
<text x="420.99" y="174" class="value">83.10</text>
<text x="10" y="206" class="label">blizzard.com</text>
<rect x="180" y="190" width="241.82" height="22" fill="#4c78a8" rx="3"/>
<text x="429.82" y="206" class="value">86.25</text>
<text x="10" y="238" class="label">community.akamai.steamstatic.com</text>
<rect x="180" y="222" width="292.4" height="22" fill="#4c78a8" rx="3"/>
<text x="480.4" y="238" class="value">104.29</text>
<text x="10" y="270" class="label">cdn.akamai.steamstatic.com</text>
<rect x="180" y="254" width="294.44" height="22" fill="#4c78a8" rx="3"/>
<text x="482.44" y="270" class="value">105.02</text>
<text x="10" y="302" class="label">unrealengine.com</text>
<rect x="180" y="286" width="311.99" height="22" fill="#4c78a8" rx="3"/>
<text x="499.99" y="302" class="value">111.28</text>
<text x="10" y="334" class="label">steamcdn-a.akamaihd.net</text>
<rect x="180" y="318" width="329.71" height="22" fill="#4c78a8" rx="3"/>
<text x="517.71" y="334" class="value">117.60</text>
<text x="10" y="366" class="label">ea.com</text>
<rect x="180" y="350" width="362.41" height="22" fill="#4c78a8" rx="3"/>
<text x="550.4100000000001" y="366" class="value">129.26</text>
<text x="10" y="398" class="label">origin.com</text>
<rect x="180" y="382" width="458.15" height="22" fill="#4c78a8" rx="3"/>
<text x="646.15" y="398" class="value">163.41</text>
<text x="10" y="430" class="label">store.akamai.steamstatic.com</text>
<rect x="180" y="414" width="502.81" height="22" fill="#4c78a8" rx="3"/>
<text x="690.81" y="430" class="value">179.34</text>
<text x="10" y="462" class="label">epicgames.com</text>
<rect x="180" y="446" width="557.91" height="22" fill="#4c78a8" rx="3"/>
<text x="745.91" y="462" class="value">198.99</text>
<text x="10" y="494" class="label">fortnite.com</text>
<rect x="180" y="478" width="580.0" height="22" fill="#4c78a8" rx="3"/>
<text x="768.0" y="494" class="value">206.87</text>
<line x1="180" y1="30" x2="180" y2="520" stroke="#ccc"/>
<line x1="180" y1="520" x2="760" y2="520" stroke="#ccc"/>
</svg>