<svg xmlns="http://www.w3.org/2000/svg" width="800" height="540">
<style> .label{font-family:DejaVu Sans,Verdana,Geneva,sans-serif;font-size:12px;fill:#333} .value{font-family:DejaVu Sans,Verdana,Geneva,sans-serif;font-size:12px;fill:#555} </style>
<text x="10" y="20" class="label">延迟柱状图（越低越好，Top 15），单位 ms</text>
<text x="10" y="46" class="label">rockstargames.com</text>
<rect x="180" y="30" width="80.77" height="22" fill="#4c78a8" rx="3"/>
<text x="268.77" y="46" class="value">38.69</text>
<text x="10" y="78" class="label">ea.com</text>
<rect x="180" y="62" width="139.46" height="22" fill="#4c78a8" rx="3"/>
<text x="327.46000000000004" y="78" class="value">66.80</text>
<text x="10" y="110" class="label">eaassets-a.akamaihd.net</text>
<rect x="180" y="94" width="169.06" height="22" fill="#4c78a8" rx="3"/>
<text x="357.06" y="110" class="value">80.98</text>
<text x="10" y="142" class="label">community.akamai.steamstatic.com</text>
<rect x="180" y="126" width="196.16" height="22" fill="#4c78a8" rx="3"/>
<text x="384.15999999999997" y="142" class="value">93.96</text>
<text x="10" y="174" class="label">ubisoft.com</text>
<rect x="180" y="158" width="244.3" height="22" fill="#4c78a8" rx="3"/>
<text x="432.3" y="174" class="value">117.02</text>
<text x="10" y="206" class="label">cdn.akamai.steamstatic.com</text>
<rect x="180" y="190" width="264.15" height="22" fill="#4c78a8" rx="3"/>
<text x="452.15" y="206" class="value">126.53</text>
<text x="10" y="238" class="label">easyanticheat.net</text>
<rect x="180" y="222" width="290.0" height="22" fill="#4c78a8" rx="3"/>
<text x="478.0" y="238" class="value">138.91</text>
<text x="10" y="270" class="label">cdn.cloudflare.steamstatic.com</text>
<rect x="180" y="254" width="309.54" height="22" fill="#4c78a8" rx="3"/>
<text x="497.54" y="270" class="value">148.27</text>
<text x="10" y="302" class="label">origin.com</text>
<rect x="180" y="286" width="313.53" height="22" fill="#4c78a8" rx="3"/>
<text x="501.53" y="302" class="value">150.18</text>
<text x="10" y="334" class="label">store.akamai.steamstatic.com</text>
<rect x="180" y="318" width="343.7" height="22" fill="#4c78a8" rx="3"/>
<text x="531.7" y="334" class="value">164.63</text>
<text x="10" y="366" class="label">steamcdn-a.akamaihd.net</text>
<rect x="180" y="350" width="431.71" height="22" fill="#4c78a8" rx="3"/>
<text x="619.71" y="366" class="value">206.79</text>
<text x="10" y="398" class="label">www.steamcommunity.com</text>
<rect x="180" y="382" width="527.58" height="22" fill="#4c78a8" rx="3"/>
<text x="715.58" y="398" class="value">252.71</text>
<text x="10" y="430" class="label">api.steampowered.com</text>
<rect x="180" y="414" width="553.38" height="22" fill="#4c78a8" rx="3"/>
<text x="741.38" y="430" class="value">265.07</text>
<text x="10" y="462" class="label">steamcommunity.com</text>
<rect x="180" y="446" width="571.48" height="22" fill="#4c78a8" rx="3"/>
<text x="759.48" y="462" class="value">273.74</text>
<text x="10" y="494" class="label">launcher-public-service-prod06.ol.epicgames.com</text>
<rect x="180" y="478" width="580.0" height="22" fill="#4c78a8" rx="3"/>
<text x="768.0" y="494" class="value">277.82</text>
<line x1="180" y1="30" x2="180" y2="520" stroke="#ccc"/>
<line x1="180" y1="520" x2="760" y2="520" stroke="#ccc"/>
</svg>