<svg xmlns="http://www.w3.org/2000/svg" width="800" height="540">
<style> .label{font-family:DejaVu Sans,Verdana,Geneva,sans-serif;font-size:12px;fill:#333} .value{font-family:DejaVu Sans,Verdana,Geneva,sans-serif;font-size:12px;fill:#555} </style>
<text x="10" y="20" class="label">延迟柱状图（越低越好，Top 15），单位 ms</text>
<text x="10" y="46" class="label">rockstargames.com</text>
<rect x="180" y="30" width="294.04" height="22" fill="#4c78a8" rx="3"/>
<text x="482.04" y="46" class="value">126.17</text>
<text x="10" y="78" class="label">blizzard.com</text>
<rect x="180" y="62" width="356.53" height="22" fill="#4c78a8" rx="3"/>
<text x="544.53" y="78" class="value">152.98</text>
<text x="10" y="110" class="label">ubi.com</text>
<rect x="180" y="94" width="373.14" height="22" fill="#4c78a8" rx="3"/>
<text x="561.14" y="110" class="value">160.11</text>
<text x="10" y="142" class="label">easyanticheat.net</text>
<rect x="180" y="126" width="385.87" height="22" fill="#4c78a8" rx="3"/>
<text x="573.87" y="142" class="value">165.57</text>
<text x="10" y="174" class="label">cdn.cloudflare.steamstatic.com</text>
<rect x="180" y="158" width="397.75" height="22" fill="#4c78a8" rx="3"/>
<text x="585.75" y="174" class="value">170.67</text>
<text x="10" y="206" class="label">steam-chat.com</text>
<rect x="180" y="190" width="426.07" height="22" fill="#4c78a8" rx="3"/>
<text x="614.0699999999999" y="206" class="value">182.82</text>
<text x="10" y="238" class="label">ea.com</text>
<rect x="180" y="222" width="426.7" height="22" fill="#4c78a8" rx="3"/>
<text x="614.7" y="238" class="value">183.09</text>
<text x="10" y="270" class="label">launcher-public-service-prod06.ol.epicgames.com</text>
<rect x="180" y="254" width="451.75" height="22" fill="#4c78a8" rx="3"/>
<text x="639.75" y="270" class="value">193.84</text>
<text x="10" y="302" class="label">socialclub.rockstargames.com</text>
<rect x="180" y="286" width="466.18" height="22" fill="#4c78a8" rx="3"/>
<text x="654.1800000000001" y="302" class="value">200.03</text>
<text x="10" y="334" class="label">ubisoft.com</text>
<rect x="180" y="318" width="470.09" height="22" fill="#4c78a8" rx="3"/>
<text x="658.0899999999999" y="334" class="value">201.71</text>
<text x="10" y="366" class="label">cdn.akamai.steamstatic.com</text>
<rect x="180" y="350" width="472.1" height="22" fill="#4c78a8" rx="3"/>
<text x="660.1" y="366" class="value">202.57</text>
<text x="10" y="398" class="label">store.akamai.steamstatic.com</text>
<rect x="180" y="382" width="481.0" height="22" fill="#4c78a8" rx="3"/>
<text x="669.0" y="398" class="value">206.39</text>
<text x="10" y="430" class="label">steamcdn-a.akamaihd.net</text>
<rect x="180" y="414" width="519.2" height="22" fill="#4c78a8" rx="3"/>
<text x="707.2" y="430" class="value">222.78</text>
<text x="10" y="462" class="label">battle.net</text>
<rect x="180" y="446" width="564.43" height="22" fill="#4c78a8" rx="3"/>
<text x="752.43" y="462" class="value">242.19</text>
<text x="10" y="494" class="label">community.akamai.steamstatic.com</text>
<rect x="180" y="478" width="580.0" height="22" fill="#4c78a8" rx="3"/>
<text x="768.0" y="494" class="value">248.87</text>
<line x1="180" y1="30" x2="180" y2="520" stroke="#ccc"/>
<line x1="180" y1="520" x2="760" y2="520" stroke="#ccc"/>
</svg>