<svg xmlns="http://www.w3.org/2000/svg" width="800" height="540">
<style> .label{font-family:DejaVu Sans,Verdana,Geneva,sans-serif;font-size:12px;fill:#333} .value{font-family:DejaVu Sans,Verdana,Geneva,sans-serif;font-size:12px;fill:#555} </style>
<text x="10" y="20" class="label">延迟柱状图（越低越好，Top 15），单位 ms</text>
<text x="10" y="46" class="label">rockstargames.com</text>
<rect x="180" y="30" width="80.44" height="22" fill="#4c78a8" rx="3"/>
<text x="268.44" y="46" class="value">40.73</text>
<text x="10" y="78" class="label">ea.com</text>
<rect x="180" y="62" width="132.14" height="22" fill="#4c78a8" rx="3"/>
<text x="320.14" y="78" class="value">66.91</text>
<text x="10" y="110" class="label">ubisoft.com</text>
<rect x="180" y="94" width="147.19" height="22" fill="#4c78a8" rx="3"/>
<text x="335.19" y="110" class="value">74.53</text>
<text x="10" y="142" class="label">steamcdn-a.akamaihd.net</text>
<rect x="180" y="126" width="197.39" height="22" fill="#4c78a8" rx="3"/>
<text x="385.39" y="142" class="value">99.95</text>
<text x="10" y="174" class="label">eaassets-a.akamaihd.net</text>
<rect x="180" y="158" width="225.16" height="22" fill="#4c78a8" rx="3"/>
<text x="413.15999999999997" y="174" class="value">114.01</text>
<text x="10" y="206" class="label">store.akamai.steamstatic.com</text>
<rect x="180" y="190" width="242.42" height="22" fill="#4c78a8" rx="3"/>
<text x="430.41999999999996" y="206" class="value">122.75</text>
<text x="10" y="238" class="label">cdn.cloudflare.steamstatic.com</text>
<rect x="180" y="222" width="287.96" height="22" fill="#4c78a8" rx="3"/>
<text x="475.96" y="238" class="value">145.81</text>
<text x="10" y="270" class="label">static3.cdn.ubi.com</text>
<rect x="180" y="254" width="327.71" height="22" fill="#4c78a8" rx="3"/>
<text x="515.71" y="270" class="value">165.94</text>
<text x="10" y="302" class="label">community.akamai.steamstatic.com</text>
<rect x="180" y="286" width="342.34" height="22" fill="#4c78a8" rx="3"/>
<text x="530.3399999999999" y="302" class="value">173.35</text>
<text x="10" y="334" class="label">cdn.akamai.steamstatic.com</text>
<rect x="180" y="318" width="407.97" height="22" fill="#4c78a8" rx="3"/>
<text x="595.97" y="334" class="value">206.58</text>
<text x="10" y="366" class="label">easyanticheat.net</text>
<rect x="180" y="350" width="417.55" height="22" fill="#4c78a8" rx="3"/>
<text x="605.55" y="366" class="value">211.43</text>
<text x="10" y="398" class="label">origin.com</text>
<rect x="180" y="382" width="500.27" height="22" fill="#4c78a8" rx="3"/>
<text x="688.27" y="398" class="value">253.32</text>
<text x="10" y="430" class="label">www.steamcommunity.com</text>
<rect x="180" y="414" width="547.83" height="22" fill="#4c78a8" rx="3"/>
<text x="735.83" y="430" class="value">277.40</text>
<text x="10" y="462" class="label">steamcommunity.com</text>
<rect x="180" y="446" width="562.27" height="22" fill="#4c78a8" rx="3"/>
<text x="750.27" y="462" class="value">284.71</text>
<text x="10" y="494" class="label">steam-chat.com</text>
<rect x="180" y="478" width="580.0" height="22" fill="#4c78a8" rx="3"/>
<text x="768.0" y="494" class="value">293.69</text>
<line x1="180" y1="30" x2="180" y2="520" stroke="#ccc"/>
<line x1="180" y1="520" x2="760" y2="520" stroke="#ccc"/>
</svg>