<svg xmlns="http://www.w3.org/2000/svg" width="800" height="540">
<style> .label{font-family:DejaVu Sans,Verdana,Geneva,sans-serif;font-size:12px;fill:#333} .value{font-family:DejaVu Sans,Verdana,Geneva,sans-serif;font-size:12px;fill:#555} </style>
<text x="10" y="20" class="label">延迟柱状图（越低越好，Top 15），单位 ms</text>
<text x="10" y="46" class="label">rockstargames.com</text>
<rect x="180" y="30" width="263.08" height="22" fill="#4c78a8" rx="3"/>
<text x="451.08" y="46" class="value">128.22</text>
<text x="10" y="78" class="label">eaassets-a.akamaihd.net</text>
<rect x="180" y="62" width="285.86" height="22" fill="#4c78a8" rx="3"/>
<text x="473.86" y="78" class="value">139.32</text>
<text x="10" y="110" class="label">store.akamai.steamstatic.com</text>
<rect x="180" y="94" width="299.62" height="22" fill="#4c78a8" rx="3"/>
<text x="487.62" y="110" class="value">146.03</text>
<text x="10" y="142" class="label">socialclub.rockstargames.com</text>
<rect x="180" y="126" width="303.97" height="22" fill="#4c78a8" rx="3"/>
<text x="491.97" y="142" class="value">148.15</text>
<text x="10" y="174" class="label">ubisoft.com</text>
<rect x="180" y="158" width="318.36" height="22" fill="#4c78a8" rx="3"/>
<text x="506.36" y="174" class="value">155.16</text>
<text x="10" y="206" class="label">ea.com</text>
<rect x="180" y="190" width="337.13" height="22" fill="#4c78a8" rx="3"/>
<text x="525.13" y="206" class="value">164.31</text>
<text x="10" y="238" class="label">origin.com</text>
<rect x="180" y="222" width="386.19" height="22" fill="#4c78a8" rx="3"/>
<text x="574.19" y="238" class="value">188.22</text>
<text x="10" y="270" class="label">static3.cdn.ubi.com</text>
<rect x="180" y="254" width="389.37" height="22" fill="#4c78a8" rx="3"/>
<text x="577.37" y="270" class="value">189.77</text>
<text x="10" y="302" class="label">community.akamai.steamstatic.com</text>
<rect x="180" y="286" width="396.14" height="22" fill="#4c78a8" rx="3"/>
<text x="584.14" y="302" class="value">193.07</text>
<text x="10" y="334" class="label">battle.net</text>
<rect x="180" y="318" width="400.92" height="22" fill="#4c78a8" rx="3"/>
<text x="588.9200000000001" y="334" class="value">195.40</text>
<text x="10" y="366" class="label">blizzard.com</text>
<rect x="180" y="350" width="408.78" height="22" fill="#4c78a8" rx="3"/>
<text x="596.78" y="366" class="value">199.23</text>
<text x="10" y="398" class="label">ubi.com</text>
<rect x="180" y="382" width="451.6" height="22" fill="#4c78a8" rx="3"/>
<text x="639.6" y="398" class="value">220.10</text>
<text x="10" y="430" class="label">api.steampowered.com</text>
<rect x="180" y="414" width="502.03" height="22" fill="#4c78a8" rx="3"/>
<text x="690.03" y="430" class="value">244.68</text>
<text x="10" y="462" class="label">steamcdn-a.akamaihd.net</text>
<rect x="180" y="446" width="508.08" height="22" fill="#4c78a8" rx="3"/>
<text x="696.0799999999999" y="462" class="value">247.63</text>
<text x="10" y="494" class="label">easyanticheat.net</text>
<rect x="180" y="478" width="580.0" height="22" fill="#4c78a8" rx="3"/>
<text x="768.0" y="494" class="value">282.68</text>
<line x1="180" y1="30" x2="180" y2="520" stroke="#ccc"/>
<line x1="180" y1="520" x2="760" y2="520" stroke="#ccc"/>
</svg>