<svg xmlns="http://www.w3.org/2000/svg" width="800" height="540">
<style> .label{font-family:DejaVu Sans,Verdana,Geneva,sans-serif;font-size:12px;fill:#333} .value{font-family:DejaVu Sans,Verdana,Geneva,sans-serif;font-size:12px;fill:#555} </style>
<text x="10" y="20" class="label">延迟柱状图（越低越好，Top 15），单位 ms</text>
<text x="10" y="46" class="label">eaassets-a.akamaihd.net</text>
<rect x="180" y="30" width="92.49" height="22" fill="#4c78a8" rx="3"/>
<text x="280.49" y="46" class="value">40.95</text>
<text x="10" y="78" class="label">rockstargames.com</text>
<rect x="180" y="62" width="177.98" height="22" fill="#4c78a8" rx="3"/>
<text x="365.98" y="78" class="value">78.80</text>
<text x="10" y="110" class="label">steamcdn-a.akamaihd.net</text>
<rect x="180" y="94" width="194.89" height="22" fill="#4c78a8" rx="3"/>
<text x="382.89" y="110" class="value">86.29</text>
<text x="10" y="142" class="label">community.akamai.steamstatic.com</text>
<rect x="180" y="126" width="249.01" height="22" fill="#4c78a8" rx="3"/>
<text x="437.01" y="142" class="value">110.25</text>
<text x="10" y="174" class="label">ubisoft.com</text>
<rect x="180" y="158" width="259.53" height="22" fill="#4c78a8" rx="3"/>
<text x="447.53" y="174" class="value">114.91</text>
<text x="10" y="206" class="label">origin.com</text>
<rect x="180" y="190" width="288.98" height="22" fill="#4c78a8" rx="3"/>
<text x="476.98" y="206" class="value">127.95</text>
<text x="10" y="238" class="label">ea.com</text>
<rect x="180" y="222" width="377.81" height="22" fill="#4c78a8" rx="3"/>
<text x="565.81" y="238" class="value">167.28</text>
<text x="10" y="270" class="label">static3.cdn.ubi.com</text>
<rect x="180" y="254" width="384.75" height="22" fill="#4c78a8" rx="3"/>
<text x="572.75" y="270" class="value">170.35</text>
<text x="10" y="302" class="label">easyanticheat.net</text>
<rect x="180" y="286" width="393.6" height="22" fill="#4c78a8" rx="3"/>
<text x="581.6" y="302" class="value">174.27</text>
<text x="10" y="334" class="label">cdn.cloudflare.steamstatic.com</text>
<rect x="180" y="318" width="420.45" height="22" fill="#4c78a8" rx="3"/>
<text x="608.45" y="334" class="value">186.16</text>
<text x="10" y="366" class="label">store.akamai.steamstatic.com</text>
<rect x="180" y="350" width="421.4" height="22" fill="#4c78a8" rx="3"/>
<text x="609.4" y="366" class="value">186.58</text>
<text x="10" y="398" class="label">cdn.akamai.steamstatic.com</text>
<rect x="180" y="382" width="434.14" height="22" fill="#4c78a8" rx="3"/>
<text x="622.14" y="398" class="value">192.22</text>
<text x="10" y="430" class="label">steamcommunity.com</text>
<rect x="180" y="414" width="527.96" height="22" fill="#4c78a8" rx="3"/>
<text x="715.96" y="430" class="value">233.76</text>
<text x="10" y="462" class="label">gog.com</text>
<rect x="180" y="446" width="528.6" height="22" fill="#4c78a8" rx="3"/>
<text x="716.6" y="462" class="value">234.04</text>
<text x="10" y="494" class="label">launcher-public-service-prod06.ol.epicgames.com</text>
<rect x="180" y="478" width="580.0" height="22" fill="#4c78a8" rx="3"/>
<text x="768.0" y="494" class="value">256.80</text>
<line x1="180" y1="30" x2="180" y2="520" stroke="#ccc"/>
<line x1="180" y1="520" x2="760" y2="520" stroke="#ccc"/>
</svg>