<svg xmlns="http://www.w3.org/2000/svg" width="800" height="540">
<style> .label{font-family:DejaVu Sans,Verdana,Geneva,sans-serif;font-size:12px;fill:#333} .value{font-family:DejaVu Sans,Verdana,Geneva,sans-serif;font-size:12px;fill:#555} </style>
<text x="10" y="20" class="label">延迟柱状图（Top 15），单位 ms</text>
<text x="10" y="46" class="label">battlenet.com.cn</text>
<rect x="180" y="30" width="580.0" height="22" fill="#4c78a8" rx="3"/>
<text x="768.0" y="46" class="value">1027.40</text>
<text x="10" y="78" class="label">store.steampowered.com</text>
<rect x="180" y="62" width="462.02" height="22" fill="#4c78a8" rx="3"/>
<text x="650.02" y="78" class="value">818.41</text>
<text x="10" y="110" class="label">gogalaxy.com</text>
<rect x="180" y="94" width="246.6" height="22" fill="#4c78a8" rx="3"/>
<text x="434.6" y="110" class="value">436.83</text>
<text x="10" y="142" class="label">cdn.cloudflare.steamstatic.com</text>
<rect x="180" y="126" width="237.05" height="22" fill="#4c78a8" rx="3"/>
<text x="425.05" y="142" class="value">419.91</text>
<text x="10" y="174" class="label">steamcommunity.com</text>
<rect x="180" y="158" width="225.82" height="22" fill="#4c78a8" rx="3"/>
<text x="413.82" y="174" class="value">400.01</text>
<text x="10" y="206" class="label">uplay.com</text>
<rect x="180" y="190" width="187.03" height="22" fill="#4c78a8" rx="3"/>
<text x="375.03" y="206" class="value">331.30</text>
<text x="10" y="238" class="label">steam-chat.com</text>
<rect x="180" y="222" width="182.57" height="22" fill="#4c78a8" rx="3"/>
<text x="370.57" y="238" class="value">323.40</text>
<text x="10" y="270" class="label">easyanticheat.net</text>
<rect x="180" y="254" width="177.91" height="22" fill="#4c78a8" rx="3"/>
<text x="365.90999999999997" y="270" class="value">315.14</text>
<text x="10" y="302" class="label">api.steampowered.com</text>
<rect x="180" y="286" width="172.78" height="22" fill="#4c78a8" rx="3"/>
<text x="360.78" y="302" class="value">306.06</text>
<text x="10" y="334" class="label">launcher-public-service-prod06.ol.epicgames.com</text>
<rect x="180" y="318" width="156.7" height="22" fill="#4c78a8" rx="3"/>
<text x="344.7" y="334" class="value">277.58</text>
<text x="10" y="366" class="label">gog.com</text>
<rect x="180" y="350" width="138.82" height="22" fill="#4c78a8" rx="3"/>
<text x="326.82" y="366" class="value">245.91</text>
<text x="10" y="398" class="label">www.steamcommunity.com</text>
<rect x="180" y="382" width="138.29" height="22" fill="#4c78a8" rx="3"/>
<text x="326.28999999999996" y="398" class="value">244.97</text>
<text x="10" y="430" class="label">steamcdn-a.akamaihd.net</text>
<rect x="180" y="414" width="135.42" height="22" fill="#4c78a8" rx="3"/>
<text x="323.41999999999996" y="430" class="value">239.88</text>
<text x="10" y="462" class="label">ubisoft.com</text>
<rect x="180" y="446" width="120.84" height="22" fill="#4c78a8" rx="3"/>
<text x="308.84000000000003" y="462" class="value">214.06</text>
<text x="10" y="494" class="label">origin.com</text>
<rect x="180" y="478" width="117.24" height="22" fill="#4c78a8" rx="3"/>
<text x="305.24" y="494" class="value">207.68</text>
<line x1="180" y1="30" x2="180" y2="520" stroke="#ccc"/>
<line x1="180" y1="520" x2="760" y2="520" stroke="#ccc"/>
</svg>