<svg xmlns="http://www.w3.org/2000/svg" width="800" height="540">
<style> .label{font-family:DejaVu Sans,Verdana,Geneva,sans-serif;font-size:12px;fill:#333} .value{font-family:DejaVu Sans,Verdana,Geneva,sans-serif;font-size:12px;fill:#555} </style>
<text x="10" y="20" class="label">延迟柱状图（越低越好，Top 15），单位 ms</text>
<text x="10" y="46" class="label">rockstargames.com</text>
<rect x="180" y="30" width="143.42" height="22" fill="#4c78a8" rx="3"/>
<text x="331.41999999999996" y="46" class="value">50.77</text>
<text x="10" y="78" class="label">fortnite.com</text>
<rect x="180" y="62" width="179.66" height="22" fill="#4c78a8" rx="3"/>
<text x="367.65999999999997" y="78" class="value">63.60</text>
<text x="10" y="110" class="label">socialclub.rockstargames.com</text>
<rect x="180" y="94" width="240.9" height="22" fill="#4c78a8" rx="3"/>
<text x="428.9" y="110" class="value">85.28</text>
<text x="10" y="142" class="label">epicgames.com</text>
<rect x="180" y="126" width="267.54" height="22" fill="#4c78a8" rx="3"/>
<text x="455.54" y="142" class="value">94.71</text>
<text x="10" y="174" class="label">eaassets-a.akamaihd.net</text>
<rect x="180" y="158" width="270.59" height="22" fill="#4c78a8" rx="3"/>
<text x="458.59" y="174" class="value">95.79</text>
<text x="10" y="206" class="label">battle.net</text>
<rect x="180" y="190" width="289.07" height="22" fill="#4c78a8" rx="3"/>
<text x="477.07" y="206" class="value">102.33</text>
<text x="10" y="238" class="label">blizzard.com</text>
<rect x="180" y="222" width="298.67" height="22" fill="#4c78a8" rx="3"/>
<text x="486.67" y="238" class="value">105.73</text>
<text x="10" y="270" class="label">unrealengine.com</text>
<rect x="180" y="254" width="324.69" height="22" fill="#4c78a8" rx="3"/>
<text x="512.69" y="270" class="value">114.94</text>
<text x="10" y="302" class="label">ubisoft.com</text>
<rect x="180" y="286" width="349.04" height="22" fill="#4c78a8" rx="3"/>
<text x="537.04" y="302" class="value">123.56</text>
<text x="10" y="334" class="label">ubi.com</text>
<rect x="180" y="318" width="349.69" height="22" fill="#4c78a8" rx="3"/>
<text x="537.69" y="334" class="value">123.79</text>
<text x="10" y="366" class="label">ea.com</text>
<rect x="180" y="350" width="385.23" height="22" fill="#4c78a8" rx="3"/>
<text x="573.23" y="366" class="value">136.37</text>
<text x="10" y="398" class="label">origin.com</text>
<rect x="180" y="382" width="465.0" height="22" fill="#4c78a8" rx="3"/>
<text x="653.0" y="398" class="value">164.61</text>
<text x="10" y="430" class="label">cdn.cloudflare.steamstatic.com</text>
<rect x="180" y="414" width="527.77" height="22" fill="#4c78a8" rx="3"/>
<text x="715.77" y="430" class="value">186.83</text>
<text x="10" y="462" class="label">launcher-public-service-prod06.ol.epicgames.com</text>
<rect x="180" y="446" width="567.4" height="22" fill="#4c78a8" rx="3"/>
<text x="755.4" y="462" class="value">200.86</text>
<text x="10" y="494" class="label">steamcdn-a.akamaihd.net</text>
<rect x="180" y="478" width="580.0" height="22" fill="#4c78a8" rx="3"/>
<text x="768.0" y="494" class="value">205.32</text>
<line x1="180" y1="30" x2="180" y2="520" stroke="#ccc"/>
<line x1="180" y1="520" x2="760" y2="520" stroke="#ccc"/>
</svg>