<svg xmlns="http://www.w3.org/2000/svg" width="800" height="540">
<style> .label{font-family:DejaVu Sans,Verdana,Geneva,sans-serif;font-size:12px;fill:#333} .value{font-family:DejaVu Sans,Verdana,Geneva,sans-serif;font-size:12px;fill:#555} </style>
<text x="10" y="20" class="label">延迟柱状图（越低越好，Top 15），单位 ms</text>
<text x="10" y="46" class="label">rockstargames.com</text>
<rect x="180" y="30" width="95.96" height="22" fill="#4c78a8" rx="3"/>
<text x="283.96" y="46" class="value">45.48</text>
<text x="10" y="78" class="label">eaassets-a.akamaihd.net</text>
<rect x="180" y="62" width="185.82" height="22" fill="#4c78a8" rx="3"/>
<text x="373.82" y="78" class="value">88.07</text>
<text x="10" y="110" class="label">origin.com</text>
<rect x="180" y="94" width="220.8" height="22" fill="#4c78a8" rx="3"/>
<text x="408.8" y="110" class="value">104.65</text>
<text x="10" y="142" class="label">ubisoft.com</text>
<rect x="180" y="126" width="220.8" height="22" fill="#4c78a8" rx="3"/>
<text x="408.8" y="142" class="value">104.65</text>
<text x="10" y="174" class="label">steamcdn-a.akamaihd.net</text>
<rect x="180" y="158" width="235.31" height="22" fill="#4c78a8" rx="3"/>
<text x="423.31" y="174" class="value">111.53</text>
<text x="10" y="206" class="label">ea.com</text>
<rect x="180" y="190" width="272.15" height="22" fill="#4c78a8" rx="3"/>
<text x="460.15" y="206" class="value">128.99</text>
<text x="10" y="238" class="label">community.akamai.steamstatic.com</text>
<rect x="180" y="222" width="286.41" height="22" fill="#4c78a8" rx="3"/>
<text x="474.41" y="238" class="value">135.75</text>
<text x="10" y="270" class="label">cdn.cloudflare.steamstatic.com</text>
<rect x="180" y="254" width="367.45" height="22" fill="#4c78a8" rx="3"/>
<text x="555.45" y="270" class="value">174.16</text>
<text x="10" y="302" class="label">store.akamai.steamstatic.com</text>
<rect x="180" y="286" width="375.24" height="22" fill="#4c78a8" rx="3"/>
<text x="563.24" y="302" class="value">177.85</text>
<text x="10" y="334" class="label">cdn.akamai.steamstatic.com</text>
<rect x="180" y="318" width="389.63" height="22" fill="#4c78a8" rx="3"/>
<text x="577.63" y="334" class="value">184.67</text>
<text x="10" y="366" class="label">easyanticheat.net</text>
<rect x="180" y="350" width="425.92" height="22" fill="#4c78a8" rx="3"/>
<text x="613.9200000000001" y="366" class="value">201.87</text>
<text x="10" y="398" class="label">www.steamcommunity.com</text>
<rect x="180" y="382" width="533.67" height="22" fill="#4c78a8" rx="3"/>
<text x="721.67" y="398" class="value">252.94</text>
<text x="10" y="430" class="label">steam-chat.com</text>
<rect x="180" y="414" width="553.25" height="22" fill="#4c78a8" rx="3"/>
<text x="741.25" y="430" class="value">262.22</text>
<text x="10" y="462" class="label">steamcommunity.com</text>
<rect x="180" y="446" width="563.8" height="22" fill="#4c78a8" rx="3"/>
<text x="751.8" y="462" class="value">267.22</text>
<text x="10" y="494" class="label">battle.net</text>
<rect x="180" y="478" width="580.0" height="22" fill="#4c78a8" rx="3"/>
<text x="768.0" y="494" class="value">274.90</text>
<line x1="180" y1="30" x2="180" y2="520" stroke="#ccc"/>
<line x1="180" y1="520" x2="760" y2="520" stroke="#ccc"/>
</svg>