<svg xmlns="http://www.w3.org/2000/svg" width="800" height="540">
<style> .label{font-family:DejaVu Sans,Verdana,Geneva,sans-serif;font-size:12px;fill:#333} .value{font-family:DejaVu Sans,Verdana,Geneva,sans-serif;font-size:12px;fill:#555} </style>
<text x="10" y="20" class="label">延迟柱状图（越低越好，Top 15），单位 ms</text>
<text x="10" y="46" class="label">rockstargames.com</text>
<rect x="180" y="30" width="163.84" height="22" fill="#4c78a8" rx="3"/>
<text x="351.84000000000003" y="46" class="value">56.94</text>
<text x="10" y="78" class="label">socialclub.rockstargames.com</text>
<rect x="180" y="62" width="266.36" height="22" fill="#4c78a8" rx="3"/>
<text x="454.36" y="78" class="value">92.57</text>
<text x="10" y="110" class="label">eaassets-a.akamaihd.net</text>
<rect x="180" y="94" width="271.17" height="22" fill="#4c78a8" rx="3"/>
<text x="459.17" y="110" class="value">94.24</text>
<text x="10" y="142" class="label">ubi.com</text>
<rect x="180" y="126" width="287.42" height="22" fill="#4c78a8" rx="3"/>
<text x="475.42" y="142" class="value">99.89</text>
<text x="10" y="174" class="label">blizzard.com</text>
<rect x="180" y="158" width="293.32" height="22" fill="#4c78a8" rx="3"/>
<text x="481.32" y="174" class="value">101.94</text>
<text x="10" y="206" class="label">unrealengine.com</text>
<rect x="180" y="190" width="314.99" height="22" fill="#4c78a8" rx="3"/>
<text x="502.99" y="206" class="value">109.47</text>
<text x="10" y="238" class="label">ubisoft.com</text>
<rect x="180" y="222" width="346.33" height="22" fill="#4c78a8" rx="3"/>
<text x="534.3299999999999" y="238" class="value">120.36</text>
<text x="10" y="270" class="label">ea.com</text>
<rect x="180" y="254" width="387.21" height="22" fill="#4c78a8" rx="3"/>
<text x="575.21" y="270" class="value">134.57</text>
<text x="10" y="302" class="label">battle.net</text>
<rect x="180" y="286" width="402.15" height="22" fill="#4c78a8" rx="3"/>
<text x="590.15" y="302" class="value">139.76</text>
<text x="10" y="334" class="label">epicgames.com</text>
<rect x="180" y="318" width="444.27" height="22" fill="#4c78a8" rx="3"/>
<text x="632.27" y="334" class="value">154.40</text>
<text x="10" y="366" class="label">fortnite.com</text>
<rect x="180" y="350" width="482.86" height="22" fill="#4c78a8" rx="3"/>
<text x="670.86" y="366" class="value">167.81</text>
<text x="10" y="398" class="label">store.akamai.steamstatic.com</text>
<rect x="180" y="382" width="494.63" height="22" fill="#4c78a8" rx="3"/>
<text x="682.63" y="398" class="value">171.90</text>
<text x="10" y="430" class="label">static3.cdn.ubi.com</text>
<rect x="180" y="414" width="516.27" height="22" fill="#4c78a8" rx="3"/>
<text x="704.27" y="430" class="value">179.42</text>
<text x="10" y="462" class="label">cdn.akamai.steamstatic.com</text>
<rect x="180" y="446" width="554.36" height="22" fill="#4c78a8" rx="3"/>
<text x="742.36" y="462" class="value">192.66</text>
<text x="10" y="494" class="label">steam-chat.com</text>
<rect x="180" y="478" width="580.0" height="22" fill="#4c78a8" rx="3"/>
<text x="768.0" y="494" class="value">201.57</text>
<line x1="180" y1="30" x2="180" y2="520" stroke="#ccc"/>
<line x1="180" y1="520" x2="760" y2="520" stroke="#ccc"/>
</svg>