<svg xmlns="http://www.w3.org/2000/svg" width="800" height="540">
<style> .label{font-family:DejaVu Sans,Verdana,Geneva,sans-serif;font-size:12px;fill:#333} .value{font-family:DejaVu Sans,Verdana,Geneva,sans-serif;font-size:12px;fill:#555} </style>
<text x="10" y="20" class="label">延迟柱状图（越低越好，Top 15），单位 ms</text>
<text x="10" y="46" class="label">eaassets-a.akamaihd.net</text>
<rect x="180" y="30" width="66.57" height="22" fill="#4c78a8" rx="3"/>
<text x="254.57" y="46" class="value">32.27</text>
<text x="10" y="78" class="label">rockstargames.com</text>
<rect x="180" y="62" width="84.2" height="22" fill="#4c78a8" rx="3"/>
<text x="272.2" y="78" class="value">40.82</text>
<text x="10" y="110" class="label">steamcdn-a.akamaihd.net</text>
<rect x="180" y="94" width="160.36" height="22" fill="#4c78a8" rx="3"/>
<text x="348.36" y="110" class="value">77.74</text>
<text x="10" y="142" class="label">community.akamai.steamstatic.com</text>
<rect x="180" y="126" width="224.5" height="22" fill="#4c78a8" rx="3"/>
<text x="412.5" y="142" class="value">108.83</text>
<text x="10" y="174" class="label">ea.com</text>
<rect x="180" y="158" width="264.29" height="22" fill="#4c78a8" rx="3"/>
<text x="452.29" y="174" class="value">128.12</text>
<text x="10" y="206" class="label">origin.com</text>
<rect x="180" y="190" width="264.8" height="22" fill="#4c78a8" rx="3"/>
<text x="452.8" y="206" class="value">128.37</text>
<text x="10" y="238" class="label">store.akamai.steamstatic.com</text>
<rect x="180" y="222" width="286.24" height="22" fill="#4c78a8" rx="3"/>
<text x="474.24" y="238" class="value">138.76</text>
<text x="10" y="270" class="label">easyanticheat.net</text>
<rect x="180" y="254" width="339.87" height="22" fill="#4c78a8" rx="3"/>
<text x="527.87" y="270" class="value">164.76</text>
<text x="10" y="302" class="label">cdn.cloudflare.steamstatic.com</text>
<rect x="180" y="286" width="351.5" height="22" fill="#4c78a8" rx="3"/>
<text x="539.5" y="302" class="value">170.40</text>
<text x="10" y="334" class="label">cdn.akamai.steamstatic.com</text>
<rect x="180" y="318" width="366.44" height="22" fill="#4c78a8" rx="3"/>
<text x="554.44" y="334" class="value">177.64</text>
<text x="10" y="366" class="label">ubisoft.com</text>
<rect x="180" y="350" width="385.09" height="22" fill="#4c78a8" rx="3"/>
<text x="573.0899999999999" y="366" class="value">186.68</text>
<text x="10" y="398" class="label">steam-chat.com</text>
<rect x="180" y="382" width="477.62" height="22" fill="#4c78a8" rx="3"/>
<text x="665.62" y="398" class="value">231.54</text>
<text x="10" y="430" class="label">api.steampowered.com</text>
<rect x="180" y="414" width="499.92" height="22" fill="#4c78a8" rx="3"/>
<text x="687.9200000000001" y="430" class="value">242.35</text>
<text x="10" y="462" class="label">www.steamcommunity.com</text>
<rect x="180" y="446" width="544.05" height="22" fill="#4c78a8" rx="3"/>
<text x="732.05" y="462" class="value">263.74</text>
<text x="10" y="494" class="label">blizzard.com</text>
<rect x="180" y="478" width="580.0" height="22" fill="#4c78a8" rx="3"/>
<text x="768.0" y="494" class="value">281.17</text>
<line x1="180" y1="30" x2="180" y2="520" stroke="#ccc"/>
<line x1="180" y1="520" x2="760" y2="520" stroke="#ccc"/>
</svg>