<svg xmlns="http://www.w3.org/2000/svg" width="800" height="540">
<style> .label{font-family:DejaVu Sans,Verdana,Geneva,sans-serif;font-size:12px;fill:#333} .value{font-family:DejaVu Sans,Verdana,Geneva,sans-serif;font-size:12px;fill:#555} </style>
<text x="10" y="20" class="label">延迟柱状图（越低越好，Top 15），单位 ms</text>
<text x="10" y="46" class="label">eaassets-a.akamaihd.net</text>
<rect x="180" y="30" width="98.37" height="22" fill="#4c78a8" rx="3"/>
<text x="286.37" y="46" class="value">46.89</text>
<text x="10" y="78" class="label">rockstargames.com</text>
<rect x="180" y="62" width="120.25" height="22" fill="#4c78a8" rx="3"/>
<text x="308.25" y="78" class="value">57.32</text>
<text x="10" y="110" class="label">ea.com</text>
<rect x="180" y="94" width="133.73" height="22" fill="#4c78a8" rx="3"/>
<text x="321.73" y="110" class="value">63.75</text>
<text x="10" y="142" class="label">origin.com</text>
<rect x="180" y="126" width="208.21" height="22" fill="#4c78a8" rx="3"/>
<text x="396.21000000000004" y="142" class="value">99.25</text>
<text x="10" y="174" class="label">ubisoft.com</text>
<rect x="180" y="158" width="226.46" height="22" fill="#4c78a8" rx="3"/>
<text x="414.46000000000004" y="174" class="value">107.95</text>
<text x="10" y="206" class="label">community.akamai.steamstatic.com</text>
<rect x="180" y="190" width="249.53" height="22" fill="#4c78a8" rx="3"/>
<text x="437.53" y="206" class="value">118.95</text>
<text x="10" y="238" class="label">cdn.cloudflare.steamstatic.com</text>
<rect x="180" y="222" width="276.05" height="22" fill="#4c78a8" rx="3"/>
<text x="464.05" y="238" class="value">131.59</text>
<text x="10" y="270" class="label">easyanticheat.net</text>
<rect x="180" y="254" width="308.73" height="22" fill="#4c78a8" rx="3"/>
<text x="496.73" y="270" class="value">147.17</text>
<text x="10" y="302" class="label">steamcdn-a.akamaihd.net</text>
<rect x="180" y="286" width="373.72" height="22" fill="#4c78a8" rx="3"/>
<text x="561.72" y="302" class="value">178.15</text>
<text x="10" y="334" class="label">api.steampowered.com</text>
<rect x="180" y="318" width="413.98" height="22" fill="#4c78a8" rx="3"/>
<text x="601.98" y="334" class="value">197.34</text>
<text x="10" y="366" class="label">store.akamai.steamstatic.com</text>
<rect x="180" y="350" width="426.94" height="22" fill="#4c78a8" rx="3"/>
<text x="614.94" y="366" class="value">203.52</text>
<text x="10" y="398" class="label">cdn.akamai.steamstatic.com</text>
<rect x="180" y="382" width="432.02" height="22" fill="#4c78a8" rx="3"/>
<text x="620.02" y="398" class="value">205.94</text>
<text x="10" y="430" class="label">steam-chat.com</text>
<rect x="180" y="414" width="489.04" height="22" fill="#4c78a8" rx="3"/>
<text x="677.04" y="430" class="value">233.12</text>
<text x="10" y="462" class="label">www.steamcommunity.com</text>
<rect x="180" y="446" width="498.19" height="22" fill="#4c78a8" rx="3"/>
<text x="686.19" y="462" class="value">237.48</text>
<text x="10" y="494" class="label">battle.net</text>
<rect x="180" y="478" width="580.0" height="22" fill="#4c78a8" rx="3"/>
<text x="768.0" y="494" class="value">276.48</text>
<line x1="180" y1="30" x2="180" y2="520" stroke="#ccc"/>
<line x1="180" y1="520" x2="760" y2="520" stroke="#ccc"/>
</svg>