<svg xmlns="http://www.w3.org/2000/svg" width="800" height="540">
<style> .label{font-family:DejaVu Sans,Verdana,Geneva,sans-serif;font-size:12px;fill:#333} .value{font-family:DejaVu Sans,Verdana,Geneva,sans-serif;font-size:12px;fill:#555} </style>
<text x="10" y="20" class="label">延迟柱状图（越低越好，Top 15），单位 ms</text>
<text x="10" y="46" class="label">rockstargames.com</text>
<rect x="180" y="30" width="144.34" height="22" fill="#4c78a8" rx="3"/>
<text x="332.34000000000003" y="46" class="value">59.17</text>
<text x="10" y="78" class="label">eaassets-a.akamaihd.net</text>
<rect x="180" y="62" width="207.59" height="22" fill="#4c78a8" rx="3"/>
<text x="395.59000000000003" y="78" class="value">85.10</text>
<text x="10" y="110" class="label">blizzard.com</text>
<rect x="180" y="94" width="216.39" height="22" fill="#4c78a8" rx="3"/>
<text x="404.39" y="110" class="value">88.71</text>
<text x="10" y="142" class="label">ubi.com</text>
<rect x="180" y="126" width="217.49" height="22" fill="#4c78a8" rx="3"/>
<text x="405.49" y="142" class="value">89.16</text>
<text x="10" y="174" class="label">socialclub.rockstargames.com</text>
<rect x="180" y="158" width="218.93" height="22" fill="#4c78a8" rx="3"/>
<text x="406.93" y="174" class="value">89.75</text>
<text x="10" y="206" class="label">epicgames.com</text>
<rect x="180" y="190" width="247.47" height="22" fill="#4c78a8" rx="3"/>
<text x="435.47" y="206" class="value">101.45</text>
<text x="10" y="238" class="label">battle.net</text>
<rect x="180" y="222" width="281.11" height="22" fill="#4c78a8" rx="3"/>
<text x="469.11" y="238" class="value">115.24</text>
<text x="10" y="270" class="label">ea.com</text>
<rect x="180" y="254" width="297.62" height="22" fill="#4c78a8" rx="3"/>
<text x="485.62" y="270" class="value">122.01</text>
<text x="10" y="302" class="label">cdn.akamai.steamstatic.com</text>
<rect x="180" y="286" width="420.61" height="22" fill="#4c78a8" rx="3"/>
<text x="608.61" y="302" class="value">172.43</text>
<text x="10" y="334" class="label">ubisoft.com</text>
<rect x="180" y="318" width="424.74" height="22" fill="#4c78a8" rx="3"/>
<text x="612.74" y="334" class="value">174.12</text>
<text x="10" y="366" class="label">origin.com</text>
<rect x="180" y="350" width="467.69" height="22" fill="#4c78a8" rx="3"/>
<text x="655.69" y="366" class="value">191.73</text>
<text x="10" y="398" class="label">cdn.cloudflare.steamstatic.com</text>
<rect x="180" y="382" width="482.13" height="22" fill="#4c78a8" rx="3"/>
<text x="670.13" y="398" class="value">197.65</text>
<text x="10" y="430" class="label">unrealengine.com</text>
<rect x="180" y="414" width="529.48" height="22" fill="#4c78a8" rx="3"/>
<text x="717.48" y="430" class="value">217.06</text>
<text x="10" y="462" class="label">steam-chat.com</text>
<rect x="180" y="446" width="551.56" height="22" fill="#4c78a8" rx="3"/>
<text x="739.56" y="462" class="value">226.11</text>
<text x="10" y="494" class="label">static3.cdn.ubi.com</text>
<rect x="180" y="478" width="580.0" height="22" fill="#4c78a8" rx="3"/>
<text x="768.0" y="494" class="value">237.77</text>
<line x1="180" y1="30" x2="180" y2="520" stroke="#ccc"/>
<line x1="180" y1="520" x2="760" y2="520" stroke="#ccc"/>
</svg>