<svg xmlns="http://www.w3.org/2000/svg" width="800" height="540">
<style> .label{font-family:DejaVu Sans,Verdana,Geneva,sans-serif;font-size:12px;fill:#333} .value{font-family:DejaVu Sans,Verdana,Geneva,sans-serif;font-size:12px;fill:#555} </style>
<text x="10" y="20" class="label">延迟柱状图（越低越好，Top 15），单位 ms</text>
<text x="10" y="46" class="label">rockstargames.com</text>
<rect x="180" y="30" width="74.48" height="22" fill="#4c78a8" rx="3"/>
<text x="262.48" y="46" class="value">31.22</text>
<text x="10" y="78" class="label">eaassets-a.akamaihd.net</text>
<rect x="180" y="62" width="92.64" height="22" fill="#4c78a8" rx="3"/>
<text x="280.64" y="78" class="value">38.83</text>
<text x="10" y="110" class="label">ea.com</text>
<rect x="180" y="94" width="159.18" height="22" fill="#4c78a8" rx="3"/>
<text x="347.18" y="110" class="value">66.72</text>
<text x="10" y="142" class="label">origin.com</text>
<rect x="180" y="126" width="248.71" height="22" fill="#4c78a8" rx="3"/>
<text x="436.71000000000004" y="142" class="value">104.25</text>
<text x="10" y="174" class="label">store.akamai.steamstatic.com</text>
<rect x="180" y="158" width="283.98" height="22" fill="#4c78a8" rx="3"/>
<text x="471.98" y="174" class="value">119.03</text>
<text x="10" y="206" class="label">community.akamai.steamstatic.com</text>
<rect x="180" y="190" width="331.57" height="22" fill="#4c78a8" rx="3"/>
<text x="519.5699999999999" y="206" class="value">138.98</text>
<text x="10" y="238" class="label">ubisoft.com</text>
<rect x="180" y="222" width="353.04" height="22" fill="#4c78a8" rx="3"/>
<text x="541.04" y="238" class="value">147.98</text>
<text x="10" y="270" class="label">cdn.akamai.steamstatic.com</text>
<rect x="180" y="254" width="410.99" height="22" fill="#4c78a8" rx="3"/>
<text x="598.99" y="270" class="value">172.27</text>
<text x="10" y="302" class="label">static3.cdn.ubi.com</text>
<rect x="180" y="286" width="435.33" height="22" fill="#4c78a8" rx="3"/>
<text x="623.3299999999999" y="302" class="value">182.47</text>
<text x="10" y="334" class="label">easyanticheat.net</text>
<rect x="180" y="318" width="435.38" height="22" fill="#4c78a8" rx="3"/>
<text x="623.38" y="334" class="value">182.49</text>
<text x="10" y="366" class="label">cdn.cloudflare.steamstatic.com</text>
<rect x="180" y="350" width="468.9" height="22" fill="#4c78a8" rx="3"/>
<text x="656.9" y="366" class="value">196.54</text>
<text x="10" y="398" class="label">api.steampowered.com</text>
<rect x="180" y="382" width="473.91" height="22" fill="#4c78a8" rx="3"/>
<text x="661.9100000000001" y="398" class="value">198.64</text>
<text x="10" y="430" class="label">steamcdn-a.akamaihd.net</text>
<rect x="180" y="414" width="558.96" height="22" fill="#4c78a8" rx="3"/>
<text x="746.96" y="430" class="value">234.29</text>
<text x="10" y="462" class="label">www.steamcommunity.com</text>
<rect x="180" y="446" width="569.88" height="22" fill="#4c78a8" rx="3"/>
<text x="757.88" y="462" class="value">238.87</text>
<text x="10" y="494" class="label">launcher-public-service-prod06.ol.epicgames.com</text>
<rect x="180" y="478" width="580.0" height="22" fill="#4c78a8" rx="3"/>
<text x="768.0" y="494" class="value">243.11</text>
<line x1="180" y1="30" x2="180" y2="520" stroke="#ccc"/>
<line x1="180" y1="520" x2="760" y2="520" stroke="#ccc"/>
</svg>