<svg xmlns="http://www.w3.org/2000/svg" width="800" height="540">
<style> .label{font-family:DejaVu Sans,Verdana,Geneva,sans-serif;font-size:12px;fill:#333} .value{font-family:DejaVu Sans,Verdana,Geneva,sans-serif;font-size:12px;fill:#555} </style>
<text x="10" y="20" class="label">延迟柱状图（越低越好，Top 15），单位 ms</text>
<text x="10" y="46" class="label">eaassets-a.akamaihd.net</text>
<rect x="180" y="30" width="72.84" height="22" fill="#4c78a8" rx="3"/>
<text x="260.84000000000003" y="46" class="value">37.94</text>
<text x="10" y="78" class="label">cdn.akamai.steamstatic.com</text>
<rect x="180" y="62" width="75.99" height="22" fill="#4c78a8" rx="3"/>
<text x="263.99" y="78" class="value">39.58</text>
<text x="10" y="110" class="label">cdn.cloudflare.steamstatic.com</text>
<rect x="180" y="94" width="87.03" height="22" fill="#4c78a8" rx="3"/>
<text x="275.03" y="110" class="value">45.33</text>
<text x="10" y="142" class="label">rockstargames.com</text>
<rect x="180" y="126" width="105.6" height="22" fill="#4c78a8" rx="3"/>
<text x="293.6" y="142" class="value">55.00</text>
<text x="10" y="174" class="label">ea.com</text>
<rect x="180" y="158" width="117.46" height="22" fill="#4c78a8" rx="3"/>
<text x="305.46" y="174" class="value">61.18</text>
<text x="10" y="206" class="label">ubisoft.com</text>
<rect x="180" y="190" width="127.62" height="22" fill="#4c78a8" rx="3"/>
<text x="315.62" y="206" class="value">66.47</text>
<text x="10" y="238" class="label">community.akamai.steamstatic.com</text>
<rect x="180" y="222" width="132.38" height="22" fill="#4c78a8" rx="3"/>
<text x="320.38" y="238" class="value">68.95</text>
<text x="10" y="270" class="label">steamcdn-a.akamaihd.net</text>
<rect x="180" y="254" width="156.15" height="22" fill="#4c78a8" rx="3"/>
<text x="344.15" y="270" class="value">81.33</text>
<text x="10" y="302" class="label">origin.com</text>
<rect x="180" y="286" width="170.86" height="22" fill="#4c78a8" rx="3"/>
<text x="358.86" y="302" class="value">88.99</text>
<text x="10" y="334" class="label">store.akamai.steamstatic.com</text>
<rect x="180" y="318" width="186.83" height="22" fill="#4c78a8" rx="3"/>
<text x="374.83000000000004" y="334" class="value">97.31</text>
<text x="10" y="366" class="label">easyanticheat.net</text>
<rect x="180" y="350" width="293.96" height="22" fill="#4c78a8" rx="3"/>
<text x="481.96" y="366" class="value">153.11</text>
<text x="10" y="398" class="label">launcher-public-service-prod06.ol.epicgames.com</text>
<rect x="180" y="382" width="373.6" height="22" fill="#4c78a8" rx="3"/>
<text x="561.6" y="398" class="value">194.59</text>
<text x="10" y="430" class="label">steamcommunity.com</text>
<rect x="180" y="414" width="512.48" height="22" fill="#4c78a8" rx="3"/>
<text x="700.48" y="430" class="value">266.92</text>
<text x="10" y="462" class="label">ubi.com</text>
<rect x="180" y="446" width="550.86" height="22" fill="#4c78a8" rx="3"/>
<text x="738.86" y="462" class="value">286.91</text>
<text x="10" y="494" class="label">battle.net</text>
<rect x="180" y="478" width="580.0" height="22" fill="#4c78a8" rx="3"/>
<text x="768.0" y="494" class="value">302.09</text>
<line x1="180" y1="30" x2="180" y2="520" stroke="#ccc"/>
<line x1="180" y1="520" x2="760" y2="520" stroke="#ccc"/>
</svg>