<svg xmlns="http://www.w3.org/2000/svg" width="800" height="540">
<style> .label{font-family:DejaVu Sans,Verdana,Geneva,sans-serif;font-size:12px;fill:#333} .value{font-family:DejaVu Sans,Verdana,Geneva,sans-serif;font-size:12px;fill:#555} </style>
<text x="10" y="20" class="label">延迟柱状图（越低越好，Top 15），单位 ms</text>
<text x="10" y="46" class="label">rockstargames.com</text>
<rect x="180" y="30" width="186.78" height="22" fill="#4c78a8" rx="3"/>
<text x="374.78" y="46" class="value">67.49</text>
<text x="10" y="78" class="label">ea.com</text>
<rect x="180" y="62" width="211.89" height="22" fill="#4c78a8" rx="3"/>
<text x="399.89" y="78" class="value">76.56</text>
<text x="10" y="110" class="label">community.akamai.steamstatic.com</text>
<rect x="180" y="94" width="298.37" height="22" fill="#4c78a8" rx="3"/>
<text x="486.37" y="110" class="value">107.81</text>
<text x="10" y="142" class="label">ubi.com</text>
<rect x="180" y="126" width="383.25" height="22" fill="#4c78a8" rx="3"/>
<text x="571.25" y="142" class="value">138.48</text>
<text x="10" y="174" class="label">socialclub.rockstargames.com</text>
<rect x="180" y="158" width="389.29" height="22" fill="#4c78a8" rx="3"/>
<text x="577.29" y="174" class="value">140.66</text>
<text x="10" y="206" class="label">origin.com</text>
<rect x="180" y="190" width="410.98" height="22" fill="#4c78a8" rx="3"/>
<text x="598.98" y="206" class="value">148.50</text>
<text x="10" y="238" class="label">battle.net</text>
<rect x="180" y="222" width="413.78" height="22" fill="#4c78a8" rx="3"/>
<text x="601.78" y="238" class="value">149.51</text>
<text x="10" y="270" class="label">blizzard.com</text>
<rect x="180" y="254" width="414.8" height="22" fill="#4c78a8" rx="3"/>
<text x="602.8" y="270" class="value">149.88</text>
<text x="10" y="302" class="label">ubisoft.com</text>
<rect x="180" y="286" width="441.76" height="22" fill="#4c78a8" rx="3"/>
<text x="629.76" y="302" class="value">159.62</text>
<text x="10" y="334" class="label">steamcommunity.com</text>
<rect x="180" y="318" width="528.44" height="22" fill="#4c78a8" rx="3"/>
<text x="716.44" y="334" class="value">190.94</text>
<text x="10" y="366" class="label">steam-chat.com</text>
<rect x="180" y="350" width="544.74" height="22" fill="#4c78a8" rx="3"/>
<text x="732.74" y="366" class="value">196.83</text>
<text x="10" y="398" class="label">steamcdn-a.akamaihd.net</text>
<rect x="180" y="382" width="566.13" height="22" fill="#4c78a8" rx="3"/>
<text x="754.13" y="398" class="value">204.56</text>
<text x="10" y="430" class="label">unrealengine.com</text>
<rect x="180" y="414" width="567.96" height="22" fill="#4c78a8" rx="3"/>
<text x="755.96" y="430" class="value">205.22</text>
<text x="10" y="462" class="label">eaassets-a.akamaihd.net</text>
<rect x="180" y="446" width="570.78" height="22" fill="#4c78a8" rx="3"/>
<text x="758.78" y="462" class="value">206.24</text>
<text x="10" y="494" class="label">static3.cdn.ubi.com</text>
<rect x="180" y="478" width="580.0" height="22" fill="#4c78a8" rx="3"/>
<text x="768.0" y="494" class="value">209.57</text>
<line x1="180" y1="30" x2="180" y2="520" stroke="#ccc"/>
<line x1="180" y1="520" x2="760" y2="520" stroke="#ccc"/>
</svg>