<svg xmlns="http://www.w3.org/2000/svg" width="800" height="540">
<style> .label{font-family:DejaVu Sans,Verdana,Geneva,sans-serif;font-size:12px;fill:#333} .value{font-family:DejaVu Sans,Verdana,Geneva,sans-serif;font-size:12px;fill:#555} </style>
<text x="10" y="20" class="label">延迟柱状图（越低越好，Top 15），单位 ms</text>
<text x="10" y="46" class="label">cdn.akamai.steamstatic.com</text>
<rect x="180" y="30" width="254.99" height="22" fill="#4c78a8" rx="3"/>
<text x="442.99" y="46" class="value">126.25</text>
<text x="10" y="78" class="label">ea.com</text>
<rect x="180" y="62" width="292.58" height="22" fill="#4c78a8" rx="3"/>
<text x="480.58" y="78" class="value">144.86</text>
<text x="10" y="110" class="label">ubisoft.com</text>
<rect x="180" y="94" width="299.83" height="22" fill="#4c78a8" rx="3"/>
<text x="487.83" y="110" class="value">148.45</text>
<text x="10" y="142" class="label">steamcdn-a.akamaihd.net</text>
<rect x="180" y="126" width="317.09" height="22" fill="#4c78a8" rx="3"/>
<text x="505.09" y="142" class="value">157.00</text>
<text x="10" y="174" class="label">rockstargames.com</text>
<rect x="180" y="158" width="328.91" height="22" fill="#4c78a8" rx="3"/>
<text x="516.9100000000001" y="174" class="value">162.85</text>
<text x="10" y="206" class="label">eaassets-a.akamaihd.net</text>
<rect x="180" y="190" width="378.78" height="22" fill="#4c78a8" rx="3"/>
<text x="566.78" y="206" class="value">187.54</text>
<text x="10" y="238" class="label">origin.com</text>
<rect x="180" y="222" width="392.15" height="22" fill="#4c78a8" rx="3"/>
<text x="580.15" y="238" class="value">194.16</text>
<text x="10" y="270" class="label">cdn.cloudflare.steamstatic.com</text>
<rect x="180" y="254" width="457.85" height="22" fill="#4c78a8" rx="3"/>
<text x="645.85" y="270" class="value">226.69</text>
<text x="10" y="302" class="label">community.akamai.steamstatic.com</text>
<rect x="180" y="286" width="461.67" height="22" fill="#4c78a8" rx="3"/>
<text x="649.6700000000001" y="302" class="value">228.58</text>
<text x="10" y="334" class="label">blizzard.com</text>
<rect x="180" y="318" width="476.61" height="22" fill="#4c78a8" rx="3"/>
<text x="664.61" y="334" class="value">235.98</text>
<text x="10" y="366" class="label">gog.com</text>
<rect x="180" y="350" width="521.39" height="22" fill="#4c78a8" rx="3"/>
<text x="709.39" y="366" class="value">258.15</text>
<text x="10" y="398" class="label">ubi.com</text>
<rect x="180" y="382" width="524.64" height="22" fill="#4c78a8" rx="3"/>
<text x="712.64" y="398" class="value">259.76</text>
<text x="10" y="430" class="label">battle.net</text>
<rect x="180" y="414" width="529.79" height="22" fill="#4c78a8" rx="3"/>
<text x="717.79" y="430" class="value">262.31</text>
<text x="10" y="462" class="label">socialclub.rockstargames.com</text>
<rect x="180" y="446" width="535.43" height="22" fill="#4c78a8" rx="3"/>
<text x="723.43" y="462" class="value">265.10</text>
<text x="10" y="494" class="label">easyanticheat.net</text>
<rect x="180" y="478" width="580.0" height="22" fill="#4c78a8" rx="3"/>
<text x="768.0" y="494" class="value">287.17</text>
<line x1="180" y1="30" x2="180" y2="520" stroke="#ccc"/>
<line x1="180" y1="520" x2="760" y2="520" stroke="#ccc"/>
</svg>