<svg xmlns="http://www.w3.org/2000/svg" width="800" height="540">
<style> .label{font-family:DejaVu Sans,Verdana,Geneva,sans-serif;font-size:12px;fill:#333} .value{font-family:DejaVu Sans,Verdana,Geneva,sans-serif;font-size:12px;fill:#555} </style>
<text x="10" y="20" class="label">延迟柱状图（越低越好，Top 15），单位 ms</text>
<text x="10" y="46" class="label">ea.com</text>
<rect x="180" y="30" width="196.8" height="22" fill="#4c78a8" rx="3"/>
<text x="384.8" y="46" class="value">75.97</text>
<text x="10" y="78" class="label">eaassets-a.akamaihd.net</text>
<rect x="180" y="62" width="207.81" height="22" fill="#4c78a8" rx="3"/>
<text x="395.81" y="78" class="value">80.22</text>
<text x="10" y="110" class="label">battle.net</text>
<rect x="180" y="94" width="356.36" height="22" fill="#4c78a8" rx="3"/>
<text x="544.36" y="110" class="value">137.56</text>
<text x="10" y="142" class="label">rockstargames.com</text>
<rect x="180" y="126" width="395.89" height="22" fill="#4c78a8" rx="3"/>
<text x="583.89" y="142" class="value">152.82</text>
<text x="10" y="174" class="label">steamcdn-a.akamaihd.net</text>
<rect x="180" y="158" width="403.66" height="22" fill="#4c78a8" rx="3"/>
<text x="591.6600000000001" y="174" class="value">155.82</text>
<text x="10" y="206" class="label">store.akamai.steamstatic.com</text>
<rect x="180" y="190" width="405.58" height="22" fill="#4c78a8" rx="3"/>
<text x="593.5799999999999" y="206" class="value">156.56</text>
<text x="10" y="238" class="label">easyanticheat.net</text>
<rect x="180" y="222" width="406.3" height="22" fill="#4c78a8" rx="3"/>
<text x="594.3" y="238" class="value">156.84</text>
<text x="10" y="270" class="label">blizzard.com</text>
<rect x="180" y="254" width="425.37" height="22" fill="#4c78a8" rx="3"/>
<text x="613.37" y="270" class="value">164.20</text>
<text x="10" y="302" class="label">ubisoft.com</text>
<rect x="180" y="286" width="428.19" height="22" fill="#4c78a8" rx="3"/>
<text x="616.19" y="302" class="value">165.29</text>
<text x="10" y="334" class="label">cdn.akamai.steamstatic.com</text>
<rect x="180" y="318" width="428.53" height="22" fill="#4c78a8" rx="3"/>
<text x="616.53" y="334" class="value">165.42</text>
<text x="10" y="366" class="label">community.akamai.steamstatic.com</text>
<rect x="180" y="350" width="447.26" height="22" fill="#4c78a8" rx="3"/>
<text x="635.26" y="366" class="value">172.65</text>
<text x="10" y="398" class="label">origin.com</text>
<rect x="180" y="382" width="466.02" height="22" fill="#4c78a8" rx="3"/>
<text x="654.02" y="398" class="value">179.89</text>
<text x="10" y="430" class="label">ubi.com</text>
<rect x="180" y="414" width="519.56" height="22" fill="#4c78a8" rx="3"/>
<text x="707.56" y="430" class="value">200.56</text>
<text x="10" y="462" class="label">socialclub.rockstargames.com</text>
<rect x="180" y="446" width="541.69" height="22" fill="#4c78a8" rx="3"/>
<text x="729.69" y="462" class="value">209.10</text>
<text x="10" y="494" class="label">steam-chat.com</text>
<rect x="180" y="478" width="580.0" height="22" fill="#4c78a8" rx="3"/>
<text x="768.0" y="494" class="value">223.89</text>
<line x1="180" y1="30" x2="180" y2="520" stroke="#ccc"/>
<line x1="180" y1="520" x2="760" y2="520" stroke="#ccc"/>
</svg>