<svg xmlns="http://www.w3.org/2000/svg" width="800" height="540">
<style> .label{font-family:DejaVu Sans,Verdana,Geneva,sans-serif;font-size:12px;fill:#333} .value{font-family:DejaVu Sans,Verdana,Geneva,sans-serif;font-size:12px;fill:#555} </style>
<text x="10" y="20" class="label">延迟柱状图（越低越好，Top 15），单位 ms</text>
<text x="10" y="46" class="label">socialclub.rockstargames.com</text>
<rect x="180" y="30" width="175.03" height="22" fill="#4c78a8" rx="3"/>
<text x="363.03" y="46" class="value">62.38</text>
<text x="10" y="78" class="label">rockstargames.com</text>
<rect x="180" y="62" width="192.68" height="22" fill="#4c78a8" rx="3"/>
<text x="380.68" y="78" class="value">68.67</text>
<text x="10" y="110" class="label">ea.com</text>
<rect x="180" y="94" width="208.25" height="22" fill="#4c78a8" rx="3"/>
<text x="396.25" y="110" class="value">74.22</text>
<text x="10" y="142" class="label">battle.net</text>
<rect x="180" y="126" width="266.05" height="22" fill="#4c78a8" rx="3"/>
<text x="454.05" y="142" class="value">94.82</text>
<text x="10" y="174" class="label">ubi.com</text>
<rect x="180" y="158" width="274.36" height="22" fill="#4c78a8" rx="3"/>
<text x="462.36" y="174" class="value">97.78</text>
<text x="10" y="206" class="label">blizzard.com</text>
<rect x="180" y="190" width="310.86" height="22" fill="#4c78a8" rx="3"/>
<text x="498.86" y="206" class="value">110.79</text>
<text x="10" y="238" class="label">unrealengine.com</text>
<rect x="180" y="222" width="319.62" height="22" fill="#4c78a8" rx="3"/>
<text x="507.62" y="238" class="value">113.91</text>
<text x="10" y="270" class="label">ubisoft.com</text>
<rect x="180" y="254" width="430.81" height="22" fill="#4c78a8" rx="3"/>
<text x="618.81" y="270" class="value">153.54</text>
<text x="10" y="302" class="label">origin.com</text>
<rect x="180" y="286" width="444.39" height="22" fill="#4c78a8" rx="3"/>
<text x="632.39" y="302" class="value">158.38</text>
<text x="10" y="334" class="label">store.akamai.steamstatic.com</text>
<rect x="180" y="318" width="484.18" height="22" fill="#4c78a8" rx="3"/>
<text x="672.1800000000001" y="334" class="value">172.56</text>
<text x="10" y="366" class="label">epicgames.com</text>
<rect x="180" y="350" width="519.28" height="22" fill="#4c78a8" rx="3"/>
<text x="707.28" y="366" class="value">185.07</text>
<text x="10" y="398" class="label">static3.cdn.ubi.com</text>
<rect x="180" y="382" width="535.81" height="22" fill="#4c78a8" rx="3"/>
<text x="723.81" y="398" class="value">190.96</text>
<text x="10" y="430" class="label">cdn.cloudflare.steamstatic.com</text>
<rect x="180" y="414" width="538.02" height="22" fill="#4c78a8" rx="3"/>
<text x="726.02" y="430" class="value">191.75</text>
<text x="10" y="462" class="label">eaassets-a.akamaihd.net</text>
<rect x="180" y="446" width="576.89" height="22" fill="#4c78a8" rx="3"/>
<text x="764.89" y="462" class="value">205.60</text>
<text x="10" y="494" class="label">cdn.akamai.steamstatic.com</text>
<rect x="180" y="478" width="580.0" height="22" fill="#4c78a8" rx="3"/>
<text x="768.0" y="494" class="value">206.71</text>
<line x1="180" y1="30" x2="180" y2="520" stroke="#ccc"/>
<line x1="180" y1="520" x2="760" y2="520" stroke="#ccc"/>
</svg>