<svg xmlns="http://www.w3.org/2000/svg" width="800" height="540">
<style> .label{font-family:DejaVu Sans,Verdana,Geneva,sans-serif;font-size:12px;fill:#333} .value{font-family:DejaVu Sans,Verdana,Geneva,sans-serif;font-size:12px;fill:#555} </style>
<text x="10" y="20" class="label">延迟柱状图（越低越好，Top 15），单位 ms</text>
<text x="10" y="46" class="label">rockstargames.com</text>
<rect x="180" y="30" width="129.12" height="22" fill="#4c78a8" rx="3"/>
<text x="317.12" y="46" class="value">60.52</text>
<text x="10" y="78" class="label">steamcdn-a.akamaihd.net</text>
<rect x="180" y="62" width="181.71" height="22" fill="#4c78a8" rx="3"/>
<text x="369.71000000000004" y="78" class="value">85.17</text>
<text x="10" y="110" class="label">cdn.akamai.steamstatic.com</text>
<rect x="180" y="94" width="182.05" height="22" fill="#4c78a8" rx="3"/>
<text x="370.05" y="110" class="value">85.33</text>
<text x="10" y="142" class="label">eaassets-a.akamaihd.net</text>
<rect x="180" y="126" width="218.94" height="22" fill="#4c78a8" rx="3"/>
<text x="406.94" y="142" class="value">102.62</text>
<text x="10" y="174" class="label">community.akamai.steamstatic.com</text>
<rect x="180" y="158" width="228.12" height="22" fill="#4c78a8" rx="3"/>
<text x="416.12" y="174" class="value">106.92</text>
<text x="10" y="206" class="label">ubisoft.com</text>
<rect x="180" y="190" width="237.04" height="22" fill="#4c78a8" rx="3"/>
<text x="425.03999999999996" y="206" class="value">111.10</text>
<text x="10" y="238" class="label">easyanticheat.net</text>
<rect x="180" y="222" width="251.2" height="22" fill="#4c78a8" rx="3"/>
<text x="439.2" y="238" class="value">117.74</text>
<text x="10" y="270" class="label">cdn.cloudflare.steamstatic.com</text>
<rect x="180" y="254" width="291.61" height="22" fill="#4c78a8" rx="3"/>
<text x="479.61" y="270" class="value">136.68</text>
<text x="10" y="302" class="label">ea.com</text>
<rect x="180" y="286" width="292.57" height="22" fill="#4c78a8" rx="3"/>
<text x="480.57" y="302" class="value">137.13</text>
<text x="10" y="334" class="label">origin.com</text>
<rect x="180" y="318" width="367.93" height="22" fill="#4c78a8" rx="3"/>
<text x="555.9300000000001" y="334" class="value">172.45</text>
<text x="10" y="366" class="label">api.steampowered.com</text>
<rect x="180" y="350" width="459.14" height="22" fill="#4c78a8" rx="3"/>
<text x="647.14" y="366" class="value">215.20</text>
<text x="10" y="398" class="label">www.steamcommunity.com</text>
<rect x="180" y="382" width="532.23" height="22" fill="#4c78a8" rx="3"/>
<text x="720.23" y="398" class="value">249.46</text>
<text x="10" y="430" class="label">store.akamai.steamstatic.com</text>
<rect x="180" y="414" width="549.15" height="22" fill="#4c78a8" rx="3"/>
<text x="737.15" y="430" class="value">257.39</text>
<text x="10" y="462" class="label">launcher-public-service-prod06.ol.epicgames.com</text>
<rect x="180" y="446" width="576.46" height="22" fill="#4c78a8" rx="3"/>
<text x="764.46" y="462" class="value">270.19</text>
<text x="10" y="494" class="label">steamcommunity.com</text>
<rect x="180" y="478" width="580.0" height="22" fill="#4c78a8" rx="3"/>
<text x="768.0" y="494" class="value">271.85</text>
<line x1="180" y1="30" x2="180" y2="520" stroke="#ccc"/>
<line x1="180" y1="520" x2="760" y2="520" stroke="#ccc"/>
</svg>