<svg xmlns="http://www.w3.org/2000/svg" width="800" height="540">
<style> .label{font-family:DejaVu Sans,Verdana,Geneva,sans-serif;font-size:12px;fill:#333} .value{font-family:DejaVu Sans,Verdana,Geneva,sans-serif;font-size:12px;fill:#555} </style>
<text x="10" y="20" class="label">延迟柱状图（越低越好，Top 15），单位 ms</text>
<text x="10" y="46" class="label">rockstargames.com</text>
<rect x="180" y="30" width="163.66" height="22" fill="#4c78a8" rx="3"/>
<text x="351.65999999999997" y="46" class="value">53.68</text>
<text x="10" y="78" class="label">socialclub.rockstargames.com</text>
<rect x="180" y="62" width="259.88" height="22" fill="#4c78a8" rx="3"/>
<text x="447.88" y="78" class="value">85.24</text>
<text x="10" y="110" class="label">ubisoft.com</text>
<rect x="180" y="94" width="294.79" height="22" fill="#4c78a8" rx="3"/>
<text x="482.79" y="110" class="value">96.69</text>
<text x="10" y="142" class="label">community.akamai.steamstatic.com</text>
<rect x="180" y="126" width="304.94" height="22" fill="#4c78a8" rx="3"/>
<text x="492.94" y="142" class="value">100.02</text>
<text x="10" y="174" class="label">battle.net</text>
<rect x="180" y="158" width="308.63" height="22" fill="#4c78a8" rx="3"/>
<text x="496.63" y="174" class="value">101.23</text>
<text x="10" y="206" class="label">eaassets-a.akamaihd.net</text>
<rect x="180" y="190" width="317.56" height="22" fill="#4c78a8" rx="3"/>
<text x="505.56" y="206" class="value">104.16</text>
<text x="10" y="238" class="label">origin.com</text>
<rect x="180" y="222" width="345.79" height="22" fill="#4c78a8" rx="3"/>
<text x="533.79" y="238" class="value">113.42</text>
<text x="10" y="270" class="label">ubi.com</text>
<rect x="180" y="254" width="357.99" height="22" fill="#4c78a8" rx="3"/>
<text x="545.99" y="270" class="value">117.42</text>
<text x="10" y="302" class="label">store.akamai.steamstatic.com</text>
<rect x="180" y="286" width="405.12" height="22" fill="#4c78a8" rx="3"/>
<text x="593.12" y="302" class="value">132.88</text>
<text x="10" y="334" class="label">unrealengine.com</text>
<rect x="180" y="318" width="440.79" height="22" fill="#4c78a8" rx="3"/>
<text x="628.79" y="334" class="value">144.58</text>
<text x="10" y="366" class="label">fortnite.com</text>
<rect x="180" y="350" width="479.48" height="22" fill="#4c78a8" rx="3"/>
<text x="667.48" y="366" class="value">157.27</text>
<text x="10" y="398" class="label">ea.com</text>
<rect x="180" y="382" width="508.35" height="22" fill="#4c78a8" rx="3"/>
<text x="696.35" y="398" class="value">166.74</text>
<text x="10" y="430" class="label">cdn.cloudflare.steamstatic.com</text>
<rect x="180" y="414" width="539.12" height="22" fill="#4c78a8" rx="3"/>
<text x="727.12" y="430" class="value">176.83</text>
<text x="10" y="462" class="label">cdn.akamai.steamstatic.com</text>
<rect x="180" y="446" width="554.6" height="22" fill="#4c78a8" rx="3"/>
<text x="742.6" y="462" class="value">181.91</text>
<text x="10" y="494" class="label">steam-chat.com</text>
<rect x="180" y="478" width="580.0" height="22" fill="#4c78a8" rx="3"/>
<text x="768.0" y="494" class="value">190.24</text>
<line x1="180" y1="30" x2="180" y2="520" stroke="#ccc"/>
<line x1="180" y1="520" x2="760" y2="520" stroke="#ccc"/>
</svg>