<svg xmlns="http://www.w3.org/2000/svg" width="800" height="540">
<style> .label{font-family:DejaVu Sans,Verdana,Geneva,sans-serif;font-size:12px;fill:#333} .value{font-family:DejaVu Sans,Verdana,Geneva,sans-serif;font-size:12px;fill:#555} </style>
<text x="10" y="20" class="label">延迟柱状图（越低越好，Top 15），单位 ms</text>
<text x="10" y="46" class="label">rockstargames.com</text>
<rect x="180" y="30" width="185.51" height="22" fill="#4c78a8" rx="3"/>
<text x="373.51" y="46" class="value">85.65</text>
<text x="10" y="78" class="label">origin.com</text>
<rect x="180" y="62" width="260.35" height="22" fill="#4c78a8" rx="3"/>
<text x="448.35" y="78" class="value">120.20</text>
<text x="10" y="110" class="label">ea.com</text>
<rect x="180" y="94" width="309.34" height="22" fill="#4c78a8" rx="3"/>
<text x="497.34" y="110" class="value">142.82</text>
<text x="10" y="142" class="label">community.akamai.steamstatic.com</text>
<rect x="180" y="126" width="320.67" height="22" fill="#4c78a8" rx="3"/>
<text x="508.67" y="142" class="value">148.05</text>
<text x="10" y="174" class="label">cdn.cloudflare.steamstatic.com</text>
<rect x="180" y="158" width="322.21" height="22" fill="#4c78a8" rx="3"/>
<text x="510.21" y="174" class="value">148.76</text>
<text x="10" y="206" class="label">eaassets-a.akamaihd.net</text>
<rect x="180" y="190" width="325.41" height="22" fill="#4c78a8" rx="3"/>
<text x="513.4100000000001" y="206" class="value">150.24</text>
<text x="10" y="238" class="label">cdn.akamai.steamstatic.com</text>
<rect x="180" y="222" width="357.23" height="22" fill="#4c78a8" rx="3"/>
<text x="545.23" y="238" class="value">164.93</text>
<text x="10" y="270" class="label">store.akamai.steamstatic.com</text>
<rect x="180" y="254" width="366.96" height="22" fill="#4c78a8" rx="3"/>
<text x="554.96" y="270" class="value">169.42</text>
<text x="10" y="302" class="label">steamcdn-a.akamaihd.net</text>
<rect x="180" y="286" width="392.62" height="22" fill="#4c78a8" rx="3"/>
<text x="580.62" y="302" class="value">181.27</text>
<text x="10" y="334" class="label">easyanticheat.net</text>
<rect x="180" y="318" width="449.0" height="22" fill="#4c78a8" rx="3"/>
<text x="637.0" y="334" class="value">207.30</text>
<text x="10" y="366" class="label">steam-chat.com</text>
<rect x="180" y="350" width="475.99" height="22" fill="#4c78a8" rx="3"/>
<text x="663.99" y="366" class="value">219.76</text>
<text x="10" y="398" class="label">www.steamcommunity.com</text>
<rect x="180" y="382" width="493.28" height="22" fill="#4c78a8" rx="3"/>
<text x="681.28" y="398" class="value">227.74</text>
<text x="10" y="430" class="label">api.steampowered.com</text>
<rect x="180" y="414" width="504.71" height="22" fill="#4c78a8" rx="3"/>
<text x="692.71" y="430" class="value">233.02</text>
<text x="10" y="462" class="label">ubi.com</text>
<rect x="180" y="446" width="552.02" height="22" fill="#4c78a8" rx="3"/>
<text x="740.02" y="462" class="value">254.86</text>
<text x="10" y="494" class="label">launcher-public-service-prod06.ol.epicgames.com</text>
<rect x="180" y="478" width="580.0" height="22" fill="#4c78a8" rx="3"/>
<text x="768.0" y="494" class="value">267.78</text>
<line x1="180" y1="30" x2="180" y2="520" stroke="#ccc"/>
<line x1="180" y1="520" x2="760" y2="520" stroke="#ccc"/>
</svg>