<svg xmlns="http://www.w3.org/2000/svg" width="800" height="540">
<style> .label{font-family:DejaVu Sans,Verdana,Geneva,sans-serif;font-size:12px;fill:#333} .value{font-family:DejaVu Sans,Verdana,Geneva,sans-serif;font-size:12px;fill:#555} </style>
<text x="10" y="20" class="label">延迟柱状图（越低越好，Top 15），单位 ms</text>
<text x="10" y="46" class="label">rockstargames.com</text>
<rect x="180" y="30" width="229.77" height="22" fill="#4c78a8" rx="3"/>
<text x="417.77" y="46" class="value">87.03</text>
<text x="10" y="78" class="label">epicgames.com</text>
<rect x="180" y="62" width="255.74" height="22" fill="#4c78a8" rx="3"/>
<text x="443.74" y="78" class="value">96.87</text>
<text x="10" y="110" class="label">blizzard.com</text>
<rect x="180" y="94" width="268.68" height="22" fill="#4c78a8" rx="3"/>
<text x="456.68" y="110" class="value">101.77</text>
<text x="10" y="142" class="label">ubi.com</text>
<rect x="180" y="126" width="303.24" height="22" fill="#4c78a8" rx="3"/>
<text x="491.24" y="142" class="value">114.86</text>
<text x="10" y="174" class="label">socialclub.rockstargames.com</text>
<rect x="180" y="158" width="311.98" height="22" fill="#4c78a8" rx="3"/>
<text x="499.98" y="174" class="value">118.17</text>
<text x="10" y="206" class="label">battle.net</text>
<rect x="180" y="190" width="316.26" height="22" fill="#4c78a8" rx="3"/>
<text x="504.26" y="206" class="value">119.79</text>
<text x="10" y="238" class="label">eaassets-a.akamaihd.net</text>
<rect x="180" y="222" width="331.17" height="22" fill="#4c78a8" rx="3"/>
<text x="519.1700000000001" y="238" class="value">125.44</text>
<text x="10" y="270" class="label">ea.com</text>
<rect x="180" y="254" width="487.83" height="22" fill="#4c78a8" rx="3"/>
<text x="675.8299999999999" y="270" class="value">184.78</text>
<text x="10" y="302" class="label">unrealengine.com</text>
<rect x="180" y="286" width="512.26" height="22" fill="#4c78a8" rx="3"/>
<text x="700.26" y="302" class="value">194.03</text>
<text x="10" y="334" class="label">easyanticheat.net</text>
<rect x="180" y="318" width="530.08" height="22" fill="#4c78a8" rx="3"/>
<text x="718.08" y="334" class="value">200.78</text>
<text x="10" y="366" class="label">cdn.akamai.steamstatic.com</text>
<rect x="180" y="350" width="545.44" height="22" fill="#4c78a8" rx="3"/>
<text x="733.44" y="366" class="value">206.60</text>
<text x="10" y="398" class="label">steamcdn-a.akamaihd.net</text>
<rect x="180" y="382" width="556.87" height="22" fill="#4c78a8" rx="3"/>
<text x="744.87" y="398" class="value">210.93</text>
<text x="10" y="430" class="label">community.akamai.steamstatic.com</text>
<rect x="180" y="414" width="565.03" height="22" fill="#4c78a8" rx="3"/>
<text x="753.03" y="430" class="value">214.02</text>
<text x="10" y="462" class="label">origin.com</text>
<rect x="180" y="446" width="573.03" height="22" fill="#4c78a8" rx="3"/>
<text x="761.03" y="462" class="value">217.05</text>
<text x="10" y="494" class="label">fortnite.com</text>
<rect x="180" y="478" width="580.0" height="22" fill="#4c78a8" rx="3"/>
<text x="768.0" y="494" class="value">219.69</text>
<line x1="180" y1="30" x2="180" y2="520" stroke="#ccc"/>
<line x1="180" y1="520" x2="760" y2="520" stroke="#ccc"/>
</svg>