<svg xmlns="http://www.w3.org/2000/svg" width="800" height="540">
<style> .label{font-family:DejaVu Sans,Verdana,Geneva,sans-serif;font-size:12px;fill:#333} .value{font-family:DejaVu Sans,Verdana,Geneva,sans-serif;font-size:12px;fill:#555} </style>
<text x="10" y="20" class="label">延迟柱状图（越低越好，Top 15），单位 ms</text>
<text x="10" y="46" class="label">battle.net</text>
<rect x="180" y="30" width="195.35" height="22" fill="#4c78a8" rx="3"/>
<text x="383.35" y="46" class="value">76.37</text>
<text x="10" y="78" class="label">fortnite.com</text>
<rect x="180" y="62" width="204.67" height="22" fill="#4c78a8" rx="3"/>
<text x="392.66999999999996" y="78" class="value">80.01</text>
<text x="10" y="110" class="label">rockstargames.com</text>
<rect x="180" y="94" width="205.41" height="22" fill="#4c78a8" rx="3"/>
<text x="393.40999999999997" y="110" class="value">80.30</text>
<text x="10" y="142" class="label">blizzard.com</text>
<rect x="180" y="126" width="214.39" height="22" fill="#4c78a8" rx="3"/>
<text x="402.39" y="142" class="value">83.81</text>
<text x="10" y="174" class="label">socialclub.rockstargames.com</text>
<rect x="180" y="158" width="230.48" height="22" fill="#4c78a8" rx="3"/>
<text x="418.48" y="174" class="value">90.10</text>
<text x="10" y="206" class="label">ubi.com</text>
<rect x="180" y="190" width="288.0" height="22" fill="#4c78a8" rx="3"/>
<text x="476.0" y="206" class="value">112.59</text>
<text x="10" y="238" class="label">ea.com</text>
<rect x="180" y="222" width="325.3" height="22" fill="#4c78a8" rx="3"/>
<text x="513.3" y="238" class="value">127.17</text>
<text x="10" y="270" class="label">eaassets-a.akamaihd.net</text>
<rect x="180" y="254" width="363.59" height="22" fill="#4c78a8" rx="3"/>
<text x="551.5899999999999" y="270" class="value">142.14</text>
<text x="10" y="302" class="label">epicgames.com</text>
<rect x="180" y="286" width="417.21" height="22" fill="#4c78a8" rx="3"/>
<text x="605.21" y="302" class="value">163.10</text>
<text x="10" y="334" class="label">store.akamai.steamstatic.com</text>
<rect x="180" y="318" width="458.93" height="22" fill="#4c78a8" rx="3"/>
<text x="646.9300000000001" y="334" class="value">179.41</text>
<text x="10" y="366" class="label">origin.com</text>
<rect x="180" y="350" width="521.29" height="22" fill="#4c78a8" rx="3"/>
<text x="709.29" y="366" class="value">203.79</text>
<text x="10" y="398" class="label">steamcdn-a.akamaihd.net</text>
<rect x="180" y="382" width="543.5" height="22" fill="#4c78a8" rx="3"/>
<text x="731.5" y="398" class="value">212.47</text>
<text x="10" y="430" class="label">cdn.akamai.steamstatic.com</text>
<rect x="180" y="414" width="558.44" height="22" fill="#4c78a8" rx="3"/>
<text x="746.44" y="430" class="value">218.31</text>
<text x="10" y="462" class="label">ubisoft.com</text>
<rect x="180" y="446" width="574.63" height="22" fill="#4c78a8" rx="3"/>
<text x="762.63" y="462" class="value">224.64</text>
<text x="10" y="494" class="label">static3.cdn.ubi.com</text>
<rect x="180" y="478" width="580.0" height="22" fill="#4c78a8" rx="3"/>
<text x="768.0" y="494" class="value">226.74</text>
<line x1="180" y1="30" x2="180" y2="520" stroke="#ccc"/>
<line x1="180" y1="520" x2="760" y2="520" stroke="#ccc"/>
</svg>