<svg xmlns="http://www.w3.org/2000/svg" width="800" height="540">
<style> .label{font-family:DejaVu Sans,Verdana,Geneva,sans-serif;font-size:12px;fill:#333} .value{font-family:DejaVu Sans,Verdana,Geneva,sans-serif;font-size:12px;fill:#555} </style>
<text x="10" y="20" class="label">延迟柱状图（越低越好，Top 15），单位 ms</text>
<text x="10" y="46" class="label">rockstargames.com</text>
<rect x="180" y="30" width="162.76" height="22" fill="#4c78a8" rx="3"/>
<text x="350.76" y="46" class="value">92.20</text>
<text x="10" y="78" class="label">ea.com</text>
<rect x="180" y="62" width="172.29" height="22" fill="#4c78a8" rx="3"/>
<text x="360.28999999999996" y="78" class="value">97.60</text>
<text x="10" y="110" class="label">eaassets-a.akamaihd.net</text>
<rect x="180" y="94" width="177.75" height="22" fill="#4c78a8" rx="3"/>
<text x="365.75" y="110" class="value">100.69</text>
<text x="10" y="142" class="label">ubisoft.com</text>
<rect x="180" y="126" width="180.8" height="22" fill="#4c78a8" rx="3"/>
<text x="368.8" y="142" class="value">102.42</text>
<text x="10" y="174" class="label">origin.com</text>
<rect x="180" y="158" width="234.8" height="22" fill="#4c78a8" rx="3"/>
<text x="422.8" y="174" class="value">133.01</text>
<text x="10" y="206" class="label">cdn.akamai.steamstatic.com</text>
<rect x="180" y="190" width="258.86" height="22" fill="#4c78a8" rx="3"/>
<text x="446.86" y="206" class="value">146.64</text>
<text x="10" y="238" class="label">cdn.cloudflare.steamstatic.com</text>
<rect x="180" y="222" width="397.58" height="22" fill="#4c78a8" rx="3"/>
<text x="585.5799999999999" y="238" class="value">225.22</text>
<text x="10" y="270" class="label">www.steamcommunity.com</text>
<rect x="180" y="254" width="417.59" height="22" fill="#4c78a8" rx="3"/>
<text x="605.5899999999999" y="270" class="value">236.56</text>
<text x="10" y="302" class="label">community.akamai.steamstatic.com</text>
<rect x="180" y="286" width="445.1" height="22" fill="#4c78a8" rx="3"/>
<text x="633.1" y="302" class="value">252.14</text>
<text x="10" y="334" class="label">store.akamai.steamstatic.com</text>
<rect x="180" y="318" width="462.26" height="22" fill="#4c78a8" rx="3"/>
<text x="650.26" y="334" class="value">261.86</text>
<text x="10" y="366" class="label">easyanticheat.net</text>
<rect x="180" y="350" width="474.05" height="22" fill="#4c78a8" rx="3"/>
<text x="662.05" y="366" class="value">268.54</text>
<text x="10" y="398" class="label">ubi.com</text>
<rect x="180" y="382" width="479.79" height="22" fill="#4c78a8" rx="3"/>
<text x="667.79" y="398" class="value">271.79</text>
<text x="10" y="430" class="label">steamcdn-a.akamaihd.net</text>
<rect x="180" y="414" width="504.41" height="22" fill="#4c78a8" rx="3"/>
<text x="692.4100000000001" y="430" class="value">285.74</text>
<text x="10" y="462" class="label">blizzard.com</text>
<rect x="180" y="446" width="569.85" height="22" fill="#4c78a8" rx="3"/>
<text x="757.85" y="462" class="value">322.81</text>
<text x="10" y="494" class="label">socialclub.rockstargames.com</text>
<rect x="180" y="478" width="580.0" height="22" fill="#4c78a8" rx="3"/>
<text x="768.0" y="494" class="value">328.56</text>
<line x1="180" y1="30" x2="180" y2="520" stroke="#ccc"/>
<line x1="180" y1="520" x2="760" y2="520" stroke="#ccc"/>
</svg>