<svg xmlns="http://www.w3.org/2000/svg" width="800" height="540">
<style> .label{font-family:DejaVu Sans,Verdana,Geneva,sans-serif;font-size:12px;fill:#333} .value{font-family:DejaVu Sans,Verdana,Geneva,sans-serif;font-size:12px;fill:#555} </style>
<text x="10" y="20" class="label">延迟柱状图（越低越好，Top 15），单位 ms</text>
<text x="10" y="46" class="label">rockstargames.com</text>
<rect x="180" y="30" width="188.68" height="22" fill="#4c78a8" rx="3"/>
<text x="376.68" y="46" class="value">74.57</text>
<text x="10" y="78" class="label">steamcdn-a.akamaihd.net</text>
<rect x="180" y="62" width="276.25" height="22" fill="#4c78a8" rx="3"/>
<text x="464.25" y="78" class="value">109.18</text>
<text x="10" y="110" class="label">easyanticheat.net</text>
<rect x="180" y="94" width="309.52" height="22" fill="#4c78a8" rx="3"/>
<text x="497.52" y="110" class="value">122.33</text>
<text x="10" y="142" class="label">community.akamai.steamstatic.com</text>
<rect x="180" y="126" width="364.98" height="22" fill="#4c78a8" rx="3"/>
<text x="552.98" y="142" class="value">144.25</text>
<text x="10" y="174" class="label">eaassets-a.akamaihd.net</text>
<rect x="180" y="158" width="383.53" height="22" fill="#4c78a8" rx="3"/>
<text x="571.53" y="174" class="value">151.58</text>
<text x="10" y="206" class="label">launcher-public-service-prod06.ol.epicgames.com</text>
<rect x="180" y="190" width="405.29" height="22" fill="#4c78a8" rx="3"/>
<text x="593.29" y="206" class="value">160.18</text>
<text x="10" y="238" class="label">blizzard.com</text>
<rect x="180" y="222" width="450.78" height="22" fill="#4c78a8" rx="3"/>
<text x="638.78" y="238" class="value">178.16</text>
<text x="10" y="270" class="label">ubi.com</text>
<rect x="180" y="254" width="480.41" height="22" fill="#4c78a8" rx="3"/>
<text x="668.4100000000001" y="270" class="value">189.87</text>
<text x="10" y="302" class="label">battle.net</text>
<rect x="180" y="286" width="495.67" height="22" fill="#4c78a8" rx="3"/>
<text x="683.6700000000001" y="302" class="value">195.90</text>
<text x="10" y="334" class="label">api.steampowered.com</text>
<rect x="180" y="318" width="505.84" height="22" fill="#4c78a8" rx="3"/>
<text x="693.8399999999999" y="334" class="value">199.92</text>
<text x="10" y="366" class="label">socialclub.rockstargames.com</text>
<rect x="180" y="350" width="528.86" height="22" fill="#4c78a8" rx="3"/>
<text x="716.86" y="366" class="value">209.02</text>
<text x="10" y="398" class="label">epicgames.com</text>
<rect x="180" y="382" width="559.15" height="22" fill="#4c78a8" rx="3"/>
<text x="747.15" y="398" class="value">220.99</text>
<text x="10" y="430" class="label">steamcommunity.com</text>
<rect x="180" y="414" width="563.88" height="22" fill="#4c78a8" rx="3"/>
<text x="751.88" y="430" class="value">222.86</text>
<text x="10" y="462" class="label">store.akamai.steamstatic.com</text>
<rect x="180" y="446" width="577.98" height="22" fill="#4c78a8" rx="3"/>
<text x="765.98" y="462" class="value">228.43</text>
<text x="10" y="494" class="label">static3.cdn.ubi.com</text>
<rect x="180" y="478" width="580.0" height="22" fill="#4c78a8" rx="3"/>
<text x="768.0" y="494" class="value">229.23</text>
<line x1="180" y1="30" x2="180" y2="520" stroke="#ccc"/>
<line x1="180" y1="520" x2="760" y2="520" stroke="#ccc"/>
</svg>