<svg xmlns="http://www.w3.org/2000/svg" width="800" height="540">
<style> .label{font-family:DejaVu Sans,Verdana,Geneva,sans-serif;font-size:12px;fill:#333} .value{font-family:DejaVu Sans,Verdana,Geneva,sans-serif;font-size:12px;fill:#555} </style>
<text x="10" y="20" class="label">延迟柱状图（越低越好，Top 15），单位 ms</text>
<text x="10" y="46" class="label">eaassets-a.akamaihd.net</text>
<rect x="180" y="30" width="137.98" height="22" fill="#4c78a8" rx="3"/>
<text x="325.98" y="46" class="value">66.62</text>
<text x="10" y="78" class="label">rockstargames.com</text>
<rect x="180" y="62" width="150.35" height="22" fill="#4c78a8" rx="3"/>
<text x="338.35" y="78" class="value">72.59</text>
<text x="10" y="110" class="label">cdn.cloudflare.steamstatic.com</text>
<rect x="180" y="94" width="187.9" height="22" fill="#4c78a8" rx="3"/>
<text x="375.9" y="110" class="value">90.72</text>
<text x="10" y="142" class="label">store.akamai.steamstatic.com</text>
<rect x="180" y="126" width="210.64" height="22" fill="#4c78a8" rx="3"/>
<text x="398.64" y="142" class="value">101.70</text>
<text x="10" y="174" class="label">origin.com</text>
<rect x="180" y="158" width="240.8" height="22" fill="#4c78a8" rx="3"/>
<text x="428.8" y="174" class="value">116.26</text>
<text x="10" y="206" class="label">ubisoft.com</text>
<rect x="180" y="190" width="270.96" height="22" fill="#4c78a8" rx="3"/>
<text x="458.96" y="206" class="value">130.82</text>
<text x="10" y="238" class="label">cdn.akamai.steamstatic.com</text>
<rect x="180" y="222" width="304.67" height="22" fill="#4c78a8" rx="3"/>
<text x="492.67" y="238" class="value">147.10</text>
<text x="10" y="270" class="label">ea.com</text>
<rect x="180" y="254" width="319.63" height="22" fill="#4c78a8" rx="3"/>
<text x="507.63" y="270" class="value">154.32</text>
<text x="10" y="302" class="label">steamcdn-a.akamaihd.net</text>
<rect x="180" y="286" width="366.75" height="22" fill="#4c78a8" rx="3"/>
<text x="554.75" y="302" class="value">177.07</text>
<text x="10" y="334" class="label">easyanticheat.net</text>
<rect x="180" y="318" width="404.55" height="22" fill="#4c78a8" rx="3"/>
<text x="592.55" y="334" class="value">195.32</text>
<text x="10" y="366" class="label">community.akamai.steamstatic.com</text>
<rect x="180" y="350" width="412.65" height="22" fill="#4c78a8" rx="3"/>
<text x="600.65" y="366" class="value">199.23</text>
<text x="10" y="398" class="label">www.steamcommunity.com</text>
<rect x="180" y="382" width="462.6" height="22" fill="#4c78a8" rx="3"/>
<text x="650.6" y="398" class="value">223.35</text>
<text x="10" y="430" class="label">steam-chat.com</text>
<rect x="180" y="414" width="468.26" height="22" fill="#4c78a8" rx="3"/>
<text x="656.26" y="430" class="value">226.08</text>
<text x="10" y="462" class="label">api.steampowered.com</text>
<rect x="180" y="446" width="501.02" height="22" fill="#4c78a8" rx="3"/>
<text x="689.02" y="462" class="value">241.90</text>
<text x="10" y="494" class="label">blizzard.com</text>
<rect x="180" y="478" width="580.0" height="22" fill="#4c78a8" rx="3"/>
<text x="768.0" y="494" class="value">280.03</text>
<line x1="180" y1="30" x2="180" y2="520" stroke="#ccc"/>
<line x1="180" y1="520" x2="760" y2="520" stroke="#ccc"/>
</svg>