<svg xmlns="http://www.w3.org/2000/svg" width="800" height="540">
<style> .label{font-family:DejaVu Sans,Verdana,Geneva,sans-serif;font-size:12px;fill:#333} .value{font-family:DejaVu Sans,Verdana,Geneva,sans-serif;font-size:12px;fill:#555} </style>
<text x="10" y="20" class="label">延迟柱状图（越低越好，Top 15），单位 ms</text>
<text x="10" y="46" class="label">rockstargames.com</text>
<rect x="180" y="30" width="271.61" height="22" fill="#4c78a8" rx="3"/>
<text x="459.61" y="46" class="value">77.76</text>
<text x="10" y="78" class="label">store.akamai.steamstatic.com</text>
<rect x="180" y="62" width="283.35" height="22" fill="#4c78a8" rx="3"/>
<text x="471.35" y="78" class="value">81.12</text>
<text x="10" y="110" class="label">community.akamai.steamstatic.com</text>
<rect x="180" y="94" width="301.3" height="22" fill="#4c78a8" rx="3"/>
<text x="489.3" y="110" class="value">86.26</text>
<text x="10" y="142" class="label">eaassets-a.akamaihd.net</text>
<rect x="180" y="126" width="363.02" height="22" fill="#4c78a8" rx="3"/>
<text x="551.02" y="142" class="value">103.93</text>
<text x="10" y="174" class="label">ubisoft.com</text>
<rect x="180" y="158" width="383.21" height="22" fill="#4c78a8" rx="3"/>
<text x="571.21" y="174" class="value">109.71</text>
<text x="10" y="206" class="label">ea.com</text>
<rect x="180" y="190" width="416.39" height="22" fill="#4c78a8" rx="3"/>
<text x="604.39" y="206" class="value">119.21</text>
<text x="10" y="238" class="label">easyanticheat.net</text>
<rect x="180" y="222" width="514.89" height="22" fill="#4c78a8" rx="3"/>
<text x="702.89" y="238" class="value">147.41</text>
<text x="10" y="270" class="label">api.steampowered.com</text>
<rect x="180" y="254" width="524.5" height="22" fill="#4c78a8" rx="3"/>
<text x="712.5" y="270" class="value">150.16</text>
<text x="10" y="302" class="label">socialclub.rockstargames.com</text>
<rect x="180" y="286" width="533.96" height="22" fill="#4c78a8" rx="3"/>
<text x="721.96" y="302" class="value">152.87</text>
<text x="10" y="334" class="label">blizzard.com</text>
<rect x="180" y="318" width="534.42" height="22" fill="#4c78a8" rx="3"/>
<text x="722.42" y="334" class="value">153.00</text>
<text x="10" y="366" class="label">battle.net</text>
<rect x="180" y="350" width="538.15" height="22" fill="#4c78a8" rx="3"/>
<text x="726.15" y="366" class="value">154.07</text>
<text x="10" y="398" class="label">origin.com</text>
<rect x="180" y="382" width="545.91" height="22" fill="#4c78a8" rx="3"/>
<text x="733.91" y="398" class="value">156.29</text>
<text x="10" y="430" class="label">steamcdn-a.akamaihd.net</text>
<rect x="180" y="414" width="555.48" height="22" fill="#4c78a8" rx="3"/>
<text x="743.48" y="430" class="value">159.03</text>
<text x="10" y="462" class="label">ubi.com</text>
<rect x="180" y="446" width="569.21" height="22" fill="#4c78a8" rx="3"/>
<text x="757.21" y="462" class="value">162.96</text>
<text x="10" y="494" class="label">cdn.cloudflare.steamstatic.com</text>
<rect x="180" y="478" width="580.0" height="22" fill="#4c78a8" rx="3"/>
<text x="768.0" y="494" class="value">166.05</text>
<line x1="180" y1="30" x2="180" y2="520" stroke="#ccc"/>
<line x1="180" y1="520" x2="760" y2="520" stroke="#ccc"/>
</svg>