<svg xmlns="http://www.w3.org/2000/svg" width="800" height="540">
<style> .label{font-family:DejaVu Sans,Verdana,Geneva,sans-serif;font-size:12px;fill:#333} .value{font-family:DejaVu Sans,Verdana,Geneva,sans-serif;font-size:12px;fill:#555} </style>
<text x="10" y="20" class="label">延迟柱状图（越低越好，Top 15），单位 ms</text>
<text x="10" y="46" class="label">cdn.cloudflare.steamstatic.com</text>
<rect x="180" y="30" width="212.0" height="22" fill="#4c78a8" rx="3"/>
<text x="400.0" y="46" class="value">93.10</text>
<text x="10" y="78" class="label">ubisoft.com</text>
<rect x="180" y="62" width="228.46" height="22" fill="#4c78a8" rx="3"/>
<text x="416.46000000000004" y="78" class="value">100.33</text>
<text x="10" y="110" class="label">rockstargames.com</text>
<rect x="180" y="94" width="277.83" height="22" fill="#4c78a8" rx="3"/>
<text x="465.83" y="110" class="value">122.01</text>
<text x="10" y="142" class="label">steamcdn-a.akamaihd.net</text>
<rect x="180" y="126" width="325.4" height="22" fill="#4c78a8" rx="3"/>
<text x="513.4" y="142" class="value">142.90</text>
<text x="10" y="174" class="label">easyanticheat.net</text>
<rect x="180" y="158" width="351.54" height="22" fill="#4c78a8" rx="3"/>
<text x="539.54" y="174" class="value">154.38</text>
<text x="10" y="206" class="label">eaassets-a.akamaihd.net</text>
<rect x="180" y="190" width="359.44" height="22" fill="#4c78a8" rx="3"/>
<text x="547.44" y="206" class="value">157.85</text>
<text x="10" y="238" class="label">community.akamai.steamstatic.com</text>
<rect x="180" y="222" width="362.22" height="22" fill="#4c78a8" rx="3"/>
<text x="550.22" y="238" class="value">159.07</text>
<text x="10" y="270" class="label">battle.net</text>
<rect x="180" y="254" width="379.98" height="22" fill="#4c78a8" rx="3"/>
<text x="567.98" y="270" class="value">166.87</text>
<text x="10" y="302" class="label">ubi.com</text>
<rect x="180" y="286" width="394.76" height="22" fill="#4c78a8" rx="3"/>
<text x="582.76" y="302" class="value">173.36</text>
<text x="10" y="334" class="label">socialclub.rockstargames.com</text>
<rect x="180" y="318" width="412.29" height="22" fill="#4c78a8" rx="3"/>
<text x="600.29" y="334" class="value">181.06</text>
<text x="10" y="366" class="label">blizzard.com</text>
<rect x="180" y="350" width="414.41" height="22" fill="#4c78a8" rx="3"/>
<text x="602.4100000000001" y="366" class="value">181.99</text>
<text x="10" y="398" class="label">ea.com</text>
<rect x="180" y="382" width="414.96" height="22" fill="#4c78a8" rx="3"/>
<text x="602.96" y="398" class="value">182.23</text>
<text x="10" y="430" class="label">launcher-public-service-prod06.ol.epicgames.com</text>
<rect x="180" y="414" width="532.57" height="22" fill="#4c78a8" rx="3"/>
<text x="720.57" y="430" class="value">233.88</text>
<text x="10" y="462" class="label">store.akamai.steamstatic.com</text>
<rect x="180" y="446" width="564.81" height="22" fill="#4c78a8" rx="3"/>
<text x="752.81" y="462" class="value">248.04</text>
<text x="10" y="494" class="label">static3.cdn.ubi.com</text>
<rect x="180" y="478" width="580.0" height="22" fill="#4c78a8" rx="3"/>
<text x="768.0" y="494" class="value">254.71</text>
<line x1="180" y1="30" x2="180" y2="520" stroke="#ccc"/>
<line x1="180" y1="520" x2="760" y2="520" stroke="#ccc"/>
</svg>