<svg xmlns="http://www.w3.org/2000/svg" width="800" height="540">
<style> .label{font-family:DejaVu Sans,Verdana,Geneva,sans-serif;font-size:12px;fill:#333} .value{font-family:DejaVu Sans,Verdana,Geneva,sans-serif;font-size:12px;fill:#555} </style>
<text x="10" y="20" class="label">延迟柱状图（越低越好，Top 15），单位 ms</text>
<text x="10" y="46" class="label">community.akamai.steamstatic.com</text>
<rect x="180" y="30" width="173.22" height="22" fill="#4c78a8" rx="3"/>
<text x="361.22" y="46" class="value">74.38</text>
<text x="10" y="78" class="label">ea.com</text>
<rect x="180" y="62" width="176.36" height="22" fill="#4c78a8" rx="3"/>
<text x="364.36" y="78" class="value">75.73</text>
<text x="10" y="110" class="label">origin.com</text>
<rect x="180" y="94" width="183.58" height="22" fill="#4c78a8" rx="3"/>
<text x="371.58000000000004" y="110" class="value">78.83</text>
<text x="10" y="142" class="label">eaassets-a.akamaihd.net</text>
<rect x="180" y="126" width="202.4" height="22" fill="#4c78a8" rx="3"/>
<text x="390.4" y="142" class="value">86.91</text>
<text x="10" y="174" class="label">steamcdn-a.akamaihd.net</text>
<rect x="180" y="158" width="270.82" height="22" fill="#4c78a8" rx="3"/>
<text x="458.82" y="174" class="value">116.29</text>
<text x="10" y="206" class="label">ubi.com</text>
<rect x="180" y="190" width="290.85" height="22" fill="#4c78a8" rx="3"/>
<text x="478.85" y="206" class="value">124.89</text>
<text x="10" y="238" class="label">blizzard.com</text>
<rect x="180" y="222" width="294.02" height="22" fill="#4c78a8" rx="3"/>
<text x="482.02" y="238" class="value">126.25</text>
<text x="10" y="270" class="label">rockstargames.com</text>
<rect x="180" y="254" width="316.26" height="22" fill="#4c78a8" rx="3"/>
<text x="504.26" y="270" class="value">135.80</text>
<text x="10" y="302" class="label">battle.net</text>
<rect x="180" y="286" width="330.09" height="22" fill="#4c78a8" rx="3"/>
<text x="518.0899999999999" y="302" class="value">141.74</text>
<text x="10" y="334" class="label">socialclub.rockstargames.com</text>
<rect x="180" y="318" width="361.37" height="22" fill="#4c78a8" rx="3"/>
<text x="549.37" y="334" class="value">155.17</text>
<text x="10" y="366" class="label">ubisoft.com</text>
<rect x="180" y="350" width="371.4" height="22" fill="#4c78a8" rx="3"/>
<text x="559.4" y="366" class="value">159.48</text>
<text x="10" y="398" class="label">static3.cdn.ubi.com</text>
<rect x="180" y="382" width="380.63" height="22" fill="#4c78a8" rx="3"/>
<text x="568.63" y="398" class="value">163.44</text>
<text x="10" y="430" class="label">gog.com</text>
<rect x="180" y="414" width="507.36" height="22" fill="#4c78a8" rx="3"/>
<text x="695.36" y="430" class="value">217.86</text>
<text x="10" y="462" class="label">cdn.akamai.steamstatic.com</text>
<rect x="180" y="446" width="534.03" height="22" fill="#4c78a8" rx="3"/>
<text x="722.03" y="462" class="value">229.31</text>
<text x="10" y="494" class="label">cdn.cloudflare.steamstatic.com</text>
<rect x="180" y="478" width="580.0" height="22" fill="#4c78a8" rx="3"/>
<text x="768.0" y="494" class="value">249.05</text>
<line x1="180" y1="30" x2="180" y2="520" stroke="#ccc"/>
<line x1="180" y1="520" x2="760" y2="520" stroke="#ccc"/>
</svg>