<svg xmlns="http://www.w3.org/2000/svg" width="800" height="540">
<style> .label{font-family:DejaVu Sans,Verdana,Geneva,sans-serif;font-size:12px;fill:#333} .value{font-family:DejaVu Sans,Verdana,Geneva,sans-serif;font-size:12px;fill:#555} </style>
<text x="10" y="20" class="label">延迟柱状图（越低越好，Top 15），单位 ms</text>
<text x="10" y="46" class="label">socialclub.rockstargames.com</text>
<rect x="180" y="30" width="158.92" height="22" fill="#4c78a8" rx="3"/>
<text x="346.91999999999996" y="46" class="value">58.40</text>
<text x="10" y="78" class="label">battle.net</text>
<rect x="180" y="62" width="172.33" height="22" fill="#4c78a8" rx="3"/>
<text x="360.33000000000004" y="78" class="value">63.33</text>
<text x="10" y="110" class="label">rockstargames.com</text>
<rect x="180" y="94" width="185.29" height="22" fill="#4c78a8" rx="3"/>
<text x="373.28999999999996" y="110" class="value">68.09</text>
<text x="10" y="142" class="label">blizzard.com</text>
<rect x="180" y="126" width="214.54" height="22" fill="#4c78a8" rx="3"/>
<text x="402.53999999999996" y="142" class="value">78.84</text>
<text x="10" y="174" class="label">ubi.com</text>
<rect x="180" y="158" width="223.71" height="22" fill="#4c78a8" rx="3"/>
<text x="411.71000000000004" y="174" class="value">82.21</text>
<text x="10" y="206" class="label">fortnite.com</text>
<rect x="180" y="190" width="261.73" height="22" fill="#4c78a8" rx="3"/>
<text x="449.73" y="206" class="value">96.18</text>
<text x="10" y="238" class="label">cdn.akamai.steamstatic.com</text>
<rect x="180" y="222" width="287.77" height="22" fill="#4c78a8" rx="3"/>
<text x="475.77" y="238" class="value">105.75</text>
<text x="10" y="270" class="label">store.akamai.steamstatic.com</text>
<rect x="180" y="254" width="289.29" height="22" fill="#4c78a8" rx="3"/>
<text x="477.29" y="270" class="value">106.31</text>
<text x="10" y="302" class="label">ubisoft.com</text>
<rect x="180" y="286" width="295.71" height="22" fill="#4c78a8" rx="3"/>
<text x="483.71" y="302" class="value">108.67</text>
<text x="10" y="334" class="label">eaassets-a.akamaihd.net</text>
<rect x="180" y="318" width="299.47" height="22" fill="#4c78a8" rx="3"/>
<text x="487.47" y="334" class="value">110.05</text>
<text x="10" y="366" class="label">epicgames.com</text>
<rect x="180" y="350" width="445.27" height="22" fill="#4c78a8" rx="3"/>
<text x="633.27" y="366" class="value">163.63</text>
<text x="10" y="398" class="label">ea.com</text>
<rect x="180" y="382" width="461.98" height="22" fill="#4c78a8" rx="3"/>
<text x="649.98" y="398" class="value">169.77</text>
<text x="10" y="430" class="label">community.akamai.steamstatic.com</text>
<rect x="180" y="414" width="491.48" height="22" fill="#4c78a8" rx="3"/>
<text x="679.48" y="430" class="value">180.61</text>
<text x="10" y="462" class="label">launcher-public-service-prod06.ol.epicgames.com</text>
<rect x="180" y="446" width="579.76" height="22" fill="#4c78a8" rx="3"/>
<text x="767.76" y="462" class="value">213.05</text>
<text x="10" y="494" class="label">api.steampowered.com</text>
<rect x="180" y="478" width="580.0" height="22" fill="#4c78a8" rx="3"/>
<text x="768.0" y="494" class="value">213.14</text>
<line x1="180" y1="30" x2="180" y2="520" stroke="#ccc"/>
<line x1="180" y1="520" x2="760" y2="520" stroke="#ccc"/>
</svg>