<svg xmlns="http://www.w3.org/2000/svg" width="800" height="540">
<style> .label{font-family:DejaVu Sans,Verdana,Geneva,sans-serif;font-size:12px;fill:#333} .value{font-family:DejaVu Sans,Verdana,Geneva,sans-serif;font-size:12px;fill:#555} </style>
<text x="10" y="20" class="label">延迟柱状图（越低越好，Top 15），单位 ms</text>
<text x="10" y="46" class="label">rockstargames.com</text>
<rect x="180" y="30" width="194.4" height="22" fill="#4c78a8" rx="3"/>
<text x="382.4" y="46" class="value">64.66</text>
<text x="10" y="78" class="label">socialclub.rockstargames.com</text>
<rect x="180" y="62" width="309.69" height="22" fill="#4c78a8" rx="3"/>
<text x="497.69" y="78" class="value">103.01</text>
<text x="10" y="110" class="label">blizzard.com</text>
<rect x="180" y="94" width="322.5" height="22" fill="#4c78a8" rx="3"/>
<text x="510.5" y="110" class="value">107.27</text>
<text x="10" y="142" class="label">battle.net</text>
<rect x="180" y="126" width="328.63" height="22" fill="#4c78a8" rx="3"/>
<text x="516.63" y="142" class="value">109.31</text>
<text x="10" y="174" class="label">ea.com</text>
<rect x="180" y="158" width="345.41" height="22" fill="#4c78a8" rx="3"/>
<text x="533.4100000000001" y="174" class="value">114.89</text>
<text x="10" y="206" class="label">eaassets-a.akamaihd.net</text>
<rect x="180" y="190" width="365.61" height="22" fill="#4c78a8" rx="3"/>
<text x="553.61" y="206" class="value">121.61</text>
<text x="10" y="238" class="label">epicgames.com</text>
<rect x="180" y="222" width="376.65" height="22" fill="#4c78a8" rx="3"/>
<text x="564.65" y="238" class="value">125.28</text>
<text x="10" y="270" class="label">ubisoft.com</text>
<rect x="180" y="254" width="416.66" height="22" fill="#4c78a8" rx="3"/>
<text x="604.6600000000001" y="270" class="value">138.59</text>
<text x="10" y="302" class="label">origin.com</text>
<rect x="180" y="286" width="429.08" height="22" fill="#4c78a8" rx="3"/>
<text x="617.0799999999999" y="302" class="value">142.72</text>
<text x="10" y="334" class="label">unrealengine.com</text>
<rect x="180" y="318" width="432.08" height="22" fill="#4c78a8" rx="3"/>
<text x="620.0799999999999" y="334" class="value">143.72</text>
<text x="10" y="366" class="label">ubi.com</text>
<rect x="180" y="350" width="461.19" height="22" fill="#4c78a8" rx="3"/>
<text x="649.19" y="366" class="value">153.40</text>
<text x="10" y="398" class="label">launcher-public-service-prod06.ol.epicgames.com</text>
<rect x="180" y="382" width="537.22" height="22" fill="#4c78a8" rx="3"/>
<text x="725.22" y="398" class="value">178.69</text>
<text x="10" y="430" class="label">cdn.akamai.steamstatic.com</text>
<rect x="180" y="414" width="548.55" height="22" fill="#4c78a8" rx="3"/>
<text x="736.55" y="430" class="value">182.46</text>
<text x="10" y="462" class="label">static3.cdn.ubi.com</text>
<rect x="180" y="446" width="577.32" height="22" fill="#4c78a8" rx="3"/>
<text x="765.32" y="462" class="value">192.03</text>
<text x="10" y="494" class="label">gog.com</text>
<rect x="180" y="478" width="580.0" height="22" fill="#4c78a8" rx="3"/>
<text x="768.0" y="494" class="value">192.92</text>
<line x1="180" y1="30" x2="180" y2="520" stroke="#ccc"/>
<line x1="180" y1="520" x2="760" y2="520" stroke="#ccc"/>
</svg>