<svg xmlns="http://www.w3.org/2000/svg" width="800" height="540">
<style> .label{font-family:DejaVu Sans,Verdana,Geneva,sans-serif;font-size:12px;fill:#333} .value{font-family:DejaVu Sans,Verdana,Geneva,sans-serif;font-size:12px;fill:#555} </style>
<text x="10" y="20" class="label">延迟柱状图（越低越好，Top 15），单位 ms</text>
<text x="10" y="46" class="label">ubisoft.com</text>
<rect x="180" y="30" width="296.47" height="22" fill="#4c78a8" rx="3"/>
<text x="484.47" y="46" class="value">128.84</text>
<text x="10" y="78" class="label">eaassets-a.akamaihd.net</text>
<rect x="180" y="62" width="318.05" height="22" fill="#4c78a8" rx="3"/>
<text x="506.05" y="78" class="value">138.22</text>
<text x="10" y="110" class="label">cdn.akamai.steamstatic.com</text>
<rect x="180" y="94" width="334.39" height="22" fill="#4c78a8" rx="3"/>
<text x="522.39" y="110" class="value">145.32</text>
<text x="10" y="142" class="label">community.akamai.steamstatic.com</text>
<rect x="180" y="126" width="403.58" height="22" fill="#4c78a8" rx="3"/>
<text x="591.5799999999999" y="142" class="value">175.39</text>
<text x="10" y="174" class="label">cdn.cloudflare.steamstatic.com</text>
<rect x="180" y="158" width="427.99" height="22" fill="#4c78a8" rx="3"/>
<text x="615.99" y="174" class="value">186.00</text>
<text x="10" y="206" class="label">www.steamcommunity.com</text>
<rect x="180" y="190" width="453.49" height="22" fill="#4c78a8" rx="3"/>
<text x="641.49" y="206" class="value">197.08</text>
<text x="10" y="238" class="label">rockstargames.com</text>
<rect x="180" y="222" width="470.4" height="22" fill="#4c78a8" rx="3"/>
<text x="658.4" y="238" class="value">204.43</text>
<text x="10" y="270" class="label">store.akamai.steamstatic.com</text>
<rect x="180" y="254" width="470.75" height="22" fill="#4c78a8" rx="3"/>
<text x="658.75" y="270" class="value">204.58</text>
<text x="10" y="302" class="label">ubi.com</text>
<rect x="180" y="286" width="475.07" height="22" fill="#4c78a8" rx="3"/>
<text x="663.0699999999999" y="302" class="value">206.46</text>
<text x="10" y="334" class="label">origin.com</text>
<rect x="180" y="318" width="486.14" height="22" fill="#4c78a8" rx="3"/>
<text x="674.14" y="334" class="value">211.27</text>
<text x="10" y="366" class="label">easyanticheat.net</text>
<rect x="180" y="350" width="533.54" height="22" fill="#4c78a8" rx="3"/>
<text x="721.54" y="366" class="value">231.87</text>
<text x="10" y="398" class="label">blizzard.com</text>
<rect x="180" y="382" width="540.68" height="22" fill="#4c78a8" rx="3"/>
<text x="728.68" y="398" class="value">234.97</text>
<text x="10" y="430" class="label">battle.net</text>
<rect x="180" y="414" width="547.51" height="22" fill="#4c78a8" rx="3"/>
<text x="735.51" y="430" class="value">237.94</text>
<text x="10" y="462" class="label">socialclub.rockstargames.com</text>
<rect x="180" y="446" width="558.07" height="22" fill="#4c78a8" rx="3"/>
<text x="746.07" y="462" class="value">242.53</text>
<text x="10" y="494" class="label">fortnite.com</text>
<rect x="180" y="478" width="580.0" height="22" fill="#4c78a8" rx="3"/>
<text x="768.0" y="494" class="value">252.06</text>
<line x1="180" y1="30" x2="180" y2="520" stroke="#ccc"/>
<line x1="180" y1="520" x2="760" y2="520" stroke="#ccc"/>
</svg>