<svg xmlns="http://www.w3.org/2000/svg" width="800" height="540">
<style> .label{font-family:DejaVu Sans,Verdana,Geneva,sans-serif;font-size:12px;fill:#333} .value{font-family:DejaVu Sans,Verdana,Geneva,sans-serif;font-size:12px;fill:#555} </style>
<text x="10" y="20" class="label">延迟柱状图（越低越好，Top 15），单位 ms</text>
<text x="10" y="46" class="label">rockstargames.com</text>
<rect x="180" y="30" width="125.46" height="22" fill="#4c78a8" rx="3"/>
<text x="313.46" y="46" class="value">60.88</text>
<text x="10" y="78" class="label">ubisoft.com</text>
<rect x="180" y="62" width="172.51" height="22" fill="#4c78a8" rx="3"/>
<text x="360.51" y="78" class="value">83.71</text>
<text x="10" y="110" class="label">eaassets-a.akamaihd.net</text>
<rect x="180" y="94" width="194.91" height="22" fill="#4c78a8" rx="3"/>
<text x="382.90999999999997" y="110" class="value">94.58</text>
<text x="10" y="142" class="label">ea.com</text>
<rect x="180" y="126" width="203.49" height="22" fill="#4c78a8" rx="3"/>
<text x="391.49" y="142" class="value">98.74</text>
<text x="10" y="174" class="label">origin.com</text>
<rect x="180" y="158" width="221.72" height="22" fill="#4c78a8" rx="3"/>
<text x="409.72" y="174" class="value">107.59</text>
<text x="10" y="206" class="label">steamcdn-a.akamaihd.net</text>
<rect x="180" y="190" width="270.71" height="22" fill="#4c78a8" rx="3"/>
<text x="458.71" y="206" class="value">131.36</text>
<text x="10" y="238" class="label">community.akamai.steamstatic.com</text>
<rect x="180" y="222" width="273.68" height="22" fill="#4c78a8" rx="3"/>
<text x="461.68" y="238" class="value">132.80</text>
<text x="10" y="270" class="label">cdn.cloudflare.steamstatic.com</text>
<rect x="180" y="254" width="310.05" height="22" fill="#4c78a8" rx="3"/>
<text x="498.05" y="270" class="value">150.45</text>
<text x="10" y="302" class="label">store.akamai.steamstatic.com</text>
<rect x="180" y="286" width="370.54" height="22" fill="#4c78a8" rx="3"/>
<text x="558.54" y="302" class="value">179.80</text>
<text x="10" y="334" class="label">cdn.akamai.steamstatic.com</text>
<rect x="180" y="318" width="372.37" height="22" fill="#4c78a8" rx="3"/>
<text x="560.37" y="334" class="value">180.69</text>
<text x="10" y="366" class="label">easyanticheat.net</text>
<rect x="180" y="350" width="424.1" height="22" fill="#4c78a8" rx="3"/>
<text x="612.1" y="366" class="value">205.79</text>
<text x="10" y="398" class="label">api.steampowered.com</text>
<rect x="180" y="382" width="453.44" height="22" fill="#4c78a8" rx="3"/>
<text x="641.44" y="398" class="value">220.03</text>
<text x="10" y="430" class="label">steam-chat.com</text>
<rect x="180" y="414" width="524.52" height="22" fill="#4c78a8" rx="3"/>
<text x="712.52" y="430" class="value">254.52</text>
<text x="10" y="462" class="label">www.steamcommunity.com</text>
<rect x="180" y="446" width="531.12" height="22" fill="#4c78a8" rx="3"/>
<text x="719.12" y="462" class="value">257.72</text>
<text x="10" y="494" class="label">ubi.com</text>
<rect x="180" y="478" width="580.0" height="22" fill="#4c78a8" rx="3"/>
<text x="768.0" y="494" class="value">281.44</text>
<line x1="180" y1="30" x2="180" y2="520" stroke="#ccc"/>
<line x1="180" y1="520" x2="760" y2="520" stroke="#ccc"/>
</svg>