<svg xmlns="http://www.w3.org/2000/svg" width="800" height="540">
<style> .label{font-family:DejaVu Sans,Verdana,Geneva,sans-serif;font-size:12px;fill:#333} .value{font-family:DejaVu Sans,Verdana,Geneva,sans-serif;font-size:12px;fill:#555} </style>
<text x="10" y="20" class="label">延迟柱状图（越低越好，Top 15），单位 ms</text>
<text x="10" y="46" class="label">eaassets-a.akamaihd.net</text>
<rect x="180" y="30" width="130.76" height="22" fill="#4c78a8" rx="3"/>
<text x="318.76" y="46" class="value">48.81</text>
<text x="10" y="78" class="label">rockstargames.com</text>
<rect x="180" y="62" width="144.18" height="22" fill="#4c78a8" rx="3"/>
<text x="332.18" y="78" class="value">53.82</text>
<text x="10" y="110" class="label">ea.com</text>
<rect x="180" y="94" width="210.78" height="22" fill="#4c78a8" rx="3"/>
<text x="398.78" y="110" class="value">78.68</text>
<text x="10" y="142" class="label">store.akamai.steamstatic.com</text>
<rect x="180" y="126" width="256.24" height="22" fill="#4c78a8" rx="3"/>
<text x="444.24" y="142" class="value">95.65</text>
<text x="10" y="174" class="label">blizzard.com</text>
<rect x="180" y="158" width="320.75" height="22" fill="#4c78a8" rx="3"/>
<text x="508.75" y="174" class="value">119.73</text>
<text x="10" y="206" class="label">cdn.cloudflare.steamstatic.com</text>
<rect x="180" y="190" width="330.16" height="22" fill="#4c78a8" rx="3"/>
<text x="518.1600000000001" y="206" class="value">123.24</text>
<text x="10" y="238" class="label">socialclub.rockstargames.com</text>
<rect x="180" y="222" width="334.71" height="22" fill="#4c78a8" rx="3"/>
<text x="522.71" y="238" class="value">124.94</text>
<text x="10" y="270" class="label">easyanticheat.net</text>
<rect x="180" y="254" width="355.88" height="22" fill="#4c78a8" rx="3"/>
<text x="543.88" y="270" class="value">132.84</text>
<text x="10" y="302" class="label">ubi.com</text>
<rect x="180" y="286" width="361.61" height="22" fill="#4c78a8" rx="3"/>
<text x="549.61" y="302" class="value">134.98</text>
<text x="10" y="334" class="label">battle.net</text>
<rect x="180" y="318" width="365.28" height="22" fill="#4c78a8" rx="3"/>
<text x="553.28" y="334" class="value">136.35</text>
<text x="10" y="366" class="label">community.akamai.steamstatic.com</text>
<rect x="180" y="350" width="431.48" height="22" fill="#4c78a8" rx="3"/>
<text x="619.48" y="366" class="value">161.06</text>
<text x="10" y="398" class="label">origin.com</text>
<rect x="180" y="382" width="464.16" height="22" fill="#4c78a8" rx="3"/>
<text x="652.1600000000001" y="398" class="value">173.26</text>
<text x="10" y="430" class="label">cdn.akamai.steamstatic.com</text>
<rect x="180" y="414" width="515.97" height="22" fill="#4c78a8" rx="3"/>
<text x="703.97" y="430" class="value">192.60</text>
<text x="10" y="462" class="label">api.steampowered.com</text>
<rect x="180" y="446" width="578.58" height="22" fill="#4c78a8" rx="3"/>
<text x="766.58" y="462" class="value">215.97</text>
<text x="10" y="494" class="label">steamcdn-a.akamaihd.net</text>
<rect x="180" y="478" width="580.0" height="22" fill="#4c78a8" rx="3"/>
<text x="768.0" y="494" class="value">216.50</text>
<line x1="180" y1="30" x2="180" y2="520" stroke="#ccc"/>
<line x1="180" y1="520" x2="760" y2="520" stroke="#ccc"/>
</svg>