<svg xmlns="http://www.w3.org/2000/svg" width="800" height="540">
<style> .label{font-family:DejaVu Sans,Verdana,Geneva,sans-serif;font-size:12px;fill:#333} .value{font-family:DejaVu Sans,Verdana,Geneva,sans-serif;font-size:12px;fill:#555} </style>
<text x="10" y="20" class="label">延迟柱状图（越低越好，Top 15），单位 ms</text>
<text x="10" y="46" class="label">cdn.akamai.steamstatic.com</text>
<rect x="180" y="30" width="169.17" height="22" fill="#4c78a8" rx="3"/>
<text x="357.16999999999996" y="46" class="value">73.76</text>
<text x="10" y="78" class="label">rockstargames.com</text>
<rect x="180" y="62" width="183.04" height="22" fill="#4c78a8" rx="3"/>
<text x="371.03999999999996" y="78" class="value">79.81</text>
<text x="10" y="110" class="label">store.akamai.steamstatic.com</text>
<rect x="180" y="94" width="209.44" height="22" fill="#4c78a8" rx="3"/>
<text x="397.44" y="110" class="value">91.32</text>
<text x="10" y="142" class="label">ea.com</text>
<rect x="180" y="126" width="240.38" height="22" fill="#4c78a8" rx="3"/>
<text x="428.38" y="142" class="value">104.81</text>
<text x="10" y="174" class="label">steamcdn-a.akamaihd.net</text>
<rect x="180" y="158" width="277.03" height="22" fill="#4c78a8" rx="3"/>
<text x="465.03" y="174" class="value">120.79</text>
<text x="10" y="206" class="label">eaassets-a.akamaihd.net</text>
<rect x="180" y="190" width="292.03" height="22" fill="#4c78a8" rx="3"/>
<text x="480.03" y="206" class="value">127.33</text>
<text x="10" y="238" class="label">community.akamai.steamstatic.com</text>
<rect x="180" y="222" width="349.39" height="22" fill="#4c78a8" rx="3"/>
<text x="537.39" y="238" class="value">152.34</text>
<text x="10" y="270" class="label">origin.com</text>
<rect x="180" y="254" width="390.4" height="22" fill="#4c78a8" rx="3"/>
<text x="578.4" y="270" class="value">170.22</text>
<text x="10" y="302" class="label">cdn.cloudflare.steamstatic.com</text>
<rect x="180" y="286" width="407.92" height="22" fill="#4c78a8" rx="3"/>
<text x="595.9200000000001" y="302" class="value">177.86</text>
<text x="10" y="334" class="label">easyanticheat.net</text>
<rect x="180" y="318" width="414.04" height="22" fill="#4c78a8" rx="3"/>
<text x="602.04" y="334" class="value">180.53</text>
<text x="10" y="366" class="label">www.steamcommunity.com</text>
<rect x="180" y="350" width="494.73" height="22" fill="#4c78a8" rx="3"/>
<text x="682.73" y="366" class="value">215.71</text>
<text x="10" y="398" class="label">api.steampowered.com</text>
<rect x="180" y="382" width="511.42" height="22" fill="#4c78a8" rx="3"/>
<text x="699.4200000000001" y="398" class="value">222.99</text>
<text x="10" y="430" class="label">steam-chat.com</text>
<rect x="180" y="414" width="550.53" height="22" fill="#4c78a8" rx="3"/>
<text x="738.53" y="430" class="value">240.04</text>
<text x="10" y="462" class="label">ubi.com</text>
<rect x="180" y="446" width="568.21" height="22" fill="#4c78a8" rx="3"/>
<text x="756.21" y="462" class="value">247.75</text>
<text x="10" y="494" class="label">launcher-public-service-prod06.ol.epicgames.com</text>
<rect x="180" y="478" width="580.0" height="22" fill="#4c78a8" rx="3"/>
<text x="768.0" y="494" class="value">252.89</text>
<line x1="180" y1="30" x2="180" y2="520" stroke="#ccc"/>
<line x1="180" y1="520" x2="760" y2="520" stroke="#ccc"/>
</svg>