<svg xmlns="http://www.w3.org/2000/svg" width="800" height="540">
<style> .label{font-family:DejaVu Sans,Verdana,Geneva,sans-serif;font-size:12px;fill:#333} .value{font-family:DejaVu Sans,Verdana,Geneva,sans-serif;font-size:12px;fill:#555} </style>
<text x="10" y="20" class="label">延迟柱状图（越低越好，Top 15），单位 ms</text>
<text x="10" y="46" class="label">eaassets-a.akamaihd.net</text>
<rect x="180" y="30" width="283.8" height="22" fill="#4c78a8" rx="3"/>
<text x="471.8" y="46" class="value">132.26</text>
<text x="10" y="78" class="label">blizzard.com</text>
<rect x="180" y="62" width="317.19" height="22" fill="#4c78a8" rx="3"/>
<text x="505.19" y="78" class="value">147.82</text>
<text x="10" y="110" class="label">battle.net</text>
<rect x="180" y="94" width="327.21" height="22" fill="#4c78a8" rx="3"/>
<text x="515.21" y="110" class="value">152.49</text>
<text x="10" y="142" class="label">ubi.com</text>
<rect x="180" y="126" width="362.87" height="22" fill="#4c78a8" rx="3"/>
<text x="550.87" y="142" class="value">169.11</text>
<text x="10" y="174" class="label">rockstargames.com</text>
<rect x="180" y="158" width="379.26" height="22" fill="#4c78a8" rx="3"/>
<text x="567.26" y="174" class="value">176.75</text>
<text x="10" y="206" class="label">socialclub.rockstargames.com</text>
<rect x="180" y="190" width="389.78" height="22" fill="#4c78a8" rx="3"/>
<text x="577.78" y="206" class="value">181.65</text>
<text x="10" y="238" class="label">easyanticheat.net</text>
<rect x="180" y="222" width="393.53" height="22" fill="#4c78a8" rx="3"/>
<text x="581.53" y="238" class="value">183.40</text>
<text x="10" y="270" class="label">community.akamai.steamstatic.com</text>
<rect x="180" y="254" width="397.27" height="22" fill="#4c78a8" rx="3"/>
<text x="585.27" y="270" class="value">185.14</text>
<text x="10" y="302" class="label">cdn.akamai.steamstatic.com</text>
<rect x="180" y="286" width="397.4" height="22" fill="#4c78a8" rx="3"/>
<text x="585.4" y="302" class="value">185.20</text>
<text x="10" y="334" class="label">ubisoft.com</text>
<rect x="180" y="318" width="414.56" height="22" fill="#4c78a8" rx="3"/>
<text x="602.56" y="334" class="value">193.20</text>
<text x="10" y="366" class="label">launcher-public-service-prod06.ol.epicgames.com</text>
<rect x="180" y="350" width="475.31" height="22" fill="#4c78a8" rx="3"/>
<text x="663.31" y="366" class="value">221.51</text>
<text x="10" y="398" class="label">gog.com</text>
<rect x="180" y="382" width="481.94" height="22" fill="#4c78a8" rx="3"/>
<text x="669.94" y="398" class="value">224.60</text>
<text x="10" y="430" class="label">epicgames.com</text>
<rect x="180" y="414" width="501.55" height="22" fill="#4c78a8" rx="3"/>
<text x="689.55" y="430" class="value">233.74</text>
<text x="10" y="462" class="label">steam-chat.com</text>
<rect x="180" y="446" width="547.53" height="22" fill="#4c78a8" rx="3"/>
<text x="735.53" y="462" class="value">255.17</text>
<text x="10" y="494" class="label">store.akamai.steamstatic.com</text>
<rect x="180" y="478" width="580.0" height="22" fill="#4c78a8" rx="3"/>
<text x="768.0" y="494" class="value">270.30</text>
<line x1="180" y1="30" x2="180" y2="520" stroke="#ccc"/>
<line x1="180" y1="520" x2="760" y2="520" stroke="#ccc"/>
</svg>