<svg xmlns="http://www.w3.org/2000/svg" width="800" height="540">
<style> .label{font-family:DejaVu Sans,Verdana,Geneva,sans-serif;font-size:12px;fill:#333} .value{font-family:DejaVu Sans,Verdana,Geneva,sans-serif;font-size:12px;fill:#555} </style>
<text x="10" y="20" class="label">延迟柱状图（越低越好，Top 15），单位 ms</text>
<text x="10" y="46" class="label">community.akamai.steamstatic.com</text>
<rect x="180" y="30" width="243.16" height="22" fill="#4c78a8" rx="3"/>
<text x="431.15999999999997" y="46" class="value">89.01</text>
<text x="10" y="78" class="label">ea.com</text>
<rect x="180" y="62" width="275.73" height="22" fill="#4c78a8" rx="3"/>
<text x="463.73" y="78" class="value">100.93</text>
<text x="10" y="110" class="label">store.akamai.steamstatic.com</text>
<rect x="180" y="94" width="285.51" height="22" fill="#4c78a8" rx="3"/>
<text x="473.51" y="110" class="value">104.51</text>
<text x="10" y="142" class="label">battle.net</text>
<rect x="180" y="126" width="393.2" height="22" fill="#4c78a8" rx="3"/>
<text x="581.2" y="142" class="value">143.93</text>
<text x="10" y="174" class="label">eaassets-a.akamaihd.net</text>
<rect x="180" y="158" width="406.61" height="22" fill="#4c78a8" rx="3"/>
<text x="594.61" y="174" class="value">148.84</text>
<text x="10" y="206" class="label">easyanticheat.net</text>
<rect x="180" y="190" width="428.3" height="22" fill="#4c78a8" rx="3"/>
<text x="616.3" y="206" class="value">156.78</text>
<text x="10" y="238" class="label">ubi.com</text>
<rect x="180" y="222" width="445.87" height="22" fill="#4c78a8" rx="3"/>
<text x="633.87" y="238" class="value">163.21</text>
<text x="10" y="270" class="label">rockstargames.com</text>
<rect x="180" y="254" width="472.04" height="22" fill="#4c78a8" rx="3"/>
<text x="660.04" y="270" class="value">172.79</text>
<text x="10" y="302" class="label">blizzard.com</text>
<rect x="180" y="286" width="486.49" height="22" fill="#4c78a8" rx="3"/>
<text x="674.49" y="302" class="value">178.08</text>
<text x="10" y="334" class="label">ubisoft.com</text>
<rect x="180" y="318" width="526.81" height="22" fill="#4c78a8" rx="3"/>
<text x="714.81" y="334" class="value">192.84</text>
<text x="10" y="366" class="label">launcher-public-service-prod06.ol.epicgames.com</text>
<rect x="180" y="350" width="532.0" height="22" fill="#4c78a8" rx="3"/>
<text x="720.0" y="366" class="value">194.74</text>
<text x="10" y="398" class="label">steamcommunity.com</text>
<rect x="180" y="382" width="547.25" height="22" fill="#4c78a8" rx="3"/>
<text x="735.25" y="398" class="value">200.32</text>
<text x="10" y="430" class="label">steam-chat.com</text>
<rect x="180" y="414" width="547.6" height="22" fill="#4c78a8" rx="3"/>
<text x="735.6" y="430" class="value">200.45</text>
<text x="10" y="462" class="label">socialclub.rockstargames.com</text>
<rect x="180" y="446" width="562.35" height="22" fill="#4c78a8" rx="3"/>
<text x="750.35" y="462" class="value">205.85</text>
<text x="10" y="494" class="label">static3.cdn.ubi.com</text>
<rect x="180" y="478" width="580.0" height="22" fill="#4c78a8" rx="3"/>
<text x="768.0" y="494" class="value">212.31</text>
<line x1="180" y1="30" x2="180" y2="520" stroke="#ccc"/>
<line x1="180" y1="520" x2="760" y2="520" stroke="#ccc"/>
</svg>