<svg xmlns="http://www.w3.org/2000/svg" width="800" height="540">
<style> .label{font-family:DejaVu Sans,Verdana,Geneva,sans-serif;font-size:12px;fill:#333} .value{font-family:DejaVu Sans,Verdana,Geneva,sans-serif;font-size:12px;fill:#555} </style>
<text x="10" y="20" class="label">延迟柱状图（越低越好，Top 15），单位 ms</text>
<text x="10" y="46" class="label">eaassets-a.akamaihd.net</text>
<rect x="180" y="30" width="356.18" height="22" fill="#4c78a8" rx="3"/>
<text x="544.1800000000001" y="46" class="value">124.78</text>
<text x="10" y="78" class="label">ubi.com</text>
<rect x="180" y="62" width="445.35" height="22" fill="#4c78a8" rx="3"/>
<text x="633.35" y="78" class="value">156.02</text>
<text x="10" y="110" class="label">easyanticheat.net</text>
<rect x="180" y="94" width="482.58" height="22" fill="#4c78a8" rx="3"/>
<text x="670.5799999999999" y="110" class="value">169.06</text>
<text x="10" y="142" class="label">ubisoft.com</text>
<rect x="180" y="126" width="485.29" height="22" fill="#4c78a8" rx="3"/>
<text x="673.29" y="142" class="value">170.01</text>
<text x="10" y="174" class="label">ea.com</text>
<rect x="180" y="158" width="505.01" height="22" fill="#4c78a8" rx="3"/>
<text x="693.01" y="174" class="value">176.92</text>
<text x="10" y="206" class="label">cdn.akamai.steamstatic.com</text>
<rect x="180" y="190" width="510.52" height="22" fill="#4c78a8" rx="3"/>
<text x="698.52" y="206" class="value">178.85</text>
<text x="10" y="238" class="label">battle.net</text>
<rect x="180" y="222" width="514.09" height="22" fill="#4c78a8" rx="3"/>
<text x="702.09" y="238" class="value">180.10</text>
<text x="10" y="270" class="label">socialclub.rockstargames.com</text>
<rect x="180" y="254" width="537.1" height="22" fill="#4c78a8" rx="3"/>
<text x="725.1" y="270" class="value">188.16</text>
<text x="10" y="302" class="label">rockstargames.com</text>
<rect x="180" y="286" width="543.41" height="22" fill="#4c78a8" rx="3"/>
<text x="731.41" y="302" class="value">190.37</text>
<text x="10" y="334" class="label">steam-chat.com</text>
<rect x="180" y="318" width="557.28" height="22" fill="#4c78a8" rx="3"/>
<text x="745.28" y="334" class="value">195.23</text>
<text x="10" y="366" class="label">gog.com</text>
<rect x="180" y="350" width="566.84" height="22" fill="#4c78a8" rx="3"/>
<text x="754.84" y="366" class="value">198.58</text>
<text x="10" y="398" class="label">blizzard.com</text>
<rect x="180" y="382" width="569.41" height="22" fill="#4c78a8" rx="3"/>
<text x="757.41" y="398" class="value">199.48</text>
<text x="10" y="430" class="label">store.akamai.steamstatic.com</text>
<rect x="180" y="414" width="573.83" height="22" fill="#4c78a8" rx="3"/>
<text x="761.83" y="430" class="value">201.03</text>
<text x="10" y="462" class="label">launcher-public-service-prod06.ol.epicgames.com</text>
<rect x="180" y="446" width="579.57" height="22" fill="#4c78a8" rx="3"/>
<text x="767.57" y="462" class="value">203.04</text>
<text x="10" y="494" class="label">unrealengine.com</text>
<rect x="180" y="478" width="580.0" height="22" fill="#4c78a8" rx="3"/>
<text x="768.0" y="494" class="value">203.19</text>
<line x1="180" y1="30" x2="180" y2="520" stroke="#ccc"/>
<line x1="180" y1="520" x2="760" y2="520" stroke="#ccc"/>
</svg>