<svg xmlns="http://www.w3.org/2000/svg" width="800" height="540">
<style> .label{font-family:DejaVu Sans,Verdana,Geneva,sans-serif;font-size:12px;fill:#333} .value{font-family:DejaVu Sans,Verdana,Geneva,sans-serif;font-size:12px;fill:#555} </style>
<text x="10" y="20" class="label">延迟柱状图（越低越好，Top 15），单位 ms</text>
<text x="10" y="46" class="label">rockstargames.com</text>
<rect x="180" y="30" width="208.79" height="22" fill="#4c78a8" rx="3"/>
<text x="396.78999999999996" y="46" class="value">70.51</text>
<text x="10" y="78" class="label">socialclub.rockstargames.com</text>
<rect x="180" y="62" width="259.07" height="22" fill="#4c78a8" rx="3"/>
<text x="447.07" y="78" class="value">87.49</text>
<text x="10" y="110" class="label">epicgames.com</text>
<rect x="180" y="94" width="279.21" height="22" fill="#4c78a8" rx="3"/>
<text x="467.21" y="110" class="value">94.29</text>
<text x="10" y="142" class="label">fortnite.com</text>
<rect x="180" y="126" width="300.32" height="22" fill="#4c78a8" rx="3"/>
<text x="488.32" y="142" class="value">101.42</text>
<text x="10" y="174" class="label">blizzard.com</text>
<rect x="180" y="158" width="307.93" height="22" fill="#4c78a8" rx="3"/>
<text x="495.93" y="174" class="value">103.99</text>
<text x="10" y="206" class="label">battle.net</text>
<rect x="180" y="190" width="342.1" height="22" fill="#4c78a8" rx="3"/>
<text x="530.1" y="206" class="value">115.53</text>
<text x="10" y="238" class="label">steamcdn-a.akamaihd.net</text>
<rect x="180" y="222" width="377.61" height="22" fill="#4c78a8" rx="3"/>
<text x="565.61" y="238" class="value">127.52</text>
<text x="10" y="270" class="label">eaassets-a.akamaihd.net</text>
<rect x="180" y="254" width="384.98" height="22" fill="#4c78a8" rx="3"/>
<text x="572.98" y="270" class="value">130.01</text>
<text x="10" y="302" class="label">ubi.com</text>
<rect x="180" y="286" width="393.45" height="22" fill="#4c78a8" rx="3"/>
<text x="581.45" y="302" class="value">132.87</text>
<text x="10" y="334" class="label">ubisoft.com</text>
<rect x="180" y="318" width="417.61" height="22" fill="#4c78a8" rx="3"/>
<text x="605.61" y="334" class="value">141.03</text>
<text x="10" y="366" class="label">community.akamai.steamstatic.com</text>
<rect x="180" y="350" width="425.31" height="22" fill="#4c78a8" rx="3"/>
<text x="613.31" y="366" class="value">143.63</text>
<text x="10" y="398" class="label">store.akamai.steamstatic.com</text>
<rect x="180" y="382" width="508.99" height="22" fill="#4c78a8" rx="3"/>
<text x="696.99" y="398" class="value">171.89</text>
<text x="10" y="430" class="label">cdn.cloudflare.steamstatic.com</text>
<rect x="180" y="414" width="556.46" height="22" fill="#4c78a8" rx="3"/>
<text x="744.46" y="430" class="value">187.92</text>
<text x="10" y="462" class="label">ea.com</text>
<rect x="180" y="446" width="556.75" height="22" fill="#4c78a8" rx="3"/>
<text x="744.75" y="462" class="value">188.02</text>
<text x="10" y="494" class="label">launcher-public-service-prod06.ol.epicgames.com</text>
<rect x="180" y="478" width="580.0" height="22" fill="#4c78a8" rx="3"/>
<text x="768.0" y="494" class="value">195.87</text>
<line x1="180" y1="30" x2="180" y2="520" stroke="#ccc"/>
<line x1="180" y1="520" x2="760" y2="520" stroke="#ccc"/>
</svg>