<svg xmlns="http://www.w3.org/2000/svg" width="800" height="540">
<style> .label{font-family:DejaVu Sans,Verdana,Geneva,sans-serif;font-size:12px;fill:#333} .value{font-family:DejaVu Sans,Verdana,Geneva,sans-serif;font-size:12px;fill:#555} </style>
<text x="10" y="20" class="label">延迟柱状图（越低越好，Top 15），单位 ms</text>
<text x="10" y="46" class="label">eaassets-a.akamaihd.net</text>
<rect x="180" y="30" width="101.9" height="22" fill="#4c78a8" rx="3"/>
<text x="289.9" y="46" class="value">47.95</text>
<text x="10" y="78" class="label">ea.com</text>
<rect x="180" y="62" width="138.28" height="22" fill="#4c78a8" rx="3"/>
<text x="326.28" y="78" class="value">65.07</text>
<text x="10" y="110" class="label">rockstargames.com</text>
<rect x="180" y="94" width="237.02" height="22" fill="#4c78a8" rx="3"/>
<text x="425.02" y="110" class="value">111.53</text>
<text x="10" y="142" class="label">ubisoft.com</text>
<rect x="180" y="126" width="243.14" height="22" fill="#4c78a8" rx="3"/>
<text x="431.14" y="142" class="value">114.41</text>
<text x="10" y="174" class="label">store.akamai.steamstatic.com</text>
<rect x="180" y="158" width="280.42" height="22" fill="#4c78a8" rx="3"/>
<text x="468.42" y="174" class="value">131.95</text>
<text x="10" y="206" class="label">community.akamai.steamstatic.com</text>
<rect x="180" y="190" width="289.87" height="22" fill="#4c78a8" rx="3"/>
<text x="477.87" y="206" class="value">136.40</text>
<text x="10" y="238" class="label">steamcdn-a.akamaihd.net</text>
<rect x="180" y="222" width="304.03" height="22" fill="#4c78a8" rx="3"/>
<text x="492.03" y="238" class="value">143.06</text>
<text x="10" y="270" class="label">origin.com</text>
<rect x="180" y="254" width="326.66" height="22" fill="#4c78a8" rx="3"/>
<text x="514.6600000000001" y="270" class="value">153.71</text>
<text x="10" y="302" class="label">cdn.cloudflare.steamstatic.com</text>
<rect x="180" y="286" width="331.5" height="22" fill="#4c78a8" rx="3"/>
<text x="519.5" y="302" class="value">155.99</text>
<text x="10" y="334" class="label">cdn.akamai.steamstatic.com</text>
<rect x="180" y="318" width="364.51" height="22" fill="#4c78a8" rx="3"/>
<text x="552.51" y="334" class="value">171.52</text>
<text x="10" y="366" class="label">easyanticheat.net</text>
<rect x="180" y="350" width="400.21" height="22" fill="#4c78a8" rx="3"/>
<text x="588.21" y="366" class="value">188.32</text>
<text x="10" y="398" class="label">api.steampowered.com</text>
<rect x="180" y="382" width="484.2" height="22" fill="#4c78a8" rx="3"/>
<text x="672.2" y="398" class="value">227.84</text>
<text x="10" y="430" class="label">steam-chat.com</text>
<rect x="180" y="414" width="495.25" height="22" fill="#4c78a8" rx="3"/>
<text x="683.25" y="430" class="value">233.04</text>
<text x="10" y="462" class="label">steamcommunity.com</text>
<rect x="180" y="446" width="535.71" height="22" fill="#4c78a8" rx="3"/>
<text x="723.71" y="462" class="value">252.08</text>
<text x="10" y="494" class="label">www.steamcommunity.com</text>
<rect x="180" y="478" width="580.0" height="22" fill="#4c78a8" rx="3"/>
<text x="768.0" y="494" class="value">272.92</text>
<line x1="180" y1="30" x2="180" y2="520" stroke="#ccc"/>
<line x1="180" y1="520" x2="760" y2="520" stroke="#ccc"/>
</svg>