<svg xmlns="http://www.w3.org/2000/svg" width="800" height="540">
<style> .label{font-family:DejaVu Sans,Verdana,Geneva,sans-serif;font-size:12px;fill:#333} .value{font-family:DejaVu Sans,Verdana,Geneva,sans-serif;font-size:12px;fill:#555} </style>
<text x="10" y="20" class="label">延迟柱状图（越低越好，Top 15），单位 ms</text>
<text x="10" y="46" class="label">rockstargames.com</text>
<rect x="180" y="30" width="228.84" height="22" fill="#4c78a8" rx="3"/>
<text x="416.84000000000003" y="46" class="value">94.84</text>
<text x="10" y="78" class="label">eaassets-a.akamaihd.net</text>
<rect x="180" y="62" width="320.1" height="22" fill="#4c78a8" rx="3"/>
<text x="508.1" y="78" class="value">132.66</text>
<text x="10" y="110" class="label">easyanticheat.net</text>
<rect x="180" y="94" width="362.01" height="22" fill="#4c78a8" rx="3"/>
<text x="550.01" y="110" class="value">150.03</text>
<text x="10" y="142" class="label">launcher-public-service-prod06.ol.epicgames.com</text>
<rect x="180" y="126" width="372.97" height="22" fill="#4c78a8" rx="3"/>
<text x="560.97" y="142" class="value">154.57</text>
<text x="10" y="174" class="label">steamcdn-a.akamaihd.net</text>
<rect x="180" y="158" width="396.47" height="22" fill="#4c78a8" rx="3"/>
<text x="584.47" y="174" class="value">164.31</text>
<text x="10" y="206" class="label">blizzard.com</text>
<rect x="180" y="190" width="403.61" height="22" fill="#4c78a8" rx="3"/>
<text x="591.61" y="206" class="value">167.27</text>
<text x="10" y="238" class="label">origin.com</text>
<rect x="180" y="222" width="446.25" height="22" fill="#4c78a8" rx="3"/>
<text x="634.25" y="238" class="value">184.94</text>
<text x="10" y="270" class="label">battle.net</text>
<rect x="180" y="254" width="447.43" height="22" fill="#4c78a8" rx="3"/>
<text x="635.4300000000001" y="270" class="value">185.43</text>
<text x="10" y="302" class="label">community.akamai.steamstatic.com</text>
<rect x="180" y="286" width="479.81" height="22" fill="#4c78a8" rx="3"/>
<text x="667.81" y="302" class="value">198.85</text>
<text x="10" y="334" class="label">socialclub.rockstargames.com</text>
<rect x="180" y="318" width="488.14" height="22" fill="#4c78a8" rx="3"/>
<text x="676.14" y="334" class="value">202.30</text>
<text x="10" y="366" class="label">ubi.com</text>
<rect x="180" y="350" width="508.36" height="22" fill="#4c78a8" rx="3"/>
<text x="696.36" y="366" class="value">210.68</text>
<text x="10" y="398" class="label">ea.com</text>
<rect x="180" y="382" width="519.85" height="22" fill="#4c78a8" rx="3"/>
<text x="707.85" y="398" class="value">215.44</text>
<text x="10" y="430" class="label">cdn.akamai.steamstatic.com</text>
<rect x="180" y="414" width="526.82" height="22" fill="#4c78a8" rx="3"/>
<text x="714.82" y="430" class="value">218.33</text>
<text x="10" y="462" class="label">epicgames.com</text>
<rect x="180" y="446" width="549.89" height="22" fill="#4c78a8" rx="3"/>
<text x="737.89" y="462" class="value">227.89</text>
<text x="10" y="494" class="label">static3.cdn.ubi.com</text>
<rect x="180" y="478" width="580.0" height="22" fill="#4c78a8" rx="3"/>
<text x="768.0" y="494" class="value">240.37</text>
<line x1="180" y1="30" x2="180" y2="520" stroke="#ccc"/>
<line x1="180" y1="520" x2="760" y2="520" stroke="#ccc"/>
</svg>