<svg xmlns="http://www.w3.org/2000/svg" width="800" height="540">
<style> .label{font-family:DejaVu Sans,Verdana,Geneva,sans-serif;font-size:12px;fill:#333} .value{font-family:DejaVu Sans,Verdana,Geneva,sans-serif;font-size:12px;fill:#555} </style>
<text x="10" y="20" class="label">延迟柱状图（越低越好，Top 15），单位 ms</text>
<text x="10" y="46" class="label">rockstargames.com</text>
<rect x="180" y="30" width="77.62" height="22" fill="#4c78a8" rx="3"/>
<text x="265.62" y="46" class="value">38.95</text>
<text x="10" y="78" class="label">ea.com</text>
<rect x="180" y="62" width="141.99" height="22" fill="#4c78a8" rx="3"/>
<text x="329.99" y="78" class="value">71.25</text>
<text x="10" y="110" class="label">steamcdn-a.akamaihd.net</text>
<rect x="180" y="94" width="145.37" height="22" fill="#4c78a8" rx="3"/>
<text x="333.37" y="110" class="value">72.95</text>
<text x="10" y="142" class="label">community.akamai.steamstatic.com</text>
<rect x="180" y="126" width="150.85" height="22" fill="#4c78a8" rx="3"/>
<text x="338.85" y="142" class="value">75.70</text>
<text x="10" y="174" class="label">eaassets-a.akamaihd.net</text>
<rect x="180" y="158" width="162.61" height="22" fill="#4c78a8" rx="3"/>
<text x="350.61" y="174" class="value">81.60</text>
<text x="10" y="206" class="label">origin.com</text>
<rect x="180" y="190" width="263.8" height="22" fill="#4c78a8" rx="3"/>
<text x="451.8" y="206" class="value">132.38</text>
<text x="10" y="238" class="label">cdn.akamai.steamstatic.com</text>
<rect x="180" y="222" width="316.79" height="22" fill="#4c78a8" rx="3"/>
<text x="504.79" y="238" class="value">158.97</text>
<text x="10" y="270" class="label">ubisoft.com</text>
<rect x="180" y="254" width="330.34" height="22" fill="#4c78a8" rx="3"/>
<text x="518.3399999999999" y="270" class="value">165.77</text>
<text x="10" y="302" class="label">static3.cdn.ubi.com</text>
<rect x="180" y="286" width="336.16" height="22" fill="#4c78a8" rx="3"/>
<text x="524.1600000000001" y="302" class="value">168.69</text>
<text x="10" y="334" class="label">cdn.cloudflare.steamstatic.com</text>
<rect x="180" y="318" width="339.07" height="22" fill="#4c78a8" rx="3"/>
<text x="527.0699999999999" y="334" class="value">170.15</text>
<text x="10" y="366" class="label">store.akamai.steamstatic.com</text>
<rect x="180" y="350" width="455.83" height="22" fill="#4c78a8" rx="3"/>
<text x="643.8299999999999" y="366" class="value">228.74</text>
<text x="10" y="398" class="label">easyanticheat.net</text>
<rect x="180" y="382" width="457.7" height="22" fill="#4c78a8" rx="3"/>
<text x="645.7" y="398" class="value">229.68</text>
<text x="10" y="430" class="label">www.steamcommunity.com</text>
<rect x="180" y="414" width="510.75" height="22" fill="#4c78a8" rx="3"/>
<text x="698.75" y="430" class="value">256.30</text>
<text x="10" y="462" class="label">launcher-public-service-prod06.ol.epicgames.com</text>
<rect x="180" y="446" width="558.18" height="22" fill="#4c78a8" rx="3"/>
<text x="746.18" y="462" class="value">280.10</text>
<text x="10" y="494" class="label">steam-chat.com</text>
<rect x="180" y="478" width="580.0" height="22" fill="#4c78a8" rx="3"/>
<text x="768.0" y="494" class="value">291.05</text>
<line x1="180" y1="30" x2="180" y2="520" stroke="#ccc"/>
<line x1="180" y1="520" x2="760" y2="520" stroke="#ccc"/>
</svg>