<svg xmlns="http://www.w3.org/2000/svg" width="800" height="540">
<style> .label{font-family:DejaVu Sans,Verdana,Geneva,sans-serif;font-size:12px;fill:#333} .value{font-family:DejaVu Sans,Verdana,Geneva,sans-serif;font-size:12px;fill:#555} </style>
<text x="10" y="20" class="label">延迟柱状图（越低越好，Top 15），单位 ms</text>
<text x="10" y="46" class="label">ubisoft.com</text>
<rect x="180" y="30" width="246.63" height="22" fill="#4c78a8" rx="3"/>
<text x="434.63" y="46" class="value">94.25</text>
<text x="10" y="78" class="label">rockstargames.com</text>
<rect x="180" y="62" width="297.73" height="22" fill="#4c78a8" rx="3"/>
<text x="485.73" y="78" class="value">113.78</text>
<text x="10" y="110" class="label">steamcdn-a.akamaihd.net</text>
<rect x="180" y="94" width="370.43" height="22" fill="#4c78a8" rx="3"/>
<text x="558.4300000000001" y="110" class="value">141.56</text>
<text x="10" y="142" class="label">blizzard.com</text>
<rect x="180" y="126" width="380.13" height="22" fill="#4c78a8" rx="3"/>
<text x="568.13" y="142" class="value">145.27</text>
<text x="10" y="174" class="label">battle.net</text>
<rect x="180" y="158" width="384.97" height="22" fill="#4c78a8" rx="3"/>
<text x="572.97" y="174" class="value">147.12</text>
<text x="10" y="206" class="label">origin.com</text>
<rect x="180" y="190" width="389.92" height="22" fill="#4c78a8" rx="3"/>
<text x="577.9200000000001" y="206" class="value">149.01</text>
<text x="10" y="238" class="label">store.akamai.steamstatic.com</text>
<rect x="180" y="222" width="400.28" height="22" fill="#4c78a8" rx="3"/>
<text x="588.28" y="238" class="value">152.97</text>
<text x="10" y="270" class="label">eaassets-a.akamaihd.net</text>
<rect x="180" y="254" width="409.86" height="22" fill="#4c78a8" rx="3"/>
<text x="597.86" y="270" class="value">156.63</text>
<text x="10" y="302" class="label">easyanticheat.net</text>
<rect x="180" y="286" width="478.37" height="22" fill="#4c78a8" rx="3"/>
<text x="666.37" y="302" class="value">182.81</text>
<text x="10" y="334" class="label">socialclub.rockstargames.com</text>
<rect x="180" y="318" width="479.1" height="22" fill="#4c78a8" rx="3"/>
<text x="667.1" y="334" class="value">183.09</text>
<text x="10" y="366" class="label">api.steampowered.com</text>
<rect x="180" y="350" width="489.85" height="22" fill="#4c78a8" rx="3"/>
<text x="677.85" y="366" class="value">187.20</text>
<text x="10" y="398" class="label">ea.com</text>
<rect x="180" y="382" width="498.02" height="22" fill="#4c78a8" rx="3"/>
<text x="686.02" y="398" class="value">190.32</text>
<text x="10" y="430" class="label">cdn.akamai.steamstatic.com</text>
<rect x="180" y="414" width="527.69" height="22" fill="#4c78a8" rx="3"/>
<text x="715.69" y="430" class="value">201.66</text>
<text x="10" y="462" class="label">community.akamai.steamstatic.com</text>
<rect x="180" y="446" width="558.2" height="22" fill="#4c78a8" rx="3"/>
<text x="746.2" y="462" class="value">213.32</text>
<text x="10" y="494" class="label">steam-chat.com</text>
<rect x="180" y="478" width="580.0" height="22" fill="#4c78a8" rx="3"/>
<text x="768.0" y="494" class="value">221.65</text>
<line x1="180" y1="30" x2="180" y2="520" stroke="#ccc"/>
<line x1="180" y1="520" x2="760" y2="520" stroke="#ccc"/>
</svg>