<svg xmlns="http://www.w3.org/2000/svg" width="800" height="540">
<style> .label{font-family:DejaVu Sans,Verdana,Geneva,sans-serif;font-size:12px;fill:#333} .value{font-family:DejaVu Sans,Verdana,Geneva,sans-serif;font-size:12px;fill:#555} </style>
<text x="10" y="20" class="label">延迟柱状图（越低越好，Top 15），单位 ms</text>
<text x="10" y="46" class="label">eaassets-a.akamaihd.net</text>
<rect x="180" y="30" width="69.82" height="22" fill="#4c78a8" rx="3"/>
<text x="257.82" y="46" class="value">34.02</text>
<text x="10" y="78" class="label">ea.com</text>
<rect x="180" y="62" width="165.78" height="22" fill="#4c78a8" rx="3"/>
<text x="353.78" y="78" class="value">80.78</text>
<text x="10" y="110" class="label">ubisoft.com</text>
<rect x="180" y="94" width="186.65" height="22" fill="#4c78a8" rx="3"/>
<text x="374.65" y="110" class="value">90.95</text>
<text x="10" y="142" class="label">origin.com</text>
<rect x="180" y="126" width="191.06" height="22" fill="#4c78a8" rx="3"/>
<text x="379.06" y="142" class="value">93.10</text>
<text x="10" y="174" class="label">rockstargames.com</text>
<rect x="180" y="158" width="212.18" height="22" fill="#4c78a8" rx="3"/>
<text x="400.18" y="174" class="value">103.39</text>
<text x="10" y="206" class="label">store.akamai.steamstatic.com</text>
<rect x="180" y="190" width="229.44" height="22" fill="#4c78a8" rx="3"/>
<text x="417.44" y="206" class="value">111.80</text>
<text x="10" y="238" class="label">cdn.cloudflare.steamstatic.com</text>
<rect x="180" y="222" width="257.43" height="22" fill="#4c78a8" rx="3"/>
<text x="445.43" y="238" class="value">125.44</text>
<text x="10" y="270" class="label">community.akamai.steamstatic.com</text>
<rect x="180" y="254" width="394.15" height="22" fill="#4c78a8" rx="3"/>
<text x="582.15" y="270" class="value">192.06</text>
<text x="10" y="302" class="label">steamcdn-a.akamaihd.net</text>
<rect x="180" y="286" width="413.67" height="22" fill="#4c78a8" rx="3"/>
<text x="601.6700000000001" y="302" class="value">201.57</text>
<text x="10" y="334" class="label">cdn.akamai.steamstatic.com</text>
<rect x="180" y="318" width="432.26" height="22" fill="#4c78a8" rx="3"/>
<text x="620.26" y="334" class="value">210.63</text>
<text x="10" y="366" class="label">easyanticheat.net</text>
<rect x="180" y="350" width="502.18" height="22" fill="#4c78a8" rx="3"/>
<text x="690.1800000000001" y="366" class="value">244.70</text>
<text x="10" y="398" class="label">steam-chat.com</text>
<rect x="180" y="382" width="524.84" height="22" fill="#4c78a8" rx="3"/>
<text x="712.84" y="398" class="value">255.74</text>
<text x="10" y="430" class="label">api.steampowered.com</text>
<rect x="180" y="414" width="540.82" height="22" fill="#4c78a8" rx="3"/>
<text x="728.82" y="430" class="value">263.53</text>
<text x="10" y="462" class="label">www.steamcommunity.com</text>
<rect x="180" y="446" width="561.14" height="22" fill="#4c78a8" rx="3"/>
<text x="749.14" y="462" class="value">273.43</text>
<text x="10" y="494" class="label">launcher-public-service-prod06.ol.epicgames.com</text>
<rect x="180" y="478" width="580.0" height="22" fill="#4c78a8" rx="3"/>
<text x="768.0" y="494" class="value">282.62</text>
<line x1="180" y1="30" x2="180" y2="520" stroke="#ccc"/>
<line x1="180" y1="520" x2="760" y2="520" stroke="#ccc"/>
</svg>