<svg xmlns="http://www.w3.org/2000/svg" width="800" height="540">
<style> .label{font-family:DejaVu Sans,Verdana,Geneva,sans-serif;font-size:12px;fill:#333} .value{font-family:DejaVu Sans,Verdana,Geneva,sans-serif;font-size:12px;fill:#555} </style>
<text x="10" y="20" class="label">延迟柱状图（越低越好，Top 15），单位 ms</text>
<text x="10" y="46" class="label">eaassets-a.akamaihd.net</text>
<rect x="180" y="30" width="174.27" height="22" fill="#4c78a8" rx="3"/>
<text x="362.27" y="46" class="value">61.07</text>
<text x="10" y="78" class="label">rockstargames.com</text>
<rect x="180" y="62" width="193.73" height="22" fill="#4c78a8" rx="3"/>
<text x="381.73" y="78" class="value">67.89</text>
<text x="10" y="110" class="label">blizzard.com</text>
<rect x="180" y="94" width="219.1" height="22" fill="#4c78a8" rx="3"/>
<text x="407.1" y="110" class="value">76.78</text>
<text x="10" y="142" class="label">battle.net</text>
<rect x="180" y="126" width="229.6" height="22" fill="#4c78a8" rx="3"/>
<text x="417.6" y="142" class="value">80.46</text>
<text x="10" y="174" class="label">socialclub.rockstargames.com</text>
<rect x="180" y="158" width="265.73" height="22" fill="#4c78a8" rx="3"/>
<text x="453.73" y="174" class="value">93.12</text>
<text x="10" y="206" class="label">fortnite.com</text>
<rect x="180" y="190" width="292.04" height="22" fill="#4c78a8" rx="3"/>
<text x="480.04" y="206" class="value">102.34</text>
<text x="10" y="238" class="label">cdn.akamai.steamstatic.com</text>
<rect x="180" y="222" width="363.92" height="22" fill="#4c78a8" rx="3"/>
<text x="551.9200000000001" y="238" class="value">127.53</text>
<text x="10" y="270" class="label">ubi.com</text>
<rect x="180" y="254" width="369.03" height="22" fill="#4c78a8" rx="3"/>
<text x="557.03" y="270" class="value">129.32</text>
<text x="10" y="302" class="label">origin.com</text>
<rect x="180" y="286" width="380.45" height="22" fill="#4c78a8" rx="3"/>
<text x="568.45" y="302" class="value">133.32</text>
<text x="10" y="334" class="label">ea.com</text>
<rect x="180" y="318" width="519.5" height="22" fill="#4c78a8" rx="3"/>
<text x="707.5" y="334" class="value">182.05</text>
<text x="10" y="366" class="label">community.akamai.steamstatic.com</text>
<rect x="180" y="350" width="525.18" height="22" fill="#4c78a8" rx="3"/>
<text x="713.18" y="366" class="value">184.04</text>
<text x="10" y="398" class="label">static3.cdn.ubi.com</text>
<rect x="180" y="382" width="544.64" height="22" fill="#4c78a8" rx="3"/>
<text x="732.64" y="398" class="value">190.86</text>
<text x="10" y="430" class="label">store.akamai.steamstatic.com</text>
<rect x="180" y="414" width="552.38" height="22" fill="#4c78a8" rx="3"/>
<text x="740.38" y="430" class="value">193.57</text>
<text x="10" y="462" class="label">unrealengine.com</text>
<rect x="180" y="446" width="565.5" height="22" fill="#4c78a8" rx="3"/>
<text x="753.5" y="462" class="value">198.17</text>
<text x="10" y="494" class="label">ubisoft.com</text>
<rect x="180" y="478" width="580.0" height="22" fill="#4c78a8" rx="3"/>
<text x="768.0" y="494" class="value">203.25</text>
<line x1="180" y1="30" x2="180" y2="520" stroke="#ccc"/>
<line x1="180" y1="520" x2="760" y2="520" stroke="#ccc"/>
</svg>