<svg xmlns="http://www.w3.org/2000/svg" width="800" height="540">
<style> .label{font-family:DejaVu Sans,Verdana,Geneva,sans-serif;font-size:12px;fill:#333} .value{font-family:DejaVu Sans,Verdana,Geneva,sans-serif;font-size:12px;fill:#555} </style>
<text x="10" y="20" class="label">延迟柱状图（越低越好，Top 15），单位 ms</text>
<text x="10" y="46" class="label">rockstargames.com</text>
<rect x="180" y="30" width="144.45" height="22" fill="#4c78a8" rx="3"/>
<text x="332.45" y="46" class="value">49.90</text>
<text x="10" y="78" class="label">battle.net</text>
<rect x="180" y="62" width="164.05" height="22" fill="#4c78a8" rx="3"/>
<text x="352.05" y="78" class="value">56.67</text>
<text x="10" y="110" class="label">blizzard.com</text>
<rect x="180" y="94" width="179.27" height="22" fill="#4c78a8" rx="3"/>
<text x="367.27" y="110" class="value">61.93</text>
<text x="10" y="142" class="label">ea.com</text>
<rect x="180" y="126" width="240.12" height="22" fill="#4c78a8" rx="3"/>
<text x="428.12" y="142" class="value">82.95</text>
<text x="10" y="174" class="label">socialclub.rockstargames.com</text>
<rect x="180" y="158" width="251.96" height="22" fill="#4c78a8" rx="3"/>
<text x="439.96000000000004" y="174" class="value">87.04</text>
<text x="10" y="206" class="label">unrealengine.com</text>
<rect x="180" y="190" width="287.57" height="22" fill="#4c78a8" rx="3"/>
<text x="475.57" y="206" class="value">99.34</text>
<text x="10" y="238" class="label">epicgames.com</text>
<rect x="180" y="222" width="303.03" height="22" fill="#4c78a8" rx="3"/>
<text x="491.03" y="238" class="value">104.68</text>
<text x="10" y="270" class="label">ubi.com</text>
<rect x="180" y="254" width="341.47" height="22" fill="#4c78a8" rx="3"/>
<text x="529.47" y="270" class="value">117.96</text>
<text x="10" y="302" class="label">eaassets-a.akamaihd.net</text>
<rect x="180" y="286" width="387.47" height="22" fill="#4c78a8" rx="3"/>
<text x="575.47" y="302" class="value">133.85</text>
<text x="10" y="334" class="label">ubisoft.com</text>
<rect x="180" y="318" width="446.87" height="22" fill="#4c78a8" rx="3"/>
<text x="634.87" y="334" class="value">154.37</text>
<text x="10" y="366" class="label">origin.com</text>
<rect x="180" y="350" width="471.13" height="22" fill="#4c78a8" rx="3"/>
<text x="659.13" y="366" class="value">162.75</text>
<text x="10" y="398" class="label">store.akamai.steamstatic.com</text>
<rect x="180" y="382" width="527.6" height="22" fill="#4c78a8" rx="3"/>
<text x="715.6" y="398" class="value">182.26</text>
<text x="10" y="430" class="label">fortnite.com</text>
<rect x="180" y="414" width="539.99" height="22" fill="#4c78a8" rx="3"/>
<text x="727.99" y="430" class="value">186.54</text>
<text x="10" y="462" class="label">steamcdn-a.akamaihd.net</text>
<rect x="180" y="446" width="576.56" height="22" fill="#4c78a8" rx="3"/>
<text x="764.56" y="462" class="value">199.17</text>
<text x="10" y="494" class="label">gog.com</text>
<rect x="180" y="478" width="580.0" height="22" fill="#4c78a8" rx="3"/>
<text x="768.0" y="494" class="value">200.36</text>
<line x1="180" y1="30" x2="180" y2="520" stroke="#ccc"/>
<line x1="180" y1="520" x2="760" y2="520" stroke="#ccc"/>
</svg>