<svg xmlns="http://www.w3.org/2000/svg" width="800" height="540">
<style> .label{font-family:DejaVu Sans,Verdana,Geneva,sans-serif;font-size:12px;fill:#333} .value{font-family:DejaVu Sans,Verdana,Geneva,sans-serif;font-size:12px;fill:#555} </style>
<text x="10" y="20" class="label">延迟柱状图（越低越好，Top 15），单位 ms</text>
<text x="10" y="46" class="label">rockstargames.com</text>
<rect x="180" y="30" width="225.54" height="22" fill="#4c78a8" rx="3"/>
<text x="413.53999999999996" y="46" class="value">75.68</text>
<text x="10" y="78" class="label">blizzard.com</text>
<rect x="180" y="62" width="252.3" height="22" fill="#4c78a8" rx="3"/>
<text x="440.3" y="78" class="value">84.66</text>
<text x="10" y="110" class="label">battle.net</text>
<rect x="180" y="94" width="279.54" height="22" fill="#4c78a8" rx="3"/>
<text x="467.54" y="110" class="value">93.80</text>
<text x="10" y="142" class="label">eaassets-a.akamaihd.net</text>
<rect x="180" y="126" width="320.64" height="22" fill="#4c78a8" rx="3"/>
<text x="508.64" y="142" class="value">107.59</text>
<text x="10" y="174" class="label">socialclub.rockstargames.com</text>
<rect x="180" y="158" width="343.14" height="22" fill="#4c78a8" rx="3"/>
<text x="531.14" y="174" class="value">115.14</text>
<text x="10" y="206" class="label">unrealengine.com</text>
<rect x="180" y="190" width="349.93" height="22" fill="#4c78a8" rx="3"/>
<text x="537.9300000000001" y="206" class="value">117.42</text>
<text x="10" y="238" class="label">ubi.com</text>
<rect x="180" y="222" width="380.15" height="22" fill="#4c78a8" rx="3"/>
<text x="568.15" y="238" class="value">127.56</text>
<text x="10" y="270" class="label">ea.com</text>
<rect x="180" y="254" width="435.94" height="22" fill="#4c78a8" rx="3"/>
<text x="623.94" y="270" class="value">146.28</text>
<text x="10" y="302" class="label">store.akamai.steamstatic.com</text>
<rect x="180" y="286" width="451.41" height="22" fill="#4c78a8" rx="3"/>
<text x="639.4100000000001" y="302" class="value">151.47</text>
<text x="10" y="334" class="label">cdn.akamai.steamstatic.com</text>
<rect x="180" y="318" width="471.73" height="22" fill="#4c78a8" rx="3"/>
<text x="659.73" y="334" class="value">158.29</text>
<text x="10" y="366" class="label">origin.com</text>
<rect x="180" y="350" width="511.04" height="22" fill="#4c78a8" rx="3"/>
<text x="699.04" y="366" class="value">171.48</text>
<text x="10" y="398" class="label">fortnite.com</text>
<rect x="180" y="382" width="534.94" height="22" fill="#4c78a8" rx="3"/>
<text x="722.94" y="398" class="value">179.50</text>
<text x="10" y="430" class="label">static3.cdn.ubi.com</text>
<rect x="180" y="414" width="552.28" height="22" fill="#4c78a8" rx="3"/>
<text x="740.28" y="430" class="value">185.32</text>
<text x="10" y="462" class="label">epicgames.com</text>
<rect x="180" y="446" width="572.58" height="22" fill="#4c78a8" rx="3"/>
<text x="760.58" y="462" class="value">192.13</text>
<text x="10" y="494" class="label">steamcdn-a.akamaihd.net</text>
<rect x="180" y="478" width="580.0" height="22" fill="#4c78a8" rx="3"/>
<text x="768.0" y="494" class="value">194.62</text>
<line x1="180" y1="30" x2="180" y2="520" stroke="#ccc"/>
<line x1="180" y1="520" x2="760" y2="520" stroke="#ccc"/>
</svg>