<svg xmlns="http://www.w3.org/2000/svg" width="800" height="540">
<style> .label{font-family:DejaVu Sans,Verdana,Geneva,sans-serif;font-size:12px;fill:#333} .value{font-family:DejaVu Sans,Verdana,Geneva,sans-serif;font-size:12px;fill:#555} </style>
<text x="10" y="20" class="label">延迟柱状图（越低越好，Top 15），单位 ms</text>
<text x="10" y="46" class="label">rockstargames.com</text>
<rect x="180" y="30" width="94.34" height="22" fill="#4c78a8" rx="3"/>
<text x="282.34000000000003" y="46" class="value">37.73</text>
<text x="10" y="78" class="label">ea.com</text>
<rect x="180" y="62" width="181.16" height="22" fill="#4c78a8" rx="3"/>
<text x="369.15999999999997" y="78" class="value">72.45</text>
<text x="10" y="110" class="label">api.steampowered.com</text>
<rect x="180" y="94" width="255.49" height="22" fill="#4c78a8" rx="3"/>
<text x="443.49" y="110" class="value">102.18</text>
<text x="10" y="142" class="label">steamcdn-a.akamaihd.net</text>
<rect x="180" y="126" width="279.45" height="22" fill="#4c78a8" rx="3"/>
<text x="467.45" y="142" class="value">111.76</text>
<text x="10" y="174" class="label">ubisoft.com</text>
<rect x="180" y="158" width="283.2" height="22" fill="#4c78a8" rx="3"/>
<text x="471.2" y="174" class="value">113.26</text>
<text x="10" y="206" class="label">eaassets-a.akamaihd.net</text>
<rect x="180" y="190" width="301.15" height="22" fill="#4c78a8" rx="3"/>
<text x="489.15" y="206" class="value">120.44</text>
<text x="10" y="238" class="label">origin.com</text>
<rect x="180" y="222" width="310.48" height="22" fill="#4c78a8" rx="3"/>
<text x="498.48" y="238" class="value">124.17</text>
<text x="10" y="270" class="label">store.akamai.steamstatic.com</text>
<rect x="180" y="254" width="334.36" height="22" fill="#4c78a8" rx="3"/>
<text x="522.36" y="270" class="value">133.72</text>
<text x="10" y="302" class="label">cdn.cloudflare.steamstatic.com</text>
<rect x="180" y="286" width="347.66" height="22" fill="#4c78a8" rx="3"/>
<text x="535.6600000000001" y="302" class="value">139.04</text>
<text x="10" y="334" class="label">cdn.akamai.steamstatic.com</text>
<rect x="180" y="318" width="352.99" height="22" fill="#4c78a8" rx="3"/>
<text x="540.99" y="334" class="value">141.17</text>
<text x="10" y="366" class="label">community.akamai.steamstatic.com</text>
<rect x="180" y="350" width="362.06" height="22" fill="#4c78a8" rx="3"/>
<text x="550.06" y="366" class="value">144.80</text>
<text x="10" y="398" class="label">easyanticheat.net</text>
<rect x="180" y="382" width="409.65" height="22" fill="#4c78a8" rx="3"/>
<text x="597.65" y="398" class="value">163.83</text>
<text x="10" y="430" class="label">www.steamcommunity.com</text>
<rect x="180" y="414" width="511.11" height="22" fill="#4c78a8" rx="3"/>
<text x="699.11" y="430" class="value">204.41</text>
<text x="10" y="462" class="label">steam-chat.com</text>
<rect x="180" y="446" width="575.3" height="22" fill="#4c78a8" rx="3"/>
<text x="763.3" y="462" class="value">230.08</text>
<text x="10" y="494" class="label">launcher-public-service-prod06.ol.epicgames.com</text>
<rect x="180" y="478" width="580.0" height="22" fill="#4c78a8" rx="3"/>
<text x="768.0" y="494" class="value">231.96</text>
<line x1="180" y1="30" x2="180" y2="520" stroke="#ccc"/>
<line x1="180" y1="520" x2="760" y2="520" stroke="#ccc"/>
</svg>