<svg xmlns="http://www.w3.org/2000/svg" width="800" height="540">
<style> .label{font-family:DejaVu Sans,Verdana,Geneva,sans-serif;font-size:12px;fill:#333} .value{font-family:DejaVu Sans,Verdana,Geneva,sans-serif;font-size:12px;fill:#555} </style>
<text x="10" y="20" class="label">延迟柱状图（越低越好，Top 15），单位 ms</text>
<text x="10" y="46" class="label">ubisoft.com</text>
<rect x="180" y="30" width="148.28" height="22" fill="#4c78a8" rx="3"/>
<text x="336.28" y="46" class="value">78.65</text>
<text x="10" y="78" class="label">eaassets-a.akamaihd.net</text>
<rect x="180" y="62" width="149.69" height="22" fill="#4c78a8" rx="3"/>
<text x="337.69" y="78" class="value">79.40</text>
<text x="10" y="110" class="label">ea.com</text>
<rect x="180" y="94" width="206.32" height="22" fill="#4c78a8" rx="3"/>
<text x="394.32" y="110" class="value">109.44</text>
<text x="10" y="142" class="label">rockstargames.com</text>
<rect x="180" y="126" width="208.92" height="22" fill="#4c78a8" rx="3"/>
<text x="396.91999999999996" y="142" class="value">110.82</text>
<text x="10" y="174" class="label">cdn.akamai.steamstatic.com</text>
<rect x="180" y="158" width="286.33" height="22" fill="#4c78a8" rx="3"/>
<text x="474.33" y="174" class="value">151.88</text>
<text x="10" y="206" class="label">store.akamai.steamstatic.com</text>
<rect x="180" y="190" width="383.61" height="22" fill="#4c78a8" rx="3"/>
<text x="571.61" y="206" class="value">203.48</text>
<text x="10" y="238" class="label">cdn.cloudflare.steamstatic.com</text>
<rect x="180" y="222" width="403.95" height="22" fill="#4c78a8" rx="3"/>
<text x="591.95" y="238" class="value">214.27</text>
<text x="10" y="270" class="label">community.akamai.steamstatic.com</text>
<rect x="180" y="254" width="406.76" height="22" fill="#4c78a8" rx="3"/>
<text x="594.76" y="270" class="value">215.76</text>
<text x="10" y="302" class="label">steamcdn-a.akamaihd.net</text>
<rect x="180" y="286" width="417.81" height="22" fill="#4c78a8" rx="3"/>
<text x="605.81" y="302" class="value">221.62</text>
<text x="10" y="334" class="label">static3.cdn.ubi.com</text>
<rect x="180" y="318" width="429.63" height="22" fill="#4c78a8" rx="3"/>
<text x="617.63" y="334" class="value">227.89</text>
<text x="10" y="366" class="label">origin.com</text>
<rect x="180" y="350" width="496.77" height="22" fill="#4c78a8" rx="3"/>
<text x="684.77" y="366" class="value">263.50</text>
<text x="10" y="398" class="label">ubi.com</text>
<rect x="180" y="382" width="537.09" height="22" fill="#4c78a8" rx="3"/>
<text x="725.09" y="398" class="value">284.89</text>
<text x="10" y="430" class="label">easyanticheat.net</text>
<rect x="180" y="414" width="556.25" height="22" fill="#4c78a8" rx="3"/>
<text x="744.25" y="430" class="value">295.05</text>
<text x="10" y="462" class="label">launcher-public-service-prod06.ol.epicgames.com</text>
<rect x="180" y="446" width="564.24" height="22" fill="#4c78a8" rx="3"/>
<text x="752.24" y="462" class="value">299.29</text>
<text x="10" y="494" class="label">socialclub.rockstargames.com</text>
<rect x="180" y="478" width="580.0" height="22" fill="#4c78a8" rx="3"/>
<text x="768.0" y="494" class="value">307.65</text>
<line x1="180" y1="30" x2="180" y2="520" stroke="#ccc"/>
<line x1="180" y1="520" x2="760" y2="520" stroke="#ccc"/>
</svg>