<svg xmlns="http://www.w3.org/2000/svg" width="800" height="540">
<style> .label{font-family:DejaVu Sans,Verdana,Geneva,sans-serif;font-size:12px;fill:#333} .value{font-family:DejaVu Sans,Verdana,Geneva,sans-serif;font-size:12px;fill:#555} </style>
<text x="10" y="20" class="label">延迟柱状图（越低越好，Top 15），单位 ms</text>
<text x="10" y="46" class="label">easyanticheat.net</text>
<rect x="180" y="30" width="265.21" height="22" fill="#4c78a8" rx="3"/>
<text x="453.21" y="46" class="value">158.04</text>
<text x="10" y="78" class="label">origin.com</text>
<rect x="180" y="62" width="269.79" height="22" fill="#4c78a8" rx="3"/>
<text x="457.79" y="78" class="value">160.77</text>
<text x="10" y="110" class="label">ubisoft.com</text>
<rect x="180" y="94" width="281.79" height="22" fill="#4c78a8" rx="3"/>
<text x="469.79" y="110" class="value">167.92</text>
<text x="10" y="142" class="label">rockstargames.com</text>
<rect x="180" y="126" width="311.72" height="22" fill="#4c78a8" rx="3"/>
<text x="499.72" y="142" class="value">185.76</text>
<text x="10" y="174" class="label">blizzard.com</text>
<rect x="180" y="158" width="317.71" height="22" fill="#4c78a8" rx="3"/>
<text x="505.71" y="174" class="value">189.33</text>
<text x="10" y="206" class="label">ea.com</text>
<rect x="180" y="190" width="336.91" height="22" fill="#4c78a8" rx="3"/>
<text x="524.9100000000001" y="206" class="value">200.77</text>
<text x="10" y="238" class="label">ubi.com</text>
<rect x="180" y="222" width="373.8" height="22" fill="#4c78a8" rx="3"/>
<text x="561.8" y="238" class="value">222.75</text>
<text x="10" y="270" class="label">socialclub.rockstargames.com</text>
<rect x="180" y="254" width="425.01" height="22" fill="#4c78a8" rx="3"/>
<text x="613.01" y="270" class="value">253.27</text>
<text x="10" y="302" class="label">cdn.akamai.steamstatic.com</text>
<rect x="180" y="286" width="437.65" height="22" fill="#4c78a8" rx="3"/>
<text x="625.65" y="302" class="value">260.80</text>
<text x="10" y="334" class="label">launcher-public-service-prod06.ol.epicgames.com</text>
<rect x="180" y="318" width="452.25" height="22" fill="#4c78a8" rx="3"/>
<text x="640.25" y="334" class="value">269.50</text>
<text x="10" y="366" class="label">static3.cdn.ubi.com</text>
<rect x="180" y="350" width="478.11" height="22" fill="#4c78a8" rx="3"/>
<text x="666.11" y="366" class="value">284.91</text>
<text x="10" y="398" class="label">eaassets-a.akamaihd.net</text>
<rect x="180" y="382" width="519.71" height="22" fill="#4c78a8" rx="3"/>
<text x="707.71" y="398" class="value">309.70</text>
<text x="10" y="430" class="label">cdn.cloudflare.steamstatic.com</text>
<rect x="180" y="414" width="533.9" height="22" fill="#4c78a8" rx="3"/>
<text x="721.9" y="430" class="value">318.16</text>
<text x="10" y="462" class="label">api.steampowered.com</text>
<rect x="180" y="446" width="554.68" height="22" fill="#4c78a8" rx="3"/>
<text x="742.68" y="462" class="value">330.54</text>
<text x="10" y="494" class="label">community.akamai.steamstatic.com</text>
<rect x="180" y="478" width="580.0" height="22" fill="#4c78a8" rx="3"/>
<text x="768.0" y="494" class="value">345.63</text>
<line x1="180" y1="30" x2="180" y2="520" stroke="#ccc"/>
<line x1="180" y1="520" x2="760" y2="520" stroke="#ccc"/>
</svg>