<svg xmlns="http://www.w3.org/2000/svg" width="800" height="540">
<style> .label{font-family:DejaVu Sans,Verdana,Geneva,sans-serif;font-size:12px;fill:#333} .value{font-family:DejaVu Sans,Verdana,Geneva,sans-serif;font-size:12px;fill:#555} </style>
<text x="10" y="20" class="label">延迟柱状图（越低越好，Top 15），单位 ms</text>
<text x="10" y="46" class="label">socialclub.rockstargames.com</text>
<rect x="180" y="30" width="186.97" height="22" fill="#4c78a8" rx="3"/>
<text x="374.97" y="46" class="value">59.94</text>
<text x="10" y="78" class="label">rockstargames.com</text>
<rect x="180" y="62" width="218.6" height="22" fill="#4c78a8" rx="3"/>
<text x="406.6" y="78" class="value">70.08</text>
<text x="10" y="110" class="label">battle.net</text>
<rect x="180" y="94" width="293.31" height="22" fill="#4c78a8" rx="3"/>
<text x="481.31" y="110" class="value">94.03</text>
<text x="10" y="142" class="label">fortnite.com</text>
<rect x="180" y="126" width="301.39" height="22" fill="#4c78a8" rx="3"/>
<text x="489.39" y="142" class="value">96.62</text>
<text x="10" y="174" class="label">epicgames.com</text>
<rect x="180" y="158" width="306.35" height="22" fill="#4c78a8" rx="3"/>
<text x="494.35" y="174" class="value">98.21</text>
<text x="10" y="206" class="label">blizzard.com</text>
<rect x="180" y="190" width="333.33" height="22" fill="#4c78a8" rx="3"/>
<text x="521.3299999999999" y="206" class="value">106.86</text>
<text x="10" y="238" class="label">ea.com</text>
<rect x="180" y="222" width="344.84" height="22" fill="#4c78a8" rx="3"/>
<text x="532.8399999999999" y="238" class="value">110.55</text>
<text x="10" y="270" class="label">eaassets-a.akamaihd.net</text>
<rect x="180" y="254" width="376.44" height="22" fill="#4c78a8" rx="3"/>
<text x="564.44" y="270" class="value">120.68</text>
<text x="10" y="302" class="label">ubi.com</text>
<rect x="180" y="286" width="403.79" height="22" fill="#4c78a8" rx="3"/>
<text x="591.79" y="302" class="value">129.45</text>
<text x="10" y="334" class="label">steamcdn-a.akamaihd.net</text>
<rect x="180" y="318" width="445.68" height="22" fill="#4c78a8" rx="3"/>
<text x="633.6800000000001" y="334" class="value">142.88</text>
<text x="10" y="366" class="label">ubisoft.com</text>
<rect x="180" y="350" width="456.01" height="22" fill="#4c78a8" rx="3"/>
<text x="644.01" y="366" class="value">146.19</text>
<text x="10" y="398" class="label">community.akamai.steamstatic.com</text>
<rect x="180" y="382" width="518.3" height="22" fill="#4c78a8" rx="3"/>
<text x="706.3" y="398" class="value">166.16</text>
<text x="10" y="430" class="label">cdn.cloudflare.steamstatic.com</text>
<rect x="180" y="414" width="524.04" height="22" fill="#4c78a8" rx="3"/>
<text x="712.04" y="430" class="value">168.00</text>
<text x="10" y="462" class="label">cdn.akamai.steamstatic.com</text>
<rect x="180" y="446" width="566.12" height="22" fill="#4c78a8" rx="3"/>
<text x="754.12" y="462" class="value">181.49</text>
<text x="10" y="494" class="label">origin.com</text>
<rect x="180" y="478" width="580.0" height="22" fill="#4c78a8" rx="3"/>
<text x="768.0" y="494" class="value">185.94</text>
<line x1="180" y1="30" x2="180" y2="520" stroke="#ccc"/>
<line x1="180" y1="520" x2="760" y2="520" stroke="#ccc"/>
</svg>