<svg xmlns="http://www.w3.org/2000/svg" width="800" height="540">
<style> .label{font-family:DejaVu Sans,Verdana,Geneva,sans-serif;font-size:12px;fill:#333} .value{font-family:DejaVu Sans,Verdana,Geneva,sans-serif;font-size:12px;fill:#555} </style>
<text x="10" y="20" class="label">延迟柱状图（越低越好，Top 15），单位 ms</text>
<text x="10" y="46" class="label">rockstargames.com</text>
<rect x="180" y="30" width="259.47" height="22" fill="#4c78a8" rx="3"/>
<text x="447.47" y="46" class="value">113.29</text>
<text x="10" y="78" class="label">eaassets-a.akamaihd.net</text>
<rect x="180" y="62" width="303.74" height="22" fill="#4c78a8" rx="3"/>
<text x="491.74" y="78" class="value">132.62</text>
<text x="10" y="110" class="label">ubisoft.com</text>
<rect x="180" y="94" width="359.95" height="22" fill="#4c78a8" rx="3"/>
<text x="547.95" y="110" class="value">157.16</text>
<text x="10" y="142" class="label">cdn.cloudflare.steamstatic.com</text>
<rect x="180" y="126" width="362.26" height="22" fill="#4c78a8" rx="3"/>
<text x="550.26" y="142" class="value">158.17</text>
<text x="10" y="174" class="label">steamcdn-a.akamaihd.net</text>
<rect x="180" y="158" width="370.89" height="22" fill="#4c78a8" rx="3"/>
<text x="558.89" y="174" class="value">161.94</text>
<text x="10" y="206" class="label">ea.com</text>
<rect x="180" y="190" width="375.5" height="22" fill="#4c78a8" rx="3"/>
<text x="563.5" y="206" class="value">163.95</text>
<text x="10" y="238" class="label">community.akamai.steamstatic.com</text>
<rect x="180" y="222" width="411.68" height="22" fill="#4c78a8" rx="3"/>
<text x="599.6800000000001" y="238" class="value">179.75</text>
<text x="10" y="270" class="label">battle.net</text>
<rect x="180" y="254" width="442.24" height="22" fill="#4c78a8" rx="3"/>
<text x="630.24" y="270" class="value">193.09</text>
<text x="10" y="302" class="label">ubi.com</text>
<rect x="180" y="286" width="487.68" height="22" fill="#4c78a8" rx="3"/>
<text x="675.6800000000001" y="302" class="value">212.93</text>
<text x="10" y="334" class="label">origin.com</text>
<rect x="180" y="318" width="495.79" height="22" fill="#4c78a8" rx="3"/>
<text x="683.79" y="334" class="value">216.47</text>
<text x="10" y="366" class="label">cdn.akamai.steamstatic.com</text>
<rect x="180" y="350" width="512.07" height="22" fill="#4c78a8" rx="3"/>
<text x="700.07" y="366" class="value">223.58</text>
<text x="10" y="398" class="label">store.akamai.steamstatic.com</text>
<rect x="180" y="382" width="529.27" height="22" fill="#4c78a8" rx="3"/>
<text x="717.27" y="398" class="value">231.09</text>
<text x="10" y="430" class="label">launcher-public-service-prod06.ol.epicgames.com</text>
<rect x="180" y="414" width="565.5" height="22" fill="#4c78a8" rx="3"/>
<text x="753.5" y="430" class="value">246.91</text>
<text x="10" y="462" class="label">steam-chat.com</text>
<rect x="180" y="446" width="578.9" height="22" fill="#4c78a8" rx="3"/>
<text x="766.9" y="462" class="value">252.76</text>
<text x="10" y="494" class="label">unrealengine.com</text>
<rect x="180" y="478" width="580.0" height="22" fill="#4c78a8" rx="3"/>
<text x="768.0" y="494" class="value">253.24</text>
<line x1="180" y1="30" x2="180" y2="520" stroke="#ccc"/>
<line x1="180" y1="520" x2="760" y2="520" stroke="#ccc"/>
</svg>