<svg xmlns="http://www.w3.org/2000/svg" width="800" height="540">
<style> .label{font-family:DejaVu Sans,Verdana,Geneva,sans-serif;font-size:12px;fill:#333} .value{font-family:DejaVu Sans,Verdana,Geneva,sans-serif;font-size:12px;fill:#555} </style>
<text x="10" y="20" class="label">延迟柱状图（越低越好，Top 15），单位 ms</text>
<text x="10" y="46" class="label">eaassets-a.akamaihd.net</text>
<rect x="180" y="30" width="166.39" height="22" fill="#4c78a8" rx="3"/>
<text x="354.39" y="46" class="value">55.16</text>
<text x="10" y="78" class="label">ea.com</text>
<rect x="180" y="62" width="292.87" height="22" fill="#4c78a8" rx="3"/>
<text x="480.87" y="78" class="value">97.09</text>
<text x="10" y="110" class="label">ubisoft.com</text>
<rect x="180" y="94" width="328.76" height="22" fill="#4c78a8" rx="3"/>
<text x="516.76" y="110" class="value">108.99</text>
<text x="10" y="142" class="label">ubi.com</text>
<rect x="180" y="126" width="348.25" height="22" fill="#4c78a8" rx="3"/>
<text x="536.25" y="142" class="value">115.45</text>
<text x="10" y="174" class="label">rockstargames.com</text>
<rect x="180" y="158" width="350.03" height="22" fill="#4c78a8" rx="3"/>
<text x="538.03" y="174" class="value">116.04</text>
<text x="10" y="206" class="label">blizzard.com</text>
<rect x="180" y="190" width="384.78" height="22" fill="#4c78a8" rx="3"/>
<text x="572.78" y="206" class="value">127.56</text>
<text x="10" y="238" class="label">battle.net</text>
<rect x="180" y="222" width="389.78" height="22" fill="#4c78a8" rx="3"/>
<text x="577.78" y="238" class="value">129.22</text>
<text x="10" y="270" class="label">community.akamai.steamstatic.com</text>
<rect x="180" y="254" width="401.76" height="22" fill="#4c78a8" rx="3"/>
<text x="589.76" y="270" class="value">133.19</text>
<text x="10" y="302" class="label">origin.com</text>
<rect x="180" y="286" width="406.59" height="22" fill="#4c78a8" rx="3"/>
<text x="594.5899999999999" y="302" class="value">134.79</text>
<text x="10" y="334" class="label">socialclub.rockstargames.com</text>
<rect x="180" y="318" width="412.86" height="22" fill="#4c78a8" rx="3"/>
<text x="600.86" y="334" class="value">136.87</text>
<text x="10" y="366" class="label">steamcdn-a.akamaihd.net</text>
<rect x="180" y="350" width="554.69" height="22" fill="#4c78a8" rx="3"/>
<text x="742.69" y="366" class="value">183.89</text>
<text x="10" y="398" class="label">cdn.akamai.steamstatic.com</text>
<rect x="180" y="382" width="556.92" height="22" fill="#4c78a8" rx="3"/>
<text x="744.92" y="398" class="value">184.63</text>
<text x="10" y="430" class="label">static3.cdn.ubi.com</text>
<rect x="180" y="414" width="560.18" height="22" fill="#4c78a8" rx="3"/>
<text x="748.18" y="430" class="value">185.71</text>
<text x="10" y="462" class="label">easyanticheat.net</text>
<rect x="180" y="446" width="561.6" height="22" fill="#4c78a8" rx="3"/>
<text x="749.6" y="462" class="value">186.18</text>
<text x="10" y="494" class="label">steam-chat.com</text>
<rect x="180" y="478" width="580.0" height="22" fill="#4c78a8" rx="3"/>
<text x="768.0" y="494" class="value">192.28</text>
<line x1="180" y1="30" x2="180" y2="520" stroke="#ccc"/>
<line x1="180" y1="520" x2="760" y2="520" stroke="#ccc"/>
</svg>