<svg xmlns="http://www.w3.org/2000/svg" width="800" height="540">
<style> .label{font-family:DejaVu Sans,Verdana,Geneva,sans-serif;font-size:12px;fill:#333} .value{font-family:DejaVu Sans,Verdana,Geneva,sans-serif;font-size:12px;fill:#555} </style>
<text x="10" y="20" class="label">延迟柱状图（越低越好，Top 15），单位 ms</text>
<text x="10" y="46" class="label">eaassets-a.akamaihd.net</text>
<rect x="180" y="30" width="80.15" height="22" fill="#4c78a8" rx="3"/>
<text x="268.15" y="46" class="value">33.11</text>
<text x="10" y="78" class="label">rockstargames.com</text>
<rect x="180" y="62" width="99.54" height="22" fill="#4c78a8" rx="3"/>
<text x="287.54" y="78" class="value">41.12</text>
<text x="10" y="110" class="label">ubisoft.com</text>
<rect x="180" y="94" width="170.62" height="22" fill="#4c78a8" rx="3"/>
<text x="358.62" y="110" class="value">70.48</text>
<text x="10" y="142" class="label">cdn.akamai.steamstatic.com</text>
<rect x="180" y="126" width="221.65" height="22" fill="#4c78a8" rx="3"/>
<text x="409.65" y="142" class="value">91.56</text>
<text x="10" y="174" class="label">cdn.cloudflare.steamstatic.com</text>
<rect x="180" y="158" width="302.41" height="22" fill="#4c78a8" rx="3"/>
<text x="490.41" y="174" class="value">124.92</text>
<text x="10" y="206" class="label">community.akamai.steamstatic.com</text>
<rect x="180" y="190" width="377.31" height="22" fill="#4c78a8" rx="3"/>
<text x="565.31" y="206" class="value">155.86</text>
<text x="10" y="238" class="label">steamcdn-a.akamaihd.net</text>
<rect x="180" y="222" width="380.43" height="22" fill="#4c78a8" rx="3"/>
<text x="568.4300000000001" y="238" class="value">157.15</text>
<text x="10" y="270" class="label">origin.com</text>
<rect x="180" y="254" width="381.71" height="22" fill="#4c78a8" rx="3"/>
<text x="569.71" y="270" class="value">157.68</text>
<text x="10" y="302" class="label">static3.cdn.ubi.com</text>
<rect x="180" y="286" width="391.54" height="22" fill="#4c78a8" rx="3"/>
<text x="579.54" y="302" class="value">161.74</text>
<text x="10" y="334" class="label">store.akamai.steamstatic.com</text>
<rect x="180" y="318" width="395.97" height="22" fill="#4c78a8" rx="3"/>
<text x="583.97" y="334" class="value">163.57</text>
<text x="10" y="366" class="label">ea.com</text>
<rect x="180" y="350" width="400.72" height="22" fill="#4c78a8" rx="3"/>
<text x="588.72" y="366" class="value">165.53</text>
<text x="10" y="398" class="label">easyanticheat.net</text>
<rect x="180" y="382" width="492.34" height="22" fill="#4c78a8" rx="3"/>
<text x="680.3399999999999" y="398" class="value">203.38</text>
<text x="10" y="430" class="label">steam-chat.com</text>
<rect x="180" y="414" width="516.31" height="22" fill="#4c78a8" rx="3"/>
<text x="704.31" y="430" class="value">213.28</text>
<text x="10" y="462" class="label">www.steamcommunity.com</text>
<rect x="180" y="446" width="564.53" height="22" fill="#4c78a8" rx="3"/>
<text x="752.53" y="462" class="value">233.20</text>
<text x="10" y="494" class="label">launcher-public-service-prod06.ol.epicgames.com</text>
<rect x="180" y="478" width="580.0" height="22" fill="#4c78a8" rx="3"/>
<text x="768.0" y="494" class="value">239.59</text>
<line x1="180" y1="30" x2="180" y2="520" stroke="#ccc"/>
<line x1="180" y1="520" x2="760" y2="520" stroke="#ccc"/>
</svg>