<svg xmlns="http://www.w3.org/2000/svg" width="800" height="540">
<style> .label{font-family:DejaVu Sans,Verdana,Geneva,sans-serif;font-size:12px;fill:#333} .value{font-family:DejaVu Sans,Verdana,Geneva,sans-serif;font-size:12px;fill:#555} </style>
<text x="10" y="20" class="label">延迟柱状图（越低越好，Top 15），单位 ms</text>
<text x="10" y="46" class="label">steamcdn-a.akamaihd.net</text>
<rect x="180" y="30" width="220.76" height="22" fill="#4c78a8" rx="3"/>
<text x="408.76" y="46" class="value">80.34</text>
<text x="10" y="78" class="label">eaassets-a.akamaihd.net</text>
<rect x="180" y="62" width="282.99" height="22" fill="#4c78a8" rx="3"/>
<text x="470.99" y="78" class="value">102.99</text>
<text x="10" y="110" class="label">ubi.com</text>
<rect x="180" y="94" width="396.59" height="22" fill="#4c78a8" rx="3"/>
<text x="584.5899999999999" y="110" class="value">144.33</text>
<text x="10" y="142" class="label">easyanticheat.net</text>
<rect x="180" y="126" width="419.67" height="22" fill="#4c78a8" rx="3"/>
<text x="607.6700000000001" y="142" class="value">152.73</text>
<text x="10" y="174" class="label">rockstargames.com</text>
<rect x="180" y="158" width="428.6" height="22" fill="#4c78a8" rx="3"/>
<text x="616.6" y="174" class="value">155.98</text>
<text x="10" y="206" class="label">store.akamai.steamstatic.com</text>
<rect x="180" y="190" width="447.23" height="22" fill="#4c78a8" rx="3"/>
<text x="635.23" y="206" class="value">162.76</text>
<text x="10" y="238" class="label">ea.com</text>
<rect x="180" y="222" width="450.09" height="22" fill="#4c78a8" rx="3"/>
<text x="638.0899999999999" y="238" class="value">163.80</text>
<text x="10" y="270" class="label">blizzard.com</text>
<rect x="180" y="254" width="484.51" height="22" fill="#4c78a8" rx="3"/>
<text x="672.51" y="270" class="value">176.33</text>
<text x="10" y="302" class="label">socialclub.rockstargames.com</text>
<rect x="180" y="286" width="543.51" height="22" fill="#4c78a8" rx="3"/>
<text x="731.51" y="302" class="value">197.80</text>
<text x="10" y="334" class="label">battle.net</text>
<rect x="180" y="318" width="544.47" height="22" fill="#4c78a8" rx="3"/>
<text x="732.47" y="334" class="value">198.15</text>
<text x="10" y="366" class="label">origin.com</text>
<rect x="180" y="350" width="546.94" height="22" fill="#4c78a8" rx="3"/>
<text x="734.94" y="366" class="value">199.05</text>
<text x="10" y="398" class="label">fortnite.com</text>
<rect x="180" y="382" width="551.59" height="22" fill="#4c78a8" rx="3"/>
<text x="739.59" y="398" class="value">200.74</text>
<text x="10" y="430" class="label">ubisoft.com</text>
<rect x="180" y="414" width="565.38" height="22" fill="#4c78a8" rx="3"/>
<text x="753.38" y="430" class="value">205.76</text>
<text x="10" y="462" class="label">community.akamai.steamstatic.com</text>
<rect x="180" y="446" width="576.26" height="22" fill="#4c78a8" rx="3"/>
<text x="764.26" y="462" class="value">209.72</text>
<text x="10" y="494" class="label">launcher-public-service-prod06.ol.epicgames.com</text>
<rect x="180" y="478" width="580.0" height="22" fill="#4c78a8" rx="3"/>
<text x="768.0" y="494" class="value">211.08</text>
<line x1="180" y1="30" x2="180" y2="520" stroke="#ccc"/>
<line x1="180" y1="520" x2="760" y2="520" stroke="#ccc"/>
</svg>