<svg xmlns="http://www.w3.org/2000/svg" width="800" height="540">
<style> .label{font-family:DejaVu Sans,Verdana,Geneva,sans-serif;font-size:12px;fill:#333} .value{font-family:DejaVu Sans,Verdana,Geneva,sans-serif;font-size:12px;fill:#555} </style>
<text x="10" y="20" class="label">延迟柱状图（越低越好，Top 15），单位 ms</text>
<text x="10" y="46" class="label">rockstargames.com</text>
<rect x="180" y="30" width="201.27" height="22" fill="#4c78a8" rx="3"/>
<text x="389.27" y="46" class="value">73.19</text>
<text x="10" y="78" class="label">socialclub.rockstargames.com</text>
<rect x="180" y="62" width="242.52" height="22" fill="#4c78a8" rx="3"/>
<text x="430.52" y="78" class="value">88.19</text>
<text x="10" y="110" class="label">blizzard.com</text>
<rect x="180" y="94" width="253.69" height="22" fill="#4c78a8" rx="3"/>
<text x="441.69" y="110" class="value">92.25</text>
<text x="10" y="142" class="label">eaassets-a.akamaihd.net</text>
<rect x="180" y="126" width="258.06" height="22" fill="#4c78a8" rx="3"/>
<text x="446.06" y="142" class="value">93.84</text>
<text x="10" y="174" class="label">community.akamai.steamstatic.com</text>
<rect x="180" y="158" width="304.59" height="22" fill="#4c78a8" rx="3"/>
<text x="492.59" y="174" class="value">110.76</text>
<text x="10" y="206" class="label">battle.net</text>
<rect x="180" y="190" width="309.98" height="22" fill="#4c78a8" rx="3"/>
<text x="497.98" y="206" class="value">112.72</text>
<text x="10" y="238" class="label">ea.com</text>
<rect x="180" y="222" width="411.37" height="22" fill="#4c78a8" rx="3"/>
<text x="599.37" y="238" class="value">149.59</text>
<text x="10" y="270" class="label">ubisoft.com</text>
<rect x="180" y="254" width="450.78" height="22" fill="#4c78a8" rx="3"/>
<text x="638.78" y="270" class="value">163.92</text>
<text x="10" y="302" class="label">cdn.akamai.steamstatic.com</text>
<rect x="180" y="286" width="450.83" height="22" fill="#4c78a8" rx="3"/>
<text x="638.8299999999999" y="302" class="value">163.94</text>
<text x="10" y="334" class="label">ubi.com</text>
<rect x="180" y="318" width="468.43" height="22" fill="#4c78a8" rx="3"/>
<text x="656.4300000000001" y="334" class="value">170.34</text>
<text x="10" y="366" class="label">steamcdn-a.akamaihd.net</text>
<rect x="180" y="350" width="468.98" height="22" fill="#4c78a8" rx="3"/>
<text x="656.98" y="366" class="value">170.54</text>
<text x="10" y="398" class="label">store.akamai.steamstatic.com</text>
<rect x="180" y="382" width="508.28" height="22" fill="#4c78a8" rx="3"/>
<text x="696.28" y="398" class="value">184.83</text>
<text x="10" y="430" class="label">fortnite.com</text>
<rect x="180" y="414" width="517.63" height="22" fill="#4c78a8" rx="3"/>
<text x="705.63" y="430" class="value">188.23</text>
<text x="10" y="462" class="label">origin.com</text>
<rect x="180" y="446" width="534.35" height="22" fill="#4c78a8" rx="3"/>
<text x="722.35" y="462" class="value">194.31</text>
<text x="10" y="494" class="label">cdn.cloudflare.steamstatic.com</text>
<rect x="180" y="478" width="580.0" height="22" fill="#4c78a8" rx="3"/>
<text x="768.0" y="494" class="value">210.91</text>
<line x1="180" y1="30" x2="180" y2="520" stroke="#ccc"/>
<line x1="180" y1="520" x2="760" y2="520" stroke="#ccc"/>
</svg>