<svg xmlns="http://www.w3.org/2000/svg" width="800" height="540">
<style> .label{font-family:DejaVu Sans,Verdana,Geneva,sans-serif;font-size:12px;fill:#333} .value{font-family:DejaVu Sans,Verdana,Geneva,sans-serif;font-size:12px;fill:#555} </style>
<text x="10" y="20" class="label">延迟柱状图（越低越好，Top 15），单位 ms</text>
<text x="10" y="46" class="label">rockstargames.com</text>
<rect x="180" y="30" width="189.33" height="22" fill="#4c78a8" rx="3"/>
<text x="377.33000000000004" y="46" class="value">96.76</text>
<text x="10" y="78" class="label">ubisoft.com</text>
<rect x="180" y="62" width="260.1" height="22" fill="#4c78a8" rx="3"/>
<text x="448.1" y="78" class="value">132.93</text>
<text x="10" y="110" class="label">eaassets-a.akamaihd.net</text>
<rect x="180" y="94" width="281.18" height="22" fill="#4c78a8" rx="3"/>
<text x="469.18" y="110" class="value">143.70</text>
<text x="10" y="142" class="label">ea.com</text>
<rect x="180" y="126" width="324.91" height="22" fill="#4c78a8" rx="3"/>
<text x="512.9100000000001" y="142" class="value">166.05</text>
<text x="10" y="174" class="label">origin.com</text>
<rect x="180" y="158" width="340.19" height="22" fill="#4c78a8" rx="3"/>
<text x="528.19" y="174" class="value">173.86</text>
<text x="10" y="206" class="label">easyanticheat.net</text>
<rect x="180" y="190" width="409.91" height="22" fill="#4c78a8" rx="3"/>
<text x="597.9100000000001" y="206" class="value">209.49</text>
<text x="10" y="238" class="label">steamcdn-a.akamaihd.net</text>
<rect x="180" y="222" width="445.95" height="22" fill="#4c78a8" rx="3"/>
<text x="633.95" y="238" class="value">227.91</text>
<text x="10" y="270" class="label">community.akamai.steamstatic.com</text>
<rect x="180" y="254" width="459.55" height="22" fill="#4c78a8" rx="3"/>
<text x="647.55" y="270" class="value">234.86</text>
<text x="10" y="302" class="label">store.akamai.steamstatic.com</text>
<rect x="180" y="286" width="465.96" height="22" fill="#4c78a8" rx="3"/>
<text x="653.96" y="302" class="value">238.14</text>
<text x="10" y="334" class="label">cdn.akamai.steamstatic.com</text>
<rect x="180" y="318" width="467.14" height="22" fill="#4c78a8" rx="3"/>
<text x="655.14" y="334" class="value">238.74</text>
<text x="10" y="366" class="label">cdn.cloudflare.steamstatic.com</text>
<rect x="180" y="350" width="495.0" height="22" fill="#4c78a8" rx="3"/>
<text x="683.0" y="366" class="value">252.98</text>
<text x="10" y="398" class="label">ubi.com</text>
<rect x="180" y="382" width="535.76" height="22" fill="#4c78a8" rx="3"/>
<text x="723.76" y="398" class="value">273.81</text>
<text x="10" y="430" class="label">api.steampowered.com</text>
<rect x="180" y="414" width="546.78" height="22" fill="#4c78a8" rx="3"/>
<text x="734.78" y="430" class="value">279.44</text>
<text x="10" y="462" class="label">launcher-public-service-prod06.ol.epicgames.com</text>
<rect x="180" y="446" width="553.41" height="22" fill="#4c78a8" rx="3"/>
<text x="741.41" y="462" class="value">282.83</text>
<text x="10" y="494" class="label">steamcommunity.com</text>
<rect x="180" y="478" width="580.0" height="22" fill="#4c78a8" rx="3"/>
<text x="768.0" y="494" class="value">296.42</text>
<line x1="180" y1="30" x2="180" y2="520" stroke="#ccc"/>
<line x1="180" y1="520" x2="760" y2="520" stroke="#ccc"/>
</svg>