<svg xmlns="http://www.w3.org/2000/svg" width="800" height="540">
<style> .label{font-family:DejaVu Sans,Verdana,Geneva,sans-serif;font-size:12px;fill:#333} .value{font-family:DejaVu Sans,Verdana,Geneva,sans-serif;font-size:12px;fill:#555} </style>
<text x="10" y="20" class="label">延迟柱状图（越低越好，Top 15），单位 ms</text>
<text x="10" y="46" class="label">eaassets-a.akamaihd.net</text>
<rect x="180" y="30" width="298.5" height="22" fill="#4c78a8" rx="3"/>
<text x="486.5" y="46" class="value">117.94</text>
<text x="10" y="78" class="label">rockstargames.com</text>
<rect x="180" y="62" width="308.12" height="22" fill="#4c78a8" rx="3"/>
<text x="496.12" y="78" class="value">121.74</text>
<text x="10" y="110" class="label">ea.com</text>
<rect x="180" y="94" width="318.78" height="22" fill="#4c78a8" rx="3"/>
<text x="506.78" y="110" class="value">125.95</text>
<text x="10" y="142" class="label">steamcdn-a.akamaihd.net</text>
<rect x="180" y="126" width="336.92" height="22" fill="#4c78a8" rx="3"/>
<text x="524.9200000000001" y="142" class="value">133.12</text>
<text x="10" y="174" class="label">easyanticheat.net</text>
<rect x="180" y="158" width="396.02" height="22" fill="#4c78a8" rx="3"/>
<text x="584.02" y="174" class="value">156.47</text>
<text x="10" y="206" class="label">store.akamai.steamstatic.com</text>
<rect x="180" y="190" width="398.63" height="22" fill="#4c78a8" rx="3"/>
<text x="586.63" y="206" class="value">157.50</text>
<text x="10" y="238" class="label">ubi.com</text>
<rect x="180" y="222" width="400.45" height="22" fill="#4c78a8" rx="3"/>
<text x="588.45" y="238" class="value">158.22</text>
<text x="10" y="270" class="label">origin.com</text>
<rect x="180" y="254" width="448.21" height="22" fill="#4c78a8" rx="3"/>
<text x="636.21" y="270" class="value">177.09</text>
<text x="10" y="302" class="label">cdn.akamai.steamstatic.com</text>
<rect x="180" y="286" width="468.81" height="22" fill="#4c78a8" rx="3"/>
<text x="656.81" y="302" class="value">185.23</text>
<text x="10" y="334" class="label">blizzard.com</text>
<rect x="180" y="318" width="499.49" height="22" fill="#4c78a8" rx="3"/>
<text x="687.49" y="334" class="value">197.35</text>
<text x="10" y="366" class="label">fortnite.com</text>
<rect x="180" y="350" width="513.36" height="22" fill="#4c78a8" rx="3"/>
<text x="701.36" y="366" class="value">202.83</text>
<text x="10" y="398" class="label">socialclub.rockstargames.com</text>
<rect x="180" y="382" width="527.96" height="22" fill="#4c78a8" rx="3"/>
<text x="715.96" y="398" class="value">208.60</text>
<text x="10" y="430" class="label">unrealengine.com</text>
<rect x="180" y="414" width="570.51" height="22" fill="#4c78a8" rx="3"/>
<text x="758.51" y="430" class="value">225.41</text>
<text x="10" y="462" class="label">cdn.cloudflare.steamstatic.com</text>
<rect x="180" y="446" width="572.38" height="22" fill="#4c78a8" rx="3"/>
<text x="760.38" y="462" class="value">226.15</text>
<text x="10" y="494" class="label">battle.net</text>
<rect x="180" y="478" width="580.0" height="22" fill="#4c78a8" rx="3"/>
<text x="768.0" y="494" class="value">229.16</text>
<line x1="180" y1="30" x2="180" y2="520" stroke="#ccc"/>
<line x1="180" y1="520" x2="760" y2="520" stroke="#ccc"/>
</svg>