<svg xmlns="http://www.w3.org/2000/svg" width="800" height="540">
<style> .label{font-family:DejaVu Sans,Verdana,Geneva,sans-serif;font-size:12px;fill:#333} .value{font-family:DejaVu Sans,Verdana,Geneva,sans-serif;font-size:12px;fill:#555} </style>
<text x="10" y="20" class="label">延迟柱状图（越低越好，Top 15），单位 ms</text>
<text x="10" y="46" class="label">eaassets-a.akamaihd.net</text>
<rect x="180" y="30" width="100.48" height="22" fill="#4c78a8" rx="3"/>
<text x="288.48" y="46" class="value">51.37</text>
<text x="10" y="78" class="label">rockstargames.com</text>
<rect x="180" y="62" width="104.16" height="22" fill="#4c78a8" rx="3"/>
<text x="292.15999999999997" y="78" class="value">53.25</text>
<text x="10" y="110" class="label">ea.com</text>
<rect x="180" y="94" width="186.92" height="22" fill="#4c78a8" rx="3"/>
<text x="374.91999999999996" y="110" class="value">95.56</text>
<text x="10" y="142" class="label">cdn.akamai.steamstatic.com</text>
<rect x="180" y="126" width="189.7" height="22" fill="#4c78a8" rx="3"/>
<text x="377.7" y="142" class="value">96.98</text>
<text x="10" y="174" class="label">steamcdn-a.akamaihd.net</text>
<rect x="180" y="158" width="204.68" height="22" fill="#4c78a8" rx="3"/>
<text x="392.68" y="174" class="value">104.64</text>
<text x="10" y="206" class="label">cdn.cloudflare.steamstatic.com</text>
<rect x="180" y="190" width="234.57" height="22" fill="#4c78a8" rx="3"/>
<text x="422.57" y="206" class="value">119.92</text>
<text x="10" y="238" class="label">easyanticheat.net</text>
<rect x="180" y="222" width="264.12" height="22" fill="#4c78a8" rx="3"/>
<text x="452.12" y="238" class="value">135.03</text>
<text x="10" y="270" class="label">ubisoft.com</text>
<rect x="180" y="254" width="327.58" height="22" fill="#4c78a8" rx="3"/>
<text x="515.5799999999999" y="270" class="value">167.47</text>
<text x="10" y="302" class="label">community.akamai.steamstatic.com</text>
<rect x="180" y="286" width="337.45" height="22" fill="#4c78a8" rx="3"/>
<text x="525.45" y="302" class="value">172.52</text>
<text x="10" y="334" class="label">origin.com</text>
<rect x="180" y="318" width="337.47" height="22" fill="#4c78a8" rx="3"/>
<text x="525.47" y="334" class="value">172.53</text>
<text x="10" y="366" class="label">api.steampowered.com</text>
<rect x="180" y="350" width="475.04" height="22" fill="#4c78a8" rx="3"/>
<text x="663.04" y="366" class="value">242.86</text>
<text x="10" y="398" class="label">www.steamcommunity.com</text>
<rect x="180" y="382" width="517.13" height="22" fill="#4c78a8" rx="3"/>
<text x="705.13" y="398" class="value">264.38</text>
<text x="10" y="430" class="label">store.akamai.steamstatic.com</text>
<rect x="180" y="414" width="534.05" height="22" fill="#4c78a8" rx="3"/>
<text x="722.05" y="430" class="value">273.03</text>
<text x="10" y="462" class="label">launcher-public-service-prod06.ol.epicgames.com</text>
<rect x="180" y="446" width="543.75" height="22" fill="#4c78a8" rx="3"/>
<text x="731.75" y="462" class="value">277.99</text>
<text x="10" y="494" class="label">ubi.com</text>
<rect x="180" y="478" width="580.0" height="22" fill="#4c78a8" rx="3"/>
<text x="768.0" y="494" class="value">296.52</text>
<line x1="180" y1="30" x2="180" y2="520" stroke="#ccc"/>
<line x1="180" y1="520" x2="760" y2="520" stroke="#ccc"/>
</svg>