<svg xmlns="http://www.w3.org/2000/svg" width="800" height="540">
<style> .label{font-family:DejaVu Sans,Verdana,Geneva,sans-serif;font-size:12px;fill:#333} .value{font-family:DejaVu Sans,Verdana,Geneva,sans-serif;font-size:12px;fill:#555} </style>
<text x="10" y="20" class="label">延迟柱状图（越低越好，Top 15），单位 ms</text>
<text x="10" y="46" class="label">rockstargames.com</text>
<rect x="180" y="30" width="238.63" height="22" fill="#4c78a8" rx="3"/>
<text x="426.63" y="46" class="value">111.17</text>
<text x="10" y="78" class="label">cdn.cloudflare.steamstatic.com</text>
<rect x="180" y="62" width="309.23" height="22" fill="#4c78a8" rx="3"/>
<text x="497.23" y="78" class="value">144.06</text>
<text x="10" y="110" class="label">ubisoft.com</text>
<rect x="180" y="94" width="331.0" height="22" fill="#4c78a8" rx="3"/>
<text x="519.0" y="110" class="value">154.20</text>
<text x="10" y="142" class="label">eaassets-a.akamaihd.net</text>
<rect x="180" y="126" width="347.64" height="22" fill="#4c78a8" rx="3"/>
<text x="535.64" y="142" class="value">161.95</text>
<text x="10" y="174" class="label">easyanticheat.net</text>
<rect x="180" y="158" width="357.32" height="22" fill="#4c78a8" rx="3"/>
<text x="545.3199999999999" y="174" class="value">166.46</text>
<text x="10" y="206" class="label">store.akamai.steamstatic.com</text>
<rect x="180" y="190" width="372.66" height="22" fill="#4c78a8" rx="3"/>
<text x="560.6600000000001" y="206" class="value">173.61</text>
<text x="10" y="238" class="label">community.akamai.steamstatic.com</text>
<rect x="180" y="222" width="434.96" height="22" fill="#4c78a8" rx="3"/>
<text x="622.96" y="238" class="value">202.63</text>
<text x="10" y="270" class="label">ubi.com</text>
<rect x="180" y="254" width="443.63" height="22" fill="#4c78a8" rx="3"/>
<text x="631.63" y="270" class="value">206.67</text>
<text x="10" y="302" class="label">ea.com</text>
<rect x="180" y="286" width="483.83" height="22" fill="#4c78a8" rx="3"/>
<text x="671.8299999999999" y="302" class="value">225.40</text>
<text x="10" y="334" class="label">www.steamcommunity.com</text>
<rect x="180" y="318" width="535.44" height="22" fill="#4c78a8" rx="3"/>
<text x="723.44" y="334" class="value">249.44</text>
<text x="10" y="366" class="label">epicgames.com</text>
<rect x="180" y="350" width="544.37" height="22" fill="#4c78a8" rx="3"/>
<text x="732.37" y="366" class="value">253.60</text>
<text x="10" y="398" class="label">steamcommunity.com</text>
<rect x="180" y="382" width="549.93" height="22" fill="#4c78a8" rx="3"/>
<text x="737.93" y="398" class="value">256.19</text>
<text x="10" y="430" class="label">origin.com</text>
<rect x="180" y="414" width="550.14" height="22" fill="#4c78a8" rx="3"/>
<text x="738.14" y="430" class="value">256.29</text>
<text x="10" y="462" class="label">api.steampowered.com</text>
<rect x="180" y="446" width="554.63" height="22" fill="#4c78a8" rx="3"/>
<text x="742.63" y="462" class="value">258.38</text>
<text x="10" y="494" class="label">fortnite.com</text>
<rect x="180" y="478" width="580.0" height="22" fill="#4c78a8" rx="3"/>
<text x="768.0" y="494" class="value">270.20</text>
<line x1="180" y1="30" x2="180" y2="520" stroke="#ccc"/>
<line x1="180" y1="520" x2="760" y2="520" stroke="#ccc"/>
</svg>