<svg xmlns="http://www.w3.org/2000/svg" width="800" height="540">
<style> .label{font-family:DejaVu Sans,Verdana,Geneva,sans-serif;font-size:12px;fill:#333} .value{font-family:DejaVu Sans,Verdana,Geneva,sans-serif;font-size:12px;fill:#555} </style>
<text x="10" y="20" class="label">延迟柱状图（越低越好，Top 15），单位 ms</text>
<text x="10" y="46" class="label">rockstargames.com</text>
<rect x="180" y="30" width="76.44" height="22" fill="#4c78a8" rx="3"/>
<text x="264.44" y="46" class="value">32.50</text>
<text x="10" y="78" class="label">eaassets-a.akamaihd.net</text>
<rect x="180" y="62" width="181.45" height="22" fill="#4c78a8" rx="3"/>
<text x="369.45" y="78" class="value">77.15</text>
<text x="10" y="110" class="label">cdn.cloudflare.steamstatic.com</text>
<rect x="180" y="94" width="188.5" height="22" fill="#4c78a8" rx="3"/>
<text x="376.5" y="110" class="value">80.15</text>
<text x="10" y="142" class="label">steamcdn-a.akamaihd.net</text>
<rect x="180" y="126" width="230.53" height="22" fill="#4c78a8" rx="3"/>
<text x="418.53" y="142" class="value">98.02</text>
<text x="10" y="174" class="label">ubisoft.com</text>
<rect x="180" y="158" width="245.21" height="22" fill="#4c78a8" rx="3"/>
<text x="433.21000000000004" y="174" class="value">104.26</text>
<text x="10" y="206" class="label">store.akamai.steamstatic.com</text>
<rect x="180" y="190" width="251.11" height="22" fill="#4c78a8" rx="3"/>
<text x="439.11" y="206" class="value">106.77</text>
<text x="10" y="238" class="label">community.akamai.steamstatic.com</text>
<rect x="180" y="222" width="268.47" height="22" fill="#4c78a8" rx="3"/>
<text x="456.47" y="238" class="value">114.15</text>
<text x="10" y="270" class="label">cdn.akamai.steamstatic.com</text>
<rect x="180" y="254" width="294.06" height="22" fill="#4c78a8" rx="3"/>
<text x="482.06" y="270" class="value">125.03</text>
<text x="10" y="302" class="label">ea.com</text>
<rect x="180" y="286" width="389.94" height="22" fill="#4c78a8" rx="3"/>
<text x="577.94" y="302" class="value">165.80</text>
<text x="10" y="334" class="label">origin.com</text>
<rect x="180" y="318" width="448.65" height="22" fill="#4c78a8" rx="3"/>
<text x="636.65" y="334" class="value">190.76</text>
<text x="10" y="366" class="label">easyanticheat.net</text>
<rect x="180" y="350" width="484.02" height="22" fill="#4c78a8" rx="3"/>
<text x="672.02" y="366" class="value">205.80</text>
<text x="10" y="398" class="label">gog.com</text>
<rect x="180" y="382" width="536.3" height="22" fill="#4c78a8" rx="3"/>
<text x="724.3" y="398" class="value">228.03</text>
<text x="10" y="430" class="label">steam-chat.com</text>
<rect x="180" y="414" width="544.25" height="22" fill="#4c78a8" rx="3"/>
<text x="732.25" y="430" class="value">231.41</text>
<text x="10" y="462" class="label">steamcommunity.com</text>
<rect x="180" y="446" width="567.84" height="22" fill="#4c78a8" rx="3"/>
<text x="755.84" y="462" class="value">241.44</text>
<text x="10" y="494" class="label">api.steampowered.com</text>
<rect x="180" y="478" width="580.0" height="22" fill="#4c78a8" rx="3"/>
<text x="768.0" y="494" class="value">246.61</text>
<line x1="180" y1="30" x2="180" y2="520" stroke="#ccc"/>
<line x1="180" y1="520" x2="760" y2="520" stroke="#ccc"/>
</svg>