<svg xmlns="http://www.w3.org/2000/svg" width="800" height="540">
<style> .label{font-family:DejaVu Sans,Verdana,Geneva,sans-serif;font-size:12px;fill:#333} .value{font-family:DejaVu Sans,Verdana,Geneva,sans-serif;font-size:12px;fill:#555} </style>
<text x="10" y="20" class="label">延迟柱状图（越低越好，Top 15），单位 ms</text>
<text x="10" y="46" class="label">rockstargames.com</text>
<rect x="180" y="30" width="200.39" height="22" fill="#4c78a8" rx="3"/>
<text x="388.39" y="46" class="value">95.47</text>
<text x="10" y="78" class="label">community.akamai.steamstatic.com</text>
<rect x="180" y="62" width="315.67" height="22" fill="#4c78a8" rx="3"/>
<text x="503.67" y="78" class="value">150.39</text>
<text x="10" y="110" class="label">eaassets-a.akamaihd.net</text>
<rect x="180" y="94" width="323.23" height="22" fill="#4c78a8" rx="3"/>
<text x="511.23" y="110" class="value">153.99</text>
<text x="10" y="142" class="label">ubisoft.com</text>
<rect x="180" y="126" width="328.52" height="22" fill="#4c78a8" rx="3"/>
<text x="516.52" y="142" class="value">156.51</text>
<text x="10" y="174" class="label">store.akamai.steamstatic.com</text>
<rect x="180" y="158" width="368.23" height="22" fill="#4c78a8" rx="3"/>
<text x="556.23" y="174" class="value">175.43</text>
<text x="10" y="206" class="label">cdn.akamai.steamstatic.com</text>
<rect x="180" y="190" width="386.58" height="22" fill="#4c78a8" rx="3"/>
<text x="574.5799999999999" y="206" class="value">184.17</text>
<text x="10" y="238" class="label">easyanticheat.net</text>
<rect x="180" y="222" width="395.73" height="22" fill="#4c78a8" rx="3"/>
<text x="583.73" y="238" class="value">188.53</text>
<text x="10" y="270" class="label">ubi.com</text>
<rect x="180" y="254" width="443.77" height="22" fill="#4c78a8" rx="3"/>
<text x="631.77" y="270" class="value">211.42</text>
<text x="10" y="302" class="label">static3.cdn.ubi.com</text>
<rect x="180" y="286" width="449.17" height="22" fill="#4c78a8" rx="3"/>
<text x="637.1700000000001" y="302" class="value">213.99</text>
<text x="10" y="334" class="label">cdn.cloudflare.steamstatic.com</text>
<rect x="180" y="318" width="456.05" height="22" fill="#4c78a8" rx="3"/>
<text x="644.05" y="334" class="value">217.27</text>
<text x="10" y="366" class="label">battle.net</text>
<rect x="180" y="350" width="473.5" height="22" fill="#4c78a8" rx="3"/>
<text x="661.5" y="366" class="value">225.58</text>
<text x="10" y="398" class="label">blizzard.com</text>
<rect x="180" y="382" width="522.11" height="22" fill="#4c78a8" rx="3"/>
<text x="710.11" y="398" class="value">248.74</text>
<text x="10" y="430" class="label">ea.com</text>
<rect x="180" y="414" width="525.64" height="22" fill="#4c78a8" rx="3"/>
<text x="713.64" y="430" class="value">250.42</text>
<text x="10" y="462" class="label">gog.com</text>
<rect x="180" y="446" width="550.28" height="22" fill="#4c78a8" rx="3"/>
<text x="738.28" y="462" class="value">262.16</text>
<text x="10" y="494" class="label">socialclub.rockstargames.com</text>
<rect x="180" y="478" width="580.0" height="22" fill="#4c78a8" rx="3"/>
<text x="768.0" y="494" class="value">276.32</text>
<line x1="180" y1="30" x2="180" y2="520" stroke="#ccc"/>
<line x1="180" y1="520" x2="760" y2="520" stroke="#ccc"/>
</svg>