<svg xmlns="http://www.w3.org/2000/svg" width="800" height="540">
<style> .label{font-family:DejaVu Sans,Verdana,Geneva,sans-serif;font-size:12px;fill:#333} .value{font-family:DejaVu Sans,Verdana,Geneva,sans-serif;font-size:12px;fill:#555} </style>
<text x="10" y="20" class="label">延迟柱状图（越低越好，Top 15），单位 ms</text>
<text x="10" y="46" class="label">eaassets-a.akamaihd.net</text>
<rect x="180" y="30" width="190.83" height="22" fill="#4c78a8" rx="3"/>
<text x="378.83000000000004" y="46" class="value">67.19</text>
<text x="10" y="78" class="label">rockstargames.com</text>
<rect x="180" y="62" width="290.89" height="22" fill="#4c78a8" rx="3"/>
<text x="478.89" y="78" class="value">102.42</text>
<text x="10" y="110" class="label">steamcdn-a.akamaihd.net</text>
<rect x="180" y="94" width="330.2" height="22" fill="#4c78a8" rx="3"/>
<text x="518.2" y="110" class="value">116.26</text>
<text x="10" y="142" class="label">battle.net</text>
<rect x="180" y="126" width="381.9" height="22" fill="#4c78a8" rx="3"/>
<text x="569.9" y="142" class="value">134.46</text>
<text x="10" y="174" class="label">ubisoft.com</text>
<rect x="180" y="158" width="386.61" height="22" fill="#4c78a8" rx="3"/>
<text x="574.61" y="174" class="value">136.12</text>
<text x="10" y="206" class="label">blizzard.com</text>
<rect x="180" y="190" width="390.61" height="22" fill="#4c78a8" rx="3"/>
<text x="578.61" y="206" class="value">137.53</text>
<text x="10" y="238" class="label">socialclub.rockstargames.com</text>
<rect x="180" y="222" width="395.95" height="22" fill="#4c78a8" rx="3"/>
<text x="583.95" y="238" class="value">139.41</text>
<text x="10" y="270" class="label">ubi.com</text>
<rect x="180" y="254" width="403.11" height="22" fill="#4c78a8" rx="3"/>
<text x="591.11" y="270" class="value">141.93</text>
<text x="10" y="302" class="label">www.steamcommunity.com</text>
<rect x="180" y="286" width="439.24" height="22" fill="#4c78a8" rx="3"/>
<text x="627.24" y="302" class="value">154.65</text>
<text x="10" y="334" class="label">store.akamai.steamstatic.com</text>
<rect x="180" y="318" width="459.8" height="22" fill="#4c78a8" rx="3"/>
<text x="647.8" y="334" class="value">161.89</text>
<text x="10" y="366" class="label">easyanticheat.net</text>
<rect x="180" y="350" width="529.42" height="22" fill="#4c78a8" rx="3"/>
<text x="717.42" y="366" class="value">186.40</text>
<text x="10" y="398" class="label">cdn.akamai.steamstatic.com</text>
<rect x="180" y="382" width="549.13" height="22" fill="#4c78a8" rx="3"/>
<text x="737.13" y="398" class="value">193.34</text>
<text x="10" y="430" class="label">community.akamai.steamstatic.com</text>
<rect x="180" y="414" width="551.23" height="22" fill="#4c78a8" rx="3"/>
<text x="739.23" y="430" class="value">194.08</text>
<text x="10" y="462" class="label">fortnite.com</text>
<rect x="180" y="446" width="558.16" height="22" fill="#4c78a8" rx="3"/>
<text x="746.16" y="462" class="value">196.52</text>
<text x="10" y="494" class="label">cdn.cloudflare.steamstatic.com</text>
<rect x="180" y="478" width="580.0" height="22" fill="#4c78a8" rx="3"/>
<text x="768.0" y="494" class="value">204.21</text>
<line x1="180" y1="30" x2="180" y2="520" stroke="#ccc"/>
<line x1="180" y1="520" x2="760" y2="520" stroke="#ccc"/>
</svg>