<svg xmlns="http://www.w3.org/2000/svg" width="800" height="540">
<style> .label{font-family:DejaVu Sans,Verdana,Geneva,sans-serif;font-size:12px;fill:#333} .value{font-family:DejaVu Sans,Verdana,Geneva,sans-serif;font-size:12px;fill:#555} </style>
<text x="10" y="20" class="label">延迟柱状图（越低越好，Top 15），单位 ms</text>
<text x="10" y="46" class="label">eaassets-a.akamaihd.net</text>
<rect x="180" y="30" width="91.78" height="22" fill="#4c78a8" rx="3"/>
<text x="279.78" y="46" class="value">41.86</text>
<text x="10" y="78" class="label">ea.com</text>
<rect x="180" y="62" width="114.36" height="22" fill="#4c78a8" rx="3"/>
<text x="302.36" y="78" class="value">52.16</text>
<text x="10" y="110" class="label">cdn.cloudflare.steamstatic.com</text>
<rect x="180" y="94" width="133.48" height="22" fill="#4c78a8" rx="3"/>
<text x="321.48" y="110" class="value">60.88</text>
<text x="10" y="142" class="label">rockstargames.com</text>
<rect x="180" y="126" width="153.17" height="22" fill="#4c78a8" rx="3"/>
<text x="341.16999999999996" y="142" class="value">69.86</text>
<text x="10" y="174" class="label">store.akamai.steamstatic.com</text>
<rect x="180" y="158" width="263.47" height="22" fill="#4c78a8" rx="3"/>
<text x="451.47" y="174" class="value">120.17</text>
<text x="10" y="206" class="label">steamcdn-a.akamaihd.net</text>
<rect x="180" y="190" width="264.22" height="22" fill="#4c78a8" rx="3"/>
<text x="452.22" y="206" class="value">120.51</text>
<text x="10" y="238" class="label">easyanticheat.net</text>
<rect x="180" y="222" width="368.18" height="22" fill="#4c78a8" rx="3"/>
<text x="556.1800000000001" y="238" class="value">167.93</text>
<text x="10" y="270" class="label">community.akamai.steamstatic.com</text>
<rect x="180" y="254" width="384.43" height="22" fill="#4c78a8" rx="3"/>
<text x="572.4300000000001" y="270" class="value">175.34</text>
<text x="10" y="302" class="label">cdn.akamai.steamstatic.com</text>
<rect x="180" y="286" width="386.27" height="22" fill="#4c78a8" rx="3"/>
<text x="574.27" y="302" class="value">176.18</text>
<text x="10" y="334" class="label">origin.com</text>
<rect x="180" y="318" width="405.08" height="22" fill="#4c78a8" rx="3"/>
<text x="593.0799999999999" y="334" class="value">184.76</text>
<text x="10" y="366" class="label">api.steampowered.com</text>
<rect x="180" y="350" width="410.5" height="22" fill="#4c78a8" rx="3"/>
<text x="598.5" y="366" class="value">187.23</text>
<text x="10" y="398" class="label">www.steamcommunity.com</text>
<rect x="180" y="382" width="441.9" height="22" fill="#4c78a8" rx="3"/>
<text x="629.9" y="398" class="value">201.55</text>
<text x="10" y="430" class="label">steam-chat.com</text>
<rect x="180" y="414" width="466.87" height="22" fill="#4c78a8" rx="3"/>
<text x="654.87" y="430" class="value">212.94</text>
<text x="10" y="462" class="label">ubisoft.com</text>
<rect x="180" y="446" width="556.56" height="22" fill="#4c78a8" rx="3"/>
<text x="744.56" y="462" class="value">253.85</text>
<text x="10" y="494" class="label">launcher-public-service-prod06.ol.epicgames.com</text>
<rect x="180" y="478" width="580.0" height="22" fill="#4c78a8" rx="3"/>
<text x="768.0" y="494" class="value">264.54</text>
<line x1="180" y1="30" x2="180" y2="520" stroke="#ccc"/>
<line x1="180" y1="520" x2="760" y2="520" stroke="#ccc"/>
</svg>