<svg xmlns="http://www.w3.org/2000/svg" width="800" height="540">
<style> .label{font-family:DejaVu Sans,Verdana,Geneva,sans-serif;font-size:12px;fill:#333} .value{font-family:DejaVu Sans,Verdana,Geneva,sans-serif;font-size:12px;fill:#555} </style>
<text x="10" y="20" class="label">延迟柱状图（越低越好，Top 15），单位 ms</text>
<text x="10" y="46" class="label">eaassets-a.akamaihd.net</text>
<rect x="180" y="30" width="203.96" height="22" fill="#4c78a8" rx="3"/>
<text x="391.96000000000004" y="46" class="value">80.41</text>
<text x="10" y="78" class="label">rockstargames.com</text>
<rect x="180" y="62" width="253.25" height="22" fill="#4c78a8" rx="3"/>
<text x="441.25" y="78" class="value">99.84</text>
<text x="10" y="110" class="label">origin.com</text>
<rect x="180" y="94" width="310.62" height="22" fill="#4c78a8" rx="3"/>
<text x="498.62" y="110" class="value">122.46</text>
<text x="10" y="142" class="label">store.akamai.steamstatic.com</text>
<rect x="180" y="126" width="383.95" height="22" fill="#4c78a8" rx="3"/>
<text x="571.95" y="142" class="value">151.37</text>
<text x="10" y="174" class="label">blizzard.com</text>
<rect x="180" y="158" width="401.05" height="22" fill="#4c78a8" rx="3"/>
<text x="589.05" y="174" class="value">158.11</text>
<text x="10" y="206" class="label">ubisoft.com</text>
<rect x="180" y="190" width="418.45" height="22" fill="#4c78a8" rx="3"/>
<text x="606.45" y="206" class="value">164.97</text>
<text x="10" y="238" class="label">community.akamai.steamstatic.com</text>
<rect x="180" y="222" width="438.51" height="22" fill="#4c78a8" rx="3"/>
<text x="626.51" y="238" class="value">172.88</text>
<text x="10" y="270" class="label">battle.net</text>
<rect x="180" y="254" width="460.94" height="22" fill="#4c78a8" rx="3"/>
<text x="648.94" y="270" class="value">181.72</text>
<text x="10" y="302" class="label">ubi.com</text>
<rect x="180" y="286" width="476.36" height="22" fill="#4c78a8" rx="3"/>
<text x="664.36" y="302" class="value">187.80</text>
<text x="10" y="334" class="label">api.steampowered.com</text>
<rect x="180" y="318" width="481.94" height="22" fill="#4c78a8" rx="3"/>
<text x="669.94" y="334" class="value">190.00</text>
<text x="10" y="366" class="label">steamcdn-a.akamaihd.net</text>
<rect x="180" y="350" width="483.28" height="22" fill="#4c78a8" rx="3"/>
<text x="671.28" y="366" class="value">190.53</text>
<text x="10" y="398" class="label">easyanticheat.net</text>
<rect x="180" y="382" width="497.13" height="22" fill="#4c78a8" rx="3"/>
<text x="685.13" y="398" class="value">195.99</text>
<text x="10" y="430" class="label">ea.com</text>
<rect x="180" y="414" width="518.84" height="22" fill="#4c78a8" rx="3"/>
<text x="706.84" y="430" class="value">204.55</text>
<text x="10" y="462" class="label">epicgames.com</text>
<rect x="180" y="446" width="560.14" height="22" fill="#4c78a8" rx="3"/>
<text x="748.14" y="462" class="value">220.83</text>
<text x="10" y="494" class="label">steam-chat.com</text>
<rect x="180" y="478" width="580.0" height="22" fill="#4c78a8" rx="3"/>
<text x="768.0" y="494" class="value">228.66</text>
<line x1="180" y1="30" x2="180" y2="520" stroke="#ccc"/>
<line x1="180" y1="520" x2="760" y2="520" stroke="#ccc"/>
</svg>