<svg xmlns="http://www.w3.org/2000/svg" width="800" height="540">
<style> .label{font-family:DejaVu Sans,Verdana,Geneva,sans-serif;font-size:12px;fill:#333} .value{font-family:DejaVu Sans,Verdana,Geneva,sans-serif;font-size:12px;fill:#555} </style>
<text x="10" y="20" class="label">延迟柱状图（越低越好，Top 15），单位 ms</text>
<text x="10" y="46" class="label">rockstargames.com</text>
<rect x="180" y="30" width="103.94" height="22" fill="#4c78a8" rx="3"/>
<text x="291.94" y="46" class="value">46.51</text>
<text x="10" y="78" class="label">steamcdn-a.akamaihd.net</text>
<rect x="180" y="62" width="189.81" height="22" fill="#4c78a8" rx="3"/>
<text x="377.81" y="78" class="value">84.93</text>
<text x="10" y="110" class="label">ea.com</text>
<rect x="180" y="94" width="234.66" height="22" fill="#4c78a8" rx="3"/>
<text x="422.65999999999997" y="110" class="value">105.00</text>
<text x="10" y="142" class="label">ubisoft.com</text>
<rect x="180" y="126" width="272.95" height="22" fill="#4c78a8" rx="3"/>
<text x="460.95" y="142" class="value">122.13</text>
<text x="10" y="174" class="label">cdn.akamai.steamstatic.com</text>
<rect x="180" y="158" width="275.79" height="22" fill="#4c78a8" rx="3"/>
<text x="463.79" y="174" class="value">123.40</text>
<text x="10" y="206" class="label">community.akamai.steamstatic.com</text>
<rect x="180" y="190" width="320.31" height="22" fill="#4c78a8" rx="3"/>
<text x="508.31" y="206" class="value">143.32</text>
<text x="10" y="238" class="label">eaassets-a.akamaihd.net</text>
<rect x="180" y="222" width="322.65" height="22" fill="#4c78a8" rx="3"/>
<text x="510.65" y="238" class="value">144.37</text>
<text x="10" y="270" class="label">static3.cdn.ubi.com</text>
<rect x="180" y="254" width="337.72" height="22" fill="#4c78a8" rx="3"/>
<text x="525.72" y="270" class="value">151.11</text>
<text x="10" y="302" class="label">store.akamai.steamstatic.com</text>
<rect x="180" y="286" width="339.41" height="22" fill="#4c78a8" rx="3"/>
<text x="527.4100000000001" y="302" class="value">151.87</text>
<text x="10" y="334" class="label">cdn.cloudflare.steamstatic.com</text>
<rect x="180" y="318" width="410.06" height="22" fill="#4c78a8" rx="3"/>
<text x="598.06" y="334" class="value">183.48</text>
<text x="10" y="366" class="label">gog.com</text>
<rect x="180" y="350" width="448.1" height="22" fill="#4c78a8" rx="3"/>
<text x="636.1" y="366" class="value">200.50</text>
<text x="10" y="398" class="label">api.steampowered.com</text>
<rect x="180" y="382" width="451.76" height="22" fill="#4c78a8" rx="3"/>
<text x="639.76" y="398" class="value">202.14</text>
<text x="10" y="430" class="label">easyanticheat.net</text>
<rect x="180" y="414" width="465.48" height="22" fill="#4c78a8" rx="3"/>
<text x="653.48" y="430" class="value">208.28</text>
<text x="10" y="462" class="label">origin.com</text>
<rect x="180" y="446" width="475.74" height="22" fill="#4c78a8" rx="3"/>
<text x="663.74" y="462" class="value">212.87</text>
<text x="10" y="494" class="label">steam-chat.com</text>
<rect x="180" y="478" width="580.0" height="22" fill="#4c78a8" rx="3"/>
<text x="768.0" y="494" class="value">259.52</text>
<line x1="180" y1="30" x2="180" y2="520" stroke="#ccc"/>
<line x1="180" y1="520" x2="760" y2="520" stroke="#ccc"/>
</svg>