<svg xmlns="http://www.w3.org/2000/svg" width="800" height="540">
<style> .label{font-family:DejaVu Sans,Verdana,Geneva,sans-serif;font-size:12px;fill:#333} .value{font-family:DejaVu Sans,Verdana,Geneva,sans-serif;font-size:12px;fill:#555} </style>
<text x="10" y="20" class="label">延迟柱状图（越低越好，Top 15），单位 ms</text>
<text x="10" y="46" class="label">rockstargames.com</text>
<rect x="180" y="30" width="90.81" height="22" fill="#4c78a8" rx="3"/>
<text x="278.81" y="46" class="value">42.79</text>
<text x="10" y="78" class="label">ea.com</text>
<rect x="180" y="62" width="96.85" height="22" fill="#4c78a8" rx="3"/>
<text x="284.85" y="78" class="value">45.64</text>
<text x="10" y="110" class="label">cdn.akamai.steamstatic.com</text>
<rect x="180" y="94" width="213.49" height="22" fill="#4c78a8" rx="3"/>
<text x="401.49" y="110" class="value">100.60</text>
<text x="10" y="142" class="label">store.akamai.steamstatic.com</text>
<rect x="180" y="126" width="222.76" height="22" fill="#4c78a8" rx="3"/>
<text x="410.76" y="142" class="value">104.97</text>
<text x="10" y="174" class="label">community.akamai.steamstatic.com</text>
<rect x="180" y="158" width="222.76" height="22" fill="#4c78a8" rx="3"/>
<text x="410.76" y="174" class="value">104.97</text>
<text x="10" y="206" class="label">eaassets-a.akamaihd.net</text>
<rect x="180" y="190" width="234.26" height="22" fill="#4c78a8" rx="3"/>
<text x="422.26" y="206" class="value">110.39</text>
<text x="10" y="238" class="label">origin.com</text>
<rect x="180" y="222" width="265.92" height="22" fill="#4c78a8" rx="3"/>
<text x="453.92" y="238" class="value">125.31</text>
<text x="10" y="270" class="label">cdn.cloudflare.steamstatic.com</text>
<rect x="180" y="254" width="284.2" height="22" fill="#4c78a8" rx="3"/>
<text x="472.2" y="270" class="value">133.92</text>
<text x="10" y="302" class="label">easyanticheat.net</text>
<rect x="180" y="286" width="376.51" height="22" fill="#4c78a8" rx="3"/>
<text x="564.51" y="302" class="value">177.42</text>
<text x="10" y="334" class="label">steamcdn-a.akamaihd.net</text>
<rect x="180" y="318" width="403.04" height="22" fill="#4c78a8" rx="3"/>
<text x="591.04" y="334" class="value">189.92</text>
<text x="10" y="366" class="label">api.steampowered.com</text>
<rect x="180" y="350" width="494.35" height="22" fill="#4c78a8" rx="3"/>
<text x="682.35" y="366" class="value">232.95</text>
<text x="10" y="398" class="label">steam-chat.com</text>
<rect x="180" y="382" width="537.45" height="22" fill="#4c78a8" rx="3"/>
<text x="725.45" y="398" class="value">253.26</text>
<text x="10" y="430" class="label">ubisoft.com</text>
<rect x="180" y="414" width="538.51" height="22" fill="#4c78a8" rx="3"/>
<text x="726.51" y="430" class="value">253.76</text>
<text x="10" y="462" class="label">launcher-public-service-prod06.ol.epicgames.com</text>
<rect x="180" y="446" width="549.87" height="22" fill="#4c78a8" rx="3"/>
<text x="737.87" y="462" class="value">259.11</text>
<text x="10" y="494" class="label">www.steamcommunity.com</text>
<rect x="180" y="478" width="580.0" height="22" fill="#4c78a8" rx="3"/>
<text x="768.0" y="494" class="value">273.31</text>
<line x1="180" y1="30" x2="180" y2="520" stroke="#ccc"/>
<line x1="180" y1="520" x2="760" y2="520" stroke="#ccc"/>
</svg>