<svg xmlns="http://www.w3.org/2000/svg" width="800" height="540">
<style> .label{font-family:DejaVu Sans,Verdana,Geneva,sans-serif;font-size:12px;fill:#333} .value{font-family:DejaVu Sans,Verdana,Geneva,sans-serif;font-size:12px;fill:#555} </style>
<text x="10" y="20" class="label">延迟柱状图（越低越好，Top 15），单位 ms</text>
<text x="10" y="46" class="label">eaassets-a.akamaihd.net</text>
<rect x="180" y="30" width="124.96" height="22" fill="#4c78a8" rx="3"/>
<text x="312.96" y="46" class="value">45.95</text>
<text x="10" y="78" class="label">rockstargames.com</text>
<rect x="180" y="62" width="152.15" height="22" fill="#4c78a8" rx="3"/>
<text x="340.15" y="78" class="value">55.95</text>
<text x="10" y="110" class="label">socialclub.rockstargames.com</text>
<rect x="180" y="94" width="173.31" height="22" fill="#4c78a8" rx="3"/>
<text x="361.31" y="110" class="value">63.73</text>
<text x="10" y="142" class="label">blizzard.com</text>
<rect x="180" y="126" width="173.93" height="22" fill="#4c78a8" rx="3"/>
<text x="361.93" y="142" class="value">63.96</text>
<text x="10" y="174" class="label">ubi.com</text>
<rect x="180" y="158" width="208.96" height="22" fill="#4c78a8" rx="3"/>
<text x="396.96000000000004" y="174" class="value">76.84</text>
<text x="10" y="206" class="label">cdn.cloudflare.steamstatic.com</text>
<rect x="180" y="190" width="255.93" height="22" fill="#4c78a8" rx="3"/>
<text x="443.93" y="206" class="value">94.11</text>
<text x="10" y="238" class="label">ubisoft.com</text>
<rect x="180" y="222" width="274.61" height="22" fill="#4c78a8" rx="3"/>
<text x="462.61" y="238" class="value">100.98</text>
<text x="10" y="270" class="label">origin.com</text>
<rect x="180" y="254" width="319.59" height="22" fill="#4c78a8" rx="3"/>
<text x="507.59" y="270" class="value">117.52</text>
<text x="10" y="302" class="label">store.akamai.steamstatic.com</text>
<rect x="180" y="286" width="429.37" height="22" fill="#4c78a8" rx="3"/>
<text x="617.37" y="302" class="value">157.89</text>
<text x="10" y="334" class="label">fortnite.com</text>
<rect x="180" y="318" width="459.2" height="22" fill="#4c78a8" rx="3"/>
<text x="647.2" y="334" class="value">168.86</text>
<text x="10" y="366" class="label">steamcdn-a.akamaihd.net</text>
<rect x="180" y="350" width="465.84" height="22" fill="#4c78a8" rx="3"/>
<text x="653.8399999999999" y="366" class="value">171.30</text>
<text x="10" y="398" class="label">epicgames.com</text>
<rect x="180" y="382" width="469.35" height="22" fill="#4c78a8" rx="3"/>
<text x="657.35" y="398" class="value">172.59</text>
<text x="10" y="430" class="label">community.akamai.steamstatic.com</text>
<rect x="180" y="414" width="487.62" height="22" fill="#4c78a8" rx="3"/>
<text x="675.62" y="430" class="value">179.31</text>
<text x="10" y="462" class="label">unrealengine.com</text>
<rect x="180" y="446" width="508.89" height="22" fill="#4c78a8" rx="3"/>
<text x="696.89" y="462" class="value">187.13</text>
<text x="10" y="494" class="label">steamcommunity.com</text>
<rect x="180" y="478" width="580.0" height="22" fill="#4c78a8" rx="3"/>
<text x="768.0" y="494" class="value">213.28</text>
<line x1="180" y1="30" x2="180" y2="520" stroke="#ccc"/>
<line x1="180" y1="520" x2="760" y2="520" stroke="#ccc"/>
</svg>