<svg xmlns="http://www.w3.org/2000/svg" width="800" height="540">
<style> .label{font-family:DejaVu Sans,Verdana,Geneva,sans-serif;font-size:12px;fill:#333} .value{font-family:DejaVu Sans,Verdana,Geneva,sans-serif;font-size:12px;fill:#555} </style>
<text x="10" y="20" class="label">延迟柱状图（越低越好，Top 15），单位 ms</text>
<text x="10" y="46" class="label">rockstargames.com</text>
<rect x="180" y="30" width="308.5" height="22" fill="#4c78a8" rx="3"/>
<text x="496.5" y="46" class="value">115.41</text>
<text x="10" y="78" class="label">cdn.akamai.steamstatic.com</text>
<rect x="180" y="62" width="334.29" height="22" fill="#4c78a8" rx="3"/>
<text x="522.29" y="78" class="value">125.06</text>
<text x="10" y="110" class="label">eaassets-a.akamaihd.net</text>
<rect x="180" y="94" width="386.52" height="22" fill="#4c78a8" rx="3"/>
<text x="574.52" y="110" class="value">144.60</text>
<text x="10" y="142" class="label">ubisoft.com</text>
<rect x="180" y="126" width="388.9" height="22" fill="#4c78a8" rx="3"/>
<text x="576.9" y="142" class="value">145.49</text>
<text x="10" y="174" class="label">steamcdn-a.akamaihd.net</text>
<rect x="180" y="158" width="407.08" height="22" fill="#4c78a8" rx="3"/>
<text x="595.0799999999999" y="174" class="value">152.29</text>
<text x="10" y="206" class="label">ea.com</text>
<rect x="180" y="190" width="419.54" height="22" fill="#4c78a8" rx="3"/>
<text x="607.54" y="206" class="value">156.95</text>
<text x="10" y="238" class="label">blizzard.com</text>
<rect x="180" y="222" width="439.5" height="22" fill="#4c78a8" rx="3"/>
<text x="627.5" y="238" class="value">164.42</text>
<text x="10" y="270" class="label">battle.net</text>
<rect x="180" y="254" width="451.8" height="22" fill="#4c78a8" rx="3"/>
<text x="639.8" y="270" class="value">169.02</text>
<text x="10" y="302" class="label">ubi.com</text>
<rect x="180" y="286" width="459.53" height="22" fill="#4c78a8" rx="3"/>
<text x="647.53" y="302" class="value">171.91</text>
<text x="10" y="334" class="label">easyanticheat.net</text>
<rect x="180" y="318" width="466.61" height="22" fill="#4c78a8" rx="3"/>
<text x="654.61" y="334" class="value">174.56</text>
<text x="10" y="366" class="label">static3.cdn.ubi.com</text>
<rect x="180" y="350" width="511.6" height="22" fill="#4c78a8" rx="3"/>
<text x="699.6" y="366" class="value">191.39</text>
<text x="10" y="398" class="label">launcher-public-service-prod06.ol.epicgames.com</text>
<rect x="180" y="382" width="531.51" height="22" fill="#4c78a8" rx="3"/>
<text x="719.51" y="398" class="value">198.84</text>
<text x="10" y="430" class="label">socialclub.rockstargames.com</text>
<rect x="180" y="414" width="561.26" height="22" fill="#4c78a8" rx="3"/>
<text x="749.26" y="430" class="value">209.97</text>
<text x="10" y="462" class="label">steamcommunity.com</text>
<rect x="180" y="446" width="578.8" height="22" fill="#4c78a8" rx="3"/>
<text x="766.8" y="462" class="value">216.53</text>
<text x="10" y="494" class="label">www.steamcommunity.com</text>
<rect x="180" y="478" width="580.0" height="22" fill="#4c78a8" rx="3"/>
<text x="768.0" y="494" class="value">216.98</text>
<line x1="180" y1="30" x2="180" y2="520" stroke="#ccc"/>
<line x1="180" y1="520" x2="760" y2="520" stroke="#ccc"/>
</svg>