<svg xmlns="http://www.w3.org/2000/svg" width="800" height="540">
<style> .label{font-family:DejaVu Sans,Verdana,Geneva,sans-serif;font-size:12px;fill:#333} .value{font-family:DejaVu Sans,Verdana,Geneva,sans-serif;font-size:12px;fill:#555} </style>
<text x="10" y="20" class="label">延迟柱状图（越低越好，Top 15），单位 ms</text>
<text x="10" y="46" class="label">eaassets-a.akamaihd.net</text>
<rect x="180" y="30" width="153.62" height="22" fill="#4c78a8" rx="3"/>
<text x="341.62" y="46" class="value">56.53</text>
<text x="10" y="78" class="label">rockstargames.com</text>
<rect x="180" y="62" width="207.27" height="22" fill="#4c78a8" rx="3"/>
<text x="395.27" y="78" class="value">76.27</text>
<text x="10" y="110" class="label">socialclub.rockstargames.com</text>
<rect x="180" y="94" width="225.85" height="22" fill="#4c78a8" rx="3"/>
<text x="413.85" y="110" class="value">83.11</text>
<text x="10" y="142" class="label">epicgames.com</text>
<rect x="180" y="126" width="257.4" height="22" fill="#4c78a8" rx="3"/>
<text x="445.4" y="142" class="value">94.72</text>
<text x="10" y="174" class="label">blizzard.com</text>
<rect x="180" y="158" width="271.05" height="22" fill="#4c78a8" rx="3"/>
<text x="459.05" y="174" class="value">99.74</text>
<text x="10" y="206" class="label">ubi.com</text>
<rect x="180" y="190" width="329.74" height="22" fill="#4c78a8" rx="3"/>
<text x="517.74" y="206" class="value">121.34</text>
<text x="10" y="238" class="label">ubisoft.com</text>
<rect x="180" y="222" width="330.64" height="22" fill="#4c78a8" rx="3"/>
<text x="518.64" y="238" class="value">121.67</text>
<text x="10" y="270" class="label">ea.com</text>
<rect x="180" y="254" width="334.61" height="22" fill="#4c78a8" rx="3"/>
<text x="522.61" y="270" class="value">123.13</text>
<text x="10" y="302" class="label">battle.net</text>
<rect x="180" y="286" width="374.18" height="22" fill="#4c78a8" rx="3"/>
<text x="562.1800000000001" y="302" class="value">137.69</text>
<text x="10" y="334" class="label">cdn.cloudflare.steamstatic.com</text>
<rect x="180" y="318" width="452.55" height="22" fill="#4c78a8" rx="3"/>
<text x="640.55" y="334" class="value">166.53</text>
<text x="10" y="366" class="label">launcher-public-service-prod06.ol.epicgames.com</text>
<rect x="180" y="350" width="531.44" height="22" fill="#4c78a8" rx="3"/>
<text x="719.44" y="366" class="value">195.56</text>
<text x="10" y="398" class="label">unrealengine.com</text>
<rect x="180" y="382" width="532.63" height="22" fill="#4c78a8" rx="3"/>
<text x="720.63" y="398" class="value">196.00</text>
<text x="10" y="430" class="label">fortnite.com</text>
<rect x="180" y="414" width="534.56" height="22" fill="#4c78a8" rx="3"/>
<text x="722.56" y="430" class="value">196.71</text>
<text x="10" y="462" class="label">cdn.akamai.steamstatic.com</text>
<rect x="180" y="446" width="575.05" height="22" fill="#4c78a8" rx="3"/>
<text x="763.05" y="462" class="value">211.61</text>
<text x="10" y="494" class="label">steamcdn-a.akamaihd.net</text>
<rect x="180" y="478" width="580.0" height="22" fill="#4c78a8" rx="3"/>
<text x="768.0" y="494" class="value">213.43</text>
<line x1="180" y1="30" x2="180" y2="520" stroke="#ccc"/>
<line x1="180" y1="520" x2="760" y2="520" stroke="#ccc"/>
</svg>