<svg xmlns="http://www.w3.org/2000/svg" width="800" height="540">
<style> .label{font-family:DejaVu Sans,Verdana,Geneva,sans-serif;font-size:12px;fill:#333} .value{font-family:DejaVu Sans,Verdana,Geneva,sans-serif;font-size:12px;fill:#555} </style>
<text x="10" y="20" class="label">延迟柱状图（越低越好，Top 15），单位 ms</text>
<text x="10" y="46" class="label">community.akamai.steamstatic.com</text>
<rect x="180" y="30" width="219.4" height="22" fill="#4c78a8" rx="3"/>
<text x="407.4" y="46" class="value">95.64</text>
<text x="10" y="78" class="label">eaassets-a.akamaihd.net</text>
<rect x="180" y="62" width="246.56" height="22" fill="#4c78a8" rx="3"/>
<text x="434.56" y="78" class="value">107.48</text>
<text x="10" y="110" class="label">rockstargames.com</text>
<rect x="180" y="94" width="249.06" height="22" fill="#4c78a8" rx="3"/>
<text x="437.06" y="110" class="value">108.57</text>
<text x="10" y="142" class="label">ubisoft.com</text>
<rect x="180" y="126" width="320.89" height="22" fill="#4c78a8" rx="3"/>
<text x="508.89" y="142" class="value">139.88</text>
<text x="10" y="174" class="label">socialclub.rockstargames.com</text>
<rect x="180" y="158" width="362.07" height="22" fill="#4c78a8" rx="3"/>
<text x="550.0699999999999" y="174" class="value">157.83</text>
<text x="10" y="206" class="label">blizzard.com</text>
<rect x="180" y="190" width="399.21" height="22" fill="#4c78a8" rx="3"/>
<text x="587.21" y="206" class="value">174.02</text>
<text x="10" y="238" class="label">battle.net</text>
<rect x="180" y="222" width="408.73" height="22" fill="#4c78a8" rx="3"/>
<text x="596.73" y="238" class="value">178.17</text>
<text x="10" y="270" class="label">steamcdn-a.akamaihd.net</text>
<rect x="180" y="254" width="426.71" height="22" fill="#4c78a8" rx="3"/>
<text x="614.71" y="270" class="value">186.01</text>
<text x="10" y="302" class="label">ea.com</text>
<rect x="180" y="286" width="433.2" height="22" fill="#4c78a8" rx="3"/>
<text x="621.2" y="302" class="value">188.84</text>
<text x="10" y="334" class="label">static3.cdn.ubi.com</text>
<rect x="180" y="318" width="438.44" height="22" fill="#4c78a8" rx="3"/>
<text x="626.44" y="334" class="value">191.12</text>
<text x="10" y="366" class="label">ubi.com</text>
<rect x="180" y="350" width="490.26" height="22" fill="#4c78a8" rx="3"/>
<text x="678.26" y="366" class="value">213.71</text>
<text x="10" y="398" class="label">cdn.cloudflare.steamstatic.com</text>
<rect x="180" y="382" width="493.42" height="22" fill="#4c78a8" rx="3"/>
<text x="681.4200000000001" y="398" class="value">215.09</text>
<text x="10" y="430" class="label">easyanticheat.net</text>
<rect x="180" y="414" width="525.61" height="22" fill="#4c78a8" rx="3"/>
<text x="713.61" y="430" class="value">229.12</text>
<text x="10" y="462" class="label">origin.com</text>
<rect x="180" y="446" width="570.27" height="22" fill="#4c78a8" rx="3"/>
<text x="758.27" y="462" class="value">248.59</text>
<text x="10" y="494" class="label">store.akamai.steamstatic.com</text>
<rect x="180" y="478" width="580.0" height="22" fill="#4c78a8" rx="3"/>
<text x="768.0" y="494" class="value">252.83</text>
<line x1="180" y1="30" x2="180" y2="520" stroke="#ccc"/>
<line x1="180" y1="520" x2="760" y2="520" stroke="#ccc"/>
</svg>