<svg xmlns="http://www.w3.org/2000/svg" width="800" height="540">
<style> .label{font-family:DejaVu Sans,Verdana,Geneva,sans-serif;font-size:12px;fill:#333} .value{font-family:DejaVu Sans,Verdana,Geneva,sans-serif;font-size:12px;fill:#555} </style>
<text x="10" y="20" class="label">延迟柱状图（越低越好，Top 15），单位 ms</text>
<text x="10" y="46" class="label">rockstargames.com</text>
<rect x="180" y="30" width="163.91" height="22" fill="#4c78a8" rx="3"/>
<text x="351.90999999999997" y="46" class="value">54.93</text>
<text x="10" y="78" class="label">ubi.com</text>
<rect x="180" y="62" width="212.46" height="22" fill="#4c78a8" rx="3"/>
<text x="400.46000000000004" y="78" class="value">71.20</text>
<text x="10" y="110" class="label">eaassets-a.akamaihd.net</text>
<rect x="180" y="94" width="260.86" height="22" fill="#4c78a8" rx="3"/>
<text x="448.86" y="110" class="value">87.42</text>
<text x="10" y="142" class="label">blizzard.com</text>
<rect x="180" y="126" width="268.05" height="22" fill="#4c78a8" rx="3"/>
<text x="456.05" y="142" class="value">89.83</text>
<text x="10" y="174" class="label">ubisoft.com</text>
<rect x="180" y="158" width="307.74" height="22" fill="#4c78a8" rx="3"/>
<text x="495.74" y="174" class="value">103.13</text>
<text x="10" y="206" class="label">socialclub.rockstargames.com</text>
<rect x="180" y="190" width="320.18" height="22" fill="#4c78a8" rx="3"/>
<text x="508.18" y="206" class="value">107.30</text>
<text x="10" y="238" class="label">ea.com</text>
<rect x="180" y="222" width="342.8" height="22" fill="#4c78a8" rx="3"/>
<text x="530.8" y="238" class="value">114.88</text>
<text x="10" y="270" class="label">static3.cdn.ubi.com</text>
<rect x="180" y="254" width="429.82" height="22" fill="#4c78a8" rx="3"/>
<text x="617.8199999999999" y="270" class="value">144.04</text>
<text x="10" y="302" class="label">store.akamai.steamstatic.com</text>
<rect x="180" y="286" width="471.29" height="22" fill="#4c78a8" rx="3"/>
<text x="659.29" y="302" class="value">157.94</text>
<text x="10" y="334" class="label">fortnite.com</text>
<rect x="180" y="318" width="475.62" height="22" fill="#4c78a8" rx="3"/>
<text x="663.62" y="334" class="value">159.39</text>
<text x="10" y="366" class="label">community.akamai.steamstatic.com</text>
<rect x="180" y="350" width="526.85" height="22" fill="#4c78a8" rx="3"/>
<text x="714.85" y="366" class="value">176.56</text>
<text x="10" y="398" class="label">origin.com</text>
<rect x="180" y="382" width="531.81" height="22" fill="#4c78a8" rx="3"/>
<text x="719.81" y="398" class="value">178.22</text>
<text x="10" y="430" class="label">unrealengine.com</text>
<rect x="180" y="414" width="536.7" height="22" fill="#4c78a8" rx="3"/>
<text x="724.7" y="430" class="value">179.86</text>
<text x="10" y="462" class="label">cdn.akamai.steamstatic.com</text>
<rect x="180" y="446" width="568.84" height="22" fill="#4c78a8" rx="3"/>
<text x="756.84" y="462" class="value">190.63</text>
<text x="10" y="494" class="label">epicgames.com</text>
<rect x="180" y="478" width="580.0" height="22" fill="#4c78a8" rx="3"/>
<text x="768.0" y="494" class="value">194.37</text>
<line x1="180" y1="30" x2="180" y2="520" stroke="#ccc"/>
<line x1="180" y1="520" x2="760" y2="520" stroke="#ccc"/>
</svg>