<svg xmlns="http://www.w3.org/2000/svg" width="800" height="540">
<style> .label{font-family:DejaVu Sans,Verdana,Geneva,sans-serif;font-size:12px;fill:#333} .value{font-family:DejaVu Sans,Verdana,Geneva,sans-serif;font-size:12px;fill:#555} </style>
<text x="10" y="20" class="label">延迟柱状图（越低越好，Top 15），单位 ms</text>
<text x="10" y="46" class="label">eaassets-a.akamaihd.net</text>
<rect x="180" y="30" width="175.56" height="22" fill="#4c78a8" rx="3"/>
<text x="363.56" y="46" class="value">80.10</text>
<text x="10" y="78" class="label">store.akamai.steamstatic.com</text>
<rect x="180" y="62" width="233.51" height="22" fill="#4c78a8" rx="3"/>
<text x="421.51" y="78" class="value">106.54</text>
<text x="10" y="110" class="label">ubisoft.com</text>
<rect x="180" y="94" width="237.67" height="22" fill="#4c78a8" rx="3"/>
<text x="425.66999999999996" y="110" class="value">108.44</text>
<text x="10" y="142" class="label">steamcdn-a.akamaihd.net</text>
<rect x="180" y="126" width="264.26" height="22" fill="#4c78a8" rx="3"/>
<text x="452.26" y="142" class="value">120.57</text>
<text x="10" y="174" class="label">rockstargames.com</text>
<rect x="180" y="158" width="309.61" height="22" fill="#4c78a8" rx="3"/>
<text x="497.61" y="174" class="value">141.26</text>
<text x="10" y="206" class="label">origin.com</text>
<rect x="180" y="190" width="311.38" height="22" fill="#4c78a8" rx="3"/>
<text x="499.38" y="206" class="value">142.07</text>
<text x="10" y="238" class="label">ea.com</text>
<rect x="180" y="222" width="328.06" height="22" fill="#4c78a8" rx="3"/>
<text x="516.06" y="238" class="value">149.68</text>
<text x="10" y="270" class="label">easyanticheat.net</text>
<rect x="180" y="254" width="352.34" height="22" fill="#4c78a8" rx="3"/>
<text x="540.3399999999999" y="270" class="value">160.76</text>
<text x="10" y="302" class="label">community.akamai.steamstatic.com</text>
<rect x="180" y="286" width="354.51" height="22" fill="#4c78a8" rx="3"/>
<text x="542.51" y="302" class="value">161.75</text>
<text x="10" y="334" class="label">cdn.cloudflare.steamstatic.com</text>
<rect x="180" y="318" width="419.52" height="22" fill="#4c78a8" rx="3"/>
<text x="607.52" y="334" class="value">191.41</text>
<text x="10" y="366" class="label">api.steampowered.com</text>
<rect x="180" y="350" width="496.63" height="22" fill="#4c78a8" rx="3"/>
<text x="684.63" y="366" class="value">226.59</text>
<text x="10" y="398" class="label">ubi.com</text>
<rect x="180" y="382" width="522.18" height="22" fill="#4c78a8" rx="3"/>
<text x="710.18" y="398" class="value">238.25</text>
<text x="10" y="430" class="label">www.steamcommunity.com</text>
<rect x="180" y="414" width="524.9" height="22" fill="#4c78a8" rx="3"/>
<text x="712.9" y="430" class="value">239.49</text>
<text x="10" y="462" class="label">launcher-public-service-prod06.ol.epicgames.com</text>
<rect x="180" y="446" width="574.08" height="22" fill="#4c78a8" rx="3"/>
<text x="762.08" y="462" class="value">261.93</text>
<text x="10" y="494" class="label">cdn.akamai.steamstatic.com</text>
<rect x="180" y="478" width="580.0" height="22" fill="#4c78a8" rx="3"/>
<text x="768.0" y="494" class="value">264.63</text>
<line x1="180" y1="30" x2="180" y2="520" stroke="#ccc"/>
<line x1="180" y1="520" x2="760" y2="520" stroke="#ccc"/>
</svg>