<svg xmlns="http://www.w3.org/2000/svg" width="800" height="540">
<style> .label{font-family:DejaVu Sans,Verdana,Geneva,sans-serif;font-size:12px;fill:#333} .value{font-family:DejaVu Sans,Verdana,Geneva,sans-serif;font-size:12px;fill:#555} </style>
<text x="10" y="20" class="label">延迟柱状图（越低越好，Top 15），单位 ms</text>
<text x="10" y="46" class="label">rockstargames.com</text>
<rect x="180" y="30" width="242.52" height="22" fill="#4c78a8" rx="3"/>
<text x="430.52" y="46" class="value">78.74</text>
<text x="10" y="78" class="label">eaassets-a.akamaihd.net</text>
<rect x="180" y="62" width="330.95" height="22" fill="#4c78a8" rx="3"/>
<text x="518.95" y="78" class="value">107.45</text>
<text x="10" y="110" class="label">steamcdn-a.akamaihd.net</text>
<rect x="180" y="94" width="404.25" height="22" fill="#4c78a8" rx="3"/>
<text x="592.25" y="110" class="value">131.25</text>
<text x="10" y="142" class="label">easyanticheat.net</text>
<rect x="180" y="126" width="453.35" height="22" fill="#4c78a8" rx="3"/>
<text x="641.35" y="142" class="value">147.19</text>
<text x="10" y="174" class="label">ubi.com</text>
<rect x="180" y="158" width="453.66" height="22" fill="#4c78a8" rx="3"/>
<text x="641.6600000000001" y="174" class="value">147.29</text>
<text x="10" y="206" class="label">origin.com</text>
<rect x="180" y="190" width="461.79" height="22" fill="#4c78a8" rx="3"/>
<text x="649.79" y="206" class="value">149.93</text>
<text x="10" y="238" class="label">ubisoft.com</text>
<rect x="180" y="222" width="464.84" height="22" fill="#4c78a8" rx="3"/>
<text x="652.8399999999999" y="238" class="value">150.92</text>
<text x="10" y="270" class="label">cdn.akamai.steamstatic.com</text>
<rect x="180" y="254" width="495.21" height="22" fill="#4c78a8" rx="3"/>
<text x="683.21" y="270" class="value">160.78</text>
<text x="10" y="302" class="label">launcher-public-service-prod06.ol.epicgames.com</text>
<rect x="180" y="286" width="499.92" height="22" fill="#4c78a8" rx="3"/>
<text x="687.9200000000001" y="302" class="value">162.31</text>
<text x="10" y="334" class="label">battle.net</text>
<rect x="180" y="318" width="502.54" height="22" fill="#4c78a8" rx="3"/>
<text x="690.54" y="334" class="value">163.16</text>
<text x="10" y="366" class="label">blizzard.com</text>
<rect x="180" y="350" width="518.68" height="22" fill="#4c78a8" rx="3"/>
<text x="706.68" y="366" class="value">168.40</text>
<text x="10" y="398" class="label">unrealengine.com</text>
<rect x="180" y="382" width="522.28" height="22" fill="#4c78a8" rx="3"/>
<text x="710.28" y="398" class="value">169.57</text>
<text x="10" y="430" class="label">ea.com</text>
<rect x="180" y="414" width="533.71" height="22" fill="#4c78a8" rx="3"/>
<text x="721.71" y="430" class="value">173.28</text>
<text x="10" y="462" class="label">store.akamai.steamstatic.com</text>
<rect x="180" y="446" width="539.62" height="22" fill="#4c78a8" rx="3"/>
<text x="727.62" y="462" class="value">175.20</text>
<text x="10" y="494" class="label">cdn.cloudflare.steamstatic.com</text>
<rect x="180" y="478" width="580.0" height="22" fill="#4c78a8" rx="3"/>
<text x="768.0" y="494" class="value">188.31</text>
<line x1="180" y1="30" x2="180" y2="520" stroke="#ccc"/>
<line x1="180" y1="520" x2="760" y2="520" stroke="#ccc"/>
</svg>