<svg xmlns="http://www.w3.org/2000/svg" width="800" height="540">
<style> .label{font-family:DejaVu Sans,Verdana,Geneva,sans-serif;font-size:12px;fill:#333} .value{font-family:DejaVu Sans,Verdana,Geneva,sans-serif;font-size:12px;fill:#555} </style>
<text x="10" y="20" class="label">延迟柱状图（越低越好，Top 15），单位 ms</text>
<text x="10" y="46" class="label">rockstargames.com</text>
<rect x="180" y="30" width="258.3" height="22" fill="#4c78a8" rx="3"/>
<text x="446.3" y="46" class="value">80.10</text>
<text x="10" y="78" class="label">socialclub.rockstargames.com</text>
<rect x="180" y="62" width="262.36" height="22" fill="#4c78a8" rx="3"/>
<text x="450.36" y="78" class="value">81.36</text>
<text x="10" y="110" class="label">origin.com</text>
<rect x="180" y="94" width="333.89" height="22" fill="#4c78a8" rx="3"/>
<text x="521.89" y="110" class="value">103.54</text>
<text x="10" y="142" class="label">ea.com</text>
<rect x="180" y="126" width="350.5" height="22" fill="#4c78a8" rx="3"/>
<text x="538.5" y="142" class="value">108.69</text>
<text x="10" y="174" class="label">blizzard.com</text>
<rect x="180" y="158" width="369.91" height="22" fill="#4c78a8" rx="3"/>
<text x="557.9100000000001" y="174" class="value">114.71</text>
<text x="10" y="206" class="label">battle.net</text>
<rect x="180" y="190" width="375.68" height="22" fill="#4c78a8" rx="3"/>
<text x="563.6800000000001" y="206" class="value">116.50</text>
<text x="10" y="238" class="label">ubi.com</text>
<rect x="180" y="222" width="380.42" height="22" fill="#4c78a8" rx="3"/>
<text x="568.4200000000001" y="238" class="value">117.97</text>
<text x="10" y="270" class="label">eaassets-a.akamaihd.net</text>
<rect x="180" y="254" width="450.11" height="22" fill="#4c78a8" rx="3"/>
<text x="638.11" y="270" class="value">139.58</text>
<text x="10" y="302" class="label">unrealengine.com</text>
<rect x="180" y="286" width="498.12" height="22" fill="#4c78a8" rx="3"/>
<text x="686.12" y="302" class="value">154.47</text>
<text x="10" y="334" class="label">static3.cdn.ubi.com</text>
<rect x="180" y="318" width="528.89" height="22" fill="#4c78a8" rx="3"/>
<text x="716.89" y="334" class="value">164.01</text>
<text x="10" y="366" class="label">epicgames.com</text>
<rect x="180" y="350" width="552.4" height="22" fill="#4c78a8" rx="3"/>
<text x="740.4" y="366" class="value">171.30</text>
<text x="10" y="398" class="label">store.akamai.steamstatic.com</text>
<rect x="180" y="382" width="559.04" height="22" fill="#4c78a8" rx="3"/>
<text x="747.04" y="398" class="value">173.36</text>
<text x="10" y="430" class="label">fortnite.com</text>
<rect x="180" y="414" width="560.59" height="22" fill="#4c78a8" rx="3"/>
<text x="748.59" y="430" class="value">173.84</text>
<text x="10" y="462" class="label">community.akamai.steamstatic.com</text>
<rect x="180" y="446" width="572.97" height="22" fill="#4c78a8" rx="3"/>
<text x="760.97" y="462" class="value">177.68</text>
<text x="10" y="494" class="label">cdn.cloudflare.steamstatic.com</text>
<rect x="180" y="478" width="580.0" height="22" fill="#4c78a8" rx="3"/>
<text x="768.0" y="494" class="value">179.86</text>
<line x1="180" y1="30" x2="180" y2="520" stroke="#ccc"/>
<line x1="180" y1="520" x2="760" y2="520" stroke="#ccc"/>
</svg>