<svg xmlns="http://www.w3.org/2000/svg" width="800" height="540">
<style> .label{font-family:DejaVu Sans,Verdana,Geneva,sans-serif;font-size:12px;fill:#333} .value{font-family:DejaVu Sans,Verdana,Geneva,sans-serif;font-size:12px;fill:#555} </style>
<text x="10" y="20" class="label">延迟柱状图（越低越好，Top 15），单位 ms</text>
<text x="10" y="46" class="label">eaassets-a.akamaihd.net</text>
<rect x="180" y="30" width="64.31" height="22" fill="#4c78a8" rx="3"/>
<text x="252.31" y="46" class="value">32.99</text>
<text x="10" y="78" class="label">ubisoft.com</text>
<rect x="180" y="62" width="78.79" height="22" fill="#4c78a8" rx="3"/>
<text x="266.79" y="78" class="value">40.42</text>
<text x="10" y="110" class="label">rockstargames.com</text>
<rect x="180" y="94" width="79.74" height="22" fill="#4c78a8" rx="3"/>
<text x="267.74" y="110" class="value">40.91</text>
<text x="10" y="142" class="label">ea.com</text>
<rect x="180" y="126" width="171.77" height="22" fill="#4c78a8" rx="3"/>
<text x="359.77" y="142" class="value">88.12</text>
<text x="10" y="174" class="label">easyanticheat.net</text>
<rect x="180" y="158" width="257.26" height="22" fill="#4c78a8" rx="3"/>
<text x="445.26" y="174" class="value">131.98</text>
<text x="10" y="206" class="label">origin.com</text>
<rect x="180" y="190" width="306.11" height="22" fill="#4c78a8" rx="3"/>
<text x="494.11" y="206" class="value">157.04</text>
<text x="10" y="238" class="label">steamcdn-a.akamaihd.net</text>
<rect x="180" y="222" width="326.62" height="22" fill="#4c78a8" rx="3"/>
<text x="514.62" y="238" class="value">167.56</text>
<text x="10" y="270" class="label">community.akamai.steamstatic.com</text>
<rect x="180" y="254" width="331.92" height="22" fill="#4c78a8" rx="3"/>
<text x="519.9200000000001" y="270" class="value">170.28</text>
<text x="10" y="302" class="label">store.akamai.steamstatic.com</text>
<rect x="180" y="286" width="370.55" height="22" fill="#4c78a8" rx="3"/>
<text x="558.55" y="302" class="value">190.10</text>
<text x="10" y="334" class="label">cdn.akamai.steamstatic.com</text>
<rect x="180" y="318" width="393.55" height="22" fill="#4c78a8" rx="3"/>
<text x="581.55" y="334" class="value">201.90</text>
<text x="10" y="366" class="label">api.steampowered.com</text>
<rect x="180" y="350" width="481.6" height="22" fill="#4c78a8" rx="3"/>
<text x="669.6" y="366" class="value">247.07</text>
<text x="10" y="398" class="label">steam-chat.com</text>
<rect x="180" y="382" width="494.93" height="22" fill="#4c78a8" rx="3"/>
<text x="682.9300000000001" y="398" class="value">253.91</text>
<text x="10" y="430" class="label">blizzard.com</text>
<rect x="180" y="414" width="553.94" height="22" fill="#4c78a8" rx="3"/>
<text x="741.94" y="430" class="value">284.18</text>
<text x="10" y="462" class="label">static3.cdn.ubi.com</text>
<rect x="180" y="446" width="571.25" height="22" fill="#4c78a8" rx="3"/>
<text x="759.25" y="462" class="value">293.06</text>
<text x="10" y="494" class="label">battle.net</text>
<rect x="180" y="478" width="580.0" height="22" fill="#4c78a8" rx="3"/>
<text x="768.0" y="494" class="value">297.55</text>
<line x1="180" y1="30" x2="180" y2="520" stroke="#ccc"/>
<line x1="180" y1="520" x2="760" y2="520" stroke="#ccc"/>
</svg>