<svg xmlns="http://www.w3.org/2000/svg" width="800" height="540">
<style> .label{font-family:DejaVu Sans,Verdana,Geneva,sans-serif;font-size:12px;fill:#333} .value{font-family:DejaVu Sans,Verdana,Geneva,sans-serif;font-size:12px;fill:#555} </style>
<text x="10" y="20" class="label">延迟柱状图（越低越好，Top 15），单位 ms</text>
<text x="10" y="46" class="label">eaassets-a.akamaihd.net</text>
<rect x="180" y="30" width="194.56" height="22" fill="#4c78a8" rx="3"/>
<text x="382.56" y="46" class="value">77.23</text>
<text x="10" y="78" class="label">socialclub.rockstargames.com</text>
<rect x="180" y="62" width="198.06" height="22" fill="#4c78a8" rx="3"/>
<text x="386.06" y="78" class="value">78.62</text>
<text x="10" y="110" class="label">cdn.akamai.steamstatic.com</text>
<rect x="180" y="94" width="240.69" height="22" fill="#4c78a8" rx="3"/>
<text x="428.69" y="110" class="value">95.54</text>
<text x="10" y="142" class="label">blizzard.com</text>
<rect x="180" y="126" width="246.78" height="22" fill="#4c78a8" rx="3"/>
<text x="434.78" y="142" class="value">97.96</text>
<text x="10" y="174" class="label">rockstargames.com</text>
<rect x="180" y="158" width="256.26" height="22" fill="#4c78a8" rx="3"/>
<text x="444.26" y="174" class="value">101.72</text>
<text x="10" y="206" class="label">battle.net</text>
<rect x="180" y="190" width="279.63" height="22" fill="#4c78a8" rx="3"/>
<text x="467.63" y="206" class="value">111.00</text>
<text x="10" y="238" class="label">ubi.com</text>
<rect x="180" y="222" width="319.99" height="22" fill="#4c78a8" rx="3"/>
<text x="507.99" y="238" class="value">127.02</text>
<text x="10" y="270" class="label">ea.com</text>
<rect x="180" y="254" width="367.15" height="22" fill="#4c78a8" rx="3"/>
<text x="555.15" y="270" class="value">145.74</text>
<text x="10" y="302" class="label">fortnite.com</text>
<rect x="180" y="286" width="378.26" height="22" fill="#4c78a8" rx="3"/>
<text x="566.26" y="302" class="value">150.15</text>
<text x="10" y="334" class="label">unrealengine.com</text>
<rect x="180" y="318" width="484.52" height="22" fill="#4c78a8" rx="3"/>
<text x="672.52" y="334" class="value">192.33</text>
<text x="10" y="366" class="label">static3.cdn.ubi.com</text>
<rect x="180" y="350" width="496.49" height="22" fill="#4c78a8" rx="3"/>
<text x="684.49" y="366" class="value">197.08</text>
<text x="10" y="398" class="label">api.steampowered.com</text>
<rect x="180" y="382" width="554.33" height="22" fill="#4c78a8" rx="3"/>
<text x="742.33" y="398" class="value">220.04</text>
<text x="10" y="430" class="label">gog.com</text>
<rect x="180" y="414" width="556.65" height="22" fill="#4c78a8" rx="3"/>
<text x="744.65" y="430" class="value">220.96</text>
<text x="10" y="462" class="label">community.akamai.steamstatic.com</text>
<rect x="180" y="446" width="566.22" height="22" fill="#4c78a8" rx="3"/>
<text x="754.22" y="462" class="value">224.76</text>
<text x="10" y="494" class="label">ubisoft.com</text>
<rect x="180" y="478" width="580.0" height="22" fill="#4c78a8" rx="3"/>
<text x="768.0" y="494" class="value">230.23</text>
<line x1="180" y1="30" x2="180" y2="520" stroke="#ccc"/>
<line x1="180" y1="520" x2="760" y2="520" stroke="#ccc"/>
</svg>