<svg xmlns="http://www.w3.org/2000/svg" width="800" height="540">
<style> .label{font-family:DejaVu Sans,Verdana,Geneva,sans-serif;font-size:12px;fill:#333} .value{font-family:DejaVu Sans,Verdana,Geneva,sans-serif;font-size:12px;fill:#555} </style>
<text x="10" y="20" class="label">延迟柱状图（越低越好，Top 15），单位 ms</text>
<text x="10" y="46" class="label">rockstargames.com</text>
<rect x="180" y="30" width="273.82" height="22" fill="#4c78a8" rx="3"/>
<text x="461.82" y="46" class="value">101.14</text>
<text x="10" y="78" class="label">ubisoft.com</text>
<rect x="180" y="62" width="386.1" height="22" fill="#4c78a8" rx="3"/>
<text x="574.1" y="78" class="value">142.61</text>
<text x="10" y="110" class="label">eaassets-a.akamaihd.net</text>
<rect x="180" y="94" width="413.01" height="22" fill="#4c78a8" rx="3"/>
<text x="601.01" y="110" class="value">152.55</text>
<text x="10" y="142" class="label">blizzard.com</text>
<rect x="180" y="126" width="432.85" height="22" fill="#4c78a8" rx="3"/>
<text x="620.85" y="142" class="value">159.88</text>
<text x="10" y="174" class="label">store.akamai.steamstatic.com</text>
<rect x="180" y="158" width="433.8" height="22" fill="#4c78a8" rx="3"/>
<text x="621.8" y="174" class="value">160.23</text>
<text x="10" y="206" class="label">cdn.akamai.steamstatic.com</text>
<rect x="180" y="190" width="441.68" height="22" fill="#4c78a8" rx="3"/>
<text x="629.6800000000001" y="206" class="value">163.14</text>
<text x="10" y="238" class="label">battle.net</text>
<rect x="180" y="222" width="464.58" height="22" fill="#4c78a8" rx="3"/>
<text x="652.5799999999999" y="238" class="value">171.60</text>
<text x="10" y="270" class="label">ubi.com</text>
<rect x="180" y="254" width="471.92" height="22" fill="#4c78a8" rx="3"/>
<text x="659.9200000000001" y="270" class="value">174.31</text>
<text x="10" y="302" class="label">easyanticheat.net</text>
<rect x="180" y="286" width="480.45" height="22" fill="#4c78a8" rx="3"/>
<text x="668.45" y="302" class="value">177.46</text>
<text x="10" y="334" class="label">origin.com</text>
<rect x="180" y="318" width="481.53" height="22" fill="#4c78a8" rx="3"/>
<text x="669.53" y="334" class="value">177.86</text>
<text x="10" y="366" class="label">cdn.cloudflare.steamstatic.com</text>
<rect x="180" y="350" width="519.46" height="22" fill="#4c78a8" rx="3"/>
<text x="707.46" y="366" class="value">191.87</text>
<text x="10" y="398" class="label">socialclub.rockstargames.com</text>
<rect x="180" y="382" width="539.47" height="22" fill="#4c78a8" rx="3"/>
<text x="727.47" y="398" class="value">199.26</text>
<text x="10" y="430" class="label">community.akamai.steamstatic.com</text>
<rect x="180" y="414" width="550.06" height="22" fill="#4c78a8" rx="3"/>
<text x="738.06" y="430" class="value">203.17</text>
<text x="10" y="462" class="label">ea.com</text>
<rect x="180" y="446" width="551.22" height="22" fill="#4c78a8" rx="3"/>
<text x="739.22" y="462" class="value">203.60</text>
<text x="10" y="494" class="label">epicgames.com</text>
<rect x="180" y="478" width="580.0" height="22" fill="#4c78a8" rx="3"/>
<text x="768.0" y="494" class="value">214.23</text>
<line x1="180" y1="30" x2="180" y2="520" stroke="#ccc"/>
<line x1="180" y1="520" x2="760" y2="520" stroke="#ccc"/>
</svg>