<svg xmlns="http://www.w3.org/2000/svg" width="800" height="540">
<style> .label{font-family:DejaVu Sans,Verdana,Geneva,sans-serif;font-size:12px;fill:#333} .value{font-family:DejaVu Sans,Verdana,Geneva,sans-serif;font-size:12px;fill:#555} </style>
<text x="10" y="20" class="label">延迟柱状图（越低越好，Top 15），单位 ms</text>
<text x="10" y="46" class="label">rockstargames.com</text>
<rect x="180" y="30" width="75.37" height="22" fill="#4c78a8" rx="3"/>
<text x="263.37" y="46" class="value">32.02</text>
<text x="10" y="78" class="label">cdn.akamai.steamstatic.com</text>
<rect x="180" y="62" width="208.73" height="22" fill="#4c78a8" rx="3"/>
<text x="396.73" y="78" class="value">88.68</text>
<text x="10" y="110" class="label">ea.com</text>
<rect x="180" y="94" width="216.09" height="22" fill="#4c78a8" rx="3"/>
<text x="404.09000000000003" y="110" class="value">91.81</text>
<text x="10" y="142" class="label">eaassets-a.akamaihd.net</text>
<rect x="180" y="126" width="304.24" height="22" fill="#4c78a8" rx="3"/>
<text x="492.24" y="142" class="value">129.26</text>
<text x="10" y="174" class="label">store.akamai.steamstatic.com</text>
<rect x="180" y="158" width="319.4" height="22" fill="#4c78a8" rx="3"/>
<text x="507.4" y="174" class="value">135.70</text>
<text x="10" y="206" class="label">ubisoft.com</text>
<rect x="180" y="190" width="328.77" height="22" fill="#4c78a8" rx="3"/>
<text x="516.77" y="206" class="value">139.68</text>
<text x="10" y="238" class="label">easyanticheat.net</text>
<rect x="180" y="222" width="362.49" height="22" fill="#4c78a8" rx="3"/>
<text x="550.49" y="238" class="value">154.01</text>
<text x="10" y="270" class="label">steamcdn-a.akamaihd.net</text>
<rect x="180" y="254" width="390.29" height="22" fill="#4c78a8" rx="3"/>
<text x="578.29" y="270" class="value">165.82</text>
<text x="10" y="302" class="label">cdn.cloudflare.steamstatic.com</text>
<rect x="180" y="286" width="413.0" height="22" fill="#4c78a8" rx="3"/>
<text x="601.0" y="302" class="value">175.47</text>
<text x="10" y="334" class="label">origin.com</text>
<rect x="180" y="318" width="422.8" height="22" fill="#4c78a8" rx="3"/>
<text x="610.8" y="334" class="value">179.63</text>
<text x="10" y="366" class="label">community.akamai.steamstatic.com</text>
<rect x="180" y="350" width="425.93" height="22" fill="#4c78a8" rx="3"/>
<text x="613.9300000000001" y="366" class="value">180.96</text>
<text x="10" y="398" class="label">steam-chat.com</text>
<rect x="180" y="382" width="445.63" height="22" fill="#4c78a8" rx="3"/>
<text x="633.63" y="398" class="value">189.33</text>
<text x="10" y="430" class="label">steamcommunity.com</text>
<rect x="180" y="414" width="550.96" height="22" fill="#4c78a8" rx="3"/>
<text x="738.96" y="430" class="value">234.08</text>
<text x="10" y="462" class="label">api.steampowered.com</text>
<rect x="180" y="446" width="573.62" height="22" fill="#4c78a8" rx="3"/>
<text x="761.62" y="462" class="value">243.71</text>
<text x="10" y="494" class="label">launcher-public-service-prod06.ol.epicgames.com</text>
<rect x="180" y="478" width="580.0" height="22" fill="#4c78a8" rx="3"/>
<text x="768.0" y="494" class="value">246.42</text>
<line x1="180" y1="30" x2="180" y2="520" stroke="#ccc"/>
<line x1="180" y1="520" x2="760" y2="520" stroke="#ccc"/>
</svg>