<svg xmlns="http://www.w3.org/2000/svg" width="800" height="540">
<style> .label{font-family:DejaVu Sans,Verdana,Geneva,sans-serif;font-size:12px;fill:#333} .value{font-family:DejaVu Sans,Verdana,Geneva,sans-serif;font-size:12px;fill:#555} </style>
<text x="10" y="20" class="label">延迟柱状图（越低越好，Top 15），单位 ms</text>
<text x="10" y="46" class="label">eaassets-a.akamaihd.net</text>
<rect x="180" y="30" width="198.01" height="22" fill="#4c78a8" rx="3"/>
<text x="386.01" y="46" class="value">61.87</text>
<text x="10" y="78" class="label">ubi.com</text>
<rect x="180" y="62" width="290.72" height="22" fill="#4c78a8" rx="3"/>
<text x="478.72" y="78" class="value">90.84</text>
<text x="10" y="110" class="label">battle.net</text>
<rect x="180" y="94" width="301.19" height="22" fill="#4c78a8" rx="3"/>
<text x="489.19" y="110" class="value">94.11</text>
<text x="10" y="142" class="label">unrealengine.com</text>
<rect x="180" y="126" width="302.18" height="22" fill="#4c78a8" rx="3"/>
<text x="490.18" y="142" class="value">94.42</text>
<text x="10" y="174" class="label">socialclub.rockstargames.com</text>
<rect x="180" y="158" width="310.31" height="22" fill="#4c78a8" rx="3"/>
<text x="498.31" y="174" class="value">96.96</text>
<text x="10" y="206" class="label">ubisoft.com</text>
<rect x="180" y="190" width="314.34" height="22" fill="#4c78a8" rx="3"/>
<text x="502.34" y="206" class="value">98.22</text>
<text x="10" y="238" class="label">blizzard.com</text>
<rect x="180" y="222" width="331.08" height="22" fill="#4c78a8" rx="3"/>
<text x="519.0799999999999" y="238" class="value">103.45</text>
<text x="10" y="270" class="label">rockstargames.com</text>
<rect x="180" y="254" width="403.63" height="22" fill="#4c78a8" rx="3"/>
<text x="591.63" y="270" class="value">126.12</text>
<text x="10" y="302" class="label">ea.com</text>
<rect x="180" y="286" width="431.63" height="22" fill="#4c78a8" rx="3"/>
<text x="619.63" y="302" class="value">134.87</text>
<text x="10" y="334" class="label">fortnite.com</text>
<rect x="180" y="318" width="451.19" height="22" fill="#4c78a8" rx="3"/>
<text x="639.19" y="334" class="value">140.98</text>
<text x="10" y="366" class="label">origin.com</text>
<rect x="180" y="350" width="504.92" height="22" fill="#4c78a8" rx="3"/>
<text x="692.9200000000001" y="366" class="value">157.77</text>
<text x="10" y="398" class="label">steamcdn-a.akamaihd.net</text>
<rect x="180" y="382" width="535.45" height="22" fill="#4c78a8" rx="3"/>
<text x="723.45" y="398" class="value">167.31</text>
<text x="10" y="430" class="label">static3.cdn.ubi.com</text>
<rect x="180" y="414" width="545.37" height="22" fill="#4c78a8" rx="3"/>
<text x="733.37" y="430" class="value">170.41</text>
<text x="10" y="462" class="label">community.akamai.steamstatic.com</text>
<rect x="180" y="446" width="573.66" height="22" fill="#4c78a8" rx="3"/>
<text x="761.66" y="462" class="value">179.25</text>
<text x="10" y="494" class="label">cdn.akamai.steamstatic.com</text>
<rect x="180" y="478" width="580.0" height="22" fill="#4c78a8" rx="3"/>
<text x="768.0" y="494" class="value">181.23</text>
<line x1="180" y1="30" x2="180" y2="520" stroke="#ccc"/>
<line x1="180" y1="520" x2="760" y2="520" stroke="#ccc"/>
</svg>