<svg xmlns="http://www.w3.org/2000/svg" width="800" height="540">
<style> .label{font-family:DejaVu Sans,Verdana,Geneva,sans-serif;font-size:12px;fill:#333} .value{font-family:DejaVu Sans,Verdana,Geneva,sans-serif;font-size:12px;fill:#555} </style>
<text x="10" y="20" class="label">延迟柱状图（越低越好，Top 15），单位 ms</text>
<text x="10" y="46" class="label">rockstargames.com</text>
<rect x="180" y="30" width="263.84" height="22" fill="#4c78a8" rx="3"/>
<text x="451.84" y="46" class="value">77.31</text>
<text x="10" y="78" class="label">steamcdn-a.akamaihd.net</text>
<rect x="180" y="62" width="446.59" height="22" fill="#4c78a8" rx="3"/>
<text x="634.5899999999999" y="78" class="value">130.86</text>
<text x="10" y="110" class="label">origin.com</text>
<rect x="180" y="94" width="470.83" height="22" fill="#4c78a8" rx="3"/>
<text x="658.8299999999999" y="110" class="value">137.96</text>
<text x="10" y="142" class="label">socialclub.rockstargames.com</text>
<rect x="180" y="126" width="472.98" height="22" fill="#4c78a8" rx="3"/>
<text x="660.98" y="142" class="value">138.59</text>
<text x="10" y="174" class="label">store.akamai.steamstatic.com</text>
<rect x="180" y="158" width="477.82" height="22" fill="#4c78a8" rx="3"/>
<text x="665.8199999999999" y="174" class="value">140.01</text>
<text x="10" y="206" class="label">ubisoft.com</text>
<rect x="180" y="190" width="494.78" height="22" fill="#4c78a8" rx="3"/>
<text x="682.78" y="206" class="value">144.98</text>
<text x="10" y="238" class="label">community.akamai.steamstatic.com</text>
<rect x="180" y="222" width="502.12" height="22" fill="#4c78a8" rx="3"/>
<text x="690.12" y="238" class="value">147.13</text>
<text x="10" y="270" class="label">easyanticheat.net</text>
<rect x="180" y="254" width="516.66" height="22" fill="#4c78a8" rx="3"/>
<text x="704.66" y="270" class="value">151.39</text>
<text x="10" y="302" class="label">ea.com</text>
<rect x="180" y="286" width="518.84" height="22" fill="#4c78a8" rx="3"/>
<text x="706.84" y="302" class="value">152.03</text>
<text x="10" y="334" class="label">cdn.akamai.steamstatic.com</text>
<rect x="180" y="318" width="521.98" height="22" fill="#4c78a8" rx="3"/>
<text x="709.98" y="334" class="value">152.95</text>
<text x="10" y="366" class="label">eaassets-a.akamaihd.net</text>
<rect x="180" y="350" width="525.81" height="22" fill="#4c78a8" rx="3"/>
<text x="713.81" y="366" class="value">154.07</text>
<text x="10" y="398" class="label">blizzard.com</text>
<rect x="180" y="382" width="540.65" height="22" fill="#4c78a8" rx="3"/>
<text x="728.65" y="398" class="value">158.42</text>
<text x="10" y="430" class="label">ubi.com</text>
<rect x="180" y="414" width="542.22" height="22" fill="#4c78a8" rx="3"/>
<text x="730.22" y="430" class="value">158.88</text>
<text x="10" y="462" class="label">battle.net</text>
<rect x="180" y="446" width="558.4" height="22" fill="#4c78a8" rx="3"/>
<text x="746.4" y="462" class="value">163.62</text>
<text x="10" y="494" class="label">api.steampowered.com</text>
<rect x="180" y="478" width="580.0" height="22" fill="#4c78a8" rx="3"/>
<text x="768.0" y="494" class="value">169.95</text>
<line x1="180" y1="30" x2="180" y2="520" stroke="#ccc"/>
<line x1="180" y1="520" x2="760" y2="520" stroke="#ccc"/>
</svg>