<svg xmlns="http://www.w3.org/2000/svg" width="800" height="540">
<style> .label{font-family:DejaVu Sans,Verdana,Geneva,sans-serif;font-size:12px;fill:#333} .value{font-family:DejaVu Sans,Verdana,Geneva,sans-serif;font-size:12px;fill:#555} </style>
<text x="10" y="20" class="label">延迟柱状图（越低越好，Top 15），单位 ms</text>
<text x="10" y="46" class="label">fortnite.com</text>
<rect x="180" y="30" width="247.32" height="22" fill="#4c78a8" rx="3"/>
<text x="435.32" y="46" class="value">82.16</text>
<text x="10" y="78" class="label">unrealengine.com</text>
<rect x="180" y="62" width="259.24" height="22" fill="#4c78a8" rx="3"/>
<text x="447.24" y="78" class="value">86.12</text>
<text x="10" y="110" class="label">ubi.com</text>
<rect x="180" y="94" width="295.75" height="22" fill="#4c78a8" rx="3"/>
<text x="483.75" y="110" class="value">98.25</text>
<text x="10" y="142" class="label">blizzard.com</text>
<rect x="180" y="126" width="299.39" height="22" fill="#4c78a8" rx="3"/>
<text x="487.39" y="142" class="value">99.46</text>
<text x="10" y="174" class="label">rockstargames.com</text>
<rect x="180" y="158" width="301.44" height="22" fill="#4c78a8" rx="3"/>
<text x="489.44" y="174" class="value">100.14</text>
<text x="10" y="206" class="label">socialclub.rockstargames.com</text>
<rect x="180" y="190" width="322.33" height="22" fill="#4c78a8" rx="3"/>
<text x="510.33" y="206" class="value">107.08</text>
<text x="10" y="238" class="label">epicgames.com</text>
<rect x="180" y="222" width="325.13" height="22" fill="#4c78a8" rx="3"/>
<text x="513.13" y="238" class="value">108.01</text>
<text x="10" y="270" class="label">cdn.akamai.steamstatic.com</text>
<rect x="180" y="254" width="347.92" height="22" fill="#4c78a8" rx="3"/>
<text x="535.9200000000001" y="270" class="value">115.58</text>
<text x="10" y="302" class="label">eaassets-a.akamaihd.net</text>
<rect x="180" y="286" width="357.01" height="22" fill="#4c78a8" rx="3"/>
<text x="545.01" y="302" class="value">118.60</text>
<text x="10" y="334" class="label">battle.net</text>
<rect x="180" y="318" width="367.15" height="22" fill="#4c78a8" rx="3"/>
<text x="555.15" y="334" class="value">121.97</text>
<text x="10" y="366" class="label">ea.com</text>
<rect x="180" y="350" width="436.14" height="22" fill="#4c78a8" rx="3"/>
<text x="624.14" y="366" class="value">144.89</text>
<text x="10" y="398" class="label">community.akamai.steamstatic.com</text>
<rect x="180" y="382" width="476.69" height="22" fill="#4c78a8" rx="3"/>
<text x="664.69" y="398" class="value">158.36</text>
<text x="10" y="430" class="label">origin.com</text>
<rect x="180" y="414" width="525.7" height="22" fill="#4c78a8" rx="3"/>
<text x="713.7" y="430" class="value">174.64</text>
<text x="10" y="462" class="label">steamcdn-a.akamaihd.net</text>
<rect x="180" y="446" width="548.78" height="22" fill="#4c78a8" rx="3"/>
<text x="736.78" y="462" class="value">182.31</text>
<text x="10" y="494" class="label">ubisoft.com</text>
<rect x="180" y="478" width="580.0" height="22" fill="#4c78a8" rx="3"/>
<text x="768.0" y="494" class="value">192.68</text>
<line x1="180" y1="30" x2="180" y2="520" stroke="#ccc"/>
<line x1="180" y1="520" x2="760" y2="520" stroke="#ccc"/>
</svg>