<svg xmlns="http://www.w3.org/2000/svg" width="800" height="540">
<style> .label{font-family:DejaVu Sans,Verdana,Geneva,sans-serif;font-size:12px;fill:#333} .value{font-family:DejaVu Sans,Verdana,Geneva,sans-serif;font-size:12px;fill:#555} </style>
<text x="10" y="20" class="label">延迟柱状图（越低越好，Top 15），单位 ms</text>
<text x="10" y="46" class="label">rockstargames.com</text>
<rect x="180" y="30" width="222.96" height="22" fill="#4c78a8" rx="3"/>
<text x="410.96000000000004" y="46" class="value">68.69</text>
<text x="10" y="78" class="label">origin.com</text>
<rect x="180" y="62" width="253.27" height="22" fill="#4c78a8" rx="3"/>
<text x="441.27" y="78" class="value">78.03</text>
<text x="10" y="110" class="label">eaassets-a.akamaihd.net</text>
<rect x="180" y="94" width="322.96" height="22" fill="#4c78a8" rx="3"/>
<text x="510.96" y="110" class="value">99.50</text>
<text x="10" y="142" class="label">ea.com</text>
<rect x="180" y="126" width="331.4" height="22" fill="#4c78a8" rx="3"/>
<text x="519.4" y="142" class="value">102.10</text>
<text x="10" y="174" class="label">community.akamai.steamstatic.com</text>
<rect x="180" y="158" width="344.16" height="22" fill="#4c78a8" rx="3"/>
<text x="532.1600000000001" y="174" class="value">106.03</text>
<text x="10" y="206" class="label">battle.net</text>
<rect x="180" y="190" width="448.8" height="22" fill="#4c78a8" rx="3"/>
<text x="636.8" y="206" class="value">138.27</text>
<text x="10" y="238" class="label">store.akamai.steamstatic.com</text>
<rect x="180" y="222" width="468.54" height="22" fill="#4c78a8" rx="3"/>
<text x="656.54" y="238" class="value">144.35</text>
<text x="10" y="270" class="label">ubi.com</text>
<rect x="180" y="254" width="468.73" height="22" fill="#4c78a8" rx="3"/>
<text x="656.73" y="270" class="value">144.41</text>
<text x="10" y="302" class="label">socialclub.rockstargames.com</text>
<rect x="180" y="286" width="499.31" height="22" fill="#4c78a8" rx="3"/>
<text x="687.31" y="302" class="value">153.83</text>
<text x="10" y="334" class="label">steamcdn-a.akamaihd.net</text>
<rect x="180" y="318" width="500.57" height="22" fill="#4c78a8" rx="3"/>
<text x="688.5699999999999" y="334" class="value">154.22</text>
<text x="10" y="366" class="label">blizzard.com</text>
<rect x="180" y="350" width="504.11" height="22" fill="#4c78a8" rx="3"/>
<text x="692.11" y="366" class="value">155.31</text>
<text x="10" y="398" class="label">fortnite.com</text>
<rect x="180" y="382" width="506.25" height="22" fill="#4c78a8" rx="3"/>
<text x="694.25" y="398" class="value">155.97</text>
<text x="10" y="430" class="label">ubisoft.com</text>
<rect x="180" y="414" width="537.58" height="22" fill="#4c78a8" rx="3"/>
<text x="725.58" y="430" class="value">165.62</text>
<text x="10" y="462" class="label">cdn.cloudflare.steamstatic.com</text>
<rect x="180" y="446" width="566.69" height="22" fill="#4c78a8" rx="3"/>
<text x="754.69" y="462" class="value">174.59</text>
<text x="10" y="494" class="label">api.steampowered.com</text>
<rect x="180" y="478" width="580.0" height="22" fill="#4c78a8" rx="3"/>
<text x="768.0" y="494" class="value">178.69</text>
<line x1="180" y1="30" x2="180" y2="520" stroke="#ccc"/>
<line x1="180" y1="520" x2="760" y2="520" stroke="#ccc"/>
</svg>