<svg xmlns="http://www.w3.org/2000/svg" width="800" height="540">
<style> .label{font-family:DejaVu Sans,Verdana,Geneva,sans-serif;font-size:12px;fill:#333} .value{font-family:DejaVu Sans,Verdana,Geneva,sans-serif;font-size:12px;fill:#555} </style>
<text x="10" y="20" class="label">延迟柱状图（越低越好，Top 15），单位 ms</text>
<text x="10" y="46" class="label">eaassets-a.akamaihd.net</text>
<rect x="180" y="30" width="142.74" height="22" fill="#4c78a8" rx="3"/>
<text x="330.74" y="46" class="value">60.97</text>
<text x="10" y="78" class="label">rockstargames.com</text>
<rect x="180" y="62" width="145.5" height="22" fill="#4c78a8" rx="3"/>
<text x="333.5" y="78" class="value">62.15</text>
<text x="10" y="110" class="label">ea.com</text>
<rect x="180" y="94" width="181.32" height="22" fill="#4c78a8" rx="3"/>
<text x="369.32" y="110" class="value">77.45</text>
<text x="10" y="142" class="label">ubisoft.com</text>
<rect x="180" y="126" width="201.64" height="22" fill="#4c78a8" rx="3"/>
<text x="389.64" y="142" class="value">86.13</text>
<text x="10" y="174" class="label">steamcdn-a.akamaihd.net</text>
<rect x="180" y="158" width="216.5" height="22" fill="#4c78a8" rx="3"/>
<text x="404.5" y="174" class="value">92.48</text>
<text x="10" y="206" class="label">socialclub.rockstargames.com</text>
<rect x="180" y="190" width="290.32" height="22" fill="#4c78a8" rx="3"/>
<text x="478.32" y="206" class="value">124.01</text>
<text x="10" y="238" class="label">ubi.com</text>
<rect x="180" y="222" width="303.99" height="22" fill="#4c78a8" rx="3"/>
<text x="491.99" y="238" class="value">129.85</text>
<text x="10" y="270" class="label">blizzard.com</text>
<rect x="180" y="254" width="304.85" height="22" fill="#4c78a8" rx="3"/>
<text x="492.85" y="270" class="value">130.22</text>
<text x="10" y="302" class="label">battle.net</text>
<rect x="180" y="286" width="330.58" height="22" fill="#4c78a8" rx="3"/>
<text x="518.5799999999999" y="302" class="value">141.21</text>
<text x="10" y="334" class="label">store.akamai.steamstatic.com</text>
<rect x="180" y="318" width="382.67" height="22" fill="#4c78a8" rx="3"/>
<text x="570.6700000000001" y="334" class="value">163.46</text>
<text x="10" y="366" class="label">cdn.akamai.steamstatic.com</text>
<rect x="180" y="350" width="392.25" height="22" fill="#4c78a8" rx="3"/>
<text x="580.25" y="366" class="value">167.55</text>
<text x="10" y="398" class="label">cdn.cloudflare.steamstatic.com</text>
<rect x="180" y="382" width="395.17" height="22" fill="#4c78a8" rx="3"/>
<text x="583.1700000000001" y="398" class="value">168.80</text>
<text x="10" y="430" class="label">origin.com</text>
<rect x="180" y="414" width="426.71" height="22" fill="#4c78a8" rx="3"/>
<text x="614.71" y="430" class="value">182.27</text>
<text x="10" y="462" class="label">easyanticheat.net</text>
<rect x="180" y="446" width="548.77" height="22" fill="#4c78a8" rx="3"/>
<text x="736.77" y="462" class="value">234.41</text>
<text x="10" y="494" class="label">www.steamcommunity.com</text>
<rect x="180" y="478" width="580.0" height="22" fill="#4c78a8" rx="3"/>
<text x="768.0" y="494" class="value">247.75</text>
<line x1="180" y1="30" x2="180" y2="520" stroke="#ccc"/>
<line x1="180" y1="520" x2="760" y2="520" stroke="#ccc"/>
</svg>