<svg xmlns="http://www.w3.org/2000/svg" width="800" height="540">
<style> .label{font-family:DejaVu Sans,Verdana,Geneva,sans-serif;font-size:12px;fill:#333} .value{font-family:DejaVu Sans,Verdana,Geneva,sans-serif;font-size:12px;fill:#555} </style>
<text x="10" y="20" class="label">延迟柱状图（越低越好，Top 15），单位 ms</text>
<text x="10" y="46" class="label">rockstargames.com</text>
<rect x="180" y="30" width="198.11" height="22" fill="#4c78a8" rx="3"/>
<text x="386.11" y="46" class="value">74.72</text>
<text x="10" y="78" class="label">eaassets-a.akamaihd.net</text>
<rect x="180" y="62" width="214.26" height="22" fill="#4c78a8" rx="3"/>
<text x="402.26" y="78" class="value">80.81</text>
<text x="10" y="110" class="label">socialclub.rockstargames.com</text>
<rect x="180" y="94" width="226.33" height="22" fill="#4c78a8" rx="3"/>
<text x="414.33000000000004" y="110" class="value">85.36</text>
<text x="10" y="142" class="label">origin.com</text>
<rect x="180" y="126" width="260.34" height="22" fill="#4c78a8" rx="3"/>
<text x="448.34" y="142" class="value">98.19</text>
<text x="10" y="174" class="label">blizzard.com</text>
<rect x="180" y="158" width="296.56" height="22" fill="#4c78a8" rx="3"/>
<text x="484.56" y="174" class="value">111.85</text>
<text x="10" y="206" class="label">battle.net</text>
<rect x="180" y="190" width="323.61" height="22" fill="#4c78a8" rx="3"/>
<text x="511.61" y="206" class="value">122.05</text>
<text x="10" y="238" class="label">ubi.com</text>
<rect x="180" y="222" width="331.88" height="22" fill="#4c78a8" rx="3"/>
<text x="519.88" y="238" class="value">125.17</text>
<text x="10" y="270" class="label">ubisoft.com</text>
<rect x="180" y="254" width="343.41" height="22" fill="#4c78a8" rx="3"/>
<text x="531.4100000000001" y="270" class="value">129.52</text>
<text x="10" y="302" class="label">easyanticheat.net</text>
<rect x="180" y="286" width="346.38" height="22" fill="#4c78a8" rx="3"/>
<text x="534.38" y="302" class="value">130.64</text>
<text x="10" y="334" class="label">static3.cdn.ubi.com</text>
<rect x="180" y="318" width="412.77" height="22" fill="#4c78a8" rx="3"/>
<text x="600.77" y="334" class="value">155.68</text>
<text x="10" y="366" class="label">community.akamai.steamstatic.com</text>
<rect x="180" y="350" width="456.05" height="22" fill="#4c78a8" rx="3"/>
<text x="644.05" y="366" class="value">172.00</text>
<text x="10" y="398" class="label">epicgames.com</text>
<rect x="180" y="382" width="503.59" height="22" fill="#4c78a8" rx="3"/>
<text x="691.5899999999999" y="398" class="value">189.93</text>
<text x="10" y="430" class="label">steamcdn-a.akamaihd.net</text>
<rect x="180" y="414" width="516.07" height="22" fill="#4c78a8" rx="3"/>
<text x="704.07" y="430" class="value">194.64</text>
<text x="10" y="462" class="label">ea.com</text>
<rect x="180" y="446" width="518.46" height="22" fill="#4c78a8" rx="3"/>
<text x="706.46" y="462" class="value">195.54</text>
<text x="10" y="494" class="label">cdn.cloudflare.steamstatic.com</text>
<rect x="180" y="478" width="580.0" height="22" fill="#4c78a8" rx="3"/>
<text x="768.0" y="494" class="value">218.75</text>
<line x1="180" y1="30" x2="180" y2="520" stroke="#ccc"/>
<line x1="180" y1="520" x2="760" y2="520" stroke="#ccc"/>
</svg>