<svg xmlns="http://www.w3.org/2000/svg" width="800" height="540">
<style> .label{font-family:DejaVu Sans,Verdana,Geneva,sans-serif;font-size:12px;fill:#333} .value{font-family:DejaVu Sans,Verdana,Geneva,sans-serif;font-size:12px;fill:#555} </style>
<text x="10" y="20" class="label">延迟柱状图（越低越好，Top 15），单位 ms</text>
<text x="10" y="46" class="label">rockstargames.com</text>
<rect x="180" y="30" width="215.93" height="22" fill="#4c78a8" rx="3"/>
<text x="403.93" y="46" class="value">98.40</text>
<text x="10" y="78" class="label">ea.com</text>
<rect x="180" y="62" width="273.99" height="22" fill="#4c78a8" rx="3"/>
<text x="461.99" y="78" class="value">124.86</text>
<text x="10" y="110" class="label">ubisoft.com</text>
<rect x="180" y="94" width="276.08" height="22" fill="#4c78a8" rx="3"/>
<text x="464.08" y="110" class="value">125.81</text>
<text x="10" y="142" class="label">store.akamai.steamstatic.com</text>
<rect x="180" y="126" width="325.6" height="22" fill="#4c78a8" rx="3"/>
<text x="513.6" y="142" class="value">148.38</text>
<text x="10" y="174" class="label">eaassets-a.akamaihd.net</text>
<rect x="180" y="158" width="334.14" height="22" fill="#4c78a8" rx="3"/>
<text x="522.14" y="174" class="value">152.27</text>
<text x="10" y="206" class="label">cdn.cloudflare.steamstatic.com</text>
<rect x="180" y="190" width="406.56" height="22" fill="#4c78a8" rx="3"/>
<text x="594.56" y="206" class="value">185.27</text>
<text x="10" y="238" class="label">battle.net</text>
<rect x="180" y="222" width="408.49" height="22" fill="#4c78a8" rx="3"/>
<text x="596.49" y="238" class="value">186.15</text>
<text x="10" y="270" class="label">origin.com</text>
<rect x="180" y="254" width="410.94" height="22" fill="#4c78a8" rx="3"/>
<text x="598.94" y="270" class="value">187.27</text>
<text x="10" y="302" class="label">community.akamai.steamstatic.com</text>
<rect x="180" y="286" width="437.23" height="22" fill="#4c78a8" rx="3"/>
<text x="625.23" y="302" class="value">199.25</text>
<text x="10" y="334" class="label">steamcdn-a.akamaihd.net</text>
<rect x="180" y="318" width="456.52" height="22" fill="#4c78a8" rx="3"/>
<text x="644.52" y="334" class="value">208.04</text>
<text x="10" y="366" class="label">easyanticheat.net</text>
<rect x="180" y="350" width="493.3" height="22" fill="#4c78a8" rx="3"/>
<text x="681.3" y="366" class="value">224.80</text>
<text x="10" y="398" class="label">gog.com</text>
<rect x="180" y="382" width="513.05" height="22" fill="#4c78a8" rx="3"/>
<text x="701.05" y="398" class="value">233.80</text>
<text x="10" y="430" class="label">ubi.com</text>
<rect x="180" y="414" width="547.08" height="22" fill="#4c78a8" rx="3"/>
<text x="735.08" y="430" class="value">249.31</text>
<text x="10" y="462" class="label">www.steamcommunity.com</text>
<rect x="180" y="446" width="558.98" height="22" fill="#4c78a8" rx="3"/>
<text x="746.98" y="462" class="value">254.73</text>
<text x="10" y="494" class="label">socialclub.rockstargames.com</text>
<rect x="180" y="478" width="580.0" height="22" fill="#4c78a8" rx="3"/>
<text x="768.0" y="494" class="value">264.31</text>
<line x1="180" y1="30" x2="180" y2="520" stroke="#ccc"/>
<line x1="180" y1="520" x2="760" y2="520" stroke="#ccc"/>
</svg>