<svg xmlns="http://www.w3.org/2000/svg" width="800" height="540">
<style> .label{font-family:DejaVu Sans,Verdana,Geneva,sans-serif;font-size:12px;fill:#333} .value{font-family:DejaVu Sans,Verdana,Geneva,sans-serif;font-size:12px;fill:#555} </style>
<text x="10" y="20" class="label">延迟柱状图（越低越好，Top 15），单位 ms</text>
<text x="10" y="46" class="label">rockstargames.com</text>
<rect x="180" y="30" width="65.5" height="22" fill="#4c78a8" rx="3"/>
<text x="253.5" y="46" class="value">32.33</text>
<text x="10" y="78" class="label">eaassets-a.akamaihd.net</text>
<rect x="180" y="62" width="169.02" height="22" fill="#4c78a8" rx="3"/>
<text x="357.02" y="78" class="value">83.42</text>
<text x="10" y="110" class="label">ea.com</text>
<rect x="180" y="94" width="182.47" height="22" fill="#4c78a8" rx="3"/>
<text x="370.47" y="110" class="value">90.06</text>
<text x="10" y="142" class="label">community.akamai.steamstatic.com</text>
<rect x="180" y="126" width="227.21" height="22" fill="#4c78a8" rx="3"/>
<text x="415.21000000000004" y="142" class="value">112.14</text>
<text x="10" y="174" class="label">ubisoft.com</text>
<rect x="180" y="158" width="239.73" height="22" fill="#4c78a8" rx="3"/>
<text x="427.73" y="174" class="value">118.32</text>
<text x="10" y="206" class="label">cdn.akamai.steamstatic.com</text>
<rect x="180" y="190" width="257.06" height="22" fill="#4c78a8" rx="3"/>
<text x="445.06" y="206" class="value">126.87</text>
<text x="10" y="238" class="label">store.akamai.steamstatic.com</text>
<rect x="180" y="222" width="285.44" height="22" fill="#4c78a8" rx="3"/>
<text x="473.44" y="238" class="value">140.88</text>
<text x="10" y="270" class="label">steamcdn-a.akamaihd.net</text>
<rect x="180" y="254" width="362.17" height="22" fill="#4c78a8" rx="3"/>
<text x="550.1700000000001" y="270" class="value">178.75</text>
<text x="10" y="302" class="label">cdn.cloudflare.steamstatic.com</text>
<rect x="180" y="286" width="373.42" height="22" fill="#4c78a8" rx="3"/>
<text x="561.4200000000001" y="302" class="value">184.30</text>
<text x="10" y="334" class="label">origin.com</text>
<rect x="180" y="318" width="374.69" height="22" fill="#4c78a8" rx="3"/>
<text x="562.69" y="334" class="value">184.93</text>
<text x="10" y="366" class="label">steam-chat.com</text>
<rect x="180" y="350" width="390.9" height="22" fill="#4c78a8" rx="3"/>
<text x="578.9" y="366" class="value">192.93</text>
<text x="10" y="398" class="label">api.steampowered.com</text>
<rect x="180" y="382" width="415.6" height="22" fill="#4c78a8" rx="3"/>
<text x="603.6" y="398" class="value">205.12</text>
<text x="10" y="430" class="label">easyanticheat.net</text>
<rect x="180" y="414" width="458.23" height="22" fill="#4c78a8" rx="3"/>
<text x="646.23" y="430" class="value">226.16</text>
<text x="10" y="462" class="label">launcher-public-service-prod06.ol.epicgames.com</text>
<rect x="180" y="446" width="464.41" height="22" fill="#4c78a8" rx="3"/>
<text x="652.4100000000001" y="462" class="value">229.21</text>
<text x="10" y="494" class="label">www.steamcommunity.com</text>
<rect x="180" y="478" width="580.0" height="22" fill="#4c78a8" rx="3"/>
<text x="768.0" y="494" class="value">286.26</text>
<line x1="180" y1="30" x2="180" y2="520" stroke="#ccc"/>
<line x1="180" y1="520" x2="760" y2="520" stroke="#ccc"/>
</svg>