<svg xmlns="http://www.w3.org/2000/svg" width="800" height="540">
<style> .label{font-family:DejaVu Sans,Verdana,Geneva,sans-serif;font-size:12px;fill:#333} .value{font-family:DejaVu Sans,Verdana,Geneva,sans-serif;font-size:12px;fill:#555} </style>
<text x="10" y="20" class="label">延迟柱状图（越低越好，Top 15），单位 ms</text>
<text x="10" y="46" class="label">rockstargames.com</text>
<rect x="180" y="30" width="95.54" height="22" fill="#4c78a8" rx="3"/>
<text x="283.54" y="46" class="value">34.29</text>
<text x="10" y="78" class="label">battle.net</text>
<rect x="180" y="62" width="120.51" height="22" fill="#4c78a8" rx="3"/>
<text x="308.51" y="78" class="value">43.25</text>
<text x="10" y="110" class="label">ubisoft.com</text>
<rect x="180" y="94" width="137.06" height="22" fill="#4c78a8" rx="3"/>
<text x="325.06" y="110" class="value">49.19</text>
<text x="10" y="142" class="label">ubi.com</text>
<rect x="180" y="126" width="160.1" height="22" fill="#4c78a8" rx="3"/>
<text x="348.1" y="142" class="value">57.46</text>
<text x="10" y="174" class="label">socialclub.rockstargames.com</text>
<rect x="180" y="158" width="198.64" height="22" fill="#4c78a8" rx="3"/>
<text x="386.64" y="174" class="value">71.29</text>
<text x="10" y="206" class="label">steamcdn-a.akamaihd.net</text>
<rect x="180" y="190" width="311.73" height="22" fill="#4c78a8" rx="3"/>
<text x="499.73" y="206" class="value">111.88</text>
<text x="10" y="238" class="label">eaassets-a.akamaihd.net</text>
<rect x="180" y="222" width="316.08" height="22" fill="#4c78a8" rx="3"/>
<text x="504.08" y="238" class="value">113.44</text>
<text x="10" y="270" class="label">static3.cdn.ubi.com</text>
<rect x="180" y="254" width="327.0" height="22" fill="#4c78a8" rx="3"/>
<text x="515.0" y="270" class="value">117.36</text>
<text x="10" y="302" class="label">blizzard.com</text>
<rect x="180" y="286" width="329.34" height="22" fill="#4c78a8" rx="3"/>
<text x="517.3399999999999" y="302" class="value">118.20</text>
<text x="10" y="334" class="label">fortnite.com</text>
<rect x="180" y="318" width="421.57" height="22" fill="#4c78a8" rx="3"/>
<text x="609.5699999999999" y="334" class="value">151.30</text>
<text x="10" y="366" class="label">ea.com</text>
<rect x="180" y="350" width="455.45" height="22" fill="#4c78a8" rx="3"/>
<text x="643.45" y="366" class="value">163.46</text>
<text x="10" y="398" class="label">community.akamai.steamstatic.com</text>
<rect x="180" y="382" width="459.32" height="22" fill="#4c78a8" rx="3"/>
<text x="647.3199999999999" y="398" class="value">164.85</text>
<text x="10" y="430" class="label">origin.com</text>
<rect x="180" y="414" width="462.67" height="22" fill="#4c78a8" rx="3"/>
<text x="650.6700000000001" y="430" class="value">166.05</text>
<text x="10" y="462" class="label">cdn.cloudflare.steamstatic.com</text>
<rect x="180" y="446" width="526.45" height="22" fill="#4c78a8" rx="3"/>
<text x="714.45" y="462" class="value">188.94</text>
<text x="10" y="494" class="label">cdn.akamai.steamstatic.com</text>
<rect x="180" y="478" width="580.0" height="22" fill="#4c78a8" rx="3"/>
<text x="768.0" y="494" class="value">208.16</text>
<line x1="180" y1="30" x2="180" y2="520" stroke="#ccc"/>
<line x1="180" y1="520" x2="760" y2="520" stroke="#ccc"/>
</svg>