<svg xmlns="http://www.w3.org/2000/svg" width="800" height="540">
<style> .label{font-family:DejaVu Sans,Verdana,Geneva,sans-serif;font-size:12px;fill:#333} .value{font-family:DejaVu Sans,Verdana,Geneva,sans-serif;font-size:12px;fill:#555} </style>
<text x="10" y="20" class="label">延迟柱状图（越低越好，Top 15），单位 ms</text>
<text x="10" y="46" class="label">rockstargames.com</text>
<rect x="180" y="30" width="187.14" height="22" fill="#4c78a8" rx="3"/>
<text x="375.14" y="46" class="value">71.99</text>
<text x="10" y="78" class="label">socialclub.rockstargames.com</text>
<rect x="180" y="62" width="211.03" height="22" fill="#4c78a8" rx="3"/>
<text x="399.03" y="78" class="value">81.18</text>
<text x="10" y="110" class="label">ea.com</text>
<rect x="180" y="94" width="286.52" height="22" fill="#4c78a8" rx="3"/>
<text x="474.52" y="110" class="value">110.22</text>
<text x="10" y="142" class="label">battle.net</text>
<rect x="180" y="126" width="312.41" height="22" fill="#4c78a8" rx="3"/>
<text x="500.41" y="142" class="value">120.18</text>
<text x="10" y="174" class="label">unrealengine.com</text>
<rect x="180" y="158" width="319.32" height="22" fill="#4c78a8" rx="3"/>
<text x="507.32" y="174" class="value">122.84</text>
<text x="10" y="206" class="label">ubi.com</text>
<rect x="180" y="190" width="323.95" height="22" fill="#4c78a8" rx="3"/>
<text x="511.95" y="206" class="value">124.62</text>
<text x="10" y="238" class="label">blizzard.com</text>
<rect x="180" y="222" width="350.0" height="22" fill="#4c78a8" rx="3"/>
<text x="538.0" y="238" class="value">134.64</text>
<text x="10" y="270" class="label">launcher-public-service-prod06.ol.epicgames.com</text>
<rect x="180" y="254" width="364.19" height="22" fill="#4c78a8" rx="3"/>
<text x="552.19" y="270" class="value">140.10</text>
<text x="10" y="302" class="label">steamcdn-a.akamaihd.net</text>
<rect x="180" y="286" width="451.58" height="22" fill="#4c78a8" rx="3"/>
<text x="639.5799999999999" y="302" class="value">173.72</text>
<text x="10" y="334" class="label">fortnite.com</text>
<rect x="180" y="318" width="469.21" height="22" fill="#4c78a8" rx="3"/>
<text x="657.21" y="334" class="value">180.50</text>
<text x="10" y="366" class="label">epicgames.com</text>
<rect x="180" y="350" width="474.82" height="22" fill="#4c78a8" rx="3"/>
<text x="662.8199999999999" y="366" class="value">182.66</text>
<text x="10" y="398" class="label">cdn.cloudflare.steamstatic.com</text>
<rect x="180" y="382" width="523.3" height="22" fill="#4c78a8" rx="3"/>
<text x="711.3" y="398" class="value">201.31</text>
<text x="10" y="430" class="label">origin.com</text>
<rect x="180" y="414" width="527.96" height="22" fill="#4c78a8" rx="3"/>
<text x="715.96" y="430" class="value">203.10</text>
<text x="10" y="462" class="label">easyanticheat.net</text>
<rect x="180" y="446" width="528.61" height="22" fill="#4c78a8" rx="3"/>
<text x="716.61" y="462" class="value">203.35</text>
<text x="10" y="494" class="label">ubisoft.com</text>
<rect x="180" y="478" width="580.0" height="22" fill="#4c78a8" rx="3"/>
<text x="768.0" y="494" class="value">223.12</text>
<line x1="180" y1="30" x2="180" y2="520" stroke="#ccc"/>
<line x1="180" y1="520" x2="760" y2="520" stroke="#ccc"/>
</svg>