<svg xmlns="http://www.w3.org/2000/svg" width="800" height="540">
<style> .label{font-family:DejaVu Sans,Verdana,Geneva,sans-serif;font-size:12px;fill:#333} .value{font-family:DejaVu Sans,Verdana,Geneva,sans-serif;font-size:12px;fill:#555} </style>
<text x="10" y="20" class="label">延迟柱状图（越低越好，Top 15），单位 ms</text>
<text x="10" y="46" class="label">battle.net</text>
<rect x="180" y="30" width="200.0" height="22" fill="#4c78a8" rx="3"/>
<text x="388.0" y="46" class="value">74.45</text>
<text x="10" y="78" class="label">eaassets-a.akamaihd.net</text>
<rect x="180" y="62" width="205.58" height="22" fill="#4c78a8" rx="3"/>
<text x="393.58000000000004" y="78" class="value">76.53</text>
<text x="10" y="110" class="label">ea.com</text>
<rect x="180" y="94" width="214.58" height="22" fill="#4c78a8" rx="3"/>
<text x="402.58000000000004" y="110" class="value">79.88</text>
<text x="10" y="142" class="label">rockstargames.com</text>
<rect x="180" y="126" width="246.55" height="22" fill="#4c78a8" rx="3"/>
<text x="434.55" y="142" class="value">91.78</text>
<text x="10" y="174" class="label">ubi.com</text>
<rect x="180" y="158" width="260.52" height="22" fill="#4c78a8" rx="3"/>
<text x="448.52" y="174" class="value">96.98</text>
<text x="10" y="206" class="label">socialclub.rockstargames.com</text>
<rect x="180" y="190" width="285.2" height="22" fill="#4c78a8" rx="3"/>
<text x="473.2" y="206" class="value">106.17</text>
<text x="10" y="238" class="label">ubisoft.com</text>
<rect x="180" y="222" width="396.31" height="22" fill="#4c78a8" rx="3"/>
<text x="584.31" y="238" class="value">147.53</text>
<text x="10" y="270" class="label">blizzard.com</text>
<rect x="180" y="254" width="408.99" height="22" fill="#4c78a8" rx="3"/>
<text x="596.99" y="270" class="value">152.25</text>
<text x="10" y="302" class="label">store.akamai.steamstatic.com</text>
<rect x="180" y="286" width="440.45" height="22" fill="#4c78a8" rx="3"/>
<text x="628.45" y="302" class="value">163.96</text>
<text x="10" y="334" class="label">unrealengine.com</text>
<rect x="180" y="318" width="508.33" height="22" fill="#4c78a8" rx="3"/>
<text x="696.3299999999999" y="334" class="value">189.23</text>
<text x="10" y="366" class="label">fortnite.com</text>
<rect x="180" y="350" width="517.36" height="22" fill="#4c78a8" rx="3"/>
<text x="705.36" y="366" class="value">192.59</text>
<text x="10" y="398" class="label">epicgames.com</text>
<rect x="180" y="382" width="528.75" height="22" fill="#4c78a8" rx="3"/>
<text x="716.75" y="398" class="value">196.83</text>
<text x="10" y="430" class="label">gog.com</text>
<rect x="180" y="414" width="567.64" height="22" fill="#4c78a8" rx="3"/>
<text x="755.64" y="430" class="value">211.31</text>
<text x="10" y="462" class="label">cdn.akamai.steamstatic.com</text>
<rect x="180" y="446" width="572.94" height="22" fill="#4c78a8" rx="3"/>
<text x="760.94" y="462" class="value">213.28</text>
<text x="10" y="494" class="label">community.akamai.steamstatic.com</text>
<rect x="180" y="478" width="580.0" height="22" fill="#4c78a8" rx="3"/>
<text x="768.0" y="494" class="value">215.91</text>
<line x1="180" y1="30" x2="180" y2="520" stroke="#ccc"/>
<line x1="180" y1="520" x2="760" y2="520" stroke="#ccc"/>
</svg>