<svg xmlns="http://www.w3.org/2000/svg" width="800" height="540">
<style> .label{font-family:DejaVu Sans,Verdana,Geneva,sans-serif;font-size:12px;fill:#333} .value{font-family:DejaVu Sans,Verdana,Geneva,sans-serif;font-size:12px;fill:#555} </style>
<text x="10" y="20" class="label">延迟柱状图（越低越好，Top 15），单位 ms</text>
<text x="10" y="46" class="label">rockstargames.com</text>
<rect x="180" y="30" width="180.59" height="22" fill="#4c78a8" rx="3"/>
<text x="368.59000000000003" y="46" class="value">90.28</text>
<text x="10" y="78" class="label">eaassets-a.akamaihd.net</text>
<rect x="180" y="62" width="258.08" height="22" fill="#4c78a8" rx="3"/>
<text x="446.08" y="78" class="value">129.02</text>
<text x="10" y="110" class="label">ea.com</text>
<rect x="180" y="94" width="298.45" height="22" fill="#4c78a8" rx="3"/>
<text x="486.45" y="110" class="value">149.20</text>
<text x="10" y="142" class="label">cdn.cloudflare.steamstatic.com</text>
<rect x="180" y="126" width="321.54" height="22" fill="#4c78a8" rx="3"/>
<text x="509.54" y="142" class="value">160.74</text>
<text x="10" y="174" class="label">steamcdn-a.akamaihd.net</text>
<rect x="180" y="158" width="330.74" height="22" fill="#4c78a8" rx="3"/>
<text x="518.74" y="174" class="value">165.34</text>
<text x="10" y="206" class="label">community.akamai.steamstatic.com</text>
<rect x="180" y="190" width="453.52" height="22" fill="#4c78a8" rx="3"/>
<text x="641.52" y="206" class="value">226.72</text>
<text x="10" y="238" class="label">store.akamai.steamstatic.com</text>
<rect x="180" y="222" width="459.18" height="22" fill="#4c78a8" rx="3"/>
<text x="647.1800000000001" y="238" class="value">229.55</text>
<text x="10" y="270" class="label">gog.com</text>
<rect x="180" y="254" width="491.92" height="22" fill="#4c78a8" rx="3"/>
<text x="679.9200000000001" y="270" class="value">245.92</text>
<text x="10" y="302" class="label">origin.com</text>
<rect x="180" y="286" width="501.75" height="22" fill="#4c78a8" rx="3"/>
<text x="689.75" y="302" class="value">250.83</text>
<text x="10" y="334" class="label">cdn.akamai.steamstatic.com</text>
<rect x="180" y="318" width="508.21" height="22" fill="#4c78a8" rx="3"/>
<text x="696.21" y="334" class="value">254.06</text>
<text x="10" y="366" class="label">steam-chat.com</text>
<rect x="180" y="350" width="526.79" height="22" fill="#4c78a8" rx="3"/>
<text x="714.79" y="366" class="value">263.35</text>
<text x="10" y="398" class="label">easyanticheat.net</text>
<rect x="180" y="382" width="569.2" height="22" fill="#4c78a8" rx="3"/>
<text x="757.2" y="398" class="value">284.55</text>
<text x="10" y="430" class="label">ubisoft.com</text>
<rect x="180" y="414" width="573.0" height="22" fill="#4c78a8" rx="3"/>
<text x="761.0" y="430" class="value">286.45</text>
<text x="10" y="462" class="label">api.steampowered.com</text>
<rect x="180" y="446" width="579.66" height="22" fill="#4c78a8" rx="3"/>
<text x="767.66" y="462" class="value">289.78</text>
<text x="10" y="494" class="label">launcher-public-service-prod06.ol.epicgames.com</text>
<rect x="180" y="478" width="580.0" height="22" fill="#4c78a8" rx="3"/>
<text x="768.0" y="494" class="value">289.95</text>
<line x1="180" y1="30" x2="180" y2="520" stroke="#ccc"/>
<line x1="180" y1="520" x2="760" y2="520" stroke="#ccc"/>
</svg>