<svg xmlns="http://www.w3.org/2000/svg" width="800" height="540">
<style> .label{font-family:DejaVu Sans,Verdana,Geneva,sans-serif;font-size:12px;fill:#333} .value{font-family:DejaVu Sans,Verdana,Geneva,sans-serif;font-size:12px;fill:#555} </style>
<text x="10" y="20" class="label">延迟柱状图（越低越好，Top 15），单位 ms</text>
<text x="10" y="46" class="label">rockstargames.com</text>
<rect x="180" y="30" width="150.65" height="22" fill="#4c78a8" rx="3"/>
<text x="338.65" y="46" class="value">75.13</text>
<text x="10" y="78" class="label">store.akamai.steamstatic.com</text>
<rect x="180" y="62" width="202.78" height="22" fill="#4c78a8" rx="3"/>
<text x="390.78" y="78" class="value">101.13</text>
<text x="10" y="110" class="label">ubisoft.com</text>
<rect x="180" y="94" width="205.79" height="22" fill="#4c78a8" rx="3"/>
<text x="393.78999999999996" y="110" class="value">102.63</text>
<text x="10" y="142" class="label">eaassets-a.akamaihd.net</text>
<rect x="180" y="126" width="230.22" height="22" fill="#4c78a8" rx="3"/>
<text x="418.22" y="142" class="value">114.81</text>
<text x="10" y="174" class="label">steamcdn-a.akamaihd.net</text>
<rect x="180" y="158" width="320.21" height="22" fill="#4c78a8" rx="3"/>
<text x="508.21" y="174" class="value">159.69</text>
<text x="10" y="206" class="label">ea.com</text>
<rect x="180" y="190" width="331.1" height="22" fill="#4c78a8" rx="3"/>
<text x="519.1" y="206" class="value">165.12</text>
<text x="10" y="238" class="label">cdn.cloudflare.steamstatic.com</text>
<rect x="180" y="222" width="362.3" height="22" fill="#4c78a8" rx="3"/>
<text x="550.3" y="238" class="value">180.68</text>
<text x="10" y="270" class="label">community.akamai.steamstatic.com</text>
<rect x="180" y="254" width="362.78" height="22" fill="#4c78a8" rx="3"/>
<text x="550.78" y="270" class="value">180.92</text>
<text x="10" y="302" class="label">cdn.akamai.steamstatic.com</text>
<rect x="180" y="286" width="438.39" height="22" fill="#4c78a8" rx="3"/>
<text x="626.39" y="302" class="value">218.63</text>
<text x="10" y="334" class="label">origin.com</text>
<rect x="180" y="318" width="442.62" height="22" fill="#4c78a8" rx="3"/>
<text x="630.62" y="334" class="value">220.74</text>
<text x="10" y="366" class="label">easyanticheat.net</text>
<rect x="180" y="350" width="452.71" height="22" fill="#4c78a8" rx="3"/>
<text x="640.71" y="366" class="value">225.77</text>
<text x="10" y="398" class="label">api.steampowered.com</text>
<rect x="180" y="382" width="510.46" height="22" fill="#4c78a8" rx="3"/>
<text x="698.46" y="398" class="value">254.57</text>
<text x="10" y="430" class="label">steam-chat.com</text>
<rect x="180" y="414" width="553.53" height="22" fill="#4c78a8" rx="3"/>
<text x="741.53" y="430" class="value">276.05</text>
<text x="10" y="462" class="label">ubi.com</text>
<rect x="180" y="446" width="575.81" height="22" fill="#4c78a8" rx="3"/>
<text x="763.81" y="462" class="value">287.16</text>
<text x="10" y="494" class="label">www.steamcommunity.com</text>
<rect x="180" y="478" width="580.0" height="22" fill="#4c78a8" rx="3"/>
<text x="768.0" y="494" class="value">289.25</text>
<line x1="180" y1="30" x2="180" y2="520" stroke="#ccc"/>
<line x1="180" y1="520" x2="760" y2="520" stroke="#ccc"/>
</svg>