<svg xmlns="http://www.w3.org/2000/svg" width="800" height="540">
<style> .label{font-family:DejaVu Sans,Verdana,Geneva,sans-serif;font-size:12px;fill:#333} .value{font-family:DejaVu Sans,Verdana,Geneva,sans-serif;font-size:12px;fill:#555} </style>
<text x="10" y="20" class="label">延迟柱状图（越低越好，Top 15），单位 ms</text>
<text x="10" y="46" class="label">eaassets-a.akamaihd.net</text>
<rect x="180" y="30" width="296.01" height="22" fill="#4c78a8" rx="3"/>
<text x="484.01" y="46" class="value">141.45</text>
<text x="10" y="78" class="label">store.akamai.steamstatic.com</text>
<rect x="180" y="62" width="342.44" height="22" fill="#4c78a8" rx="3"/>
<text x="530.44" y="78" class="value">163.64</text>
<text x="10" y="110" class="label">ea.com</text>
<rect x="180" y="94" width="357.05" height="22" fill="#4c78a8" rx="3"/>
<text x="545.05" y="110" class="value">170.62</text>
<text x="10" y="142" class="label">community.akamai.steamstatic.com</text>
<rect x="180" y="126" width="405.43" height="22" fill="#4c78a8" rx="3"/>
<text x="593.4300000000001" y="142" class="value">193.74</text>
<text x="10" y="174" class="label">ubi.com</text>
<rect x="180" y="158" width="425.73" height="22" fill="#4c78a8" rx="3"/>
<text x="613.73" y="174" class="value">203.44</text>
<text x="10" y="206" class="label">static3.cdn.ubi.com</text>
<rect x="180" y="190" width="426.04" height="22" fill="#4c78a8" rx="3"/>
<text x="614.04" y="206" class="value">203.59</text>
<text x="10" y="238" class="label">ubisoft.com</text>
<rect x="180" y="222" width="453.0" height="22" fill="#4c78a8" rx="3"/>
<text x="641.0" y="238" class="value">216.47</text>
<text x="10" y="270" class="label">rockstargames.com</text>
<rect x="180" y="254" width="456.37" height="22" fill="#4c78a8" rx="3"/>
<text x="644.37" y="270" class="value">218.08</text>
<text x="10" y="302" class="label">blizzard.com</text>
<rect x="180" y="286" width="459.3" height="22" fill="#4c78a8" rx="3"/>
<text x="647.3" y="302" class="value">219.48</text>
<text x="10" y="334" class="label">battle.net</text>
<rect x="180" y="318" width="479.41" height="22" fill="#4c78a8" rx="3"/>
<text x="667.4100000000001" y="334" class="value">229.09</text>
<text x="10" y="366" class="label">easyanticheat.net</text>
<rect x="180" y="350" width="503.66" height="22" fill="#4c78a8" rx="3"/>
<text x="691.6600000000001" y="366" class="value">240.68</text>
<text x="10" y="398" class="label">socialclub.rockstargames.com</text>
<rect x="180" y="382" width="504.16" height="22" fill="#4c78a8" rx="3"/>
<text x="692.1600000000001" y="398" class="value">240.92</text>
<text x="10" y="430" class="label">steamcdn-a.akamaihd.net</text>
<rect x="180" y="414" width="534.05" height="22" fill="#4c78a8" rx="3"/>
<text x="722.05" y="430" class="value">255.20</text>
<text x="10" y="462" class="label">steam-chat.com</text>
<rect x="180" y="446" width="568.51" height="22" fill="#4c78a8" rx="3"/>
<text x="756.51" y="462" class="value">271.67</text>
<text x="10" y="494" class="label">cdn.akamai.steamstatic.com</text>
<rect x="180" y="478" width="580.0" height="22" fill="#4c78a8" rx="3"/>
<text x="768.0" y="494" class="value">277.16</text>
<line x1="180" y1="30" x2="180" y2="520" stroke="#ccc"/>
<line x1="180" y1="520" x2="760" y2="520" stroke="#ccc"/>
</svg>