<svg xmlns="http://www.w3.org/2000/svg" width="800" height="540">
<style> .label{font-family:DejaVu Sans,Verdana,Geneva,sans-serif;font-size:12px;fill:#333} .value{font-family:DejaVu Sans,Verdana,Geneva,sans-serif;font-size:12px;fill:#555} </style>
<text x="10" y="20" class="label">延迟柱状图（越低越好，Top 15），单位 ms</text>
<text x="10" y="46" class="label">eaassets-a.akamaihd.net</text>
<rect x="180" y="30" width="103.98" height="22" fill="#4c78a8" rx="3"/>
<text x="291.98" y="46" class="value">48.56</text>
<text x="10" y="78" class="label">rockstargames.com</text>
<rect x="180" y="62" width="106.38" height="22" fill="#4c78a8" rx="3"/>
<text x="294.38" y="78" class="value">49.68</text>
<text x="10" y="110" class="label">ea.com</text>
<rect x="180" y="94" width="112.01" height="22" fill="#4c78a8" rx="3"/>
<text x="300.01" y="110" class="value">52.31</text>
<text x="10" y="142" class="label">steamcdn-a.akamaihd.net</text>
<rect x="180" y="126" width="273.24" height="22" fill="#4c78a8" rx="3"/>
<text x="461.24" y="142" class="value">127.61</text>
<text x="10" y="174" class="label">ubisoft.com</text>
<rect x="180" y="158" width="279.5" height="22" fill="#4c78a8" rx="3"/>
<text x="467.5" y="174" class="value">130.53</text>
<text x="10" y="206" class="label">community.akamai.steamstatic.com</text>
<rect x="180" y="190" width="346.11" height="22" fill="#4c78a8" rx="3"/>
<text x="534.11" y="206" class="value">161.64</text>
<text x="10" y="238" class="label">cdn.akamai.steamstatic.com</text>
<rect x="180" y="222" width="367.72" height="22" fill="#4c78a8" rx="3"/>
<text x="555.72" y="238" class="value">171.73</text>
<text x="10" y="270" class="label">cdn.cloudflare.steamstatic.com</text>
<rect x="180" y="254" width="384.29" height="22" fill="#4c78a8" rx="3"/>
<text x="572.29" y="270" class="value">179.47</text>
<text x="10" y="302" class="label">origin.com</text>
<rect x="180" y="286" width="403.45" height="22" fill="#4c78a8" rx="3"/>
<text x="591.45" y="302" class="value">188.42</text>
<text x="10" y="334" class="label">store.akamai.steamstatic.com</text>
<rect x="180" y="318" width="422.62" height="22" fill="#4c78a8" rx="3"/>
<text x="610.62" y="334" class="value">197.37</text>
<text x="10" y="366" class="label">easyanticheat.net</text>
<rect x="180" y="350" width="459.7" height="22" fill="#4c78a8" rx="3"/>
<text x="647.7" y="366" class="value">214.69</text>
<text x="10" y="398" class="label">steam-chat.com</text>
<rect x="180" y="382" width="535.7" height="22" fill="#4c78a8" rx="3"/>
<text x="723.7" y="398" class="value">250.18</text>
<text x="10" y="430" class="label">api.steampowered.com</text>
<rect x="180" y="414" width="547.97" height="22" fill="#4c78a8" rx="3"/>
<text x="735.97" y="430" class="value">255.91</text>
<text x="10" y="462" class="label">launcher-public-service-prod06.ol.epicgames.com</text>
<rect x="180" y="446" width="567.6" height="22" fill="#4c78a8" rx="3"/>
<text x="755.6" y="462" class="value">265.08</text>
<text x="10" y="494" class="label">www.steamcommunity.com</text>
<rect x="180" y="478" width="580.0" height="22" fill="#4c78a8" rx="3"/>
<text x="768.0" y="494" class="value">270.87</text>
<line x1="180" y1="30" x2="180" y2="520" stroke="#ccc"/>
<line x1="180" y1="520" x2="760" y2="520" stroke="#ccc"/>
</svg>