<svg xmlns="http://www.w3.org/2000/svg" width="800" height="540">
<style> .label{font-family:DejaVu Sans,Verdana,Geneva,sans-serif;font-size:12px;fill:#333} .value{font-family:DejaVu Sans,Verdana,Geneva,sans-serif;font-size:12px;fill:#555} </style>
<text x="10" y="20" class="label">延迟柱状图（越低越好，Top 15），单位 ms</text>
<text x="10" y="46" class="label">community.akamai.steamstatic.com</text>
<rect x="180" y="30" width="222.36" height="22" fill="#4c78a8" rx="3"/>
<text x="410.36" y="46" class="value">76.86</text>
<text x="10" y="78" class="label">eaassets-a.akamaihd.net</text>
<rect x="180" y="62" width="263.21" height="22" fill="#4c78a8" rx="3"/>
<text x="451.21" y="78" class="value">90.98</text>
<text x="10" y="110" class="label">store.akamai.steamstatic.com</text>
<rect x="180" y="94" width="281.96" height="22" fill="#4c78a8" rx="3"/>
<text x="469.96" y="110" class="value">97.46</text>
<text x="10" y="142" class="label">rockstargames.com</text>
<rect x="180" y="126" width="299.92" height="22" fill="#4c78a8" rx="3"/>
<text x="487.92" y="142" class="value">103.67</text>
<text x="10" y="174" class="label">ea.com</text>
<rect x="180" y="158" width="375.06" height="22" fill="#4c78a8" rx="3"/>
<text x="563.06" y="174" class="value">129.64</text>
<text x="10" y="206" class="label">ubisoft.com</text>
<rect x="180" y="190" width="375.72" height="22" fill="#4c78a8" rx="3"/>
<text x="563.72" y="206" class="value">129.87</text>
<text x="10" y="238" class="label">battle.net</text>
<rect x="180" y="222" width="417.55" height="22" fill="#4c78a8" rx="3"/>
<text x="605.55" y="238" class="value">144.33</text>
<text x="10" y="270" class="label">easyanticheat.net</text>
<rect x="180" y="254" width="422.47" height="22" fill="#4c78a8" rx="3"/>
<text x="610.47" y="270" class="value">146.03</text>
<text x="10" y="302" class="label">blizzard.com</text>
<rect x="180" y="286" width="435.95" height="22" fill="#4c78a8" rx="3"/>
<text x="623.95" y="302" class="value">150.69</text>
<text x="10" y="334" class="label">cdn.akamai.steamstatic.com</text>
<rect x="180" y="318" width="456.03" height="22" fill="#4c78a8" rx="3"/>
<text x="644.03" y="334" class="value">157.63</text>
<text x="10" y="366" class="label">origin.com</text>
<rect x="180" y="350" width="490.2" height="22" fill="#4c78a8" rx="3"/>
<text x="678.2" y="366" class="value">169.44</text>
<text x="10" y="398" class="label">ubi.com</text>
<rect x="180" y="382" width="531.74" height="22" fill="#4c78a8" rx="3"/>
<text x="719.74" y="398" class="value">183.80</text>
<text x="10" y="430" class="label">launcher-public-service-prod06.ol.epicgames.com</text>
<rect x="180" y="414" width="568.37" height="22" fill="#4c78a8" rx="3"/>
<text x="756.37" y="430" class="value">196.46</text>
<text x="10" y="462" class="label">socialclub.rockstargames.com</text>
<rect x="180" y="446" width="574.94" height="22" fill="#4c78a8" rx="3"/>
<text x="762.94" y="462" class="value">198.73</text>
<text x="10" y="494" class="label">static3.cdn.ubi.com</text>
<rect x="180" y="478" width="580.0" height="22" fill="#4c78a8" rx="3"/>
<text x="768.0" y="494" class="value">200.48</text>
<line x1="180" y1="30" x2="180" y2="520" stroke="#ccc"/>
<line x1="180" y1="520" x2="760" y2="520" stroke="#ccc"/>
</svg>