<svg xmlns="http://www.w3.org/2000/svg" width="800" height="540">
<style> .label{font-family:DejaVu Sans,Verdana,Geneva,sans-serif;font-size:12px;fill:#333} .value{font-family:DejaVu Sans,Verdana,Geneva,sans-serif;font-size:12px;fill:#555} </style>
<text x="10" y="20" class="label">延迟柱状图（越低越好，Top 15），单位 ms</text>
<text x="10" y="46" class="label">rockstargames.com</text>
<rect x="180" y="30" width="279.14" height="22" fill="#4c78a8" rx="3"/>
<text x="467.14" y="46" class="value">119.86</text>
<text x="10" y="78" class="label">community.akamai.steamstatic.com</text>
<rect x="180" y="62" width="285.7" height="22" fill="#4c78a8" rx="3"/>
<text x="473.7" y="78" class="value">122.68</text>
<text x="10" y="110" class="label">store.akamai.steamstatic.com</text>
<rect x="180" y="94" width="300.0" height="22" fill="#4c78a8" rx="3"/>
<text x="488.0" y="110" class="value">128.82</text>
<text x="10" y="142" class="label">steamcdn-a.akamaihd.net</text>
<rect x="180" y="126" width="314.14" height="22" fill="#4c78a8" rx="3"/>
<text x="502.14" y="142" class="value">134.89</text>
<text x="10" y="174" class="label">cdn.akamai.steamstatic.com</text>
<rect x="180" y="158" width="315.0" height="22" fill="#4c78a8" rx="3"/>
<text x="503.0" y="174" class="value">135.26</text>
<text x="10" y="206" class="label">ubisoft.com</text>
<rect x="180" y="190" width="319.61" height="22" fill="#4c78a8" rx="3"/>
<text x="507.61" y="206" class="value">137.24</text>
<text x="10" y="238" class="label">cdn.cloudflare.steamstatic.com</text>
<rect x="180" y="222" width="332.47" height="22" fill="#4c78a8" rx="3"/>
<text x="520.47" y="238" class="value">142.76</text>
<text x="10" y="270" class="label">eaassets-a.akamaihd.net</text>
<rect x="180" y="254" width="375.01" height="22" fill="#4c78a8" rx="3"/>
<text x="563.01" y="270" class="value">161.03</text>
<text x="10" y="302" class="label">easyanticheat.net</text>
<rect x="180" y="286" width="483.93" height="22" fill="#4c78a8" rx="3"/>
<text x="671.9300000000001" y="302" class="value">207.80</text>
<text x="10" y="334" class="label">ubi.com</text>
<rect x="180" y="318" width="485.98" height="22" fill="#4c78a8" rx="3"/>
<text x="673.98" y="334" class="value">208.68</text>
<text x="10" y="366" class="label">blizzard.com</text>
<rect x="180" y="350" width="542.9" height="22" fill="#4c78a8" rx="3"/>
<text x="730.9" y="366" class="value">233.12</text>
<text x="10" y="398" class="label">battle.net</text>
<rect x="180" y="382" width="550.94" height="22" fill="#4c78a8" rx="3"/>
<text x="738.94" y="398" class="value">236.57</text>
<text x="10" y="430" class="label">www.steamcommunity.com</text>
<rect x="180" y="414" width="558.85" height="22" fill="#4c78a8" rx="3"/>
<text x="746.85" y="430" class="value">239.97</text>
<text x="10" y="462" class="label">origin.com</text>
<rect x="180" y="446" width="567.96" height="22" fill="#4c78a8" rx="3"/>
<text x="755.96" y="462" class="value">243.88</text>
<text x="10" y="494" class="label">fortnite.com</text>
<rect x="180" y="478" width="580.0" height="22" fill="#4c78a8" rx="3"/>
<text x="768.0" y="494" class="value">249.05</text>
<line x1="180" y1="30" x2="180" y2="520" stroke="#ccc"/>
<line x1="180" y1="520" x2="760" y2="520" stroke="#ccc"/>
</svg>