<svg xmlns="http://www.w3.org/2000/svg" width="800" height="540">
<style> .label{font-family:DejaVu Sans,Verdana,Geneva,sans-serif;font-size:12px;fill:#333} .value{font-family:DejaVu Sans,Verdana,Geneva,sans-serif;font-size:12px;fill:#555} </style>
<text x="10" y="20" class="label">延迟柱状图（越低越好，Top 15），单位 ms</text>
<text x="10" y="46" class="label">eaassets-a.akamaihd.net</text>
<rect x="180" y="30" width="104.0" height="22" fill="#4c78a8" rx="3"/>
<text x="292.0" y="46" class="value">49.98</text>
<text x="10" y="78" class="label">rockstargames.com</text>
<rect x="180" y="62" width="140.29" height="22" fill="#4c78a8" rx="3"/>
<text x="328.28999999999996" y="78" class="value">67.42</text>
<text x="10" y="110" class="label">ea.com</text>
<rect x="180" y="94" width="165.47" height="22" fill="#4c78a8" rx="3"/>
<text x="353.47" y="110" class="value">79.52</text>
<text x="10" y="142" class="label">cdn.akamai.steamstatic.com</text>
<rect x="180" y="126" width="208.11" height="22" fill="#4c78a8" rx="3"/>
<text x="396.11" y="142" class="value">100.01</text>
<text x="10" y="174" class="label">origin.com</text>
<rect x="180" y="158" width="241.15" height="22" fill="#4c78a8" rx="3"/>
<text x="429.15" y="174" class="value">115.89</text>
<text x="10" y="206" class="label">ubisoft.com</text>
<rect x="180" y="190" width="264.08" height="22" fill="#4c78a8" rx="3"/>
<text x="452.08" y="206" class="value">126.91</text>
<text x="10" y="238" class="label">community.akamai.steamstatic.com</text>
<rect x="180" y="222" width="369.12" height="22" fill="#4c78a8" rx="3"/>
<text x="557.12" y="238" class="value">177.39</text>
<text x="10" y="270" class="label">store.akamai.steamstatic.com</text>
<rect x="180" y="254" width="398.71" height="22" fill="#4c78a8" rx="3"/>
<text x="586.71" y="270" class="value">191.61</text>
<text x="10" y="302" class="label">cdn.cloudflare.steamstatic.com</text>
<rect x="180" y="286" width="403.06" height="22" fill="#4c78a8" rx="3"/>
<text x="591.06" y="302" class="value">193.70</text>
<text x="10" y="334" class="label">api.steampowered.com</text>
<rect x="180" y="318" width="416.44" height="22" fill="#4c78a8" rx="3"/>
<text x="604.44" y="334" class="value">200.13</text>
<text x="10" y="366" class="label">steam-chat.com</text>
<rect x="180" y="350" width="428.76" height="22" fill="#4c78a8" rx="3"/>
<text x="616.76" y="366" class="value">206.05</text>
<text x="10" y="398" class="label">easyanticheat.net</text>
<rect x="180" y="382" width="496.41" height="22" fill="#4c78a8" rx="3"/>
<text x="684.4100000000001" y="398" class="value">238.56</text>
<text x="10" y="430" class="label">www.steamcommunity.com</text>
<rect x="180" y="414" width="518.12" height="22" fill="#4c78a8" rx="3"/>
<text x="706.12" y="430" class="value">248.99</text>
<text x="10" y="462" class="label">steamcdn-a.akamaihd.net</text>
<rect x="180" y="446" width="542.38" height="22" fill="#4c78a8" rx="3"/>
<text x="730.38" y="462" class="value">260.65</text>
<text x="10" y="494" class="label">launcher-public-service-prod06.ol.epicgames.com</text>
<rect x="180" y="478" width="580.0" height="22" fill="#4c78a8" rx="3"/>
<text x="768.0" y="494" class="value">278.73</text>
<line x1="180" y1="30" x2="180" y2="520" stroke="#ccc"/>
<line x1="180" y1="520" x2="760" y2="520" stroke="#ccc"/>
</svg>