<svg xmlns="http://www.w3.org/2000/svg" width="800" height="540">
<style> .label{font-family:DejaVu Sans,Verdana,Geneva,sans-serif;font-size:12px;fill:#333} .value{font-family:DejaVu Sans,Verdana,Geneva,sans-serif;font-size:12px;fill:#555} </style>
<text x="10" y="20" class="label">延迟柱状图（越低越好，Top 15），单位 ms</text>
<text x="10" y="46" class="label">eaassets-a.akamaihd.net</text>
<rect x="180" y="30" width="164.58" height="22" fill="#4c78a8" rx="3"/>
<text x="352.58000000000004" y="46" class="value">59.29</text>
<text x="10" y="78" class="label">epicgames.com</text>
<rect x="180" y="62" width="186.01" height="22" fill="#4c78a8" rx="3"/>
<text x="374.01" y="78" class="value">67.01</text>
<text x="10" y="110" class="label">socialclub.rockstargames.com</text>
<rect x="180" y="94" width="192.65" height="22" fill="#4c78a8" rx="3"/>
<text x="380.65" y="110" class="value">69.40</text>
<text x="10" y="142" class="label">blizzard.com</text>
<rect x="180" y="126" width="198.48" height="22" fill="#4c78a8" rx="3"/>
<text x="386.48" y="142" class="value">71.50</text>
<text x="10" y="174" class="label">rockstargames.com</text>
<rect x="180" y="158" width="238.37" height="22" fill="#4c78a8" rx="3"/>
<text x="426.37" y="174" class="value">85.87</text>
<text x="10" y="206" class="label">ubisoft.com</text>
<rect x="180" y="190" width="273.84" height="22" fill="#4c78a8" rx="3"/>
<text x="461.84" y="206" class="value">98.65</text>
<text x="10" y="238" class="label">battle.net</text>
<rect x="180" y="222" width="276.68" height="22" fill="#4c78a8" rx="3"/>
<text x="464.68" y="238" class="value">99.67</text>
<text x="10" y="270" class="label">cdn.akamai.steamstatic.com</text>
<rect x="180" y="254" width="338.19" height="22" fill="#4c78a8" rx="3"/>
<text x="526.19" y="270" class="value">121.83</text>
<text x="10" y="302" class="label">unrealengine.com</text>
<rect x="180" y="286" width="375.89" height="22" fill="#4c78a8" rx="3"/>
<text x="563.89" y="302" class="value">135.41</text>
<text x="10" y="334" class="label">ubi.com</text>
<rect x="180" y="318" width="392.79" height="22" fill="#4c78a8" rx="3"/>
<text x="580.79" y="334" class="value">141.50</text>
<text x="10" y="366" class="label">ea.com</text>
<rect x="180" y="350" width="408.92" height="22" fill="#4c78a8" rx="3"/>
<text x="596.9200000000001" y="366" class="value">147.31</text>
<text x="10" y="398" class="label">origin.com</text>
<rect x="180" y="382" width="409.39" height="22" fill="#4c78a8" rx="3"/>
<text x="597.39" y="398" class="value">147.48</text>
<text x="10" y="430" class="label">store.akamai.steamstatic.com</text>
<rect x="180" y="414" width="448.01" height="22" fill="#4c78a8" rx="3"/>
<text x="636.01" y="430" class="value">161.39</text>
<text x="10" y="462" class="label">steamcdn-a.akamaihd.net</text>
<rect x="180" y="446" width="500.08" height="22" fill="#4c78a8" rx="3"/>
<text x="688.0799999999999" y="462" class="value">180.15</text>
<text x="10" y="494" class="label">fortnite.com</text>
<rect x="180" y="478" width="580.0" height="22" fill="#4c78a8" rx="3"/>
<text x="768.0" y="494" class="value">208.94</text>
<line x1="180" y1="30" x2="180" y2="520" stroke="#ccc"/>
<line x1="180" y1="520" x2="760" y2="520" stroke="#ccc"/>
</svg>