<svg xmlns="http://www.w3.org/2000/svg" width="800" height="540">
<style> .label{font-family:DejaVu Sans,Verdana,Geneva,sans-serif;font-size:12px;fill:#333} .value{font-family:DejaVu Sans,Verdana,Geneva,sans-serif;font-size:12px;fill:#555} </style>
<text x="10" y="20" class="label">延迟柱状图（越低越好，Top 15），单位 ms</text>
<text x="10" y="46" class="label">rockstargames.com</text>
<rect x="180" y="30" width="175.74" height="22" fill="#4c78a8" rx="3"/>
<text x="363.74" y="46" class="value">65.48</text>
<text x="10" y="78" class="label">epicgames.com</text>
<rect x="180" y="62" width="208.13" height="22" fill="#4c78a8" rx="3"/>
<text x="396.13" y="78" class="value">77.55</text>
<text x="10" y="110" class="label">socialclub.rockstargames.com</text>
<rect x="180" y="94" width="211.3" height="22" fill="#4c78a8" rx="3"/>
<text x="399.3" y="110" class="value">78.73</text>
<text x="10" y="142" class="label">ea.com</text>
<rect x="180" y="126" width="249.89" height="22" fill="#4c78a8" rx="3"/>
<text x="437.89" y="142" class="value">93.11</text>
<text x="10" y="174" class="label">blizzard.com</text>
<rect x="180" y="158" width="265.27" height="22" fill="#4c78a8" rx="3"/>
<text x="453.27" y="174" class="value">98.84</text>
<text x="10" y="206" class="label">eaassets-a.akamaihd.net</text>
<rect x="180" y="190" width="265.4" height="22" fill="#4c78a8" rx="3"/>
<text x="453.4" y="206" class="value">98.89</text>
<text x="10" y="238" class="label">ubi.com</text>
<rect x="180" y="222" width="276.89" height="22" fill="#4c78a8" rx="3"/>
<text x="464.89" y="238" class="value">103.17</text>
<text x="10" y="270" class="label">battle.net</text>
<rect x="180" y="254" width="309.52" height="22" fill="#4c78a8" rx="3"/>
<text x="497.52" y="270" class="value">115.33</text>
<text x="10" y="302" class="label">fortnite.com</text>
<rect x="180" y="286" width="333.17" height="22" fill="#4c78a8" rx="3"/>
<text x="521.1700000000001" y="302" class="value">124.14</text>
<text x="10" y="334" class="label">unrealengine.com</text>
<rect x="180" y="318" width="380.38" height="22" fill="#4c78a8" rx="3"/>
<text x="568.38" y="334" class="value">141.73</text>
<text x="10" y="366" class="label">store.akamai.steamstatic.com</text>
<rect x="180" y="350" width="413.09" height="22" fill="#4c78a8" rx="3"/>
<text x="601.0899999999999" y="366" class="value">153.92</text>
<text x="10" y="398" class="label">community.akamai.steamstatic.com</text>
<rect x="180" y="382" width="494.01" height="22" fill="#4c78a8" rx="3"/>
<text x="682.01" y="398" class="value">184.07</text>
<text x="10" y="430" class="label">static3.cdn.ubi.com</text>
<rect x="180" y="414" width="514.33" height="22" fill="#4c78a8" rx="3"/>
<text x="702.33" y="430" class="value">191.64</text>
<text x="10" y="462" class="label">origin.com</text>
<rect x="180" y="446" width="558.37" height="22" fill="#4c78a8" rx="3"/>
<text x="746.37" y="462" class="value">208.05</text>
<text x="10" y="494" class="label">cdn.cloudflare.steamstatic.com</text>
<rect x="180" y="478" width="580.0" height="22" fill="#4c78a8" rx="3"/>
<text x="768.0" y="494" class="value">216.11</text>
<line x1="180" y1="30" x2="180" y2="520" stroke="#ccc"/>
<line x1="180" y1="520" x2="760" y2="520" stroke="#ccc"/>
</svg>