<svg xmlns="http://www.w3.org/2000/svg" width="800" height="540">
<style> .label{font-family:DejaVu Sans,Verdana,Geneva,sans-serif;font-size:12px;fill:#333} .value{font-family:DejaVu Sans,Verdana,Geneva,sans-serif;font-size:12px;fill:#555} </style>
<text x="10" y="20" class="label">延迟柱状图（越低越好，Top 15），单位 ms</text>
<text x="10" y="46" class="label">rockstargames.com</text>
<rect x="180" y="30" width="245.61" height="22" fill="#4c78a8" rx="3"/>
<text x="433.61" y="46" class="value">93.94</text>
<text x="10" y="78" class="label">ea.com</text>
<rect x="180" y="62" width="262.52" height="22" fill="#4c78a8" rx="3"/>
<text x="450.52" y="78" class="value">100.41</text>
<text x="10" y="110" class="label">cdn.akamai.steamstatic.com</text>
<rect x="180" y="94" width="278.18" height="22" fill="#4c78a8" rx="3"/>
<text x="466.18" y="110" class="value">106.40</text>
<text x="10" y="142" class="label">steamcdn-a.akamaihd.net</text>
<rect x="180" y="126" width="284.69" height="22" fill="#4c78a8" rx="3"/>
<text x="472.69" y="142" class="value">108.89</text>
<text x="10" y="174" class="label">ubisoft.com</text>
<rect x="180" y="158" width="351.99" height="22" fill="#4c78a8" rx="3"/>
<text x="539.99" y="174" class="value">134.63</text>
<text x="10" y="206" class="label">socialclub.rockstargames.com</text>
<rect x="180" y="190" width="386.14" height="22" fill="#4c78a8" rx="3"/>
<text x="574.14" y="206" class="value">147.69</text>
<text x="10" y="238" class="label">blizzard.com</text>
<rect x="180" y="222" width="387.81" height="22" fill="#4c78a8" rx="3"/>
<text x="575.81" y="238" class="value">148.33</text>
<text x="10" y="270" class="label">battle.net</text>
<rect x="180" y="254" width="405.35" height="22" fill="#4c78a8" rx="3"/>
<text x="593.35" y="270" class="value">155.04</text>
<text x="10" y="302" class="label">easyanticheat.net</text>
<rect x="180" y="286" width="421.85" height="22" fill="#4c78a8" rx="3"/>
<text x="609.85" y="302" class="value">161.35</text>
<text x="10" y="334" class="label">store.akamai.steamstatic.com</text>
<rect x="180" y="318" width="433.59" height="22" fill="#4c78a8" rx="3"/>
<text x="621.5899999999999" y="334" class="value">165.84</text>
<text x="10" y="366" class="label">origin.com</text>
<rect x="180" y="350" width="457.98" height="22" fill="#4c78a8" rx="3"/>
<text x="645.98" y="366" class="value">175.17</text>
<text x="10" y="398" class="label">ubi.com</text>
<rect x="180" y="382" width="460.18" height="22" fill="#4c78a8" rx="3"/>
<text x="648.1800000000001" y="398" class="value">176.01</text>
<text x="10" y="430" class="label">community.akamai.steamstatic.com</text>
<rect x="180" y="414" width="472.7" height="22" fill="#4c78a8" rx="3"/>
<text x="660.7" y="430" class="value">180.80</text>
<text x="10" y="462" class="label">eaassets-a.akamaihd.net</text>
<rect x="180" y="446" width="548.94" height="22" fill="#4c78a8" rx="3"/>
<text x="736.94" y="462" class="value">209.96</text>
<text x="10" y="494" class="label">cdn.cloudflare.steamstatic.com</text>
<rect x="180" y="478" width="580.0" height="22" fill="#4c78a8" rx="3"/>
<text x="768.0" y="494" class="value">221.84</text>
<line x1="180" y1="30" x2="180" y2="520" stroke="#ccc"/>
<line x1="180" y1="520" x2="760" y2="520" stroke="#ccc"/>
</svg>