<svg xmlns="http://www.w3.org/2000/svg" width="800" height="540">
<style> .label{font-family:DejaVu Sans,Verdana,Geneva,sans-serif;font-size:12px;fill:#333} .value{font-family:DejaVu Sans,Verdana,Geneva,sans-serif;font-size:12px;fill:#555} </style>
<text x="10" y="20" class="label">延迟柱状图（越低越好，Top 15），单位 ms</text>
<text x="10" y="46" class="label">unrealengine.com</text>
<rect x="180" y="30" width="248.38" height="22" fill="#4c78a8" rx="3"/>
<text x="436.38" y="46" class="value">84.38</text>
<text x="10" y="78" class="label">store.akamai.steamstatic.com</text>
<rect x="180" y="62" width="260.62" height="22" fill="#4c78a8" rx="3"/>
<text x="448.62" y="78" class="value">88.54</text>
<text x="10" y="110" class="label">socialclub.rockstargames.com</text>
<rect x="180" y="94" width="266.27" height="22" fill="#4c78a8" rx="3"/>
<text x="454.27" y="110" class="value">90.46</text>
<text x="10" y="142" class="label">api.steampowered.com</text>
<rect x="180" y="126" width="271.81" height="22" fill="#4c78a8" rx="3"/>
<text x="459.81" y="142" class="value">92.34</text>
<text x="10" y="174" class="label">ubi.com</text>
<rect x="180" y="158" width="292.21" height="22" fill="#4c78a8" rx="3"/>
<text x="480.21" y="174" class="value">99.27</text>
<text x="10" y="206" class="label">blizzard.com</text>
<rect x="180" y="190" width="300.77" height="22" fill="#4c78a8" rx="3"/>
<text x="488.77" y="206" class="value">102.18</text>
<text x="10" y="238" class="label">rockstargames.com</text>
<rect x="180" y="222" width="308.07" height="22" fill="#4c78a8" rx="3"/>
<text x="496.07" y="238" class="value">104.66</text>
<text x="10" y="270" class="label">ea.com</text>
<rect x="180" y="254" width="338.89" height="22" fill="#4c78a8" rx="3"/>
<text x="526.89" y="270" class="value">115.13</text>
<text x="10" y="302" class="label">battle.net</text>
<rect x="180" y="286" width="415.19" height="22" fill="#4c78a8" rx="3"/>
<text x="603.19" y="302" class="value">141.05</text>
<text x="10" y="334" class="label">eaassets-a.akamaihd.net</text>
<rect x="180" y="318" width="446.21" height="22" fill="#4c78a8" rx="3"/>
<text x="634.21" y="334" class="value">151.59</text>
<text x="10" y="366" class="label">cdn.cloudflare.steamstatic.com</text>
<rect x="180" y="350" width="453.22" height="22" fill="#4c78a8" rx="3"/>
<text x="641.22" y="366" class="value">153.97</text>
<text x="10" y="398" class="label">easyanticheat.net</text>
<rect x="180" y="382" width="491.63" height="22" fill="#4c78a8" rx="3"/>
<text x="679.63" y="398" class="value">167.02</text>
<text x="10" y="430" class="label">community.akamai.steamstatic.com</text>
<rect x="180" y="414" width="522.31" height="22" fill="#4c78a8" rx="3"/>
<text x="710.31" y="430" class="value">177.44</text>
<text x="10" y="462" class="label">epicgames.com</text>
<rect x="180" y="446" width="562.54" height="22" fill="#4c78a8" rx="3"/>
<text x="750.54" y="462" class="value">191.11</text>
<text x="10" y="494" class="label">origin.com</text>
<rect x="180" y="478" width="580.0" height="22" fill="#4c78a8" rx="3"/>
<text x="768.0" y="494" class="value">197.04</text>
<line x1="180" y1="30" x2="180" y2="520" stroke="#ccc"/>
<line x1="180" y1="520" x2="760" y2="520" stroke="#ccc"/>
</svg>