<svg xmlns="http://www.w3.org/2000/svg" width="800" height="540">
<style> .label{font-family:DejaVu Sans,Verdana,Geneva,sans-serif;font-size:12px;fill:#333} .value{font-family:DejaVu Sans,Verdana,Geneva,sans-serif;font-size:12px;fill:#555} </style>
<text x="10" y="20" class="label">延迟柱状图（越低越好，Top 15），单位 ms</text>
<text x="10" y="46" class="label">eaassets-a.akamaihd.net</text>
<rect x="180" y="30" width="138.68" height="22" fill="#4c78a8" rx="3"/>
<text x="326.68" y="46" class="value">54.17</text>
<text x="10" y="78" class="label">rockstargames.com</text>
<rect x="180" y="62" width="182.58" height="22" fill="#4c78a8" rx="3"/>
<text x="370.58000000000004" y="78" class="value">71.32</text>
<text x="10" y="110" class="label">ea.com</text>
<rect x="180" y="94" width="254.03" height="22" fill="#4c78a8" rx="3"/>
<text x="442.03" y="110" class="value">99.23</text>
<text x="10" y="142" class="label">store.akamai.steamstatic.com</text>
<rect x="180" y="126" width="277.02" height="22" fill="#4c78a8" rx="3"/>
<text x="465.02" y="142" class="value">108.21</text>
<text x="10" y="174" class="label">battle.net</text>
<rect x="180" y="158" width="314.5" height="22" fill="#4c78a8" rx="3"/>
<text x="502.5" y="174" class="value">122.85</text>
<text x="10" y="206" class="label">blizzard.com</text>
<rect x="180" y="190" width="334.88" height="22" fill="#4c78a8" rx="3"/>
<text x="522.88" y="206" class="value">130.81</text>
<text x="10" y="238" class="label">ubi.com</text>
<rect x="180" y="222" width="340.56" height="22" fill="#4c78a8" rx="3"/>
<text x="528.56" y="238" class="value">133.03</text>
<text x="10" y="270" class="label">socialclub.rockstargames.com</text>
<rect x="180" y="254" width="358.89" height="22" fill="#4c78a8" rx="3"/>
<text x="546.89" y="270" class="value">140.19</text>
<text x="10" y="302" class="label">community.akamai.steamstatic.com</text>
<rect x="180" y="286" width="396.8" height="22" fill="#4c78a8" rx="3"/>
<text x="584.8" y="302" class="value">155.00</text>
<text x="10" y="334" class="label">static3.cdn.ubi.com</text>
<rect x="180" y="318" width="403.79" height="22" fill="#4c78a8" rx="3"/>
<text x="591.79" y="334" class="value">157.73</text>
<text x="10" y="366" class="label">origin.com</text>
<rect x="180" y="350" width="432.29" height="22" fill="#4c78a8" rx="3"/>
<text x="620.29" y="366" class="value">168.86</text>
<text x="10" y="398" class="label">gog.com</text>
<rect x="180" y="382" width="482.26" height="22" fill="#4c78a8" rx="3"/>
<text x="670.26" y="398" class="value">188.38</text>
<text x="10" y="430" class="label">steamcdn-a.akamaihd.net</text>
<rect x="180" y="414" width="484.84" height="22" fill="#4c78a8" rx="3"/>
<text x="672.8399999999999" y="430" class="value">189.39</text>
<text x="10" y="462" class="label">ubisoft.com</text>
<rect x="180" y="446" width="550.99" height="22" fill="#4c78a8" rx="3"/>
<text x="738.99" y="462" class="value">215.23</text>
<text x="10" y="494" class="label">cdn.akamai.steamstatic.com</text>
<rect x="180" y="478" width="580.0" height="22" fill="#4c78a8" rx="3"/>
<text x="768.0" y="494" class="value">226.56</text>
<line x1="180" y1="30" x2="180" y2="520" stroke="#ccc"/>
<line x1="180" y1="520" x2="760" y2="520" stroke="#ccc"/>
</svg>