<svg xmlns="http://www.w3.org/2000/svg" width="800" height="540">
<style> .label{font-family:DejaVu Sans,Verdana,Geneva,sans-serif;font-size:12px;fill:#333} .value{font-family:DejaVu Sans,Verdana,Geneva,sans-serif;font-size:12px;fill:#555} </style>
<text x="10" y="20" class="label">延迟柱状图（越低越好，Top 15），单位 ms</text>
<text x="10" y="46" class="label">eaassets-a.akamaihd.net</text>
<rect x="180" y="30" width="176.15" height="22" fill="#4c78a8" rx="3"/>
<text x="364.15" y="46" class="value">63.36</text>
<text x="10" y="78" class="label">rockstargames.com</text>
<rect x="180" y="62" width="217.88" height="22" fill="#4c78a8" rx="3"/>
<text x="405.88" y="78" class="value">78.37</text>
<text x="10" y="110" class="label">socialclub.rockstargames.com</text>
<rect x="180" y="94" width="226.92" height="22" fill="#4c78a8" rx="3"/>
<text x="414.91999999999996" y="110" class="value">81.62</text>
<text x="10" y="142" class="label">ubisoft.com</text>
<rect x="180" y="126" width="266.62" height="22" fill="#4c78a8" rx="3"/>
<text x="454.62" y="142" class="value">95.90</text>
<text x="10" y="174" class="label">battle.net</text>
<rect x="180" y="158" width="268.62" height="22" fill="#4c78a8" rx="3"/>
<text x="456.62" y="174" class="value">96.62</text>
<text x="10" y="206" class="label">blizzard.com</text>
<rect x="180" y="190" width="325.67" height="22" fill="#4c78a8" rx="3"/>
<text x="513.6700000000001" y="206" class="value">117.14</text>
<text x="10" y="238" class="label">ubi.com</text>
<rect x="180" y="222" width="346.08" height="22" fill="#4c78a8" rx="3"/>
<text x="534.0799999999999" y="238" class="value">124.48</text>
<text x="10" y="270" class="label">epicgames.com</text>
<rect x="180" y="254" width="432.01" height="22" fill="#4c78a8" rx="3"/>
<text x="620.01" y="270" class="value">155.39</text>
<text x="10" y="302" class="label">fortnite.com</text>
<rect x="180" y="286" width="444.72" height="22" fill="#4c78a8" rx="3"/>
<text x="632.72" y="302" class="value">159.96</text>
<text x="10" y="334" class="label">ea.com</text>
<rect x="180" y="318" width="454.59" height="22" fill="#4c78a8" rx="3"/>
<text x="642.5899999999999" y="334" class="value">163.51</text>
<text x="10" y="366" class="label">static3.cdn.ubi.com</text>
<rect x="180" y="350" width="472.13" height="22" fill="#4c78a8" rx="3"/>
<text x="660.13" y="366" class="value">169.82</text>
<text x="10" y="398" class="label">origin.com</text>
<rect x="180" y="382" width="489.34" height="22" fill="#4c78a8" rx="3"/>
<text x="677.3399999999999" y="398" class="value">176.01</text>
<text x="10" y="430" class="label">cdn.akamai.steamstatic.com</text>
<rect x="180" y="414" width="498.37" height="22" fill="#4c78a8" rx="3"/>
<text x="686.37" y="430" class="value">179.26</text>
<text x="10" y="462" class="label">steamcdn-a.akamaihd.net</text>
<rect x="180" y="446" width="524.92" height="22" fill="#4c78a8" rx="3"/>
<text x="712.92" y="462" class="value">188.81</text>
<text x="10" y="494" class="label">unrealengine.com</text>
<rect x="180" y="478" width="580.0" height="22" fill="#4c78a8" rx="3"/>
<text x="768.0" y="494" class="value">208.62</text>
<line x1="180" y1="30" x2="180" y2="520" stroke="#ccc"/>
<line x1="180" y1="520" x2="760" y2="520" stroke="#ccc"/>
</svg>