<svg xmlns="http://www.w3.org/2000/svg" width="800" height="540">
<style> .label{font-family:DejaVu Sans,Verdana,Geneva,sans-serif;font-size:12px;fill:#333} .value{font-family:DejaVu Sans,Verdana,Geneva,sans-serif;font-size:12px;fill:#555} </style>
<text x="10" y="20" class="label">延迟柱状图（越低越好，Top 15），单位 ms</text>
<text x="10" y="46" class="label">eaassets-a.akamaihd.net</text>
<rect x="180" y="30" width="207.38" height="22" fill="#4c78a8" rx="3"/>
<text x="395.38" y="46" class="value">74.54</text>
<text x="10" y="78" class="label">origin.com</text>
<rect x="180" y="62" width="219.04" height="22" fill="#4c78a8" rx="3"/>
<text x="407.03999999999996" y="78" class="value">78.73</text>
<text x="10" y="110" class="label">ubisoft.com</text>
<rect x="180" y="94" width="280.58" height="22" fill="#4c78a8" rx="3"/>
<text x="468.58" y="110" class="value">100.85</text>
<text x="10" y="142" class="label">steamcdn-a.akamaihd.net</text>
<rect x="180" y="126" width="313.11" height="22" fill="#4c78a8" rx="3"/>
<text x="501.11" y="142" class="value">112.54</text>
<text x="10" y="174" class="label">community.akamai.steamstatic.com</text>
<rect x="180" y="158" width="316.06" height="22" fill="#4c78a8" rx="3"/>
<text x="504.06" y="174" class="value">113.60</text>
<text x="10" y="206" class="label">rockstargames.com</text>
<rect x="180" y="190" width="340.45" height="22" fill="#4c78a8" rx="3"/>
<text x="528.45" y="206" class="value">122.37</text>
<text x="10" y="238" class="label">socialclub.rockstargames.com</text>
<rect x="180" y="222" width="386.58" height="22" fill="#4c78a8" rx="3"/>
<text x="574.5799999999999" y="238" class="value">138.95</text>
<text x="10" y="270" class="label">cdn.cloudflare.steamstatic.com</text>
<rect x="180" y="254" width="388.89" height="22" fill="#4c78a8" rx="3"/>
<text x="576.89" y="270" class="value">139.78</text>
<text x="10" y="302" class="label">blizzard.com</text>
<rect x="180" y="286" width="389.53" height="22" fill="#4c78a8" rx="3"/>
<text x="577.53" y="302" class="value">140.01</text>
<text x="10" y="334" class="label">ubi.com</text>
<rect x="180" y="318" width="398.91" height="22" fill="#4c78a8" rx="3"/>
<text x="586.9100000000001" y="334" class="value">143.38</text>
<text x="10" y="366" class="label">battle.net</text>
<rect x="180" y="350" width="441.14" height="22" fill="#4c78a8" rx="3"/>
<text x="629.14" y="366" class="value">158.56</text>
<text x="10" y="398" class="label">launcher-public-service-prod06.ol.epicgames.com</text>
<rect x="180" y="382" width="518.43" height="22" fill="#4c78a8" rx="3"/>
<text x="706.43" y="398" class="value">186.34</text>
<text x="10" y="430" class="label">static3.cdn.ubi.com</text>
<rect x="180" y="414" width="542.94" height="22" fill="#4c78a8" rx="3"/>
<text x="730.94" y="430" class="value">195.15</text>
<text x="10" y="462" class="label">store.akamai.steamstatic.com</text>
<rect x="180" y="446" width="556.35" height="22" fill="#4c78a8" rx="3"/>
<text x="744.35" y="462" class="value">199.97</text>
<text x="10" y="494" class="label">cdn.akamai.steamstatic.com</text>
<rect x="180" y="478" width="580.0" height="22" fill="#4c78a8" rx="3"/>
<text x="768.0" y="494" class="value">208.47</text>
<line x1="180" y1="30" x2="180" y2="520" stroke="#ccc"/>
<line x1="180" y1="520" x2="760" y2="520" stroke="#ccc"/>
</svg>