<svg xmlns="http://www.w3.org/2000/svg" width="800" height="540">
<style> .label{font-family:DejaVu Sans,Verdana,Geneva,sans-serif;font-size:12px;fill:#333} .value{font-family:DejaVu Sans,Verdana,Geneva,sans-serif;font-size:12px;fill:#555} </style>
<text x="10" y="20" class="label">延迟柱状图（越低越好，Top 15），单位 ms</text>
<text x="10" y="46" class="label">eaassets-a.akamaihd.net</text>
<rect x="180" y="30" width="91.9" height="22" fill="#4c78a8" rx="3"/>
<text x="279.9" y="46" class="value">38.08</text>
<text x="10" y="78" class="label">rockstargames.com</text>
<rect x="180" y="62" width="153.19" height="22" fill="#4c78a8" rx="3"/>
<text x="341.19" y="78" class="value">63.48</text>
<text x="10" y="110" class="label">community.akamai.steamstatic.com</text>
<rect x="180" y="94" width="214.95" height="22" fill="#4c78a8" rx="3"/>
<text x="402.95" y="110" class="value">89.07</text>
<text x="10" y="142" class="label">ea.com</text>
<rect x="180" y="126" width="222.77" height="22" fill="#4c78a8" rx="3"/>
<text x="410.77" y="142" class="value">92.31</text>
<text x="10" y="174" class="label">steamcdn-a.akamaihd.net</text>
<rect x="180" y="158" width="242.29" height="22" fill="#4c78a8" rx="3"/>
<text x="430.28999999999996" y="174" class="value">100.40</text>
<text x="10" y="206" class="label">origin.com</text>
<rect x="180" y="190" width="305.86" height="22" fill="#4c78a8" rx="3"/>
<text x="493.86" y="206" class="value">126.74</text>
<text x="10" y="238" class="label">cdn.akamai.steamstatic.com</text>
<rect x="180" y="222" width="316.84" height="22" fill="#4c78a8" rx="3"/>
<text x="504.84" y="238" class="value">131.29</text>
<text x="10" y="270" class="label">ubisoft.com</text>
<rect x="180" y="254" width="350.09" height="22" fill="#4c78a8" rx="3"/>
<text x="538.0899999999999" y="270" class="value">145.07</text>
<text x="10" y="302" class="label">store.akamai.steamstatic.com</text>
<rect x="180" y="286" width="416.6" height="22" fill="#4c78a8" rx="3"/>
<text x="604.6" y="302" class="value">172.63</text>
<text x="10" y="334" class="label">cdn.cloudflare.steamstatic.com</text>
<rect x="180" y="318" width="448.79" height="22" fill="#4c78a8" rx="3"/>
<text x="636.79" y="334" class="value">185.97</text>
<text x="10" y="366" class="label">gog.com</text>
<rect x="180" y="350" width="471.43" height="22" fill="#4c78a8" rx="3"/>
<text x="659.4300000000001" y="366" class="value">195.35</text>
<text x="10" y="398" class="label">easyanticheat.net</text>
<rect x="180" y="382" width="518.9" height="22" fill="#4c78a8" rx="3"/>
<text x="706.9" y="398" class="value">215.02</text>
<text x="10" y="430" class="label">steam-chat.com</text>
<rect x="180" y="414" width="547.04" height="22" fill="#4c78a8" rx="3"/>
<text x="735.04" y="430" class="value">226.68</text>
<text x="10" y="462" class="label">launcher-public-service-prod06.ol.epicgames.com</text>
<rect x="180" y="446" width="565.06" height="22" fill="#4c78a8" rx="3"/>
<text x="753.06" y="462" class="value">234.15</text>
<text x="10" y="494" class="label">www.steamcommunity.com</text>
<rect x="180" y="478" width="580.0" height="22" fill="#4c78a8" rx="3"/>
<text x="768.0" y="494" class="value">240.34</text>
<line x1="180" y1="30" x2="180" y2="520" stroke="#ccc"/>
<line x1="180" y1="520" x2="760" y2="520" stroke="#ccc"/>
</svg>