<svg xmlns="http://www.w3.org/2000/svg" width="800" height="540">
<style> .label{font-family:DejaVu Sans,Verdana,Geneva,sans-serif;font-size:12px;fill:#333} .value{font-family:DejaVu Sans,Verdana,Geneva,sans-serif;font-size:12px;fill:#555} </style>
<text x="10" y="20" class="label">延迟柱状图（越低越好，Top 15），单位 ms</text>
<text x="10" y="46" class="label">rockstargames.com</text>
<rect x="180" y="30" width="178.42" height="22" fill="#4c78a8" rx="3"/>
<text x="366.41999999999996" y="46" class="value">57.81</text>
<text x="10" y="78" class="label">epicgames.com</text>
<rect x="180" y="62" width="285.36" height="22" fill="#4c78a8" rx="3"/>
<text x="473.36" y="78" class="value">92.46</text>
<text x="10" y="110" class="label">eaassets-a.akamaihd.net</text>
<rect x="180" y="94" width="295.63" height="22" fill="#4c78a8" rx="3"/>
<text x="483.63" y="110" class="value">95.79</text>
<text x="10" y="142" class="label">battle.net</text>
<rect x="180" y="126" width="298.78" height="22" fill="#4c78a8" rx="3"/>
<text x="486.78" y="142" class="value">96.81</text>
<text x="10" y="174" class="label">socialclub.rockstargames.com</text>
<rect x="180" y="158" width="312.11" height="22" fill="#4c78a8" rx="3"/>
<text x="500.11" y="174" class="value">101.13</text>
<text x="10" y="206" class="label">blizzard.com</text>
<rect x="180" y="190" width="315.79" height="22" fill="#4c78a8" rx="3"/>
<text x="503.79" y="206" class="value">102.32</text>
<text x="10" y="238" class="label">ubi.com</text>
<rect x="180" y="222" width="329.03" height="22" fill="#4c78a8" rx="3"/>
<text x="517.03" y="238" class="value">106.61</text>
<text x="10" y="270" class="label">ubisoft.com</text>
<rect x="180" y="254" width="417.85" height="22" fill="#4c78a8" rx="3"/>
<text x="605.85" y="270" class="value">135.39</text>
<text x="10" y="302" class="label">fortnite.com</text>
<rect x="180" y="286" width="419.82" height="22" fill="#4c78a8" rx="3"/>
<text x="607.8199999999999" y="302" class="value">136.03</text>
<text x="10" y="334" class="label">ea.com</text>
<rect x="180" y="318" width="420.72" height="22" fill="#4c78a8" rx="3"/>
<text x="608.72" y="334" class="value">136.32</text>
<text x="10" y="366" class="label">easyanticheat.net</text>
<rect x="180" y="350" width="448.4" height="22" fill="#4c78a8" rx="3"/>
<text x="636.4" y="366" class="value">145.29</text>
<text x="10" y="398" class="label">unrealengine.com</text>
<rect x="180" y="382" width="543.43" height="22" fill="#4c78a8" rx="3"/>
<text x="731.43" y="398" class="value">176.08</text>
<text x="10" y="430" class="label">store.akamai.steamstatic.com</text>
<rect x="180" y="414" width="560.74" height="22" fill="#4c78a8" rx="3"/>
<text x="748.74" y="430" class="value">181.69</text>
<text x="10" y="462" class="label">cdn.akamai.steamstatic.com</text>
<rect x="180" y="446" width="566.33" height="22" fill="#4c78a8" rx="3"/>
<text x="754.33" y="462" class="value">183.50</text>
<text x="10" y="494" class="label">community.akamai.steamstatic.com</text>
<rect x="180" y="478" width="580.0" height="22" fill="#4c78a8" rx="3"/>
<text x="768.0" y="494" class="value">187.93</text>
<line x1="180" y1="30" x2="180" y2="520" stroke="#ccc"/>
<line x1="180" y1="520" x2="760" y2="520" stroke="#ccc"/>
</svg>