<svg xmlns="http://www.w3.org/2000/svg" width="800" height="540">
<style> .label{font-family:DejaVu Sans,Verdana,Geneva,sans-serif;font-size:12px;fill:#333} .value{font-family:DejaVu Sans,Verdana,Geneva,sans-serif;font-size:12px;fill:#555} </style>
<text x="10" y="20" class="label">延迟柱状图（越低越好，Top 15），单位 ms</text>
<text x="10" y="46" class="label">rockstargames.com</text>
<rect x="180" y="30" width="192.46" height="22" fill="#4c78a8" rx="3"/>
<text x="380.46000000000004" y="46" class="value">82.41</text>
<text x="10" y="78" class="label">steamcdn-a.akamaihd.net</text>
<rect x="180" y="62" width="192.84" height="22" fill="#4c78a8" rx="3"/>
<text x="380.84000000000003" y="78" class="value">82.57</text>
<text x="10" y="110" class="label">ea.com</text>
<rect x="180" y="94" width="230.06" height="22" fill="#4c78a8" rx="3"/>
<text x="418.06" y="110" class="value">98.51</text>
<text x="10" y="142" class="label">blizzard.com</text>
<rect x="180" y="126" width="274.85" height="22" fill="#4c78a8" rx="3"/>
<text x="462.85" y="142" class="value">117.69</text>
<text x="10" y="174" class="label">www.steamcommunity.com</text>
<rect x="180" y="158" width="320.86" height="22" fill="#4c78a8" rx="3"/>
<text x="508.86" y="174" class="value">137.39</text>
<text x="10" y="206" class="label">eaassets-a.akamaihd.net</text>
<rect x="180" y="190" width="351.15" height="22" fill="#4c78a8" rx="3"/>
<text x="539.15" y="206" class="value">150.36</text>
<text x="10" y="238" class="label">ubi.com</text>
<rect x="180" y="222" width="353.04" height="22" fill="#4c78a8" rx="3"/>
<text x="541.04" y="238" class="value">151.17</text>
<text x="10" y="270" class="label">battle.net</text>
<rect x="180" y="254" width="370.05" height="22" fill="#4c78a8" rx="3"/>
<text x="558.05" y="270" class="value">158.45</text>
<text x="10" y="302" class="label">socialclub.rockstargames.com</text>
<rect x="180" y="286" width="394.97" height="22" fill="#4c78a8" rx="3"/>
<text x="582.97" y="302" class="value">169.12</text>
<text x="10" y="334" class="label">store.akamai.steamstatic.com</text>
<rect x="180" y="318" width="413.3" height="22" fill="#4c78a8" rx="3"/>
<text x="601.3" y="334" class="value">176.97</text>
<text x="10" y="366" class="label">cdn.cloudflare.steamstatic.com</text>
<rect x="180" y="350" width="430.86" height="22" fill="#4c78a8" rx="3"/>
<text x="618.86" y="366" class="value">184.49</text>
<text x="10" y="398" class="label">static3.cdn.ubi.com</text>
<rect x="180" y="382" width="434.71" height="22" fill="#4c78a8" rx="3"/>
<text x="622.71" y="398" class="value">186.14</text>
<text x="10" y="430" class="label">ubisoft.com</text>
<rect x="180" y="414" width="452.14" height="22" fill="#4c78a8" rx="3"/>
<text x="640.14" y="430" class="value">193.60</text>
<text x="10" y="462" class="label">community.akamai.steamstatic.com</text>
<rect x="180" y="446" width="519.49" height="22" fill="#4c78a8" rx="3"/>
<text x="707.49" y="462" class="value">222.44</text>
<text x="10" y="494" class="label">fortnite.com</text>
<rect x="180" y="478" width="580.0" height="22" fill="#4c78a8" rx="3"/>
<text x="768.0" y="494" class="value">248.35</text>
<line x1="180" y1="30" x2="180" y2="520" stroke="#ccc"/>
<line x1="180" y1="520" x2="760" y2="520" stroke="#ccc"/>
</svg>