<svg xmlns="http://www.w3.org/2000/svg" width="800" height="540">
<style> .label{font-family:DejaVu Sans,Verdana,Geneva,sans-serif;font-size:12px;fill:#333} .value{font-family:DejaVu Sans,Verdana,Geneva,sans-serif;font-size:12px;fill:#555} </style>
<text x="10" y="20" class="label">延迟柱状图（越低越好，Top 15），单位 ms</text>
<text x="10" y="46" class="label">rockstargames.com</text>
<rect x="180" y="30" width="158.34" height="22" fill="#4c78a8" rx="3"/>
<text x="346.34000000000003" y="46" class="value">58.96</text>
<text x="10" y="78" class="label">socialclub.rockstargames.com</text>
<rect x="180" y="62" width="187.94" height="22" fill="#4c78a8" rx="3"/>
<text x="375.94" y="78" class="value">69.98</text>
<text x="10" y="110" class="label">blizzard.com</text>
<rect x="180" y="94" width="240.33" height="22" fill="#4c78a8" rx="3"/>
<text x="428.33000000000004" y="110" class="value">89.49</text>
<text x="10" y="142" class="label">ea.com</text>
<rect x="180" y="126" width="244.09" height="22" fill="#4c78a8" rx="3"/>
<text x="432.09000000000003" y="142" class="value">90.89</text>
<text x="10" y="174" class="label">eaassets-a.akamaihd.net</text>
<rect x="180" y="158" width="296.67" height="22" fill="#4c78a8" rx="3"/>
<text x="484.67" y="174" class="value">110.47</text>
<text x="10" y="206" class="label">battle.net</text>
<rect x="180" y="190" width="301.67" height="22" fill="#4c78a8" rx="3"/>
<text x="489.67" y="206" class="value">112.33</text>
<text x="10" y="238" class="label">origin.com</text>
<rect x="180" y="222" width="315.23" height="22" fill="#4c78a8" rx="3"/>
<text x="503.23" y="238" class="value">117.38</text>
<text x="10" y="270" class="label">store.akamai.steamstatic.com</text>
<rect x="180" y="254" width="371.01" height="22" fill="#4c78a8" rx="3"/>
<text x="559.01" y="270" class="value">138.15</text>
<text x="10" y="302" class="label">ubi.com</text>
<rect x="180" y="286" width="387.5" height="22" fill="#4c78a8" rx="3"/>
<text x="575.5" y="302" class="value">144.29</text>
<text x="10" y="334" class="label">epicgames.com</text>
<rect x="180" y="318" width="455.15" height="22" fill="#4c78a8" rx="3"/>
<text x="643.15" y="334" class="value">169.48</text>
<text x="10" y="366" class="label">static3.cdn.ubi.com</text>
<rect x="180" y="350" width="455.15" height="22" fill="#4c78a8" rx="3"/>
<text x="643.15" y="366" class="value">169.48</text>
<text x="10" y="398" class="label">steamcdn-a.akamaihd.net</text>
<rect x="180" y="382" width="488.15" height="22" fill="#4c78a8" rx="3"/>
<text x="676.15" y="398" class="value">181.77</text>
<text x="10" y="430" class="label">ubisoft.com</text>
<rect x="180" y="414" width="507.76" height="22" fill="#4c78a8" rx="3"/>
<text x="695.76" y="430" class="value">189.07</text>
<text x="10" y="462" class="label">fortnite.com</text>
<rect x="180" y="446" width="508.46" height="22" fill="#4c78a8" rx="3"/>
<text x="696.46" y="462" class="value">189.33</text>
<text x="10" y="494" class="label">unrealengine.com</text>
<rect x="180" y="478" width="580.0" height="22" fill="#4c78a8" rx="3"/>
<text x="768.0" y="494" class="value">215.97</text>
<line x1="180" y1="30" x2="180" y2="520" stroke="#ccc"/>
<line x1="180" y1="520" x2="760" y2="520" stroke="#ccc"/>
</svg>