<svg xmlns="http://www.w3.org/2000/svg" width="800" height="540">
<style> .label{font-family:DejaVu Sans,Verdana,Geneva,sans-serif;font-size:12px;fill:#333} .value{font-family:DejaVu Sans,Verdana,Geneva,sans-serif;font-size:12px;fill:#555} </style>
<text x="10" y="20" class="label">延迟柱状图（越低越好，Top 15），单位 ms</text>
<text x="10" y="46" class="label">rockstargames.com</text>
<rect x="180" y="30" width="180.71" height="22" fill="#4c78a8" rx="3"/>
<text x="368.71000000000004" y="46" class="value">76.18</text>
<text x="10" y="78" class="label">origin.com</text>
<rect x="180" y="62" width="289.64" height="22" fill="#4c78a8" rx="3"/>
<text x="477.64" y="78" class="value">122.10</text>
<text x="10" y="110" class="label">eaassets-a.akamaihd.net</text>
<rect x="180" y="94" width="296.1" height="22" fill="#4c78a8" rx="3"/>
<text x="484.1" y="110" class="value">124.82</text>
<text x="10" y="142" class="label">steamcdn-a.akamaihd.net</text>
<rect x="180" y="126" width="308.38" height="22" fill="#4c78a8" rx="3"/>
<text x="496.38" y="142" class="value">130.00</text>
<text x="10" y="174" class="label">cdn.cloudflare.steamstatic.com</text>
<rect x="180" y="158" width="351.68" height="22" fill="#4c78a8" rx="3"/>
<text x="539.6800000000001" y="174" class="value">148.25</text>
<text x="10" y="206" class="label">cdn.akamai.steamstatic.com</text>
<rect x="180" y="190" width="400.52" height="22" fill="#4c78a8" rx="3"/>
<text x="588.52" y="206" class="value">168.84</text>
<text x="10" y="238" class="label">store.akamai.steamstatic.com</text>
<rect x="180" y="222" width="400.88" height="22" fill="#4c78a8" rx="3"/>
<text x="588.88" y="238" class="value">168.99</text>
<text x="10" y="270" class="label">ea.com</text>
<rect x="180" y="254" width="402.39" height="22" fill="#4c78a8" rx="3"/>
<text x="590.39" y="270" class="value">169.63</text>
<text x="10" y="302" class="label">community.akamai.steamstatic.com</text>
<rect x="180" y="286" width="428.46" height="22" fill="#4c78a8" rx="3"/>
<text x="616.46" y="302" class="value">180.62</text>
<text x="10" y="334" class="label">steam-chat.com</text>
<rect x="180" y="318" width="475.15" height="22" fill="#4c78a8" rx="3"/>
<text x="663.15" y="334" class="value">200.30</text>
<text x="10" y="366" class="label">easyanticheat.net</text>
<rect x="180" y="350" width="483.12" height="22" fill="#4c78a8" rx="3"/>
<text x="671.12" y="366" class="value">203.66</text>
<text x="10" y="398" class="label">www.steamcommunity.com</text>
<rect x="180" y="382" width="533.72" height="22" fill="#4c78a8" rx="3"/>
<text x="721.72" y="398" class="value">224.99</text>
<text x="10" y="430" class="label">steamcommunity.com</text>
<rect x="180" y="414" width="546.17" height="22" fill="#4c78a8" rx="3"/>
<text x="734.17" y="430" class="value">230.24</text>
<text x="10" y="462" class="label">launcher-public-service-prod06.ol.epicgames.com</text>
<rect x="180" y="446" width="566.12" height="22" fill="#4c78a8" rx="3"/>
<text x="754.12" y="462" class="value">238.65</text>
<text x="10" y="494" class="label">ubi.com</text>
<rect x="180" y="478" width="580.0" height="22" fill="#4c78a8" rx="3"/>
<text x="768.0" y="494" class="value">244.50</text>
<line x1="180" y1="30" x2="180" y2="520" stroke="#ccc"/>
<line x1="180" y1="520" x2="760" y2="520" stroke="#ccc"/>
</svg>