<svg xmlns="http://www.w3.org/2000/svg" width="800" height="540">
<style> .label{font-family:DejaVu Sans,Verdana,Geneva,sans-serif;font-size:12px;fill:#333} .value{font-family:DejaVu Sans,Verdana,Geneva,sans-serif;font-size:12px;fill:#555} </style>
<text x="10" y="20" class="label">延迟柱状图（越低越好，Top 15），单位 ms</text>
<text x="10" y="46" class="label">rockstargames.com</text>
<rect x="180" y="30" width="283.18" height="22" fill="#4c78a8" rx="3"/>
<text x="471.18" y="46" class="value">101.08</text>
<text x="10" y="78" class="label">ea.com</text>
<rect x="180" y="62" width="322.65" height="22" fill="#4c78a8" rx="3"/>
<text x="510.65" y="78" class="value">115.17</text>
<text x="10" y="110" class="label">community.akamai.steamstatic.com</text>
<rect x="180" y="94" width="369.07" height="22" fill="#4c78a8" rx="3"/>
<text x="557.0699999999999" y="110" class="value">131.74</text>
<text x="10" y="142" class="label">blizzard.com</text>
<rect x="180" y="126" width="377.37" height="22" fill="#4c78a8" rx="3"/>
<text x="565.37" y="142" class="value">134.70</text>
<text x="10" y="174" class="label">steamcdn-a.akamaihd.net</text>
<rect x="180" y="158" width="388.32" height="22" fill="#4c78a8" rx="3"/>
<text x="576.3199999999999" y="174" class="value">138.61</text>
<text x="10" y="206" class="label">ubi.com</text>
<rect x="180" y="190" width="393.39" height="22" fill="#4c78a8" rx="3"/>
<text x="581.39" y="206" class="value">140.42</text>
<text x="10" y="238" class="label">socialclub.rockstargames.com</text>
<rect x="180" y="222" width="427.04" height="22" fill="#4c78a8" rx="3"/>
<text x="615.04" y="238" class="value">152.43</text>
<text x="10" y="270" class="label">origin.com</text>
<rect x="180" y="254" width="441.52" height="22" fill="#4c78a8" rx="3"/>
<text x="629.52" y="270" class="value">157.60</text>
<text x="10" y="302" class="label">cdn.akamai.steamstatic.com</text>
<rect x="180" y="286" width="451.13" height="22" fill="#4c78a8" rx="3"/>
<text x="639.13" y="302" class="value">161.03</text>
<text x="10" y="334" class="label">battle.net</text>
<rect x="180" y="318" width="470.32" height="22" fill="#4c78a8" rx="3"/>
<text x="658.3199999999999" y="334" class="value">167.88</text>
<text x="10" y="366" class="label">cdn.cloudflare.steamstatic.com</text>
<rect x="180" y="350" width="477.02" height="22" fill="#4c78a8" rx="3"/>
<text x="665.02" y="366" class="value">170.27</text>
<text x="10" y="398" class="label">api.steampowered.com</text>
<rect x="180" y="382" width="495.93" height="22" fill="#4c78a8" rx="3"/>
<text x="683.9300000000001" y="398" class="value">177.02</text>
<text x="10" y="430" class="label">easyanticheat.net</text>
<rect x="180" y="414" width="544.84" height="22" fill="#4c78a8" rx="3"/>
<text x="732.84" y="430" class="value">194.48</text>
<text x="10" y="462" class="label">ubisoft.com</text>
<rect x="180" y="446" width="559.32" height="22" fill="#4c78a8" rx="3"/>
<text x="747.32" y="462" class="value">199.65</text>
<text x="10" y="494" class="label">epicgames.com</text>
<rect x="180" y="478" width="580.0" height="22" fill="#4c78a8" rx="3"/>
<text x="768.0" y="494" class="value">207.03</text>
<line x1="180" y1="30" x2="180" y2="520" stroke="#ccc"/>
<line x1="180" y1="520" x2="760" y2="520" stroke="#ccc"/>
</svg>