<svg xmlns="http://www.w3.org/2000/svg" width="800" height="540">
<style> .label{font-family:DejaVu Sans,Verdana,Geneva,sans-serif;font-size:12px;fill:#333} .value{font-family:DejaVu Sans,Verdana,Geneva,sans-serif;font-size:12px;fill:#555} </style>
<text x="10" y="20" class="label">延迟柱状图（越低越好，Top 15），单位 ms</text>
<text x="10" y="46" class="label">eaassets-a.akamaihd.net</text>
<rect x="180" y="30" width="193.85" height="22" fill="#4c78a8" rx="3"/>
<text x="381.85" y="46" class="value">61.43</text>
<text x="10" y="78" class="label">rockstargames.com</text>
<rect x="180" y="62" width="313.19" height="22" fill="#4c78a8" rx="3"/>
<text x="501.19" y="78" class="value">99.25</text>
<text x="10" y="110" class="label">store.akamai.steamstatic.com</text>
<rect x="180" y="94" width="432.16" height="22" fill="#4c78a8" rx="3"/>
<text x="620.1600000000001" y="110" class="value">136.95</text>
<text x="10" y="142" class="label">socialclub.rockstargames.com</text>
<rect x="180" y="126" width="435.76" height="22" fill="#4c78a8" rx="3"/>
<text x="623.76" y="142" class="value">138.09</text>
<text x="10" y="174" class="label">steamcdn-a.akamaihd.net</text>
<rect x="180" y="158" width="448.13" height="22" fill="#4c78a8" rx="3"/>
<text x="636.13" y="174" class="value">142.01</text>
<text x="10" y="206" class="label">ea.com</text>
<rect x="180" y="190" width="450.08" height="22" fill="#4c78a8" rx="3"/>
<text x="638.0799999999999" y="206" class="value">142.63</text>
<text x="10" y="238" class="label">ubi.com</text>
<rect x="180" y="222" width="492.12" height="22" fill="#4c78a8" rx="3"/>
<text x="680.12" y="238" class="value">155.95</text>
<text x="10" y="270" class="label">community.akamai.steamstatic.com</text>
<rect x="180" y="254" width="509.76" height="22" fill="#4c78a8" rx="3"/>
<text x="697.76" y="270" class="value">161.54</text>
<text x="10" y="302" class="label">steam-chat.com</text>
<rect x="180" y="286" width="512.5" height="22" fill="#4c78a8" rx="3"/>
<text x="700.5" y="302" class="value">162.41</text>
<text x="10" y="334" class="label">api.steampowered.com</text>
<rect x="180" y="318" width="539.58" height="22" fill="#4c78a8" rx="3"/>
<text x="727.58" y="334" class="value">170.99</text>
<text x="10" y="366" class="label">battle.net</text>
<rect x="180" y="350" width="541.25" height="22" fill="#4c78a8" rx="3"/>
<text x="729.25" y="366" class="value">171.52</text>
<text x="10" y="398" class="label">fortnite.com</text>
<rect x="180" y="382" width="557.47" height="22" fill="#4c78a8" rx="3"/>
<text x="745.47" y="398" class="value">176.66</text>
<text x="10" y="430" class="label">blizzard.com</text>
<rect x="180" y="414" width="560.97" height="22" fill="#4c78a8" rx="3"/>
<text x="748.97" y="430" class="value">177.77</text>
<text x="10" y="462" class="label">static3.cdn.ubi.com</text>
<rect x="180" y="446" width="577.76" height="22" fill="#4c78a8" rx="3"/>
<text x="765.76" y="462" class="value">183.09</text>
<text x="10" y="494" class="label">origin.com</text>
<rect x="180" y="478" width="580.0" height="22" fill="#4c78a8" rx="3"/>
<text x="768.0" y="494" class="value">183.80</text>
<line x1="180" y1="30" x2="180" y2="520" stroke="#ccc"/>
<line x1="180" y1="520" x2="760" y2="520" stroke="#ccc"/>
</svg>