<svg xmlns="http://www.w3.org/2000/svg" width="800" height="540">
<style> .label{font-family:DejaVu Sans,Verdana,Geneva,sans-serif;font-size:12px;fill:#333} .value{font-family:DejaVu Sans,Verdana,Geneva,sans-serif;font-size:12px;fill:#555} </style>
<text x="10" y="20" class="label">延迟柱状图（越低越好，Top 15），单位 ms</text>
<text x="10" y="46" class="label">rockstargames.com</text>
<rect x="180" y="30" width="90.37" height="22" fill="#4c78a8" rx="3"/>
<text x="278.37" y="46" class="value">34.16</text>
<text x="10" y="78" class="label">eaassets-a.akamaihd.net</text>
<rect x="180" y="62" width="126.98" height="22" fill="#4c78a8" rx="3"/>
<text x="314.98" y="78" class="value">48.00</text>
<text x="10" y="110" class="label">store.akamai.steamstatic.com</text>
<rect x="180" y="94" width="189.54" height="22" fill="#4c78a8" rx="3"/>
<text x="377.53999999999996" y="110" class="value">71.65</text>
<text x="10" y="142" class="label">origin.com</text>
<rect x="180" y="126" width="194.12" height="22" fill="#4c78a8" rx="3"/>
<text x="382.12" y="142" class="value">73.38</text>
<text x="10" y="174" class="label">community.akamai.steamstatic.com</text>
<rect x="180" y="158" width="222.08" height="22" fill="#4c78a8" rx="3"/>
<text x="410.08000000000004" y="174" class="value">83.95</text>
<text x="10" y="206" class="label">ubisoft.com</text>
<rect x="180" y="190" width="268.85" height="22" fill="#4c78a8" rx="3"/>
<text x="456.85" y="206" class="value">101.63</text>
<text x="10" y="238" class="label">steamcdn-a.akamaihd.net</text>
<rect x="180" y="222" width="269.17" height="22" fill="#4c78a8" rx="3"/>
<text x="457.17" y="238" class="value">101.75</text>
<text x="10" y="270" class="label">ea.com</text>
<rect x="180" y="254" width="302.68" height="22" fill="#4c78a8" rx="3"/>
<text x="490.68" y="270" class="value">114.42</text>
<text x="10" y="302" class="label">cdn.akamai.steamstatic.com</text>
<rect x="180" y="286" width="382.28" height="22" fill="#4c78a8" rx="3"/>
<text x="570.28" y="302" class="value">144.51</text>
<text x="10" y="334" class="label">cdn.cloudflare.steamstatic.com</text>
<rect x="180" y="318" width="446.46" height="22" fill="#4c78a8" rx="3"/>
<text x="634.46" y="334" class="value">168.77</text>
<text x="10" y="366" class="label">launcher-public-service-prod06.ol.epicgames.com</text>
<rect x="180" y="350" width="483.42" height="22" fill="#4c78a8" rx="3"/>
<text x="671.4200000000001" y="366" class="value">182.74</text>
<text x="10" y="398" class="label">www.steamcommunity.com</text>
<rect x="180" y="382" width="531.01" height="22" fill="#4c78a8" rx="3"/>
<text x="719.01" y="398" class="value">200.73</text>
<text x="10" y="430" class="label">gog.com</text>
<rect x="180" y="414" width="572.51" height="22" fill="#4c78a8" rx="3"/>
<text x="760.51" y="430" class="value">216.42</text>
<text x="10" y="462" class="label">steam-chat.com</text>
<rect x="180" y="446" width="574.89" height="22" fill="#4c78a8" rx="3"/>
<text x="762.89" y="462" class="value">217.32</text>
<text x="10" y="494" class="label">static3.cdn.ubi.com</text>
<rect x="180" y="478" width="580.0" height="22" fill="#4c78a8" rx="3"/>
<text x="768.0" y="494" class="value">219.25</text>
<line x1="180" y1="30" x2="180" y2="520" stroke="#ccc"/>
<line x1="180" y1="520" x2="760" y2="520" stroke="#ccc"/>
</svg>