<svg xmlns="http://www.w3.org/2000/svg" width="800" height="540">
<style> .label{font-family:DejaVu Sans,Verdana,Geneva,sans-serif;font-size:12px;fill:#333} .value{font-family:DejaVu Sans,Verdana,Geneva,sans-serif;font-size:12px;fill:#555} </style>
<text x="10" y="20" class="label">延迟柱状图（越低越好，Top 15），单位 ms</text>
<text x="10" y="46" class="label">rockstargames.com</text>
<rect x="180" y="30" width="161.58" height="22" fill="#4c78a8" rx="3"/>
<text x="349.58000000000004" y="46" class="value">55.36</text>
<text x="10" y="78" class="label">eaassets-a.akamaihd.net</text>
<rect x="180" y="62" width="253.72" height="22" fill="#4c78a8" rx="3"/>
<text x="441.72" y="78" class="value">86.93</text>
<text x="10" y="110" class="label">socialclub.rockstargames.com</text>
<rect x="180" y="94" width="261.75" height="22" fill="#4c78a8" rx="3"/>
<text x="449.75" y="110" class="value">89.68</text>
<text x="10" y="142" class="label">ea.com</text>
<rect x="180" y="126" width="278.09" height="22" fill="#4c78a8" rx="3"/>
<text x="466.09" y="142" class="value">95.28</text>
<text x="10" y="174" class="label">blizzard.com</text>
<rect x="180" y="158" width="325.35" height="22" fill="#4c78a8" rx="3"/>
<text x="513.35" y="174" class="value">111.47</text>
<text x="10" y="206" class="label">ubi.com</text>
<rect x="180" y="190" width="325.49" height="22" fill="#4c78a8" rx="3"/>
<text x="513.49" y="206" class="value">111.52</text>
<text x="10" y="238" class="label">cdn.cloudflare.steamstatic.com</text>
<rect x="180" y="222" width="355.73" height="22" fill="#4c78a8" rx="3"/>
<text x="543.73" y="238" class="value">121.88</text>
<text x="10" y="270" class="label">fortnite.com</text>
<rect x="180" y="254" width="378.47" height="22" fill="#4c78a8" rx="3"/>
<text x="566.47" y="270" class="value">129.67</text>
<text x="10" y="302" class="label">unrealengine.com</text>
<rect x="180" y="286" width="416.35" height="22" fill="#4c78a8" rx="3"/>
<text x="604.35" y="302" class="value">142.65</text>
<text x="10" y="334" class="label">ubisoft.com</text>
<rect x="180" y="318" width="425.72" height="22" fill="#4c78a8" rx="3"/>
<text x="613.72" y="334" class="value">145.86</text>
<text x="10" y="366" class="label">cdn.akamai.steamstatic.com</text>
<rect x="180" y="350" width="443.61" height="22" fill="#4c78a8" rx="3"/>
<text x="631.61" y="366" class="value">151.99</text>
<text x="10" y="398" class="label">epicgames.com</text>
<rect x="180" y="382" width="500.87" height="22" fill="#4c78a8" rx="3"/>
<text x="688.87" y="398" class="value">171.61</text>
<text x="10" y="430" class="label">static3.cdn.ubi.com</text>
<rect x="180" y="414" width="519.64" height="22" fill="#4c78a8" rx="3"/>
<text x="707.64" y="430" class="value">178.04</text>
<text x="10" y="462" class="label">store.akamai.steamstatic.com</text>
<rect x="180" y="446" width="540.86" height="22" fill="#4c78a8" rx="3"/>
<text x="728.86" y="462" class="value">185.31</text>
<text x="10" y="494" class="label">steamcommunity.com</text>
<rect x="180" y="478" width="580.0" height="22" fill="#4c78a8" rx="3"/>
<text x="768.0" y="494" class="value">198.72</text>
<line x1="180" y1="30" x2="180" y2="520" stroke="#ccc"/>
<line x1="180" y1="520" x2="760" y2="520" stroke="#ccc"/>
</svg>