<svg xmlns="http://www.w3.org/2000/svg" width="800" height="540">
<style> .label{font-family:DejaVu Sans,Verdana,Geneva,sans-serif;font-size:12px;fill:#333} .value{font-family:DejaVu Sans,Verdana,Geneva,sans-serif;font-size:12px;fill:#555} </style>
<text x="10" y="20" class="label">延迟柱状图（越低越好，Top 15），单位 ms</text>
<text x="10" y="46" class="label">rockstargames.com</text>
<rect x="180" y="30" width="82.25" height="22" fill="#4c78a8" rx="3"/>
<text x="270.25" y="46" class="value">40.45</text>
<text x="10" y="78" class="label">eaassets-a.akamaihd.net</text>
<rect x="180" y="62" width="86.48" height="22" fill="#4c78a8" rx="3"/>
<text x="274.48" y="78" class="value">42.53</text>
<text x="10" y="110" class="label">ubisoft.com</text>
<rect x="180" y="94" width="101.53" height="22" fill="#4c78a8" rx="3"/>
<text x="289.53" y="110" class="value">49.93</text>
<text x="10" y="142" class="label">origin.com</text>
<rect x="180" y="126" width="209.15" height="22" fill="#4c78a8" rx="3"/>
<text x="397.15" y="142" class="value">102.86</text>
<text x="10" y="174" class="label">cdn.akamai.steamstatic.com</text>
<rect x="180" y="158" width="227.78" height="22" fill="#4c78a8" rx="3"/>
<text x="415.78" y="174" class="value">112.02</text>
<text x="10" y="206" class="label">ea.com</text>
<rect x="180" y="190" width="242.32" height="22" fill="#4c78a8" rx="3"/>
<text x="430.32" y="206" class="value">119.17</text>
<text x="10" y="238" class="label">community.akamai.steamstatic.com</text>
<rect x="180" y="222" width="300.8" height="22" fill="#4c78a8" rx="3"/>
<text x="488.8" y="238" class="value">147.93</text>
<text x="10" y="270" class="label">cdn.cloudflare.steamstatic.com</text>
<rect x="180" y="254" width="390.51" height="22" fill="#4c78a8" rx="3"/>
<text x="578.51" y="270" class="value">192.05</text>
<text x="10" y="302" class="label">steamcdn-a.akamaihd.net</text>
<rect x="180" y="286" width="412.9" height="22" fill="#4c78a8" rx="3"/>
<text x="600.9" y="302" class="value">203.06</text>
<text x="10" y="334" class="label">store.akamai.steamstatic.com</text>
<rect x="180" y="318" width="433.94" height="22" fill="#4c78a8" rx="3"/>
<text x="621.94" y="334" class="value">213.41</text>
<text x="10" y="366" class="label">gog.com</text>
<rect x="180" y="350" width="474.2" height="22" fill="#4c78a8" rx="3"/>
<text x="662.2" y="366" class="value">233.21</text>
<text x="10" y="398" class="label">www.steamcommunity.com</text>
<rect x="180" y="382" width="511.33" height="22" fill="#4c78a8" rx="3"/>
<text x="699.3299999999999" y="398" class="value">251.47</text>
<text x="10" y="430" class="label">launcher-public-service-prod06.ol.epicgames.com</text>
<rect x="180" y="414" width="515.77" height="22" fill="#4c78a8" rx="3"/>
<text x="703.77" y="430" class="value">253.65</text>
<text x="10" y="462" class="label">easyanticheat.net</text>
<rect x="180" y="446" width="518.78" height="22" fill="#4c78a8" rx="3"/>
<text x="706.78" y="462" class="value">255.13</text>
<text x="10" y="494" class="label">blizzard.com</text>
<rect x="180" y="478" width="580.0" height="22" fill="#4c78a8" rx="3"/>
<text x="768.0" y="494" class="value">285.24</text>
<line x1="180" y1="30" x2="180" y2="520" stroke="#ccc"/>
<line x1="180" y1="520" x2="760" y2="520" stroke="#ccc"/>
</svg>