<svg xmlns="http://www.w3.org/2000/svg" width="800" height="540">
<style> .label{font-family:DejaVu Sans,Verdana,Geneva,sans-serif;font-size:12px;fill:#333} .value{font-family:DejaVu Sans,Verdana,Geneva,sans-serif;font-size:12px;fill:#555} </style>
<text x="10" y="20" class="label">延迟柱状图（越低越好，Top 15），单位 ms</text>
<text x="10" y="46" class="label">eaassets-a.akamaihd.net</text>
<rect x="180" y="30" width="214.38" height="22" fill="#4c78a8" rx="3"/>
<text x="402.38" y="46" class="value">93.10</text>
<text x="10" y="78" class="label">rockstargames.com</text>
<rect x="180" y="62" width="304.07" height="22" fill="#4c78a8" rx="3"/>
<text x="492.07" y="78" class="value">132.05</text>
<text x="10" y="110" class="label">ubi.com</text>
<rect x="180" y="94" width="334.21" height="22" fill="#4c78a8" rx="3"/>
<text x="522.21" y="110" class="value">145.14</text>
<text x="10" y="142" class="label">battle.net</text>
<rect x="180" y="126" width="339.62" height="22" fill="#4c78a8" rx="3"/>
<text x="527.62" y="142" class="value">147.49</text>
<text x="10" y="174" class="label">blizzard.com</text>
<rect x="180" y="158" width="376.93" height="22" fill="#4c78a8" rx="3"/>
<text x="564.9300000000001" y="174" class="value">163.69</text>
<text x="10" y="206" class="label">ubisoft.com</text>
<rect x="180" y="190" width="392.45" height="22" fill="#4c78a8" rx="3"/>
<text x="580.45" y="206" class="value">170.43</text>
<text x="10" y="238" class="label">origin.com</text>
<rect x="180" y="222" width="397.26" height="22" fill="#4c78a8" rx="3"/>
<text x="585.26" y="238" class="value">172.52</text>
<text x="10" y="270" class="label">ea.com</text>
<rect x="180" y="254" width="430.76" height="22" fill="#4c78a8" rx="3"/>
<text x="618.76" y="270" class="value">187.07</text>
<text x="10" y="302" class="label">easyanticheat.net</text>
<rect x="180" y="286" width="456.16" height="22" fill="#4c78a8" rx="3"/>
<text x="644.1600000000001" y="302" class="value">198.10</text>
<text x="10" y="334" class="label">socialclub.rockstargames.com</text>
<rect x="180" y="318" width="470.85" height="22" fill="#4c78a8" rx="3"/>
<text x="658.85" y="334" class="value">204.48</text>
<text x="10" y="366" class="label">store.akamai.steamstatic.com</text>
<rect x="180" y="350" width="482.92" height="22" fill="#4c78a8" rx="3"/>
<text x="670.9200000000001" y="366" class="value">209.72</text>
<text x="10" y="398" class="label">steamcdn-a.akamaihd.net</text>
<rect x="180" y="382" width="549.74" height="22" fill="#4c78a8" rx="3"/>
<text x="737.74" y="398" class="value">238.74</text>
<text x="10" y="430" class="label">steamcommunity.com</text>
<rect x="180" y="414" width="551.03" height="22" fill="#4c78a8" rx="3"/>
<text x="739.03" y="430" class="value">239.30</text>
<text x="10" y="462" class="label">community.akamai.steamstatic.com</text>
<rect x="180" y="446" width="568.97" height="22" fill="#4c78a8" rx="3"/>
<text x="756.97" y="462" class="value">247.09</text>
<text x="10" y="494" class="label">www.steamcommunity.com</text>
<rect x="180" y="478" width="580.0" height="22" fill="#4c78a8" rx="3"/>
<text x="768.0" y="494" class="value">251.88</text>
<line x1="180" y1="30" x2="180" y2="520" stroke="#ccc"/>
<line x1="180" y1="520" x2="760" y2="520" stroke="#ccc"/>
</svg>