<svg xmlns="http://www.w3.org/2000/svg" width="800" height="540">
<style> .label{font-family:DejaVu Sans,Verdana,Geneva,sans-serif;font-size:12px;fill:#333} .value{font-family:DejaVu Sans,Verdana,Geneva,sans-serif;font-size:12px;fill:#555} </style>
<text x="10" y="20" class="label">延迟柱状图（越低越好，Top 15），单位 ms</text>
<text x="10" y="46" class="label">eaassets-a.akamaihd.net</text>
<rect x="180" y="30" width="155.99" height="22" fill="#4c78a8" rx="3"/>
<text x="343.99" y="46" class="value">50.00</text>
<text x="10" y="78" class="label">rockstargames.com</text>
<rect x="180" y="62" width="171.25" height="22" fill="#4c78a8" rx="3"/>
<text x="359.25" y="78" class="value">54.89</text>
<text x="10" y="110" class="label">ea.com</text>
<rect x="180" y="94" width="308.27" height="22" fill="#4c78a8" rx="3"/>
<text x="496.27" y="110" class="value">98.81</text>
<text x="10" y="142" class="label">ubi.com</text>
<rect x="180" y="126" width="396.81" height="22" fill="#4c78a8" rx="3"/>
<text x="584.81" y="142" class="value">127.19</text>
<text x="10" y="174" class="label">socialclub.rockstargames.com</text>
<rect x="180" y="158" width="411.59" height="22" fill="#4c78a8" rx="3"/>
<text x="599.5899999999999" y="174" class="value">131.93</text>
<text x="10" y="206" class="label">cdn.cloudflare.steamstatic.com</text>
<rect x="180" y="190" width="432.37" height="22" fill="#4c78a8" rx="3"/>
<text x="620.37" y="206" class="value">138.59</text>
<text x="10" y="238" class="label">battle.net</text>
<rect x="180" y="222" width="438.08" height="22" fill="#4c78a8" rx="3"/>
<text x="626.0799999999999" y="238" class="value">140.42</text>
<text x="10" y="270" class="label">blizzard.com</text>
<rect x="180" y="254" width="458.17" height="22" fill="#4c78a8" rx="3"/>
<text x="646.1700000000001" y="270" class="value">146.86</text>
<text x="10" y="302" class="label">static3.cdn.ubi.com</text>
<rect x="180" y="286" width="473.52" height="22" fill="#4c78a8" rx="3"/>
<text x="661.52" y="302" class="value">151.78</text>
<text x="10" y="334" class="label">ubisoft.com</text>
<rect x="180" y="318" width="494.86" height="22" fill="#4c78a8" rx="3"/>
<text x="682.86" y="334" class="value">158.62</text>
<text x="10" y="366" class="label">community.akamai.steamstatic.com</text>
<rect x="180" y="350" width="527.74" height="22" fill="#4c78a8" rx="3"/>
<text x="715.74" y="366" class="value">169.16</text>
<text x="10" y="398" class="label">gog.com</text>
<rect x="180" y="382" width="533.2" height="22" fill="#4c78a8" rx="3"/>
<text x="721.2" y="398" class="value">170.91</text>
<text x="10" y="430" class="label">origin.com</text>
<rect x="180" y="414" width="554.67" height="22" fill="#4c78a8" rx="3"/>
<text x="742.67" y="430" class="value">177.79</text>
<text x="10" y="462" class="label">steamcdn-a.akamaihd.net</text>
<rect x="180" y="446" width="567.61" height="22" fill="#4c78a8" rx="3"/>
<text x="755.61" y="462" class="value">181.94</text>
<text x="10" y="494" class="label">steam-chat.com</text>
<rect x="180" y="478" width="580.0" height="22" fill="#4c78a8" rx="3"/>
<text x="768.0" y="494" class="value">185.91</text>
<line x1="180" y1="30" x2="180" y2="520" stroke="#ccc"/>
<line x1="180" y1="520" x2="760" y2="520" stroke="#ccc"/>
</svg>