<svg xmlns="http://www.w3.org/2000/svg" width="800" height="540">
<style> .label{font-family:DejaVu Sans,Verdana,Geneva,sans-serif;font-size:12px;fill:#333} .value{font-family:DejaVu Sans,Verdana,Geneva,sans-serif;font-size:12px;fill:#555} </style>
<text x="10" y="20" class="label">延迟柱状图（越低越好，Top 15），单位 ms</text>
<text x="10" y="46" class="label">rockstargames.com</text>
<rect x="180" y="30" width="263.13" height="22" fill="#4c78a8" rx="3"/>
<text x="451.13" y="46" class="value">79.28</text>
<text x="10" y="78" class="label">socialclub.rockstargames.com</text>
<rect x="180" y="62" width="293.67" height="22" fill="#4c78a8" rx="3"/>
<text x="481.67" y="78" class="value">88.48</text>
<text x="10" y="110" class="label">fortnite.com</text>
<rect x="180" y="94" width="308.87" height="22" fill="#4c78a8" rx="3"/>
<text x="496.87" y="110" class="value">93.06</text>
<text x="10" y="142" class="label">ubi.com</text>
<rect x="180" y="126" width="312.29" height="22" fill="#4c78a8" rx="3"/>
<text x="500.29" y="142" class="value">94.09</text>
<text x="10" y="174" class="label">battle.net</text>
<rect x="180" y="158" width="320.65" height="22" fill="#4c78a8" rx="3"/>
<text x="508.65" y="174" class="value">96.61</text>
<text x="10" y="206" class="label">blizzard.com</text>
<rect x="180" y="190" width="346.07" height="22" fill="#4c78a8" rx="3"/>
<text x="534.0699999999999" y="206" class="value">104.27</text>
<text x="10" y="238" class="label">unrealengine.com</text>
<rect x="180" y="222" width="357.29" height="22" fill="#4c78a8" rx="3"/>
<text x="545.29" y="238" class="value">107.65</text>
<text x="10" y="270" class="label">ubisoft.com</text>
<rect x="180" y="254" width="379.9" height="22" fill="#4c78a8" rx="3"/>
<text x="567.9" y="270" class="value">114.46</text>
<text x="10" y="302" class="label">cdn.cloudflare.steamstatic.com</text>
<rect x="180" y="286" width="386.37" height="22" fill="#4c78a8" rx="3"/>
<text x="574.37" y="302" class="value">116.41</text>
<text x="10" y="334" class="label">ea.com</text>
<rect x="180" y="318" width="388.89" height="22" fill="#4c78a8" rx="3"/>
<text x="576.89" y="334" class="value">117.17</text>
<text x="10" y="366" class="label">epicgames.com</text>
<rect x="180" y="350" width="397.45" height="22" fill="#4c78a8" rx="3"/>
<text x="585.45" y="366" class="value">119.75</text>
<text x="10" y="398" class="label">origin.com</text>
<rect x="180" y="382" width="400.11" height="22" fill="#4c78a8" rx="3"/>
<text x="588.11" y="398" class="value">120.55</text>
<text x="10" y="430" class="label">eaassets-a.akamaihd.net</text>
<rect x="180" y="414" width="416.8" height="22" fill="#4c78a8" rx="3"/>
<text x="604.8" y="430" class="value">125.58</text>
<text x="10" y="462" class="label">community.akamai.steamstatic.com</text>
<rect x="180" y="446" width="448.67" height="22" fill="#4c78a8" rx="3"/>
<text x="636.6700000000001" y="462" class="value">135.18</text>
<text x="10" y="494" class="label">steamcdn-a.akamaihd.net</text>
<rect x="180" y="478" width="580.0" height="22" fill="#4c78a8" rx="3"/>
<text x="768.0" y="494" class="value">174.75</text>
<line x1="180" y1="30" x2="180" y2="520" stroke="#ccc"/>
<line x1="180" y1="520" x2="760" y2="520" stroke="#ccc"/>
</svg>