<svg xmlns="http://www.w3.org/2000/svg" width="800" height="540">
<style> .label{font-family:DejaVu Sans,Verdana,Geneva,sans-serif;font-size:12px;fill:#333} .value{font-family:DejaVu Sans,Verdana,Geneva,sans-serif;font-size:12px;fill:#555} </style>
<text x="10" y="20" class="label">延迟柱状图（越低越好，Top 15），单位 ms</text>
<text x="10" y="46" class="label">rockstargames.com</text>
<rect x="180" y="30" width="88.03" height="22" fill="#4c78a8" rx="3"/>
<text x="276.03" y="46" class="value">46.13</text>
<text x="10" y="78" class="label">eaassets-a.akamaihd.net</text>
<rect x="180" y="62" width="107.51" height="22" fill="#4c78a8" rx="3"/>
<text x="295.51" y="78" class="value">56.34</text>
<text x="10" y="110" class="label">store.akamai.steamstatic.com</text>
<rect x="180" y="94" width="194.69" height="22" fill="#4c78a8" rx="3"/>
<text x="382.69" y="110" class="value">102.03</text>
<text x="10" y="142" class="label">ubisoft.com</text>
<rect x="180" y="126" width="199.98" height="22" fill="#4c78a8" rx="3"/>
<text x="387.98" y="142" class="value">104.80</text>
<text x="10" y="174" class="label">origin.com</text>
<rect x="180" y="158" width="217.84" height="22" fill="#4c78a8" rx="3"/>
<text x="405.84000000000003" y="174" class="value">114.16</text>
<text x="10" y="206" class="label">community.akamai.steamstatic.com</text>
<rect x="180" y="190" width="238.22" height="22" fill="#4c78a8" rx="3"/>
<text x="426.22" y="206" class="value">124.84</text>
<text x="10" y="238" class="label">cdn.akamai.steamstatic.com</text>
<rect x="180" y="222" width="272.91" height="22" fill="#4c78a8" rx="3"/>
<text x="460.91" y="238" class="value">143.02</text>
<text x="10" y="270" class="label">ea.com</text>
<rect x="180" y="254" width="312.2" height="22" fill="#4c78a8" rx="3"/>
<text x="500.2" y="270" class="value">163.61</text>
<text x="10" y="302" class="label">steamcdn-a.akamaihd.net</text>
<rect x="180" y="286" width="339.05" height="22" fill="#4c78a8" rx="3"/>
<text x="527.05" y="302" class="value">177.68</text>
<text x="10" y="334" class="label">api.steampowered.com</text>
<rect x="180" y="318" width="390.67" height="22" fill="#4c78a8" rx="3"/>
<text x="578.6700000000001" y="334" class="value">204.73</text>
<text x="10" y="366" class="label">cdn.cloudflare.steamstatic.com</text>
<rect x="180" y="350" width="451.71" height="22" fill="#4c78a8" rx="3"/>
<text x="639.71" y="366" class="value">236.72</text>
<text x="10" y="398" class="label">easyanticheat.net</text>
<rect x="180" y="382" width="470.07" height="22" fill="#4c78a8" rx="3"/>
<text x="658.0699999999999" y="398" class="value">246.34</text>
<text x="10" y="430" class="label">www.steamcommunity.com</text>
<rect x="180" y="414" width="480.07" height="22" fill="#4c78a8" rx="3"/>
<text x="668.0699999999999" y="430" class="value">251.58</text>
<text x="10" y="462" class="label">steam-chat.com</text>
<rect x="180" y="446" width="484.53" height="22" fill="#4c78a8" rx="3"/>
<text x="672.53" y="462" class="value">253.92</text>
<text x="10" y="494" class="label">battle.net</text>
<rect x="180" y="478" width="580.0" height="22" fill="#4c78a8" rx="3"/>
<text x="768.0" y="494" class="value">303.95</text>
<line x1="180" y1="30" x2="180" y2="520" stroke="#ccc"/>
<line x1="180" y1="520" x2="760" y2="520" stroke="#ccc"/>
</svg>