<svg xmlns="http://www.w3.org/2000/svg" width="800" height="540">
<style> .label{font-family:DejaVu Sans,Verdana,Geneva,sans-serif;font-size:12px;fill:#333} .value{font-family:DejaVu Sans,Verdana,Geneva,sans-serif;font-size:12px;fill:#555} </style>
<text x="10" y="20" class="label">延迟柱状图（越低越好，Top 15），单位 ms</text>
<text x="10" y="46" class="label">rockstargames.com</text>
<rect x="180" y="30" width="92.88" height="22" fill="#4c78a8" rx="3"/>
<text x="280.88" y="46" class="value">39.22</text>
<text x="10" y="78" class="label">ea.com</text>
<rect x="180" y="62" width="124.64" height="22" fill="#4c78a8" rx="3"/>
<text x="312.64" y="78" class="value">52.63</text>
<text x="10" y="110" class="label">steamcdn-a.akamaihd.net</text>
<rect x="180" y="94" width="235.14" height="22" fill="#4c78a8" rx="3"/>
<text x="423.14" y="110" class="value">99.29</text>
<text x="10" y="142" class="label">ubisoft.com</text>
<rect x="180" y="126" width="260.12" height="22" fill="#4c78a8" rx="3"/>
<text x="448.12" y="142" class="value">109.84</text>
<text x="10" y="174" class="label">eaassets-a.akamaihd.net</text>
<rect x="180" y="158" width="269.72" height="22" fill="#4c78a8" rx="3"/>
<text x="457.72" y="174" class="value">113.89</text>
<text x="10" y="206" class="label">community.akamai.steamstatic.com</text>
<rect x="180" y="190" width="304.65" height="22" fill="#4c78a8" rx="3"/>
<text x="492.65" y="206" class="value">128.64</text>
<text x="10" y="238" class="label">easyanticheat.net</text>
<rect x="180" y="222" width="306.31" height="22" fill="#4c78a8" rx="3"/>
<text x="494.31" y="238" class="value">129.34</text>
<text x="10" y="270" class="label">store.akamai.steamstatic.com</text>
<rect x="180" y="254" width="404.33" height="22" fill="#4c78a8" rx="3"/>
<text x="592.3299999999999" y="270" class="value">170.73</text>
<text x="10" y="302" class="label">origin.com</text>
<rect x="180" y="286" width="463.32" height="22" fill="#4c78a8" rx="3"/>
<text x="651.3199999999999" y="302" class="value">195.64</text>
<text x="10" y="334" class="label">cdn.akamai.steamstatic.com</text>
<rect x="180" y="318" width="491.31" height="22" fill="#4c78a8" rx="3"/>
<text x="679.31" y="334" class="value">207.46</text>
<text x="10" y="366" class="label">gog.com</text>
<rect x="180" y="350" width="494.29" height="22" fill="#4c78a8" rx="3"/>
<text x="682.29" y="366" class="value">208.72</text>
<text x="10" y="398" class="label">cdn.cloudflare.steamstatic.com</text>
<rect x="180" y="382" width="515.37" height="22" fill="#4c78a8" rx="3"/>
<text x="703.37" y="398" class="value">217.62</text>
<text x="10" y="430" class="label">api.steampowered.com</text>
<rect x="180" y="414" width="535.97" height="22" fill="#4c78a8" rx="3"/>
<text x="723.97" y="430" class="value">226.32</text>
<text x="10" y="462" class="label">launcher-public-service-prod06.ol.epicgames.com</text>
<rect x="180" y="446" width="578.53" height="22" fill="#4c78a8" rx="3"/>
<text x="766.53" y="462" class="value">244.29</text>
<text x="10" y="494" class="label">steam-chat.com</text>
<rect x="180" y="478" width="580.0" height="22" fill="#4c78a8" rx="3"/>
<text x="768.0" y="494" class="value">244.91</text>
<line x1="180" y1="30" x2="180" y2="520" stroke="#ccc"/>
<line x1="180" y1="520" x2="760" y2="520" stroke="#ccc"/>
</svg>