<svg xmlns="http://www.w3.org/2000/svg" width="800" height="540">
<style> .label{font-family:DejaVu Sans,Verdana,Geneva,sans-serif;font-size:12px;fill:#333} .value{font-family:DejaVu Sans,Verdana,Geneva,sans-serif;font-size:12px;fill:#555} </style>
<text x="10" y="20" class="label">延迟柱状图（越低越好，Top 15），单位 ms</text>
<text x="10" y="46" class="label">rockstargames.com</text>
<rect x="180" y="30" width="237.71" height="22" fill="#4c78a8" rx="3"/>
<text x="425.71000000000004" y="46" class="value">100.79</text>
<text x="10" y="78" class="label">ubisoft.com</text>
<rect x="180" y="62" width="297.97" height="22" fill="#4c78a8" rx="3"/>
<text x="485.97" y="78" class="value">126.34</text>
<text x="10" y="110" class="label">cdn.akamai.steamstatic.com</text>
<rect x="180" y="94" width="322.92" height="22" fill="#4c78a8" rx="3"/>
<text x="510.92" y="110" class="value">136.92</text>
<text x="10" y="142" class="label">store.akamai.steamstatic.com</text>
<rect x="180" y="126" width="327.57" height="22" fill="#4c78a8" rx="3"/>
<text x="515.5699999999999" y="142" class="value">138.89</text>
<text x="10" y="174" class="label">community.akamai.steamstatic.com</text>
<rect x="180" y="158" width="336.32" height="22" fill="#4c78a8" rx="3"/>
<text x="524.3199999999999" y="174" class="value">142.60</text>
<text x="10" y="206" class="label">eaassets-a.akamaihd.net</text>
<rect x="180" y="190" width="343.58" height="22" fill="#4c78a8" rx="3"/>
<text x="531.5799999999999" y="206" class="value">145.68</text>
<text x="10" y="238" class="label">ea.com</text>
<rect x="180" y="222" width="353.35" height="22" fill="#4c78a8" rx="3"/>
<text x="541.35" y="238" class="value">149.82</text>
<text x="10" y="270" class="label">origin.com</text>
<rect x="180" y="254" width="354.03" height="22" fill="#4c78a8" rx="3"/>
<text x="542.03" y="270" class="value">150.11</text>
<text x="10" y="302" class="label">steamcdn-a.akamaihd.net</text>
<rect x="180" y="286" width="364.27" height="22" fill="#4c78a8" rx="3"/>
<text x="552.27" y="302" class="value">154.45</text>
<text x="10" y="334" class="label">easyanticheat.net</text>
<rect x="180" y="318" width="382.41" height="22" fill="#4c78a8" rx="3"/>
<text x="570.4100000000001" y="334" class="value">162.14</text>
<text x="10" y="366" class="label">static3.cdn.ubi.com</text>
<rect x="180" y="350" width="440.09" height="22" fill="#4c78a8" rx="3"/>
<text x="628.0899999999999" y="366" class="value">186.60</text>
<text x="10" y="398" class="label">api.steampowered.com</text>
<rect x="180" y="382" width="542.17" height="22" fill="#4c78a8" rx="3"/>
<text x="730.17" y="398" class="value">229.88</text>
<text x="10" y="430" class="label">steam-chat.com</text>
<rect x="180" y="414" width="544.67" height="22" fill="#4c78a8" rx="3"/>
<text x="732.67" y="430" class="value">230.94</text>
<text x="10" y="462" class="label">steamcommunity.com</text>
<rect x="180" y="446" width="556.32" height="22" fill="#4c78a8" rx="3"/>
<text x="744.32" y="462" class="value">235.88</text>
<text x="10" y="494" class="label">cdn.cloudflare.steamstatic.com</text>
<rect x="180" y="478" width="580.0" height="22" fill="#4c78a8" rx="3"/>
<text x="768.0" y="494" class="value">245.92</text>
<line x1="180" y1="30" x2="180" y2="520" stroke="#ccc"/>
<line x1="180" y1="520" x2="760" y2="520" stroke="#ccc"/>
</svg>