<svg xmlns="http://www.w3.org/2000/svg" width="800" height="540">
<style> .label{font-family:DejaVu Sans,Verdana,Geneva,sans-serif;font-size:12px;fill:#333} .value{font-family:DejaVu Sans,Verdana,Geneva,sans-serif;font-size:12px;fill:#555} </style>
<text x="10" y="20" class="label">延迟柱状图（越低越好，Top 15），单位 ms</text>
<text x="10" y="46" class="label">community.akamai.steamstatic.com</text>
<rect x="180" y="30" width="256.63" height="22" fill="#4c78a8" rx="3"/>
<text x="444.63" y="46" class="value">114.37</text>
<text x="10" y="78" class="label">eaassets-a.akamaihd.net</text>
<rect x="180" y="62" width="309.61" height="22" fill="#4c78a8" rx="3"/>
<text x="497.61" y="78" class="value">137.98</text>
<text x="10" y="110" class="label">ubisoft.com</text>
<rect x="180" y="94" width="318.7" height="22" fill="#4c78a8" rx="3"/>
<text x="506.7" y="110" class="value">142.03</text>
<text x="10" y="142" class="label">ea.com</text>
<rect x="180" y="126" width="346.39" height="22" fill="#4c78a8" rx="3"/>
<text x="534.39" y="142" class="value">154.37</text>
<text x="10" y="174" class="label">cdn.akamai.steamstatic.com</text>
<rect x="180" y="158" width="380.61" height="22" fill="#4c78a8" rx="3"/>
<text x="568.61" y="174" class="value">169.62</text>
<text x="10" y="206" class="label">rockstargames.com</text>
<rect x="180" y="190" width="430.62" height="22" fill="#4c78a8" rx="3"/>
<text x="618.62" y="206" class="value">191.91</text>
<text x="10" y="238" class="label">steamcdn-a.akamaihd.net</text>
<rect x="180" y="222" width="433.0" height="22" fill="#4c78a8" rx="3"/>
<text x="621.0" y="238" class="value">192.97</text>
<text x="10" y="270" class="label">blizzard.com</text>
<rect x="180" y="254" width="483.85" height="22" fill="#4c78a8" rx="3"/>
<text x="671.85" y="270" class="value">215.63</text>
<text x="10" y="302" class="label">battle.net</text>
<rect x="180" y="286" width="484.1" height="22" fill="#4c78a8" rx="3"/>
<text x="672.1" y="302" class="value">215.74</text>
<text x="10" y="334" class="label">ubi.com</text>
<rect x="180" y="318" width="497.85" height="22" fill="#4c78a8" rx="3"/>
<text x="685.85" y="334" class="value">221.87</text>
<text x="10" y="366" class="label">easyanticheat.net</text>
<rect x="180" y="350" width="498.41" height="22" fill="#4c78a8" rx="3"/>
<text x="686.4100000000001" y="366" class="value">222.12</text>
<text x="10" y="398" class="label">www.steamcommunity.com</text>
<rect x="180" y="382" width="509.47" height="22" fill="#4c78a8" rx="3"/>
<text x="697.47" y="398" class="value">227.05</text>
<text x="10" y="430" class="label">store.akamai.steamstatic.com</text>
<rect x="180" y="414" width="523.5" height="22" fill="#4c78a8" rx="3"/>
<text x="711.5" y="430" class="value">233.30</text>
<text x="10" y="462" class="label">cdn.cloudflare.steamstatic.com</text>
<rect x="180" y="446" width="568.85" height="22" fill="#4c78a8" rx="3"/>
<text x="756.85" y="462" class="value">253.51</text>
<text x="10" y="494" class="label">steamcommunity.com</text>
<rect x="180" y="478" width="580.0" height="22" fill="#4c78a8" rx="3"/>
<text x="768.0" y="494" class="value">258.48</text>
<line x1="180" y1="30" x2="180" y2="520" stroke="#ccc"/>
<line x1="180" y1="520" x2="760" y2="520" stroke="#ccc"/>
</svg>