<svg xmlns="http://www.w3.org/2000/svg" width="800" height="540">
<style> .label{font-family:DejaVu Sans,Verdana,Geneva,sans-serif;font-size:12px;fill:#333} .value{font-family:DejaVu Sans,Verdana,Geneva,sans-serif;font-size:12px;fill:#555} </style>
<text x="10" y="20" class="label">延迟柱状图（越低越好，Top 15），单位 ms</text>
<text x="10" y="46" class="label">ubisoft.com</text>
<rect x="180" y="30" width="204.19" height="22" fill="#4c78a8" rx="3"/>
<text x="392.19" y="46" class="value">91.83</text>
<text x="10" y="78" class="label">eaassets-a.akamaihd.net</text>
<rect x="180" y="62" width="243.08" height="22" fill="#4c78a8" rx="3"/>
<text x="431.08000000000004" y="78" class="value">109.32</text>
<text x="10" y="110" class="label">ea.com</text>
<rect x="180" y="94" width="300.16" height="22" fill="#4c78a8" rx="3"/>
<text x="488.16" y="110" class="value">134.99</text>
<text x="10" y="142" class="label">store.akamai.steamstatic.com</text>
<rect x="180" y="126" width="318.31" height="22" fill="#4c78a8" rx="3"/>
<text x="506.31" y="142" class="value">143.15</text>
<text x="10" y="174" class="label">community.akamai.steamstatic.com</text>
<rect x="180" y="158" width="379.21" height="22" fill="#4c78a8" rx="3"/>
<text x="567.21" y="174" class="value">170.54</text>
<text x="10" y="206" class="label">cdn.akamai.steamstatic.com</text>
<rect x="180" y="190" width="388.75" height="22" fill="#4c78a8" rx="3"/>
<text x="576.75" y="206" class="value">174.83</text>
<text x="10" y="238" class="label">steamcdn-a.akamaihd.net</text>
<rect x="180" y="222" width="393.26" height="22" fill="#4c78a8" rx="3"/>
<text x="581.26" y="238" class="value">176.86</text>
<text x="10" y="270" class="label">origin.com</text>
<rect x="180" y="254" width="418.59" height="22" fill="#4c78a8" rx="3"/>
<text x="606.5899999999999" y="270" class="value">188.25</text>
<text x="10" y="302" class="label">cdn.cloudflare.steamstatic.com</text>
<rect x="180" y="286" width="475.54" height="22" fill="#4c78a8" rx="3"/>
<text x="663.54" y="302" class="value">213.86</text>
<text x="10" y="334" class="label">api.steampowered.com</text>
<rect x="180" y="318" width="521.81" height="22" fill="#4c78a8" rx="3"/>
<text x="709.81" y="334" class="value">234.67</text>
<text x="10" y="366" class="label">easyanticheat.net</text>
<rect x="180" y="350" width="537.35" height="22" fill="#4c78a8" rx="3"/>
<text x="725.35" y="366" class="value">241.66</text>
<text x="10" y="398" class="label">steamcommunity.com</text>
<rect x="180" y="382" width="554.52" height="22" fill="#4c78a8" rx="3"/>
<text x="742.52" y="398" class="value">249.38</text>
<text x="10" y="430" class="label">ubi.com</text>
<rect x="180" y="414" width="558.28" height="22" fill="#4c78a8" rx="3"/>
<text x="746.28" y="430" class="value">251.07</text>
<text x="10" y="462" class="label">launcher-public-service-prod06.ol.epicgames.com</text>
<rect x="180" y="446" width="562.43" height="22" fill="#4c78a8" rx="3"/>
<text x="750.43" y="462" class="value">252.94</text>
<text x="10" y="494" class="label">steam-chat.com</text>
<rect x="180" y="478" width="580.0" height="22" fill="#4c78a8" rx="3"/>
<text x="768.0" y="494" class="value">260.84</text>
<line x1="180" y1="30" x2="180" y2="520" stroke="#ccc"/>
<line x1="180" y1="520" x2="760" y2="520" stroke="#ccc"/>
</svg>