<svg xmlns="http://www.w3.org/2000/svg" width="800" height="540">
<style> .label{font-family:DejaVu Sans,Verdana,Geneva,sans-serif;font-size:12px;fill:#333} .value{font-family:DejaVu Sans,Verdana,Geneva,sans-serif;font-size:12px;fill:#555} </style>
<text x="10" y="20" class="label">延迟柱状图（越低越好，Top 15），单位 ms</text>
<text x="10" y="46" class="label">rockstargames.com</text>
<rect x="180" y="30" width="150.44" height="22" fill="#4c78a8" rx="3"/>
<text x="338.44" y="46" class="value">57.81</text>
<text x="10" y="78" class="label">ubisoft.com</text>
<rect x="180" y="62" width="253.07" height="22" fill="#4c78a8" rx="3"/>
<text x="441.07" y="78" class="value">97.25</text>
<text x="10" y="110" class="label">ubi.com</text>
<rect x="180" y="94" width="256.43" height="22" fill="#4c78a8" rx="3"/>
<text x="444.43" y="110" class="value">98.54</text>
<text x="10" y="142" class="label">socialclub.rockstargames.com</text>
<rect x="180" y="126" width="278.42" height="22" fill="#4c78a8" rx="3"/>
<text x="466.42" y="142" class="value">106.99</text>
<text x="10" y="174" class="label">origin.com</text>
<rect x="180" y="158" width="286.46" height="22" fill="#4c78a8" rx="3"/>
<text x="474.46" y="174" class="value">110.08</text>
<text x="10" y="206" class="label">blizzard.com</text>
<rect x="180" y="190" width="308.61" height="22" fill="#4c78a8" rx="3"/>
<text x="496.61" y="206" class="value">118.59</text>
<text x="10" y="238" class="label">battle.net</text>
<rect x="180" y="222" width="332.44" height="22" fill="#4c78a8" rx="3"/>
<text x="520.44" y="238" class="value">127.75</text>
<text x="10" y="270" class="label">eaassets-a.akamaihd.net</text>
<rect x="180" y="254" width="348.84" height="22" fill="#4c78a8" rx="3"/>
<text x="536.8399999999999" y="270" class="value">134.05</text>
<text x="10" y="302" class="label">ea.com</text>
<rect x="180" y="286" width="406.43" height="22" fill="#4c78a8" rx="3"/>
<text x="594.4300000000001" y="302" class="value">156.18</text>
<text x="10" y="334" class="label">easyanticheat.net</text>
<rect x="180" y="318" width="434.87" height="22" fill="#4c78a8" rx="3"/>
<text x="622.87" y="334" class="value">167.11</text>
<text x="10" y="366" class="label">fortnite.com</text>
<rect x="180" y="350" width="475.62" height="22" fill="#4c78a8" rx="3"/>
<text x="663.62" y="366" class="value">182.77</text>
<text x="10" y="398" class="label">unrealengine.com</text>
<rect x="180" y="382" width="516.63" height="22" fill="#4c78a8" rx="3"/>
<text x="704.63" y="398" class="value">198.53</text>
<text x="10" y="430" class="label">community.akamai.steamstatic.com</text>
<rect x="180" y="414" width="522.85" height="22" fill="#4c78a8" rx="3"/>
<text x="710.85" y="430" class="value">200.92</text>
<text x="10" y="462" class="label">store.akamai.steamstatic.com</text>
<rect x="180" y="446" width="578.07" height="22" fill="#4c78a8" rx="3"/>
<text x="766.07" y="462" class="value">222.14</text>
<text x="10" y="494" class="label">cdn.cloudflare.steamstatic.com</text>
<rect x="180" y="478" width="580.0" height="22" fill="#4c78a8" rx="3"/>
<text x="768.0" y="494" class="value">222.88</text>
<line x1="180" y1="30" x2="180" y2="520" stroke="#ccc"/>
<line x1="180" y1="520" x2="760" y2="520" stroke="#ccc"/>
</svg>