<svg xmlns="http://www.w3.org/2000/svg" width="800" height="540">
<style> .label{font-family:DejaVu Sans,Verdana,Geneva,sans-serif;font-size:12px;fill:#333} .value{font-family:DejaVu Sans,Verdana,Geneva,sans-serif;font-size:12px;fill:#555} </style>
<text x="10" y="20" class="label">延迟柱状图（越低越好，Top 15），单位 ms</text>
<text x="10" y="46" class="label">rockstargames.com</text>
<rect x="180" y="30" width="97.19" height="22" fill="#4c78a8" rx="3"/>
<text x="285.19" y="46" class="value">47.14</text>
<text x="10" y="78" class="label">eaassets-a.akamaihd.net</text>
<rect x="180" y="62" width="130.18" height="22" fill="#4c78a8" rx="3"/>
<text x="318.18" y="78" class="value">63.14</text>
<text x="10" y="110" class="label">ea.com</text>
<rect x="180" y="94" width="136.44" height="22" fill="#4c78a8" rx="3"/>
<text x="324.44" y="110" class="value">66.18</text>
<text x="10" y="142" class="label">steamcdn-a.akamaihd.net</text>
<rect x="180" y="126" width="161.08" height="22" fill="#4c78a8" rx="3"/>
<text x="349.08000000000004" y="142" class="value">78.13</text>
<text x="10" y="174" class="label">store.akamai.steamstatic.com</text>
<rect x="180" y="158" width="265.98" height="22" fill="#4c78a8" rx="3"/>
<text x="453.98" y="174" class="value">129.01</text>
<text x="10" y="206" class="label">cdn.cloudflare.steamstatic.com</text>
<rect x="180" y="190" width="300.8" height="22" fill="#4c78a8" rx="3"/>
<text x="488.8" y="206" class="value">145.90</text>
<text x="10" y="238" class="label">easyanticheat.net</text>
<rect x="180" y="222" width="320.84" height="22" fill="#4c78a8" rx="3"/>
<text x="508.84" y="238" class="value">155.62</text>
<text x="10" y="270" class="label">cdn.akamai.steamstatic.com</text>
<rect x="180" y="254" width="329.94" height="22" fill="#4c78a8" rx="3"/>
<text x="517.94" y="270" class="value">160.03</text>
<text x="10" y="302" class="label">origin.com</text>
<rect x="180" y="286" width="360.2" height="22" fill="#4c78a8" rx="3"/>
<text x="548.2" y="302" class="value">174.71</text>
<text x="10" y="334" class="label">community.akamai.steamstatic.com</text>
<rect x="180" y="318" width="467.35" height="22" fill="#4c78a8" rx="3"/>
<text x="655.35" y="334" class="value">226.68</text>
<text x="10" y="366" class="label">steam-chat.com</text>
<rect x="180" y="350" width="476.73" height="22" fill="#4c78a8" rx="3"/>
<text x="664.73" y="366" class="value">231.23</text>
<text x="10" y="398" class="label">ubisoft.com</text>
<rect x="180" y="382" width="500.48" height="22" fill="#4c78a8" rx="3"/>
<text x="688.48" y="398" class="value">242.75</text>
<text x="10" y="430" class="label">www.steamcommunity.com</text>
<rect x="180" y="414" width="546.27" height="22" fill="#4c78a8" rx="3"/>
<text x="734.27" y="430" class="value">264.96</text>
<text x="10" y="462" class="label">api.steampowered.com</text>
<rect x="180" y="446" width="547.36" height="22" fill="#4c78a8" rx="3"/>
<text x="735.36" y="462" class="value">265.49</text>
<text x="10" y="494" class="label">launcher-public-service-prod06.ol.epicgames.com</text>
<rect x="180" y="478" width="580.0" height="22" fill="#4c78a8" rx="3"/>
<text x="768.0" y="494" class="value">281.32</text>
<line x1="180" y1="30" x2="180" y2="520" stroke="#ccc"/>
<line x1="180" y1="520" x2="760" y2="520" stroke="#ccc"/>
</svg>