<svg xmlns="http://www.w3.org/2000/svg" width="800" height="540">
<style> .label{font-family:DejaVu Sans,Verdana,Geneva,sans-serif;font-size:12px;fill:#333} .value{font-family:DejaVu Sans,Verdana,Geneva,sans-serif;font-size:12px;fill:#555} </style>
<text x="10" y="20" class="label">延迟柱状图（越低越好，Top 15），单位 ms</text>
<text x="10" y="46" class="label">eaassets-a.akamaihd.net</text>
<rect x="180" y="30" width="144.31" height="22" fill="#4c78a8" rx="3"/>
<text x="332.31" y="46" class="value">68.93</text>
<text x="10" y="78" class="label">ubisoft.com</text>
<rect x="180" y="62" width="200.44" height="22" fill="#4c78a8" rx="3"/>
<text x="388.44" y="78" class="value">95.74</text>
<text x="10" y="110" class="label">rockstargames.com</text>
<rect x="180" y="94" width="204.94" height="22" fill="#4c78a8" rx="3"/>
<text x="392.94" y="110" class="value">97.89</text>
<text x="10" y="142" class="label">cdn.cloudflare.steamstatic.com</text>
<rect x="180" y="126" width="271.89" height="22" fill="#4c78a8" rx="3"/>
<text x="459.89" y="142" class="value">129.87</text>
<text x="10" y="174" class="label">origin.com</text>
<rect x="180" y="158" width="273.0" height="22" fill="#4c78a8" rx="3"/>
<text x="461.0" y="174" class="value">130.40</text>
<text x="10" y="206" class="label">ea.com</text>
<rect x="180" y="190" width="276.39" height="22" fill="#4c78a8" rx="3"/>
<text x="464.39" y="206" class="value">132.02</text>
<text x="10" y="238" class="label">steamcdn-a.akamaihd.net</text>
<rect x="180" y="222" width="300.61" height="22" fill="#4c78a8" rx="3"/>
<text x="488.61" y="238" class="value">143.59</text>
<text x="10" y="270" class="label">community.akamai.steamstatic.com</text>
<rect x="180" y="254" width="345.67" height="22" fill="#4c78a8" rx="3"/>
<text x="533.6700000000001" y="270" class="value">165.11</text>
<text x="10" y="302" class="label">cdn.akamai.steamstatic.com</text>
<rect x="180" y="286" width="348.31" height="22" fill="#4c78a8" rx="3"/>
<text x="536.31" y="302" class="value">166.37</text>
<text x="10" y="334" class="label">store.akamai.steamstatic.com</text>
<rect x="180" y="318" width="358.96" height="22" fill="#4c78a8" rx="3"/>
<text x="546.96" y="334" class="value">171.46</text>
<text x="10" y="366" class="label">easyanticheat.net</text>
<rect x="180" y="350" width="362.6" height="22" fill="#4c78a8" rx="3"/>
<text x="550.6" y="366" class="value">173.20</text>
<text x="10" y="398" class="label">www.steamcommunity.com</text>
<rect x="180" y="382" width="462.61" height="22" fill="#4c78a8" rx="3"/>
<text x="650.61" y="398" class="value">220.97</text>
<text x="10" y="430" class="label">gog.com</text>
<rect x="180" y="414" width="500.86" height="22" fill="#4c78a8" rx="3"/>
<text x="688.86" y="430" class="value">239.24</text>
<text x="10" y="462" class="label">api.steampowered.com</text>
<rect x="180" y="446" width="551.15" height="22" fill="#4c78a8" rx="3"/>
<text x="739.15" y="462" class="value">263.26</text>
<text x="10" y="494" class="label">steam-chat.com</text>
<rect x="180" y="478" width="580.0" height="22" fill="#4c78a8" rx="3"/>
<text x="768.0" y="494" class="value">277.04</text>
<line x1="180" y1="30" x2="180" y2="520" stroke="#ccc"/>
<line x1="180" y1="520" x2="760" y2="520" stroke="#ccc"/>
</svg>