<svg xmlns="http://www.w3.org/2000/svg" width="800" height="540">
<style> .label{font-family:DejaVu Sans,Verdana,Geneva,sans-serif;font-size:12px;fill:#333} .value{font-family:DejaVu Sans,Verdana,Geneva,sans-serif;font-size:12px;fill:#555} </style>
<text x="10" y="20" class="label">延迟柱状图（越低越好，Top 15），单位 ms</text>
<text x="10" y="46" class="label">ubisoft.com</text>
<rect x="180" y="30" width="195.68" height="22" fill="#4c78a8" rx="3"/>
<text x="383.68" y="46" class="value">98.17</text>
<text x="10" y="78" class="label">rockstargames.com</text>
<rect x="180" y="62" width="209.51" height="22" fill="#4c78a8" rx="3"/>
<text x="397.51" y="78" class="value">105.11</text>
<text x="10" y="110" class="label">ea.com</text>
<rect x="180" y="94" width="258.47" height="22" fill="#4c78a8" rx="3"/>
<text x="446.47" y="110" class="value">129.67</text>
<text x="10" y="142" class="label">socialclub.rockstargames.com</text>
<rect x="180" y="126" width="277.86" height="22" fill="#4c78a8" rx="3"/>
<text x="465.86" y="142" class="value">139.40</text>
<text x="10" y="174" class="label">blizzard.com</text>
<rect x="180" y="158" width="320.64" height="22" fill="#4c78a8" rx="3"/>
<text x="508.64" y="174" class="value">160.86</text>
<text x="10" y="206" class="label">eaassets-a.akamaihd.net</text>
<rect x="180" y="190" width="338.24" height="22" fill="#4c78a8" rx="3"/>
<text x="526.24" y="206" class="value">169.69</text>
<text x="10" y="238" class="label">steamcdn-a.akamaihd.net</text>
<rect x="180" y="222" width="375.89" height="22" fill="#4c78a8" rx="3"/>
<text x="563.89" y="238" class="value">188.58</text>
<text x="10" y="270" class="label">battle.net</text>
<rect x="180" y="254" width="377.23" height="22" fill="#4c78a8" rx="3"/>
<text x="565.23" y="270" class="value">189.25</text>
<text x="10" y="302" class="label">store.akamai.steamstatic.com</text>
<rect x="180" y="286" width="385.98" height="22" fill="#4c78a8" rx="3"/>
<text x="573.98" y="302" class="value">193.64</text>
<text x="10" y="334" class="label">cdn.akamai.steamstatic.com</text>
<rect x="180" y="318" width="436.7" height="22" fill="#4c78a8" rx="3"/>
<text x="624.7" y="334" class="value">219.09</text>
<text x="10" y="366" class="label">ubi.com</text>
<rect x="180" y="350" width="436.94" height="22" fill="#4c78a8" rx="3"/>
<text x="624.94" y="366" class="value">219.21</text>
<text x="10" y="398" class="label">origin.com</text>
<rect x="180" y="382" width="509.38" height="22" fill="#4c78a8" rx="3"/>
<text x="697.38" y="398" class="value">255.55</text>
<text x="10" y="430" class="label">api.steampowered.com</text>
<rect x="180" y="414" width="511.91" height="22" fill="#4c78a8" rx="3"/>
<text x="699.9100000000001" y="430" class="value">256.82</text>
<text x="10" y="462" class="label">static3.cdn.ubi.com</text>
<rect x="180" y="446" width="539.88" height="22" fill="#4c78a8" rx="3"/>
<text x="727.88" y="462" class="value">270.85</text>
<text x="10" y="494" class="label">community.akamai.steamstatic.com</text>
<rect x="180" y="478" width="580.0" height="22" fill="#4c78a8" rx="3"/>
<text x="768.0" y="494" class="value">290.98</text>
<line x1="180" y1="30" x2="180" y2="520" stroke="#ccc"/>
<line x1="180" y1="520" x2="760" y2="520" stroke="#ccc"/>
</svg>