<svg xmlns="http://www.w3.org/2000/svg" width="800" height="540">
<style> .label{font-family:DejaVu Sans,Verdana,Geneva,sans-serif;font-size:12px;fill:#333} .value{font-family:DejaVu Sans,Verdana,Geneva,sans-serif;font-size:12px;fill:#555} </style>
<text x="10" y="20" class="label">延迟柱状图（越低越好，Top 15），单位 ms</text>
<text x="10" y="46" class="label">rockstargames.com</text>
<rect x="180" y="30" width="161.17" height="22" fill="#4c78a8" rx="3"/>
<text x="349.16999999999996" y="46" class="value">60.54</text>
<text x="10" y="78" class="label">eaassets-a.akamaihd.net</text>
<rect x="180" y="62" width="172.67" height="22" fill="#4c78a8" rx="3"/>
<text x="360.66999999999996" y="78" class="value">64.86</text>
<text x="10" y="110" class="label">steamcdn-a.akamaihd.net</text>
<rect x="180" y="94" width="257.87" height="22" fill="#4c78a8" rx="3"/>
<text x="445.87" y="110" class="value">96.86</text>
<text x="10" y="142" class="label">origin.com</text>
<rect x="180" y="126" width="266.12" height="22" fill="#4c78a8" rx="3"/>
<text x="454.12" y="142" class="value">99.96</text>
<text x="10" y="174" class="label">ubisoft.com</text>
<rect x="180" y="158" width="303.44" height="22" fill="#4c78a8" rx="3"/>
<text x="491.44" y="174" class="value">113.98</text>
<text x="10" y="206" class="label">ea.com</text>
<rect x="180" y="190" width="304.16" height="22" fill="#4c78a8" rx="3"/>
<text x="492.16" y="206" class="value">114.25</text>
<text x="10" y="238" class="label">battle.net</text>
<rect x="180" y="222" width="331.37" height="22" fill="#4c78a8" rx="3"/>
<text x="519.37" y="238" class="value">124.47</text>
<text x="10" y="270" class="label">blizzard.com</text>
<rect x="180" y="254" width="357.89" height="22" fill="#4c78a8" rx="3"/>
<text x="545.89" y="270" class="value">134.43</text>
<text x="10" y="302" class="label">socialclub.rockstargames.com</text>
<rect x="180" y="286" width="366.11" height="22" fill="#4c78a8" rx="3"/>
<text x="554.11" y="302" class="value">137.52</text>
<text x="10" y="334" class="label">community.akamai.steamstatic.com</text>
<rect x="180" y="318" width="367.53" height="22" fill="#4c78a8" rx="3"/>
<text x="555.53" y="334" class="value">138.05</text>
<text x="10" y="366" class="label">ubi.com</text>
<rect x="180" y="350" width="386.29" height="22" fill="#4c78a8" rx="3"/>
<text x="574.29" y="366" class="value">145.10</text>
<text x="10" y="398" class="label">static3.cdn.ubi.com</text>
<rect x="180" y="382" width="436.05" height="22" fill="#4c78a8" rx="3"/>
<text x="624.05" y="398" class="value">163.79</text>
<text x="10" y="430" class="label">api.steampowered.com</text>
<rect x="180" y="414" width="502.9" height="22" fill="#4c78a8" rx="3"/>
<text x="690.9" y="430" class="value">188.90</text>
<text x="10" y="462" class="label">store.akamai.steamstatic.com</text>
<rect x="180" y="446" width="542.68" height="22" fill="#4c78a8" rx="3"/>
<text x="730.68" y="462" class="value">203.84</text>
<text x="10" y="494" class="label">steamcommunity.com</text>
<rect x="180" y="478" width="580.0" height="22" fill="#4c78a8" rx="3"/>
<text x="768.0" y="494" class="value">217.86</text>
<line x1="180" y1="30" x2="180" y2="520" stroke="#ccc"/>
<line x1="180" y1="520" x2="760" y2="520" stroke="#ccc"/>
</svg>