<svg xmlns="http://www.w3.org/2000/svg" width="800" height="540">
<style> .label{font-family:DejaVu Sans,Verdana,Geneva,sans-serif;font-size:12px;fill:#333} .value{font-family:DejaVu Sans,Verdana,Geneva,sans-serif;font-size:12px;fill:#555} </style>
<text x="10" y="20" class="label">延迟柱状图（越低越好，Top 15），单位 ms</text>
<text x="10" y="46" class="label">rockstargames.com</text>
<rect x="180" y="30" width="225.43" height="22" fill="#4c78a8" rx="3"/>
<text x="413.43" y="46" class="value">67.75</text>
<text x="10" y="78" class="label">eaassets-a.akamaihd.net</text>
<rect x="180" y="62" width="249.72" height="22" fill="#4c78a8" rx="3"/>
<text x="437.72" y="78" class="value">75.05</text>
<text x="10" y="110" class="label">blizzard.com</text>
<rect x="180" y="94" width="255.71" height="22" fill="#4c78a8" rx="3"/>
<text x="443.71000000000004" y="110" class="value">76.85</text>
<text x="10" y="142" class="label">socialclub.rockstargames.com</text>
<rect x="180" y="126" width="266.06" height="22" fill="#4c78a8" rx="3"/>
<text x="454.06" y="142" class="value">79.96</text>
<text x="10" y="174" class="label">ubi.com</text>
<rect x="180" y="158" width="275.11" height="22" fill="#4c78a8" rx="3"/>
<text x="463.11" y="174" class="value">82.68</text>
<text x="10" y="206" class="label">battle.net</text>
<rect x="180" y="190" width="300.63" height="22" fill="#4c78a8" rx="3"/>
<text x="488.63" y="206" class="value">90.35</text>
<text x="10" y="238" class="label">fortnite.com</text>
<rect x="180" y="222" width="327.25" height="22" fill="#4c78a8" rx="3"/>
<text x="515.25" y="238" class="value">98.35</text>
<text x="10" y="270" class="label">unrealengine.com</text>
<rect x="180" y="254" width="348.31" height="22" fill="#4c78a8" rx="3"/>
<text x="536.31" y="270" class="value">104.68</text>
<text x="10" y="302" class="label">ubisoft.com</text>
<rect x="180" y="286" width="376.4" height="22" fill="#4c78a8" rx="3"/>
<text x="564.4" y="302" class="value">113.12</text>
<text x="10" y="334" class="label">ea.com</text>
<rect x="180" y="318" width="406.54" height="22" fill="#4c78a8" rx="3"/>
<text x="594.54" y="334" class="value">122.18</text>
<text x="10" y="366" class="label">community.akamai.steamstatic.com</text>
<rect x="180" y="350" width="441.08" height="22" fill="#4c78a8" rx="3"/>
<text x="629.0799999999999" y="366" class="value">132.56</text>
<text x="10" y="398" class="label">easyanticheat.net</text>
<rect x="180" y="382" width="474.75" height="22" fill="#4c78a8" rx="3"/>
<text x="662.75" y="398" class="value">142.68</text>
<text x="10" y="430" class="label">origin.com</text>
<rect x="180" y="414" width="496.18" height="22" fill="#4c78a8" rx="3"/>
<text x="684.1800000000001" y="430" class="value">149.12</text>
<text x="10" y="462" class="label">gog.com</text>
<rect x="180" y="446" width="500.74" height="22" fill="#4c78a8" rx="3"/>
<text x="688.74" y="462" class="value">150.49</text>
<text x="10" y="494" class="label">steamcdn-a.akamaihd.net</text>
<rect x="180" y="478" width="580.0" height="22" fill="#4c78a8" rx="3"/>
<text x="768.0" y="494" class="value">174.31</text>
<line x1="180" y1="30" x2="180" y2="520" stroke="#ccc"/>
<line x1="180" y1="520" x2="760" y2="520" stroke="#ccc"/>
</svg>