<svg xmlns="http://www.w3.org/2000/svg" width="800" height="540">
<style> .label{font-family:DejaVu Sans,Verdana,Geneva,sans-serif;font-size:12px;fill:#333} .value{font-family:DejaVu Sans,Verdana,Geneva,sans-serif;font-size:12px;fill:#555} </style>
<text x="10" y="20" class="label">延迟柱状图（越低越好，Top 15），单位 ms</text>
<text x="10" y="46" class="label">rockstargames.com</text>
<rect x="180" y="30" width="327.3" height="22" fill="#4c78a8" rx="3"/>
<text x="515.3" y="46" class="value">132.93</text>
<text x="10" y="78" class="label">eaassets-a.akamaihd.net</text>
<rect x="180" y="62" width="375.73" height="22" fill="#4c78a8" rx="3"/>
<text x="563.73" y="78" class="value">152.60</text>
<text x="10" y="110" class="label">ubi.com</text>
<rect x="180" y="94" width="377.93" height="22" fill="#4c78a8" rx="3"/>
<text x="565.9300000000001" y="110" class="value">153.49</text>
<text x="10" y="142" class="label">blizzard.com</text>
<rect x="180" y="126" width="413.65" height="22" fill="#4c78a8" rx="3"/>
<text x="601.65" y="142" class="value">168.00</text>
<text x="10" y="174" class="label">origin.com</text>
<rect x="180" y="158" width="425.77" height="22" fill="#4c78a8" rx="3"/>
<text x="613.77" y="174" class="value">172.92</text>
<text x="10" y="206" class="label">cdn.akamai.steamstatic.com</text>
<rect x="180" y="190" width="430.47" height="22" fill="#4c78a8" rx="3"/>
<text x="618.47" y="206" class="value">174.83</text>
<text x="10" y="238" class="label">ea.com</text>
<rect x="180" y="222" width="432.02" height="22" fill="#4c78a8" rx="3"/>
<text x="620.02" y="238" class="value">175.46</text>
<text x="10" y="270" class="label">steamcdn-a.akamaihd.net</text>
<rect x="180" y="254" width="436.7" height="22" fill="#4c78a8" rx="3"/>
<text x="624.7" y="270" class="value">177.36</text>
<text x="10" y="302" class="label">battle.net</text>
<rect x="180" y="286" width="469.03" height="22" fill="#4c78a8" rx="3"/>
<text x="657.03" y="302" class="value">190.49</text>
<text x="10" y="334" class="label">ubisoft.com</text>
<rect x="180" y="318" width="517.73" height="22" fill="#4c78a8" rx="3"/>
<text x="705.73" y="334" class="value">210.27</text>
<text x="10" y="366" class="label">community.akamai.steamstatic.com</text>
<rect x="180" y="350" width="524.38" height="22" fill="#4c78a8" rx="3"/>
<text x="712.38" y="366" class="value">212.97</text>
<text x="10" y="398" class="label">socialclub.rockstargames.com</text>
<rect x="180" y="382" width="525.66" height="22" fill="#4c78a8" rx="3"/>
<text x="713.66" y="398" class="value">213.49</text>
<text x="10" y="430" class="label">cdn.cloudflare.steamstatic.com</text>
<rect x="180" y="414" width="535.78" height="22" fill="#4c78a8" rx="3"/>
<text x="723.78" y="430" class="value">217.60</text>
<text x="10" y="462" class="label">www.steamcommunity.com</text>
<rect x="180" y="446" width="538.14" height="22" fill="#4c78a8" rx="3"/>
<text x="726.14" y="462" class="value">218.56</text>
<text x="10" y="494" class="label">static3.cdn.ubi.com</text>
<rect x="180" y="478" width="580.0" height="22" fill="#4c78a8" rx="3"/>
<text x="768.0" y="494" class="value">235.56</text>
<line x1="180" y1="30" x2="180" y2="520" stroke="#ccc"/>
<line x1="180" y1="520" x2="760" y2="520" stroke="#ccc"/>
</svg>