<svg xmlns="http://www.w3.org/2000/svg" width="800" height="540">
<style> .label{font-family:DejaVu Sans,Verdana,Geneva,sans-serif;font-size:12px;fill:#333} .value{font-family:DejaVu Sans,Verdana,Geneva,sans-serif;font-size:12px;fill:#555} </style>
<text x="10" y="20" class="label">延迟柱状图（越低越好，Top 15），单位 ms</text>
<text x="10" y="46" class="label">eaassets-a.akamaihd.net</text>
<rect x="180" y="30" width="83.69" height="22" fill="#4c78a8" rx="3"/>
<text x="271.69" y="46" class="value">37.80</text>
<text x="10" y="78" class="label">ea.com</text>
<rect x="180" y="62" width="141.52" height="22" fill="#4c78a8" rx="3"/>
<text x="329.52" y="78" class="value">63.92</text>
<text x="10" y="110" class="label">rockstargames.com</text>
<rect x="180" y="94" width="142.65" height="22" fill="#4c78a8" rx="3"/>
<text x="330.65" y="110" class="value">64.43</text>
<text x="10" y="142" class="label">cdn.akamai.steamstatic.com</text>
<rect x="180" y="126" width="281.51" height="22" fill="#4c78a8" rx="3"/>
<text x="469.51" y="142" class="value">127.15</text>
<text x="10" y="174" class="label">ubisoft.com</text>
<rect x="180" y="158" width="307.08" height="22" fill="#4c78a8" rx="3"/>
<text x="495.08" y="174" class="value">138.70</text>
<text x="10" y="206" class="label">steamcdn-a.akamaihd.net</text>
<rect x="180" y="190" width="313.26" height="22" fill="#4c78a8" rx="3"/>
<text x="501.26" y="206" class="value">141.49</text>
<text x="10" y="238" class="label">store.akamai.steamstatic.com</text>
<rect x="180" y="222" width="331.55" height="22" fill="#4c78a8" rx="3"/>
<text x="519.55" y="238" class="value">149.75</text>
<text x="10" y="270" class="label">community.akamai.steamstatic.com</text>
<rect x="180" y="254" width="347.46" height="22" fill="#4c78a8" rx="3"/>
<text x="535.46" y="270" class="value">156.94</text>
<text x="10" y="302" class="label">cdn.cloudflare.steamstatic.com</text>
<rect x="180" y="286" width="357.69" height="22" fill="#4c78a8" rx="3"/>
<text x="545.69" y="302" class="value">161.56</text>
<text x="10" y="334" class="label">origin.com</text>
<rect x="180" y="318" width="376.84" height="22" fill="#4c78a8" rx="3"/>
<text x="564.8399999999999" y="334" class="value">170.21</text>
<text x="10" y="366" class="label">easyanticheat.net</text>
<rect x="180" y="350" width="420.66" height="22" fill="#4c78a8" rx="3"/>
<text x="608.6600000000001" y="366" class="value">190.00</text>
<text x="10" y="398" class="label">api.steampowered.com</text>
<rect x="180" y="382" width="441.8" height="22" fill="#4c78a8" rx="3"/>
<text x="629.8" y="398" class="value">199.55</text>
<text x="10" y="430" class="label">www.steamcommunity.com</text>
<rect x="180" y="414" width="466.62" height="22" fill="#4c78a8" rx="3"/>
<text x="654.62" y="430" class="value">210.76</text>
<text x="10" y="462" class="label">steam-chat.com</text>
<rect x="180" y="446" width="544.33" height="22" fill="#4c78a8" rx="3"/>
<text x="732.33" y="462" class="value">245.86</text>
<text x="10" y="494" class="label">gog.com</text>
<rect x="180" y="478" width="580.0" height="22" fill="#4c78a8" rx="3"/>
<text x="768.0" y="494" class="value">261.97</text>
<line x1="180" y1="30" x2="180" y2="520" stroke="#ccc"/>
<line x1="180" y1="520" x2="760" y2="520" stroke="#ccc"/>
</svg>