<svg xmlns="http://www.w3.org/2000/svg" width="800" height="540">
<style> .label{font-family:DejaVu Sans,Verdana,Geneva,sans-serif;font-size:12px;fill:#333} .value{font-family:DejaVu Sans,Verdana,Geneva,sans-serif;font-size:12px;fill:#555} </style>
<text x="10" y="20" class="label">延迟柱状图（越低越好，Top 15），单位 ms</text>
<text x="10" y="46" class="label">rockstargames.com</text>
<rect x="180" y="30" width="251.07" height="22" fill="#4c78a8" rx="3"/>
<text x="439.07" y="46" class="value">69.27</text>
<text x="10" y="78" class="label">socialclub.rockstargames.com</text>
<rect x="180" y="62" width="264.99" height="22" fill="#4c78a8" rx="3"/>
<text x="452.99" y="78" class="value">73.11</text>
<text x="10" y="110" class="label">eaassets-a.akamaihd.net</text>
<rect x="180" y="94" width="286.01" height="22" fill="#4c78a8" rx="3"/>
<text x="474.01" y="110" class="value">78.91</text>
<text x="10" y="142" class="label">battle.net</text>
<rect x="180" y="126" width="292.54" height="22" fill="#4c78a8" rx="3"/>
<text x="480.54" y="142" class="value">80.71</text>
<text x="10" y="174" class="label">blizzard.com</text>
<rect x="180" y="158" width="333.17" height="22" fill="#4c78a8" rx="3"/>
<text x="521.1700000000001" y="174" class="value">91.92</text>
<text x="10" y="206" class="label">unrealengine.com</text>
<rect x="180" y="190" width="352.99" height="22" fill="#4c78a8" rx="3"/>
<text x="540.99" y="206" class="value">97.39</text>
<text x="10" y="238" class="label">ubi.com</text>
<rect x="180" y="222" width="353.97" height="22" fill="#4c78a8" rx="3"/>
<text x="541.97" y="238" class="value">97.66</text>
<text x="10" y="270" class="label">origin.com</text>
<rect x="180" y="254" width="466.88" height="22" fill="#4c78a8" rx="3"/>
<text x="654.88" y="270" class="value">128.81</text>
<text x="10" y="302" class="label">static3.cdn.ubi.com</text>
<rect x="180" y="286" width="472.24" height="22" fill="#4c78a8" rx="3"/>
<text x="660.24" y="302" class="value">130.29</text>
<text x="10" y="334" class="label">cdn.cloudflare.steamstatic.com</text>
<rect x="180" y="318" width="475.0" height="22" fill="#4c78a8" rx="3"/>
<text x="663.0" y="334" class="value">131.05</text>
<text x="10" y="366" class="label">fortnite.com</text>
<rect x="180" y="350" width="482.72" height="22" fill="#4c78a8" rx="3"/>
<text x="670.72" y="366" class="value">133.18</text>
<text x="10" y="398" class="label">ubisoft.com</text>
<rect x="180" y="382" width="530.42" height="22" fill="#4c78a8" rx="3"/>
<text x="718.42" y="398" class="value">146.34</text>
<text x="10" y="430" class="label">store.akamai.steamstatic.com</text>
<rect x="180" y="414" width="543.57" height="22" fill="#4c78a8" rx="3"/>
<text x="731.57" y="430" class="value">149.97</text>
<text x="10" y="462" class="label">ea.com</text>
<rect x="180" y="446" width="556.19" height="22" fill="#4c78a8" rx="3"/>
<text x="744.19" y="462" class="value">153.45</text>
<text x="10" y="494" class="label">epicgames.com</text>
<rect x="180" y="478" width="580.0" height="22" fill="#4c78a8" rx="3"/>
<text x="768.0" y="494" class="value">160.02</text>
<line x1="180" y1="30" x2="180" y2="520" stroke="#ccc"/>
<line x1="180" y1="520" x2="760" y2="520" stroke="#ccc"/>
</svg>