<svg xmlns="http://www.w3.org/2000/svg" width="800" height="540">
<style> .label{font-family:DejaVu Sans,Verdana,Geneva,sans-serif;font-size:12px;fill:#333} .value{font-family:DejaVu Sans,Verdana,Geneva,sans-serif;font-size:12px;fill:#555} </style>
<text x="10" y="20" class="label">延迟柱状图（越低越好，Top 15），单位 ms</text>
<text x="10" y="46" class="label">cdn.akamai.steamstatic.com</text>
<rect x="180" y="30" width="250.56" height="22" fill="#4c78a8" rx="3"/>
<text x="438.56" y="46" class="value">120.90</text>
<text x="10" y="78" class="label">rockstargames.com</text>
<rect x="180" y="62" width="279.8" height="22" fill="#4c78a8" rx="3"/>
<text x="467.8" y="78" class="value">135.01</text>
<text x="10" y="110" class="label">eaassets-a.akamaihd.net</text>
<rect x="180" y="94" width="319.26" height="22" fill="#4c78a8" rx="3"/>
<text x="507.26" y="110" class="value">154.05</text>
<text x="10" y="142" class="label">blizzard.com</text>
<rect x="180" y="126" width="355.41" height="22" fill="#4c78a8" rx="3"/>
<text x="543.4100000000001" y="142" class="value">171.49</text>
<text x="10" y="174" class="label">ea.com</text>
<rect x="180" y="158" width="372.9" height="22" fill="#4c78a8" rx="3"/>
<text x="560.9" y="174" class="value">179.93</text>
<text x="10" y="206" class="label">socialclub.rockstargames.com</text>
<rect x="180" y="190" width="380.61" height="22" fill="#4c78a8" rx="3"/>
<text x="568.61" y="206" class="value">183.65</text>
<text x="10" y="238" class="label">easyanticheat.net</text>
<rect x="180" y="222" width="384.38" height="22" fill="#4c78a8" rx="3"/>
<text x="572.38" y="238" class="value">185.47</text>
<text x="10" y="270" class="label">battle.net</text>
<rect x="180" y="254" width="398.87" height="22" fill="#4c78a8" rx="3"/>
<text x="586.87" y="270" class="value">192.46</text>
<text x="10" y="302" class="label">steamcdn-a.akamaihd.net</text>
<rect x="180" y="286" width="418.43" height="22" fill="#4c78a8" rx="3"/>
<text x="606.4300000000001" y="302" class="value">201.90</text>
<text x="10" y="334" class="label">community.akamai.steamstatic.com</text>
<rect x="180" y="318" width="476.34" height="22" fill="#4c78a8" rx="3"/>
<text x="664.3399999999999" y="334" class="value">229.84</text>
<text x="10" y="366" class="label">store.akamai.steamstatic.com</text>
<rect x="180" y="350" width="490.16" height="22" fill="#4c78a8" rx="3"/>
<text x="678.1600000000001" y="366" class="value">236.51</text>
<text x="10" y="398" class="label">ubi.com</text>
<rect x="180" y="382" width="500.02" height="22" fill="#4c78a8" rx="3"/>
<text x="688.02" y="398" class="value">241.27</text>
<text x="10" y="430" class="label">steam-chat.com</text>
<rect x="180" y="414" width="501.6" height="22" fill="#4c78a8" rx="3"/>
<text x="689.6" y="430" class="value">242.03</text>
<text x="10" y="462" class="label">cdn.cloudflare.steamstatic.com</text>
<rect x="180" y="446" width="552.5" height="22" fill="#4c78a8" rx="3"/>
<text x="740.5" y="462" class="value">266.59</text>
<text x="10" y="494" class="label">origin.com</text>
<rect x="180" y="478" width="580.0" height="22" fill="#4c78a8" rx="3"/>
<text x="768.0" y="494" class="value">279.86</text>
<line x1="180" y1="30" x2="180" y2="520" stroke="#ccc"/>
<line x1="180" y1="520" x2="760" y2="520" stroke="#ccc"/>
</svg>