<svg xmlns="http://www.w3.org/2000/svg" width="800" height="540">
<style> .label{font-family:DejaVu Sans,Verdana,Geneva,sans-serif;font-size:12px;fill:#333} .value{font-family:DejaVu Sans,Verdana,Geneva,sans-serif;font-size:12px;fill:#555} </style>
<text x="10" y="20" class="label">延迟柱状图（越低越好，Top 15），单位 ms</text>
<text x="10" y="46" class="label">rockstargames.com</text>
<rect x="180" y="30" width="69.23" height="22" fill="#4c78a8" rx="3"/>
<text x="257.23" y="46" class="value">33.88</text>
<text x="10" y="78" class="label">ea.com</text>
<rect x="180" y="62" width="90.5" height="22" fill="#4c78a8" rx="3"/>
<text x="278.5" y="78" class="value">44.29</text>
<text x="10" y="110" class="label">ubisoft.com</text>
<rect x="180" y="94" width="224.49" height="22" fill="#4c78a8" rx="3"/>
<text x="412.49" y="110" class="value">109.86</text>
<text x="10" y="142" class="label">cdn.akamai.steamstatic.com</text>
<rect x="180" y="126" width="264.23" height="22" fill="#4c78a8" rx="3"/>
<text x="452.23" y="142" class="value">129.31</text>
<text x="10" y="174" class="label">steamcdn-a.akamaihd.net</text>
<rect x="180" y="158" width="306.43" height="22" fill="#4c78a8" rx="3"/>
<text x="494.43" y="174" class="value">149.96</text>
<text x="10" y="206" class="label">origin.com</text>
<rect x="180" y="190" width="347.91" height="22" fill="#4c78a8" rx="3"/>
<text x="535.9100000000001" y="206" class="value">170.26</text>
<text x="10" y="238" class="label">community.akamai.steamstatic.com</text>
<rect x="180" y="222" width="362.81" height="22" fill="#4c78a8" rx="3"/>
<text x="550.81" y="238" class="value">177.55</text>
<text x="10" y="270" class="label">store.akamai.steamstatic.com</text>
<rect x="180" y="254" width="387.39" height="22" fill="#4c78a8" rx="3"/>
<text x="575.39" y="270" class="value">189.58</text>
<text x="10" y="302" class="label">easyanticheat.net</text>
<rect x="180" y="286" width="433.61" height="22" fill="#4c78a8" rx="3"/>
<text x="621.61" y="302" class="value">212.20</text>
<text x="10" y="334" class="label">gog.com</text>
<rect x="180" y="318" width="477.36" height="22" fill="#4c78a8" rx="3"/>
<text x="665.36" y="334" class="value">233.61</text>
<text x="10" y="366" class="label">steam-chat.com</text>
<rect x="180" y="350" width="495.55" height="22" fill="#4c78a8" rx="3"/>
<text x="683.55" y="366" class="value">242.51</text>
<text x="10" y="398" class="label">launcher-public-service-prod06.ol.epicgames.com</text>
<rect x="180" y="382" width="517.59" height="22" fill="#4c78a8" rx="3"/>
<text x="705.59" y="398" class="value">253.30</text>
<text x="10" y="430" class="label">eaassets-a.akamaihd.net</text>
<rect x="180" y="414" width="530.3" height="22" fill="#4c78a8" rx="3"/>
<text x="718.3" y="430" class="value">259.52</text>
<text x="10" y="462" class="label">api.steampowered.com</text>
<rect x="180" y="446" width="565.84" height="22" fill="#4c78a8" rx="3"/>
<text x="753.84" y="462" class="value">276.91</text>
<text x="10" y="494" class="label">battle.net</text>
<rect x="180" y="478" width="580.0" height="22" fill="#4c78a8" rx="3"/>
<text x="768.0" y="494" class="value">283.84</text>
<line x1="180" y1="30" x2="180" y2="520" stroke="#ccc"/>
<line x1="180" y1="520" x2="760" y2="520" stroke="#ccc"/>
</svg>