<svg xmlns="http://www.w3.org/2000/svg" width="800" height="540">
<style> .label{font-family:DejaVu Sans,Verdana,Geneva,sans-serif;font-size:12px;fill:#333} .value{font-family:DejaVu Sans,Verdana,Geneva,sans-serif;font-size:12px;fill:#555} </style>
<text x="10" y="20" class="label">延迟柱状图（越低越好，Top 15），单位 ms</text>
<text x="10" y="46" class="label">eaassets-a.akamaihd.net</text>
<rect x="180" y="30" width="131.36" height="22" fill="#4c78a8" rx="3"/>
<text x="319.36" y="46" class="value">49.66</text>
<text x="10" y="78" class="label">socialclub.rockstargames.com</text>
<rect x="180" y="62" width="218.5" height="22" fill="#4c78a8" rx="3"/>
<text x="406.5" y="78" class="value">82.60</text>
<text x="10" y="110" class="label">rockstargames.com</text>
<rect x="180" y="94" width="224.5" height="22" fill="#4c78a8" rx="3"/>
<text x="412.5" y="110" class="value">84.87</text>
<text x="10" y="142" class="label">blizzard.com</text>
<rect x="180" y="126" width="271.64" height="22" fill="#4c78a8" rx="3"/>
<text x="459.64" y="142" class="value">102.69</text>
<text x="10" y="174" class="label">ubisoft.com</text>
<rect x="180" y="158" width="294.58" height="22" fill="#4c78a8" rx="3"/>
<text x="482.58" y="174" class="value">111.36</text>
<text x="10" y="206" class="label">battle.net</text>
<rect x="180" y="190" width="305.21" height="22" fill="#4c78a8" rx="3"/>
<text x="493.21" y="206" class="value">115.38</text>
<text x="10" y="238" class="label">ubi.com</text>
<rect x="180" y="222" width="384.04" height="22" fill="#4c78a8" rx="3"/>
<text x="572.04" y="238" class="value">145.18</text>
<text x="10" y="270" class="label">unrealengine.com</text>
<rect x="180" y="254" width="405.1" height="22" fill="#4c78a8" rx="3"/>
<text x="593.1" y="270" class="value">153.14</text>
<text x="10" y="302" class="label">ea.com</text>
<rect x="180" y="286" width="430.15" height="22" fill="#4c78a8" rx="3"/>
<text x="618.15" y="302" class="value">162.61</text>
<text x="10" y="334" class="label">fortnite.com</text>
<rect x="180" y="318" width="435.41" height="22" fill="#4c78a8" rx="3"/>
<text x="623.4100000000001" y="334" class="value">164.60</text>
<text x="10" y="366" class="label">store.akamai.steamstatic.com</text>
<rect x="180" y="350" width="512.04" height="22" fill="#4c78a8" rx="3"/>
<text x="700.04" y="366" class="value">193.57</text>
<text x="10" y="398" class="label">launcher-public-service-prod06.ol.epicgames.com</text>
<rect x="180" y="382" width="516.59" height="22" fill="#4c78a8" rx="3"/>
<text x="704.59" y="398" class="value">195.29</text>
<text x="10" y="430" class="label">community.akamai.steamstatic.com</text>
<rect x="180" y="414" width="521.88" height="22" fill="#4c78a8" rx="3"/>
<text x="709.88" y="430" class="value">197.29</text>
<text x="10" y="462" class="label">cdn.cloudflare.steamstatic.com</text>
<rect x="180" y="446" width="535.37" height="22" fill="#4c78a8" rx="3"/>
<text x="723.37" y="462" class="value">202.39</text>
<text x="10" y="494" class="label">static3.cdn.ubi.com</text>
<rect x="180" y="478" width="580.0" height="22" fill="#4c78a8" rx="3"/>
<text x="768.0" y="494" class="value">219.26</text>
<line x1="180" y1="30" x2="180" y2="520" stroke="#ccc"/>
<line x1="180" y1="520" x2="760" y2="520" stroke="#ccc"/>
</svg>