<svg xmlns="http://www.w3.org/2000/svg" width="800" height="540">
<style> .label{font-family:DejaVu Sans,Verdana,Geneva,sans-serif;font-size:12px;fill:#333} .value{font-family:DejaVu Sans,Verdana,Geneva,sans-serif;font-size:12px;fill:#555} </style>
<text x="10" y="20" class="label">延迟柱状图（越低越好，Top 15），单位 ms</text>
<text x="10" y="46" class="label">eaassets-a.akamaihd.net</text>
<rect x="180" y="30" width="106.95" height="22" fill="#4c78a8" rx="3"/>
<text x="294.95" y="46" class="value">35.57</text>
<text x="10" y="78" class="label">rockstargames.com</text>
<rect x="180" y="62" width="219.28" height="22" fill="#4c78a8" rx="3"/>
<text x="407.28" y="78" class="value">72.93</text>
<text x="10" y="110" class="label">cdn.akamai.steamstatic.com</text>
<rect x="180" y="94" width="281.76" height="22" fill="#4c78a8" rx="3"/>
<text x="469.76" y="110" class="value">93.71</text>
<text x="10" y="142" class="label">blizzard.com</text>
<rect x="180" y="126" width="372.9" height="22" fill="#4c78a8" rx="3"/>
<text x="560.9" y="142" class="value">124.02</text>
<text x="10" y="174" class="label">origin.com</text>
<rect x="180" y="158" width="383.75" height="22" fill="#4c78a8" rx="3"/>
<text x="571.75" y="174" class="value">127.63</text>
<text x="10" y="206" class="label">community.akamai.steamstatic.com</text>
<rect x="180" y="190" width="399.84" height="22" fill="#4c78a8" rx="3"/>
<text x="587.8399999999999" y="206" class="value">132.98</text>
<text x="10" y="238" class="label">battle.net</text>
<rect x="180" y="222" width="409.82" height="22" fill="#4c78a8" rx="3"/>
<text x="597.8199999999999" y="238" class="value">136.30</text>
<text x="10" y="270" class="label">ubi.com</text>
<rect x="180" y="254" width="413.85" height="22" fill="#4c78a8" rx="3"/>
<text x="601.85" y="270" class="value">137.64</text>
<text x="10" y="302" class="label">socialclub.rockstargames.com</text>
<rect x="180" y="286" width="459.61" height="22" fill="#4c78a8" rx="3"/>
<text x="647.61" y="302" class="value">152.86</text>
<text x="10" y="334" class="label">store.akamai.steamstatic.com</text>
<rect x="180" y="318" width="459.73" height="22" fill="#4c78a8" rx="3"/>
<text x="647.73" y="334" class="value">152.90</text>
<text x="10" y="366" class="label">ubisoft.com</text>
<rect x="180" y="350" width="488.75" height="22" fill="#4c78a8" rx="3"/>
<text x="676.75" y="366" class="value">162.55</text>
<text x="10" y="398" class="label">steamcdn-a.akamaihd.net</text>
<rect x="180" y="382" width="520.41" height="22" fill="#4c78a8" rx="3"/>
<text x="708.41" y="398" class="value">173.08</text>
<text x="10" y="430" class="label">www.steamcommunity.com</text>
<rect x="180" y="414" width="546.78" height="22" fill="#4c78a8" rx="3"/>
<text x="734.78" y="430" class="value">181.85</text>
<text x="10" y="462" class="label">cdn.cloudflare.steamstatic.com</text>
<rect x="180" y="446" width="560.13" height="22" fill="#4c78a8" rx="3"/>
<text x="748.13" y="462" class="value">186.29</text>
<text x="10" y="494" class="label">launcher-public-service-prod06.ol.epicgames.com</text>
<rect x="180" y="478" width="580.0" height="22" fill="#4c78a8" rx="3"/>
<text x="768.0" y="494" class="value">192.90</text>
<line x1="180" y1="30" x2="180" y2="520" stroke="#ccc"/>
<line x1="180" y1="520" x2="760" y2="520" stroke="#ccc"/>
</svg>