<svg xmlns="http://www.w3.org/2000/svg" width="800" height="540">
<style> .label{font-family:DejaVu Sans,Verdana,Geneva,sans-serif;font-size:12px;fill:#333} .value{font-family:DejaVu Sans,Verdana,Geneva,sans-serif;font-size:12px;fill:#555} </style>
<text x="10" y="20" class="label">延迟柱状图（越低越好，Top 15），单位 ms</text>
<text x="10" y="46" class="label">eaassets-a.akamaihd.net</text>
<rect x="180" y="30" width="137.14" height="22" fill="#4c78a8" rx="3"/>
<text x="325.14" y="46" class="value">51.79</text>
<text x="10" y="78" class="label">rockstargames.com</text>
<rect x="180" y="62" width="181.25" height="22" fill="#4c78a8" rx="3"/>
<text x="369.25" y="78" class="value">68.45</text>
<text x="10" y="110" class="label">ea.com</text>
<rect x="180" y="94" width="219.75" height="22" fill="#4c78a8" rx="3"/>
<text x="407.75" y="110" class="value">82.99</text>
<text x="10" y="142" class="label">store.akamai.steamstatic.com</text>
<rect x="180" y="126" width="231.38" height="22" fill="#4c78a8" rx="3"/>
<text x="419.38" y="142" class="value">87.38</text>
<text x="10" y="174" class="label">cdn.cloudflare.steamstatic.com</text>
<rect x="180" y="158" width="284.97" height="22" fill="#4c78a8" rx="3"/>
<text x="472.97" y="174" class="value">107.62</text>
<text x="10" y="206" class="label">steamcdn-a.akamaihd.net</text>
<rect x="180" y="190" width="344.57" height="22" fill="#4c78a8" rx="3"/>
<text x="532.5699999999999" y="206" class="value">130.13</text>
<text x="10" y="238" class="label">blizzard.com</text>
<rect x="180" y="222" width="354.37" height="22" fill="#4c78a8" rx="3"/>
<text x="542.37" y="238" class="value">133.83</text>
<text x="10" y="270" class="label">battle.net</text>
<rect x="180" y="254" width="364.46" height="22" fill="#4c78a8" rx="3"/>
<text x="552.46" y="270" class="value">137.64</text>
<text x="10" y="302" class="label">ubisoft.com</text>
<rect x="180" y="286" width="408.57" height="22" fill="#4c78a8" rx="3"/>
<text x="596.5699999999999" y="302" class="value">154.30</text>
<text x="10" y="334" class="label">socialclub.rockstargames.com</text>
<rect x="180" y="318" width="412.49" height="22" fill="#4c78a8" rx="3"/>
<text x="600.49" y="334" class="value">155.78</text>
<text x="10" y="366" class="label">ubi.com</text>
<rect x="180" y="350" width="424.57" height="22" fill="#4c78a8" rx="3"/>
<text x="612.5699999999999" y="366" class="value">160.34</text>
<text x="10" y="398" class="label">community.akamai.steamstatic.com</text>
<rect x="180" y="382" width="434.68" height="22" fill="#4c78a8" rx="3"/>
<text x="622.6800000000001" y="398" class="value">164.16</text>
<text x="10" y="430" class="label">easyanticheat.net</text>
<rect x="180" y="414" width="471.62" height="22" fill="#4c78a8" rx="3"/>
<text x="659.62" y="430" class="value">178.11</text>
<text x="10" y="462" class="label">store.steampowered.com</text>
<rect x="180" y="446" width="569.25" height="22" fill="#4c78a8" rx="3"/>
<text x="757.25" y="462" class="value">214.98</text>
<text x="10" y="494" class="label">api.steampowered.com</text>
<rect x="180" y="478" width="580.0" height="22" fill="#4c78a8" rx="3"/>
<text x="768.0" y="494" class="value">219.04</text>
<line x1="180" y1="30" x2="180" y2="520" stroke="#ccc"/>
<line x1="180" y1="520" x2="760" y2="520" stroke="#ccc"/>
</svg>