<svg xmlns="http://www.w3.org/2000/svg" width="800" height="540">
<style> .label{font-family:DejaVu Sans,Verdana,Geneva,sans-serif;font-size:12px;fill:#333} .value{font-family:DejaVu Sans,Verdana,Geneva,sans-serif;font-size:12px;fill:#555} </style>
<text x="10" y="20" class="label">延迟柱状图（越低越好，Top 15），单位 ms</text>
<text x="10" y="46" class="label">eaassets-a.akamaihd.net</text>
<rect x="180" y="30" width="208.48" height="22" fill="#4c78a8" rx="3"/>
<text x="396.48" y="46" class="value">76.14</text>
<text x="10" y="78" class="label">rockstargames.com</text>
<rect x="180" y="62" width="253.42" height="22" fill="#4c78a8" rx="3"/>
<text x="441.41999999999996" y="78" class="value">92.55</text>
<text x="10" y="110" class="label">store.akamai.steamstatic.com</text>
<rect x="180" y="94" width="352.43" height="22" fill="#4c78a8" rx="3"/>
<text x="540.4300000000001" y="110" class="value">128.71</text>
<text x="10" y="142" class="label">community.akamai.steamstatic.com</text>
<rect x="180" y="126" width="366.2" height="22" fill="#4c78a8" rx="3"/>
<text x="554.2" y="142" class="value">133.74</text>
<text x="10" y="174" class="label">socialclub.rockstargames.com</text>
<rect x="180" y="158" width="377.21" height="22" fill="#4c78a8" rx="3"/>
<text x="565.21" y="174" class="value">137.76</text>
<text x="10" y="206" class="label">origin.com</text>
<rect x="180" y="190" width="423.84" height="22" fill="#4c78a8" rx="3"/>
<text x="611.8399999999999" y="206" class="value">154.79</text>
<text x="10" y="238" class="label">ea.com</text>
<rect x="180" y="222" width="440.11" height="22" fill="#4c78a8" rx="3"/>
<text x="628.11" y="238" class="value">160.73</text>
<text x="10" y="270" class="label">ubi.com</text>
<rect x="180" y="254" width="463.93" height="22" fill="#4c78a8" rx="3"/>
<text x="651.9300000000001" y="270" class="value">169.43</text>
<text x="10" y="302" class="label">cdn.cloudflare.steamstatic.com</text>
<rect x="180" y="286" width="471.05" height="22" fill="#4c78a8" rx="3"/>
<text x="659.05" y="302" class="value">172.03</text>
<text x="10" y="334" class="label">battle.net</text>
<rect x="180" y="318" width="473.21" height="22" fill="#4c78a8" rx="3"/>
<text x="661.21" y="334" class="value">172.82</text>
<text x="10" y="366" class="label">blizzard.com</text>
<rect x="180" y="350" width="475.29" height="22" fill="#4c78a8" rx="3"/>
<text x="663.29" y="366" class="value">173.58</text>
<text x="10" y="398" class="label">easyanticheat.net</text>
<rect x="180" y="382" width="513.08" height="22" fill="#4c78a8" rx="3"/>
<text x="701.08" y="398" class="value">187.38</text>
<text x="10" y="430" class="label">www.steamcommunity.com</text>
<rect x="180" y="414" width="520.99" height="22" fill="#4c78a8" rx="3"/>
<text x="708.99" y="430" class="value">190.27</text>
<text x="10" y="462" class="label">ubisoft.com</text>
<rect x="180" y="446" width="538.65" height="22" fill="#4c78a8" rx="3"/>
<text x="726.65" y="462" class="value">196.72</text>
<text x="10" y="494" class="label">api.steampowered.com</text>
<rect x="180" y="478" width="580.0" height="22" fill="#4c78a8" rx="3"/>
<text x="768.0" y="494" class="value">211.82</text>
<line x1="180" y1="30" x2="180" y2="520" stroke="#ccc"/>
<line x1="180" y1="520" x2="760" y2="520" stroke="#ccc"/>
</svg>