<svg xmlns="http://www.w3.org/2000/svg" width="800" height="540">
<style> .label{font-family:DejaVu Sans,Verdana,Geneva,sans-serif;font-size:12px;fill:#333} .value{font-family:DejaVu Sans,Verdana,Geneva,sans-serif;font-size:12px;fill:#555} </style>
<text x="10" y="20" class="label">延迟柱状图（越低越好，Top 15），单位 ms</text>
<text x="10" y="46" class="label">rockstargames.com</text>
<rect x="180" y="30" width="68.1" height="22" fill="#4c78a8" rx="3"/>
<text x="256.1" y="46" class="value">33.27</text>
<text x="10" y="78" class="label">ubisoft.com</text>
<rect x="180" y="62" width="214.8" height="22" fill="#4c78a8" rx="3"/>
<text x="402.8" y="78" class="value">104.94</text>
<text x="10" y="110" class="label">community.akamai.steamstatic.com</text>
<rect x="180" y="94" width="221.25" height="22" fill="#4c78a8" rx="3"/>
<text x="409.25" y="110" class="value">108.09</text>
<text x="10" y="142" class="label">eaassets-a.akamaihd.net</text>
<rect x="180" y="126" width="227.51" height="22" fill="#4c78a8" rx="3"/>
<text x="415.51" y="142" class="value">111.15</text>
<text x="10" y="174" class="label">origin.com</text>
<rect x="180" y="158" width="230.93" height="22" fill="#4c78a8" rx="3"/>
<text x="418.93" y="174" class="value">112.82</text>
<text x="10" y="206" class="label">ea.com</text>
<rect x="180" y="190" width="253.52" height="22" fill="#4c78a8" rx="3"/>
<text x="441.52" y="206" class="value">123.86</text>
<text x="10" y="238" class="label">cdn.akamai.steamstatic.com</text>
<rect x="180" y="222" width="257.97" height="22" fill="#4c78a8" rx="3"/>
<text x="445.97" y="238" class="value">126.03</text>
<text x="10" y="270" class="label">cdn.cloudflare.steamstatic.com</text>
<rect x="180" y="254" width="264.54" height="22" fill="#4c78a8" rx="3"/>
<text x="452.54" y="270" class="value">129.24</text>
<text x="10" y="302" class="label">steamcdn-a.akamaihd.net</text>
<rect x="180" y="286" width="334.07" height="22" fill="#4c78a8" rx="3"/>
<text x="522.0699999999999" y="302" class="value">163.21</text>
<text x="10" y="334" class="label">store.akamai.steamstatic.com</text>
<rect x="180" y="318" width="349.75" height="22" fill="#4c78a8" rx="3"/>
<text x="537.75" y="334" class="value">170.87</text>
<text x="10" y="366" class="label">api.steampowered.com</text>
<rect x="180" y="350" width="350.81" height="22" fill="#4c78a8" rx="3"/>
<text x="538.81" y="366" class="value">171.39</text>
<text x="10" y="398" class="label">gog.com</text>
<rect x="180" y="382" width="437.99" height="22" fill="#4c78a8" rx="3"/>
<text x="625.99" y="398" class="value">213.98</text>
<text x="10" y="430" class="label">easyanticheat.net</text>
<rect x="180" y="414" width="455.65" height="22" fill="#4c78a8" rx="3"/>
<text x="643.65" y="430" class="value">222.61</text>
<text x="10" y="462" class="label">www.steamcommunity.com</text>
<rect x="180" y="446" width="555.25" height="22" fill="#4c78a8" rx="3"/>
<text x="743.25" y="462" class="value">271.27</text>
<text x="10" y="494" class="label">steamcommunity.com</text>
<rect x="180" y="478" width="580.0" height="22" fill="#4c78a8" rx="3"/>
<text x="768.0" y="494" class="value">283.36</text>
<line x1="180" y1="30" x2="180" y2="520" stroke="#ccc"/>
<line x1="180" y1="520" x2="760" y2="520" stroke="#ccc"/>
</svg>