<svg xmlns="http://www.w3.org/2000/svg" width="800" height="540">
<style> .label{font-family:DejaVu Sans,Verdana,Geneva,sans-serif;font-size:12px;fill:#333} .value{font-family:DejaVu Sans,Verdana,Geneva,sans-serif;font-size:12px;fill:#555} </style>
<text x="10" y="20" class="label">延迟柱状图（越低越好，Top 15），单位 ms</text>
<text x="10" y="46" class="label">rockstargames.com</text>
<rect x="180" y="30" width="177.36" height="22" fill="#4c78a8" rx="3"/>
<text x="365.36" y="46" class="value">70.31</text>
<text x="10" y="78" class="label">store.akamai.steamstatic.com</text>
<rect x="180" y="62" width="177.43" height="22" fill="#4c78a8" rx="3"/>
<text x="365.43" y="78" class="value">70.34</text>
<text x="10" y="110" class="label">community.akamai.steamstatic.com</text>
<rect x="180" y="94" width="205.81" height="22" fill="#4c78a8" rx="3"/>
<text x="393.81" y="110" class="value">81.59</text>
<text x="10" y="142" class="label">eaassets-a.akamaihd.net</text>
<rect x="180" y="126" width="206.67" height="22" fill="#4c78a8" rx="3"/>
<text x="394.66999999999996" y="142" class="value">81.93</text>
<text x="10" y="174" class="label">ea.com</text>
<rect x="180" y="158" width="226.57" height="22" fill="#4c78a8" rx="3"/>
<text x="414.57" y="174" class="value">89.82</text>
<text x="10" y="206" class="label">ubisoft.com</text>
<rect x="180" y="190" width="285.72" height="22" fill="#4c78a8" rx="3"/>
<text x="473.72" y="206" class="value">113.27</text>
<text x="10" y="238" class="label">battle.net</text>
<rect x="180" y="222" width="337.59" height="22" fill="#4c78a8" rx="3"/>
<text x="525.5899999999999" y="238" class="value">133.83</text>
<text x="10" y="270" class="label">socialclub.rockstargames.com</text>
<rect x="180" y="254" width="342.53" height="22" fill="#4c78a8" rx="3"/>
<text x="530.53" y="270" class="value">135.79</text>
<text x="10" y="302" class="label">blizzard.com</text>
<rect x="180" y="286" width="343.84" height="22" fill="#4c78a8" rx="3"/>
<text x="531.8399999999999" y="302" class="value">136.31</text>
<text x="10" y="334" class="label">ubi.com</text>
<rect x="180" y="318" width="394.29" height="22" fill="#4c78a8" rx="3"/>
<text x="582.29" y="334" class="value">156.31</text>
<text x="10" y="366" class="label">cdn.cloudflare.steamstatic.com</text>
<rect x="180" y="350" width="401.56" height="22" fill="#4c78a8" rx="3"/>
<text x="589.56" y="366" class="value">159.19</text>
<text x="10" y="398" class="label">static3.cdn.ubi.com</text>
<rect x="180" y="382" width="421.79" height="22" fill="#4c78a8" rx="3"/>
<text x="609.79" y="398" class="value">167.21</text>
<text x="10" y="430" class="label">steamcdn-a.akamaihd.net</text>
<rect x="180" y="414" width="501.5" height="22" fill="#4c78a8" rx="3"/>
<text x="689.5" y="430" class="value">198.81</text>
<text x="10" y="462" class="label">cdn.akamai.steamstatic.com</text>
<rect x="180" y="446" width="505.74" height="22" fill="#4c78a8" rx="3"/>
<text x="693.74" y="462" class="value">200.49</text>
<text x="10" y="494" class="label">origin.com</text>
<rect x="180" y="478" width="580.0" height="22" fill="#4c78a8" rx="3"/>
<text x="768.0" y="494" class="value">229.93</text>
<line x1="180" y1="30" x2="180" y2="520" stroke="#ccc"/>
<line x1="180" y1="520" x2="760" y2="520" stroke="#ccc"/>
</svg>