<svg xmlns="http://www.w3.org/2000/svg" width="800" height="540">
<style> .label{font-family:DejaVu Sans,Verdana,Geneva,sans-serif;font-size:12px;fill:#333} .value{font-family:DejaVu Sans,Verdana,Geneva,sans-serif;font-size:12px;fill:#555} </style>
<text x="10" y="20" class="label">延迟柱状图（越低越好，Top 15），单位 ms</text>
<text x="10" y="46" class="label">rockstargames.com</text>
<rect x="180" y="30" width="146.96" height="22" fill="#4c78a8" rx="3"/>
<text x="334.96000000000004" y="46" class="value">54.45</text>
<text x="10" y="78" class="label">socialclub.rockstargames.com</text>
<rect x="180" y="62" width="215.3" height="22" fill="#4c78a8" rx="3"/>
<text x="403.3" y="78" class="value">79.77</text>
<text x="10" y="110" class="label">eaassets-a.akamaihd.net</text>
<rect x="180" y="94" width="250.55" height="22" fill="#4c78a8" rx="3"/>
<text x="438.55" y="110" class="value">92.83</text>
<text x="10" y="142" class="label">fortnite.com</text>
<rect x="180" y="126" width="251.93" height="22" fill="#4c78a8" rx="3"/>
<text x="439.93" y="142" class="value">93.34</text>
<text x="10" y="174" class="label">epicgames.com</text>
<rect x="180" y="158" width="267.91" height="22" fill="#4c78a8" rx="3"/>
<text x="455.91" y="174" class="value">99.26</text>
<text x="10" y="206" class="label">battle.net</text>
<rect x="180" y="190" width="284.64" height="22" fill="#4c78a8" rx="3"/>
<text x="472.64" y="206" class="value">105.46</text>
<text x="10" y="238" class="label">ea.com</text>
<rect x="180" y="222" width="305.51" height="22" fill="#4c78a8" rx="3"/>
<text x="493.51" y="238" class="value">113.19</text>
<text x="10" y="270" class="label">blizzard.com</text>
<rect x="180" y="254" width="312.36" height="22" fill="#4c78a8" rx="3"/>
<text x="500.36" y="270" class="value">115.73</text>
<text x="10" y="302" class="label">ubisoft.com</text>
<rect x="180" y="286" width="329.45" height="22" fill="#4c78a8" rx="3"/>
<text x="517.45" y="302" class="value">122.06</text>
<text x="10" y="334" class="label">ubi.com</text>
<rect x="180" y="318" width="366.37" height="22" fill="#4c78a8" rx="3"/>
<text x="554.37" y="334" class="value">135.74</text>
<text x="10" y="366" class="label">community.akamai.steamstatic.com</text>
<rect x="180" y="350" width="373.31" height="22" fill="#4c78a8" rx="3"/>
<text x="561.31" y="366" class="value">138.31</text>
<text x="10" y="398" class="label">unrealengine.com</text>
<rect x="180" y="382" width="518.7" height="22" fill="#4c78a8" rx="3"/>
<text x="706.7" y="398" class="value">192.18</text>
<text x="10" y="430" class="label">static3.cdn.ubi.com</text>
<rect x="180" y="414" width="521.32" height="22" fill="#4c78a8" rx="3"/>
<text x="709.32" y="430" class="value">193.15</text>
<text x="10" y="462" class="label">store.akamai.steamstatic.com</text>
<rect x="180" y="446" width="556.3" height="22" fill="#4c78a8" rx="3"/>
<text x="744.3" y="462" class="value">206.11</text>
<text x="10" y="494" class="label">origin.com</text>
<rect x="180" y="478" width="580.0" height="22" fill="#4c78a8" rx="3"/>
<text x="768.0" y="494" class="value">214.89</text>
<line x1="180" y1="30" x2="180" y2="520" stroke="#ccc"/>
<line x1="180" y1="520" x2="760" y2="520" stroke="#ccc"/>
</svg>