<svg xmlns="http://www.w3.org/2000/svg" width="800" height="540">
<style> .label{font-family:DejaVu Sans,Verdana,Geneva,sans-serif;font-size:12px;fill:#333} .value{font-family:DejaVu Sans,Verdana,Geneva,sans-serif;font-size:12px;fill:#555} </style>
<text x="10" y="20" class="label">延迟柱状图（越低越好，Top 15），单位 ms</text>
<text x="10" y="46" class="label">rockstargames.com</text>
<rect x="180" y="30" width="146.21" height="22" fill="#4c78a8" rx="3"/>
<text x="334.21000000000004" y="46" class="value">56.01</text>
<text x="10" y="78" class="label">ubisoft.com</text>
<rect x="180" y="62" width="233.32" height="22" fill="#4c78a8" rx="3"/>
<text x="421.32" y="78" class="value">89.38</text>
<text x="10" y="110" class="label">cdn.cloudflare.steamstatic.com</text>
<rect x="180" y="94" width="237.91" height="22" fill="#4c78a8" rx="3"/>
<text x="425.90999999999997" y="110" class="value">91.14</text>
<text x="10" y="142" class="label">blizzard.com</text>
<rect x="180" y="126" width="247.28" height="22" fill="#4c78a8" rx="3"/>
<text x="435.28" y="142" class="value">94.73</text>
<text x="10" y="174" class="label">socialclub.rockstargames.com</text>
<rect x="180" y="158" width="252.27" height="22" fill="#4c78a8" rx="3"/>
<text x="440.27" y="174" class="value">96.64</text>
<text x="10" y="206" class="label">eaassets-a.akamaihd.net</text>
<rect x="180" y="190" width="286.67" height="22" fill="#4c78a8" rx="3"/>
<text x="474.67" y="206" class="value">109.82</text>
<text x="10" y="238" class="label">battle.net</text>
<rect x="180" y="222" width="296.3" height="22" fill="#4c78a8" rx="3"/>
<text x="484.3" y="238" class="value">113.51</text>
<text x="10" y="270" class="label">cdn.akamai.steamstatic.com</text>
<rect x="180" y="254" width="316.4" height="22" fill="#4c78a8" rx="3"/>
<text x="504.4" y="270" class="value">121.21</text>
<text x="10" y="302" class="label">static3.cdn.ubi.com</text>
<rect x="180" y="286" width="407.69" height="22" fill="#4c78a8" rx="3"/>
<text x="595.69" y="302" class="value">156.18</text>
<text x="10" y="334" class="label">ea.com</text>
<rect x="180" y="318" width="448.49" height="22" fill="#4c78a8" rx="3"/>
<text x="636.49" y="334" class="value">171.81</text>
<text x="10" y="366" class="label">store.akamai.steamstatic.com</text>
<rect x="180" y="350" width="456.56" height="22" fill="#4c78a8" rx="3"/>
<text x="644.56" y="366" class="value">174.90</text>
<text x="10" y="398" class="label">steamcdn-a.akamaihd.net</text>
<rect x="180" y="382" width="509.65" height="22" fill="#4c78a8" rx="3"/>
<text x="697.65" y="398" class="value">195.24</text>
<text x="10" y="430" class="label">community.akamai.steamstatic.com</text>
<rect x="180" y="414" width="514.58" height="22" fill="#4c78a8" rx="3"/>
<text x="702.58" y="430" class="value">197.13</text>
<text x="10" y="462" class="label">epicgames.com</text>
<rect x="180" y="446" width="575.38" height="22" fill="#4c78a8" rx="3"/>
<text x="763.38" y="462" class="value">220.42</text>
<text x="10" y="494" class="label">fortnite.com</text>
<rect x="180" y="478" width="580.0" height="22" fill="#4c78a8" rx="3"/>
<text x="768.0" y="494" class="value">222.19</text>
<line x1="180" y1="30" x2="180" y2="520" stroke="#ccc"/>
<line x1="180" y1="520" x2="760" y2="520" stroke="#ccc"/>
</svg>