<svg xmlns="http://www.w3.org/2000/svg" width="800" height="540">
<style> .label{font-family:DejaVu Sans,Verdana,Geneva,sans-serif;font-size:12px;fill:#333} .value{font-family:DejaVu Sans,Verdana,Geneva,sans-serif;font-size:12px;fill:#555} </style>
<text x="10" y="20" class="label">延迟柱状图（越低越好，Top 15），单位 ms</text>
<text x="10" y="46" class="label">rockstargames.com</text>
<rect x="180" y="30" width="117.55" height="22" fill="#4c78a8" rx="3"/>
<text x="305.55" y="46" class="value">52.19</text>
<text x="10" y="78" class="label">eaassets-a.akamaihd.net</text>
<rect x="180" y="62" width="185.95" height="22" fill="#4c78a8" rx="3"/>
<text x="373.95" y="78" class="value">82.56</text>
<text x="10" y="110" class="label">cdn.cloudflare.steamstatic.com</text>
<rect x="180" y="94" width="205.79" height="22" fill="#4c78a8" rx="3"/>
<text x="393.78999999999996" y="110" class="value">91.37</text>
<text x="10" y="142" class="label">origin.com</text>
<rect x="180" y="126" width="246.82" height="22" fill="#4c78a8" rx="3"/>
<text x="434.82" y="142" class="value">109.59</text>
<text x="10" y="174" class="label">ea.com</text>
<rect x="180" y="158" width="284.3" height="22" fill="#4c78a8" rx="3"/>
<text x="472.3" y="174" class="value">126.23</text>
<text x="10" y="206" class="label">store.akamai.steamstatic.com</text>
<rect x="180" y="190" width="308.06" height="22" fill="#4c78a8" rx="3"/>
<text x="496.06" y="206" class="value">136.78</text>
<text x="10" y="238" class="label">ubisoft.com</text>
<rect x="180" y="222" width="315.09" height="22" fill="#4c78a8" rx="3"/>
<text x="503.09" y="238" class="value">139.90</text>
<text x="10" y="270" class="label">steamcdn-a.akamaihd.net</text>
<rect x="180" y="254" width="316.33" height="22" fill="#4c78a8" rx="3"/>
<text x="504.33" y="270" class="value">140.45</text>
<text x="10" y="302" class="label">community.akamai.steamstatic.com</text>
<rect x="180" y="286" width="328.56" height="22" fill="#4c78a8" rx="3"/>
<text x="516.56" y="302" class="value">145.88</text>
<text x="10" y="334" class="label">cdn.akamai.steamstatic.com</text>
<rect x="180" y="318" width="396.15" height="22" fill="#4c78a8" rx="3"/>
<text x="584.15" y="334" class="value">175.89</text>
<text x="10" y="366" class="label">easyanticheat.net</text>
<rect x="180" y="350" width="427.59" height="22" fill="#4c78a8" rx="3"/>
<text x="615.5899999999999" y="366" class="value">189.85</text>
<text x="10" y="398" class="label">launcher-public-service-prod06.ol.epicgames.com</text>
<rect x="180" y="382" width="547.0" height="22" fill="#4c78a8" rx="3"/>
<text x="735.0" y="398" class="value">242.87</text>
<text x="10" y="430" class="label">www.steamcommunity.com</text>
<rect x="180" y="414" width="575.92" height="22" fill="#4c78a8" rx="3"/>
<text x="763.92" y="430" class="value">255.71</text>
<text x="10" y="462" class="label">steam-chat.com</text>
<rect x="180" y="446" width="578.72" height="22" fill="#4c78a8" rx="3"/>
<text x="766.72" y="462" class="value">256.95</text>
<text x="10" y="494" class="label">api.steampowered.com</text>
<rect x="180" y="478" width="580.0" height="22" fill="#4c78a8" rx="3"/>
<text x="768.0" y="494" class="value">257.52</text>
<line x1="180" y1="30" x2="180" y2="520" stroke="#ccc"/>
<line x1="180" y1="520" x2="760" y2="520" stroke="#ccc"/>
</svg>