<svg xmlns="http://www.w3.org/2000/svg" width="800" height="540">
<style> .label{font-family:DejaVu Sans,Verdana,Geneva,sans-serif;font-size:12px;fill:#333} .value{font-family:DejaVu Sans,Verdana,Geneva,sans-serif;font-size:12px;fill:#555} </style>
<text x="10" y="20" class="label">延迟柱状图（越低越好，Top 15），单位 ms</text>
<text x="10" y="46" class="label">ea.com</text>
<rect x="180" y="30" width="208.02" height="22" fill="#4c78a8" rx="3"/>
<text x="396.02" y="46" class="value">109.22</text>
<text x="10" y="78" class="label">ubisoft.com</text>
<rect x="180" y="62" width="251.27" height="22" fill="#4c78a8" rx="3"/>
<text x="439.27" y="78" class="value">131.93</text>
<text x="10" y="110" class="label">eaassets-a.akamaihd.net</text>
<rect x="180" y="94" width="291.84" height="22" fill="#4c78a8" rx="3"/>
<text x="479.84" y="110" class="value">153.23</text>
<text x="10" y="142" class="label">rockstargames.com</text>
<rect x="180" y="126" width="296.52" height="22" fill="#4c78a8" rx="3"/>
<text x="484.52" y="142" class="value">155.69</text>
<text x="10" y="174" class="label">community.akamai.steamstatic.com</text>
<rect x="180" y="158" width="327.53" height="22" fill="#4c78a8" rx="3"/>
<text x="515.53" y="174" class="value">171.97</text>
<text x="10" y="206" class="label">origin.com</text>
<rect x="180" y="190" width="355.45" height="22" fill="#4c78a8" rx="3"/>
<text x="543.45" y="206" class="value">186.63</text>
<text x="10" y="238" class="label">cdn.akamai.steamstatic.com</text>
<rect x="180" y="222" width="363.45" height="22" fill="#4c78a8" rx="3"/>
<text x="551.45" y="238" class="value">190.83</text>
<text x="10" y="270" class="label">store.akamai.steamstatic.com</text>
<rect x="180" y="254" width="373.96" height="22" fill="#4c78a8" rx="3"/>
<text x="561.96" y="270" class="value">196.35</text>
<text x="10" y="302" class="label">easyanticheat.net</text>
<rect x="180" y="286" width="392.76" height="22" fill="#4c78a8" rx="3"/>
<text x="580.76" y="302" class="value">206.22</text>
<text x="10" y="334" class="label">steamcdn-a.akamaihd.net</text>
<rect x="180" y="318" width="397.12" height="22" fill="#4c78a8" rx="3"/>
<text x="585.12" y="334" class="value">208.51</text>
<text x="10" y="366" class="label">static3.cdn.ubi.com</text>
<rect x="180" y="350" width="509.0" height="22" fill="#4c78a8" rx="3"/>
<text x="697.0" y="366" class="value">267.25</text>
<text x="10" y="398" class="label">api.steampowered.com</text>
<rect x="180" y="382" width="531.24" height="22" fill="#4c78a8" rx="3"/>
<text x="719.24" y="398" class="value">278.93</text>
<text x="10" y="430" class="label">steam-chat.com</text>
<rect x="180" y="414" width="534.96" height="22" fill="#4c78a8" rx="3"/>
<text x="722.96" y="430" class="value">280.88</text>
<text x="10" y="462" class="label">ubi.com</text>
<rect x="180" y="446" width="539.18" height="22" fill="#4c78a8" rx="3"/>
<text x="727.18" y="462" class="value">283.10</text>
<text x="10" y="494" class="label">cdn.cloudflare.steamstatic.com</text>
<rect x="180" y="478" width="580.0" height="22" fill="#4c78a8" rx="3"/>
<text x="768.0" y="494" class="value">304.53</text>
<line x1="180" y1="30" x2="180" y2="520" stroke="#ccc"/>
<line x1="180" y1="520" x2="760" y2="520" stroke="#ccc"/>
</svg>