<svg xmlns="http://www.w3.org/2000/svg" width="800" height="540">
<style> .label{font-family:DejaVu Sans,Verdana,Geneva,sans-serif;font-size:12px;fill:#333} .value{font-family:DejaVu Sans,Verdana,Geneva,sans-serif;font-size:12px;fill:#555} </style>
<text x="10" y="20" class="label">延迟柱状图（越低越好，Top 15），单位 ms</text>
<text x="10" y="46" class="label">rockstargames.com</text>
<rect x="180" y="30" width="184.35" height="22" fill="#4c78a8" rx="3"/>
<text x="372.35" y="46" class="value">79.56</text>
<text x="10" y="78" class="label">easyanticheat.net</text>
<rect x="180" y="62" width="331.56" height="22" fill="#4c78a8" rx="3"/>
<text x="519.56" y="78" class="value">143.09</text>
<text x="10" y="110" class="label">ea.com</text>
<rect x="180" y="94" width="343.19" height="22" fill="#4c78a8" rx="3"/>
<text x="531.19" y="110" class="value">148.11</text>
<text x="10" y="142" class="label">eaassets-a.akamaihd.net</text>
<rect x="180" y="126" width="349.35" height="22" fill="#4c78a8" rx="3"/>
<text x="537.35" y="142" class="value">150.77</text>
<text x="10" y="174" class="label">battle.net</text>
<rect x="180" y="158" width="364.9" height="22" fill="#4c78a8" rx="3"/>
<text x="552.9" y="174" class="value">157.48</text>
<text x="10" y="206" class="label">blizzard.com</text>
<rect x="180" y="190" width="371.23" height="22" fill="#4c78a8" rx="3"/>
<text x="559.23" y="206" class="value">160.21</text>
<text x="10" y="238" class="label">ubisoft.com</text>
<rect x="180" y="222" width="387.66" height="22" fill="#4c78a8" rx="3"/>
<text x="575.6600000000001" y="238" class="value">167.30</text>
<text x="10" y="270" class="label">ubi.com</text>
<rect x="180" y="254" width="394.44" height="22" fill="#4c78a8" rx="3"/>
<text x="582.44" y="270" class="value">170.23</text>
<text x="10" y="302" class="label">static3.cdn.ubi.com</text>
<rect x="180" y="286" width="460.2" height="22" fill="#4c78a8" rx="3"/>
<text x="648.2" y="302" class="value">198.61</text>
<text x="10" y="334" class="label">store.akamai.steamstatic.com</text>
<rect x="180" y="318" width="463.61" height="22" fill="#4c78a8" rx="3"/>
<text x="651.61" y="334" class="value">200.08</text>
<text x="10" y="366" class="label">origin.com</text>
<rect x="180" y="350" width="487.36" height="22" fill="#4c78a8" rx="3"/>
<text x="675.36" y="366" class="value">210.33</text>
<text x="10" y="398" class="label">socialclub.rockstargames.com</text>
<rect x="180" y="382" width="515.07" height="22" fill="#4c78a8" rx="3"/>
<text x="703.07" y="398" class="value">222.29</text>
<text x="10" y="430" class="label">community.akamai.steamstatic.com</text>
<rect x="180" y="414" width="546.87" height="22" fill="#4c78a8" rx="3"/>
<text x="734.87" y="430" class="value">236.01</text>
<text x="10" y="462" class="label">steamcdn-a.akamaihd.net</text>
<rect x="180" y="446" width="557.87" height="22" fill="#4c78a8" rx="3"/>
<text x="745.87" y="462" class="value">240.76</text>
<text x="10" y="494" class="label">launcher-public-service-prod06.ol.epicgames.com</text>
<rect x="180" y="478" width="580.0" height="22" fill="#4c78a8" rx="3"/>
<text x="768.0" y="494" class="value">250.31</text>
<line x1="180" y1="30" x2="180" y2="520" stroke="#ccc"/>
<line x1="180" y1="520" x2="760" y2="520" stroke="#ccc"/>
</svg>