<svg xmlns="http://www.w3.org/2000/svg" width="800" height="540">
<style> .label{font-family:DejaVu Sans,Verdana,Geneva,sans-serif;font-size:12px;fill:#333} .value{font-family:DejaVu Sans,Verdana,Geneva,sans-serif;font-size:12px;fill:#555} </style>
<text x="10" y="20" class="label">延迟柱状图（越低越好，Top 15），单位 ms</text>
<text x="10" y="46" class="label">rockstargames.com</text>
<rect x="180" y="30" width="148.19" height="22" fill="#4c78a8" rx="3"/>
<text x="336.19" y="46" class="value">59.17</text>
<text x="10" y="78" class="label">eaassets-a.akamaihd.net</text>
<rect x="180" y="62" width="228.03" height="22" fill="#4c78a8" rx="3"/>
<text x="416.03" y="78" class="value">91.05</text>
<text x="10" y="110" class="label">battle.net</text>
<rect x="180" y="94" width="238.97" height="22" fill="#4c78a8" rx="3"/>
<text x="426.97" y="110" class="value">95.42</text>
<text x="10" y="142" class="label">ea.com</text>
<rect x="180" y="126" width="262.81" height="22" fill="#4c78a8" rx="3"/>
<text x="450.81" y="142" class="value">104.94</text>
<text x="10" y="174" class="label">ubi.com</text>
<rect x="180" y="158" width="268.7" height="22" fill="#4c78a8" rx="3"/>
<text x="456.7" y="174" class="value">107.29</text>
<text x="10" y="206" class="label">socialclub.rockstargames.com</text>
<rect x="180" y="190" width="291.26" height="22" fill="#4c78a8" rx="3"/>
<text x="479.26" y="206" class="value">116.30</text>
<text x="10" y="238" class="label">unrealengine.com</text>
<rect x="180" y="222" width="300.28" height="22" fill="#4c78a8" rx="3"/>
<text x="488.28" y="238" class="value">119.90</text>
<text x="10" y="270" class="label">blizzard.com</text>
<rect x="180" y="254" width="301.03" height="22" fill="#4c78a8" rx="3"/>
<text x="489.03" y="270" class="value">120.20</text>
<text x="10" y="302" class="label">ubisoft.com</text>
<rect x="180" y="286" width="308.07" height="22" fill="#4c78a8" rx="3"/>
<text x="496.07" y="302" class="value">123.01</text>
<text x="10" y="334" class="label">epicgames.com</text>
<rect x="180" y="318" width="455.78" height="22" fill="#4c78a8" rx="3"/>
<text x="643.78" y="334" class="value">181.99</text>
<text x="10" y="366" class="label">store.akamai.steamstatic.com</text>
<rect x="180" y="350" width="460.56" height="22" fill="#4c78a8" rx="3"/>
<text x="648.56" y="366" class="value">183.90</text>
<text x="10" y="398" class="label">cdn.cloudflare.steamstatic.com</text>
<rect x="180" y="382" width="506.87" height="22" fill="#4c78a8" rx="3"/>
<text x="694.87" y="398" class="value">202.39</text>
<text x="10" y="430" class="label">cdn.akamai.steamstatic.com</text>
<rect x="180" y="414" width="547.07" height="22" fill="#4c78a8" rx="3"/>
<text x="735.07" y="430" class="value">218.44</text>
<text x="10" y="462" class="label">origin.com</text>
<rect x="180" y="446" width="578.07" height="22" fill="#4c78a8" rx="3"/>
<text x="766.07" y="462" class="value">230.82</text>
<text x="10" y="494" class="label">fortnite.com</text>
<rect x="180" y="478" width="580.0" height="22" fill="#4c78a8" rx="3"/>
<text x="768.0" y="494" class="value">231.59</text>
<line x1="180" y1="30" x2="180" y2="520" stroke="#ccc"/>
<line x1="180" y1="520" x2="760" y2="520" stroke="#ccc"/>
</svg>