<svg xmlns="http://www.w3.org/2000/svg" width="800" height="540">
<style> .label{font-family:DejaVu Sans,Verdana,Geneva,sans-serif;font-size:12px;fill:#333} .value{font-family:DejaVu Sans,Verdana,Geneva,sans-serif;font-size:12px;fill:#555} </style>
<text x="10" y="20" class="label">延迟柱状图（越低越好，Top 15），单位 ms</text>
<text x="10" y="46" class="label">rockstargames.com</text>
<rect x="180" y="30" width="117.78" height="22" fill="#4c78a8" rx="3"/>
<text x="305.78" y="46" class="value">61.10</text>
<text x="10" y="78" class="label">ea.com</text>
<rect x="180" y="62" width="185.71" height="22" fill="#4c78a8" rx="3"/>
<text x="373.71000000000004" y="78" class="value">96.34</text>
<text x="10" y="110" class="label">eaassets-a.akamaihd.net</text>
<rect x="180" y="94" width="265.42" height="22" fill="#4c78a8" rx="3"/>
<text x="453.42" y="110" class="value">137.69</text>
<text x="10" y="142" class="label">community.akamai.steamstatic.com</text>
<rect x="180" y="126" width="299.77" height="22" fill="#4c78a8" rx="3"/>
<text x="487.77" y="142" class="value">155.51</text>
<text x="10" y="174" class="label">steamcdn-a.akamaihd.net</text>
<rect x="180" y="158" width="314.21" height="22" fill="#4c78a8" rx="3"/>
<text x="502.21" y="174" class="value">163.00</text>
<text x="10" y="206" class="label">store.akamai.steamstatic.com</text>
<rect x="180" y="190" width="356.2" height="22" fill="#4c78a8" rx="3"/>
<text x="544.2" y="206" class="value">184.78</text>
<text x="10" y="238" class="label">origin.com</text>
<rect x="180" y="222" width="394.6" height="22" fill="#4c78a8" rx="3"/>
<text x="582.6" y="238" class="value">204.70</text>
<text x="10" y="270" class="label">cdn.cloudflare.steamstatic.com</text>
<rect x="180" y="254" width="394.87" height="22" fill="#4c78a8" rx="3"/>
<text x="582.87" y="270" class="value">204.84</text>
<text x="10" y="302" class="label">easyanticheat.net</text>
<rect x="180" y="286" width="452.81" height="22" fill="#4c78a8" rx="3"/>
<text x="640.81" y="302" class="value">234.90</text>
<text x="10" y="334" class="label">ubisoft.com</text>
<rect x="180" y="318" width="473.32" height="22" fill="#4c78a8" rx="3"/>
<text x="661.3199999999999" y="334" class="value">245.54</text>
<text x="10" y="366" class="label">steam-chat.com</text>
<rect x="180" y="350" width="528.01" height="22" fill="#4c78a8" rx="3"/>
<text x="716.01" y="366" class="value">273.91</text>
<text x="10" y="398" class="label">ubi.com</text>
<rect x="180" y="382" width="531.69" height="22" fill="#4c78a8" rx="3"/>
<text x="719.69" y="398" class="value">275.82</text>
<text x="10" y="430" class="label">api.steampowered.com</text>
<rect x="180" y="414" width="533.56" height="22" fill="#4c78a8" rx="3"/>
<text x="721.56" y="430" class="value">276.79</text>
<text x="10" y="462" class="label">www.steamcommunity.com</text>
<rect x="180" y="446" width="562.27" height="22" fill="#4c78a8" rx="3"/>
<text x="750.27" y="462" class="value">291.68</text>
<text x="10" y="494" class="label">cdn.akamai.steamstatic.com</text>
<rect x="180" y="478" width="580.0" height="22" fill="#4c78a8" rx="3"/>
<text x="768.0" y="494" class="value">300.88</text>
<line x1="180" y1="30" x2="180" y2="520" stroke="#ccc"/>
<line x1="180" y1="520" x2="760" y2="520" stroke="#ccc"/>
</svg>