<svg xmlns="http://www.w3.org/2000/svg" width="800" height="540">
<style> .label{font-family:DejaVu Sans,Verdana,Geneva,sans-serif;font-size:12px;fill:#333} .value{font-family:DejaVu Sans,Verdana,Geneva,sans-serif;font-size:12px;fill:#555} </style>
<text x="10" y="20" class="label">延迟柱状图（越低越好，Top 15），单位 ms</text>
<text x="10" y="46" class="label">eaassets-a.akamaihd.net</text>
<rect x="180" y="30" width="133.86" height="22" fill="#4c78a8" rx="3"/>
<text x="321.86" y="46" class="value">46.57</text>
<text x="10" y="78" class="label">ea.com</text>
<rect x="180" y="62" width="163.73" height="22" fill="#4c78a8" rx="3"/>
<text x="351.73" y="78" class="value">56.96</text>
<text x="10" y="110" class="label">rockstargames.com</text>
<rect x="180" y="94" width="171.2" height="22" fill="#4c78a8" rx="3"/>
<text x="359.2" y="110" class="value">59.56</text>
<text x="10" y="142" class="label">steamcdn-a.akamaihd.net</text>
<rect x="180" y="126" width="297.39" height="22" fill="#4c78a8" rx="3"/>
<text x="485.39" y="142" class="value">103.46</text>
<text x="10" y="174" class="label">ubi.com</text>
<rect x="180" y="158" width="359.65" height="22" fill="#4c78a8" rx="3"/>
<text x="547.65" y="174" class="value">125.12</text>
<text x="10" y="206" class="label">blizzard.com</text>
<rect x="180" y="190" width="391.29" height="22" fill="#4c78a8" rx="3"/>
<text x="579.29" y="206" class="value">136.13</text>
<text x="10" y="238" class="label">easyanticheat.net</text>
<rect x="180" y="222" width="397.3" height="22" fill="#4c78a8" rx="3"/>
<text x="585.3" y="238" class="value">138.22</text>
<text x="10" y="270" class="label">battle.net</text>
<rect x="180" y="254" width="404.49" height="22" fill="#4c78a8" rx="3"/>
<text x="592.49" y="270" class="value">140.72</text>
<text x="10" y="302" class="label">socialclub.rockstargames.com</text>
<rect x="180" y="286" width="410.06" height="22" fill="#4c78a8" rx="3"/>
<text x="598.06" y="302" class="value">142.66</text>
<text x="10" y="334" class="label">store.akamai.steamstatic.com</text>
<rect x="180" y="318" width="422.17" height="22" fill="#4c78a8" rx="3"/>
<text x="610.1700000000001" y="334" class="value">146.87</text>
<text x="10" y="366" class="label">origin.com</text>
<rect x="180" y="350" width="445.94" height="22" fill="#4c78a8" rx="3"/>
<text x="633.94" y="366" class="value">155.14</text>
<text x="10" y="398" class="label">static3.cdn.ubi.com</text>
<rect x="180" y="382" width="533.26" height="22" fill="#4c78a8" rx="3"/>
<text x="721.26" y="398" class="value">185.52</text>
<text x="10" y="430" class="label">ubisoft.com</text>
<rect x="180" y="414" width="552.46" height="22" fill="#4c78a8" rx="3"/>
<text x="740.46" y="430" class="value">192.20</text>
<text x="10" y="462" class="label">unrealengine.com</text>
<rect x="180" y="446" width="575.63" height="22" fill="#4c78a8" rx="3"/>
<text x="763.63" y="462" class="value">200.26</text>
<text x="10" y="494" class="label">cdn.cloudflare.steamstatic.com</text>
<rect x="180" y="478" width="580.0" height="22" fill="#4c78a8" rx="3"/>
<text x="768.0" y="494" class="value">201.78</text>
<line x1="180" y1="30" x2="180" y2="520" stroke="#ccc"/>
<line x1="180" y1="520" x2="760" y2="520" stroke="#ccc"/>
</svg>