<svg xmlns="http://www.w3.org/2000/svg" width="800" height="540">
<style> .label{font-family:DejaVu Sans,Verdana,Geneva,sans-serif;font-size:12px;fill:#333} .value{font-family:DejaVu Sans,Verdana,Geneva,sans-serif;font-size:12px;fill:#555} </style>
<text x="10" y="20" class="label">延迟柱状图（越低越好，Top 15），单位 ms</text>
<text x="10" y="46" class="label">rockstargames.com</text>
<rect x="180" y="30" width="175.21" height="22" fill="#4c78a8" rx="3"/>
<text x="363.21000000000004" y="46" class="value">78.65</text>
<text x="10" y="78" class="label">ea.com</text>
<rect x="180" y="62" width="189.07" height="22" fill="#4c78a8" rx="3"/>
<text x="377.07" y="78" class="value">84.87</text>
<text x="10" y="110" class="label">community.akamai.steamstatic.com</text>
<rect x="180" y="94" width="222.55" height="22" fill="#4c78a8" rx="3"/>
<text x="410.55" y="110" class="value">99.90</text>
<text x="10" y="142" class="label">socialclub.rockstargames.com</text>
<rect x="180" y="126" width="304.31" height="22" fill="#4c78a8" rx="3"/>
<text x="492.31" y="142" class="value">136.60</text>
<text x="10" y="174" class="label">ubi.com</text>
<rect x="180" y="158" width="322.85" height="22" fill="#4c78a8" rx="3"/>
<text x="510.85" y="174" class="value">144.92</text>
<text x="10" y="206" class="label">cdn.akamai.steamstatic.com</text>
<rect x="180" y="190" width="329.78" height="22" fill="#4c78a8" rx="3"/>
<text x="517.78" y="206" class="value">148.03</text>
<text x="10" y="238" class="label">blizzard.com</text>
<rect x="180" y="222" width="353.66" height="22" fill="#4c78a8" rx="3"/>
<text x="541.6600000000001" y="238" class="value">158.75</text>
<text x="10" y="270" class="label">battle.net</text>
<rect x="180" y="254" width="357.87" height="22" fill="#4c78a8" rx="3"/>
<text x="545.87" y="270" class="value">160.64</text>
<text x="10" y="302" class="label">easyanticheat.net</text>
<rect x="180" y="286" width="396.16" height="22" fill="#4c78a8" rx="3"/>
<text x="584.1600000000001" y="302" class="value">177.83</text>
<text x="10" y="334" class="label">origin.com</text>
<rect x="180" y="318" width="403.03" height="22" fill="#4c78a8" rx="3"/>
<text x="591.03" y="334" class="value">180.91</text>
<text x="10" y="366" class="label">static3.cdn.ubi.com</text>
<rect x="180" y="350" width="463.38" height="22" fill="#4c78a8" rx="3"/>
<text x="651.38" y="366" class="value">208.00</text>
<text x="10" y="398" class="label">steamcommunity.com</text>
<rect x="180" y="382" width="481.6" height="22" fill="#4c78a8" rx="3"/>
<text x="669.6" y="398" class="value">216.18</text>
<text x="10" y="430" class="label">store.akamai.steamstatic.com</text>
<rect x="180" y="414" width="502.85" height="22" fill="#4c78a8" rx="3"/>
<text x="690.85" y="430" class="value">225.72</text>
<text x="10" y="462" class="label">unrealengine.com</text>
<rect x="180" y="446" width="570.93" height="22" fill="#4c78a8" rx="3"/>
<text x="758.93" y="462" class="value">256.28</text>
<text x="10" y="494" class="label">fortnite.com</text>
<rect x="180" y="478" width="580.0" height="22" fill="#4c78a8" rx="3"/>
<text x="768.0" y="494" class="value">260.35</text>
<line x1="180" y1="30" x2="180" y2="520" stroke="#ccc"/>
<line x1="180" y1="520" x2="760" y2="520" stroke="#ccc"/>
</svg>