<svg xmlns="http://www.w3.org/2000/svg" width="800" height="540">
<style> .label{font-family:DejaVu Sans,Verdana,Geneva,sans-serif;font-size:12px;fill:#333} .value{font-family:DejaVu Sans,Verdana,Geneva,sans-serif;font-size:12px;fill:#555} </style>
<text x="10" y="20" class="label">延迟柱状图（越低越好，Top 15），单位 ms</text>
<text x="10" y="46" class="label">rockstargames.com</text>
<rect x="180" y="30" width="147.6" height="22" fill="#4c78a8" rx="3"/>
<text x="335.6" y="46" class="value">84.88</text>
<text x="10" y="78" class="label">ubisoft.com</text>
<rect x="180" y="62" width="149.81" height="22" fill="#4c78a8" rx="3"/>
<text x="337.81" y="78" class="value">86.15</text>
<text x="10" y="110" class="label">community.akamai.steamstatic.com</text>
<rect x="180" y="94" width="225.05" height="22" fill="#4c78a8" rx="3"/>
<text x="413.05" y="110" class="value">129.42</text>
<text x="10" y="142" class="label">store.akamai.steamstatic.com</text>
<rect x="180" y="126" width="234.72" height="22" fill="#4c78a8" rx="3"/>
<text x="422.72" y="142" class="value">134.98</text>
<text x="10" y="174" class="label">eaassets-a.akamaihd.net</text>
<rect x="180" y="158" width="257.22" height="22" fill="#4c78a8" rx="3"/>
<text x="445.22" y="174" class="value">147.92</text>
<text x="10" y="206" class="label">ea.com</text>
<rect x="180" y="190" width="288.35" height="22" fill="#4c78a8" rx="3"/>
<text x="476.35" y="206" class="value">165.82</text>
<text x="10" y="238" class="label">steamcdn-a.akamaihd.net</text>
<rect x="180" y="222" width="305.72" height="22" fill="#4c78a8" rx="3"/>
<text x="493.72" y="238" class="value">175.81</text>
<text x="10" y="270" class="label">ubi.com</text>
<rect x="180" y="254" width="441.74" height="22" fill="#4c78a8" rx="3"/>
<text x="629.74" y="270" class="value">254.03</text>
<text x="10" y="302" class="label">origin.com</text>
<rect x="180" y="286" width="484.41" height="22" fill="#4c78a8" rx="3"/>
<text x="672.4100000000001" y="302" class="value">278.57</text>
<text x="10" y="334" class="label">easyanticheat.net</text>
<rect x="180" y="318" width="487.26" height="22" fill="#4c78a8" rx="3"/>
<text x="675.26" y="334" class="value">280.21</text>
<text x="10" y="366" class="label">cdn.akamai.steamstatic.com</text>
<rect x="180" y="350" width="515.9" height="22" fill="#4c78a8" rx="3"/>
<text x="703.9" y="366" class="value">296.68</text>
<text x="10" y="398" class="label">steamcommunity.com</text>
<rect x="180" y="382" width="530.34" height="22" fill="#4c78a8" rx="3"/>
<text x="718.34" y="398" class="value">304.98</text>
<text x="10" y="430" class="label">socialclub.rockstargames.com</text>
<rect x="180" y="414" width="539.64" height="22" fill="#4c78a8" rx="3"/>
<text x="727.64" y="430" class="value">310.33</text>
<text x="10" y="462" class="label">blizzard.com</text>
<rect x="180" y="446" width="575.13" height="22" fill="#4c78a8" rx="3"/>
<text x="763.13" y="462" class="value">330.74</text>
<text x="10" y="494" class="label">static3.cdn.ubi.com</text>
<rect x="180" y="478" width="580.0" height="22" fill="#4c78a8" rx="3"/>
<text x="768.0" y="494" class="value">333.54</text>
<line x1="180" y1="30" x2="180" y2="520" stroke="#ccc"/>
<line x1="180" y1="520" x2="760" y2="520" stroke="#ccc"/>
</svg>