<svg xmlns="http://www.w3.org/2000/svg" width="800" height="540">
<style> .label{font-family:DejaVu Sans,Verdana,Geneva,sans-serif;font-size:12px;fill:#333} .value{font-family:DejaVu Sans,Verdana,Geneva,sans-serif;font-size:12px;fill:#555} </style>
<text x="10" y="20" class="label">延迟柱状图（越低越好，Top 15），单位 ms</text>
<text x="10" y="46" class="label">eaassets-a.akamaihd.net</text>
<rect x="180" y="30" width="198.48" height="22" fill="#4c78a8" rx="3"/>
<text x="386.48" y="46" class="value">75.86</text>
<text x="10" y="78" class="label">socialclub.rockstargames.com</text>
<rect x="180" y="62" width="227.47" height="22" fill="#4c78a8" rx="3"/>
<text x="415.47" y="78" class="value">86.94</text>
<text x="10" y="110" class="label">steamcdn-a.akamaihd.net</text>
<rect x="180" y="94" width="244.92" height="22" fill="#4c78a8" rx="3"/>
<text x="432.91999999999996" y="110" class="value">93.61</text>
<text x="10" y="142" class="label">rockstargames.com</text>
<rect x="180" y="126" width="252.64" height="22" fill="#4c78a8" rx="3"/>
<text x="440.64" y="142" class="value">96.56</text>
<text x="10" y="174" class="label">fortnite.com</text>
<rect x="180" y="158" width="255.91" height="22" fill="#4c78a8" rx="3"/>
<text x="443.90999999999997" y="174" class="value">97.81</text>
<text x="10" y="206" class="label">blizzard.com</text>
<rect x="180" y="190" width="274.51" height="22" fill="#4c78a8" rx="3"/>
<text x="462.51" y="206" class="value">104.92</text>
<text x="10" y="238" class="label">ea.com</text>
<rect x="180" y="222" width="292.72" height="22" fill="#4c78a8" rx="3"/>
<text x="480.72" y="238" class="value">111.88</text>
<text x="10" y="270" class="label">cdn.akamai.steamstatic.com</text>
<rect x="180" y="254" width="306.51" height="22" fill="#4c78a8" rx="3"/>
<text x="494.51" y="270" class="value">117.15</text>
<text x="10" y="302" class="label">ubi.com</text>
<rect x="180" y="286" width="313.5" height="22" fill="#4c78a8" rx="3"/>
<text x="501.5" y="302" class="value">119.82</text>
<text x="10" y="334" class="label">battle.net</text>
<rect x="180" y="318" width="345.0" height="22" fill="#4c78a8" rx="3"/>
<text x="533.0" y="334" class="value">131.86</text>
<text x="10" y="366" class="label">unrealengine.com</text>
<rect x="180" y="350" width="376.42" height="22" fill="#4c78a8" rx="3"/>
<text x="564.4200000000001" y="366" class="value">143.87</text>
<text x="10" y="398" class="label">ubisoft.com</text>
<rect x="180" y="382" width="400.28" height="22" fill="#4c78a8" rx="3"/>
<text x="588.28" y="398" class="value">152.99</text>
<text x="10" y="430" class="label">store.akamai.steamstatic.com</text>
<rect x="180" y="414" width="463.86" height="22" fill="#4c78a8" rx="3"/>
<text x="651.86" y="430" class="value">177.29</text>
<text x="10" y="462" class="label">community.akamai.steamstatic.com</text>
<rect x="180" y="446" width="541.98" height="22" fill="#4c78a8" rx="3"/>
<text x="729.98" y="462" class="value">207.15</text>
<text x="10" y="494" class="label">easyanticheat.net</text>
<rect x="180" y="478" width="580.0" height="22" fill="#4c78a8" rx="3"/>
<text x="768.0" y="494" class="value">221.68</text>
<line x1="180" y1="30" x2="180" y2="520" stroke="#ccc"/>
<line x1="180" y1="520" x2="760" y2="520" stroke="#ccc"/>
</svg>