<svg xmlns="http://www.w3.org/2000/svg" width="800" height="540">
<style> .label{font-family:DejaVu Sans,Verdana,Geneva,sans-serif;font-size:12px;fill:#333} .value{font-family:DejaVu Sans,Verdana,Geneva,sans-serif;font-size:12px;fill:#555} </style>
<text x="10" y="20" class="label">延迟柱状图（越低越好，Top 15），单位 ms</text>
<text x="10" y="46" class="label">eaassets-a.akamaihd.net</text>
<rect x="180" y="30" width="122.61" height="22" fill="#4c78a8" rx="3"/>
<text x="310.61" y="46" class="value">40.74</text>
<text x="10" y="78" class="label">rockstargames.com</text>
<rect x="180" y="62" width="186.05" height="22" fill="#4c78a8" rx="3"/>
<text x="374.05" y="78" class="value">61.82</text>
<text x="10" y="110" class="label">ea.com</text>
<rect x="180" y="94" width="243.8" height="22" fill="#4c78a8" rx="3"/>
<text x="431.8" y="110" class="value">81.01</text>
<text x="10" y="142" class="label">cdn.akamai.steamstatic.com</text>
<rect x="180" y="126" width="287.17" height="22" fill="#4c78a8" rx="3"/>
<text x="475.17" y="142" class="value">95.42</text>
<text x="10" y="174" class="label">steamcdn-a.akamaihd.net</text>
<rect x="180" y="158" width="292.41" height="22" fill="#4c78a8" rx="3"/>
<text x="480.41" y="174" class="value">97.16</text>
<text x="10" y="206" class="label">origin.com</text>
<rect x="180" y="190" width="343.27" height="22" fill="#4c78a8" rx="3"/>
<text x="531.27" y="206" class="value">114.06</text>
<text x="10" y="238" class="label">blizzard.com</text>
<rect x="180" y="222" width="348.08" height="22" fill="#4c78a8" rx="3"/>
<text x="536.0799999999999" y="238" class="value">115.66</text>
<text x="10" y="270" class="label">ubisoft.com</text>
<rect x="180" y="254" width="354.68" height="22" fill="#4c78a8" rx="3"/>
<text x="542.6800000000001" y="270" class="value">117.85</text>
<text x="10" y="302" class="label">ubi.com</text>
<rect x="180" y="286" width="426.84" height="22" fill="#4c78a8" rx="3"/>
<text x="614.8399999999999" y="302" class="value">141.83</text>
<text x="10" y="334" class="label">battle.net</text>
<rect x="180" y="318" width="429.28" height="22" fill="#4c78a8" rx="3"/>
<text x="617.28" y="334" class="value">142.64</text>
<text x="10" y="366" class="label">socialclub.rockstargames.com</text>
<rect x="180" y="350" width="443.94" height="22" fill="#4c78a8" rx="3"/>
<text x="631.94" y="366" class="value">147.51</text>
<text x="10" y="398" class="label">easyanticheat.net</text>
<rect x="180" y="382" width="473.55" height="22" fill="#4c78a8" rx="3"/>
<text x="661.55" y="398" class="value">157.35</text>
<text x="10" y="430" class="label">store.akamai.steamstatic.com</text>
<rect x="180" y="414" width="485.65" height="22" fill="#4c78a8" rx="3"/>
<text x="673.65" y="430" class="value">161.37</text>
<text x="10" y="462" class="label">community.akamai.steamstatic.com</text>
<rect x="180" y="446" width="575.73" height="22" fill="#4c78a8" rx="3"/>
<text x="763.73" y="462" class="value">191.30</text>
<text x="10" y="494" class="label">epicgames.com</text>
<rect x="180" y="478" width="580.0" height="22" fill="#4c78a8" rx="3"/>
<text x="768.0" y="494" class="value">192.72</text>
<line x1="180" y1="30" x2="180" y2="520" stroke="#ccc"/>
<line x1="180" y1="520" x2="760" y2="520" stroke="#ccc"/>
</svg>