<svg xmlns="http://www.w3.org/2000/svg" width="800" height="540">
<style> .label{font-family:DejaVu Sans,Verdana,Geneva,sans-serif;font-size:12px;fill:#333} .value{font-family:DejaVu Sans,Verdana,Geneva,sans-serif;font-size:12px;fill:#555} </style>
<text x="10" y="20" class="label">延迟柱状图（越低越好，Top 15），单位 ms</text>
<text x="10" y="46" class="label">rockstargames.com</text>
<rect x="180" y="30" width="219.1" height="22" fill="#4c78a8" rx="3"/>
<text x="407.1" y="46" class="value">77.63</text>
<text x="10" y="78" class="label">socialclub.rockstargames.com</text>
<rect x="180" y="62" width="228.61" height="22" fill="#4c78a8" rx="3"/>
<text x="416.61" y="78" class="value">81.00</text>
<text x="10" y="110" class="label">eaassets-a.akamaihd.net</text>
<rect x="180" y="94" width="238.46" height="22" fill="#4c78a8" rx="3"/>
<text x="426.46000000000004" y="110" class="value">84.49</text>
<text x="10" y="142" class="label">epicgames.com</text>
<rect x="180" y="126" width="259.8" height="22" fill="#4c78a8" rx="3"/>
<text x="447.8" y="142" class="value">92.05</text>
<text x="10" y="174" class="label">cdn.cloudflare.steamstatic.com</text>
<rect x="180" y="158" width="265.47" height="22" fill="#4c78a8" rx="3"/>
<text x="453.47" y="174" class="value">94.06</text>
<text x="10" y="206" class="label">blizzard.com</text>
<rect x="180" y="190" width="321.72" height="22" fill="#4c78a8" rx="3"/>
<text x="509.72" y="206" class="value">113.99</text>
<text x="10" y="238" class="label">battle.net</text>
<rect x="180" y="222" width="356.44" height="22" fill="#4c78a8" rx="3"/>
<text x="544.44" y="238" class="value">126.29</text>
<text x="10" y="270" class="label">ubisoft.com</text>
<rect x="180" y="254" width="386.38" height="22" fill="#4c78a8" rx="3"/>
<text x="574.38" y="270" class="value">136.90</text>
<text x="10" y="302" class="label">ea.com</text>
<rect x="180" y="286" width="403.38" height="22" fill="#4c78a8" rx="3"/>
<text x="591.38" y="302" class="value">142.92</text>
<text x="10" y="334" class="label">ubi.com</text>
<rect x="180" y="318" width="446.08" height="22" fill="#4c78a8" rx="3"/>
<text x="634.0799999999999" y="334" class="value">158.05</text>
<text x="10" y="366" class="label">steamcdn-a.akamaihd.net</text>
<rect x="180" y="350" width="487.03" height="22" fill="#4c78a8" rx="3"/>
<text x="675.03" y="366" class="value">172.56</text>
<text x="10" y="398" class="label">origin.com</text>
<rect x="180" y="382" width="537.64" height="22" fill="#4c78a8" rx="3"/>
<text x="725.64" y="398" class="value">190.49</text>
<text x="10" y="430" class="label">unrealengine.com</text>
<rect x="180" y="414" width="557.11" height="22" fill="#4c78a8" rx="3"/>
<text x="745.11" y="430" class="value">197.39</text>
<text x="10" y="462" class="label">fortnite.com</text>
<rect x="180" y="446" width="575.68" height="22" fill="#4c78a8" rx="3"/>
<text x="763.68" y="462" class="value">203.97</text>
<text x="10" y="494" class="label">cdn.akamai.steamstatic.com</text>
<rect x="180" y="478" width="580.0" height="22" fill="#4c78a8" rx="3"/>
<text x="768.0" y="494" class="value">205.50</text>
<line x1="180" y1="30" x2="180" y2="520" stroke="#ccc"/>
<line x1="180" y1="520" x2="760" y2="520" stroke="#ccc"/>
</svg>