<svg xmlns="http://www.w3.org/2000/svg" width="800" height="540">
<style> .label{font-family:DejaVu Sans,Verdana,Geneva,sans-serif;font-size:12px;fill:#333} .value{font-family:DejaVu Sans,Verdana,Geneva,sans-serif;font-size:12px;fill:#555} </style>
<text x="10" y="20" class="label">延迟柱状图（越低越好，Top 15），单位 ms</text>
<text x="10" y="46" class="label">rockstargames.com</text>
<rect x="180" y="30" width="86.82" height="22" fill="#4c78a8" rx="3"/>
<text x="274.82" y="46" class="value">41.30</text>
<text x="10" y="78" class="label">ea.com</text>
<rect x="180" y="62" width="159.35" height="22" fill="#4c78a8" rx="3"/>
<text x="347.35" y="78" class="value">75.80</text>
<text x="10" y="110" class="label">origin.com</text>
<rect x="180" y="94" width="165.22" height="22" fill="#4c78a8" rx="3"/>
<text x="353.22" y="110" class="value">78.59</text>
<text x="10" y="142" class="label">eaassets-a.akamaihd.net</text>
<rect x="180" y="126" width="183.49" height="22" fill="#4c78a8" rx="3"/>
<text x="371.49" y="142" class="value">87.28</text>
<text x="10" y="174" class="label">cdn.cloudflare.steamstatic.com</text>
<rect x="180" y="158" width="206.74" height="22" fill="#4c78a8" rx="3"/>
<text x="394.74" y="174" class="value">98.34</text>
<text x="10" y="206" class="label">ubisoft.com</text>
<rect x="180" y="190" width="254.23" height="22" fill="#4c78a8" rx="3"/>
<text x="442.23" y="206" class="value">120.93</text>
<text x="10" y="238" class="label">community.akamai.steamstatic.com</text>
<rect x="180" y="222" width="258.73" height="22" fill="#4c78a8" rx="3"/>
<text x="446.73" y="238" class="value">123.07</text>
<text x="10" y="270" class="label">steamcdn-a.akamaihd.net</text>
<rect x="180" y="254" width="330.69" height="22" fill="#4c78a8" rx="3"/>
<text x="518.69" y="270" class="value">157.30</text>
<text x="10" y="302" class="label">store.akamai.steamstatic.com</text>
<rect x="180" y="286" width="380.03" height="22" fill="#4c78a8" rx="3"/>
<text x="568.03" y="302" class="value">180.77</text>
<text x="10" y="334" class="label">cdn.akamai.steamstatic.com</text>
<rect x="180" y="318" width="400.34" height="22" fill="#4c78a8" rx="3"/>
<text x="588.3399999999999" y="334" class="value">190.43</text>
<text x="10" y="366" class="label">api.steampowered.com</text>
<rect x="180" y="350" width="421.26" height="22" fill="#4c78a8" rx="3"/>
<text x="609.26" y="366" class="value">200.38</text>
<text x="10" y="398" class="label">easyanticheat.net</text>
<rect x="180" y="382" width="437.84" height="22" fill="#4c78a8" rx="3"/>
<text x="625.8399999999999" y="398" class="value">208.27</text>
<text x="10" y="430" class="label">launcher-public-service-prod06.ol.epicgames.com</text>
<rect x="180" y="414" width="550.82" height="22" fill="#4c78a8" rx="3"/>
<text x="738.82" y="430" class="value">262.01</text>
<text x="10" y="462" class="label">battle.net</text>
<rect x="180" y="446" width="575.21" height="22" fill="#4c78a8" rx="3"/>
<text x="763.21" y="462" class="value">273.61</text>
<text x="10" y="494" class="label">steam-chat.com</text>
<rect x="180" y="478" width="580.0" height="22" fill="#4c78a8" rx="3"/>
<text x="768.0" y="494" class="value">275.89</text>
<line x1="180" y1="30" x2="180" y2="520" stroke="#ccc"/>
<line x1="180" y1="520" x2="760" y2="520" stroke="#ccc"/>
</svg>