<svg xmlns="http://www.w3.org/2000/svg" width="800" height="540">
<style> .label{font-family:DejaVu Sans,Verdana,Geneva,sans-serif;font-size:12px;fill:#333} .value{font-family:DejaVu Sans,Verdana,Geneva,sans-serif;font-size:12px;fill:#555} </style>
<text x="10" y="20" class="label">延迟柱状图（越低越好，Top 15），单位 ms</text>
<text x="10" y="46" class="label">eaassets-a.akamaihd.net</text>
<rect x="180" y="30" width="113.79" height="22" fill="#4c78a8" rx="3"/>
<text x="301.79" y="46" class="value">61.08</text>
<text x="10" y="78" class="label">rockstargames.com</text>
<rect x="180" y="62" width="196.94" height="22" fill="#4c78a8" rx="3"/>
<text x="384.94" y="78" class="value">105.71</text>
<text x="10" y="110" class="label">ea.com</text>
<rect x="180" y="94" width="202.12" height="22" fill="#4c78a8" rx="3"/>
<text x="390.12" y="110" class="value">108.49</text>
<text x="10" y="142" class="label">community.akamai.steamstatic.com</text>
<rect x="180" y="126" width="255.38" height="22" fill="#4c78a8" rx="3"/>
<text x="443.38" y="142" class="value">137.08</text>
<text x="10" y="174" class="label">socialclub.rockstargames.com</text>
<rect x="180" y="158" width="289.66" height="22" fill="#4c78a8" rx="3"/>
<text x="477.66" y="174" class="value">155.48</text>
<text x="10" y="206" class="label">battle.net</text>
<rect x="180" y="190" width="310.88" height="22" fill="#4c78a8" rx="3"/>
<text x="498.88" y="206" class="value">166.87</text>
<text x="10" y="238" class="label">ubi.com</text>
<rect x="180" y="222" width="324.76" height="22" fill="#4c78a8" rx="3"/>
<text x="512.76" y="238" class="value">174.32</text>
<text x="10" y="270" class="label">store.akamai.steamstatic.com</text>
<rect x="180" y="254" width="351.91" height="22" fill="#4c78a8" rx="3"/>
<text x="539.9100000000001" y="270" class="value">188.89</text>
<text x="10" y="302" class="label">steam-chat.com</text>
<rect x="180" y="286" width="391.4" height="22" fill="#4c78a8" rx="3"/>
<text x="579.4" y="302" class="value">210.09</text>
<text x="10" y="334" class="label">blizzard.com</text>
<rect x="180" y="318" width="402.06" height="22" fill="#4c78a8" rx="3"/>
<text x="590.06" y="334" class="value">215.81</text>
<text x="10" y="366" class="label">origin.com</text>
<rect x="180" y="350" width="419.57" height="22" fill="#4c78a8" rx="3"/>
<text x="607.5699999999999" y="366" class="value">225.21</text>
<text x="10" y="398" class="label">static3.cdn.ubi.com</text>
<rect x="180" y="382" width="433.98" height="22" fill="#4c78a8" rx="3"/>
<text x="621.98" y="398" class="value">232.94</text>
<text x="10" y="430" class="label">api.steampowered.com</text>
<rect x="180" y="414" width="558.78" height="22" fill="#4c78a8" rx="3"/>
<text x="746.78" y="430" class="value">299.93</text>
<text x="10" y="462" class="label">unrealengine.com</text>
<rect x="180" y="446" width="566.7" height="22" fill="#4c78a8" rx="3"/>
<text x="754.7" y="462" class="value">304.18</text>
<text x="10" y="494" class="label">ubisoft.com</text>
<rect x="180" y="478" width="580.0" height="22" fill="#4c78a8" rx="3"/>
<text x="768.0" y="494" class="value">311.32</text>
<line x1="180" y1="30" x2="180" y2="520" stroke="#ccc"/>
<line x1="180" y1="520" x2="760" y2="520" stroke="#ccc"/>
</svg>