<svg xmlns="http://www.w3.org/2000/svg" width="800" height="540">
<style> .label{font-family:DejaVu Sans,Verdana,Geneva,sans-serif;font-size:12px;fill:#333} .value{font-family:DejaVu Sans,Verdana,Geneva,sans-serif;font-size:12px;fill:#555} </style>
<text x="10" y="20" class="label">延迟柱状图（越低越好，Top 15），单位 ms</text>
<text x="10" y="46" class="label">ea.com</text>
<rect x="180" y="30" width="104.55" height="22" fill="#4c78a8" rx="3"/>
<text x="292.55" y="46" class="value">46.22</text>
<text x="10" y="78" class="label">rockstargames.com</text>
<rect x="180" y="62" width="119.97" height="22" fill="#4c78a8" rx="3"/>
<text x="307.97" y="78" class="value">53.04</text>
<text x="10" y="110" class="label">cdn.akamai.steamstatic.com</text>
<rect x="180" y="94" width="159.8" height="22" fill="#4c78a8" rx="3"/>
<text x="347.8" y="110" class="value">70.65</text>
<text x="10" y="142" class="label">eaassets-a.akamaihd.net</text>
<rect x="180" y="126" width="164.44" height="22" fill="#4c78a8" rx="3"/>
<text x="352.44" y="142" class="value">72.70</text>
<text x="10" y="174" class="label">steamcdn-a.akamaihd.net</text>
<rect x="180" y="158" width="217.8" height="22" fill="#4c78a8" rx="3"/>
<text x="405.8" y="174" class="value">96.29</text>
<text x="10" y="206" class="label">origin.com</text>
<rect x="180" y="190" width="227.12" height="22" fill="#4c78a8" rx="3"/>
<text x="415.12" y="206" class="value">100.41</text>
<text x="10" y="238" class="label">ubisoft.com</text>
<rect x="180" y="222" width="294.16" height="22" fill="#4c78a8" rx="3"/>
<text x="482.16" y="238" class="value">130.05</text>
<text x="10" y="270" class="label">store.akamai.steamstatic.com</text>
<rect x="180" y="254" width="338.34" height="22" fill="#4c78a8" rx="3"/>
<text x="526.3399999999999" y="270" class="value">149.58</text>
<text x="10" y="302" class="label">cdn.cloudflare.steamstatic.com</text>
<rect x="180" y="286" width="356.34" height="22" fill="#4c78a8" rx="3"/>
<text x="544.3399999999999" y="302" class="value">157.54</text>
<text x="10" y="334" class="label">steam-chat.com</text>
<rect x="180" y="318" width="395.86" height="22" fill="#4c78a8" rx="3"/>
<text x="583.86" y="334" class="value">175.01</text>
<text x="10" y="366" class="label">community.akamai.steamstatic.com</text>
<rect x="180" y="350" width="415.94" height="22" fill="#4c78a8" rx="3"/>
<text x="603.94" y="366" class="value">183.89</text>
<text x="10" y="398" class="label">www.steamcommunity.com</text>
<rect x="180" y="382" width="485.09" height="22" fill="#4c78a8" rx="3"/>
<text x="673.0899999999999" y="398" class="value">214.46</text>
<text x="10" y="430" class="label">api.steampowered.com</text>
<rect x="180" y="414" width="499.27" height="22" fill="#4c78a8" rx="3"/>
<text x="687.27" y="430" class="value">220.73</text>
<text x="10" y="462" class="label">easyanticheat.net</text>
<rect x="180" y="446" width="529.36" height="22" fill="#4c78a8" rx="3"/>
<text x="717.36" y="462" class="value">234.03</text>
<text x="10" y="494" class="label">launcher-public-service-prod06.ol.epicgames.com</text>
<rect x="180" y="478" width="580.0" height="22" fill="#4c78a8" rx="3"/>
<text x="768.0" y="494" class="value">256.42</text>
<line x1="180" y1="30" x2="180" y2="520" stroke="#ccc"/>
<line x1="180" y1="520" x2="760" y2="520" stroke="#ccc"/>
</svg>