<svg xmlns="http://www.w3.org/2000/svg" width="800" height="540">
<style> .label{font-family:DejaVu Sans,Verdana,Geneva,sans-serif;font-size:12px;fill:#333} .value{font-family:DejaVu Sans,Verdana,Geneva,sans-serif;font-size:12px;fill:#555} </style>
<text x="10" y="20" class="label">延迟柱状图（越低越好，Top 15），单位 ms</text>
<text x="10" y="46" class="label">rockstargames.com</text>
<rect x="180" y="30" width="204.35" height="22" fill="#4c78a8" rx="3"/>
<text x="392.35" y="46" class="value">125.44</text>
<text x="10" y="78" class="label">eaassets-a.akamaihd.net</text>
<rect x="180" y="62" width="219.18" height="22" fill="#4c78a8" rx="3"/>
<text x="407.18" y="78" class="value">134.54</text>
<text x="10" y="110" class="label">ea.com</text>
<rect x="180" y="94" width="229.49" height="22" fill="#4c78a8" rx="3"/>
<text x="417.49" y="110" class="value">140.87</text>
<text x="10" y="142" class="label">easyanticheat.net</text>
<rect x="180" y="126" width="255.5" height="22" fill="#4c78a8" rx="3"/>
<text x="443.5" y="142" class="value">156.84</text>
<text x="10" y="174" class="label">steamcdn-a.akamaihd.net</text>
<rect x="180" y="158" width="276.1" height="22" fill="#4c78a8" rx="3"/>
<text x="464.1" y="174" class="value">169.48</text>
<text x="10" y="206" class="label">blizzard.com</text>
<rect x="180" y="190" width="290.53" height="22" fill="#4c78a8" rx="3"/>
<text x="478.53" y="206" class="value">178.34</text>
<text x="10" y="238" class="label">store.akamai.steamstatic.com</text>
<rect x="180" y="222" width="319.4" height="22" fill="#4c78a8" rx="3"/>
<text x="507.4" y="238" class="value">196.06</text>
<text x="10" y="270" class="label">community.akamai.steamstatic.com</text>
<rect x="180" y="254" width="328.31" height="22" fill="#4c78a8" rx="3"/>
<text x="516.31" y="270" class="value">201.53</text>
<text x="10" y="302" class="label">launcher-public-service-prod06.ol.epicgames.com</text>
<rect x="180" y="286" width="382.9" height="22" fill="#4c78a8" rx="3"/>
<text x="570.9" y="302" class="value">235.04</text>
<text x="10" y="334" class="label">ubi.com</text>
<rect x="180" y="318" width="419.49" height="22" fill="#4c78a8" rx="3"/>
<text x="607.49" y="334" class="value">257.50</text>
<text x="10" y="366" class="label">ubisoft.com</text>
<rect x="180" y="350" width="437.1" height="22" fill="#4c78a8" rx="3"/>
<text x="625.1" y="366" class="value">268.31</text>
<text x="10" y="398" class="label">api.steampowered.com</text>
<rect x="180" y="382" width="439.64" height="22" fill="#4c78a8" rx="3"/>
<text x="627.64" y="398" class="value">269.87</text>
<text x="10" y="430" class="label">socialclub.rockstargames.com</text>
<rect x="180" y="414" width="462.67" height="22" fill="#4c78a8" rx="3"/>
<text x="650.6700000000001" y="430" class="value">284.01</text>
<text x="10" y="462" class="label">cdn.cloudflare.steamstatic.com</text>
<rect x="180" y="446" width="487.75" height="22" fill="#4c78a8" rx="3"/>
<text x="675.75" y="462" class="value">299.40</text>
<text x="10" y="494" class="label">epicgames.com</text>
<rect x="180" y="478" width="580.0" height="22" fill="#4c78a8" rx="3"/>
<text x="768.0" y="494" class="value">356.03</text>
<line x1="180" y1="30" x2="180" y2="520" stroke="#ccc"/>
<line x1="180" y1="520" x2="760" y2="520" stroke="#ccc"/>
</svg>