<svg xmlns="http://www.w3.org/2000/svg" width="800" height="540">
<style> .label{font-family:DejaVu Sans,Verdana,Geneva,sans-serif;font-size:12px;fill:#333} .value{font-family:DejaVu Sans,Verdana,Geneva,sans-serif;font-size:12px;fill:#555} </style>
<text x="10" y="20" class="label">延迟柱状图（越低越好，Top 15），单位 ms</text>
<text x="10" y="46" class="label">rockstargames.com</text>
<rect x="180" y="30" width="289.53" height="22" fill="#4c78a8" rx="3"/>
<text x="477.53" y="46" class="value">133.08</text>
<text x="10" y="78" class="label">eaassets-a.akamaihd.net</text>
<rect x="180" y="62" width="343.88" height="22" fill="#4c78a8" rx="3"/>
<text x="531.88" y="78" class="value">158.06</text>
<text x="10" y="110" class="label">easyanticheat.net</text>
<rect x="180" y="94" width="358.7" height="22" fill="#4c78a8" rx="3"/>
<text x="546.7" y="110" class="value">164.87</text>
<text x="10" y="142" class="label">ubi.com</text>
<rect x="180" y="126" width="382.87" height="22" fill="#4c78a8" rx="3"/>
<text x="570.87" y="142" class="value">175.98</text>
<text x="10" y="174" class="label">ea.com</text>
<rect x="180" y="158" width="391.96" height="22" fill="#4c78a8" rx="3"/>
<text x="579.96" y="174" class="value">180.16</text>
<text x="10" y="206" class="label">ubisoft.com</text>
<rect x="180" y="190" width="414.85" height="22" fill="#4c78a8" rx="3"/>
<text x="602.85" y="206" class="value">190.68</text>
<text x="10" y="238" class="label">steam-chat.com</text>
<rect x="180" y="222" width="437.39" height="22" fill="#4c78a8" rx="3"/>
<text x="625.39" y="238" class="value">201.04</text>
<text x="10" y="270" class="label">socialclub.rockstargames.com</text>
<rect x="180" y="254" width="458.84" height="22" fill="#4c78a8" rx="3"/>
<text x="646.8399999999999" y="270" class="value">210.90</text>
<text x="10" y="302" class="label">api.steampowered.com</text>
<rect x="180" y="286" width="471.46" height="22" fill="#4c78a8" rx="3"/>
<text x="659.46" y="302" class="value">216.70</text>
<text x="10" y="334" class="label">steamcommunity.com</text>
<rect x="180" y="318" width="483.21" height="22" fill="#4c78a8" rx="3"/>
<text x="671.21" y="334" class="value">222.10</text>
<text x="10" y="366" class="label">steamcdn-a.akamaihd.net</text>
<rect x="180" y="350" width="485.03" height="22" fill="#4c78a8" rx="3"/>
<text x="673.03" y="366" class="value">222.94</text>
<text x="10" y="398" class="label">cdn.cloudflare.steamstatic.com</text>
<rect x="180" y="382" width="485.45" height="22" fill="#4c78a8" rx="3"/>
<text x="673.45" y="398" class="value">223.13</text>
<text x="10" y="430" class="label">origin.com</text>
<rect x="180" y="414" width="528.57" height="22" fill="#4c78a8" rx="3"/>
<text x="716.57" y="430" class="value">242.95</text>
<text x="10" y="462" class="label">unrealengine.com</text>
<rect x="180" y="446" width="543.88" height="22" fill="#4c78a8" rx="3"/>
<text x="731.88" y="462" class="value">249.99</text>
<text x="10" y="494" class="label">static3.cdn.ubi.com</text>
<rect x="180" y="478" width="580.0" height="22" fill="#4c78a8" rx="3"/>
<text x="768.0" y="494" class="value">266.59</text>
<line x1="180" y1="30" x2="180" y2="520" stroke="#ccc"/>
<line x1="180" y1="520" x2="760" y2="520" stroke="#ccc"/>
</svg>