<svg xmlns="http://www.w3.org/2000/svg" width="800" height="540">
<style> .label{font-family:DejaVu Sans,Verdana,Geneva,sans-serif;font-size:12px;fill:#333} .value{font-family:DejaVu Sans,Verdana,Geneva,sans-serif;font-size:12px;fill:#555} </style>
<text x="10" y="20" class="label">延迟柱状图（越低越好，Top 15），单位 ms</text>
<text x="10" y="46" class="label">eaassets-a.akamaihd.net</text>
<rect x="180" y="30" width="113.26" height="22" fill="#4c78a8" rx="3"/>
<text x="301.26" y="46" class="value">48.94</text>
<text x="10" y="78" class="label">rockstargames.com</text>
<rect x="180" y="62" width="240.06" height="22" fill="#4c78a8" rx="3"/>
<text x="428.06" y="78" class="value">103.73</text>
<text x="10" y="110" class="label">ubisoft.com</text>
<rect x="180" y="94" width="330.36" height="22" fill="#4c78a8" rx="3"/>
<text x="518.36" y="110" class="value">142.75</text>
<text x="10" y="142" class="label">socialclub.rockstargames.com</text>
<rect x="180" y="126" width="341.01" height="22" fill="#4c78a8" rx="3"/>
<text x="529.01" y="142" class="value">147.35</text>
<text x="10" y="174" class="label">static3.cdn.ubi.com</text>
<rect x="180" y="158" width="350.26" height="22" fill="#4c78a8" rx="3"/>
<text x="538.26" y="174" class="value">151.35</text>
<text x="10" y="206" class="label">battle.net</text>
<rect x="180" y="190" width="351.81" height="22" fill="#4c78a8" rx="3"/>
<text x="539.81" y="206" class="value">152.02</text>
<text x="10" y="238" class="label">blizzard.com</text>
<rect x="180" y="222" width="365.82" height="22" fill="#4c78a8" rx="3"/>
<text x="553.8199999999999" y="238" class="value">158.07</text>
<text x="10" y="270" class="label">ubi.com</text>
<rect x="180" y="254" width="417.63" height="22" fill="#4c78a8" rx="3"/>
<text x="605.63" y="270" class="value">180.46</text>
<text x="10" y="302" class="label">steam-chat.com</text>
<rect x="180" y="286" width="437.12" height="22" fill="#4c78a8" rx="3"/>
<text x="625.12" y="302" class="value">188.88</text>
<text x="10" y="334" class="label">cdn.akamai.steamstatic.com</text>
<rect x="180" y="318" width="438.34" height="22" fill="#4c78a8" rx="3"/>
<text x="626.3399999999999" y="334" class="value">189.41</text>
<text x="10" y="366" class="label">community.akamai.steamstatic.com</text>
<rect x="180" y="350" width="480.3" height="22" fill="#4c78a8" rx="3"/>
<text x="668.3" y="366" class="value">207.54</text>
<text x="10" y="398" class="label">steamcdn-a.akamaihd.net</text>
<rect x="180" y="382" width="494.7" height="22" fill="#4c78a8" rx="3"/>
<text x="682.7" y="398" class="value">213.76</text>
<text x="10" y="430" class="label">ea.com</text>
<rect x="180" y="414" width="498.61" height="22" fill="#4c78a8" rx="3"/>
<text x="686.61" y="430" class="value">215.45</text>
<text x="10" y="462" class="label">launcher-public-service-prod06.ol.epicgames.com</text>
<rect x="180" y="446" width="520.2" height="22" fill="#4c78a8" rx="3"/>
<text x="708.2" y="462" class="value">224.78</text>
<text x="10" y="494" class="label">easyanticheat.net</text>
<rect x="180" y="478" width="580.0" height="22" fill="#4c78a8" rx="3"/>
<text x="768.0" y="494" class="value">250.62</text>
<line x1="180" y1="30" x2="180" y2="520" stroke="#ccc"/>
<line x1="180" y1="520" x2="760" y2="520" stroke="#ccc"/>
</svg>