<svg xmlns="http://www.w3.org/2000/svg" width="800" height="540">
<style> .label{font-family:DejaVu Sans,Verdana,Geneva,sans-serif;font-size:12px;fill:#333} .value{font-family:DejaVu Sans,Verdana,Geneva,sans-serif;font-size:12px;fill:#555} </style>
<text x="10" y="20" class="label">延迟柱状图（越低越好，Top 15），单位 ms</text>
<text x="10" y="46" class="label">rockstargames.com</text>
<rect x="180" y="30" width="132.42" height="22" fill="#4c78a8" rx="3"/>
<text x="320.41999999999996" y="46" class="value">60.71</text>
<text x="10" y="78" class="label">steamcdn-a.akamaihd.net</text>
<rect x="180" y="62" width="244.18" height="22" fill="#4c78a8" rx="3"/>
<text x="432.18" y="78" class="value">111.95</text>
<text x="10" y="110" class="label">origin.com</text>
<rect x="180" y="94" width="252.06" height="22" fill="#4c78a8" rx="3"/>
<text x="440.06" y="110" class="value">115.56</text>
<text x="10" y="142" class="label">cdn.cloudflare.steamstatic.com</text>
<rect x="180" y="126" width="252.08" height="22" fill="#4c78a8" rx="3"/>
<text x="440.08000000000004" y="142" class="value">115.57</text>
<text x="10" y="174" class="label">store.akamai.steamstatic.com</text>
<rect x="180" y="158" width="269.49" height="22" fill="#4c78a8" rx="3"/>
<text x="457.49" y="174" class="value">123.55</text>
<text x="10" y="206" class="label">ea.com</text>
<rect x="180" y="190" width="295.81" height="22" fill="#4c78a8" rx="3"/>
<text x="483.81" y="206" class="value">135.62</text>
<text x="10" y="238" class="label">cdn.akamai.steamstatic.com</text>
<rect x="180" y="222" width="309.88" height="22" fill="#4c78a8" rx="3"/>
<text x="497.88" y="238" class="value">142.07</text>
<text x="10" y="270" class="label">ubisoft.com</text>
<rect x="180" y="254" width="323.97" height="22" fill="#4c78a8" rx="3"/>
<text x="511.97" y="270" class="value">148.53</text>
<text x="10" y="302" class="label">easyanticheat.net</text>
<rect x="180" y="286" width="335.18" height="22" fill="#4c78a8" rx="3"/>
<text x="523.1800000000001" y="302" class="value">153.67</text>
<text x="10" y="334" class="label">community.akamai.steamstatic.com</text>
<rect x="180" y="318" width="389.28" height="22" fill="#4c78a8" rx="3"/>
<text x="577.28" y="334" class="value">178.47</text>
<text x="10" y="366" class="label">static3.cdn.ubi.com</text>
<rect x="180" y="350" width="404.46" height="22" fill="#4c78a8" rx="3"/>
<text x="592.46" y="366" class="value">185.43</text>
<text x="10" y="398" class="label">launcher-public-service-prod06.ol.epicgames.com</text>
<rect x="180" y="382" width="415.12" height="22" fill="#4c78a8" rx="3"/>
<text x="603.12" y="398" class="value">190.32</text>
<text x="10" y="430" class="label">api.steampowered.com</text>
<rect x="180" y="414" width="425.92" height="22" fill="#4c78a8" rx="3"/>
<text x="613.9200000000001" y="430" class="value">195.27</text>
<text x="10" y="462" class="label">eaassets-a.akamaihd.net</text>
<rect x="180" y="446" width="562.88" height="22" fill="#4c78a8" rx="3"/>
<text x="750.88" y="462" class="value">258.06</text>
<text x="10" y="494" class="label">www.steamcommunity.com</text>
<rect x="180" y="478" width="580.0" height="22" fill="#4c78a8" rx="3"/>
<text x="768.0" y="494" class="value">265.91</text>
<line x1="180" y1="30" x2="180" y2="520" stroke="#ccc"/>
<line x1="180" y1="520" x2="760" y2="520" stroke="#ccc"/>
</svg>