<svg xmlns="http://www.w3.org/2000/svg" width="800" height="540">
<style> .label{font-family:DejaVu Sans,Verdana,Geneva,sans-serif;font-size:12px;fill:#333} .value{font-family:DejaVu Sans,Verdana,Geneva,sans-serif;font-size:12px;fill:#555} </style>
<text x="10" y="20" class="label">延迟柱状图（越低越好，Top 15），单位 ms</text>
<text x="10" y="46" class="label">rockstargames.com</text>
<rect x="180" y="30" width="82.29" height="22" fill="#4c78a8" rx="3"/>
<text x="270.29" y="46" class="value">41.56</text>
<text x="10" y="78" class="label">ea.com</text>
<rect x="180" y="62" width="128.9" height="22" fill="#4c78a8" rx="3"/>
<text x="316.9" y="78" class="value">65.10</text>
<text x="10" y="110" class="label">eaassets-a.akamaihd.net</text>
<rect x="180" y="94" width="167.43" height="22" fill="#4c78a8" rx="3"/>
<text x="355.43" y="110" class="value">84.56</text>
<text x="10" y="142" class="label">ubisoft.com</text>
<rect x="180" y="126" width="185.11" height="22" fill="#4c78a8" rx="3"/>
<text x="373.11" y="142" class="value">93.49</text>
<text x="10" y="174" class="label">steamcdn-a.akamaihd.net</text>
<rect x="180" y="158" width="204.38" height="22" fill="#4c78a8" rx="3"/>
<text x="392.38" y="174" class="value">103.22</text>
<text x="10" y="206" class="label">origin.com</text>
<rect x="180" y="190" width="219.07" height="22" fill="#4c78a8" rx="3"/>
<text x="407.07" y="206" class="value">110.64</text>
<text x="10" y="238" class="label">easyanticheat.net</text>
<rect x="180" y="222" width="364.04" height="22" fill="#4c78a8" rx="3"/>
<text x="552.04" y="238" class="value">183.86</text>
<text x="10" y="270" class="label">cdn.cloudflare.steamstatic.com</text>
<rect x="180" y="254" width="379.45" height="22" fill="#4c78a8" rx="3"/>
<text x="567.45" y="270" class="value">191.64</text>
<text x="10" y="302" class="label">community.akamai.steamstatic.com</text>
<rect x="180" y="286" width="391.41" height="22" fill="#4c78a8" rx="3"/>
<text x="579.4100000000001" y="302" class="value">197.68</text>
<text x="10" y="334" class="label">cdn.akamai.steamstatic.com</text>
<rect x="180" y="318" width="407.9" height="22" fill="#4c78a8" rx="3"/>
<text x="595.9" y="334" class="value">206.01</text>
<text x="10" y="366" class="label">store.akamai.steamstatic.com</text>
<rect x="180" y="350" width="470.96" height="22" fill="#4c78a8" rx="3"/>
<text x="658.96" y="366" class="value">237.86</text>
<text x="10" y="398" class="label">steamcommunity.com</text>
<rect x="180" y="382" width="491.22" height="22" fill="#4c78a8" rx="3"/>
<text x="679.22" y="398" class="value">248.09</text>
<text x="10" y="430" class="label">api.steampowered.com</text>
<rect x="180" y="414" width="516.16" height="22" fill="#4c78a8" rx="3"/>
<text x="704.16" y="430" class="value">260.69</text>
<text x="10" y="462" class="label">steam-chat.com</text>
<rect x="180" y="446" width="578.06" height="22" fill="#4c78a8" rx="3"/>
<text x="766.06" y="462" class="value">291.95</text>
<text x="10" y="494" class="label">static3.cdn.ubi.com</text>
<rect x="180" y="478" width="580.0" height="22" fill="#4c78a8" rx="3"/>
<text x="768.0" y="494" class="value">292.93</text>
<line x1="180" y1="30" x2="180" y2="520" stroke="#ccc"/>
<line x1="180" y1="520" x2="760" y2="520" stroke="#ccc"/>
</svg>