<svg xmlns="http://www.w3.org/2000/svg" width="800" height="540">
<style> .label{font-family:DejaVu Sans,Verdana,Geneva,sans-serif;font-size:12px;fill:#333} .value{font-family:DejaVu Sans,Verdana,Geneva,sans-serif;font-size:12px;fill:#555} </style>
<text x="10" y="20" class="label">延迟柱状图（越低越好，Top 15），单位 ms</text>
<text x="10" y="46" class="label">rockstargames.com</text>
<rect x="180" y="30" width="232.35" height="22" fill="#4c78a8" rx="3"/>
<text x="420.35" y="46" class="value">82.78</text>
<text x="10" y="78" class="label">eaassets-a.akamaihd.net</text>
<rect x="180" y="62" width="266.37" height="22" fill="#4c78a8" rx="3"/>
<text x="454.37" y="78" class="value">94.90</text>
<text x="10" y="110" class="label">community.akamai.steamstatic.com</text>
<rect x="180" y="94" width="278.21" height="22" fill="#4c78a8" rx="3"/>
<text x="466.21" y="110" class="value">99.12</text>
<text x="10" y="142" class="label">blizzard.com</text>
<rect x="180" y="126" width="281.41" height="22" fill="#4c78a8" rx="3"/>
<text x="469.41" y="142" class="value">100.26</text>
<text x="10" y="174" class="label">socialclub.rockstargames.com</text>
<rect x="180" y="158" width="309.51" height="22" fill="#4c78a8" rx="3"/>
<text x="497.51" y="174" class="value">110.27</text>
<text x="10" y="206" class="label">battle.net</text>
<rect x="180" y="190" width="315.21" height="22" fill="#4c78a8" rx="3"/>
<text x="503.21" y="206" class="value">112.30</text>
<text x="10" y="238" class="label">ubi.com</text>
<rect x="180" y="222" width="350.51" height="22" fill="#4c78a8" rx="3"/>
<text x="538.51" y="238" class="value">124.88</text>
<text x="10" y="270" class="label">epicgames.com</text>
<rect x="180" y="254" width="393.15" height="22" fill="#4c78a8" rx="3"/>
<text x="581.15" y="270" class="value">140.07</text>
<text x="10" y="302" class="label">ubisoft.com</text>
<rect x="180" y="286" width="408.98" height="22" fill="#4c78a8" rx="3"/>
<text x="596.98" y="302" class="value">145.71</text>
<text x="10" y="334" class="label">origin.com</text>
<rect x="180" y="318" width="455.15" height="22" fill="#4c78a8" rx="3"/>
<text x="643.15" y="334" class="value">162.16</text>
<text x="10" y="366" class="label">unrealengine.com</text>
<rect x="180" y="350" width="467.81" height="22" fill="#4c78a8" rx="3"/>
<text x="655.81" y="366" class="value">166.67</text>
<text x="10" y="398" class="label">cdn.cloudflare.steamstatic.com</text>
<rect x="180" y="382" width="483.02" height="22" fill="#4c78a8" rx="3"/>
<text x="671.02" y="398" class="value">172.09</text>
<text x="10" y="430" class="label">static3.cdn.ubi.com</text>
<rect x="180" y="414" width="518.22" height="22" fill="#4c78a8" rx="3"/>
<text x="706.22" y="430" class="value">184.63</text>
<text x="10" y="462" class="label">cdn.akamai.steamstatic.com</text>
<rect x="180" y="446" width="559.12" height="22" fill="#4c78a8" rx="3"/>
<text x="747.12" y="462" class="value">199.20</text>
<text x="10" y="494" class="label">store.akamai.steamstatic.com</text>
<rect x="180" y="478" width="580.0" height="22" fill="#4c78a8" rx="3"/>
<text x="768.0" y="494" class="value">206.64</text>
<line x1="180" y1="30" x2="180" y2="520" stroke="#ccc"/>
<line x1="180" y1="520" x2="760" y2="520" stroke="#ccc"/>
</svg>