<svg xmlns="http://www.w3.org/2000/svg" width="800" height="540">
<style> .label{font-family:DejaVu Sans,Verdana,Geneva,sans-serif;font-size:12px;fill:#333} .value{font-family:DejaVu Sans,Verdana,Geneva,sans-serif;font-size:12px;fill:#555} </style>
<text x="10" y="20" class="label">延迟柱状图（越低越好，Top 15），单位 ms</text>
<text x="10" y="46" class="label">rockstargames.com</text>
<rect x="180" y="30" width="199.46" height="22" fill="#4c78a8" rx="3"/>
<text x="387.46000000000004" y="46" class="value">95.24</text>
<text x="10" y="78" class="label">eaassets-a.akamaihd.net</text>
<rect x="180" y="62" width="268.62" height="22" fill="#4c78a8" rx="3"/>
<text x="456.62" y="78" class="value">128.26</text>
<text x="10" y="110" class="label">community.akamai.steamstatic.com</text>
<rect x="180" y="94" width="282.04" height="22" fill="#4c78a8" rx="3"/>
<text x="470.04" y="110" class="value">134.67</text>
<text x="10" y="142" class="label">cdn.akamai.steamstatic.com</text>
<rect x="180" y="126" width="282.73" height="22" fill="#4c78a8" rx="3"/>
<text x="470.73" y="142" class="value">135.00</text>
<text x="10" y="174" class="label">steamcdn-a.akamaihd.net</text>
<rect x="180" y="158" width="303.17" height="22" fill="#4c78a8" rx="3"/>
<text x="491.17" y="174" class="value">144.76</text>
<text x="10" y="206" class="label">origin.com</text>
<rect x="180" y="190" width="331.89" height="22" fill="#4c78a8" rx="3"/>
<text x="519.89" y="206" class="value">158.47</text>
<text x="10" y="238" class="label">store.akamai.steamstatic.com</text>
<rect x="180" y="222" width="333.88" height="22" fill="#4c78a8" rx="3"/>
<text x="521.88" y="238" class="value">159.42</text>
<text x="10" y="270" class="label">ubisoft.com</text>
<rect x="180" y="254" width="347.7" height="22" fill="#4c78a8" rx="3"/>
<text x="535.7" y="270" class="value">166.02</text>
<text x="10" y="302" class="label">ea.com</text>
<rect x="180" y="286" width="357.77" height="22" fill="#4c78a8" rx="3"/>
<text x="545.77" y="302" class="value">170.83</text>
<text x="10" y="334" class="label">cdn.cloudflare.steamstatic.com</text>
<rect x="180" y="318" width="402.61" height="22" fill="#4c78a8" rx="3"/>
<text x="590.61" y="334" class="value">192.24</text>
<text x="10" y="366" class="label">easyanticheat.net</text>
<rect x="180" y="350" width="481.99" height="22" fill="#4c78a8" rx="3"/>
<text x="669.99" y="366" class="value">230.14</text>
<text x="10" y="398" class="label">steam-chat.com</text>
<rect x="180" y="382" width="489.34" height="22" fill="#4c78a8" rx="3"/>
<text x="677.3399999999999" y="398" class="value">233.65</text>
<text x="10" y="430" class="label">launcher-public-service-prod06.ol.epicgames.com</text>
<rect x="180" y="414" width="496.54" height="22" fill="#4c78a8" rx="3"/>
<text x="684.54" y="430" class="value">237.09</text>
<text x="10" y="462" class="label">ubi.com</text>
<rect x="180" y="446" width="576.69" height="22" fill="#4c78a8" rx="3"/>
<text x="764.69" y="462" class="value">275.36</text>
<text x="10" y="494" class="label">api.steampowered.com</text>
<rect x="180" y="478" width="580.0" height="22" fill="#4c78a8" rx="3"/>
<text x="768.0" y="494" class="value">276.94</text>
<line x1="180" y1="30" x2="180" y2="520" stroke="#ccc"/>
<line x1="180" y1="520" x2="760" y2="520" stroke="#ccc"/>
</svg>