<svg xmlns="http://www.w3.org/2000/svg" width="800" height="540">
<style> .label{font-family:DejaVu Sans,Verdana,Geneva,sans-serif;font-size:12px;fill:#333} .value{font-family:DejaVu Sans,Verdana,Geneva,sans-serif;font-size:12px;fill:#555} </style>
<text x="10" y="20" class="label">延迟柱状图（越低越好，Top 15），单位 ms</text>
<text x="10" y="46" class="label">eaassets-a.akamaihd.net</text>
<rect x="180" y="30" width="154.94" height="22" fill="#4c78a8" rx="3"/>
<text x="342.94" y="46" class="value">54.48</text>
<text x="10" y="78" class="label">socialclub.rockstargames.com</text>
<rect x="180" y="62" width="268.61" height="22" fill="#4c78a8" rx="3"/>
<text x="456.61" y="78" class="value">94.45</text>
<text x="10" y="110" class="label">unrealengine.com</text>
<rect x="180" y="94" width="286.7" height="22" fill="#4c78a8" rx="3"/>
<text x="474.7" y="110" class="value">100.81</text>
<text x="10" y="142" class="label">rockstargames.com</text>
<rect x="180" y="126" width="299.39" height="22" fill="#4c78a8" rx="3"/>
<text x="487.39" y="142" class="value">105.27</text>
<text x="10" y="174" class="label">blizzard.com</text>
<rect x="180" y="158" width="302.83" height="22" fill="#4c78a8" rx="3"/>
<text x="490.83" y="174" class="value">106.48</text>
<text x="10" y="206" class="label">battle.net</text>
<rect x="180" y="190" width="310.39" height="22" fill="#4c78a8" rx="3"/>
<text x="498.39" y="206" class="value">109.14</text>
<text x="10" y="238" class="label">ea.com</text>
<rect x="180" y="222" width="314.43" height="22" fill="#4c78a8" rx="3"/>
<text x="502.43" y="238" class="value">110.56</text>
<text x="10" y="270" class="label">ubi.com</text>
<rect x="180" y="254" width="322.36" height="22" fill="#4c78a8" rx="3"/>
<text x="510.36" y="270" class="value">113.35</text>
<text x="10" y="302" class="label">ubisoft.com</text>
<rect x="180" y="286" width="384.25" height="22" fill="#4c78a8" rx="3"/>
<text x="572.25" y="302" class="value">135.11</text>
<text x="10" y="334" class="label">fortnite.com</text>
<rect x="180" y="318" width="413.2" height="22" fill="#4c78a8" rx="3"/>
<text x="601.2" y="334" class="value">145.29</text>
<text x="10" y="366" class="label">static3.cdn.ubi.com</text>
<rect x="180" y="350" width="467.98" height="22" fill="#4c78a8" rx="3"/>
<text x="655.98" y="366" class="value">164.55</text>
<text x="10" y="398" class="label">epicgames.com</text>
<rect x="180" y="382" width="514.99" height="22" fill="#4c78a8" rx="3"/>
<text x="702.99" y="398" class="value">181.08</text>
<text x="10" y="430" class="label">cdn.akamai.steamstatic.com</text>
<rect x="180" y="414" width="519.74" height="22" fill="#4c78a8" rx="3"/>
<text x="707.74" y="430" class="value">182.75</text>
<text x="10" y="462" class="label">cdn.cloudflare.steamstatic.com</text>
<rect x="180" y="446" width="523.55" height="22" fill="#4c78a8" rx="3"/>
<text x="711.55" y="462" class="value">184.09</text>
<text x="10" y="494" class="label">steam-chat.com</text>
<rect x="180" y="478" width="580.0" height="22" fill="#4c78a8" rx="3"/>
<text x="768.0" y="494" class="value">203.94</text>
<line x1="180" y1="30" x2="180" y2="520" stroke="#ccc"/>
<line x1="180" y1="520" x2="760" y2="520" stroke="#ccc"/>
</svg>