<svg xmlns="http://www.w3.org/2000/svg" width="800" height="540">
<style> .label{font-family:DejaVu Sans,Verdana,Geneva,sans-serif;font-size:12px;fill:#333} .value{font-family:DejaVu Sans,Verdana,Geneva,sans-serif;font-size:12px;fill:#555} </style>
<text x="10" y="20" class="label">延迟柱状图（越低越好，Top 15），单位 ms</text>
<text x="10" y="46" class="label">eaassets-a.akamaihd.net</text>
<rect x="180" y="30" width="99.6" height="22" fill="#4c78a8" rx="3"/>
<text x="287.6" y="46" class="value">33.54</text>
<text x="10" y="78" class="label">store.akamai.steamstatic.com</text>
<rect x="180" y="62" width="203.62" height="22" fill="#4c78a8" rx="3"/>
<text x="391.62" y="78" class="value">68.57</text>
<text x="10" y="110" class="label">rockstargames.com</text>
<rect x="180" y="94" width="226.16" height="22" fill="#4c78a8" rx="3"/>
<text x="414.15999999999997" y="110" class="value">76.16</text>
<text x="10" y="142" class="label">community.akamai.steamstatic.com</text>
<rect x="180" y="126" width="236.99" height="22" fill="#4c78a8" rx="3"/>
<text x="424.99" y="142" class="value">79.81</text>
<text x="10" y="174" class="label">ea.com</text>
<rect x="180" y="158" width="238.66" height="22" fill="#4c78a8" rx="3"/>
<text x="426.65999999999997" y="174" class="value">80.37</text>
<text x="10" y="206" class="label">origin.com</text>
<rect x="180" y="190" width="362.69" height="22" fill="#4c78a8" rx="3"/>
<text x="550.69" y="206" class="value">122.14</text>
<text x="10" y="238" class="label">battle.net</text>
<rect x="180" y="222" width="390.07" height="22" fill="#4c78a8" rx="3"/>
<text x="578.0699999999999" y="238" class="value">131.36</text>
<text x="10" y="270" class="label">blizzard.com</text>
<rect x="180" y="254" width="392.77" height="22" fill="#4c78a8" rx="3"/>
<text x="580.77" y="270" class="value">132.27</text>
<text x="10" y="302" class="label">ubi.com</text>
<rect x="180" y="286" width="411.75" height="22" fill="#4c78a8" rx="3"/>
<text x="599.75" y="302" class="value">138.66</text>
<text x="10" y="334" class="label">socialclub.rockstargames.com</text>
<rect x="180" y="318" width="449.49" height="22" fill="#4c78a8" rx="3"/>
<text x="637.49" y="334" class="value">151.37</text>
<text x="10" y="366" class="label">easyanticheat.net</text>
<rect x="180" y="350" width="498.1" height="22" fill="#4c78a8" rx="3"/>
<text x="686.1" y="366" class="value">167.74</text>
<text x="10" y="398" class="label">steamcdn-a.akamaihd.net</text>
<rect x="180" y="382" width="526.61" height="22" fill="#4c78a8" rx="3"/>
<text x="714.61" y="398" class="value">177.34</text>
<text x="10" y="430" class="label">cdn.cloudflare.steamstatic.com</text>
<rect x="180" y="414" width="548.26" height="22" fill="#4c78a8" rx="3"/>
<text x="736.26" y="430" class="value">184.63</text>
<text x="10" y="462" class="label">cdn.akamai.steamstatic.com</text>
<rect x="180" y="446" width="552.12" height="22" fill="#4c78a8" rx="3"/>
<text x="740.12" y="462" class="value">185.93</text>
<text x="10" y="494" class="label">www.steamcommunity.com</text>
<rect x="180" y="478" width="580.0" height="22" fill="#4c78a8" rx="3"/>
<text x="768.0" y="494" class="value">195.32</text>
<line x1="180" y1="30" x2="180" y2="520" stroke="#ccc"/>
<line x1="180" y1="520" x2="760" y2="520" stroke="#ccc"/>
</svg>