<svg xmlns="http://www.w3.org/2000/svg" width="800" height="540">
<style> .label{font-family:DejaVu Sans,Verdana,Geneva,sans-serif;font-size:12px;fill:#333} .value{font-family:DejaVu Sans,Verdana,Geneva,sans-serif;font-size:12px;fill:#555} </style>
<text x="10" y="20" class="label">延迟柱状图（越低越好，Top 15），单位 ms</text>
<text x="10" y="46" class="label">rockstargames.com</text>
<rect x="180" y="30" width="144.45" height="22" fill="#4c78a8" rx="3"/>
<text x="332.45" y="46" class="value">49.19</text>
<text x="10" y="78" class="label">socialclub.rockstargames.com</text>
<rect x="180" y="62" width="182.3" height="22" fill="#4c78a8" rx="3"/>
<text x="370.3" y="78" class="value">62.08</text>
<text x="10" y="110" class="label">community.akamai.steamstatic.com</text>
<rect x="180" y="94" width="366.66" height="22" fill="#4c78a8" rx="3"/>
<text x="554.6600000000001" y="110" class="value">124.86</text>
<text x="10" y="142" class="label">eaassets-a.akamaihd.net</text>
<rect x="180" y="126" width="380.46" height="22" fill="#4c78a8" rx="3"/>
<text x="568.46" y="142" class="value">129.56</text>
<text x="10" y="174" class="label">ea.com</text>
<rect x="180" y="158" width="380.87" height="22" fill="#4c78a8" rx="3"/>
<text x="568.87" y="174" class="value">129.70</text>
<text x="10" y="206" class="label">battle.net</text>
<rect x="180" y="190" width="385.45" height="22" fill="#4c78a8" rx="3"/>
<text x="573.45" y="206" class="value">131.26</text>
<text x="10" y="238" class="label">blizzard.com</text>
<rect x="180" y="222" width="398.11" height="22" fill="#4c78a8" rx="3"/>
<text x="586.11" y="238" class="value">135.57</text>
<text x="10" y="270" class="label">ubi.com</text>
<rect x="180" y="254" width="415.05" height="22" fill="#4c78a8" rx="3"/>
<text x="603.05" y="270" class="value">141.34</text>
<text x="10" y="302" class="label">cdn.akamai.steamstatic.com</text>
<rect x="180" y="286" width="511.2" height="22" fill="#4c78a8" rx="3"/>
<text x="699.2" y="302" class="value">174.08</text>
<text x="10" y="334" class="label">fortnite.com</text>
<rect x="180" y="318" width="512.87" height="22" fill="#4c78a8" rx="3"/>
<text x="700.87" y="334" class="value">174.65</text>
<text x="10" y="366" class="label">cdn.cloudflare.steamstatic.com</text>
<rect x="180" y="350" width="516.63" height="22" fill="#4c78a8" rx="3"/>
<text x="704.63" y="366" class="value">175.93</text>
<text x="10" y="398" class="label">steamcdn-a.akamaihd.net</text>
<rect x="180" y="382" width="567.67" height="22" fill="#4c78a8" rx="3"/>
<text x="755.67" y="398" class="value">193.31</text>
<text x="10" y="430" class="label">store.akamai.steamstatic.com</text>
<rect x="180" y="414" width="576.65" height="22" fill="#4c78a8" rx="3"/>
<text x="764.65" y="430" class="value">196.37</text>
<text x="10" y="462" class="label">ubisoft.com</text>
<rect x="180" y="446" width="578.21" height="22" fill="#4c78a8" rx="3"/>
<text x="766.21" y="462" class="value">196.90</text>
<text x="10" y="494" class="label">origin.com</text>
<rect x="180" y="478" width="580.0" height="22" fill="#4c78a8" rx="3"/>
<text x="768.0" y="494" class="value">197.51</text>
<line x1="180" y1="30" x2="180" y2="520" stroke="#ccc"/>
<line x1="180" y1="520" x2="760" y2="520" stroke="#ccc"/>
</svg>