<svg xmlns="http://www.w3.org/2000/svg" width="800" height="540">
<style> .label{font-family:DejaVu Sans,Verdana,Geneva,sans-serif;font-size:12px;fill:#333} .value{font-family:DejaVu Sans,Verdana,Geneva,sans-serif;font-size:12px;fill:#555} </style>
<text x="10" y="20" class="label">延迟柱状图（越低越好，Top 15），单位 ms</text>
<text x="10" y="46" class="label">rockstargames.com</text>
<rect x="180" y="30" width="162.73" height="22" fill="#4c78a8" rx="3"/>
<text x="350.73" y="46" class="value">58.60</text>
<text x="10" y="78" class="label">socialclub.rockstargames.com</text>
<rect x="180" y="62" width="177.89" height="22" fill="#4c78a8" rx="3"/>
<text x="365.89" y="78" class="value">64.06</text>
<text x="10" y="110" class="label">eaassets-a.akamaihd.net</text>
<rect x="180" y="94" width="203.64" height="22" fill="#4c78a8" rx="3"/>
<text x="391.64" y="110" class="value">73.33</text>
<text x="10" y="142" class="label">blizzard.com</text>
<rect x="180" y="126" width="244.85" height="22" fill="#4c78a8" rx="3"/>
<text x="432.85" y="142" class="value">88.17</text>
<text x="10" y="174" class="label">ubi.com</text>
<rect x="180" y="158" width="293.94" height="22" fill="#4c78a8" rx="3"/>
<text x="481.94" y="174" class="value">105.85</text>
<text x="10" y="206" class="label">ubisoft.com</text>
<rect x="180" y="190" width="298.0" height="22" fill="#4c78a8" rx="3"/>
<text x="486.0" y="206" class="value">107.31</text>
<text x="10" y="238" class="label">battle.net</text>
<rect x="180" y="222" width="329.79" height="22" fill="#4c78a8" rx="3"/>
<text x="517.79" y="238" class="value">118.76</text>
<text x="10" y="270" class="label">ea.com</text>
<rect x="180" y="254" width="380.47" height="22" fill="#4c78a8" rx="3"/>
<text x="568.47" y="270" class="value">137.01</text>
<text x="10" y="302" class="label">epicgames.com</text>
<rect x="180" y="286" width="455.17" height="22" fill="#4c78a8" rx="3"/>
<text x="643.1700000000001" y="302" class="value">163.91</text>
<text x="10" y="334" class="label">static3.cdn.ubi.com</text>
<rect x="180" y="318" width="478.03" height="22" fill="#4c78a8" rx="3"/>
<text x="666.03" y="334" class="value">172.14</text>
<text x="10" y="366" class="label">steamcdn-a.akamaihd.net</text>
<rect x="180" y="350" width="494.52" height="22" fill="#4c78a8" rx="3"/>
<text x="682.52" y="366" class="value">178.08</text>
<text x="10" y="398" class="label">origin.com</text>
<rect x="180" y="382" width="537.76" height="22" fill="#4c78a8" rx="3"/>
<text x="725.76" y="398" class="value">193.65</text>
<text x="10" y="430" class="label">community.akamai.steamstatic.com</text>
<rect x="180" y="414" width="540.96" height="22" fill="#4c78a8" rx="3"/>
<text x="728.96" y="430" class="value">194.80</text>
<text x="10" y="462" class="label">cdn.akamai.steamstatic.com</text>
<rect x="180" y="446" width="572.22" height="22" fill="#4c78a8" rx="3"/>
<text x="760.22" y="462" class="value">206.06</text>
<text x="10" y="494" class="label">fortnite.com</text>
<rect x="180" y="478" width="580.0" height="22" fill="#4c78a8" rx="3"/>
<text x="768.0" y="494" class="value">208.86</text>
<line x1="180" y1="30" x2="180" y2="520" stroke="#ccc"/>
<line x1="180" y1="520" x2="760" y2="520" stroke="#ccc"/>
</svg>