<svg xmlns="http://www.w3.org/2000/svg" width="800" height="540">
<style> .label{font-family:DejaVu Sans,Verdana,Geneva,sans-serif;font-size:12px;fill:#333} .value{font-family:DejaVu Sans,Verdana,Geneva,sans-serif;font-size:12px;fill:#555} </style>
<text x="10" y="20" class="label">延迟柱状图（越低越好，Top 15），单位 ms</text>
<text x="10" y="46" class="label">steamcdn-a.akamaihd.net</text>
<rect x="180" y="30" width="328.04" height="22" fill="#4c78a8" rx="3"/>
<text x="516.04" y="46" class="value">112.67</text>
<text x="10" y="78" class="label">rockstargames.com</text>
<rect x="180" y="62" width="401.0" height="22" fill="#4c78a8" rx="3"/>
<text x="589.0" y="78" class="value">137.73</text>
<text x="10" y="110" class="label">eaassets-a.akamaihd.net</text>
<rect x="180" y="94" width="419.55" height="22" fill="#4c78a8" rx="3"/>
<text x="607.55" y="110" class="value">144.10</text>
<text x="10" y="142" class="label">cdn.akamai.steamstatic.com</text>
<rect x="180" y="126" width="454.57" height="22" fill="#4c78a8" rx="3"/>
<text x="642.5699999999999" y="142" class="value">156.13</text>
<text x="10" y="174" class="label">easyanticheat.net</text>
<rect x="180" y="158" width="455.48" height="22" fill="#4c78a8" rx="3"/>
<text x="643.48" y="174" class="value">156.44</text>
<text x="10" y="206" class="label">blizzard.com</text>
<rect x="180" y="190" width="467.67" height="22" fill="#4c78a8" rx="3"/>
<text x="655.6700000000001" y="206" class="value">160.63</text>
<text x="10" y="238" class="label">store.akamai.steamstatic.com</text>
<rect x="180" y="222" width="474.46" height="22" fill="#4c78a8" rx="3"/>
<text x="662.46" y="238" class="value">162.96</text>
<text x="10" y="270" class="label">fortnite.com</text>
<rect x="180" y="254" width="484.12" height="22" fill="#4c78a8" rx="3"/>
<text x="672.12" y="270" class="value">166.28</text>
<text x="10" y="302" class="label">epicgames.com</text>
<rect x="180" y="286" width="487.39" height="22" fill="#4c78a8" rx="3"/>
<text x="675.39" y="302" class="value">167.40</text>
<text x="10" y="334" class="label">origin.com</text>
<rect x="180" y="318" width="506.31" height="22" fill="#4c78a8" rx="3"/>
<text x="694.31" y="334" class="value">173.90</text>
<text x="10" y="366" class="label">battle.net</text>
<rect x="180" y="350" width="516.94" height="22" fill="#4c78a8" rx="3"/>
<text x="704.94" y="366" class="value">177.55</text>
<text x="10" y="398" class="label">api.steampowered.com</text>
<rect x="180" y="382" width="525.15" height="22" fill="#4c78a8" rx="3"/>
<text x="713.15" y="398" class="value">180.37</text>
<text x="10" y="430" class="label">ubi.com</text>
<rect x="180" y="414" width="539.7" height="22" fill="#4c78a8" rx="3"/>
<text x="727.7" y="430" class="value">185.37</text>
<text x="10" y="462" class="label">socialclub.rockstargames.com</text>
<rect x="180" y="446" width="539.73" height="22" fill="#4c78a8" rx="3"/>
<text x="727.73" y="462" class="value">185.38</text>
<text x="10" y="494" class="label">unrealengine.com</text>
<rect x="180" y="478" width="580.0" height="22" fill="#4c78a8" rx="3"/>
<text x="768.0" y="494" class="value">199.21</text>
<line x1="180" y1="30" x2="180" y2="520" stroke="#ccc"/>
<line x1="180" y1="520" x2="760" y2="520" stroke="#ccc"/>
</svg>