<svg xmlns="http://www.w3.org/2000/svg" width="800" height="540">
<style> .label{font-family:DejaVu Sans,Verdana,Geneva,sans-serif;font-size:12px;fill:#333} .value{font-family:DejaVu Sans,Verdana,Geneva,sans-serif;font-size:12px;fill:#555} </style>
<text x="10" y="20" class="label">延迟柱状图（越低越好，Top 15），单位 ms</text>
<text x="10" y="46" class="label">rockstargames.com</text>
<rect x="180" y="30" width="70.05" height="22" fill="#4c78a8" rx="3"/>
<text x="258.05" y="46" class="value">32.96</text>
<text x="10" y="78" class="label">eaassets-a.akamaihd.net</text>
<rect x="180" y="62" width="171.13" height="22" fill="#4c78a8" rx="3"/>
<text x="359.13" y="78" class="value">80.52</text>
<text x="10" y="110" class="label">ea.com</text>
<rect x="180" y="94" width="185.09" height="22" fill="#4c78a8" rx="3"/>
<text x="373.09000000000003" y="110" class="value">87.09</text>
<text x="10" y="142" class="label">store.akamai.steamstatic.com</text>
<rect x="180" y="126" width="212.19" height="22" fill="#4c78a8" rx="3"/>
<text x="400.19" y="142" class="value">99.84</text>
<text x="10" y="174" class="label">ubisoft.com</text>
<rect x="180" y="158" width="252.42" height="22" fill="#4c78a8" rx="3"/>
<text x="440.41999999999996" y="174" class="value">118.77</text>
<text x="10" y="206" class="label">cdn.akamai.steamstatic.com</text>
<rect x="180" y="190" width="292.44" height="22" fill="#4c78a8" rx="3"/>
<text x="480.44" y="206" class="value">137.60</text>
<text x="10" y="238" class="label">steamcdn-a.akamaihd.net</text>
<rect x="180" y="222" width="380.5" height="22" fill="#4c78a8" rx="3"/>
<text x="568.5" y="238" class="value">179.03</text>
<text x="10" y="270" class="label">origin.com</text>
<rect x="180" y="254" width="402.45" height="22" fill="#4c78a8" rx="3"/>
<text x="590.45" y="270" class="value">189.36</text>
<text x="10" y="302" class="label">cdn.cloudflare.steamstatic.com</text>
<rect x="180" y="286" width="407.21" height="22" fill="#4c78a8" rx="3"/>
<text x="595.21" y="302" class="value">191.60</text>
<text x="10" y="334" class="label">easyanticheat.net</text>
<rect x="180" y="318" width="413.31" height="22" fill="#4c78a8" rx="3"/>
<text x="601.31" y="334" class="value">194.47</text>
<text x="10" y="366" class="label">community.akamai.steamstatic.com</text>
<rect x="180" y="350" width="443.45" height="22" fill="#4c78a8" rx="3"/>
<text x="631.45" y="366" class="value">208.65</text>
<text x="10" y="398" class="label">www.steamcommunity.com</text>
<rect x="180" y="382" width="495.67" height="22" fill="#4c78a8" rx="3"/>
<text x="683.6700000000001" y="398" class="value">233.22</text>
<text x="10" y="430" class="label">api.steampowered.com</text>
<rect x="180" y="414" width="499.26" height="22" fill="#4c78a8" rx="3"/>
<text x="687.26" y="430" class="value">234.91</text>
<text x="10" y="462" class="label">gog.com</text>
<rect x="180" y="446" width="502.06" height="22" fill="#4c78a8" rx="3"/>
<text x="690.06" y="462" class="value">236.23</text>
<text x="10" y="494" class="label">steam-chat.com</text>
<rect x="180" y="478" width="580.0" height="22" fill="#4c78a8" rx="3"/>
<text x="768.0" y="494" class="value">272.90</text>
<line x1="180" y1="30" x2="180" y2="520" stroke="#ccc"/>
<line x1="180" y1="520" x2="760" y2="520" stroke="#ccc"/>
</svg>