<svg xmlns="http://www.w3.org/2000/svg" width="800" height="540">
<style> .label{font-family:DejaVu Sans,Verdana,Geneva,sans-serif;font-size:12px;fill:#333} .value{font-family:DejaVu Sans,Verdana,Geneva,sans-serif;font-size:12px;fill:#555} </style>
<text x="10" y="20" class="label">延迟柱状图（越低越好，Top 15），单位 ms</text>
<text x="10" y="46" class="label">rockstargames.com</text>
<rect x="180" y="30" width="223.58" height="22" fill="#4c78a8" rx="3"/>
<text x="411.58000000000004" y="46" class="value">76.30</text>
<text x="10" y="78" class="label">socialclub.rockstargames.com</text>
<rect x="180" y="62" width="252.92" height="22" fill="#4c78a8" rx="3"/>
<text x="440.91999999999996" y="78" class="value">86.31</text>
<text x="10" y="110" class="label">ubi.com</text>
<rect x="180" y="94" width="278.35" height="22" fill="#4c78a8" rx="3"/>
<text x="466.35" y="110" class="value">94.99</text>
<text x="10" y="142" class="label">ubisoft.com</text>
<rect x="180" y="126" width="302.12" height="22" fill="#4c78a8" rx="3"/>
<text x="490.12" y="142" class="value">103.10</text>
<text x="10" y="174" class="label">battle.net</text>
<rect x="180" y="158" width="307.92" height="22" fill="#4c78a8" rx="3"/>
<text x="495.92" y="174" class="value">105.08</text>
<text x="10" y="206" class="label">store.akamai.steamstatic.com</text>
<rect x="180" y="190" width="333.27" height="22" fill="#4c78a8" rx="3"/>
<text x="521.27" y="206" class="value">113.73</text>
<text x="10" y="238" class="label">blizzard.com</text>
<rect x="180" y="222" width="382.2" height="22" fill="#4c78a8" rx="3"/>
<text x="570.2" y="238" class="value">130.43</text>
<text x="10" y="270" class="label">static3.cdn.ubi.com</text>
<rect x="180" y="254" width="393.46" height="22" fill="#4c78a8" rx="3"/>
<text x="581.46" y="270" class="value">134.27</text>
<text x="10" y="302" class="label">steamcdn-a.akamaihd.net</text>
<rect x="180" y="286" width="410.95" height="22" fill="#4c78a8" rx="3"/>
<text x="598.95" y="302" class="value">140.24</text>
<text x="10" y="334" class="label">unrealengine.com</text>
<rect x="180" y="318" width="412.91" height="22" fill="#4c78a8" rx="3"/>
<text x="600.9100000000001" y="334" class="value">140.91</text>
<text x="10" y="366" class="label">epicgames.com</text>
<rect x="180" y="350" width="434.39" height="22" fill="#4c78a8" rx="3"/>
<text x="622.39" y="366" class="value">148.24</text>
<text x="10" y="398" class="label">cdn.akamai.steamstatic.com</text>
<rect x="180" y="382" width="439.93" height="22" fill="#4c78a8" rx="3"/>
<text x="627.9300000000001" y="398" class="value">150.13</text>
<text x="10" y="430" class="label">fortnite.com</text>
<rect x="180" y="414" width="462.29" height="22" fill="#4c78a8" rx="3"/>
<text x="650.29" y="430" class="value">157.76</text>
<text x="10" y="462" class="label">ea.com</text>
<rect x="180" y="446" width="484.44" height="22" fill="#4c78a8" rx="3"/>
<text x="672.44" y="462" class="value">165.32</text>
<text x="10" y="494" class="label">steam-chat.com</text>
<rect x="180" y="478" width="580.0" height="22" fill="#4c78a8" rx="3"/>
<text x="768.0" y="494" class="value">197.93</text>
<line x1="180" y1="30" x2="180" y2="520" stroke="#ccc"/>
<line x1="180" y1="520" x2="760" y2="520" stroke="#ccc"/>
</svg>