<svg xmlns="http://www.w3.org/2000/svg" width="800" height="540">
<style> .label{font-family:DejaVu Sans,Verdana,Geneva,sans-serif;font-size:12px;fill:#333} .value{font-family:DejaVu Sans,Verdana,Geneva,sans-serif;font-size:12px;fill:#555} </style>
<text x="10" y="20" class="label">延迟柱状图（越低越好，Top 15），单位 ms</text>
<text x="10" y="46" class="label">ea.com</text>
<rect x="180" y="30" width="307.5" height="22" fill="#4c78a8" rx="3"/>
<text x="495.5" y="46" class="value">109.37</text>
<text x="10" y="78" class="label">rockstargames.com</text>
<rect x="180" y="62" width="333.03" height="22" fill="#4c78a8" rx="3"/>
<text x="521.03" y="78" class="value">118.45</text>
<text x="10" y="110" class="label">easyanticheat.net</text>
<rect x="180" y="94" width="394.94" height="22" fill="#4c78a8" rx="3"/>
<text x="582.94" y="110" class="value">140.47</text>
<text x="10" y="142" class="label">steamcdn-a.akamaihd.net</text>
<rect x="180" y="126" width="405.4" height="22" fill="#4c78a8" rx="3"/>
<text x="593.4" y="142" class="value">144.19</text>
<text x="10" y="174" class="label">cdn.cloudflare.steamstatic.com</text>
<rect x="180" y="158" width="447.6" height="22" fill="#4c78a8" rx="3"/>
<text x="635.6" y="174" class="value">159.20</text>
<text x="10" y="206" class="label">community.akamai.steamstatic.com</text>
<rect x="180" y="190" width="459.83" height="22" fill="#4c78a8" rx="3"/>
<text x="647.8299999999999" y="206" class="value">163.55</text>
<text x="10" y="238" class="label">eaassets-a.akamaihd.net</text>
<rect x="180" y="222" width="461.91" height="22" fill="#4c78a8" rx="3"/>
<text x="649.9100000000001" y="238" class="value">164.29</text>
<text x="10" y="270" class="label">battle.net</text>
<rect x="180" y="254" width="467.87" height="22" fill="#4c78a8" rx="3"/>
<text x="655.87" y="270" class="value">166.41</text>
<text x="10" y="302" class="label">ubisoft.com</text>
<rect x="180" y="286" width="492.7" height="22" fill="#4c78a8" rx="3"/>
<text x="680.7" y="302" class="value">175.24</text>
<text x="10" y="334" class="label">cdn.akamai.steamstatic.com</text>
<rect x="180" y="318" width="501.08" height="22" fill="#4c78a8" rx="3"/>
<text x="689.0799999999999" y="334" class="value">178.22</text>
<text x="10" y="366" class="label">ubi.com</text>
<rect x="180" y="350" width="502.06" height="22" fill="#4c78a8" rx="3"/>
<text x="690.06" y="366" class="value">178.57</text>
<text x="10" y="398" class="label">socialclub.rockstargames.com</text>
<rect x="180" y="382" width="527.7" height="22" fill="#4c78a8" rx="3"/>
<text x="715.7" y="398" class="value">187.69</text>
<text x="10" y="430" class="label">blizzard.com</text>
<rect x="180" y="414" width="548.99" height="22" fill="#4c78a8" rx="3"/>
<text x="736.99" y="430" class="value">195.26</text>
<text x="10" y="462" class="label">origin.com</text>
<rect x="180" y="446" width="579.97" height="22" fill="#4c78a8" rx="3"/>
<text x="767.97" y="462" class="value">206.28</text>
<text x="10" y="494" class="label">fortnite.com</text>
<rect x="180" y="478" width="580.0" height="22" fill="#4c78a8" rx="3"/>
<text x="768.0" y="494" class="value">206.29</text>
<line x1="180" y1="30" x2="180" y2="520" stroke="#ccc"/>
<line x1="180" y1="520" x2="760" y2="520" stroke="#ccc"/>
</svg>