<svg xmlns="http://www.w3.org/2000/svg" width="800" height="540">
<style> .label{font-family:DejaVu Sans,Verdana,Geneva,sans-serif;font-size:12px;fill:#333} .value{font-family:DejaVu Sans,Verdana,Geneva,sans-serif;font-size:12px;fill:#555} </style>
<text x="10" y="20" class="label">延迟柱状图（越低越好，Top 15），单位 ms</text>
<text x="10" y="46" class="label">eaassets-a.akamaihd.net</text>
<rect x="180" y="30" width="217.1" height="22" fill="#4c78a8" rx="3"/>
<text x="405.1" y="46" class="value">72.23</text>
<text x="10" y="78" class="label">socialclub.rockstargames.com</text>
<rect x="180" y="62" width="218.63" height="22" fill="#4c78a8" rx="3"/>
<text x="406.63" y="78" class="value">72.74</text>
<text x="10" y="110" class="label">blizzard.com</text>
<rect x="180" y="94" width="318.69" height="22" fill="#4c78a8" rx="3"/>
<text x="506.69" y="110" class="value">106.03</text>
<text x="10" y="142" class="label">ea.com</text>
<rect x="180" y="126" width="333.51" height="22" fill="#4c78a8" rx="3"/>
<text x="521.51" y="142" class="value">110.96</text>
<text x="10" y="174" class="label">ubi.com</text>
<rect x="180" y="158" width="339.52" height="22" fill="#4c78a8" rx="3"/>
<text x="527.52" y="174" class="value">112.96</text>
<text x="10" y="206" class="label">rockstargames.com</text>
<rect x="180" y="190" width="344.87" height="22" fill="#4c78a8" rx="3"/>
<text x="532.87" y="206" class="value">114.74</text>
<text x="10" y="238" class="label">unrealengine.com</text>
<rect x="180" y="222" width="366.9" height="22" fill="#4c78a8" rx="3"/>
<text x="554.9" y="238" class="value">122.07</text>
<text x="10" y="270" class="label">battle.net</text>
<rect x="180" y="254" width="388.6" height="22" fill="#4c78a8" rx="3"/>
<text x="576.6" y="270" class="value">129.29</text>
<text x="10" y="302" class="label">ubisoft.com</text>
<rect x="180" y="286" width="420.4" height="22" fill="#4c78a8" rx="3"/>
<text x="608.4" y="302" class="value">139.87</text>
<text x="10" y="334" class="label">origin.com</text>
<rect x="180" y="318" width="435.28" height="22" fill="#4c78a8" rx="3"/>
<text x="623.28" y="334" class="value">144.82</text>
<text x="10" y="366" class="label">epicgames.com</text>
<rect x="180" y="350" width="461.88" height="22" fill="#4c78a8" rx="3"/>
<text x="649.88" y="366" class="value">153.67</text>
<text x="10" y="398" class="label">static3.cdn.ubi.com</text>
<rect x="180" y="382" width="524.61" height="22" fill="#4c78a8" rx="3"/>
<text x="712.61" y="398" class="value">174.54</text>
<text x="10" y="430" class="label">store.akamai.steamstatic.com</text>
<rect x="180" y="414" width="546.34" height="22" fill="#4c78a8" rx="3"/>
<text x="734.34" y="430" class="value">181.77</text>
<text x="10" y="462" class="label">fortnite.com</text>
<rect x="180" y="446" width="548.26" height="22" fill="#4c78a8" rx="3"/>
<text x="736.26" y="462" class="value">182.41</text>
<text x="10" y="494" class="label">steamcdn-a.akamaihd.net</text>
<rect x="180" y="478" width="580.0" height="22" fill="#4c78a8" rx="3"/>
<text x="768.0" y="494" class="value">192.97</text>
<line x1="180" y1="30" x2="180" y2="520" stroke="#ccc"/>
<line x1="180" y1="520" x2="760" y2="520" stroke="#ccc"/>
</svg>