<svg xmlns="http://www.w3.org/2000/svg" width="800" height="540">
<style> .label{font-family:DejaVu Sans,Verdana,Geneva,sans-serif;font-size:12px;fill:#333} .value{font-family:DejaVu Sans,Verdana,Geneva,sans-serif;font-size:12px;fill:#555} </style>
<text x="10" y="20" class="label">延迟柱状图（越低越好，Top 15），单位 ms</text>
<text x="10" y="46" class="label">rockstargames.com</text>
<rect x="180" y="30" width="66.64" height="22" fill="#4c78a8" rx="3"/>
<text x="254.64" y="46" class="value">32.01</text>
<text x="10" y="78" class="label">eaassets-a.akamaihd.net</text>
<rect x="180" y="62" width="165.19" height="22" fill="#4c78a8" rx="3"/>
<text x="353.19" y="78" class="value">79.35</text>
<text x="10" y="110" class="label">ea.com</text>
<rect x="180" y="94" width="248.7" height="22" fill="#4c78a8" rx="3"/>
<text x="436.7" y="110" class="value">119.46</text>
<text x="10" y="142" class="label">steamcdn-a.akamaihd.net</text>
<rect x="180" y="126" width="306.01" height="22" fill="#4c78a8" rx="3"/>
<text x="494.01" y="142" class="value">146.99</text>
<text x="10" y="174" class="label">store.akamai.steamstatic.com</text>
<rect x="180" y="158" width="309.67" height="22" fill="#4c78a8" rx="3"/>
<text x="497.67" y="174" class="value">148.75</text>
<text x="10" y="206" class="label">cdn.akamai.steamstatic.com</text>
<rect x="180" y="190" width="329.78" height="22" fill="#4c78a8" rx="3"/>
<text x="517.78" y="206" class="value">158.41</text>
<text x="10" y="238" class="label">easyanticheat.net</text>
<rect x="180" y="222" width="382.02" height="22" fill="#4c78a8" rx="3"/>
<text x="570.02" y="238" class="value">183.50</text>
<text x="10" y="270" class="label">cdn.cloudflare.steamstatic.com</text>
<rect x="180" y="254" width="392.03" height="22" fill="#4c78a8" rx="3"/>
<text x="580.03" y="270" class="value">188.31</text>
<text x="10" y="302" class="label">origin.com</text>
<rect x="180" y="286" width="392.36" height="22" fill="#4c78a8" rx="3"/>
<text x="580.36" y="302" class="value">188.47</text>
<text x="10" y="334" class="label">www.steamcommunity.com</text>
<rect x="180" y="318" width="393.43" height="22" fill="#4c78a8" rx="3"/>
<text x="581.4300000000001" y="334" class="value">188.98</text>
<text x="10" y="366" class="label">api.steampowered.com</text>
<rect x="180" y="350" width="445.64" height="22" fill="#4c78a8" rx="3"/>
<text x="633.64" y="366" class="value">214.06</text>
<text x="10" y="398" class="label">steam-chat.com</text>
<rect x="180" y="382" width="480.76" height="22" fill="#4c78a8" rx="3"/>
<text x="668.76" y="398" class="value">230.93</text>
<text x="10" y="430" class="label">launcher-public-service-prod06.ol.epicgames.com</text>
<rect x="180" y="414" width="488.13" height="22" fill="#4c78a8" rx="3"/>
<text x="676.13" y="430" class="value">234.47</text>
<text x="10" y="462" class="label">ubisoft.com</text>
<rect x="180" y="446" width="530.7" height="22" fill="#4c78a8" rx="3"/>
<text x="718.7" y="462" class="value">254.92</text>
<text x="10" y="494" class="label">steamcommunity.com</text>
<rect x="180" y="478" width="580.0" height="22" fill="#4c78a8" rx="3"/>
<text x="768.0" y="494" class="value">278.60</text>
<line x1="180" y1="30" x2="180" y2="520" stroke="#ccc"/>
<line x1="180" y1="520" x2="760" y2="520" stroke="#ccc"/>
</svg>