<svg xmlns="http://www.w3.org/2000/svg" width="800" height="540">
<style> .label{font-family:DejaVu Sans,Verdana,Geneva,sans-serif;font-size:12px;fill:#333} .value{font-family:DejaVu Sans,Verdana,Geneva,sans-serif;font-size:12px;fill:#555} </style>
<text x="10" y="20" class="label">延迟柱状图（越低越好，Top 15），单位 ms</text>
<text x="10" y="46" class="label">ubisoft.com</text>
<rect x="180" y="30" width="282.99" height="22" fill="#4c78a8" rx="3"/>
<text x="470.99" y="46" class="value">131.05</text>
<text x="10" y="78" class="label">eaassets-a.akamaihd.net</text>
<rect x="180" y="62" width="299.19" height="22" fill="#4c78a8" rx="3"/>
<text x="487.19" y="78" class="value">138.55</text>
<text x="10" y="110" class="label">cdn.akamai.steamstatic.com</text>
<rect x="180" y="94" width="302.64" height="22" fill="#4c78a8" rx="3"/>
<text x="490.64" y="110" class="value">140.15</text>
<text x="10" y="142" class="label">steamcdn-a.akamaihd.net</text>
<rect x="180" y="126" width="366.35" height="22" fill="#4c78a8" rx="3"/>
<text x="554.35" y="142" class="value">169.65</text>
<text x="10" y="174" class="label">origin.com</text>
<rect x="180" y="158" width="385.31" height="22" fill="#4c78a8" rx="3"/>
<text x="573.31" y="174" class="value">178.43</text>
<text x="10" y="206" class="label">rockstargames.com</text>
<rect x="180" y="190" width="391.4" height="22" fill="#4c78a8" rx="3"/>
<text x="579.4" y="206" class="value">181.25</text>
<text x="10" y="238" class="label">ubi.com</text>
<rect x="180" y="222" width="469.44" height="22" fill="#4c78a8" rx="3"/>
<text x="657.44" y="238" class="value">217.39</text>
<text x="10" y="270" class="label">cdn.cloudflare.steamstatic.com</text>
<rect x="180" y="254" width="480.84" height="22" fill="#4c78a8" rx="3"/>
<text x="668.8399999999999" y="270" class="value">222.67</text>
<text x="10" y="302" class="label">store.akamai.steamstatic.com</text>
<rect x="180" y="286" width="485.29" height="22" fill="#4c78a8" rx="3"/>
<text x="673.29" y="302" class="value">224.73</text>
<text x="10" y="334" class="label">static3.cdn.ubi.com</text>
<rect x="180" y="318" width="543.25" height="22" fill="#4c78a8" rx="3"/>
<text x="731.25" y="334" class="value">251.57</text>
<text x="10" y="366" class="label">ea.com</text>
<rect x="180" y="350" width="543.74" height="22" fill="#4c78a8" rx="3"/>
<text x="731.74" y="366" class="value">251.80</text>
<text x="10" y="398" class="label">easyanticheat.net</text>
<rect x="180" y="382" width="562.42" height="22" fill="#4c78a8" rx="3"/>
<text x="750.42" y="398" class="value">260.45</text>
<text x="10" y="430" class="label">community.akamai.steamstatic.com</text>
<rect x="180" y="414" width="565.88" height="22" fill="#4c78a8" rx="3"/>
<text x="753.88" y="430" class="value">262.05</text>
<text x="10" y="462" class="label">www.steamcommunity.com</text>
<rect x="180" y="446" width="579.31" height="22" fill="#4c78a8" rx="3"/>
<text x="767.31" y="462" class="value">268.27</text>
<text x="10" y="494" class="label">socialclub.rockstargames.com</text>
<rect x="180" y="478" width="580.0" height="22" fill="#4c78a8" rx="3"/>
<text x="768.0" y="494" class="value">268.59</text>
<line x1="180" y1="30" x2="180" y2="520" stroke="#ccc"/>
<line x1="180" y1="520" x2="760" y2="520" stroke="#ccc"/>
</svg>