<svg xmlns="http://www.w3.org/2000/svg" width="800" height="540">
<style> .label{font-family:DejaVu Sans,Verdana,Geneva,sans-serif;font-size:12px;fill:#333} .value{font-family:DejaVu Sans,Verdana,Geneva,sans-serif;font-size:12px;fill:#555} </style>
<text x="10" y="20" class="label">延迟柱状图（越低越好，Top 15），单位 ms</text>
<text x="10" y="46" class="label">rockstargames.com</text>
<rect x="180" y="30" width="99.48" height="22" fill="#4c78a8" rx="3"/>
<text x="287.48" y="46" class="value">49.47</text>
<text x="10" y="78" class="label">eaassets-a.akamaihd.net</text>
<rect x="180" y="62" width="121.98" height="22" fill="#4c78a8" rx="3"/>
<text x="309.98" y="78" class="value">60.66</text>
<text x="10" y="110" class="label">cdn.cloudflare.steamstatic.com</text>
<rect x="180" y="94" width="155.04" height="22" fill="#4c78a8" rx="3"/>
<text x="343.03999999999996" y="110" class="value">77.10</text>
<text x="10" y="142" class="label">ea.com</text>
<rect x="180" y="126" width="162.24" height="22" fill="#4c78a8" rx="3"/>
<text x="350.24" y="142" class="value">80.68</text>
<text x="10" y="174" class="label">ubisoft.com</text>
<rect x="180" y="158" width="219.95" height="22" fill="#4c78a8" rx="3"/>
<text x="407.95" y="174" class="value">109.38</text>
<text x="10" y="206" class="label">community.akamai.steamstatic.com</text>
<rect x="180" y="190" width="232.32" height="22" fill="#4c78a8" rx="3"/>
<text x="420.32" y="206" class="value">115.53</text>
<text x="10" y="238" class="label">store.akamai.steamstatic.com</text>
<rect x="180" y="222" width="239.3" height="22" fill="#4c78a8" rx="3"/>
<text x="427.3" y="238" class="value">119.00</text>
<text x="10" y="270" class="label">steamcdn-a.akamaihd.net</text>
<rect x="180" y="254" width="252.75" height="22" fill="#4c78a8" rx="3"/>
<text x="440.75" y="270" class="value">125.69</text>
<text x="10" y="302" class="label">cdn.akamai.steamstatic.com</text>
<rect x="180" y="286" width="278.11" height="22" fill="#4c78a8" rx="3"/>
<text x="466.11" y="302" class="value">138.30</text>
<text x="10" y="334" class="label">origin.com</text>
<rect x="180" y="318" width="317.3" height="22" fill="#4c78a8" rx="3"/>
<text x="505.3" y="334" class="value">157.79</text>
<text x="10" y="366" class="label">easyanticheat.net</text>
<rect x="180" y="350" width="366.0" height="22" fill="#4c78a8" rx="3"/>
<text x="554.0" y="366" class="value">182.01</text>
<text x="10" y="398" class="label">www.steamcommunity.com</text>
<rect x="180" y="382" width="392.87" height="22" fill="#4c78a8" rx="3"/>
<text x="580.87" y="398" class="value">195.37</text>
<text x="10" y="430" class="label">steam-chat.com</text>
<rect x="180" y="414" width="435.24" height="22" fill="#4c78a8" rx="3"/>
<text x="623.24" y="430" class="value">216.44</text>
<text x="10" y="462" class="label">api.steampowered.com</text>
<rect x="180" y="446" width="471.07" height="22" fill="#4c78a8" rx="3"/>
<text x="659.0699999999999" y="462" class="value">234.26</text>
<text x="10" y="494" class="label">ubi.com</text>
<rect x="180" y="478" width="580.0" height="22" fill="#4c78a8" rx="3"/>
<text x="768.0" y="494" class="value">288.43</text>
<line x1="180" y1="30" x2="180" y2="520" stroke="#ccc"/>
<line x1="180" y1="520" x2="760" y2="520" stroke="#ccc"/>
</svg>