<svg xmlns="http://www.w3.org/2000/svg" width="800" height="540">
<style> .label{font-family:DejaVu Sans,Verdana,Geneva,sans-serif;font-size:12px;fill:#333} .value{font-family:DejaVu Sans,Verdana,Geneva,sans-serif;font-size:12px;fill:#555} </style>
<text x="10" y="20" class="label">延迟柱状图（越低越好，Top 15），单位 ms</text>
<text x="10" y="46" class="label">rockstargames.com</text>
<rect x="180" y="30" width="83.87" height="22" fill="#4c78a8" rx="3"/>
<text x="271.87" y="46" class="value">38.79</text>
<text x="10" y="78" class="label">eaassets-a.akamaihd.net</text>
<rect x="180" y="62" width="87.94" height="22" fill="#4c78a8" rx="3"/>
<text x="275.94" y="78" class="value">40.67</text>
<text x="10" y="110" class="label">ea.com</text>
<rect x="180" y="94" width="159.25" height="22" fill="#4c78a8" rx="3"/>
<text x="347.25" y="110" class="value">73.65</text>
<text x="10" y="142" class="label">cdn.akamai.steamstatic.com</text>
<rect x="180" y="126" width="299.82" height="22" fill="#4c78a8" rx="3"/>
<text x="487.82" y="142" class="value">138.66</text>
<text x="10" y="174" class="label">steamcdn-a.akamaihd.net</text>
<rect x="180" y="158" width="346.59" height="22" fill="#4c78a8" rx="3"/>
<text x="534.5899999999999" y="174" class="value">160.29</text>
<text x="10" y="206" class="label">cdn.cloudflare.steamstatic.com</text>
<rect x="180" y="190" width="360.23" height="22" fill="#4c78a8" rx="3"/>
<text x="548.23" y="206" class="value">166.60</text>
<text x="10" y="238" class="label">ubisoft.com</text>
<rect x="180" y="222" width="365.14" height="22" fill="#4c78a8" rx="3"/>
<text x="553.14" y="238" class="value">168.87</text>
<text x="10" y="270" class="label">community.akamai.steamstatic.com</text>
<rect x="180" y="254" width="367.65" height="22" fill="#4c78a8" rx="3"/>
<text x="555.65" y="270" class="value">170.03</text>
<text x="10" y="302" class="label">easyanticheat.net</text>
<rect x="180" y="286" width="426.98" height="22" fill="#4c78a8" rx="3"/>
<text x="614.98" y="302" class="value">197.47</text>
<text x="10" y="334" class="label">store.akamai.steamstatic.com</text>
<rect x="180" y="318" width="434.39" height="22" fill="#4c78a8" rx="3"/>
<text x="622.39" y="334" class="value">200.90</text>
<text x="10" y="366" class="label">origin.com</text>
<rect x="180" y="350" width="463.37" height="22" fill="#4c78a8" rx="3"/>
<text x="651.37" y="366" class="value">214.30</text>
<text x="10" y="398" class="label">steam-chat.com</text>
<rect x="180" y="382" width="500.36" height="22" fill="#4c78a8" rx="3"/>
<text x="688.36" y="398" class="value">231.41</text>
<text x="10" y="430" class="label">www.steamcommunity.com</text>
<rect x="180" y="414" width="510.18" height="22" fill="#4c78a8" rx="3"/>
<text x="698.1800000000001" y="430" class="value">235.95</text>
<text x="10" y="462" class="label">launcher-public-service-prod06.ol.epicgames.com</text>
<rect x="180" y="446" width="563.89" height="22" fill="#4c78a8" rx="3"/>
<text x="751.89" y="462" class="value">260.79</text>
<text x="10" y="494" class="label">api.steampowered.com</text>
<rect x="180" y="478" width="580.0" height="22" fill="#4c78a8" rx="3"/>
<text x="768.0" y="494" class="value">268.24</text>
<line x1="180" y1="30" x2="180" y2="520" stroke="#ccc"/>
<line x1="180" y1="520" x2="760" y2="520" stroke="#ccc"/>
</svg>