<svg xmlns="http://www.w3.org/2000/svg" width="800" height="540">
<style> .label{font-family:DejaVu Sans,Verdana,Geneva,sans-serif;font-size:12px;fill:#333} .value{font-family:DejaVu Sans,Verdana,Geneva,sans-serif;font-size:12px;fill:#555} </style>
<text x="10" y="20" class="label">延迟柱状图（越低越好，Top 15），单位 ms</text>
<text x="10" y="46" class="label">rockstargames.com</text>
<rect x="180" y="30" width="169.59" height="22" fill="#4c78a8" rx="3"/>
<text x="357.59000000000003" y="46" class="value">75.29</text>
<text x="10" y="78" class="label">ubisoft.com</text>
<rect x="180" y="62" width="235.32" height="22" fill="#4c78a8" rx="3"/>
<text x="423.32" y="78" class="value">104.47</text>
<text x="10" y="110" class="label">eaassets-a.akamaihd.net</text>
<rect x="180" y="94" width="240.88" height="22" fill="#4c78a8" rx="3"/>
<text x="428.88" y="110" class="value">106.94</text>
<text x="10" y="142" class="label">ea.com</text>
<rect x="180" y="126" width="267.73" height="22" fill="#4c78a8" rx="3"/>
<text x="455.73" y="142" class="value">118.86</text>
<text x="10" y="174" class="label">community.akamai.steamstatic.com</text>
<rect x="180" y="158" width="385.0" height="22" fill="#4c78a8" rx="3"/>
<text x="573.0" y="174" class="value">170.92</text>
<text x="10" y="206" class="label">store.akamai.steamstatic.com</text>
<rect x="180" y="190" width="394.89" height="22" fill="#4c78a8" rx="3"/>
<text x="582.89" y="206" class="value">175.31</text>
<text x="10" y="238" class="label">cdn.akamai.steamstatic.com</text>
<rect x="180" y="222" width="397.93" height="22" fill="#4c78a8" rx="3"/>
<text x="585.9300000000001" y="238" class="value">176.66</text>
<text x="10" y="270" class="label">steamcdn-a.akamaihd.net</text>
<rect x="180" y="254" width="412.57" height="22" fill="#4c78a8" rx="3"/>
<text x="600.5699999999999" y="270" class="value">183.16</text>
<text x="10" y="302" class="label">origin.com</text>
<rect x="180" y="286" width="412.57" height="22" fill="#4c78a8" rx="3"/>
<text x="600.5699999999999" y="302" class="value">183.16</text>
<text x="10" y="334" class="label">cdn.cloudflare.steamstatic.com</text>
<rect x="180" y="318" width="436.0" height="22" fill="#4c78a8" rx="3"/>
<text x="624.0" y="334" class="value">193.56</text>
<text x="10" y="366" class="label">easyanticheat.net</text>
<rect x="180" y="350" width="441.99" height="22" fill="#4c78a8" rx="3"/>
<text x="629.99" y="366" class="value">196.22</text>
<text x="10" y="398" class="label">www.steamcommunity.com</text>
<rect x="180" y="382" width="521.66" height="22" fill="#4c78a8" rx="3"/>
<text x="709.66" y="398" class="value">231.59</text>
<text x="10" y="430" class="label">steam-chat.com</text>
<rect x="180" y="414" width="525.04" height="22" fill="#4c78a8" rx="3"/>
<text x="713.04" y="430" class="value">233.09</text>
<text x="10" y="462" class="label">api.steampowered.com</text>
<rect x="180" y="446" width="527.02" height="22" fill="#4c78a8" rx="3"/>
<text x="715.02" y="462" class="value">233.97</text>
<text x="10" y="494" class="label">ubi.com</text>
<rect x="180" y="478" width="580.0" height="22" fill="#4c78a8" rx="3"/>
<text x="768.0" y="494" class="value">257.49</text>
<line x1="180" y1="30" x2="180" y2="520" stroke="#ccc"/>
<line x1="180" y1="520" x2="760" y2="520" stroke="#ccc"/>
</svg>