<svg xmlns="http://www.w3.org/2000/svg" width="800" height="540">
<style> .label{font-family:DejaVu Sans,Verdana,Geneva,sans-serif;font-size:12px;fill:#333} .value{font-family:DejaVu Sans,Verdana,Geneva,sans-serif;font-size:12px;fill:#555} </style>
<text x="10" y="20" class="label">延迟柱状图（越低越好，Top 15），单位 ms</text>
<text x="10" y="46" class="label">eaassets-a.akamaihd.net</text>
<rect x="180" y="30" width="296.79" height="22" fill="#4c78a8" rx="3"/>
<text x="484.79" y="46" class="value">103.77</text>
<text x="10" y="78" class="label">easyanticheat.net</text>
<rect x="180" y="62" width="350.68" height="22" fill="#4c78a8" rx="3"/>
<text x="538.6800000000001" y="78" class="value">122.61</text>
<text x="10" y="110" class="label">steamcdn-a.akamaihd.net</text>
<rect x="180" y="94" width="352.71" height="22" fill="#4c78a8" rx="3"/>
<text x="540.71" y="110" class="value">123.32</text>
<text x="10" y="142" class="label">rockstargames.com</text>
<rect x="180" y="126" width="358.94" height="22" fill="#4c78a8" rx="3"/>
<text x="546.94" y="142" class="value">125.50</text>
<text x="10" y="174" class="label">store.akamai.steamstatic.com</text>
<rect x="180" y="158" width="410.02" height="22" fill="#4c78a8" rx="3"/>
<text x="598.02" y="174" class="value">143.36</text>
<text x="10" y="206" class="label">community.akamai.steamstatic.com</text>
<rect x="180" y="190" width="439.57" height="22" fill="#4c78a8" rx="3"/>
<text x="627.5699999999999" y="206" class="value">153.69</text>
<text x="10" y="238" class="label">battle.net</text>
<rect x="180" y="222" width="464.02" height="22" fill="#4c78a8" rx="3"/>
<text x="652.02" y="238" class="value">162.24</text>
<text x="10" y="270" class="label">ubi.com</text>
<rect x="180" y="254" width="479.44" height="22" fill="#4c78a8" rx="3"/>
<text x="667.44" y="270" class="value">167.63</text>
<text x="10" y="302" class="label">blizzard.com</text>
<rect x="180" y="286" width="491.97" height="22" fill="#4c78a8" rx="3"/>
<text x="679.97" y="302" class="value">172.01</text>
<text x="10" y="334" class="label">ea.com</text>
<rect x="180" y="318" width="504.41" height="22" fill="#4c78a8" rx="3"/>
<text x="692.4100000000001" y="334" class="value">176.36</text>
<text x="10" y="366" class="label">unrealengine.com</text>
<rect x="180" y="350" width="559.32" height="22" fill="#4c78a8" rx="3"/>
<text x="747.32" y="366" class="value">195.56</text>
<text x="10" y="398" class="label">cdn.akamai.steamstatic.com</text>
<rect x="180" y="382" width="561.32" height="22" fill="#4c78a8" rx="3"/>
<text x="749.32" y="398" class="value">196.26</text>
<text x="10" y="430" class="label">socialclub.rockstargames.com</text>
<rect x="180" y="414" width="562.84" height="22" fill="#4c78a8" rx="3"/>
<text x="750.84" y="430" class="value">196.79</text>
<text x="10" y="462" class="label">ubisoft.com</text>
<rect x="180" y="446" width="574.91" height="22" fill="#4c78a8" rx="3"/>
<text x="762.91" y="462" class="value">201.01</text>
<text x="10" y="494" class="label">epicgames.com</text>
<rect x="180" y="478" width="580.0" height="22" fill="#4c78a8" rx="3"/>
<text x="768.0" y="494" class="value">202.79</text>
<line x1="180" y1="30" x2="180" y2="520" stroke="#ccc"/>
<line x1="180" y1="520" x2="760" y2="520" stroke="#ccc"/>
</svg>