<svg xmlns="http://www.w3.org/2000/svg" width="800" height="540">
<style> .label{font-family:DejaVu Sans,Verdana,Geneva,sans-serif;font-size:12px;fill:#333} .value{font-family:DejaVu Sans,Verdana,Geneva,sans-serif;font-size:12px;fill:#555} </style>
<text x="10" y="20" class="label">延迟柱状图（越低越好，Top 15），单位 ms</text>
<text x="10" y="46" class="label">rockstargames.com</text>
<rect x="180" y="30" width="186.32" height="22" fill="#4c78a8" rx="3"/>
<text x="374.32" y="46" class="value">83.24</text>
<text x="10" y="78" class="label">cdn.akamai.steamstatic.com</text>
<rect x="180" y="62" width="265.29" height="22" fill="#4c78a8" rx="3"/>
<text x="453.29" y="78" class="value">118.52</text>
<text x="10" y="110" class="label">community.akamai.steamstatic.com</text>
<rect x="180" y="94" width="275.29" height="22" fill="#4c78a8" rx="3"/>
<text x="463.29" y="110" class="value">122.99</text>
<text x="10" y="142" class="label">eaassets-a.akamaihd.net</text>
<rect x="180" y="126" width="342.78" height="22" fill="#4c78a8" rx="3"/>
<text x="530.78" y="142" class="value">153.14</text>
<text x="10" y="174" class="label">ubisoft.com</text>
<rect x="180" y="158" width="349.9" height="22" fill="#4c78a8" rx="3"/>
<text x="537.9" y="174" class="value">156.32</text>
<text x="10" y="206" class="label">steamcdn-a.akamaihd.net</text>
<rect x="180" y="190" width="366.01" height="22" fill="#4c78a8" rx="3"/>
<text x="554.01" y="206" class="value">163.52</text>
<text x="10" y="238" class="label">origin.com</text>
<rect x="180" y="222" width="390.37" height="22" fill="#4c78a8" rx="3"/>
<text x="578.37" y="238" class="value">174.40</text>
<text x="10" y="270" class="label">cdn.cloudflare.steamstatic.com</text>
<rect x="180" y="254" width="403.64" height="22" fill="#4c78a8" rx="3"/>
<text x="591.64" y="270" class="value">180.33</text>
<text x="10" y="302" class="label">store.akamai.steamstatic.com</text>
<rect x="180" y="286" width="405.05" height="22" fill="#4c78a8" rx="3"/>
<text x="593.05" y="302" class="value">180.96</text>
<text x="10" y="334" class="label">api.steampowered.com</text>
<rect x="180" y="318" width="408.97" height="22" fill="#4c78a8" rx="3"/>
<text x="596.97" y="334" class="value">182.71</text>
<text x="10" y="366" class="label">ea.com</text>
<rect x="180" y="350" width="416.74" height="22" fill="#4c78a8" rx="3"/>
<text x="604.74" y="366" class="value">186.18</text>
<text x="10" y="398" class="label">easyanticheat.net</text>
<rect x="180" y="382" width="445.52" height="22" fill="#4c78a8" rx="3"/>
<text x="633.52" y="398" class="value">199.04</text>
<text x="10" y="430" class="label">steam-chat.com</text>
<rect x="180" y="414" width="529.93" height="22" fill="#4c78a8" rx="3"/>
<text x="717.93" y="430" class="value">236.75</text>
<text x="10" y="462" class="label">www.steamcommunity.com</text>
<rect x="180" y="446" width="556.47" height="22" fill="#4c78a8" rx="3"/>
<text x="744.47" y="462" class="value">248.61</text>
<text x="10" y="494" class="label">gog.com</text>
<rect x="180" y="478" width="580.0" height="22" fill="#4c78a8" rx="3"/>
<text x="768.0" y="494" class="value">259.12</text>
<line x1="180" y1="30" x2="180" y2="520" stroke="#ccc"/>
<line x1="180" y1="520" x2="760" y2="520" stroke="#ccc"/>
</svg>