<svg xmlns="http://www.w3.org/2000/svg" width="800" height="540">
<style> .label{font-family:DejaVu Sans,Verdana,Geneva,sans-serif;font-size:12px;fill:#333} .value{font-family:DejaVu Sans,Verdana,Geneva,sans-serif;font-size:12px;fill:#555} </style>
<text x="10" y="20" class="label">延迟柱状图（越低越好，Top 15），单位 ms</text>
<text x="10" y="46" class="label">ea.com</text>
<rect x="180" y="30" width="199.05" height="22" fill="#4c78a8" rx="3"/>
<text x="387.05" y="46" class="value">71.22</text>
<text x="10" y="78" class="label">store.akamai.steamstatic.com</text>
<rect x="180" y="62" width="251.88" height="22" fill="#4c78a8" rx="3"/>
<text x="439.88" y="78" class="value">90.12</text>
<text x="10" y="110" class="label">rockstargames.com</text>
<rect x="180" y="94" width="253.81" height="22" fill="#4c78a8" rx="3"/>
<text x="441.81" y="110" class="value">90.81</text>
<text x="10" y="142" class="label">eaassets-a.akamaihd.net</text>
<rect x="180" y="126" width="294.5" height="22" fill="#4c78a8" rx="3"/>
<text x="482.5" y="142" class="value">105.37</text>
<text x="10" y="174" class="label">origin.com</text>
<rect x="180" y="158" width="302.52" height="22" fill="#4c78a8" rx="3"/>
<text x="490.52" y="174" class="value">108.24</text>
<text x="10" y="206" class="label">steamcdn-a.akamaihd.net</text>
<rect x="180" y="190" width="315.77" height="22" fill="#4c78a8" rx="3"/>
<text x="503.77" y="206" class="value">112.98</text>
<text x="10" y="238" class="label">blizzard.com</text>
<rect x="180" y="222" width="350.09" height="22" fill="#4c78a8" rx="3"/>
<text x="538.0899999999999" y="238" class="value">125.26</text>
<text x="10" y="270" class="label">socialclub.rockstargames.com</text>
<rect x="180" y="254" width="381.76" height="22" fill="#4c78a8" rx="3"/>
<text x="569.76" y="270" class="value">136.59</text>
<text x="10" y="302" class="label">battle.net</text>
<rect x="180" y="286" width="385.95" height="22" fill="#4c78a8" rx="3"/>
<text x="573.95" y="302" class="value">138.09</text>
<text x="10" y="334" class="label">ubi.com</text>
<rect x="180" y="318" width="446.04" height="22" fill="#4c78a8" rx="3"/>
<text x="634.04" y="334" class="value">159.59</text>
<text x="10" y="366" class="label">ubisoft.com</text>
<rect x="180" y="350" width="467.67" height="22" fill="#4c78a8" rx="3"/>
<text x="655.6700000000001" y="366" class="value">167.33</text>
<text x="10" y="398" class="label">easyanticheat.net</text>
<rect x="180" y="382" width="544.7" height="22" fill="#4c78a8" rx="3"/>
<text x="732.7" y="398" class="value">194.89</text>
<text x="10" y="430" class="label">gog.com</text>
<rect x="180" y="414" width="558.79" height="22" fill="#4c78a8" rx="3"/>
<text x="746.79" y="430" class="value">199.93</text>
<text x="10" y="462" class="label">cdn.akamai.steamstatic.com</text>
<rect x="180" y="446" width="573.82" height="22" fill="#4c78a8" rx="3"/>
<text x="761.82" y="462" class="value">205.31</text>
<text x="10" y="494" class="label">api.steampowered.com</text>
<rect x="180" y="478" width="580.0" height="22" fill="#4c78a8" rx="3"/>
<text x="768.0" y="494" class="value">207.52</text>
<line x1="180" y1="30" x2="180" y2="520" stroke="#ccc"/>
<line x1="180" y1="520" x2="760" y2="520" stroke="#ccc"/>
</svg>