<svg xmlns="http://www.w3.org/2000/svg" width="800" height="540">
<style> .label{font-family:DejaVu Sans,Verdana,Geneva,sans-serif;font-size:12px;fill:#333} .value{font-family:DejaVu Sans,Verdana,Geneva,sans-serif;font-size:12px;fill:#555} </style>
<text x="10" y="20" class="label">延迟柱状图（越低越好，Top 15），单位 ms</text>
<text x="10" y="46" class="label">cdn.akamai.steamstatic.com</text>
<rect x="180" y="30" width="277.12" height="22" fill="#4c78a8" rx="3"/>
<text x="465.12" y="46" class="value">99.80</text>
<text x="10" y="78" class="label">community.akamai.steamstatic.com</text>
<rect x="180" y="62" width="320.43" height="22" fill="#4c78a8" rx="3"/>
<text x="508.43" y="78" class="value">115.40</text>
<text x="10" y="110" class="label">eaassets-a.akamaihd.net</text>
<rect x="180" y="94" width="326.79" height="22" fill="#4c78a8" rx="3"/>
<text x="514.79" y="110" class="value">117.69</text>
<text x="10" y="142" class="label">socialclub.rockstargames.com</text>
<rect x="180" y="126" width="382.77" height="22" fill="#4c78a8" rx="3"/>
<text x="570.77" y="142" class="value">137.85</text>
<text x="10" y="174" class="label">steamcdn-a.akamaihd.net</text>
<rect x="180" y="158" width="402.43" height="22" fill="#4c78a8" rx="3"/>
<text x="590.4300000000001" y="174" class="value">144.93</text>
<text x="10" y="206" class="label">blizzard.com</text>
<rect x="180" y="190" width="415.9" height="22" fill="#4c78a8" rx="3"/>
<text x="603.9" y="206" class="value">149.78</text>
<text x="10" y="238" class="label">ubisoft.com</text>
<rect x="180" y="222" width="416.28" height="22" fill="#4c78a8" rx="3"/>
<text x="604.28" y="238" class="value">149.92</text>
<text x="10" y="270" class="label">ea.com</text>
<rect x="180" y="254" width="429.72" height="22" fill="#4c78a8" rx="3"/>
<text x="617.72" y="270" class="value">154.76</text>
<text x="10" y="302" class="label">battle.net</text>
<rect x="180" y="286" width="447.05" height="22" fill="#4c78a8" rx="3"/>
<text x="635.05" y="302" class="value">161.00</text>
<text x="10" y="334" class="label">rockstargames.com</text>
<rect x="180" y="318" width="460.38" height="22" fill="#4c78a8" rx="3"/>
<text x="648.38" y="334" class="value">165.80</text>
<text x="10" y="366" class="label">store.akamai.steamstatic.com</text>
<rect x="180" y="350" width="465.57" height="22" fill="#4c78a8" rx="3"/>
<text x="653.5699999999999" y="366" class="value">167.67</text>
<text x="10" y="398" class="label">static3.cdn.ubi.com</text>
<rect x="180" y="382" width="497.36" height="22" fill="#4c78a8" rx="3"/>
<text x="685.36" y="398" class="value">179.12</text>
<text x="10" y="430" class="label">origin.com</text>
<rect x="180" y="414" width="530.13" height="22" fill="#4c78a8" rx="3"/>
<text x="718.13" y="430" class="value">190.92</text>
<text x="10" y="462" class="label">ubi.com</text>
<rect x="180" y="446" width="545.65" height="22" fill="#4c78a8" rx="3"/>
<text x="733.65" y="462" class="value">196.51</text>
<text x="10" y="494" class="label">easyanticheat.net</text>
<rect x="180" y="478" width="580.0" height="22" fill="#4c78a8" rx="3"/>
<text x="768.0" y="494" class="value">208.88</text>
<line x1="180" y1="30" x2="180" y2="520" stroke="#ccc"/>
<line x1="180" y1="520" x2="760" y2="520" stroke="#ccc"/>
</svg>