<svg xmlns="http://www.w3.org/2000/svg" width="800" height="540">
<style> .label{font-family:DejaVu Sans,Verdana,Geneva,sans-serif;font-size:12px;fill:#333} .value{font-family:DejaVu Sans,Verdana,Geneva,sans-serif;font-size:12px;fill:#555} </style>
<text x="10" y="20" class="label">延迟柱状图（越低越好，Top 15），单位 ms</text>
<text x="10" y="46" class="label">rockstargames.com</text>
<rect x="180" y="30" width="92.61" height="22" fill="#4c78a8" rx="3"/>
<text x="280.61" y="46" class="value">34.82</text>
<text x="10" y="78" class="label">eaassets-a.akamaihd.net</text>
<rect x="180" y="62" width="192.17" height="22" fill="#4c78a8" rx="3"/>
<text x="380.16999999999996" y="78" class="value">72.25</text>
<text x="10" y="110" class="label">ubisoft.com</text>
<rect x="180" y="94" width="220.69" height="22" fill="#4c78a8" rx="3"/>
<text x="408.69" y="110" class="value">82.97</text>
<text x="10" y="142" class="label">origin.com</text>
<rect x="180" y="126" width="271.7" height="22" fill="#4c78a8" rx="3"/>
<text x="459.7" y="142" class="value">102.15</text>
<text x="10" y="174" class="label">store.akamai.steamstatic.com</text>
<rect x="180" y="158" width="288.72" height="22" fill="#4c78a8" rx="3"/>
<text x="476.72" y="174" class="value">108.55</text>
<text x="10" y="206" class="label">cdn.akamai.steamstatic.com</text>
<rect x="180" y="190" width="351.07" height="22" fill="#4c78a8" rx="3"/>
<text x="539.0699999999999" y="206" class="value">131.99</text>
<text x="10" y="238" class="label">ea.com</text>
<rect x="180" y="222" width="367.03" height="22" fill="#4c78a8" rx="3"/>
<text x="555.03" y="238" class="value">137.99</text>
<text x="10" y="270" class="label">community.akamai.steamstatic.com</text>
<rect x="180" y="254" width="415.25" height="22" fill="#4c78a8" rx="3"/>
<text x="603.25" y="270" class="value">156.12</text>
<text x="10" y="302" class="label">steamcdn-a.akamaihd.net</text>
<rect x="180" y="286" width="427.94" height="22" fill="#4c78a8" rx="3"/>
<text x="615.94" y="302" class="value">160.89</text>
<text x="10" y="334" class="label">cdn.cloudflare.steamstatic.com</text>
<rect x="180" y="318" width="471.48" height="22" fill="#4c78a8" rx="3"/>
<text x="659.48" y="334" class="value">177.26</text>
<text x="10" y="366" class="label">www.steamcommunity.com</text>
<rect x="180" y="350" width="522.71" height="22" fill="#4c78a8" rx="3"/>
<text x="710.71" y="366" class="value">196.52</text>
<text x="10" y="398" class="label">easyanticheat.net</text>
<rect x="180" y="382" width="532.84" height="22" fill="#4c78a8" rx="3"/>
<text x="720.84" y="398" class="value">200.33</text>
<text x="10" y="430" class="label">api.steampowered.com</text>
<rect x="180" y="414" width="538.69" height="22" fill="#4c78a8" rx="3"/>
<text x="726.69" y="430" class="value">202.53</text>
<text x="10" y="462" class="label">gog.com</text>
<rect x="180" y="446" width="548.11" height="22" fill="#4c78a8" rx="3"/>
<text x="736.11" y="462" class="value">206.07</text>
<text x="10" y="494" class="label">steam-chat.com</text>
<rect x="180" y="478" width="580.0" height="22" fill="#4c78a8" rx="3"/>
<text x="768.0" y="494" class="value">218.06</text>
<line x1="180" y1="30" x2="180" y2="520" stroke="#ccc"/>
<line x1="180" y1="520" x2="760" y2="520" stroke="#ccc"/>
</svg>