<svg xmlns="http://www.w3.org/2000/svg" width="800" height="540">
<style> .label{font-family:DejaVu Sans,Verdana,Geneva,sans-serif;font-size:12px;fill:#333} .value{font-family:DejaVu Sans,Verdana,Geneva,sans-serif;font-size:12px;fill:#555} </style>
<text x="10" y="20" class="label">延迟柱状图（越低越好，Top 15），单位 ms</text>
<text x="10" y="46" class="label">rockstargames.com</text>
<rect x="180" y="30" width="134.5" height="22" fill="#4c78a8" rx="3"/>
<text x="322.5" y="46" class="value">65.04</text>
<text x="10" y="78" class="label">eaassets-a.akamaihd.net</text>
<rect x="180" y="62" width="224.48" height="22" fill="#4c78a8" rx="3"/>
<text x="412.48" y="78" class="value">108.55</text>
<text x="10" y="110" class="label">ea.com</text>
<rect x="180" y="94" width="316.93" height="22" fill="#4c78a8" rx="3"/>
<text x="504.93" y="110" class="value">153.25</text>
<text x="10" y="142" class="label">ubisoft.com</text>
<rect x="180" y="126" width="333.3" height="22" fill="#4c78a8" rx="3"/>
<text x="521.3" y="142" class="value">161.17</text>
<text x="10" y="174" class="label">cdn.akamai.steamstatic.com</text>
<rect x="180" y="158" width="338.31" height="22" fill="#4c78a8" rx="3"/>
<text x="526.31" y="174" class="value">163.59</text>
<text x="10" y="206" class="label">steamcdn-a.akamaihd.net</text>
<rect x="180" y="190" width="349.06" height="22" fill="#4c78a8" rx="3"/>
<text x="537.06" y="206" class="value">168.79</text>
<text x="10" y="238" class="label">store.akamai.steamstatic.com</text>
<rect x="180" y="222" width="352.97" height="22" fill="#4c78a8" rx="3"/>
<text x="540.97" y="238" class="value">170.68</text>
<text x="10" y="270" class="label">origin.com</text>
<rect x="180" y="254" width="363.91" height="22" fill="#4c78a8" rx="3"/>
<text x="551.9100000000001" y="270" class="value">175.97</text>
<text x="10" y="302" class="label">community.akamai.steamstatic.com</text>
<rect x="180" y="286" width="393.05" height="22" fill="#4c78a8" rx="3"/>
<text x="581.05" y="302" class="value">190.06</text>
<text x="10" y="334" class="label">cdn.cloudflare.steamstatic.com</text>
<rect x="180" y="318" width="419.17" height="22" fill="#4c78a8" rx="3"/>
<text x="607.1700000000001" y="334" class="value">202.69</text>
<text x="10" y="366" class="label">easyanticheat.net</text>
<rect x="180" y="350" width="426.2" height="22" fill="#4c78a8" rx="3"/>
<text x="614.2" y="366" class="value">206.09</text>
<text x="10" y="398" class="label">api.steampowered.com</text>
<rect x="180" y="382" width="488.82" height="22" fill="#4c78a8" rx="3"/>
<text x="676.8199999999999" y="398" class="value">236.37</text>
<text x="10" y="430" class="label">launcher-public-service-prod06.ol.epicgames.com</text>
<rect x="180" y="414" width="501.37" height="22" fill="#4c78a8" rx="3"/>
<text x="689.37" y="430" class="value">242.44</text>
<text x="10" y="462" class="label">www.steamcommunity.com</text>
<rect x="180" y="446" width="539.3" height="22" fill="#4c78a8" rx="3"/>
<text x="727.3" y="462" class="value">260.78</text>
<text x="10" y="494" class="label">battle.net</text>
<rect x="180" y="478" width="580.0" height="22" fill="#4c78a8" rx="3"/>
<text x="768.0" y="494" class="value">280.46</text>
<line x1="180" y1="30" x2="180" y2="520" stroke="#ccc"/>
<line x1="180" y1="520" x2="760" y2="520" stroke="#ccc"/>
</svg>