<svg xmlns="http://www.w3.org/2000/svg" width="800" height="540">
<style> .label{font-family:DejaVu Sans,Verdana,Geneva,sans-serif;font-size:12px;fill:#333} .value{font-family:DejaVu Sans,Verdana,Geneva,sans-serif;font-size:12px;fill:#555} </style>
<text x="10" y="20" class="label">延迟柱状图（越低越好，Top 15），单位 ms</text>
<text x="10" y="46" class="label">rockstargames.com</text>
<rect x="180" y="30" width="166.45" height="22" fill="#4c78a8" rx="3"/>
<text x="354.45" y="46" class="value">75.98</text>
<text x="10" y="78" class="label">eaassets-a.akamaihd.net</text>
<rect x="180" y="62" width="198.07" height="22" fill="#4c78a8" rx="3"/>
<text x="386.07" y="78" class="value">90.41</text>
<text x="10" y="110" class="label">steamcdn-a.akamaihd.net</text>
<rect x="180" y="94" width="220.87" height="22" fill="#4c78a8" rx="3"/>
<text x="408.87" y="110" class="value">100.82</text>
<text x="10" y="142" class="label">ea.com</text>
<rect x="180" y="126" width="291.08" height="22" fill="#4c78a8" rx="3"/>
<text x="479.08" y="142" class="value">132.87</text>
<text x="10" y="174" class="label">community.akamai.steamstatic.com</text>
<rect x="180" y="158" width="337.29" height="22" fill="#4c78a8" rx="3"/>
<text x="525.29" y="174" class="value">153.96</text>
<text x="10" y="206" class="label">easyanticheat.net</text>
<rect x="180" y="190" width="363.34" height="22" fill="#4c78a8" rx="3"/>
<text x="551.3399999999999" y="206" class="value">165.85</text>
<text x="10" y="238" class="label">store.akamai.steamstatic.com</text>
<rect x="180" y="222" width="366.29" height="22" fill="#4c78a8" rx="3"/>
<text x="554.29" y="238" class="value">167.20</text>
<text x="10" y="270" class="label">cdn.akamai.steamstatic.com</text>
<rect x="180" y="254" width="373.96" height="22" fill="#4c78a8" rx="3"/>
<text x="561.96" y="270" class="value">170.70</text>
<text x="10" y="302" class="label">cdn.cloudflare.steamstatic.com</text>
<rect x="180" y="286" width="389.78" height="22" fill="#4c78a8" rx="3"/>
<text x="577.78" y="302" class="value">177.92</text>
<text x="10" y="334" class="label">api.steampowered.com</text>
<rect x="180" y="318" width="390.79" height="22" fill="#4c78a8" rx="3"/>
<text x="578.79" y="334" class="value">178.38</text>
<text x="10" y="366" class="label">steam-chat.com</text>
<rect x="180" y="350" width="414.31" height="22" fill="#4c78a8" rx="3"/>
<text x="602.31" y="366" class="value">189.12</text>
<text x="10" y="398" class="label">origin.com</text>
<rect x="180" y="382" width="429.85" height="22" fill="#4c78a8" rx="3"/>
<text x="617.85" y="398" class="value">196.21</text>
<text x="10" y="430" class="label">steamcommunity.com</text>
<rect x="180" y="414" width="568.48" height="22" fill="#4c78a8" rx="3"/>
<text x="756.48" y="430" class="value">259.49</text>
<text x="10" y="462" class="label">www.steamcommunity.com</text>
<rect x="180" y="446" width="569.64" height="22" fill="#4c78a8" rx="3"/>
<text x="757.64" y="462" class="value">260.02</text>
<text x="10" y="494" class="label">ubi.com</text>
<rect x="180" y="478" width="580.0" height="22" fill="#4c78a8" rx="3"/>
<text x="768.0" y="494" class="value">264.75</text>
<line x1="180" y1="30" x2="180" y2="520" stroke="#ccc"/>
<line x1="180" y1="520" x2="760" y2="520" stroke="#ccc"/>
</svg>