<svg xmlns="http://www.w3.org/2000/svg" width="800" height="540">
<style> .label{font-family:DejaVu Sans,Verdana,Geneva,sans-serif;font-size:12px;fill:#333} .value{font-family:DejaVu Sans,Verdana,Geneva,sans-serif;font-size:12px;fill:#555} </style>
<text x="10" y="20" class="label">延迟柱状图（越低越好，Top 15），单位 ms</text>
<text x="10" y="46" class="label">rockstargames.com</text>
<rect x="180" y="30" width="109.16" height="22" fill="#4c78a8" rx="3"/>
<text x="297.15999999999997" y="46" class="value">44.67</text>
<text x="10" y="78" class="label">ubisoft.com</text>
<rect x="180" y="62" width="169.93" height="22" fill="#4c78a8" rx="3"/>
<text x="357.93" y="78" class="value">69.54</text>
<text x="10" y="110" class="label">eaassets-a.akamaihd.net</text>
<rect x="180" y="94" width="177.82" height="22" fill="#4c78a8" rx="3"/>
<text x="365.82" y="110" class="value">72.77</text>
<text x="10" y="142" class="label">community.akamai.steamstatic.com</text>
<rect x="180" y="126" width="237.11" height="22" fill="#4c78a8" rx="3"/>
<text x="425.11" y="142" class="value">97.03</text>
<text x="10" y="174" class="label">store.akamai.steamstatic.com</text>
<rect x="180" y="158" width="248.81" height="22" fill="#4c78a8" rx="3"/>
<text x="436.81" y="174" class="value">101.82</text>
<text x="10" y="206" class="label">cdn.cloudflare.steamstatic.com</text>
<rect x="180" y="190" width="249.15" height="22" fill="#4c78a8" rx="3"/>
<text x="437.15" y="206" class="value">101.96</text>
<text x="10" y="238" class="label">steamcdn-a.akamaihd.net</text>
<rect x="180" y="222" width="256.09" height="22" fill="#4c78a8" rx="3"/>
<text x="444.09" y="238" class="value">104.80</text>
<text x="10" y="270" class="label">origin.com</text>
<rect x="180" y="254" width="261.47" height="22" fill="#4c78a8" rx="3"/>
<text x="449.47" y="270" class="value">107.00</text>
<text x="10" y="302" class="label">ea.com</text>
<rect x="180" y="286" width="400.88" height="22" fill="#4c78a8" rx="3"/>
<text x="588.88" y="302" class="value">164.05</text>
<text x="10" y="334" class="label">easyanticheat.net</text>
<rect x="180" y="318" width="435.02" height="22" fill="#4c78a8" rx="3"/>
<text x="623.02" y="334" class="value">178.02</text>
<text x="10" y="366" class="label">api.steampowered.com</text>
<rect x="180" y="350" width="446.72" height="22" fill="#4c78a8" rx="3"/>
<text x="634.72" y="366" class="value">182.81</text>
<text x="10" y="398" class="label">cdn.akamai.steamstatic.com</text>
<rect x="180" y="382" width="458.55" height="22" fill="#4c78a8" rx="3"/>
<text x="646.55" y="398" class="value">187.65</text>
<text x="10" y="430" class="label">launcher-public-service-prod06.ol.epicgames.com</text>
<rect x="180" y="414" width="465.56" height="22" fill="#4c78a8" rx="3"/>
<text x="653.56" y="430" class="value">190.52</text>
<text x="10" y="462" class="label">gog.com</text>
<rect x="180" y="446" width="570.74" height="22" fill="#4c78a8" rx="3"/>
<text x="758.74" y="462" class="value">233.56</text>
<text x="10" y="494" class="label">steam-chat.com</text>
<rect x="180" y="478" width="580.0" height="22" fill="#4c78a8" rx="3"/>
<text x="768.0" y="494" class="value">237.35</text>
<line x1="180" y1="30" x2="180" y2="520" stroke="#ccc"/>
<line x1="180" y1="520" x2="760" y2="520" stroke="#ccc"/>
</svg>