<svg xmlns="http://www.w3.org/2000/svg" width="800" height="540">
<style> .label{font-family:DejaVu Sans,Verdana,Geneva,sans-serif;font-size:12px;fill:#333} .value{font-family:DejaVu Sans,Verdana,Geneva,sans-serif;font-size:12px;fill:#555} </style>
<text x="10" y="20" class="label">延迟柱状图（越低越好，Top 15），单位 ms</text>
<text x="10" y="46" class="label">rockstargames.com</text>
<rect x="180" y="30" width="133.57" height="22" fill="#4c78a8" rx="3"/>
<text x="321.57" y="46" class="value">78.31</text>
<text x="10" y="78" class="label">ubisoft.com</text>
<rect x="180" y="62" width="202.26" height="22" fill="#4c78a8" rx="3"/>
<text x="390.26" y="78" class="value">118.58</text>
<text x="10" y="110" class="label">eaassets-a.akamaihd.net</text>
<rect x="180" y="94" width="225.66" height="22" fill="#4c78a8" rx="3"/>
<text x="413.65999999999997" y="110" class="value">132.30</text>
<text x="10" y="142" class="label">store.akamai.steamstatic.com</text>
<rect x="180" y="126" width="266.14" height="22" fill="#4c78a8" rx="3"/>
<text x="454.14" y="142" class="value">156.03</text>
<text x="10" y="174" class="label">community.akamai.steamstatic.com</text>
<rect x="180" y="158" width="283.33" height="22" fill="#4c78a8" rx="3"/>
<text x="471.33" y="174" class="value">166.11</text>
<text x="10" y="206" class="label">steamcdn-a.akamaihd.net</text>
<rect x="180" y="190" width="293.05" height="22" fill="#4c78a8" rx="3"/>
<text x="481.05" y="206" class="value">171.81</text>
<text x="10" y="238" class="label">easyanticheat.net</text>
<rect x="180" y="222" width="310.25" height="22" fill="#4c78a8" rx="3"/>
<text x="498.25" y="238" class="value">181.89</text>
<text x="10" y="270" class="label">ea.com</text>
<rect x="180" y="254" width="317.02" height="22" fill="#4c78a8" rx="3"/>
<text x="505.02" y="270" class="value">185.86</text>
<text x="10" y="302" class="label">cdn.cloudflare.steamstatic.com</text>
<rect x="180" y="286" width="318.35" height="22" fill="#4c78a8" rx="3"/>
<text x="506.35" y="302" class="value">186.64</text>
<text x="10" y="334" class="label">origin.com</text>
<rect x="180" y="318" width="410.1" height="22" fill="#4c78a8" rx="3"/>
<text x="598.1" y="334" class="value">240.43</text>
<text x="10" y="366" class="label">cdn.akamai.steamstatic.com</text>
<rect x="180" y="350" width="433.52" height="22" fill="#4c78a8" rx="3"/>
<text x="621.52" y="366" class="value">254.16</text>
<text x="10" y="398" class="label">ubi.com</text>
<rect x="180" y="382" width="442.93" height="22" fill="#4c78a8" rx="3"/>
<text x="630.9300000000001" y="398" class="value">259.68</text>
<text x="10" y="430" class="label">www.steamcommunity.com</text>
<rect x="180" y="414" width="523.51" height="22" fill="#4c78a8" rx="3"/>
<text x="711.51" y="430" class="value">306.92</text>
<text x="10" y="462" class="label">socialclub.rockstargames.com</text>
<rect x="180" y="446" width="563.69" height="22" fill="#4c78a8" rx="3"/>
<text x="751.69" y="462" class="value">330.48</text>
<text x="10" y="494" class="label">blizzard.com</text>
<rect x="180" y="478" width="580.0" height="22" fill="#4c78a8" rx="3"/>
<text x="768.0" y="494" class="value">340.04</text>
<line x1="180" y1="30" x2="180" y2="520" stroke="#ccc"/>
<line x1="180" y1="520" x2="760" y2="520" stroke="#ccc"/>
</svg>