<svg xmlns="http://www.w3.org/2000/svg" width="800" height="540">
<style> .label{font-family:DejaVu Sans,Verdana,Geneva,sans-serif;font-size:12px;fill:#333} .value{font-family:DejaVu Sans,Verdana,Geneva,sans-serif;font-size:12px;fill:#555} </style>
<text x="10" y="20" class="label">延迟柱状图（越低越好，Top 15），单位 ms</text>
<text x="10" y="46" class="label">rockstargames.com</text>
<rect x="180" y="30" width="193.41" height="22" fill="#4c78a8" rx="3"/>
<text x="381.40999999999997" y="46" class="value">69.01</text>
<text x="10" y="78" class="label">blizzard.com</text>
<rect x="180" y="62" width="225.39" height="22" fill="#4c78a8" rx="3"/>
<text x="413.39" y="78" class="value">80.42</text>
<text x="10" y="110" class="label">socialclub.rockstargames.com</text>
<rect x="180" y="94" width="229.42" height="22" fill="#4c78a8" rx="3"/>
<text x="417.41999999999996" y="110" class="value">81.86</text>
<text x="10" y="142" class="label">eaassets-a.akamaihd.net</text>
<rect x="180" y="126" width="253.44" height="22" fill="#4c78a8" rx="3"/>
<text x="441.44" y="142" class="value">90.43</text>
<text x="10" y="174" class="label">battle.net</text>
<rect x="180" y="158" width="290.41" height="22" fill="#4c78a8" rx="3"/>
<text x="478.41" y="174" class="value">103.62</text>
<text x="10" y="206" class="label">ubisoft.com</text>
<rect x="180" y="190" width="307.98" height="22" fill="#4c78a8" rx="3"/>
<text x="495.98" y="206" class="value">109.89</text>
<text x="10" y="238" class="label">ea.com</text>
<rect x="180" y="222" width="324.35" height="22" fill="#4c78a8" rx="3"/>
<text x="512.35" y="238" class="value">115.73</text>
<text x="10" y="270" class="label">epicgames.com</text>
<rect x="180" y="254" width="334.63" height="22" fill="#4c78a8" rx="3"/>
<text x="522.63" y="270" class="value">119.40</text>
<text x="10" y="302" class="label">ubi.com</text>
<rect x="180" y="286" width="363.83" height="22" fill="#4c78a8" rx="3"/>
<text x="551.8299999999999" y="302" class="value">129.82</text>
<text x="10" y="334" class="label">origin.com</text>
<rect x="180" y="318" width="417.14" height="22" fill="#4c78a8" rx="3"/>
<text x="605.14" y="334" class="value">148.84</text>
<text x="10" y="366" class="label">cdn.akamai.steamstatic.com</text>
<rect x="180" y="350" width="432.95" height="22" fill="#4c78a8" rx="3"/>
<text x="620.95" y="366" class="value">154.48</text>
<text x="10" y="398" class="label">store.akamai.steamstatic.com</text>
<rect x="180" y="382" width="449.26" height="22" fill="#4c78a8" rx="3"/>
<text x="637.26" y="398" class="value">160.30</text>
<text x="10" y="430" class="label">community.akamai.steamstatic.com</text>
<rect x="180" y="414" width="479.89" height="22" fill="#4c78a8" rx="3"/>
<text x="667.89" y="430" class="value">171.23</text>
<text x="10" y="462" class="label">fortnite.com</text>
<rect x="180" y="446" width="578.65" height="22" fill="#4c78a8" rx="3"/>
<text x="766.65" y="462" class="value">206.47</text>
<text x="10" y="494" class="label">unrealengine.com</text>
<rect x="180" y="478" width="580.0" height="22" fill="#4c78a8" rx="3"/>
<text x="768.0" y="494" class="value">206.95</text>
<line x1="180" y1="30" x2="180" y2="520" stroke="#ccc"/>
<line x1="180" y1="520" x2="760" y2="520" stroke="#ccc"/>
</svg>