<svg xmlns="http://www.w3.org/2000/svg" width="800" height="540">
<style> .label{font-family:DejaVu Sans,Verdana,Geneva,sans-serif;font-size:12px;fill:#333} .value{font-family:DejaVu Sans,Verdana,Geneva,sans-serif;font-size:12px;fill:#555} </style>
<text x="10" y="20" class="label">延迟柱状图（越低越好，Top 15），单位 ms</text>
<text x="10" y="46" class="label">eaassets-a.akamaihd.net</text>
<rect x="180" y="30" width="102.93" height="22" fill="#4c78a8" rx="3"/>
<text x="290.93" y="46" class="value">42.18</text>
<text x="10" y="78" class="label">rockstargames.com</text>
<rect x="180" y="62" width="124.57" height="22" fill="#4c78a8" rx="3"/>
<text x="312.57" y="78" class="value">51.05</text>
<text x="10" y="110" class="label">ea.com</text>
<rect x="180" y="94" width="164.61" height="22" fill="#4c78a8" rx="3"/>
<text x="352.61" y="110" class="value">67.46</text>
<text x="10" y="142" class="label">ubisoft.com</text>
<rect x="180" y="126" width="189.62" height="22" fill="#4c78a8" rx="3"/>
<text x="377.62" y="142" class="value">77.71</text>
<text x="10" y="174" class="label">easyanticheat.net</text>
<rect x="180" y="158" width="356.14" height="22" fill="#4c78a8" rx="3"/>
<text x="544.14" y="174" class="value">145.95</text>
<text x="10" y="206" class="label">community.akamai.steamstatic.com</text>
<rect x="180" y="190" width="376.37" height="22" fill="#4c78a8" rx="3"/>
<text x="564.37" y="206" class="value">154.24</text>
<text x="10" y="238" class="label">steamcdn-a.akamaihd.net</text>
<rect x="180" y="222" width="377.08" height="22" fill="#4c78a8" rx="3"/>
<text x="565.0799999999999" y="238" class="value">154.53</text>
<text x="10" y="270" class="label">origin.com</text>
<rect x="180" y="254" width="401.43" height="22" fill="#4c78a8" rx="3"/>
<text x="589.4300000000001" y="270" class="value">164.51</text>
<text x="10" y="302" class="label">cdn.cloudflare.steamstatic.com</text>
<rect x="180" y="286" width="401.7" height="22" fill="#4c78a8" rx="3"/>
<text x="589.7" y="302" class="value">164.62</text>
<text x="10" y="334" class="label">static3.cdn.ubi.com</text>
<rect x="180" y="318" width="403.63" height="22" fill="#4c78a8" rx="3"/>
<text x="591.63" y="334" class="value">165.41</text>
<text x="10" y="366" class="label">store.akamai.steamstatic.com</text>
<rect x="180" y="350" width="419.19" height="22" fill="#4c78a8" rx="3"/>
<text x="607.19" y="366" class="value">171.79</text>
<text x="10" y="398" class="label">cdn.akamai.steamstatic.com</text>
<rect x="180" y="382" width="421.12" height="22" fill="#4c78a8" rx="3"/>
<text x="609.12" y="398" class="value">172.58</text>
<text x="10" y="430" class="label">api.steampowered.com</text>
<rect x="180" y="414" width="545.18" height="22" fill="#4c78a8" rx="3"/>
<text x="733.18" y="430" class="value">223.42</text>
<text x="10" y="462" class="label">launcher-public-service-prod06.ol.epicgames.com</text>
<rect x="180" y="446" width="546.23" height="22" fill="#4c78a8" rx="3"/>
<text x="734.23" y="462" class="value">223.85</text>
<text x="10" y="494" class="label">steam-chat.com</text>
<rect x="180" y="478" width="580.0" height="22" fill="#4c78a8" rx="3"/>
<text x="768.0" y="494" class="value">237.69</text>
<line x1="180" y1="30" x2="180" y2="520" stroke="#ccc"/>
<line x1="180" y1="520" x2="760" y2="520" stroke="#ccc"/>
</svg>