<svg xmlns="http://www.w3.org/2000/svg" width="800" height="540">
<style> .label{font-family:DejaVu Sans,Verdana,Geneva,sans-serif;font-size:12px;fill:#333} .value{font-family:DejaVu Sans,Verdana,Geneva,sans-serif;font-size:12px;fill:#555} </style>
<text x="10" y="20" class="label">延迟柱状图（越低越好，Top 15），单位 ms</text>
<text x="10" y="46" class="label">eaassets-a.akamaihd.net</text>
<rect x="180" y="30" width="209.67" height="22" fill="#4c78a8" rx="3"/>
<text x="397.66999999999996" y="46" class="value">53.86</text>
<text x="10" y="78" class="label">rockstargames.com</text>
<rect x="180" y="62" width="239.18" height="22" fill="#4c78a8" rx="3"/>
<text x="427.18" y="78" class="value">61.44</text>
<text x="10" y="110" class="label">ea.com</text>
<rect x="180" y="94" width="419.15" height="22" fill="#4c78a8" rx="3"/>
<text x="607.15" y="110" class="value">107.67</text>
<text x="10" y="142" class="label">cdn.akamai.steamstatic.com</text>
<rect x="180" y="126" width="453.56" height="22" fill="#4c78a8" rx="3"/>
<text x="641.56" y="142" class="value">116.51</text>
<text x="10" y="174" class="label">blizzard.com</text>
<rect x="180" y="158" width="473.22" height="22" fill="#4c78a8" rx="3"/>
<text x="661.22" y="174" class="value">121.56</text>
<text x="10" y="206" class="label">battle.net</text>
<rect x="180" y="190" width="495.99" height="22" fill="#4c78a8" rx="3"/>
<text x="683.99" y="206" class="value">127.41</text>
<text x="10" y="238" class="label">ubi.com</text>
<rect x="180" y="222" width="508.1" height="22" fill="#4c78a8" rx="3"/>
<text x="696.1" y="238" class="value">130.52</text>
<text x="10" y="270" class="label">steamcdn-a.akamaihd.net</text>
<rect x="180" y="254" width="520.71" height="22" fill="#4c78a8" rx="3"/>
<text x="708.71" y="270" class="value">133.76</text>
<text x="10" y="302" class="label">community.akamai.steamstatic.com</text>
<rect x="180" y="286" width="534.1" height="22" fill="#4c78a8" rx="3"/>
<text x="722.1" y="302" class="value">137.20</text>
<text x="10" y="334" class="label">cdn.cloudflare.steamstatic.com</text>
<rect x="180" y="318" width="534.34" height="22" fill="#4c78a8" rx="3"/>
<text x="722.34" y="334" class="value">137.26</text>
<text x="10" y="366" class="label">ubisoft.com</text>
<rect x="180" y="350" width="538.97" height="22" fill="#4c78a8" rx="3"/>
<text x="726.97" y="366" class="value">138.45</text>
<text x="10" y="398" class="label">store.akamai.steamstatic.com</text>
<rect x="180" y="382" width="539.12" height="22" fill="#4c78a8" rx="3"/>
<text x="727.12" y="398" class="value">138.49</text>
<text x="10" y="430" class="label">origin.com</text>
<rect x="180" y="414" width="549.17" height="22" fill="#4c78a8" rx="3"/>
<text x="737.17" y="430" class="value">141.07</text>
<text x="10" y="462" class="label">socialclub.rockstargames.com</text>
<rect x="180" y="446" width="551.27" height="22" fill="#4c78a8" rx="3"/>
<text x="739.27" y="462" class="value">141.61</text>
<text x="10" y="494" class="label">static3.cdn.ubi.com</text>
<rect x="180" y="478" width="580.0" height="22" fill="#4c78a8" rx="3"/>
<text x="768.0" y="494" class="value">148.99</text>
<line x1="180" y1="30" x2="180" y2="520" stroke="#ccc"/>
<line x1="180" y1="520" x2="760" y2="520" stroke="#ccc"/>
</svg>