<svg xmlns="http://www.w3.org/2000/svg" width="800" height="540">
<style> .label{font-family:DejaVu Sans,Verdana,Geneva,sans-serif;font-size:12px;fill:#333} .value{font-family:DejaVu Sans,Verdana,Geneva,sans-serif;font-size:12px;fill:#555} </style>
<text x="10" y="20" class="label">延迟柱状图（越低越好，Top 15），单位 ms</text>
<text x="10" y="46" class="label">ea.com</text>
<rect x="180" y="30" width="198.33" height="22" fill="#4c78a8" rx="3"/>
<text x="386.33000000000004" y="46" class="value">91.11</text>
<text x="10" y="78" class="label">steamcdn-a.akamaihd.net</text>
<rect x="180" y="62" width="213.74" height="22" fill="#4c78a8" rx="3"/>
<text x="401.74" y="78" class="value">98.19</text>
<text x="10" y="110" class="label">eaassets-a.akamaihd.net</text>
<rect x="180" y="94" width="220.25" height="22" fill="#4c78a8" rx="3"/>
<text x="408.25" y="110" class="value">101.18</text>
<text x="10" y="142" class="label">store.akamai.steamstatic.com</text>
<rect x="180" y="126" width="224.38" height="22" fill="#4c78a8" rx="3"/>
<text x="412.38" y="142" class="value">103.08</text>
<text x="10" y="174" class="label">ubisoft.com</text>
<rect x="180" y="158" width="228.97" height="22" fill="#4c78a8" rx="3"/>
<text x="416.97" y="174" class="value">105.19</text>
<text x="10" y="206" class="label">rockstargames.com</text>
<rect x="180" y="190" width="229.56" height="22" fill="#4c78a8" rx="3"/>
<text x="417.56" y="206" class="value">105.46</text>
<text x="10" y="238" class="label">origin.com</text>
<rect x="180" y="222" width="343.3" height="22" fill="#4c78a8" rx="3"/>
<text x="531.3" y="238" class="value">157.71</text>
<text x="10" y="270" class="label">cdn.cloudflare.steamstatic.com</text>
<rect x="180" y="254" width="384.81" height="22" fill="#4c78a8" rx="3"/>
<text x="572.81" y="270" class="value">176.78</text>
<text x="10" y="302" class="label">community.akamai.steamstatic.com</text>
<rect x="180" y="286" width="422.4" height="22" fill="#4c78a8" rx="3"/>
<text x="610.4" y="302" class="value">194.05</text>
<text x="10" y="334" class="label">cdn.akamai.steamstatic.com</text>
<rect x="180" y="318" width="476.36" height="22" fill="#4c78a8" rx="3"/>
<text x="664.36" y="334" class="value">218.84</text>
<text x="10" y="366" class="label">launcher-public-service-prod06.ol.epicgames.com</text>
<rect x="180" y="350" width="501.09" height="22" fill="#4c78a8" rx="3"/>
<text x="689.0899999999999" y="366" class="value">230.20</text>
<text x="10" y="398" class="label">ubi.com</text>
<rect x="180" y="382" width="507.34" height="22" fill="#4c78a8" rx="3"/>
<text x="695.3399999999999" y="398" class="value">233.07</text>
<text x="10" y="430" class="label">steam-chat.com</text>
<rect x="180" y="414" width="553.94" height="22" fill="#4c78a8" rx="3"/>
<text x="741.94" y="430" class="value">254.48</text>
<text x="10" y="462" class="label">api.steampowered.com</text>
<rect x="180" y="446" width="562.39" height="22" fill="#4c78a8" rx="3"/>
<text x="750.39" y="462" class="value">258.36</text>
<text x="10" y="494" class="label">fortnite.com</text>
<rect x="180" y="478" width="580.0" height="22" fill="#4c78a8" rx="3"/>
<text x="768.0" y="494" class="value">266.45</text>
<line x1="180" y1="30" x2="180" y2="520" stroke="#ccc"/>
<line x1="180" y1="520" x2="760" y2="520" stroke="#ccc"/>
</svg>