<svg xmlns="http://www.w3.org/2000/svg" width="800" height="540">
<style> .label{font-family:DejaVu Sans,Verdana,Geneva,sans-serif;font-size:12px;fill:#333} .value{font-family:DejaVu Sans,Verdana,Geneva,sans-serif;font-size:12px;fill:#555} </style>
<text x="10" y="20" class="label">延迟柱状图（越低越好，Top 15），单位 ms</text>
<text x="10" y="46" class="label">eaassets-a.akamaihd.net</text>
<rect x="180" y="30" width="124.98" height="22" fill="#4c78a8" rx="3"/>
<text x="312.98" y="46" class="value">48.42</text>
<text x="10" y="78" class="label">ea.com</text>
<rect x="180" y="62" width="188.68" height="22" fill="#4c78a8" rx="3"/>
<text x="376.68" y="78" class="value">73.10</text>
<text x="10" y="110" class="label">cdn.akamai.steamstatic.com</text>
<rect x="180" y="94" width="197.89" height="22" fill="#4c78a8" rx="3"/>
<text x="385.89" y="110" class="value">76.67</text>
<text x="10" y="142" class="label">cdn.cloudflare.steamstatic.com</text>
<rect x="180" y="126" width="271.92" height="22" fill="#4c78a8" rx="3"/>
<text x="459.92" y="142" class="value">105.35</text>
<text x="10" y="174" class="label">rockstargames.com</text>
<rect x="180" y="158" width="292.16" height="22" fill="#4c78a8" rx="3"/>
<text x="480.16" y="174" class="value">113.19</text>
<text x="10" y="206" class="label">ubi.com</text>
<rect x="180" y="190" width="306.14" height="22" fill="#4c78a8" rx="3"/>
<text x="494.14" y="206" class="value">118.61</text>
<text x="10" y="238" class="label">socialclub.rockstargames.com</text>
<rect x="180" y="222" width="331.34" height="22" fill="#4c78a8" rx="3"/>
<text x="519.3399999999999" y="238" class="value">128.37</text>
<text x="10" y="270" class="label">battle.net</text>
<rect x="180" y="254" width="366.7" height="22" fill="#4c78a8" rx="3"/>
<text x="554.7" y="270" class="value">142.07</text>
<text x="10" y="302" class="label">ubisoft.com</text>
<rect x="180" y="286" width="382.29" height="22" fill="#4c78a8" rx="3"/>
<text x="570.29" y="302" class="value">148.11</text>
<text x="10" y="334" class="label">blizzard.com</text>
<rect x="180" y="318" width="393.21" height="22" fill="#4c78a8" rx="3"/>
<text x="581.21" y="334" class="value">152.34</text>
<text x="10" y="366" class="label">steamcdn-a.akamaihd.net</text>
<rect x="180" y="350" width="405.03" height="22" fill="#4c78a8" rx="3"/>
<text x="593.03" y="366" class="value">156.92</text>
<text x="10" y="398" class="label">static3.cdn.ubi.com</text>
<rect x="180" y="382" width="431.95" height="22" fill="#4c78a8" rx="3"/>
<text x="619.95" y="398" class="value">167.35</text>
<text x="10" y="430" class="label">origin.com</text>
<rect x="180" y="414" width="525.87" height="22" fill="#4c78a8" rx="3"/>
<text x="713.87" y="430" class="value">203.74</text>
<text x="10" y="462" class="label">store.akamai.steamstatic.com</text>
<rect x="180" y="446" width="533.95" height="22" fill="#4c78a8" rx="3"/>
<text x="721.95" y="462" class="value">206.87</text>
<text x="10" y="494" class="label">www.steamcommunity.com</text>
<rect x="180" y="478" width="580.0" height="22" fill="#4c78a8" rx="3"/>
<text x="768.0" y="494" class="value">224.71</text>
<line x1="180" y1="30" x2="180" y2="520" stroke="#ccc"/>
<line x1="180" y1="520" x2="760" y2="520" stroke="#ccc"/>
</svg>