<svg xmlns="http://www.w3.org/2000/svg" width="800" height="540">
<style> .label{font-family:DejaVu Sans,Verdana,Geneva,sans-serif;font-size:12px;fill:#333} .value{font-family:DejaVu Sans,Verdana,Geneva,sans-serif;font-size:12px;fill:#555} </style>
<text x="10" y="20" class="label">延迟柱状图（越低越好，Top 15），单位 ms</text>
<text x="10" y="46" class="label">battle.net</text>
<rect x="180" y="30" width="218.25" height="22" fill="#4c78a8" rx="3"/>
<text x="406.25" y="46" class="value">71.44</text>
<text x="10" y="78" class="label">blizzard.com</text>
<rect x="180" y="62" width="224.94" height="22" fill="#4c78a8" rx="3"/>
<text x="412.94" y="78" class="value">73.63</text>
<text x="10" y="110" class="label">rockstargames.com</text>
<rect x="180" y="94" width="234.29" height="22" fill="#4c78a8" rx="3"/>
<text x="422.28999999999996" y="110" class="value">76.69</text>
<text x="10" y="142" class="label">fortnite.com</text>
<rect x="180" y="126" width="239.67" height="22" fill="#4c78a8" rx="3"/>
<text x="427.66999999999996" y="142" class="value">78.45</text>
<text x="10" y="174" class="label">socialclub.rockstargames.com</text>
<rect x="180" y="158" width="263.31" height="22" fill="#4c78a8" rx="3"/>
<text x="451.31" y="174" class="value">86.19</text>
<text x="10" y="206" class="label">ubi.com</text>
<rect x="180" y="190" width="285.13" height="22" fill="#4c78a8" rx="3"/>
<text x="473.13" y="206" class="value">93.33</text>
<text x="10" y="238" class="label">eaassets-a.akamaihd.net</text>
<rect x="180" y="222" width="313.72" height="22" fill="#4c78a8" rx="3"/>
<text x="501.72" y="238" class="value">102.69</text>
<text x="10" y="270" class="label">static3.cdn.ubi.com</text>
<rect x="180" y="254" width="349.83" height="22" fill="#4c78a8" rx="3"/>
<text x="537.8299999999999" y="270" class="value">114.51</text>
<text x="10" y="302" class="label">store.akamai.steamstatic.com</text>
<rect x="180" y="286" width="360.43" height="22" fill="#4c78a8" rx="3"/>
<text x="548.4300000000001" y="302" class="value">117.98</text>
<text x="10" y="334" class="label">epicgames.com</text>
<rect x="180" y="318" width="383.93" height="22" fill="#4c78a8" rx="3"/>
<text x="571.9300000000001" y="334" class="value">125.67</text>
<text x="10" y="366" class="label">unrealengine.com</text>
<rect x="180" y="350" width="393.83" height="22" fill="#4c78a8" rx="3"/>
<text x="581.8299999999999" y="366" class="value">128.91</text>
<text x="10" y="398" class="label">cdn.akamai.steamstatic.com</text>
<rect x="180" y="382" width="459.66" height="22" fill="#4c78a8" rx="3"/>
<text x="647.6600000000001" y="398" class="value">150.46</text>
<text x="10" y="430" class="label">ea.com</text>
<rect x="180" y="414" width="488.9" height="22" fill="#4c78a8" rx="3"/>
<text x="676.9" y="430" class="value">160.03</text>
<text x="10" y="462" class="label">steamcdn-a.akamaihd.net</text>
<rect x="180" y="446" width="491.04" height="22" fill="#4c78a8" rx="3"/>
<text x="679.04" y="462" class="value">160.73</text>
<text x="10" y="494" class="label">origin.com</text>
<rect x="180" y="478" width="580.0" height="22" fill="#4c78a8" rx="3"/>
<text x="768.0" y="494" class="value">189.85</text>
<line x1="180" y1="30" x2="180" y2="520" stroke="#ccc"/>
<line x1="180" y1="520" x2="760" y2="520" stroke="#ccc"/>
</svg>