<svg xmlns="http://www.w3.org/2000/svg" width="800" height="540">
<style> .label{font-family:DejaVu Sans,Verdana,Geneva,sans-serif;font-size:12px;fill:#333} .value{font-family:DejaVu Sans,Verdana,Geneva,sans-serif;font-size:12px;fill:#555} </style>
<text x="10" y="20" class="label">延迟柱状图（越低越好，Top 15），单位 ms</text>
<text x="10" y="46" class="label">ea.com</text>
<rect x="180" y="30" width="119.42" height="22" fill="#4c78a8" rx="3"/>
<text x="307.42" y="46" class="value">60.84</text>
<text x="10" y="78" class="label">eaassets-a.akamaihd.net</text>
<rect x="180" y="62" width="199.08" height="22" fill="#4c78a8" rx="3"/>
<text x="387.08000000000004" y="78" class="value">101.43</text>
<text x="10" y="110" class="label">rockstargames.com</text>
<rect x="180" y="94" width="202.34" height="22" fill="#4c78a8" rx="3"/>
<text x="390.34000000000003" y="110" class="value">103.09</text>
<text x="10" y="142" class="label">origin.com</text>
<rect x="180" y="126" width="203.54" height="22" fill="#4c78a8" rx="3"/>
<text x="391.53999999999996" y="142" class="value">103.70</text>
<text x="10" y="174" class="label">ubisoft.com</text>
<rect x="180" y="158" width="207.45" height="22" fill="#4c78a8" rx="3"/>
<text x="395.45" y="174" class="value">105.69</text>
<text x="10" y="206" class="label">community.akamai.steamstatic.com</text>
<rect x="180" y="190" width="229.13" height="22" fill="#4c78a8" rx="3"/>
<text x="417.13" y="206" class="value">116.74</text>
<text x="10" y="238" class="label">cdn.cloudflare.steamstatic.com</text>
<rect x="180" y="222" width="280.3" height="22" fill="#4c78a8" rx="3"/>
<text x="468.3" y="238" class="value">142.81</text>
<text x="10" y="270" class="label">cdn.akamai.steamstatic.com</text>
<rect x="180" y="254" width="332.38" height="22" fill="#4c78a8" rx="3"/>
<text x="520.38" y="270" class="value">169.34</text>
<text x="10" y="302" class="label">steamcdn-a.akamaihd.net</text>
<rect x="180" y="286" width="404.78" height="22" fill="#4c78a8" rx="3"/>
<text x="592.78" y="302" class="value">206.23</text>
<text x="10" y="334" class="label">store.akamai.steamstatic.com</text>
<rect x="180" y="318" width="439.15" height="22" fill="#4c78a8" rx="3"/>
<text x="627.15" y="334" class="value">223.74</text>
<text x="10" y="366" class="label">easyanticheat.net</text>
<rect x="180" y="350" width="515.76" height="22" fill="#4c78a8" rx="3"/>
<text x="703.76" y="366" class="value">262.77</text>
<text x="10" y="398" class="label">api.steampowered.com</text>
<rect x="180" y="382" width="543.1" height="22" fill="#4c78a8" rx="3"/>
<text x="731.1" y="398" class="value">276.70</text>
<text x="10" y="430" class="label">ubi.com</text>
<rect x="180" y="414" width="557.27" height="22" fill="#4c78a8" rx="3"/>
<text x="745.27" y="430" class="value">283.92</text>
<text x="10" y="462" class="label">battle.net</text>
<rect x="180" y="446" width="579.78" height="22" fill="#4c78a8" rx="3"/>
<text x="767.78" y="462" class="value">295.39</text>
<text x="10" y="494" class="label">www.steamcommunity.com</text>
<rect x="180" y="478" width="580.0" height="22" fill="#4c78a8" rx="3"/>
<text x="768.0" y="494" class="value">295.50</text>
<line x1="180" y1="30" x2="180" y2="520" stroke="#ccc"/>
<line x1="180" y1="520" x2="760" y2="520" stroke="#ccc"/>
</svg>