<svg xmlns="http://www.w3.org/2000/svg" width="800" height="540">
<style> .label{font-family:DejaVu Sans,Verdana,Geneva,sans-serif;font-size:12px;fill:#333} .value{font-family:DejaVu Sans,Verdana,Geneva,sans-serif;font-size:12px;fill:#555} </style>
<text x="10" y="20" class="label">延迟柱状图（越低越好，Top 15），单位 ms</text>
<text x="10" y="46" class="label">rockstargames.com</text>
<rect x="180" y="30" width="151.37" height="22" fill="#4c78a8" rx="3"/>
<text x="339.37" y="46" class="value">53.94</text>
<text x="10" y="78" class="label">blizzard.com</text>
<rect x="180" y="62" width="199.72" height="22" fill="#4c78a8" rx="3"/>
<text x="387.72" y="78" class="value">71.17</text>
<text x="10" y="110" class="label">battle.net</text>
<rect x="180" y="94" width="232.75" height="22" fill="#4c78a8" rx="3"/>
<text x="420.75" y="110" class="value">82.94</text>
<text x="10" y="142" class="label">eaassets-a.akamaihd.net</text>
<rect x="180" y="126" width="251.08" height="22" fill="#4c78a8" rx="3"/>
<text x="439.08000000000004" y="142" class="value">89.47</text>
<text x="10" y="174" class="label">cdn.cloudflare.steamstatic.com</text>
<rect x="180" y="158" width="256.02" height="22" fill="#4c78a8" rx="3"/>
<text x="444.02" y="174" class="value">91.23</text>
<text x="10" y="206" class="label">socialclub.rockstargames.com</text>
<rect x="180" y="190" width="272.24" height="22" fill="#4c78a8" rx="3"/>
<text x="460.24" y="206" class="value">97.01</text>
<text x="10" y="238" class="label">ubi.com</text>
<rect x="180" y="222" width="278.8" height="22" fill="#4c78a8" rx="3"/>
<text x="466.8" y="238" class="value">99.35</text>
<text x="10" y="270" class="label">ubisoft.com</text>
<rect x="180" y="254" width="321.99" height="22" fill="#4c78a8" rx="3"/>
<text x="509.99" y="270" class="value">114.74</text>
<text x="10" y="302" class="label">unrealengine.com</text>
<rect x="180" y="286" width="351.12" height="22" fill="#4c78a8" rx="3"/>
<text x="539.12" y="302" class="value">125.12</text>
<text x="10" y="334" class="label">ea.com</text>
<rect x="180" y="318" width="406.12" height="22" fill="#4c78a8" rx="3"/>
<text x="594.12" y="334" class="value">144.72</text>
<text x="10" y="366" class="label">fortnite.com</text>
<rect x="180" y="350" width="428.74" height="22" fill="#4c78a8" rx="3"/>
<text x="616.74" y="366" class="value">152.78</text>
<text x="10" y="398" class="label">cdn.akamai.steamstatic.com</text>
<rect x="180" y="382" width="462.78" height="22" fill="#4c78a8" rx="3"/>
<text x="650.78" y="398" class="value">164.91</text>
<text x="10" y="430" class="label">steamcdn-a.akamaihd.net</text>
<rect x="180" y="414" width="479.42" height="22" fill="#4c78a8" rx="3"/>
<text x="667.4200000000001" y="430" class="value">170.84</text>
<text x="10" y="462" class="label">epicgames.com</text>
<rect x="180" y="446" width="497.13" height="22" fill="#4c78a8" rx="3"/>
<text x="685.13" y="462" class="value">177.15</text>
<text x="10" y="494" class="label">community.akamai.steamstatic.com</text>
<rect x="180" y="478" width="580.0" height="22" fill="#4c78a8" rx="3"/>
<text x="768.0" y="494" class="value">206.68</text>
<line x1="180" y1="30" x2="180" y2="520" stroke="#ccc"/>
<line x1="180" y1="520" x2="760" y2="520" stroke="#ccc"/>
</svg>