<svg xmlns="http://www.w3.org/2000/svg" width="800" height="540">
<style> .label{font-family:DejaVu Sans,Verdana,Geneva,sans-serif;font-size:12px;fill:#333} .value{font-family:DejaVu Sans,Verdana,Geneva,sans-serif;font-size:12px;fill:#555} </style>
<text x="10" y="20" class="label">延迟柱状图（越低越好，Top 15），单位 ms</text>
<text x="10" y="46" class="label">rockstargames.com</text>
<rect x="180" y="30" width="157.6" height="22" fill="#4c78a8" rx="3"/>
<text x="345.6" y="46" class="value">60.18</text>
<text x="10" y="78" class="label">ubi.com</text>
<rect x="180" y="62" width="190.99" height="22" fill="#4c78a8" rx="3"/>
<text x="378.99" y="78" class="value">72.93</text>
<text x="10" y="110" class="label">socialclub.rockstargames.com</text>
<rect x="180" y="94" width="250.44" height="22" fill="#4c78a8" rx="3"/>
<text x="438.44" y="110" class="value">95.63</text>
<text x="10" y="142" class="label">fortnite.com</text>
<rect x="180" y="126" width="268.67" height="22" fill="#4c78a8" rx="3"/>
<text x="456.67" y="142" class="value">102.59</text>
<text x="10" y="174" class="label">store.akamai.steamstatic.com</text>
<rect x="180" y="158" width="286.79" height="22" fill="#4c78a8" rx="3"/>
<text x="474.79" y="174" class="value">109.51</text>
<text x="10" y="206" class="label">eaassets-a.akamaihd.net</text>
<rect x="180" y="190" width="331.97" height="22" fill="#4c78a8" rx="3"/>
<text x="519.97" y="206" class="value">126.76</text>
<text x="10" y="238" class="label">blizzard.com</text>
<rect x="180" y="222" width="340.19" height="22" fill="#4c78a8" rx="3"/>
<text x="528.19" y="238" class="value">129.90</text>
<text x="10" y="270" class="label">ubisoft.com</text>
<rect x="180" y="254" width="359.2" height="22" fill="#4c78a8" rx="3"/>
<text x="547.2" y="270" class="value">137.16</text>
<text x="10" y="302" class="label">battle.net</text>
<rect x="180" y="286" width="363.55" height="22" fill="#4c78a8" rx="3"/>
<text x="551.55" y="302" class="value">138.82</text>
<text x="10" y="334" class="label">ea.com</text>
<rect x="180" y="318" width="377.56" height="22" fill="#4c78a8" rx="3"/>
<text x="565.56" y="334" class="value">144.17</text>
<text x="10" y="366" class="label">unrealengine.com</text>
<rect x="180" y="350" width="521.36" height="22" fill="#4c78a8" rx="3"/>
<text x="709.36" y="366" class="value">199.08</text>
<text x="10" y="398" class="label">epicgames.com</text>
<rect x="180" y="382" width="541.87" height="22" fill="#4c78a8" rx="3"/>
<text x="729.87" y="398" class="value">206.91</text>
<text x="10" y="430" class="label">static3.cdn.ubi.com</text>
<rect x="180" y="414" width="550.67" height="22" fill="#4c78a8" rx="3"/>
<text x="738.67" y="430" class="value">210.27</text>
<text x="10" y="462" class="label">cdn.akamai.steamstatic.com</text>
<rect x="180" y="446" width="557.27" height="22" fill="#4c78a8" rx="3"/>
<text x="745.27" y="462" class="value">212.79</text>
<text x="10" y="494" class="label">origin.com</text>
<rect x="180" y="478" width="580.0" height="22" fill="#4c78a8" rx="3"/>
<text x="768.0" y="494" class="value">221.47</text>
<line x1="180" y1="30" x2="180" y2="520" stroke="#ccc"/>
<line x1="180" y1="520" x2="760" y2="520" stroke="#ccc"/>
</svg>