<svg xmlns="http://www.w3.org/2000/svg" width="800" height="540">
<style> .label{font-family:DejaVu Sans,Verdana,Geneva,sans-serif;font-size:12px;fill:#333} .value{font-family:DejaVu Sans,Verdana,Geneva,sans-serif;font-size:12px;fill:#555} </style>
<text x="10" y="20" class="label">延迟柱状图（越低越好，Top 15），单位 ms</text>
<text x="10" y="46" class="label">rockstargames.com</text>
<rect x="180" y="30" width="160.9" height="22" fill="#4c78a8" rx="3"/>
<text x="348.9" y="46" class="value">91.18</text>
<text x="10" y="78" class="label">eaassets-a.akamaihd.net</text>
<rect x="180" y="62" width="184.79" height="22" fill="#4c78a8" rx="3"/>
<text x="372.78999999999996" y="78" class="value">104.72</text>
<text x="10" y="110" class="label">ea.com</text>
<rect x="180" y="94" width="230.53" height="22" fill="#4c78a8" rx="3"/>
<text x="418.53" y="110" class="value">130.64</text>
<text x="10" y="142" class="label">store.akamai.steamstatic.com</text>
<rect x="180" y="126" width="252.78" height="22" fill="#4c78a8" rx="3"/>
<text x="440.78" y="142" class="value">143.25</text>
<text x="10" y="174" class="label">cdn.cloudflare.steamstatic.com</text>
<rect x="180" y="158" width="291.43" height="22" fill="#4c78a8" rx="3"/>
<text x="479.43" y="174" class="value">165.15</text>
<text x="10" y="206" class="label">cdn.akamai.steamstatic.com</text>
<rect x="180" y="190" width="292.81" height="22" fill="#4c78a8" rx="3"/>
<text x="480.81" y="206" class="value">165.93</text>
<text x="10" y="238" class="label">community.akamai.steamstatic.com</text>
<rect x="180" y="222" width="308.72" height="22" fill="#4c78a8" rx="3"/>
<text x="496.72" y="238" class="value">174.95</text>
<text x="10" y="270" class="label">origin.com</text>
<rect x="180" y="254" width="315.39" height="22" fill="#4c78a8" rx="3"/>
<text x="503.39" y="270" class="value">178.73</text>
<text x="10" y="302" class="label">easyanticheat.net</text>
<rect x="180" y="286" width="372.83" height="22" fill="#4c78a8" rx="3"/>
<text x="560.8299999999999" y="302" class="value">211.28</text>
<text x="10" y="334" class="label">steamcdn-a.akamaihd.net</text>
<rect x="180" y="318" width="394.63" height="22" fill="#4c78a8" rx="3"/>
<text x="582.63" y="334" class="value">223.63</text>
<text x="10" y="366" class="label">launcher-public-service-prod06.ol.epicgames.com</text>
<rect x="180" y="350" width="456.46" height="22" fill="#4c78a8" rx="3"/>
<text x="644.46" y="366" class="value">258.67</text>
<text x="10" y="398" class="label">ubi.com</text>
<rect x="180" y="382" width="456.53" height="22" fill="#4c78a8" rx="3"/>
<text x="644.53" y="398" class="value">258.71</text>
<text x="10" y="430" class="label">steam-chat.com</text>
<rect x="180" y="414" width="532.07" height="22" fill="#4c78a8" rx="3"/>
<text x="720.07" y="430" class="value">301.52</text>
<text x="10" y="462" class="label">ubisoft.com</text>
<rect x="180" y="446" width="545.52" height="22" fill="#4c78a8" rx="3"/>
<text x="733.52" y="462" class="value">309.14</text>
<text x="10" y="494" class="label">blizzard.com</text>
<rect x="180" y="478" width="580.0" height="22" fill="#4c78a8" rx="3"/>
<text x="768.0" y="494" class="value">328.68</text>
<line x1="180" y1="30" x2="180" y2="520" stroke="#ccc"/>
<line x1="180" y1="520" x2="760" y2="520" stroke="#ccc"/>
</svg>