<svg xmlns="http://www.w3.org/2000/svg" width="800" height="540">
<style> .label{font-family:DejaVu Sans,Verdana,Geneva,sans-serif;font-size:12px;fill:#333} .value{font-family:DejaVu Sans,Verdana,Geneva,sans-serif;font-size:12px;fill:#555} </style>
<text x="10" y="20" class="label">延迟柱状图（越低越好，Top 15），单位 ms</text>
<text x="10" y="46" class="label">rockstargames.com</text>
<rect x="180" y="30" width="140.74" height="22" fill="#4c78a8" rx="3"/>
<text x="328.74" y="46" class="value">68.50</text>
<text x="10" y="78" class="label">ea.com</text>
<rect x="180" y="62" width="223.11" height="22" fill="#4c78a8" rx="3"/>
<text x="411.11" y="78" class="value">108.59</text>
<text x="10" y="110" class="label">store.akamai.steamstatic.com</text>
<rect x="180" y="94" width="256.01" height="22" fill="#4c78a8" rx="3"/>
<text x="444.01" y="110" class="value">124.60</text>
<text x="10" y="142" class="label">ubisoft.com</text>
<rect x="180" y="126" width="256.66" height="22" fill="#4c78a8" rx="3"/>
<text x="444.66" y="142" class="value">124.92</text>
<text x="10" y="174" class="label">cdn.cloudflare.steamstatic.com</text>
<rect x="180" y="158" width="269.65" height="22" fill="#4c78a8" rx="3"/>
<text x="457.65" y="174" class="value">131.24</text>
<text x="10" y="206" class="label">steamcdn-a.akamaihd.net</text>
<rect x="180" y="190" width="273.55" height="22" fill="#4c78a8" rx="3"/>
<text x="461.55" y="206" class="value">133.14</text>
<text x="10" y="238" class="label">cdn.akamai.steamstatic.com</text>
<rect x="180" y="222" width="284.98" height="22" fill="#4c78a8" rx="3"/>
<text x="472.98" y="238" class="value">138.70</text>
<text x="10" y="270" class="label">community.akamai.steamstatic.com</text>
<rect x="180" y="254" width="291.55" height="22" fill="#4c78a8" rx="3"/>
<text x="479.55" y="270" class="value">141.90</text>
<text x="10" y="302" class="label">origin.com</text>
<rect x="180" y="286" width="377.11" height="22" fill="#4c78a8" rx="3"/>
<text x="565.11" y="302" class="value">183.54</text>
<text x="10" y="334" class="label">www.steamcommunity.com</text>
<rect x="180" y="318" width="421.32" height="22" fill="#4c78a8" rx="3"/>
<text x="609.3199999999999" y="334" class="value">205.06</text>
<text x="10" y="366" class="label">easyanticheat.net</text>
<rect x="180" y="350" width="471.58" height="22" fill="#4c78a8" rx="3"/>
<text x="659.5799999999999" y="366" class="value">229.52</text>
<text x="10" y="398" class="label">api.steampowered.com</text>
<rect x="180" y="382" width="493.66" height="22" fill="#4c78a8" rx="3"/>
<text x="681.6600000000001" y="398" class="value">240.27</text>
<text x="10" y="430" class="label">launcher-public-service-prod06.ol.epicgames.com</text>
<rect x="180" y="414" width="533.28" height="22" fill="#4c78a8" rx="3"/>
<text x="721.28" y="430" class="value">259.55</text>
<text x="10" y="462" class="label">steam-chat.com</text>
<rect x="180" y="446" width="569.73" height="22" fill="#4c78a8" rx="3"/>
<text x="757.73" y="462" class="value">277.29</text>
<text x="10" y="494" class="label">unrealengine.com</text>
<rect x="180" y="478" width="580.0" height="22" fill="#4c78a8" rx="3"/>
<text x="768.0" y="494" class="value">282.29</text>
<line x1="180" y1="30" x2="180" y2="520" stroke="#ccc"/>
<line x1="180" y1="520" x2="760" y2="520" stroke="#ccc"/>
</svg>