<svg xmlns="http://www.w3.org/2000/svg" width="800" height="540">
<style> .label{font-family:DejaVu Sans,Verdana,Geneva,sans-serif;font-size:12px;fill:#333} .value{font-family:DejaVu Sans,Verdana,Geneva,sans-serif;font-size:12px;fill:#555} </style>
<text x="10" y="20" class="label">延迟柱状图（越低越好，Top 15），单位 ms</text>
<text x="10" y="46" class="label">rockstargames.com</text>
<rect x="180" y="30" width="180.87" height="22" fill="#4c78a8" rx="3"/>
<text x="368.87" y="46" class="value">60.42</text>
<text x="10" y="78" class="label">blizzard.com</text>
<rect x="180" y="62" width="223.86" height="22" fill="#4c78a8" rx="3"/>
<text x="411.86" y="78" class="value">74.78</text>
<text x="10" y="110" class="label">ubi.com</text>
<rect x="180" y="94" width="265.95" height="22" fill="#4c78a8" rx="3"/>
<text x="453.95" y="110" class="value">88.84</text>
<text x="10" y="142" class="label">store.akamai.steamstatic.com</text>
<rect x="180" y="126" width="334.77" height="22" fill="#4c78a8" rx="3"/>
<text x="522.77" y="142" class="value">111.83</text>
<text x="10" y="174" class="label">unrealengine.com</text>
<rect x="180" y="158" width="349.71" height="22" fill="#4c78a8" rx="3"/>
<text x="537.71" y="174" class="value">116.82</text>
<text x="10" y="206" class="label">epicgames.com</text>
<rect x="180" y="190" width="361.11" height="22" fill="#4c78a8" rx="3"/>
<text x="549.11" y="206" class="value">120.63</text>
<text x="10" y="238" class="label">battle.net</text>
<rect x="180" y="222" width="381.08" height="22" fill="#4c78a8" rx="3"/>
<text x="569.0799999999999" y="238" class="value">127.30</text>
<text x="10" y="270" class="label">fortnite.com</text>
<rect x="180" y="254" width="384.55" height="22" fill="#4c78a8" rx="3"/>
<text x="572.55" y="270" class="value">128.46</text>
<text x="10" y="302" class="label">socialclub.rockstargames.com</text>
<rect x="180" y="286" width="416.07" height="22" fill="#4c78a8" rx="3"/>
<text x="604.0699999999999" y="302" class="value">138.99</text>
<text x="10" y="334" class="label">community.akamai.steamstatic.com</text>
<rect x="180" y="318" width="439.42" height="22" fill="#4c78a8" rx="3"/>
<text x="627.4200000000001" y="334" class="value">146.79</text>
<text x="10" y="366" class="label">easyanticheat.net</text>
<rect x="180" y="350" width="496.6" height="22" fill="#4c78a8" rx="3"/>
<text x="684.6" y="366" class="value">165.89</text>
<text x="10" y="398" class="label">ea.com</text>
<rect x="180" y="382" width="500.67" height="22" fill="#4c78a8" rx="3"/>
<text x="688.6700000000001" y="398" class="value">167.25</text>
<text x="10" y="430" class="label">launcher-public-service-prod06.ol.epicgames.com</text>
<rect x="180" y="414" width="521.06" height="22" fill="#4c78a8" rx="3"/>
<text x="709.06" y="430" class="value">174.06</text>
<text x="10" y="462" class="label">eaassets-a.akamaihd.net</text>
<rect x="180" y="446" width="557.01" height="22" fill="#4c78a8" rx="3"/>
<text x="745.01" y="462" class="value">186.07</text>
<text x="10" y="494" class="label">origin.com</text>
<rect x="180" y="478" width="580.0" height="22" fill="#4c78a8" rx="3"/>
<text x="768.0" y="494" class="value">193.75</text>
<line x1="180" y1="30" x2="180" y2="520" stroke="#ccc"/>
<line x1="180" y1="520" x2="760" y2="520" stroke="#ccc"/>
</svg>