<svg xmlns="http://www.w3.org/2000/svg" width="800" height="540">
<style> .label{font-family:DejaVu Sans,Verdana,Geneva,sans-serif;font-size:12px;fill:#333} .value{font-family:DejaVu Sans,Verdana,Geneva,sans-serif;font-size:12px;fill:#555} </style>
<text x="10" y="20" class="label">延迟柱状图（越低越好，Top 15），单位 ms</text>
<text x="10" y="46" class="label">rockstargames.com</text>
<rect x="180" y="30" width="165.55" height="22" fill="#4c78a8" rx="3"/>
<text x="353.55" y="46" class="value">55.83</text>
<text x="10" y="78" class="label">eaassets-a.akamaihd.net</text>
<rect x="180" y="62" width="195.88" height="22" fill="#4c78a8" rx="3"/>
<text x="383.88" y="78" class="value">66.06</text>
<text x="10" y="110" class="label">ea.com</text>
<rect x="180" y="94" width="215.48" height="22" fill="#4c78a8" rx="3"/>
<text x="403.48" y="110" class="value">72.67</text>
<text x="10" y="142" class="label">steamcdn-a.akamaihd.net</text>
<rect x="180" y="126" width="254.21" height="22" fill="#4c78a8" rx="3"/>
<text x="442.21000000000004" y="142" class="value">85.73</text>
<text x="10" y="174" class="label">cdn.cloudflare.steamstatic.com</text>
<rect x="180" y="158" width="301.89" height="22" fill="#4c78a8" rx="3"/>
<text x="489.89" y="174" class="value">101.81</text>
<text x="10" y="206" class="label">battle.net</text>
<rect x="180" y="190" width="363.36" height="22" fill="#4c78a8" rx="3"/>
<text x="551.36" y="206" class="value">122.54</text>
<text x="10" y="238" class="label">origin.com</text>
<rect x="180" y="222" width="364.37" height="22" fill="#4c78a8" rx="3"/>
<text x="552.37" y="238" class="value">122.88</text>
<text x="10" y="270" class="label">ubi.com</text>
<rect x="180" y="254" width="369.23" height="22" fill="#4c78a8" rx="3"/>
<text x="557.23" y="270" class="value">124.52</text>
<text x="10" y="302" class="label">blizzard.com</text>
<rect x="180" y="286" width="377.24" height="22" fill="#4c78a8" rx="3"/>
<text x="565.24" y="302" class="value">127.22</text>
<text x="10" y="334" class="label">store.akamai.steamstatic.com</text>
<rect x="180" y="318" width="399.48" height="22" fill="#4c78a8" rx="3"/>
<text x="587.48" y="334" class="value">134.72</text>
<text x="10" y="366" class="label">community.akamai.steamstatic.com</text>
<rect x="180" y="350" width="423.85" height="22" fill="#4c78a8" rx="3"/>
<text x="611.85" y="366" class="value">142.94</text>
<text x="10" y="398" class="label">ubisoft.com</text>
<rect x="180" y="382" width="440.87" height="22" fill="#4c78a8" rx="3"/>
<text x="628.87" y="398" class="value">148.68</text>
<text x="10" y="430" class="label">static3.cdn.ubi.com</text>
<rect x="180" y="414" width="457.51" height="22" fill="#4c78a8" rx="3"/>
<text x="645.51" y="430" class="value">154.29</text>
<text x="10" y="462" class="label">socialclub.rockstargames.com</text>
<rect x="180" y="446" width="459.73" height="22" fill="#4c78a8" rx="3"/>
<text x="647.73" y="462" class="value">155.04</text>
<text x="10" y="494" class="label">easyanticheat.net</text>
<rect x="180" y="478" width="580.0" height="22" fill="#4c78a8" rx="3"/>
<text x="768.0" y="494" class="value">195.60</text>
<line x1="180" y1="30" x2="180" y2="520" stroke="#ccc"/>
<line x1="180" y1="520" x2="760" y2="520" stroke="#ccc"/>
</svg>