<svg xmlns="http://www.w3.org/2000/svg" width="800" height="540">
<style> .label{font-family:DejaVu Sans,Verdana,Geneva,sans-serif;font-size:12px;fill:#333} .value{font-family:DejaVu Sans,Verdana,Geneva,sans-serif;font-size:12px;fill:#555} </style>
<text x="10" y="20" class="label">延迟柱状图（越低越好，Top 15），单位 ms</text>
<text x="10" y="46" class="label">rockstargames.com</text>
<rect x="180" y="30" width="124.14" height="22" fill="#4c78a8" rx="3"/>
<text x="312.14" y="46" class="value">57.02</text>
<text x="10" y="78" class="label">eaassets-a.akamaihd.net</text>
<rect x="180" y="62" width="142.87" height="22" fill="#4c78a8" rx="3"/>
<text x="330.87" y="78" class="value">65.62</text>
<text x="10" y="110" class="label">ea.com</text>
<rect x="180" y="94" width="193.36" height="22" fill="#4c78a8" rx="3"/>
<text x="381.36" y="110" class="value">88.81</text>
<text x="10" y="142" class="label">ubisoft.com</text>
<rect x="180" y="126" width="221.55" height="22" fill="#4c78a8" rx="3"/>
<text x="409.55" y="142" class="value">101.76</text>
<text x="10" y="174" class="label">community.akamai.steamstatic.com</text>
<rect x="180" y="158" width="278.7" height="22" fill="#4c78a8" rx="3"/>
<text x="466.7" y="174" class="value">128.01</text>
<text x="10" y="206" class="label">cdn.akamai.steamstatic.com</text>
<rect x="180" y="190" width="281.2" height="22" fill="#4c78a8" rx="3"/>
<text x="469.2" y="206" class="value">129.16</text>
<text x="10" y="238" class="label">steamcdn-a.akamaihd.net</text>
<rect x="180" y="222" width="285.21" height="22" fill="#4c78a8" rx="3"/>
<text x="473.21" y="238" class="value">131.00</text>
<text x="10" y="270" class="label">cdn.cloudflare.steamstatic.com</text>
<rect x="180" y="254" width="288.28" height="22" fill="#4c78a8" rx="3"/>
<text x="476.28" y="270" class="value">132.41</text>
<text x="10" y="302" class="label">store.akamai.steamstatic.com</text>
<rect x="180" y="286" width="363.02" height="22" fill="#4c78a8" rx="3"/>
<text x="551.02" y="302" class="value">166.74</text>
<text x="10" y="334" class="label">easyanticheat.net</text>
<rect x="180" y="318" width="395.57" height="22" fill="#4c78a8" rx="3"/>
<text x="583.5699999999999" y="334" class="value">181.69</text>
<text x="10" y="366" class="label">steam-chat.com</text>
<rect x="180" y="350" width="414.01" height="22" fill="#4c78a8" rx="3"/>
<text x="602.01" y="366" class="value">190.16</text>
<text x="10" y="398" class="label">origin.com</text>
<rect x="180" y="382" width="479.22" height="22" fill="#4c78a8" rx="3"/>
<text x="667.22" y="398" class="value">220.11</text>
<text x="10" y="430" class="label">launcher-public-service-prod06.ol.epicgames.com</text>
<rect x="180" y="414" width="526.9" height="22" fill="#4c78a8" rx="3"/>
<text x="714.9" y="430" class="value">242.01</text>
<text x="10" y="462" class="label">api.steampowered.com</text>
<rect x="180" y="446" width="548.17" height="22" fill="#4c78a8" rx="3"/>
<text x="736.17" y="462" class="value">251.78</text>
<text x="10" y="494" class="label">www.steamcommunity.com</text>
<rect x="180" y="478" width="580.0" height="22" fill="#4c78a8" rx="3"/>
<text x="768.0" y="494" class="value">266.40</text>
<line x1="180" y1="30" x2="180" y2="520" stroke="#ccc"/>
<line x1="180" y1="520" x2="760" y2="520" stroke="#ccc"/>
</svg>