<svg xmlns="http://www.w3.org/2000/svg" width="800" height="540">
<style> .label{font-family:DejaVu Sans,Verdana,Geneva,sans-serif;font-size:12px;fill:#333} .value{font-family:DejaVu Sans,Verdana,Geneva,sans-serif;font-size:12px;fill:#555} </style>
<text x="10" y="20" class="label">延迟柱状图（越低越好，Top 15），单位 ms</text>
<text x="10" y="46" class="label">rockstargames.com</text>
<rect x="180" y="30" width="69.49" height="22" fill="#4c78a8" rx="3"/>
<text x="257.49" y="46" class="value">32.17</text>
<text x="10" y="78" class="label">eaassets-a.akamaihd.net</text>
<rect x="180" y="62" width="98.72" height="22" fill="#4c78a8" rx="3"/>
<text x="286.72" y="78" class="value">45.70</text>
<text x="10" y="110" class="label">ea.com</text>
<rect x="180" y="94" width="140.43" height="22" fill="#4c78a8" rx="3"/>
<text x="328.43" y="110" class="value">65.01</text>
<text x="10" y="142" class="label">origin.com</text>
<rect x="180" y="126" width="215.06" height="22" fill="#4c78a8" rx="3"/>
<text x="403.06" y="142" class="value">99.56</text>
<text x="10" y="174" class="label">steamcdn-a.akamaihd.net</text>
<rect x="180" y="158" width="245.38" height="22" fill="#4c78a8" rx="3"/>
<text x="433.38" y="174" class="value">113.60</text>
<text x="10" y="206" class="label">ubisoft.com</text>
<rect x="180" y="190" width="263.23" height="22" fill="#4c78a8" rx="3"/>
<text x="451.23" y="206" class="value">121.86</text>
<text x="10" y="238" class="label">easyanticheat.net</text>
<rect x="180" y="222" width="271.69" height="22" fill="#4c78a8" rx="3"/>
<text x="459.69" y="238" class="value">125.78</text>
<text x="10" y="270" class="label">store.akamai.steamstatic.com</text>
<rect x="180" y="254" width="334.01" height="22" fill="#4c78a8" rx="3"/>
<text x="522.01" y="270" class="value">154.63</text>
<text x="10" y="302" class="label">cdn.akamai.steamstatic.com</text>
<rect x="180" y="286" width="347.1" height="22" fill="#4c78a8" rx="3"/>
<text x="535.1" y="302" class="value">160.69</text>
<text x="10" y="334" class="label">cdn.cloudflare.steamstatic.com</text>
<rect x="180" y="318" width="454.76" height="22" fill="#4c78a8" rx="3"/>
<text x="642.76" y="334" class="value">210.53</text>
<text x="10" y="366" class="label">www.steamcommunity.com</text>
<rect x="180" y="350" width="493.21" height="22" fill="#4c78a8" rx="3"/>
<text x="681.21" y="366" class="value">228.33</text>
<text x="10" y="398" class="label">api.steampowered.com</text>
<rect x="180" y="382" width="499.41" height="22" fill="#4c78a8" rx="3"/>
<text x="687.4100000000001" y="398" class="value">231.20</text>
<text x="10" y="430" class="label">community.akamai.steamstatic.com</text>
<rect x="180" y="414" width="527.92" height="22" fill="#4c78a8" rx="3"/>
<text x="715.92" y="430" class="value">244.40</text>
<text x="10" y="462" class="label">steam-chat.com</text>
<rect x="180" y="446" width="535.39" height="22" fill="#4c78a8" rx="3"/>
<text x="723.39" y="462" class="value">247.86</text>
<text x="10" y="494" class="label">launcher-public-service-prod06.ol.epicgames.com</text>
<rect x="180" y="478" width="580.0" height="22" fill="#4c78a8" rx="3"/>
<text x="768.0" y="494" class="value">268.51</text>
<line x1="180" y1="30" x2="180" y2="520" stroke="#ccc"/>
<line x1="180" y1="520" x2="760" y2="520" stroke="#ccc"/>
</svg>