<svg xmlns="http://www.w3.org/2000/svg" width="800" height="540">
<style> .label{font-family:DejaVu Sans,Verdana,Geneva,sans-serif;font-size:12px;fill:#333} .value{font-family:DejaVu Sans,Verdana,Geneva,sans-serif;font-size:12px;fill:#555} </style>
<text x="10" y="20" class="label">延迟柱状图（越低越好，Top 15），单位 ms</text>
<text x="10" y="46" class="label">rockstargames.com</text>
<rect x="180" y="30" width="173.49" height="22" fill="#4c78a8" rx="3"/>
<text x="361.49" y="46" class="value">47.87</text>
<text x="10" y="78" class="label">eaassets-a.akamaihd.net</text>
<rect x="180" y="62" width="223.1" height="22" fill="#4c78a8" rx="3"/>
<text x="411.1" y="78" class="value">61.56</text>
<text x="10" y="110" class="label">socialclub.rockstargames.com</text>
<rect x="180" y="94" width="306.05" height="22" fill="#4c78a8" rx="3"/>
<text x="494.05" y="110" class="value">84.45</text>
<text x="10" y="142" class="label">ubi.com</text>
<rect x="180" y="126" width="325.04" height="22" fill="#4c78a8" rx="3"/>
<text x="513.04" y="142" class="value">89.69</text>
<text x="10" y="174" class="label">battle.net</text>
<rect x="180" y="158" width="327.11" height="22" fill="#4c78a8" rx="3"/>
<text x="515.11" y="174" class="value">90.26</text>
<text x="10" y="206" class="label">blizzard.com</text>
<rect x="180" y="190" width="363.28" height="22" fill="#4c78a8" rx="3"/>
<text x="551.28" y="206" class="value">100.24</text>
<text x="10" y="238" class="label">cdn.cloudflare.steamstatic.com</text>
<rect x="180" y="222" width="371.69" height="22" fill="#4c78a8" rx="3"/>
<text x="559.69" y="238" class="value">102.56</text>
<text x="10" y="270" class="label">steamcdn-a.akamaihd.net</text>
<rect x="180" y="254" width="376.51" height="22" fill="#4c78a8" rx="3"/>
<text x="564.51" y="270" class="value">103.89</text>
<text x="10" y="302" class="label">origin.com</text>
<rect x="180" y="286" width="400.9" height="22" fill="#4c78a8" rx="3"/>
<text x="588.9" y="302" class="value">110.62</text>
<text x="10" y="334" class="label">unrealengine.com</text>
<rect x="180" y="318" width="448.19" height="22" fill="#4c78a8" rx="3"/>
<text x="636.19" y="334" class="value">123.67</text>
<text x="10" y="366" class="label">ea.com</text>
<rect x="180" y="350" width="473.2" height="22" fill="#4c78a8" rx="3"/>
<text x="661.2" y="366" class="value">130.57</text>
<text x="10" y="398" class="label">cdn.akamai.steamstatic.com</text>
<rect x="180" y="382" width="485.08" height="22" fill="#4c78a8" rx="3"/>
<text x="673.0799999999999" y="398" class="value">133.85</text>
<text x="10" y="430" class="label">ubisoft.com</text>
<rect x="180" y="414" width="545.79" height="22" fill="#4c78a8" rx="3"/>
<text x="733.79" y="430" class="value">150.60</text>
<text x="10" y="462" class="label">fortnite.com</text>
<rect x="180" y="446" width="574.71" height="22" fill="#4c78a8" rx="3"/>
<text x="762.71" y="462" class="value">158.58</text>
<text x="10" y="494" class="label">epicgames.com</text>
<rect x="180" y="478" width="580.0" height="22" fill="#4c78a8" rx="3"/>
<text x="768.0" y="494" class="value">160.04</text>
<line x1="180" y1="30" x2="180" y2="520" stroke="#ccc"/>
<line x1="180" y1="520" x2="760" y2="520" stroke="#ccc"/>
</svg>