<svg xmlns="http://www.w3.org/2000/svg" width="800" height="540">
<style> .label{font-family:DejaVu Sans,Verdana,Geneva,sans-serif;font-size:12px;fill:#333} .value{font-family:DejaVu Sans,Verdana,Geneva,sans-serif;font-size:12px;fill:#555} </style>
<text x="10" y="20" class="label">延迟柱状图（越低越好，Top 15），单位 ms</text>
<text x="10" y="46" class="label">rockstargames.com</text>
<rect x="180" y="30" width="234.22" height="22" fill="#4c78a8" rx="3"/>
<text x="422.22" y="46" class="value">110.86</text>
<text x="10" y="78" class="label">community.akamai.steamstatic.com</text>
<rect x="180" y="62" width="247.58" height="22" fill="#4c78a8" rx="3"/>
<text x="435.58000000000004" y="78" class="value">117.18</text>
<text x="10" y="110" class="label">ubisoft.com</text>
<rect x="180" y="94" width="307.75" height="22" fill="#4c78a8" rx="3"/>
<text x="495.75" y="110" class="value">145.66</text>
<text x="10" y="142" class="label">eaassets-a.akamaihd.net</text>
<rect x="180" y="126" width="324.06" height="22" fill="#4c78a8" rx="3"/>
<text x="512.06" y="142" class="value">153.38</text>
<text x="10" y="174" class="label">cdn.cloudflare.steamstatic.com</text>
<rect x="180" y="158" width="350.68" height="22" fill="#4c78a8" rx="3"/>
<text x="538.6800000000001" y="174" class="value">165.98</text>
<text x="10" y="206" class="label">easyanticheat.net</text>
<rect x="180" y="190" width="417.68" height="22" fill="#4c78a8" rx="3"/>
<text x="605.6800000000001" y="206" class="value">197.69</text>
<text x="10" y="238" class="label">ea.com</text>
<rect x="180" y="222" width="433.82" height="22" fill="#4c78a8" rx="3"/>
<text x="621.8199999999999" y="238" class="value">205.33</text>
<text x="10" y="270" class="label">blizzard.com</text>
<rect x="180" y="254" width="446.77" height="22" fill="#4c78a8" rx="3"/>
<text x="634.77" y="270" class="value">211.46</text>
<text x="10" y="302" class="label">store.akamai.steamstatic.com</text>
<rect x="180" y="286" width="450.11" height="22" fill="#4c78a8" rx="3"/>
<text x="638.11" y="302" class="value">213.04</text>
<text x="10" y="334" class="label">steamcdn-a.akamaihd.net</text>
<rect x="180" y="318" width="457.84" height="22" fill="#4c78a8" rx="3"/>
<text x="645.8399999999999" y="334" class="value">216.70</text>
<text x="10" y="366" class="label">ubi.com</text>
<rect x="180" y="350" width="470.71" height="22" fill="#4c78a8" rx="3"/>
<text x="658.71" y="366" class="value">222.79</text>
<text x="10" y="398" class="label">battle.net</text>
<rect x="180" y="382" width="475.29" height="22" fill="#4c78a8" rx="3"/>
<text x="663.29" y="398" class="value">224.96</text>
<text x="10" y="430" class="label">socialclub.rockstargames.com</text>
<rect x="180" y="414" width="497.83" height="22" fill="#4c78a8" rx="3"/>
<text x="685.8299999999999" y="430" class="value">235.63</text>
<text x="10" y="462" class="label">unrealengine.com</text>
<rect x="180" y="446" width="558.96" height="22" fill="#4c78a8" rx="3"/>
<text x="746.96" y="462" class="value">264.56</text>
<text x="10" y="494" class="label">api.steampowered.com</text>
<rect x="180" y="478" width="580.0" height="22" fill="#4c78a8" rx="3"/>
<text x="768.0" y="494" class="value">274.52</text>
<line x1="180" y1="30" x2="180" y2="520" stroke="#ccc"/>
<line x1="180" y1="520" x2="760" y2="520" stroke="#ccc"/>
</svg>