<svg xmlns="http://www.w3.org/2000/svg" width="800" height="540">
<style> .label{font-family:DejaVu Sans,Verdana,Geneva,sans-serif;font-size:12px;fill:#333} .value{font-family:DejaVu Sans,Verdana,Geneva,sans-serif;font-size:12px;fill:#555} </style>
<text x="10" y="20" class="label">延迟柱状图（越低越好，Top 15），单位 ms</text>
<text x="10" y="46" class="label">rockstargames.com</text>
<rect x="180" y="30" width="138.36" height="22" fill="#4c78a8" rx="3"/>
<text x="326.36" y="46" class="value">50.08</text>
<text x="10" y="78" class="label">eaassets-a.akamaihd.net</text>
<rect x="180" y="62" width="219.55" height="22" fill="#4c78a8" rx="3"/>
<text x="407.55" y="78" class="value">79.47</text>
<text x="10" y="110" class="label">socialclub.rockstargames.com</text>
<rect x="180" y="94" width="246.63" height="22" fill="#4c78a8" rx="3"/>
<text x="434.63" y="110" class="value">89.27</text>
<text x="10" y="142" class="label">epicgames.com</text>
<rect x="180" y="126" width="253.2" height="22" fill="#4c78a8" rx="3"/>
<text x="441.2" y="142" class="value">91.65</text>
<text x="10" y="174" class="label">battle.net</text>
<rect x="180" y="158" width="295.44" height="22" fill="#4c78a8" rx="3"/>
<text x="483.44" y="174" class="value">106.94</text>
<text x="10" y="206" class="label">blizzard.com</text>
<rect x="180" y="190" width="296.55" height="22" fill="#4c78a8" rx="3"/>
<text x="484.55" y="206" class="value">107.34</text>
<text x="10" y="238" class="label">ea.com</text>
<rect x="180" y="222" width="337.71" height="22" fill="#4c78a8" rx="3"/>
<text x="525.71" y="238" class="value">122.24</text>
<text x="10" y="270" class="label">ubi.com</text>
<rect x="180" y="254" width="365.37" height="22" fill="#4c78a8" rx="3"/>
<text x="553.37" y="270" class="value">132.25</text>
<text x="10" y="302" class="label">static3.cdn.ubi.com</text>
<rect x="180" y="286" width="441.04" height="22" fill="#4c78a8" rx="3"/>
<text x="629.04" y="302" class="value">159.64</text>
<text x="10" y="334" class="label">unrealengine.com</text>
<rect x="180" y="318" width="465.68" height="22" fill="#4c78a8" rx="3"/>
<text x="653.6800000000001" y="334" class="value">168.56</text>
<text x="10" y="366" class="label">cdn.akamai.steamstatic.com</text>
<rect x="180" y="350" width="478.94" height="22" fill="#4c78a8" rx="3"/>
<text x="666.94" y="366" class="value">173.36</text>
<text x="10" y="398" class="label">ubisoft.com</text>
<rect x="180" y="382" width="481.57" height="22" fill="#4c78a8" rx="3"/>
<text x="669.5699999999999" y="398" class="value">174.31</text>
<text x="10" y="430" class="label">origin.com</text>
<rect x="180" y="414" width="548.92" height="22" fill="#4c78a8" rx="3"/>
<text x="736.92" y="430" class="value">198.69</text>
<text x="10" y="462" class="label">fortnite.com</text>
<rect x="180" y="446" width="555.66" height="22" fill="#4c78a8" rx="3"/>
<text x="743.66" y="462" class="value">201.13</text>
<text x="10" y="494" class="label">community.akamai.steamstatic.com</text>
<rect x="180" y="478" width="580.0" height="22" fill="#4c78a8" rx="3"/>
<text x="768.0" y="494" class="value">209.94</text>
<line x1="180" y1="30" x2="180" y2="520" stroke="#ccc"/>
<line x1="180" y1="520" x2="760" y2="520" stroke="#ccc"/>
</svg>