<svg xmlns="http://www.w3.org/2000/svg" width="800" height="540">
<style> .label{font-family:DejaVu Sans,Verdana,Geneva,sans-serif;font-size:12px;fill:#333} .value{font-family:DejaVu Sans,Verdana,Geneva,sans-serif;font-size:12px;fill:#555} </style>
<text x="10" y="20" class="label">延迟柱状图（越低越好，Top 15），单位 ms</text>
<text x="10" y="46" class="label">rockstargames.com</text>
<rect x="180" y="30" width="196.07" height="22" fill="#4c78a8" rx="3"/>
<text x="384.07" y="46" class="value">73.68</text>
<text x="10" y="78" class="label">blizzard.com</text>
<rect x="180" y="62" width="205.17" height="22" fill="#4c78a8" rx="3"/>
<text x="393.16999999999996" y="78" class="value">77.10</text>
<text x="10" y="110" class="label">battle.net</text>
<rect x="180" y="94" width="215.33" height="22" fill="#4c78a8" rx="3"/>
<text x="403.33000000000004" y="110" class="value">80.92</text>
<text x="10" y="142" class="label">socialclub.rockstargames.com</text>
<rect x="180" y="126" width="227.92" height="22" fill="#4c78a8" rx="3"/>
<text x="415.91999999999996" y="142" class="value">85.65</text>
<text x="10" y="174" class="label">ea.com</text>
<rect x="180" y="158" width="282.07" height="22" fill="#4c78a8" rx="3"/>
<text x="470.07" y="174" class="value">106.00</text>
<text x="10" y="206" class="label">ubi.com</text>
<rect x="180" y="190" width="293.17" height="22" fill="#4c78a8" rx="3"/>
<text x="481.17" y="206" class="value">110.17</text>
<text x="10" y="238" class="label">eaassets-a.akamaihd.net</text>
<rect x="180" y="222" width="297.56" height="22" fill="#4c78a8" rx="3"/>
<text x="485.56" y="238" class="value">111.82</text>
<text x="10" y="270" class="label">ubisoft.com</text>
<rect x="180" y="254" width="331.41" height="22" fill="#4c78a8" rx="3"/>
<text x="519.4100000000001" y="270" class="value">124.54</text>
<text x="10" y="302" class="label">unrealengine.com</text>
<rect x="180" y="286" width="352.11" height="22" fill="#4c78a8" rx="3"/>
<text x="540.11" y="302" class="value">132.32</text>
<text x="10" y="334" class="label">origin.com</text>
<rect x="180" y="318" width="382.36" height="22" fill="#4c78a8" rx="3"/>
<text x="570.36" y="334" class="value">143.69</text>
<text x="10" y="366" class="label">epicgames.com</text>
<rect x="180" y="350" width="407.51" height="22" fill="#4c78a8" rx="3"/>
<text x="595.51" y="366" class="value">153.14</text>
<text x="10" y="398" class="label">fortnite.com</text>
<rect x="180" y="382" width="466.69" height="22" fill="#4c78a8" rx="3"/>
<text x="654.69" y="398" class="value">175.38</text>
<text x="10" y="430" class="label">community.akamai.steamstatic.com</text>
<rect x="180" y="414" width="480.26" height="22" fill="#4c78a8" rx="3"/>
<text x="668.26" y="430" class="value">180.48</text>
<text x="10" y="462" class="label">steamcdn-a.akamaihd.net</text>
<rect x="180" y="446" width="544.32" height="22" fill="#4c78a8" rx="3"/>
<text x="732.32" y="462" class="value">204.55</text>
<text x="10" y="494" class="label">cdn.akamai.steamstatic.com</text>
<rect x="180" y="478" width="580.0" height="22" fill="#4c78a8" rx="3"/>
<text x="768.0" y="494" class="value">217.96</text>
<line x1="180" y1="30" x2="180" y2="520" stroke="#ccc"/>
<line x1="180" y1="520" x2="760" y2="520" stroke="#ccc"/>
</svg>