<svg xmlns="http://www.w3.org/2000/svg" width="800" height="540">
<style> .label{font-family:DejaVu Sans,Verdana,Geneva,sans-serif;font-size:12px;fill:#333} .value{font-family:DejaVu Sans,Verdana,Geneva,sans-serif;font-size:12px;fill:#555} </style>
<text x="10" y="20" class="label">延迟柱状图（越低越好，Top 15），单位 ms</text>
<text x="10" y="46" class="label">rockstargames.com</text>
<rect x="180" y="30" width="96.62" height="22" fill="#4c78a8" rx="3"/>
<text x="284.62" y="46" class="value">44.68</text>
<text x="10" y="78" class="label">ea.com</text>
<rect x="180" y="62" width="151.21" height="22" fill="#4c78a8" rx="3"/>
<text x="339.21000000000004" y="78" class="value">69.92</text>
<text x="10" y="110" class="label">community.akamai.steamstatic.com</text>
<rect x="180" y="94" width="161.93" height="22" fill="#4c78a8" rx="3"/>
<text x="349.93" y="110" class="value">74.88</text>
<text x="10" y="142" class="label">origin.com</text>
<rect x="180" y="126" width="176.79" height="22" fill="#4c78a8" rx="3"/>
<text x="364.78999999999996" y="142" class="value">81.75</text>
<text x="10" y="174" class="label">eaassets-a.akamaihd.net</text>
<rect x="180" y="158" width="185.55" height="22" fill="#4c78a8" rx="3"/>
<text x="373.55" y="174" class="value">85.80</text>
<text x="10" y="206" class="label">cdn.cloudflare.steamstatic.com</text>
<rect x="180" y="190" width="257.97" height="22" fill="#4c78a8" rx="3"/>
<text x="445.97" y="206" class="value">119.29</text>
<text x="10" y="238" class="label">store.akamai.steamstatic.com</text>
<rect x="180" y="222" width="258.34" height="22" fill="#4c78a8" rx="3"/>
<text x="446.34" y="238" class="value">119.46</text>
<text x="10" y="270" class="label">ubisoft.com</text>
<rect x="180" y="254" width="270.73" height="22" fill="#4c78a8" rx="3"/>
<text x="458.73" y="270" class="value">125.19</text>
<text x="10" y="302" class="label">steamcdn-a.akamaihd.net</text>
<rect x="180" y="286" width="286.84" height="22" fill="#4c78a8" rx="3"/>
<text x="474.84" y="302" class="value">132.64</text>
<text x="10" y="334" class="label">api.steampowered.com</text>
<rect x="180" y="318" width="307.8" height="22" fill="#4c78a8" rx="3"/>
<text x="495.8" y="334" class="value">142.33</text>
<text x="10" y="366" class="label">easyanticheat.net</text>
<rect x="180" y="350" width="320.34" height="22" fill="#4c78a8" rx="3"/>
<text x="508.34" y="366" class="value">148.13</text>
<text x="10" y="398" class="label">cdn.akamai.steamstatic.com</text>
<rect x="180" y="382" width="349.02" height="22" fill="#4c78a8" rx="3"/>
<text x="537.02" y="398" class="value">161.39</text>
<text x="10" y="430" class="label">www.steamcommunity.com</text>
<rect x="180" y="414" width="511.3" height="22" fill="#4c78a8" rx="3"/>
<text x="699.3" y="430" class="value">236.43</text>
<text x="10" y="462" class="label">launcher-public-service-prod06.ol.epicgames.com</text>
<rect x="180" y="446" width="530.04" height="22" fill="#4c78a8" rx="3"/>
<text x="718.04" y="462" class="value">245.10</text>
<text x="10" y="494" class="label">steam-chat.com</text>
<rect x="180" y="478" width="580.0" height="22" fill="#4c78a8" rx="3"/>
<text x="768.0" y="494" class="value">268.20</text>
<line x1="180" y1="30" x2="180" y2="520" stroke="#ccc"/>
<line x1="180" y1="520" x2="760" y2="520" stroke="#ccc"/>
</svg>