<svg xmlns="http://www.w3.org/2000/svg" width="800" height="540">
<style> .label{font-family:DejaVu Sans,Verdana,Geneva,sans-serif;font-size:12px;fill:#333} .value{font-family:DejaVu Sans,Verdana,Geneva,sans-serif;font-size:12px;fill:#555} </style>
<text x="10" y="20" class="label">延迟柱状图（越低越好，Top 15），单位 ms</text>
<text x="10" y="46" class="label">rockstargames.com</text>
<rect x="180" y="30" width="157.8" height="22" fill="#4c78a8" rx="3"/>
<text x="345.8" y="46" class="value">60.87</text>
<text x="10" y="78" class="label">ubi.com</text>
<rect x="180" y="62" width="233.06" height="22" fill="#4c78a8" rx="3"/>
<text x="421.06" y="78" class="value">89.90</text>
<text x="10" y="110" class="label">socialclub.rockstargames.com</text>
<rect x="180" y="94" width="234.82" height="22" fill="#4c78a8" rx="3"/>
<text x="422.82" y="110" class="value">90.58</text>
<text x="10" y="142" class="label">eaassets-a.akamaihd.net</text>
<rect x="180" y="126" width="269.38" height="22" fill="#4c78a8" rx="3"/>
<text x="457.38" y="142" class="value">103.91</text>
<text x="10" y="174" class="label">ea.com</text>
<rect x="180" y="158" width="315.81" height="22" fill="#4c78a8" rx="3"/>
<text x="503.81" y="174" class="value">121.82</text>
<text x="10" y="206" class="label">cdn.cloudflare.steamstatic.com</text>
<rect x="180" y="190" width="345.52" height="22" fill="#4c78a8" rx="3"/>
<text x="533.52" y="206" class="value">133.28</text>
<text x="10" y="238" class="label">gog.com</text>
<rect x="180" y="222" width="419.24" height="22" fill="#4c78a8" rx="3"/>
<text x="607.24" y="238" class="value">161.72</text>
<text x="10" y="270" class="label">ubisoft.com</text>
<rect x="180" y="254" width="432.57" height="22" fill="#4c78a8" rx="3"/>
<text x="620.5699999999999" y="270" class="value">166.86</text>
<text x="10" y="302" class="label">epicgames.com</text>
<rect x="180" y="286" width="526.67" height="22" fill="#4c78a8" rx="3"/>
<text x="714.67" y="302" class="value">203.16</text>
<text x="10" y="334" class="label">fortnite.com</text>
<rect x="180" y="318" width="526.73" height="22" fill="#4c78a8" rx="3"/>
<text x="714.73" y="334" class="value">203.18</text>
<text x="10" y="366" class="label">store.akamai.steamstatic.com</text>
<rect x="180" y="350" width="550.84" height="22" fill="#4c78a8" rx="3"/>
<text x="738.84" y="366" class="value">212.48</text>
<text x="10" y="398" class="label">steam-chat.com</text>
<rect x="180" y="382" width="554.65" height="22" fill="#4c78a8" rx="3"/>
<text x="742.65" y="398" class="value">213.95</text>
<text x="10" y="430" class="label">www.steamcommunity.com</text>
<rect x="180" y="414" width="566.47" height="22" fill="#4c78a8" rx="3"/>
<text x="754.47" y="430" class="value">218.51</text>
<text x="10" y="462" class="label">static3.cdn.ubi.com</text>
<rect x="180" y="446" width="569.63" height="22" fill="#4c78a8" rx="3"/>
<text x="757.63" y="462" class="value">219.73</text>
<text x="10" y="494" class="label">unrealengine.com</text>
<rect x="180" y="478" width="580.0" height="22" fill="#4c78a8" rx="3"/>
<text x="768.0" y="494" class="value">223.73</text>
<line x1="180" y1="30" x2="180" y2="520" stroke="#ccc"/>
<line x1="180" y1="520" x2="760" y2="520" stroke="#ccc"/>
</svg>