<svg xmlns="http://www.w3.org/2000/svg" width="800" height="540">
<style> .label{font-family:DejaVu Sans,Verdana,Geneva,sans-serif;font-size:12px;fill:#333} .value{font-family:DejaVu Sans,Verdana,Geneva,sans-serif;font-size:12px;fill:#555} </style>
<text x="10" y="20" class="label">延迟柱状图（越低越好，Top 15），单位 ms</text>
<text x="10" y="46" class="label">rockstargames.com</text>
<rect x="180" y="30" width="152.17" height="22" fill="#4c78a8" rx="3"/>
<text x="340.16999999999996" y="46" class="value">57.97</text>
<text x="10" y="78" class="label">eaassets-a.akamaihd.net</text>
<rect x="180" y="62" width="176.5" height="22" fill="#4c78a8" rx="3"/>
<text x="364.5" y="78" class="value">67.24</text>
<text x="10" y="110" class="label">blizzard.com</text>
<rect x="180" y="94" width="178.63" height="22" fill="#4c78a8" rx="3"/>
<text x="366.63" y="110" class="value">68.05</text>
<text x="10" y="142" class="label">battle.net</text>
<rect x="180" y="126" width="224.46" height="22" fill="#4c78a8" rx="3"/>
<text x="412.46000000000004" y="142" class="value">85.51</text>
<text x="10" y="174" class="label">socialclub.rockstargames.com</text>
<rect x="180" y="158" width="253.78" height="22" fill="#4c78a8" rx="3"/>
<text x="441.78" y="174" class="value">96.68</text>
<text x="10" y="206" class="label">ubisoft.com</text>
<rect x="180" y="190" width="259.45" height="22" fill="#4c78a8" rx="3"/>
<text x="447.45" y="206" class="value">98.84</text>
<text x="10" y="238" class="label">unrealengine.com</text>
<rect x="180" y="222" width="264.43" height="22" fill="#4c78a8" rx="3"/>
<text x="452.43" y="238" class="value">100.74</text>
<text x="10" y="270" class="label">cdn.cloudflare.steamstatic.com</text>
<rect x="180" y="254" width="317.12" height="22" fill="#4c78a8" rx="3"/>
<text x="505.12" y="270" class="value">120.81</text>
<text x="10" y="302" class="label">ubi.com</text>
<rect x="180" y="286" width="329.98" height="22" fill="#4c78a8" rx="3"/>
<text x="517.98" y="302" class="value">125.71</text>
<text x="10" y="334" class="label">fortnite.com</text>
<rect x="180" y="318" width="349.4" height="22" fill="#4c78a8" rx="3"/>
<text x="537.4" y="334" class="value">133.11</text>
<text x="10" y="366" class="label">epicgames.com</text>
<rect x="180" y="350" width="361.61" height="22" fill="#4c78a8" rx="3"/>
<text x="549.61" y="366" class="value">137.76</text>
<text x="10" y="398" class="label">ea.com</text>
<rect x="180" y="382" width="372.87" height="22" fill="#4c78a8" rx="3"/>
<text x="560.87" y="398" class="value">142.05</text>
<text x="10" y="430" class="label">gog.com</text>
<rect x="180" y="414" width="469.1" height="22" fill="#4c78a8" rx="3"/>
<text x="657.1" y="430" class="value">178.71</text>
<text x="10" y="462" class="label">community.akamai.steamstatic.com</text>
<rect x="180" y="446" width="504.74" height="22" fill="#4c78a8" rx="3"/>
<text x="692.74" y="462" class="value">192.29</text>
<text x="10" y="494" class="label">origin.com</text>
<rect x="180" y="478" width="580.0" height="22" fill="#4c78a8" rx="3"/>
<text x="768.0" y="494" class="value">220.96</text>
<line x1="180" y1="30" x2="180" y2="520" stroke="#ccc"/>
<line x1="180" y1="520" x2="760" y2="520" stroke="#ccc"/>
</svg>