<svg xmlns="http://www.w3.org/2000/svg" width="800" height="540">
<style> .label{font-family:DejaVu Sans,Verdana,Geneva,sans-serif;font-size:12px;fill:#333} .value{font-family:DejaVu Sans,Verdana,Geneva,sans-serif;font-size:12px;fill:#555} </style>
<text x="10" y="20" class="label">延迟柱状图（越低越好，Top 15），单位 ms</text>
<text x="10" y="46" class="label">rockstargames.com</text>
<rect x="180" y="30" width="181.13" height="22" fill="#4c78a8" rx="3"/>
<text x="369.13" y="46" class="value">62.57</text>
<text x="10" y="78" class="label">socialclub.rockstargames.com</text>
<rect x="180" y="62" width="263.19" height="22" fill="#4c78a8" rx="3"/>
<text x="451.19" y="78" class="value">90.92</text>
<text x="10" y="110" class="label">ubisoft.com</text>
<rect x="180" y="94" width="266.38" height="22" fill="#4c78a8" rx="3"/>
<text x="454.38" y="110" class="value">92.02</text>
<text x="10" y="142" class="label">eaassets-a.akamaihd.net</text>
<rect x="180" y="126" width="315.91" height="22" fill="#4c78a8" rx="3"/>
<text x="503.91" y="142" class="value">109.13</text>
<text x="10" y="174" class="label">battle.net</text>
<rect x="180" y="158" width="318.75" height="22" fill="#4c78a8" rx="3"/>
<text x="506.75" y="174" class="value">110.11</text>
<text x="10" y="206" class="label">blizzard.com</text>
<rect x="180" y="190" width="333.57" height="22" fill="#4c78a8" rx="3"/>
<text x="521.5699999999999" y="206" class="value">115.23</text>
<text x="10" y="238" class="label">store.akamai.steamstatic.com</text>
<rect x="180" y="222" width="334.41" height="22" fill="#4c78a8" rx="3"/>
<text x="522.4100000000001" y="238" class="value">115.52</text>
<text x="10" y="270" class="label">ubi.com</text>
<rect x="180" y="254" width="348.19" height="22" fill="#4c78a8" rx="3"/>
<text x="536.19" y="270" class="value">120.28</text>
<text x="10" y="302" class="label">ea.com</text>
<rect x="180" y="286" width="370.76" height="22" fill="#4c78a8" rx="3"/>
<text x="558.76" y="302" class="value">128.08</text>
<text x="10" y="334" class="label">easyanticheat.net</text>
<rect x="180" y="318" width="407.3" height="22" fill="#4c78a8" rx="3"/>
<text x="595.3" y="334" class="value">140.70</text>
<text x="10" y="366" class="label">community.akamai.steamstatic.com</text>
<rect x="180" y="350" width="483.49" height="22" fill="#4c78a8" rx="3"/>
<text x="671.49" y="366" class="value">167.02</text>
<text x="10" y="398" class="label">unrealengine.com</text>
<rect x="180" y="382" width="505.34" height="22" fill="#4c78a8" rx="3"/>
<text x="693.3399999999999" y="398" class="value">174.57</text>
<text x="10" y="430" class="label">cdn.cloudflare.steamstatic.com</text>
<rect x="180" y="414" width="507.51" height="22" fill="#4c78a8" rx="3"/>
<text x="695.51" y="430" class="value">175.32</text>
<text x="10" y="462" class="label">epicgames.com</text>
<rect x="180" y="446" width="549.2" height="22" fill="#4c78a8" rx="3"/>
<text x="737.2" y="462" class="value">189.72</text>
<text x="10" y="494" class="label">origin.com</text>
<rect x="180" y="478" width="580.0" height="22" fill="#4c78a8" rx="3"/>
<text x="768.0" y="494" class="value">200.36</text>
<line x1="180" y1="30" x2="180" y2="520" stroke="#ccc"/>
<line x1="180" y1="520" x2="760" y2="520" stroke="#ccc"/>
</svg>