<svg xmlns="http://www.w3.org/2000/svg" width="800" height="540">
<style> .label{font-family:DejaVu Sans,Verdana,Geneva,sans-serif;font-size:12px;fill:#333} .value{font-family:DejaVu Sans,Verdana,Geneva,sans-serif;font-size:12px;fill:#555} </style>
<text x="10" y="20" class="label">延迟柱状图（越低越好，Top 15），单位 ms</text>
<text x="10" y="46" class="label">rockstargames.com</text>
<rect x="180" y="30" width="159.68" height="22" fill="#4c78a8" rx="3"/>
<text x="347.68" y="46" class="value">60.72</text>
<text x="10" y="78" class="label">eaassets-a.akamaihd.net</text>
<rect x="180" y="62" width="166.26" height="22" fill="#4c78a8" rx="3"/>
<text x="354.26" y="78" class="value">63.22</text>
<text x="10" y="110" class="label">unrealengine.com</text>
<rect x="180" y="94" width="245.31" height="22" fill="#4c78a8" rx="3"/>
<text x="433.31" y="110" class="value">93.28</text>
<text x="10" y="142" class="label">socialclub.rockstargames.com</text>
<rect x="180" y="126" width="263.48" height="22" fill="#4c78a8" rx="3"/>
<text x="451.48" y="142" class="value">100.19</text>
<text x="10" y="174" class="label">blizzard.com</text>
<rect x="180" y="158" width="265.71" height="22" fill="#4c78a8" rx="3"/>
<text x="453.71" y="174" class="value">101.04</text>
<text x="10" y="206" class="label">epicgames.com</text>
<rect x="180" y="190" width="266.98" height="22" fill="#4c78a8" rx="3"/>
<text x="454.98" y="206" class="value">101.52</text>
<text x="10" y="238" class="label">battle.net</text>
<rect x="180" y="222" width="269.21" height="22" fill="#4c78a8" rx="3"/>
<text x="457.21" y="238" class="value">102.37</text>
<text x="10" y="270" class="label">ubi.com</text>
<rect x="180" y="254" width="295.54" height="22" fill="#4c78a8" rx="3"/>
<text x="483.54" y="270" class="value">112.38</text>
<text x="10" y="302" class="label">fortnite.com</text>
<rect x="180" y="286" width="321.62" height="22" fill="#4c78a8" rx="3"/>
<text x="509.62" y="302" class="value">122.30</text>
<text x="10" y="334" class="label">ea.com</text>
<rect x="180" y="318" width="346.32" height="22" fill="#4c78a8" rx="3"/>
<text x="534.3199999999999" y="334" class="value">131.69</text>
<text x="10" y="366" class="label">ubisoft.com</text>
<rect x="180" y="350" width="350.18" height="22" fill="#4c78a8" rx="3"/>
<text x="538.1800000000001" y="366" class="value">133.16</text>
<text x="10" y="398" class="label">store.akamai.steamstatic.com</text>
<rect x="180" y="382" width="403.17" height="22" fill="#4c78a8" rx="3"/>
<text x="591.1700000000001" y="398" class="value">153.31</text>
<text x="10" y="430" class="label">cdn.akamai.steamstatic.com</text>
<rect x="180" y="414" width="447.96" height="22" fill="#4c78a8" rx="3"/>
<text x="635.96" y="430" class="value">170.34</text>
<text x="10" y="462" class="label">origin.com</text>
<rect x="180" y="446" width="471.94" height="22" fill="#4c78a8" rx="3"/>
<text x="659.94" y="462" class="value">179.46</text>
<text x="10" y="494" class="label">community.akamai.steamstatic.com</text>
<rect x="180" y="478" width="580.0" height="22" fill="#4c78a8" rx="3"/>
<text x="768.0" y="494" class="value">220.55</text>
<line x1="180" y1="30" x2="180" y2="520" stroke="#ccc"/>
<line x1="180" y1="520" x2="760" y2="520" stroke="#ccc"/>
</svg>