<svg xmlns="http://www.w3.org/2000/svg" width="800" height="540">
<style> .label{font-family:DejaVu Sans,Verdana,Geneva,sans-serif;font-size:12px;fill:#333} .value{font-family:DejaVu Sans,Verdana,Geneva,sans-serif;font-size:12px;fill:#555} </style>
<text x="10" y="20" class="label">延迟柱状图（越低越好，Top 15），单位 ms</text>
<text x="10" y="46" class="label">rockstargames.com</text>
<rect x="180" y="30" width="189.85" height="22" fill="#4c78a8" rx="3"/>
<text x="377.85" y="46" class="value">57.76</text>
<text x="10" y="78" class="label">socialclub.rockstargames.com</text>
<rect x="180" y="62" width="223.84" height="22" fill="#4c78a8" rx="3"/>
<text x="411.84000000000003" y="78" class="value">68.10</text>
<text x="10" y="110" class="label">blizzard.com</text>
<rect x="180" y="94" width="247.7" height="22" fill="#4c78a8" rx="3"/>
<text x="435.7" y="110" class="value">75.36</text>
<text x="10" y="142" class="label">eaassets-a.akamaihd.net</text>
<rect x="180" y="126" width="335.69" height="22" fill="#4c78a8" rx="3"/>
<text x="523.69" y="142" class="value">102.13</text>
<text x="10" y="174" class="label">battle.net</text>
<rect x="180" y="158" width="341.64" height="22" fill="#4c78a8" rx="3"/>
<text x="529.64" y="174" class="value">103.94</text>
<text x="10" y="206" class="label">ubi.com</text>
<rect x="180" y="190" width="353.4" height="22" fill="#4c78a8" rx="3"/>
<text x="541.4" y="206" class="value">107.52</text>
<text x="10" y="238" class="label">ea.com</text>
<rect x="180" y="222" width="396.63" height="22" fill="#4c78a8" rx="3"/>
<text x="584.63" y="238" class="value">120.67</text>
<text x="10" y="270" class="label">fortnite.com</text>
<rect x="180" y="254" width="399.91" height="22" fill="#4c78a8" rx="3"/>
<text x="587.9100000000001" y="270" class="value">121.67</text>
<text x="10" y="302" class="label">store.akamai.steamstatic.com</text>
<rect x="180" y="286" width="407.31" height="22" fill="#4c78a8" rx="3"/>
<text x="595.31" y="302" class="value">123.92</text>
<text x="10" y="334" class="label">origin.com</text>
<rect x="180" y="318" width="474.75" height="22" fill="#4c78a8" rx="3"/>
<text x="662.75" y="334" class="value">144.44</text>
<text x="10" y="366" class="label">unrealengine.com</text>
<rect x="180" y="350" width="483.79" height="22" fill="#4c78a8" rx="3"/>
<text x="671.79" y="366" class="value">147.19</text>
<text x="10" y="398" class="label">community.akamai.steamstatic.com</text>
<rect x="180" y="382" width="507.1" height="22" fill="#4c78a8" rx="3"/>
<text x="695.1" y="398" class="value">154.28</text>
<text x="10" y="430" class="label">epicgames.com</text>
<rect x="180" y="414" width="514.92" height="22" fill="#4c78a8" rx="3"/>
<text x="702.92" y="430" class="value">156.66</text>
<text x="10" y="462" class="label">steamcdn-a.akamaihd.net</text>
<rect x="180" y="446" width="579.47" height="22" fill="#4c78a8" rx="3"/>
<text x="767.47" y="462" class="value">176.30</text>
<text x="10" y="494" class="label">cdn.akamai.steamstatic.com</text>
<rect x="180" y="478" width="580.0" height="22" fill="#4c78a8" rx="3"/>
<text x="768.0" y="494" class="value">176.46</text>
<line x1="180" y1="30" x2="180" y2="520" stroke="#ccc"/>
<line x1="180" y1="520" x2="760" y2="520" stroke="#ccc"/>
</svg>