<svg xmlns="http://www.w3.org/2000/svg" width="800" height="540">
<style> .label{font-family:DejaVu Sans,Verdana,Geneva,sans-serif;font-size:12px;fill:#333} .value{font-family:DejaVu Sans,Verdana,Geneva,sans-serif;font-size:12px;fill:#555} </style>
<text x="10" y="20" class="label">延迟柱状图（越低越好，Top 15），单位 ms</text>
<text x="10" y="46" class="label">origin.com</text>
<rect x="180" y="30" width="274.61" height="22" fill="#4c78a8" rx="3"/>
<text x="462.61" y="46" class="value">102.48</text>
<text x="10" y="78" class="label">steamcdn-a.akamaihd.net</text>
<rect x="180" y="62" width="316.11" height="22" fill="#4c78a8" rx="3"/>
<text x="504.11" y="78" class="value">117.97</text>
<text x="10" y="110" class="label">eaassets-a.akamaihd.net</text>
<rect x="180" y="94" width="321.87" height="22" fill="#4c78a8" rx="3"/>
<text x="509.87" y="110" class="value">120.12</text>
<text x="10" y="142" class="label">rockstargames.com</text>
<rect x="180" y="126" width="330.96" height="22" fill="#4c78a8" rx="3"/>
<text x="518.96" y="142" class="value">123.51</text>
<text x="10" y="174" class="label">easyanticheat.net</text>
<rect x="180" y="158" width="402.4" height="22" fill="#4c78a8" rx="3"/>
<text x="590.4" y="174" class="value">150.17</text>
<text x="10" y="206" class="label">battle.net</text>
<rect x="180" y="190" width="412.44" height="22" fill="#4c78a8" rx="3"/>
<text x="600.44" y="206" class="value">153.92</text>
<text x="10" y="238" class="label">blizzard.com</text>
<rect x="180" y="222" width="431.55" height="22" fill="#4c78a8" rx="3"/>
<text x="619.55" y="238" class="value">161.05</text>
<text x="10" y="270" class="label">ubi.com</text>
<rect x="180" y="254" width="477.56" height="22" fill="#4c78a8" rx="3"/>
<text x="665.56" y="270" class="value">178.22</text>
<text x="10" y="302" class="label">ea.com</text>
<rect x="180" y="286" width="504.22" height="22" fill="#4c78a8" rx="3"/>
<text x="692.22" y="302" class="value">188.17</text>
<text x="10" y="334" class="label">launcher-public-service-prod06.ol.epicgames.com</text>
<rect x="180" y="318" width="515.9" height="22" fill="#4c78a8" rx="3"/>
<text x="703.9" y="334" class="value">192.53</text>
<text x="10" y="366" class="label">store.akamai.steamstatic.com</text>
<rect x="180" y="350" width="533.94" height="22" fill="#4c78a8" rx="3"/>
<text x="721.94" y="366" class="value">199.26</text>
<text x="10" y="398" class="label">steam-chat.com</text>
<rect x="180" y="382" width="543.83" height="22" fill="#4c78a8" rx="3"/>
<text x="731.83" y="398" class="value">202.95</text>
<text x="10" y="430" class="label">cdn.cloudflare.steamstatic.com</text>
<rect x="180" y="414" width="546.05" height="22" fill="#4c78a8" rx="3"/>
<text x="734.05" y="430" class="value">203.78</text>
<text x="10" y="462" class="label">socialclub.rockstargames.com</text>
<rect x="180" y="446" width="559.98" height="22" fill="#4c78a8" rx="3"/>
<text x="747.98" y="462" class="value">208.98</text>
<text x="10" y="494" class="label">ubisoft.com</text>
<rect x="180" y="478" width="580.0" height="22" fill="#4c78a8" rx="3"/>
<text x="768.0" y="494" class="value">216.45</text>
<line x1="180" y1="30" x2="180" y2="520" stroke="#ccc"/>
<line x1="180" y1="520" x2="760" y2="520" stroke="#ccc"/>
</svg>