<svg xmlns="http://www.w3.org/2000/svg" width="800" height="540">
<style> .label{font-family:DejaVu Sans,Verdana,Geneva,sans-serif;font-size:12px;fill:#333} .value{font-family:DejaVu Sans,Verdana,Geneva,sans-serif;font-size:12px;fill:#555} </style>
<text x="10" y="20" class="label">延迟柱状图（越低越好，Top 15），单位 ms</text>
<text x="10" y="46" class="label">eaassets-a.akamaihd.net</text>
<rect x="180" y="30" width="268.19" height="22" fill="#4c78a8" rx="3"/>
<text x="456.19" y="46" class="value">116.09</text>
<text x="10" y="78" class="label">community.akamai.steamstatic.com</text>
<rect x="180" y="62" width="322.32" height="22" fill="#4c78a8" rx="3"/>
<text x="510.32" y="78" class="value">139.52</text>
<text x="10" y="110" class="label">ea.com</text>
<rect x="180" y="94" width="325.58" height="22" fill="#4c78a8" rx="3"/>
<text x="513.5799999999999" y="110" class="value">140.93</text>
<text x="10" y="142" class="label">ubisoft.com</text>
<rect x="180" y="126" width="355.12" height="22" fill="#4c78a8" rx="3"/>
<text x="543.12" y="142" class="value">153.72</text>
<text x="10" y="174" class="label">store.akamai.steamstatic.com</text>
<rect x="180" y="158" width="363.58" height="22" fill="#4c78a8" rx="3"/>
<text x="551.5799999999999" y="174" class="value">157.38</text>
<text x="10" y="206" class="label">steamcdn-a.akamaihd.net</text>
<rect x="180" y="190" width="391.28" height="22" fill="#4c78a8" rx="3"/>
<text x="579.28" y="206" class="value">169.37</text>
<text x="10" y="238" class="label">cdn.akamai.steamstatic.com</text>
<rect x="180" y="222" width="395.53" height="22" fill="#4c78a8" rx="3"/>
<text x="583.53" y="238" class="value">171.21</text>
<text x="10" y="270" class="label">easyanticheat.net</text>
<rect x="180" y="254" width="424.96" height="22" fill="#4c78a8" rx="3"/>
<text x="612.96" y="270" class="value">183.95</text>
<text x="10" y="302" class="label">rockstargames.com</text>
<rect x="180" y="286" width="436.28" height="22" fill="#4c78a8" rx="3"/>
<text x="624.28" y="302" class="value">188.85</text>
<text x="10" y="334" class="label">cdn.cloudflare.steamstatic.com</text>
<rect x="180" y="318" width="440.46" height="22" fill="#4c78a8" rx="3"/>
<text x="628.46" y="334" class="value">190.66</text>
<text x="10" y="366" class="label">blizzard.com</text>
<rect x="180" y="350" width="449.64" height="22" fill="#4c78a8" rx="3"/>
<text x="637.64" y="366" class="value">194.63</text>
<text x="10" y="398" class="label">static3.cdn.ubi.com</text>
<rect x="180" y="382" width="477.61" height="22" fill="#4c78a8" rx="3"/>
<text x="665.61" y="398" class="value">206.74</text>
<text x="10" y="430" class="label">ubi.com</text>
<rect x="180" y="414" width="486.14" height="22" fill="#4c78a8" rx="3"/>
<text x="674.14" y="430" class="value">210.43</text>
<text x="10" y="462" class="label">api.steampowered.com</text>
<rect x="180" y="446" width="542.32" height="22" fill="#4c78a8" rx="3"/>
<text x="730.32" y="462" class="value">234.75</text>
<text x="10" y="494" class="label">steam-chat.com</text>
<rect x="180" y="478" width="580.0" height="22" fill="#4c78a8" rx="3"/>
<text x="768.0" y="494" class="value">251.06</text>
<line x1="180" y1="30" x2="180" y2="520" stroke="#ccc"/>
<line x1="180" y1="520" x2="760" y2="520" stroke="#ccc"/>
</svg>