<svg xmlns="http://www.w3.org/2000/svg" width="800" height="540">
<style> .label{font-family:DejaVu Sans,Verdana,Geneva,sans-serif;font-size:12px;fill:#333} .value{font-family:DejaVu Sans,Verdana,Geneva,sans-serif;font-size:12px;fill:#555} </style>
<text x="10" y="20" class="label">延迟柱状图（越低越好，Top 15），单位 ms</text>
<text x="10" y="46" class="label">eaassets-a.akamaihd.net</text>
<rect x="180" y="30" width="163.64" height="22" fill="#4c78a8" rx="3"/>
<text x="351.64" y="46" class="value">62.56</text>
<text x="10" y="78" class="label">rockstargames.com</text>
<rect x="180" y="62" width="175.83" height="22" fill="#4c78a8" rx="3"/>
<text x="363.83000000000004" y="78" class="value">67.22</text>
<text x="10" y="110" class="label">socialclub.rockstargames.com</text>
<rect x="180" y="94" width="178.95" height="22" fill="#4c78a8" rx="3"/>
<text x="366.95" y="110" class="value">68.41</text>
<text x="10" y="142" class="label">ea.com</text>
<rect x="180" y="126" width="200.81" height="22" fill="#4c78a8" rx="3"/>
<text x="388.81" y="142" class="value">76.77</text>
<text x="10" y="174" class="label">ubi.com</text>
<rect x="180" y="158" width="254.2" height="22" fill="#4c78a8" rx="3"/>
<text x="442.2" y="174" class="value">97.18</text>
<text x="10" y="206" class="label">blizzard.com</text>
<rect x="180" y="190" width="270.19" height="22" fill="#4c78a8" rx="3"/>
<text x="458.19" y="206" class="value">103.29</text>
<text x="10" y="238" class="label">battle.net</text>
<rect x="180" y="222" width="291.77" height="22" fill="#4c78a8" rx="3"/>
<text x="479.77" y="238" class="value">111.54</text>
<text x="10" y="270" class="label">store.akamai.steamstatic.com</text>
<rect x="180" y="254" width="389.26" height="22" fill="#4c78a8" rx="3"/>
<text x="577.26" y="270" class="value">148.81</text>
<text x="10" y="302" class="label">ubisoft.com</text>
<rect x="180" y="286" width="400.16" height="22" fill="#4c78a8" rx="3"/>
<text x="588.1600000000001" y="302" class="value">152.98</text>
<text x="10" y="334" class="label">unrealengine.com</text>
<rect x="180" y="318" width="460.07" height="22" fill="#4c78a8" rx="3"/>
<text x="648.0699999999999" y="334" class="value">175.88</text>
<text x="10" y="366" class="label">epicgames.com</text>
<rect x="180" y="350" width="474.16" height="22" fill="#4c78a8" rx="3"/>
<text x="662.1600000000001" y="366" class="value">181.27</text>
<text x="10" y="398" class="label">fortnite.com</text>
<rect x="180" y="382" width="534.49" height="22" fill="#4c78a8" rx="3"/>
<text x="722.49" y="398" class="value">204.33</text>
<text x="10" y="430" class="label">community.akamai.steamstatic.com</text>
<rect x="180" y="414" width="534.85" height="22" fill="#4c78a8" rx="3"/>
<text x="722.85" y="430" class="value">204.47</text>
<text x="10" y="462" class="label">origin.com</text>
<rect x="180" y="446" width="568.52" height="22" fill="#4c78a8" rx="3"/>
<text x="756.52" y="462" class="value">217.34</text>
<text x="10" y="494" class="label">cdn.cloudflare.steamstatic.com</text>
<rect x="180" y="478" width="580.0" height="22" fill="#4c78a8" rx="3"/>
<text x="768.0" y="494" class="value">221.73</text>
<line x1="180" y1="30" x2="180" y2="520" stroke="#ccc"/>
<line x1="180" y1="520" x2="760" y2="520" stroke="#ccc"/>
</svg>