<svg xmlns="http://www.w3.org/2000/svg" width="800" height="540">
<style> .label{font-family:DejaVu Sans,Verdana,Geneva,sans-serif;font-size:12px;fill:#333} .value{font-family:DejaVu Sans,Verdana,Geneva,sans-serif;font-size:12px;fill:#555} </style>
<text x="10" y="20" class="label">延迟柱状图（越低越好，Top 15），单位 ms</text>
<text x="10" y="46" class="label">rockstargames.com</text>
<rect x="180" y="30" width="137.1" height="22" fill="#4c78a8" rx="3"/>
<text x="325.1" y="46" class="value">77.91</text>
<text x="10" y="78" class="label">eaassets-a.akamaihd.net</text>
<rect x="180" y="62" width="152.43" height="22" fill="#4c78a8" rx="3"/>
<text x="340.43" y="78" class="value">86.62</text>
<text x="10" y="110" class="label">ubisoft.com</text>
<rect x="180" y="94" width="228.05" height="22" fill="#4c78a8" rx="3"/>
<text x="416.05" y="110" class="value">129.59</text>
<text x="10" y="142" class="label">ea.com</text>
<rect x="180" y="126" width="235.56" height="22" fill="#4c78a8" rx="3"/>
<text x="423.56" y="142" class="value">133.86</text>
<text x="10" y="174" class="label">origin.com</text>
<rect x="180" y="158" width="272.6" height="22" fill="#4c78a8" rx="3"/>
<text x="460.6" y="174" class="value">154.91</text>
<text x="10" y="206" class="label">community.akamai.steamstatic.com</text>
<rect x="180" y="190" width="319.45" height="22" fill="#4c78a8" rx="3"/>
<text x="507.45" y="206" class="value">181.53</text>
<text x="10" y="238" class="label">static3.cdn.ubi.com</text>
<rect x="180" y="222" width="355.1" height="22" fill="#4c78a8" rx="3"/>
<text x="543.1" y="238" class="value">201.79</text>
<text x="10" y="270" class="label">easyanticheat.net</text>
<rect x="180" y="254" width="424.24" height="22" fill="#4c78a8" rx="3"/>
<text x="612.24" y="270" class="value">241.08</text>
<text x="10" y="302" class="label">steamcdn-a.akamaihd.net</text>
<rect x="180" y="286" width="452.51" height="22" fill="#4c78a8" rx="3"/>
<text x="640.51" y="302" class="value">257.14</text>
<text x="10" y="334" class="label">cdn.cloudflare.steamstatic.com</text>
<rect x="180" y="318" width="469.86" height="22" fill="#4c78a8" rx="3"/>
<text x="657.86" y="334" class="value">267.00</text>
<text x="10" y="366" class="label">ubi.com</text>
<rect x="180" y="350" width="497.01" height="22" fill="#4c78a8" rx="3"/>
<text x="685.01" y="366" class="value">282.43</text>
<text x="10" y="398" class="label">cdn.akamai.steamstatic.com</text>
<rect x="180" y="382" width="511.83" height="22" fill="#4c78a8" rx="3"/>
<text x="699.8299999999999" y="398" class="value">290.85</text>
<text x="10" y="430" class="label">socialclub.rockstargames.com</text>
<rect x="180" y="414" width="545.24" height="22" fill="#4c78a8" rx="3"/>
<text x="733.24" y="430" class="value">309.84</text>
<text x="10" y="462" class="label">epicgames.com</text>
<rect x="180" y="446" width="548.87" height="22" fill="#4c78a8" rx="3"/>
<text x="736.87" y="462" class="value">311.90</text>
<text x="10" y="494" class="label">store.akamai.steamstatic.com</text>
<rect x="180" y="478" width="580.0" height="22" fill="#4c78a8" rx="3"/>
<text x="768.0" y="494" class="value">329.59</text>
<line x1="180" y1="30" x2="180" y2="520" stroke="#ccc"/>
<line x1="180" y1="520" x2="760" y2="520" stroke="#ccc"/>
</svg>