<svg xmlns="http://www.w3.org/2000/svg" width="800" height="540">
<style> .label{font-family:DejaVu Sans,Verdana,Geneva,sans-serif;font-size:12px;fill:#333} .value{font-family:DejaVu Sans,Verdana,Geneva,sans-serif;font-size:12px;fill:#555} </style>
<text x="10" y="20" class="label">延迟柱状图（越低越好，Top 15），单位 ms</text>
<text x="10" y="46" class="label">eaassets-a.akamaihd.net</text>
<rect x="180" y="30" width="151.95" height="22" fill="#4c78a8" rx="3"/>
<text x="339.95" y="46" class="value">56.61</text>
<text x="10" y="78" class="label">rockstargames.com</text>
<rect x="180" y="62" width="156.22" height="22" fill="#4c78a8" rx="3"/>
<text x="344.22" y="78" class="value">58.20</text>
<text x="10" y="110" class="label">community.akamai.steamstatic.com</text>
<rect x="180" y="94" width="252.82" height="22" fill="#4c78a8" rx="3"/>
<text x="440.82" y="110" class="value">94.19</text>
<text x="10" y="142" class="label">store.akamai.steamstatic.com</text>
<rect x="180" y="126" width="275.56" height="22" fill="#4c78a8" rx="3"/>
<text x="463.56" y="142" class="value">102.66</text>
<text x="10" y="174" class="label">ea.com</text>
<rect x="180" y="158" width="277.41" height="22" fill="#4c78a8" rx="3"/>
<text x="465.41" y="174" class="value">103.35</text>
<text x="10" y="206" class="label">ubisoft.com</text>
<rect x="180" y="190" width="304.9" height="22" fill="#4c78a8" rx="3"/>
<text x="492.9" y="206" class="value">113.59</text>
<text x="10" y="238" class="label">ubi.com</text>
<rect x="180" y="222" width="369.59" height="22" fill="#4c78a8" rx="3"/>
<text x="557.5899999999999" y="238" class="value">137.69</text>
<text x="10" y="270" class="label">battle.net</text>
<rect x="180" y="254" width="370.53" height="22" fill="#4c78a8" rx="3"/>
<text x="558.53" y="270" class="value">138.04</text>
<text x="10" y="302" class="label">blizzard.com</text>
<rect x="180" y="286" width="370.98" height="22" fill="#4c78a8" rx="3"/>
<text x="558.98" y="302" class="value">138.21</text>
<text x="10" y="334" class="label">socialclub.rockstargames.com</text>
<rect x="180" y="318" width="418.22" height="22" fill="#4c78a8" rx="3"/>
<text x="606.22" y="334" class="value">155.81</text>
<text x="10" y="366" class="label">easyanticheat.net</text>
<rect x="180" y="350" width="435.7" height="22" fill="#4c78a8" rx="3"/>
<text x="623.7" y="366" class="value">162.32</text>
<text x="10" y="398" class="label">steamcdn-a.akamaihd.net</text>
<rect x="180" y="382" width="445.79" height="22" fill="#4c78a8" rx="3"/>
<text x="633.79" y="398" class="value">166.08</text>
<text x="10" y="430" class="label">origin.com</text>
<rect x="180" y="414" width="521.81" height="22" fill="#4c78a8" rx="3"/>
<text x="709.81" y="430" class="value">194.40</text>
<text x="10" y="462" class="label">cdn.akamai.steamstatic.com</text>
<rect x="180" y="446" width="529.86" height="22" fill="#4c78a8" rx="3"/>
<text x="717.86" y="462" class="value">197.40</text>
<text x="10" y="494" class="label">static3.cdn.ubi.com</text>
<rect x="180" y="478" width="580.0" height="22" fill="#4c78a8" rx="3"/>
<text x="768.0" y="494" class="value">216.08</text>
<line x1="180" y1="30" x2="180" y2="520" stroke="#ccc"/>
<line x1="180" y1="520" x2="760" y2="520" stroke="#ccc"/>
</svg>