<svg xmlns="http://www.w3.org/2000/svg" width="800" height="540">
<style> .label{font-family:DejaVu Sans,Verdana,Geneva,sans-serif;font-size:12px;fill:#333} .value{font-family:DejaVu Sans,Verdana,Geneva,sans-serif;font-size:12px;fill:#555} </style>
<text x="10" y="20" class="label">延迟柱状图（越低越好，Top 15），单位 ms</text>
<text x="10" y="46" class="label">rockstargames.com</text>
<rect x="180" y="30" width="92.76" height="22" fill="#4c78a8" rx="3"/>
<text x="280.76" y="46" class="value">40.98</text>
<text x="10" y="78" class="label">community.akamai.steamstatic.com</text>
<rect x="180" y="62" width="209.86" height="22" fill="#4c78a8" rx="3"/>
<text x="397.86" y="78" class="value">92.71</text>
<text x="10" y="110" class="label">eaassets-a.akamaihd.net</text>
<rect x="180" y="94" width="220.52" height="22" fill="#4c78a8" rx="3"/>
<text x="408.52" y="110" class="value">97.42</text>
<text x="10" y="142" class="label">cdn.akamai.steamstatic.com</text>
<rect x="180" y="126" width="257.3" height="22" fill="#4c78a8" rx="3"/>
<text x="445.3" y="142" class="value">113.67</text>
<text x="10" y="174" class="label">origin.com</text>
<rect x="180" y="158" width="270.97" height="22" fill="#4c78a8" rx="3"/>
<text x="458.97" y="174" class="value">119.71</text>
<text x="10" y="206" class="label">store.akamai.steamstatic.com</text>
<rect x="180" y="190" width="299.25" height="22" fill="#4c78a8" rx="3"/>
<text x="487.25" y="206" class="value">132.20</text>
<text x="10" y="238" class="label">steamcdn-a.akamaihd.net</text>
<rect x="180" y="222" width="327.52" height="22" fill="#4c78a8" rx="3"/>
<text x="515.52" y="238" class="value">144.69</text>
<text x="10" y="270" class="label">cdn.cloudflare.steamstatic.com</text>
<rect x="180" y="254" width="357.17" height="22" fill="#4c78a8" rx="3"/>
<text x="545.1700000000001" y="270" class="value">157.79</text>
<text x="10" y="302" class="label">easyanticheat.net</text>
<rect x="180" y="286" width="357.4" height="22" fill="#4c78a8" rx="3"/>
<text x="545.4" y="302" class="value">157.89</text>
<text x="10" y="334" class="label">ea.com</text>
<rect x="180" y="318" width="362.4" height="22" fill="#4c78a8" rx="3"/>
<text x="550.4" y="334" class="value">160.10</text>
<text x="10" y="366" class="label">ubisoft.com</text>
<rect x="180" y="350" width="368.42" height="22" fill="#4c78a8" rx="3"/>
<text x="556.4200000000001" y="366" class="value">162.76</text>
<text x="10" y="398" class="label">steam-chat.com</text>
<rect x="180" y="382" width="433.3" height="22" fill="#4c78a8" rx="3"/>
<text x="621.3" y="398" class="value">191.42</text>
<text x="10" y="430" class="label">api.steampowered.com</text>
<rect x="180" y="414" width="527.28" height="22" fill="#4c78a8" rx="3"/>
<text x="715.28" y="430" class="value">232.94</text>
<text x="10" y="462" class="label">www.steamcommunity.com</text>
<rect x="180" y="446" width="529.18" height="22" fill="#4c78a8" rx="3"/>
<text x="717.18" y="462" class="value">233.78</text>
<text x="10" y="494" class="label">steamcommunity.com</text>
<rect x="180" y="478" width="580.0" height="22" fill="#4c78a8" rx="3"/>
<text x="768.0" y="494" class="value">256.23</text>
<line x1="180" y1="30" x2="180" y2="520" stroke="#ccc"/>
<line x1="180" y1="520" x2="760" y2="520" stroke="#ccc"/>
</svg>