<svg xmlns="http://www.w3.org/2000/svg" width="800" height="540">
<style> .label{font-family:DejaVu Sans,Verdana,Geneva,sans-serif;font-size:12px;fill:#333} .value{font-family:DejaVu Sans,Verdana,Geneva,sans-serif;font-size:12px;fill:#555} </style>
<text x="10" y="20" class="label">延迟柱状图（越低越好，Top 15），单位 ms</text>
<text x="10" y="46" class="label">eaassets-a.akamaihd.net</text>
<rect x="180" y="30" width="227.71" height="22" fill="#4c78a8" rx="3"/>
<text x="415.71000000000004" y="46" class="value">73.83</text>
<text x="10" y="78" class="label">socialclub.rockstargames.com</text>
<rect x="180" y="62" width="248.96" height="22" fill="#4c78a8" rx="3"/>
<text x="436.96000000000004" y="78" class="value">80.72</text>
<text x="10" y="110" class="label">rockstargames.com</text>
<rect x="180" y="94" width="274.66" height="22" fill="#4c78a8" rx="3"/>
<text x="462.66" y="110" class="value">89.05</text>
<text x="10" y="142" class="label">ubisoft.com</text>
<rect x="180" y="126" width="283.72" height="22" fill="#4c78a8" rx="3"/>
<text x="471.72" y="142" class="value">91.99</text>
<text x="10" y="174" class="label">ea.com</text>
<rect x="180" y="158" width="314.13" height="22" fill="#4c78a8" rx="3"/>
<text x="502.13" y="174" class="value">101.85</text>
<text x="10" y="206" class="label">blizzard.com</text>
<rect x="180" y="190" width="329.4" height="22" fill="#4c78a8" rx="3"/>
<text x="517.4" y="206" class="value">106.80</text>
<text x="10" y="238" class="label">ubi.com</text>
<rect x="180" y="222" width="337.58" height="22" fill="#4c78a8" rx="3"/>
<text x="525.5799999999999" y="238" class="value">109.45</text>
<text x="10" y="270" class="label">battle.net</text>
<rect x="180" y="254" width="340.66" height="22" fill="#4c78a8" rx="3"/>
<text x="528.6600000000001" y="270" class="value">110.45</text>
<text x="10" y="302" class="label">epicgames.com</text>
<rect x="180" y="286" width="430.69" height="22" fill="#4c78a8" rx="3"/>
<text x="618.69" y="302" class="value">139.64</text>
<text x="10" y="334" class="label">static3.cdn.ubi.com</text>
<rect x="180" y="318" width="500.15" height="22" fill="#4c78a8" rx="3"/>
<text x="688.15" y="334" class="value">162.16</text>
<text x="10" y="366" class="label">store.akamai.steamstatic.com</text>
<rect x="180" y="350" width="537.25" height="22" fill="#4c78a8" rx="3"/>
<text x="725.25" y="366" class="value">174.19</text>
<text x="10" y="398" class="label">unrealengine.com</text>
<rect x="180" y="382" width="539.29" height="22" fill="#4c78a8" rx="3"/>
<text x="727.29" y="398" class="value">174.85</text>
<text x="10" y="430" class="label">steamcdn-a.akamaihd.net</text>
<rect x="180" y="414" width="570.13" height="22" fill="#4c78a8" rx="3"/>
<text x="758.13" y="430" class="value">184.85</text>
<text x="10" y="462" class="label">community.akamai.steamstatic.com</text>
<rect x="180" y="446" width="573.28" height="22" fill="#4c78a8" rx="3"/>
<text x="761.28" y="462" class="value">185.87</text>
<text x="10" y="494" class="label">origin.com</text>
<rect x="180" y="478" width="580.0" height="22" fill="#4c78a8" rx="3"/>
<text x="768.0" y="494" class="value">188.05</text>
<line x1="180" y1="30" x2="180" y2="520" stroke="#ccc"/>
<line x1="180" y1="520" x2="760" y2="520" stroke="#ccc"/>
</svg>