<svg xmlns="http://www.w3.org/2000/svg" width="800" height="540">
<style> .label{font-family:DejaVu Sans,Verdana,Geneva,sans-serif;font-size:12px;fill:#333} .value{font-family:DejaVu Sans,Verdana,Geneva,sans-serif;font-size:12px;fill:#555} </style>
<text x="10" y="20" class="label">延迟柱状图（越低越好，Top 15），单位 ms</text>
<text x="10" y="46" class="label">eaassets-a.akamaihd.net</text>
<rect x="180" y="30" width="162.74" height="22" fill="#4c78a8" rx="3"/>
<text x="350.74" y="46" class="value">56.72</text>
<text x="10" y="78" class="label">steamcdn-a.akamaihd.net</text>
<rect x="180" y="62" width="200.67" height="22" fill="#4c78a8" rx="3"/>
<text x="388.66999999999996" y="78" class="value">69.94</text>
<text x="10" y="110" class="label">rockstargames.com</text>
<rect x="180" y="94" width="203.51" height="22" fill="#4c78a8" rx="3"/>
<text x="391.51" y="110" class="value">70.93</text>
<text x="10" y="142" class="label">store.akamai.steamstatic.com</text>
<rect x="180" y="126" width="262.07" height="22" fill="#4c78a8" rx="3"/>
<text x="450.07" y="142" class="value">91.34</text>
<text x="10" y="174" class="label">blizzard.com</text>
<rect x="180" y="158" width="383.12" height="22" fill="#4c78a8" rx="3"/>
<text x="571.12" y="174" class="value">133.53</text>
<text x="10" y="206" class="label">ea.com</text>
<rect x="180" y="190" width="384.07" height="22" fill="#4c78a8" rx="3"/>
<text x="572.0699999999999" y="206" class="value">133.86</text>
<text x="10" y="238" class="label">ubi.com</text>
<rect x="180" y="222" width="390.58" height="22" fill="#4c78a8" rx="3"/>
<text x="578.5799999999999" y="238" class="value">136.13</text>
<text x="10" y="270" class="label">socialclub.rockstargames.com</text>
<rect x="180" y="254" width="408.88" height="22" fill="#4c78a8" rx="3"/>
<text x="596.88" y="270" class="value">142.51</text>
<text x="10" y="302" class="label">battle.net</text>
<rect x="180" y="286" width="416.06" height="22" fill="#4c78a8" rx="3"/>
<text x="604.06" y="302" class="value">145.01</text>
<text x="10" y="334" class="label">easyanticheat.net</text>
<rect x="180" y="318" width="441.1" height="22" fill="#4c78a8" rx="3"/>
<text x="629.1" y="334" class="value">153.74</text>
<text x="10" y="366" class="label">origin.com</text>
<rect x="180" y="350" width="458.72" height="22" fill="#4c78a8" rx="3"/>
<text x="646.72" y="366" class="value">159.88</text>
<text x="10" y="398" class="label">static3.cdn.ubi.com</text>
<rect x="180" y="382" width="490.74" height="22" fill="#4c78a8" rx="3"/>
<text x="678.74" y="398" class="value">171.04</text>
<text x="10" y="430" class="label">cdn.cloudflare.steamstatic.com</text>
<rect x="180" y="414" width="560.75" height="22" fill="#4c78a8" rx="3"/>
<text x="748.75" y="430" class="value">195.44</text>
<text x="10" y="462" class="label">steam-chat.com</text>
<rect x="180" y="446" width="574.89" height="22" fill="#4c78a8" rx="3"/>
<text x="762.89" y="462" class="value">200.37</text>
<text x="10" y="494" class="label">community.akamai.steamstatic.com</text>
<rect x="180" y="478" width="580.0" height="22" fill="#4c78a8" rx="3"/>
<text x="768.0" y="494" class="value">202.15</text>
<line x1="180" y1="30" x2="180" y2="520" stroke="#ccc"/>
<line x1="180" y1="520" x2="760" y2="520" stroke="#ccc"/>
</svg>