<svg xmlns="http://www.w3.org/2000/svg" width="800" height="540">
<style> .label{font-family:DejaVu Sans,Verdana,Geneva,sans-serif;font-size:12px;fill:#333} .value{font-family:DejaVu Sans,Verdana,Geneva,sans-serif;font-size:12px;fill:#555} </style>
<text x="10" y="20" class="label">延迟柱状图（越低越好，Top 15），单位 ms</text>
<text x="10" y="46" class="label">eaassets-a.akamaihd.net</text>
<rect x="180" y="30" width="123.8" height="22" fill="#4c78a8" rx="3"/>
<text x="311.8" y="46" class="value">43.72</text>
<text x="10" y="78" class="label">rockstargames.com</text>
<rect x="180" y="62" width="163.0" height="22" fill="#4c78a8" rx="3"/>
<text x="351.0" y="78" class="value">57.56</text>
<text x="10" y="110" class="label">socialclub.rockstargames.com</text>
<rect x="180" y="94" width="223.06" height="22" fill="#4c78a8" rx="3"/>
<text x="411.06" y="110" class="value">78.77</text>
<text x="10" y="142" class="label">ubisoft.com</text>
<rect x="180" y="126" width="279.01" height="22" fill="#4c78a8" rx="3"/>
<text x="467.01" y="142" class="value">98.53</text>
<text x="10" y="174" class="label">blizzard.com</text>
<rect x="180" y="158" width="311.86" height="22" fill="#4c78a8" rx="3"/>
<text x="499.86" y="174" class="value">110.13</text>
<text x="10" y="206" class="label">battle.net</text>
<rect x="180" y="190" width="330.83" height="22" fill="#4c78a8" rx="3"/>
<text x="518.8299999999999" y="206" class="value">116.83</text>
<text x="10" y="238" class="label">epicgames.com</text>
<rect x="180" y="222" width="341.48" height="22" fill="#4c78a8" rx="3"/>
<text x="529.48" y="238" class="value">120.59</text>
<text x="10" y="270" class="label">ea.com</text>
<rect x="180" y="254" width="374.3" height="22" fill="#4c78a8" rx="3"/>
<text x="562.3" y="270" class="value">132.18</text>
<text x="10" y="302" class="label">ubi.com</text>
<rect x="180" y="286" width="387.81" height="22" fill="#4c78a8" rx="3"/>
<text x="575.81" y="302" class="value">136.95</text>
<text x="10" y="334" class="label">steamcdn-a.akamaihd.net</text>
<rect x="180" y="318" width="438.75" height="22" fill="#4c78a8" rx="3"/>
<text x="626.75" y="334" class="value">154.94</text>
<text x="10" y="366" class="label">unrealengine.com</text>
<rect x="180" y="350" width="440.73" height="22" fill="#4c78a8" rx="3"/>
<text x="628.73" y="366" class="value">155.64</text>
<text x="10" y="398" class="label">origin.com</text>
<rect x="180" y="382" width="477.24" height="22" fill="#4c78a8" rx="3"/>
<text x="665.24" y="398" class="value">168.53</text>
<text x="10" y="430" class="label">community.akamai.steamstatic.com</text>
<rect x="180" y="414" width="478.82" height="22" fill="#4c78a8" rx="3"/>
<text x="666.8199999999999" y="430" class="value">169.09</text>
<text x="10" y="462" class="label">cdn.cloudflare.steamstatic.com</text>
<rect x="180" y="446" width="571.5" height="22" fill="#4c78a8" rx="3"/>
<text x="759.5" y="462" class="value">201.82</text>
<text x="10" y="494" class="label">cdn.akamai.steamstatic.com</text>
<rect x="180" y="478" width="580.0" height="22" fill="#4c78a8" rx="3"/>
<text x="768.0" y="494" class="value">204.82</text>
<line x1="180" y1="30" x2="180" y2="520" stroke="#ccc"/>
<line x1="180" y1="520" x2="760" y2="520" stroke="#ccc"/>
</svg>