<svg xmlns="http://www.w3.org/2000/svg" width="800" height="540">
<style> .label{font-family:DejaVu Sans,Verdana,Geneva,sans-serif;font-size:12px;fill:#333} .value{font-family:DejaVu Sans,Verdana,Geneva,sans-serif;font-size:12px;fill:#555} </style>
<text x="10" y="20" class="label">延迟柱状图（越低越好，Top 15），单位 ms</text>
<text x="10" y="46" class="label">rockstargames.com</text>
<rect x="180" y="30" width="153.88" height="22" fill="#4c78a8" rx="3"/>
<text x="341.88" y="46" class="value">67.83</text>
<text x="10" y="78" class="label">ubisoft.com</text>
<rect x="180" y="62" width="243.67" height="22" fill="#4c78a8" rx="3"/>
<text x="431.66999999999996" y="78" class="value">107.41</text>
<text x="10" y="110" class="label">community.akamai.steamstatic.com</text>
<rect x="180" y="94" width="250.46" height="22" fill="#4c78a8" rx="3"/>
<text x="438.46000000000004" y="110" class="value">110.40</text>
<text x="10" y="142" class="label">steamcdn-a.akamaihd.net</text>
<rect x="180" y="126" width="270.33" height="22" fill="#4c78a8" rx="3"/>
<text x="458.33" y="142" class="value">119.16</text>
<text x="10" y="174" class="label">eaassets-a.akamaihd.net</text>
<rect x="180" y="158" width="273.01" height="22" fill="#4c78a8" rx="3"/>
<text x="461.01" y="174" class="value">120.34</text>
<text x="10" y="206" class="label">cdn.cloudflare.steamstatic.com</text>
<rect x="180" y="190" width="311.44" height="22" fill="#4c78a8" rx="3"/>
<text x="499.44" y="206" class="value">137.28</text>
<text x="10" y="238" class="label">store.akamai.steamstatic.com</text>
<rect x="180" y="222" width="313.98" height="22" fill="#4c78a8" rx="3"/>
<text x="501.98" y="238" class="value">138.40</text>
<text x="10" y="270" class="label">origin.com</text>
<rect x="180" y="254" width="315.48" height="22" fill="#4c78a8" rx="3"/>
<text x="503.48" y="270" class="value">139.06</text>
<text x="10" y="302" class="label">easyanticheat.net</text>
<rect x="180" y="286" width="345.81" height="22" fill="#4c78a8" rx="3"/>
<text x="533.81" y="302" class="value">152.43</text>
<text x="10" y="334" class="label">cdn.akamai.steamstatic.com</text>
<rect x="180" y="318" width="364.71" height="22" fill="#4c78a8" rx="3"/>
<text x="552.71" y="334" class="value">160.76</text>
<text x="10" y="366" class="label">ea.com</text>
<rect x="180" y="350" width="383.13" height="22" fill="#4c78a8" rx="3"/>
<text x="571.13" y="366" class="value">168.88</text>
<text x="10" y="398" class="label">api.steampowered.com</text>
<rect x="180" y="382" width="455.22" height="22" fill="#4c78a8" rx="3"/>
<text x="643.22" y="398" class="value">200.66</text>
<text x="10" y="430" class="label">launcher-public-service-prod06.ol.epicgames.com</text>
<rect x="180" y="414" width="472.99" height="22" fill="#4c78a8" rx="3"/>
<text x="660.99" y="430" class="value">208.49</text>
<text x="10" y="462" class="label">steam-chat.com</text>
<rect x="180" y="446" width="539.6" height="22" fill="#4c78a8" rx="3"/>
<text x="727.6" y="462" class="value">237.85</text>
<text x="10" y="494" class="label">ubi.com</text>
<rect x="180" y="478" width="580.0" height="22" fill="#4c78a8" rx="3"/>
<text x="768.0" y="494" class="value">255.66</text>
<line x1="180" y1="30" x2="180" y2="520" stroke="#ccc"/>
<line x1="180" y1="520" x2="760" y2="520" stroke="#ccc"/>
</svg>