<svg xmlns="http://www.w3.org/2000/svg" width="800" height="540">
<style> .label{font-family:DejaVu Sans,Verdana,Geneva,sans-serif;font-size:12px;fill:#333} .value{font-family:DejaVu Sans,Verdana,Geneva,sans-serif;font-size:12px;fill:#555} </style>
<text x="10" y="20" class="label">延迟柱状图（越低越好，Top 15），单位 ms</text>
<text x="10" y="46" class="label">community.akamai.steamstatic.com</text>
<rect x="180" y="30" width="198.25" height="22" fill="#4c78a8" rx="3"/>
<text x="386.25" y="46" class="value">96.05</text>
<text x="10" y="78" class="label">ea.com</text>
<rect x="180" y="62" width="246.57" height="22" fill="#4c78a8" rx="3"/>
<text x="434.57" y="78" class="value">119.46</text>
<text x="10" y="110" class="label">eaassets-a.akamaihd.net</text>
<rect x="180" y="94" width="249.17" height="22" fill="#4c78a8" rx="3"/>
<text x="437.16999999999996" y="110" class="value">120.72</text>
<text x="10" y="142" class="label">store.akamai.steamstatic.com</text>
<rect x="180" y="126" width="258.5" height="22" fill="#4c78a8" rx="3"/>
<text x="446.5" y="142" class="value">125.24</text>
<text x="10" y="174" class="label">easyanticheat.net</text>
<rect x="180" y="158" width="283.06" height="22" fill="#4c78a8" rx="3"/>
<text x="471.06" y="174" class="value">137.14</text>
<text x="10" y="206" class="label">steamcdn-a.akamaihd.net</text>
<rect x="180" y="190" width="295.2" height="22" fill="#4c78a8" rx="3"/>
<text x="483.2" y="206" class="value">143.02</text>
<text x="10" y="238" class="label">cdn.akamai.steamstatic.com</text>
<rect x="180" y="222" width="330.17" height="22" fill="#4c78a8" rx="3"/>
<text x="518.1700000000001" y="238" class="value">159.96</text>
<text x="10" y="270" class="label">origin.com</text>
<rect x="180" y="254" width="402.49" height="22" fill="#4c78a8" rx="3"/>
<text x="590.49" y="270" class="value">195.00</text>
<text x="10" y="302" class="label">rockstargames.com</text>
<rect x="180" y="286" width="423.98" height="22" fill="#4c78a8" rx="3"/>
<text x="611.98" y="302" class="value">205.41</text>
<text x="10" y="334" class="label">ubi.com</text>
<rect x="180" y="318" width="493.14" height="22" fill="#4c78a8" rx="3"/>
<text x="681.14" y="334" class="value">238.92</text>
<text x="10" y="366" class="label">api.steampowered.com</text>
<rect x="180" y="350" width="551.58" height="22" fill="#4c78a8" rx="3"/>
<text x="739.58" y="366" class="value">267.23</text>
<text x="10" y="398" class="label">ubisoft.com</text>
<rect x="180" y="382" width="552.9" height="22" fill="#4c78a8" rx="3"/>
<text x="740.9" y="398" class="value">267.87</text>
<text x="10" y="430" class="label">www.steamcommunity.com</text>
<rect x="180" y="414" width="575.62" height="22" fill="#4c78a8" rx="3"/>
<text x="763.62" y="430" class="value">278.88</text>
<text x="10" y="462" class="label">epicgames.com</text>
<rect x="180" y="446" width="577.83" height="22" fill="#4c78a8" rx="3"/>
<text x="765.83" y="462" class="value">279.95</text>
<text x="10" y="494" class="label">steam-chat.com</text>
<rect x="180" y="478" width="580.0" height="22" fill="#4c78a8" rx="3"/>
<text x="768.0" y="494" class="value">281.00</text>
<line x1="180" y1="30" x2="180" y2="520" stroke="#ccc"/>
<line x1="180" y1="520" x2="760" y2="520" stroke="#ccc"/>
</svg>