<svg xmlns="http://www.w3.org/2000/svg" width="800" height="540">
<style> .label{font-family:DejaVu Sans,Verdana,Geneva,sans-serif;font-size:12px;fill:#333} .value{font-family:DejaVu Sans,Verdana,Geneva,sans-serif;font-size:12px;fill:#555} </style>
<text x="10" y="20" class="label">延迟柱状图（越低越好，Top 15），单位 ms</text>
<text x="10" y="46" class="label">store.akamai.steamstatic.com</text>
<rect x="180" y="30" width="282.25" height="22" fill="#4c78a8" rx="3"/>
<text x="470.25" y="46" class="value">114.05</text>
<text x="10" y="78" class="label">ubisoft.com</text>
<rect x="180" y="62" width="347.47" height="22" fill="#4c78a8" rx="3"/>
<text x="535.47" y="78" class="value">140.40</text>
<text x="10" y="110" class="label">cdn.akamai.steamstatic.com</text>
<rect x="180" y="94" width="350.19" height="22" fill="#4c78a8" rx="3"/>
<text x="538.19" y="110" class="value">141.50</text>
<text x="10" y="142" class="label">cdn.cloudflare.steamstatic.com</text>
<rect x="180" y="126" width="360.14" height="22" fill="#4c78a8" rx="3"/>
<text x="548.14" y="142" class="value">145.52</text>
<text x="10" y="174" class="label">ea.com</text>
<rect x="180" y="158" width="362.98" height="22" fill="#4c78a8" rx="3"/>
<text x="550.98" y="174" class="value">146.67</text>
<text x="10" y="206" class="label">origin.com</text>
<rect x="180" y="190" width="387.88" height="22" fill="#4c78a8" rx="3"/>
<text x="575.88" y="206" class="value">156.73</text>
<text x="10" y="238" class="label">eaassets-a.akamaihd.net</text>
<rect x="180" y="222" width="406.76" height="22" fill="#4c78a8" rx="3"/>
<text x="594.76" y="238" class="value">164.36</text>
<text x="10" y="270" class="label">community.akamai.steamstatic.com</text>
<rect x="180" y="254" width="456.98" height="22" fill="#4c78a8" rx="3"/>
<text x="644.98" y="270" class="value">184.65</text>
<text x="10" y="302" class="label">easyanticheat.net</text>
<rect x="180" y="286" width="499.82" height="22" fill="#4c78a8" rx="3"/>
<text x="687.8199999999999" y="302" class="value">201.96</text>
<text x="10" y="334" class="label">rockstargames.com</text>
<rect x="180" y="318" width="499.96" height="22" fill="#4c78a8" rx="3"/>
<text x="687.96" y="334" class="value">202.02</text>
<text x="10" y="366" class="label">static3.cdn.ubi.com</text>
<rect x="180" y="350" width="504.96" height="22" fill="#4c78a8" rx="3"/>
<text x="692.96" y="366" class="value">204.04</text>
<text x="10" y="398" class="label">steamcdn-a.akamaihd.net</text>
<rect x="180" y="382" width="526.96" height="22" fill="#4c78a8" rx="3"/>
<text x="714.96" y="398" class="value">212.93</text>
<text x="10" y="430" class="label">www.steamcommunity.com</text>
<rect x="180" y="414" width="536.72" height="22" fill="#4c78a8" rx="3"/>
<text x="724.72" y="430" class="value">216.87</text>
<text x="10" y="462" class="label">battle.net</text>
<rect x="180" y="446" width="556.27" height="22" fill="#4c78a8" rx="3"/>
<text x="744.27" y="462" class="value">224.77</text>
<text x="10" y="494" class="label">blizzard.com</text>
<rect x="180" y="478" width="580.0" height="22" fill="#4c78a8" rx="3"/>
<text x="768.0" y="494" class="value">234.36</text>
<line x1="180" y1="30" x2="180" y2="520" stroke="#ccc"/>
<line x1="180" y1="520" x2="760" y2="520" stroke="#ccc"/>
</svg>