<svg xmlns="http://www.w3.org/2000/svg" width="800" height="540">
<style> .label{font-family:DejaVu Sans,Verdana,Geneva,sans-serif;font-size:12px;fill:#333} .value{font-family:DejaVu Sans,Verdana,Geneva,sans-serif;font-size:12px;fill:#555} </style>
<text x="10" y="20" class="label">延迟柱状图（越低越好，Top 15），单位 ms</text>
<text x="10" y="46" class="label">eaassets-a.akamaihd.net</text>
<rect x="180" y="30" width="75.37" height="22" fill="#4c78a8" rx="3"/>
<text x="263.37" y="46" class="value">35.16</text>
<text x="10" y="78" class="label">rockstargames.com</text>
<rect x="180" y="62" width="102.55" height="22" fill="#4c78a8" rx="3"/>
<text x="290.55" y="78" class="value">47.84</text>
<text x="10" y="110" class="label">cdn.cloudflare.steamstatic.com</text>
<rect x="180" y="94" width="134.36" height="22" fill="#4c78a8" rx="3"/>
<text x="322.36" y="110" class="value">62.68</text>
<text x="10" y="142" class="label">steamcdn-a.akamaihd.net</text>
<rect x="180" y="126" width="174.21" height="22" fill="#4c78a8" rx="3"/>
<text x="362.21000000000004" y="142" class="value">81.27</text>
<text x="10" y="174" class="label">ea.com</text>
<rect x="180" y="158" width="261.26" height="22" fill="#4c78a8" rx="3"/>
<text x="449.26" y="174" class="value">121.88</text>
<text x="10" y="206" class="label">ubisoft.com</text>
<rect x="180" y="190" width="287.06" height="22" fill="#4c78a8" rx="3"/>
<text x="475.06" y="206" class="value">133.92</text>
<text x="10" y="238" class="label">community.akamai.steamstatic.com</text>
<rect x="180" y="222" width="292.49" height="22" fill="#4c78a8" rx="3"/>
<text x="480.49" y="238" class="value">136.45</text>
<text x="10" y="270" class="label">store.akamai.steamstatic.com</text>
<rect x="180" y="254" width="317.54" height="22" fill="#4c78a8" rx="3"/>
<text x="505.54" y="270" class="value">148.14</text>
<text x="10" y="302" class="label">origin.com</text>
<rect x="180" y="286" width="335.81" height="22" fill="#4c78a8" rx="3"/>
<text x="523.81" y="302" class="value">156.66</text>
<text x="10" y="334" class="label">cdn.akamai.steamstatic.com</text>
<rect x="180" y="318" width="357.18" height="22" fill="#4c78a8" rx="3"/>
<text x="545.1800000000001" y="334" class="value">166.63</text>
<text x="10" y="366" class="label">api.steampowered.com</text>
<rect x="180" y="350" width="367.12" height="22" fill="#4c78a8" rx="3"/>
<text x="555.12" y="366" class="value">171.27</text>
<text x="10" y="398" class="label">easyanticheat.net</text>
<rect x="180" y="382" width="437.69" height="22" fill="#4c78a8" rx="3"/>
<text x="625.69" y="398" class="value">204.19</text>
<text x="10" y="430" class="label">www.steamcommunity.com</text>
<rect x="180" y="414" width="455.72" height="22" fill="#4c78a8" rx="3"/>
<text x="643.72" y="430" class="value">212.60</text>
<text x="10" y="462" class="label">steam-chat.com</text>
<rect x="180" y="446" width="520.9" height="22" fill="#4c78a8" rx="3"/>
<text x="708.9" y="462" class="value">243.01</text>
<text x="10" y="494" class="label">launcher-public-service-prod06.ol.epicgames.com</text>
<rect x="180" y="478" width="580.0" height="22" fill="#4c78a8" rx="3"/>
<text x="768.0" y="494" class="value">270.58</text>
<line x1="180" y1="30" x2="180" y2="520" stroke="#ccc"/>
<line x1="180" y1="520" x2="760" y2="520" stroke="#ccc"/>
</svg>