<svg xmlns="http://www.w3.org/2000/svg" width="800" height="540">
<style> .label{font-family:DejaVu Sans,Verdana,Geneva,sans-serif;font-size:12px;fill:#333} .value{font-family:DejaVu Sans,Verdana,Geneva,sans-serif;font-size:12px;fill:#555} </style>
<text x="10" y="20" class="label">延迟柱状图（越低越好，Top 15），单位 ms</text>
<text x="10" y="46" class="label">rockstargames.com</text>
<rect x="180" y="30" width="185.15" height="22" fill="#4c78a8" rx="3"/>
<text x="373.15" y="46" class="value">97.96</text>
<text x="10" y="78" class="label">eaassets-a.akamaihd.net</text>
<rect x="180" y="62" width="238.13" height="22" fill="#4c78a8" rx="3"/>
<text x="426.13" y="78" class="value">125.99</text>
<text x="10" y="110" class="label">ea.com</text>
<rect x="180" y="94" width="240.17" height="22" fill="#4c78a8" rx="3"/>
<text x="428.16999999999996" y="110" class="value">127.07</text>
<text x="10" y="142" class="label">socialclub.rockstargames.com</text>
<rect x="180" y="126" width="253.89" height="22" fill="#4c78a8" rx="3"/>
<text x="441.89" y="142" class="value">134.33</text>
<text x="10" y="174" class="label">ubi.com</text>
<rect x="180" y="158" width="285.74" height="22" fill="#4c78a8" rx="3"/>
<text x="473.74" y="174" class="value">151.18</text>
<text x="10" y="206" class="label">community.akamai.steamstatic.com</text>
<rect x="180" y="190" width="318.38" height="22" fill="#4c78a8" rx="3"/>
<text x="506.38" y="206" class="value">168.45</text>
<text x="10" y="238" class="label">static3.cdn.ubi.com</text>
<rect x="180" y="222" width="357.81" height="22" fill="#4c78a8" rx="3"/>
<text x="545.81" y="238" class="value">189.31</text>
<text x="10" y="270" class="label">store.akamai.steamstatic.com</text>
<rect x="180" y="254" width="370.45" height="22" fill="#4c78a8" rx="3"/>
<text x="558.45" y="270" class="value">196.00</text>
<text x="10" y="302" class="label">origin.com</text>
<rect x="180" y="286" width="453.48" height="22" fill="#4c78a8" rx="3"/>
<text x="641.48" y="302" class="value">239.93</text>
<text x="10" y="334" class="label">ubisoft.com</text>
<rect x="180" y="318" width="496.46" height="22" fill="#4c78a8" rx="3"/>
<text x="684.46" y="334" class="value">262.67</text>
<text x="10" y="366" class="label">steamcdn-a.akamaihd.net</text>
<rect x="180" y="350" width="513.32" height="22" fill="#4c78a8" rx="3"/>
<text x="701.32" y="366" class="value">271.59</text>
<text x="10" y="398" class="label">easyanticheat.net</text>
<rect x="180" y="382" width="532.65" height="22" fill="#4c78a8" rx="3"/>
<text x="720.65" y="398" class="value">281.82</text>
<text x="10" y="430" class="label">cdn.cloudflare.steamstatic.com</text>
<rect x="180" y="414" width="536.6" height="22" fill="#4c78a8" rx="3"/>
<text x="724.6" y="430" class="value">283.91</text>
<text x="10" y="462" class="label">cdn.akamai.steamstatic.com</text>
<rect x="180" y="446" width="560.63" height="22" fill="#4c78a8" rx="3"/>
<text x="748.63" y="462" class="value">296.62</text>
<text x="10" y="494" class="label">steam-chat.com</text>
<rect x="180" y="478" width="580.0" height="22" fill="#4c78a8" rx="3"/>
<text x="768.0" y="494" class="value">306.87</text>
<line x1="180" y1="30" x2="180" y2="520" stroke="#ccc"/>
<line x1="180" y1="520" x2="760" y2="520" stroke="#ccc"/>
</svg>