<svg xmlns="http://www.w3.org/2000/svg" width="800" height="540">
<style> .label{font-family:DejaVu Sans,Verdana,Geneva,sans-serif;font-size:12px;fill:#333} .value{font-family:DejaVu Sans,Verdana,Geneva,sans-serif;font-size:12px;fill:#555} </style>
<text x="10" y="20" class="label">延迟柱状图（越低越好，Top 15），单位 ms</text>
<text x="10" y="46" class="label">rockstargames.com</text>
<rect x="180" y="30" width="77.04" height="22" fill="#4c78a8" rx="3"/>
<text x="265.04" y="46" class="value">37.13</text>
<text x="10" y="78" class="label">ubisoft.com</text>
<rect x="180" y="62" width="158.77" height="22" fill="#4c78a8" rx="3"/>
<text x="346.77" y="78" class="value">76.52</text>
<text x="10" y="110" class="label">eaassets-a.akamaihd.net</text>
<rect x="180" y="94" width="193.91" height="22" fill="#4c78a8" rx="3"/>
<text x="381.90999999999997" y="110" class="value">93.46</text>
<text x="10" y="142" class="label">ea.com</text>
<rect x="180" y="126" width="216.94" height="22" fill="#4c78a8" rx="3"/>
<text x="404.94" y="142" class="value">104.56</text>
<text x="10" y="174" class="label">community.akamai.steamstatic.com</text>
<rect x="180" y="158" width="271.45" height="22" fill="#4c78a8" rx="3"/>
<text x="459.45" y="174" class="value">130.83</text>
<text x="10" y="206" class="label">cdn.cloudflare.steamstatic.com</text>
<rect x="180" y="190" width="283.01" height="22" fill="#4c78a8" rx="3"/>
<text x="471.01" y="206" class="value">136.40</text>
<text x="10" y="238" class="label">cdn.akamai.steamstatic.com</text>
<rect x="180" y="222" width="373.28" height="22" fill="#4c78a8" rx="3"/>
<text x="561.28" y="238" class="value">179.91</text>
<text x="10" y="270" class="label">store.akamai.steamstatic.com</text>
<rect x="180" y="254" width="438.6" height="22" fill="#4c78a8" rx="3"/>
<text x="626.6" y="270" class="value">211.39</text>
<text x="10" y="302" class="label">api.steampowered.com</text>
<rect x="180" y="286" width="452.98" height="22" fill="#4c78a8" rx="3"/>
<text x="640.98" y="302" class="value">218.32</text>
<text x="10" y="334" class="label">steamcdn-a.akamaihd.net</text>
<rect x="180" y="318" width="502.05" height="22" fill="#4c78a8" rx="3"/>
<text x="690.05" y="334" class="value">241.97</text>
<text x="10" y="366" class="label">origin.com</text>
<rect x="180" y="350" width="502.15" height="22" fill="#4c78a8" rx="3"/>
<text x="690.15" y="366" class="value">242.02</text>
<text x="10" y="398" class="label">www.steamcommunity.com</text>
<rect x="180" y="382" width="520.83" height="22" fill="#4c78a8" rx="3"/>
<text x="708.83" y="398" class="value">251.02</text>
<text x="10" y="430" class="label">easyanticheat.net</text>
<rect x="180" y="414" width="529.79" height="22" fill="#4c78a8" rx="3"/>
<text x="717.79" y="430" class="value">255.34</text>
<text x="10" y="462" class="label">blizzard.com</text>
<rect x="180" y="446" width="570.6" height="22" fill="#4c78a8" rx="3"/>
<text x="758.6" y="462" class="value">275.01</text>
<text x="10" y="494" class="label">battle.net</text>
<rect x="180" y="478" width="580.0" height="22" fill="#4c78a8" rx="3"/>
<text x="768.0" y="494" class="value">279.54</text>
<line x1="180" y1="30" x2="180" y2="520" stroke="#ccc"/>
<line x1="180" y1="520" x2="760" y2="520" stroke="#ccc"/>
</svg>