<svg xmlns="http://www.w3.org/2000/svg" width="800" height="540">
<style> .label{font-family:DejaVu Sans,Verdana,Geneva,sans-serif;font-size:12px;fill:#333} .value{font-family:DejaVu Sans,Verdana,Geneva,sans-serif;font-size:12px;fill:#555} </style>
<text x="10" y="20" class="label">延迟柱状图（越低越好，Top 15），单位 ms</text>
<text x="10" y="46" class="label">rockstargames.com</text>
<rect x="180" y="30" width="147.58" height="22" fill="#4c78a8" rx="3"/>
<text x="335.58000000000004" y="46" class="value">50.67</text>
<text x="10" y="78" class="label">fortnite.com</text>
<rect x="180" y="62" width="232.39" height="22" fill="#4c78a8" rx="3"/>
<text x="420.39" y="78" class="value">79.79</text>
<text x="10" y="110" class="label">socialclub.rockstargames.com</text>
<rect x="180" y="94" width="245.38" height="22" fill="#4c78a8" rx="3"/>
<text x="433.38" y="110" class="value">84.25</text>
<text x="10" y="142" class="label">blizzard.com</text>
<rect x="180" y="126" width="269.29" height="22" fill="#4c78a8" rx="3"/>
<text x="457.29" y="142" class="value">92.46</text>
<text x="10" y="174" class="label">battle.net</text>
<rect x="180" y="158" width="296.93" height="22" fill="#4c78a8" rx="3"/>
<text x="484.93" y="174" class="value">101.95</text>
<text x="10" y="206" class="label">ea.com</text>
<rect x="180" y="190" width="310.53" height="22" fill="#4c78a8" rx="3"/>
<text x="498.53" y="206" class="value">106.62</text>
<text x="10" y="238" class="label">ubi.com</text>
<rect x="180" y="222" width="355.88" height="22" fill="#4c78a8" rx="3"/>
<text x="543.88" y="238" class="value">122.19</text>
<text x="10" y="270" class="label">epicgames.com</text>
<rect x="180" y="254" width="358.36" height="22" fill="#4c78a8" rx="3"/>
<text x="546.36" y="270" class="value">123.04</text>
<text x="10" y="302" class="label">ubisoft.com</text>
<rect x="180" y="286" width="482.84" height="22" fill="#4c78a8" rx="3"/>
<text x="670.8399999999999" y="302" class="value">165.78</text>
<text x="10" y="334" class="label">eaassets-a.akamaihd.net</text>
<rect x="180" y="318" width="515.37" height="22" fill="#4c78a8" rx="3"/>
<text x="703.37" y="334" class="value">176.95</text>
<text x="10" y="366" class="label">origin.com</text>
<rect x="180" y="350" width="515.87" height="22" fill="#4c78a8" rx="3"/>
<text x="703.87" y="366" class="value">177.12</text>
<text x="10" y="398" class="label">static3.cdn.ubi.com</text>
<rect x="180" y="382" width="519.8" height="22" fill="#4c78a8" rx="3"/>
<text x="707.8" y="398" class="value">178.47</text>
<text x="10" y="430" class="label">steamcdn-a.akamaihd.net</text>
<rect x="180" y="414" width="532.44" height="22" fill="#4c78a8" rx="3"/>
<text x="720.44" y="430" class="value">182.81</text>
<text x="10" y="462" class="label">community.akamai.steamstatic.com</text>
<rect x="180" y="446" width="565.58" height="22" fill="#4c78a8" rx="3"/>
<text x="753.58" y="462" class="value">194.19</text>
<text x="10" y="494" class="label">cdn.akamai.steamstatic.com</text>
<rect x="180" y="478" width="580.0" height="22" fill="#4c78a8" rx="3"/>
<text x="768.0" y="494" class="value">199.14</text>
<line x1="180" y1="30" x2="180" y2="520" stroke="#ccc"/>
<line x1="180" y1="520" x2="760" y2="520" stroke="#ccc"/>
</svg>