<svg xmlns="http://www.w3.org/2000/svg" width="800" height="540">
<style> .label{font-family:DejaVu Sans,Verdana,Geneva,sans-serif;font-size:12px;fill:#333} .value{font-family:DejaVu Sans,Verdana,Geneva,sans-serif;font-size:12px;fill:#555} </style>
<text x="10" y="20" class="label">延迟柱状图（越低越好，Top 15），单位 ms</text>
<text x="10" y="46" class="label">rockstargames.com</text>
<rect x="180" y="30" width="77.07" height="22" fill="#4c78a8" rx="3"/>
<text x="265.07" y="46" class="value">38.49</text>
<text x="10" y="78" class="label">eaassets-a.akamaihd.net</text>
<rect x="180" y="62" width="110.09" height="22" fill="#4c78a8" rx="3"/>
<text x="298.09000000000003" y="78" class="value">54.98</text>
<text x="10" y="110" class="label">ea.com</text>
<rect x="180" y="94" width="129.83" height="22" fill="#4c78a8" rx="3"/>
<text x="317.83000000000004" y="110" class="value">64.84</text>
<text x="10" y="142" class="label">origin.com</text>
<rect x="180" y="126" width="198.33" height="22" fill="#4c78a8" rx="3"/>
<text x="386.33000000000004" y="142" class="value">99.05</text>
<text x="10" y="174" class="label">ubisoft.com</text>
<rect x="180" y="158" width="308.19" height="22" fill="#4c78a8" rx="3"/>
<text x="496.19" y="174" class="value">153.92</text>
<text x="10" y="206" class="label">cdn.akamai.steamstatic.com</text>
<rect x="180" y="190" width="319.86" height="22" fill="#4c78a8" rx="3"/>
<text x="507.86" y="206" class="value">159.75</text>
<text x="10" y="238" class="label">steamcdn-a.akamaihd.net</text>
<rect x="180" y="222" width="332.16" height="22" fill="#4c78a8" rx="3"/>
<text x="520.1600000000001" y="238" class="value">165.89</text>
<text x="10" y="270" class="label">community.akamai.steamstatic.com</text>
<rect x="180" y="254" width="364.76" height="22" fill="#4c78a8" rx="3"/>
<text x="552.76" y="270" class="value">182.17</text>
<text x="10" y="302" class="label">store.akamai.steamstatic.com</text>
<rect x="180" y="286" width="399.63" height="22" fill="#4c78a8" rx="3"/>
<text x="587.63" y="302" class="value">199.59</text>
<text x="10" y="334" class="label">easyanticheat.net</text>
<rect x="180" y="318" width="423.48" height="22" fill="#4c78a8" rx="3"/>
<text x="611.48" y="334" class="value">211.50</text>
<text x="10" y="366" class="label">cdn.cloudflare.steamstatic.com</text>
<rect x="180" y="350" width="464.27" height="22" fill="#4c78a8" rx="3"/>
<text x="652.27" y="366" class="value">231.87</text>
<text x="10" y="398" class="label">www.steamcommunity.com</text>
<rect x="180" y="382" width="519.97" height="22" fill="#4c78a8" rx="3"/>
<text x="707.97" y="398" class="value">259.69</text>
<text x="10" y="430" class="label">steam-chat.com</text>
<rect x="180" y="414" width="525.78" height="22" fill="#4c78a8" rx="3"/>
<text x="713.78" y="430" class="value">262.59</text>
<text x="10" y="462" class="label">battle.net</text>
<rect x="180" y="446" width="572.61" height="22" fill="#4c78a8" rx="3"/>
<text x="760.61" y="462" class="value">285.98</text>
<text x="10" y="494" class="label">ubi.com</text>
<rect x="180" y="478" width="580.0" height="22" fill="#4c78a8" rx="3"/>
<text x="768.0" y="494" class="value">289.67</text>
<line x1="180" y1="30" x2="180" y2="520" stroke="#ccc"/>
<line x1="180" y1="520" x2="760" y2="520" stroke="#ccc"/>
</svg>