<svg xmlns="http://www.w3.org/2000/svg" width="800" height="540">
<style> .label{font-family:DejaVu Sans,Verdana,Geneva,sans-serif;font-size:12px;fill:#333} .value{font-family:DejaVu Sans,Verdana,Geneva,sans-serif;font-size:12px;fill:#555} </style>
<text x="10" y="20" class="label">延迟柱状图（越低越好，Top 15），单位 ms</text>
<text x="10" y="46" class="label">rockstargames.com</text>
<rect x="180" y="30" width="94.47" height="22" fill="#4c78a8" rx="3"/>
<text x="282.47" y="46" class="value">44.32</text>
<text x="10" y="78" class="label">ea.com</text>
<rect x="180" y="62" width="170.28" height="22" fill="#4c78a8" rx="3"/>
<text x="358.28" y="78" class="value">79.88</text>
<text x="10" y="110" class="label">eaassets-a.akamaihd.net</text>
<rect x="180" y="94" width="201.97" height="22" fill="#4c78a8" rx="3"/>
<text x="389.97" y="110" class="value">94.75</text>
<text x="10" y="142" class="label">community.akamai.steamstatic.com</text>
<rect x="180" y="126" width="215.74" height="22" fill="#4c78a8" rx="3"/>
<text x="403.74" y="142" class="value">101.21</text>
<text x="10" y="174" class="label">ubisoft.com</text>
<rect x="180" y="158" width="237.4" height="22" fill="#4c78a8" rx="3"/>
<text x="425.4" y="174" class="value">111.37</text>
<text x="10" y="206" class="label">easyanticheat.net</text>
<rect x="180" y="190" width="284.23" height="22" fill="#4c78a8" rx="3"/>
<text x="472.23" y="206" class="value">133.34</text>
<text x="10" y="238" class="label">steamcdn-a.akamaihd.net</text>
<rect x="180" y="222" width="371.87" height="22" fill="#4c78a8" rx="3"/>
<text x="559.87" y="238" class="value">174.45</text>
<text x="10" y="270" class="label">www.steamcommunity.com</text>
<rect x="180" y="254" width="396.59" height="22" fill="#4c78a8" rx="3"/>
<text x="584.5899999999999" y="270" class="value">186.05</text>
<text x="10" y="302" class="label">cdn.akamai.steamstatic.com</text>
<rect x="180" y="286" width="409.06" height="22" fill="#4c78a8" rx="3"/>
<text x="597.06" y="302" class="value">191.90</text>
<text x="10" y="334" class="label">gog.com</text>
<rect x="180" y="318" width="419.59" height="22" fill="#4c78a8" rx="3"/>
<text x="607.5899999999999" y="334" class="value">196.84</text>
<text x="10" y="366" class="label">steam-chat.com</text>
<rect x="180" y="350" width="427.84" height="22" fill="#4c78a8" rx="3"/>
<text x="615.8399999999999" y="366" class="value">200.71</text>
<text x="10" y="398" class="label">store.akamai.steamstatic.com</text>
<rect x="180" y="382" width="488.79" height="22" fill="#4c78a8" rx="3"/>
<text x="676.79" y="398" class="value">229.30</text>
<text x="10" y="430" class="label">launcher-public-service-prod06.ol.epicgames.com</text>
<rect x="180" y="414" width="505.99" height="22" fill="#4c78a8" rx="3"/>
<text x="693.99" y="430" class="value">237.37</text>
<text x="10" y="462" class="label">origin.com</text>
<rect x="180" y="446" width="524.94" height="22" fill="#4c78a8" rx="3"/>
<text x="712.94" y="462" class="value">246.26</text>
<text x="10" y="494" class="label">cdn.cloudflare.steamstatic.com</text>
<rect x="180" y="478" width="580.0" height="22" fill="#4c78a8" rx="3"/>
<text x="768.0" y="494" class="value">272.09</text>
<line x1="180" y1="30" x2="180" y2="520" stroke="#ccc"/>
<line x1="180" y1="520" x2="760" y2="520" stroke="#ccc"/>
</svg>