<svg xmlns="http://www.w3.org/2000/svg" width="800" height="540">
<style> .label{font-family:DejaVu Sans,Verdana,Geneva,sans-serif;font-size:12px;fill:#333} .value{font-family:DejaVu Sans,Verdana,Geneva,sans-serif;font-size:12px;fill:#555} </style>
<text x="10" y="20" class="label">延迟柱状图（越低越好，Top 15），单位 ms</text>
<text x="10" y="46" class="label">rockstargames.com</text>
<rect x="180" y="30" width="99.9" height="22" fill="#4c78a8" rx="3"/>
<text x="287.9" y="46" class="value">48.46</text>
<text x="10" y="78" class="label">ea.com</text>
<rect x="180" y="62" width="128.48" height="22" fill="#4c78a8" rx="3"/>
<text x="316.48" y="78" class="value">62.32</text>
<text x="10" y="110" class="label">ubisoft.com</text>
<rect x="180" y="94" width="140.56" height="22" fill="#4c78a8" rx="3"/>
<text x="328.56" y="110" class="value">68.18</text>
<text x="10" y="142" class="label">eaassets-a.akamaihd.net</text>
<rect x="180" y="126" width="143.26" height="22" fill="#4c78a8" rx="3"/>
<text x="331.26" y="142" class="value">69.49</text>
<text x="10" y="174" class="label">origin.com</text>
<rect x="180" y="158" width="216.84" height="22" fill="#4c78a8" rx="3"/>
<text x="404.84000000000003" y="174" class="value">105.18</text>
<text x="10" y="206" class="label">cdn.akamai.steamstatic.com</text>
<rect x="180" y="190" width="231.45" height="22" fill="#4c78a8" rx="3"/>
<text x="419.45" y="206" class="value">112.27</text>
<text x="10" y="238" class="label">store.akamai.steamstatic.com</text>
<rect x="180" y="222" width="252.23" height="22" fill="#4c78a8" rx="3"/>
<text x="440.23" y="238" class="value">122.35</text>
<text x="10" y="270" class="label">community.akamai.steamstatic.com</text>
<rect x="180" y="254" width="281.03" height="22" fill="#4c78a8" rx="3"/>
<text x="469.03" y="270" class="value">136.32</text>
<text x="10" y="302" class="label">easyanticheat.net</text>
<rect x="180" y="286" width="389.51" height="22" fill="#4c78a8" rx="3"/>
<text x="577.51" y="302" class="value">188.94</text>
<text x="10" y="334" class="label">steamcdn-a.akamaihd.net</text>
<rect x="180" y="318" width="414.04" height="22" fill="#4c78a8" rx="3"/>
<text x="602.04" y="334" class="value">200.84</text>
<text x="10" y="366" class="label">api.steampowered.com</text>
<rect x="180" y="350" width="486.53" height="22" fill="#4c78a8" rx="3"/>
<text x="674.53" y="366" class="value">236.00</text>
<text x="10" y="398" class="label">cdn.cloudflare.steamstatic.com</text>
<rect x="180" y="382" width="488.86" height="22" fill="#4c78a8" rx="3"/>
<text x="676.86" y="398" class="value">237.13</text>
<text x="10" y="430" class="label">steam-chat.com</text>
<rect x="180" y="414" width="510.01" height="22" fill="#4c78a8" rx="3"/>
<text x="698.01" y="430" class="value">247.39</text>
<text x="10" y="462" class="label">www.steamcommunity.com</text>
<rect x="180" y="446" width="555.14" height="22" fill="#4c78a8" rx="3"/>
<text x="743.14" y="462" class="value">269.28</text>
<text x="10" y="494" class="label">launcher-public-service-prod06.ol.epicgames.com</text>
<rect x="180" y="478" width="580.0" height="22" fill="#4c78a8" rx="3"/>
<text x="768.0" y="494" class="value">281.34</text>
<line x1="180" y1="30" x2="180" y2="520" stroke="#ccc"/>
<line x1="180" y1="520" x2="760" y2="520" stroke="#ccc"/>
</svg>