<svg xmlns="http://www.w3.org/2000/svg" width="800" height="540">
<style> .label{font-family:DejaVu Sans,Verdana,Geneva,sans-serif;font-size:12px;fill:#333} .value{font-family:DejaVu Sans,Verdana,Geneva,sans-serif;font-size:12px;fill:#555} </style>
<text x="10" y="20" class="label">延迟柱状图（越低越好，Top 15），单位 ms</text>
<text x="10" y="46" class="label">rockstargames.com</text>
<rect x="180" y="30" width="133.3" height="22" fill="#4c78a8" rx="3"/>
<text x="321.3" y="46" class="value">44.53</text>
<text x="10" y="78" class="label">socialclub.rockstargames.com</text>
<rect x="180" y="62" width="201.35" height="22" fill="#4c78a8" rx="3"/>
<text x="389.35" y="78" class="value">67.26</text>
<text x="10" y="110" class="label">blizzard.com</text>
<rect x="180" y="94" width="262.5" height="22" fill="#4c78a8" rx="3"/>
<text x="450.5" y="110" class="value">87.69</text>
<text x="10" y="142" class="label">epicgames.com</text>
<rect x="180" y="126" width="276.27" height="22" fill="#4c78a8" rx="3"/>
<text x="464.27" y="142" class="value">92.29</text>
<text x="10" y="174" class="label">ubi.com</text>
<rect x="180" y="158" width="284.99" height="22" fill="#4c78a8" rx="3"/>
<text x="472.99" y="174" class="value">95.20</text>
<text x="10" y="206" class="label">store.akamai.steamstatic.com</text>
<rect x="180" y="190" width="310.4" height="22" fill="#4c78a8" rx="3"/>
<text x="498.4" y="206" class="value">103.69</text>
<text x="10" y="238" class="label">ubisoft.com</text>
<rect x="180" y="222" width="363.0" height="22" fill="#4c78a8" rx="3"/>
<text x="551.0" y="238" class="value">121.26</text>
<text x="10" y="270" class="label">fortnite.com</text>
<rect x="180" y="254" width="369.19" height="22" fill="#4c78a8" rx="3"/>
<text x="557.19" y="270" class="value">123.33</text>
<text x="10" y="302" class="label">eaassets-a.akamaihd.net</text>
<rect x="180" y="286" width="400.72" height="22" fill="#4c78a8" rx="3"/>
<text x="588.72" y="302" class="value">133.86</text>
<text x="10" y="334" class="label">easyanticheat.net</text>
<rect x="180" y="318" width="420.47" height="22" fill="#4c78a8" rx="3"/>
<text x="608.47" y="334" class="value">140.46</text>
<text x="10" y="366" class="label">battle.net</text>
<rect x="180" y="350" width="426.79" height="22" fill="#4c78a8" rx="3"/>
<text x="614.79" y="366" class="value">142.57</text>
<text x="10" y="398" class="label">cdn.cloudflare.steamstatic.com</text>
<rect x="180" y="382" width="499.77" height="22" fill="#4c78a8" rx="3"/>
<text x="687.77" y="398" class="value">166.95</text>
<text x="10" y="430" class="label">community.akamai.steamstatic.com</text>
<rect x="180" y="414" width="521.33" height="22" fill="#4c78a8" rx="3"/>
<text x="709.33" y="430" class="value">174.15</text>
<text x="10" y="462" class="label">ea.com</text>
<rect x="180" y="446" width="569.88" height="22" fill="#4c78a8" rx="3"/>
<text x="757.88" y="462" class="value">190.37</text>
<text x="10" y="494" class="label">origin.com</text>
<rect x="180" y="478" width="580.0" height="22" fill="#4c78a8" rx="3"/>
<text x="768.0" y="494" class="value">193.75</text>
<line x1="180" y1="30" x2="180" y2="520" stroke="#ccc"/>
<line x1="180" y1="520" x2="760" y2="520" stroke="#ccc"/>
</svg>