<svg xmlns="http://www.w3.org/2000/svg" width="800" height="540">
<style> .label{font-family:DejaVu Sans,Verdana,Geneva,sans-serif;font-size:12px;fill:#333} .value{font-family:DejaVu Sans,Verdana,Geneva,sans-serif;font-size:12px;fill:#555} </style>
<text x="10" y="20" class="label">延迟柱状图（越低越好，Top 15），单位 ms</text>
<text x="10" y="46" class="label">eaassets-a.akamaihd.net</text>
<rect x="180" y="30" width="216.69" height="22" fill="#4c78a8" rx="3"/>
<text x="404.69" y="46" class="value">81.18</text>
<text x="10" y="78" class="label">ea.com</text>
<rect x="180" y="62" width="238.15" height="22" fill="#4c78a8" rx="3"/>
<text x="426.15" y="78" class="value">89.22</text>
<text x="10" y="110" class="label">rockstargames.com</text>
<rect x="180" y="94" width="241.22" height="22" fill="#4c78a8" rx="3"/>
<text x="429.22" y="110" class="value">90.37</text>
<text x="10" y="142" class="label">socialclub.rockstargames.com</text>
<rect x="180" y="126" width="380.82" height="22" fill="#4c78a8" rx="3"/>
<text x="568.8199999999999" y="142" class="value">142.67</text>
<text x="10" y="174" class="label">battle.net</text>
<rect x="180" y="158" width="392.99" height="22" fill="#4c78a8" rx="3"/>
<text x="580.99" y="174" class="value">147.23</text>
<text x="10" y="206" class="label">community.akamai.steamstatic.com</text>
<rect x="180" y="190" width="397.21" height="22" fill="#4c78a8" rx="3"/>
<text x="585.21" y="206" class="value">148.81</text>
<text x="10" y="238" class="label">ubisoft.com</text>
<rect x="180" y="222" width="419.12" height="22" fill="#4c78a8" rx="3"/>
<text x="607.12" y="238" class="value">157.02</text>
<text x="10" y="270" class="label">blizzard.com</text>
<rect x="180" y="254" width="431.67" height="22" fill="#4c78a8" rx="3"/>
<text x="619.6700000000001" y="270" class="value">161.72</text>
<text x="10" y="302" class="label">easyanticheat.net</text>
<rect x="180" y="286" width="432.76" height="22" fill="#4c78a8" rx="3"/>
<text x="620.76" y="302" class="value">162.13</text>
<text x="10" y="334" class="label">ubi.com</text>
<rect x="180" y="318" width="432.87" height="22" fill="#4c78a8" rx="3"/>
<text x="620.87" y="334" class="value">162.17</text>
<text x="10" y="366" class="label">origin.com</text>
<rect x="180" y="350" width="490.53" height="22" fill="#4c78a8" rx="3"/>
<text x="678.53" y="366" class="value">183.77</text>
<text x="10" y="398" class="label">static3.cdn.ubi.com</text>
<rect x="180" y="382" width="490.61" height="22" fill="#4c78a8" rx="3"/>
<text x="678.61" y="398" class="value">183.80</text>
<text x="10" y="430" class="label">steamcdn-a.akamaihd.net</text>
<rect x="180" y="414" width="511.37" height="22" fill="#4c78a8" rx="3"/>
<text x="699.37" y="430" class="value">191.58</text>
<text x="10" y="462" class="label">store.akamai.steamstatic.com</text>
<rect x="180" y="446" width="542.79" height="22" fill="#4c78a8" rx="3"/>
<text x="730.79" y="462" class="value">203.35</text>
<text x="10" y="494" class="label">cdn.cloudflare.steamstatic.com</text>
<rect x="180" y="478" width="580.0" height="22" fill="#4c78a8" rx="3"/>
<text x="768.0" y="494" class="value">217.29</text>
<line x1="180" y1="30" x2="180" y2="520" stroke="#ccc"/>
<line x1="180" y1="520" x2="760" y2="520" stroke="#ccc"/>
</svg>