<svg xmlns="http://www.w3.org/2000/svg" width="800" height="540">
<style> .label{font-family:DejaVu Sans,Verdana,Geneva,sans-serif;font-size:12px;fill:#333} .value{font-family:DejaVu Sans,Verdana,Geneva,sans-serif;font-size:12px;fill:#555} </style>
<text x="10" y="20" class="label">延迟柱状图（越低越好，Top 15），单位 ms</text>
<text x="10" y="46" class="label">eaassets-a.akamaihd.net</text>
<rect x="180" y="30" width="140.59" height="22" fill="#4c78a8" rx="3"/>
<text x="328.59000000000003" y="46" class="value">41.99</text>
<text x="10" y="78" class="label">ea.com</text>
<rect x="180" y="62" width="222.85" height="22" fill="#4c78a8" rx="3"/>
<text x="410.85" y="78" class="value">66.56</text>
<text x="10" y="110" class="label">rockstargames.com</text>
<rect x="180" y="94" width="341.24" height="22" fill="#4c78a8" rx="3"/>
<text x="529.24" y="110" class="value">101.92</text>
<text x="10" y="142" class="label">store.akamai.steamstatic.com</text>
<rect x="180" y="126" width="346.57" height="22" fill="#4c78a8" rx="3"/>
<text x="534.5699999999999" y="142" class="value">103.51</text>
<text x="10" y="174" class="label">origin.com</text>
<rect x="180" y="158" width="369.54" height="22" fill="#4c78a8" rx="3"/>
<text x="557.54" y="174" class="value">110.37</text>
<text x="10" y="206" class="label">socialclub.rockstargames.com</text>
<rect x="180" y="190" width="427.09" height="22" fill="#4c78a8" rx="3"/>
<text x="615.0899999999999" y="206" class="value">127.56</text>
<text x="10" y="238" class="label">blizzard.com</text>
<rect x="180" y="222" width="438.71" height="22" fill="#4c78a8" rx="3"/>
<text x="626.71" y="238" class="value">131.03</text>
<text x="10" y="270" class="label">static3.cdn.ubi.com</text>
<rect x="180" y="254" width="490.17" height="22" fill="#4c78a8" rx="3"/>
<text x="678.1700000000001" y="270" class="value">146.40</text>
<text x="10" y="302" class="label">steamcdn-a.akamaihd.net</text>
<rect x="180" y="286" width="511.13" height="22" fill="#4c78a8" rx="3"/>
<text x="699.13" y="302" class="value">152.66</text>
<text x="10" y="334" class="label">ubi.com</text>
<rect x="180" y="318" width="527.67" height="22" fill="#4c78a8" rx="3"/>
<text x="715.67" y="334" class="value">157.60</text>
<text x="10" y="366" class="label">community.akamai.steamstatic.com</text>
<rect x="180" y="350" width="536.57" height="22" fill="#4c78a8" rx="3"/>
<text x="724.57" y="366" class="value">160.26</text>
<text x="10" y="398" class="label">ubisoft.com</text>
<rect x="180" y="382" width="537.04" height="22" fill="#4c78a8" rx="3"/>
<text x="725.04" y="398" class="value">160.40</text>
<text x="10" y="430" class="label">api.steampowered.com</text>
<rect x="180" y="414" width="562.19" height="22" fill="#4c78a8" rx="3"/>
<text x="750.19" y="430" class="value">167.91</text>
<text x="10" y="462" class="label">cdn.akamai.steamstatic.com</text>
<rect x="180" y="446" width="569.19" height="22" fill="#4c78a8" rx="3"/>
<text x="757.19" y="462" class="value">170.00</text>
<text x="10" y="494" class="label">battle.net</text>
<rect x="180" y="478" width="580.0" height="22" fill="#4c78a8" rx="3"/>
<text x="768.0" y="494" class="value">173.23</text>
<line x1="180" y1="30" x2="180" y2="520" stroke="#ccc"/>
<line x1="180" y1="520" x2="760" y2="520" stroke="#ccc"/>
</svg>