<svg xmlns="http://www.w3.org/2000/svg" width="800" height="540">
<style> .label{font-family:DejaVu Sans,Verdana,Geneva,sans-serif;font-size:12px;fill:#333} .value{font-family:DejaVu Sans,Verdana,Geneva,sans-serif;font-size:12px;fill:#555} </style>
<text x="10" y="20" class="label">延迟柱状图（越低越好，Top 15），单位 ms</text>
<text x="10" y="46" class="label">socialclub.rockstargames.com</text>
<rect x="180" y="30" width="292.36" height="22" fill="#4c78a8" rx="3"/>
<text x="480.36" y="46" class="value">108.86</text>
<text x="10" y="78" class="label">rockstargames.com</text>
<rect x="180" y="62" width="302.57" height="22" fill="#4c78a8" rx="3"/>
<text x="490.57" y="78" class="value">112.66</text>
<text x="10" y="110" class="label">eaassets-a.akamaihd.net</text>
<rect x="180" y="94" width="310.76" height="22" fill="#4c78a8" rx="3"/>
<text x="498.76" y="110" class="value">115.71</text>
<text x="10" y="142" class="label">battle.net</text>
<rect x="180" y="126" width="333.53" height="22" fill="#4c78a8" rx="3"/>
<text x="521.53" y="142" class="value">124.19</text>
<text x="10" y="174" class="label">blizzard.com</text>
<rect x="180" y="158" width="354.99" height="22" fill="#4c78a8" rx="3"/>
<text x="542.99" y="174" class="value">132.18</text>
<text x="10" y="206" class="label">ubisoft.com</text>
<rect x="180" y="190" width="359.67" height="22" fill="#4c78a8" rx="3"/>
<text x="547.6700000000001" y="206" class="value">133.92</text>
<text x="10" y="238" class="label">ea.com</text>
<rect x="180" y="222" width="372.1" height="22" fill="#4c78a8" rx="3"/>
<text x="560.1" y="238" class="value">138.55</text>
<text x="10" y="270" class="label">ubi.com</text>
<rect x="180" y="254" width="380.08" height="22" fill="#4c78a8" rx="3"/>
<text x="568.0799999999999" y="270" class="value">141.52</text>
<text x="10" y="302" class="label">epicgames.com</text>
<rect x="180" y="286" width="393.24" height="22" fill="#4c78a8" rx="3"/>
<text x="581.24" y="302" class="value">146.42</text>
<text x="10" y="334" class="label">unrealengine.com</text>
<rect x="180" y="318" width="396.38" height="22" fill="#4c78a8" rx="3"/>
<text x="584.38" y="334" class="value">147.59</text>
<text x="10" y="366" class="label">static3.cdn.ubi.com</text>
<rect x="180" y="350" width="445.02" height="22" fill="#4c78a8" rx="3"/>
<text x="633.02" y="366" class="value">165.70</text>
<text x="10" y="398" class="label">launcher-public-service-prod06.ol.epicgames.com</text>
<rect x="180" y="382" width="457.26" height="22" fill="#4c78a8" rx="3"/>
<text x="645.26" y="398" class="value">170.26</text>
<text x="10" y="430" class="label">cdn.cloudflare.steamstatic.com</text>
<rect x="180" y="414" width="473.46" height="22" fill="#4c78a8" rx="3"/>
<text x="661.46" y="430" class="value">176.29</text>
<text x="10" y="462" class="label">origin.com</text>
<rect x="180" y="446" width="537.22" height="22" fill="#4c78a8" rx="3"/>
<text x="725.22" y="462" class="value">200.03</text>
<text x="10" y="494" class="label">fortnite.com</text>
<rect x="180" y="478" width="580.0" height="22" fill="#4c78a8" rx="3"/>
<text x="768.0" y="494" class="value">215.96</text>
<line x1="180" y1="30" x2="180" y2="520" stroke="#ccc"/>
<line x1="180" y1="520" x2="760" y2="520" stroke="#ccc"/>
</svg>