<svg xmlns="http://www.w3.org/2000/svg" width="800" height="540">
<style> .label{font-family:DejaVu Sans,Verdana,Geneva,sans-serif;font-size:12px;fill:#333} .value{font-family:DejaVu Sans,Verdana,Geneva,sans-serif;font-size:12px;fill:#555} </style>
<text x="10" y="20" class="label">延迟柱状图（越低越好，Top 15），单位 ms</text>
<text x="10" y="46" class="label">rockstargames.com</text>
<rect x="180" y="30" width="371.86" height="22" fill="#4c78a8" rx="3"/>
<text x="559.86" y="46" class="value">137.28</text>
<text x="10" y="78" class="label">easyanticheat.net</text>
<rect x="180" y="62" width="421.35" height="22" fill="#4c78a8" rx="3"/>
<text x="609.35" y="78" class="value">155.55</text>
<text x="10" y="110" class="label">steamcdn-a.akamaihd.net</text>
<rect x="180" y="94" width="423.76" height="22" fill="#4c78a8" rx="3"/>
<text x="611.76" y="110" class="value">156.44</text>
<text x="10" y="142" class="label">eaassets-a.akamaihd.net</text>
<rect x="180" y="126" width="431.75" height="22" fill="#4c78a8" rx="3"/>
<text x="619.75" y="142" class="value">159.39</text>
<text x="10" y="174" class="label">ubi.com</text>
<rect x="180" y="158" width="444.91" height="22" fill="#4c78a8" rx="3"/>
<text x="632.9100000000001" y="174" class="value">164.25</text>
<text x="10" y="206" class="label">battle.net</text>
<rect x="180" y="190" width="445.43" height="22" fill="#4c78a8" rx="3"/>
<text x="633.4300000000001" y="206" class="value">164.44</text>
<text x="10" y="238" class="label">blizzard.com</text>
<rect x="180" y="222" width="463.85" height="22" fill="#4c78a8" rx="3"/>
<text x="651.85" y="238" class="value">171.24</text>
<text x="10" y="270" class="label">store.akamai.steamstatic.com</text>
<rect x="180" y="254" width="480.48" height="22" fill="#4c78a8" rx="3"/>
<text x="668.48" y="270" class="value">177.38</text>
<text x="10" y="302" class="label">fortnite.com</text>
<rect x="180" y="286" width="486.47" height="22" fill="#4c78a8" rx="3"/>
<text x="674.47" y="302" class="value">179.59</text>
<text x="10" y="334" class="label">unrealengine.com</text>
<rect x="180" y="318" width="515.99" height="22" fill="#4c78a8" rx="3"/>
<text x="703.99" y="334" class="value">190.49</text>
<text x="10" y="366" class="label">launcher-public-service-prod06.ol.epicgames.com</text>
<rect x="180" y="350" width="519.03" height="22" fill="#4c78a8" rx="3"/>
<text x="707.03" y="366" class="value">191.61</text>
<text x="10" y="398" class="label">origin.com</text>
<rect x="180" y="382" width="527.61" height="22" fill="#4c78a8" rx="3"/>
<text x="715.61" y="398" class="value">194.78</text>
<text x="10" y="430" class="label">ubisoft.com</text>
<rect x="180" y="414" width="539.67" height="22" fill="#4c78a8" rx="3"/>
<text x="727.67" y="430" class="value">199.23</text>
<text x="10" y="462" class="label">ea.com</text>
<rect x="180" y="446" width="544.81" height="22" fill="#4c78a8" rx="3"/>
<text x="732.81" y="462" class="value">201.13</text>
<text x="10" y="494" class="label">socialclub.rockstargames.com</text>
<rect x="180" y="478" width="580.0" height="22" fill="#4c78a8" rx="3"/>
<text x="768.0" y="494" class="value">214.12</text>
<line x1="180" y1="30" x2="180" y2="520" stroke="#ccc"/>
<line x1="180" y1="520" x2="760" y2="520" stroke="#ccc"/>
</svg>