<svg xmlns="http://www.w3.org/2000/svg" width="800" height="540">
<style> .label{font-family:DejaVu Sans,Verdana,Geneva,sans-serif;font-size:12px;fill:#333} .value{font-family:DejaVu Sans,Verdana,Geneva,sans-serif;font-size:12px;fill:#555} </style>
<text x="10" y="20" class="label">延迟柱状图（越低越好，Top 15），单位 ms</text>
<text x="10" y="46" class="label">rockstargames.com</text>
<rect x="180" y="30" width="183.1" height="22" fill="#4c78a8" rx="3"/>
<text x="371.1" y="46" class="value">66.95</text>
<text x="10" y="78" class="label">eaassets-a.akamaihd.net</text>
<rect x="180" y="62" width="194.51" height="22" fill="#4c78a8" rx="3"/>
<text x="382.51" y="78" class="value">71.12</text>
<text x="10" y="110" class="label">steamcdn-a.akamaihd.net</text>
<rect x="180" y="94" width="287.66" height="22" fill="#4c78a8" rx="3"/>
<text x="475.66" y="110" class="value">105.18</text>
<text x="10" y="142" class="label">ea.com</text>
<rect x="180" y="126" width="316.16" height="22" fill="#4c78a8" rx="3"/>
<text x="504.16" y="142" class="value">115.60</text>
<text x="10" y="174" class="label">cdn.akamai.steamstatic.com</text>
<rect x="180" y="158" width="332.0" height="22" fill="#4c78a8" rx="3"/>
<text x="520.0" y="174" class="value">121.39</text>
<text x="10" y="206" class="label">blizzard.com</text>
<rect x="180" y="190" width="343.1" height="22" fill="#4c78a8" rx="3"/>
<text x="531.1" y="206" class="value">125.45</text>
<text x="10" y="238" class="label">store.akamai.steamstatic.com</text>
<rect x="180" y="222" width="360.77" height="22" fill="#4c78a8" rx="3"/>
<text x="548.77" y="238" class="value">131.91</text>
<text x="10" y="270" class="label">battle.net</text>
<rect x="180" y="254" width="382.15" height="22" fill="#4c78a8" rx="3"/>
<text x="570.15" y="270" class="value">139.73</text>
<text x="10" y="302" class="label">socialclub.rockstargames.com</text>
<rect x="180" y="286" width="402.91" height="22" fill="#4c78a8" rx="3"/>
<text x="590.9100000000001" y="302" class="value">147.32</text>
<text x="10" y="334" class="label">ubi.com</text>
<rect x="180" y="318" width="437.24" height="22" fill="#4c78a8" rx="3"/>
<text x="625.24" y="334" class="value">159.87</text>
<text x="10" y="366" class="label">ubisoft.com</text>
<rect x="180" y="350" width="485.97" height="22" fill="#4c78a8" rx="3"/>
<text x="673.97" y="366" class="value">177.69</text>
<text x="10" y="398" class="label">origin.com</text>
<rect x="180" y="382" width="512.01" height="22" fill="#4c78a8" rx="3"/>
<text x="700.01" y="398" class="value">187.21</text>
<text x="10" y="430" class="label">cdn.cloudflare.steamstatic.com</text>
<rect x="180" y="414" width="556.94" height="22" fill="#4c78a8" rx="3"/>
<text x="744.94" y="430" class="value">203.64</text>
<text x="10" y="462" class="label">easyanticheat.net</text>
<rect x="180" y="446" width="569.5" height="22" fill="#4c78a8" rx="3"/>
<text x="757.5" y="462" class="value">208.23</text>
<text x="10" y="494" class="label">static3.cdn.ubi.com</text>
<rect x="180" y="478" width="580.0" height="22" fill="#4c78a8" rx="3"/>
<text x="768.0" y="494" class="value">212.07</text>
<line x1="180" y1="30" x2="180" y2="520" stroke="#ccc"/>
<line x1="180" y1="520" x2="760" y2="520" stroke="#ccc"/>
</svg>