<svg xmlns="http://www.w3.org/2000/svg" width="800" height="540">
<style> .label{font-family:DejaVu Sans,Verdana,Geneva,sans-serif;font-size:12px;fill:#333} .value{font-family:DejaVu Sans,Verdana,Geneva,sans-serif;font-size:12px;fill:#555} </style>
<text x="10" y="20" class="label">延迟柱状图（越低越好，Top 15），单位 ms</text>
<text x="10" y="46" class="label">rockstargames.com</text>
<rect x="180" y="30" width="74.34" height="22" fill="#4c78a8" rx="3"/>
<text x="262.34000000000003" y="46" class="value">33.20</text>
<text x="10" y="78" class="label">eaassets-a.akamaihd.net</text>
<rect x="180" y="62" width="166.81" height="22" fill="#4c78a8" rx="3"/>
<text x="354.81" y="78" class="value">74.49</text>
<text x="10" y="110" class="label">ea.com</text>
<rect x="180" y="94" width="202.21" height="22" fill="#4c78a8" rx="3"/>
<text x="390.21000000000004" y="110" class="value">90.30</text>
<text x="10" y="142" class="label">store.akamai.steamstatic.com</text>
<rect x="180" y="126" width="218.78" height="22" fill="#4c78a8" rx="3"/>
<text x="406.78" y="142" class="value">97.70</text>
<text x="10" y="174" class="label">ubisoft.com</text>
<rect x="180" y="158" width="248.11" height="22" fill="#4c78a8" rx="3"/>
<text x="436.11" y="174" class="value">110.80</text>
<text x="10" y="206" class="label">cdn.cloudflare.steamstatic.com</text>
<rect x="180" y="190" width="368.63" height="22" fill="#4c78a8" rx="3"/>
<text x="556.63" y="206" class="value">164.62</text>
<text x="10" y="238" class="label">community.akamai.steamstatic.com</text>
<rect x="180" y="222" width="387.4" height="22" fill="#4c78a8" rx="3"/>
<text x="575.4" y="238" class="value">173.00</text>
<text x="10" y="270" class="label">steamcdn-a.akamaihd.net</text>
<rect x="180" y="254" width="388.74" height="22" fill="#4c78a8" rx="3"/>
<text x="576.74" y="270" class="value">173.60</text>
<text x="10" y="302" class="label">origin.com</text>
<rect x="180" y="286" width="390.17" height="22" fill="#4c78a8" rx="3"/>
<text x="578.1700000000001" y="302" class="value">174.24</text>
<text x="10" y="334" class="label">cdn.akamai.steamstatic.com</text>
<rect x="180" y="318" width="429.97" height="22" fill="#4c78a8" rx="3"/>
<text x="617.97" y="334" class="value">192.01</text>
<text x="10" y="366" class="label">steam-chat.com</text>
<rect x="180" y="350" width="458.85" height="22" fill="#4c78a8" rx="3"/>
<text x="646.85" y="366" class="value">204.91</text>
<text x="10" y="398" class="label">easyanticheat.net</text>
<rect x="180" y="382" width="463.44" height="22" fill="#4c78a8" rx="3"/>
<text x="651.44" y="398" class="value">206.96</text>
<text x="10" y="430" class="label">launcher-public-service-prod06.ol.epicgames.com</text>
<rect x="180" y="414" width="496.52" height="22" fill="#4c78a8" rx="3"/>
<text x="684.52" y="430" class="value">221.73</text>
<text x="10" y="462" class="label">www.steamcommunity.com</text>
<rect x="180" y="446" width="531.21" height="22" fill="#4c78a8" rx="3"/>
<text x="719.21" y="462" class="value">237.22</text>
<text x="10" y="494" class="label">api.steampowered.com</text>
<rect x="180" y="478" width="580.0" height="22" fill="#4c78a8" rx="3"/>
<text x="768.0" y="494" class="value">259.01</text>
<line x1="180" y1="30" x2="180" y2="520" stroke="#ccc"/>
<line x1="180" y1="520" x2="760" y2="520" stroke="#ccc"/>
</svg>