<svg xmlns="http://www.w3.org/2000/svg" width="800" height="540">
<style> .label{font-family:DejaVu Sans,Verdana,Geneva,sans-serif;font-size:12px;fill:#333} .value{font-family:DejaVu Sans,Verdana,Geneva,sans-serif;font-size:12px;fill:#555} </style>
<text x="10" y="20" class="label">延迟柱状图（越低越好，Top 15），单位 ms</text>
<text x="10" y="46" class="label">fortnite.com</text>
<rect x="180" y="30" width="240.97" height="22" fill="#4c78a8" rx="3"/>
<text x="428.97" y="46" class="value">71.21</text>
<text x="10" y="78" class="label">blizzard.com</text>
<rect x="180" y="62" width="278.53" height="22" fill="#4c78a8" rx="3"/>
<text x="466.53" y="78" class="value">82.31</text>
<text x="10" y="110" class="label">rockstargames.com</text>
<rect x="180" y="94" width="278.93" height="22" fill="#4c78a8" rx="3"/>
<text x="466.93" y="110" class="value">82.43</text>
<text x="10" y="142" class="label">battle.net</text>
<rect x="180" y="126" width="316.06" height="22" fill="#4c78a8" rx="3"/>
<text x="504.06" y="142" class="value">93.40</text>
<text x="10" y="174" class="label">socialclub.rockstargames.com</text>
<rect x="180" y="158" width="317.14" height="22" fill="#4c78a8" rx="3"/>
<text x="505.14" y="174" class="value">93.72</text>
<text x="10" y="206" class="label">epicgames.com</text>
<rect x="180" y="190" width="342.79" height="22" fill="#4c78a8" rx="3"/>
<text x="530.79" y="206" class="value">101.30</text>
<text x="10" y="238" class="label">ea.com</text>
<rect x="180" y="222" width="347.86" height="22" fill="#4c78a8" rx="3"/>
<text x="535.86" y="238" class="value">102.80</text>
<text x="10" y="270" class="label">community.akamai.steamstatic.com</text>
<rect x="180" y="254" width="349.12" height="22" fill="#4c78a8" rx="3"/>
<text x="537.12" y="270" class="value">103.17</text>
<text x="10" y="302" class="label">ubisoft.com</text>
<rect x="180" y="286" width="385.32" height="22" fill="#4c78a8" rx="3"/>
<text x="573.3199999999999" y="302" class="value">113.87</text>
<text x="10" y="334" class="label">unrealengine.com</text>
<rect x="180" y="318" width="461.12" height="22" fill="#4c78a8" rx="3"/>
<text x="649.12" y="334" class="value">136.27</text>
<text x="10" y="366" class="label">ubi.com</text>
<rect x="180" y="350" width="473.44" height="22" fill="#4c78a8" rx="3"/>
<text x="661.44" y="366" class="value">139.91</text>
<text x="10" y="398" class="label">store.akamai.steamstatic.com</text>
<rect x="180" y="382" width="541.8" height="22" fill="#4c78a8" rx="3"/>
<text x="729.8" y="398" class="value">160.11</text>
<text x="10" y="430" class="label">cdn.akamai.steamstatic.com</text>
<rect x="180" y="414" width="550.93" height="22" fill="#4c78a8" rx="3"/>
<text x="738.93" y="430" class="value">162.81</text>
<text x="10" y="462" class="label">steamcdn-a.akamaihd.net</text>
<rect x="180" y="446" width="551.44" height="22" fill="#4c78a8" rx="3"/>
<text x="739.44" y="462" class="value">162.96</text>
<text x="10" y="494" class="label">origin.com</text>
<rect x="180" y="478" width="580.0" height="22" fill="#4c78a8" rx="3"/>
<text x="768.0" y="494" class="value">171.40</text>
<line x1="180" y1="30" x2="180" y2="520" stroke="#ccc"/>
<line x1="180" y1="520" x2="760" y2="520" stroke="#ccc"/>
</svg>