<svg xmlns="http://www.w3.org/2000/svg" width="800" height="540">
<style> .label{font-family:DejaVu Sans,Verdana,Geneva,sans-serif;font-size:12px;fill:#333} .value{font-family:DejaVu Sans,Verdana,Geneva,sans-serif;font-size:12px;fill:#555} </style>
<text x="10" y="20" class="label">延迟柱状图（越低越好，Top 15），单位 ms</text>
<text x="10" y="46" class="label">eaassets-a.akamaihd.net</text>
<rect x="180" y="30" width="149.59" height="22" fill="#4c78a8" rx="3"/>
<text x="337.59000000000003" y="46" class="value">50.60</text>
<text x="10" y="78" class="label">rockstargames.com</text>
<rect x="180" y="62" width="190.8" height="22" fill="#4c78a8" rx="3"/>
<text x="378.8" y="78" class="value">64.54</text>
<text x="10" y="110" class="label">socialclub.rockstargames.com</text>
<rect x="180" y="94" width="241.68" height="22" fill="#4c78a8" rx="3"/>
<text x="429.68" y="110" class="value">81.75</text>
<text x="10" y="142" class="label">ubisoft.com</text>
<rect x="180" y="126" width="259.42" height="22" fill="#4c78a8" rx="3"/>
<text x="447.42" y="142" class="value">87.75</text>
<text x="10" y="174" class="label">blizzard.com</text>
<rect x="180" y="158" width="302.93" height="22" fill="#4c78a8" rx="3"/>
<text x="490.93" y="174" class="value">102.47</text>
<text x="10" y="206" class="label">ubi.com</text>
<rect x="180" y="190" width="303.02" height="22" fill="#4c78a8" rx="3"/>
<text x="491.02" y="206" class="value">102.50</text>
<text x="10" y="238" class="label">unrealengine.com</text>
<rect x="180" y="222" width="304.94" height="22" fill="#4c78a8" rx="3"/>
<text x="492.94" y="238" class="value">103.15</text>
<text x="10" y="270" class="label">battle.net</text>
<rect x="180" y="254" width="322.59" height="22" fill="#4c78a8" rx="3"/>
<text x="510.59" y="270" class="value">109.12</text>
<text x="10" y="302" class="label">epicgames.com</text>
<rect x="180" y="286" width="327.62" height="22" fill="#4c78a8" rx="3"/>
<text x="515.62" y="302" class="value">110.82</text>
<text x="10" y="334" class="label">cdn.cloudflare.steamstatic.com</text>
<rect x="180" y="318" width="353.96" height="22" fill="#4c78a8" rx="3"/>
<text x="541.96" y="334" class="value">119.73</text>
<text x="10" y="366" class="label">store.akamai.steamstatic.com</text>
<rect x="180" y="350" width="362.18" height="22" fill="#4c78a8" rx="3"/>
<text x="550.1800000000001" y="366" class="value">122.51</text>
<text x="10" y="398" class="label">ea.com</text>
<rect x="180" y="382" width="367.65" height="22" fill="#4c78a8" rx="3"/>
<text x="555.65" y="398" class="value">124.36</text>
<text x="10" y="430" class="label">steamcdn-a.akamaihd.net</text>
<rect x="180" y="414" width="414.56" height="22" fill="#4c78a8" rx="3"/>
<text x="602.56" y="430" class="value">140.23</text>
<text x="10" y="462" class="label">origin.com</text>
<rect x="180" y="446" width="480.19" height="22" fill="#4c78a8" rx="3"/>
<text x="668.19" y="462" class="value">162.43</text>
<text x="10" y="494" class="label">api.steampowered.com</text>
<rect x="180" y="478" width="580.0" height="22" fill="#4c78a8" rx="3"/>
<text x="768.0" y="494" class="value">196.19</text>
<line x1="180" y1="30" x2="180" y2="520" stroke="#ccc"/>
<line x1="180" y1="520" x2="760" y2="520" stroke="#ccc"/>
</svg>