<svg xmlns="http://www.w3.org/2000/svg" width="800" height="540">
<style> .label{font-family:DejaVu Sans,Verdana,Geneva,sans-serif;font-size:12px;fill:#333} .value{font-family:DejaVu Sans,Verdana,Geneva,sans-serif;font-size:12px;fill:#555} </style>
<text x="10" y="20" class="label">延迟柱状图（越低越好，Top 15），单位 ms</text>
<text x="10" y="46" class="label">eaassets-a.akamaihd.net</text>
<rect x="180" y="30" width="179.34" height="22" fill="#4c78a8" rx="3"/>
<text x="367.34000000000003" y="46" class="value">79.27</text>
<text x="10" y="78" class="label">rockstargames.com</text>
<rect x="180" y="62" width="200.72" height="22" fill="#4c78a8" rx="3"/>
<text x="388.72" y="78" class="value">88.72</text>
<text x="10" y="110" class="label">community.akamai.steamstatic.com</text>
<rect x="180" y="94" width="300.77" height="22" fill="#4c78a8" rx="3"/>
<text x="488.77" y="110" class="value">132.94</text>
<text x="10" y="142" class="label">origin.com</text>
<rect x="180" y="126" width="302.99" height="22" fill="#4c78a8" rx="3"/>
<text x="490.99" y="142" class="value">133.92</text>
<text x="10" y="174" class="label">ubisoft.com</text>
<rect x="180" y="158" width="306.9" height="22" fill="#4c78a8" rx="3"/>
<text x="494.9" y="174" class="value">135.65</text>
<text x="10" y="206" class="label">store.akamai.steamstatic.com</text>
<rect x="180" y="190" width="324.32" height="22" fill="#4c78a8" rx="3"/>
<text x="512.3199999999999" y="206" class="value">143.35</text>
<text x="10" y="238" class="label">ea.com</text>
<rect x="180" y="222" width="355.11" height="22" fill="#4c78a8" rx="3"/>
<text x="543.11" y="238" class="value">156.96</text>
<text x="10" y="270" class="label">steamcdn-a.akamaihd.net</text>
<rect x="180" y="254" width="358.05" height="22" fill="#4c78a8" rx="3"/>
<text x="546.05" y="270" class="value">158.26</text>
<text x="10" y="302" class="label">cdn.akamai.steamstatic.com</text>
<rect x="180" y="286" width="390.32" height="22" fill="#4c78a8" rx="3"/>
<text x="578.3199999999999" y="302" class="value">172.52</text>
<text x="10" y="334" class="label">easyanticheat.net</text>
<rect x="180" y="318" width="413.91" height="22" fill="#4c78a8" rx="3"/>
<text x="601.9100000000001" y="334" class="value">182.95</text>
<text x="10" y="366" class="label">cdn.cloudflare.steamstatic.com</text>
<rect x="180" y="350" width="419.39" height="22" fill="#4c78a8" rx="3"/>
<text x="607.39" y="366" class="value">185.37</text>
<text x="10" y="398" class="label">www.steamcommunity.com</text>
<rect x="180" y="382" width="450.05" height="22" fill="#4c78a8" rx="3"/>
<text x="638.05" y="398" class="value">198.92</text>
<text x="10" y="430" class="label">launcher-public-service-prod06.ol.epicgames.com</text>
<rect x="180" y="414" width="494.52" height="22" fill="#4c78a8" rx="3"/>
<text x="682.52" y="430" class="value">218.58</text>
<text x="10" y="462" class="label">gog.com</text>
<rect x="180" y="446" width="575.75" height="22" fill="#4c78a8" rx="3"/>
<text x="763.75" y="462" class="value">254.48</text>
<text x="10" y="494" class="label">api.steampowered.com</text>
<rect x="180" y="478" width="580.0" height="22" fill="#4c78a8" rx="3"/>
<text x="768.0" y="494" class="value">256.36</text>
<line x1="180" y1="30" x2="180" y2="520" stroke="#ccc"/>
<line x1="180" y1="520" x2="760" y2="520" stroke="#ccc"/>
</svg>