<svg xmlns="http://www.w3.org/2000/svg" width="800" height="540">
<style> .label{font-family:DejaVu Sans,Verdana,Geneva,sans-serif;font-size:12px;fill:#333} .value{font-family:DejaVu Sans,Verdana,Geneva,sans-serif;font-size:12px;fill:#555} </style>
<text x="10" y="20" class="label">延迟柱状图（越低越好，Top 15），单位 ms</text>
<text x="10" y="46" class="label">eaassets-a.akamaihd.net</text>
<rect x="180" y="30" width="266.13" height="22" fill="#4c78a8" rx="3"/>
<text x="454.13" y="46" class="value">115.77</text>
<text x="10" y="78" class="label">ubisoft.com</text>
<rect x="180" y="62" width="310.45" height="22" fill="#4c78a8" rx="3"/>
<text x="498.45" y="78" class="value">135.05</text>
<text x="10" y="110" class="label">rockstargames.com</text>
<rect x="180" y="94" width="351.96" height="22" fill="#4c78a8" rx="3"/>
<text x="539.96" y="110" class="value">153.11</text>
<text x="10" y="142" class="label">ea.com</text>
<rect x="180" y="126" width="414.49" height="22" fill="#4c78a8" rx="3"/>
<text x="602.49" y="142" class="value">180.31</text>
<text x="10" y="174" class="label">store.akamai.steamstatic.com</text>
<rect x="180" y="158" width="427.96" height="22" fill="#4c78a8" rx="3"/>
<text x="615.96" y="174" class="value">186.17</text>
<text x="10" y="206" class="label">cdn.akamai.steamstatic.com</text>
<rect x="180" y="190" width="431.5" height="22" fill="#4c78a8" rx="3"/>
<text x="619.5" y="206" class="value">187.71</text>
<text x="10" y="238" class="label">battle.net</text>
<rect x="180" y="222" width="435.78" height="22" fill="#4c78a8" rx="3"/>
<text x="623.78" y="238" class="value">189.57</text>
<text x="10" y="270" class="label">community.akamai.steamstatic.com</text>
<rect x="180" y="254" width="484.6" height="22" fill="#4c78a8" rx="3"/>
<text x="672.6" y="270" class="value">210.81</text>
<text x="10" y="302" class="label">ubi.com</text>
<rect x="180" y="286" width="490.6" height="22" fill="#4c78a8" rx="3"/>
<text x="678.6" y="302" class="value">213.42</text>
<text x="10" y="334" class="label">easyanticheat.net</text>
<rect x="180" y="318" width="505.27" height="22" fill="#4c78a8" rx="3"/>
<text x="693.27" y="334" class="value">219.80</text>
<text x="10" y="366" class="label">api.steampowered.com</text>
<rect x="180" y="350" width="528.09" height="22" fill="#4c78a8" rx="3"/>
<text x="716.09" y="366" class="value">229.73</text>
<text x="10" y="398" class="label">steamcdn-a.akamaihd.net</text>
<rect x="180" y="382" width="534.3" height="22" fill="#4c78a8" rx="3"/>
<text x="722.3" y="398" class="value">232.43</text>
<text x="10" y="430" class="label">origin.com</text>
<rect x="180" y="414" width="553.96" height="22" fill="#4c78a8" rx="3"/>
<text x="741.96" y="430" class="value">240.98</text>
<text x="10" y="462" class="label">static3.cdn.ubi.com</text>
<rect x="180" y="446" width="556.76" height="22" fill="#4c78a8" rx="3"/>
<text x="744.76" y="462" class="value">242.20</text>
<text x="10" y="494" class="label">epicgames.com</text>
<rect x="180" y="478" width="580.0" height="22" fill="#4c78a8" rx="3"/>
<text x="768.0" y="494" class="value">252.31</text>
<line x1="180" y1="30" x2="180" y2="520" stroke="#ccc"/>
<line x1="180" y1="520" x2="760" y2="520" stroke="#ccc"/>
</svg>