<svg xmlns="http://www.w3.org/2000/svg" width="800" height="540">
<style> .label{font-family:DejaVu Sans,Verdana,Geneva,sans-serif;font-size:12px;fill:#333} .value{font-family:DejaVu Sans,Verdana,Geneva,sans-serif;font-size:12px;fill:#555} </style>
<text x="10" y="20" class="label">延迟柱状图（越低越好，Top 15），单位 ms</text>
<text x="10" y="46" class="label">ubisoft.com</text>
<rect x="180" y="30" width="287.46" height="22" fill="#4c78a8" rx="3"/>
<text x="475.46" y="46" class="value">126.35</text>
<text x="10" y="78" class="label">community.akamai.steamstatic.com</text>
<rect x="180" y="62" width="317.47" height="22" fill="#4c78a8" rx="3"/>
<text x="505.47" y="78" class="value">139.54</text>
<text x="10" y="110" class="label">cdn.cloudflare.steamstatic.com</text>
<rect x="180" y="94" width="322.41" height="22" fill="#4c78a8" rx="3"/>
<text x="510.41" y="110" class="value">141.71</text>
<text x="10" y="142" class="label">eaassets-a.akamaihd.net</text>
<rect x="180" y="126" width="353.37" height="22" fill="#4c78a8" rx="3"/>
<text x="541.37" y="142" class="value">155.32</text>
<text x="10" y="174" class="label">easyanticheat.net</text>
<rect x="180" y="158" width="394.26" height="22" fill="#4c78a8" rx="3"/>
<text x="582.26" y="174" class="value">173.29</text>
<text x="10" y="206" class="label">rockstargames.com</text>
<rect x="180" y="190" width="399.88" height="22" fill="#4c78a8" rx="3"/>
<text x="587.88" y="206" class="value">175.76</text>
<text x="10" y="238" class="label">ubi.com</text>
<rect x="180" y="222" width="469.66" height="22" fill="#4c78a8" rx="3"/>
<text x="657.6600000000001" y="238" class="value">206.43</text>
<text x="10" y="270" class="label">cdn.akamai.steamstatic.com</text>
<rect x="180" y="254" width="470.93" height="22" fill="#4c78a8" rx="3"/>
<text x="658.9300000000001" y="270" class="value">206.99</text>
<text x="10" y="302" class="label">api.steampowered.com</text>
<rect x="180" y="286" width="510.24" height="22" fill="#4c78a8" rx="3"/>
<text x="698.24" y="302" class="value">224.27</text>
<text x="10" y="334" class="label">steamcdn-a.akamaihd.net</text>
<rect x="180" y="318" width="519.71" height="22" fill="#4c78a8" rx="3"/>
<text x="707.71" y="334" class="value">228.43</text>
<text x="10" y="366" class="label">battle.net</text>
<rect x="180" y="350" width="550.08" height="22" fill="#4c78a8" rx="3"/>
<text x="738.08" y="366" class="value">241.78</text>
<text x="10" y="398" class="label">blizzard.com</text>
<rect x="180" y="382" width="556.95" height="22" fill="#4c78a8" rx="3"/>
<text x="744.95" y="398" class="value">244.80</text>
<text x="10" y="430" class="label">steam-chat.com</text>
<rect x="180" y="414" width="575.54" height="22" fill="#4c78a8" rx="3"/>
<text x="763.54" y="430" class="value">252.97</text>
<text x="10" y="462" class="label">steamcommunity.com</text>
<rect x="180" y="446" width="579.48" height="22" fill="#4c78a8" rx="3"/>
<text x="767.48" y="462" class="value">254.70</text>
<text x="10" y="494" class="label">ea.com</text>
<rect x="180" y="478" width="580.0" height="22" fill="#4c78a8" rx="3"/>
<text x="768.0" y="494" class="value">254.93</text>
<line x1="180" y1="30" x2="180" y2="520" stroke="#ccc"/>
<line x1="180" y1="520" x2="760" y2="520" stroke="#ccc"/>
</svg>