<svg xmlns="http://www.w3.org/2000/svg" width="800" height="540">
<style> .label{font-family:DejaVu Sans,Verdana,Geneva,sans-serif;font-size:12px;fill:#333} .value{font-family:DejaVu Sans,Verdana,Geneva,sans-serif;font-size:12px;fill:#555} </style>
<text x="10" y="20" class="label">延迟柱状图（越低越好，Top 15），单位 ms</text>
<text x="10" y="46" class="label">eaassets-a.akamaihd.net</text>
<rect x="180" y="30" width="292.55" height="22" fill="#4c78a8" rx="3"/>
<text x="480.55" y="46" class="value">120.95</text>
<text x="10" y="78" class="label">ea.com</text>
<rect x="180" y="62" width="304.98" height="22" fill="#4c78a8" rx="3"/>
<text x="492.98" y="78" class="value">126.09</text>
<text x="10" y="110" class="label">community.akamai.steamstatic.com</text>
<rect x="180" y="94" width="334.76" height="22" fill="#4c78a8" rx="3"/>
<text x="522.76" y="110" class="value">138.40</text>
<text x="10" y="142" class="label">cdn.akamai.steamstatic.com</text>
<rect x="180" y="126" width="342.55" height="22" fill="#4c78a8" rx="3"/>
<text x="530.55" y="142" class="value">141.62</text>
<text x="10" y="174" class="label">steamcdn-a.akamaihd.net</text>
<rect x="180" y="158" width="374.28" height="22" fill="#4c78a8" rx="3"/>
<text x="562.28" y="174" class="value">154.74</text>
<text x="10" y="206" class="label">ubisoft.com</text>
<rect x="180" y="190" width="402.97" height="22" fill="#4c78a8" rx="3"/>
<text x="590.97" y="206" class="value">166.60</text>
<text x="10" y="238" class="label">easyanticheat.net</text>
<rect x="180" y="222" width="416.3" height="22" fill="#4c78a8" rx="3"/>
<text x="604.3" y="238" class="value">172.11</text>
<text x="10" y="270" class="label">rockstargames.com</text>
<rect x="180" y="254" width="460.22" height="22" fill="#4c78a8" rx="3"/>
<text x="648.22" y="270" class="value">190.27</text>
<text x="10" y="302" class="label">ubi.com</text>
<rect x="180" y="286" width="509.9" height="22" fill="#4c78a8" rx="3"/>
<text x="697.9" y="302" class="value">210.81</text>
<text x="10" y="334" class="label">battle.net</text>
<rect x="180" y="318" width="542.99" height="22" fill="#4c78a8" rx="3"/>
<text x="730.99" y="334" class="value">224.49</text>
<text x="10" y="366" class="label">api.steampowered.com</text>
<rect x="180" y="350" width="556.3" height="22" fill="#4c78a8" rx="3"/>
<text x="744.3" y="366" class="value">229.99</text>
<text x="10" y="398" class="label">launcher-public-service-prod06.ol.epicgames.com</text>
<rect x="180" y="382" width="564.21" height="22" fill="#4c78a8" rx="3"/>
<text x="752.21" y="398" class="value">233.26</text>
<text x="10" y="430" class="label">epicgames.com</text>
<rect x="180" y="414" width="568.39" height="22" fill="#4c78a8" rx="3"/>
<text x="756.39" y="430" class="value">234.99</text>
<text x="10" y="462" class="label">gog.com</text>
<rect x="180" y="446" width="576.32" height="22" fill="#4c78a8" rx="3"/>
<text x="764.32" y="462" class="value">238.27</text>
<text x="10" y="494" class="label">fortnite.com</text>
<rect x="180" y="478" width="580.0" height="22" fill="#4c78a8" rx="3"/>
<text x="768.0" y="494" class="value">239.79</text>
<line x1="180" y1="30" x2="180" y2="520" stroke="#ccc"/>
<line x1="180" y1="520" x2="760" y2="520" stroke="#ccc"/>
</svg>