<svg xmlns="http://www.w3.org/2000/svg" width="800" height="540">
<style> .label{font-family:DejaVu Sans,Verdana,Geneva,sans-serif;font-size:12px;fill:#333} .value{font-family:DejaVu Sans,Verdana,Geneva,sans-serif;font-size:12px;fill:#555} </style>
<text x="10" y="20" class="label">延迟柱状图（越低越好，Top 15），单位 ms</text>
<text x="10" y="46" class="label">rockstargames.com</text>
<rect x="180" y="30" width="177.39" height="22" fill="#4c78a8" rx="3"/>
<text x="365.39" y="46" class="value">97.53</text>
<text x="10" y="78" class="label">ubisoft.com</text>
<rect x="180" y="62" width="196.09" height="22" fill="#4c78a8" rx="3"/>
<text x="384.09000000000003" y="78" class="value">107.81</text>
<text x="10" y="110" class="label">eaassets-a.akamaihd.net</text>
<rect x="180" y="94" width="213.06" height="22" fill="#4c78a8" rx="3"/>
<text x="401.06" y="110" class="value">117.14</text>
<text x="10" y="142" class="label">community.akamai.steamstatic.com</text>
<rect x="180" y="126" width="220.94" height="22" fill="#4c78a8" rx="3"/>
<text x="408.94" y="142" class="value">121.47</text>
<text x="10" y="174" class="label">store.akamai.steamstatic.com</text>
<rect x="180" y="158" width="224.01" height="22" fill="#4c78a8" rx="3"/>
<text x="412.01" y="174" class="value">123.16</text>
<text x="10" y="206" class="label">ea.com</text>
<rect x="180" y="190" width="286.89" height="22" fill="#4c78a8" rx="3"/>
<text x="474.89" y="206" class="value">157.73</text>
<text x="10" y="238" class="label">cdn.akamai.steamstatic.com</text>
<rect x="180" y="222" width="303.55" height="22" fill="#4c78a8" rx="3"/>
<text x="491.55" y="238" class="value">166.89</text>
<text x="10" y="270" class="label">cdn.cloudflare.steamstatic.com</text>
<rect x="180" y="254" width="336.65" height="22" fill="#4c78a8" rx="3"/>
<text x="524.65" y="270" class="value">185.09</text>
<text x="10" y="302" class="label">origin.com</text>
<rect x="180" y="286" width="400.04" height="22" fill="#4c78a8" rx="3"/>
<text x="588.04" y="302" class="value">219.94</text>
<text x="10" y="334" class="label">steamcdn-a.akamaihd.net</text>
<rect x="180" y="318" width="484.86" height="22" fill="#4c78a8" rx="3"/>
<text x="672.86" y="334" class="value">266.57</text>
<text x="10" y="366" class="label">easyanticheat.net</text>
<rect x="180" y="350" width="508.55" height="22" fill="#4c78a8" rx="3"/>
<text x="696.55" y="366" class="value">279.60</text>
<text x="10" y="398" class="label">ubi.com</text>
<rect x="180" y="382" width="516.12" height="22" fill="#4c78a8" rx="3"/>
<text x="704.12" y="398" class="value">283.76</text>
<text x="10" y="430" class="label">launcher-public-service-prod06.ol.epicgames.com</text>
<rect x="180" y="414" width="522.47" height="22" fill="#4c78a8" rx="3"/>
<text x="710.47" y="430" class="value">287.25</text>
<text x="10" y="462" class="label">socialclub.rockstargames.com</text>
<rect x="180" y="446" width="562.68" height="22" fill="#4c78a8" rx="3"/>
<text x="750.68" y="462" class="value">309.36</text>
<text x="10" y="494" class="label">static3.cdn.ubi.com</text>
<rect x="180" y="478" width="580.0" height="22" fill="#4c78a8" rx="3"/>
<text x="768.0" y="494" class="value">318.88</text>
<line x1="180" y1="30" x2="180" y2="520" stroke="#ccc"/>
<line x1="180" y1="520" x2="760" y2="520" stroke="#ccc"/>
</svg>