<svg xmlns="http://www.w3.org/2000/svg" width="800" height="540">
<style> .label{font-family:DejaVu Sans,Verdana,Geneva,sans-serif;font-size:12px;fill:#333} .value{font-family:DejaVu Sans,Verdana,Geneva,sans-serif;font-size:12px;fill:#555} </style>
<text x="10" y="20" class="label">延迟柱状图（越低越好，Top 15），单位 ms</text>
<text x="10" y="46" class="label">store.akamai.steamstatic.com</text>
<rect x="180" y="30" width="242.68" height="22" fill="#4c78a8" rx="3"/>
<text x="430.68" y="46" class="value">81.45</text>
<text x="10" y="78" class="label">ea.com</text>
<rect x="180" y="62" width="283.77" height="22" fill="#4c78a8" rx="3"/>
<text x="471.77" y="78" class="value">95.24</text>
<text x="10" y="110" class="label">cdn.akamai.steamstatic.com</text>
<rect x="180" y="94" width="343.51" height="22" fill="#4c78a8" rx="3"/>
<text x="531.51" y="110" class="value">115.29</text>
<text x="10" y="142" class="label">rockstargames.com</text>
<rect x="180" y="126" width="346.43" height="22" fill="#4c78a8" rx="3"/>
<text x="534.4300000000001" y="142" class="value">116.27</text>
<text x="10" y="174" class="label">socialclub.rockstargames.com</text>
<rect x="180" y="158" width="380.07" height="22" fill="#4c78a8" rx="3"/>
<text x="568.0699999999999" y="174" class="value">127.56</text>
<text x="10" y="206" class="label">eaassets-a.akamaihd.net</text>
<rect x="180" y="190" width="415.35" height="22" fill="#4c78a8" rx="3"/>
<text x="603.35" y="206" class="value">139.40</text>
<text x="10" y="238" class="label">blizzard.com</text>
<rect x="180" y="222" width="489.51" height="22" fill="#4c78a8" rx="3"/>
<text x="677.51" y="238" class="value">164.29</text>
<text x="10" y="270" class="label">ubisoft.com</text>
<rect x="180" y="254" width="498.81" height="22" fill="#4c78a8" rx="3"/>
<text x="686.81" y="270" class="value">167.41</text>
<text x="10" y="302" class="label">steamcdn-a.akamaihd.net</text>
<rect x="180" y="286" width="524.76" height="22" fill="#4c78a8" rx="3"/>
<text x="712.76" y="302" class="value">176.12</text>
<text x="10" y="334" class="label">cdn.cloudflare.steamstatic.com</text>
<rect x="180" y="318" width="546.48" height="22" fill="#4c78a8" rx="3"/>
<text x="734.48" y="334" class="value">183.41</text>
<text x="10" y="366" class="label">community.akamai.steamstatic.com</text>
<rect x="180" y="350" width="554.73" height="22" fill="#4c78a8" rx="3"/>
<text x="742.73" y="366" class="value">186.18</text>
<text x="10" y="398" class="label">origin.com</text>
<rect x="180" y="382" width="558.85" height="22" fill="#4c78a8" rx="3"/>
<text x="746.85" y="398" class="value">187.56</text>
<text x="10" y="430" class="label">battle.net</text>
<rect x="180" y="414" width="573.5" height="22" fill="#4c78a8" rx="3"/>
<text x="761.5" y="430" class="value">192.48</text>
<text x="10" y="462" class="label">ubi.com</text>
<rect x="180" y="446" width="576.16" height="22" fill="#4c78a8" rx="3"/>
<text x="764.16" y="462" class="value">193.37</text>
<text x="10" y="494" class="label">easyanticheat.net</text>
<rect x="180" y="478" width="580.0" height="22" fill="#4c78a8" rx="3"/>
<text x="768.0" y="494" class="value">194.66</text>
<line x1="180" y1="30" x2="180" y2="520" stroke="#ccc"/>
<line x1="180" y1="520" x2="760" y2="520" stroke="#ccc"/>
</svg>