<svg xmlns="http://www.w3.org/2000/svg" width="800" height="540">
<style> .label{font-family:DejaVu Sans,Verdana,Geneva,sans-serif;font-size:12px;fill:#333} .value{font-family:DejaVu Sans,Verdana,Geneva,sans-serif;font-size:12px;fill:#555} </style>
<text x="10" y="20" class="label">延迟柱状图（越低越好，Top 15），单位 ms</text>
<text x="10" y="46" class="label">rockstargames.com</text>
<rect x="180" y="30" width="256.93" height="22" fill="#4c78a8" rx="3"/>
<text x="444.93" y="46" class="value">126.69</text>
<text x="10" y="78" class="label">ea.com</text>
<rect x="180" y="62" width="280.64" height="22" fill="#4c78a8" rx="3"/>
<text x="468.64" y="78" class="value">138.38</text>
<text x="10" y="110" class="label">ubisoft.com</text>
<rect x="180" y="94" width="295.49" height="22" fill="#4c78a8" rx="3"/>
<text x="483.49" y="110" class="value">145.70</text>
<text x="10" y="142" class="label">easyanticheat.net</text>
<rect x="180" y="126" width="303.6" height="22" fill="#4c78a8" rx="3"/>
<text x="491.6" y="142" class="value">149.70</text>
<text x="10" y="174" class="label">eaassets-a.akamaihd.net</text>
<rect x="180" y="158" width="328.64" height="22" fill="#4c78a8" rx="3"/>
<text x="516.64" y="174" class="value">162.05</text>
<text x="10" y="206" class="label">cdn.akamai.steamstatic.com</text>
<rect x="180" y="190" width="357.4" height="22" fill="#4c78a8" rx="3"/>
<text x="545.4" y="206" class="value">176.23</text>
<text x="10" y="238" class="label">store.akamai.steamstatic.com</text>
<rect x="180" y="222" width="364.09" height="22" fill="#4c78a8" rx="3"/>
<text x="552.0899999999999" y="238" class="value">179.53</text>
<text x="10" y="270" class="label">battle.net</text>
<rect x="180" y="254" width="384.9" height="22" fill="#4c78a8" rx="3"/>
<text x="572.9" y="270" class="value">189.79</text>
<text x="10" y="302" class="label">steamcdn-a.akamaihd.net</text>
<rect x="180" y="286" width="450.55" height="22" fill="#4c78a8" rx="3"/>
<text x="638.55" y="302" class="value">222.16</text>
<text x="10" y="334" class="label">steam-chat.com</text>
<rect x="180" y="318" width="475.72" height="22" fill="#4c78a8" rx="3"/>
<text x="663.72" y="334" class="value">234.57</text>
<text x="10" y="366" class="label">ubi.com</text>
<rect x="180" y="350" width="495.03" height="22" fill="#4c78a8" rx="3"/>
<text x="683.03" y="366" class="value">244.09</text>
<text x="10" y="398" class="label">socialclub.rockstargames.com</text>
<rect x="180" y="382" width="547.73" height="22" fill="#4c78a8" rx="3"/>
<text x="735.73" y="398" class="value">270.08</text>
<text x="10" y="430" class="label">api.steampowered.com</text>
<rect x="180" y="414" width="555.74" height="22" fill="#4c78a8" rx="3"/>
<text x="743.74" y="430" class="value">274.03</text>
<text x="10" y="462" class="label">epicgames.com</text>
<rect x="180" y="446" width="561.12" height="22" fill="#4c78a8" rx="3"/>
<text x="749.12" y="462" class="value">276.68</text>
<text x="10" y="494" class="label">unrealengine.com</text>
<rect x="180" y="478" width="580.0" height="22" fill="#4c78a8" rx="3"/>
<text x="768.0" y="494" class="value">285.99</text>
<line x1="180" y1="30" x2="180" y2="520" stroke="#ccc"/>
<line x1="180" y1="520" x2="760" y2="520" stroke="#ccc"/>
</svg>