<svg xmlns="http://www.w3.org/2000/svg" width="800" height="540">
<style> .label{font-family:DejaVu Sans,Verdana,Geneva,sans-serif;font-size:12px;fill:#333} .value{font-family:DejaVu Sans,Verdana,Geneva,sans-serif;font-size:12px;fill:#555} </style>
<text x="10" y="20" class="label">延迟柱状图（越低越好，Top 15），单位 ms</text>
<text x="10" y="46" class="label">rockstargames.com</text>
<rect x="180" y="30" width="167.05" height="22" fill="#4c78a8" rx="3"/>
<text x="355.05" y="46" class="value">48.83</text>
<text x="10" y="78" class="label">eaassets-a.akamaihd.net</text>
<rect x="180" y="62" width="173.92" height="22" fill="#4c78a8" rx="3"/>
<text x="361.91999999999996" y="78" class="value">50.84</text>
<text x="10" y="110" class="label">socialclub.rockstargames.com</text>
<rect x="180" y="94" width="214.26" height="22" fill="#4c78a8" rx="3"/>
<text x="402.26" y="110" class="value">62.63</text>
<text x="10" y="142" class="label">epicgames.com</text>
<rect x="180" y="126" width="232.6" height="22" fill="#4c78a8" rx="3"/>
<text x="420.6" y="142" class="value">67.99</text>
<text x="10" y="174" class="label">blizzard.com</text>
<rect x="180" y="158" width="277.41" height="22" fill="#4c78a8" rx="3"/>
<text x="465.41" y="174" class="value">81.09</text>
<text x="10" y="206" class="label">ubisoft.com</text>
<rect x="180" y="190" width="309.64" height="22" fill="#4c78a8" rx="3"/>
<text x="497.64" y="206" class="value">90.51</text>
<text x="10" y="238" class="label">ea.com</text>
<rect x="180" y="222" width="355.79" height="22" fill="#4c78a8" rx="3"/>
<text x="543.79" y="238" class="value">104.00</text>
<text x="10" y="270" class="label">ubi.com</text>
<rect x="180" y="254" width="371.04" height="22" fill="#4c78a8" rx="3"/>
<text x="559.04" y="270" class="value">108.46</text>
<text x="10" y="302" class="label">battle.net</text>
<rect x="180" y="286" width="382.91" height="22" fill="#4c78a8" rx="3"/>
<text x="570.9100000000001" y="302" class="value">111.93</text>
<text x="10" y="334" class="label">steamcdn-a.akamaihd.net</text>
<rect x="180" y="318" width="403.1" height="22" fill="#4c78a8" rx="3"/>
<text x="591.1" y="334" class="value">117.83</text>
<text x="10" y="366" class="label">static3.cdn.ubi.com</text>
<rect x="180" y="350" width="431.97" height="22" fill="#4c78a8" rx="3"/>
<text x="619.97" y="366" class="value">126.27</text>
<text x="10" y="398" class="label">store.akamai.steamstatic.com</text>
<rect x="180" y="382" width="497.48" height="22" fill="#4c78a8" rx="3"/>
<text x="685.48" y="398" class="value">145.42</text>
<text x="10" y="430" class="label">unrealengine.com</text>
<rect x="180" y="414" width="506.52" height="22" fill="#4c78a8" rx="3"/>
<text x="694.52" y="430" class="value">148.06</text>
<text x="10" y="462" class="label">community.akamai.steamstatic.com</text>
<rect x="180" y="446" width="539.29" height="22" fill="#4c78a8" rx="3"/>
<text x="727.29" y="462" class="value">157.64</text>
<text x="10" y="494" class="label">fortnite.com</text>
<rect x="180" y="478" width="580.0" height="22" fill="#4c78a8" rx="3"/>
<text x="768.0" y="494" class="value">169.54</text>
<line x1="180" y1="30" x2="180" y2="520" stroke="#ccc"/>
<line x1="180" y1="520" x2="760" y2="520" stroke="#ccc"/>
</svg>