<svg xmlns="http://www.w3.org/2000/svg" width="800" height="540">
<style> .label{font-family:DejaVu Sans,Verdana,Geneva,sans-serif;font-size:12px;fill:#333} .value{font-family:DejaVu Sans,Verdana,Geneva,sans-serif;font-size:12px;fill:#555} </style>
<text x="10" y="20" class="label">延迟柱状图（越低越好，Top 15），单位 ms</text>
<text x="10" y="46" class="label">rockstargames.com</text>
<rect x="180" y="30" width="210.35" height="22" fill="#4c78a8" rx="3"/>
<text x="398.35" y="46" class="value">108.27</text>
<text x="10" y="78" class="label">eaassets-a.akamaihd.net</text>
<rect x="180" y="62" width="231.76" height="22" fill="#4c78a8" rx="3"/>
<text x="419.76" y="78" class="value">119.29</text>
<text x="10" y="110" class="label">ea.com</text>
<rect x="180" y="94" width="257.25" height="22" fill="#4c78a8" rx="3"/>
<text x="445.25" y="110" class="value">132.41</text>
<text x="10" y="142" class="label">ubisoft.com</text>
<rect x="180" y="126" width="343.07" height="22" fill="#4c78a8" rx="3"/>
<text x="531.0699999999999" y="142" class="value">176.58</text>
<text x="10" y="174" class="label">community.akamai.steamstatic.com</text>
<rect x="180" y="158" width="360.24" height="22" fill="#4c78a8" rx="3"/>
<text x="548.24" y="174" class="value">185.42</text>
<text x="10" y="206" class="label">origin.com</text>
<rect x="180" y="190" width="379.23" height="22" fill="#4c78a8" rx="3"/>
<text x="567.23" y="206" class="value">195.19</text>
<text x="10" y="238" class="label">launcher-public-service-prod06.ol.epicgames.com</text>
<rect x="180" y="222" width="389.39" height="22" fill="#4c78a8" rx="3"/>
<text x="577.39" y="238" class="value">200.42</text>
<text x="10" y="270" class="label">steamcdn-a.akamaihd.net</text>
<rect x="180" y="254" width="402.87" height="22" fill="#4c78a8" rx="3"/>
<text x="590.87" y="270" class="value">207.36</text>
<text x="10" y="302" class="label">ubi.com</text>
<rect x="180" y="286" width="421.35" height="22" fill="#4c78a8" rx="3"/>
<text x="609.35" y="302" class="value">216.87</text>
<text x="10" y="334" class="label">steam-chat.com</text>
<rect x="180" y="318" width="461.74" height="22" fill="#4c78a8" rx="3"/>
<text x="649.74" y="334" class="value">237.66</text>
<text x="10" y="366" class="label">easyanticheat.net</text>
<rect x="180" y="350" width="467.47" height="22" fill="#4c78a8" rx="3"/>
<text x="655.47" y="366" class="value">240.61</text>
<text x="10" y="398" class="label">store.akamai.steamstatic.com</text>
<rect x="180" y="382" width="487.91" height="22" fill="#4c78a8" rx="3"/>
<text x="675.9100000000001" y="398" class="value">251.13</text>
<text x="10" y="430" class="label">cdn.akamai.steamstatic.com</text>
<rect x="180" y="414" width="516.84" height="22" fill="#4c78a8" rx="3"/>
<text x="704.84" y="430" class="value">266.02</text>
<text x="10" y="462" class="label">socialclub.rockstargames.com</text>
<rect x="180" y="446" width="547.19" height="22" fill="#4c78a8" rx="3"/>
<text x="735.19" y="462" class="value">281.64</text>
<text x="10" y="494" class="label">fortnite.com</text>
<rect x="180" y="478" width="580.0" height="22" fill="#4c78a8" rx="3"/>
<text x="768.0" y="494" class="value">298.53</text>
<line x1="180" y1="30" x2="180" y2="520" stroke="#ccc"/>
<line x1="180" y1="520" x2="760" y2="520" stroke="#ccc"/>
</svg>