<svg xmlns="http://www.w3.org/2000/svg" width="800" height="540">
<style> .label{font-family:DejaVu Sans,Verdana,Geneva,sans-serif;font-size:12px;fill:#333} .value{font-family:DejaVu Sans,Verdana,Geneva,sans-serif;font-size:12px;fill:#555} </style>
<text x="10" y="20" class="label">延迟柱状图（越低越好，Top 15），单位 ms</text>
<text x="10" y="46" class="label">rockstargames.com</text>
<rect x="180" y="30" width="108.79" height="22" fill="#4c78a8" rx="3"/>
<text x="296.79" y="46" class="value">54.33</text>
<text x="10" y="78" class="label">ea.com</text>
<rect x="180" y="62" width="152.18" height="22" fill="#4c78a8" rx="3"/>
<text x="340.18" y="78" class="value">76.00</text>
<text x="10" y="110" class="label">eaassets-a.akamaihd.net</text>
<rect x="180" y="94" width="238.42" height="22" fill="#4c78a8" rx="3"/>
<text x="426.41999999999996" y="110" class="value">119.07</text>
<text x="10" y="142" class="label">origin.com</text>
<rect x="180" y="126" width="281.79" height="22" fill="#4c78a8" rx="3"/>
<text x="469.79" y="142" class="value">140.73</text>
<text x="10" y="174" class="label">cdn.akamai.steamstatic.com</text>
<rect x="180" y="158" width="351.17" height="22" fill="#4c78a8" rx="3"/>
<text x="539.1700000000001" y="174" class="value">175.38</text>
<text x="10" y="206" class="label">community.akamai.steamstatic.com</text>
<rect x="180" y="190" width="352.25" height="22" fill="#4c78a8" rx="3"/>
<text x="540.25" y="206" class="value">175.92</text>
<text x="10" y="238" class="label">cdn.cloudflare.steamstatic.com</text>
<rect x="180" y="222" width="375.6" height="22" fill="#4c78a8" rx="3"/>
<text x="563.6" y="238" class="value">187.58</text>
<text x="10" y="270" class="label">steamcdn-a.akamaihd.net</text>
<rect x="180" y="254" width="413.64" height="22" fill="#4c78a8" rx="3"/>
<text x="601.64" y="270" class="value">206.58</text>
<text x="10" y="302" class="label">store.akamai.steamstatic.com</text>
<rect x="180" y="286" width="416.41" height="22" fill="#4c78a8" rx="3"/>
<text x="604.4100000000001" y="302" class="value">207.96</text>
<text x="10" y="334" class="label">ubisoft.com</text>
<rect x="180" y="318" width="472.01" height="22" fill="#4c78a8" rx="3"/>
<text x="660.01" y="334" class="value">235.73</text>
<text x="10" y="366" class="label">easyanticheat.net</text>
<rect x="180" y="350" width="482.27" height="22" fill="#4c78a8" rx="3"/>
<text x="670.27" y="366" class="value">240.85</text>
<text x="10" y="398" class="label">api.steampowered.com</text>
<rect x="180" y="382" width="550.04" height="22" fill="#4c78a8" rx="3"/>
<text x="738.04" y="398" class="value">274.70</text>
<text x="10" y="430" class="label">www.steamcommunity.com</text>
<rect x="180" y="414" width="563.84" height="22" fill="#4c78a8" rx="3"/>
<text x="751.84" y="430" class="value">281.59</text>
<text x="10" y="462" class="label">steamcommunity.com</text>
<rect x="180" y="446" width="571.59" height="22" fill="#4c78a8" rx="3"/>
<text x="759.59" y="462" class="value">285.46</text>
<text x="10" y="494" class="label">battle.net</text>
<rect x="180" y="478" width="580.0" height="22" fill="#4c78a8" rx="3"/>
<text x="768.0" y="494" class="value">289.66</text>
<line x1="180" y1="30" x2="180" y2="520" stroke="#ccc"/>
<line x1="180" y1="520" x2="760" y2="520" stroke="#ccc"/>
</svg>