<svg xmlns="http://www.w3.org/2000/svg" width="800" height="540">
<style> .label{font-family:DejaVu Sans,Verdana,Geneva,sans-serif;font-size:12px;fill:#333} .value{font-family:DejaVu Sans,Verdana,Geneva,sans-serif;font-size:12px;fill:#555} </style>
<text x="10" y="20" class="label">延迟柱状图（越低越好，Top 15），单位 ms</text>
<text x="10" y="46" class="label">ubisoft.com</text>
<rect x="180" y="30" width="160.44" height="22" fill="#4c78a8" rx="3"/>
<text x="348.44" y="46" class="value">91.69</text>
<text x="10" y="78" class="label">rockstargames.com</text>
<rect x="180" y="62" width="183.1" height="22" fill="#4c78a8" rx="3"/>
<text x="371.1" y="78" class="value">104.64</text>
<text x="10" y="110" class="label">community.akamai.steamstatic.com</text>
<rect x="180" y="94" width="208.18" height="22" fill="#4c78a8" rx="3"/>
<text x="396.18" y="110" class="value">118.97</text>
<text x="10" y="142" class="label">eaassets-a.akamaihd.net</text>
<rect x="180" y="126" width="227.76" height="22" fill="#4c78a8" rx="3"/>
<text x="415.76" y="142" class="value">130.16</text>
<text x="10" y="174" class="label">ea.com</text>
<rect x="180" y="158" width="269.44" height="22" fill="#4c78a8" rx="3"/>
<text x="457.44" y="174" class="value">153.98</text>
<text x="10" y="206" class="label">cdn.cloudflare.steamstatic.com</text>
<rect x="180" y="190" width="289.63" height="22" fill="#4c78a8" rx="3"/>
<text x="477.63" y="206" class="value">165.52</text>
<text x="10" y="238" class="label">steamcdn-a.akamaihd.net</text>
<rect x="180" y="222" width="302.6" height="22" fill="#4c78a8" rx="3"/>
<text x="490.6" y="238" class="value">172.93</text>
<text x="10" y="270" class="label">cdn.akamai.steamstatic.com</text>
<rect x="180" y="254" width="337.09" height="22" fill="#4c78a8" rx="3"/>
<text x="525.0899999999999" y="270" class="value">192.64</text>
<text x="10" y="302" class="label">origin.com</text>
<rect x="180" y="286" width="383.84" height="22" fill="#4c78a8" rx="3"/>
<text x="571.8399999999999" y="302" class="value">219.36</text>
<text x="10" y="334" class="label">store.akamai.steamstatic.com</text>
<rect x="180" y="318" width="400.43" height="22" fill="#4c78a8" rx="3"/>
<text x="588.4300000000001" y="334" class="value">228.84</text>
<text x="10" y="366" class="label">ubi.com</text>
<rect x="180" y="350" width="478.89" height="22" fill="#4c78a8" rx="3"/>
<text x="666.89" y="366" class="value">273.68</text>
<text x="10" y="398" class="label">www.steamcommunity.com</text>
<rect x="180" y="382" width="484.16" height="22" fill="#4c78a8" rx="3"/>
<text x="672.1600000000001" y="398" class="value">276.69</text>
<text x="10" y="430" class="label">easyanticheat.net</text>
<rect x="180" y="414" width="530.55" height="22" fill="#4c78a8" rx="3"/>
<text x="718.55" y="430" class="value">303.20</text>
<text x="10" y="462" class="label">socialclub.rockstargames.com</text>
<rect x="180" y="446" width="577.83" height="22" fill="#4c78a8" rx="3"/>
<text x="765.83" y="462" class="value">330.22</text>
<text x="10" y="494" class="label">steamcommunity.com</text>
<rect x="180" y="478" width="580.0" height="22" fill="#4c78a8" rx="3"/>
<text x="768.0" y="494" class="value">331.46</text>
<line x1="180" y1="30" x2="180" y2="520" stroke="#ccc"/>
<line x1="180" y1="520" x2="760" y2="520" stroke="#ccc"/>
</svg>