<svg xmlns="http://www.w3.org/2000/svg" width="800" height="540">
<style> .label{font-family:DejaVu Sans,Verdana,Geneva,sans-serif;font-size:12px;fill:#333} .value{font-family:DejaVu Sans,Verdana,Geneva,sans-serif;font-size:12px;fill:#555} </style>
<text x="10" y="20" class="label">延迟柱状图（越低越好，Top 15），单位 ms</text>
<text x="10" y="46" class="label">rockstargames.com</text>
<rect x="180" y="30" width="159.3" height="22" fill="#4c78a8" rx="3"/>
<text x="347.3" y="46" class="value">57.60</text>
<text x="10" y="78" class="label">socialclub.rockstargames.com</text>
<rect x="180" y="62" width="234.49" height="22" fill="#4c78a8" rx="3"/>
<text x="422.49" y="78" class="value">84.79</text>
<text x="10" y="110" class="label">store.akamai.steamstatic.com</text>
<rect x="180" y="94" width="296.36" height="22" fill="#4c78a8" rx="3"/>
<text x="484.36" y="110" class="value">107.16</text>
<text x="10" y="142" class="label">battle.net</text>
<rect x="180" y="126" width="322.69" height="22" fill="#4c78a8" rx="3"/>
<text x="510.69" y="142" class="value">116.68</text>
<text x="10" y="174" class="label">ubi.com</text>
<rect x="180" y="158" width="351.45" height="22" fill="#4c78a8" rx="3"/>
<text x="539.45" y="174" class="value">127.08</text>
<text x="10" y="206" class="label">eaassets-a.akamaihd.net</text>
<rect x="180" y="190" width="377.89" height="22" fill="#4c78a8" rx="3"/>
<text x="565.89" y="206" class="value">136.64</text>
<text x="10" y="238" class="label">ea.com</text>
<rect x="180" y="222" width="385.88" height="22" fill="#4c78a8" rx="3"/>
<text x="573.88" y="238" class="value">139.53</text>
<text x="10" y="270" class="label">blizzard.com</text>
<rect x="180" y="254" width="386.63" height="22" fill="#4c78a8" rx="3"/>
<text x="574.63" y="270" class="value">139.80</text>
<text x="10" y="302" class="label">epicgames.com</text>
<rect x="180" y="286" width="404.5" height="22" fill="#4c78a8" rx="3"/>
<text x="592.5" y="302" class="value">146.26</text>
<text x="10" y="334" class="label">ubisoft.com</text>
<rect x="180" y="318" width="420.81" height="22" fill="#4c78a8" rx="3"/>
<text x="608.81" y="334" class="value">152.16</text>
<text x="10" y="366" class="label">cdn.akamai.steamstatic.com</text>
<rect x="180" y="350" width="437.21" height="22" fill="#4c78a8" rx="3"/>
<text x="625.21" y="366" class="value">158.09</text>
<text x="10" y="398" class="label">steamcdn-a.akamaihd.net</text>
<rect x="180" y="382" width="510.8" height="22" fill="#4c78a8" rx="3"/>
<text x="698.8" y="398" class="value">184.70</text>
<text x="10" y="430" class="label">cdn.cloudflare.steamstatic.com</text>
<rect x="180" y="414" width="518.58" height="22" fill="#4c78a8" rx="3"/>
<text x="706.58" y="430" class="value">187.51</text>
<text x="10" y="462" class="label">community.akamai.steamstatic.com</text>
<rect x="180" y="446" width="543.85" height="22" fill="#4c78a8" rx="3"/>
<text x="731.85" y="462" class="value">196.65</text>
<text x="10" y="494" class="label">steam-chat.com</text>
<rect x="180" y="478" width="580.0" height="22" fill="#4c78a8" rx="3"/>
<text x="768.0" y="494" class="value">209.72</text>
<line x1="180" y1="30" x2="180" y2="520" stroke="#ccc"/>
<line x1="180" y1="520" x2="760" y2="520" stroke="#ccc"/>
</svg>