<svg xmlns="http://www.w3.org/2000/svg" width="800" height="540">
<style> .label{font-family:DejaVu Sans,Verdana,Geneva,sans-serif;font-size:12px;fill:#333} .value{font-family:DejaVu Sans,Verdana,Geneva,sans-serif;font-size:12px;fill:#555} </style>
<text x="10" y="20" class="label">延迟柱状图（越低越好，Top 15），单位 ms</text>
<text x="10" y="46" class="label">rockstargames.com</text>
<rect x="180" y="30" width="188.6" height="22" fill="#4c78a8" rx="3"/>
<text x="376.6" y="46" class="value">63.50</text>
<text x="10" y="78" class="label">socialclub.rockstargames.com</text>
<rect x="180" y="62" width="244.71" height="22" fill="#4c78a8" rx="3"/>
<text x="432.71000000000004" y="78" class="value">82.39</text>
<text x="10" y="110" class="label">battle.net</text>
<rect x="180" y="94" width="268.41" height="22" fill="#4c78a8" rx="3"/>
<text x="456.41" y="110" class="value">90.37</text>
<text x="10" y="142" class="label">ubi.com</text>
<rect x="180" y="126" width="291.4" height="22" fill="#4c78a8" rx="3"/>
<text x="479.4" y="142" class="value">98.11</text>
<text x="10" y="174" class="label">blizzard.com</text>
<rect x="180" y="158" width="298.2" height="22" fill="#4c78a8" rx="3"/>
<text x="486.2" y="174" class="value">100.40</text>
<text x="10" y="206" class="label">eaassets-a.akamaihd.net</text>
<rect x="180" y="190" width="342.96" height="22" fill="#4c78a8" rx="3"/>
<text x="530.96" y="206" class="value">115.47</text>
<text x="10" y="238" class="label">epicgames.com</text>
<rect x="180" y="222" width="366.33" height="22" fill="#4c78a8" rx="3"/>
<text x="554.3299999999999" y="238" class="value">123.34</text>
<text x="10" y="270" class="label">ubisoft.com</text>
<rect x="180" y="254" width="387.86" height="22" fill="#4c78a8" rx="3"/>
<text x="575.86" y="270" class="value">130.59</text>
<text x="10" y="302" class="label">cdn.cloudflare.steamstatic.com</text>
<rect x="180" y="286" width="403.78" height="22" fill="#4c78a8" rx="3"/>
<text x="591.78" y="302" class="value">135.95</text>
<text x="10" y="334" class="label">easyanticheat.net</text>
<rect x="180" y="318" width="457.1" height="22" fill="#4c78a8" rx="3"/>
<text x="645.1" y="334" class="value">153.90</text>
<text x="10" y="366" class="label">ea.com</text>
<rect x="180" y="350" width="486.32" height="22" fill="#4c78a8" rx="3"/>
<text x="674.3199999999999" y="366" class="value">163.74</text>
<text x="10" y="398" class="label">steamcdn-a.akamaihd.net</text>
<rect x="180" y="382" width="507.8" height="22" fill="#4c78a8" rx="3"/>
<text x="695.8" y="398" class="value">170.97</text>
<text x="10" y="430" class="label">unrealengine.com</text>
<rect x="180" y="414" width="548.52" height="22" fill="#4c78a8" rx="3"/>
<text x="736.52" y="430" class="value">184.68</text>
<text x="10" y="462" class="label">community.akamai.steamstatic.com</text>
<rect x="180" y="446" width="562.0" height="22" fill="#4c78a8" rx="3"/>
<text x="750.0" y="462" class="value">189.22</text>
<text x="10" y="494" class="label">cdn.akamai.steamstatic.com</text>
<rect x="180" y="478" width="580.0" height="22" fill="#4c78a8" rx="3"/>
<text x="768.0" y="494" class="value">195.28</text>
<line x1="180" y1="30" x2="180" y2="520" stroke="#ccc"/>
<line x1="180" y1="520" x2="760" y2="520" stroke="#ccc"/>
</svg>