<svg xmlns="http://www.w3.org/2000/svg" width="800" height="540">
<style> .label{font-family:DejaVu Sans,Verdana,Geneva,sans-serif;font-size:12px;fill:#333} .value{font-family:DejaVu Sans,Verdana,Geneva,sans-serif;font-size:12px;fill:#555} </style>
<text x="10" y="20" class="label">延迟柱状图（越低越好，Top 15），单位 ms</text>
<text x="10" y="46" class="label">rockstargames.com</text>
<rect x="180" y="30" width="96.13" height="22" fill="#4c78a8" rx="3"/>
<text x="284.13" y="46" class="value">47.53</text>
<text x="10" y="78" class="label">eaassets-a.akamaihd.net</text>
<rect x="180" y="62" width="113.81" height="22" fill="#4c78a8" rx="3"/>
<text x="301.81" y="78" class="value">56.27</text>
<text x="10" y="110" class="label">steamcdn-a.akamaihd.net</text>
<rect x="180" y="94" width="166.45" height="22" fill="#4c78a8" rx="3"/>
<text x="354.45" y="110" class="value">82.30</text>
<text x="10" y="142" class="label">cdn.akamai.steamstatic.com</text>
<rect x="180" y="126" width="197.46" height="22" fill="#4c78a8" rx="3"/>
<text x="385.46000000000004" y="142" class="value">97.63</text>
<text x="10" y="174" class="label">ea.com</text>
<rect x="180" y="158" width="216.07" height="22" fill="#4c78a8" rx="3"/>
<text x="404.07" y="174" class="value">106.83</text>
<text x="10" y="206" class="label">origin.com</text>
<rect x="180" y="190" width="229.15" height="22" fill="#4c78a8" rx="3"/>
<text x="417.15" y="206" class="value">113.30</text>
<text x="10" y="238" class="label">cdn.cloudflare.steamstatic.com</text>
<rect x="180" y="222" width="237.49" height="22" fill="#4c78a8" rx="3"/>
<text x="425.49" y="238" class="value">117.42</text>
<text x="10" y="270" class="label">community.akamai.steamstatic.com</text>
<rect x="180" y="254" width="295.11" height="22" fill="#4c78a8" rx="3"/>
<text x="483.11" y="270" class="value">145.91</text>
<text x="10" y="302" class="label">store.akamai.steamstatic.com</text>
<rect x="180" y="286" width="388.87" height="22" fill="#4c78a8" rx="3"/>
<text x="576.87" y="302" class="value">192.27</text>
<text x="10" y="334" class="label">steam-chat.com</text>
<rect x="180" y="318" width="466.78" height="22" fill="#4c78a8" rx="3"/>
<text x="654.78" y="334" class="value">230.79</text>
<text x="10" y="366" class="label">easyanticheat.net</text>
<rect x="180" y="350" width="487.87" height="22" fill="#4c78a8" rx="3"/>
<text x="675.87" y="366" class="value">241.22</text>
<text x="10" y="398" class="label">www.steamcommunity.com</text>
<rect x="180" y="382" width="508.83" height="22" fill="#4c78a8" rx="3"/>
<text x="696.8299999999999" y="398" class="value">251.58</text>
<text x="10" y="430" class="label">api.steampowered.com</text>
<rect x="180" y="414" width="529.98" height="22" fill="#4c78a8" rx="3"/>
<text x="717.98" y="430" class="value">262.04</text>
<text x="10" y="462" class="label">launcher-public-service-prod06.ol.epicgames.com</text>
<rect x="180" y="446" width="552.74" height="22" fill="#4c78a8" rx="3"/>
<text x="740.74" y="462" class="value">273.29</text>
<text x="10" y="494" class="label">blizzard.com</text>
<rect x="180" y="478" width="580.0" height="22" fill="#4c78a8" rx="3"/>
<text x="768.0" y="494" class="value">286.77</text>
<line x1="180" y1="30" x2="180" y2="520" stroke="#ccc"/>
<line x1="180" y1="520" x2="760" y2="520" stroke="#ccc"/>
</svg>