<svg xmlns="http://www.w3.org/2000/svg" width="800" height="540">
<style> .label{font-family:DejaVu Sans,Verdana,Geneva,sans-serif;font-size:12px;fill:#333} .value{font-family:DejaVu Sans,Verdana,Geneva,sans-serif;font-size:12px;fill:#555} </style>
<text x="10" y="20" class="label">延迟柱状图（越低越好，Top 15），单位 ms</text>
<text x="10" y="46" class="label">rockstargames.com</text>
<rect x="180" y="30" width="196.85" height="22" fill="#4c78a8" rx="3"/>
<text x="384.85" y="46" class="value">75.19</text>
<text x="10" y="78" class="label">ubisoft.com</text>
<rect x="180" y="62" width="226.85" height="22" fill="#4c78a8" rx="3"/>
<text x="414.85" y="78" class="value">86.65</text>
<text x="10" y="110" class="label">eaassets-a.akamaihd.net</text>
<rect x="180" y="94" width="229.92" height="22" fill="#4c78a8" rx="3"/>
<text x="417.91999999999996" y="110" class="value">87.82</text>
<text x="10" y="142" class="label">cdn.cloudflare.steamstatic.com</text>
<rect x="180" y="126" width="303.59" height="22" fill="#4c78a8" rx="3"/>
<text x="491.59" y="142" class="value">115.96</text>
<text x="10" y="174" class="label">origin.com</text>
<rect x="180" y="158" width="306.31" height="22" fill="#4c78a8" rx="3"/>
<text x="494.31" y="174" class="value">117.00</text>
<text x="10" y="206" class="label">cdn.akamai.steamstatic.com</text>
<rect x="180" y="190" width="353.93" height="22" fill="#4c78a8" rx="3"/>
<text x="541.9300000000001" y="206" class="value">135.19</text>
<text x="10" y="238" class="label">ubi.com</text>
<rect x="180" y="222" width="359.19" height="22" fill="#4c78a8" rx="3"/>
<text x="547.19" y="238" class="value">137.20</text>
<text x="10" y="270" class="label">socialclub.rockstargames.com</text>
<rect x="180" y="254" width="360.77" height="22" fill="#4c78a8" rx="3"/>
<text x="548.77" y="270" class="value">137.80</text>
<text x="10" y="302" class="label">ea.com</text>
<rect x="180" y="286" width="384.35" height="22" fill="#4c78a8" rx="3"/>
<text x="572.35" y="302" class="value">146.81</text>
<text x="10" y="334" class="label">store.akamai.steamstatic.com</text>
<rect x="180" y="318" width="397.68" height="22" fill="#4c78a8" rx="3"/>
<text x="585.6800000000001" y="334" class="value">151.90</text>
<text x="10" y="366" class="label">battle.net</text>
<rect x="180" y="350" width="413.36" height="22" fill="#4c78a8" rx="3"/>
<text x="601.36" y="366" class="value">157.89</text>
<text x="10" y="398" class="label">blizzard.com</text>
<rect x="180" y="382" width="441.4" height="22" fill="#4c78a8" rx="3"/>
<text x="629.4" y="398" class="value">168.60</text>
<text x="10" y="430" class="label">community.akamai.steamstatic.com</text>
<rect x="180" y="414" width="481.48" height="22" fill="#4c78a8" rx="3"/>
<text x="669.48" y="430" class="value">183.91</text>
<text x="10" y="462" class="label">steamcdn-a.akamaihd.net</text>
<rect x="180" y="446" width="559.87" height="22" fill="#4c78a8" rx="3"/>
<text x="747.87" y="462" class="value">213.85</text>
<text x="10" y="494" class="label">static3.cdn.ubi.com</text>
<rect x="180" y="478" width="580.0" height="22" fill="#4c78a8" rx="3"/>
<text x="768.0" y="494" class="value">221.54</text>
<line x1="180" y1="30" x2="180" y2="520" stroke="#ccc"/>
<line x1="180" y1="520" x2="760" y2="520" stroke="#ccc"/>
</svg>