<svg xmlns="http://www.w3.org/2000/svg" width="800" height="540">
<style> .label{font-family:DejaVu Sans,Verdana,Geneva,sans-serif;font-size:12px;fill:#333} .value{font-family:DejaVu Sans,Verdana,Geneva,sans-serif;font-size:12px;fill:#555} </style>
<text x="10" y="20" class="label">延迟柱状图（越低越好，Top 15），单位 ms</text>
<text x="10" y="46" class="label">rockstargames.com</text>
<rect x="180" y="30" width="135.06" height="22" fill="#4c78a8" rx="3"/>
<text x="323.06" y="46" class="value">56.36</text>
<text x="10" y="78" class="label">ea.com</text>
<rect x="180" y="62" width="163.28" height="22" fill="#4c78a8" rx="3"/>
<text x="351.28" y="78" class="value">68.14</text>
<text x="10" y="110" class="label">origin.com</text>
<rect x="180" y="94" width="194.65" height="22" fill="#4c78a8" rx="3"/>
<text x="382.65" y="110" class="value">81.23</text>
<text x="10" y="142" class="label">ubisoft.com</text>
<rect x="180" y="126" width="213.68" height="22" fill="#4c78a8" rx="3"/>
<text x="401.68" y="142" class="value">89.17</text>
<text x="10" y="174" class="label">eaassets-a.akamaihd.net</text>
<rect x="180" y="158" width="239.58" height="22" fill="#4c78a8" rx="3"/>
<text x="427.58000000000004" y="174" class="value">99.98</text>
<text x="10" y="206" class="label">cdn.cloudflare.steamstatic.com</text>
<rect x="180" y="190" width="254.15" height="22" fill="#4c78a8" rx="3"/>
<text x="442.15" y="206" class="value">106.06</text>
<text x="10" y="238" class="label">store.akamai.steamstatic.com</text>
<rect x="180" y="222" width="281.88" height="22" fill="#4c78a8" rx="3"/>
<text x="469.88" y="238" class="value">117.63</text>
<text x="10" y="270" class="label">community.akamai.steamstatic.com</text>
<rect x="180" y="254" width="306.85" height="22" fill="#4c78a8" rx="3"/>
<text x="494.85" y="270" class="value">128.05</text>
<text x="10" y="302" class="label">cdn.akamai.steamstatic.com</text>
<rect x="180" y="286" width="317.1" height="22" fill="#4c78a8" rx="3"/>
<text x="505.1" y="302" class="value">132.33</text>
<text x="10" y="334" class="label">static3.cdn.ubi.com</text>
<rect x="180" y="318" width="408.21" height="22" fill="#4c78a8" rx="3"/>
<text x="596.21" y="334" class="value">170.35</text>
<text x="10" y="366" class="label">steamcdn-a.akamaihd.net</text>
<rect x="180" y="350" width="446.19" height="22" fill="#4c78a8" rx="3"/>
<text x="634.19" y="366" class="value">186.20</text>
<text x="10" y="398" class="label">www.steamcommunity.com</text>
<rect x="180" y="382" width="502.96" height="22" fill="#4c78a8" rx="3"/>
<text x="690.96" y="398" class="value">209.89</text>
<text x="10" y="430" class="label">easyanticheat.net</text>
<rect x="180" y="414" width="544.22" height="22" fill="#4c78a8" rx="3"/>
<text x="732.22" y="430" class="value">227.11</text>
<text x="10" y="462" class="label">api.steampowered.com</text>
<rect x="180" y="446" width="555.1" height="22" fill="#4c78a8" rx="3"/>
<text x="743.1" y="462" class="value">231.65</text>
<text x="10" y="494" class="label">steam-chat.com</text>
<rect x="180" y="478" width="580.0" height="22" fill="#4c78a8" rx="3"/>
<text x="768.0" y="494" class="value">242.04</text>
<line x1="180" y1="30" x2="180" y2="520" stroke="#ccc"/>
<line x1="180" y1="520" x2="760" y2="520" stroke="#ccc"/>
</svg>