<svg xmlns="http://www.w3.org/2000/svg" width="800" height="540">
<style> .label{font-family:DejaVu Sans,Verdana,Geneva,sans-serif;font-size:12px;fill:#333} .value{font-family:DejaVu Sans,Verdana,Geneva,sans-serif;font-size:12px;fill:#555} </style>
<text x="10" y="20" class="label">延迟柱状图（越低越好，Top 15），单位 ms</text>
<text x="10" y="46" class="label">eaassets-a.akamaihd.net</text>
<rect x="180" y="30" width="151.98" height="22" fill="#4c78a8" rx="3"/>
<text x="339.98" y="46" class="value">72.92</text>
<text x="10" y="78" class="label">steamcdn-a.akamaihd.net</text>
<rect x="180" y="62" width="171.09" height="22" fill="#4c78a8" rx="3"/>
<text x="359.09000000000003" y="78" class="value">82.09</text>
<text x="10" y="110" class="label">cdn.akamai.steamstatic.com</text>
<rect x="180" y="94" width="206.51" height="22" fill="#4c78a8" rx="3"/>
<text x="394.51" y="110" class="value">99.08</text>
<text x="10" y="142" class="label">rockstargames.com</text>
<rect x="180" y="126" width="243.58" height="22" fill="#4c78a8" rx="3"/>
<text x="431.58000000000004" y="142" class="value">116.87</text>
<text x="10" y="174" class="label">ubisoft.com</text>
<rect x="180" y="158" width="264.05" height="22" fill="#4c78a8" rx="3"/>
<text x="452.05" y="174" class="value">126.69</text>
<text x="10" y="206" class="label">origin.com</text>
<rect x="180" y="190" width="275.54" height="22" fill="#4c78a8" rx="3"/>
<text x="463.54" y="206" class="value">132.20</text>
<text x="10" y="238" class="label">ea.com</text>
<rect x="180" y="222" width="279.7" height="22" fill="#4c78a8" rx="3"/>
<text x="467.7" y="238" class="value">134.20</text>
<text x="10" y="270" class="label">store.akamai.steamstatic.com</text>
<rect x="180" y="254" width="281.16" height="22" fill="#4c78a8" rx="3"/>
<text x="469.16" y="270" class="value">134.90</text>
<text x="10" y="302" class="label">community.akamai.steamstatic.com</text>
<rect x="180" y="286" width="295.09" height="22" fill="#4c78a8" rx="3"/>
<text x="483.09" y="302" class="value">141.58</text>
<text x="10" y="334" class="label">easyanticheat.net</text>
<rect x="180" y="318" width="395.98" height="22" fill="#4c78a8" rx="3"/>
<text x="583.98" y="334" class="value">189.99</text>
<text x="10" y="366" class="label">api.steampowered.com</text>
<rect x="180" y="350" width="439.98" height="22" fill="#4c78a8" rx="3"/>
<text x="627.98" y="366" class="value">211.10</text>
<text x="10" y="398" class="label">cdn.cloudflare.steamstatic.com</text>
<rect x="180" y="382" width="467.37" height="22" fill="#4c78a8" rx="3"/>
<text x="655.37" y="398" class="value">224.24</text>
<text x="10" y="430" class="label">steam-chat.com</text>
<rect x="180" y="414" width="526.73" height="22" fill="#4c78a8" rx="3"/>
<text x="714.73" y="430" class="value">252.72</text>
<text x="10" y="462" class="label">www.steamcommunity.com</text>
<rect x="180" y="446" width="579.87" height="22" fill="#4c78a8" rx="3"/>
<text x="767.87" y="462" class="value">278.22</text>
<text x="10" y="494" class="label">ubi.com</text>
<rect x="180" y="478" width="580.0" height="22" fill="#4c78a8" rx="3"/>
<text x="768.0" y="494" class="value">278.28</text>
<line x1="180" y1="30" x2="180" y2="520" stroke="#ccc"/>
<line x1="180" y1="520" x2="760" y2="520" stroke="#ccc"/>
</svg>