<svg xmlns="http://www.w3.org/2000/svg" width="800" height="540">
<style> .label{font-family:DejaVu Sans,Verdana,Geneva,sans-serif;font-size:12px;fill:#333} .value{font-family:DejaVu Sans,Verdana,Geneva,sans-serif;font-size:12px;fill:#555} </style>
<text x="10" y="20" class="label">延迟柱状图（越低越好，Top 15），单位 ms</text>
<text x="10" y="46" class="label">eaassets-a.akamaihd.net</text>
<rect x="180" y="30" width="142.18" height="22" fill="#4c78a8" rx="3"/>
<text x="330.18" y="46" class="value">58.89</text>
<text x="10" y="78" class="label">rockstargames.com</text>
<rect x="180" y="62" width="143.92" height="22" fill="#4c78a8" rx="3"/>
<text x="331.91999999999996" y="78" class="value">59.61</text>
<text x="10" y="110" class="label">blizzard.com</text>
<rect x="180" y="94" width="214.15" height="22" fill="#4c78a8" rx="3"/>
<text x="402.15" y="110" class="value">88.70</text>
<text x="10" y="142" class="label">socialclub.rockstargames.com</text>
<rect x="180" y="126" width="219.25" height="22" fill="#4c78a8" rx="3"/>
<text x="407.25" y="142" class="value">90.81</text>
<text x="10" y="174" class="label">steamcdn-a.akamaihd.net</text>
<rect x="180" y="158" width="222.72" height="22" fill="#4c78a8" rx="3"/>
<text x="410.72" y="174" class="value">92.25</text>
<text x="10" y="206" class="label">ubisoft.com</text>
<rect x="180" y="190" width="224.46" height="22" fill="#4c78a8" rx="3"/>
<text x="412.46000000000004" y="206" class="value">92.97</text>
<text x="10" y="238" class="label">ea.com</text>
<rect x="180" y="222" width="227.53" height="22" fill="#4c78a8" rx="3"/>
<text x="415.53" y="238" class="value">94.24</text>
<text x="10" y="270" class="label">battle.net</text>
<rect x="180" y="254" width="251.72" height="22" fill="#4c78a8" rx="3"/>
<text x="439.72" y="270" class="value">104.26</text>
<text x="10" y="302" class="label">ubi.com</text>
<rect x="180" y="286" width="257.27" height="22" fill="#4c78a8" rx="3"/>
<text x="445.27" y="302" class="value">106.56</text>
<text x="10" y="334" class="label">fortnite.com</text>
<rect x="180" y="318" width="317.27" height="22" fill="#4c78a8" rx="3"/>
<text x="505.27" y="334" class="value">131.41</text>
<text x="10" y="366" class="label">static3.cdn.ubi.com</text>
<rect x="180" y="350" width="463.22" height="22" fill="#4c78a8" rx="3"/>
<text x="651.22" y="366" class="value">191.86</text>
<text x="10" y="398" class="label">community.akamai.steamstatic.com</text>
<rect x="180" y="382" width="499.07" height="22" fill="#4c78a8" rx="3"/>
<text x="687.0699999999999" y="398" class="value">206.71</text>
<text x="10" y="430" class="label">store.akamai.steamstatic.com</text>
<rect x="180" y="414" width="538.88" height="22" fill="#4c78a8" rx="3"/>
<text x="726.88" y="430" class="value">223.20</text>
<text x="10" y="462" class="label">epicgames.com</text>
<rect x="180" y="446" width="547.19" height="22" fill="#4c78a8" rx="3"/>
<text x="735.19" y="462" class="value">226.64</text>
<text x="10" y="494" class="label">cdn.akamai.steamstatic.com</text>
<rect x="180" y="478" width="580.0" height="22" fill="#4c78a8" rx="3"/>
<text x="768.0" y="494" class="value">240.23</text>
<line x1="180" y1="30" x2="180" y2="520" stroke="#ccc"/>
<line x1="180" y1="520" x2="760" y2="520" stroke="#ccc"/>
</svg>