<svg xmlns="http://www.w3.org/2000/svg" width="800" height="540">
<style> .label{font-family:DejaVu Sans,Verdana,Geneva,sans-serif;font-size:12px;fill:#333} .value{font-family:DejaVu Sans,Verdana,Geneva,sans-serif;font-size:12px;fill:#555} </style>
<text x="10" y="20" class="label">延迟柱状图（越低越好，Top 15），单位 ms</text>
<text x="10" y="46" class="label">rockstargames.com</text>
<rect x="180" y="30" width="110.24" height="22" fill="#4c78a8" rx="3"/>
<text x="298.24" y="46" class="value">47.89</text>
<text x="10" y="78" class="label">eaassets-a.akamaihd.net</text>
<rect x="180" y="62" width="113.37" height="22" fill="#4c78a8" rx="3"/>
<text x="301.37" y="78" class="value">49.25</text>
<text x="10" y="110" class="label">ea.com</text>
<rect x="180" y="94" width="180.53" height="22" fill="#4c78a8" rx="3"/>
<text x="368.53" y="110" class="value">78.43</text>
<text x="10" y="142" class="label">cdn.cloudflare.steamstatic.com</text>
<rect x="180" y="126" width="271.02" height="22" fill="#4c78a8" rx="3"/>
<text x="459.02" y="142" class="value">117.74</text>
<text x="10" y="174" class="label">community.akamai.steamstatic.com</text>
<rect x="180" y="158" width="303.22" height="22" fill="#4c78a8" rx="3"/>
<text x="491.22" y="174" class="value">131.73</text>
<text x="10" y="206" class="label">easyanticheat.net</text>
<rect x="180" y="190" width="346.73" height="22" fill="#4c78a8" rx="3"/>
<text x="534.73" y="206" class="value">150.63</text>
<text x="10" y="238" class="label">origin.com</text>
<rect x="180" y="222" width="362.59" height="22" fill="#4c78a8" rx="3"/>
<text x="550.5899999999999" y="238" class="value">157.52</text>
<text x="10" y="270" class="label">ubisoft.com</text>
<rect x="180" y="254" width="368.74" height="22" fill="#4c78a8" rx="3"/>
<text x="556.74" y="270" class="value">160.19</text>
<text x="10" y="302" class="label">cdn.akamai.steamstatic.com</text>
<rect x="180" y="286" width="408.53" height="22" fill="#4c78a8" rx="3"/>
<text x="596.53" y="302" class="value">177.48</text>
<text x="10" y="334" class="label">store.akamai.steamstatic.com</text>
<rect x="180" y="318" width="467.76" height="22" fill="#4c78a8" rx="3"/>
<text x="655.76" y="334" class="value">203.21</text>
<text x="10" y="366" class="label">steamcdn-a.akamaihd.net</text>
<rect x="180" y="350" width="530.07" height="22" fill="#4c78a8" rx="3"/>
<text x="718.07" y="366" class="value">230.28</text>
<text x="10" y="398" class="label">api.steampowered.com</text>
<rect x="180" y="382" width="534.79" height="22" fill="#4c78a8" rx="3"/>
<text x="722.79" y="398" class="value">232.33</text>
<text x="10" y="430" class="label">steam-chat.com</text>
<rect x="180" y="414" width="545.86" height="22" fill="#4c78a8" rx="3"/>
<text x="733.86" y="430" class="value">237.14</text>
<text x="10" y="462" class="label">www.steamcommunity.com</text>
<rect x="180" y="446" width="579.88" height="22" fill="#4c78a8" rx="3"/>
<text x="767.88" y="462" class="value">251.92</text>
<text x="10" y="494" class="label">launcher-public-service-prod06.ol.epicgames.com</text>
<rect x="180" y="478" width="580.0" height="22" fill="#4c78a8" rx="3"/>
<text x="768.0" y="494" class="value">251.97</text>
<line x1="180" y1="30" x2="180" y2="520" stroke="#ccc"/>
<line x1="180" y1="520" x2="760" y2="520" stroke="#ccc"/>
</svg>