<svg xmlns="http://www.w3.org/2000/svg" width="800" height="540">
<style> .label{font-family:DejaVu Sans,Verdana,Geneva,sans-serif;font-size:12px;fill:#333} .value{font-family:DejaVu Sans,Verdana,Geneva,sans-serif;font-size:12px;fill:#555} </style>
<text x="10" y="20" class="label">延迟柱状图（越低越好，Top 15），单位 ms</text>
<text x="10" y="46" class="label">eaassets-a.akamaihd.net</text>
<rect x="180" y="30" width="309.02" height="22" fill="#4c78a8" rx="3"/>
<text x="497.02" y="46" class="value">112.70</text>
<text x="10" y="78" class="label">ubisoft.com</text>
<rect x="180" y="62" width="326.37" height="22" fill="#4c78a8" rx="3"/>
<text x="514.37" y="78" class="value">119.03</text>
<text x="10" y="110" class="label">rockstargames.com</text>
<rect x="180" y="94" width="361.85" height="22" fill="#4c78a8" rx="3"/>
<text x="549.85" y="110" class="value">131.97</text>
<text x="10" y="142" class="label">ea.com</text>
<rect x="180" y="126" width="381.07" height="22" fill="#4c78a8" rx="3"/>
<text x="569.0699999999999" y="142" class="value">138.98</text>
<text x="10" y="174" class="label">store.akamai.steamstatic.com</text>
<rect x="180" y="158" width="415.05" height="22" fill="#4c78a8" rx="3"/>
<text x="603.05" y="174" class="value">151.37</text>
<text x="10" y="206" class="label">easyanticheat.net</text>
<rect x="180" y="190" width="415.35" height="22" fill="#4c78a8" rx="3"/>
<text x="603.35" y="206" class="value">151.48</text>
<text x="10" y="238" class="label">steamcdn-a.akamaihd.net</text>
<rect x="180" y="222" width="423.33" height="22" fill="#4c78a8" rx="3"/>
<text x="611.3299999999999" y="238" class="value">154.39</text>
<text x="10" y="270" class="label">community.akamai.steamstatic.com</text>
<rect x="180" y="254" width="430.59" height="22" fill="#4c78a8" rx="3"/>
<text x="618.5899999999999" y="270" class="value">157.04</text>
<text x="10" y="302" class="label">ubi.com</text>
<rect x="180" y="286" width="438.63" height="22" fill="#4c78a8" rx="3"/>
<text x="626.63" y="302" class="value">159.97</text>
<text x="10" y="334" class="label">blizzard.com</text>
<rect x="180" y="318" width="445.84" height="22" fill="#4c78a8" rx="3"/>
<text x="633.8399999999999" y="334" class="value">162.60</text>
<text x="10" y="366" class="label">battle.net</text>
<rect x="180" y="350" width="487.93" height="22" fill="#4c78a8" rx="3"/>
<text x="675.9300000000001" y="366" class="value">177.95</text>
<text x="10" y="398" class="label">origin.com</text>
<rect x="180" y="382" width="503.01" height="22" fill="#4c78a8" rx="3"/>
<text x="691.01" y="398" class="value">183.45</text>
<text x="10" y="430" class="label">api.steampowered.com</text>
<rect x="180" y="414" width="550.22" height="22" fill="#4c78a8" rx="3"/>
<text x="738.22" y="430" class="value">200.67</text>
<text x="10" y="462" class="label">epicgames.com</text>
<rect x="180" y="446" width="553.76" height="22" fill="#4c78a8" rx="3"/>
<text x="741.76" y="462" class="value">201.96</text>
<text x="10" y="494" class="label">launcher-public-service-prod06.ol.epicgames.com</text>
<rect x="180" y="478" width="580.0" height="22" fill="#4c78a8" rx="3"/>
<text x="768.0" y="494" class="value">211.53</text>
<line x1="180" y1="30" x2="180" y2="520" stroke="#ccc"/>
<line x1="180" y1="520" x2="760" y2="520" stroke="#ccc"/>
</svg>