<svg xmlns="http://www.w3.org/2000/svg" width="800" height="540">
<style> .label{font-family:DejaVu Sans,Verdana,Geneva,sans-serif;font-size:12px;fill:#333} .value{font-family:DejaVu Sans,Verdana,Geneva,sans-serif;font-size:12px;fill:#555} </style>
<text x="10" y="20" class="label">延迟柱状图（越低越好，Top 15），单位 ms</text>
<text x="10" y="46" class="label">eaassets-a.akamaihd.net</text>
<rect x="180" y="30" width="187.72" height="22" fill="#4c78a8" rx="3"/>
<text x="375.72" y="46" class="value">90.49</text>
<text x="10" y="78" class="label">ea.com</text>
<rect x="180" y="62" width="212.43" height="22" fill="#4c78a8" rx="3"/>
<text x="400.43" y="78" class="value">102.40</text>
<text x="10" y="110" class="label">rockstargames.com</text>
<rect x="180" y="94" width="217.65" height="22" fill="#4c78a8" rx="3"/>
<text x="405.65" y="110" class="value">104.92</text>
<text x="10" y="142" class="label">origin.com</text>
<rect x="180" y="126" width="224.46" height="22" fill="#4c78a8" rx="3"/>
<text x="412.46000000000004" y="142" class="value">108.20</text>
<text x="10" y="174" class="label">steamcdn-a.akamaihd.net</text>
<rect x="180" y="158" width="268.93" height="22" fill="#4c78a8" rx="3"/>
<text x="456.93" y="174" class="value">129.64</text>
<text x="10" y="206" class="label">socialclub.rockstargames.com</text>
<rect x="180" y="190" width="297.91" height="22" fill="#4c78a8" rx="3"/>
<text x="485.91" y="206" class="value">143.61</text>
<text x="10" y="238" class="label">community.akamai.steamstatic.com</text>
<rect x="180" y="222" width="314.7" height="22" fill="#4c78a8" rx="3"/>
<text x="502.7" y="238" class="value">151.70</text>
<text x="10" y="270" class="label">ubi.com</text>
<rect x="180" y="254" width="349.51" height="22" fill="#4c78a8" rx="3"/>
<text x="537.51" y="270" class="value">168.48</text>
<text x="10" y="302" class="label">blizzard.com</text>
<rect x="180" y="286" width="364.44" height="22" fill="#4c78a8" rx="3"/>
<text x="552.44" y="302" class="value">175.68</text>
<text x="10" y="334" class="label">battle.net</text>
<rect x="180" y="318" width="378.71" height="22" fill="#4c78a8" rx="3"/>
<text x="566.71" y="334" class="value">182.56</text>
<text x="10" y="366" class="label">static3.cdn.ubi.com</text>
<rect x="180" y="350" width="414.73" height="22" fill="#4c78a8" rx="3"/>
<text x="602.73" y="366" class="value">199.92</text>
<text x="10" y="398" class="label">store.akamai.steamstatic.com</text>
<rect x="180" y="382" width="462.59" height="22" fill="#4c78a8" rx="3"/>
<text x="650.5899999999999" y="398" class="value">222.99</text>
<text x="10" y="430" class="label">api.steampowered.com</text>
<rect x="180" y="414" width="539.13" height="22" fill="#4c78a8" rx="3"/>
<text x="727.13" y="430" class="value">259.89</text>
<text x="10" y="462" class="label">cdn.akamai.steamstatic.com</text>
<rect x="180" y="446" width="562.1" height="22" fill="#4c78a8" rx="3"/>
<text x="750.1" y="462" class="value">270.96</text>
<text x="10" y="494" class="label">cdn.cloudflare.steamstatic.com</text>
<rect x="180" y="478" width="580.0" height="22" fill="#4c78a8" rx="3"/>
<text x="768.0" y="494" class="value">279.59</text>
<line x1="180" y1="30" x2="180" y2="520" stroke="#ccc"/>
<line x1="180" y1="520" x2="760" y2="520" stroke="#ccc"/>
</svg>