<svg xmlns="http://www.w3.org/2000/svg" width="800" height="540">
<style> .label{font-family:DejaVu Sans,Verdana,Geneva,sans-serif;font-size:12px;fill:#333} .value{font-family:DejaVu Sans,Verdana,Geneva,sans-serif;font-size:12px;fill:#555} </style>
<text x="10" y="20" class="label">延迟柱状图（越低越好，Top 15），单位 ms</text>
<text x="10" y="46" class="label">eaassets-a.akamaihd.net</text>
<rect x="180" y="30" width="67.24" height="22" fill="#4c78a8" rx="3"/>
<text x="255.24" y="46" class="value">31.93</text>
<text x="10" y="78" class="label">rockstargames.com</text>
<rect x="180" y="62" width="72.8" height="22" fill="#4c78a8" rx="3"/>
<text x="260.8" y="78" class="value">34.57</text>
<text x="10" y="110" class="label">origin.com</text>
<rect x="180" y="94" width="150.83" height="22" fill="#4c78a8" rx="3"/>
<text x="338.83000000000004" y="110" class="value">71.62</text>
<text x="10" y="142" class="label">ubisoft.com</text>
<rect x="180" y="126" width="158.39" height="22" fill="#4c78a8" rx="3"/>
<text x="346.39" y="142" class="value">75.21</text>
<text x="10" y="174" class="label">steamcdn-a.akamaihd.net</text>
<rect x="180" y="158" width="169.02" height="22" fill="#4c78a8" rx="3"/>
<text x="357.02" y="174" class="value">80.26</text>
<text x="10" y="206" class="label">ea.com</text>
<rect x="180" y="190" width="222.03" height="22" fill="#4c78a8" rx="3"/>
<text x="410.03" y="206" class="value">105.43</text>
<text x="10" y="238" class="label">store.akamai.steamstatic.com</text>
<rect x="180" y="222" width="247.66" height="22" fill="#4c78a8" rx="3"/>
<text x="435.65999999999997" y="238" class="value">117.60</text>
<text x="10" y="270" class="label">community.akamai.steamstatic.com</text>
<rect x="180" y="254" width="365.51" height="22" fill="#4c78a8" rx="3"/>
<text x="553.51" y="270" class="value">173.56</text>
<text x="10" y="302" class="label">easyanticheat.net</text>
<rect x="180" y="286" width="406.36" height="22" fill="#4c78a8" rx="3"/>
<text x="594.36" y="302" class="value">192.96</text>
<text x="10" y="334" class="label">cdn.akamai.steamstatic.com</text>
<rect x="180" y="318" width="425.21" height="22" fill="#4c78a8" rx="3"/>
<text x="613.21" y="334" class="value">201.91</text>
<text x="10" y="366" class="label">cdn.cloudflare.steamstatic.com</text>
<rect x="180" y="350" width="471.02" height="22" fill="#4c78a8" rx="3"/>
<text x="659.02" y="366" class="value">223.66</text>
<text x="10" y="398" class="label">steamcommunity.com</text>
<rect x="180" y="382" width="511.03" height="22" fill="#4c78a8" rx="3"/>
<text x="699.03" y="398" class="value">242.66</text>
<text x="10" y="430" class="label">api.steampowered.com</text>
<rect x="180" y="414" width="516.32" height="22" fill="#4c78a8" rx="3"/>
<text x="704.32" y="430" class="value">245.17</text>
<text x="10" y="462" class="label">steam-chat.com</text>
<rect x="180" y="446" width="534.7" height="22" fill="#4c78a8" rx="3"/>
<text x="722.7" y="462" class="value">253.90</text>
<text x="10" y="494" class="label">www.steamcommunity.com</text>
<rect x="180" y="478" width="580.0" height="22" fill="#4c78a8" rx="3"/>
<text x="768.0" y="494" class="value">275.41</text>
<line x1="180" y1="30" x2="180" y2="520" stroke="#ccc"/>
<line x1="180" y1="520" x2="760" y2="520" stroke="#ccc"/>
</svg>