<svg xmlns="http://www.w3.org/2000/svg" width="800" height="540">
<style> .label{font-family:DejaVu Sans,Verdana,Geneva,sans-serif;font-size:12px;fill:#333} .value{font-family:DejaVu Sans,Verdana,Geneva,sans-serif;font-size:12px;fill:#555} </style>
<text x="10" y="20" class="label">延迟柱状图（越低越好，Top 15），单位 ms</text>
<text x="10" y="46" class="label">rockstargames.com</text>
<rect x="180" y="30" width="183.32" height="22" fill="#4c78a8" rx="3"/>
<text x="371.32" y="46" class="value">95.12</text>
<text x="10" y="78" class="label">eaassets-a.akamaihd.net</text>
<rect x="180" y="62" width="187.72" height="22" fill="#4c78a8" rx="3"/>
<text x="375.72" y="78" class="value">97.40</text>
<text x="10" y="110" class="label">store.akamai.steamstatic.com</text>
<rect x="180" y="94" width="262.94" height="22" fill="#4c78a8" rx="3"/>
<text x="450.94" y="110" class="value">136.43</text>
<text x="10" y="142" class="label">ea.com</text>
<rect x="180" y="126" width="319.82" height="22" fill="#4c78a8" rx="3"/>
<text x="507.82" y="142" class="value">165.94</text>
<text x="10" y="174" class="label">ubisoft.com</text>
<rect x="180" y="158" width="329.26" height="22" fill="#4c78a8" rx="3"/>
<text x="517.26" y="174" class="value">170.84</text>
<text x="10" y="206" class="label">community.akamai.steamstatic.com</text>
<rect x="180" y="190" width="394.38" height="22" fill="#4c78a8" rx="3"/>
<text x="582.38" y="206" class="value">204.63</text>
<text x="10" y="238" class="label">steamcdn-a.akamaihd.net</text>
<rect x="180" y="222" width="399.97" height="22" fill="#4c78a8" rx="3"/>
<text x="587.97" y="238" class="value">207.53</text>
<text x="10" y="270" class="label">cdn.cloudflare.steamstatic.com</text>
<rect x="180" y="254" width="411.92" height="22" fill="#4c78a8" rx="3"/>
<text x="599.9200000000001" y="270" class="value">213.73</text>
<text x="10" y="302" class="label">cdn.akamai.steamstatic.com</text>
<rect x="180" y="286" width="466.04" height="22" fill="#4c78a8" rx="3"/>
<text x="654.04" y="302" class="value">241.81</text>
<text x="10" y="334" class="label">origin.com</text>
<rect x="180" y="318" width="478.03" height="22" fill="#4c78a8" rx="3"/>
<text x="666.03" y="334" class="value">248.03</text>
<text x="10" y="366" class="label">steamcommunity.com</text>
<rect x="180" y="350" width="529.14" height="22" fill="#4c78a8" rx="3"/>
<text x="717.14" y="366" class="value">274.55</text>
<text x="10" y="398" class="label">gog.com</text>
<rect x="180" y="382" width="544.54" height="22" fill="#4c78a8" rx="3"/>
<text x="732.54" y="398" class="value">282.54</text>
<text x="10" y="430" class="label">www.steamcommunity.com</text>
<rect x="180" y="414" width="559.07" height="22" fill="#4c78a8" rx="3"/>
<text x="747.07" y="430" class="value">290.08</text>
<text x="10" y="462" class="label">ubi.com</text>
<rect x="180" y="446" width="578.61" height="22" fill="#4c78a8" rx="3"/>
<text x="766.61" y="462" class="value">300.22</text>
<text x="10" y="494" class="label">easyanticheat.net</text>
<rect x="180" y="478" width="580.0" height="22" fill="#4c78a8" rx="3"/>
<text x="768.0" y="494" class="value">300.94</text>
<line x1="180" y1="30" x2="180" y2="520" stroke="#ccc"/>
<line x1="180" y1="520" x2="760" y2="520" stroke="#ccc"/>
</svg>