<svg xmlns="http://www.w3.org/2000/svg" width="800" height="540">
<style> .label{font-family:DejaVu Sans,Verdana,Geneva,sans-serif;font-size:12px;fill:#333} .value{font-family:DejaVu Sans,Verdana,Geneva,sans-serif;font-size:12px;fill:#555} </style>
<text x="10" y="20" class="label">延迟柱状图（越低越好，Top 15），单位 ms</text>
<text x="10" y="46" class="label">rockstargames.com</text>
<rect x="180" y="30" width="143.55" height="22" fill="#4c78a8" rx="3"/>
<text x="331.55" y="46" class="value">63.86</text>
<text x="10" y="78" class="label">ea.com</text>
<rect x="180" y="62" width="197.14" height="22" fill="#4c78a8" rx="3"/>
<text x="385.14" y="78" class="value">87.70</text>
<text x="10" y="110" class="label">eaassets-a.akamaihd.net</text>
<rect x="180" y="94" width="252.69" height="22" fill="#4c78a8" rx="3"/>
<text x="440.69" y="110" class="value">112.41</text>
<text x="10" y="142" class="label">steamcdn-a.akamaihd.net</text>
<rect x="180" y="126" width="257.54" height="22" fill="#4c78a8" rx="3"/>
<text x="445.54" y="142" class="value">114.57</text>
<text x="10" y="174" class="label">cdn.cloudflare.steamstatic.com</text>
<rect x="180" y="158" width="272.8" height="22" fill="#4c78a8" rx="3"/>
<text x="460.8" y="174" class="value">121.36</text>
<text x="10" y="206" class="label">community.akamai.steamstatic.com</text>
<rect x="180" y="190" width="329.2" height="22" fill="#4c78a8" rx="3"/>
<text x="517.2" y="206" class="value">146.45</text>
<text x="10" y="238" class="label">easyanticheat.net</text>
<rect x="180" y="222" width="358.92" height="22" fill="#4c78a8" rx="3"/>
<text x="546.9200000000001" y="238" class="value">159.67</text>
<text x="10" y="270" class="label">steam-chat.com</text>
<rect x="180" y="254" width="414.89" height="22" fill="#4c78a8" rx="3"/>
<text x="602.89" y="270" class="value">184.57</text>
<text x="10" y="302" class="label">api.steampowered.com</text>
<rect x="180" y="286" width="458.43" height="22" fill="#4c78a8" rx="3"/>
<text x="646.4300000000001" y="302" class="value">203.94</text>
<text x="10" y="334" class="label">www.steamcommunity.com</text>
<rect x="180" y="318" width="467.85" height="22" fill="#4c78a8" rx="3"/>
<text x="655.85" y="334" class="value">208.13</text>
<text x="10" y="366" class="label">ubisoft.com</text>
<rect x="180" y="350" width="521.33" height="22" fill="#4c78a8" rx="3"/>
<text x="709.33" y="366" class="value">231.92</text>
<text x="10" y="398" class="label">launcher-public-service-prod06.ol.epicgames.com</text>
<rect x="180" y="382" width="557.25" height="22" fill="#4c78a8" rx="3"/>
<text x="745.25" y="398" class="value">247.90</text>
<text x="10" y="430" class="label">ubi.com</text>
<rect x="180" y="414" width="567.43" height="22" fill="#4c78a8" rx="3"/>
<text x="755.43" y="430" class="value">252.43</text>
<text x="10" y="462" class="label">cdn.akamai.steamstatic.com</text>
<rect x="180" y="446" width="579.08" height="22" fill="#4c78a8" rx="3"/>
<text x="767.08" y="462" class="value">257.61</text>
<text x="10" y="494" class="label">store.akamai.steamstatic.com</text>
<rect x="180" y="478" width="580.0" height="22" fill="#4c78a8" rx="3"/>
<text x="768.0" y="494" class="value">258.02</text>
<line x1="180" y1="30" x2="180" y2="520" stroke="#ccc"/>
<line x1="180" y1="520" x2="760" y2="520" stroke="#ccc"/>
</svg>