<svg xmlns="http://www.w3.org/2000/svg" width="800" height="540">
<style> .label{font-family:DejaVu Sans,Verdana,Geneva,sans-serif;font-size:12px;fill:#333} .value{font-family:DejaVu Sans,Verdana,Geneva,sans-serif;font-size:12px;fill:#555} </style>
<text x="10" y="20" class="label">延迟柱状图（越低越好，Top 15），单位 ms</text>
<text x="10" y="46" class="label">socialclub.rockstargames.com</text>
<rect x="180" y="30" width="204.66" height="22" fill="#4c78a8" rx="3"/>
<text x="392.65999999999997" y="46" class="value">82.42</text>
<text x="10" y="78" class="label">community.akamai.steamstatic.com</text>
<rect x="180" y="62" width="249.3" height="22" fill="#4c78a8" rx="3"/>
<text x="437.3" y="78" class="value">100.40</text>
<text x="10" y="110" class="label">ubi.com</text>
<rect x="180" y="94" width="252.46" height="22" fill="#4c78a8" rx="3"/>
<text x="440.46000000000004" y="110" class="value">101.67</text>
<text x="10" y="142" class="label">battle.net</text>
<rect x="180" y="126" width="263.6" height="22" fill="#4c78a8" rx="3"/>
<text x="451.6" y="142" class="value">106.16</text>
<text x="10" y="174" class="label">eaassets-a.akamaihd.net</text>
<rect x="180" y="158" width="270.38" height="22" fill="#4c78a8" rx="3"/>
<text x="458.38" y="174" class="value">108.89</text>
<text x="10" y="206" class="label">blizzard.com</text>
<rect x="180" y="190" width="277.49" height="22" fill="#4c78a8" rx="3"/>
<text x="465.49" y="206" class="value">111.75</text>
<text x="10" y="238" class="label">epicgames.com</text>
<rect x="180" y="222" width="296.03" height="22" fill="#4c78a8" rx="3"/>
<text x="484.03" y="238" class="value">119.22</text>
<text x="10" y="270" class="label">rockstargames.com</text>
<rect x="180" y="254" width="305.4" height="22" fill="#4c78a8" rx="3"/>
<text x="493.4" y="270" class="value">122.99</text>
<text x="10" y="302" class="label">ubisoft.com</text>
<rect x="180" y="286" width="378.7" height="22" fill="#4c78a8" rx="3"/>
<text x="566.7" y="302" class="value">152.51</text>
<text x="10" y="334" class="label">cdn.akamai.steamstatic.com</text>
<rect x="180" y="318" width="407.05" height="22" fill="#4c78a8" rx="3"/>
<text x="595.05" y="334" class="value">163.93</text>
<text x="10" y="366" class="label">fortnite.com</text>
<rect x="180" y="350" width="462.65" height="22" fill="#4c78a8" rx="3"/>
<text x="650.65" y="366" class="value">186.32</text>
<text x="10" y="398" class="label">cdn.cloudflare.steamstatic.com</text>
<rect x="180" y="382" width="477.92" height="22" fill="#4c78a8" rx="3"/>
<text x="665.9200000000001" y="398" class="value">192.47</text>
<text x="10" y="430" class="label">ea.com</text>
<rect x="180" y="414" width="499.37" height="22" fill="#4c78a8" rx="3"/>
<text x="687.37" y="430" class="value">201.11</text>
<text x="10" y="462" class="label">easyanticheat.net</text>
<rect x="180" y="446" width="567.68" height="22" fill="#4c78a8" rx="3"/>
<text x="755.68" y="462" class="value">228.62</text>
<text x="10" y="494" class="label">unrealengine.com</text>
<rect x="180" y="478" width="580.0" height="22" fill="#4c78a8" rx="3"/>
<text x="768.0" y="494" class="value">233.58</text>
<line x1="180" y1="30" x2="180" y2="520" stroke="#ccc"/>
<line x1="180" y1="520" x2="760" y2="520" stroke="#ccc"/>
</svg>