<svg xmlns="http://www.w3.org/2000/svg" width="800" height="540">
<style> .label{font-family:DejaVu Sans,Verdana,Geneva,sans-serif;font-size:12px;fill:#333} .value{font-family:DejaVu Sans,Verdana,Geneva,sans-serif;font-size:12px;fill:#555} </style>
<text x="10" y="20" class="label">延迟柱状图（越低越好，Top 15），单位 ms</text>
<text x="10" y="46" class="label">rockstargames.com</text>
<rect x="180" y="30" width="267.94" height="22" fill="#4c78a8" rx="3"/>
<text x="455.94" y="46" class="value">84.98</text>
<text x="10" y="78" class="label">steamcdn-a.akamaihd.net</text>
<rect x="180" y="62" width="273.05" height="22" fill="#4c78a8" rx="3"/>
<text x="461.05" y="78" class="value">86.60</text>
<text x="10" y="110" class="label">eaassets-a.akamaihd.net</text>
<rect x="180" y="94" width="287.37" height="22" fill="#4c78a8" rx="3"/>
<text x="475.37" y="110" class="value">91.14</text>
<text x="10" y="142" class="label">store.akamai.steamstatic.com</text>
<rect x="180" y="126" width="352.73" height="22" fill="#4c78a8" rx="3"/>
<text x="540.73" y="142" class="value">111.87</text>
<text x="10" y="174" class="label">community.akamai.steamstatic.com</text>
<rect x="180" y="158" width="379.37" height="22" fill="#4c78a8" rx="3"/>
<text x="567.37" y="174" class="value">120.32</text>
<text x="10" y="206" class="label">socialclub.rockstargames.com</text>
<rect x="180" y="190" width="424.81" height="22" fill="#4c78a8" rx="3"/>
<text x="612.81" y="206" class="value">134.73</text>
<text x="10" y="238" class="label">ubi.com</text>
<rect x="180" y="222" width="438.87" height="22" fill="#4c78a8" rx="3"/>
<text x="626.87" y="238" class="value">139.19</text>
<text x="10" y="270" class="label">ubisoft.com</text>
<rect x="180" y="254" width="476.36" height="22" fill="#4c78a8" rx="3"/>
<text x="664.36" y="270" class="value">151.08</text>
<text x="10" y="302" class="label">blizzard.com</text>
<rect x="180" y="286" width="498.05" height="22" fill="#4c78a8" rx="3"/>
<text x="686.05" y="302" class="value">157.96</text>
<text x="10" y="334" class="label">origin.com</text>
<rect x="180" y="318" width="498.68" height="22" fill="#4c78a8" rx="3"/>
<text x="686.6800000000001" y="334" class="value">158.16</text>
<text x="10" y="366" class="label">launcher-public-service-prod06.ol.epicgames.com</text>
<rect x="180" y="350" width="519.02" height="22" fill="#4c78a8" rx="3"/>
<text x="707.02" y="366" class="value">164.61</text>
<text x="10" y="398" class="label">ea.com</text>
<rect x="180" y="382" width="521.35" height="22" fill="#4c78a8" rx="3"/>
<text x="709.35" y="398" class="value">165.35</text>
<text x="10" y="430" class="label">easyanticheat.net</text>
<rect x="180" y="414" width="525.89" height="22" fill="#4c78a8" rx="3"/>
<text x="713.89" y="430" class="value">166.79</text>
<text x="10" y="462" class="label">battle.net</text>
<rect x="180" y="446" width="547.71" height="22" fill="#4c78a8" rx="3"/>
<text x="735.71" y="462" class="value">173.71</text>
<text x="10" y="494" class="label">cdn.cloudflare.steamstatic.com</text>
<rect x="180" y="478" width="580.0" height="22" fill="#4c78a8" rx="3"/>
<text x="768.0" y="494" class="value">183.95</text>
<line x1="180" y1="30" x2="180" y2="520" stroke="#ccc"/>
<line x1="180" y1="520" x2="760" y2="520" stroke="#ccc"/>
</svg>