<svg xmlns="http://www.w3.org/2000/svg" width="800" height="540">
<style> .label{font-family:DejaVu Sans,Verdana,Geneva,sans-serif;font-size:12px;fill:#333} .value{font-family:DejaVu Sans,Verdana,Geneva,sans-serif;font-size:12px;fill:#555} </style>
<text x="10" y="20" class="label">延迟柱状图（越低越好，Top 15），单位 ms</text>
<text x="10" y="46" class="label">rockstargames.com</text>
<rect x="180" y="30" width="186.93" height="22" fill="#4c78a8" rx="3"/>
<text x="374.93" y="46" class="value">62.40</text>
<text x="10" y="78" class="label">battle.net</text>
<rect x="180" y="62" width="241.57" height="22" fill="#4c78a8" rx="3"/>
<text x="429.57" y="78" class="value">80.64</text>
<text x="10" y="110" class="label">blizzard.com</text>
<rect x="180" y="94" width="270.42" height="22" fill="#4c78a8" rx="3"/>
<text x="458.42" y="110" class="value">90.27</text>
<text x="10" y="142" class="label">socialclub.rockstargames.com</text>
<rect x="180" y="126" width="289.21" height="22" fill="#4c78a8" rx="3"/>
<text x="477.21" y="142" class="value">96.54</text>
<text x="10" y="174" class="label">ubi.com</text>
<rect x="180" y="158" width="385.55" height="22" fill="#4c78a8" rx="3"/>
<text x="573.55" y="174" class="value">128.70</text>
<text x="10" y="206" class="label">ubisoft.com</text>
<rect x="180" y="190" width="419.85" height="22" fill="#4c78a8" rx="3"/>
<text x="607.85" y="206" class="value">140.15</text>
<text x="10" y="238" class="label">store.akamai.steamstatic.com</text>
<rect x="180" y="222" width="426.86" height="22" fill="#4c78a8" rx="3"/>
<text x="614.86" y="238" class="value">142.49</text>
<text x="10" y="270" class="label">cdn.akamai.steamstatic.com</text>
<rect x="180" y="254" width="445.28" height="22" fill="#4c78a8" rx="3"/>
<text x="633.28" y="270" class="value">148.64</text>
<text x="10" y="302" class="label">ea.com</text>
<rect x="180" y="286" width="475.9" height="22" fill="#4c78a8" rx="3"/>
<text x="663.9" y="302" class="value">158.86</text>
<text x="10" y="334" class="label">easyanticheat.net</text>
<rect x="180" y="318" width="476.11" height="22" fill="#4c78a8" rx="3"/>
<text x="664.11" y="334" class="value">158.93</text>
<text x="10" y="366" class="label">fortnite.com</text>
<rect x="180" y="350" width="480.72" height="22" fill="#4c78a8" rx="3"/>
<text x="668.72" y="366" class="value">160.47</text>
<text x="10" y="398" class="label">epicgames.com</text>
<rect x="180" y="382" width="488.51" height="22" fill="#4c78a8" rx="3"/>
<text x="676.51" y="398" class="value">163.07</text>
<text x="10" y="430" class="label">www.steamcommunity.com</text>
<rect x="180" y="414" width="543.21" height="22" fill="#4c78a8" rx="3"/>
<text x="731.21" y="430" class="value">181.33</text>
<text x="10" y="462" class="label">origin.com</text>
<rect x="180" y="446" width="545.61" height="22" fill="#4c78a8" rx="3"/>
<text x="733.61" y="462" class="value">182.13</text>
<text x="10" y="494" class="label">unrealengine.com</text>
<rect x="180" y="478" width="580.0" height="22" fill="#4c78a8" rx="3"/>
<text x="768.0" y="494" class="value">193.61</text>
<line x1="180" y1="30" x2="180" y2="520" stroke="#ccc"/>
<line x1="180" y1="520" x2="760" y2="520" stroke="#ccc"/>
</svg>