<svg xmlns="http://www.w3.org/2000/svg" width="800" height="540">
<style> .label{font-family:DejaVu Sans,Verdana,Geneva,sans-serif;font-size:12px;fill:#333} .value{font-family:DejaVu Sans,Verdana,Geneva,sans-serif;font-size:12px;fill:#555} </style>
<text x="10" y="20" class="label">延迟柱状图（越低越好，Top 15），单位 ms</text>
<text x="10" y="46" class="label">ubisoft.com</text>
<rect x="180" y="30" width="264.82" height="22" fill="#4c78a8" rx="3"/>
<text x="452.82" y="46" class="value">105.95</text>
<text x="10" y="78" class="label">ea.com</text>
<rect x="180" y="62" width="284.29" height="22" fill="#4c78a8" rx="3"/>
<text x="472.29" y="78" class="value">113.74</text>
<text x="10" y="110" class="label">steamcdn-a.akamaihd.net</text>
<rect x="180" y="94" width="308.41" height="22" fill="#4c78a8" rx="3"/>
<text x="496.41" y="110" class="value">123.39</text>
<text x="10" y="142" class="label">rockstargames.com</text>
<rect x="180" y="126" width="308.56" height="22" fill="#4c78a8" rx="3"/>
<text x="496.56" y="142" class="value">123.45</text>
<text x="10" y="174" class="label">eaassets-a.akamaihd.net</text>
<rect x="180" y="158" width="330.13" height="22" fill="#4c78a8" rx="3"/>
<text x="518.13" y="174" class="value">132.08</text>
<text x="10" y="206" class="label">community.akamai.steamstatic.com</text>
<rect x="180" y="190" width="347.2" height="22" fill="#4c78a8" rx="3"/>
<text x="535.2" y="206" class="value">138.91</text>
<text x="10" y="238" class="label">store.akamai.steamstatic.com</text>
<rect x="180" y="222" width="349.22" height="22" fill="#4c78a8" rx="3"/>
<text x="537.22" y="238" class="value">139.72</text>
<text x="10" y="270" class="label">cdn.cloudflare.steamstatic.com</text>
<rect x="180" y="254" width="387.17" height="22" fill="#4c78a8" rx="3"/>
<text x="575.1700000000001" y="270" class="value">154.90</text>
<text x="10" y="302" class="label">origin.com</text>
<rect x="180" y="286" width="394.89" height="22" fill="#4c78a8" rx="3"/>
<text x="582.89" y="302" class="value">157.99</text>
<text x="10" y="334" class="label">steam-chat.com</text>
<rect x="180" y="318" width="458.73" height="22" fill="#4c78a8" rx="3"/>
<text x="646.73" y="334" class="value">183.53</text>
<text x="10" y="366" class="label">easyanticheat.net</text>
<rect x="180" y="350" width="473.97" height="22" fill="#4c78a8" rx="3"/>
<text x="661.97" y="366" class="value">189.63</text>
<text x="10" y="398" class="label">api.steampowered.com</text>
<rect x="180" y="382" width="495.69" height="22" fill="#4c78a8" rx="3"/>
<text x="683.69" y="398" class="value">198.32</text>
<text x="10" y="430" class="label">cdn.akamai.steamstatic.com</text>
<rect x="180" y="414" width="521.14" height="22" fill="#4c78a8" rx="3"/>
<text x="709.14" y="430" class="value">208.50</text>
<text x="10" y="462" class="label">launcher-public-service-prod06.ol.epicgames.com</text>
<rect x="180" y="446" width="561.5" height="22" fill="#4c78a8" rx="3"/>
<text x="749.5" y="462" class="value">224.65</text>
<text x="10" y="494" class="label">www.steamcommunity.com</text>
<rect x="180" y="478" width="580.0" height="22" fill="#4c78a8" rx="3"/>
<text x="768.0" y="494" class="value">232.05</text>
<line x1="180" y1="30" x2="180" y2="520" stroke="#ccc"/>
<line x1="180" y1="520" x2="760" y2="520" stroke="#ccc"/>
</svg>