<svg xmlns="http://www.w3.org/2000/svg" width="800" height="540">
<style> .label{font-family:DejaVu Sans,Verdana,Geneva,sans-serif;font-size:12px;fill:#333} .value{font-family:DejaVu Sans,Verdana,Geneva,sans-serif;font-size:12px;fill:#555} </style>
<text x="10" y="20" class="label">延迟柱状图（越低越好，Top 15），单位 ms</text>
<text x="10" y="46" class="label">ea.com</text>
<rect x="180" y="30" width="275.95" height="22" fill="#4c78a8" rx="3"/>
<text x="463.95" y="46" class="value">134.13</text>
<text x="10" y="78" class="label">ubisoft.com</text>
<rect x="180" y="62" width="281.63" height="22" fill="#4c78a8" rx="3"/>
<text x="469.63" y="78" class="value">136.89</text>
<text x="10" y="110" class="label">community.akamai.steamstatic.com</text>
<rect x="180" y="94" width="297.24" height="22" fill="#4c78a8" rx="3"/>
<text x="485.24" y="110" class="value">144.48</text>
<text x="10" y="142" class="label">eaassets-a.akamaihd.net</text>
<rect x="180" y="126" width="309.3" height="22" fill="#4c78a8" rx="3"/>
<text x="497.3" y="142" class="value">150.34</text>
<text x="10" y="174" class="label">cdn.cloudflare.steamstatic.com</text>
<rect x="180" y="158" width="311.73" height="22" fill="#4c78a8" rx="3"/>
<text x="499.73" y="174" class="value">151.52</text>
<text x="10" y="206" class="label">rockstargames.com</text>
<rect x="180" y="190" width="366.92" height="22" fill="#4c78a8" rx="3"/>
<text x="554.9200000000001" y="206" class="value">178.35</text>
<text x="10" y="238" class="label">ubi.com</text>
<rect x="180" y="222" width="414.94" height="22" fill="#4c78a8" rx="3"/>
<text x="602.94" y="238" class="value">201.69</text>
<text x="10" y="270" class="label">www.steamcommunity.com</text>
<rect x="180" y="254" width="418.32" height="22" fill="#4c78a8" rx="3"/>
<text x="606.3199999999999" y="270" class="value">203.33</text>
<text x="10" y="302" class="label">battle.net</text>
<rect x="180" y="286" width="444.85" height="22" fill="#4c78a8" rx="3"/>
<text x="632.85" y="302" class="value">216.23</text>
<text x="10" y="334" class="label">blizzard.com</text>
<rect x="180" y="318" width="497.38" height="22" fill="#4c78a8" rx="3"/>
<text x="685.38" y="334" class="value">241.76</text>
<text x="10" y="366" class="label">steam-chat.com</text>
<rect x="180" y="350" width="518.94" height="22" fill="#4c78a8" rx="3"/>
<text x="706.94" y="366" class="value">252.24</text>
<text x="10" y="398" class="label">origin.com</text>
<rect x="180" y="382" width="551.96" height="22" fill="#4c78a8" rx="3"/>
<text x="739.96" y="398" class="value">268.29</text>
<text x="10" y="430" class="label">store.akamai.steamstatic.com</text>
<rect x="180" y="414" width="557.66" height="22" fill="#4c78a8" rx="3"/>
<text x="745.66" y="430" class="value">271.06</text>
<text x="10" y="462" class="label">steamcdn-a.akamaihd.net</text>
<rect x="180" y="446" width="566.05" height="22" fill="#4c78a8" rx="3"/>
<text x="754.05" y="462" class="value">275.14</text>
<text x="10" y="494" class="label">socialclub.rockstargames.com</text>
<rect x="180" y="478" width="580.0" height="22" fill="#4c78a8" rx="3"/>
<text x="768.0" y="494" class="value">281.92</text>
<line x1="180" y1="30" x2="180" y2="520" stroke="#ccc"/>
<line x1="180" y1="520" x2="760" y2="520" stroke="#ccc"/>
</svg>