<svg xmlns="http://www.w3.org/2000/svg" width="800" height="540">
<style> .label{font-family:DejaVu Sans,Verdana,Geneva,sans-serif;font-size:12px;fill:#333} .value{font-family:DejaVu Sans,Verdana,Geneva,sans-serif;font-size:12px;fill:#555} </style>
<text x="10" y="20" class="label">延迟柱状图（越低越好，Top 15），单位 ms</text>
<text x="10" y="46" class="label">eaassets-a.akamaihd.net</text>
<rect x="180" y="30" width="189.13" height="22" fill="#4c78a8" rx="3"/>
<text x="377.13" y="46" class="value">71.30</text>
<text x="10" y="78" class="label">rockstargames.com</text>
<rect x="180" y="62" width="201.1" height="22" fill="#4c78a8" rx="3"/>
<text x="389.1" y="78" class="value">75.81</text>
<text x="10" y="110" class="label">socialclub.rockstargames.com</text>
<rect x="180" y="94" width="212.69" height="22" fill="#4c78a8" rx="3"/>
<text x="400.69" y="110" class="value">80.18</text>
<text x="10" y="142" class="label">ubi.com</text>
<rect x="180" y="126" width="230.38" height="22" fill="#4c78a8" rx="3"/>
<text x="418.38" y="142" class="value">86.85</text>
<text x="10" y="174" class="label">ea.com</text>
<rect x="180" y="158" width="249.19" height="22" fill="#4c78a8" rx="3"/>
<text x="437.19" y="174" class="value">93.94</text>
<text x="10" y="206" class="label">steamcdn-a.akamaihd.net</text>
<rect x="180" y="190" width="251.18" height="22" fill="#4c78a8" rx="3"/>
<text x="439.18" y="206" class="value">94.69</text>
<text x="10" y="238" class="label">blizzard.com</text>
<rect x="180" y="222" width="281.21" height="22" fill="#4c78a8" rx="3"/>
<text x="469.21" y="238" class="value">106.01</text>
<text x="10" y="270" class="label">battle.net</text>
<rect x="180" y="254" width="338.45" height="22" fill="#4c78a8" rx="3"/>
<text x="526.45" y="270" class="value">127.59</text>
<text x="10" y="302" class="label">epicgames.com</text>
<rect x="180" y="286" width="390.84" height="22" fill="#4c78a8" rx="3"/>
<text x="578.8399999999999" y="302" class="value">147.34</text>
<text x="10" y="334" class="label">community.akamai.steamstatic.com</text>
<rect x="180" y="318" width="410.87" height="22" fill="#4c78a8" rx="3"/>
<text x="598.87" y="334" class="value">154.89</text>
<text x="10" y="366" class="label">cdn.akamai.steamstatic.com</text>
<rect x="180" y="350" width="418.8" height="22" fill="#4c78a8" rx="3"/>
<text x="606.8" y="366" class="value">157.88</text>
<text x="10" y="398" class="label">origin.com</text>
<rect x="180" y="382" width="470.31" height="22" fill="#4c78a8" rx="3"/>
<text x="658.31" y="398" class="value">177.30</text>
<text x="10" y="430" class="label">unrealengine.com</text>
<rect x="180" y="414" width="524.75" height="22" fill="#4c78a8" rx="3"/>
<text x="712.75" y="430" class="value">197.82</text>
<text x="10" y="462" class="label">static3.cdn.ubi.com</text>
<rect x="180" y="446" width="566.95" height="22" fill="#4c78a8" rx="3"/>
<text x="754.95" y="462" class="value">213.73</text>
<text x="10" y="494" class="label">fortnite.com</text>
<rect x="180" y="478" width="580.0" height="22" fill="#4c78a8" rx="3"/>
<text x="768.0" y="494" class="value">218.65</text>
<line x1="180" y1="30" x2="180" y2="520" stroke="#ccc"/>
<line x1="180" y1="520" x2="760" y2="520" stroke="#ccc"/>
</svg>