<svg xmlns="http://www.w3.org/2000/svg" width="800" height="540">
<style> .label{font-family:DejaVu Sans,Verdana,Geneva,sans-serif;font-size:12px;fill:#333} .value{font-family:DejaVu Sans,Verdana,Geneva,sans-serif;font-size:12px;fill:#555} </style>
<text x="10" y="20" class="label">延迟柱状图（越低越好，Top 15），单位 ms</text>
<text x="10" y="46" class="label">rockstargames.com</text>
<rect x="180" y="30" width="183.48" height="22" fill="#4c78a8" rx="3"/>
<text x="371.48" y="46" class="value">55.85</text>
<text x="10" y="78" class="label">socialclub.rockstargames.com</text>
<rect x="180" y="62" width="273.16" height="22" fill="#4c78a8" rx="3"/>
<text x="461.16" y="78" class="value">83.15</text>
<text x="10" y="110" class="label">epicgames.com</text>
<rect x="180" y="94" width="314.66" height="22" fill="#4c78a8" rx="3"/>
<text x="502.66" y="110" class="value">95.78</text>
<text x="10" y="142" class="label">blizzard.com</text>
<rect x="180" y="126" width="344.35" height="22" fill="#4c78a8" rx="3"/>
<text x="532.35" y="142" class="value">104.82</text>
<text x="10" y="174" class="label">battle.net</text>
<rect x="180" y="158" width="353.95" height="22" fill="#4c78a8" rx="3"/>
<text x="541.95" y="174" class="value">107.74</text>
<text x="10" y="206" class="label">eaassets-a.akamaihd.net</text>
<rect x="180" y="190" width="403.82" height="22" fill="#4c78a8" rx="3"/>
<text x="591.8199999999999" y="206" class="value">122.92</text>
<text x="10" y="238" class="label">store.akamai.steamstatic.com</text>
<rect x="180" y="222" width="419.35" height="22" fill="#4c78a8" rx="3"/>
<text x="607.35" y="238" class="value">127.65</text>
<text x="10" y="270" class="label">cdn.cloudflare.steamstatic.com</text>
<rect x="180" y="254" width="432.69" height="22" fill="#4c78a8" rx="3"/>
<text x="620.69" y="270" class="value">131.71</text>
<text x="10" y="302" class="label">ubi.com</text>
<rect x="180" y="286" width="449.41" height="22" fill="#4c78a8" rx="3"/>
<text x="637.4100000000001" y="302" class="value">136.80</text>
<text x="10" y="334" class="label">ubisoft.com</text>
<rect x="180" y="318" width="455.0" height="22" fill="#4c78a8" rx="3"/>
<text x="643.0" y="334" class="value">138.50</text>
<text x="10" y="366" class="label">fortnite.com</text>
<rect x="180" y="350" width="490.71" height="22" fill="#4c78a8" rx="3"/>
<text x="678.71" y="366" class="value">149.37</text>
<text x="10" y="398" class="label">community.akamai.steamstatic.com</text>
<rect x="180" y="382" width="514.76" height="22" fill="#4c78a8" rx="3"/>
<text x="702.76" y="398" class="value">156.69</text>
<text x="10" y="430" class="label">origin.com</text>
<rect x="180" y="414" width="550.6" height="22" fill="#4c78a8" rx="3"/>
<text x="738.6" y="430" class="value">167.60</text>
<text x="10" y="462" class="label">cdn.akamai.steamstatic.com</text>
<rect x="180" y="446" width="569.78" height="22" fill="#4c78a8" rx="3"/>
<text x="757.78" y="462" class="value">173.44</text>
<text x="10" y="494" class="label">ea.com</text>
<rect x="180" y="478" width="580.0" height="22" fill="#4c78a8" rx="3"/>
<text x="768.0" y="494" class="value">176.55</text>
<line x1="180" y1="30" x2="180" y2="520" stroke="#ccc"/>
<line x1="180" y1="520" x2="760" y2="520" stroke="#ccc"/>
</svg>