<svg xmlns="http://www.w3.org/2000/svg" width="800" height="540">
<style> .label{font-family:DejaVu Sans,Verdana,Geneva,sans-serif;font-size:12px;fill:#333} .value{font-family:DejaVu Sans,Verdana,Geneva,sans-serif;font-size:12px;fill:#555} </style>
<text x="10" y="20" class="label">延迟柱状图（越低越好，Top 15），单位 ms</text>
<text x="10" y="46" class="label">eaassets-a.akamaihd.net</text>
<rect x="180" y="30" width="215.77" height="22" fill="#4c78a8" rx="3"/>
<text x="403.77" y="46" class="value">98.30</text>
<text x="10" y="78" class="label">ea.com</text>
<rect x="180" y="62" width="238.04" height="22" fill="#4c78a8" rx="3"/>
<text x="426.03999999999996" y="78" class="value">108.45</text>
<text x="10" y="110" class="label">rockstargames.com</text>
<rect x="180" y="94" width="249.57" height="22" fill="#4c78a8" rx="3"/>
<text x="437.57" y="110" class="value">113.70</text>
<text x="10" y="142" class="label">socialclub.rockstargames.com</text>
<rect x="180" y="126" width="325.78" height="22" fill="#4c78a8" rx="3"/>
<text x="513.78" y="142" class="value">148.42</text>
<text x="10" y="174" class="label">ubi.com</text>
<rect x="180" y="158" width="364.41" height="22" fill="#4c78a8" rx="3"/>
<text x="552.4100000000001" y="174" class="value">166.02</text>
<text x="10" y="206" class="label">ubisoft.com</text>
<rect x="180" y="190" width="389.67" height="22" fill="#4c78a8" rx="3"/>
<text x="577.6700000000001" y="206" class="value">177.53</text>
<text x="10" y="238" class="label">blizzard.com</text>
<rect x="180" y="222" width="433.7" height="22" fill="#4c78a8" rx="3"/>
<text x="621.7" y="238" class="value">197.59</text>
<text x="10" y="270" class="label">steamcdn-a.akamaihd.net</text>
<rect x="180" y="254" width="460.55" height="22" fill="#4c78a8" rx="3"/>
<text x="648.55" y="270" class="value">209.82</text>
<text x="10" y="302" class="label">origin.com</text>
<rect x="180" y="286" width="482.85" height="22" fill="#4c78a8" rx="3"/>
<text x="670.85" y="302" class="value">219.98</text>
<text x="10" y="334" class="label">cdn.cloudflare.steamstatic.com</text>
<rect x="180" y="318" width="489.02" height="22" fill="#4c78a8" rx="3"/>
<text x="677.02" y="334" class="value">222.79</text>
<text x="10" y="366" class="label">battle.net</text>
<rect x="180" y="350" width="519.35" height="22" fill="#4c78a8" rx="3"/>
<text x="707.35" y="366" class="value">236.61</text>
<text x="10" y="398" class="label">cdn.akamai.steamstatic.com</text>
<rect x="180" y="382" width="527.78" height="22" fill="#4c78a8" rx="3"/>
<text x="715.78" y="398" class="value">240.45</text>
<text x="10" y="430" class="label">community.akamai.steamstatic.com</text>
<rect x="180" y="414" width="551.75" height="22" fill="#4c78a8" rx="3"/>
<text x="739.75" y="430" class="value">251.37</text>
<text x="10" y="462" class="label">static3.cdn.ubi.com</text>
<rect x="180" y="446" width="573.0" height="22" fill="#4c78a8" rx="3"/>
<text x="761.0" y="462" class="value">261.05</text>
<text x="10" y="494" class="label">fortnite.com</text>
<rect x="180" y="478" width="580.0" height="22" fill="#4c78a8" rx="3"/>
<text x="768.0" y="494" class="value">264.24</text>
<line x1="180" y1="30" x2="180" y2="520" stroke="#ccc"/>
<line x1="180" y1="520" x2="760" y2="520" stroke="#ccc"/>
</svg>