<svg xmlns="http://www.w3.org/2000/svg" width="800" height="540">
<style> .label{font-family:DejaVu Sans,Verdana,Geneva,sans-serif;font-size:12px;fill:#333} .value{font-family:DejaVu Sans,Verdana,Geneva,sans-serif;font-size:12px;fill:#555} </style>
<text x="10" y="20" class="label">延迟柱状图（越低越好，Top 15），单位 ms</text>
<text x="10" y="46" class="label">rockstargames.com</text>
<rect x="180" y="30" width="121.86" height="22" fill="#4c78a8" rx="3"/>
<text x="309.86" y="46" class="value">42.44</text>
<text x="10" y="78" class="label">eaassets-a.akamaihd.net</text>
<rect x="180" y="62" width="219.05" height="22" fill="#4c78a8" rx="3"/>
<text x="407.05" y="78" class="value">76.29</text>
<text x="10" y="110" class="label">ea.com</text>
<rect x="180" y="94" width="283.14" height="22" fill="#4c78a8" rx="3"/>
<text x="471.14" y="110" class="value">98.61</text>
<text x="10" y="142" class="label">ubisoft.com</text>
<rect x="180" y="126" width="368.67" height="22" fill="#4c78a8" rx="3"/>
<text x="556.6700000000001" y="142" class="value">128.40</text>
<text x="10" y="174" class="label">ubi.com</text>
<rect x="180" y="158" width="388.11" height="22" fill="#4c78a8" rx="3"/>
<text x="576.11" y="174" class="value">135.17</text>
<text x="10" y="206" class="label">battle.net</text>
<rect x="180" y="190" width="388.11" height="22" fill="#4c78a8" rx="3"/>
<text x="576.11" y="206" class="value">135.17</text>
<text x="10" y="238" class="label">socialclub.rockstargames.com</text>
<rect x="180" y="222" width="392.19" height="22" fill="#4c78a8" rx="3"/>
<text x="580.19" y="238" class="value">136.59</text>
<text x="10" y="270" class="label">easyanticheat.net</text>
<rect x="180" y="254" width="444.85" height="22" fill="#4c78a8" rx="3"/>
<text x="632.85" y="270" class="value">154.93</text>
<text x="10" y="302" class="label">blizzard.com</text>
<rect x="180" y="286" width="465.64" height="22" fill="#4c78a8" rx="3"/>
<text x="653.64" y="302" class="value">162.17</text>
<text x="10" y="334" class="label">launcher-public-service-prod06.ol.epicgames.com</text>
<rect x="180" y="318" width="511.32" height="22" fill="#4c78a8" rx="3"/>
<text x="699.3199999999999" y="334" class="value">178.08</text>
<text x="10" y="366" class="label">community.akamai.steamstatic.com</text>
<rect x="180" y="350" width="516.69" height="22" fill="#4c78a8" rx="3"/>
<text x="704.69" y="366" class="value">179.95</text>
<text x="10" y="398" class="label">api.steampowered.com</text>
<rect x="180" y="382" width="528.58" height="22" fill="#4c78a8" rx="3"/>
<text x="716.58" y="398" class="value">184.09</text>
<text x="10" y="430" class="label">store.akamai.steamstatic.com</text>
<rect x="180" y="414" width="542.7" height="22" fill="#4c78a8" rx="3"/>
<text x="730.7" y="430" class="value">189.01</text>
<text x="10" y="462" class="label">origin.com</text>
<rect x="180" y="446" width="558.44" height="22" fill="#4c78a8" rx="3"/>
<text x="746.44" y="462" class="value">194.49</text>
<text x="10" y="494" class="label">steamcdn-a.akamaihd.net</text>
<rect x="180" y="478" width="580.0" height="22" fill="#4c78a8" rx="3"/>
<text x="768.0" y="494" class="value">202.00</text>
<line x1="180" y1="30" x2="180" y2="520" stroke="#ccc"/>
<line x1="180" y1="520" x2="760" y2="520" stroke="#ccc"/>
</svg>