<svg xmlns="http://www.w3.org/2000/svg" width="800" height="540">
<style> .label{font-family:DejaVu Sans,Verdana,Geneva,sans-serif;font-size:12px;fill:#333} .value{font-family:DejaVu Sans,Verdana,Geneva,sans-serif;font-size:12px;fill:#555} </style>
<text x="10" y="20" class="label">延迟柱状图（越低越好，Top 15），单位 ms</text>
<text x="10" y="46" class="label">community.akamai.steamstatic.com</text>
<rect x="180" y="30" width="191.97" height="22" fill="#4c78a8" rx="3"/>
<text x="379.97" y="46" class="value">105.01</text>
<text x="10" y="78" class="label">store.akamai.steamstatic.com</text>
<rect x="180" y="62" width="200.91" height="22" fill="#4c78a8" rx="3"/>
<text x="388.90999999999997" y="78" class="value">109.90</text>
<text x="10" y="110" class="label">rockstargames.com</text>
<rect x="180" y="94" width="221.6" height="22" fill="#4c78a8" rx="3"/>
<text x="409.6" y="110" class="value">121.22</text>
<text x="10" y="142" class="label">ubisoft.com</text>
<rect x="180" y="126" width="252.53" height="22" fill="#4c78a8" rx="3"/>
<text x="440.53" y="142" class="value">138.14</text>
<text x="10" y="174" class="label">eaassets-a.akamaihd.net</text>
<rect x="180" y="158" width="253.34" height="22" fill="#4c78a8" rx="3"/>
<text x="441.34000000000003" y="174" class="value">138.58</text>
<text x="10" y="206" class="label">easyanticheat.net</text>
<rect x="180" y="190" width="297.32" height="22" fill="#4c78a8" rx="3"/>
<text x="485.32" y="206" class="value">162.64</text>
<text x="10" y="238" class="label">ea.com</text>
<rect x="180" y="222" width="368.14" height="22" fill="#4c78a8" rx="3"/>
<text x="556.14" y="238" class="value">201.38</text>
<text x="10" y="270" class="label">ubi.com</text>
<rect x="180" y="254" width="433.84" height="22" fill="#4c78a8" rx="3"/>
<text x="621.8399999999999" y="270" class="value">237.32</text>
<text x="10" y="302" class="label">blizzard.com</text>
<rect x="180" y="286" width="439.35" height="22" fill="#4c78a8" rx="3"/>
<text x="627.35" y="302" class="value">240.33</text>
<text x="10" y="334" class="label">battle.net</text>
<rect x="180" y="318" width="443.79" height="22" fill="#4c78a8" rx="3"/>
<text x="631.79" y="334" class="value">242.76</text>
<text x="10" y="366" class="label">www.steamcommunity.com</text>
<rect x="180" y="350" width="467.15" height="22" fill="#4c78a8" rx="3"/>
<text x="655.15" y="366" class="value">255.54</text>
<text x="10" y="398" class="label">socialclub.rockstargames.com</text>
<rect x="180" y="382" width="492.54" height="22" fill="#4c78a8" rx="3"/>
<text x="680.54" y="398" class="value">269.43</text>
<text x="10" y="430" class="label">launcher-public-service-prod06.ol.epicgames.com</text>
<rect x="180" y="414" width="550.35" height="22" fill="#4c78a8" rx="3"/>
<text x="738.35" y="430" class="value">301.05</text>
<text x="10" y="462" class="label">steamcommunity.com</text>
<rect x="180" y="446" width="553.62" height="22" fill="#4c78a8" rx="3"/>
<text x="741.62" y="462" class="value">302.84</text>
<text x="10" y="494" class="label">cdn.akamai.steamstatic.com</text>
<rect x="180" y="478" width="580.0" height="22" fill="#4c78a8" rx="3"/>
<text x="768.0" y="494" class="value">317.27</text>
<line x1="180" y1="30" x2="180" y2="520" stroke="#ccc"/>
<line x1="180" y1="520" x2="760" y2="520" stroke="#ccc"/>
</svg>