<svg xmlns="http://www.w3.org/2000/svg" width="800" height="540">
<style> .label{font-family:DejaVu Sans,Verdana,Geneva,sans-serif;font-size:12px;fill:#333} .value{font-family:DejaVu Sans,Verdana,Geneva,sans-serif;font-size:12px;fill:#555} </style>
<text x="10" y="20" class="label">延迟柱状图（越低越好，Top 15），单位 ms</text>
<text x="10" y="46" class="label">store.akamai.steamstatic.com</text>
<rect x="180" y="30" width="212.98" height="22" fill="#4c78a8" rx="3"/>
<text x="400.98" y="46" class="value">78.56</text>
<text x="10" y="78" class="label">ea.com</text>
<rect x="180" y="62" width="226.15" height="22" fill="#4c78a8" rx="3"/>
<text x="414.15" y="78" class="value">83.42</text>
<text x="10" y="110" class="label">eaassets-a.akamaihd.net</text>
<rect x="180" y="94" width="231.79" height="22" fill="#4c78a8" rx="3"/>
<text x="419.78999999999996" y="110" class="value">85.50</text>
<text x="10" y="142" class="label">origin.com</text>
<rect x="180" y="126" width="278.8" height="22" fill="#4c78a8" rx="3"/>
<text x="466.8" y="142" class="value">102.84</text>
<text x="10" y="174" class="label">rockstargames.com</text>
<rect x="180" y="158" width="282.27" height="22" fill="#4c78a8" rx="3"/>
<text x="470.27" y="174" class="value">104.12</text>
<text x="10" y="206" class="label">socialclub.rockstargames.com</text>
<rect x="180" y="190" width="370.11" height="22" fill="#4c78a8" rx="3"/>
<text x="558.11" y="206" class="value">136.52</text>
<text x="10" y="238" class="label">cdn.akamai.steamstatic.com</text>
<rect x="180" y="222" width="392.83" height="22" fill="#4c78a8" rx="3"/>
<text x="580.8299999999999" y="238" class="value">144.90</text>
<text x="10" y="270" class="label">easyanticheat.net</text>
<rect x="180" y="254" width="397.17" height="22" fill="#4c78a8" rx="3"/>
<text x="585.1700000000001" y="270" class="value">146.50</text>
<text x="10" y="302" class="label">blizzard.com</text>
<rect x="180" y="286" width="402.51" height="22" fill="#4c78a8" rx="3"/>
<text x="590.51" y="302" class="value">148.47</text>
<text x="10" y="334" class="label">ubisoft.com</text>
<rect x="180" y="318" width="402.62" height="22" fill="#4c78a8" rx="3"/>
<text x="590.62" y="334" class="value">148.51</text>
<text x="10" y="366" class="label">ubi.com</text>
<rect x="180" y="350" width="424.33" height="22" fill="#4c78a8" rx="3"/>
<text x="612.3299999999999" y="366" class="value">156.52</text>
<text x="10" y="398" class="label">battle.net</text>
<rect x="180" y="382" width="429.48" height="22" fill="#4c78a8" rx="3"/>
<text x="617.48" y="398" class="value">158.42</text>
<text x="10" y="430" class="label">community.akamai.steamstatic.com</text>
<rect x="180" y="414" width="487.93" height="22" fill="#4c78a8" rx="3"/>
<text x="675.9300000000001" y="430" class="value">179.98</text>
<text x="10" y="462" class="label">gog.com</text>
<rect x="180" y="446" width="499.02" height="22" fill="#4c78a8" rx="3"/>
<text x="687.02" y="462" class="value">184.07</text>
<text x="10" y="494" class="label">steamcdn-a.akamaihd.net</text>
<rect x="180" y="478" width="580.0" height="22" fill="#4c78a8" rx="3"/>
<text x="768.0" y="494" class="value">213.94</text>
<line x1="180" y1="30" x2="180" y2="520" stroke="#ccc"/>
<line x1="180" y1="520" x2="760" y2="520" stroke="#ccc"/>
</svg>