<svg xmlns="http://www.w3.org/2000/svg" width="800" height="540">
<style> .label{font-family:DejaVu Sans,Verdana,Geneva,sans-serif;font-size:12px;fill:#333} .value{font-family:DejaVu Sans,Verdana,Geneva,sans-serif;font-size:12px;fill:#555} </style>
<text x="10" y="20" class="label">延迟柱状图（越低越好，Top 15），单位 ms</text>
<text x="10" y="46" class="label">eaassets-a.akamaihd.net</text>
<rect x="180" y="30" width="220.53" height="22" fill="#4c78a8" rx="3"/>
<text x="408.53" y="46" class="value">71.79</text>
<text x="10" y="78" class="label">rockstargames.com</text>
<rect x="180" y="62" width="226.3" height="22" fill="#4c78a8" rx="3"/>
<text x="414.3" y="78" class="value">73.67</text>
<text x="10" y="110" class="label">blizzard.com</text>
<rect x="180" y="94" width="257.7" height="22" fill="#4c78a8" rx="3"/>
<text x="445.7" y="110" class="value">83.89</text>
<text x="10" y="142" class="label">socialclub.rockstargames.com</text>
<rect x="180" y="126" width="299.11" height="22" fill="#4c78a8" rx="3"/>
<text x="487.11" y="142" class="value">97.37</text>
<text x="10" y="174" class="label">battle.net</text>
<rect x="180" y="158" width="317.45" height="22" fill="#4c78a8" rx="3"/>
<text x="505.45" y="174" class="value">103.34</text>
<text x="10" y="206" class="label">ubi.com</text>
<rect x="180" y="190" width="347.8" height="22" fill="#4c78a8" rx="3"/>
<text x="535.8" y="206" class="value">113.22</text>
<text x="10" y="238" class="label">ea.com</text>
<rect x="180" y="222" width="365.71" height="22" fill="#4c78a8" rx="3"/>
<text x="553.71" y="238" class="value">119.05</text>
<text x="10" y="270" class="label">ubisoft.com</text>
<rect x="180" y="254" width="373.02" height="22" fill="#4c78a8" rx="3"/>
<text x="561.02" y="270" class="value">121.43</text>
<text x="10" y="302" class="label">cdn.akamai.steamstatic.com</text>
<rect x="180" y="286" width="488.55" height="22" fill="#4c78a8" rx="3"/>
<text x="676.55" y="302" class="value">159.04</text>
<text x="10" y="334" class="label">steamcdn-a.akamaihd.net</text>
<rect x="180" y="318" width="522.74" height="22" fill="#4c78a8" rx="3"/>
<text x="710.74" y="334" class="value">170.17</text>
<text x="10" y="366" class="label">static3.cdn.ubi.com</text>
<rect x="180" y="350" width="549.99" height="22" fill="#4c78a8" rx="3"/>
<text x="737.99" y="366" class="value">179.04</text>
<text x="10" y="398" class="label">fortnite.com</text>
<rect x="180" y="382" width="557.94" height="22" fill="#4c78a8" rx="3"/>
<text x="745.94" y="398" class="value">181.63</text>
<text x="10" y="430" class="label">community.akamai.steamstatic.com</text>
<rect x="180" y="414" width="564.43" height="22" fill="#4c78a8" rx="3"/>
<text x="752.43" y="430" class="value">183.74</text>
<text x="10" y="462" class="label">epicgames.com</text>
<rect x="180" y="446" width="571.64" height="22" fill="#4c78a8" rx="3"/>
<text x="759.64" y="462" class="value">186.09</text>
<text x="10" y="494" class="label">steam-chat.com</text>
<rect x="180" y="478" width="580.0" height="22" fill="#4c78a8" rx="3"/>
<text x="768.0" y="494" class="value">188.81</text>
<line x1="180" y1="30" x2="180" y2="520" stroke="#ccc"/>
<line x1="180" y1="520" x2="760" y2="520" stroke="#ccc"/>
</svg>