<svg xmlns="http://www.w3.org/2000/svg" width="800" height="540">
<style> .label{font-family:DejaVu Sans,Verdana,Geneva,sans-serif;font-size:12px;fill:#333} .value{font-family:DejaVu Sans,Verdana,Geneva,sans-serif;font-size:12px;fill:#555} </style>
<text x="10" y="20" class="label">延迟柱状图（越低越好，Top 15），单位 ms</text>
<text x="10" y="46" class="label">rockstargames.com</text>
<rect x="180" y="30" width="108.79" height="22" fill="#4c78a8" rx="3"/>
<text x="296.79" y="46" class="value">38.63</text>
<text x="10" y="78" class="label">socialclub.rockstargames.com</text>
<rect x="180" y="62" width="202.31" height="22" fill="#4c78a8" rx="3"/>
<text x="390.31" y="78" class="value">71.84</text>
<text x="10" y="110" class="label">eaassets-a.akamaihd.net</text>
<rect x="180" y="94" width="233.82" height="22" fill="#4c78a8" rx="3"/>
<text x="421.82" y="110" class="value">83.03</text>
<text x="10" y="142" class="label">battle.net</text>
<rect x="180" y="126" width="297.63" height="22" fill="#4c78a8" rx="3"/>
<text x="485.63" y="142" class="value">105.69</text>
<text x="10" y="174" class="label">blizzard.com</text>
<rect x="180" y="158" width="301.66" height="22" fill="#4c78a8" rx="3"/>
<text x="489.66" y="174" class="value">107.12</text>
<text x="10" y="206" class="label">fortnite.com</text>
<rect x="180" y="190" width="325.29" height="22" fill="#4c78a8" rx="3"/>
<text x="513.29" y="206" class="value">115.51</text>
<text x="10" y="238" class="label">epicgames.com</text>
<rect x="180" y="222" width="351.17" height="22" fill="#4c78a8" rx="3"/>
<text x="539.1700000000001" y="238" class="value">124.70</text>
<text x="10" y="270" class="label">ubi.com</text>
<rect x="180" y="254" width="394.84" height="22" fill="#4c78a8" rx="3"/>
<text x="582.8399999999999" y="270" class="value">140.21</text>
<text x="10" y="302" class="label">ea.com</text>
<rect x="180" y="286" width="417.15" height="22" fill="#4c78a8" rx="3"/>
<text x="605.15" y="302" class="value">148.13</text>
<text x="10" y="334" class="label">origin.com</text>
<rect x="180" y="318" width="471.27" height="22" fill="#4c78a8" rx="3"/>
<text x="659.27" y="334" class="value">167.35</text>
<text x="10" y="366" class="label">community.akamai.steamstatic.com</text>
<rect x="180" y="350" width="477.44" height="22" fill="#4c78a8" rx="3"/>
<text x="665.44" y="366" class="value">169.54</text>
<text x="10" y="398" class="label">ubisoft.com</text>
<rect x="180" y="382" width="480.42" height="22" fill="#4c78a8" rx="3"/>
<text x="668.4200000000001" y="398" class="value">170.60</text>
<text x="10" y="430" class="label">cdn.akamai.steamstatic.com</text>
<rect x="180" y="414" width="562.34" height="22" fill="#4c78a8" rx="3"/>
<text x="750.34" y="430" class="value">199.69</text>
<text x="10" y="462" class="label">store.akamai.steamstatic.com</text>
<rect x="180" y="446" width="576.09" height="22" fill="#4c78a8" rx="3"/>
<text x="764.09" y="462" class="value">204.57</text>
<text x="10" y="494" class="label">unrealengine.com</text>
<rect x="180" y="478" width="580.0" height="22" fill="#4c78a8" rx="3"/>
<text x="768.0" y="494" class="value">205.96</text>
<line x1="180" y1="30" x2="180" y2="520" stroke="#ccc"/>
<line x1="180" y1="520" x2="760" y2="520" stroke="#ccc"/>
</svg>