<svg xmlns="http://www.w3.org/2000/svg" width="800" height="540">
<style> .label{font-family:DejaVu Sans,Verdana,Geneva,sans-serif;font-size:12px;fill:#333} .value{font-family:DejaVu Sans,Verdana,Geneva,sans-serif;font-size:12px;fill:#555} </style>
<text x="10" y="20" class="label">延迟柱状图（越低越好，Top 15），单位 ms</text>
<text x="10" y="46" class="label">socialclub.rockstargames.com</text>
<rect x="180" y="30" width="181.19" height="22" fill="#4c78a8" rx="3"/>
<text x="369.19" y="46" class="value">57.08</text>
<text x="10" y="78" class="label">rockstargames.com</text>
<rect x="180" y="62" width="245.05" height="22" fill="#4c78a8" rx="3"/>
<text x="433.05" y="78" class="value">77.20</text>
<text x="10" y="110" class="label">eaassets-a.akamaihd.net</text>
<rect x="180" y="94" width="256.8" height="22" fill="#4c78a8" rx="3"/>
<text x="444.8" y="110" class="value">80.90</text>
<text x="10" y="142" class="label">ubi.com</text>
<rect x="180" y="126" width="306.28" height="22" fill="#4c78a8" rx="3"/>
<text x="494.28" y="142" class="value">96.49</text>
<text x="10" y="174" class="label">store.akamai.steamstatic.com</text>
<rect x="180" y="158" width="369.45" height="22" fill="#4c78a8" rx="3"/>
<text x="557.45" y="174" class="value">116.39</text>
<text x="10" y="206" class="label">blizzard.com</text>
<rect x="180" y="190" width="415.7" height="22" fill="#4c78a8" rx="3"/>
<text x="603.7" y="206" class="value">130.96</text>
<text x="10" y="238" class="label">ubisoft.com</text>
<rect x="180" y="222" width="424.52" height="22" fill="#4c78a8" rx="3"/>
<text x="612.52" y="238" class="value">133.74</text>
<text x="10" y="270" class="label">battle.net</text>
<rect x="180" y="254" width="437.95" height="22" fill="#4c78a8" rx="3"/>
<text x="625.95" y="270" class="value">137.97</text>
<text x="10" y="302" class="label">static3.cdn.ubi.com</text>
<rect x="180" y="286" width="451.73" height="22" fill="#4c78a8" rx="3"/>
<text x="639.73" y="302" class="value">142.31</text>
<text x="10" y="334" class="label">cdn.cloudflare.steamstatic.com</text>
<rect x="180" y="318" width="461.63" height="22" fill="#4c78a8" rx="3"/>
<text x="649.63" y="334" class="value">145.43</text>
<text x="10" y="366" class="label">ea.com</text>
<rect x="180" y="350" width="465.73" height="22" fill="#4c78a8" rx="3"/>
<text x="653.73" y="366" class="value">146.72</text>
<text x="10" y="398" class="label">origin.com</text>
<rect x="180" y="382" width="485.85" height="22" fill="#4c78a8" rx="3"/>
<text x="673.85" y="398" class="value">153.06</text>
<text x="10" y="430" class="label">unrealengine.com</text>
<rect x="180" y="414" width="561.91" height="22" fill="#4c78a8" rx="3"/>
<text x="749.91" y="430" class="value">177.02</text>
<text x="10" y="462" class="label">cdn.akamai.steamstatic.com</text>
<rect x="180" y="446" width="568.51" height="22" fill="#4c78a8" rx="3"/>
<text x="756.51" y="462" class="value">179.10</text>
<text x="10" y="494" class="label">fortnite.com</text>
<rect x="180" y="478" width="580.0" height="22" fill="#4c78a8" rx="3"/>
<text x="768.0" y="494" class="value">182.72</text>
<line x1="180" y1="30" x2="180" y2="520" stroke="#ccc"/>
<line x1="180" y1="520" x2="760" y2="520" stroke="#ccc"/>
</svg>