<svg xmlns="http://www.w3.org/2000/svg" width="800" height="540">
<style> .label{font-family:DejaVu Sans,Verdana,Geneva,sans-serif;font-size:12px;fill:#333} .value{font-family:DejaVu Sans,Verdana,Geneva,sans-serif;font-size:12px;fill:#555} </style>
<text x="10" y="20" class="label">延迟柱状图（越低越好，Top 15），单位 ms</text>
<text x="10" y="46" class="label">rockstargames.com</text>
<rect x="180" y="30" width="161.35" height="22" fill="#4c78a8" rx="3"/>
<text x="349.35" y="46" class="value">58.94</text>
<text x="10" y="78" class="label">eaassets-a.akamaihd.net</text>
<rect x="180" y="62" width="212.24" height="22" fill="#4c78a8" rx="3"/>
<text x="400.24" y="78" class="value">77.53</text>
<text x="10" y="110" class="label">origin.com</text>
<rect x="180" y="94" width="237.86" height="22" fill="#4c78a8" rx="3"/>
<text x="425.86" y="110" class="value">86.89</text>
<text x="10" y="142" class="label">ea.com</text>
<rect x="180" y="126" width="329.63" height="22" fill="#4c78a8" rx="3"/>
<text x="517.63" y="142" class="value">120.41</text>
<text x="10" y="174" class="label">socialclub.rockstargames.com</text>
<rect x="180" y="158" width="345.23" height="22" fill="#4c78a8" rx="3"/>
<text x="533.23" y="174" class="value">126.11</text>
<text x="10" y="206" class="label">steamcdn-a.akamaihd.net</text>
<rect x="180" y="190" width="379.04" height="22" fill="#4c78a8" rx="3"/>
<text x="567.04" y="206" class="value">138.46</text>
<text x="10" y="238" class="label">cdn.cloudflare.steamstatic.com</text>
<rect x="180" y="222" width="379.8" height="22" fill="#4c78a8" rx="3"/>
<text x="567.8" y="238" class="value">138.74</text>
<text x="10" y="270" class="label">blizzard.com</text>
<rect x="180" y="254" width="379.83" height="22" fill="#4c78a8" rx="3"/>
<text x="567.8299999999999" y="270" class="value">138.75</text>
<text x="10" y="302" class="label">battle.net</text>
<rect x="180" y="286" width="391.27" height="22" fill="#4c78a8" rx="3"/>
<text x="579.27" y="302" class="value">142.93</text>
<text x="10" y="334" class="label">ubisoft.com</text>
<rect x="180" y="318" width="396.94" height="22" fill="#4c78a8" rx="3"/>
<text x="584.94" y="334" class="value">145.00</text>
<text x="10" y="366" class="label">ubi.com</text>
<rect x="180" y="350" width="426.78" height="22" fill="#4c78a8" rx="3"/>
<text x="614.78" y="366" class="value">155.90</text>
<text x="10" y="398" class="label">store.akamai.steamstatic.com</text>
<rect x="180" y="382" width="432.8" height="22" fill="#4c78a8" rx="3"/>
<text x="620.8" y="398" class="value">158.10</text>
<text x="10" y="430" class="label">cdn.akamai.steamstatic.com</text>
<rect x="180" y="414" width="441.73" height="22" fill="#4c78a8" rx="3"/>
<text x="629.73" y="430" class="value">161.36</text>
<text x="10" y="462" class="label">gog.com</text>
<rect x="180" y="446" width="532.97" height="22" fill="#4c78a8" rx="3"/>
<text x="720.97" y="462" class="value">194.69</text>
<text x="10" y="494" class="label">static3.cdn.ubi.com</text>
<rect x="180" y="478" width="580.0" height="22" fill="#4c78a8" rx="3"/>
<text x="768.0" y="494" class="value">211.87</text>
<line x1="180" y1="30" x2="180" y2="520" stroke="#ccc"/>
<line x1="180" y1="520" x2="760" y2="520" stroke="#ccc"/>
</svg>