<svg xmlns="http://www.w3.org/2000/svg" width="800" height="540">
<style> .label{font-family:DejaVu Sans,Verdana,Geneva,sans-serif;font-size:12px;fill:#333} .value{font-family:DejaVu Sans,Verdana,Geneva,sans-serif;font-size:12px;fill:#555} </style>
<text x="10" y="20" class="label">延迟柱状图（越低越好，Top 15），单位 ms</text>
<text x="10" y="46" class="label">rockstargames.com</text>
<rect x="180" y="30" width="78.9" height="22" fill="#4c78a8" rx="3"/>
<text x="266.9" y="46" class="value">35.56</text>
<text x="10" y="78" class="label">eaassets-a.akamaihd.net</text>
<rect x="180" y="62" width="105.14" height="22" fill="#4c78a8" rx="3"/>
<text x="293.14" y="78" class="value">47.39</text>
<text x="10" y="110" class="label">ea.com</text>
<rect x="180" y="94" width="161.38" height="22" fill="#4c78a8" rx="3"/>
<text x="349.38" y="110" class="value">72.74</text>
<text x="10" y="142" class="label">ubisoft.com</text>
<rect x="180" y="126" width="202.07" height="22" fill="#4c78a8" rx="3"/>
<text x="390.07" y="142" class="value">91.08</text>
<text x="10" y="174" class="label">cdn.akamai.steamstatic.com</text>
<rect x="180" y="158" width="248.87" height="22" fill="#4c78a8" rx="3"/>
<text x="436.87" y="174" class="value">112.17</text>
<text x="10" y="206" class="label">origin.com</text>
<rect x="180" y="190" width="367.65" height="22" fill="#4c78a8" rx="3"/>
<text x="555.65" y="206" class="value">165.71</text>
<text x="10" y="238" class="label">store.akamai.steamstatic.com</text>
<rect x="180" y="222" width="381.05" height="22" fill="#4c78a8" rx="3"/>
<text x="569.05" y="238" class="value">171.75</text>
<text x="10" y="270" class="label">community.akamai.steamstatic.com</text>
<rect x="180" y="254" width="405.79" height="22" fill="#4c78a8" rx="3"/>
<text x="593.79" y="270" class="value">182.90</text>
<text x="10" y="302" class="label">steamcdn-a.akamaihd.net</text>
<rect x="180" y="286" width="411.14" height="22" fill="#4c78a8" rx="3"/>
<text x="599.14" y="302" class="value">185.31</text>
<text x="10" y="334" class="label">gog.com</text>
<rect x="180" y="318" width="434.77" height="22" fill="#4c78a8" rx="3"/>
<text x="622.77" y="334" class="value">195.96</text>
<text x="10" y="366" class="label">www.steamcommunity.com</text>
<rect x="180" y="350" width="483.75" height="22" fill="#4c78a8" rx="3"/>
<text x="671.75" y="366" class="value">218.04</text>
<text x="10" y="398" class="label">cdn.cloudflare.steamstatic.com</text>
<rect x="180" y="382" width="494.27" height="22" fill="#4c78a8" rx="3"/>
<text x="682.27" y="398" class="value">222.78</text>
<text x="10" y="430" class="label">easyanticheat.net</text>
<rect x="180" y="414" width="517.7" height="22" fill="#4c78a8" rx="3"/>
<text x="705.7" y="430" class="value">233.34</text>
<text x="10" y="462" class="label">api.steampowered.com</text>
<rect x="180" y="446" width="576.92" height="22" fill="#4c78a8" rx="3"/>
<text x="764.92" y="462" class="value">260.03</text>
<text x="10" y="494" class="label">steam-chat.com</text>
<rect x="180" y="478" width="580.0" height="22" fill="#4c78a8" rx="3"/>
<text x="768.0" y="494" class="value">261.42</text>
<line x1="180" y1="30" x2="180" y2="520" stroke="#ccc"/>
<line x1="180" y1="520" x2="760" y2="520" stroke="#ccc"/>
</svg>