<svg xmlns="http://www.w3.org/2000/svg" width="800" height="540">
<style> .label{font-family:DejaVu Sans,Verdana,Geneva,sans-serif;font-size:12px;fill:#333} .value{font-family:DejaVu Sans,Verdana,Geneva,sans-serif;font-size:12px;fill:#555} </style>
<text x="10" y="20" class="label">延迟柱状图（越低越好，Top 15），单位 ms</text>
<text x="10" y="46" class="label">blizzard.com</text>
<rect x="180" y="30" width="154.73" height="22" fill="#4c78a8" rx="3"/>
<text x="342.73" y="46" class="value">63.06</text>
<text x="10" y="78" class="label">rockstargames.com</text>
<rect x="180" y="62" width="187.17" height="22" fill="#4c78a8" rx="3"/>
<text x="375.16999999999996" y="78" class="value">76.28</text>
<text x="10" y="110" class="label">battle.net</text>
<rect x="180" y="94" width="214.94" height="22" fill="#4c78a8" rx="3"/>
<text x="402.94" y="110" class="value">87.60</text>
<text x="10" y="142" class="label">ubisoft.com</text>
<rect x="180" y="126" width="275.7" height="22" fill="#4c78a8" rx="3"/>
<text x="463.7" y="142" class="value">112.36</text>
<text x="10" y="174" class="label">epicgames.com</text>
<rect x="180" y="158" width="287.45" height="22" fill="#4c78a8" rx="3"/>
<text x="475.45" y="174" class="value">117.15</text>
<text x="10" y="206" class="label">ea.com</text>
<rect x="180" y="190" width="302.51" height="22" fill="#4c78a8" rx="3"/>
<text x="490.51" y="206" class="value">123.29</text>
<text x="10" y="238" class="label">ubi.com</text>
<rect x="180" y="222" width="329.53" height="22" fill="#4c78a8" rx="3"/>
<text x="517.53" y="238" class="value">134.30</text>
<text x="10" y="270" class="label">steamcdn-a.akamaihd.net</text>
<rect x="180" y="254" width="335.02" height="22" fill="#4c78a8" rx="3"/>
<text x="523.02" y="270" class="value">136.54</text>
<text x="10" y="302" class="label">socialclub.rockstargames.com</text>
<rect x="180" y="286" width="390.13" height="22" fill="#4c78a8" rx="3"/>
<text x="578.13" y="302" class="value">159.00</text>
<text x="10" y="334" class="label">origin.com</text>
<rect x="180" y="318" width="407.87" height="22" fill="#4c78a8" rx="3"/>
<text x="595.87" y="334" class="value">166.23</text>
<text x="10" y="366" class="label">static3.cdn.ubi.com</text>
<rect x="180" y="350" width="410.33" height="22" fill="#4c78a8" rx="3"/>
<text x="598.3299999999999" y="366" class="value">167.23</text>
<text x="10" y="398" class="label">community.akamai.steamstatic.com</text>
<rect x="180" y="382" width="462.44" height="22" fill="#4c78a8" rx="3"/>
<text x="650.44" y="398" class="value">188.47</text>
<text x="10" y="430" class="label">cdn.akamai.steamstatic.com</text>
<rect x="180" y="414" width="482.88" height="22" fill="#4c78a8" rx="3"/>
<text x="670.88" y="430" class="value">196.80</text>
<text x="10" y="462" class="label">www.steamcommunity.com</text>
<rect x="180" y="446" width="536.08" height="22" fill="#4c78a8" rx="3"/>
<text x="724.08" y="462" class="value">218.48</text>
<text x="10" y="494" class="label">unrealengine.com</text>
<rect x="180" y="478" width="580.0" height="22" fill="#4c78a8" rx="3"/>
<text x="768.0" y="494" class="value">236.38</text>
<line x1="180" y1="30" x2="180" y2="520" stroke="#ccc"/>
<line x1="180" y1="520" x2="760" y2="520" stroke="#ccc"/>
</svg>