<svg xmlns="http://www.w3.org/2000/svg" width="800" height="540">
<style> .label{font-family:DejaVu Sans,Verdana,Geneva,sans-serif;font-size:12px;fill:#333} .value{font-family:DejaVu Sans,Verdana,Geneva,sans-serif;font-size:12px;fill:#555} </style>
<text x="10" y="20" class="label">延迟柱状图（越低越好，Top 15），单位 ms</text>
<text x="10" y="46" class="label">rockstargames.com</text>
<rect x="180" y="30" width="194.26" height="22" fill="#4c78a8" rx="3"/>
<text x="382.26" y="46" class="value">72.40</text>
<text x="10" y="78" class="label">eaassets-a.akamaihd.net</text>
<rect x="180" y="62" width="226.97" height="22" fill="#4c78a8" rx="3"/>
<text x="414.97" y="78" class="value">84.59</text>
<text x="10" y="110" class="label">ea.com</text>
<rect x="180" y="94" width="250.72" height="22" fill="#4c78a8" rx="3"/>
<text x="438.72" y="110" class="value">93.44</text>
<text x="10" y="142" class="label">origin.com</text>
<rect x="180" y="126" width="305.78" height="22" fill="#4c78a8" rx="3"/>
<text x="493.78" y="142" class="value">113.96</text>
<text x="10" y="174" class="label">cdn.akamai.steamstatic.com</text>
<rect x="180" y="158" width="338.97" height="22" fill="#4c78a8" rx="3"/>
<text x="526.97" y="174" class="value">126.33</text>
<text x="10" y="206" class="label">easyanticheat.net</text>
<rect x="180" y="190" width="339.34" height="22" fill="#4c78a8" rx="3"/>
<text x="527.3399999999999" y="206" class="value">126.47</text>
<text x="10" y="238" class="label">blizzard.com</text>
<rect x="180" y="222" width="348.25" height="22" fill="#4c78a8" rx="3"/>
<text x="536.25" y="238" class="value">129.79</text>
<text x="10" y="270" class="label">ubi.com</text>
<rect x="180" y="254" width="362.53" height="22" fill="#4c78a8" rx="3"/>
<text x="550.53" y="270" class="value">135.11</text>
<text x="10" y="302" class="label">battle.net</text>
<rect x="180" y="286" width="370.82" height="22" fill="#4c78a8" rx="3"/>
<text x="558.8199999999999" y="302" class="value">138.20</text>
<text x="10" y="334" class="label">store.akamai.steamstatic.com</text>
<rect x="180" y="318" width="385.84" height="22" fill="#4c78a8" rx="3"/>
<text x="573.8399999999999" y="334" class="value">143.80</text>
<text x="10" y="366" class="label">socialclub.rockstargames.com</text>
<rect x="180" y="350" width="415.73" height="22" fill="#4c78a8" rx="3"/>
<text x="603.73" y="366" class="value">154.94</text>
<text x="10" y="398" class="label">static3.cdn.ubi.com</text>
<rect x="180" y="382" width="437.15" height="22" fill="#4c78a8" rx="3"/>
<text x="625.15" y="398" class="value">162.92</text>
<text x="10" y="430" class="label">community.akamai.steamstatic.com</text>
<rect x="180" y="414" width="531.22" height="22" fill="#4c78a8" rx="3"/>
<text x="719.22" y="430" class="value">197.98</text>
<text x="10" y="462" class="label">steam-chat.com</text>
<rect x="180" y="446" width="568.89" height="22" fill="#4c78a8" rx="3"/>
<text x="756.89" y="462" class="value">212.02</text>
<text x="10" y="494" class="label">ubisoft.com</text>
<rect x="180" y="478" width="580.0" height="22" fill="#4c78a8" rx="3"/>
<text x="768.0" y="494" class="value">216.16</text>
<line x1="180" y1="30" x2="180" y2="520" stroke="#ccc"/>
<line x1="180" y1="520" x2="760" y2="520" stroke="#ccc"/>
</svg>