<svg xmlns="http://www.w3.org/2000/svg" width="800" height="540">
<style> .label{font-family:DejaVu Sans,Verdana,Geneva,sans-serif;font-size:12px;fill:#333} .value{font-family:DejaVu Sans,Verdana,Geneva,sans-serif;font-size:12px;fill:#555} </style>
<text x="10" y="20" class="label">延迟柱状图（越低越好，Top 15），单位 ms</text>
<text x="10" y="46" class="label">rockstargames.com</text>
<rect x="180" y="30" width="145.71" height="22" fill="#4c78a8" rx="3"/>
<text x="333.71000000000004" y="46" class="value">58.99</text>
<text x="10" y="78" class="label">ubisoft.com</text>
<rect x="180" y="62" width="273.86" height="22" fill="#4c78a8" rx="3"/>
<text x="461.86" y="78" class="value">110.87</text>
<text x="10" y="110" class="label">store.akamai.steamstatic.com</text>
<rect x="180" y="94" width="288.58" height="22" fill="#4c78a8" rx="3"/>
<text x="476.58" y="110" class="value">116.83</text>
<text x="10" y="142" class="label">cdn.cloudflare.steamstatic.com</text>
<rect x="180" y="126" width="334.28" height="22" fill="#4c78a8" rx="3"/>
<text x="522.28" y="142" class="value">135.33</text>
<text x="10" y="174" class="label">community.akamai.steamstatic.com</text>
<rect x="180" y="158" width="354.11" height="22" fill="#4c78a8" rx="3"/>
<text x="542.11" y="174" class="value">143.36</text>
<text x="10" y="206" class="label">cdn.akamai.steamstatic.com</text>
<rect x="180" y="190" width="357.4" height="22" fill="#4c78a8" rx="3"/>
<text x="545.4" y="206" class="value">144.69</text>
<text x="10" y="238" class="label">origin.com</text>
<rect x="180" y="222" width="369.99" height="22" fill="#4c78a8" rx="3"/>
<text x="557.99" y="238" class="value">149.79</text>
<text x="10" y="270" class="label">easyanticheat.net</text>
<rect x="180" y="254" width="379.23" height="22" fill="#4c78a8" rx="3"/>
<text x="567.23" y="270" class="value">153.53</text>
<text x="10" y="302" class="label">steamcdn-a.akamaihd.net</text>
<rect x="180" y="286" width="395.44" height="22" fill="#4c78a8" rx="3"/>
<text x="583.44" y="302" class="value">160.09</text>
<text x="10" y="334" class="label">ea.com</text>
<rect x="180" y="318" width="418.73" height="22" fill="#4c78a8" rx="3"/>
<text x="606.73" y="334" class="value">169.52</text>
<text x="10" y="366" class="label">static3.cdn.ubi.com</text>
<rect x="180" y="350" width="489.35" height="22" fill="#4c78a8" rx="3"/>
<text x="677.35" y="366" class="value">198.11</text>
<text x="10" y="398" class="label">steam-chat.com</text>
<rect x="180" y="382" width="525.46" height="22" fill="#4c78a8" rx="3"/>
<text x="713.46" y="398" class="value">212.73</text>
<text x="10" y="430" class="label">launcher-public-service-prod06.ol.epicgames.com</text>
<rect x="180" y="414" width="535.86" height="22" fill="#4c78a8" rx="3"/>
<text x="723.86" y="430" class="value">216.94</text>
<text x="10" y="462" class="label">www.steamcommunity.com</text>
<rect x="180" y="446" width="561.33" height="22" fill="#4c78a8" rx="3"/>
<text x="749.33" y="462" class="value">227.25</text>
<text x="10" y="494" class="label">api.steampowered.com</text>
<rect x="180" y="478" width="580.0" height="22" fill="#4c78a8" rx="3"/>
<text x="768.0" y="494" class="value">234.81</text>
<line x1="180" y1="30" x2="180" y2="520" stroke="#ccc"/>
<line x1="180" y1="520" x2="760" y2="520" stroke="#ccc"/>
</svg>