<svg xmlns="http://www.w3.org/2000/svg" width="800" height="540">
<style> .label{font-family:DejaVu Sans,Verdana,Geneva,sans-serif;font-size:12px;fill:#333} .value{font-family:DejaVu Sans,Verdana,Geneva,sans-serif;font-size:12px;fill:#555} </style>
<text x="10" y="20" class="label">延迟柱状图（越低越好，Top 15），单位 ms</text>
<text x="10" y="46" class="label">eaassets-a.akamaihd.net</text>
<rect x="180" y="30" width="191.93" height="22" fill="#4c78a8" rx="3"/>
<text x="379.93" y="46" class="value">63.82</text>
<text x="10" y="78" class="label">rockstargames.com</text>
<rect x="180" y="62" width="198.16" height="22" fill="#4c78a8" rx="3"/>
<text x="386.15999999999997" y="78" class="value">65.89</text>
<text x="10" y="110" class="label">ea.com</text>
<rect x="180" y="94" width="272.95" height="22" fill="#4c78a8" rx="3"/>
<text x="460.95" y="110" class="value">90.76</text>
<text x="10" y="142" class="label">steamcdn-a.akamaihd.net</text>
<rect x="180" y="126" width="334.21" height="22" fill="#4c78a8" rx="3"/>
<text x="522.21" y="142" class="value">111.13</text>
<text x="10" y="174" class="label">ubi.com</text>
<rect x="180" y="158" width="394.14" height="22" fill="#4c78a8" rx="3"/>
<text x="582.14" y="174" class="value">131.06</text>
<text x="10" y="206" class="label">ubisoft.com</text>
<rect x="180" y="190" width="445.78" height="22" fill="#4c78a8" rx="3"/>
<text x="633.78" y="206" class="value">148.23</text>
<text x="10" y="238" class="label">blizzard.com</text>
<rect x="180" y="222" width="446.89" height="22" fill="#4c78a8" rx="3"/>
<text x="634.89" y="238" class="value">148.60</text>
<text x="10" y="270" class="label">battle.net</text>
<rect x="180" y="254" width="449.93" height="22" fill="#4c78a8" rx="3"/>
<text x="637.9300000000001" y="270" class="value">149.61</text>
<text x="10" y="302" class="label">socialclub.rockstargames.com</text>
<rect x="180" y="286" width="458.08" height="22" fill="#4c78a8" rx="3"/>
<text x="646.0799999999999" y="302" class="value">152.32</text>
<text x="10" y="334" class="label">gog.com</text>
<rect x="180" y="318" width="508.24" height="22" fill="#4c78a8" rx="3"/>
<text x="696.24" y="334" class="value">169.00</text>
<text x="10" y="366" class="label">static3.cdn.ubi.com</text>
<rect x="180" y="350" width="529.24" height="22" fill="#4c78a8" rx="3"/>
<text x="717.24" y="366" class="value">175.98</text>
<text x="10" y="398" class="label">steam-chat.com</text>
<rect x="180" y="382" width="535.16" height="22" fill="#4c78a8" rx="3"/>
<text x="723.16" y="398" class="value">177.95</text>
<text x="10" y="430" class="label">store.akamai.steamstatic.com</text>
<rect x="180" y="414" width="575.13" height="22" fill="#4c78a8" rx="3"/>
<text x="763.13" y="430" class="value">191.24</text>
<text x="10" y="462" class="label">origin.com</text>
<rect x="180" y="446" width="578.35" height="22" fill="#4c78a8" rx="3"/>
<text x="766.35" y="462" class="value">192.31</text>
<text x="10" y="494" class="label">community.akamai.steamstatic.com</text>
<rect x="180" y="478" width="580.0" height="22" fill="#4c78a8" rx="3"/>
<text x="768.0" y="494" class="value">192.86</text>
<line x1="180" y1="30" x2="180" y2="520" stroke="#ccc"/>
<line x1="180" y1="520" x2="760" y2="520" stroke="#ccc"/>
</svg>