<svg xmlns="http://www.w3.org/2000/svg" width="800" height="540">
<style> .label{font-family:DejaVu Sans,Verdana,Geneva,sans-serif;font-size:12px;fill:#333} .value{font-family:DejaVu Sans,Verdana,Geneva,sans-serif;font-size:12px;fill:#555} </style>
<text x="10" y="20" class="label">延迟柱状图（越低越好，Top 15），单位 ms</text>
<text x="10" y="46" class="label">eaassets-a.akamaihd.net</text>
<rect x="180" y="30" width="274.11" height="22" fill="#4c78a8" rx="3"/>
<text x="462.11" y="46" class="value">108.25</text>
<text x="10" y="78" class="label">rockstargames.com</text>
<rect x="180" y="62" width="321.79" height="22" fill="#4c78a8" rx="3"/>
<text x="509.79" y="78" class="value">127.08</text>
<text x="10" y="110" class="label">steamcdn-a.akamaihd.net</text>
<rect x="180" y="94" width="334.63" height="22" fill="#4c78a8" rx="3"/>
<text x="522.63" y="110" class="value">132.15</text>
<text x="10" y="142" class="label">battle.net</text>
<rect x="180" y="126" width="430.6" height="22" fill="#4c78a8" rx="3"/>
<text x="618.6" y="142" class="value">170.05</text>
<text x="10" y="174" class="label">cdn.akamai.steamstatic.com</text>
<rect x="180" y="158" width="439.74" height="22" fill="#4c78a8" rx="3"/>
<text x="627.74" y="174" class="value">173.66</text>
<text x="10" y="206" class="label">ea.com</text>
<rect x="180" y="190" width="450.58" height="22" fill="#4c78a8" rx="3"/>
<text x="638.5799999999999" y="206" class="value">177.94</text>
<text x="10" y="238" class="label">origin.com</text>
<rect x="180" y="222" width="458.15" height="22" fill="#4c78a8" rx="3"/>
<text x="646.15" y="238" class="value">180.93</text>
<text x="10" y="270" class="label">blizzard.com</text>
<rect x="180" y="254" width="471.55" height="22" fill="#4c78a8" rx="3"/>
<text x="659.55" y="270" class="value">186.22</text>
<text x="10" y="302" class="label">easyanticheat.net</text>
<rect x="180" y="286" width="496.01" height="22" fill="#4c78a8" rx="3"/>
<text x="684.01" y="302" class="value">195.88</text>
<text x="10" y="334" class="label">unrealengine.com</text>
<rect x="180" y="318" width="499.73" height="22" fill="#4c78a8" rx="3"/>
<text x="687.73" y="334" class="value">197.35</text>
<text x="10" y="366" class="label">socialclub.rockstargames.com</text>
<rect x="180" y="350" width="520.57" height="22" fill="#4c78a8" rx="3"/>
<text x="708.57" y="366" class="value">205.58</text>
<text x="10" y="398" class="label">cdn.cloudflare.steamstatic.com</text>
<rect x="180" y="382" width="532.07" height="22" fill="#4c78a8" rx="3"/>
<text x="720.07" y="398" class="value">210.12</text>
<text x="10" y="430" class="label">fortnite.com</text>
<rect x="180" y="414" width="544.47" height="22" fill="#4c78a8" rx="3"/>
<text x="732.47" y="430" class="value">215.02</text>
<text x="10" y="462" class="label">api.steampowered.com</text>
<rect x="180" y="446" width="552.25" height="22" fill="#4c78a8" rx="3"/>
<text x="740.25" y="462" class="value">218.09</text>
<text x="10" y="494" class="label">steamcommunity.com</text>
<rect x="180" y="478" width="580.0" height="22" fill="#4c78a8" rx="3"/>
<text x="768.0" y="494" class="value">229.05</text>
<line x1="180" y1="30" x2="180" y2="520" stroke="#ccc"/>
<line x1="180" y1="520" x2="760" y2="520" stroke="#ccc"/>
</svg>