<svg xmlns="http://www.w3.org/2000/svg" width="800" height="540">
<style> .label{font-family:DejaVu Sans,Verdana,Geneva,sans-serif;font-size:12px;fill:#333} .value{font-family:DejaVu Sans,Verdana,Geneva,sans-serif;font-size:12px;fill:#555} </style>
<text x="10" y="20" class="label">延迟柱状图（越低越好，Top 15），单位 ms</text>
<text x="10" y="46" class="label">ea.com</text>
<rect x="180" y="30" width="206.33" height="22" fill="#4c78a8" rx="3"/>
<text x="394.33000000000004" y="46" class="value">113.48</text>
<text x="10" y="78" class="label">eaassets-a.akamaihd.net</text>
<rect x="180" y="62" width="226.42" height="22" fill="#4c78a8" rx="3"/>
<text x="414.41999999999996" y="78" class="value">124.53</text>
<text x="10" y="110" class="label">ubisoft.com</text>
<rect x="180" y="94" width="250.13" height="22" fill="#4c78a8" rx="3"/>
<text x="438.13" y="110" class="value">137.57</text>
<text x="10" y="142" class="label">steamcdn-a.akamaihd.net</text>
<rect x="180" y="126" width="293.02" height="22" fill="#4c78a8" rx="3"/>
<text x="481.02" y="142" class="value">161.16</text>
<text x="10" y="174" class="label">easyanticheat.net</text>
<rect x="180" y="158" width="298.93" height="22" fill="#4c78a8" rx="3"/>
<text x="486.93" y="174" class="value">164.41</text>
<text x="10" y="206" class="label">cdn.cloudflare.steamstatic.com</text>
<rect x="180" y="190" width="367.05" height="22" fill="#4c78a8" rx="3"/>
<text x="555.05" y="206" class="value">201.88</text>
<text x="10" y="238" class="label">blizzard.com</text>
<rect x="180" y="222" width="388.53" height="22" fill="#4c78a8" rx="3"/>
<text x="576.53" y="238" class="value">213.69</text>
<text x="10" y="270" class="label">ubi.com</text>
<rect x="180" y="254" width="398.15" height="22" fill="#4c78a8" rx="3"/>
<text x="586.15" y="270" class="value">218.98</text>
<text x="10" y="302" class="label">rockstargames.com</text>
<rect x="180" y="286" width="409.69" height="22" fill="#4c78a8" rx="3"/>
<text x="597.69" y="302" class="value">225.33</text>
<text x="10" y="334" class="label">steam-chat.com</text>
<rect x="180" y="318" width="428.8" height="22" fill="#4c78a8" rx="3"/>
<text x="616.8" y="334" class="value">235.84</text>
<text x="10" y="366" class="label">socialclub.rockstargames.com</text>
<rect x="180" y="350" width="484.47" height="22" fill="#4c78a8" rx="3"/>
<text x="672.47" y="366" class="value">266.46</text>
<text x="10" y="398" class="label">www.steamcommunity.com</text>
<rect x="180" y="382" width="486.33" height="22" fill="#4c78a8" rx="3"/>
<text x="674.3299999999999" y="398" class="value">267.48</text>
<text x="10" y="430" class="label">origin.com</text>
<rect x="180" y="414" width="493.6" height="22" fill="#4c78a8" rx="3"/>
<text x="681.6" y="430" class="value">271.48</text>
<text x="10" y="462" class="label">gog.com</text>
<rect x="180" y="446" width="498.16" height="22" fill="#4c78a8" rx="3"/>
<text x="686.1600000000001" y="462" class="value">273.99</text>
<text x="10" y="494" class="label">cdn.akamai.steamstatic.com</text>
<rect x="180" y="478" width="580.0" height="22" fill="#4c78a8" rx="3"/>
<text x="768.0" y="494" class="value">319.00</text>
<line x1="180" y1="30" x2="180" y2="520" stroke="#ccc"/>
<line x1="180" y1="520" x2="760" y2="520" stroke="#ccc"/>
</svg>