<svg xmlns="http://www.w3.org/2000/svg" width="800" height="540">
<style> .label{font-family:DejaVu Sans,Verdana,Geneva,sans-serif;font-size:12px;fill:#333} .value{font-family:DejaVu Sans,Verdana,Geneva,sans-serif;font-size:12px;fill:#555} </style>
<text x="10" y="20" class="label">延迟柱状图（越低越好，Top 15），单位 ms</text>
<text x="10" y="46" class="label">rockstargames.com</text>
<rect x="180" y="30" width="145.14" height="22" fill="#4c78a8" rx="3"/>
<text x="333.14" y="46" class="value">79.14</text>
<text x="10" y="78" class="label">ea.com</text>
<rect x="180" y="62" width="182.46" height="22" fill="#4c78a8" rx="3"/>
<text x="370.46000000000004" y="78" class="value">99.49</text>
<text x="10" y="110" class="label">ubisoft.com</text>
<rect x="180" y="94" width="188.3" height="22" fill="#4c78a8" rx="3"/>
<text x="376.3" y="110" class="value">102.67</text>
<text x="10" y="142" class="label">store.akamai.steamstatic.com</text>
<rect x="180" y="126" width="268.9" height="22" fill="#4c78a8" rx="3"/>
<text x="456.9" y="142" class="value">146.62</text>
<text x="10" y="174" class="label">eaassets-a.akamaihd.net</text>
<rect x="180" y="158" width="279.59" height="22" fill="#4c78a8" rx="3"/>
<text x="467.59" y="174" class="value">152.45</text>
<text x="10" y="206" class="label">cdn.cloudflare.steamstatic.com</text>
<rect x="180" y="190" width="316.47" height="22" fill="#4c78a8" rx="3"/>
<text x="504.47" y="206" class="value">172.56</text>
<text x="10" y="238" class="label">cdn.akamai.steamstatic.com</text>
<rect x="180" y="222" width="426.16" height="22" fill="#4c78a8" rx="3"/>
<text x="614.1600000000001" y="238" class="value">232.37</text>
<text x="10" y="270" class="label">easyanticheat.net</text>
<rect x="180" y="254" width="435.94" height="22" fill="#4c78a8" rx="3"/>
<text x="623.94" y="270" class="value">237.70</text>
<text x="10" y="302" class="label">ubi.com</text>
<rect x="180" y="286" width="438.12" height="22" fill="#4c78a8" rx="3"/>
<text x="626.12" y="302" class="value">238.89</text>
<text x="10" y="334" class="label">steamcdn-a.akamaihd.net</text>
<rect x="180" y="318" width="442.73" height="22" fill="#4c78a8" rx="3"/>
<text x="630.73" y="334" class="value">241.40</text>
<text x="10" y="366" class="label">community.akamai.steamstatic.com</text>
<rect x="180" y="350" width="481.92" height="22" fill="#4c78a8" rx="3"/>
<text x="669.9200000000001" y="366" class="value">262.77</text>
<text x="10" y="398" class="label">origin.com</text>
<rect x="180" y="382" width="492.98" height="22" fill="#4c78a8" rx="3"/>
<text x="680.98" y="398" class="value">268.80</text>
<text x="10" y="430" class="label">socialclub.rockstargames.com</text>
<rect x="180" y="414" width="566.87" height="22" fill="#4c78a8" rx="3"/>
<text x="754.87" y="430" class="value">309.09</text>
<text x="10" y="462" class="label">battle.net</text>
<rect x="180" y="446" width="579.28" height="22" fill="#4c78a8" rx="3"/>
<text x="767.28" y="462" class="value">315.86</text>
<text x="10" y="494" class="label">api.steampowered.com</text>
<rect x="180" y="478" width="580.0" height="22" fill="#4c78a8" rx="3"/>
<text x="768.0" y="494" class="value">316.25</text>
<line x1="180" y1="30" x2="180" y2="520" stroke="#ccc"/>
<line x1="180" y1="520" x2="760" y2="520" stroke="#ccc"/>
</svg>