<svg xmlns="http://www.w3.org/2000/svg" width="800" height="540">
<style> .label{font-family:DejaVu Sans,Verdana,Geneva,sans-serif;font-size:12px;fill:#333} .value{font-family:DejaVu Sans,Verdana,Geneva,sans-serif;font-size:12px;fill:#555} </style>
<text x="10" y="20" class="label">延迟柱状图（越低越好，Top 15），单位 ms</text>
<text x="10" y="46" class="label">ubisoft.com</text>
<rect x="180" y="30" width="227.81" height="22" fill="#4c78a8" rx="3"/>
<text x="415.81" y="46" class="value">81.41</text>
<text x="10" y="78" class="label">origin.com</text>
<rect x="180" y="62" width="230.83" height="22" fill="#4c78a8" rx="3"/>
<text x="418.83000000000004" y="78" class="value">82.49</text>
<text x="10" y="110" class="label">eaassets-a.akamaihd.net</text>
<rect x="180" y="94" width="256.8" height="22" fill="#4c78a8" rx="3"/>
<text x="444.8" y="110" class="value">91.77</text>
<text x="10" y="142" class="label">rockstargames.com</text>
<rect x="180" y="126" width="327.01" height="22" fill="#4c78a8" rx="3"/>
<text x="515.01" y="142" class="value">116.86</text>
<text x="10" y="174" class="label">ea.com</text>
<rect x="180" y="158" width="365.37" height="22" fill="#4c78a8" rx="3"/>
<text x="553.37" y="174" class="value">130.57</text>
<text x="10" y="206" class="label">cdn.cloudflare.steamstatic.com</text>
<rect x="180" y="190" width="367.72" height="22" fill="#4c78a8" rx="3"/>
<text x="555.72" y="206" class="value">131.41</text>
<text x="10" y="238" class="label">socialclub.rockstargames.com</text>
<rect x="180" y="222" width="458.19" height="22" fill="#4c78a8" rx="3"/>
<text x="646.19" y="238" class="value">163.74</text>
<text x="10" y="270" class="label">static3.cdn.ubi.com</text>
<rect x="180" y="254" width="491.85" height="22" fill="#4c78a8" rx="3"/>
<text x="679.85" y="270" class="value">175.77</text>
<text x="10" y="302" class="label">blizzard.com</text>
<rect x="180" y="286" width="511.11" height="22" fill="#4c78a8" rx="3"/>
<text x="699.11" y="302" class="value">182.65</text>
<text x="10" y="334" class="label">store.akamai.steamstatic.com</text>
<rect x="180" y="318" width="528.96" height="22" fill="#4c78a8" rx="3"/>
<text x="716.96" y="334" class="value">189.03</text>
<text x="10" y="366" class="label">ubi.com</text>
<rect x="180" y="350" width="533.72" height="22" fill="#4c78a8" rx="3"/>
<text x="721.72" y="366" class="value">190.73</text>
<text x="10" y="398" class="label">api.steampowered.com</text>
<rect x="180" y="382" width="545.5" height="22" fill="#4c78a8" rx="3"/>
<text x="733.5" y="398" class="value">194.94</text>
<text x="10" y="430" class="label">cdn.akamai.steamstatic.com</text>
<rect x="180" y="414" width="570.74" height="22" fill="#4c78a8" rx="3"/>
<text x="758.74" y="430" class="value">203.96</text>
<text x="10" y="462" class="label">battle.net</text>
<rect x="180" y="446" width="579.58" height="22" fill="#4c78a8" rx="3"/>
<text x="767.58" y="462" class="value">207.12</text>
<text x="10" y="494" class="label">easyanticheat.net</text>
<rect x="180" y="478" width="580.0" height="22" fill="#4c78a8" rx="3"/>
<text x="768.0" y="494" class="value">207.27</text>
<line x1="180" y1="30" x2="180" y2="520" stroke="#ccc"/>
<line x1="180" y1="520" x2="760" y2="520" stroke="#ccc"/>
</svg>