<svg xmlns="http://www.w3.org/2000/svg" width="800" height="540">
<style> .label{font-family:DejaVu Sans,Verdana,Geneva,sans-serif;font-size:12px;fill:#333} .value{font-family:DejaVu Sans,Verdana,Geneva,sans-serif;font-size:12px;fill:#555} </style>
<text x="10" y="20" class="label">延迟柱状图（越低越好，Top 15），单位 ms</text>
<text x="10" y="46" class="label">community.akamai.steamstatic.com</text>
<rect x="180" y="30" width="203.02" height="22" fill="#4c78a8" rx="3"/>
<text x="391.02" y="46" class="value">57.00</text>
<text x="10" y="78" class="label">rockstargames.com</text>
<rect x="180" y="62" width="280.88" height="22" fill="#4c78a8" rx="3"/>
<text x="468.88" y="78" class="value">78.86</text>
<text x="10" y="110" class="label">eaassets-a.akamaihd.net</text>
<rect x="180" y="94" width="298.05" height="22" fill="#4c78a8" rx="3"/>
<text x="486.05" y="110" class="value">83.68</text>
<text x="10" y="142" class="label">blizzard.com</text>
<rect x="180" y="126" width="313.61" height="22" fill="#4c78a8" rx="3"/>
<text x="501.61" y="142" class="value">88.05</text>
<text x="10" y="174" class="label">battle.net</text>
<rect x="180" y="158" width="366.29" height="22" fill="#4c78a8" rx="3"/>
<text x="554.29" y="174" class="value">102.84</text>
<text x="10" y="206" class="label">ubi.com</text>
<rect x="180" y="190" width="387.63" height="22" fill="#4c78a8" rx="3"/>
<text x="575.63" y="206" class="value">108.83</text>
<text x="10" y="238" class="label">ea.com</text>
<rect x="180" y="222" width="391.8" height="22" fill="#4c78a8" rx="3"/>
<text x="579.8" y="238" class="value">110.00</text>
<text x="10" y="270" class="label">socialclub.rockstargames.com</text>
<rect x="180" y="254" width="411.6" height="22" fill="#4c78a8" rx="3"/>
<text x="599.6" y="270" class="value">115.56</text>
<text x="10" y="302" class="label">cdn.cloudflare.steamstatic.com</text>
<rect x="180" y="286" width="440.56" height="22" fill="#4c78a8" rx="3"/>
<text x="628.56" y="302" class="value">123.69</text>
<text x="10" y="334" class="label">store.akamai.steamstatic.com</text>
<rect x="180" y="318" width="469.05" height="22" fill="#4c78a8" rx="3"/>
<text x="657.05" y="334" class="value">131.69</text>
<text x="10" y="366" class="label">steamcdn-a.akamaihd.net</text>
<rect x="180" y="350" width="490.17" height="22" fill="#4c78a8" rx="3"/>
<text x="678.1700000000001" y="366" class="value">137.62</text>
<text x="10" y="398" class="label">cdn.akamai.steamstatic.com</text>
<rect x="180" y="382" width="495.73" height="22" fill="#4c78a8" rx="3"/>
<text x="683.73" y="398" class="value">139.18</text>
<text x="10" y="430" class="label">unrealengine.com</text>
<rect x="180" y="414" width="556.35" height="22" fill="#4c78a8" rx="3"/>
<text x="744.35" y="430" class="value">156.20</text>
<text x="10" y="462" class="label">epicgames.com</text>
<rect x="180" y="446" width="562.87" height="22" fill="#4c78a8" rx="3"/>
<text x="750.87" y="462" class="value">158.03</text>
<text x="10" y="494" class="label">fortnite.com</text>
<rect x="180" y="478" width="580.0" height="22" fill="#4c78a8" rx="3"/>
<text x="768.0" y="494" class="value">162.84</text>
<line x1="180" y1="30" x2="180" y2="520" stroke="#ccc"/>
<line x1="180" y1="520" x2="760" y2="520" stroke="#ccc"/>
</svg>