<svg xmlns="http://www.w3.org/2000/svg" width="800" height="540">
<style> .label{font-family:DejaVu Sans,Verdana,Geneva,sans-serif;font-size:12px;fill:#333} .value{font-family:DejaVu Sans,Verdana,Geneva,sans-serif;font-size:12px;fill:#555} </style>
<text x="10" y="20" class="label">延迟柱状图（越低越好，Top 15），单位 ms</text>
<text x="10" y="46" class="label">rockstargames.com</text>
<rect x="180" y="30" width="191.92" height="22" fill="#4c78a8" rx="3"/>
<text x="379.91999999999996" y="46" class="value">69.17</text>
<text x="10" y="78" class="label">eaassets-a.akamaihd.net</text>
<rect x="180" y="62" width="215.14" height="22" fill="#4c78a8" rx="3"/>
<text x="403.14" y="78" class="value">77.54</text>
<text x="10" y="110" class="label">blizzard.com</text>
<rect x="180" y="94" width="225.13" height="22" fill="#4c78a8" rx="3"/>
<text x="413.13" y="110" class="value">81.14</text>
<text x="10" y="142" class="label">battle.net</text>
<rect x="180" y="126" width="234.01" height="22" fill="#4c78a8" rx="3"/>
<text x="422.01" y="142" class="value">84.34</text>
<text x="10" y="174" class="label">ubisoft.com</text>
<rect x="180" y="158" width="274.18" height="22" fill="#4c78a8" rx="3"/>
<text x="462.18" y="174" class="value">98.82</text>
<text x="10" y="206" class="label">socialclub.rockstargames.com</text>
<rect x="180" y="190" width="289.36" height="22" fill="#4c78a8" rx="3"/>
<text x="477.36" y="206" class="value">104.29</text>
<text x="10" y="238" class="label">fortnite.com</text>
<rect x="180" y="222" width="297.55" height="22" fill="#4c78a8" rx="3"/>
<text x="485.55" y="238" class="value">107.24</text>
<text x="10" y="270" class="label">steamcdn-a.akamaihd.net</text>
<rect x="180" y="254" width="318.16" height="22" fill="#4c78a8" rx="3"/>
<text x="506.16" y="270" class="value">114.67</text>
<text x="10" y="302" class="label">ubi.com</text>
<rect x="180" y="286" width="362.22" height="22" fill="#4c78a8" rx="3"/>
<text x="550.22" y="302" class="value">130.55</text>
<text x="10" y="334" class="label">cdn.cloudflare.steamstatic.com</text>
<rect x="180" y="318" width="402.09" height="22" fill="#4c78a8" rx="3"/>
<text x="590.0899999999999" y="334" class="value">144.92</text>
<text x="10" y="366" class="label">unrealengine.com</text>
<rect x="180" y="350" width="428.9" height="22" fill="#4c78a8" rx="3"/>
<text x="616.9" y="366" class="value">154.58</text>
<text x="10" y="398" class="label">epicgames.com</text>
<rect x="180" y="382" width="482.75" height="22" fill="#4c78a8" rx="3"/>
<text x="670.75" y="398" class="value">173.99</text>
<text x="10" y="430" class="label">static3.cdn.ubi.com</text>
<rect x="180" y="414" width="511.77" height="22" fill="#4c78a8" rx="3"/>
<text x="699.77" y="430" class="value">184.45</text>
<text x="10" y="462" class="label">gog.com</text>
<rect x="180" y="446" width="529.45" height="22" fill="#4c78a8" rx="3"/>
<text x="717.45" y="462" class="value">190.82</text>
<text x="10" y="494" class="label">origin.com</text>
<rect x="180" y="478" width="580.0" height="22" fill="#4c78a8" rx="3"/>
<text x="768.0" y="494" class="value">209.04</text>
<line x1="180" y1="30" x2="180" y2="520" stroke="#ccc"/>
<line x1="180" y1="520" x2="760" y2="520" stroke="#ccc"/>
</svg>