<svg xmlns="http://www.w3.org/2000/svg" width="800" height="540">
<style> .label{font-family:DejaVu Sans,Verdana,Geneva,sans-serif;font-size:12px;fill:#333} .value{font-family:DejaVu Sans,Verdana,Geneva,sans-serif;font-size:12px;fill:#555} </style>
<text x="10" y="20" class="label">延迟柱状图（越低越好，Top 15），单位 ms</text>
<text x="10" y="46" class="label">eaassets-a.akamaihd.net</text>
<rect x="180" y="30" width="271.22" height="22" fill="#4c78a8" rx="3"/>
<text x="459.22" y="46" class="value">88.00</text>
<text x="10" y="78" class="label">origin.com</text>
<rect x="180" y="62" width="380.78" height="22" fill="#4c78a8" rx="3"/>
<text x="568.78" y="78" class="value">123.55</text>
<text x="10" y="110" class="label">rockstargames.com</text>
<rect x="180" y="94" width="451.51" height="22" fill="#4c78a8" rx="3"/>
<text x="639.51" y="110" class="value">146.50</text>
<text x="10" y="142" class="label">easyanticheat.net</text>
<rect x="180" y="126" width="468.03" height="22" fill="#4c78a8" rx="3"/>
<text x="656.03" y="142" class="value">151.86</text>
<text x="10" y="174" class="label">ubi.com</text>
<rect x="180" y="158" width="483.9" height="22" fill="#4c78a8" rx="3"/>
<text x="671.9" y="174" class="value">157.01</text>
<text x="10" y="206" class="label">ea.com</text>
<rect x="180" y="190" width="486.21" height="22" fill="#4c78a8" rx="3"/>
<text x="674.21" y="206" class="value">157.76</text>
<text x="10" y="238" class="label">store.akamai.steamstatic.com</text>
<rect x="180" y="222" width="508.41" height="22" fill="#4c78a8" rx="3"/>
<text x="696.4100000000001" y="238" class="value">164.96</text>
<text x="10" y="270" class="label">blizzard.com</text>
<rect x="180" y="254" width="531.37" height="22" fill="#4c78a8" rx="3"/>
<text x="719.37" y="270" class="value">172.41</text>
<text x="10" y="302" class="label">ubisoft.com</text>
<rect x="180" y="286" width="538.24" height="22" fill="#4c78a8" rx="3"/>
<text x="726.24" y="302" class="value">174.64</text>
<text x="10" y="334" class="label">community.akamai.steamstatic.com</text>
<rect x="180" y="318" width="543.17" height="22" fill="#4c78a8" rx="3"/>
<text x="731.17" y="334" class="value">176.24</text>
<text x="10" y="366" class="label">launcher-public-service-prod06.ol.epicgames.com</text>
<rect x="180" y="350" width="544.46" height="22" fill="#4c78a8" rx="3"/>
<text x="732.46" y="366" class="value">176.66</text>
<text x="10" y="398" class="label">steamcdn-a.akamaihd.net</text>
<rect x="180" y="382" width="559.38" height="22" fill="#4c78a8" rx="3"/>
<text x="747.38" y="398" class="value">181.50</text>
<text x="10" y="430" class="label">api.steampowered.com</text>
<rect x="180" y="414" width="574.98" height="22" fill="#4c78a8" rx="3"/>
<text x="762.98" y="430" class="value">186.56</text>
<text x="10" y="462" class="label">epicgames.com</text>
<rect x="180" y="446" width="579.45" height="22" fill="#4c78a8" rx="3"/>
<text x="767.45" y="462" class="value">188.01</text>
<text x="10" y="494" class="label">unrealengine.com</text>
<rect x="180" y="478" width="580.0" height="22" fill="#4c78a8" rx="3"/>
<text x="768.0" y="494" class="value">188.19</text>
<line x1="180" y1="30" x2="180" y2="520" stroke="#ccc"/>
<line x1="180" y1="520" x2="760" y2="520" stroke="#ccc"/>
</svg>