<svg xmlns="http://www.w3.org/2000/svg" width="800" height="540">
<style> .label{font-family:DejaVu Sans,Verdana,Geneva,sans-serif;font-size:12px;fill:#333} .value{font-family:DejaVu Sans,Verdana,Geneva,sans-serif;font-size:12px;fill:#555} </style>
<text x="10" y="20" class="label">延迟柱状图（越低越好，Top 15），单位 ms</text>
<text x="10" y="46" class="label">ea.com</text>
<rect x="180" y="30" width="200.33" height="22" fill="#4c78a8" rx="3"/>
<text x="388.33000000000004" y="46" class="value">80.51</text>
<text x="10" y="78" class="label">rockstargames.com</text>
<rect x="180" y="62" width="289.45" height="22" fill="#4c78a8" rx="3"/>
<text x="477.45" y="78" class="value">116.33</text>
<text x="10" y="110" class="label">eaassets-a.akamaihd.net</text>
<rect x="180" y="94" width="358.6" height="22" fill="#4c78a8" rx="3"/>
<text x="546.6" y="110" class="value">144.12</text>
<text x="10" y="142" class="label">battle.net</text>
<rect x="180" y="126" width="415.48" height="22" fill="#4c78a8" rx="3"/>
<text x="603.48" y="142" class="value">166.98</text>
<text x="10" y="174" class="label">steamcdn-a.akamaihd.net</text>
<rect x="180" y="158" width="419.51" height="22" fill="#4c78a8" rx="3"/>
<text x="607.51" y="174" class="value">168.60</text>
<text x="10" y="206" class="label">origin.com</text>
<rect x="180" y="190" width="460.22" height="22" fill="#4c78a8" rx="3"/>
<text x="648.22" y="206" class="value">184.96</text>
<text x="10" y="238" class="label">blizzard.com</text>
<rect x="180" y="222" width="474.85" height="22" fill="#4c78a8" rx="3"/>
<text x="662.85" y="238" class="value">190.84</text>
<text x="10" y="270" class="label">store.akamai.steamstatic.com</text>
<rect x="180" y="254" width="484.55" height="22" fill="#4c78a8" rx="3"/>
<text x="672.55" y="270" class="value">194.74</text>
<text x="10" y="302" class="label">easyanticheat.net</text>
<rect x="180" y="286" width="486.84" height="22" fill="#4c78a8" rx="3"/>
<text x="674.8399999999999" y="302" class="value">195.66</text>
<text x="10" y="334" class="label">ubi.com</text>
<rect x="180" y="318" width="497.27" height="22" fill="#4c78a8" rx="3"/>
<text x="685.27" y="334" class="value">199.85</text>
<text x="10" y="366" class="label">socialclub.rockstargames.com</text>
<rect x="180" y="350" width="523.27" height="22" fill="#4c78a8" rx="3"/>
<text x="711.27" y="366" class="value">210.30</text>
<text x="10" y="398" class="label">cdn.cloudflare.steamstatic.com</text>
<rect x="180" y="382" width="546.41" height="22" fill="#4c78a8" rx="3"/>
<text x="734.41" y="398" class="value">219.60</text>
<text x="10" y="430" class="label">static3.cdn.ubi.com</text>
<rect x="180" y="414" width="558.88" height="22" fill="#4c78a8" rx="3"/>
<text x="746.88" y="430" class="value">224.61</text>
<text x="10" y="462" class="label">ubisoft.com</text>
<rect x="180" y="446" width="564.2" height="22" fill="#4c78a8" rx="3"/>
<text x="752.2" y="462" class="value">226.75</text>
<text x="10" y="494" class="label">cdn.akamai.steamstatic.com</text>
<rect x="180" y="478" width="580.0" height="22" fill="#4c78a8" rx="3"/>
<text x="768.0" y="494" class="value">233.10</text>
<line x1="180" y1="30" x2="180" y2="520" stroke="#ccc"/>
<line x1="180" y1="520" x2="760" y2="520" stroke="#ccc"/>
</svg>