<svg xmlns="http://www.w3.org/2000/svg" width="800" height="540">
<style> .label{font-family:DejaVu Sans,Verdana,Geneva,sans-serif;font-size:12px;fill:#333} .value{font-family:DejaVu Sans,Verdana,Geneva,sans-serif;font-size:12px;fill:#555} </style>
<text x="10" y="20" class="label">延迟柱状图（越低越好，Top 15），单位 ms</text>
<text x="10" y="46" class="label">ea.com</text>
<rect x="180" y="30" width="298.35" height="22" fill="#4c78a8" rx="3"/>
<text x="486.35" y="46" class="value">102.36</text>
<text x="10" y="78" class="label">eaassets-a.akamaihd.net</text>
<rect x="180" y="62" width="332.04" height="22" fill="#4c78a8" rx="3"/>
<text x="520.04" y="78" class="value">113.92</text>
<text x="10" y="110" class="label">rockstargames.com</text>
<rect x="180" y="94" width="384.45" height="22" fill="#4c78a8" rx="3"/>
<text x="572.45" y="110" class="value">131.90</text>
<text x="10" y="142" class="label">cdn.akamai.steamstatic.com</text>
<rect x="180" y="126" width="468.48" height="22" fill="#4c78a8" rx="3"/>
<text x="656.48" y="142" class="value">160.73</text>
<text x="10" y="174" class="label">unrealengine.com</text>
<rect x="180" y="158" width="479.38" height="22" fill="#4c78a8" rx="3"/>
<text x="667.38" y="174" class="value">164.47</text>
<text x="10" y="206" class="label">blizzard.com</text>
<rect x="180" y="190" width="502.03" height="22" fill="#4c78a8" rx="3"/>
<text x="690.03" y="206" class="value">172.24</text>
<text x="10" y="238" class="label">origin.com</text>
<rect x="180" y="222" width="503.17" height="22" fill="#4c78a8" rx="3"/>
<text x="691.1700000000001" y="238" class="value">172.63</text>
<text x="10" y="270" class="label">store.akamai.steamstatic.com</text>
<rect x="180" y="254" width="510.08" height="22" fill="#4c78a8" rx="3"/>
<text x="698.0799999999999" y="270" class="value">175.00</text>
<text x="10" y="302" class="label">ubi.com</text>
<rect x="180" y="286" width="526.98" height="22" fill="#4c78a8" rx="3"/>
<text x="714.98" y="302" class="value">180.80</text>
<text x="10" y="334" class="label">community.akamai.steamstatic.com</text>
<rect x="180" y="318" width="538.2" height="22" fill="#4c78a8" rx="3"/>
<text x="726.2" y="334" class="value">184.65</text>
<text x="10" y="366" class="label">steamcdn-a.akamaihd.net</text>
<rect x="180" y="350" width="547.44" height="22" fill="#4c78a8" rx="3"/>
<text x="735.44" y="366" class="value">187.82</text>
<text x="10" y="398" class="label">ubisoft.com</text>
<rect x="180" y="382" width="562.28" height="22" fill="#4c78a8" rx="3"/>
<text x="750.28" y="398" class="value">192.91</text>
<text x="10" y="430" class="label">battle.net</text>
<rect x="180" y="414" width="566.53" height="22" fill="#4c78a8" rx="3"/>
<text x="754.53" y="430" class="value">194.37</text>
<text x="10" y="462" class="label">fortnite.com</text>
<rect x="180" y="446" width="572.95" height="22" fill="#4c78a8" rx="3"/>
<text x="760.95" y="462" class="value">196.57</text>
<text x="10" y="494" class="label">api.steampowered.com</text>
<rect x="180" y="478" width="580.0" height="22" fill="#4c78a8" rx="3"/>
<text x="768.0" y="494" class="value">198.99</text>
<line x1="180" y1="30" x2="180" y2="520" stroke="#ccc"/>
<line x1="180" y1="520" x2="760" y2="520" stroke="#ccc"/>
</svg>