<svg xmlns="http://www.w3.org/2000/svg" width="800" height="540">
<style> .label{font-family:DejaVu Sans,Verdana,Geneva,sans-serif;font-size:12px;fill:#333} .value{font-family:DejaVu Sans,Verdana,Geneva,sans-serif;font-size:12px;fill:#555} </style>
<text x="10" y="20" class="label">延迟柱状图（越低越好，Top 15），单位 ms</text>
<text x="10" y="46" class="label">rockstargames.com</text>
<rect x="180" y="30" width="202.39" height="22" fill="#4c78a8" rx="3"/>
<text x="390.39" y="46" class="value">76.15</text>
<text x="10" y="78" class="label">socialclub.rockstargames.com</text>
<rect x="180" y="62" width="203.93" height="22" fill="#4c78a8" rx="3"/>
<text x="391.93" y="78" class="value">76.73</text>
<text x="10" y="110" class="label">unrealengine.com</text>
<rect x="180" y="94" width="210.09" height="22" fill="#4c78a8" rx="3"/>
<text x="398.09000000000003" y="110" class="value">79.05</text>
<text x="10" y="142" class="label">cdn.akamai.steamstatic.com</text>
<rect x="180" y="126" width="232.55" height="22" fill="#4c78a8" rx="3"/>
<text x="420.55" y="142" class="value">87.50</text>
<text x="10" y="174" class="label">battle.net</text>
<rect x="180" y="158" width="277.89" height="22" fill="#4c78a8" rx="3"/>
<text x="465.89" y="174" class="value">104.56</text>
<text x="10" y="206" class="label">ea.com</text>
<rect x="180" y="190" width="289.83" height="22" fill="#4c78a8" rx="3"/>
<text x="477.83" y="206" class="value">109.05</text>
<text x="10" y="238" class="label">blizzard.com</text>
<rect x="180" y="222" width="296.98" height="22" fill="#4c78a8" rx="3"/>
<text x="484.98" y="238" class="value">111.74</text>
<text x="10" y="270" class="label">ubi.com</text>
<rect x="180" y="254" width="304.1" height="22" fill="#4c78a8" rx="3"/>
<text x="492.1" y="270" class="value">114.42</text>
<text x="10" y="302" class="label">ubisoft.com</text>
<rect x="180" y="286" width="357.49" height="22" fill="#4c78a8" rx="3"/>
<text x="545.49" y="302" class="value">134.51</text>
<text x="10" y="334" class="label">steamcdn-a.akamaihd.net</text>
<rect x="180" y="318" width="396.62" height="22" fill="#4c78a8" rx="3"/>
<text x="584.62" y="334" class="value">149.23</text>
<text x="10" y="366" class="label">origin.com</text>
<rect x="180" y="350" width="448.36" height="22" fill="#4c78a8" rx="3"/>
<text x="636.36" y="366" class="value">168.70</text>
<text x="10" y="398" class="label">community.akamai.steamstatic.com</text>
<rect x="180" y="382" width="480.87" height="22" fill="#4c78a8" rx="3"/>
<text x="668.87" y="398" class="value">180.93</text>
<text x="10" y="430" class="label">fortnite.com</text>
<rect x="180" y="414" width="487.54" height="22" fill="#4c78a8" rx="3"/>
<text x="675.54" y="430" class="value">183.44</text>
<text x="10" y="462" class="label">store.akamai.steamstatic.com</text>
<rect x="180" y="446" width="518.87" height="22" fill="#4c78a8" rx="3"/>
<text x="706.87" y="462" class="value">195.23</text>
<text x="10" y="494" class="label">static3.cdn.ubi.com</text>
<rect x="180" y="478" width="580.0" height="22" fill="#4c78a8" rx="3"/>
<text x="768.0" y="494" class="value">218.23</text>
<line x1="180" y1="30" x2="180" y2="520" stroke="#ccc"/>
<line x1="180" y1="520" x2="760" y2="520" stroke="#ccc"/>
</svg>