<svg xmlns="http://www.w3.org/2000/svg" width="800" height="540">
<style> .label{font-family:DejaVu Sans,Verdana,Geneva,sans-serif;font-size:12px;fill:#333} .value{font-family:DejaVu Sans,Verdana,Geneva,sans-serif;font-size:12px;fill:#555} </style>
<text x="10" y="20" class="label">延迟柱状图（越低越好，Top 15），单位 ms</text>
<text x="10" y="46" class="label">rockstargames.com</text>
<rect x="180" y="30" width="75.07" height="22" fill="#4c78a8" rx="3"/>
<text x="263.07" y="46" class="value">31.73</text>
<text x="10" y="78" class="label">eaassets-a.akamaihd.net</text>
<rect x="180" y="62" width="99.93" height="22" fill="#4c78a8" rx="3"/>
<text x="287.93" y="78" class="value">42.24</text>
<text x="10" y="110" class="label">ea.com</text>
<rect x="180" y="94" width="217.35" height="22" fill="#4c78a8" rx="3"/>
<text x="405.35" y="110" class="value">91.87</text>
<text x="10" y="142" class="label">steamcdn-a.akamaihd.net</text>
<rect x="180" y="126" width="241.26" height="22" fill="#4c78a8" rx="3"/>
<text x="429.26" y="142" class="value">101.98</text>
<text x="10" y="174" class="label">ubisoft.com</text>
<rect x="180" y="158" width="288.75" height="22" fill="#4c78a8" rx="3"/>
<text x="476.75" y="174" class="value">122.05</text>
<text x="10" y="206" class="label">origin.com</text>
<rect x="180" y="190" width="334.69" height="22" fill="#4c78a8" rx="3"/>
<text x="522.69" y="206" class="value">141.47</text>
<text x="10" y="238" class="label">easyanticheat.net</text>
<rect x="180" y="222" width="346.76" height="22" fill="#4c78a8" rx="3"/>
<text x="534.76" y="238" class="value">146.57</text>
<text x="10" y="270" class="label">cdn.cloudflare.steamstatic.com</text>
<rect x="180" y="254" width="363.32" height="22" fill="#4c78a8" rx="3"/>
<text x="551.3199999999999" y="270" class="value">153.57</text>
<text x="10" y="302" class="label">store.akamai.steamstatic.com</text>
<rect x="180" y="286" width="369.99" height="22" fill="#4c78a8" rx="3"/>
<text x="557.99" y="302" class="value">156.39</text>
<text x="10" y="334" class="label">community.akamai.steamstatic.com</text>
<rect x="180" y="318" width="370.27" height="22" fill="#4c78a8" rx="3"/>
<text x="558.27" y="334" class="value">156.51</text>
<text x="10" y="366" class="label">cdn.akamai.steamstatic.com</text>
<rect x="180" y="350" width="377.09" height="22" fill="#4c78a8" rx="3"/>
<text x="565.0899999999999" y="366" class="value">159.39</text>
<text x="10" y="398" class="label">www.steamcommunity.com</text>
<rect x="180" y="382" width="506.68" height="22" fill="#4c78a8" rx="3"/>
<text x="694.6800000000001" y="398" class="value">214.17</text>
<text x="10" y="430" class="label">steam-chat.com</text>
<rect x="180" y="414" width="523.46" height="22" fill="#4c78a8" rx="3"/>
<text x="711.46" y="430" class="value">221.26</text>
<text x="10" y="462" class="label">api.steampowered.com</text>
<rect x="180" y="446" width="577.09" height="22" fill="#4c78a8" rx="3"/>
<text x="765.09" y="462" class="value">243.93</text>
<text x="10" y="494" class="label">steamcommunity.com</text>
<rect x="180" y="478" width="580.0" height="22" fill="#4c78a8" rx="3"/>
<text x="768.0" y="494" class="value">245.16</text>
<line x1="180" y1="30" x2="180" y2="520" stroke="#ccc"/>
<line x1="180" y1="520" x2="760" y2="520" stroke="#ccc"/>
</svg>