<svg xmlns="http://www.w3.org/2000/svg" width="800" height="540">
<style> .label{font-family:DejaVu Sans,Verdana,Geneva,sans-serif;font-size:12px;fill:#333} .value{font-family:DejaVu Sans,Verdana,Geneva,sans-serif;font-size:12px;fill:#555} </style>
<text x="10" y="20" class="label">延迟柱状图（越低越好，Top 15），单位 ms</text>
<text x="10" y="46" class="label">rockstargames.com</text>
<rect x="180" y="30" width="84.51" height="22" fill="#4c78a8" rx="3"/>
<text x="272.51" y="46" class="value">41.86</text>
<text x="10" y="78" class="label">ea.com</text>
<rect x="180" y="62" width="119.34" height="22" fill="#4c78a8" rx="3"/>
<text x="307.34000000000003" y="78" class="value">59.11</text>
<text x="10" y="110" class="label">eaassets-a.akamaihd.net</text>
<rect x="180" y="94" width="126.32" height="22" fill="#4c78a8" rx="3"/>
<text x="314.32" y="110" class="value">62.57</text>
<text x="10" y="142" class="label">ubisoft.com</text>
<rect x="180" y="126" width="194.72" height="22" fill="#4c78a8" rx="3"/>
<text x="382.72" y="142" class="value">96.45</text>
<text x="10" y="174" class="label">steamcdn-a.akamaihd.net</text>
<rect x="180" y="158" width="213.78" height="22" fill="#4c78a8" rx="3"/>
<text x="401.78" y="174" class="value">105.89</text>
<text x="10" y="206" class="label">origin.com</text>
<rect x="180" y="190" width="235.54" height="22" fill="#4c78a8" rx="3"/>
<text x="423.53999999999996" y="206" class="value">116.67</text>
<text x="10" y="238" class="label">community.akamai.steamstatic.com</text>
<rect x="180" y="222" width="238.93" height="22" fill="#4c78a8" rx="3"/>
<text x="426.93" y="238" class="value">118.35</text>
<text x="10" y="270" class="label">easyanticheat.net</text>
<rect x="180" y="254" width="333.6" height="22" fill="#4c78a8" rx="3"/>
<text x="521.6" y="270" class="value">165.24</text>
<text x="10" y="302" class="label">cdn.cloudflare.steamstatic.com</text>
<rect x="180" y="286" width="384.65" height="22" fill="#4c78a8" rx="3"/>
<text x="572.65" y="302" class="value">190.53</text>
<text x="10" y="334" class="label">cdn.akamai.steamstatic.com</text>
<rect x="180" y="318" width="408.36" height="22" fill="#4c78a8" rx="3"/>
<text x="596.36" y="334" class="value">202.27</text>
<text x="10" y="366" class="label">store.akamai.steamstatic.com</text>
<rect x="180" y="350" width="427.31" height="22" fill="#4c78a8" rx="3"/>
<text x="615.31" y="366" class="value">211.66</text>
<text x="10" y="398" class="label">api.steampowered.com</text>
<rect x="180" y="382" width="434.16" height="22" fill="#4c78a8" rx="3"/>
<text x="622.1600000000001" y="398" class="value">215.05</text>
<text x="10" y="430" class="label">gog.com</text>
<rect x="180" y="414" width="449.99" height="22" fill="#4c78a8" rx="3"/>
<text x="637.99" y="430" class="value">222.89</text>
<text x="10" y="462" class="label">www.steamcommunity.com</text>
<rect x="180" y="446" width="501.61" height="22" fill="#4c78a8" rx="3"/>
<text x="689.61" y="462" class="value">248.46</text>
<text x="10" y="494" class="label">steam-chat.com</text>
<rect x="180" y="478" width="580.0" height="22" fill="#4c78a8" rx="3"/>
<text x="768.0" y="494" class="value">287.29</text>
<line x1="180" y1="30" x2="180" y2="520" stroke="#ccc"/>
<line x1="180" y1="520" x2="760" y2="520" stroke="#ccc"/>
</svg>