<svg xmlns="http://www.w3.org/2000/svg" width="800" height="540">
<style> .label{font-family:DejaVu Sans,Verdana,Geneva,sans-serif;font-size:12px;fill:#333} .value{font-family:DejaVu Sans,Verdana,Geneva,sans-serif;font-size:12px;fill:#555} </style>
<text x="10" y="20" class="label">延迟柱状图（越低越好，Top 15），单位 ms</text>
<text x="10" y="46" class="label">rockstargames.com</text>
<rect x="180" y="30" width="141.19" height="22" fill="#4c78a8" rx="3"/>
<text x="329.19" y="46" class="value">65.54</text>
<text x="10" y="78" class="label">store.akamai.steamstatic.com</text>
<rect x="180" y="62" width="252.32" height="22" fill="#4c78a8" rx="3"/>
<text x="440.32" y="78" class="value">117.13</text>
<text x="10" y="110" class="label">eaassets-a.akamaihd.net</text>
<rect x="180" y="94" width="266.95" height="22" fill="#4c78a8" rx="3"/>
<text x="454.95" y="110" class="value">123.92</text>
<text x="10" y="142" class="label">ea.com</text>
<rect x="180" y="126" width="273.74" height="22" fill="#4c78a8" rx="3"/>
<text x="461.74" y="142" class="value">127.07</text>
<text x="10" y="174" class="label">ubisoft.com</text>
<rect x="180" y="158" width="281.94" height="22" fill="#4c78a8" rx="3"/>
<text x="469.94" y="174" class="value">130.88</text>
<text x="10" y="206" class="label">community.akamai.steamstatic.com</text>
<rect x="180" y="190" width="290.11" height="22" fill="#4c78a8" rx="3"/>
<text x="478.11" y="206" class="value">134.67</text>
<text x="10" y="238" class="label">origin.com</text>
<rect x="180" y="222" width="299.61" height="22" fill="#4c78a8" rx="3"/>
<text x="487.61" y="238" class="value">139.08</text>
<text x="10" y="270" class="label">steamcdn-a.akamaihd.net</text>
<rect x="180" y="254" width="341.87" height="22" fill="#4c78a8" rx="3"/>
<text x="529.87" y="270" class="value">158.70</text>
<text x="10" y="302" class="label">cdn.akamai.steamstatic.com</text>
<rect x="180" y="286" width="371.71" height="22" fill="#4c78a8" rx="3"/>
<text x="559.71" y="302" class="value">172.55</text>
<text x="10" y="334" class="label">cdn.cloudflare.steamstatic.com</text>
<rect x="180" y="318" width="382.89" height="22" fill="#4c78a8" rx="3"/>
<text x="570.89" y="334" class="value">177.74</text>
<text x="10" y="366" class="label">easyanticheat.net</text>
<rect x="180" y="350" width="394.09" height="22" fill="#4c78a8" rx="3"/>
<text x="582.0899999999999" y="366" class="value">182.94</text>
<text x="10" y="398" class="label">steam-chat.com</text>
<rect x="180" y="382" width="458.33" height="22" fill="#4c78a8" rx="3"/>
<text x="646.3299999999999" y="398" class="value">212.76</text>
<text x="10" y="430" class="label">gog.com</text>
<rect x="180" y="414" width="554.77" height="22" fill="#4c78a8" rx="3"/>
<text x="742.77" y="430" class="value">257.53</text>
<text x="10" y="462" class="label">www.steamcommunity.com</text>
<rect x="180" y="446" width="557.14" height="22" fill="#4c78a8" rx="3"/>
<text x="745.14" y="462" class="value">258.63</text>
<text x="10" y="494" class="label">api.steampowered.com</text>
<rect x="180" y="478" width="580.0" height="22" fill="#4c78a8" rx="3"/>
<text x="768.0" y="494" class="value">269.24</text>
<line x1="180" y1="30" x2="180" y2="520" stroke="#ccc"/>
<line x1="180" y1="520" x2="760" y2="520" stroke="#ccc"/>
</svg>