<svg xmlns="http://www.w3.org/2000/svg" width="800" height="540">
<style> .label{font-family:DejaVu Sans,Verdana,Geneva,sans-serif;font-size:12px;fill:#333} .value{font-family:DejaVu Sans,Verdana,Geneva,sans-serif;font-size:12px;fill:#555} </style>
<text x="10" y="20" class="label">延迟柱状图（越低越好，Top 15），单位 ms</text>
<text x="10" y="46" class="label">community.akamai.steamstatic.com</text>
<rect x="180" y="30" width="262.75" height="22" fill="#4c78a8" rx="3"/>
<text x="450.75" y="46" class="value">80.79</text>
<text x="10" y="78" class="label">store.akamai.steamstatic.com</text>
<rect x="180" y="62" width="282.88" height="22" fill="#4c78a8" rx="3"/>
<text x="470.88" y="78" class="value">86.98</text>
<text x="10" y="110" class="label">eaassets-a.akamaihd.net</text>
<rect x="180" y="94" width="302.13" height="22" fill="#4c78a8" rx="3"/>
<text x="490.13" y="110" class="value">92.90</text>
<text x="10" y="142" class="label">origin.com</text>
<rect x="180" y="126" width="304.41" height="22" fill="#4c78a8" rx="3"/>
<text x="492.41" y="142" class="value">93.60</text>
<text x="10" y="174" class="label">rockstargames.com</text>
<rect x="180" y="158" width="312.21" height="22" fill="#4c78a8" rx="3"/>
<text x="500.21" y="174" class="value">96.00</text>
<text x="10" y="206" class="label">ea.com</text>
<rect x="180" y="190" width="316.93" height="22" fill="#4c78a8" rx="3"/>
<text x="504.93" y="206" class="value">97.45</text>
<text x="10" y="238" class="label">steamcdn-a.akamaihd.net</text>
<rect x="180" y="222" width="420.45" height="22" fill="#4c78a8" rx="3"/>
<text x="608.45" y="238" class="value">129.28</text>
<text x="10" y="270" class="label">blizzard.com</text>
<rect x="180" y="254" width="423.73" height="22" fill="#4c78a8" rx="3"/>
<text x="611.73" y="270" class="value">130.29</text>
<text x="10" y="302" class="label">ubisoft.com</text>
<rect x="180" y="286" width="445.91" height="22" fill="#4c78a8" rx="3"/>
<text x="633.9100000000001" y="302" class="value">137.11</text>
<text x="10" y="334" class="label">ubi.com</text>
<rect x="180" y="318" width="450.56" height="22" fill="#4c78a8" rx="3"/>
<text x="638.56" y="334" class="value">138.54</text>
<text x="10" y="366" class="label">socialclub.rockstargames.com</text>
<rect x="180" y="350" width="456.9" height="22" fill="#4c78a8" rx="3"/>
<text x="644.9" y="366" class="value">140.49</text>
<text x="10" y="398" class="label">cdn.cloudflare.steamstatic.com</text>
<rect x="180" y="382" width="458.17" height="22" fill="#4c78a8" rx="3"/>
<text x="646.1700000000001" y="398" class="value">140.88</text>
<text x="10" y="430" class="label">easyanticheat.net</text>
<rect x="180" y="414" width="491.57" height="22" fill="#4c78a8" rx="3"/>
<text x="679.5699999999999" y="430" class="value">151.15</text>
<text x="10" y="462" class="label">battle.net</text>
<rect x="180" y="446" width="559.19" height="22" fill="#4c78a8" rx="3"/>
<text x="747.19" y="462" class="value">171.94</text>
<text x="10" y="494" class="label">launcher-public-service-prod06.ol.epicgames.com</text>
<rect x="180" y="478" width="580.0" height="22" fill="#4c78a8" rx="3"/>
<text x="768.0" y="494" class="value">178.34</text>
<line x1="180" y1="30" x2="180" y2="520" stroke="#ccc"/>
<line x1="180" y1="520" x2="760" y2="520" stroke="#ccc"/>
</svg>