<svg xmlns="http://www.w3.org/2000/svg" width="800" height="540">
<style> .label{font-family:DejaVu Sans,Verdana,Geneva,sans-serif;font-size:12px;fill:#333} .value{font-family:DejaVu Sans,Verdana,Geneva,sans-serif;font-size:12px;fill:#555} </style>
<text x="10" y="20" class="label">延迟柱状图（越低越好，Top 15），单位 ms</text>
<text x="10" y="46" class="label">store.akamai.steamstatic.com</text>
<rect x="180" y="30" width="239.29" height="22" fill="#4c78a8" rx="3"/>
<text x="427.28999999999996" y="46" class="value">86.84</text>
<text x="10" y="78" class="label">rockstargames.com</text>
<rect x="180" y="62" width="312.58" height="22" fill="#4c78a8" rx="3"/>
<text x="500.58" y="78" class="value">113.44</text>
<text x="10" y="110" class="label">eaassets-a.akamaihd.net</text>
<rect x="180" y="94" width="329.55" height="22" fill="#4c78a8" rx="3"/>
<text x="517.55" y="110" class="value">119.60</text>
<text x="10" y="142" class="label">origin.com</text>
<rect x="180" y="126" width="331.04" height="22" fill="#4c78a8" rx="3"/>
<text x="519.04" y="142" class="value">120.14</text>
<text x="10" y="174" class="label">cdn.cloudflare.steamstatic.com</text>
<rect x="180" y="158" width="357.69" height="22" fill="#4c78a8" rx="3"/>
<text x="545.69" y="174" class="value">129.81</text>
<text x="10" y="206" class="label">ea.com</text>
<rect x="180" y="190" width="377.42" height="22" fill="#4c78a8" rx="3"/>
<text x="565.4200000000001" y="206" class="value">136.97</text>
<text x="10" y="238" class="label">cdn.akamai.steamstatic.com</text>
<rect x="180" y="222" width="431.2" height="22" fill="#4c78a8" rx="3"/>
<text x="619.2" y="238" class="value">156.49</text>
<text x="10" y="270" class="label">easyanticheat.net</text>
<rect x="180" y="254" width="459.28" height="22" fill="#4c78a8" rx="3"/>
<text x="647.28" y="270" class="value">166.68</text>
<text x="10" y="302" class="label">steamcdn-a.akamaihd.net</text>
<rect x="180" y="286" width="486.84" height="22" fill="#4c78a8" rx="3"/>
<text x="674.8399999999999" y="302" class="value">176.68</text>
<text x="10" y="334" class="label">blizzard.com</text>
<rect x="180" y="318" width="490.12" height="22" fill="#4c78a8" rx="3"/>
<text x="678.12" y="334" class="value">177.87</text>
<text x="10" y="366" class="label">battle.net</text>
<rect x="180" y="350" width="522.44" height="22" fill="#4c78a8" rx="3"/>
<text x="710.44" y="366" class="value">189.60</text>
<text x="10" y="398" class="label">ubisoft.com</text>
<rect x="180" y="382" width="572.59" height="22" fill="#4c78a8" rx="3"/>
<text x="760.59" y="398" class="value">207.80</text>
<text x="10" y="430" class="label">static3.cdn.ubi.com</text>
<rect x="180" y="414" width="574.65" height="22" fill="#4c78a8" rx="3"/>
<text x="762.65" y="430" class="value">208.55</text>
<text x="10" y="462" class="label">socialclub.rockstargames.com</text>
<rect x="180" y="446" width="579.83" height="22" fill="#4c78a8" rx="3"/>
<text x="767.83" y="462" class="value">210.43</text>
<text x="10" y="494" class="label">ubi.com</text>
<rect x="180" y="478" width="580.0" height="22" fill="#4c78a8" rx="3"/>
<text x="768.0" y="494" class="value">210.49</text>
<line x1="180" y1="30" x2="180" y2="520" stroke="#ccc"/>
<line x1="180" y1="520" x2="760" y2="520" stroke="#ccc"/>
</svg>