<svg xmlns="http://www.w3.org/2000/svg" width="800" height="540">
<style> .label{font-family:DejaVu Sans,Verdana,Geneva,sans-serif;font-size:12px;fill:#333} .value{font-family:DejaVu Sans,Verdana,Geneva,sans-serif;font-size:12px;fill:#555} </style>
<text x="10" y="20" class="label">延迟柱状图（越低越好，Top 15），单位 ms</text>
<text x="10" y="46" class="label">rockstargames.com</text>
<rect x="180" y="30" width="295.69" height="22" fill="#4c78a8" rx="3"/>
<text x="483.69" y="46" class="value">114.75</text>
<text x="10" y="78" class="label">easyanticheat.net</text>
<rect x="180" y="62" width="334.17" height="22" fill="#4c78a8" rx="3"/>
<text x="522.1700000000001" y="78" class="value">129.68</text>
<text x="10" y="110" class="label">ubisoft.com</text>
<rect x="180" y="94" width="383.08" height="22" fill="#4c78a8" rx="3"/>
<text x="571.0799999999999" y="110" class="value">148.66</text>
<text x="10" y="142" class="label">battle.net</text>
<rect x="180" y="126" width="397.35" height="22" fill="#4c78a8" rx="3"/>
<text x="585.35" y="142" class="value">154.20</text>
<text x="10" y="174" class="label">cdn.akamai.steamstatic.com</text>
<rect x="180" y="158" width="406.76" height="22" fill="#4c78a8" rx="3"/>
<text x="594.76" y="174" class="value">157.85</text>
<text x="10" y="206" class="label">blizzard.com</text>
<rect x="180" y="190" width="442.27" height="22" fill="#4c78a8" rx="3"/>
<text x="630.27" y="206" class="value">171.63</text>
<text x="10" y="238" class="label">ubi.com</text>
<rect x="180" y="222" width="442.99" height="22" fill="#4c78a8" rx="3"/>
<text x="630.99" y="238" class="value">171.91</text>
<text x="10" y="270" class="label">steamcdn-a.akamaihd.net</text>
<rect x="180" y="254" width="453.79" height="22" fill="#4c78a8" rx="3"/>
<text x="641.79" y="270" class="value">176.10</text>
<text x="10" y="302" class="label">origin.com</text>
<rect x="180" y="286" width="456.83" height="22" fill="#4c78a8" rx="3"/>
<text x="644.8299999999999" y="302" class="value">177.28</text>
<text x="10" y="334" class="label">ea.com</text>
<rect x="180" y="318" width="471.59" height="22" fill="#4c78a8" rx="3"/>
<text x="659.5899999999999" y="334" class="value">183.01</text>
<text x="10" y="366" class="label">eaassets-a.akamaihd.net</text>
<rect x="180" y="350" width="505.25" height="22" fill="#4c78a8" rx="3"/>
<text x="693.25" y="366" class="value">196.07</text>
<text x="10" y="398" class="label">store.akamai.steamstatic.com</text>
<rect x="180" y="382" width="544.57" height="22" fill="#4c78a8" rx="3"/>
<text x="732.57" y="398" class="value">211.33</text>
<text x="10" y="430" class="label">unrealengine.com</text>
<rect x="180" y="414" width="550.62" height="22" fill="#4c78a8" rx="3"/>
<text x="738.62" y="430" class="value">213.68</text>
<text x="10" y="462" class="label">launcher-public-service-prod06.ol.epicgames.com</text>
<rect x="180" y="446" width="552.99" height="22" fill="#4c78a8" rx="3"/>
<text x="740.99" y="462" class="value">214.60</text>
<text x="10" y="494" class="label">fortnite.com</text>
<rect x="180" y="478" width="580.0" height="22" fill="#4c78a8" rx="3"/>
<text x="768.0" y="494" class="value">225.08</text>
<line x1="180" y1="30" x2="180" y2="520" stroke="#ccc"/>
<line x1="180" y1="520" x2="760" y2="520" stroke="#ccc"/>
</svg>