<svg xmlns="http://www.w3.org/2000/svg" width="800" height="540">
<style> .label{font-family:DejaVu Sans,Verdana,Geneva,sans-serif;font-size:12px;fill:#333} .value{font-family:DejaVu Sans,Verdana,Geneva,sans-serif;font-size:12px;fill:#555} </style>
<text x="10" y="20" class="label">延迟柱状图（越低越好，Top 15），单位 ms</text>
<text x="10" y="46" class="label">community.akamai.steamstatic.com</text>
<rect x="180" y="30" width="275.0" height="22" fill="#4c78a8" rx="3"/>
<text x="463.0" y="46" class="value">122.32</text>
<text x="10" y="78" class="label">eaassets-a.akamaihd.net</text>
<rect x="180" y="62" width="321.23" height="22" fill="#4c78a8" rx="3"/>
<text x="509.23" y="78" class="value">142.88</text>
<text x="10" y="110" class="label">steamcdn-a.akamaihd.net</text>
<rect x="180" y="94" width="344.34" height="22" fill="#4c78a8" rx="3"/>
<text x="532.3399999999999" y="110" class="value">153.16</text>
<text x="10" y="142" class="label">ea.com</text>
<rect x="180" y="126" width="410.64" height="22" fill="#4c78a8" rx="3"/>
<text x="598.64" y="142" class="value">182.65</text>
<text x="10" y="174" class="label">rockstargames.com</text>
<rect x="180" y="158" width="442.27" height="22" fill="#4c78a8" rx="3"/>
<text x="630.27" y="174" class="value">196.72</text>
<text x="10" y="206" class="label">ubi.com</text>
<rect x="180" y="190" width="453.02" height="22" fill="#4c78a8" rx="3"/>
<text x="641.02" y="206" class="value">201.50</text>
<text x="10" y="238" class="label">ubisoft.com</text>
<rect x="180" y="222" width="479.28" height="22" fill="#4c78a8" rx="3"/>
<text x="667.28" y="238" class="value">213.18</text>
<text x="10" y="270" class="label">cdn.cloudflare.steamstatic.com</text>
<rect x="180" y="254" width="484.38" height="22" fill="#4c78a8" rx="3"/>
<text x="672.38" y="270" class="value">215.45</text>
<text x="10" y="302" class="label">origin.com</text>
<rect x="180" y="286" width="497.67" height="22" fill="#4c78a8" rx="3"/>
<text x="685.6700000000001" y="302" class="value">221.36</text>
<text x="10" y="334" class="label">blizzard.com</text>
<rect x="180" y="318" width="501.15" height="22" fill="#4c78a8" rx="3"/>
<text x="689.15" y="334" class="value">222.91</text>
<text x="10" y="366" class="label">battle.net</text>
<rect x="180" y="350" width="503.83" height="22" fill="#4c78a8" rx="3"/>
<text x="691.8299999999999" y="366" class="value">224.10</text>
<text x="10" y="398" class="label">store.akamai.steamstatic.com</text>
<rect x="180" y="382" width="546.03" height="22" fill="#4c78a8" rx="3"/>
<text x="734.03" y="398" class="value">242.87</text>
<text x="10" y="430" class="label">cdn.akamai.steamstatic.com</text>
<rect x="180" y="414" width="551.74" height="22" fill="#4c78a8" rx="3"/>
<text x="739.74" y="430" class="value">245.41</text>
<text x="10" y="462" class="label">fortnite.com</text>
<rect x="180" y="446" width="578.54" height="22" fill="#4c78a8" rx="3"/>
<text x="766.54" y="462" class="value">257.33</text>
<text x="10" y="494" class="label">easyanticheat.net</text>
<rect x="180" y="478" width="580.0" height="22" fill="#4c78a8" rx="3"/>
<text x="768.0" y="494" class="value">257.98</text>
<line x1="180" y1="30" x2="180" y2="520" stroke="#ccc"/>
<line x1="180" y1="520" x2="760" y2="520" stroke="#ccc"/>
</svg>