<svg xmlns="http://www.w3.org/2000/svg" width="800" height="540">
<style> .label{font-family:DejaVu Sans,Verdana,Geneva,sans-serif;font-size:12px;fill:#333} .value{font-family:DejaVu Sans,Verdana,Geneva,sans-serif;font-size:12px;fill:#555} </style>
<text x="10" y="20" class="label">延迟柱状图（越低越好，Top 15），单位 ms</text>
<text x="10" y="46" class="label">blizzard.com</text>
<rect x="180" y="30" width="260.73" height="22" fill="#4c78a8" rx="3"/>
<text x="448.73" y="46" class="value">85.53</text>
<text x="10" y="78" class="label">socialclub.rockstargames.com</text>
<rect x="180" y="62" width="283.6" height="22" fill="#4c78a8" rx="3"/>
<text x="471.6" y="78" class="value">93.03</text>
<text x="10" y="110" class="label">ubi.com</text>
<rect x="180" y="94" width="291.68" height="22" fill="#4c78a8" rx="3"/>
<text x="479.68" y="110" class="value">95.68</text>
<text x="10" y="142" class="label">battle.net</text>
<rect x="180" y="126" width="306.71" height="22" fill="#4c78a8" rx="3"/>
<text x="494.71" y="142" class="value">100.61</text>
<text x="10" y="174" class="label">rockstargames.com</text>
<rect x="180" y="158" width="369.81" height="22" fill="#4c78a8" rx="3"/>
<text x="557.81" y="174" class="value">121.31</text>
<text x="10" y="206" class="label">static3.cdn.ubi.com</text>
<rect x="180" y="190" width="466.84" height="22" fill="#4c78a8" rx="3"/>
<text x="654.8399999999999" y="206" class="value">153.14</text>
<text x="10" y="238" class="label">ea.com</text>
<rect x="180" y="222" width="471.6" height="22" fill="#4c78a8" rx="3"/>
<text x="659.6" y="238" class="value">154.70</text>
<text x="10" y="270" class="label">ubisoft.com</text>
<rect x="180" y="254" width="496.84" height="22" fill="#4c78a8" rx="3"/>
<text x="684.8399999999999" y="270" class="value">162.98</text>
<text x="10" y="302" class="label">cdn.akamai.steamstatic.com</text>
<rect x="180" y="286" width="498.42" height="22" fill="#4c78a8" rx="3"/>
<text x="686.4200000000001" y="302" class="value">163.50</text>
<text x="10" y="334" class="label">fortnite.com</text>
<rect x="180" y="318" width="502.93" height="22" fill="#4c78a8" rx="3"/>
<text x="690.9300000000001" y="334" class="value">164.98</text>
<text x="10" y="366" class="label">steamcdn-a.akamaihd.net</text>
<rect x="180" y="350" width="503.82" height="22" fill="#4c78a8" rx="3"/>
<text x="691.8199999999999" y="366" class="value">165.27</text>
<text x="10" y="398" class="label">unrealengine.com</text>
<rect x="180" y="382" width="512.23" height="22" fill="#4c78a8" rx="3"/>
<text x="700.23" y="398" class="value">168.03</text>
<text x="10" y="430" class="label">origin.com</text>
<rect x="180" y="414" width="555.28" height="22" fill="#4c78a8" rx="3"/>
<text x="743.28" y="430" class="value">182.15</text>
<text x="10" y="462" class="label">community.akamai.steamstatic.com</text>
<rect x="180" y="446" width="574.94" height="22" fill="#4c78a8" rx="3"/>
<text x="762.94" y="462" class="value">188.60</text>
<text x="10" y="494" class="label">store.akamai.steamstatic.com</text>
<rect x="180" y="478" width="580.0" height="22" fill="#4c78a8" rx="3"/>
<text x="768.0" y="494" class="value">190.26</text>
<line x1="180" y1="30" x2="180" y2="520" stroke="#ccc"/>
<line x1="180" y1="520" x2="760" y2="520" stroke="#ccc"/>
</svg>