<svg xmlns="http://www.w3.org/2000/svg" width="800" height="540">
<style> .label{font-family:DejaVu Sans,Verdana,Geneva,sans-serif;font-size:12px;fill:#333} .value{font-family:DejaVu Sans,Verdana,Geneva,sans-serif;font-size:12px;fill:#555} </style>
<text x="10" y="20" class="label">延迟柱状图（越低越好，Top 15），单位 ms</text>
<text x="10" y="46" class="label">rockstargames.com</text>
<rect x="180" y="30" width="223.08" height="22" fill="#4c78a8" rx="3"/>
<text x="411.08000000000004" y="46" class="value">65.85</text>
<text x="10" y="78" class="label">unrealengine.com</text>
<rect x="180" y="62" width="284.29" height="22" fill="#4c78a8" rx="3"/>
<text x="472.29" y="78" class="value">83.92</text>
<text x="10" y="110" class="label">ubi.com</text>
<rect x="180" y="94" width="320.13" height="22" fill="#4c78a8" rx="3"/>
<text x="508.13" y="110" class="value">94.50</text>
<text x="10" y="142" class="label">blizzard.com</text>
<rect x="180" y="126" width="326.26" height="22" fill="#4c78a8" rx="3"/>
<text x="514.26" y="142" class="value">96.31</text>
<text x="10" y="174" class="label">battle.net</text>
<rect x="180" y="158" width="366.65" height="22" fill="#4c78a8" rx="3"/>
<text x="554.65" y="174" class="value">108.23</text>
<text x="10" y="206" class="label">socialclub.rockstargames.com</text>
<rect x="180" y="190" width="368.14" height="22" fill="#4c78a8" rx="3"/>
<text x="556.14" y="206" class="value">108.67</text>
<text x="10" y="238" class="label">cdn.akamai.steamstatic.com</text>
<rect x="180" y="222" width="409.16" height="22" fill="#4c78a8" rx="3"/>
<text x="597.1600000000001" y="238" class="value">120.78</text>
<text x="10" y="270" class="label">eaassets-a.akamaihd.net</text>
<rect x="180" y="254" width="483.59" height="22" fill="#4c78a8" rx="3"/>
<text x="671.5899999999999" y="270" class="value">142.75</text>
<text x="10" y="302" class="label">ea.com</text>
<rect x="180" y="286" width="513.74" height="22" fill="#4c78a8" rx="3"/>
<text x="701.74" y="302" class="value">151.65</text>
<text x="10" y="334" class="label">launcher-public-service-prod06.ol.epicgames.com</text>
<rect x="180" y="318" width="519.77" height="22" fill="#4c78a8" rx="3"/>
<text x="707.77" y="334" class="value">153.43</text>
<text x="10" y="366" class="label">fortnite.com</text>
<rect x="180" y="350" width="527.53" height="22" fill="#4c78a8" rx="3"/>
<text x="715.53" y="366" class="value">155.72</text>
<text x="10" y="398" class="label">steamcdn-a.akamaihd.net</text>
<rect x="180" y="382" width="536.88" height="22" fill="#4c78a8" rx="3"/>
<text x="724.88" y="398" class="value">158.48</text>
<text x="10" y="430" class="label">community.akamai.steamstatic.com</text>
<rect x="180" y="414" width="550.46" height="22" fill="#4c78a8" rx="3"/>
<text x="738.46" y="430" class="value">162.49</text>
<text x="10" y="462" class="label">cdn.cloudflare.steamstatic.com</text>
<rect x="180" y="446" width="565.33" height="22" fill="#4c78a8" rx="3"/>
<text x="753.33" y="462" class="value">166.88</text>
<text x="10" y="494" class="label">epicgames.com</text>
<rect x="180" y="478" width="580.0" height="22" fill="#4c78a8" rx="3"/>
<text x="768.0" y="494" class="value">171.21</text>
<line x1="180" y1="30" x2="180" y2="520" stroke="#ccc"/>
<line x1="180" y1="520" x2="760" y2="520" stroke="#ccc"/>
</svg>