<svg xmlns="http://www.w3.org/2000/svg" width="800" height="540">
<style> .label{font-family:DejaVu Sans,Verdana,Geneva,sans-serif;font-size:12px;fill:#333} .value{font-family:DejaVu Sans,Verdana,Geneva,sans-serif;font-size:12px;fill:#555} </style>
<text x="10" y="20" class="label">延迟柱状图（越低越好，Top 15），单位 ms</text>
<text x="10" y="46" class="label">eaassets-a.akamaihd.net</text>
<rect x="180" y="30" width="301.73" height="22" fill="#4c78a8" rx="3"/>
<text x="489.73" y="46" class="value">102.75</text>
<text x="10" y="78" class="label">origin.com</text>
<rect x="180" y="62" width="319.53" height="22" fill="#4c78a8" rx="3"/>
<text x="507.53" y="78" class="value">108.81</text>
<text x="10" y="110" class="label">rockstargames.com</text>
<rect x="180" y="94" width="408.01" height="22" fill="#4c78a8" rx="3"/>
<text x="596.01" y="110" class="value">138.94</text>
<text x="10" y="142" class="label">cdn.akamai.steamstatic.com</text>
<rect x="180" y="126" width="424.33" height="22" fill="#4c78a8" rx="3"/>
<text x="612.3299999999999" y="142" class="value">144.50</text>
<text x="10" y="174" class="label">ubi.com</text>
<rect x="180" y="158" width="453.58" height="22" fill="#4c78a8" rx="3"/>
<text x="641.5799999999999" y="174" class="value">154.46</text>
<text x="10" y="206" class="label">store.akamai.steamstatic.com</text>
<rect x="180" y="190" width="473.08" height="22" fill="#4c78a8" rx="3"/>
<text x="661.0799999999999" y="206" class="value">161.10</text>
<text x="10" y="238" class="label">battle.net</text>
<rect x="180" y="222" width="482.45" height="22" fill="#4c78a8" rx="3"/>
<text x="670.45" y="238" class="value">164.29</text>
<text x="10" y="270" class="label">blizzard.com</text>
<rect x="180" y="254" width="483.12" height="22" fill="#4c78a8" rx="3"/>
<text x="671.12" y="270" class="value">164.52</text>
<text x="10" y="302" class="label">steamcdn-a.akamaihd.net</text>
<rect x="180" y="286" width="483.56" height="22" fill="#4c78a8" rx="3"/>
<text x="671.56" y="302" class="value">164.67</text>
<text x="10" y="334" class="label">easyanticheat.net</text>
<rect x="180" y="318" width="492.64" height="22" fill="#4c78a8" rx="3"/>
<text x="680.64" y="334" class="value">167.76</text>
<text x="10" y="366" class="label">www.steamcommunity.com</text>
<rect x="180" y="350" width="518.27" height="22" fill="#4c78a8" rx="3"/>
<text x="706.27" y="366" class="value">176.49</text>
<text x="10" y="398" class="label">epicgames.com</text>
<rect x="180" y="382" width="538.71" height="22" fill="#4c78a8" rx="3"/>
<text x="726.71" y="398" class="value">183.45</text>
<text x="10" y="430" class="label">ea.com</text>
<rect x="180" y="414" width="545.94" height="22" fill="#4c78a8" rx="3"/>
<text x="733.94" y="430" class="value">185.91</text>
<text x="10" y="462" class="label">unrealengine.com</text>
<rect x="180" y="446" width="547.61" height="22" fill="#4c78a8" rx="3"/>
<text x="735.61" y="462" class="value">186.48</text>
<text x="10" y="494" class="label">community.akamai.steamstatic.com</text>
<rect x="180" y="478" width="580.0" height="22" fill="#4c78a8" rx="3"/>
<text x="768.0" y="494" class="value">197.51</text>
<line x1="180" y1="30" x2="180" y2="520" stroke="#ccc"/>
<line x1="180" y1="520" x2="760" y2="520" stroke="#ccc"/>
</svg>