<svg xmlns="http://www.w3.org/2000/svg" width="800" height="540">
<style> .label{font-family:DejaVu Sans,Verdana,Geneva,sans-serif;font-size:12px;fill:#333} .value{font-family:DejaVu Sans,Verdana,Geneva,sans-serif;font-size:12px;fill:#555} </style>
<text x="10" y="20" class="label">延迟柱状图（越低越好，Top 15），单位 ms</text>
<text x="10" y="46" class="label">rockstargames.com</text>
<rect x="180" y="30" width="113.83" height="22" fill="#4c78a8" rx="3"/>
<text x="301.83" y="46" class="value">42.94</text>
<text x="10" y="78" class="label">eaassets-a.akamaihd.net</text>
<rect x="180" y="62" width="126.82" height="22" fill="#4c78a8" rx="3"/>
<text x="314.82" y="78" class="value">47.84</text>
<text x="10" y="110" class="label">socialclub.rockstargames.com</text>
<rect x="180" y="94" width="187.63" height="22" fill="#4c78a8" rx="3"/>
<text x="375.63" y="110" class="value">70.78</text>
<text x="10" y="142" class="label">battle.net</text>
<rect x="180" y="126" width="194.84" height="22" fill="#4c78a8" rx="3"/>
<text x="382.84000000000003" y="142" class="value">73.50</text>
<text x="10" y="174" class="label">ubisoft.com</text>
<rect x="180" y="158" width="224.35" height="22" fill="#4c78a8" rx="3"/>
<text x="412.35" y="174" class="value">84.63</text>
<text x="10" y="206" class="label">ubi.com</text>
<rect x="180" y="190" width="238.51" height="22" fill="#4c78a8" rx="3"/>
<text x="426.51" y="206" class="value">89.97</text>
<text x="10" y="238" class="label">epicgames.com</text>
<rect x="180" y="222" width="308.3" height="22" fill="#4c78a8" rx="3"/>
<text x="496.3" y="238" class="value">116.30</text>
<text x="10" y="270" class="label">ea.com</text>
<rect x="180" y="254" width="373.09" height="22" fill="#4c78a8" rx="3"/>
<text x="561.0899999999999" y="270" class="value">140.74</text>
<text x="10" y="302" class="label">cdn.akamai.steamstatic.com</text>
<rect x="180" y="286" width="387.86" height="22" fill="#4c78a8" rx="3"/>
<text x="575.86" y="302" class="value">146.31</text>
<text x="10" y="334" class="label">unrealengine.com</text>
<rect x="180" y="318" width="397.48" height="22" fill="#4c78a8" rx="3"/>
<text x="585.48" y="334" class="value">149.94</text>
<text x="10" y="366" class="label">fortnite.com</text>
<rect x="180" y="350" width="405.36" height="22" fill="#4c78a8" rx="3"/>
<text x="593.36" y="366" class="value">152.91</text>
<text x="10" y="398" class="label">community.akamai.steamstatic.com</text>
<rect x="180" y="382" width="431.81" height="22" fill="#4c78a8" rx="3"/>
<text x="619.81" y="398" class="value">162.89</text>
<text x="10" y="430" class="label">origin.com</text>
<rect x="180" y="414" width="439.18" height="22" fill="#4c78a8" rx="3"/>
<text x="627.1800000000001" y="430" class="value">165.67</text>
<text x="10" y="462" class="label">static3.cdn.ubi.com</text>
<rect x="180" y="446" width="489.92" height="22" fill="#4c78a8" rx="3"/>
<text x="677.9200000000001" y="462" class="value">184.81</text>
<text x="10" y="494" class="label">launcher-public-service-prod06.ol.epicgames.com</text>
<rect x="180" y="478" width="580.0" height="22" fill="#4c78a8" rx="3"/>
<text x="768.0" y="494" class="value">218.79</text>
<line x1="180" y1="30" x2="180" y2="520" stroke="#ccc"/>
<line x1="180" y1="520" x2="760" y2="520" stroke="#ccc"/>
</svg>