<svg xmlns="http://www.w3.org/2000/svg" width="800" height="540">
<style> .label{font-family:DejaVu Sans,Verdana,Geneva,sans-serif;font-size:12px;fill:#333} .value{font-family:DejaVu Sans,Verdana,Geneva,sans-serif;font-size:12px;fill:#555} </style>
<text x="10" y="20" class="label">延迟柱状图（越低越好，Top 15），单位 ms</text>
<text x="10" y="46" class="label">rockstargames.com</text>
<rect x="180" y="30" width="272.89" height="22" fill="#4c78a8" rx="3"/>
<text x="460.89" y="46" class="value">91.64</text>
<text x="10" y="78" class="label">battle.net</text>
<rect x="180" y="62" width="287.36" height="22" fill="#4c78a8" rx="3"/>
<text x="475.36" y="78" class="value">96.50</text>
<text x="10" y="110" class="label">eaassets-a.akamaihd.net</text>
<rect x="180" y="94" width="296.48" height="22" fill="#4c78a8" rx="3"/>
<text x="484.48" y="110" class="value">99.56</text>
<text x="10" y="142" class="label">socialclub.rockstargames.com</text>
<rect x="180" y="126" width="305.32" height="22" fill="#4c78a8" rx="3"/>
<text x="493.32" y="142" class="value">102.53</text>
<text x="10" y="174" class="label">blizzard.com</text>
<rect x="180" y="158" width="331.14" height="22" fill="#4c78a8" rx="3"/>
<text x="519.14" y="174" class="value">111.20</text>
<text x="10" y="206" class="label">ea.com</text>
<rect x="180" y="190" width="350.2" height="22" fill="#4c78a8" rx="3"/>
<text x="538.2" y="206" class="value">117.60</text>
<text x="10" y="238" class="label">ubi.com</text>
<rect x="180" y="222" width="357.26" height="22" fill="#4c78a8" rx="3"/>
<text x="545.26" y="238" class="value">119.97</text>
<text x="10" y="270" class="label">epicgames.com</text>
<rect x="180" y="254" width="368.66" height="22" fill="#4c78a8" rx="3"/>
<text x="556.6600000000001" y="270" class="value">123.80</text>
<text x="10" y="302" class="label">unrealengine.com</text>
<rect x="180" y="286" width="374.71" height="22" fill="#4c78a8" rx="3"/>
<text x="562.71" y="302" class="value">125.83</text>
<text x="10" y="334" class="label">store.akamai.steamstatic.com</text>
<rect x="180" y="318" width="377.77" height="22" fill="#4c78a8" rx="3"/>
<text x="565.77" y="334" class="value">126.86</text>
<text x="10" y="366" class="label">fortnite.com</text>
<rect x="180" y="350" width="394.69" height="22" fill="#4c78a8" rx="3"/>
<text x="582.69" y="366" class="value">132.54</text>
<text x="10" y="398" class="label">ubisoft.com</text>
<rect x="180" y="382" width="484.65" height="22" fill="#4c78a8" rx="3"/>
<text x="672.65" y="398" class="value">162.75</text>
<text x="10" y="430" class="label">easyanticheat.net</text>
<rect x="180" y="414" width="492.03" height="22" fill="#4c78a8" rx="3"/>
<text x="680.03" y="430" class="value">165.23</text>
<text x="10" y="462" class="label">gog.com</text>
<rect x="180" y="446" width="519.28" height="22" fill="#4c78a8" rx="3"/>
<text x="707.28" y="462" class="value">174.38</text>
<text x="10" y="494" class="label">origin.com</text>
<rect x="180" y="478" width="580.0" height="22" fill="#4c78a8" rx="3"/>
<text x="768.0" y="494" class="value">194.77</text>
<line x1="180" y1="30" x2="180" y2="520" stroke="#ccc"/>
<line x1="180" y1="520" x2="760" y2="520" stroke="#ccc"/>
</svg>