<svg xmlns="http://www.w3.org/2000/svg" width="800" height="540">
<style> .label{font-family:DejaVu Sans,Verdana,Geneva,sans-serif;font-size:12px;fill:#333} .value{font-family:DejaVu Sans,Verdana,Geneva,sans-serif;font-size:12px;fill:#555} </style>
<text x="10" y="20" class="label">延迟柱状图（越低越好，Top 15），单位 ms</text>
<text x="10" y="46" class="label">ea.com</text>
<rect x="180" y="30" width="204.95" height="22" fill="#4c78a8" rx="3"/>
<text x="392.95" y="46" class="value">70.75</text>
<text x="10" y="78" class="label">eaassets-a.akamaihd.net</text>
<rect x="180" y="62" width="225.69" height="22" fill="#4c78a8" rx="3"/>
<text x="413.69" y="78" class="value">77.91</text>
<text x="10" y="110" class="label">cdn.cloudflare.steamstatic.com</text>
<rect x="180" y="94" width="245.04" height="22" fill="#4c78a8" rx="3"/>
<text x="433.03999999999996" y="110" class="value">84.59</text>
<text x="10" y="142" class="label">rockstargames.com</text>
<rect x="180" y="126" width="261.64" height="22" fill="#4c78a8" rx="3"/>
<text x="449.64" y="142" class="value">90.32</text>
<text x="10" y="174" class="label">community.akamai.steamstatic.com</text>
<rect x="180" y="158" width="274.15" height="22" fill="#4c78a8" rx="3"/>
<text x="462.15" y="174" class="value">94.64</text>
<text x="10" y="206" class="label">store.akamai.steamstatic.com</text>
<rect x="180" y="190" width="290.61" height="22" fill="#4c78a8" rx="3"/>
<text x="478.61" y="206" class="value">100.32</text>
<text x="10" y="238" class="label">steamcdn-a.akamaihd.net</text>
<rect x="180" y="222" width="322.68" height="22" fill="#4c78a8" rx="3"/>
<text x="510.68" y="238" class="value">111.39</text>
<text x="10" y="270" class="label">cdn.akamai.steamstatic.com</text>
<rect x="180" y="254" width="329.19" height="22" fill="#4c78a8" rx="3"/>
<text x="517.19" y="270" class="value">113.64</text>
<text x="10" y="302" class="label">blizzard.com</text>
<rect x="180" y="286" width="433.42" height="22" fill="#4c78a8" rx="3"/>
<text x="621.4200000000001" y="302" class="value">149.62</text>
<text x="10" y="334" class="label">socialclub.rockstargames.com</text>
<rect x="180" y="318" width="437.94" height="22" fill="#4c78a8" rx="3"/>
<text x="625.94" y="334" class="value">151.18</text>
<text x="10" y="366" class="label">battle.net</text>
<rect x="180" y="350" width="441.65" height="22" fill="#4c78a8" rx="3"/>
<text x="629.65" y="366" class="value">152.46</text>
<text x="10" y="398" class="label">easyanticheat.net</text>
<rect x="180" y="382" width="474.06" height="22" fill="#4c78a8" rx="3"/>
<text x="662.06" y="398" class="value">163.65</text>
<text x="10" y="430" class="label">ubi.com</text>
<rect x="180" y="414" width="484.26" height="22" fill="#4c78a8" rx="3"/>
<text x="672.26" y="430" class="value">167.17</text>
<text x="10" y="462" class="label">origin.com</text>
<rect x="180" y="446" width="487.36" height="22" fill="#4c78a8" rx="3"/>
<text x="675.36" y="462" class="value">168.24</text>
<text x="10" y="494" class="label">ubisoft.com</text>
<rect x="180" y="478" width="580.0" height="22" fill="#4c78a8" rx="3"/>
<text x="768.0" y="494" class="value">200.22</text>
<line x1="180" y1="30" x2="180" y2="520" stroke="#ccc"/>
<line x1="180" y1="520" x2="760" y2="520" stroke="#ccc"/>
</svg>