<svg xmlns="http://www.w3.org/2000/svg" width="800" height="540">
<style> .label{font-family:DejaVu Sans,Verdana,Geneva,sans-serif;font-size:12px;fill:#333} .value{font-family:DejaVu Sans,Verdana,Geneva,sans-serif;font-size:12px;fill:#555} </style>
<text x="10" y="20" class="label">延迟柱状图（越低越好，Top 15），单位 ms</text>
<text x="10" y="46" class="label">rockstargames.com</text>
<rect x="180" y="30" width="171.69" height="22" fill="#4c78a8" rx="3"/>
<text x="359.69" y="46" class="value">61.43</text>
<text x="10" y="78" class="label">socialclub.rockstargames.com</text>
<rect x="180" y="62" width="250.14" height="22" fill="#4c78a8" rx="3"/>
<text x="438.14" y="78" class="value">89.50</text>
<text x="10" y="110" class="label">eaassets-a.akamaihd.net</text>
<rect x="180" y="94" width="262.69" height="22" fill="#4c78a8" rx="3"/>
<text x="450.69" y="110" class="value">93.99</text>
<text x="10" y="142" class="label">origin.com</text>
<rect x="180" y="126" width="263.48" height="22" fill="#4c78a8" rx="3"/>
<text x="451.48" y="142" class="value">94.27</text>
<text x="10" y="174" class="label">ubisoft.com</text>
<rect x="180" y="158" width="297.24" height="22" fill="#4c78a8" rx="3"/>
<text x="485.24" y="174" class="value">106.35</text>
<text x="10" y="206" class="label">blizzard.com</text>
<rect x="180" y="190" width="313.67" height="22" fill="#4c78a8" rx="3"/>
<text x="501.67" y="206" class="value">112.23</text>
<text x="10" y="238" class="label">ubi.com</text>
<rect x="180" y="222" width="315.77" height="22" fill="#4c78a8" rx="3"/>
<text x="503.77" y="238" class="value">112.98</text>
<text x="10" y="270" class="label">epicgames.com</text>
<rect x="180" y="254" width="336.12" height="22" fill="#4c78a8" rx="3"/>
<text x="524.12" y="270" class="value">120.26</text>
<text x="10" y="302" class="label">battle.net</text>
<rect x="180" y="286" width="366.16" height="22" fill="#4c78a8" rx="3"/>
<text x="554.1600000000001" y="302" class="value">131.01</text>
<text x="10" y="334" class="label">static3.cdn.ubi.com</text>
<rect x="180" y="318" width="415.27" height="22" fill="#4c78a8" rx="3"/>
<text x="603.27" y="334" class="value">148.58</text>
<text x="10" y="366" class="label">ea.com</text>
<rect x="180" y="350" width="488.35" height="22" fill="#4c78a8" rx="3"/>
<text x="676.35" y="366" class="value">174.73</text>
<text x="10" y="398" class="label">community.akamai.steamstatic.com</text>
<rect x="180" y="382" width="533.02" height="22" fill="#4c78a8" rx="3"/>
<text x="721.02" y="398" class="value">190.71</text>
<text x="10" y="430" class="label">unrealengine.com</text>
<rect x="180" y="414" width="548.03" height="22" fill="#4c78a8" rx="3"/>
<text x="736.03" y="430" class="value">196.08</text>
<text x="10" y="462" class="label">cdn.akamai.steamstatic.com</text>
<rect x="180" y="446" width="556.36" height="22" fill="#4c78a8" rx="3"/>
<text x="744.36" y="462" class="value">199.06</text>
<text x="10" y="494" class="label">store.akamai.steamstatic.com</text>
<rect x="180" y="478" width="580.0" height="22" fill="#4c78a8" rx="3"/>
<text x="768.0" y="494" class="value">207.52</text>
<line x1="180" y1="30" x2="180" y2="520" stroke="#ccc"/>
<line x1="180" y1="520" x2="760" y2="520" stroke="#ccc"/>
</svg>