<svg xmlns="http://www.w3.org/2000/svg" width="800" height="540">
<style> .label{font-family:DejaVu Sans,Verdana,Geneva,sans-serif;font-size:12px;fill:#333} .value{font-family:DejaVu Sans,Verdana,Geneva,sans-serif;font-size:12px;fill:#555} </style>
<text x="10" y="20" class="label">延迟柱状图（越低越好，Top 15），单位 ms</text>
<text x="10" y="46" class="label">rockstargames.com</text>
<rect x="180" y="30" width="83.31" height="22" fill="#4c78a8" rx="3"/>
<text x="271.31" y="46" class="value">39.20</text>
<text x="10" y="78" class="label">ea.com</text>
<rect x="180" y="62" width="107.46" height="22" fill="#4c78a8" rx="3"/>
<text x="295.46" y="78" class="value">50.56</text>
<text x="10" y="110" class="label">eaassets-a.akamaihd.net</text>
<rect x="180" y="94" width="112.47" height="22" fill="#4c78a8" rx="3"/>
<text x="300.47" y="110" class="value">52.92</text>
<text x="10" y="142" class="label">ubisoft.com</text>
<rect x="180" y="126" width="247.79" height="22" fill="#4c78a8" rx="3"/>
<text x="435.78999999999996" y="142" class="value">116.59</text>
<text x="10" y="174" class="label">origin.com</text>
<rect x="180" y="158" width="252.76" height="22" fill="#4c78a8" rx="3"/>
<text x="440.76" y="174" class="value">118.93</text>
<text x="10" y="206" class="label">store.akamai.steamstatic.com</text>
<rect x="180" y="190" width="261.2" height="22" fill="#4c78a8" rx="3"/>
<text x="449.2" y="206" class="value">122.90</text>
<text x="10" y="238" class="label">steamcdn-a.akamaihd.net</text>
<rect x="180" y="222" width="279.31" height="22" fill="#4c78a8" rx="3"/>
<text x="467.31" y="238" class="value">131.42</text>
<text x="10" y="270" class="label">community.akamai.steamstatic.com</text>
<rect x="180" y="254" width="301.58" height="22" fill="#4c78a8" rx="3"/>
<text x="489.58" y="270" class="value">141.90</text>
<text x="10" y="302" class="label">cdn.akamai.steamstatic.com</text>
<rect x="180" y="286" width="313.25" height="22" fill="#4c78a8" rx="3"/>
<text x="501.25" y="302" class="value">147.39</text>
<text x="10" y="334" class="label">easyanticheat.net</text>
<rect x="180" y="318" width="343.28" height="22" fill="#4c78a8" rx="3"/>
<text x="531.28" y="334" class="value">161.52</text>
<text x="10" y="366" class="label">cdn.cloudflare.steamstatic.com</text>
<rect x="180" y="350" width="355.54" height="22" fill="#4c78a8" rx="3"/>
<text x="543.54" y="366" class="value">167.29</text>
<text x="10" y="398" class="label">www.steamcommunity.com</text>
<rect x="180" y="382" width="473.73" height="22" fill="#4c78a8" rx="3"/>
<text x="661.73" y="398" class="value">222.90</text>
<text x="10" y="430" class="label">api.steampowered.com</text>
<rect x="180" y="414" width="505.36" height="22" fill="#4c78a8" rx="3"/>
<text x="693.36" y="430" class="value">237.78</text>
<text x="10" y="462" class="label">steam-chat.com</text>
<rect x="180" y="446" width="517.13" height="22" fill="#4c78a8" rx="3"/>
<text x="705.13" y="462" class="value">243.32</text>
<text x="10" y="494" class="label">launcher-public-service-prod06.ol.epicgames.com</text>
<rect x="180" y="478" width="580.0" height="22" fill="#4c78a8" rx="3"/>
<text x="768.0" y="494" class="value">272.90</text>
<line x1="180" y1="30" x2="180" y2="520" stroke="#ccc"/>
<line x1="180" y1="520" x2="760" y2="520" stroke="#ccc"/>
</svg>