<svg xmlns="http://www.w3.org/2000/svg" width="800" height="540">
<style> .label{font-family:DejaVu Sans,Verdana,Geneva,sans-serif;font-size:12px;fill:#333} .value{font-family:DejaVu Sans,Verdana,Geneva,sans-serif;font-size:12px;fill:#555} </style>
<text x="10" y="20" class="label">延迟柱状图（越低越好，Top 15），单位 ms</text>
<text x="10" y="46" class="label">eaassets-a.akamaihd.net</text>
<rect x="180" y="30" width="178.33" height="22" fill="#4c78a8" rx="3"/>
<text x="366.33000000000004" y="46" class="value">69.36</text>
<text x="10" y="78" class="label">socialclub.rockstargames.com</text>
<rect x="180" y="62" width="240.11" height="22" fill="#4c78a8" rx="3"/>
<text x="428.11" y="78" class="value">93.39</text>
<text x="10" y="110" class="label">blizzard.com</text>
<rect x="180" y="94" width="252.68" height="22" fill="#4c78a8" rx="3"/>
<text x="440.68" y="110" class="value">98.28</text>
<text x="10" y="142" class="label">rockstargames.com</text>
<rect x="180" y="126" width="261.09" height="22" fill="#4c78a8" rx="3"/>
<text x="449.09" y="142" class="value">101.55</text>
<text x="10" y="174" class="label">ubi.com</text>
<rect x="180" y="158" width="277.21" height="22" fill="#4c78a8" rx="3"/>
<text x="465.21" y="174" class="value">107.82</text>
<text x="10" y="206" class="label">epicgames.com</text>
<rect x="180" y="190" width="291.04" height="22" fill="#4c78a8" rx="3"/>
<text x="479.04" y="206" class="value">113.20</text>
<text x="10" y="238" class="label">ubisoft.com</text>
<rect x="180" y="222" width="310.92" height="22" fill="#4c78a8" rx="3"/>
<text x="498.92" y="238" class="value">120.93</text>
<text x="10" y="270" class="label">battle.net</text>
<rect x="180" y="254" width="323.8" height="22" fill="#4c78a8" rx="3"/>
<text x="511.8" y="270" class="value">125.94</text>
<text x="10" y="302" class="label">fortnite.com</text>
<rect x="180" y="286" width="352.13" height="22" fill="#4c78a8" rx="3"/>
<text x="540.13" y="302" class="value">136.96</text>
<text x="10" y="334" class="label">ea.com</text>
<rect x="180" y="318" width="440.29" height="22" fill="#4c78a8" rx="3"/>
<text x="628.29" y="334" class="value">171.25</text>
<text x="10" y="366" class="label">cdn.cloudflare.steamstatic.com</text>
<rect x="180" y="350" width="520.61" height="22" fill="#4c78a8" rx="3"/>
<text x="708.61" y="366" class="value">202.49</text>
<text x="10" y="398" class="label">store.akamai.steamstatic.com</text>
<rect x="180" y="382" width="544.91" height="22" fill="#4c78a8" rx="3"/>
<text x="732.91" y="398" class="value">211.94</text>
<text x="10" y="430" class="label">cdn.akamai.steamstatic.com</text>
<rect x="180" y="414" width="557.22" height="22" fill="#4c78a8" rx="3"/>
<text x="745.22" y="430" class="value">216.73</text>
<text x="10" y="462" class="label">unrealengine.com</text>
<rect x="180" y="446" width="568.79" height="22" fill="#4c78a8" rx="3"/>
<text x="756.79" y="462" class="value">221.23</text>
<text x="10" y="494" class="label">origin.com</text>
<rect x="180" y="478" width="580.0" height="22" fill="#4c78a8" rx="3"/>
<text x="768.0" y="494" class="value">225.59</text>
<line x1="180" y1="30" x2="180" y2="520" stroke="#ccc"/>
<line x1="180" y1="520" x2="760" y2="520" stroke="#ccc"/>
</svg>