<svg xmlns="http://www.w3.org/2000/svg" width="800" height="540">
<style> .label{font-family:DejaVu Sans,Verdana,Geneva,sans-serif;font-size:12px;fill:#333} .value{font-family:DejaVu Sans,Verdana,Geneva,sans-serif;font-size:12px;fill:#555} </style>
<text x="10" y="20" class="label">延迟柱状图（越低越好，Top 15），单位 ms</text>
<text x="10" y="46" class="label">rockstargames.com</text>
<rect x="180" y="30" width="216.01" height="22" fill="#4c78a8" rx="3"/>
<text x="404.01" y="46" class="value">79.34</text>
<text x="10" y="78" class="label">community.akamai.steamstatic.com</text>
<rect x="180" y="62" width="346.45" height="22" fill="#4c78a8" rx="3"/>
<text x="534.45" y="78" class="value">127.25</text>
<text x="10" y="110" class="label">ea.com</text>
<rect x="180" y="94" width="381.98" height="22" fill="#4c78a8" rx="3"/>
<text x="569.98" y="110" class="value">140.30</text>
<text x="10" y="142" class="label">blizzard.com</text>
<rect x="180" y="126" width="390.51" height="22" fill="#4c78a8" rx="3"/>
<text x="578.51" y="142" class="value">143.43</text>
<text x="10" y="174" class="label">ubi.com</text>
<rect x="180" y="158" width="398.46" height="22" fill="#4c78a8" rx="3"/>
<text x="586.46" y="174" class="value">146.35</text>
<text x="10" y="206" class="label">socialclub.rockstargames.com</text>
<rect x="180" y="190" width="413.18" height="22" fill="#4c78a8" rx="3"/>
<text x="601.1800000000001" y="206" class="value">151.76</text>
<text x="10" y="238" class="label">ubisoft.com</text>
<rect x="180" y="222" width="417.08" height="22" fill="#4c78a8" rx="3"/>
<text x="605.0799999999999" y="238" class="value">153.19</text>
<text x="10" y="270" class="label">battle.net</text>
<rect x="180" y="254" width="422.47" height="22" fill="#4c78a8" rx="3"/>
<text x="610.47" y="270" class="value">155.17</text>
<text x="10" y="302" class="label">steamcdn-a.akamaihd.net</text>
<rect x="180" y="286" width="445.69" height="22" fill="#4c78a8" rx="3"/>
<text x="633.69" y="302" class="value">163.70</text>
<text x="10" y="334" class="label">api.steampowered.com</text>
<rect x="180" y="318" width="461.05" height="22" fill="#4c78a8" rx="3"/>
<text x="649.05" y="334" class="value">169.34</text>
<text x="10" y="366" class="label">store.akamai.steamstatic.com</text>
<rect x="180" y="350" width="501.72" height="22" fill="#4c78a8" rx="3"/>
<text x="689.72" y="366" class="value">184.28</text>
<text x="10" y="398" class="label">easyanticheat.net</text>
<rect x="180" y="382" width="545.64" height="22" fill="#4c78a8" rx="3"/>
<text x="733.64" y="398" class="value">200.41</text>
<text x="10" y="430" class="label">origin.com</text>
<rect x="180" y="414" width="550.41" height="22" fill="#4c78a8" rx="3"/>
<text x="738.41" y="430" class="value">202.16</text>
<text x="10" y="462" class="label">static3.cdn.ubi.com</text>
<rect x="180" y="446" width="552.56" height="22" fill="#4c78a8" rx="3"/>
<text x="740.56" y="462" class="value">202.95</text>
<text x="10" y="494" class="label">launcher-public-service-prod06.ol.epicgames.com</text>
<rect x="180" y="478" width="580.0" height="22" fill="#4c78a8" rx="3"/>
<text x="768.0" y="494" class="value">213.03</text>
<line x1="180" y1="30" x2="180" y2="520" stroke="#ccc"/>
<line x1="180" y1="520" x2="760" y2="520" stroke="#ccc"/>
</svg>