<svg xmlns="http://www.w3.org/2000/svg" width="800" height="540">
<style> .label{font-family:DejaVu Sans,Verdana,Geneva,sans-serif;font-size:12px;fill:#333} .value{font-family:DejaVu Sans,Verdana,Geneva,sans-serif;font-size:12px;fill:#555} </style>
<text x="10" y="20" class="label">延迟柱状图（越低越好，Top 15），单位 ms</text>
<text x="10" y="46" class="label">ea.com</text>
<rect x="180" y="30" width="108.6" height="22" fill="#4c78a8" rx="3"/>
<text x="296.6" y="46" class="value">55.34</text>
<text x="10" y="78" class="label">rockstargames.com</text>
<rect x="180" y="62" width="109.21" height="22" fill="#4c78a8" rx="3"/>
<text x="297.21" y="78" class="value">55.65</text>
<text x="10" y="110" class="label">origin.com</text>
<rect x="180" y="94" width="190.06" height="22" fill="#4c78a8" rx="3"/>
<text x="378.06" y="110" class="value">96.85</text>
<text x="10" y="142" class="label">eaassets-a.akamaihd.net</text>
<rect x="180" y="126" width="214.53" height="22" fill="#4c78a8" rx="3"/>
<text x="402.53" y="142" class="value">109.32</text>
<text x="10" y="174" class="label">cdn.akamai.steamstatic.com</text>
<rect x="180" y="158" width="243.77" height="22" fill="#4c78a8" rx="3"/>
<text x="431.77" y="174" class="value">124.22</text>
<text x="10" y="206" class="label">community.akamai.steamstatic.com</text>
<rect x="180" y="190" width="249.95" height="22" fill="#4c78a8" rx="3"/>
<text x="437.95" y="206" class="value">127.37</text>
<text x="10" y="238" class="label">ubisoft.com</text>
<rect x="180" y="222" width="315.28" height="22" fill="#4c78a8" rx="3"/>
<text x="503.28" y="238" class="value">160.66</text>
<text x="10" y="270" class="label">easyanticheat.net</text>
<rect x="180" y="254" width="354.7" height="22" fill="#4c78a8" rx="3"/>
<text x="542.7" y="270" class="value">180.75</text>
<text x="10" y="302" class="label">steamcdn-a.akamaihd.net</text>
<rect x="180" y="286" width="367.36" height="22" fill="#4c78a8" rx="3"/>
<text x="555.36" y="302" class="value">187.20</text>
<text x="10" y="334" class="label">store.akamai.steamstatic.com</text>
<rect x="180" y="318" width="391.0" height="22" fill="#4c78a8" rx="3"/>
<text x="579.0" y="334" class="value">199.25</text>
<text x="10" y="366" class="label">steam-chat.com</text>
<rect x="180" y="350" width="450.97" height="22" fill="#4c78a8" rx="3"/>
<text x="638.97" y="366" class="value">229.81</text>
<text x="10" y="398" class="label">gog.com</text>
<rect x="180" y="382" width="488.59" height="22" fill="#4c78a8" rx="3"/>
<text x="676.5899999999999" y="398" class="value">248.98</text>
<text x="10" y="430" class="label">api.steampowered.com</text>
<rect x="180" y="414" width="504.94" height="22" fill="#4c78a8" rx="3"/>
<text x="692.94" y="430" class="value">257.31</text>
<text x="10" y="462" class="label">cdn.cloudflare.steamstatic.com</text>
<rect x="180" y="446" width="543.68" height="22" fill="#4c78a8" rx="3"/>
<text x="731.68" y="462" class="value">277.05</text>
<text x="10" y="494" class="label">www.steamcommunity.com</text>
<rect x="180" y="478" width="580.0" height="22" fill="#4c78a8" rx="3"/>
<text x="768.0" y="494" class="value">295.56</text>
<line x1="180" y1="30" x2="180" y2="520" stroke="#ccc"/>
<line x1="180" y1="520" x2="760" y2="520" stroke="#ccc"/>
</svg>