<svg xmlns="http://www.w3.org/2000/svg" width="800" height="540">
<style> .label{font-family:DejaVu Sans,Verdana,Geneva,sans-serif;font-size:12px;fill:#333} .value{font-family:DejaVu Sans,Verdana,Geneva,sans-serif;font-size:12px;fill:#555} </style>
<text x="10" y="20" class="label">延迟柱状图（越低越好，Top 15），单位 ms</text>
<text x="10" y="46" class="label">rockstargames.com</text>
<rect x="180" y="30" width="70.93" height="22" fill="#4c78a8" rx="3"/>
<text x="258.93" y="46" class="value">35.11</text>
<text x="10" y="78" class="label">ea.com</text>
<rect x="180" y="62" width="157.7" height="22" fill="#4c78a8" rx="3"/>
<text x="345.7" y="78" class="value">78.06</text>
<text x="10" y="110" class="label">eaassets-a.akamaihd.net</text>
<rect x="180" y="94" width="194.71" height="22" fill="#4c78a8" rx="3"/>
<text x="382.71000000000004" y="110" class="value">96.38</text>
<text x="10" y="142" class="label">community.akamai.steamstatic.com</text>
<rect x="180" y="126" width="232.3" height="22" fill="#4c78a8" rx="3"/>
<text x="420.3" y="142" class="value">114.99</text>
<text x="10" y="174" class="label">steamcdn-a.akamaihd.net</text>
<rect x="180" y="158" width="245.96" height="22" fill="#4c78a8" rx="3"/>
<text x="433.96000000000004" y="174" class="value">121.75</text>
<text x="10" y="206" class="label">cdn.akamai.steamstatic.com</text>
<rect x="180" y="190" width="260.95" height="22" fill="#4c78a8" rx="3"/>
<text x="448.95" y="206" class="value">129.17</text>
<text x="10" y="238" class="label">cdn.cloudflare.steamstatic.com</text>
<rect x="180" y="222" width="314.0" height="22" fill="#4c78a8" rx="3"/>
<text x="502.0" y="238" class="value">155.43</text>
<text x="10" y="270" class="label">ubisoft.com</text>
<rect x="180" y="254" width="334.04" height="22" fill="#4c78a8" rx="3"/>
<text x="522.04" y="270" class="value">165.35</text>
<text x="10" y="302" class="label">store.akamai.steamstatic.com</text>
<rect x="180" y="286" width="391.92" height="22" fill="#4c78a8" rx="3"/>
<text x="579.9200000000001" y="302" class="value">194.00</text>
<text x="10" y="334" class="label">origin.com</text>
<rect x="180" y="318" width="399.33" height="22" fill="#4c78a8" rx="3"/>
<text x="587.3299999999999" y="334" class="value">197.67</text>
<text x="10" y="366" class="label">easyanticheat.net</text>
<rect x="180" y="350" width="478.67" height="22" fill="#4c78a8" rx="3"/>
<text x="666.6700000000001" y="366" class="value">236.94</text>
<text x="10" y="398" class="label">www.steamcommunity.com</text>
<rect x="180" y="382" width="484.18" height="22" fill="#4c78a8" rx="3"/>
<text x="672.1800000000001" y="398" class="value">239.67</text>
<text x="10" y="430" class="label">api.steampowered.com</text>
<rect x="180" y="414" width="556.22" height="22" fill="#4c78a8" rx="3"/>
<text x="744.22" y="430" class="value">275.33</text>
<text x="10" y="462" class="label">steam-chat.com</text>
<rect x="180" y="446" width="571.8" height="22" fill="#4c78a8" rx="3"/>
<text x="759.8" y="462" class="value">283.04</text>
<text x="10" y="494" class="label">ubi.com</text>
<rect x="180" y="478" width="580.0" height="22" fill="#4c78a8" rx="3"/>
<text x="768.0" y="494" class="value">287.10</text>
<line x1="180" y1="30" x2="180" y2="520" stroke="#ccc"/>
<line x1="180" y1="520" x2="760" y2="520" stroke="#ccc"/>
</svg>