<svg xmlns="http://www.w3.org/2000/svg" width="800" height="540">
<style> .label{font-family:DejaVu Sans,Verdana,Geneva,sans-serif;font-size:12px;fill:#333} .value{font-family:DejaVu Sans,Verdana,Geneva,sans-serif;font-size:12px;fill:#555} </style>
<text x="10" y="20" class="label">延迟柱状图（越低越好，Top 15），单位 ms</text>
<text x="10" y="46" class="label">rockstargames.com</text>
<rect x="180" y="30" width="251.57" height="22" fill="#4c78a8" rx="3"/>
<text x="439.57" y="46" class="value">120.71</text>
<text x="10" y="78" class="label">blizzard.com</text>
<rect x="180" y="62" width="288.44" height="22" fill="#4c78a8" rx="3"/>
<text x="476.44" y="78" class="value">138.40</text>
<text x="10" y="110" class="label">socialclub.rockstargames.com</text>
<rect x="180" y="94" width="318.39" height="22" fill="#4c78a8" rx="3"/>
<text x="506.39" y="110" class="value">152.77</text>
<text x="10" y="142" class="label">eaassets-a.akamaihd.net</text>
<rect x="180" y="126" width="318.74" height="22" fill="#4c78a8" rx="3"/>
<text x="506.74" y="142" class="value">152.94</text>
<text x="10" y="174" class="label">ea.com</text>
<rect x="180" y="158" width="320.39" height="22" fill="#4c78a8" rx="3"/>
<text x="508.39" y="174" class="value">153.73</text>
<text x="10" y="206" class="label">store.akamai.steamstatic.com</text>
<rect x="180" y="190" width="343.96" height="22" fill="#4c78a8" rx="3"/>
<text x="531.96" y="206" class="value">165.04</text>
<text x="10" y="238" class="label">cdn.cloudflare.steamstatic.com</text>
<rect x="180" y="222" width="366.46" height="22" fill="#4c78a8" rx="3"/>
<text x="554.46" y="238" class="value">175.84</text>
<text x="10" y="270" class="label">ubi.com</text>
<rect x="180" y="254" width="411.75" height="22" fill="#4c78a8" rx="3"/>
<text x="599.75" y="270" class="value">197.57</text>
<text x="10" y="302" class="label">battle.net</text>
<rect x="180" y="286" width="437.91" height="22" fill="#4c78a8" rx="3"/>
<text x="625.9100000000001" y="302" class="value">210.12</text>
<text x="10" y="334" class="label">steamcdn-a.akamaihd.net</text>
<rect x="180" y="318" width="479.38" height="22" fill="#4c78a8" rx="3"/>
<text x="667.38" y="334" class="value">230.02</text>
<text x="10" y="366" class="label">cdn.akamai.steamstatic.com</text>
<rect x="180" y="350" width="483.47" height="22" fill="#4c78a8" rx="3"/>
<text x="671.47" y="366" class="value">231.98</text>
<text x="10" y="398" class="label">origin.com</text>
<rect x="180" y="382" width="494.37" height="22" fill="#4c78a8" rx="3"/>
<text x="682.37" y="398" class="value">237.21</text>
<text x="10" y="430" class="label">ubisoft.com</text>
<rect x="180" y="414" width="552.97" height="22" fill="#4c78a8" rx="3"/>
<text x="740.97" y="430" class="value">265.33</text>
<text x="10" y="462" class="label">community.akamai.steamstatic.com</text>
<rect x="180" y="446" width="565.12" height="22" fill="#4c78a8" rx="3"/>
<text x="753.12" y="462" class="value">271.16</text>
<text x="10" y="494" class="label">static3.cdn.ubi.com</text>
<rect x="180" y="478" width="580.0" height="22" fill="#4c78a8" rx="3"/>
<text x="768.0" y="494" class="value">278.30</text>
<line x1="180" y1="30" x2="180" y2="520" stroke="#ccc"/>
<line x1="180" y1="520" x2="760" y2="520" stroke="#ccc"/>
</svg>