<svg xmlns="http://www.w3.org/2000/svg" width="800" height="540">
<style> .label{font-family:DejaVu Sans,Verdana,Geneva,sans-serif;font-size:12px;fill:#333} .value{font-family:DejaVu Sans,Verdana,Geneva,sans-serif;font-size:12px;fill:#555} </style>
<text x="10" y="20" class="label">延迟柱状图（越低越好，Top 15），单位 ms</text>
<text x="10" y="46" class="label">rockstargames.com</text>
<rect x="180" y="30" width="170.98" height="22" fill="#4c78a8" rx="3"/>
<text x="358.98" y="46" class="value">66.83</text>
<text x="10" y="78" class="label">ubi.com</text>
<rect x="180" y="62" width="224.04" height="22" fill="#4c78a8" rx="3"/>
<text x="412.03999999999996" y="78" class="value">87.57</text>
<text x="10" y="110" class="label">battle.net</text>
<rect x="180" y="94" width="259.38" height="22" fill="#4c78a8" rx="3"/>
<text x="447.38" y="110" class="value">101.38</text>
<text x="10" y="142" class="label">steamcdn-a.akamaihd.net</text>
<rect x="180" y="126" width="266.64" height="22" fill="#4c78a8" rx="3"/>
<text x="454.64" y="142" class="value">104.22</text>
<text x="10" y="174" class="label">socialclub.rockstargames.com</text>
<rect x="180" y="158" width="278.46" height="22" fill="#4c78a8" rx="3"/>
<text x="466.46" y="174" class="value">108.84</text>
<text x="10" y="206" class="label">blizzard.com</text>
<rect x="180" y="190" width="286.65" height="22" fill="#4c78a8" rx="3"/>
<text x="474.65" y="206" class="value">112.04</text>
<text x="10" y="238" class="label">ea.com</text>
<rect x="180" y="222" width="341.5" height="22" fill="#4c78a8" rx="3"/>
<text x="529.5" y="238" class="value">133.48</text>
<text x="10" y="270" class="label">store.akamai.steamstatic.com</text>
<rect x="180" y="254" width="342.17" height="22" fill="#4c78a8" rx="3"/>
<text x="530.1700000000001" y="270" class="value">133.74</text>
<text x="10" y="302" class="label">eaassets-a.akamaihd.net</text>
<rect x="180" y="286" width="378.09" height="22" fill="#4c78a8" rx="3"/>
<text x="566.0899999999999" y="302" class="value">147.78</text>
<text x="10" y="334" class="label">epicgames.com</text>
<rect x="180" y="318" width="405.82" height="22" fill="#4c78a8" rx="3"/>
<text x="593.8199999999999" y="334" class="value">158.62</text>
<text x="10" y="366" class="label">unrealengine.com</text>
<rect x="180" y="350" width="479.91" height="22" fill="#4c78a8" rx="3"/>
<text x="667.9100000000001" y="366" class="value">187.58</text>
<text x="10" y="398" class="label">ubisoft.com</text>
<rect x="180" y="382" width="541.47" height="22" fill="#4c78a8" rx="3"/>
<text x="729.47" y="398" class="value">211.64</text>
<text x="10" y="430" class="label">launcher-public-service-prod06.ol.epicgames.com</text>
<rect x="180" y="414" width="542.42" height="22" fill="#4c78a8" rx="3"/>
<text x="730.42" y="430" class="value">212.01</text>
<text x="10" y="462" class="label">steam-chat.com</text>
<rect x="180" y="446" width="564.21" height="22" fill="#4c78a8" rx="3"/>
<text x="752.21" y="462" class="value">220.53</text>
<text x="10" y="494" class="label">community.akamai.steamstatic.com</text>
<rect x="180" y="478" width="580.0" height="22" fill="#4c78a8" rx="3"/>
<text x="768.0" y="494" class="value">226.70</text>
<line x1="180" y1="30" x2="180" y2="520" stroke="#ccc"/>
<line x1="180" y1="520" x2="760" y2="520" stroke="#ccc"/>
</svg>