<svg xmlns="http://www.w3.org/2000/svg" width="800" height="540">
<style> .label{font-family:DejaVu Sans,Verdana,Geneva,sans-serif;font-size:12px;fill:#333} .value{font-family:DejaVu Sans,Verdana,Geneva,sans-serif;font-size:12px;fill:#555} </style>
<text x="10" y="20" class="label">延迟柱状图（越低越好，Top 15），单位 ms</text>
<text x="10" y="46" class="label">rockstargames.com</text>
<rect x="180" y="30" width="160.08" height="22" fill="#4c78a8" rx="3"/>
<text x="348.08000000000004" y="46" class="value">56.63</text>
<text x="10" y="78" class="label">cdn.akamai.steamstatic.com</text>
<rect x="180" y="62" width="233.69" height="22" fill="#4c78a8" rx="3"/>
<text x="421.69" y="78" class="value">82.67</text>
<text x="10" y="110" class="label">community.akamai.steamstatic.com</text>
<rect x="180" y="94" width="239.49" height="22" fill="#4c78a8" rx="3"/>
<text x="427.49" y="110" class="value">84.72</text>
<text x="10" y="142" class="label">store.akamai.steamstatic.com</text>
<rect x="180" y="126" width="247.15" height="22" fill="#4c78a8" rx="3"/>
<text x="435.15" y="142" class="value">87.43</text>
<text x="10" y="174" class="label">ea.com</text>
<rect x="180" y="158" width="288.56" height="22" fill="#4c78a8" rx="3"/>
<text x="476.56" y="174" class="value">102.08</text>
<text x="10" y="206" class="label">steamcdn-a.akamaihd.net</text>
<rect x="180" y="190" width="292.37" height="22" fill="#4c78a8" rx="3"/>
<text x="480.37" y="206" class="value">103.43</text>
<text x="10" y="238" class="label">eaassets-a.akamaihd.net</text>
<rect x="180" y="222" width="297.75" height="22" fill="#4c78a8" rx="3"/>
<text x="485.75" y="238" class="value">105.33</text>
<text x="10" y="270" class="label">battle.net</text>
<rect x="180" y="254" width="355.41" height="22" fill="#4c78a8" rx="3"/>
<text x="543.4100000000001" y="270" class="value">125.73</text>
<text x="10" y="302" class="label">static3.cdn.ubi.com</text>
<rect x="180" y="286" width="366.01" height="22" fill="#4c78a8" rx="3"/>
<text x="554.01" y="302" class="value">129.48</text>
<text x="10" y="334" class="label">blizzard.com</text>
<rect x="180" y="318" width="378.73" height="22" fill="#4c78a8" rx="3"/>
<text x="566.73" y="334" class="value">133.98</text>
<text x="10" y="366" class="label">easyanticheat.net</text>
<rect x="180" y="350" width="399.88" height="22" fill="#4c78a8" rx="3"/>
<text x="587.88" y="366" class="value">141.46</text>
<text x="10" y="398" class="label">socialclub.rockstargames.com</text>
<rect x="180" y="382" width="401.29" height="22" fill="#4c78a8" rx="3"/>
<text x="589.29" y="398" class="value">141.96</text>
<text x="10" y="430" class="label">ubi.com</text>
<rect x="180" y="414" width="431.74" height="22" fill="#4c78a8" rx="3"/>
<text x="619.74" y="430" class="value">152.73</text>
<text x="10" y="462" class="label">ubisoft.com</text>
<rect x="180" y="446" width="498.31" height="22" fill="#4c78a8" rx="3"/>
<text x="686.31" y="462" class="value">176.28</text>
<text x="10" y="494" class="label">epicgames.com</text>
<rect x="180" y="478" width="580.0" height="22" fill="#4c78a8" rx="3"/>
<text x="768.0" y="494" class="value">205.18</text>
<line x1="180" y1="30" x2="180" y2="520" stroke="#ccc"/>
<line x1="180" y1="520" x2="760" y2="520" stroke="#ccc"/>
</svg>