<svg xmlns="http://www.w3.org/2000/svg" width="800" height="540">
<style> .label{font-family:DejaVu Sans,Verdana,Geneva,sans-serif;font-size:12px;fill:#333} .value{font-family:DejaVu Sans,Verdana,Geneva,sans-serif;font-size:12px;fill:#555} </style>
<text x="10" y="20" class="label">延迟柱状图（越低越好，Top 15），单位 ms</text>
<text x="10" y="46" class="label">eaassets-a.akamaihd.net</text>
<rect x="180" y="30" width="190.52" height="22" fill="#4c78a8" rx="3"/>
<text x="378.52" y="46" class="value">68.82</text>
<text x="10" y="78" class="label">ubi.com</text>
<rect x="180" y="62" width="194.64" height="22" fill="#4c78a8" rx="3"/>
<text x="382.64" y="78" class="value">70.31</text>
<text x="10" y="110" class="label">battle.net</text>
<rect x="180" y="94" width="202.48" height="22" fill="#4c78a8" rx="3"/>
<text x="390.48" y="110" class="value">73.14</text>
<text x="10" y="142" class="label">rockstargames.com</text>
<rect x="180" y="126" width="227.09" height="22" fill="#4c78a8" rx="3"/>
<text x="415.09000000000003" y="142" class="value">82.03</text>
<text x="10" y="174" class="label">blizzard.com</text>
<rect x="180" y="158" width="239.82" height="22" fill="#4c78a8" rx="3"/>
<text x="427.82" y="174" class="value">86.63</text>
<text x="10" y="206" class="label">ubisoft.com</text>
<rect x="180" y="190" width="263.85" height="22" fill="#4c78a8" rx="3"/>
<text x="451.85" y="206" class="value">95.31</text>
<text x="10" y="238" class="label">origin.com</text>
<rect x="180" y="222" width="294.3" height="22" fill="#4c78a8" rx="3"/>
<text x="482.3" y="238" class="value">106.31</text>
<text x="10" y="270" class="label">store.akamai.steamstatic.com</text>
<rect x="180" y="254" width="343.39" height="22" fill="#4c78a8" rx="3"/>
<text x="531.39" y="270" class="value">124.04</text>
<text x="10" y="302" class="label">socialclub.rockstargames.com</text>
<rect x="180" y="286" width="358.28" height="22" fill="#4c78a8" rx="3"/>
<text x="546.28" y="302" class="value">129.42</text>
<text x="10" y="334" class="label">steamcdn-a.akamaihd.net</text>
<rect x="180" y="318" width="373.54" height="22" fill="#4c78a8" rx="3"/>
<text x="561.54" y="334" class="value">134.93</text>
<text x="10" y="366" class="label">ea.com</text>
<rect x="180" y="350" width="385.13" height="22" fill="#4c78a8" rx="3"/>
<text x="573.13" y="366" class="value">139.12</text>
<text x="10" y="398" class="label">community.akamai.steamstatic.com</text>
<rect x="180" y="382" width="508.74" height="22" fill="#4c78a8" rx="3"/>
<text x="696.74" y="398" class="value">183.77</text>
<text x="10" y="430" class="label">epicgames.com</text>
<rect x="180" y="414" width="513.86" height="22" fill="#4c78a8" rx="3"/>
<text x="701.86" y="430" class="value">185.62</text>
<text x="10" y="462" class="label">fortnite.com</text>
<rect x="180" y="446" width="541.35" height="22" fill="#4c78a8" rx="3"/>
<text x="729.35" y="462" class="value">195.55</text>
<text x="10" y="494" class="label">static3.cdn.ubi.com</text>
<rect x="180" y="478" width="580.0" height="22" fill="#4c78a8" rx="3"/>
<text x="768.0" y="494" class="value">209.51</text>
<line x1="180" y1="30" x2="180" y2="520" stroke="#ccc"/>
<line x1="180" y1="520" x2="760" y2="520" stroke="#ccc"/>
</svg>