<svg xmlns="http://www.w3.org/2000/svg" width="800" height="540">
<style> .label{font-family:DejaVu Sans,Verdana,Geneva,sans-serif;font-size:12px;fill:#333} .value{font-family:DejaVu Sans,Verdana,Geneva,sans-serif;font-size:12px;fill:#555} </style>
<text x="10" y="20" class="label">延迟柱状图（越低越好，Top 15），单位 ms</text>
<text x="10" y="46" class="label">rockstargames.com</text>
<rect x="180" y="30" width="87.38" height="22" fill="#4c78a8" rx="3"/>
<text x="275.38" y="46" class="value">38.60</text>
<text x="10" y="78" class="label">ea.com</text>
<rect x="180" y="62" width="170.65" height="22" fill="#4c78a8" rx="3"/>
<text x="358.65" y="78" class="value">75.38</text>
<text x="10" y="110" class="label">eaassets-a.akamaihd.net</text>
<rect x="180" y="94" width="180.86" height="22" fill="#4c78a8" rx="3"/>
<text x="368.86" y="110" class="value">79.89</text>
<text x="10" y="142" class="label">ubisoft.com</text>
<rect x="180" y="126" width="269.33" height="22" fill="#4c78a8" rx="3"/>
<text x="457.33" y="142" class="value">118.97</text>
<text x="10" y="174" class="label">store.akamai.steamstatic.com</text>
<rect x="180" y="158" width="276.12" height="22" fill="#4c78a8" rx="3"/>
<text x="464.12" y="174" class="value">121.97</text>
<text x="10" y="206" class="label">origin.com</text>
<rect x="180" y="190" width="342.61" height="22" fill="#4c78a8" rx="3"/>
<text x="530.61" y="206" class="value">151.34</text>
<text x="10" y="238" class="label">cdn.cloudflare.steamstatic.com</text>
<rect x="180" y="222" width="366.95" height="22" fill="#4c78a8" rx="3"/>
<text x="554.95" y="238" class="value">162.09</text>
<text x="10" y="270" class="label">steamcdn-a.akamaihd.net</text>
<rect x="180" y="254" width="424.59" height="22" fill="#4c78a8" rx="3"/>
<text x="612.5899999999999" y="270" class="value">187.55</text>
<text x="10" y="302" class="label">community.akamai.steamstatic.com</text>
<rect x="180" y="286" width="438.42" height="22" fill="#4c78a8" rx="3"/>
<text x="626.4200000000001" y="302" class="value">193.66</text>
<text x="10" y="334" class="label">cdn.akamai.steamstatic.com</text>
<rect x="180" y="318" width="505.32" height="22" fill="#4c78a8" rx="3"/>
<text x="693.3199999999999" y="334" class="value">223.21</text>
<text x="10" y="366" class="label">easyanticheat.net</text>
<rect x="180" y="350" width="522.84" height="22" fill="#4c78a8" rx="3"/>
<text x="710.84" y="366" class="value">230.95</text>
<text x="10" y="398" class="label">steamcommunity.com</text>
<rect x="180" y="382" width="541.92" height="22" fill="#4c78a8" rx="3"/>
<text x="729.92" y="398" class="value">239.38</text>
<text x="10" y="430" class="label">steam-chat.com</text>
<rect x="180" y="414" width="549.23" height="22" fill="#4c78a8" rx="3"/>
<text x="737.23" y="430" class="value">242.61</text>
<text x="10" y="462" class="label">www.steamcommunity.com</text>
<rect x="180" y="446" width="559.65" height="22" fill="#4c78a8" rx="3"/>
<text x="747.65" y="462" class="value">247.21</text>
<text x="10" y="494" class="label">api.steampowered.com</text>
<rect x="180" y="478" width="580.0" height="22" fill="#4c78a8" rx="3"/>
<text x="768.0" y="494" class="value">256.20</text>
<line x1="180" y1="30" x2="180" y2="520" stroke="#ccc"/>
<line x1="180" y1="520" x2="760" y2="520" stroke="#ccc"/>
</svg>