<svg xmlns="http://www.w3.org/2000/svg" width="800" height="540">
<style> .label{font-family:DejaVu Sans,Verdana,Geneva,sans-serif;font-size:12px;fill:#333} .value{font-family:DejaVu Sans,Verdana,Geneva,sans-serif;font-size:12px;fill:#555} </style>
<text x="10" y="20" class="label">延迟柱状图（越低越好，Top 15），单位 ms</text>
<text x="10" y="46" class="label">ea.com</text>
<rect x="180" y="30" width="272.33" height="22" fill="#4c78a8" rx="3"/>
<text x="460.33" y="46" class="value">112.36</text>
<text x="10" y="78" class="label">community.akamai.steamstatic.com</text>
<rect x="180" y="62" width="333.19" height="22" fill="#4c78a8" rx="3"/>
<text x="521.19" y="78" class="value">137.47</text>
<text x="10" y="110" class="label">steamcdn-a.akamaihd.net</text>
<rect x="180" y="94" width="345.36" height="22" fill="#4c78a8" rx="3"/>
<text x="533.36" y="110" class="value">142.49</text>
<text x="10" y="142" class="label">blizzard.com</text>
<rect x="180" y="126" width="359.83" height="22" fill="#4c78a8" rx="3"/>
<text x="547.8299999999999" y="142" class="value">148.46</text>
<text x="10" y="174" class="label">store.akamai.steamstatic.com</text>
<rect x="180" y="158" width="360.82" height="22" fill="#4c78a8" rx="3"/>
<text x="548.8199999999999" y="174" class="value">148.87</text>
<text x="10" y="206" class="label">rockstargames.com</text>
<rect x="180" y="190" width="361.94" height="22" fill="#4c78a8" rx="3"/>
<text x="549.94" y="206" class="value">149.33</text>
<text x="10" y="238" class="label">ubi.com</text>
<rect x="180" y="222" width="377.4" height="22" fill="#4c78a8" rx="3"/>
<text x="565.4" y="238" class="value">155.71</text>
<text x="10" y="270" class="label">eaassets-a.akamaihd.net</text>
<rect x="180" y="254" width="382.68" height="22" fill="#4c78a8" rx="3"/>
<text x="570.6800000000001" y="270" class="value">157.89</text>
<text x="10" y="302" class="label">battle.net</text>
<rect x="180" y="286" width="388.21" height="22" fill="#4c78a8" rx="3"/>
<text x="576.21" y="302" class="value">160.17</text>
<text x="10" y="334" class="label">ubisoft.com</text>
<rect x="180" y="318" width="422.36" height="22" fill="#4c78a8" rx="3"/>
<text x="610.36" y="334" class="value">174.26</text>
<text x="10" y="366" class="label">origin.com</text>
<rect x="180" y="350" width="436.3" height="22" fill="#4c78a8" rx="3"/>
<text x="624.3" y="366" class="value">180.01</text>
<text x="10" y="398" class="label">easyanticheat.net</text>
<rect x="180" y="382" width="492.14" height="22" fill="#4c78a8" rx="3"/>
<text x="680.14" y="398" class="value">203.05</text>
<text x="10" y="430" class="label">socialclub.rockstargames.com</text>
<rect x="180" y="414" width="516.72" height="22" fill="#4c78a8" rx="3"/>
<text x="704.72" y="430" class="value">213.19</text>
<text x="10" y="462" class="label">api.steampowered.com</text>
<rect x="180" y="446" width="525.93" height="22" fill="#4c78a8" rx="3"/>
<text x="713.93" y="462" class="value">216.99</text>
<text x="10" y="494" class="label">cdn.akamai.steamstatic.com</text>
<rect x="180" y="478" width="580.0" height="22" fill="#4c78a8" rx="3"/>
<text x="768.0" y="494" class="value">239.30</text>
<line x1="180" y1="30" x2="180" y2="520" stroke="#ccc"/>
<line x1="180" y1="520" x2="760" y2="520" stroke="#ccc"/>
</svg>