<svg xmlns="http://www.w3.org/2000/svg" width="800" height="540">
<style> .label{font-family:DejaVu Sans,Verdana,Geneva,sans-serif;font-size:12px;fill:#333} .value{font-family:DejaVu Sans,Verdana,Geneva,sans-serif;font-size:12px;fill:#555} </style>
<text x="10" y="20" class="label">延迟柱状图（越低越好，Top 15），单位 ms</text>
<text x="10" y="46" class="label">rockstargames.com</text>
<rect x="180" y="30" width="85.03" height="22" fill="#4c78a8" rx="3"/>
<text x="273.03" y="46" class="value">43.53</text>
<text x="10" y="78" class="label">ea.com</text>
<rect x="180" y="62" width="176.23" height="22" fill="#4c78a8" rx="3"/>
<text x="364.23" y="78" class="value">90.22</text>
<text x="10" y="110" class="label">store.akamai.steamstatic.com</text>
<rect x="180" y="94" width="190.9" height="22" fill="#4c78a8" rx="3"/>
<text x="378.9" y="110" class="value">97.73</text>
<text x="10" y="142" class="label">ubisoft.com</text>
<rect x="180" y="126" width="194.43" height="22" fill="#4c78a8" rx="3"/>
<text x="382.43" y="142" class="value">99.54</text>
<text x="10" y="174" class="label">eaassets-a.akamaihd.net</text>
<rect x="180" y="158" width="232.84" height="22" fill="#4c78a8" rx="3"/>
<text x="420.84000000000003" y="174" class="value">119.20</text>
<text x="10" y="206" class="label">steamcdn-a.akamaihd.net</text>
<rect x="180" y="190" width="233.89" height="22" fill="#4c78a8" rx="3"/>
<text x="421.89" y="206" class="value">119.74</text>
<text x="10" y="238" class="label">community.akamai.steamstatic.com</text>
<rect x="180" y="222" width="236.45" height="22" fill="#4c78a8" rx="3"/>
<text x="424.45" y="238" class="value">121.05</text>
<text x="10" y="270" class="label">origin.com</text>
<rect x="180" y="254" width="283.78" height="22" fill="#4c78a8" rx="3"/>
<text x="471.78" y="270" class="value">145.28</text>
<text x="10" y="302" class="label">cdn.akamai.steamstatic.com</text>
<rect x="180" y="286" width="327.61" height="22" fill="#4c78a8" rx="3"/>
<text x="515.61" y="302" class="value">167.72</text>
<text x="10" y="334" class="label">api.steampowered.com</text>
<rect x="180" y="318" width="342.18" height="22" fill="#4c78a8" rx="3"/>
<text x="530.1800000000001" y="334" class="value">175.18</text>
<text x="10" y="366" class="label">cdn.cloudflare.steamstatic.com</text>
<rect x="180" y="350" width="364.04" height="22" fill="#4c78a8" rx="3"/>
<text x="552.04" y="366" class="value">186.37</text>
<text x="10" y="398" class="label">www.steamcommunity.com</text>
<rect x="180" y="382" width="368.81" height="22" fill="#4c78a8" rx="3"/>
<text x="556.81" y="398" class="value">188.81</text>
<text x="10" y="430" class="label">steam-chat.com</text>
<rect x="180" y="414" width="384.61" height="22" fill="#4c78a8" rx="3"/>
<text x="572.61" y="430" class="value">196.90</text>
<text x="10" y="462" class="label">easyanticheat.net</text>
<rect x="180" y="446" width="451.51" height="22" fill="#4c78a8" rx="3"/>
<text x="639.51" y="462" class="value">231.15</text>
<text x="10" y="494" class="label">steamcommunity.com</text>
<rect x="180" y="478" width="580.0" height="22" fill="#4c78a8" rx="3"/>
<text x="768.0" y="494" class="value">296.93</text>
<line x1="180" y1="30" x2="180" y2="520" stroke="#ccc"/>
<line x1="180" y1="520" x2="760" y2="520" stroke="#ccc"/>
</svg>