<svg xmlns="http://www.w3.org/2000/svg" width="800" height="540">
<style> .label{font-family:DejaVu Sans,Verdana,Geneva,sans-serif;font-size:12px;fill:#333} .value{font-family:DejaVu Sans,Verdana,Geneva,sans-serif;font-size:12px;fill:#555} </style>
<text x="10" y="20" class="label">延迟柱状图（越低越好，Top 15），单位 ms</text>
<text x="10" y="46" class="label">eaassets-a.akamaihd.net</text>
<rect x="180" y="30" width="204.78" height="22" fill="#4c78a8" rx="3"/>
<text x="392.78" y="46" class="value">78.87</text>
<text x="10" y="78" class="label">rockstargames.com</text>
<rect x="180" y="62" width="228.59" height="22" fill="#4c78a8" rx="3"/>
<text x="416.59000000000003" y="78" class="value">88.04</text>
<text x="10" y="110" class="label">community.akamai.steamstatic.com</text>
<rect x="180" y="94" width="284.55" height="22" fill="#4c78a8" rx="3"/>
<text x="472.55" y="110" class="value">109.59</text>
<text x="10" y="142" class="label">ea.com</text>
<rect x="180" y="126" width="330.04" height="22" fill="#4c78a8" rx="3"/>
<text x="518.04" y="142" class="value">127.11</text>
<text x="10" y="174" class="label">socialclub.rockstargames.com</text>
<rect x="180" y="158" width="365.48" height="22" fill="#4c78a8" rx="3"/>
<text x="553.48" y="174" class="value">140.76</text>
<text x="10" y="206" class="label">cdn.akamai.steamstatic.com</text>
<rect x="180" y="190" width="391.37" height="22" fill="#4c78a8" rx="3"/>
<text x="579.37" y="206" class="value">150.73</text>
<text x="10" y="238" class="label">static3.cdn.ubi.com</text>
<rect x="180" y="222" width="405.54" height="22" fill="#4c78a8" rx="3"/>
<text x="593.54" y="238" class="value">156.19</text>
<text x="10" y="270" class="label">battle.net</text>
<rect x="180" y="254" width="407.88" height="22" fill="#4c78a8" rx="3"/>
<text x="595.88" y="270" class="value">157.09</text>
<text x="10" y="302" class="label">easyanticheat.net</text>
<rect x="180" y="286" width="426.94" height="22" fill="#4c78a8" rx="3"/>
<text x="614.94" y="302" class="value">164.43</text>
<text x="10" y="334" class="label">ubi.com</text>
<rect x="180" y="318" width="441.04" height="22" fill="#4c78a8" rx="3"/>
<text x="629.04" y="334" class="value">169.86</text>
<text x="10" y="366" class="label">steam-chat.com</text>
<rect x="180" y="350" width="490.5" height="22" fill="#4c78a8" rx="3"/>
<text x="678.5" y="366" class="value">188.91</text>
<text x="10" y="398" class="label">blizzard.com</text>
<rect x="180" y="382" width="499.3" height="22" fill="#4c78a8" rx="3"/>
<text x="687.3" y="398" class="value">192.30</text>
<text x="10" y="430" class="label">ubisoft.com</text>
<rect x="180" y="414" width="517.37" height="22" fill="#4c78a8" rx="3"/>
<text x="705.37" y="430" class="value">199.26</text>
<text x="10" y="462" class="label">steamcdn-a.akamaihd.net</text>
<rect x="180" y="446" width="551.46" height="22" fill="#4c78a8" rx="3"/>
<text x="739.46" y="462" class="value">212.39</text>
<text x="10" y="494" class="label">origin.com</text>
<rect x="180" y="478" width="580.0" height="22" fill="#4c78a8" rx="3"/>
<text x="768.0" y="494" class="value">223.38</text>
<line x1="180" y1="30" x2="180" y2="520" stroke="#ccc"/>
<line x1="180" y1="520" x2="760" y2="520" stroke="#ccc"/>
</svg>