<svg xmlns="http://www.w3.org/2000/svg" width="800" height="540">
<style> .label{font-family:DejaVu Sans,Verdana,Geneva,sans-serif;font-size:12px;fill:#333} .value{font-family:DejaVu Sans,Verdana,Geneva,sans-serif;font-size:12px;fill:#555} </style>
<text x="10" y="20" class="label">延迟柱状图（越低越好，Top 15），单位 ms</text>
<text x="10" y="46" class="label">eaassets-a.akamaihd.net</text>
<rect x="180" y="30" width="151.78" height="22" fill="#4c78a8" rx="3"/>
<text x="339.78" y="46" class="value">83.17</text>
<text x="10" y="78" class="label">rockstargames.com</text>
<rect x="180" y="62" width="188.73" height="22" fill="#4c78a8" rx="3"/>
<text x="376.73" y="78" class="value">103.42</text>
<text x="10" y="110" class="label">ubisoft.com</text>
<rect x="180" y="94" width="265.35" height="22" fill="#4c78a8" rx="3"/>
<text x="453.35" y="110" class="value">145.40</text>
<text x="10" y="142" class="label">store.akamai.steamstatic.com</text>
<rect x="180" y="126" width="303.92" height="22" fill="#4c78a8" rx="3"/>
<text x="491.92" y="142" class="value">166.54</text>
<text x="10" y="174" class="label">origin.com</text>
<rect x="180" y="158" width="334.38" height="22" fill="#4c78a8" rx="3"/>
<text x="522.38" y="174" class="value">183.23</text>
<text x="10" y="206" class="label">steamcdn-a.akamaihd.net</text>
<rect x="180" y="190" width="363.96" height="22" fill="#4c78a8" rx="3"/>
<text x="551.96" y="206" class="value">199.44</text>
<text x="10" y="238" class="label">community.akamai.steamstatic.com</text>
<rect x="180" y="222" width="370.83" height="22" fill="#4c78a8" rx="3"/>
<text x="558.8299999999999" y="238" class="value">203.20</text>
<text x="10" y="270" class="label">cdn.akamai.steamstatic.com</text>
<rect x="180" y="254" width="389.15" height="22" fill="#4c78a8" rx="3"/>
<text x="577.15" y="270" class="value">213.24</text>
<text x="10" y="302" class="label">cdn.cloudflare.steamstatic.com</text>
<rect x="180" y="286" width="412.6" height="22" fill="#4c78a8" rx="3"/>
<text x="600.6" y="302" class="value">226.09</text>
<text x="10" y="334" class="label">easyanticheat.net</text>
<rect x="180" y="318" width="426.5" height="22" fill="#4c78a8" rx="3"/>
<text x="614.5" y="334" class="value">233.71</text>
<text x="10" y="366" class="label">gog.com</text>
<rect x="180" y="350" width="448.28" height="22" fill="#4c78a8" rx="3"/>
<text x="636.28" y="366" class="value">245.64</text>
<text x="10" y="398" class="label">ea.com</text>
<rect x="180" y="382" width="505.03" height="22" fill="#4c78a8" rx="3"/>
<text x="693.03" y="398" class="value">276.74</text>
<text x="10" y="430" class="label">steam-chat.com</text>
<rect x="180" y="414" width="546.51" height="22" fill="#4c78a8" rx="3"/>
<text x="734.51" y="430" class="value">299.47</text>
<text x="10" y="462" class="label">launcher-public-service-prod06.ol.epicgames.com</text>
<rect x="180" y="446" width="558.37" height="22" fill="#4c78a8" rx="3"/>
<text x="746.37" y="462" class="value">305.97</text>
<text x="10" y="494" class="label">api.steampowered.com</text>
<rect x="180" y="478" width="580.0" height="22" fill="#4c78a8" rx="3"/>
<text x="768.0" y="494" class="value">317.82</text>
<line x1="180" y1="30" x2="180" y2="520" stroke="#ccc"/>
<line x1="180" y1="520" x2="760" y2="520" stroke="#ccc"/>
</svg>