<svg xmlns="http://www.w3.org/2000/svg" width="800" height="540">
<style> .label{font-family:DejaVu Sans,Verdana,Geneva,sans-serif;font-size:12px;fill:#333} .value{font-family:DejaVu Sans,Verdana,Geneva,sans-serif;font-size:12px;fill:#555} </style>
<text x="10" y="20" class="label">延迟柱状图（越低越好，Top 15），单位 ms</text>
<text x="10" y="46" class="label">rockstargames.com</text>
<rect x="180" y="30" width="117.15" height="22" fill="#4c78a8" rx="3"/>
<text x="305.15" y="46" class="value">54.18</text>
<text x="10" y="78" class="label">ea.com</text>
<rect x="180" y="62" width="117.8" height="22" fill="#4c78a8" rx="3"/>
<text x="305.8" y="78" class="value">54.48</text>
<text x="10" y="110" class="label">origin.com</text>
<rect x="180" y="94" width="181.05" height="22" fill="#4c78a8" rx="3"/>
<text x="369.05" y="110" class="value">83.73</text>
<text x="10" y="142" class="label">eaassets-a.akamaihd.net</text>
<rect x="180" y="126" width="210.22" height="22" fill="#4c78a8" rx="3"/>
<text x="398.22" y="142" class="value">97.22</text>
<text x="10" y="174" class="label">ubisoft.com</text>
<rect x="180" y="158" width="213.14" height="22" fill="#4c78a8" rx="3"/>
<text x="401.14" y="174" class="value">98.57</text>
<text x="10" y="206" class="label">steamcdn-a.akamaihd.net</text>
<rect x="180" y="190" width="259.26" height="22" fill="#4c78a8" rx="3"/>
<text x="447.26" y="206" class="value">119.90</text>
<text x="10" y="238" class="label">cdn.akamai.steamstatic.com</text>
<rect x="180" y="222" width="313.67" height="22" fill="#4c78a8" rx="3"/>
<text x="501.67" y="238" class="value">145.06</text>
<text x="10" y="270" class="label">store.akamai.steamstatic.com</text>
<rect x="180" y="254" width="350.47" height="22" fill="#4c78a8" rx="3"/>
<text x="538.47" y="270" class="value">162.08</text>
<text x="10" y="302" class="label">community.akamai.steamstatic.com</text>
<rect x="180" y="286" width="356.42" height="22" fill="#4c78a8" rx="3"/>
<text x="544.4200000000001" y="302" class="value">164.83</text>
<text x="10" y="334" class="label">cdn.cloudflare.steamstatic.com</text>
<rect x="180" y="318" width="356.48" height="22" fill="#4c78a8" rx="3"/>
<text x="544.48" y="334" class="value">164.86</text>
<text x="10" y="366" class="label">static3.cdn.ubi.com</text>
<rect x="180" y="350" width="379.25" height="22" fill="#4c78a8" rx="3"/>
<text x="567.25" y="366" class="value">175.39</text>
<text x="10" y="398" class="label">api.steampowered.com</text>
<rect x="180" y="382" width="481.53" height="22" fill="#4c78a8" rx="3"/>
<text x="669.53" y="398" class="value">222.69</text>
<text x="10" y="430" class="label">steam-chat.com</text>
<rect x="180" y="414" width="551.91" height="22" fill="#4c78a8" rx="3"/>
<text x="739.91" y="430" class="value">255.24</text>
<text x="10" y="462" class="label">launcher-public-service-prod06.ol.epicgames.com</text>
<rect x="180" y="446" width="568.8" height="22" fill="#4c78a8" rx="3"/>
<text x="756.8" y="462" class="value">263.05</text>
<text x="10" y="494" class="label">easyanticheat.net</text>
<rect x="180" y="478" width="580.0" height="22" fill="#4c78a8" rx="3"/>
<text x="768.0" y="494" class="value">268.23</text>
<line x1="180" y1="30" x2="180" y2="520" stroke="#ccc"/>
<line x1="180" y1="520" x2="760" y2="520" stroke="#ccc"/>
</svg>