<svg xmlns="http://www.w3.org/2000/svg" width="800" height="540">
<style> .label{font-family:DejaVu Sans,Verdana,Geneva,sans-serif;font-size:12px;fill:#333} .value{font-family:DejaVu Sans,Verdana,Geneva,sans-serif;font-size:12px;fill:#555} </style>
<text x="10" y="20" class="label">延迟柱状图（越低越好，Top 15），单位 ms</text>
<text x="10" y="46" class="label">eaassets-a.akamaihd.net</text>
<rect x="180" y="30" width="188.93" height="22" fill="#4c78a8" rx="3"/>
<text x="376.93" y="46" class="value">63.90</text>
<text x="10" y="78" class="label">rockstargames.com</text>
<rect x="180" y="62" width="193.13" height="22" fill="#4c78a8" rx="3"/>
<text x="381.13" y="78" class="value">65.32</text>
<text x="10" y="110" class="label">ubi.com</text>
<rect x="180" y="94" width="220.12" height="22" fill="#4c78a8" rx="3"/>
<text x="408.12" y="110" class="value">74.45</text>
<text x="10" y="142" class="label">unrealengine.com</text>
<rect x="180" y="126" width="220.8" height="22" fill="#4c78a8" rx="3"/>
<text x="408.8" y="142" class="value">74.68</text>
<text x="10" y="174" class="label">fortnite.com</text>
<rect x="180" y="158" width="225.94" height="22" fill="#4c78a8" rx="3"/>
<text x="413.94" y="174" class="value">76.42</text>
<text x="10" y="206" class="label">battle.net</text>
<rect x="180" y="190" width="230.2" height="22" fill="#4c78a8" rx="3"/>
<text x="418.2" y="206" class="value">77.86</text>
<text x="10" y="238" class="label">blizzard.com</text>
<rect x="180" y="222" width="251.87" height="22" fill="#4c78a8" rx="3"/>
<text x="439.87" y="238" class="value">85.19</text>
<text x="10" y="270" class="label">socialclub.rockstargames.com</text>
<rect x="180" y="254" width="292.56" height="22" fill="#4c78a8" rx="3"/>
<text x="480.56" y="270" class="value">98.95</text>
<text x="10" y="302" class="label">ea.com</text>
<rect x="180" y="286" width="303.38" height="22" fill="#4c78a8" rx="3"/>
<text x="491.38" y="302" class="value">102.61</text>
<text x="10" y="334" class="label">static3.cdn.ubi.com</text>
<rect x="180" y="318" width="339.33" height="22" fill="#4c78a8" rx="3"/>
<text x="527.3299999999999" y="334" class="value">114.77</text>
<text x="10" y="366" class="label">epicgames.com</text>
<rect x="180" y="350" width="472.73" height="22" fill="#4c78a8" rx="3"/>
<text x="660.73" y="366" class="value">159.89</text>
<text x="10" y="398" class="label">community.akamai.steamstatic.com</text>
<rect x="180" y="382" width="488.14" height="22" fill="#4c78a8" rx="3"/>
<text x="676.14" y="398" class="value">165.10</text>
<text x="10" y="430" class="label">cdn.cloudflare.steamstatic.com</text>
<rect x="180" y="414" width="545.64" height="22" fill="#4c78a8" rx="3"/>
<text x="733.64" y="430" class="value">184.55</text>
<text x="10" y="462" class="label">cdn.akamai.steamstatic.com</text>
<rect x="180" y="446" width="578.64" height="22" fill="#4c78a8" rx="3"/>
<text x="766.64" y="462" class="value">195.71</text>
<text x="10" y="494" class="label">ubisoft.com</text>
<rect x="180" y="478" width="580.0" height="22" fill="#4c78a8" rx="3"/>
<text x="768.0" y="494" class="value">196.17</text>
<line x1="180" y1="30" x2="180" y2="520" stroke="#ccc"/>
<line x1="180" y1="520" x2="760" y2="520" stroke="#ccc"/>
</svg>