<svg xmlns="http://www.w3.org/2000/svg" width="800" height="540">
<style> .label{font-family:DejaVu Sans,Verdana,Geneva,sans-serif;font-size:12px;fill:#333} .value{font-family:DejaVu Sans,Verdana,Geneva,sans-serif;font-size:12px;fill:#555} </style>
<text x="10" y="20" class="label">延迟柱状图（越低越好，Top 15），单位 ms</text>
<text x="10" y="46" class="label">store.akamai.steamstatic.com</text>
<rect x="180" y="30" width="294.28" height="22" fill="#4c78a8" rx="3"/>
<text x="482.28" y="46" class="value">115.21</text>
<text x="10" y="78" class="label">eaassets-a.akamaihd.net</text>
<rect x="180" y="62" width="296.63" height="22" fill="#4c78a8" rx="3"/>
<text x="484.63" y="78" class="value">116.13</text>
<text x="10" y="110" class="label">rockstargames.com</text>
<rect x="180" y="94" width="356.19" height="22" fill="#4c78a8" rx="3"/>
<text x="544.19" y="110" class="value">139.45</text>
<text x="10" y="142" class="label">ea.com</text>
<rect x="180" y="126" width="395.71" height="22" fill="#4c78a8" rx="3"/>
<text x="583.71" y="142" class="value">154.92</text>
<text x="10" y="174" class="label">easyanticheat.net</text>
<rect x="180" y="158" width="407.89" height="22" fill="#4c78a8" rx="3"/>
<text x="595.89" y="174" class="value">159.69</text>
<text x="10" y="206" class="label">ubi.com</text>
<rect x="180" y="190" width="419.05" height="22" fill="#4c78a8" rx="3"/>
<text x="607.05" y="206" class="value">164.06</text>
<text x="10" y="238" class="label">steamcdn-a.akamaihd.net</text>
<rect x="180" y="222" width="447.94" height="22" fill="#4c78a8" rx="3"/>
<text x="635.94" y="238" class="value">175.37</text>
<text x="10" y="270" class="label">ubisoft.com</text>
<rect x="180" y="254" width="457.57" height="22" fill="#4c78a8" rx="3"/>
<text x="645.5699999999999" y="270" class="value">179.14</text>
<text x="10" y="302" class="label">origin.com</text>
<rect x="180" y="286" width="460.95" height="22" fill="#4c78a8" rx="3"/>
<text x="648.95" y="302" class="value">180.46</text>
<text x="10" y="334" class="label">launcher-public-service-prod06.ol.epicgames.com</text>
<rect x="180" y="318" width="494.61" height="22" fill="#4c78a8" rx="3"/>
<text x="682.61" y="334" class="value">193.64</text>
<text x="10" y="366" class="label">socialclub.rockstargames.com</text>
<rect x="180" y="350" width="499.39" height="22" fill="#4c78a8" rx="3"/>
<text x="687.39" y="366" class="value">195.51</text>
<text x="10" y="398" class="label">community.akamai.steamstatic.com</text>
<rect x="180" y="382" width="517.11" height="22" fill="#4c78a8" rx="3"/>
<text x="705.11" y="398" class="value">202.45</text>
<text x="10" y="430" class="label">epicgames.com</text>
<rect x="180" y="414" width="539.36" height="22" fill="#4c78a8" rx="3"/>
<text x="727.36" y="430" class="value">211.16</text>
<text x="10" y="462" class="label">cdn.cloudflare.steamstatic.com</text>
<rect x="180" y="446" width="551.47" height="22" fill="#4c78a8" rx="3"/>
<text x="739.47" y="462" class="value">215.90</text>
<text x="10" y="494" class="label">fortnite.com</text>
<rect x="180" y="478" width="580.0" height="22" fill="#4c78a8" rx="3"/>
<text x="768.0" y="494" class="value">227.07</text>
<line x1="180" y1="30" x2="180" y2="520" stroke="#ccc"/>
<line x1="180" y1="520" x2="760" y2="520" stroke="#ccc"/>
</svg>