<svg xmlns="http://www.w3.org/2000/svg" width="800" height="540">
<style> .label{font-family:DejaVu Sans,Verdana,Geneva,sans-serif;font-size:12px;fill:#333} .value{font-family:DejaVu Sans,Verdana,Geneva,sans-serif;font-size:12px;fill:#555} </style>
<text x="10" y="20" class="label">延迟柱状图（越低越好，Top 15），单位 ms</text>
<text x="10" y="46" class="label">eaassets-a.akamaihd.net</text>
<rect x="180" y="30" width="332.35" height="22" fill="#4c78a8" rx="3"/>
<text x="520.35" y="46" class="value">143.31</text>
<text x="10" y="78" class="label">ubisoft.com</text>
<rect x="180" y="62" width="333.85" height="22" fill="#4c78a8" rx="3"/>
<text x="521.85" y="78" class="value">143.96</text>
<text x="10" y="110" class="label">cdn.akamai.steamstatic.com</text>
<rect x="180" y="94" width="335.06" height="22" fill="#4c78a8" rx="3"/>
<text x="523.06" y="110" class="value">144.48</text>
<text x="10" y="142" class="label">community.akamai.steamstatic.com</text>
<rect x="180" y="126" width="360.71" height="22" fill="#4c78a8" rx="3"/>
<text x="548.71" y="142" class="value">155.54</text>
<text x="10" y="174" class="label">cdn.cloudflare.steamstatic.com</text>
<rect x="180" y="158" width="386.22" height="22" fill="#4c78a8" rx="3"/>
<text x="574.22" y="174" class="value">166.54</text>
<text x="10" y="206" class="label">origin.com</text>
<rect x="180" y="190" width="407.41" height="22" fill="#4c78a8" rx="3"/>
<text x="595.4100000000001" y="206" class="value">175.68</text>
<text x="10" y="238" class="label">battle.net</text>
<rect x="180" y="222" width="421.54" height="22" fill="#4c78a8" rx="3"/>
<text x="609.54" y="238" class="value">181.77</text>
<text x="10" y="270" class="label">steamcdn-a.akamaihd.net</text>
<rect x="180" y="254" width="422.56" height="22" fill="#4c78a8" rx="3"/>
<text x="610.56" y="270" class="value">182.21</text>
<text x="10" y="302" class="label">rockstargames.com</text>
<rect x="180" y="286" width="423.02" height="22" fill="#4c78a8" rx="3"/>
<text x="611.02" y="302" class="value">182.41</text>
<text x="10" y="334" class="label">store.akamai.steamstatic.com</text>
<rect x="180" y="318" width="431.0" height="22" fill="#4c78a8" rx="3"/>
<text x="619.0" y="334" class="value">185.85</text>
<text x="10" y="366" class="label">ubi.com</text>
<rect x="180" y="350" width="497.16" height="22" fill="#4c78a8" rx="3"/>
<text x="685.1600000000001" y="366" class="value">214.38</text>
<text x="10" y="398" class="label">easyanticheat.net</text>
<rect x="180" y="382" width="537.82" height="22" fill="#4c78a8" rx="3"/>
<text x="725.82" y="398" class="value">231.91</text>
<text x="10" y="430" class="label">unrealengine.com</text>
<rect x="180" y="414" width="571.3" height="22" fill="#4c78a8" rx="3"/>
<text x="759.3" y="430" class="value">246.35</text>
<text x="10" y="462" class="label">api.steampowered.com</text>
<rect x="180" y="446" width="574.36" height="22" fill="#4c78a8" rx="3"/>
<text x="762.36" y="462" class="value">247.67</text>
<text x="10" y="494" class="label">www.steamcommunity.com</text>
<rect x="180" y="478" width="580.0" height="22" fill="#4c78a8" rx="3"/>
<text x="768.0" y="494" class="value">250.10</text>
<line x1="180" y1="30" x2="180" y2="520" stroke="#ccc"/>
<line x1="180" y1="520" x2="760" y2="520" stroke="#ccc"/>
</svg>