<svg xmlns="http://www.w3.org/2000/svg" width="800" height="540">
<style> .label{font-family:DejaVu Sans,Verdana,Geneva,sans-serif;font-size:12px;fill:#333} .value{font-family:DejaVu Sans,Verdana,Geneva,sans-serif;font-size:12px;fill:#555} </style>
<text x="10" y="20" class="label">延迟柱状图（越低越好，Top 15），单位 ms</text>
<text x="10" y="46" class="label">rockstargames.com</text>
<rect x="180" y="30" width="104.1" height="22" fill="#4c78a8" rx="3"/>
<text x="292.1" y="46" class="value">42.30</text>
<text x="10" y="78" class="label">origin.com</text>
<rect x="180" y="62" width="243.51" height="22" fill="#4c78a8" rx="3"/>
<text x="431.51" y="78" class="value">98.95</text>
<text x="10" y="110" class="label">community.akamai.steamstatic.com</text>
<rect x="180" y="94" width="289.51" height="22" fill="#4c78a8" rx="3"/>
<text x="477.51" y="110" class="value">117.64</text>
<text x="10" y="142" class="label">cdn.cloudflare.steamstatic.com</text>
<rect x="180" y="126" width="329.74" height="22" fill="#4c78a8" rx="3"/>
<text x="517.74" y="142" class="value">133.99</text>
<text x="10" y="174" class="label">ea.com</text>
<rect x="180" y="158" width="335.92" height="22" fill="#4c78a8" rx="3"/>
<text x="523.9200000000001" y="174" class="value">136.50</text>
<text x="10" y="206" class="label">steamcdn-a.akamaihd.net</text>
<rect x="180" y="190" width="381.7" height="22" fill="#4c78a8" rx="3"/>
<text x="569.7" y="206" class="value">155.10</text>
<text x="10" y="238" class="label">store.akamai.steamstatic.com</text>
<rect x="180" y="222" width="401.31" height="22" fill="#4c78a8" rx="3"/>
<text x="589.31" y="238" class="value">163.07</text>
<text x="10" y="270" class="label">cdn.akamai.steamstatic.com</text>
<rect x="180" y="254" width="511.68" height="22" fill="#4c78a8" rx="3"/>
<text x="699.6800000000001" y="270" class="value">207.92</text>
<text x="10" y="302" class="label">ubisoft.com</text>
<rect x="180" y="286" width="519.21" height="22" fill="#4c78a8" rx="3"/>
<text x="707.21" y="302" class="value">210.98</text>
<text x="10" y="334" class="label">gog.com</text>
<rect x="180" y="318" width="529.7" height="22" fill="#4c78a8" rx="3"/>
<text x="717.7" y="334" class="value">215.24</text>
<text x="10" y="366" class="label">easyanticheat.net</text>
<rect x="180" y="350" width="561.96" height="22" fill="#4c78a8" rx="3"/>
<text x="749.96" y="366" class="value">228.35</text>
<text x="10" y="398" class="label">steamcommunity.com</text>
<rect x="180" y="382" width="562.53" height="22" fill="#4c78a8" rx="3"/>
<text x="750.53" y="398" class="value">228.58</text>
<text x="10" y="430" class="label">www.steamcommunity.com</text>
<rect x="180" y="414" width="570.08" height="22" fill="#4c78a8" rx="3"/>
<text x="758.08" y="430" class="value">231.65</text>
<text x="10" y="462" class="label">launcher-public-service-prod06.ol.epicgames.com</text>
<rect x="180" y="446" width="576.06" height="22" fill="#4c78a8" rx="3"/>
<text x="764.06" y="462" class="value">234.08</text>
<text x="10" y="494" class="label">api.steampowered.com</text>
<rect x="180" y="478" width="580.0" height="22" fill="#4c78a8" rx="3"/>
<text x="768.0" y="494" class="value">235.68</text>
<line x1="180" y1="30" x2="180" y2="520" stroke="#ccc"/>
<line x1="180" y1="520" x2="760" y2="520" stroke="#ccc"/>
</svg>