<svg xmlns="http://www.w3.org/2000/svg" width="800" height="540">
<style> .label{font-family:DejaVu Sans,Verdana,Geneva,sans-serif;font-size:12px;fill:#333} .value{font-family:DejaVu Sans,Verdana,Geneva,sans-serif;font-size:12px;fill:#555} </style>
<text x="10" y="20" class="label">延迟柱状图（越低越好，Top 15），单位 ms</text>
<text x="10" y="46" class="label">rockstargames.com</text>
<rect x="180" y="30" width="117.51" height="22" fill="#4c78a8" rx="3"/>
<text x="305.51" y="46" class="value">58.90</text>
<text x="10" y="78" class="label">ea.com</text>
<rect x="180" y="62" width="164.17" height="22" fill="#4c78a8" rx="3"/>
<text x="352.16999999999996" y="78" class="value">82.29</text>
<text x="10" y="110" class="label">eaassets-a.akamaihd.net</text>
<rect x="180" y="94" width="166.65" height="22" fill="#4c78a8" rx="3"/>
<text x="354.65" y="110" class="value">83.53</text>
<text x="10" y="142" class="label">ubisoft.com</text>
<rect x="180" y="126" width="209.3" height="22" fill="#4c78a8" rx="3"/>
<text x="397.3" y="142" class="value">104.91</text>
<text x="10" y="174" class="label">cdn.cloudflare.steamstatic.com</text>
<rect x="180" y="158" width="225.78" height="22" fill="#4c78a8" rx="3"/>
<text x="413.78" y="174" class="value">113.17</text>
<text x="10" y="206" class="label">cdn.akamai.steamstatic.com</text>
<rect x="180" y="190" width="242.34" height="22" fill="#4c78a8" rx="3"/>
<text x="430.34000000000003" y="206" class="value">121.47</text>
<text x="10" y="238" class="label">steamcdn-a.akamaihd.net</text>
<rect x="180" y="222" width="273.22" height="22" fill="#4c78a8" rx="3"/>
<text x="461.22" y="238" class="value">136.95</text>
<text x="10" y="270" class="label">community.akamai.steamstatic.com</text>
<rect x="180" y="254" width="309.03" height="22" fill="#4c78a8" rx="3"/>
<text x="497.03" y="270" class="value">154.90</text>
<text x="10" y="302" class="label">origin.com</text>
<rect x="180" y="286" width="319.13" height="22" fill="#4c78a8" rx="3"/>
<text x="507.13" y="302" class="value">159.96</text>
<text x="10" y="334" class="label">store.akamai.steamstatic.com</text>
<rect x="180" y="318" width="393.74" height="22" fill="#4c78a8" rx="3"/>
<text x="581.74" y="334" class="value">197.36</text>
<text x="10" y="366" class="label">gog.com</text>
<rect x="180" y="350" width="424.39" height="22" fill="#4c78a8" rx="3"/>
<text x="612.39" y="366" class="value">212.72</text>
<text x="10" y="398" class="label">steam-chat.com</text>
<rect x="180" y="382" width="540.62" height="22" fill="#4c78a8" rx="3"/>
<text x="728.62" y="398" class="value">270.98</text>
<text x="10" y="430" class="label">easyanticheat.net</text>
<rect x="180" y="414" width="544.99" height="22" fill="#4c78a8" rx="3"/>
<text x="732.99" y="430" class="value">273.17</text>
<text x="10" y="462" class="label">www.steamcommunity.com</text>
<rect x="180" y="446" width="549.64" height="22" fill="#4c78a8" rx="3"/>
<text x="737.64" y="462" class="value">275.50</text>
<text x="10" y="494" class="label">ubi.com</text>
<rect x="180" y="478" width="580.0" height="22" fill="#4c78a8" rx="3"/>
<text x="768.0" y="494" class="value">290.72</text>
<line x1="180" y1="30" x2="180" y2="520" stroke="#ccc"/>
<line x1="180" y1="520" x2="760" y2="520" stroke="#ccc"/>
</svg>