<svg xmlns="http://www.w3.org/2000/svg" width="800" height="540">
<style> .label{font-family:DejaVu Sans,Verdana,Geneva,sans-serif;font-size:12px;fill:#333} .value{font-family:DejaVu Sans,Verdana,Geneva,sans-serif;font-size:12px;fill:#555} </style>
<text x="10" y="20" class="label">延迟柱状图（越低越好，Top 15），单位 ms</text>
<text x="10" y="46" class="label">eaassets-a.akamaihd.net</text>
<rect x="180" y="30" width="157.28" height="22" fill="#4c78a8" rx="3"/>
<text x="345.28" y="46" class="value">60.76</text>
<text x="10" y="78" class="label">rockstargames.com</text>
<rect x="180" y="62" width="174.59" height="22" fill="#4c78a8" rx="3"/>
<text x="362.59000000000003" y="78" class="value">67.45</text>
<text x="10" y="110" class="label">ea.com</text>
<rect x="180" y="94" width="243.45" height="22" fill="#4c78a8" rx="3"/>
<text x="431.45" y="110" class="value">94.05</text>
<text x="10" y="142" class="label">origin.com</text>
<rect x="180" y="126" width="322.34" height="22" fill="#4c78a8" rx="3"/>
<text x="510.34" y="142" class="value">124.53</text>
<text x="10" y="174" class="label">battle.net</text>
<rect x="180" y="158" width="335.93" height="22" fill="#4c78a8" rx="3"/>
<text x="523.9300000000001" y="174" class="value">129.78</text>
<text x="10" y="206" class="label">ubi.com</text>
<rect x="180" y="190" width="341.21" height="22" fill="#4c78a8" rx="3"/>
<text x="529.21" y="206" class="value">131.82</text>
<text x="10" y="238" class="label">store.akamai.steamstatic.com</text>
<rect x="180" y="222" width="346.49" height="22" fill="#4c78a8" rx="3"/>
<text x="534.49" y="238" class="value">133.86</text>
<text x="10" y="270" class="label">blizzard.com</text>
<rect x="180" y="254" width="354.03" height="22" fill="#4c78a8" rx="3"/>
<text x="542.03" y="270" class="value">136.77</text>
<text x="10" y="302" class="label">socialclub.rockstargames.com</text>
<rect x="180" y="286" width="402.2" height="22" fill="#4c78a8" rx="3"/>
<text x="590.2" y="302" class="value">155.38</text>
<text x="10" y="334" class="label">steamcdn-a.akamaihd.net</text>
<rect x="180" y="318" width="404.4" height="22" fill="#4c78a8" rx="3"/>
<text x="592.4" y="334" class="value">156.23</text>
<text x="10" y="366" class="label">static3.cdn.ubi.com</text>
<rect x="180" y="350" width="437.12" height="22" fill="#4c78a8" rx="3"/>
<text x="625.12" y="366" class="value">168.87</text>
<text x="10" y="398" class="label">cdn.cloudflare.steamstatic.com</text>
<rect x="180" y="382" width="463.16" height="22" fill="#4c78a8" rx="3"/>
<text x="651.1600000000001" y="398" class="value">178.93</text>
<text x="10" y="430" class="label">cdn.akamai.steamstatic.com</text>
<rect x="180" y="414" width="527.01" height="22" fill="#4c78a8" rx="3"/>
<text x="715.01" y="430" class="value">203.60</text>
<text x="10" y="462" class="label">epicgames.com</text>
<rect x="180" y="446" width="561.91" height="22" fill="#4c78a8" rx="3"/>
<text x="749.91" y="462" class="value">217.08</text>
<text x="10" y="494" class="label">unrealengine.com</text>
<rect x="180" y="478" width="580.0" height="22" fill="#4c78a8" rx="3"/>
<text x="768.0" y="494" class="value">224.07</text>
<line x1="180" y1="30" x2="180" y2="520" stroke="#ccc"/>
<line x1="180" y1="520" x2="760" y2="520" stroke="#ccc"/>
</svg>