<svg xmlns="http://www.w3.org/2000/svg" width="800" height="540">
<style> .label{font-family:DejaVu Sans,Verdana,Geneva,sans-serif;font-size:12px;fill:#333} .value{font-family:DejaVu Sans,Verdana,Geneva,sans-serif;font-size:12px;fill:#555} </style>
<text x="10" y="20" class="label">延迟柱状图（越低越好，Top 15），单位 ms</text>
<text x="10" y="46" class="label">eaassets-a.akamaihd.net</text>
<rect x="180" y="30" width="291.19" height="22" fill="#4c78a8" rx="3"/>
<text x="479.19" y="46" class="value">136.07</text>
<text x="10" y="78" class="label">ubisoft.com</text>
<rect x="180" y="62" width="293.07" height="22" fill="#4c78a8" rx="3"/>
<text x="481.07" y="78" class="value">136.95</text>
<text x="10" y="110" class="label">ea.com</text>
<rect x="180" y="94" width="297.33" height="22" fill="#4c78a8" rx="3"/>
<text x="485.33" y="110" class="value">138.94</text>
<text x="10" y="142" class="label">cdn.cloudflare.steamstatic.com</text>
<rect x="180" y="126" width="328.64" height="22" fill="#4c78a8" rx="3"/>
<text x="516.64" y="142" class="value">153.57</text>
<text x="10" y="174" class="label">rockstargames.com</text>
<rect x="180" y="158" width="336.49" height="22" fill="#4c78a8" rx="3"/>
<text x="524.49" y="174" class="value">157.24</text>
<text x="10" y="206" class="label">cdn.akamai.steamstatic.com</text>
<rect x="180" y="190" width="380.04" height="22" fill="#4c78a8" rx="3"/>
<text x="568.04" y="206" class="value">177.59</text>
<text x="10" y="238" class="label">community.akamai.steamstatic.com</text>
<rect x="180" y="222" width="395.49" height="22" fill="#4c78a8" rx="3"/>
<text x="583.49" y="238" class="value">184.81</text>
<text x="10" y="270" class="label">origin.com</text>
<rect x="180" y="254" width="404.69" height="22" fill="#4c78a8" rx="3"/>
<text x="592.69" y="270" class="value">189.11</text>
<text x="10" y="302" class="label">easyanticheat.net</text>
<rect x="180" y="286" width="416.06" height="22" fill="#4c78a8" rx="3"/>
<text x="604.06" y="302" class="value">194.42</text>
<text x="10" y="334" class="label">steamcdn-a.akamaihd.net</text>
<rect x="180" y="318" width="436.43" height="22" fill="#4c78a8" rx="3"/>
<text x="624.4300000000001" y="334" class="value">203.94</text>
<text x="10" y="366" class="label">steam-chat.com</text>
<rect x="180" y="350" width="462.09" height="22" fill="#4c78a8" rx="3"/>
<text x="650.0899999999999" y="366" class="value">215.93</text>
<text x="10" y="398" class="label">ubi.com</text>
<rect x="180" y="382" width="475.72" height="22" fill="#4c78a8" rx="3"/>
<text x="663.72" y="398" class="value">222.30</text>
<text x="10" y="430" class="label">www.steamcommunity.com</text>
<rect x="180" y="414" width="537.2" height="22" fill="#4c78a8" rx="3"/>
<text x="725.2" y="430" class="value">251.03</text>
<text x="10" y="462" class="label">socialclub.rockstargames.com</text>
<rect x="180" y="446" width="576.73" height="22" fill="#4c78a8" rx="3"/>
<text x="764.73" y="462" class="value">269.50</text>
<text x="10" y="494" class="label">unrealengine.com</text>
<rect x="180" y="478" width="580.0" height="22" fill="#4c78a8" rx="3"/>
<text x="768.0" y="494" class="value">271.03</text>
<line x1="180" y1="30" x2="180" y2="520" stroke="#ccc"/>
<line x1="180" y1="520" x2="760" y2="520" stroke="#ccc"/>
</svg>