<svg xmlns="http://www.w3.org/2000/svg" width="800" height="540">
<style> .label{font-family:DejaVu Sans,Verdana,Geneva,sans-serif;font-size:12px;fill:#333} .value{font-family:DejaVu Sans,Verdana,Geneva,sans-serif;font-size:12px;fill:#555} </style>
<text x="10" y="20" class="label">延迟柱状图（越低越好，Top 15），单位 ms</text>
<text x="10" y="46" class="label">rockstargames.com</text>
<rect x="180" y="30" width="79.63" height="22" fill="#4c78a8" rx="3"/>
<text x="267.63" y="46" class="value">37.81</text>
<text x="10" y="78" class="label">eaassets-a.akamaihd.net</text>
<rect x="180" y="62" width="102.37" height="22" fill="#4c78a8" rx="3"/>
<text x="290.37" y="78" class="value">48.61</text>
<text x="10" y="110" class="label">store.akamai.steamstatic.com</text>
<rect x="180" y="94" width="175.47" height="22" fill="#4c78a8" rx="3"/>
<text x="363.47" y="110" class="value">83.32</text>
<text x="10" y="142" class="label">ea.com</text>
<rect x="180" y="126" width="176.8" height="22" fill="#4c78a8" rx="3"/>
<text x="364.8" y="142" class="value">83.95</text>
<text x="10" y="174" class="label">cdn.akamai.steamstatic.com</text>
<rect x="180" y="158" width="244.74" height="22" fill="#4c78a8" rx="3"/>
<text x="432.74" y="174" class="value">116.21</text>
<text x="10" y="206" class="label">steamcdn-a.akamaihd.net</text>
<rect x="180" y="190" width="249.33" height="22" fill="#4c78a8" rx="3"/>
<text x="437.33000000000004" y="206" class="value">118.39</text>
<text x="10" y="238" class="label">ubisoft.com</text>
<rect x="180" y="222" width="262.79" height="22" fill="#4c78a8" rx="3"/>
<text x="450.79" y="238" class="value">124.78</text>
<text x="10" y="270" class="label">community.akamai.steamstatic.com</text>
<rect x="180" y="254" width="284.19" height="22" fill="#4c78a8" rx="3"/>
<text x="472.19" y="270" class="value">134.94</text>
<text x="10" y="302" class="label">easyanticheat.net</text>
<rect x="180" y="286" width="366.34" height="22" fill="#4c78a8" rx="3"/>
<text x="554.3399999999999" y="302" class="value">173.95</text>
<text x="10" y="334" class="label">cdn.cloudflare.steamstatic.com</text>
<rect x="180" y="318" width="423.44" height="22" fill="#4c78a8" rx="3"/>
<text x="611.44" y="334" class="value">201.06</text>
<text x="10" y="366" class="label">steam-chat.com</text>
<rect x="180" y="350" width="484.11" height="22" fill="#4c78a8" rx="3"/>
<text x="672.11" y="366" class="value">229.87</text>
<text x="10" y="398" class="label">origin.com</text>
<rect x="180" y="382" width="492.49" height="22" fill="#4c78a8" rx="3"/>
<text x="680.49" y="398" class="value">233.85</text>
<text x="10" y="430" class="label">www.steamcommunity.com</text>
<rect x="180" y="414" width="520.69" height="22" fill="#4c78a8" rx="3"/>
<text x="708.69" y="430" class="value">247.24</text>
<text x="10" y="462" class="label">api.steampowered.com</text>
<rect x="180" y="446" width="527.1" height="22" fill="#4c78a8" rx="3"/>
<text x="715.1" y="462" class="value">250.28</text>
<text x="10" y="494" class="label">launcher-public-service-prod06.ol.epicgames.com</text>
<rect x="180" y="478" width="580.0" height="22" fill="#4c78a8" rx="3"/>
<text x="768.0" y="494" class="value">275.40</text>
<line x1="180" y1="30" x2="180" y2="520" stroke="#ccc"/>
<line x1="180" y1="520" x2="760" y2="520" stroke="#ccc"/>
</svg>