<svg xmlns="http://www.w3.org/2000/svg" width="800" height="540">
<style> .label{font-family:DejaVu Sans,Verdana,Geneva,sans-serif;font-size:12px;fill:#333} .value{font-family:DejaVu Sans,Verdana,Geneva,sans-serif;font-size:12px;fill:#555} </style>
<text x="10" y="20" class="label">延迟柱状图（越低越好，Top 15），单位 ms</text>
<text x="10" y="46" class="label">rockstargames.com</text>
<rect x="180" y="30" width="275.96" height="22" fill="#4c78a8" rx="3"/>
<text x="463.96" y="46" class="value">125.06</text>
<text x="10" y="78" class="label">cdn.akamai.steamstatic.com</text>
<rect x="180" y="62" width="299.79" height="22" fill="#4c78a8" rx="3"/>
<text x="487.79" y="78" class="value">135.86</text>
<text x="10" y="110" class="label">ubisoft.com</text>
<rect x="180" y="94" width="312.56" height="22" fill="#4c78a8" rx="3"/>
<text x="500.56" y="110" class="value">141.65</text>
<text x="10" y="142" class="label">eaassets-a.akamaihd.net</text>
<rect x="180" y="126" width="353.52" height="22" fill="#4c78a8" rx="3"/>
<text x="541.52" y="142" class="value">160.21</text>
<text x="10" y="174" class="label">steamcdn-a.akamaihd.net</text>
<rect x="180" y="158" width="354.82" height="22" fill="#4c78a8" rx="3"/>
<text x="542.8199999999999" y="174" class="value">160.80</text>
<text x="10" y="206" class="label">cdn.cloudflare.steamstatic.com</text>
<rect x="180" y="190" width="355.48" height="22" fill="#4c78a8" rx="3"/>
<text x="543.48" y="206" class="value">161.10</text>
<text x="10" y="238" class="label">ea.com</text>
<rect x="180" y="222" width="357.69" height="22" fill="#4c78a8" rx="3"/>
<text x="545.69" y="238" class="value">162.10</text>
<text x="10" y="270" class="label">ubi.com</text>
<rect x="180" y="254" width="448.64" height="22" fill="#4c78a8" rx="3"/>
<text x="636.64" y="270" class="value">203.32</text>
<text x="10" y="302" class="label">easyanticheat.net</text>
<rect x="180" y="286" width="452.17" height="22" fill="#4c78a8" rx="3"/>
<text x="640.1700000000001" y="302" class="value">204.92</text>
<text x="10" y="334" class="label">battle.net</text>
<rect x="180" y="318" width="478.94" height="22" fill="#4c78a8" rx="3"/>
<text x="666.94" y="334" class="value">217.05</text>
<text x="10" y="366" class="label">blizzard.com</text>
<rect x="180" y="350" width="488.54" height="22" fill="#4c78a8" rx="3"/>
<text x="676.54" y="366" class="value">221.40</text>
<text x="10" y="398" class="label">origin.com</text>
<rect x="180" y="382" width="514.2" height="22" fill="#4c78a8" rx="3"/>
<text x="702.2" y="398" class="value">233.03</text>
<text x="10" y="430" class="label">community.akamai.steamstatic.com</text>
<rect x="180" y="414" width="559.68" height="22" fill="#4c78a8" rx="3"/>
<text x="747.68" y="430" class="value">253.64</text>
<text x="10" y="462" class="label">launcher-public-service-prod06.ol.epicgames.com</text>
<rect x="180" y="446" width="569.14" height="22" fill="#4c78a8" rx="3"/>
<text x="757.14" y="462" class="value">257.93</text>
<text x="10" y="494" class="label">fortnite.com</text>
<rect x="180" y="478" width="580.0" height="22" fill="#4c78a8" rx="3"/>
<text x="768.0" y="494" class="value">262.85</text>
<line x1="180" y1="30" x2="180" y2="520" stroke="#ccc"/>
<line x1="180" y1="520" x2="760" y2="520" stroke="#ccc"/>
</svg>