<svg xmlns="http://www.w3.org/2000/svg" width="800" height="540">
<style> .label{font-family:DejaVu Sans,Verdana,Geneva,sans-serif;font-size:12px;fill:#333} .value{font-family:DejaVu Sans,Verdana,Geneva,sans-serif;font-size:12px;fill:#555} </style>
<text x="10" y="20" class="label">延迟柱状图（越低越好，Top 15），单位 ms</text>
<text x="10" y="46" class="label">eaassets-a.akamaihd.net</text>
<rect x="180" y="30" width="81.89" height="22" fill="#4c78a8" rx="3"/>
<text x="269.89" y="46" class="value">42.00</text>
<text x="10" y="78" class="label">rockstargames.com</text>
<rect x="180" y="62" width="107.39" height="22" fill="#4c78a8" rx="3"/>
<text x="295.39" y="78" class="value">55.08</text>
<text x="10" y="110" class="label">store.akamai.steamstatic.com</text>
<rect x="180" y="94" width="187.89" height="22" fill="#4c78a8" rx="3"/>
<text x="375.89" y="110" class="value">96.37</text>
<text x="10" y="142" class="label">ea.com</text>
<rect x="180" y="126" width="189.0" height="22" fill="#4c78a8" rx="3"/>
<text x="377.0" y="142" class="value">96.94</text>
<text x="10" y="174" class="label">origin.com</text>
<rect x="180" y="158" width="194.48" height="22" fill="#4c78a8" rx="3"/>
<text x="382.48" y="174" class="value">99.75</text>
<text x="10" y="206" class="label">cdn.cloudflare.steamstatic.com</text>
<rect x="180" y="190" width="219.46" height="22" fill="#4c78a8" rx="3"/>
<text x="407.46000000000004" y="206" class="value">112.56</text>
<text x="10" y="238" class="label">easyanticheat.net</text>
<rect x="180" y="222" width="257.13" height="22" fill="#4c78a8" rx="3"/>
<text x="445.13" y="238" class="value">131.88</text>
<text x="10" y="270" class="label">steamcdn-a.akamaihd.net</text>
<rect x="180" y="254" width="263.97" height="22" fill="#4c78a8" rx="3"/>
<text x="451.97" y="270" class="value">135.39</text>
<text x="10" y="302" class="label">community.akamai.steamstatic.com</text>
<rect x="180" y="286" width="290.92" height="22" fill="#4c78a8" rx="3"/>
<text x="478.92" y="302" class="value">149.21</text>
<text x="10" y="334" class="label">cdn.akamai.steamstatic.com</text>
<rect x="180" y="318" width="314.22" height="22" fill="#4c78a8" rx="3"/>
<text x="502.22" y="334" class="value">161.16</text>
<text x="10" y="366" class="label">steam-chat.com</text>
<rect x="180" y="350" width="444.96" height="22" fill="#4c78a8" rx="3"/>
<text x="632.96" y="366" class="value">228.22</text>
<text x="10" y="398" class="label">launcher-public-service-prod06.ol.epicgames.com</text>
<rect x="180" y="382" width="465.61" height="22" fill="#4c78a8" rx="3"/>
<text x="653.61" y="398" class="value">238.81</text>
<text x="10" y="430" class="label">www.steamcommunity.com</text>
<rect x="180" y="414" width="524.1" height="22" fill="#4c78a8" rx="3"/>
<text x="712.1" y="430" class="value">268.81</text>
<text x="10" y="462" class="label">api.steampowered.com</text>
<rect x="180" y="446" width="550.42" height="22" fill="#4c78a8" rx="3"/>
<text x="738.42" y="462" class="value">282.31</text>
<text x="10" y="494" class="label">battle.net</text>
<rect x="180" y="478" width="580.0" height="22" fill="#4c78a8" rx="3"/>
<text x="768.0" y="494" class="value">297.48</text>
<line x1="180" y1="30" x2="180" y2="520" stroke="#ccc"/>
<line x1="180" y1="520" x2="760" y2="520" stroke="#ccc"/>
</svg>