<svg xmlns="http://www.w3.org/2000/svg" width="800" height="540">
<style> .label{font-family:DejaVu Sans,Verdana,Geneva,sans-serif;font-size:12px;fill:#333} .value{font-family:DejaVu Sans,Verdana,Geneva,sans-serif;font-size:12px;fill:#555} </style>
<text x="10" y="20" class="label">延迟柱状图（越低越好，Top 15），单位 ms</text>
<text x="10" y="46" class="label">rockstargames.com</text>
<rect x="180" y="30" width="73.03" height="22" fill="#4c78a8" rx="3"/>
<text x="261.03" y="46" class="value">36.89</text>
<text x="10" y="78" class="label">ea.com</text>
<rect x="180" y="62" width="121.43" height="22" fill="#4c78a8" rx="3"/>
<text x="309.43" y="78" class="value">61.34</text>
<text x="10" y="110" class="label">steamcdn-a.akamaihd.net</text>
<rect x="180" y="94" width="154.17" height="22" fill="#4c78a8" rx="3"/>
<text x="342.16999999999996" y="110" class="value">77.88</text>
<text x="10" y="142" class="label">eaassets-a.akamaihd.net</text>
<rect x="180" y="126" width="239.75" height="22" fill="#4c78a8" rx="3"/>
<text x="427.75" y="142" class="value">121.11</text>
<text x="10" y="174" class="label">cdn.cloudflare.steamstatic.com</text>
<rect x="180" y="158" width="288.58" height="22" fill="#4c78a8" rx="3"/>
<text x="476.58" y="174" class="value">145.78</text>
<text x="10" y="206" class="label">ubisoft.com</text>
<rect x="180" y="190" width="312.97" height="22" fill="#4c78a8" rx="3"/>
<text x="500.97" y="206" class="value">158.10</text>
<text x="10" y="238" class="label">cdn.akamai.steamstatic.com</text>
<rect x="180" y="222" width="327.4" height="22" fill="#4c78a8" rx="3"/>
<text x="515.4" y="238" class="value">165.39</text>
<text x="10" y="270" class="label">origin.com</text>
<rect x="180" y="254" width="344.71" height="22" fill="#4c78a8" rx="3"/>
<text x="532.71" y="270" class="value">174.13</text>
<text x="10" y="302" class="label">community.akamai.steamstatic.com</text>
<rect x="180" y="286" width="392.06" height="22" fill="#4c78a8" rx="3"/>
<text x="580.06" y="302" class="value">198.05</text>
<text x="10" y="334" class="label">steam-chat.com</text>
<rect x="180" y="318" width="442.5" height="22" fill="#4c78a8" rx="3"/>
<text x="630.5" y="334" class="value">223.53</text>
<text x="10" y="366" class="label">easyanticheat.net</text>
<rect x="180" y="350" width="455.31" height="22" fill="#4c78a8" rx="3"/>
<text x="643.31" y="366" class="value">230.00</text>
<text x="10" y="398" class="label">launcher-public-service-prod06.ol.epicgames.com</text>
<rect x="180" y="382" width="547.81" height="22" fill="#4c78a8" rx="3"/>
<text x="735.81" y="398" class="value">276.73</text>
<text x="10" y="430" class="label">api.steampowered.com</text>
<rect x="180" y="414" width="552.17" height="22" fill="#4c78a8" rx="3"/>
<text x="740.17" y="430" class="value">278.93</text>
<text x="10" y="462" class="label">www.steamcommunity.com</text>
<rect x="180" y="446" width="560.6" height="22" fill="#4c78a8" rx="3"/>
<text x="748.6" y="462" class="value">283.19</text>
<text x="10" y="494" class="label">blizzard.com</text>
<rect x="180" y="478" width="580.0" height="22" fill="#4c78a8" rx="3"/>
<text x="768.0" y="494" class="value">292.99</text>
<line x1="180" y1="30" x2="180" y2="520" stroke="#ccc"/>
<line x1="180" y1="520" x2="760" y2="520" stroke="#ccc"/>
</svg>