<svg xmlns="http://www.w3.org/2000/svg" width="800" height="540">
<style> .label{font-family:DejaVu Sans,Verdana,Geneva,sans-serif;font-size:12px;fill:#333} .value{font-family:DejaVu Sans,Verdana,Geneva,sans-serif;font-size:12px;fill:#555} </style>
<text x="10" y="20" class="label">延迟柱状图（越低越好，Top 15），单位 ms</text>
<text x="10" y="46" class="label">rockstargames.com</text>
<rect x="180" y="30" width="190.08" height="22" fill="#4c78a8" rx="3"/>
<text x="378.08000000000004" y="46" class="value">63.67</text>
<text x="10" y="78" class="label">blizzard.com</text>
<rect x="180" y="62" width="256.92" height="22" fill="#4c78a8" rx="3"/>
<text x="444.92" y="78" class="value">86.06</text>
<text x="10" y="110" class="label">socialclub.rockstargames.com</text>
<rect x="180" y="94" width="274.03" height="22" fill="#4c78a8" rx="3"/>
<text x="462.03" y="110" class="value">91.79</text>
<text x="10" y="142" class="label">eaassets-a.akamaihd.net</text>
<rect x="180" y="126" width="298.42" height="22" fill="#4c78a8" rx="3"/>
<text x="486.42" y="142" class="value">99.96</text>
<text x="10" y="174" class="label">ea.com</text>
<rect x="180" y="158" width="324.96" height="22" fill="#4c78a8" rx="3"/>
<text x="512.96" y="174" class="value">108.85</text>
<text x="10" y="206" class="label">battle.net</text>
<rect x="180" y="190" width="341.71" height="22" fill="#4c78a8" rx="3"/>
<text x="529.71" y="206" class="value">114.46</text>
<text x="10" y="238" class="label">ubi.com</text>
<rect x="180" y="222" width="368.72" height="22" fill="#4c78a8" rx="3"/>
<text x="556.72" y="238" class="value">123.51</text>
<text x="10" y="270" class="label">store.akamai.steamstatic.com</text>
<rect x="180" y="254" width="418.88" height="22" fill="#4c78a8" rx="3"/>
<text x="606.88" y="270" class="value">140.31</text>
<text x="10" y="302" class="label">fortnite.com</text>
<rect x="180" y="286" width="435.96" height="22" fill="#4c78a8" rx="3"/>
<text x="623.96" y="302" class="value">146.03</text>
<text x="10" y="334" class="label">ubisoft.com</text>
<rect x="180" y="318" width="475.09" height="22" fill="#4c78a8" rx="3"/>
<text x="663.0899999999999" y="334" class="value">159.14</text>
<text x="10" y="366" class="label">unrealengine.com</text>
<rect x="180" y="350" width="529.82" height="22" fill="#4c78a8" rx="3"/>
<text x="717.82" y="366" class="value">177.47</text>
<text x="10" y="398" class="label">gog.com</text>
<rect x="180" y="382" width="538.98" height="22" fill="#4c78a8" rx="3"/>
<text x="726.98" y="398" class="value">180.54</text>
<text x="10" y="430" class="label">community.akamai.steamstatic.com</text>
<rect x="180" y="414" width="565.97" height="22" fill="#4c78a8" rx="3"/>
<text x="753.97" y="430" class="value">189.58</text>
<text x="10" y="462" class="label">origin.com</text>
<rect x="180" y="446" width="578.78" height="22" fill="#4c78a8" rx="3"/>
<text x="766.78" y="462" class="value">193.87</text>
<text x="10" y="494" class="label">epicgames.com</text>
<rect x="180" y="478" width="580.0" height="22" fill="#4c78a8" rx="3"/>
<text x="768.0" y="494" class="value">194.28</text>
<line x1="180" y1="30" x2="180" y2="520" stroke="#ccc"/>
<line x1="180" y1="520" x2="760" y2="520" stroke="#ccc"/>
</svg>