<svg xmlns="http://www.w3.org/2000/svg" width="800" height="540">
<style> .label{font-family:DejaVu Sans,Verdana,Geneva,sans-serif;font-size:12px;fill:#333} .value{font-family:DejaVu Sans,Verdana,Geneva,sans-serif;font-size:12px;fill:#555} </style>
<text x="10" y="20" class="label">延迟柱状图（越低越好，Top 15），单位 ms</text>
<text x="10" y="46" class="label">eaassets-a.akamaihd.net</text>
<rect x="180" y="30" width="134.05" height="22" fill="#4c78a8" rx="3"/>
<text x="322.05" y="46" class="value">65.13</text>
<text x="10" y="78" class="label">rockstargames.com</text>
<rect x="180" y="62" width="134.4" height="22" fill="#4c78a8" rx="3"/>
<text x="322.4" y="78" class="value">65.30</text>
<text x="10" y="110" class="label">community.akamai.steamstatic.com</text>
<rect x="180" y="94" width="177.48" height="22" fill="#4c78a8" rx="3"/>
<text x="365.48" y="110" class="value">86.23</text>
<text x="10" y="142" class="label">ea.com</text>
<rect x="180" y="126" width="189.62" height="22" fill="#4c78a8" rx="3"/>
<text x="377.62" y="142" class="value">92.13</text>
<text x="10" y="174" class="label">steamcdn-a.akamaihd.net</text>
<rect x="180" y="158" width="226.71" height="22" fill="#4c78a8" rx="3"/>
<text x="414.71000000000004" y="174" class="value">110.15</text>
<text x="10" y="206" class="label">store.akamai.steamstatic.com</text>
<rect x="180" y="190" width="241.76" height="22" fill="#4c78a8" rx="3"/>
<text x="429.76" y="206" class="value">117.46</text>
<text x="10" y="238" class="label">easyanticheat.net</text>
<rect x="180" y="222" width="251.88" height="22" fill="#4c78a8" rx="3"/>
<text x="439.88" y="238" class="value">122.38</text>
<text x="10" y="270" class="label">origin.com</text>
<rect x="180" y="254" width="283.48" height="22" fill="#4c78a8" rx="3"/>
<text x="471.48" y="270" class="value">137.73</text>
<text x="10" y="302" class="label">cdn.akamai.steamstatic.com</text>
<rect x="180" y="286" width="317.58" height="22" fill="#4c78a8" rx="3"/>
<text x="505.58" y="302" class="value">154.30</text>
<text x="10" y="334" class="label">www.steamcommunity.com</text>
<rect x="180" y="318" width="400.83" height="22" fill="#4c78a8" rx="3"/>
<text x="588.8299999999999" y="334" class="value">194.75</text>
<text x="10" y="366" class="label">api.steampowered.com</text>
<rect x="180" y="350" width="419.48" height="22" fill="#4c78a8" rx="3"/>
<text x="607.48" y="366" class="value">203.81</text>
<text x="10" y="398" class="label">ubisoft.com</text>
<rect x="180" y="382" width="441.01" height="22" fill="#4c78a8" rx="3"/>
<text x="629.01" y="398" class="value">214.27</text>
<text x="10" y="430" class="label">steam-chat.com</text>
<rect x="180" y="414" width="514.43" height="22" fill="#4c78a8" rx="3"/>
<text x="702.43" y="430" class="value">249.94</text>
<text x="10" y="462" class="label">launcher-public-service-prod06.ol.epicgames.com</text>
<rect x="180" y="446" width="576.3" height="22" fill="#4c78a8" rx="3"/>
<text x="764.3" y="462" class="value">280.00</text>
<text x="10" y="494" class="label">blizzard.com</text>
<rect x="180" y="478" width="580.0" height="22" fill="#4c78a8" rx="3"/>
<text x="768.0" y="494" class="value">281.80</text>
<line x1="180" y1="30" x2="180" y2="520" stroke="#ccc"/>
<line x1="180" y1="520" x2="760" y2="520" stroke="#ccc"/>
</svg>