<svg xmlns="http://www.w3.org/2000/svg" width="800" height="540">
<style> .label{font-family:DejaVu Sans,Verdana,Geneva,sans-serif;font-size:12px;fill:#333} .value{font-family:DejaVu Sans,Verdana,Geneva,sans-serif;font-size:12px;fill:#555} </style>
<text x="10" y="20" class="label">延迟柱状图（越低越好，Top 15），单位 ms</text>
<text x="10" y="46" class="label">ea.com</text>
<rect x="180" y="30" width="183.3" height="22" fill="#4c78a8" rx="3"/>
<text x="371.3" y="46" class="value">95.93</text>
<text x="10" y="78" class="label">rockstargames.com</text>
<rect x="180" y="62" width="277.51" height="22" fill="#4c78a8" rx="3"/>
<text x="465.51" y="78" class="value">145.24</text>
<text x="10" y="110" class="label">socialclub.rockstargames.com</text>
<rect x="180" y="94" width="283.02" height="22" fill="#4c78a8" rx="3"/>
<text x="471.02" y="110" class="value">148.12</text>
<text x="10" y="142" class="label">www.steamcommunity.com</text>
<rect x="180" y="126" width="310.07" height="22" fill="#4c78a8" rx="3"/>
<text x="498.07" y="142" class="value">162.28</text>
<text x="10" y="174" class="label">ubi.com</text>
<rect x="180" y="158" width="315.59" height="22" fill="#4c78a8" rx="3"/>
<text x="503.59" y="174" class="value">165.17</text>
<text x="10" y="206" class="label">eaassets-a.akamaihd.net</text>
<rect x="180" y="190" width="319.49" height="22" fill="#4c78a8" rx="3"/>
<text x="507.49" y="206" class="value">167.21</text>
<text x="10" y="238" class="label">origin.com</text>
<rect x="180" y="222" width="337.68" height="22" fill="#4c78a8" rx="3"/>
<text x="525.6800000000001" y="238" class="value">176.73</text>
<text x="10" y="270" class="label">battle.net</text>
<rect x="180" y="254" width="350.54" height="22" fill="#4c78a8" rx="3"/>
<text x="538.54" y="270" class="value">183.46</text>
<text x="10" y="302" class="label">blizzard.com</text>
<rect x="180" y="286" width="358.6" height="22" fill="#4c78a8" rx="3"/>
<text x="546.6" y="302" class="value">187.68</text>
<text x="10" y="334" class="label">store.akamai.steamstatic.com</text>
<rect x="180" y="318" width="366.73" height="22" fill="#4c78a8" rx="3"/>
<text x="554.73" y="334" class="value">191.93</text>
<text x="10" y="366" class="label">ubisoft.com</text>
<rect x="180" y="350" width="376.81" height="22" fill="#4c78a8" rx="3"/>
<text x="564.81" y="366" class="value">197.21</text>
<text x="10" y="398" class="label">cdn.akamai.steamstatic.com</text>
<rect x="180" y="382" width="513.89" height="22" fill="#4c78a8" rx="3"/>
<text x="701.89" y="398" class="value">268.95</text>
<text x="10" y="430" class="label">cdn.cloudflare.steamstatic.com</text>
<rect x="180" y="414" width="563.82" height="22" fill="#4c78a8" rx="3"/>
<text x="751.82" y="430" class="value">295.08</text>
<text x="10" y="462" class="label">community.akamai.steamstatic.com</text>
<rect x="180" y="446" width="575.72" height="22" fill="#4c78a8" rx="3"/>
<text x="763.72" y="462" class="value">301.31</text>
<text x="10" y="494" class="label">unrealengine.com</text>
<rect x="180" y="478" width="580.0" height="22" fill="#4c78a8" rx="3"/>
<text x="768.0" y="494" class="value">303.55</text>
<line x1="180" y1="30" x2="180" y2="520" stroke="#ccc"/>
<line x1="180" y1="520" x2="760" y2="520" stroke="#ccc"/>
</svg>