<svg xmlns="http://www.w3.org/2000/svg" width="800" height="540">
<style> .label{font-family:DejaVu Sans,Verdana,Geneva,sans-serif;font-size:12px;fill:#333} .value{font-family:DejaVu Sans,Verdana,Geneva,sans-serif;font-size:12px;fill:#555} </style>
<text x="10" y="20" class="label">延迟柱状图（越低越好，Top 15），单位 ms</text>
<text x="10" y="46" class="label">rockstargames.com</text>
<rect x="180" y="30" width="144.19" height="22" fill="#4c78a8" rx="3"/>
<text x="332.19" y="46" class="value">61.55</text>
<text x="10" y="78" class="label">community.akamai.steamstatic.com</text>
<rect x="180" y="62" width="226.44" height="22" fill="#4c78a8" rx="3"/>
<text x="414.44" y="78" class="value">96.66</text>
<text x="10" y="110" class="label">steamcdn-a.akamaihd.net</text>
<rect x="180" y="94" width="232.02" height="22" fill="#4c78a8" rx="3"/>
<text x="420.02" y="110" class="value">99.04</text>
<text x="10" y="142" class="label">store.akamai.steamstatic.com</text>
<rect x="180" y="126" width="281.66" height="22" fill="#4c78a8" rx="3"/>
<text x="469.66" y="142" class="value">120.23</text>
<text x="10" y="174" class="label">cdn.cloudflare.steamstatic.com</text>
<rect x="180" y="158" width="283.63" height="22" fill="#4c78a8" rx="3"/>
<text x="471.63" y="174" class="value">121.07</text>
<text x="10" y="206" class="label">ubisoft.com</text>
<rect x="180" y="190" width="298.64" height="22" fill="#4c78a8" rx="3"/>
<text x="486.64" y="206" class="value">127.48</text>
<text x="10" y="238" class="label">cdn.akamai.steamstatic.com</text>
<rect x="180" y="222" width="299.39" height="22" fill="#4c78a8" rx="3"/>
<text x="487.39" y="238" class="value">127.80</text>
<text x="10" y="270" class="label">origin.com</text>
<rect x="180" y="254" width="307.8" height="22" fill="#4c78a8" rx="3"/>
<text x="495.8" y="270" class="value">131.39</text>
<text x="10" y="302" class="label">eaassets-a.akamaihd.net</text>
<rect x="180" y="286" width="318.16" height="22" fill="#4c78a8" rx="3"/>
<text x="506.16" y="302" class="value">135.81</text>
<text x="10" y="334" class="label">easyanticheat.net</text>
<rect x="180" y="318" width="381.29" height="22" fill="#4c78a8" rx="3"/>
<text x="569.29" y="334" class="value">162.76</text>
<text x="10" y="366" class="label">api.steampowered.com</text>
<rect x="180" y="350" width="383.99" height="22" fill="#4c78a8" rx="3"/>
<text x="571.99" y="366" class="value">163.91</text>
<text x="10" y="398" class="label">ea.com</text>
<rect x="180" y="382" width="386.42" height="22" fill="#4c78a8" rx="3"/>
<text x="574.4200000000001" y="398" class="value">164.95</text>
<text x="10" y="430" class="label">launcher-public-service-prod06.ol.epicgames.com</text>
<rect x="180" y="414" width="565.45" height="22" fill="#4c78a8" rx="3"/>
<text x="753.45" y="430" class="value">241.37</text>
<text x="10" y="462" class="label">steam-chat.com</text>
<rect x="180" y="446" width="578.22" height="22" fill="#4c78a8" rx="3"/>
<text x="766.22" y="462" class="value">246.82</text>
<text x="10" y="494" class="label">www.steamcommunity.com</text>
<rect x="180" y="478" width="580.0" height="22" fill="#4c78a8" rx="3"/>
<text x="768.0" y="494" class="value">247.58</text>
<line x1="180" y1="30" x2="180" y2="520" stroke="#ccc"/>
<line x1="180" y1="520" x2="760" y2="520" stroke="#ccc"/>
</svg>