<svg xmlns="http://www.w3.org/2000/svg" width="800" height="540">
<style> .label{font-family:DejaVu Sans,Verdana,Geneva,sans-serif;font-size:12px;fill:#333} .value{font-family:DejaVu Sans,Verdana,Geneva,sans-serif;font-size:12px;fill:#555} </style>
<text x="10" y="20" class="label">延迟柱状图（越低越好，Top 15），单位 ms</text>
<text x="10" y="46" class="label">rockstargames.com</text>
<rect x="180" y="30" width="112.11" height="22" fill="#4c78a8" rx="3"/>
<text x="300.11" y="46" class="value">48.58</text>
<text x="10" y="78" class="label">ea.com</text>
<rect x="180" y="62" width="191.25" height="22" fill="#4c78a8" rx="3"/>
<text x="379.25" y="78" class="value">82.87</text>
<text x="10" y="110" class="label">eaassets-a.akamaihd.net</text>
<rect x="180" y="94" width="201.98" height="22" fill="#4c78a8" rx="3"/>
<text x="389.98" y="110" class="value">87.52</text>
<text x="10" y="142" class="label">community.akamai.steamstatic.com</text>
<rect x="180" y="126" width="209.53" height="22" fill="#4c78a8" rx="3"/>
<text x="397.53" y="142" class="value">90.79</text>
<text x="10" y="174" class="label">steamcdn-a.akamaihd.net</text>
<rect x="180" y="158" width="222.01" height="22" fill="#4c78a8" rx="3"/>
<text x="410.01" y="174" class="value">96.20</text>
<text x="10" y="206" class="label">ubisoft.com</text>
<rect x="180" y="190" width="245.55" height="22" fill="#4c78a8" rx="3"/>
<text x="433.55" y="206" class="value">106.40</text>
<text x="10" y="238" class="label">easyanticheat.net</text>
<rect x="180" y="222" width="385.31" height="22" fill="#4c78a8" rx="3"/>
<text x="573.31" y="238" class="value">166.96</text>
<text x="10" y="270" class="label">static3.cdn.ubi.com</text>
<rect x="180" y="254" width="405.9" height="22" fill="#4c78a8" rx="3"/>
<text x="593.9" y="270" class="value">175.88</text>
<text x="10" y="302" class="label">cdn.cloudflare.steamstatic.com</text>
<rect x="180" y="286" width="411.0" height="22" fill="#4c78a8" rx="3"/>
<text x="599.0" y="302" class="value">178.09</text>
<text x="10" y="334" class="label">store.akamai.steamstatic.com</text>
<rect x="180" y="318" width="428.82" height="22" fill="#4c78a8" rx="3"/>
<text x="616.8199999999999" y="334" class="value">185.81</text>
<text x="10" y="366" class="label">origin.com</text>
<rect x="180" y="350" width="445.59" height="22" fill="#4c78a8" rx="3"/>
<text x="633.5899999999999" y="366" class="value">193.08</text>
<text x="10" y="398" class="label">cdn.akamai.steamstatic.com</text>
<rect x="180" y="382" width="516.58" height="22" fill="#4c78a8" rx="3"/>
<text x="704.58" y="398" class="value">223.84</text>
<text x="10" y="430" class="label">gog.com</text>
<rect x="180" y="414" width="540.49" height="22" fill="#4c78a8" rx="3"/>
<text x="728.49" y="430" class="value">234.20</text>
<text x="10" y="462" class="label">www.steamcommunity.com</text>
<rect x="180" y="446" width="576.63" height="22" fill="#4c78a8" rx="3"/>
<text x="764.63" y="462" class="value">249.86</text>
<text x="10" y="494" class="label">steam-chat.com</text>
<rect x="180" y="478" width="580.0" height="22" fill="#4c78a8" rx="3"/>
<text x="768.0" y="494" class="value">251.32</text>
<line x1="180" y1="30" x2="180" y2="520" stroke="#ccc"/>
<line x1="180" y1="520" x2="760" y2="520" stroke="#ccc"/>
</svg>