<svg xmlns="http://www.w3.org/2000/svg" width="800" height="540">
<style> .label{font-family:DejaVu Sans,Verdana,Geneva,sans-serif;font-size:12px;fill:#333} .value{font-family:DejaVu Sans,Verdana,Geneva,sans-serif;font-size:12px;fill:#555} </style>
<text x="10" y="20" class="label">延迟柱状图（越低越好，Top 15），单位 ms</text>
<text x="10" y="46" class="label">ea.com</text>
<rect x="180" y="30" width="278.82" height="22" fill="#4c78a8" rx="3"/>
<text x="466.82" y="46" class="value">109.77</text>
<text x="10" y="78" class="label">store.akamai.steamstatic.com</text>
<rect x="180" y="62" width="304.38" height="22" fill="#4c78a8" rx="3"/>
<text x="492.38" y="78" class="value">119.83</text>
<text x="10" y="110" class="label">steamcdn-a.akamaihd.net</text>
<rect x="180" y="94" width="317.84" height="22" fill="#4c78a8" rx="3"/>
<text x="505.84" y="110" class="value">125.13</text>
<text x="10" y="142" class="label">rockstargames.com</text>
<rect x="180" y="126" width="348.14" height="22" fill="#4c78a8" rx="3"/>
<text x="536.14" y="142" class="value">137.06</text>
<text x="10" y="174" class="label">community.akamai.steamstatic.com</text>
<rect x="180" y="158" width="391.25" height="22" fill="#4c78a8" rx="3"/>
<text x="579.25" y="174" class="value">154.03</text>
<text x="10" y="206" class="label">ubi.com</text>
<rect x="180" y="190" width="406.41" height="22" fill="#4c78a8" rx="3"/>
<text x="594.4100000000001" y="206" class="value">160.00</text>
<text x="10" y="238" class="label">easyanticheat.net</text>
<rect x="180" y="222" width="444.44" height="22" fill="#4c78a8" rx="3"/>
<text x="632.44" y="238" class="value">174.97</text>
<text x="10" y="270" class="label">origin.com</text>
<rect x="180" y="254" width="448.98" height="22" fill="#4c78a8" rx="3"/>
<text x="636.98" y="270" class="value">176.76</text>
<text x="10" y="302" class="label">blizzard.com</text>
<rect x="180" y="286" width="462.47" height="22" fill="#4c78a8" rx="3"/>
<text x="650.47" y="302" class="value">182.07</text>
<text x="10" y="334" class="label">battle.net</text>
<rect x="180" y="318" width="494.15" height="22" fill="#4c78a8" rx="3"/>
<text x="682.15" y="334" class="value">194.54</text>
<text x="10" y="366" class="label">cdn.akamai.steamstatic.com</text>
<rect x="180" y="350" width="500.83" height="22" fill="#4c78a8" rx="3"/>
<text x="688.8299999999999" y="366" class="value">197.17</text>
<text x="10" y="398" class="label">socialclub.rockstargames.com</text>
<rect x="180" y="382" width="512.94" height="22" fill="#4c78a8" rx="3"/>
<text x="700.94" y="398" class="value">201.94</text>
<text x="10" y="430" class="label">steam-chat.com</text>
<rect x="180" y="414" width="543.35" height="22" fill="#4c78a8" rx="3"/>
<text x="731.35" y="430" class="value">213.91</text>
<text x="10" y="462" class="label">ubisoft.com</text>
<rect x="180" y="446" width="548.4" height="22" fill="#4c78a8" rx="3"/>
<text x="736.4" y="462" class="value">215.90</text>
<text x="10" y="494" class="label">unrealengine.com</text>
<rect x="180" y="478" width="580.0" height="22" fill="#4c78a8" rx="3"/>
<text x="768.0" y="494" class="value">228.34</text>
<line x1="180" y1="30" x2="180" y2="520" stroke="#ccc"/>
<line x1="180" y1="520" x2="760" y2="520" stroke="#ccc"/>
</svg>