<svg xmlns="http://www.w3.org/2000/svg" width="800" height="540">
<style> .label{font-family:DejaVu Sans,Verdana,Geneva,sans-serif;font-size:12px;fill:#333} .value{font-family:DejaVu Sans,Verdana,Geneva,sans-serif;font-size:12px;fill:#555} </style>
<text x="10" y="20" class="label">延迟柱状图（越低越好，Top 15），单位 ms</text>
<text x="10" y="46" class="label">rockstargames.com</text>
<rect x="180" y="30" width="172.71" height="22" fill="#4c78a8" rx="3"/>
<text x="360.71000000000004" y="46" class="value">58.69</text>
<text x="10" y="78" class="label">steamcdn-a.akamaihd.net</text>
<rect x="180" y="62" width="278.95" height="22" fill="#4c78a8" rx="3"/>
<text x="466.95" y="78" class="value">94.79</text>
<text x="10" y="110" class="label">cdn.cloudflare.steamstatic.com</text>
<rect x="180" y="94" width="283.6" height="22" fill="#4c78a8" rx="3"/>
<text x="471.6" y="110" class="value">96.37</text>
<text x="10" y="142" class="label">eaassets-a.akamaihd.net</text>
<rect x="180" y="126" width="287.69" height="22" fill="#4c78a8" rx="3"/>
<text x="475.69" y="142" class="value">97.76</text>
<text x="10" y="174" class="label">origin.com</text>
<rect x="180" y="158" width="348.55" height="22" fill="#4c78a8" rx="3"/>
<text x="536.55" y="174" class="value">118.44</text>
<text x="10" y="206" class="label">cdn.akamai.steamstatic.com</text>
<rect x="180" y="190" width="350.25" height="22" fill="#4c78a8" rx="3"/>
<text x="538.25" y="206" class="value">119.02</text>
<text x="10" y="238" class="label">community.akamai.steamstatic.com</text>
<rect x="180" y="222" width="356.26" height="22" fill="#4c78a8" rx="3"/>
<text x="544.26" y="238" class="value">121.06</text>
<text x="10" y="270" class="label">static3.cdn.ubi.com</text>
<rect x="180" y="254" width="432.68" height="22" fill="#4c78a8" rx="3"/>
<text x="620.6800000000001" y="270" class="value">147.03</text>
<text x="10" y="302" class="label">ubi.com</text>
<rect x="180" y="286" width="434.57" height="22" fill="#4c78a8" rx="3"/>
<text x="622.5699999999999" y="302" class="value">147.67</text>
<text x="10" y="334" class="label">battle.net</text>
<rect x="180" y="318" width="437.45" height="22" fill="#4c78a8" rx="3"/>
<text x="625.45" y="334" class="value">148.65</text>
<text x="10" y="366" class="label">socialclub.rockstargames.com</text>
<rect x="180" y="350" width="453.61" height="22" fill="#4c78a8" rx="3"/>
<text x="641.61" y="366" class="value">154.14</text>
<text x="10" y="398" class="label">blizzard.com</text>
<rect x="180" y="382" width="465.91" height="22" fill="#4c78a8" rx="3"/>
<text x="653.9100000000001" y="398" class="value">158.32</text>
<text x="10" y="430" class="label">ea.com</text>
<rect x="180" y="414" width="521.44" height="22" fill="#4c78a8" rx="3"/>
<text x="709.44" y="430" class="value">177.19</text>
<text x="10" y="462" class="label">epicgames.com</text>
<rect x="180" y="446" width="547.89" height="22" fill="#4c78a8" rx="3"/>
<text x="735.89" y="462" class="value">186.18</text>
<text x="10" y="494" class="label">store.akamai.steamstatic.com</text>
<rect x="180" y="478" width="580.0" height="22" fill="#4c78a8" rx="3"/>
<text x="768.0" y="494" class="value">197.09</text>
<line x1="180" y1="30" x2="180" y2="520" stroke="#ccc"/>
<line x1="180" y1="520" x2="760" y2="520" stroke="#ccc"/>
</svg>