<svg xmlns="http://www.w3.org/2000/svg" width="800" height="540">
<style> .label{font-family:DejaVu Sans,Verdana,Geneva,sans-serif;font-size:12px;fill:#333} .value{font-family:DejaVu Sans,Verdana,Geneva,sans-serif;font-size:12px;fill:#555} </style>
<text x="10" y="20" class="label">延迟柱状图（越低越好，Top 15），单位 ms</text>
<text x="10" y="46" class="label">store.akamai.steamstatic.com</text>
<rect x="180" y="30" width="216.88" height="22" fill="#4c78a8" rx="3"/>
<text x="404.88" y="46" class="value">81.16</text>
<text x="10" y="78" class="label">rockstargames.com</text>
<rect x="180" y="62" width="222.25" height="22" fill="#4c78a8" rx="3"/>
<text x="410.25" y="78" class="value">83.17</text>
<text x="10" y="110" class="label">ea.com</text>
<rect x="180" y="94" width="227.75" height="22" fill="#4c78a8" rx="3"/>
<text x="415.75" y="110" class="value">85.23</text>
<text x="10" y="142" class="label">origin.com</text>
<rect x="180" y="126" width="234.03" height="22" fill="#4c78a8" rx="3"/>
<text x="422.03" y="142" class="value">87.58</text>
<text x="10" y="174" class="label">socialclub.rockstargames.com</text>
<rect x="180" y="158" width="237.75" height="22" fill="#4c78a8" rx="3"/>
<text x="425.75" y="174" class="value">88.97</text>
<text x="10" y="206" class="label">ubi.com</text>
<rect x="180" y="190" width="280.13" height="22" fill="#4c78a8" rx="3"/>
<text x="468.13" y="206" class="value">104.83</text>
<text x="10" y="238" class="label">eaassets-a.akamaihd.net</text>
<rect x="180" y="222" width="285.58" height="22" fill="#4c78a8" rx="3"/>
<text x="473.58" y="238" class="value">106.87</text>
<text x="10" y="270" class="label">battle.net</text>
<rect x="180" y="254" width="301.29" height="22" fill="#4c78a8" rx="3"/>
<text x="489.29" y="270" class="value">112.75</text>
<text x="10" y="302" class="label">blizzard.com</text>
<rect x="180" y="286" width="313.31" height="22" fill="#4c78a8" rx="3"/>
<text x="501.31" y="302" class="value">117.25</text>
<text x="10" y="334" class="label">unrealengine.com</text>
<rect x="180" y="318" width="421.89" height="22" fill="#4c78a8" rx="3"/>
<text x="609.89" y="334" class="value">157.88</text>
<text x="10" y="366" class="label">cdn.akamai.steamstatic.com</text>
<rect x="180" y="350" width="501.12" height="22" fill="#4c78a8" rx="3"/>
<text x="689.12" y="366" class="value">187.53</text>
<text x="10" y="398" class="label">epicgames.com</text>
<rect x="180" y="382" width="533.5" height="22" fill="#4c78a8" rx="3"/>
<text x="721.5" y="398" class="value">199.65</text>
<text x="10" y="430" class="label">fortnite.com</text>
<rect x="180" y="414" width="536.9" height="22" fill="#4c78a8" rx="3"/>
<text x="724.9" y="430" class="value">200.92</text>
<text x="10" y="462" class="label">steamcdn-a.akamaihd.net</text>
<rect x="180" y="446" width="541.52" height="22" fill="#4c78a8" rx="3"/>
<text x="729.52" y="462" class="value">202.65</text>
<text x="10" y="494" class="label">community.akamai.steamstatic.com</text>
<rect x="180" y="478" width="580.0" height="22" fill="#4c78a8" rx="3"/>
<text x="768.0" y="494" class="value">217.05</text>
<line x1="180" y1="30" x2="180" y2="520" stroke="#ccc"/>
<line x1="180" y1="520" x2="760" y2="520" stroke="#ccc"/>
</svg>