<svg xmlns="http://www.w3.org/2000/svg" width="800" height="540">
<style> .label{font-family:DejaVu Sans,Verdana,Geneva,sans-serif;font-size:12px;fill:#333} .value{font-family:DejaVu Sans,Verdana,Geneva,sans-serif;font-size:12px;fill:#555} </style>
<text x="10" y="20" class="label">延迟柱状图（越低越好，Top 15），单位 ms</text>
<text x="10" y="46" class="label">ea.com</text>
<rect x="180" y="30" width="337.21" height="22" fill="#4c78a8" rx="3"/>
<text x="525.21" y="46" class="value">128.29</text>
<text x="10" y="78" class="label">eaassets-a.akamaihd.net</text>
<rect x="180" y="62" width="352.53" height="22" fill="#4c78a8" rx="3"/>
<text x="540.53" y="78" class="value">134.12</text>
<text x="10" y="110" class="label">cdn.cloudflare.steamstatic.com</text>
<rect x="180" y="94" width="354.48" height="22" fill="#4c78a8" rx="3"/>
<text x="542.48" y="110" class="value">134.86</text>
<text x="10" y="142" class="label">battle.net</text>
<rect x="180" y="126" width="387.02" height="22" fill="#4c78a8" rx="3"/>
<text x="575.02" y="142" class="value">147.24</text>
<text x="10" y="174" class="label">steamcdn-a.akamaihd.net</text>
<rect x="180" y="158" width="412.88" height="22" fill="#4c78a8" rx="3"/>
<text x="600.88" y="174" class="value">157.08</text>
<text x="10" y="206" class="label">ubi.com</text>
<rect x="180" y="190" width="426.5" height="22" fill="#4c78a8" rx="3"/>
<text x="614.5" y="206" class="value">162.26</text>
<text x="10" y="238" class="label">rockstargames.com</text>
<rect x="180" y="222" width="429.62" height="22" fill="#4c78a8" rx="3"/>
<text x="617.62" y="238" class="value">163.45</text>
<text x="10" y="270" class="label">ubisoft.com</text>
<rect x="180" y="254" width="438.48" height="22" fill="#4c78a8" rx="3"/>
<text x="626.48" y="270" class="value">166.82</text>
<text x="10" y="302" class="label">blizzard.com</text>
<rect x="180" y="286" width="447.52" height="22" fill="#4c78a8" rx="3"/>
<text x="635.52" y="302" class="value">170.26</text>
<text x="10" y="334" class="label">static3.cdn.ubi.com</text>
<rect x="180" y="318" width="520.73" height="22" fill="#4c78a8" rx="3"/>
<text x="708.73" y="334" class="value">198.11</text>
<text x="10" y="366" class="label">socialclub.rockstargames.com</text>
<rect x="180" y="350" width="524.96" height="22" fill="#4c78a8" rx="3"/>
<text x="712.96" y="366" class="value">199.72</text>
<text x="10" y="398" class="label">origin.com</text>
<rect x="180" y="382" width="553.79" height="22" fill="#4c78a8" rx="3"/>
<text x="741.79" y="398" class="value">210.69</text>
<text x="10" y="430" class="label">store.akamai.steamstatic.com</text>
<rect x="180" y="414" width="553.85" height="22" fill="#4c78a8" rx="3"/>
<text x="741.85" y="430" class="value">210.71</text>
<text x="10" y="462" class="label">easyanticheat.net</text>
<rect x="180" y="446" width="571.69" height="22" fill="#4c78a8" rx="3"/>
<text x="759.69" y="462" class="value">217.50</text>
<text x="10" y="494" class="label">gog.com</text>
<rect x="180" y="478" width="580.0" height="22" fill="#4c78a8" rx="3"/>
<text x="768.0" y="494" class="value">220.66</text>
<line x1="180" y1="30" x2="180" y2="520" stroke="#ccc"/>
<line x1="180" y1="520" x2="760" y2="520" stroke="#ccc"/>
</svg>