<svg xmlns="http://www.w3.org/2000/svg" width="800" height="540">
<style> .label{font-family:DejaVu Sans,Verdana,Geneva,sans-serif;font-size:12px;fill:#333} .value{font-family:DejaVu Sans,Verdana,Geneva,sans-serif;font-size:12px;fill:#555} </style>
<text x="10" y="20" class="label">延迟柱状图（越低越好，Top 15），单位 ms</text>
<text x="10" y="46" class="label">eaassets-a.akamaihd.net</text>
<rect x="180" y="30" width="170.01" height="22" fill="#4c78a8" rx="3"/>
<text x="358.01" y="46" class="value">75.69</text>
<text x="10" y="78" class="label">steamcdn-a.akamaihd.net</text>
<rect x="180" y="62" width="211.61" height="22" fill="#4c78a8" rx="3"/>
<text x="399.61" y="78" class="value">94.21</text>
<text x="10" y="110" class="label">rockstargames.com</text>
<rect x="180" y="94" width="225.58" height="22" fill="#4c78a8" rx="3"/>
<text x="413.58000000000004" y="110" class="value">100.43</text>
<text x="10" y="142" class="label">origin.com</text>
<rect x="180" y="126" width="282.63" height="22" fill="#4c78a8" rx="3"/>
<text x="470.63" y="142" class="value">125.83</text>
<text x="10" y="174" class="label">ea.com</text>
<rect x="180" y="158" width="285.53" height="22" fill="#4c78a8" rx="3"/>
<text x="473.53" y="174" class="value">127.12</text>
<text x="10" y="206" class="label">store.akamai.steamstatic.com</text>
<rect x="180" y="190" width="291.75" height="22" fill="#4c78a8" rx="3"/>
<text x="479.75" y="206" class="value">129.89</text>
<text x="10" y="238" class="label">community.akamai.steamstatic.com</text>
<rect x="180" y="222" width="293.19" height="22" fill="#4c78a8" rx="3"/>
<text x="481.19" y="238" class="value">130.53</text>
<text x="10" y="270" class="label">ubisoft.com</text>
<rect x="180" y="254" width="323.45" height="22" fill="#4c78a8" rx="3"/>
<text x="511.45" y="270" class="value">144.00</text>
<text x="10" y="302" class="label">cdn.akamai.steamstatic.com</text>
<rect x="180" y="286" width="330.9" height="22" fill="#4c78a8" rx="3"/>
<text x="518.9" y="302" class="value">147.32</text>
<text x="10" y="334" class="label">easyanticheat.net</text>
<rect x="180" y="318" width="402.04" height="22" fill="#4c78a8" rx="3"/>
<text x="590.04" y="334" class="value">178.99</text>
<text x="10" y="366" class="label">cdn.cloudflare.steamstatic.com</text>
<rect x="180" y="350" width="424.48" height="22" fill="#4c78a8" rx="3"/>
<text x="612.48" y="366" class="value">188.98</text>
<text x="10" y="398" class="label">steam-chat.com</text>
<rect x="180" y="382" width="486.67" height="22" fill="#4c78a8" rx="3"/>
<text x="674.6700000000001" y="398" class="value">216.67</text>
<text x="10" y="430" class="label">launcher-public-service-prod06.ol.epicgames.com</text>
<rect x="180" y="414" width="488.78" height="22" fill="#4c78a8" rx="3"/>
<text x="676.78" y="430" class="value">217.61</text>
<text x="10" y="462" class="label">www.steamcommunity.com</text>
<rect x="180" y="446" width="537.55" height="22" fill="#4c78a8" rx="3"/>
<text x="725.55" y="462" class="value">239.32</text>
<text x="10" y="494" class="label">ubi.com</text>
<rect x="180" y="478" width="580.0" height="22" fill="#4c78a8" rx="3"/>
<text x="768.0" y="494" class="value">258.22</text>
<line x1="180" y1="30" x2="180" y2="520" stroke="#ccc"/>
<line x1="180" y1="520" x2="760" y2="520" stroke="#ccc"/>
</svg>