<svg xmlns="http://www.w3.org/2000/svg" width="800" height="540">
<style> .label{font-family:DejaVu Sans,Verdana,Geneva,sans-serif;font-size:12px;fill:#333} .value{font-family:DejaVu Sans,Verdana,Geneva,sans-serif;font-size:12px;fill:#555} </style>
<text x="10" y="20" class="label">延迟柱状图（越低越好，Top 15），单位 ms</text>
<text x="10" y="46" class="label">rockstargames.com</text>
<rect x="180" y="30" width="104.16" height="22" fill="#4c78a8" rx="3"/>
<text x="292.15999999999997" y="46" class="value">51.16</text>
<text x="10" y="78" class="label">ubisoft.com</text>
<rect x="180" y="62" width="129.95" height="22" fill="#4c78a8" rx="3"/>
<text x="317.95" y="78" class="value">63.83</text>
<text x="10" y="110" class="label">eaassets-a.akamaihd.net</text>
<rect x="180" y="94" width="155.72" height="22" fill="#4c78a8" rx="3"/>
<text x="343.72" y="110" class="value">76.49</text>
<text x="10" y="142" class="label">steamcdn-a.akamaihd.net</text>
<rect x="180" y="126" width="160.65" height="22" fill="#4c78a8" rx="3"/>
<text x="348.65" y="142" class="value">78.91</text>
<text x="10" y="174" class="label">origin.com</text>
<rect x="180" y="158" width="162.85" height="22" fill="#4c78a8" rx="3"/>
<text x="350.85" y="174" class="value">79.99</text>
<text x="10" y="206" class="label">cdn.cloudflare.steamstatic.com</text>
<rect x="180" y="190" width="193.75" height="22" fill="#4c78a8" rx="3"/>
<text x="381.75" y="206" class="value">95.17</text>
<text x="10" y="238" class="label">ea.com</text>
<rect x="180" y="222" width="223.58" height="22" fill="#4c78a8" rx="3"/>
<text x="411.58000000000004" y="238" class="value">109.82</text>
<text x="10" y="270" class="label">cdn.akamai.steamstatic.com</text>
<rect x="180" y="254" width="276.06" height="22" fill="#4c78a8" rx="3"/>
<text x="464.06" y="270" class="value">135.60</text>
<text x="10" y="302" class="label">easyanticheat.net</text>
<rect x="180" y="286" width="288.91" height="22" fill="#4c78a8" rx="3"/>
<text x="476.91" y="302" class="value">141.91</text>
<text x="10" y="334" class="label">store.akamai.steamstatic.com</text>
<rect x="180" y="318" width="294.37" height="22" fill="#4c78a8" rx="3"/>
<text x="482.37" y="334" class="value">144.59</text>
<text x="10" y="366" class="label">community.akamai.steamstatic.com</text>
<rect x="180" y="350" width="352.78" height="22" fill="#4c78a8" rx="3"/>
<text x="540.78" y="366" class="value">173.28</text>
<text x="10" y="398" class="label">api.steampowered.com</text>
<rect x="180" y="382" width="432.05" height="22" fill="#4c78a8" rx="3"/>
<text x="620.05" y="398" class="value">212.22</text>
<text x="10" y="430" class="label">www.steamcommunity.com</text>
<rect x="180" y="414" width="439.0" height="22" fill="#4c78a8" rx="3"/>
<text x="627.0" y="430" class="value">215.63</text>
<text x="10" y="462" class="label">steam-chat.com</text>
<rect x="180" y="446" width="496.43" height="22" fill="#4c78a8" rx="3"/>
<text x="684.4300000000001" y="462" class="value">243.84</text>
<text x="10" y="494" class="label">battle.net</text>
<rect x="180" y="478" width="580.0" height="22" fill="#4c78a8" rx="3"/>
<text x="768.0" y="494" class="value">284.89</text>
<line x1="180" y1="30" x2="180" y2="520" stroke="#ccc"/>
<line x1="180" y1="520" x2="760" y2="520" stroke="#ccc"/>
</svg>