<svg xmlns="http://www.w3.org/2000/svg" width="800" height="540">
<style> .label{font-family:DejaVu Sans,Verdana,Geneva,sans-serif;font-size:12px;fill:#333} .value{font-family:DejaVu Sans,Verdana,Geneva,sans-serif;font-size:12px;fill:#555} </style>
<text x="10" y="20" class="label">延迟柱状图（越低越好，Top 15），单位 ms</text>
<text x="10" y="46" class="label">rockstargames.com</text>
<rect x="180" y="30" width="156.47" height="22" fill="#4c78a8" rx="3"/>
<text x="344.47" y="46" class="value">53.17</text>
<text x="10" y="78" class="label">socialclub.rockstargames.com</text>
<rect x="180" y="62" width="240.22" height="22" fill="#4c78a8" rx="3"/>
<text x="428.22" y="78" class="value">81.63</text>
<text x="10" y="110" class="label">battle.net</text>
<rect x="180" y="94" width="289.4" height="22" fill="#4c78a8" rx="3"/>
<text x="477.4" y="110" class="value">98.34</text>
<text x="10" y="142" class="label">fortnite.com</text>
<rect x="180" y="126" width="292.87" height="22" fill="#4c78a8" rx="3"/>
<text x="480.87" y="142" class="value">99.52</text>
<text x="10" y="174" class="label">ubi.com</text>
<rect x="180" y="158" width="334.66" height="22" fill="#4c78a8" rx="3"/>
<text x="522.6600000000001" y="174" class="value">113.72</text>
<text x="10" y="206" class="label">ea.com</text>
<rect x="180" y="190" width="343.99" height="22" fill="#4c78a8" rx="3"/>
<text x="531.99" y="206" class="value">116.89</text>
<text x="10" y="238" class="label">eaassets-a.akamaihd.net</text>
<rect x="180" y="222" width="346.13" height="22" fill="#4c78a8" rx="3"/>
<text x="534.13" y="238" class="value">117.62</text>
<text x="10" y="270" class="label">ubisoft.com</text>
<rect x="180" y="254" width="376.74" height="22" fill="#4c78a8" rx="3"/>
<text x="564.74" y="270" class="value">128.02</text>
<text x="10" y="302" class="label">blizzard.com</text>
<rect x="180" y="286" width="409.55" height="22" fill="#4c78a8" rx="3"/>
<text x="597.55" y="302" class="value">139.17</text>
<text x="10" y="334" class="label">static3.cdn.ubi.com</text>
<rect x="180" y="318" width="444.25" height="22" fill="#4c78a8" rx="3"/>
<text x="632.25" y="334" class="value">150.96</text>
<text x="10" y="366" class="label">community.akamai.steamstatic.com</text>
<rect x="180" y="350" width="503.72" height="22" fill="#4c78a8" rx="3"/>
<text x="691.72" y="366" class="value">171.17</text>
<text x="10" y="398" class="label">www.steamcommunity.com</text>
<rect x="180" y="382" width="545.6" height="22" fill="#4c78a8" rx="3"/>
<text x="733.6" y="398" class="value">185.40</text>
<text x="10" y="430" class="label">store.akamai.steamstatic.com</text>
<rect x="180" y="414" width="568.73" height="22" fill="#4c78a8" rx="3"/>
<text x="756.73" y="430" class="value">193.26</text>
<text x="10" y="462" class="label">epicgames.com</text>
<rect x="180" y="446" width="572.11" height="22" fill="#4c78a8" rx="3"/>
<text x="760.11" y="462" class="value">194.41</text>
<text x="10" y="494" class="label">unrealengine.com</text>
<rect x="180" y="478" width="580.0" height="22" fill="#4c78a8" rx="3"/>
<text x="768.0" y="494" class="value">197.09</text>
<line x1="180" y1="30" x2="180" y2="520" stroke="#ccc"/>
<line x1="180" y1="520" x2="760" y2="520" stroke="#ccc"/>
</svg>