<svg xmlns="http://www.w3.org/2000/svg" width="800" height="540">
<style> .label{font-family:DejaVu Sans,Verdana,Geneva,sans-serif;font-size:12px;fill:#333} .value{font-family:DejaVu Sans,Verdana,Geneva,sans-serif;font-size:12px;fill:#555} </style>
<text x="10" y="20" class="label">延迟柱状图（越低越好，Top 15），单位 ms</text>
<text x="10" y="46" class="label">eaassets-a.akamaihd.net</text>
<rect x="180" y="30" width="112.09" height="22" fill="#4c78a8" rx="3"/>
<text x="300.09000000000003" y="46" class="value">55.50</text>
<text x="10" y="78" class="label">rockstargames.com</text>
<rect x="180" y="62" width="164.98" height="22" fill="#4c78a8" rx="3"/>
<text x="352.98" y="78" class="value">81.69</text>
<text x="10" y="110" class="label">community.akamai.steamstatic.com</text>
<rect x="180" y="94" width="265.24" height="22" fill="#4c78a8" rx="3"/>
<text x="453.24" y="110" class="value">131.33</text>
<text x="10" y="142" class="label">static3.cdn.ubi.com</text>
<rect x="180" y="126" width="291.9" height="22" fill="#4c78a8" rx="3"/>
<text x="479.9" y="142" class="value">144.53</text>
<text x="10" y="174" class="label">ea.com</text>
<rect x="180" y="158" width="300.74" height="22" fill="#4c78a8" rx="3"/>
<text x="488.74" y="174" class="value">148.91</text>
<text x="10" y="206" class="label">socialclub.rockstargames.com</text>
<rect x="180" y="190" width="303.07" height="22" fill="#4c78a8" rx="3"/>
<text x="491.07" y="206" class="value">150.06</text>
<text x="10" y="238" class="label">blizzard.com</text>
<rect x="180" y="222" width="319.16" height="22" fill="#4c78a8" rx="3"/>
<text x="507.16" y="238" class="value">158.03</text>
<text x="10" y="270" class="label">battle.net</text>
<rect x="180" y="254" width="321.69" height="22" fill="#4c78a8" rx="3"/>
<text x="509.69" y="270" class="value">159.28</text>
<text x="10" y="302" class="label">store.akamai.steamstatic.com</text>
<rect x="180" y="286" width="332.05" height="22" fill="#4c78a8" rx="3"/>
<text x="520.05" y="302" class="value">164.41</text>
<text x="10" y="334" class="label">unrealengine.com</text>
<rect x="180" y="318" width="352.49" height="22" fill="#4c78a8" rx="3"/>
<text x="540.49" y="334" class="value">174.53</text>
<text x="10" y="366" class="label">ubi.com</text>
<rect x="180" y="350" width="361.07" height="22" fill="#4c78a8" rx="3"/>
<text x="549.0699999999999" y="366" class="value">178.78</text>
<text x="10" y="398" class="label">ubisoft.com</text>
<rect x="180" y="382" width="505.98" height="22" fill="#4c78a8" rx="3"/>
<text x="693.98" y="398" class="value">250.53</text>
<text x="10" y="430" class="label">steamcdn-a.akamaihd.net</text>
<rect x="180" y="414" width="508.04" height="22" fill="#4c78a8" rx="3"/>
<text x="696.04" y="430" class="value">251.55</text>
<text x="10" y="462" class="label">cdn.cloudflare.steamstatic.com</text>
<rect x="180" y="446" width="545.75" height="22" fill="#4c78a8" rx="3"/>
<text x="733.75" y="462" class="value">270.22</text>
<text x="10" y="494" class="label">cdn.akamai.steamstatic.com</text>
<rect x="180" y="478" width="580.0" height="22" fill="#4c78a8" rx="3"/>
<text x="768.0" y="494" class="value">287.18</text>
<line x1="180" y1="30" x2="180" y2="520" stroke="#ccc"/>
<line x1="180" y1="520" x2="760" y2="520" stroke="#ccc"/>
</svg>