<svg xmlns="http://www.w3.org/2000/svg" width="800" height="540">
<style> .label{font-family:DejaVu Sans,Verdana,Geneva,sans-serif;font-size:12px;fill:#333} .value{font-family:DejaVu Sans,Verdana,Geneva,sans-serif;font-size:12px;fill:#555} </style>
<text x="10" y="20" class="label">延迟柱状图（越低越好，Top 15），单位 ms</text>
<text x="10" y="46" class="label">eaassets-a.akamaihd.net</text>
<rect x="180" y="30" width="155.57" height="22" fill="#4c78a8" rx="3"/>
<text x="343.57" y="46" class="value">77.17</text>
<text x="10" y="78" class="label">rockstargames.com</text>
<rect x="180" y="62" width="160.63" height="22" fill="#4c78a8" rx="3"/>
<text x="348.63" y="78" class="value">79.68</text>
<text x="10" y="110" class="label">ubisoft.com</text>
<rect x="180" y="94" width="176.09" height="22" fill="#4c78a8" rx="3"/>
<text x="364.09000000000003" y="110" class="value">87.35</text>
<text x="10" y="142" class="label">ea.com</text>
<rect x="180" y="126" width="215.8" height="22" fill="#4c78a8" rx="3"/>
<text x="403.8" y="142" class="value">107.05</text>
<text x="10" y="174" class="label">community.akamai.steamstatic.com</text>
<rect x="180" y="158" width="225.62" height="22" fill="#4c78a8" rx="3"/>
<text x="413.62" y="174" class="value">111.92</text>
<text x="10" y="206" class="label">cdn.cloudflare.steamstatic.com</text>
<rect x="180" y="190" width="255.82" height="22" fill="#4c78a8" rx="3"/>
<text x="443.82" y="206" class="value">126.90</text>
<text x="10" y="238" class="label">steamcdn-a.akamaihd.net</text>
<rect x="180" y="222" width="260.58" height="22" fill="#4c78a8" rx="3"/>
<text x="448.58" y="238" class="value">129.26</text>
<text x="10" y="270" class="label">cdn.akamai.steamstatic.com</text>
<rect x="180" y="254" width="281.38" height="22" fill="#4c78a8" rx="3"/>
<text x="469.38" y="270" class="value">139.58</text>
<text x="10" y="302" class="label">store.akamai.steamstatic.com</text>
<rect x="180" y="286" width="300.31" height="22" fill="#4c78a8" rx="3"/>
<text x="488.31" y="302" class="value">148.97</text>
<text x="10" y="334" class="label">origin.com</text>
<rect x="180" y="318" width="311.36" height="22" fill="#4c78a8" rx="3"/>
<text x="499.36" y="334" class="value">154.45</text>
<text x="10" y="366" class="label">easyanticheat.net</text>
<rect x="180" y="350" width="314.18" height="22" fill="#4c78a8" rx="3"/>
<text x="502.18" y="366" class="value">155.85</text>
<text x="10" y="398" class="label">steam-chat.com</text>
<rect x="180" y="382" width="489.04" height="22" fill="#4c78a8" rx="3"/>
<text x="677.04" y="398" class="value">242.59</text>
<text x="10" y="430" class="label">api.steampowered.com</text>
<rect x="180" y="414" width="531.58" height="22" fill="#4c78a8" rx="3"/>
<text x="719.58" y="430" class="value">263.69</text>
<text x="10" y="462" class="label">gog.com</text>
<rect x="180" y="446" width="565.26" height="22" fill="#4c78a8" rx="3"/>
<text x="753.26" y="462" class="value">280.40</text>
<text x="10" y="494" class="label">launcher-public-service-prod06.ol.epicgames.com</text>
<rect x="180" y="478" width="580.0" height="22" fill="#4c78a8" rx="3"/>
<text x="768.0" y="494" class="value">287.71</text>
<line x1="180" y1="30" x2="180" y2="520" stroke="#ccc"/>
<line x1="180" y1="520" x2="760" y2="520" stroke="#ccc"/>
</svg>