<svg xmlns="http://www.w3.org/2000/svg" width="800" height="540">
<style> .label{font-family:DejaVu Sans,Verdana,Geneva,sans-serif;font-size:12px;fill:#333} .value{font-family:DejaVu Sans,Verdana,Geneva,sans-serif;font-size:12px;fill:#555} </style>
<text x="10" y="20" class="label">延迟柱状图（越低越好，Top 15），单位 ms</text>
<text x="10" y="46" class="label">rockstargames.com</text>
<rect x="180" y="30" width="207.08" height="22" fill="#4c78a8" rx="3"/>
<text x="395.08000000000004" y="46" class="value">110.21</text>
<text x="10" y="78" class="label">ea.com</text>
<rect x="180" y="62" width="230.15" height="22" fill="#4c78a8" rx="3"/>
<text x="418.15" y="78" class="value">122.49</text>
<text x="10" y="110" class="label">steamcdn-a.akamaihd.net</text>
<rect x="180" y="94" width="238.27" height="22" fill="#4c78a8" rx="3"/>
<text x="426.27" y="110" class="value">126.81</text>
<text x="10" y="142" class="label">eaassets-a.akamaihd.net</text>
<rect x="180" y="126" width="259.5" height="22" fill="#4c78a8" rx="3"/>
<text x="447.5" y="142" class="value">138.11</text>
<text x="10" y="174" class="label">origin.com</text>
<rect x="180" y="158" width="335.47" height="22" fill="#4c78a8" rx="3"/>
<text x="523.47" y="174" class="value">178.54</text>
<text x="10" y="206" class="label">store.akamai.steamstatic.com</text>
<rect x="180" y="190" width="344.13" height="22" fill="#4c78a8" rx="3"/>
<text x="532.13" y="206" class="value">183.15</text>
<text x="10" y="238" class="label">ubisoft.com</text>
<rect x="180" y="222" width="346.37" height="22" fill="#4c78a8" rx="3"/>
<text x="534.37" y="238" class="value">184.34</text>
<text x="10" y="270" class="label">battle.net</text>
<rect x="180" y="254" width="362.1" height="22" fill="#4c78a8" rx="3"/>
<text x="550.1" y="270" class="value">192.71</text>
<text x="10" y="302" class="label">ubi.com</text>
<rect x="180" y="286" width="414.8" height="22" fill="#4c78a8" rx="3"/>
<text x="602.8" y="302" class="value">220.76</text>
<text x="10" y="334" class="label">community.akamai.steamstatic.com</text>
<rect x="180" y="318" width="423.58" height="22" fill="#4c78a8" rx="3"/>
<text x="611.5799999999999" y="334" class="value">225.43</text>
<text x="10" y="366" class="label">easyanticheat.net</text>
<rect x="180" y="350" width="424.01" height="22" fill="#4c78a8" rx="3"/>
<text x="612.01" y="366" class="value">225.66</text>
<text x="10" y="398" class="label">socialclub.rockstargames.com</text>
<rect x="180" y="382" width="509.03" height="22" fill="#4c78a8" rx="3"/>
<text x="697.03" y="398" class="value">270.91</text>
<text x="10" y="430" class="label">static3.cdn.ubi.com</text>
<rect x="180" y="414" width="567.62" height="22" fill="#4c78a8" rx="3"/>
<text x="755.62" y="430" class="value">302.09</text>
<text x="10" y="462" class="label">cdn.cloudflare.steamstatic.com</text>
<rect x="180" y="446" width="573.84" height="22" fill="#4c78a8" rx="3"/>
<text x="761.84" y="462" class="value">305.40</text>
<text x="10" y="494" class="label">steam-chat.com</text>
<rect x="180" y="478" width="580.0" height="22" fill="#4c78a8" rx="3"/>
<text x="768.0" y="494" class="value">308.68</text>
<line x1="180" y1="30" x2="180" y2="520" stroke="#ccc"/>
<line x1="180" y1="520" x2="760" y2="520" stroke="#ccc"/>
</svg>