<svg xmlns="http://www.w3.org/2000/svg" width="800" height="540">
<style> .label{font-family:DejaVu Sans,Verdana,Geneva,sans-serif;font-size:12px;fill:#333} .value{font-family:DejaVu Sans,Verdana,Geneva,sans-serif;font-size:12px;fill:#555} </style>
<text x="10" y="20" class="label">延迟柱状图（越低越好，Top 15），单位 ms</text>
<text x="10" y="46" class="label">rockstargames.com</text>
<rect x="180" y="30" width="167.78" height="22" fill="#4c78a8" rx="3"/>
<text x="355.78" y="46" class="value">94.94</text>
<text x="10" y="78" class="label">store.akamai.steamstatic.com</text>
<rect x="180" y="62" width="180.44" height="22" fill="#4c78a8" rx="3"/>
<text x="368.44" y="78" class="value">102.10</text>
<text x="10" y="110" class="label">cdn.akamai.steamstatic.com</text>
<rect x="180" y="94" width="188.34" height="22" fill="#4c78a8" rx="3"/>
<text x="376.34000000000003" y="110" class="value">106.57</text>
<text x="10" y="142" class="label">ubisoft.com</text>
<rect x="180" y="126" width="210.29" height="22" fill="#4c78a8" rx="3"/>
<text x="398.28999999999996" y="142" class="value">118.99</text>
<text x="10" y="174" class="label">ea.com</text>
<rect x="180" y="158" width="239.02" height="22" fill="#4c78a8" rx="3"/>
<text x="427.02" y="174" class="value">135.25</text>
<text x="10" y="206" class="label">steamcdn-a.akamaihd.net</text>
<rect x="180" y="190" width="316.02" height="22" fill="#4c78a8" rx="3"/>
<text x="504.02" y="206" class="value">178.82</text>
<text x="10" y="238" class="label">ubi.com</text>
<rect x="180" y="222" width="417.73" height="22" fill="#4c78a8" rx="3"/>
<text x="605.73" y="238" class="value">236.37</text>
<text x="10" y="270" class="label">cdn.cloudflare.steamstatic.com</text>
<rect x="180" y="254" width="466.89" height="22" fill="#4c78a8" rx="3"/>
<text x="654.89" y="270" class="value">264.19</text>
<text x="10" y="302" class="label">easyanticheat.net</text>
<rect x="180" y="286" width="518.76" height="22" fill="#4c78a8" rx="3"/>
<text x="706.76" y="302" class="value">293.54</text>
<text x="10" y="334" class="label">origin.com</text>
<rect x="180" y="318" width="519.05" height="22" fill="#4c78a8" rx="3"/>
<text x="707.05" y="334" class="value">293.70</text>
<text x="10" y="366" class="label">community.akamai.steamstatic.com</text>
<rect x="180" y="350" width="524.7" height="22" fill="#4c78a8" rx="3"/>
<text x="712.7" y="366" class="value">296.90</text>
<text x="10" y="398" class="label">eaassets-a.akamaihd.net</text>
<rect x="180" y="382" width="544.48" height="22" fill="#4c78a8" rx="3"/>
<text x="732.48" y="398" class="value">308.09</text>
<text x="10" y="430" class="label">blizzard.com</text>
<rect x="180" y="414" width="563.23" height="22" fill="#4c78a8" rx="3"/>
<text x="751.23" y="430" class="value">318.70</text>
<text x="10" y="462" class="label">api.steampowered.com</text>
<rect x="180" y="446" width="570.69" height="22" fill="#4c78a8" rx="3"/>
<text x="758.69" y="462" class="value">322.92</text>
<text x="10" y="494" class="label">static3.cdn.ubi.com</text>
<rect x="180" y="478" width="580.0" height="22" fill="#4c78a8" rx="3"/>
<text x="768.0" y="494" class="value">328.19</text>
<line x1="180" y1="30" x2="180" y2="520" stroke="#ccc"/>
<line x1="180" y1="520" x2="760" y2="520" stroke="#ccc"/>
</svg>