<svg xmlns="http://www.w3.org/2000/svg" width="800" height="540">
<style> .label{font-family:DejaVu Sans,Verdana,Geneva,sans-serif;font-size:12px;fill:#333} .value{font-family:DejaVu Sans,Verdana,Geneva,sans-serif;font-size:12px;fill:#555} </style>
<text x="10" y="20" class="label">延迟柱状图（越低越好，Top 15），单位 ms</text>
<text x="10" y="46" class="label">rockstargames.com</text>
<rect x="180" y="30" width="159.46" height="22" fill="#4c78a8" rx="3"/>
<text x="347.46000000000004" y="46" class="value">52.26</text>
<text x="10" y="78" class="label">eaassets-a.akamaihd.net</text>
<rect x="180" y="62" width="201.05" height="22" fill="#4c78a8" rx="3"/>
<text x="389.05" y="78" class="value">65.89</text>
<text x="10" y="110" class="label">socialclub.rockstargames.com</text>
<rect x="180" y="94" width="237.15" height="22" fill="#4c78a8" rx="3"/>
<text x="425.15" y="110" class="value">77.72</text>
<text x="10" y="142" class="label">blizzard.com</text>
<rect x="180" y="126" width="268.98" height="22" fill="#4c78a8" rx="3"/>
<text x="456.98" y="142" class="value">88.15</text>
<text x="10" y="174" class="label">battle.net</text>
<rect x="180" y="158" width="329.7" height="22" fill="#4c78a8" rx="3"/>
<text x="517.7" y="174" class="value">108.05</text>
<text x="10" y="206" class="label">ubisoft.com</text>
<rect x="180" y="190" width="352.03" height="22" fill="#4c78a8" rx="3"/>
<text x="540.03" y="206" class="value">115.37</text>
<text x="10" y="238" class="label">ubi.com</text>
<rect x="180" y="222" width="400.43" height="22" fill="#4c78a8" rx="3"/>
<text x="588.4300000000001" y="238" class="value">131.23</text>
<text x="10" y="270" class="label">steamcdn-a.akamaihd.net</text>
<rect x="180" y="254" width="412.42" height="22" fill="#4c78a8" rx="3"/>
<text x="600.4200000000001" y="270" class="value">135.16</text>
<text x="10" y="302" class="label">ea.com</text>
<rect x="180" y="286" width="439.09" height="22" fill="#4c78a8" rx="3"/>
<text x="627.0899999999999" y="302" class="value">143.90</text>
<text x="10" y="334" class="label">epicgames.com</text>
<rect x="180" y="318" width="455.38" height="22" fill="#4c78a8" rx="3"/>
<text x="643.38" y="334" class="value">149.24</text>
<text x="10" y="366" class="label">fortnite.com</text>
<rect x="180" y="350" width="468.14" height="22" fill="#4c78a8" rx="3"/>
<text x="656.14" y="366" class="value">153.42</text>
<text x="10" y="398" class="label">community.akamai.steamstatic.com</text>
<rect x="180" y="382" width="500.33" height="22" fill="#4c78a8" rx="3"/>
<text x="688.3299999999999" y="398" class="value">163.97</text>
<text x="10" y="430" class="label">launcher-public-service-prod06.ol.epicgames.com</text>
<rect x="180" y="414" width="522.82" height="22" fill="#4c78a8" rx="3"/>
<text x="710.82" y="430" class="value">171.34</text>
<text x="10" y="462" class="label">store.akamai.steamstatic.com</text>
<rect x="180" y="446" width="531.97" height="22" fill="#4c78a8" rx="3"/>
<text x="719.97" y="462" class="value">174.34</text>
<text x="10" y="494" class="label">origin.com</text>
<rect x="180" y="478" width="580.0" height="22" fill="#4c78a8" rx="3"/>
<text x="768.0" y="494" class="value">190.08</text>
<line x1="180" y1="30" x2="180" y2="520" stroke="#ccc"/>
<line x1="180" y1="520" x2="760" y2="520" stroke="#ccc"/>
</svg>