<svg xmlns="http://www.w3.org/2000/svg" width="800" height="540">
<style> .label{font-family:DejaVu Sans,Verdana,Geneva,sans-serif;font-size:12px;fill:#333} .value{font-family:DejaVu Sans,Verdana,Geneva,sans-serif;font-size:12px;fill:#555} </style>
<text x="10" y="20" class="label">延迟柱状图（越低越好，Top 15），单位 ms</text>
<text x="10" y="46" class="label">rockstargames.com</text>
<rect x="180" y="30" width="125.19" height="22" fill="#4c78a8" rx="3"/>
<text x="313.19" y="46" class="value">60.60</text>
<text x="10" y="78" class="label">cdn.akamai.steamstatic.com</text>
<rect x="180" y="62" width="159.57" height="22" fill="#4c78a8" rx="3"/>
<text x="347.57" y="78" class="value">77.24</text>
<text x="10" y="110" class="label">eaassets-a.akamaihd.net</text>
<rect x="180" y="94" width="212.89" height="22" fill="#4c78a8" rx="3"/>
<text x="400.89" y="110" class="value">103.05</text>
<text x="10" y="142" class="label">ea.com</text>
<rect x="180" y="126" width="217.99" height="22" fill="#4c78a8" rx="3"/>
<text x="405.99" y="142" class="value">105.52</text>
<text x="10" y="174" class="label">ubisoft.com</text>
<rect x="180" y="158" width="219.32" height="22" fill="#4c78a8" rx="3"/>
<text x="407.32" y="174" class="value">106.16</text>
<text x="10" y="206" class="label">store.akamai.steamstatic.com</text>
<rect x="180" y="190" width="272.2" height="22" fill="#4c78a8" rx="3"/>
<text x="460.2" y="206" class="value">131.76</text>
<text x="10" y="238" class="label">origin.com</text>
<rect x="180" y="222" width="287.53" height="22" fill="#4c78a8" rx="3"/>
<text x="475.53" y="238" class="value">139.18</text>
<text x="10" y="270" class="label">cdn.cloudflare.steamstatic.com</text>
<rect x="180" y="254" width="299.16" height="22" fill="#4c78a8" rx="3"/>
<text x="487.16" y="270" class="value">144.81</text>
<text x="10" y="302" class="label">steamcdn-a.akamaihd.net</text>
<rect x="180" y="286" width="374.38" height="22" fill="#4c78a8" rx="3"/>
<text x="562.38" y="302" class="value">181.22</text>
<text x="10" y="334" class="label">steam-chat.com</text>
<rect x="180" y="318" width="448.34" height="22" fill="#4c78a8" rx="3"/>
<text x="636.3399999999999" y="334" class="value">217.02</text>
<text x="10" y="366" class="label">www.steamcommunity.com</text>
<rect x="180" y="350" width="450.06" height="22" fill="#4c78a8" rx="3"/>
<text x="638.06" y="366" class="value">217.85</text>
<text x="10" y="398" class="label">easyanticheat.net</text>
<rect x="180" y="382" width="450.39" height="22" fill="#4c78a8" rx="3"/>
<text x="638.39" y="398" class="value">218.01</text>
<text x="10" y="430" class="label">launcher-public-service-prod06.ol.epicgames.com</text>
<rect x="180" y="414" width="501.02" height="22" fill="#4c78a8" rx="3"/>
<text x="689.02" y="430" class="value">242.52</text>
<text x="10" y="462" class="label">api.steampowered.com</text>
<rect x="180" y="446" width="524.61" height="22" fill="#4c78a8" rx="3"/>
<text x="712.61" y="462" class="value">253.94</text>
<text x="10" y="494" class="label">ubi.com</text>
<rect x="180" y="478" width="580.0" height="22" fill="#4c78a8" rx="3"/>
<text x="768.0" y="494" class="value">280.75</text>
<line x1="180" y1="30" x2="180" y2="520" stroke="#ccc"/>
<line x1="180" y1="520" x2="760" y2="520" stroke="#ccc"/>
</svg>