<svg xmlns="http://www.w3.org/2000/svg" width="800" height="540">
<style> .label{font-family:DejaVu Sans,Verdana,Geneva,sans-serif;font-size:12px;fill:#333} .value{font-family:DejaVu Sans,Verdana,Geneva,sans-serif;font-size:12px;fill:#555} </style>
<text x="10" y="20" class="label">延迟柱状图（越低越好，Top 15），单位 ms</text>
<text x="10" y="46" class="label">rockstargames.com</text>
<rect x="180" y="30" width="152.91" height="22" fill="#4c78a8" rx="3"/>
<text x="340.90999999999997" y="46" class="value">60.97</text>
<text x="10" y="78" class="label">battle.net</text>
<rect x="180" y="62" width="186.64" height="22" fill="#4c78a8" rx="3"/>
<text x="374.64" y="78" class="value">74.42</text>
<text x="10" y="110" class="label">socialclub.rockstargames.com</text>
<rect x="180" y="94" width="218.39" height="22" fill="#4c78a8" rx="3"/>
<text x="406.39" y="110" class="value">87.08</text>
<text x="10" y="142" class="label">blizzard.com</text>
<rect x="180" y="126" width="224.41" height="22" fill="#4c78a8" rx="3"/>
<text x="412.40999999999997" y="142" class="value">89.48</text>
<text x="10" y="174" class="label">store.akamai.steamstatic.com</text>
<rect x="180" y="158" width="237.22" height="22" fill="#4c78a8" rx="3"/>
<text x="425.22" y="174" class="value">94.59</text>
<text x="10" y="206" class="label">ea.com</text>
<rect x="180" y="190" width="243.06" height="22" fill="#4c78a8" rx="3"/>
<text x="431.06" y="206" class="value">96.92</text>
<text x="10" y="238" class="label">ubi.com</text>
<rect x="180" y="222" width="259.14" height="22" fill="#4c78a8" rx="3"/>
<text x="447.14" y="238" class="value">103.33</text>
<text x="10" y="270" class="label">eaassets-a.akamaihd.net</text>
<rect x="180" y="254" width="381.32" height="22" fill="#4c78a8" rx="3"/>
<text x="569.3199999999999" y="270" class="value">152.05</text>
<text x="10" y="302" class="label">steamcdn-a.akamaihd.net</text>
<rect x="180" y="286" width="425.01" height="22" fill="#4c78a8" rx="3"/>
<text x="613.01" y="302" class="value">169.47</text>
<text x="10" y="334" class="label">cdn.cloudflare.steamstatic.com</text>
<rect x="180" y="318" width="532.58" height="22" fill="#4c78a8" rx="3"/>
<text x="720.58" y="334" class="value">212.36</text>
<text x="10" y="366" class="label">unrealengine.com</text>
<rect x="180" y="350" width="544.61" height="22" fill="#4c78a8" rx="3"/>
<text x="732.61" y="366" class="value">217.16</text>
<text x="10" y="398" class="label">ubisoft.com</text>
<rect x="180" y="382" width="547.9" height="22" fill="#4c78a8" rx="3"/>
<text x="735.9" y="398" class="value">218.47</text>
<text x="10" y="430" class="label">origin.com</text>
<rect x="180" y="414" width="557.68" height="22" fill="#4c78a8" rx="3"/>
<text x="745.68" y="430" class="value">222.37</text>
<text x="10" y="462" class="label">epicgames.com</text>
<rect x="180" y="446" width="558.73" height="22" fill="#4c78a8" rx="3"/>
<text x="746.73" y="462" class="value">222.79</text>
<text x="10" y="494" class="label">community.akamai.steamstatic.com</text>
<rect x="180" y="478" width="580.0" height="22" fill="#4c78a8" rx="3"/>
<text x="768.0" y="494" class="value">231.27</text>
<line x1="180" y1="30" x2="180" y2="520" stroke="#ccc"/>
<line x1="180" y1="520" x2="760" y2="520" stroke="#ccc"/>
</svg>