<svg xmlns="http://www.w3.org/2000/svg" width="800" height="540">
<style> .label{font-family:DejaVu Sans,Verdana,Geneva,sans-serif;font-size:12px;fill:#333} .value{font-family:DejaVu Sans,Verdana,Geneva,sans-serif;font-size:12px;fill:#555} </style>
<text x="10" y="20" class="label">延迟柱状图（越低越好，Top 15），单位 ms</text>
<text x="10" y="46" class="label">rockstargames.com</text>
<rect x="180" y="30" width="173.6" height="22" fill="#4c78a8" rx="3"/>
<text x="361.6" y="46" class="value">58.92</text>
<text x="10" y="78" class="label">ubi.com</text>
<rect x="180" y="62" width="197.17" height="22" fill="#4c78a8" rx="3"/>
<text x="385.16999999999996" y="78" class="value">66.92</text>
<text x="10" y="110" class="label">socialclub.rockstargames.com</text>
<rect x="180" y="94" width="205.95" height="22" fill="#4c78a8" rx="3"/>
<text x="393.95" y="110" class="value">69.90</text>
<text x="10" y="142" class="label">ea.com</text>
<rect x="180" y="126" width="265.65" height="22" fill="#4c78a8" rx="3"/>
<text x="453.65" y="142" class="value">90.16</text>
<text x="10" y="174" class="label">origin.com</text>
<rect x="180" y="158" width="294.76" height="22" fill="#4c78a8" rx="3"/>
<text x="482.76" y="174" class="value">100.04</text>
<text x="10" y="206" class="label">eaassets-a.akamaihd.net</text>
<rect x="180" y="190" width="360.88" height="22" fill="#4c78a8" rx="3"/>
<text x="548.88" y="206" class="value">122.48</text>
<text x="10" y="238" class="label">battle.net</text>
<rect x="180" y="222" width="365.27" height="22" fill="#4c78a8" rx="3"/>
<text x="553.27" y="238" class="value">123.97</text>
<text x="10" y="270" class="label">epicgames.com</text>
<rect x="180" y="254" width="391.34" height="22" fill="#4c78a8" rx="3"/>
<text x="579.3399999999999" y="270" class="value">132.82</text>
<text x="10" y="302" class="label">blizzard.com</text>
<rect x="180" y="286" width="394.32" height="22" fill="#4c78a8" rx="3"/>
<text x="582.3199999999999" y="302" class="value">133.83</text>
<text x="10" y="334" class="label">community.akamai.steamstatic.com</text>
<rect x="180" y="318" width="431.91" height="22" fill="#4c78a8" rx="3"/>
<text x="619.9100000000001" y="334" class="value">146.59</text>
<text x="10" y="366" class="label">cdn.akamai.steamstatic.com</text>
<rect x="180" y="350" width="542.85" height="22" fill="#4c78a8" rx="3"/>
<text x="730.85" y="366" class="value">184.24</text>
<text x="10" y="398" class="label">static3.cdn.ubi.com</text>
<rect x="180" y="382" width="560.05" height="22" fill="#4c78a8" rx="3"/>
<text x="748.05" y="398" class="value">190.08</text>
<text x="10" y="430" class="label">unrealengine.com</text>
<rect x="180" y="414" width="565.47" height="22" fill="#4c78a8" rx="3"/>
<text x="753.47" y="430" class="value">191.92</text>
<text x="10" y="462" class="label">ubisoft.com</text>
<rect x="180" y="446" width="570.6" height="22" fill="#4c78a8" rx="3"/>
<text x="758.6" y="462" class="value">193.66</text>
<text x="10" y="494" class="label">fortnite.com</text>
<rect x="180" y="478" width="580.0" height="22" fill="#4c78a8" rx="3"/>
<text x="768.0" y="494" class="value">196.85</text>
<line x1="180" y1="30" x2="180" y2="520" stroke="#ccc"/>
<line x1="180" y1="520" x2="760" y2="520" stroke="#ccc"/>
</svg>