<svg xmlns="http://www.w3.org/2000/svg" width="800" height="540">
<style> .label{font-family:DejaVu Sans,Verdana,Geneva,sans-serif;font-size:12px;fill:#333} .value{font-family:DejaVu Sans,Verdana,Geneva,sans-serif;font-size:12px;fill:#555} </style>
<text x="10" y="20" class="label">延迟柱状图（越低越好，Top 15），单位 ms</text>
<text x="10" y="46" class="label">rockstargames.com</text>
<rect x="180" y="30" width="225.68" height="22" fill="#4c78a8" rx="3"/>
<text x="413.68" y="46" class="value">69.76</text>
<text x="10" y="78" class="label">ea.com</text>
<rect x="180" y="62" width="252.63" height="22" fill="#4c78a8" rx="3"/>
<text x="440.63" y="78" class="value">78.09</text>
<text x="10" y="110" class="label">origin.com</text>
<rect x="180" y="94" width="291.55" height="22" fill="#4c78a8" rx="3"/>
<text x="479.55" y="110" class="value">90.12</text>
<text x="10" y="142" class="label">eaassets-a.akamaihd.net</text>
<rect x="180" y="126" width="316.17" height="22" fill="#4c78a8" rx="3"/>
<text x="504.17" y="142" class="value">97.73</text>
<text x="10" y="174" class="label">store.akamai.steamstatic.com</text>
<rect x="180" y="158" width="423.87" height="22" fill="#4c78a8" rx="3"/>
<text x="611.87" y="174" class="value">131.02</text>
<text x="10" y="206" class="label">socialclub.rockstargames.com</text>
<rect x="180" y="190" width="442.6" height="22" fill="#4c78a8" rx="3"/>
<text x="630.6" y="206" class="value">136.81</text>
<text x="10" y="238" class="label">blizzard.com</text>
<rect x="180" y="222" width="447.94" height="22" fill="#4c78a8" rx="3"/>
<text x="635.94" y="238" class="value">138.46</text>
<text x="10" y="270" class="label">community.akamai.steamstatic.com</text>
<rect x="180" y="254" width="455.71" height="22" fill="#4c78a8" rx="3"/>
<text x="643.71" y="270" class="value">140.86</text>
<text x="10" y="302" class="label">ubi.com</text>
<rect x="180" y="286" width="483.75" height="22" fill="#4c78a8" rx="3"/>
<text x="671.75" y="302" class="value">149.53</text>
<text x="10" y="334" class="label">battle.net</text>
<rect x="180" y="318" width="484.53" height="22" fill="#4c78a8" rx="3"/>
<text x="672.53" y="334" class="value">149.77</text>
<text x="10" y="366" class="label">cdn.cloudflare.steamstatic.com</text>
<rect x="180" y="350" width="496.02" height="22" fill="#4c78a8" rx="3"/>
<text x="684.02" y="366" class="value">153.32</text>
<text x="10" y="398" class="label">easyanticheat.net</text>
<rect x="180" y="382" width="549.4" height="22" fill="#4c78a8" rx="3"/>
<text x="737.4" y="398" class="value">169.82</text>
<text x="10" y="430" class="label">steam-chat.com</text>
<rect x="180" y="414" width="551.08" height="22" fill="#4c78a8" rx="3"/>
<text x="739.08" y="430" class="value">170.34</text>
<text x="10" y="462" class="label">steamcdn-a.akamaihd.net</text>
<rect x="180" y="446" width="559.26" height="22" fill="#4c78a8" rx="3"/>
<text x="747.26" y="462" class="value">172.87</text>
<text x="10" y="494" class="label">cdn.akamai.steamstatic.com</text>
<rect x="180" y="478" width="580.0" height="22" fill="#4c78a8" rx="3"/>
<text x="768.0" y="494" class="value">179.28</text>
<line x1="180" y1="30" x2="180" y2="520" stroke="#ccc"/>
<line x1="180" y1="520" x2="760" y2="520" stroke="#ccc"/>
</svg>