<svg xmlns="http://www.w3.org/2000/svg" width="800" height="540">
<style> .label{font-family:DejaVu Sans,Verdana,Geneva,sans-serif;font-size:12px;fill:#333} .value{font-family:DejaVu Sans,Verdana,Geneva,sans-serif;font-size:12px;fill:#555} </style>
<text x="10" y="20" class="label">延迟柱状图（越低越好，Top 15），单位 ms</text>
<text x="10" y="46" class="label">rockstargames.com</text>
<rect x="180" y="30" width="96.97" height="22" fill="#4c78a8" rx="3"/>
<text x="284.97" y="46" class="value">44.37</text>
<text x="10" y="78" class="label">ea.com</text>
<rect x="180" y="62" width="156.17" height="22" fill="#4c78a8" rx="3"/>
<text x="344.16999999999996" y="78" class="value">71.46</text>
<text x="10" y="110" class="label">ubisoft.com</text>
<rect x="180" y="94" width="207.76" height="22" fill="#4c78a8" rx="3"/>
<text x="395.76" y="110" class="value">95.07</text>
<text x="10" y="142" class="label">eaassets-a.akamaihd.net</text>
<rect x="180" y="126" width="250.99" height="22" fill="#4c78a8" rx="3"/>
<text x="438.99" y="142" class="value">114.85</text>
<text x="10" y="174" class="label">cdn.akamai.steamstatic.com</text>
<rect x="180" y="158" width="252.04" height="22" fill="#4c78a8" rx="3"/>
<text x="440.03999999999996" y="174" class="value">115.33</text>
<text x="10" y="206" class="label">origin.com</text>
<rect x="180" y="190" width="310.43" height="22" fill="#4c78a8" rx="3"/>
<text x="498.43" y="206" class="value">142.05</text>
<text x="10" y="238" class="label">store.akamai.steamstatic.com</text>
<rect x="180" y="222" width="324.59" height="22" fill="#4c78a8" rx="3"/>
<text x="512.5899999999999" y="238" class="value">148.53</text>
<text x="10" y="270" class="label">steamcdn-a.akamaihd.net</text>
<rect x="180" y="254" width="343.5" height="22" fill="#4c78a8" rx="3"/>
<text x="531.5" y="270" class="value">157.18</text>
<text x="10" y="302" class="label">cdn.cloudflare.steamstatic.com</text>
<rect x="180" y="286" width="361.55" height="22" fill="#4c78a8" rx="3"/>
<text x="549.55" y="302" class="value">165.44</text>
<text x="10" y="334" class="label">easyanticheat.net</text>
<rect x="180" y="318" width="372.76" height="22" fill="#4c78a8" rx="3"/>
<text x="560.76" y="334" class="value">170.57</text>
<text x="10" y="366" class="label">community.akamai.steamstatic.com</text>
<rect x="180" y="350" width="437.88" height="22" fill="#4c78a8" rx="3"/>
<text x="625.88" y="366" class="value">200.37</text>
<text x="10" y="398" class="label">www.steamcommunity.com</text>
<rect x="180" y="382" width="506.86" height="22" fill="#4c78a8" rx="3"/>
<text x="694.86" y="398" class="value">231.93</text>
<text x="10" y="430" class="label">api.steampowered.com</text>
<rect x="180" y="414" width="531.9" height="22" fill="#4c78a8" rx="3"/>
<text x="719.9" y="430" class="value">243.39</text>
<text x="10" y="462" class="label">launcher-public-service-prod06.ol.epicgames.com</text>
<rect x="180" y="446" width="573.82" height="22" fill="#4c78a8" rx="3"/>
<text x="761.82" y="462" class="value">262.57</text>
<text x="10" y="494" class="label">steam-chat.com</text>
<rect x="180" y="478" width="580.0" height="22" fill="#4c78a8" rx="3"/>
<text x="768.0" y="494" class="value">265.40</text>
<line x1="180" y1="30" x2="180" y2="520" stroke="#ccc"/>
<line x1="180" y1="520" x2="760" y2="520" stroke="#ccc"/>
</svg>