<svg xmlns="http://www.w3.org/2000/svg" width="800" height="540">
<style> .label{font-family:DejaVu Sans,Verdana,Geneva,sans-serif;font-size:12px;fill:#333} .value{font-family:DejaVu Sans,Verdana,Geneva,sans-serif;font-size:12px;fill:#555} </style>
<text x="10" y="20" class="label">延迟柱状图（越低越好，Top 15），单位 ms</text>
<text x="10" y="46" class="label">rockstargames.com</text>
<rect x="180" y="30" width="155.12" height="22" fill="#4c78a8" rx="3"/>
<text x="343.12" y="46" class="value">56.88</text>
<text x="10" y="78" class="label">blizzard.com</text>
<rect x="180" y="62" width="242.14" height="22" fill="#4c78a8" rx="3"/>
<text x="430.14" y="78" class="value">88.79</text>
<text x="10" y="110" class="label">socialclub.rockstargames.com</text>
<rect x="180" y="94" width="278.27" height="22" fill="#4c78a8" rx="3"/>
<text x="466.27" y="110" class="value">102.04</text>
<text x="10" y="142" class="label">battle.net</text>
<rect x="180" y="126" width="285.25" height="22" fill="#4c78a8" rx="3"/>
<text x="473.25" y="142" class="value">104.60</text>
<text x="10" y="174" class="label">unrealengine.com</text>
<rect x="180" y="158" width="295.24" height="22" fill="#4c78a8" rx="3"/>
<text x="483.24" y="174" class="value">108.26</text>
<text x="10" y="206" class="label">cdn.akamai.steamstatic.com</text>
<rect x="180" y="190" width="298.56" height="22" fill="#4c78a8" rx="3"/>
<text x="486.56" y="206" class="value">109.48</text>
<text x="10" y="238" class="label">ubi.com</text>
<rect x="180" y="222" width="301.97" height="22" fill="#4c78a8" rx="3"/>
<text x="489.97" y="238" class="value">110.73</text>
<text x="10" y="270" class="label">fortnite.com</text>
<rect x="180" y="254" width="337.89" height="22" fill="#4c78a8" rx="3"/>
<text x="525.89" y="270" class="value">123.90</text>
<text x="10" y="302" class="label">ea.com</text>
<rect x="180" y="286" width="356.16" height="22" fill="#4c78a8" rx="3"/>
<text x="544.1600000000001" y="302" class="value">130.60</text>
<text x="10" y="334" class="label">ubisoft.com</text>
<rect x="180" y="318" width="377.27" height="22" fill="#4c78a8" rx="3"/>
<text x="565.27" y="334" class="value">138.34</text>
<text x="10" y="366" class="label">epicgames.com</text>
<rect x="180" y="350" width="386.73" height="22" fill="#4c78a8" rx="3"/>
<text x="574.73" y="366" class="value">141.81</text>
<text x="10" y="398" class="label">static3.cdn.ubi.com</text>
<rect x="180" y="382" width="423.93" height="22" fill="#4c78a8" rx="3"/>
<text x="611.9300000000001" y="398" class="value">155.45</text>
<text x="10" y="430" class="label">store.akamai.steamstatic.com</text>
<rect x="180" y="414" width="469.72" height="22" fill="#4c78a8" rx="3"/>
<text x="657.72" y="430" class="value">172.24</text>
<text x="10" y="462" class="label">cdn.cloudflare.steamstatic.com</text>
<rect x="180" y="446" width="572.47" height="22" fill="#4c78a8" rx="3"/>
<text x="760.47" y="462" class="value">209.92</text>
<text x="10" y="494" class="label">community.akamai.steamstatic.com</text>
<rect x="180" y="478" width="580.0" height="22" fill="#4c78a8" rx="3"/>
<text x="768.0" y="494" class="value">212.68</text>
<line x1="180" y1="30" x2="180" y2="520" stroke="#ccc"/>
<line x1="180" y1="520" x2="760" y2="520" stroke="#ccc"/>
</svg>