<svg xmlns="http://www.w3.org/2000/svg" width="800" height="540">
<style> .label{font-family:DejaVu Sans,Verdana,Geneva,sans-serif;font-size:12px;fill:#333} .value{font-family:DejaVu Sans,Verdana,Geneva,sans-serif;font-size:12px;fill:#555} </style>
<text x="10" y="20" class="label">延迟柱状图（越低越好，Top 15），单位 ms</text>
<text x="10" y="46" class="label">rockstargames.com</text>
<rect x="180" y="30" width="148.94" height="22" fill="#4c78a8" rx="3"/>
<text x="336.94" y="46" class="value">56.27</text>
<text x="10" y="78" class="label">socialclub.rockstargames.com</text>
<rect x="180" y="62" width="184.62" height="22" fill="#4c78a8" rx="3"/>
<text x="372.62" y="78" class="value">69.75</text>
<text x="10" y="110" class="label">unrealengine.com</text>
<rect x="180" y="94" width="250.9" height="22" fill="#4c78a8" rx="3"/>
<text x="438.9" y="110" class="value">94.79</text>
<text x="10" y="142" class="label">cdn.cloudflare.steamstatic.com</text>
<rect x="180" y="126" width="273.27" height="22" fill="#4c78a8" rx="3"/>
<text x="461.27" y="142" class="value">103.24</text>
<text x="10" y="174" class="label">battle.net</text>
<rect x="180" y="158" width="303.71" height="22" fill="#4c78a8" rx="3"/>
<text x="491.71" y="174" class="value">114.74</text>
<text x="10" y="206" class="label">store.akamai.steamstatic.com</text>
<rect x="180" y="190" width="309.3" height="22" fill="#4c78a8" rx="3"/>
<text x="497.3" y="206" class="value">116.85</text>
<text x="10" y="238" class="label">ubi.com</text>
<rect x="180" y="222" width="311.89" height="22" fill="#4c78a8" rx="3"/>
<text x="499.89" y="238" class="value">117.83</text>
<text x="10" y="270" class="label">ea.com</text>
<rect x="180" y="254" width="321.95" height="22" fill="#4c78a8" rx="3"/>
<text x="509.95" y="270" class="value">121.63</text>
<text x="10" y="302" class="label">blizzard.com</text>
<rect x="180" y="286" width="324.25" height="22" fill="#4c78a8" rx="3"/>
<text x="512.25" y="302" class="value">122.50</text>
<text x="10" y="334" class="label">ubisoft.com</text>
<rect x="180" y="318" width="332.01" height="22" fill="#4c78a8" rx="3"/>
<text x="520.01" y="334" class="value">125.43</text>
<text x="10" y="366" class="label">fortnite.com</text>
<rect x="180" y="350" width="434.13" height="22" fill="#4c78a8" rx="3"/>
<text x="622.13" y="366" class="value">164.01</text>
<text x="10" y="398" class="label">epicgames.com</text>
<rect x="180" y="382" width="494.87" height="22" fill="#4c78a8" rx="3"/>
<text x="682.87" y="398" class="value">186.96</text>
<text x="10" y="430" class="label">community.akamai.steamstatic.com</text>
<rect x="180" y="414" width="558.0" height="22" fill="#4c78a8" rx="3"/>
<text x="746.0" y="430" class="value">210.81</text>
<text x="10" y="462" class="label">origin.com</text>
<rect x="180" y="446" width="561.89" height="22" fill="#4c78a8" rx="3"/>
<text x="749.89" y="462" class="value">212.28</text>
<text x="10" y="494" class="label">easyanticheat.net</text>
<rect x="180" y="478" width="580.0" height="22" fill="#4c78a8" rx="3"/>
<text x="768.0" y="494" class="value">219.12</text>
<line x1="180" y1="30" x2="180" y2="520" stroke="#ccc"/>
<line x1="180" y1="520" x2="760" y2="520" stroke="#ccc"/>
</svg>