<svg xmlns="http://www.w3.org/2000/svg" width="800" height="540">
<style> .label{font-family:DejaVu Sans,Verdana,Geneva,sans-serif;font-size:12px;fill:#333} .value{font-family:DejaVu Sans,Verdana,Geneva,sans-serif;font-size:12px;fill:#555} </style>
<text x="10" y="20" class="label">延迟柱状图（越低越好，Top 15），单位 ms</text>
<text x="10" y="46" class="label">rockstargames.com</text>
<rect x="180" y="30" width="260.65" height="22" fill="#4c78a8" rx="3"/>
<text x="448.65" y="46" class="value">110.22</text>
<text x="10" y="78" class="label">ubisoft.com</text>
<rect x="180" y="62" width="300.1" height="22" fill="#4c78a8" rx="3"/>
<text x="488.1" y="78" class="value">126.90</text>
<text x="10" y="110" class="label">store.akamai.steamstatic.com</text>
<rect x="180" y="94" width="338.12" height="22" fill="#4c78a8" rx="3"/>
<text x="526.12" y="110" class="value">142.98</text>
<text x="10" y="142" class="label">cdn.akamai.steamstatic.com</text>
<rect x="180" y="126" width="339.73" height="22" fill="#4c78a8" rx="3"/>
<text x="527.73" y="142" class="value">143.66</text>
<text x="10" y="174" class="label">eaassets-a.akamaihd.net</text>
<rect x="180" y="158" width="340.44" height="22" fill="#4c78a8" rx="3"/>
<text x="528.44" y="174" class="value">143.96</text>
<text x="10" y="206" class="label">api.steampowered.com</text>
<rect x="180" y="190" width="393.6" height="22" fill="#4c78a8" rx="3"/>
<text x="581.6" y="206" class="value">166.44</text>
<text x="10" y="238" class="label">community.akamai.steamstatic.com</text>
<rect x="180" y="222" width="396.61" height="22" fill="#4c78a8" rx="3"/>
<text x="584.61" y="238" class="value">167.71</text>
<text x="10" y="270" class="label">cdn.cloudflare.steamstatic.com</text>
<rect x="180" y="254" width="400.13" height="22" fill="#4c78a8" rx="3"/>
<text x="588.13" y="270" class="value">169.20</text>
<text x="10" y="302" class="label">origin.com</text>
<rect x="180" y="286" width="427.14" height="22" fill="#4c78a8" rx="3"/>
<text x="615.14" y="302" class="value">180.62</text>
<text x="10" y="334" class="label">easyanticheat.net</text>
<rect x="180" y="318" width="430.68" height="22" fill="#4c78a8" rx="3"/>
<text x="618.6800000000001" y="334" class="value">182.12</text>
<text x="10" y="366" class="label">ubi.com</text>
<rect x="180" y="350" width="504.25" height="22" fill="#4c78a8" rx="3"/>
<text x="692.25" y="366" class="value">213.23</text>
<text x="10" y="398" class="label">blizzard.com</text>
<rect x="180" y="382" width="539.7" height="22" fill="#4c78a8" rx="3"/>
<text x="727.7" y="398" class="value">228.22</text>
<text x="10" y="430" class="label">battle.net</text>
<rect x="180" y="414" width="554.63" height="22" fill="#4c78a8" rx="3"/>
<text x="742.63" y="430" class="value">234.53</text>
<text x="10" y="462" class="label">www.steamcommunity.com</text>
<rect x="180" y="446" width="559.47" height="22" fill="#4c78a8" rx="3"/>
<text x="747.47" y="462" class="value">236.58</text>
<text x="10" y="494" class="label">launcher-public-service-prod06.ol.epicgames.com</text>
<rect x="180" y="478" width="580.0" height="22" fill="#4c78a8" rx="3"/>
<text x="768.0" y="494" class="value">245.26</text>
<line x1="180" y1="30" x2="180" y2="520" stroke="#ccc"/>
<line x1="180" y1="520" x2="760" y2="520" stroke="#ccc"/>
</svg>