<svg xmlns="http://www.w3.org/2000/svg" width="800" height="540">
<style> .label{font-family:DejaVu Sans,Verdana,Geneva,sans-serif;font-size:12px;fill:#333} .value{font-family:DejaVu Sans,Verdana,Geneva,sans-serif;font-size:12px;fill:#555} </style>
<text x="10" y="20" class="label">延迟柱状图（越低越好，Top 15），单位 ms</text>
<text x="10" y="46" class="label">rockstargames.com</text>
<rect x="180" y="30" width="157.74" height="22" fill="#4c78a8" rx="3"/>
<text x="345.74" y="46" class="value">60.77</text>
<text x="10" y="78" class="label">steamcdn-a.akamaihd.net</text>
<rect x="180" y="62" width="218.4" height="22" fill="#4c78a8" rx="3"/>
<text x="406.4" y="78" class="value">84.14</text>
<text x="10" y="110" class="label">origin.com</text>
<rect x="180" y="94" width="287.0" height="22" fill="#4c78a8" rx="3"/>
<text x="475.0" y="110" class="value">110.57</text>
<text x="10" y="142" class="label">easyanticheat.net</text>
<rect x="180" y="126" width="332.32" height="22" fill="#4c78a8" rx="3"/>
<text x="520.3199999999999" y="142" class="value">128.03</text>
<text x="10" y="174" class="label">socialclub.rockstargames.com</text>
<rect x="180" y="158" width="358.88" height="22" fill="#4c78a8" rx="3"/>
<text x="546.88" y="174" class="value">138.26</text>
<text x="10" y="206" class="label">blizzard.com</text>
<rect x="180" y="190" width="372.81" height="22" fill="#4c78a8" rx="3"/>
<text x="560.81" y="206" class="value">143.63</text>
<text x="10" y="238" class="label">battle.net</text>
<rect x="180" y="222" width="373.52" height="22" fill="#4c78a8" rx="3"/>
<text x="561.52" y="238" class="value">143.90</text>
<text x="10" y="270" class="label">ubi.com</text>
<rect x="180" y="254" width="379.17" height="22" fill="#4c78a8" rx="3"/>
<text x="567.1700000000001" y="270" class="value">146.08</text>
<text x="10" y="302" class="label">ea.com</text>
<rect x="180" y="286" width="413.41" height="22" fill="#4c78a8" rx="3"/>
<text x="601.4100000000001" y="302" class="value">159.27</text>
<text x="10" y="334" class="label">cdn.akamai.steamstatic.com</text>
<rect x="180" y="318" width="422.18" height="22" fill="#4c78a8" rx="3"/>
<text x="610.1800000000001" y="334" class="value">162.65</text>
<text x="10" y="366" class="label">static3.cdn.ubi.com</text>
<rect x="180" y="350" width="434.07" height="22" fill="#4c78a8" rx="3"/>
<text x="622.0699999999999" y="366" class="value">167.23</text>
<text x="10" y="398" class="label">cdn.cloudflare.steamstatic.com</text>
<rect x="180" y="382" width="436.88" height="22" fill="#4c78a8" rx="3"/>
<text x="624.88" y="398" class="value">168.31</text>
<text x="10" y="430" class="label">ubisoft.com</text>
<rect x="180" y="414" width="479.0" height="22" fill="#4c78a8" rx="3"/>
<text x="667.0" y="430" class="value">184.54</text>
<text x="10" y="462" class="label">gog.com</text>
<rect x="180" y="446" width="530.92" height="22" fill="#4c78a8" rx="3"/>
<text x="718.92" y="462" class="value">204.54</text>
<text x="10" y="494" class="label">unrealengine.com</text>
<rect x="180" y="478" width="580.0" height="22" fill="#4c78a8" rx="3"/>
<text x="768.0" y="494" class="value">223.45</text>
<line x1="180" y1="30" x2="180" y2="520" stroke="#ccc"/>
<line x1="180" y1="520" x2="760" y2="520" stroke="#ccc"/>
</svg>