<svg xmlns="http://www.w3.org/2000/svg" width="800" height="540">
<style> .label{font-family:DejaVu Sans,Verdana,Geneva,sans-serif;font-size:12px;fill:#333} .value{font-family:DejaVu Sans,Verdana,Geneva,sans-serif;font-size:12px;fill:#555} </style>
<text x="10" y="20" class="label">延迟柱状图（越低越好，Top 15），单位 ms</text>
<text x="10" y="46" class="label">ubisoft.com</text>
<rect x="180" y="30" width="263.07" height="22" fill="#4c78a8" rx="3"/>
<text x="451.07" y="46" class="value">99.54</text>
<text x="10" y="78" class="label">ea.com</text>
<rect x="180" y="62" width="264.29" height="22" fill="#4c78a8" rx="3"/>
<text x="452.29" y="78" class="value">100.00</text>
<text x="10" y="110" class="label">eaassets-a.akamaihd.net</text>
<rect x="180" y="94" width="341.69" height="22" fill="#4c78a8" rx="3"/>
<text x="529.69" y="110" class="value">129.29</text>
<text x="10" y="142" class="label">community.akamai.steamstatic.com</text>
<rect x="180" y="126" width="365.14" height="22" fill="#4c78a8" rx="3"/>
<text x="553.14" y="142" class="value">138.16</text>
<text x="10" y="174" class="label">rockstargames.com</text>
<rect x="180" y="158" width="376.92" height="22" fill="#4c78a8" rx="3"/>
<text x="564.9200000000001" y="174" class="value">142.62</text>
<text x="10" y="206" class="label">battle.net</text>
<rect x="180" y="190" width="409.01" height="22" fill="#4c78a8" rx="3"/>
<text x="597.01" y="206" class="value">154.76</text>
<text x="10" y="238" class="label">cdn.cloudflare.steamstatic.com</text>
<rect x="180" y="222" width="420.29" height="22" fill="#4c78a8" rx="3"/>
<text x="608.29" y="238" class="value">159.03</text>
<text x="10" y="270" class="label">steamcdn-a.akamaihd.net</text>
<rect x="180" y="254" width="422.01" height="22" fill="#4c78a8" rx="3"/>
<text x="610.01" y="270" class="value">159.68</text>
<text x="10" y="302" class="label">store.akamai.steamstatic.com</text>
<rect x="180" y="286" width="428.51" height="22" fill="#4c78a8" rx="3"/>
<text x="616.51" y="302" class="value">162.14</text>
<text x="10" y="334" class="label">cdn.akamai.steamstatic.com</text>
<rect x="180" y="318" width="460.41" height="22" fill="#4c78a8" rx="3"/>
<text x="648.4100000000001" y="334" class="value">174.21</text>
<text x="10" y="366" class="label">blizzard.com</text>
<rect x="180" y="350" width="462.23" height="22" fill="#4c78a8" rx="3"/>
<text x="650.23" y="366" class="value">174.90</text>
<text x="10" y="398" class="label">ubi.com</text>
<rect x="180" y="382" width="465.04" height="22" fill="#4c78a8" rx="3"/>
<text x="653.04" y="398" class="value">175.96</text>
<text x="10" y="430" class="label">socialclub.rockstargames.com</text>
<rect x="180" y="414" width="483.01" height="22" fill="#4c78a8" rx="3"/>
<text x="671.01" y="430" class="value">182.76</text>
<text x="10" y="462" class="label">easyanticheat.net</text>
<rect x="180" y="446" width="525.19" height="22" fill="#4c78a8" rx="3"/>
<text x="713.19" y="462" class="value">198.72</text>
<text x="10" y="494" class="label">api.steampowered.com</text>
<rect x="180" y="478" width="580.0" height="22" fill="#4c78a8" rx="3"/>
<text x="768.0" y="494" class="value">219.46</text>
<line x1="180" y1="30" x2="180" y2="520" stroke="#ccc"/>
<line x1="180" y1="520" x2="760" y2="520" stroke="#ccc"/>
</svg>