<svg xmlns="http://www.w3.org/2000/svg" width="800" height="540">
<style> .label{font-family:DejaVu Sans,Verdana,Geneva,sans-serif;font-size:12px;fill:#333} .value{font-family:DejaVu Sans,Verdana,Geneva,sans-serif;font-size:12px;fill:#555} </style>
<text x="10" y="20" class="label">延迟柱状图（越低越好，Top 15），单位 ms</text>
<text x="10" y="46" class="label">rockstargames.com</text>
<rect x="180" y="30" width="190.33" height="22" fill="#4c78a8" rx="3"/>
<text x="378.33000000000004" y="46" class="value">59.65</text>
<text x="10" y="78" class="label">eaassets-a.akamaihd.net</text>
<rect x="180" y="62" width="220.84" height="22" fill="#4c78a8" rx="3"/>
<text x="408.84000000000003" y="78" class="value">69.21</text>
<text x="10" y="110" class="label">cdn.cloudflare.steamstatic.com</text>
<rect x="180" y="94" width="246.72" height="22" fill="#4c78a8" rx="3"/>
<text x="434.72" y="110" class="value">77.32</text>
<text x="10" y="142" class="label">origin.com</text>
<rect x="180" y="126" width="264.78" height="22" fill="#4c78a8" rx="3"/>
<text x="452.78" y="142" class="value">82.98</text>
<text x="10" y="174" class="label">easyanticheat.net</text>
<rect x="180" y="158" width="406.8" height="22" fill="#4c78a8" rx="3"/>
<text x="594.8" y="174" class="value">127.49</text>
<text x="10" y="206" class="label">socialclub.rockstargames.com</text>
<rect x="180" y="190" width="412.83" height="22" fill="#4c78a8" rx="3"/>
<text x="600.8299999999999" y="206" class="value">129.38</text>
<text x="10" y="238" class="label">blizzard.com</text>
<rect x="180" y="222" width="428.66" height="22" fill="#4c78a8" rx="3"/>
<text x="616.6600000000001" y="238" class="value">134.34</text>
<text x="10" y="270" class="label">community.akamai.steamstatic.com</text>
<rect x="180" y="254" width="435.55" height="22" fill="#4c78a8" rx="3"/>
<text x="623.55" y="270" class="value">136.50</text>
<text x="10" y="302" class="label">ea.com</text>
<rect x="180" y="286" width="471.99" height="22" fill="#4c78a8" rx="3"/>
<text x="659.99" y="302" class="value">147.92</text>
<text x="10" y="334" class="label">battle.net</text>
<rect x="180" y="318" width="475.31" height="22" fill="#4c78a8" rx="3"/>
<text x="663.31" y="334" class="value">148.96</text>
<text x="10" y="366" class="label">ubi.com</text>
<rect x="180" y="350" width="495.67" height="22" fill="#4c78a8" rx="3"/>
<text x="683.6700000000001" y="366" class="value">155.34</text>
<text x="10" y="398" class="label">ubisoft.com</text>
<rect x="180" y="382" width="527.51" height="22" fill="#4c78a8" rx="3"/>
<text x="715.51" y="398" class="value">165.32</text>
<text x="10" y="430" class="label">static3.cdn.ubi.com</text>
<rect x="180" y="414" width="539.32" height="22" fill="#4c78a8" rx="3"/>
<text x="727.32" y="430" class="value">169.02</text>
<text x="10" y="462" class="label">store.akamai.steamstatic.com</text>
<rect x="180" y="446" width="564.65" height="22" fill="#4c78a8" rx="3"/>
<text x="752.65" y="462" class="value">176.96</text>
<text x="10" y="494" class="label">epicgames.com</text>
<rect x="180" y="478" width="580.0" height="22" fill="#4c78a8" rx="3"/>
<text x="768.0" y="494" class="value">181.77</text>
<line x1="180" y1="30" x2="180" y2="520" stroke="#ccc"/>
<line x1="180" y1="520" x2="760" y2="520" stroke="#ccc"/>
</svg>