<svg xmlns="http://www.w3.org/2000/svg" width="800" height="540">
<style> .label{font-family:DejaVu Sans,Verdana,Geneva,sans-serif;font-size:12px;fill:#333} .value{font-family:DejaVu Sans,Verdana,Geneva,sans-serif;font-size:12px;fill:#555} </style>
<text x="10" y="20" class="label">延迟柱状图（越低越好，Top 15），单位 ms</text>
<text x="10" y="46" class="label">rockstargames.com</text>
<rect x="180" y="30" width="120.36" height="22" fill="#4c78a8" rx="3"/>
<text x="308.36" y="46" class="value">67.86</text>
<text x="10" y="78" class="label">store.akamai.steamstatic.com</text>
<rect x="180" y="62" width="213.17" height="22" fill="#4c78a8" rx="3"/>
<text x="401.16999999999996" y="78" class="value">120.19</text>
<text x="10" y="110" class="label">eaassets-a.akamaihd.net</text>
<rect x="180" y="94" width="240.99" height="22" fill="#4c78a8" rx="3"/>
<text x="428.99" y="110" class="value">135.87</text>
<text x="10" y="142" class="label">community.akamai.steamstatic.com</text>
<rect x="180" y="126" width="294.94" height="22" fill="#4c78a8" rx="3"/>
<text x="482.94" y="142" class="value">166.29</text>
<text x="10" y="174" class="label">easyanticheat.net</text>
<rect x="180" y="158" width="299.87" height="22" fill="#4c78a8" rx="3"/>
<text x="487.87" y="174" class="value">169.07</text>
<text x="10" y="206" class="label">origin.com</text>
<rect x="180" y="190" width="303.38" height="22" fill="#4c78a8" rx="3"/>
<text x="491.38" y="206" class="value">171.05</text>
<text x="10" y="238" class="label">ea.com</text>
<rect x="180" y="222" width="307.69" height="22" fill="#4c78a8" rx="3"/>
<text x="495.69" y="238" class="value">173.48</text>
<text x="10" y="270" class="label">cdn.cloudflare.steamstatic.com</text>
<rect x="180" y="254" width="367.18" height="22" fill="#4c78a8" rx="3"/>
<text x="555.1800000000001" y="270" class="value">207.02</text>
<text x="10" y="302" class="label">steamcdn-a.akamaihd.net</text>
<rect x="180" y="286" width="375.89" height="22" fill="#4c78a8" rx="3"/>
<text x="563.89" y="302" class="value">211.93</text>
<text x="10" y="334" class="label">www.steamcommunity.com</text>
<rect x="180" y="318" width="446.71" height="22" fill="#4c78a8" rx="3"/>
<text x="634.71" y="334" class="value">251.86</text>
<text x="10" y="366" class="label">ubisoft.com</text>
<rect x="180" y="350" width="454.73" height="22" fill="#4c78a8" rx="3"/>
<text x="642.73" y="366" class="value">256.38</text>
<text x="10" y="398" class="label">steam-chat.com</text>
<rect x="180" y="382" width="466.1" height="22" fill="#4c78a8" rx="3"/>
<text x="654.1" y="398" class="value">262.79</text>
<text x="10" y="430" class="label">cdn.akamai.steamstatic.com</text>
<rect x="180" y="414" width="483.6" height="22" fill="#4c78a8" rx="3"/>
<text x="671.6" y="430" class="value">272.66</text>
<text x="10" y="462" class="label">ubi.com</text>
<rect x="180" y="446" width="486.49" height="22" fill="#4c78a8" rx="3"/>
<text x="674.49" y="462" class="value">274.29</text>
<text x="10" y="494" class="label">socialclub.rockstargames.com</text>
<rect x="180" y="478" width="580.0" height="22" fill="#4c78a8" rx="3"/>
<text x="768.0" y="494" class="value">327.01</text>
<line x1="180" y1="30" x2="180" y2="520" stroke="#ccc"/>
<line x1="180" y1="520" x2="760" y2="520" stroke="#ccc"/>
</svg>