<svg xmlns="http://www.w3.org/2000/svg" width="800" height="540">
<style> .label{font-family:DejaVu Sans,Verdana,Geneva,sans-serif;font-size:12px;fill:#333} .value{font-family:DejaVu Sans,Verdana,Geneva,sans-serif;font-size:12px;fill:#555} </style>
<text x="10" y="20" class="label">延迟柱状图（越低越好，Top 15），单位 ms</text>
<text x="10" y="46" class="label">rockstargames.com</text>
<rect x="180" y="30" width="215.1" height="22" fill="#4c78a8" rx="3"/>
<text x="403.1" y="46" class="value">107.11</text>
<text x="10" y="78" class="label">eaassets-a.akamaihd.net</text>
<rect x="180" y="62" width="292.73" height="22" fill="#4c78a8" rx="3"/>
<text x="480.73" y="78" class="value">145.77</text>
<text x="10" y="110" class="label">ea.com</text>
<rect x="180" y="94" width="318.03" height="22" fill="#4c78a8" rx="3"/>
<text x="506.03" y="110" class="value">158.37</text>
<text x="10" y="142" class="label">ubisoft.com</text>
<rect x="180" y="126" width="321.35" height="22" fill="#4c78a8" rx="3"/>
<text x="509.35" y="142" class="value">160.02</text>
<text x="10" y="174" class="label">community.akamai.steamstatic.com</text>
<rect x="180" y="158" width="347.49" height="22" fill="#4c78a8" rx="3"/>
<text x="535.49" y="174" class="value">173.04</text>
<text x="10" y="206" class="label">origin.com</text>
<rect x="180" y="190" width="362.41" height="22" fill="#4c78a8" rx="3"/>
<text x="550.4100000000001" y="206" class="value">180.47</text>
<text x="10" y="238" class="label">cdn.cloudflare.steamstatic.com</text>
<rect x="180" y="222" width="383.64" height="22" fill="#4c78a8" rx="3"/>
<text x="571.64" y="238" class="value">191.04</text>
<text x="10" y="270" class="label">steamcdn-a.akamaihd.net</text>
<rect x="180" y="254" width="403.62" height="22" fill="#4c78a8" rx="3"/>
<text x="591.62" y="270" class="value">200.99</text>
<text x="10" y="302" class="label">easyanticheat.net</text>
<rect x="180" y="286" width="446.38" height="22" fill="#4c78a8" rx="3"/>
<text x="634.38" y="302" class="value">222.28</text>
<text x="10" y="334" class="label">api.steampowered.com</text>
<rect x="180" y="318" width="482.0" height="22" fill="#4c78a8" rx="3"/>
<text x="670.0" y="334" class="value">240.02</text>
<text x="10" y="366" class="label">ubi.com</text>
<rect x="180" y="350" width="482.8" height="22" fill="#4c78a8" rx="3"/>
<text x="670.8" y="366" class="value">240.42</text>
<text x="10" y="398" class="label">socialclub.rockstargames.com</text>
<rect x="180" y="382" width="535.56" height="22" fill="#4c78a8" rx="3"/>
<text x="723.56" y="398" class="value">266.69</text>
<text x="10" y="430" class="label">www.steamcommunity.com</text>
<rect x="180" y="414" width="573.9" height="22" fill="#4c78a8" rx="3"/>
<text x="761.9" y="430" class="value">285.78</text>
<text x="10" y="462" class="label">launcher-public-service-prod06.ol.epicgames.com</text>
<rect x="180" y="446" width="576.2" height="22" fill="#4c78a8" rx="3"/>
<text x="764.2" y="462" class="value">286.93</text>
<text x="10" y="494" class="label">unrealengine.com</text>
<rect x="180" y="478" width="580.0" height="22" fill="#4c78a8" rx="3"/>
<text x="768.0" y="494" class="value">288.82</text>
<line x1="180" y1="30" x2="180" y2="520" stroke="#ccc"/>
<line x1="180" y1="520" x2="760" y2="520" stroke="#ccc"/>
</svg>