<svg xmlns="http://www.w3.org/2000/svg" width="800" height="540">
<style> .label{font-family:DejaVu Sans,Verdana,Geneva,sans-serif;font-size:12px;fill:#333} .value{font-family:DejaVu Sans,Verdana,Geneva,sans-serif;font-size:12px;fill:#555} </style>
<text x="10" y="20" class="label">延迟柱状图（越低越好，Top 15），单位 ms</text>
<text x="10" y="46" class="label">rockstargames.com</text>
<rect x="180" y="30" width="79.68" height="22" fill="#4c78a8" rx="3"/>
<text x="267.68" y="46" class="value">35.09</text>
<text x="10" y="78" class="label">eaassets-a.akamaihd.net</text>
<rect x="180" y="62" width="90.62" height="22" fill="#4c78a8" rx="3"/>
<text x="278.62" y="78" class="value">39.91</text>
<text x="10" y="110" class="label">ea.com</text>
<rect x="180" y="94" width="141.35" height="22" fill="#4c78a8" rx="3"/>
<text x="329.35" y="110" class="value">62.25</text>
<text x="10" y="142" class="label">ubisoft.com</text>
<rect x="180" y="126" width="167.78" height="22" fill="#4c78a8" rx="3"/>
<text x="355.78" y="142" class="value">73.89</text>
<text x="10" y="174" class="label">cdn.akamai.steamstatic.com</text>
<rect x="180" y="158" width="235.33" height="22" fill="#4c78a8" rx="3"/>
<text x="423.33000000000004" y="174" class="value">103.64</text>
<text x="10" y="206" class="label">community.akamai.steamstatic.com</text>
<rect x="180" y="190" width="235.76" height="22" fill="#4c78a8" rx="3"/>
<text x="423.76" y="206" class="value">103.83</text>
<text x="10" y="238" class="label">store.akamai.steamstatic.com</text>
<rect x="180" y="222" width="256.36" height="22" fill="#4c78a8" rx="3"/>
<text x="444.36" y="238" class="value">112.90</text>
<text x="10" y="270" class="label">easyanticheat.net</text>
<rect x="180" y="254" width="302.8" height="22" fill="#4c78a8" rx="3"/>
<text x="490.8" y="270" class="value">133.35</text>
<text x="10" y="302" class="label">cdn.cloudflare.steamstatic.com</text>
<rect x="180" y="286" width="417.12" height="22" fill="#4c78a8" rx="3"/>
<text x="605.12" y="302" class="value">183.70</text>
<text x="10" y="334" class="label">origin.com</text>
<rect x="180" y="318" width="427.84" height="22" fill="#4c78a8" rx="3"/>
<text x="615.8399999999999" y="334" class="value">188.42</text>
<text x="10" y="366" class="label">www.steamcommunity.com</text>
<rect x="180" y="350" width="444.39" height="22" fill="#4c78a8" rx="3"/>
<text x="632.39" y="366" class="value">195.71</text>
<text x="10" y="398" class="label">steamcdn-a.akamaihd.net</text>
<rect x="180" y="382" width="496.78" height="22" fill="#4c78a8" rx="3"/>
<text x="684.78" y="398" class="value">218.78</text>
<text x="10" y="430" class="label">launcher-public-service-prod06.ol.epicgames.com</text>
<rect x="180" y="414" width="517.74" height="22" fill="#4c78a8" rx="3"/>
<text x="705.74" y="430" class="value">228.01</text>
<text x="10" y="462" class="label">gog.com</text>
<rect x="180" y="446" width="538.83" height="22" fill="#4c78a8" rx="3"/>
<text x="726.83" y="462" class="value">237.30</text>
<text x="10" y="494" class="label">api.steampowered.com</text>
<rect x="180" y="478" width="580.0" height="22" fill="#4c78a8" rx="3"/>
<text x="768.0" y="494" class="value">255.43</text>
<line x1="180" y1="30" x2="180" y2="520" stroke="#ccc"/>
<line x1="180" y1="520" x2="760" y2="520" stroke="#ccc"/>
</svg>