<svg xmlns="http://www.w3.org/2000/svg" width="800" height="540">
<style> .label{font-family:DejaVu Sans,Verdana,Geneva,sans-serif;font-size:12px;fill:#333} .value{font-family:DejaVu Sans,Verdana,Geneva,sans-serif;font-size:12px;fill:#555} </style>
<text x="10" y="20" class="label">延迟柱状图（越低越好，Top 15），单位 ms</text>
<text x="10" y="46" class="label">rockstargames.com</text>
<rect x="180" y="30" width="180.27" height="22" fill="#4c78a8" rx="3"/>
<text x="368.27" y="46" class="value">64.31</text>
<text x="10" y="78" class="label">eaassets-a.akamaihd.net</text>
<rect x="180" y="62" width="212.65" height="22" fill="#4c78a8" rx="3"/>
<text x="400.65" y="78" class="value">75.86</text>
<text x="10" y="110" class="label">socialclub.rockstargames.com</text>
<rect x="180" y="94" width="281.63" height="22" fill="#4c78a8" rx="3"/>
<text x="469.63" y="110" class="value">100.47</text>
<text x="10" y="142" class="label">ubi.com</text>
<rect x="180" y="126" width="287.91" height="22" fill="#4c78a8" rx="3"/>
<text x="475.91" y="142" class="value">102.71</text>
<text x="10" y="174" class="label">ubisoft.com</text>
<rect x="180" y="158" width="323.68" height="22" fill="#4c78a8" rx="3"/>
<text x="511.68" y="174" class="value">115.47</text>
<text x="10" y="206" class="label">cdn.cloudflare.steamstatic.com</text>
<rect x="180" y="190" width="332.29" height="22" fill="#4c78a8" rx="3"/>
<text x="520.29" y="206" class="value">118.54</text>
<text x="10" y="238" class="label">battle.net</text>
<rect x="180" y="222" width="351.6" height="22" fill="#4c78a8" rx="3"/>
<text x="539.6" y="238" class="value">125.43</text>
<text x="10" y="270" class="label">blizzard.com</text>
<rect x="180" y="254" width="390.65" height="22" fill="#4c78a8" rx="3"/>
<text x="578.65" y="270" class="value">139.36</text>
<text x="10" y="302" class="label">unrealengine.com</text>
<rect x="180" y="286" width="396.62" height="22" fill="#4c78a8" rx="3"/>
<text x="584.62" y="302" class="value">141.49</text>
<text x="10" y="334" class="label">ea.com</text>
<rect x="180" y="318" width="409.54" height="22" fill="#4c78a8" rx="3"/>
<text x="597.54" y="334" class="value">146.10</text>
<text x="10" y="366" class="label">cdn.akamai.steamstatic.com</text>
<rect x="180" y="350" width="464.93" height="22" fill="#4c78a8" rx="3"/>
<text x="652.9300000000001" y="366" class="value">165.86</text>
<text x="10" y="398" class="label">origin.com</text>
<rect x="180" y="382" width="497.17" height="22" fill="#4c78a8" rx="3"/>
<text x="685.1700000000001" y="398" class="value">177.36</text>
<text x="10" y="430" class="label">epicgames.com</text>
<rect x="180" y="414" width="533.08" height="22" fill="#4c78a8" rx="3"/>
<text x="721.08" y="430" class="value">190.17</text>
<text x="10" y="462" class="label">fortnite.com</text>
<rect x="180" y="446" width="536.44" height="22" fill="#4c78a8" rx="3"/>
<text x="724.44" y="462" class="value">191.37</text>
<text x="10" y="494" class="label">store.akamai.steamstatic.com</text>
<rect x="180" y="478" width="580.0" height="22" fill="#4c78a8" rx="3"/>
<text x="768.0" y="494" class="value">206.91</text>
<line x1="180" y1="30" x2="180" y2="520" stroke="#ccc"/>
<line x1="180" y1="520" x2="760" y2="520" stroke="#ccc"/>
</svg>