<svg xmlns="http://www.w3.org/2000/svg" width="800" height="540">
<style> .label{font-family:DejaVu Sans,Verdana,Geneva,sans-serif;font-size:12px;fill:#333} .value{font-family:DejaVu Sans,Verdana,Geneva,sans-serif;font-size:12px;fill:#555} </style>
<text x="10" y="20" class="label">延迟柱状图（越低越好，Top 15），单位 ms</text>
<text x="10" y="46" class="label">rockstargames.com</text>
<rect x="180" y="30" width="347.3" height="22" fill="#4c78a8" rx="3"/>
<text x="535.3" y="46" class="value">137.58</text>
<text x="10" y="78" class="label">ubisoft.com</text>
<rect x="180" y="62" width="375.05" height="22" fill="#4c78a8" rx="3"/>
<text x="563.05" y="78" class="value">148.57</text>
<text x="10" y="110" class="label">community.akamai.steamstatic.com</text>
<rect x="180" y="94" width="381.96" height="22" fill="#4c78a8" rx="3"/>
<text x="569.96" y="110" class="value">151.31</text>
<text x="10" y="142" class="label">cdn.cloudflare.steamstatic.com</text>
<rect x="180" y="126" width="384.18" height="22" fill="#4c78a8" rx="3"/>
<text x="572.1800000000001" y="142" class="value">152.19</text>
<text x="10" y="174" class="label">cdn.akamai.steamstatic.com</text>
<rect x="180" y="158" width="410.08" height="22" fill="#4c78a8" rx="3"/>
<text x="598.0799999999999" y="174" class="value">162.45</text>
<text x="10" y="206" class="label">www.steamcommunity.com</text>
<rect x="180" y="190" width="475.52" height="22" fill="#4c78a8" rx="3"/>
<text x="663.52" y="206" class="value">188.37</text>
<text x="10" y="238" class="label">api.steampowered.com</text>
<rect x="180" y="222" width="490.64" height="22" fill="#4c78a8" rx="3"/>
<text x="678.64" y="238" class="value">194.36</text>
<text x="10" y="270" class="label">store.akamai.steamstatic.com</text>
<rect x="180" y="254" width="490.97" height="22" fill="#4c78a8" rx="3"/>
<text x="678.97" y="270" class="value">194.49</text>
<text x="10" y="302" class="label">origin.com</text>
<rect x="180" y="286" width="502.5" height="22" fill="#4c78a8" rx="3"/>
<text x="690.5" y="302" class="value">199.06</text>
<text x="10" y="334" class="label">eaassets-a.akamaihd.net</text>
<rect x="180" y="318" width="509.87" height="22" fill="#4c78a8" rx="3"/>
<text x="697.87" y="334" class="value">201.98</text>
<text x="10" y="366" class="label">ubi.com</text>
<rect x="180" y="350" width="523.33" height="22" fill="#4c78a8" rx="3"/>
<text x="711.33" y="366" class="value">207.31</text>
<text x="10" y="398" class="label">easyanticheat.net</text>
<rect x="180" y="382" width="545.67" height="22" fill="#4c78a8" rx="3"/>
<text x="733.67" y="398" class="value">216.16</text>
<text x="10" y="430" class="label">steam-chat.com</text>
<rect x="180" y="414" width="549.38" height="22" fill="#4c78a8" rx="3"/>
<text x="737.38" y="430" class="value">217.63</text>
<text x="10" y="462" class="label">blizzard.com</text>
<rect x="180" y="446" width="556.8" height="22" fill="#4c78a8" rx="3"/>
<text x="744.8" y="462" class="value">220.57</text>
<text x="10" y="494" class="label">steamcdn-a.akamaihd.net</text>
<rect x="180" y="478" width="580.0" height="22" fill="#4c78a8" rx="3"/>
<text x="768.0" y="494" class="value">229.76</text>
<line x1="180" y1="30" x2="180" y2="520" stroke="#ccc"/>
<line x1="180" y1="520" x2="760" y2="520" stroke="#ccc"/>
</svg>