<svg xmlns="http://www.w3.org/2000/svg" width="800" height="540">
<style> .label{font-family:DejaVu Sans,Verdana,Geneva,sans-serif;font-size:12px;fill:#333} .value{font-family:DejaVu Sans,Verdana,Geneva,sans-serif;font-size:12px;fill:#555} </style>
<text x="10" y="20" class="label">延迟柱状图（越低越好，Top 15），单位 ms</text>
<text x="10" y="46" class="label">eaassets-a.akamaihd.net</text>
<rect x="180" y="30" width="122.71" height="22" fill="#4c78a8" rx="3"/>
<text x="310.71" y="46" class="value">39.95</text>
<text x="10" y="78" class="label">ubisoft.com</text>
<rect x="180" y="62" width="309.47" height="22" fill="#4c78a8" rx="3"/>
<text x="497.47" y="78" class="value">100.75</text>
<text x="10" y="110" class="label">rockstargames.com</text>
<rect x="180" y="94" width="319.49" height="22" fill="#4c78a8" rx="3"/>
<text x="507.49" y="110" class="value">104.01</text>
<text x="10" y="142" class="label">origin.com</text>
<rect x="180" y="126" width="334.91" height="22" fill="#4c78a8" rx="3"/>
<text x="522.9100000000001" y="142" class="value">109.03</text>
<text x="10" y="174" class="label">community.akamai.steamstatic.com</text>
<rect x="180" y="158" width="348.42" height="22" fill="#4c78a8" rx="3"/>
<text x="536.4200000000001" y="174" class="value">113.43</text>
<text x="10" y="206" class="label">ea.com</text>
<rect x="180" y="190" width="380.28" height="22" fill="#4c78a8" rx="3"/>
<text x="568.28" y="206" class="value">123.80</text>
<text x="10" y="238" class="label">store.akamai.steamstatic.com</text>
<rect x="180" y="222" width="382.52" height="22" fill="#4c78a8" rx="3"/>
<text x="570.52" y="238" class="value">124.53</text>
<text x="10" y="270" class="label">ubi.com</text>
<rect x="180" y="254" width="382.95" height="22" fill="#4c78a8" rx="3"/>
<text x="570.95" y="270" class="value">124.67</text>
<text x="10" y="302" class="label">blizzard.com</text>
<rect x="180" y="286" width="420.27" height="22" fill="#4c78a8" rx="3"/>
<text x="608.27" y="302" class="value">136.82</text>
<text x="10" y="334" class="label">battle.net</text>
<rect x="180" y="318" width="439.1" height="22" fill="#4c78a8" rx="3"/>
<text x="627.1" y="334" class="value">142.95</text>
<text x="10" y="366" class="label">steamcdn-a.akamaihd.net</text>
<rect x="180" y="350" width="447.27" height="22" fill="#4c78a8" rx="3"/>
<text x="635.27" y="366" class="value">145.61</text>
<text x="10" y="398" class="label">socialclub.rockstargames.com</text>
<rect x="180" y="382" width="477.19" height="22" fill="#4c78a8" rx="3"/>
<text x="665.19" y="398" class="value">155.35</text>
<text x="10" y="430" class="label">cdn.cloudflare.steamstatic.com</text>
<rect x="180" y="414" width="500.72" height="22" fill="#4c78a8" rx="3"/>
<text x="688.72" y="430" class="value">163.01</text>
<text x="10" y="462" class="label">cdn.akamai.steamstatic.com</text>
<rect x="180" y="446" width="526.28" height="22" fill="#4c78a8" rx="3"/>
<text x="714.28" y="462" class="value">171.33</text>
<text x="10" y="494" class="label">static3.cdn.ubi.com</text>
<rect x="180" y="478" width="580.0" height="22" fill="#4c78a8" rx="3"/>
<text x="768.0" y="494" class="value">188.82</text>
<line x1="180" y1="30" x2="180" y2="520" stroke="#ccc"/>
<line x1="180" y1="520" x2="760" y2="520" stroke="#ccc"/>
</svg>