<svg xmlns="http://www.w3.org/2000/svg" width="800" height="540">
<style> .label{font-family:DejaVu Sans,Verdana,Geneva,sans-serif;font-size:12px;fill:#333} .value{font-family:DejaVu Sans,Verdana,Geneva,sans-serif;font-size:12px;fill:#555} </style>
<text x="10" y="20" class="label">延迟柱状图（越低越好，Top 15），单位 ms</text>
<text x="10" y="46" class="label">rockstargames.com</text>
<rect x="180" y="30" width="228.08" height="22" fill="#4c78a8" rx="3"/>
<text x="416.08000000000004" y="46" class="value">102.40</text>
<text x="10" y="78" class="label">ea.com</text>
<rect x="180" y="62" width="289.98" height="22" fill="#4c78a8" rx="3"/>
<text x="477.98" y="78" class="value">130.19</text>
<text x="10" y="110" class="label">cdn.cloudflare.steamstatic.com</text>
<rect x="180" y="94" width="290.38" height="22" fill="#4c78a8" rx="3"/>
<text x="478.38" y="110" class="value">130.37</text>
<text x="10" y="142" class="label">store.akamai.steamstatic.com</text>
<rect x="180" y="126" width="302.9" height="22" fill="#4c78a8" rx="3"/>
<text x="490.9" y="142" class="value">135.99</text>
<text x="10" y="174" class="label">ubisoft.com</text>
<rect x="180" y="158" width="307.31" height="22" fill="#4c78a8" rx="3"/>
<text x="495.31" y="174" class="value">137.97</text>
<text x="10" y="206" class="label">blizzard.com</text>
<rect x="180" y="190" width="318.93" height="22" fill="#4c78a8" rx="3"/>
<text x="506.93" y="206" class="value">143.19</text>
<text x="10" y="238" class="label">battle.net</text>
<rect x="180" y="222" width="347.33" height="22" fill="#4c78a8" rx="3"/>
<text x="535.3299999999999" y="238" class="value">155.94</text>
<text x="10" y="270" class="label">ubi.com</text>
<rect x="180" y="254" width="392.66" height="22" fill="#4c78a8" rx="3"/>
<text x="580.6600000000001" y="270" class="value">176.29</text>
<text x="10" y="302" class="label">easyanticheat.net</text>
<rect x="180" y="286" width="393.1" height="22" fill="#4c78a8" rx="3"/>
<text x="581.1" y="302" class="value">176.49</text>
<text x="10" y="334" class="label">community.akamai.steamstatic.com</text>
<rect x="180" y="318" width="426.76" height="22" fill="#4c78a8" rx="3"/>
<text x="614.76" y="334" class="value">191.60</text>
<text x="10" y="366" class="label">cdn.akamai.steamstatic.com</text>
<rect x="180" y="350" width="432.79" height="22" fill="#4c78a8" rx="3"/>
<text x="620.79" y="366" class="value">194.31</text>
<text x="10" y="398" class="label">static3.cdn.ubi.com</text>
<rect x="180" y="382" width="454.98" height="22" fill="#4c78a8" rx="3"/>
<text x="642.98" y="398" class="value">204.27</text>
<text x="10" y="430" class="label">socialclub.rockstargames.com</text>
<rect x="180" y="414" width="486.41" height="22" fill="#4c78a8" rx="3"/>
<text x="674.4100000000001" y="430" class="value">218.38</text>
<text x="10" y="462" class="label">fortnite.com</text>
<rect x="180" y="446" width="574.61" height="22" fill="#4c78a8" rx="3"/>
<text x="762.61" y="462" class="value">257.98</text>
<text x="10" y="494" class="label">origin.com</text>
<rect x="180" y="478" width="580.0" height="22" fill="#4c78a8" rx="3"/>
<text x="768.0" y="494" class="value">260.40</text>
<line x1="180" y1="30" x2="180" y2="520" stroke="#ccc"/>
<line x1="180" y1="520" x2="760" y2="520" stroke="#ccc"/>
</svg>