<svg xmlns="http://www.w3.org/2000/svg" width="800" height="540">
<style> .label{font-family:DejaVu Sans,Verdana,Geneva,sans-serif;font-size:12px;fill:#333} .value{font-family:DejaVu Sans,Verdana,Geneva,sans-serif;font-size:12px;fill:#555} </style>
<text x="10" y="20" class="label">延迟柱状图（越低越好，Top 15），单位 ms</text>
<text x="10" y="46" class="label">rockstargames.com</text>
<rect x="180" y="30" width="183.3" height="22" fill="#4c78a8" rx="3"/>
<text x="371.3" y="46" class="value">64.44</text>
<text x="10" y="78" class="label">socialclub.rockstargames.com</text>
<rect x="180" y="62" width="252.28" height="22" fill="#4c78a8" rx="3"/>
<text x="440.28" y="78" class="value">88.69</text>
<text x="10" y="110" class="label">blizzard.com</text>
<rect x="180" y="94" width="300.15" height="22" fill="#4c78a8" rx="3"/>
<text x="488.15" y="110" class="value">105.52</text>
<text x="10" y="142" class="label">ubi.com</text>
<rect x="180" y="126" width="332.44" height="22" fill="#4c78a8" rx="3"/>
<text x="520.44" y="142" class="value">116.87</text>
<text x="10" y="174" class="label">epicgames.com</text>
<rect x="180" y="158" width="356.62" height="22" fill="#4c78a8" rx="3"/>
<text x="544.62" y="174" class="value">125.37</text>
<text x="10" y="206" class="label">eaassets-a.akamaihd.net</text>
<rect x="180" y="190" width="377.38" height="22" fill="#4c78a8" rx="3"/>
<text x="565.38" y="206" class="value">132.67</text>
<text x="10" y="238" class="label">battle.net</text>
<rect x="180" y="222" width="378.46" height="22" fill="#4c78a8" rx="3"/>
<text x="566.46" y="238" class="value">133.05</text>
<text x="10" y="270" class="label">ea.com</text>
<rect x="180" y="254" width="452.93" height="22" fill="#4c78a8" rx="3"/>
<text x="640.9300000000001" y="270" class="value">159.23</text>
<text x="10" y="302" class="label">unrealengine.com</text>
<rect x="180" y="286" width="456.43" height="22" fill="#4c78a8" rx="3"/>
<text x="644.4300000000001" y="302" class="value">160.46</text>
<text x="10" y="334" class="label">www.steamcommunity.com</text>
<rect x="180" y="318" width="483.77" height="22" fill="#4c78a8" rx="3"/>
<text x="671.77" y="334" class="value">170.07</text>
<text x="10" y="366" class="label">ubisoft.com</text>
<rect x="180" y="350" width="487.78" height="22" fill="#4c78a8" rx="3"/>
<text x="675.78" y="366" class="value">171.48</text>
<text x="10" y="398" class="label">community.akamai.steamstatic.com</text>
<rect x="180" y="382" width="501.89" height="22" fill="#4c78a8" rx="3"/>
<text x="689.89" y="398" class="value">176.44</text>
<text x="10" y="430" class="label">fortnite.com</text>
<rect x="180" y="414" width="569.93" height="22" fill="#4c78a8" rx="3"/>
<text x="757.93" y="430" class="value">200.36</text>
<text x="10" y="462" class="label">store.akamai.steamstatic.com</text>
<rect x="180" y="446" width="572.83" height="22" fill="#4c78a8" rx="3"/>
<text x="760.83" y="462" class="value">201.38</text>
<text x="10" y="494" class="label">origin.com</text>
<rect x="180" y="478" width="580.0" height="22" fill="#4c78a8" rx="3"/>
<text x="768.0" y="494" class="value">203.90</text>
<line x1="180" y1="30" x2="180" y2="520" stroke="#ccc"/>
<line x1="180" y1="520" x2="760" y2="520" stroke="#ccc"/>
</svg>