<svg xmlns="http://www.w3.org/2000/svg" width="800" height="540">
<style> .label{font-family:DejaVu Sans,Verdana,Geneva,sans-serif;font-size:12px;fill:#333} .value{font-family:DejaVu Sans,Verdana,Geneva,sans-serif;font-size:12px;fill:#555} </style>
<text x="10" y="20" class="label">延迟柱状图（越低越好，Top 15），单位 ms</text>
<text x="10" y="46" class="label">rockstargames.com</text>
<rect x="180" y="30" width="67.71" height="22" fill="#4c78a8" rx="3"/>
<text x="255.70999999999998" y="46" class="value">31.59</text>
<text x="10" y="78" class="label">ea.com</text>
<rect x="180" y="62" width="169.63" height="22" fill="#4c78a8" rx="3"/>
<text x="357.63" y="78" class="value">79.14</text>
<text x="10" y="110" class="label">eaassets-a.akamaihd.net</text>
<rect x="180" y="94" width="175.72" height="22" fill="#4c78a8" rx="3"/>
<text x="363.72" y="110" class="value">81.98</text>
<text x="10" y="142" class="label">cdn.cloudflare.steamstatic.com</text>
<rect x="180" y="126" width="233.19" height="22" fill="#4c78a8" rx="3"/>
<text x="421.19" y="142" class="value">108.79</text>
<text x="10" y="174" class="label">ubisoft.com</text>
<rect x="180" y="158" width="272.95" height="22" fill="#4c78a8" rx="3"/>
<text x="460.95" y="174" class="value">127.34</text>
<text x="10" y="206" class="label">origin.com</text>
<rect x="180" y="190" width="284.72" height="22" fill="#4c78a8" rx="3"/>
<text x="472.72" y="206" class="value">132.83</text>
<text x="10" y="238" class="label">community.akamai.steamstatic.com</text>
<rect x="180" y="222" width="377.23" height="22" fill="#4c78a8" rx="3"/>
<text x="565.23" y="238" class="value">175.99</text>
<text x="10" y="270" class="label">store.akamai.steamstatic.com</text>
<rect x="180" y="254" width="395.3" height="22" fill="#4c78a8" rx="3"/>
<text x="583.3" y="270" class="value">184.42</text>
<text x="10" y="302" class="label">steamcdn-a.akamaihd.net</text>
<rect x="180" y="286" width="422.65" height="22" fill="#4c78a8" rx="3"/>
<text x="610.65" y="302" class="value">197.18</text>
<text x="10" y="334" class="label">cdn.akamai.steamstatic.com</text>
<rect x="180" y="318" width="492.53" height="22" fill="#4c78a8" rx="3"/>
<text x="680.53" y="334" class="value">229.78</text>
<text x="10" y="366" class="label">launcher-public-service-prod06.ol.epicgames.com</text>
<rect x="180" y="350" width="512.44" height="22" fill="#4c78a8" rx="3"/>
<text x="700.44" y="366" class="value">239.07</text>
<text x="10" y="398" class="label">www.steamcommunity.com</text>
<rect x="180" y="382" width="514.69" height="22" fill="#4c78a8" rx="3"/>
<text x="702.69" y="398" class="value">240.12</text>
<text x="10" y="430" class="label">api.steampowered.com</text>
<rect x="180" y="414" width="536.55" height="22" fill="#4c78a8" rx="3"/>
<text x="724.55" y="430" class="value">250.32</text>
<text x="10" y="462" class="label">steam-chat.com</text>
<rect x="180" y="446" width="568.53" height="22" fill="#4c78a8" rx="3"/>
<text x="756.53" y="462" class="value">265.24</text>
<text x="10" y="494" class="label">easyanticheat.net</text>
<rect x="180" y="478" width="580.0" height="22" fill="#4c78a8" rx="3"/>
<text x="768.0" y="494" class="value">270.59</text>
<line x1="180" y1="30" x2="180" y2="520" stroke="#ccc"/>
<line x1="180" y1="520" x2="760" y2="520" stroke="#ccc"/>
</svg>