<svg xmlns="http://www.w3.org/2000/svg" width="800" height="540">
<style> .label{font-family:DejaVu Sans,Verdana,Geneva,sans-serif;font-size:12px;fill:#333} .value{font-family:DejaVu Sans,Verdana,Geneva,sans-serif;font-size:12px;fill:#555} </style>
<text x="10" y="20" class="label">延迟柱状图（越低越好，Top 15），单位 ms</text>
<text x="10" y="46" class="label">rockstargames.com</text>
<rect x="180" y="30" width="106.11" height="22" fill="#4c78a8" rx="3"/>
<text x="294.11" y="46" class="value">46.66</text>
<text x="10" y="78" class="label">ubisoft.com</text>
<rect x="180" y="62" width="175.41" height="22" fill="#4c78a8" rx="3"/>
<text x="363.40999999999997" y="78" class="value">77.13</text>
<text x="10" y="110" class="label">community.akamai.steamstatic.com</text>
<rect x="180" y="94" width="230.83" height="22" fill="#4c78a8" rx="3"/>
<text x="418.83000000000004" y="110" class="value">101.50</text>
<text x="10" y="142" class="label">store.akamai.steamstatic.com</text>
<rect x="180" y="126" width="233.9" height="22" fill="#4c78a8" rx="3"/>
<text x="421.9" y="142" class="value">102.85</text>
<text x="10" y="174" class="label">ea.com</text>
<rect x="180" y="158" width="257.25" height="22" fill="#4c78a8" rx="3"/>
<text x="445.25" y="174" class="value">113.12</text>
<text x="10" y="206" class="label">eaassets-a.akamaihd.net</text>
<rect x="180" y="190" width="272.31" height="22" fill="#4c78a8" rx="3"/>
<text x="460.31" y="206" class="value">119.74</text>
<text x="10" y="238" class="label">origin.com</text>
<rect x="180" y="222" width="324.54" height="22" fill="#4c78a8" rx="3"/>
<text x="512.54" y="238" class="value">142.71</text>
<text x="10" y="270" class="label">steamcdn-a.akamaihd.net</text>
<rect x="180" y="254" width="336.21" height="22" fill="#4c78a8" rx="3"/>
<text x="524.21" y="270" class="value">147.84</text>
<text x="10" y="302" class="label">cdn.cloudflare.steamstatic.com</text>
<rect x="180" y="286" width="337.64" height="22" fill="#4c78a8" rx="3"/>
<text x="525.64" y="302" class="value">148.47</text>
<text x="10" y="334" class="label">cdn.akamai.steamstatic.com</text>
<rect x="180" y="318" width="432.43" height="22" fill="#4c78a8" rx="3"/>
<text x="620.4300000000001" y="334" class="value">190.15</text>
<text x="10" y="366" class="label">easyanticheat.net</text>
<rect x="180" y="350" width="439.91" height="22" fill="#4c78a8" rx="3"/>
<text x="627.9100000000001" y="366" class="value">193.44</text>
<text x="10" y="398" class="label">www.steamcommunity.com</text>
<rect x="180" y="382" width="487.67" height="22" fill="#4c78a8" rx="3"/>
<text x="675.6700000000001" y="398" class="value">214.44</text>
<text x="10" y="430" class="label">steam-chat.com</text>
<rect x="180" y="414" width="506.52" height="22" fill="#4c78a8" rx="3"/>
<text x="694.52" y="430" class="value">222.73</text>
<text x="10" y="462" class="label">api.steampowered.com</text>
<rect x="180" y="446" width="509.91" height="22" fill="#4c78a8" rx="3"/>
<text x="697.9100000000001" y="462" class="value">224.22</text>
<text x="10" y="494" class="label">launcher-public-service-prod06.ol.epicgames.com</text>
<rect x="180" y="478" width="580.0" height="22" fill="#4c78a8" rx="3"/>
<text x="768.0" y="494" class="value">255.04</text>
<line x1="180" y1="30" x2="180" y2="520" stroke="#ccc"/>
<line x1="180" y1="520" x2="760" y2="520" stroke="#ccc"/>
</svg>