<svg xmlns="http://www.w3.org/2000/svg" width="800" height="540">
<style> .label{font-family:DejaVu Sans,Verdana,Geneva,sans-serif;font-size:12px;fill:#333} .value{font-family:DejaVu Sans,Verdana,Geneva,sans-serif;font-size:12px;fill:#555} </style>
<text x="10" y="20" class="label">延迟柱状图（越低越好，Top 15），单位 ms</text>
<text x="10" y="46" class="label">www.steamcommunity.com</text>
<rect x="180" y="30" width="149.1" height="22" fill="#4c78a8" rx="3"/>
<text x="337.1" y="46" class="value">41.98</text>
<text x="10" y="78" class="label">eaassets-a.akamaihd.net</text>
<rect x="180" y="62" width="182.88" height="22" fill="#4c78a8" rx="3"/>
<text x="370.88" y="78" class="value">51.49</text>
<text x="10" y="110" class="label">unrealengine.com</text>
<rect x="180" y="94" width="260.2" height="22" fill="#4c78a8" rx="3"/>
<text x="448.2" y="110" class="value">73.26</text>
<text x="10" y="142" class="label">rockstargames.com</text>
<rect x="180" y="126" width="274.91" height="22" fill="#4c78a8" rx="3"/>
<text x="462.91" y="142" class="value">77.40</text>
<text x="10" y="174" class="label">socialclub.rockstargames.com</text>
<rect x="180" y="158" width="280.48" height="22" fill="#4c78a8" rx="3"/>
<text x="468.48" y="174" class="value">78.97</text>
<text x="10" y="206" class="label">ea.com</text>
<rect x="180" y="190" width="306.48" height="22" fill="#4c78a8" rx="3"/>
<text x="494.48" y="206" class="value">86.29</text>
<text x="10" y="238" class="label">battle.net</text>
<rect x="180" y="222" width="308.9" height="22" fill="#4c78a8" rx="3"/>
<text x="496.9" y="238" class="value">86.97</text>
<text x="10" y="270" class="label">blizzard.com</text>
<rect x="180" y="254" width="356.77" height="22" fill="#4c78a8" rx="3"/>
<text x="544.77" y="270" class="value">100.45</text>
<text x="10" y="302" class="label">epicgames.com</text>
<rect x="180" y="286" width="457.39" height="22" fill="#4c78a8" rx="3"/>
<text x="645.39" y="302" class="value">128.78</text>
<text x="10" y="334" class="label">ubisoft.com</text>
<rect x="180" y="318" width="464.53" height="22" fill="#4c78a8" rx="3"/>
<text x="652.53" y="334" class="value">130.79</text>
<text x="10" y="366" class="label">origin.com</text>
<rect x="180" y="350" width="469.93" height="22" fill="#4c78a8" rx="3"/>
<text x="657.9300000000001" y="366" class="value">132.31</text>
<text x="10" y="398" class="label">ubi.com</text>
<rect x="180" y="382" width="509.11" height="22" fill="#4c78a8" rx="3"/>
<text x="697.11" y="398" class="value">143.34</text>
<text x="10" y="430" class="label">cdn.akamai.steamstatic.com</text>
<rect x="180" y="414" width="544.73" height="22" fill="#4c78a8" rx="3"/>
<text x="732.73" y="430" class="value">153.37</text>
<text x="10" y="462" class="label">store.akamai.steamstatic.com</text>
<rect x="180" y="446" width="576.87" height="22" fill="#4c78a8" rx="3"/>
<text x="764.87" y="462" class="value">162.42</text>
<text x="10" y="494" class="label">fortnite.com</text>
<rect x="180" y="478" width="580.0" height="22" fill="#4c78a8" rx="3"/>
<text x="768.0" y="494" class="value">163.30</text>
<line x1="180" y1="30" x2="180" y2="520" stroke="#ccc"/>
<line x1="180" y1="520" x2="760" y2="520" stroke="#ccc"/>
</svg>