<svg xmlns="http://www.w3.org/2000/svg" width="800" height="540">
<style> .label{font-family:DejaVu Sans,Verdana,Geneva,sans-serif;font-size:12px;fill:#333} .value{font-family:DejaVu Sans,Verdana,Geneva,sans-serif;font-size:12px;fill:#555} </style>
<text x="10" y="20" class="label">延迟柱状图（越低越好，Top 15），单位 ms</text>
<text x="10" y="46" class="label">rockstargames.com</text>
<rect x="180" y="30" width="135.22" height="22" fill="#4c78a8" rx="3"/>
<text x="323.22" y="46" class="value">46.65</text>
<text x="10" y="78" class="label">eaassets-a.akamaihd.net</text>
<rect x="180" y="62" width="161.6" height="22" fill="#4c78a8" rx="3"/>
<text x="349.6" y="78" class="value">55.75</text>
<text x="10" y="110" class="label">socialclub.rockstargames.com</text>
<rect x="180" y="94" width="220.3" height="22" fill="#4c78a8" rx="3"/>
<text x="408.3" y="110" class="value">76.00</text>
<text x="10" y="142" class="label">battle.net</text>
<rect x="180" y="126" width="288.36" height="22" fill="#4c78a8" rx="3"/>
<text x="476.36" y="142" class="value">99.48</text>
<text x="10" y="174" class="label">blizzard.com</text>
<rect x="180" y="158" width="304.51" height="22" fill="#4c78a8" rx="3"/>
<text x="492.51" y="174" class="value">105.05</text>
<text x="10" y="206" class="label">unrealengine.com</text>
<rect x="180" y="190" width="338.54" height="22" fill="#4c78a8" rx="3"/>
<text x="526.54" y="206" class="value">116.79</text>
<text x="10" y="238" class="label">origin.com</text>
<rect x="180" y="222" width="359.64" height="22" fill="#4c78a8" rx="3"/>
<text x="547.64" y="238" class="value">124.07</text>
<text x="10" y="270" class="label">ea.com</text>
<rect x="180" y="254" width="365.32" height="22" fill="#4c78a8" rx="3"/>
<text x="553.3199999999999" y="270" class="value">126.03</text>
<text x="10" y="302" class="label">fortnite.com</text>
<rect x="180" y="286" width="397.99" height="22" fill="#4c78a8" rx="3"/>
<text x="585.99" y="302" class="value">137.30</text>
<text x="10" y="334" class="label">steamcdn-a.akamaihd.net</text>
<rect x="180" y="318" width="404.51" height="22" fill="#4c78a8" rx="3"/>
<text x="592.51" y="334" class="value">139.55</text>
<text x="10" y="366" class="label">ubi.com</text>
<rect x="180" y="350" width="428.14" height="22" fill="#4c78a8" rx="3"/>
<text x="616.14" y="366" class="value">147.70</text>
<text x="10" y="398" class="label">store.akamai.steamstatic.com</text>
<rect x="180" y="382" width="431.21" height="22" fill="#4c78a8" rx="3"/>
<text x="619.21" y="398" class="value">148.76</text>
<text x="10" y="430" class="label">easyanticheat.net</text>
<rect x="180" y="414" width="519.5" height="22" fill="#4c78a8" rx="3"/>
<text x="707.5" y="430" class="value">179.22</text>
<text x="10" y="462" class="label">community.akamai.steamstatic.com</text>
<rect x="180" y="446" width="544.81" height="22" fill="#4c78a8" rx="3"/>
<text x="732.81" y="462" class="value">187.95</text>
<text x="10" y="494" class="label">epicgames.com</text>
<rect x="180" y="478" width="580.0" height="22" fill="#4c78a8" rx="3"/>
<text x="768.0" y="494" class="value">200.09</text>
<line x1="180" y1="30" x2="180" y2="520" stroke="#ccc"/>
<line x1="180" y1="520" x2="760" y2="520" stroke="#ccc"/>
</svg>