<svg xmlns="http://www.w3.org/2000/svg" width="800" height="540">
<style> .label{font-family:DejaVu Sans,Verdana,Geneva,sans-serif;font-size:12px;fill:#333} .value{font-family:DejaVu Sans,Verdana,Geneva,sans-serif;font-size:12px;fill:#555} </style>
<text x="10" y="20" class="label">延迟柱状图（越低越好，Top 15），单位 ms</text>
<text x="10" y="46" class="label">eaassets-a.akamaihd.net</text>
<rect x="180" y="30" width="92.6" height="22" fill="#4c78a8" rx="3"/>
<text x="280.6" y="46" class="value">43.41</text>
<text x="10" y="78" class="label">ubisoft.com</text>
<rect x="180" y="62" width="123.64" height="22" fill="#4c78a8" rx="3"/>
<text x="311.64" y="78" class="value">57.96</text>
<text x="10" y="110" class="label">ea.com</text>
<rect x="180" y="94" width="130.23" height="22" fill="#4c78a8" rx="3"/>
<text x="318.23" y="110" class="value">61.05</text>
<text x="10" y="142" class="label">community.akamai.steamstatic.com</text>
<rect x="180" y="126" width="177.33" height="22" fill="#4c78a8" rx="3"/>
<text x="365.33000000000004" y="142" class="value">83.13</text>
<text x="10" y="174" class="label">rockstargames.com</text>
<rect x="180" y="158" width="181.87" height="22" fill="#4c78a8" rx="3"/>
<text x="369.87" y="174" class="value">85.26</text>
<text x="10" y="206" class="label">cdn.cloudflare.steamstatic.com</text>
<rect x="180" y="190" width="319.78" height="22" fill="#4c78a8" rx="3"/>
<text x="507.78" y="206" class="value">149.91</text>
<text x="10" y="238" class="label">origin.com</text>
<rect x="180" y="222" width="325.11" height="22" fill="#4c78a8" rx="3"/>
<text x="513.11" y="238" class="value">152.41</text>
<text x="10" y="270" class="label">easyanticheat.net</text>
<rect x="180" y="254" width="334.45" height="22" fill="#4c78a8" rx="3"/>
<text x="522.45" y="270" class="value">156.79</text>
<text x="10" y="302" class="label">store.akamai.steamstatic.com</text>
<rect x="180" y="286" width="372.1" height="22" fill="#4c78a8" rx="3"/>
<text x="560.1" y="302" class="value">174.44</text>
<text x="10" y="334" class="label">steamcdn-a.akamaihd.net</text>
<rect x="180" y="318" width="422.81" height="22" fill="#4c78a8" rx="3"/>
<text x="610.81" y="334" class="value">198.21</text>
<text x="10" y="366" class="label">cdn.akamai.steamstatic.com</text>
<rect x="180" y="350" width="474.64" height="22" fill="#4c78a8" rx="3"/>
<text x="662.64" y="366" class="value">222.51</text>
<text x="10" y="398" class="label">steam-chat.com</text>
<rect x="180" y="382" width="492.43" height="22" fill="#4c78a8" rx="3"/>
<text x="680.4300000000001" y="398" class="value">230.85</text>
<text x="10" y="430" class="label">www.steamcommunity.com</text>
<rect x="180" y="414" width="550.82" height="22" fill="#4c78a8" rx="3"/>
<text x="738.82" y="430" class="value">258.22</text>
<text x="10" y="462" class="label">api.steampowered.com</text>
<rect x="180" y="446" width="565.22" height="22" fill="#4c78a8" rx="3"/>
<text x="753.22" y="462" class="value">264.97</text>
<text x="10" y="494" class="label">launcher-public-service-prod06.ol.epicgames.com</text>
<rect x="180" y="478" width="580.0" height="22" fill="#4c78a8" rx="3"/>
<text x="768.0" y="494" class="value">271.90</text>
<line x1="180" y1="30" x2="180" y2="520" stroke="#ccc"/>
<line x1="180" y1="520" x2="760" y2="520" stroke="#ccc"/>
</svg>