<svg xmlns="http://www.w3.org/2000/svg" width="800" height="540">
<style> .label{font-family:DejaVu Sans,Verdana,Geneva,sans-serif;font-size:12px;fill:#333} .value{font-family:DejaVu Sans,Verdana,Geneva,sans-serif;font-size:12px;fill:#555} </style>
<text x="10" y="20" class="label">延迟柱状图（越低越好，Top 15），单位 ms</text>
<text x="10" y="46" class="label">eaassets-a.akamaihd.net</text>
<rect x="180" y="30" width="175.95" height="22" fill="#4c78a8" rx="3"/>
<text x="363.95" y="46" class="value">67.35</text>
<text x="10" y="78" class="label">ubi.com</text>
<rect x="180" y="62" width="189.59" height="22" fill="#4c78a8" rx="3"/>
<text x="377.59000000000003" y="78" class="value">72.57</text>
<text x="10" y="110" class="label">rockstargames.com</text>
<rect x="180" y="94" width="197.66" height="22" fill="#4c78a8" rx="3"/>
<text x="385.65999999999997" y="110" class="value">75.66</text>
<text x="10" y="142" class="label">blizzard.com</text>
<rect x="180" y="126" width="239.38" height="22" fill="#4c78a8" rx="3"/>
<text x="427.38" y="142" class="value">91.63</text>
<text x="10" y="174" class="label">socialclub.rockstargames.com</text>
<rect x="180" y="158" width="240.85" height="22" fill="#4c78a8" rx="3"/>
<text x="428.85" y="174" class="value">92.19</text>
<text x="10" y="206" class="label">ea.com</text>
<rect x="180" y="190" width="249.28" height="22" fill="#4c78a8" rx="3"/>
<text x="437.28" y="206" class="value">95.42</text>
<text x="10" y="238" class="label">ubisoft.com</text>
<rect x="180" y="222" width="259.47" height="22" fill="#4c78a8" rx="3"/>
<text x="447.47" y="238" class="value">99.32</text>
<text x="10" y="270" class="label">battle.net</text>
<rect x="180" y="254" width="267.99" height="22" fill="#4c78a8" rx="3"/>
<text x="455.99" y="270" class="value">102.58</text>
<text x="10" y="302" class="label">static3.cdn.ubi.com</text>
<rect x="180" y="286" width="396.24" height="22" fill="#4c78a8" rx="3"/>
<text x="584.24" y="302" class="value">151.67</text>
<text x="10" y="334" class="label">steamcdn-a.akamaihd.net</text>
<rect x="180" y="318" width="418.0" height="22" fill="#4c78a8" rx="3"/>
<text x="606.0" y="334" class="value">160.00</text>
<text x="10" y="366" class="label">store.akamai.steamstatic.com</text>
<rect x="180" y="350" width="454.42" height="22" fill="#4c78a8" rx="3"/>
<text x="642.4200000000001" y="366" class="value">173.94</text>
<text x="10" y="398" class="label">unrealengine.com</text>
<rect x="180" y="382" width="499.12" height="22" fill="#4c78a8" rx="3"/>
<text x="687.12" y="398" class="value">191.05</text>
<text x="10" y="430" class="label">epicgames.com</text>
<rect x="180" y="414" width="544.86" height="22" fill="#4c78a8" rx="3"/>
<text x="732.86" y="430" class="value">208.56</text>
<text x="10" y="462" class="label">cdn.cloudflare.steamstatic.com</text>
<rect x="180" y="446" width="570.54" height="22" fill="#4c78a8" rx="3"/>
<text x="758.54" y="462" class="value">218.39</text>
<text x="10" y="494" class="label">cdn.akamai.steamstatic.com</text>
<rect x="180" y="478" width="580.0" height="22" fill="#4c78a8" rx="3"/>
<text x="768.0" y="494" class="value">222.01</text>
<line x1="180" y1="30" x2="180" y2="520" stroke="#ccc"/>
<line x1="180" y1="520" x2="760" y2="520" stroke="#ccc"/>
</svg>