<svg xmlns="http://www.w3.org/2000/svg" width="800" height="540">
<style> .label{font-family:DejaVu Sans,Verdana,Geneva,sans-serif;font-size:12px;fill:#333} .value{font-family:DejaVu Sans,Verdana,Geneva,sans-serif;font-size:12px;fill:#555} </style>
<text x="10" y="20" class="label">延迟柱状图（越低越好，Top 15），单位 ms</text>
<text x="10" y="46" class="label">rockstargames.com</text>
<rect x="180" y="30" width="272.54" height="22" fill="#4c78a8" rx="3"/>
<text x="460.54" y="46" class="value">120.18</text>
<text x="10" y="78" class="label">ubisoft.com</text>
<rect x="180" y="62" width="310.3" height="22" fill="#4c78a8" rx="3"/>
<text x="498.3" y="78" class="value">136.83</text>
<text x="10" y="110" class="label">eaassets-a.akamaihd.net</text>
<rect x="180" y="94" width="334.63" height="22" fill="#4c78a8" rx="3"/>
<text x="522.63" y="110" class="value">147.56</text>
<text x="10" y="142" class="label">store.akamai.steamstatic.com</text>
<rect x="180" y="126" width="367.19" height="22" fill="#4c78a8" rx="3"/>
<text x="555.19" y="142" class="value">161.92</text>
<text x="10" y="174" class="label">easyanticheat.net</text>
<rect x="180" y="158" width="381.1" height="22" fill="#4c78a8" rx="3"/>
<text x="569.1" y="174" class="value">168.05</text>
<text x="10" y="206" class="label">community.akamai.steamstatic.com</text>
<rect x="180" y="190" width="403.68" height="22" fill="#4c78a8" rx="3"/>
<text x="591.6800000000001" y="206" class="value">178.01</text>
<text x="10" y="238" class="label">battle.net</text>
<rect x="180" y="222" width="411.85" height="22" fill="#4c78a8" rx="3"/>
<text x="599.85" y="238" class="value">181.61</text>
<text x="10" y="270" class="label">origin.com</text>
<rect x="180" y="254" width="413.12" height="22" fill="#4c78a8" rx="3"/>
<text x="601.12" y="270" class="value">182.17</text>
<text x="10" y="302" class="label">blizzard.com</text>
<rect x="180" y="286" width="425.02" height="22" fill="#4c78a8" rx="3"/>
<text x="613.02" y="302" class="value">187.42</text>
<text x="10" y="334" class="label">cdn.cloudflare.steamstatic.com</text>
<rect x="180" y="318" width="435.05" height="22" fill="#4c78a8" rx="3"/>
<text x="623.05" y="334" class="value">191.84</text>
<text x="10" y="366" class="label">steamcdn-a.akamaihd.net</text>
<rect x="180" y="350" width="459.83" height="22" fill="#4c78a8" rx="3"/>
<text x="647.8299999999999" y="366" class="value">202.77</text>
<text x="10" y="398" class="label">steam-chat.com</text>
<rect x="180" y="382" width="540.41" height="22" fill="#4c78a8" rx="3"/>
<text x="728.41" y="398" class="value">238.30</text>
<text x="10" y="430" class="label">ubi.com</text>
<rect x="180" y="414" width="551.88" height="22" fill="#4c78a8" rx="3"/>
<text x="739.88" y="430" class="value">243.36</text>
<text x="10" y="462" class="label">unrealengine.com</text>
<rect x="180" y="446" width="563.08" height="22" fill="#4c78a8" rx="3"/>
<text x="751.08" y="462" class="value">248.30</text>
<text x="10" y="494" class="label">api.steampowered.com</text>
<rect x="180" y="478" width="580.0" height="22" fill="#4c78a8" rx="3"/>
<text x="768.0" y="494" class="value">255.76</text>
<line x1="180" y1="30" x2="180" y2="520" stroke="#ccc"/>
<line x1="180" y1="520" x2="760" y2="520" stroke="#ccc"/>
</svg>