<svg xmlns="http://www.w3.org/2000/svg" width="800" height="540">
<style> .label{font-family:DejaVu Sans,Verdana,Geneva,sans-serif;font-size:12px;fill:#333} .value{font-family:DejaVu Sans,Verdana,Geneva,sans-serif;font-size:12px;fill:#555} </style>
<text x="10" y="20" class="label">延迟柱状图（越低越好，Top 15），单位 ms</text>
<text x="10" y="46" class="label">rockstargames.com</text>
<rect x="180" y="30" width="206.08" height="22" fill="#4c78a8" rx="3"/>
<text x="394.08000000000004" y="46" class="value">92.83</text>
<text x="10" y="78" class="label">easyanticheat.net</text>
<rect x="180" y="62" width="303.11" height="22" fill="#4c78a8" rx="3"/>
<text x="491.11" y="78" class="value">136.54</text>
<text x="10" y="110" class="label">eaassets-a.akamaihd.net</text>
<rect x="180" y="94" width="310.86" height="22" fill="#4c78a8" rx="3"/>
<text x="498.86" y="110" class="value">140.03</text>
<text x="10" y="142" class="label">ubisoft.com</text>
<rect x="180" y="126" width="353.26" height="22" fill="#4c78a8" rx="3"/>
<text x="541.26" y="142" class="value">159.13</text>
<text x="10" y="174" class="label">store.akamai.steamstatic.com</text>
<rect x="180" y="158" width="359.25" height="22" fill="#4c78a8" rx="3"/>
<text x="547.25" y="174" class="value">161.83</text>
<text x="10" y="206" class="label">battle.net</text>
<rect x="180" y="190" width="389.44" height="22" fill="#4c78a8" rx="3"/>
<text x="577.44" y="206" class="value">175.43</text>
<text x="10" y="238" class="label">blizzard.com</text>
<rect x="180" y="222" width="415.13" height="22" fill="#4c78a8" rx="3"/>
<text x="603.13" y="238" class="value">187.00</text>
<text x="10" y="270" class="label">ea.com</text>
<rect x="180" y="254" width="417.86" height="22" fill="#4c78a8" rx="3"/>
<text x="605.86" y="270" class="value">188.23</text>
<text x="10" y="302" class="label">steamcdn-a.akamaihd.net</text>
<rect x="180" y="286" width="421.01" height="22" fill="#4c78a8" rx="3"/>
<text x="609.01" y="302" class="value">189.65</text>
<text x="10" y="334" class="label">ubi.com</text>
<rect x="180" y="318" width="421.92" height="22" fill="#4c78a8" rx="3"/>
<text x="609.9200000000001" y="334" class="value">190.06</text>
<text x="10" y="366" class="label">epicgames.com</text>
<rect x="180" y="350" width="453.42" height="22" fill="#4c78a8" rx="3"/>
<text x="641.4200000000001" y="366" class="value">204.25</text>
<text x="10" y="398" class="label">socialclub.rockstargames.com</text>
<rect x="180" y="382" width="484.83" height="22" fill="#4c78a8" rx="3"/>
<text x="672.8299999999999" y="398" class="value">218.40</text>
<text x="10" y="430" class="label">fortnite.com</text>
<rect x="180" y="414" width="497.26" height="22" fill="#4c78a8" rx="3"/>
<text x="685.26" y="430" class="value">224.00</text>
<text x="10" y="462" class="label">launcher-public-service-prod06.ol.epicgames.com</text>
<rect x="180" y="446" width="559.22" height="22" fill="#4c78a8" rx="3"/>
<text x="747.22" y="462" class="value">251.91</text>
<text x="10" y="494" class="label">cdn.akamai.steamstatic.com</text>
<rect x="180" y="478" width="580.0" height="22" fill="#4c78a8" rx="3"/>
<text x="768.0" y="494" class="value">261.27</text>
<line x1="180" y1="30" x2="180" y2="520" stroke="#ccc"/>
<line x1="180" y1="520" x2="760" y2="520" stroke="#ccc"/>
</svg>