<svg xmlns="http://www.w3.org/2000/svg" width="800" height="540">
<style> .label{font-family:DejaVu Sans,Verdana,Geneva,sans-serif;font-size:12px;fill:#333} .value{font-family:DejaVu Sans,Verdana,Geneva,sans-serif;font-size:12px;fill:#555} </style>
<text x="10" y="20" class="label">延迟柱状图（越低越好，Top 15），单位 ms</text>
<text x="10" y="46" class="label">ea.com</text>
<rect x="180" y="30" width="204.23" height="22" fill="#4c78a8" rx="3"/>
<text x="392.23" y="46" class="value">79.75</text>
<text x="10" y="78" class="label">rockstargames.com</text>
<rect x="180" y="62" width="230.46" height="22" fill="#4c78a8" rx="3"/>
<text x="418.46000000000004" y="78" class="value">89.99</text>
<text x="10" y="110" class="label">socialclub.rockstargames.com</text>
<rect x="180" y="94" width="360.25" height="22" fill="#4c78a8" rx="3"/>
<text x="548.25" y="110" class="value">140.67</text>
<text x="10" y="142" class="label">blizzard.com</text>
<rect x="180" y="126" width="371.36" height="22" fill="#4c78a8" rx="3"/>
<text x="559.36" y="142" class="value">145.01</text>
<text x="10" y="174" class="label">battle.net</text>
<rect x="180" y="158" width="388.65" height="22" fill="#4c78a8" rx="3"/>
<text x="576.65" y="174" class="value">151.76</text>
<text x="10" y="206" class="label">ubi.com</text>
<rect x="180" y="190" width="396.94" height="22" fill="#4c78a8" rx="3"/>
<text x="584.94" y="206" class="value">155.00</text>
<text x="10" y="238" class="label">origin.com</text>
<rect x="180" y="222" width="403.4" height="22" fill="#4c78a8" rx="3"/>
<text x="591.4" y="238" class="value">157.52</text>
<text x="10" y="270" class="label">easyanticheat.net</text>
<rect x="180" y="254" width="432.39" height="22" fill="#4c78a8" rx="3"/>
<text x="620.39" y="270" class="value">168.84</text>
<text x="10" y="302" class="label">cdn.cloudflare.steamstatic.com</text>
<rect x="180" y="286" width="440.69" height="22" fill="#4c78a8" rx="3"/>
<text x="628.69" y="302" class="value">172.08</text>
<text x="10" y="334" class="label">community.akamai.steamstatic.com</text>
<rect x="180" y="318" width="486.27" height="22" fill="#4c78a8" rx="3"/>
<text x="674.27" y="334" class="value">189.88</text>
<text x="10" y="366" class="label">ubisoft.com</text>
<rect x="180" y="350" width="498.51" height="22" fill="#4c78a8" rx="3"/>
<text x="686.51" y="366" class="value">194.66</text>
<text x="10" y="398" class="label">api.steampowered.com</text>
<rect x="180" y="382" width="525.81" height="22" fill="#4c78a8" rx="3"/>
<text x="713.81" y="398" class="value">205.32</text>
<text x="10" y="430" class="label">eaassets-a.akamaihd.net</text>
<rect x="180" y="414" width="550.34" height="22" fill="#4c78a8" rx="3"/>
<text x="738.34" y="430" class="value">214.90</text>
<text x="10" y="462" class="label">store.akamai.steamstatic.com</text>
<rect x="180" y="446" width="562.3" height="22" fill="#4c78a8" rx="3"/>
<text x="750.3" y="462" class="value">219.57</text>
<text x="10" y="494" class="label">fortnite.com</text>
<rect x="180" y="478" width="580.0" height="22" fill="#4c78a8" rx="3"/>
<text x="768.0" y="494" class="value">226.48</text>
<line x1="180" y1="30" x2="180" y2="520" stroke="#ccc"/>
<line x1="180" y1="520" x2="760" y2="520" stroke="#ccc"/>
</svg>