<svg xmlns="http://www.w3.org/2000/svg" width="800" height="540">
<style> .label{font-family:DejaVu Sans,Verdana,Geneva,sans-serif;font-size:12px;fill:#333} .value{font-family:DejaVu Sans,Verdana,Geneva,sans-serif;font-size:12px;fill:#555} </style>
<text x="10" y="20" class="label">延迟柱状图（越低越好，Top 15），单位 ms</text>
<text x="10" y="46" class="label">rockstargames.com</text>
<rect x="180" y="30" width="134.08" height="22" fill="#4c78a8" rx="3"/>
<text x="322.08000000000004" y="46" class="value">49.75</text>
<text x="10" y="78" class="label">eaassets-a.akamaihd.net</text>
<rect x="180" y="62" width="225.63" height="22" fill="#4c78a8" rx="3"/>
<text x="413.63" y="78" class="value">83.72</text>
<text x="10" y="110" class="label">ea.com</text>
<rect x="180" y="94" width="294.92" height="22" fill="#4c78a8" rx="3"/>
<text x="482.92" y="110" class="value">109.43</text>
<text x="10" y="142" class="label">socialclub.rockstargames.com</text>
<rect x="180" y="126" width="302.6" height="22" fill="#4c78a8" rx="3"/>
<text x="490.6" y="142" class="value">112.28</text>
<text x="10" y="174" class="label">blizzard.com</text>
<rect x="180" y="158" width="325.78" height="22" fill="#4c78a8" rx="3"/>
<text x="513.78" y="174" class="value">120.88</text>
<text x="10" y="206" class="label">battle.net</text>
<rect x="180" y="190" width="339.09" height="22" fill="#4c78a8" rx="3"/>
<text x="527.0899999999999" y="206" class="value">125.82</text>
<text x="10" y="238" class="label">ubisoft.com</text>
<rect x="180" y="222" width="359.17" height="22" fill="#4c78a8" rx="3"/>
<text x="547.1700000000001" y="238" class="value">133.27</text>
<text x="10" y="270" class="label">ubi.com</text>
<rect x="180" y="254" width="390.0" height="22" fill="#4c78a8" rx="3"/>
<text x="578.0" y="270" class="value">144.71</text>
<text x="10" y="302" class="label">unrealengine.com</text>
<rect x="180" y="286" width="463.25" height="22" fill="#4c78a8" rx="3"/>
<text x="651.25" y="302" class="value">171.89</text>
<text x="10" y="334" class="label">origin.com</text>
<rect x="180" y="318" width="483.49" height="22" fill="#4c78a8" rx="3"/>
<text x="671.49" y="334" class="value">179.40</text>
<text x="10" y="366" class="label">fortnite.com</text>
<rect x="180" y="350" width="516.02" height="22" fill="#4c78a8" rx="3"/>
<text x="704.02" y="366" class="value">191.47</text>
<text x="10" y="398" class="label">store.akamai.steamstatic.com</text>
<rect x="180" y="382" width="536.93" height="22" fill="#4c78a8" rx="3"/>
<text x="724.93" y="398" class="value">199.23</text>
<text x="10" y="430" class="label">cdn.akamai.steamstatic.com</text>
<rect x="180" y="414" width="557.66" height="22" fill="#4c78a8" rx="3"/>
<text x="745.66" y="430" class="value">206.92</text>
<text x="10" y="462" class="label">cdn.cloudflare.steamstatic.com</text>
<rect x="180" y="446" width="576.44" height="22" fill="#4c78a8" rx="3"/>
<text x="764.44" y="462" class="value">213.89</text>
<text x="10" y="494" class="label">epicgames.com</text>
<rect x="180" y="478" width="580.0" height="22" fill="#4c78a8" rx="3"/>
<text x="768.0" y="494" class="value">215.21</text>
<line x1="180" y1="30" x2="180" y2="520" stroke="#ccc"/>
<line x1="180" y1="520" x2="760" y2="520" stroke="#ccc"/>
</svg>