<svg xmlns="http://www.w3.org/2000/svg" width="800" height="540">
<style> .label{font-family:DejaVu Sans,Verdana,Geneva,sans-serif;font-size:12px;fill:#333} .value{font-family:DejaVu Sans,Verdana,Geneva,sans-serif;font-size:12px;fill:#555} </style>
<text x="10" y="20" class="label">延迟柱状图（越低越好，Top 15），单位 ms</text>
<text x="10" y="46" class="label">rockstargames.com</text>
<rect x="180" y="30" width="194.25" height="22" fill="#4c78a8" rx="3"/>
<text x="382.25" y="46" class="value">71.07</text>
<text x="10" y="78" class="label">battle.net</text>
<rect x="180" y="62" width="238.94" height="22" fill="#4c78a8" rx="3"/>
<text x="426.94" y="78" class="value">87.42</text>
<text x="10" y="110" class="label">eaassets-a.akamaihd.net</text>
<rect x="180" y="94" width="240.94" height="22" fill="#4c78a8" rx="3"/>
<text x="428.94" y="110" class="value">88.15</text>
<text x="10" y="142" class="label">socialclub.rockstargames.com</text>
<rect x="180" y="126" width="243.34" height="22" fill="#4c78a8" rx="3"/>
<text x="431.34000000000003" y="142" class="value">89.03</text>
<text x="10" y="174" class="label">ubi.com</text>
<rect x="180" y="158" width="249.63" height="22" fill="#4c78a8" rx="3"/>
<text x="437.63" y="174" class="value">91.33</text>
<text x="10" y="206" class="label">ea.com</text>
<rect x="180" y="190" width="325.15" height="22" fill="#4c78a8" rx="3"/>
<text x="513.15" y="206" class="value">118.96</text>
<text x="10" y="238" class="label">steamcdn-a.akamaihd.net</text>
<rect x="180" y="222" width="373.86" height="22" fill="#4c78a8" rx="3"/>
<text x="561.86" y="238" class="value">136.78</text>
<text x="10" y="270" class="label">static3.cdn.ubi.com</text>
<rect x="180" y="254" width="463.34" height="22" fill="#4c78a8" rx="3"/>
<text x="651.3399999999999" y="270" class="value">169.52</text>
<text x="10" y="302" class="label">origin.com</text>
<rect x="180" y="286" width="515.77" height="22" fill="#4c78a8" rx="3"/>
<text x="703.77" y="302" class="value">188.70</text>
<text x="10" y="334" class="label">epicgames.com</text>
<rect x="180" y="318" width="540.29" height="22" fill="#4c78a8" rx="3"/>
<text x="728.29" y="334" class="value">197.67</text>
<text x="10" y="366" class="label">store.akamai.steamstatic.com</text>
<rect x="180" y="350" width="561.09" height="22" fill="#4c78a8" rx="3"/>
<text x="749.09" y="366" class="value">205.28</text>
<text x="10" y="398" class="label">unrealengine.com</text>
<rect x="180" y="382" width="569.97" height="22" fill="#4c78a8" rx="3"/>
<text x="757.97" y="398" class="value">208.53</text>
<text x="10" y="430" class="label">gog.com</text>
<rect x="180" y="414" width="578.66" height="22" fill="#4c78a8" rx="3"/>
<text x="766.66" y="430" class="value">211.71</text>
<text x="10" y="462" class="label">ubisoft.com</text>
<rect x="180" y="446" width="579.78" height="22" fill="#4c78a8" rx="3"/>
<text x="767.78" y="462" class="value">212.12</text>
<text x="10" y="494" class="label">cdn.cloudflare.steamstatic.com</text>
<rect x="180" y="478" width="580.0" height="22" fill="#4c78a8" rx="3"/>
<text x="768.0" y="494" class="value">212.20</text>
<line x1="180" y1="30" x2="180" y2="520" stroke="#ccc"/>
<line x1="180" y1="520" x2="760" y2="520" stroke="#ccc"/>
</svg>