<svg xmlns="http://www.w3.org/2000/svg" width="800" height="540">
<style> .label{font-family:DejaVu Sans,Verdana,Geneva,sans-serif;font-size:12px;fill:#333} .value{font-family:DejaVu Sans,Verdana,Geneva,sans-serif;font-size:12px;fill:#555} </style>
<text x="10" y="20" class="label">延迟柱状图（越低越好，Top 15），单位 ms</text>
<text x="10" y="46" class="label">rockstargames.com</text>
<rect x="180" y="30" width="114.64" height="22" fill="#4c78a8" rx="3"/>
<text x="302.64" y="46" class="value">42.54</text>
<text x="10" y="78" class="label">socialclub.rockstargames.com</text>
<rect x="180" y="62" width="173.04" height="22" fill="#4c78a8" rx="3"/>
<text x="361.03999999999996" y="78" class="value">64.21</text>
<text x="10" y="110" class="label">blizzard.com</text>
<rect x="180" y="94" width="207.62" height="22" fill="#4c78a8" rx="3"/>
<text x="395.62" y="110" class="value">77.04</text>
<text x="10" y="142" class="label">battle.net</text>
<rect x="180" y="126" width="221.44" height="22" fill="#4c78a8" rx="3"/>
<text x="409.44" y="142" class="value">82.17</text>
<text x="10" y="174" class="label">eaassets-a.akamaihd.net</text>
<rect x="180" y="158" width="231.28" height="22" fill="#4c78a8" rx="3"/>
<text x="419.28" y="174" class="value">85.82</text>
<text x="10" y="206" class="label">ea.com</text>
<rect x="180" y="190" width="236.67" height="22" fill="#4c78a8" rx="3"/>
<text x="424.66999999999996" y="206" class="value">87.82</text>
<text x="10" y="238" class="label">ubi.com</text>
<rect x="180" y="222" width="286.52" height="22" fill="#4c78a8" rx="3"/>
<text x="474.52" y="238" class="value">106.32</text>
<text x="10" y="270" class="label">unrealengine.com</text>
<rect x="180" y="254" width="306.65" height="22" fill="#4c78a8" rx="3"/>
<text x="494.65" y="270" class="value">113.79</text>
<text x="10" y="302" class="label">ubisoft.com</text>
<rect x="180" y="286" width="337.57" height="22" fill="#4c78a8" rx="3"/>
<text x="525.5699999999999" y="302" class="value">125.26</text>
<text x="10" y="334" class="label">epicgames.com</text>
<rect x="180" y="318" width="370.44" height="22" fill="#4c78a8" rx="3"/>
<text x="558.44" y="334" class="value">137.46</text>
<text x="10" y="366" class="label">steamcdn-a.akamaihd.net</text>
<rect x="180" y="350" width="370.55" height="22" fill="#4c78a8" rx="3"/>
<text x="558.55" y="366" class="value">137.50</text>
<text x="10" y="398" class="label">origin.com</text>
<rect x="180" y="382" width="511.09" height="22" fill="#4c78a8" rx="3"/>
<text x="699.0899999999999" y="398" class="value">189.65</text>
<text x="10" y="430" class="label">fortnite.com</text>
<rect x="180" y="414" width="511.12" height="22" fill="#4c78a8" rx="3"/>
<text x="699.12" y="430" class="value">189.66</text>
<text x="10" y="462" class="label">store.akamai.steamstatic.com</text>
<rect x="180" y="446" width="534.35" height="22" fill="#4c78a8" rx="3"/>
<text x="722.35" y="462" class="value">198.28</text>
<text x="10" y="494" class="label">steam-chat.com</text>
<rect x="180" y="478" width="580.0" height="22" fill="#4c78a8" rx="3"/>
<text x="768.0" y="494" class="value">215.22</text>
<line x1="180" y1="30" x2="180" y2="520" stroke="#ccc"/>
<line x1="180" y1="520" x2="760" y2="520" stroke="#ccc"/>
</svg>