<svg xmlns="http://www.w3.org/2000/svg" width="800" height="540">
<style> .label{font-family:DejaVu Sans,Verdana,Geneva,sans-serif;font-size:12px;fill:#333} .value{font-family:DejaVu Sans,Verdana,Geneva,sans-serif;font-size:12px;fill:#555} </style>
<text x="10" y="20" class="label">延迟柱状图（越低越好，Top 15），单位 ms</text>
<text x="10" y="46" class="label">rockstargames.com</text>
<rect x="180" y="30" width="69.59" height="22" fill="#4c78a8" rx="3"/>
<text x="257.59000000000003" y="46" class="value">31.91</text>
<text x="10" y="78" class="label">ea.com</text>
<rect x="180" y="62" width="167.64" height="22" fill="#4c78a8" rx="3"/>
<text x="355.64" y="78" class="value">76.87</text>
<text x="10" y="110" class="label">origin.com</text>
<rect x="180" y="94" width="175.57" height="22" fill="#4c78a8" rx="3"/>
<text x="363.57" y="110" class="value">80.51</text>
<text x="10" y="142" class="label">eaassets-a.akamaihd.net</text>
<rect x="180" y="126" width="253.78" height="22" fill="#4c78a8" rx="3"/>
<text x="441.78" y="142" class="value">116.37</text>
<text x="10" y="174" class="label">ubisoft.com</text>
<rect x="180" y="158" width="266.14" height="22" fill="#4c78a8" rx="3"/>
<text x="454.14" y="174" class="value">122.04</text>
<text x="10" y="206" class="label">easyanticheat.net</text>
<rect x="180" y="190" width="287.14" height="22" fill="#4c78a8" rx="3"/>
<text x="475.14" y="206" class="value">131.67</text>
<text x="10" y="238" class="label">cdn.akamai.steamstatic.com</text>
<rect x="180" y="222" width="357.87" height="22" fill="#4c78a8" rx="3"/>
<text x="545.87" y="238" class="value">164.10</text>
<text x="10" y="270" class="label">store.akamai.steamstatic.com</text>
<rect x="180" y="254" width="369.73" height="22" fill="#4c78a8" rx="3"/>
<text x="557.73" y="270" class="value">169.54</text>
<text x="10" y="302" class="label">steamcdn-a.akamaihd.net</text>
<rect x="180" y="286" width="409.4" height="22" fill="#4c78a8" rx="3"/>
<text x="597.4" y="302" class="value">187.73</text>
<text x="10" y="334" class="label">cdn.cloudflare.steamstatic.com</text>
<rect x="180" y="318" width="420.21" height="22" fill="#4c78a8" rx="3"/>
<text x="608.21" y="334" class="value">192.69</text>
<text x="10" y="366" class="label">gog.com</text>
<rect x="180" y="350" width="445.84" height="22" fill="#4c78a8" rx="3"/>
<text x="633.8399999999999" y="366" class="value">204.44</text>
<text x="10" y="398" class="label">community.akamai.steamstatic.com</text>
<rect x="180" y="382" width="448.78" height="22" fill="#4c78a8" rx="3"/>
<text x="636.78" y="398" class="value">205.79</text>
<text x="10" y="430" class="label">api.steampowered.com</text>
<rect x="180" y="414" width="532.83" height="22" fill="#4c78a8" rx="3"/>
<text x="720.83" y="430" class="value">244.33</text>
<text x="10" y="462" class="label">steam-chat.com</text>
<rect x="180" y="446" width="558.45" height="22" fill="#4c78a8" rx="3"/>
<text x="746.45" y="462" class="value">256.08</text>
<text x="10" y="494" class="label">www.steamcommunity.com</text>
<rect x="180" y="478" width="580.0" height="22" fill="#4c78a8" rx="3"/>
<text x="768.0" y="494" class="value">265.96</text>
<line x1="180" y1="30" x2="180" y2="520" stroke="#ccc"/>
<line x1="180" y1="520" x2="760" y2="520" stroke="#ccc"/>
</svg>