<svg xmlns="http://www.w3.org/2000/svg" width="800" height="540">
<style> .label{font-family:DejaVu Sans,Verdana,Geneva,sans-serif;font-size:12px;fill:#333} .value{font-family:DejaVu Sans,Verdana,Geneva,sans-serif;font-size:12px;fill:#555} </style>
<text x="10" y="20" class="label">延迟柱状图（越低越好，Top 15），单位 ms</text>
<text x="10" y="46" class="label">steamcdn-a.akamaihd.net</text>
<rect x="180" y="30" width="58.33" height="22" fill="#4c78a8" rx="3"/>
<text x="246.32999999999998" y="46" class="value">29.79</text>
<text x="10" y="78" class="label">eaassets-a.akamaihd.net</text>
<rect x="180" y="62" width="59.51" height="22" fill="#4c78a8" rx="3"/>
<text x="247.51" y="78" class="value">30.39</text>
<text x="10" y="110" class="label">rockstargames.com</text>
<rect x="180" y="94" width="67.13" height="22" fill="#4c78a8" rx="3"/>
<text x="255.13" y="110" class="value">34.28</text>
<text x="10" y="142" class="label">ubisoft.com</text>
<rect x="180" y="126" width="78.0" height="22" fill="#4c78a8" rx="3"/>
<text x="266.0" y="142" class="value">39.83</text>
<text x="10" y="174" class="label">cdn.cloudflare.steamstatic.com</text>
<rect x="180" y="158" width="124.21" height="22" fill="#4c78a8" rx="3"/>
<text x="312.21" y="174" class="value">63.43</text>
<text x="10" y="206" class="label">store.akamai.steamstatic.com</text>
<rect x="180" y="190" width="154.89" height="22" fill="#4c78a8" rx="3"/>
<text x="342.89" y="206" class="value">79.10</text>
<text x="10" y="238" class="label">ea.com</text>
<rect x="180" y="222" width="165.12" height="22" fill="#4c78a8" rx="3"/>
<text x="353.12" y="238" class="value">84.32</text>
<text x="10" y="270" class="label">community.akamai.steamstatic.com</text>
<rect x="180" y="254" width="173.59" height="22" fill="#4c78a8" rx="3"/>
<text x="361.59000000000003" y="270" class="value">88.65</text>
<text x="10" y="302" class="label">easyanticheat.net</text>
<rect x="180" y="286" width="314.31" height="22" fill="#4c78a8" rx="3"/>
<text x="502.31" y="302" class="value">160.51</text>
<text x="10" y="334" class="label">steam-chat.com</text>
<rect x="180" y="318" width="326.41" height="22" fill="#4c78a8" rx="3"/>
<text x="514.4100000000001" y="334" class="value">166.69</text>
<text x="10" y="366" class="label">origin.com</text>
<rect x="180" y="350" width="356.75" height="22" fill="#4c78a8" rx="3"/>
<text x="544.75" y="366" class="value">182.18</text>
<text x="10" y="398" class="label">api.steampowered.com</text>
<rect x="180" y="382" width="369.77" height="22" fill="#4c78a8" rx="3"/>
<text x="557.77" y="398" class="value">188.83</text>
<text x="10" y="430" class="label">www.steamcommunity.com</text>
<rect x="180" y="414" width="469.64" height="22" fill="#4c78a8" rx="3"/>
<text x="657.64" y="430" class="value">239.83</text>
<text x="10" y="462" class="label">launcher-public-service-prod06.ol.epicgames.com</text>
<rect x="180" y="446" width="471.24" height="22" fill="#4c78a8" rx="3"/>
<text x="659.24" y="462" class="value">240.65</text>
<text x="10" y="494" class="label">battle.net</text>
<rect x="180" y="478" width="580.0" height="22" fill="#4c78a8" rx="3"/>
<text x="768.0" y="494" class="value">296.19</text>
<line x1="180" y1="30" x2="180" y2="520" stroke="#ccc"/>
<line x1="180" y1="520" x2="760" y2="520" stroke="#ccc"/>
</svg>