<svg xmlns="http://www.w3.org/2000/svg" width="800" height="540">
<style> .label{font-family:DejaVu Sans,Verdana,Geneva,sans-serif;font-size:12px;fill:#333} .value{font-family:DejaVu Sans,Verdana,Geneva,sans-serif;font-size:12px;fill:#555} </style>
<text x="10" y="20" class="label">延迟柱状图（越低越好，Top 15），单位 ms</text>
<text x="10" y="46" class="label">blizzard.com</text>
<rect x="180" y="30" width="245.64" height="22" fill="#4c78a8" rx="3"/>
<text x="433.64" y="46" class="value">76.55</text>
<text x="10" y="78" class="label">battle.net</text>
<rect x="180" y="62" width="253.63" height="22" fill="#4c78a8" rx="3"/>
<text x="441.63" y="78" class="value">79.04</text>
<text x="10" y="110" class="label">eaassets-a.akamaihd.net</text>
<rect x="180" y="94" width="258.92" height="22" fill="#4c78a8" rx="3"/>
<text x="446.92" y="110" class="value">80.69</text>
<text x="10" y="142" class="label">rockstargames.com</text>
<rect x="180" y="126" width="286.65" height="22" fill="#4c78a8" rx="3"/>
<text x="474.65" y="142" class="value">89.33</text>
<text x="10" y="174" class="label">ubi.com</text>
<rect x="180" y="158" width="311.39" height="22" fill="#4c78a8" rx="3"/>
<text x="499.39" y="174" class="value">97.04</text>
<text x="10" y="206" class="label">ea.com</text>
<rect x="180" y="190" width="328.43" height="22" fill="#4c78a8" rx="3"/>
<text x="516.4300000000001" y="206" class="value">102.35</text>
<text x="10" y="238" class="label">origin.com</text>
<rect x="180" y="222" width="328.49" height="22" fill="#4c78a8" rx="3"/>
<text x="516.49" y="238" class="value">102.37</text>
<text x="10" y="270" class="label">socialclub.rockstargames.com</text>
<rect x="180" y="254" width="344.37" height="22" fill="#4c78a8" rx="3"/>
<text x="532.37" y="270" class="value">107.32</text>
<text x="10" y="302" class="label">community.akamai.steamstatic.com</text>
<rect x="180" y="286" width="380.67" height="22" fill="#4c78a8" rx="3"/>
<text x="568.6700000000001" y="302" class="value">118.63</text>
<text x="10" y="334" class="label">ubisoft.com</text>
<rect x="180" y="318" width="391.93" height="22" fill="#4c78a8" rx="3"/>
<text x="579.9300000000001" y="334" class="value">122.14</text>
<text x="10" y="366" class="label">fortnite.com</text>
<rect x="180" y="350" width="492.82" height="22" fill="#4c78a8" rx="3"/>
<text x="680.8199999999999" y="366" class="value">153.58</text>
<text x="10" y="398" class="label">static3.cdn.ubi.com</text>
<rect x="180" y="382" width="542.97" height="22" fill="#4c78a8" rx="3"/>
<text x="730.97" y="398" class="value">169.21</text>
<text x="10" y="430" class="label">unrealengine.com</text>
<rect x="180" y="414" width="548.65" height="22" fill="#4c78a8" rx="3"/>
<text x="736.65" y="430" class="value">170.98</text>
<text x="10" y="462" class="label">epicgames.com</text>
<rect x="180" y="446" width="561.68" height="22" fill="#4c78a8" rx="3"/>
<text x="749.68" y="462" class="value">175.04</text>
<text x="10" y="494" class="label">cdn.akamai.steamstatic.com</text>
<rect x="180" y="478" width="580.0" height="22" fill="#4c78a8" rx="3"/>
<text x="768.0" y="494" class="value">180.75</text>
<line x1="180" y1="30" x2="180" y2="520" stroke="#ccc"/>
<line x1="180" y1="520" x2="760" y2="520" stroke="#ccc"/>
</svg>