<svg xmlns="http://www.w3.org/2000/svg" width="800" height="540">
<style> .label{font-family:DejaVu Sans,Verdana,Geneva,sans-serif;font-size:12px;fill:#333} .value{font-family:DejaVu Sans,Verdana,Geneva,sans-serif;font-size:12px;fill:#555} </style>
<text x="10" y="20" class="label">延迟柱状图（越低越好，Top 15），单位 ms</text>
<text x="10" y="46" class="label">cdn.akamai.steamstatic.com</text>
<rect x="180" y="30" width="228.16" height="22" fill="#4c78a8" rx="3"/>
<text x="416.15999999999997" y="46" class="value">86.26</text>
<text x="10" y="78" class="label">rockstargames.com</text>
<rect x="180" y="62" width="233.61" height="22" fill="#4c78a8" rx="3"/>
<text x="421.61" y="78" class="value">88.32</text>
<text x="10" y="110" class="label">ea.com</text>
<rect x="180" y="94" width="234.35" height="22" fill="#4c78a8" rx="3"/>
<text x="422.35" y="110" class="value">88.60</text>
<text x="10" y="142" class="label">socialclub.rockstargames.com</text>
<rect x="180" y="126" width="249.08" height="22" fill="#4c78a8" rx="3"/>
<text x="437.08000000000004" y="142" class="value">94.17</text>
<text x="10" y="174" class="label">blizzard.com</text>
<rect x="180" y="158" width="255.01" height="22" fill="#4c78a8" rx="3"/>
<text x="443.01" y="174" class="value">96.41</text>
<text x="10" y="206" class="label">unrealengine.com</text>
<rect x="180" y="190" width="258.18" height="22" fill="#4c78a8" rx="3"/>
<text x="446.18" y="206" class="value">97.61</text>
<text x="10" y="238" class="label">ubi.com</text>
<rect x="180" y="222" width="287.91" height="22" fill="#4c78a8" rx="3"/>
<text x="475.91" y="238" class="value">108.85</text>
<text x="10" y="270" class="label">battle.net</text>
<rect x="180" y="254" width="292.54" height="22" fill="#4c78a8" rx="3"/>
<text x="480.54" y="270" class="value">110.60</text>
<text x="10" y="302" class="label">eaassets-a.akamaihd.net</text>
<rect x="180" y="286" width="336.58" height="22" fill="#4c78a8" rx="3"/>
<text x="524.5799999999999" y="302" class="value">127.25</text>
<text x="10" y="334" class="label">epicgames.com</text>
<rect x="180" y="318" width="340.92" height="22" fill="#4c78a8" rx="3"/>
<text x="528.9200000000001" y="334" class="value">128.89</text>
<text x="10" y="366" class="label">ubisoft.com</text>
<rect x="180" y="350" width="346.1" height="22" fill="#4c78a8" rx="3"/>
<text x="534.1" y="366" class="value">130.85</text>
<text x="10" y="398" class="label">community.akamai.steamstatic.com</text>
<rect x="180" y="382" width="477.93" height="22" fill="#4c78a8" rx="3"/>
<text x="665.9300000000001" y="398" class="value">180.69</text>
<text x="10" y="430" class="label">launcher-public-service-prod06.ol.epicgames.com</text>
<rect x="180" y="414" width="523.82" height="22" fill="#4c78a8" rx="3"/>
<text x="711.82" y="430" class="value">198.04</text>
<text x="10" y="462" class="label">store.akamai.steamstatic.com</text>
<rect x="180" y="446" width="577.8" height="22" fill="#4c78a8" rx="3"/>
<text x="765.8" y="462" class="value">218.45</text>
<text x="10" y="494" class="label">origin.com</text>
<rect x="180" y="478" width="580.0" height="22" fill="#4c78a8" rx="3"/>
<text x="768.0" y="494" class="value">219.28</text>
<line x1="180" y1="30" x2="180" y2="520" stroke="#ccc"/>
<line x1="180" y1="520" x2="760" y2="520" stroke="#ccc"/>
</svg>