<svg xmlns="http://www.w3.org/2000/svg" width="800" height="540">
<style> .label{font-family:DejaVu Sans,Verdana,Geneva,sans-serif;font-size:12px;fill:#333} .value{font-family:DejaVu Sans,Verdana,Geneva,sans-serif;font-size:12px;fill:#555} </style>
<text x="10" y="20" class="label">延迟柱状图（越低越好，Top 15），单位 ms</text>
<text x="10" y="46" class="label">rockstargames.com</text>
<rect x="180" y="30" width="238.39" height="22" fill="#4c78a8" rx="3"/>
<text x="426.39" y="46" class="value">65.91</text>
<text x="10" y="78" class="label">blizzard.com</text>
<rect x="180" y="62" width="298.68" height="22" fill="#4c78a8" rx="3"/>
<text x="486.68" y="78" class="value">82.58</text>
<text x="10" y="110" class="label">battle.net</text>
<rect x="180" y="94" width="300.53" height="22" fill="#4c78a8" rx="3"/>
<text x="488.53" y="110" class="value">83.09</text>
<text x="10" y="142" class="label">socialclub.rockstargames.com</text>
<rect x="180" y="126" width="316.69" height="22" fill="#4c78a8" rx="3"/>
<text x="504.69" y="142" class="value">87.56</text>
<text x="10" y="174" class="label">eaassets-a.akamaihd.net</text>
<rect x="180" y="158" width="324.47" height="22" fill="#4c78a8" rx="3"/>
<text x="512.47" y="174" class="value">89.71</text>
<text x="10" y="206" class="label">epicgames.com</text>
<rect x="180" y="190" width="326.1" height="22" fill="#4c78a8" rx="3"/>
<text x="514.1" y="206" class="value">90.16</text>
<text x="10" y="238" class="label">origin.com</text>
<rect x="180" y="222" width="410.95" height="22" fill="#4c78a8" rx="3"/>
<text x="598.95" y="238" class="value">113.62</text>
<text x="10" y="270" class="label">ea.com</text>
<rect x="180" y="254" width="449.18" height="22" fill="#4c78a8" rx="3"/>
<text x="637.1800000000001" y="270" class="value">124.19</text>
<text x="10" y="302" class="label">ubisoft.com</text>
<rect x="180" y="286" width="450.23" height="22" fill="#4c78a8" rx="3"/>
<text x="638.23" y="302" class="value">124.48</text>
<text x="10" y="334" class="label">fortnite.com</text>
<rect x="180" y="318" width="463.03" height="22" fill="#4c78a8" rx="3"/>
<text x="651.03" y="334" class="value">128.02</text>
<text x="10" y="366" class="label">ubi.com</text>
<rect x="180" y="350" width="509.07" height="22" fill="#4c78a8" rx="3"/>
<text x="697.0699999999999" y="366" class="value">140.75</text>
<text x="10" y="398" class="label">easyanticheat.net</text>
<rect x="180" y="382" width="521.91" height="22" fill="#4c78a8" rx="3"/>
<text x="709.91" y="398" class="value">144.30</text>
<text x="10" y="430" class="label">cdn.akamai.steamstatic.com</text>
<rect x="180" y="414" width="530.38" height="22" fill="#4c78a8" rx="3"/>
<text x="718.38" y="430" class="value">146.64</text>
<text x="10" y="462" class="label">unrealengine.com</text>
<rect x="180" y="446" width="554.18" height="22" fill="#4c78a8" rx="3"/>
<text x="742.18" y="462" class="value">153.22</text>
<text x="10" y="494" class="label">launcher-public-service-prod06.ol.epicgames.com</text>
<rect x="180" y="478" width="580.0" height="22" fill="#4c78a8" rx="3"/>
<text x="768.0" y="494" class="value">160.36</text>
<line x1="180" y1="30" x2="180" y2="520" stroke="#ccc"/>
<line x1="180" y1="520" x2="760" y2="520" stroke="#ccc"/>
</svg>