<svg xmlns="http://www.w3.org/2000/svg" width="800" height="540">
<style> .label{font-family:DejaVu Sans,Verdana,Geneva,sans-serif;font-size:12px;fill:#333} .value{font-family:DejaVu Sans,Verdana,Geneva,sans-serif;font-size:12px;fill:#555} </style>
<text x="10" y="20" class="label">延迟柱状图（越低越好，Top 15），单位 ms</text>
<text x="10" y="46" class="label">rockstargames.com</text>
<rect x="180" y="30" width="160.04" height="22" fill="#4c78a8" rx="3"/>
<text x="348.03999999999996" y="46" class="value">54.85</text>
<text x="10" y="78" class="label">battle.net</text>
<rect x="180" y="62" width="164.88" height="22" fill="#4c78a8" rx="3"/>
<text x="352.88" y="78" class="value">56.51</text>
<text x="10" y="110" class="label">eaassets-a.akamaihd.net</text>
<rect x="180" y="94" width="181.46" height="22" fill="#4c78a8" rx="3"/>
<text x="369.46000000000004" y="110" class="value">62.19</text>
<text x="10" y="142" class="label">socialclub.rockstargames.com</text>
<rect x="180" y="126" width="192.57" height="22" fill="#4c78a8" rx="3"/>
<text x="380.57" y="142" class="value">66.00</text>
<text x="10" y="174" class="label">blizzard.com</text>
<rect x="180" y="158" width="201.91" height="22" fill="#4c78a8" rx="3"/>
<text x="389.90999999999997" y="174" class="value">69.20</text>
<text x="10" y="206" class="label">epicgames.com</text>
<rect x="180" y="190" width="247.34" height="22" fill="#4c78a8" rx="3"/>
<text x="435.34000000000003" y="206" class="value">84.77</text>
<text x="10" y="238" class="label">ubi.com</text>
<rect x="180" y="222" width="280.87" height="22" fill="#4c78a8" rx="3"/>
<text x="468.87" y="238" class="value">96.26</text>
<text x="10" y="270" class="label">fortnite.com</text>
<rect x="180" y="254" width="282.94" height="22" fill="#4c78a8" rx="3"/>
<text x="470.94" y="270" class="value">96.97</text>
<text x="10" y="302" class="label">unrealengine.com</text>
<rect x="180" y="286" width="396.32" height="22" fill="#4c78a8" rx="3"/>
<text x="584.3199999999999" y="302" class="value">135.83</text>
<text x="10" y="334" class="label">cdn.cloudflare.steamstatic.com</text>
<rect x="180" y="318" width="396.97" height="22" fill="#4c78a8" rx="3"/>
<text x="584.97" y="334" class="value">136.05</text>
<text x="10" y="366" class="label">steamcdn-a.akamaihd.net</text>
<rect x="180" y="350" width="431.78" height="22" fill="#4c78a8" rx="3"/>
<text x="619.78" y="366" class="value">147.98</text>
<text x="10" y="398" class="label">community.akamai.steamstatic.com</text>
<rect x="180" y="382" width="508.69" height="22" fill="#4c78a8" rx="3"/>
<text x="696.69" y="398" class="value">174.34</text>
<text x="10" y="430" class="label">origin.com</text>
<rect x="180" y="414" width="560.74" height="22" fill="#4c78a8" rx="3"/>
<text x="748.74" y="430" class="value">192.18</text>
<text x="10" y="462" class="label">static3.cdn.ubi.com</text>
<rect x="180" y="446" width="564.21" height="22" fill="#4c78a8" rx="3"/>
<text x="752.21" y="462" class="value">193.37</text>
<text x="10" y="494" class="label">ea.com</text>
<rect x="180" y="478" width="580.0" height="22" fill="#4c78a8" rx="3"/>
<text x="768.0" y="494" class="value">198.78</text>
<line x1="180" y1="30" x2="180" y2="520" stroke="#ccc"/>
<line x1="180" y1="520" x2="760" y2="520" stroke="#ccc"/>
</svg>