<svg xmlns="http://www.w3.org/2000/svg" width="800" height="540">
<style> .label{font-family:DejaVu Sans,Verdana,Geneva,sans-serif;font-size:12px;fill:#333} .value{font-family:DejaVu Sans,Verdana,Geneva,sans-serif;font-size:12px;fill:#555} </style>
<text x="10" y="20" class="label">延迟柱状图（越低越好，Top 15），单位 ms</text>
<text x="10" y="46" class="label">eaassets-a.akamaihd.net</text>
<rect x="180" y="30" width="145.03" height="22" fill="#4c78a8" rx="3"/>
<text x="333.03" y="46" class="value">57.67</text>
<text x="10" y="78" class="label">rockstargames.com</text>
<rect x="180" y="62" width="174.4" height="22" fill="#4c78a8" rx="3"/>
<text x="362.4" y="78" class="value">69.35</text>
<text x="10" y="110" class="label">store.akamai.steamstatic.com</text>
<rect x="180" y="94" width="245.35" height="22" fill="#4c78a8" rx="3"/>
<text x="433.35" y="110" class="value">97.56</text>
<text x="10" y="142" class="label">steamcdn-a.akamaihd.net</text>
<rect x="180" y="126" width="270.35" height="22" fill="#4c78a8" rx="3"/>
<text x="458.35" y="142" class="value">107.50</text>
<text x="10" y="174" class="label">battle.net</text>
<rect x="180" y="158" width="313.88" height="22" fill="#4c78a8" rx="3"/>
<text x="501.88" y="174" class="value">124.81</text>
<text x="10" y="206" class="label">blizzard.com</text>
<rect x="180" y="190" width="343.53" height="22" fill="#4c78a8" rx="3"/>
<text x="531.53" y="206" class="value">136.60</text>
<text x="10" y="238" class="label">cdn.cloudflare.steamstatic.com</text>
<rect x="180" y="222" width="348.31" height="22" fill="#4c78a8" rx="3"/>
<text x="536.31" y="238" class="value">138.50</text>
<text x="10" y="270" class="label">socialclub.rockstargames.com</text>
<rect x="180" y="254" width="355.27" height="22" fill="#4c78a8" rx="3"/>
<text x="543.27" y="270" class="value">141.27</text>
<text x="10" y="302" class="label">ubi.com</text>
<rect x="180" y="286" width="359.27" height="22" fill="#4c78a8" rx="3"/>
<text x="547.27" y="302" class="value">142.86</text>
<text x="10" y="334" class="label">ea.com</text>
<rect x="180" y="318" width="391.76" height="22" fill="#4c78a8" rx="3"/>
<text x="579.76" y="334" class="value">155.78</text>
<text x="10" y="366" class="label">easyanticheat.net</text>
<rect x="180" y="350" width="433.08" height="22" fill="#4c78a8" rx="3"/>
<text x="621.0799999999999" y="366" class="value">172.21</text>
<text x="10" y="398" class="label">steamcommunity.com</text>
<rect x="180" y="382" width="456.77" height="22" fill="#4c78a8" rx="3"/>
<text x="644.77" y="398" class="value">181.63</text>
<text x="10" y="430" class="label">ubisoft.com</text>
<rect x="180" y="414" width="464.77" height="22" fill="#4c78a8" rx="3"/>
<text x="652.77" y="430" class="value">184.81</text>
<text x="10" y="462" class="label">origin.com</text>
<rect x="180" y="446" width="506.31" height="22" fill="#4c78a8" rx="3"/>
<text x="694.31" y="462" class="value">201.33</text>
<text x="10" y="494" class="label">community.akamai.steamstatic.com</text>
<rect x="180" y="478" width="580.0" height="22" fill="#4c78a8" rx="3"/>
<text x="768.0" y="494" class="value">230.63</text>
<line x1="180" y1="30" x2="180" y2="520" stroke="#ccc"/>
<line x1="180" y1="520" x2="760" y2="520" stroke="#ccc"/>
</svg>