<svg xmlns="http://www.w3.org/2000/svg" width="800" height="540">
<style> .label{font-family:DejaVu Sans,Verdana,Geneva,sans-serif;font-size:12px;fill:#333} .value{font-family:DejaVu Sans,Verdana,Geneva,sans-serif;font-size:12px;fill:#555} </style>
<text x="10" y="20" class="label">延迟柱状图（越低越好，Top 15），单位 ms</text>
<text x="10" y="46" class="label">community.akamai.steamstatic.com</text>
<rect x="180" y="30" width="307.97" height="22" fill="#4c78a8" rx="3"/>
<text x="495.97" y="46" class="value">137.33</text>
<text x="10" y="78" class="label">eaassets-a.akamaihd.net</text>
<rect x="180" y="62" width="331.68" height="22" fill="#4c78a8" rx="3"/>
<text x="519.6800000000001" y="78" class="value">147.90</text>
<text x="10" y="110" class="label">ea.com</text>
<rect x="180" y="94" width="337.26" height="22" fill="#4c78a8" rx="3"/>
<text x="525.26" y="110" class="value">150.39</text>
<text x="10" y="142" class="label">cdn.cloudflare.steamstatic.com</text>
<rect x="180" y="126" width="390.64" height="22" fill="#4c78a8" rx="3"/>
<text x="578.64" y="142" class="value">174.19</text>
<text x="10" y="174" class="label">steamcdn-a.akamaihd.net</text>
<rect x="180" y="158" width="403.62" height="22" fill="#4c78a8" rx="3"/>
<text x="591.62" y="174" class="value">179.98</text>
<text x="10" y="206" class="label">rockstargames.com</text>
<rect x="180" y="190" width="440.71" height="22" fill="#4c78a8" rx="3"/>
<text x="628.71" y="206" class="value">196.52</text>
<text x="10" y="238" class="label">easyanticheat.net</text>
<rect x="180" y="222" width="463.65" height="22" fill="#4c78a8" rx="3"/>
<text x="651.65" y="238" class="value">206.75</text>
<text x="10" y="270" class="label">store.akamai.steamstatic.com</text>
<rect x="180" y="254" width="467.11" height="22" fill="#4c78a8" rx="3"/>
<text x="655.11" y="270" class="value">208.29</text>
<text x="10" y="302" class="label">static3.cdn.ubi.com</text>
<rect x="180" y="286" width="505.95" height="22" fill="#4c78a8" rx="3"/>
<text x="693.95" y="302" class="value">225.61</text>
<text x="10" y="334" class="label">ubi.com</text>
<rect x="180" y="318" width="516.27" height="22" fill="#4c78a8" rx="3"/>
<text x="704.27" y="334" class="value">230.21</text>
<text x="10" y="366" class="label">steam-chat.com</text>
<rect x="180" y="350" width="527.03" height="22" fill="#4c78a8" rx="3"/>
<text x="715.03" y="366" class="value">235.01</text>
<text x="10" y="398" class="label">api.steampowered.com</text>
<rect x="180" y="382" width="531.2" height="22" fill="#4c78a8" rx="3"/>
<text x="719.2" y="398" class="value">236.87</text>
<text x="10" y="430" class="label">cdn.akamai.steamstatic.com</text>
<rect x="180" y="414" width="556.09" height="22" fill="#4c78a8" rx="3"/>
<text x="744.09" y="430" class="value">247.97</text>
<text x="10" y="462" class="label">unrealengine.com</text>
<rect x="180" y="446" width="563.43" height="22" fill="#4c78a8" rx="3"/>
<text x="751.43" y="462" class="value">251.24</text>
<text x="10" y="494" class="label">ubisoft.com</text>
<rect x="180" y="478" width="580.0" height="22" fill="#4c78a8" rx="3"/>
<text x="768.0" y="494" class="value">258.63</text>
<line x1="180" y1="30" x2="180" y2="520" stroke="#ccc"/>
<line x1="180" y1="520" x2="760" y2="520" stroke="#ccc"/>
</svg>