<svg xmlns="http://www.w3.org/2000/svg" width="800" height="540">
<style> .label{font-family:DejaVu Sans,Verdana,Geneva,sans-serif;font-size:12px;fill:#333} .value{font-family:DejaVu Sans,Verdana,Geneva,sans-serif;font-size:12px;fill:#555} </style>
<text x="10" y="20" class="label">延迟柱状图（越低越好，Top 15），单位 ms</text>
<text x="10" y="46" class="label">ubisoft.com</text>
<rect x="180" y="30" width="210.71" height="22" fill="#4c78a8" rx="3"/>
<text x="398.71000000000004" y="46" class="value">118.43</text>
<text x="10" y="78" class="label">rockstargames.com</text>
<rect x="180" y="62" width="223.25" height="22" fill="#4c78a8" rx="3"/>
<text x="411.25" y="78" class="value">125.48</text>
<text x="10" y="110" class="label">ea.com</text>
<rect x="180" y="94" width="227.2" height="22" fill="#4c78a8" rx="3"/>
<text x="415.2" y="110" class="value">127.70</text>
<text x="10" y="142" class="label">eaassets-a.akamaihd.net</text>
<rect x="180" y="126" width="277.11" height="22" fill="#4c78a8" rx="3"/>
<text x="465.11" y="142" class="value">155.75</text>
<text x="10" y="174" class="label">steamcdn-a.akamaihd.net</text>
<rect x="180" y="158" width="298.73" height="22" fill="#4c78a8" rx="3"/>
<text x="486.73" y="174" class="value">167.90</text>
<text x="10" y="206" class="label">community.akamai.steamstatic.com</text>
<rect x="180" y="190" width="363.7" height="22" fill="#4c78a8" rx="3"/>
<text x="551.7" y="206" class="value">204.42</text>
<text x="10" y="238" class="label">origin.com</text>
<rect x="180" y="222" width="369.81" height="22" fill="#4c78a8" rx="3"/>
<text x="557.81" y="238" class="value">207.85</text>
<text x="10" y="270" class="label">store.akamai.steamstatic.com</text>
<rect x="180" y="254" width="377.69" height="22" fill="#4c78a8" rx="3"/>
<text x="565.69" y="270" class="value">212.28</text>
<text x="10" y="302" class="label">cdn.cloudflare.steamstatic.com</text>
<rect x="180" y="286" width="385.0" height="22" fill="#4c78a8" rx="3"/>
<text x="573.0" y="302" class="value">216.39</text>
<text x="10" y="334" class="label">cdn.akamai.steamstatic.com</text>
<rect x="180" y="318" width="410.55" height="22" fill="#4c78a8" rx="3"/>
<text x="598.55" y="334" class="value">230.75</text>
<text x="10" y="366" class="label">easyanticheat.net</text>
<rect x="180" y="350" width="476.81" height="22" fill="#4c78a8" rx="3"/>
<text x="664.81" y="366" class="value">267.99</text>
<text x="10" y="398" class="label">api.steampowered.com</text>
<rect x="180" y="382" width="505.45" height="22" fill="#4c78a8" rx="3"/>
<text x="693.45" y="398" class="value">284.09</text>
<text x="10" y="430" class="label">ubi.com</text>
<rect x="180" y="414" width="511.11" height="22" fill="#4c78a8" rx="3"/>
<text x="699.11" y="430" class="value">287.27</text>
<text x="10" y="462" class="label">launcher-public-service-prod06.ol.epicgames.com</text>
<rect x="180" y="446" width="566.78" height="22" fill="#4c78a8" rx="3"/>
<text x="754.78" y="462" class="value">318.56</text>
<text x="10" y="494" class="label">www.steamcommunity.com</text>
<rect x="180" y="478" width="580.0" height="22" fill="#4c78a8" rx="3"/>
<text x="768.0" y="494" class="value">325.99</text>
<line x1="180" y1="30" x2="180" y2="520" stroke="#ccc"/>
<line x1="180" y1="520" x2="760" y2="520" stroke="#ccc"/>
</svg>