<svg xmlns="http://www.w3.org/2000/svg" width="800" height="540">
<style> .label{font-family:DejaVu Sans,Verdana,Geneva,sans-serif;font-size:12px;fill:#333} .value{font-family:DejaVu Sans,Verdana,Geneva,sans-serif;font-size:12px;fill:#555} </style>
<text x="10" y="20" class="label">延迟柱状图（越低越好，Top 15），单位 ms</text>
<text x="10" y="46" class="label">rockstargames.com</text>
<rect x="180" y="30" width="170.86" height="22" fill="#4c78a8" rx="3"/>
<text x="358.86" y="46" class="value">56.49</text>
<text x="10" y="78" class="label">socialclub.rockstargames.com</text>
<rect x="180" y="62" width="182.26" height="22" fill="#4c78a8" rx="3"/>
<text x="370.26" y="78" class="value">60.26</text>
<text x="10" y="110" class="label">eaassets-a.akamaihd.net</text>
<rect x="180" y="94" width="254.16" height="22" fill="#4c78a8" rx="3"/>
<text x="442.15999999999997" y="110" class="value">84.03</text>
<text x="10" y="142" class="label">battle.net</text>
<rect x="180" y="126" width="267.77" height="22" fill="#4c78a8" rx="3"/>
<text x="455.77" y="142" class="value">88.53</text>
<text x="10" y="174" class="label">epicgames.com</text>
<rect x="180" y="158" width="286.49" height="22" fill="#4c78a8" rx="3"/>
<text x="474.49" y="174" class="value">94.72</text>
<text x="10" y="206" class="label">blizzard.com</text>
<rect x="180" y="190" width="365.55" height="22" fill="#4c78a8" rx="3"/>
<text x="553.55" y="206" class="value">120.86</text>
<text x="10" y="238" class="label">ubi.com</text>
<rect x="180" y="222" width="389.66" height="22" fill="#4c78a8" rx="3"/>
<text x="577.6600000000001" y="238" class="value">128.83</text>
<text x="10" y="270" class="label">unrealengine.com</text>
<rect x="180" y="254" width="426.77" height="22" fill="#4c78a8" rx="3"/>
<text x="614.77" y="270" class="value">141.10</text>
<text x="10" y="302" class="label">static3.cdn.ubi.com</text>
<rect x="180" y="286" width="429.56" height="22" fill="#4c78a8" rx="3"/>
<text x="617.56" y="302" class="value">142.02</text>
<text x="10" y="334" class="label">cdn.akamai.steamstatic.com</text>
<rect x="180" y="318" width="438.45" height="22" fill="#4c78a8" rx="3"/>
<text x="626.45" y="334" class="value">144.96</text>
<text x="10" y="366" class="label">ea.com</text>
<rect x="180" y="350" width="460.68" height="22" fill="#4c78a8" rx="3"/>
<text x="648.6800000000001" y="366" class="value">152.31</text>
<text x="10" y="398" class="label">ubisoft.com</text>
<rect x="180" y="382" width="480.19" height="22" fill="#4c78a8" rx="3"/>
<text x="668.19" y="398" class="value">158.76</text>
<text x="10" y="430" class="label">gog.com</text>
<rect x="180" y="414" width="521.81" height="22" fill="#4c78a8" rx="3"/>
<text x="709.81" y="430" class="value">172.52</text>
<text x="10" y="462" class="label">origin.com</text>
<rect x="180" y="446" width="560.04" height="22" fill="#4c78a8" rx="3"/>
<text x="748.04" y="462" class="value">185.16</text>
<text x="10" y="494" class="label">fortnite.com</text>
<rect x="180" y="478" width="580.0" height="22" fill="#4c78a8" rx="3"/>
<text x="768.0" y="494" class="value">191.76</text>
<line x1="180" y1="30" x2="180" y2="520" stroke="#ccc"/>
<line x1="180" y1="520" x2="760" y2="520" stroke="#ccc"/>
</svg>