<svg xmlns="http://www.w3.org/2000/svg" width="800" height="540">
<style> .label{font-family:DejaVu Sans,Verdana,Geneva,sans-serif;font-size:12px;fill:#333} .value{font-family:DejaVu Sans,Verdana,Geneva,sans-serif;font-size:12px;fill:#555} </style>
<text x="10" y="20" class="label">延迟柱状图（越低越好，Top 15），单位 ms</text>
<text x="10" y="46" class="label">eaassets-a.akamaihd.net</text>
<rect x="180" y="30" width="196.04" height="22" fill="#4c78a8" rx="3"/>
<text x="384.03999999999996" y="46" class="value">73.37</text>
<text x="10" y="78" class="label">rockstargames.com</text>
<rect x="180" y="62" width="203.68" height="22" fill="#4c78a8" rx="3"/>
<text x="391.68" y="78" class="value">76.23</text>
<text x="10" y="110" class="label">battle.net</text>
<rect x="180" y="94" width="218.0" height="22" fill="#4c78a8" rx="3"/>
<text x="406.0" y="110" class="value">81.59</text>
<text x="10" y="142" class="label">socialclub.rockstargames.com</text>
<rect x="180" y="126" width="222.52" height="22" fill="#4c78a8" rx="3"/>
<text x="410.52" y="142" class="value">83.28</text>
<text x="10" y="174" class="label">blizzard.com</text>
<rect x="180" y="158" width="229.28" height="22" fill="#4c78a8" rx="3"/>
<text x="417.28" y="174" class="value">85.81</text>
<text x="10" y="206" class="label">ea.com</text>
<rect x="180" y="190" width="301.64" height="22" fill="#4c78a8" rx="3"/>
<text x="489.64" y="206" class="value">112.89</text>
<text x="10" y="238" class="label">community.akamai.steamstatic.com</text>
<rect x="180" y="222" width="307.14" height="22" fill="#4c78a8" rx="3"/>
<text x="495.14" y="238" class="value">114.95</text>
<text x="10" y="270" class="label">ubi.com</text>
<rect x="180" y="254" width="311.1" height="22" fill="#4c78a8" rx="3"/>
<text x="499.1" y="270" class="value">116.43</text>
<text x="10" y="302" class="label">ubisoft.com</text>
<rect x="180" y="286" width="402.93" height="22" fill="#4c78a8" rx="3"/>
<text x="590.9300000000001" y="302" class="value">150.80</text>
<text x="10" y="334" class="label">unrealengine.com</text>
<rect x="180" y="318" width="413.78" height="22" fill="#4c78a8" rx="3"/>
<text x="601.78" y="334" class="value">154.86</text>
<text x="10" y="366" class="label">cdn.cloudflare.steamstatic.com</text>
<rect x="180" y="350" width="426.87" height="22" fill="#4c78a8" rx="3"/>
<text x="614.87" y="366" class="value">159.76</text>
<text x="10" y="398" class="label">epicgames.com</text>
<rect x="180" y="382" width="483.49" height="22" fill="#4c78a8" rx="3"/>
<text x="671.49" y="398" class="value">180.95</text>
<text x="10" y="430" class="label">fortnite.com</text>
<rect x="180" y="414" width="554.43" height="22" fill="#4c78a8" rx="3"/>
<text x="742.43" y="430" class="value">207.50</text>
<text x="10" y="462" class="label">store.akamai.steamstatic.com</text>
<rect x="180" y="446" width="573.67" height="22" fill="#4c78a8" rx="3"/>
<text x="761.67" y="462" class="value">214.70</text>
<text x="10" y="494" class="label">origin.com</text>
<rect x="180" y="478" width="580.0" height="22" fill="#4c78a8" rx="3"/>
<text x="768.0" y="494" class="value">217.07</text>
<line x1="180" y1="30" x2="180" y2="520" stroke="#ccc"/>
<line x1="180" y1="520" x2="760" y2="520" stroke="#ccc"/>
</svg>