<svg xmlns="http://www.w3.org/2000/svg" width="800" height="540">
<style> .label{font-family:DejaVu Sans,Verdana,Geneva,sans-serif;font-size:12px;fill:#333} .value{font-family:DejaVu Sans,Verdana,Geneva,sans-serif;font-size:12px;fill:#555} </style>
<text x="10" y="20" class="label">延迟柱状图（越低越好，Top 15），单位 ms</text>
<text x="10" y="46" class="label">rockstargames.com</text>
<rect x="180" y="30" width="179.21" height="22" fill="#4c78a8" rx="3"/>
<text x="367.21000000000004" y="46" class="value">68.30</text>
<text x="10" y="78" class="label">ea.com</text>
<rect x="180" y="62" width="233.55" height="22" fill="#4c78a8" rx="3"/>
<text x="421.55" y="78" class="value">89.01</text>
<text x="10" y="110" class="label">origin.com</text>
<rect x="180" y="94" width="245.83" height="22" fill="#4c78a8" rx="3"/>
<text x="433.83000000000004" y="110" class="value">93.69</text>
<text x="10" y="142" class="label">eaassets-a.akamaihd.net</text>
<rect x="180" y="126" width="307.38" height="22" fill="#4c78a8" rx="3"/>
<text x="495.38" y="142" class="value">117.15</text>
<text x="10" y="174" class="label">battle.net</text>
<rect x="180" y="158" width="414.83" height="22" fill="#4c78a8" rx="3"/>
<text x="602.8299999999999" y="174" class="value">158.10</text>
<text x="10" y="206" class="label">socialclub.rockstargames.com</text>
<rect x="180" y="190" width="420.44" height="22" fill="#4c78a8" rx="3"/>
<text x="608.44" y="206" class="value">160.24</text>
<text x="10" y="238" class="label">ubi.com</text>
<rect x="180" y="222" width="454.79" height="22" fill="#4c78a8" rx="3"/>
<text x="642.79" y="238" class="value">173.33</text>
<text x="10" y="270" class="label">api.steampowered.com</text>
<rect x="180" y="254" width="466.65" height="22" fill="#4c78a8" rx="3"/>
<text x="654.65" y="270" class="value">177.85</text>
<text x="10" y="302" class="label">community.akamai.steamstatic.com</text>
<rect x="180" y="286" width="474.39" height="22" fill="#4c78a8" rx="3"/>
<text x="662.39" y="302" class="value">180.80</text>
<text x="10" y="334" class="label">cdn.cloudflare.steamstatic.com</text>
<rect x="180" y="318" width="485.8" height="22" fill="#4c78a8" rx="3"/>
<text x="673.8" y="334" class="value">185.15</text>
<text x="10" y="366" class="label">blizzard.com</text>
<rect x="180" y="350" width="497.56" height="22" fill="#4c78a8" rx="3"/>
<text x="685.56" y="366" class="value">189.63</text>
<text x="10" y="398" class="label">ubisoft.com</text>
<rect x="180" y="382" width="559.27" height="22" fill="#4c78a8" rx="3"/>
<text x="747.27" y="398" class="value">213.15</text>
<text x="10" y="430" class="label">cdn.akamai.steamstatic.com</text>
<rect x="180" y="414" width="576.51" height="22" fill="#4c78a8" rx="3"/>
<text x="764.51" y="430" class="value">219.72</text>
<text x="10" y="462" class="label">steam-chat.com</text>
<rect x="180" y="446" width="579.92" height="22" fill="#4c78a8" rx="3"/>
<text x="767.92" y="462" class="value">221.02</text>
<text x="10" y="494" class="label">unrealengine.com</text>
<rect x="180" y="478" width="580.0" height="22" fill="#4c78a8" rx="3"/>
<text x="768.0" y="494" class="value">221.05</text>
<line x1="180" y1="30" x2="180" y2="520" stroke="#ccc"/>
<line x1="180" y1="520" x2="760" y2="520" stroke="#ccc"/>
</svg>