<svg xmlns="http://www.w3.org/2000/svg" width="800" height="540">
<style> .label{font-family:DejaVu Sans,Verdana,Geneva,sans-serif;font-size:12px;fill:#333} .value{font-family:DejaVu Sans,Verdana,Geneva,sans-serif;font-size:12px;fill:#555} </style>
<text x="10" y="20" class="label">延迟柱状图（越低越好，Top 15），单位 ms</text>
<text x="10" y="46" class="label">rockstargames.com</text>
<rect x="180" y="30" width="83.24" height="22" fill="#4c78a8" rx="3"/>
<text x="271.24" y="46" class="value">40.49</text>
<text x="10" y="78" class="label">ea.com</text>
<rect x="180" y="62" width="93.0" height="22" fill="#4c78a8" rx="3"/>
<text x="281.0" y="78" class="value">45.24</text>
<text x="10" y="110" class="label">eaassets-a.akamaihd.net</text>
<rect x="180" y="94" width="99.03" height="22" fill="#4c78a8" rx="3"/>
<text x="287.03" y="110" class="value">48.17</text>
<text x="10" y="142" class="label">ubisoft.com</text>
<rect x="180" y="126" width="203.77" height="22" fill="#4c78a8" rx="3"/>
<text x="391.77" y="142" class="value">99.12</text>
<text x="10" y="174" class="label">origin.com</text>
<rect x="180" y="158" width="245.95" height="22" fill="#4c78a8" rx="3"/>
<text x="433.95" y="174" class="value">119.64</text>
<text x="10" y="206" class="label">steamcdn-a.akamaihd.net</text>
<rect x="180" y="190" width="274.1" height="22" fill="#4c78a8" rx="3"/>
<text x="462.1" y="206" class="value">133.33</text>
<text x="10" y="238" class="label">store.akamai.steamstatic.com</text>
<rect x="180" y="222" width="283.58" height="22" fill="#4c78a8" rx="3"/>
<text x="471.58" y="238" class="value">137.94</text>
<text x="10" y="270" class="label">easyanticheat.net</text>
<rect x="180" y="254" width="297.9" height="22" fill="#4c78a8" rx="3"/>
<text x="485.9" y="270" class="value">144.91</text>
<text x="10" y="302" class="label">community.akamai.steamstatic.com</text>
<rect x="180" y="286" width="313.22" height="22" fill="#4c78a8" rx="3"/>
<text x="501.22" y="302" class="value">152.36</text>
<text x="10" y="334" class="label">cdn.akamai.steamstatic.com</text>
<rect x="180" y="318" width="382.21" height="22" fill="#4c78a8" rx="3"/>
<text x="570.21" y="334" class="value">185.92</text>
<text x="10" y="366" class="label">steam-chat.com</text>
<rect x="180" y="350" width="478.63" height="22" fill="#4c78a8" rx="3"/>
<text x="666.63" y="366" class="value">232.82</text>
<text x="10" y="398" class="label">www.steamcommunity.com</text>
<rect x="180" y="382" width="482.19" height="22" fill="#4c78a8" rx="3"/>
<text x="670.19" y="398" class="value">234.55</text>
<text x="10" y="430" class="label">cdn.cloudflare.steamstatic.com</text>
<rect x="180" y="414" width="506.18" height="22" fill="#4c78a8" rx="3"/>
<text x="694.1800000000001" y="430" class="value">246.22</text>
<text x="10" y="462" class="label">launcher-public-service-prod06.ol.epicgames.com</text>
<rect x="180" y="446" width="548.96" height="22" fill="#4c78a8" rx="3"/>
<text x="736.96" y="462" class="value">267.03</text>
<text x="10" y="494" class="label">api.steampowered.com</text>
<rect x="180" y="478" width="580.0" height="22" fill="#4c78a8" rx="3"/>
<text x="768.0" y="494" class="value">282.13</text>
<line x1="180" y1="30" x2="180" y2="520" stroke="#ccc"/>
<line x1="180" y1="520" x2="760" y2="520" stroke="#ccc"/>
</svg>