<svg xmlns="http://www.w3.org/2000/svg" width="800" height="540">
<style> .label{font-family:DejaVu Sans,Verdana,Geneva,sans-serif;font-size:12px;fill:#333} .value{font-family:DejaVu Sans,Verdana,Geneva,sans-serif;font-size:12px;fill:#555} </style>
<text x="10" y="20" class="label">延迟柱状图（越低越好，Top 15），单位 ms</text>
<text x="10" y="46" class="label">community.akamai.steamstatic.com</text>
<rect x="180" y="30" width="289.37" height="22" fill="#4c78a8" rx="3"/>
<text x="477.37" y="46" class="value">106.20</text>
<text x="10" y="78" class="label">steamcdn-a.akamaihd.net</text>
<rect x="180" y="62" width="329.56" height="22" fill="#4c78a8" rx="3"/>
<text x="517.56" y="78" class="value">120.95</text>
<text x="10" y="110" class="label">rockstargames.com</text>
<rect x="180" y="94" width="378.42" height="22" fill="#4c78a8" rx="3"/>
<text x="566.4200000000001" y="110" class="value">138.88</text>
<text x="10" y="142" class="label">eaassets-a.akamaihd.net</text>
<rect x="180" y="126" width="385.07" height="22" fill="#4c78a8" rx="3"/>
<text x="573.0699999999999" y="142" class="value">141.32</text>
<text x="10" y="174" class="label">ubi.com</text>
<rect x="180" y="158" width="409.1" height="22" fill="#4c78a8" rx="3"/>
<text x="597.1" y="174" class="value">150.14</text>
<text x="10" y="206" class="label">cdn.akamai.steamstatic.com</text>
<rect x="180" y="190" width="418.23" height="22" fill="#4c78a8" rx="3"/>
<text x="606.23" y="206" class="value">153.49</text>
<text x="10" y="238" class="label">blizzard.com</text>
<rect x="180" y="222" width="419.24" height="22" fill="#4c78a8" rx="3"/>
<text x="607.24" y="238" class="value">153.86</text>
<text x="10" y="270" class="label">store.akamai.steamstatic.com</text>
<rect x="180" y="254" width="422.75" height="22" fill="#4c78a8" rx="3"/>
<text x="610.75" y="270" class="value">155.15</text>
<text x="10" y="302" class="label">easyanticheat.net</text>
<rect x="180" y="286" width="474.11" height="22" fill="#4c78a8" rx="3"/>
<text x="662.11" y="302" class="value">174.00</text>
<text x="10" y="334" class="label">static3.cdn.ubi.com</text>
<rect x="180" y="318" width="485.07" height="22" fill="#4c78a8" rx="3"/>
<text x="673.0699999999999" y="334" class="value">178.02</text>
<text x="10" y="366" class="label">cdn.cloudflare.steamstatic.com</text>
<rect x="180" y="350" width="489.65" height="22" fill="#4c78a8" rx="3"/>
<text x="677.65" y="366" class="value">179.70</text>
<text x="10" y="398" class="label">socialclub.rockstargames.com</text>
<rect x="180" y="382" width="514.01" height="22" fill="#4c78a8" rx="3"/>
<text x="702.01" y="398" class="value">188.64</text>
<text x="10" y="430" class="label">launcher-public-service-prod06.ol.epicgames.com</text>
<rect x="180" y="414" width="540.44" height="22" fill="#4c78a8" rx="3"/>
<text x="728.44" y="430" class="value">198.34</text>
<text x="10" y="462" class="label">ubisoft.com</text>
<rect x="180" y="446" width="562.59" height="22" fill="#4c78a8" rx="3"/>
<text x="750.59" y="462" class="value">206.47</text>
<text x="10" y="494" class="label">epicgames.com</text>
<rect x="180" y="478" width="580.0" height="22" fill="#4c78a8" rx="3"/>
<text x="768.0" y="494" class="value">212.86</text>
<line x1="180" y1="30" x2="180" y2="520" stroke="#ccc"/>
<line x1="180" y1="520" x2="760" y2="520" stroke="#ccc"/>
</svg>