<svg xmlns="http://www.w3.org/2000/svg" width="800" height="540">
<style> .label{font-family:DejaVu Sans,Verdana,Geneva,sans-serif;font-size:12px;fill:#333} .value{font-family:DejaVu Sans,Verdana,Geneva,sans-serif;font-size:12px;fill:#555} </style>
<text x="10" y="20" class="label">延迟柱状图（越低越好，Top 15），单位 ms</text>
<text x="10" y="46" class="label">battle.net</text>
<rect x="180" y="30" width="235.91" height="22" fill="#4c78a8" rx="3"/>
<text x="423.90999999999997" y="46" class="value">78.41</text>
<text x="10" y="78" class="label">rockstargames.com</text>
<rect x="180" y="62" width="239.21" height="22" fill="#4c78a8" rx="3"/>
<text x="427.21000000000004" y="78" class="value">79.51</text>
<text x="10" y="110" class="label">unrealengine.com</text>
<rect x="180" y="94" width="255.94" height="22" fill="#4c78a8" rx="3"/>
<text x="443.94" y="110" class="value">85.07</text>
<text x="10" y="142" class="label">blizzard.com</text>
<rect x="180" y="126" width="300.14" height="22" fill="#4c78a8" rx="3"/>
<text x="488.14" y="142" class="value">99.76</text>
<text x="10" y="174" class="label">ubi.com</text>
<rect x="180" y="158" width="306.73" height="22" fill="#4c78a8" rx="3"/>
<text x="494.73" y="174" class="value">101.95</text>
<text x="10" y="206" class="label">socialclub.rockstargames.com</text>
<rect x="180" y="190" width="319.91" height="22" fill="#4c78a8" rx="3"/>
<text x="507.91" y="206" class="value">106.33</text>
<text x="10" y="238" class="label">ea.com</text>
<rect x="180" y="222" width="331.7" height="22" fill="#4c78a8" rx="3"/>
<text x="519.7" y="238" class="value">110.25</text>
<text x="10" y="270" class="label">community.akamai.steamstatic.com</text>
<rect x="180" y="254" width="371.62" height="22" fill="#4c78a8" rx="3"/>
<text x="559.62" y="270" class="value">123.52</text>
<text x="10" y="302" class="label">fortnite.com</text>
<rect x="180" y="286" width="394.52" height="22" fill="#4c78a8" rx="3"/>
<text x="582.52" y="302" class="value">131.13</text>
<text x="10" y="334" class="label">static3.cdn.ubi.com</text>
<rect x="180" y="318" width="425.0" height="22" fill="#4c78a8" rx="3"/>
<text x="613.0" y="334" class="value">141.26</text>
<text x="10" y="366" class="label">steamcdn-a.akamaihd.net</text>
<rect x="180" y="350" width="461.13" height="22" fill="#4c78a8" rx="3"/>
<text x="649.13" y="366" class="value">153.27</text>
<text x="10" y="398" class="label">cdn.akamai.steamstatic.com</text>
<rect x="180" y="382" width="467.09" height="22" fill="#4c78a8" rx="3"/>
<text x="655.0899999999999" y="398" class="value">155.25</text>
<text x="10" y="430" class="label">origin.com</text>
<rect x="180" y="414" width="543.54" height="22" fill="#4c78a8" rx="3"/>
<text x="731.54" y="430" class="value">180.66</text>
<text x="10" y="462" class="label">gog.com</text>
<rect x="180" y="446" width="570.88" height="22" fill="#4c78a8" rx="3"/>
<text x="758.88" y="462" class="value">189.75</text>
<text x="10" y="494" class="label">launcher-public-service-prod06.ol.epicgames.com</text>
<rect x="180" y="478" width="580.0" height="22" fill="#4c78a8" rx="3"/>
<text x="768.0" y="494" class="value">192.78</text>
<line x1="180" y1="30" x2="180" y2="520" stroke="#ccc"/>
<line x1="180" y1="520" x2="760" y2="520" stroke="#ccc"/>
</svg>