<svg xmlns="http://www.w3.org/2000/svg" width="800" height="540">
<style> .label{font-family:DejaVu Sans,Verdana,Geneva,sans-serif;font-size:12px;fill:#333} .value{font-family:DejaVu Sans,Verdana,Geneva,sans-serif;font-size:12px;fill:#555} </style>
<text x="10" y="20" class="label">延迟柱状图（越低越好，Top 15），单位 ms</text>
<text x="10" y="46" class="label">eaassets-a.akamaihd.net</text>
<rect x="180" y="30" width="339.82" height="22" fill="#4c78a8" rx="3"/>
<text x="527.8199999999999" y="46" class="value">121.59</text>
<text x="10" y="78" class="label">easyanticheat.net</text>
<rect x="180" y="62" width="380.23" height="22" fill="#4c78a8" rx="3"/>
<text x="568.23" y="78" class="value">136.05</text>
<text x="10" y="110" class="label">blizzard.com</text>
<rect x="180" y="94" width="395.54" height="22" fill="#4c78a8" rx="3"/>
<text x="583.54" y="110" class="value">141.53</text>
<text x="10" y="142" class="label">rockstargames.com</text>
<rect x="180" y="126" width="408.26" height="22" fill="#4c78a8" rx="3"/>
<text x="596.26" y="142" class="value">146.08</text>
<text x="10" y="174" class="label">battle.net</text>
<rect x="180" y="158" width="440.51" height="22" fill="#4c78a8" rx="3"/>
<text x="628.51" y="174" class="value">157.62</text>
<text x="10" y="206" class="label">steamcdn-a.akamaihd.net</text>
<rect x="180" y="190" width="466.53" height="22" fill="#4c78a8" rx="3"/>
<text x="654.53" y="206" class="value">166.93</text>
<text x="10" y="238" class="label">ea.com</text>
<rect x="180" y="222" width="474.44" height="22" fill="#4c78a8" rx="3"/>
<text x="662.44" y="238" class="value">169.76</text>
<text x="10" y="270" class="label">ubi.com</text>
<rect x="180" y="254" width="481.15" height="22" fill="#4c78a8" rx="3"/>
<text x="669.15" y="270" class="value">172.16</text>
<text x="10" y="302" class="label">ubisoft.com</text>
<rect x="180" y="286" width="497.75" height="22" fill="#4c78a8" rx="3"/>
<text x="685.75" y="302" class="value">178.10</text>
<text x="10" y="334" class="label">launcher-public-service-prod06.ol.epicgames.com</text>
<rect x="180" y="318" width="500.52" height="22" fill="#4c78a8" rx="3"/>
<text x="688.52" y="334" class="value">179.09</text>
<text x="10" y="366" class="label">steam-chat.com</text>
<rect x="180" y="350" width="526.06" height="22" fill="#4c78a8" rx="3"/>
<text x="714.06" y="366" class="value">188.23</text>
<text x="10" y="398" class="label">socialclub.rockstargames.com</text>
<rect x="180" y="382" width="554.82" height="22" fill="#4c78a8" rx="3"/>
<text x="742.82" y="398" class="value">198.52</text>
<text x="10" y="430" class="label">cdn.cloudflare.steamstatic.com</text>
<rect x="180" y="414" width="559.23" height="22" fill="#4c78a8" rx="3"/>
<text x="747.23" y="430" class="value">200.10</text>
<text x="10" y="462" class="label">static3.cdn.ubi.com</text>
<rect x="180" y="446" width="574.38" height="22" fill="#4c78a8" rx="3"/>
<text x="762.38" y="462" class="value">205.52</text>
<text x="10" y="494" class="label">origin.com</text>
<rect x="180" y="478" width="580.0" height="22" fill="#4c78a8" rx="3"/>
<text x="768.0" y="494" class="value">207.53</text>
<line x1="180" y1="30" x2="180" y2="520" stroke="#ccc"/>
<line x1="180" y1="520" x2="760" y2="520" stroke="#ccc"/>
</svg>