<svg xmlns="http://www.w3.org/2000/svg" width="800" height="540">
<style> .label{font-family:DejaVu Sans,Verdana,Geneva,sans-serif;font-size:12px;fill:#333} .value{font-family:DejaVu Sans,Verdana,Geneva,sans-serif;font-size:12px;fill:#555} </style>
<text x="10" y="20" class="label">延迟柱状图（越低越好，Top 15），单位 ms</text>
<text x="10" y="46" class="label">eaassets-a.akamaihd.net</text>
<rect x="180" y="30" width="217.59" height="22" fill="#4c78a8" rx="3"/>
<text x="405.59000000000003" y="46" class="value">70.05</text>
<text x="10" y="78" class="label">rockstargames.com</text>
<rect x="180" y="62" width="233.56" height="22" fill="#4c78a8" rx="3"/>
<text x="421.56" y="78" class="value">75.19</text>
<text x="10" y="110" class="label">ea.com</text>
<rect x="180" y="94" width="256.79" height="22" fill="#4c78a8" rx="3"/>
<text x="444.79" y="110" class="value">82.67</text>
<text x="10" y="142" class="label">origin.com</text>
<rect x="180" y="126" width="305.69" height="22" fill="#4c78a8" rx="3"/>
<text x="493.69" y="142" class="value">98.41</text>
<text x="10" y="174" class="label">easyanticheat.net</text>
<rect x="180" y="158" width="398.32" height="22" fill="#4c78a8" rx="3"/>
<text x="586.3199999999999" y="174" class="value">128.23</text>
<text x="10" y="206" class="label">blizzard.com</text>
<rect x="180" y="190" width="428.14" height="22" fill="#4c78a8" rx="3"/>
<text x="616.14" y="206" class="value">137.83</text>
<text x="10" y="238" class="label">ubisoft.com</text>
<rect x="180" y="222" width="444.07" height="22" fill="#4c78a8" rx="3"/>
<text x="632.0699999999999" y="238" class="value">142.96</text>
<text x="10" y="270" class="label">cdn.cloudflare.steamstatic.com</text>
<rect x="180" y="254" width="447.11" height="22" fill="#4c78a8" rx="3"/>
<text x="635.11" y="270" class="value">143.94</text>
<text x="10" y="302" class="label">socialclub.rockstargames.com</text>
<rect x="180" y="286" width="463.98" height="22" fill="#4c78a8" rx="3"/>
<text x="651.98" y="302" class="value">149.37</text>
<text x="10" y="334" class="label">steamcdn-a.akamaihd.net</text>
<rect x="180" y="318" width="464.63" height="22" fill="#4c78a8" rx="3"/>
<text x="652.63" y="334" class="value">149.58</text>
<text x="10" y="366" class="label">ubi.com</text>
<rect x="180" y="350" width="473.95" height="22" fill="#4c78a8" rx="3"/>
<text x="661.95" y="366" class="value">152.58</text>
<text x="10" y="398" class="label">static3.cdn.ubi.com</text>
<rect x="180" y="382" width="495.26" height="22" fill="#4c78a8" rx="3"/>
<text x="683.26" y="398" class="value">159.44</text>
<text x="10" y="430" class="label">community.akamai.steamstatic.com</text>
<rect x="180" y="414" width="571.27" height="22" fill="#4c78a8" rx="3"/>
<text x="759.27" y="430" class="value">183.91</text>
<text x="10" y="462" class="label">api.steampowered.com</text>
<rect x="180" y="446" width="578.66" height="22" fill="#4c78a8" rx="3"/>
<text x="766.66" y="462" class="value">186.29</text>
<text x="10" y="494" class="label">battle.net</text>
<rect x="180" y="478" width="580.0" height="22" fill="#4c78a8" rx="3"/>
<text x="768.0" y="494" class="value">186.72</text>
<line x1="180" y1="30" x2="180" y2="520" stroke="#ccc"/>
<line x1="180" y1="520" x2="760" y2="520" stroke="#ccc"/>
</svg>