<svg xmlns="http://www.w3.org/2000/svg" width="800" height="540">
<style> .label{font-family:DejaVu Sans,Verdana,Geneva,sans-serif;font-size:12px;fill:#333} .value{font-family:DejaVu Sans,Verdana,Geneva,sans-serif;font-size:12px;fill:#555} </style>
<text x="10" y="20" class="label">延迟柱状图（越低越好，Top 15），单位 ms</text>
<text x="10" y="46" class="label">rockstargames.com</text>
<rect x="180" y="30" width="152.3" height="22" fill="#4c78a8" rx="3"/>
<text x="340.3" y="46" class="value">62.17</text>
<text x="10" y="78" class="label">unrealengine.com</text>
<rect x="180" y="62" width="159.06" height="22" fill="#4c78a8" rx="3"/>
<text x="347.06" y="78" class="value">64.93</text>
<text x="10" y="110" class="label">blizzard.com</text>
<rect x="180" y="94" width="219.57" height="22" fill="#4c78a8" rx="3"/>
<text x="407.57" y="110" class="value">89.63</text>
<text x="10" y="142" class="label">battle.net</text>
<rect x="180" y="126" width="223.51" height="22" fill="#4c78a8" rx="3"/>
<text x="411.51" y="142" class="value">91.24</text>
<text x="10" y="174" class="label">eaassets-a.akamaihd.net</text>
<rect x="180" y="158" width="229.3" height="22" fill="#4c78a8" rx="3"/>
<text x="417.3" y="174" class="value">93.60</text>
<text x="10" y="206" class="label">socialclub.rockstargames.com</text>
<rect x="180" y="190" width="248.55" height="22" fill="#4c78a8" rx="3"/>
<text x="436.55" y="206" class="value">101.46</text>
<text x="10" y="238" class="label">ubisoft.com</text>
<rect x="180" y="222" width="287.62" height="22" fill="#4c78a8" rx="3"/>
<text x="475.62" y="238" class="value">117.41</text>
<text x="10" y="270" class="label">steamcdn-a.akamaihd.net</text>
<rect x="180" y="254" width="292.65" height="22" fill="#4c78a8" rx="3"/>
<text x="480.65" y="270" class="value">119.46</text>
<text x="10" y="302" class="label">epicgames.com</text>
<rect x="180" y="286" width="303.99" height="22" fill="#4c78a8" rx="3"/>
<text x="491.99" y="302" class="value">124.09</text>
<text x="10" y="334" class="label">origin.com</text>
<rect x="180" y="318" width="326.23" height="22" fill="#4c78a8" rx="3"/>
<text x="514.23" y="334" class="value">133.17</text>
<text x="10" y="366" class="label">fortnite.com</text>
<rect x="180" y="350" width="331.06" height="22" fill="#4c78a8" rx="3"/>
<text x="519.06" y="366" class="value">135.14</text>
<text x="10" y="398" class="label">ubi.com</text>
<rect x="180" y="382" width="338.14" height="22" fill="#4c78a8" rx="3"/>
<text x="526.14" y="398" class="value">138.03</text>
<text x="10" y="430" class="label">ea.com</text>
<rect x="180" y="414" width="346.39" height="22" fill="#4c78a8" rx="3"/>
<text x="534.39" y="430" class="value">141.40</text>
<text x="10" y="462" class="label">cdn.akamai.steamstatic.com</text>
<rect x="180" y="446" width="470.15" height="22" fill="#4c78a8" rx="3"/>
<text x="658.15" y="462" class="value">191.92</text>
<text x="10" y="494" class="label">cdn.cloudflare.steamstatic.com</text>
<rect x="180" y="478" width="580.0" height="22" fill="#4c78a8" rx="3"/>
<text x="768.0" y="494" class="value">236.76</text>
<line x1="180" y1="30" x2="180" y2="520" stroke="#ccc"/>
<line x1="180" y1="520" x2="760" y2="520" stroke="#ccc"/>
</svg>