<svg xmlns="http://www.w3.org/2000/svg" width="800" height="540">
<style> .label{font-family:DejaVu Sans,Verdana,Geneva,sans-serif;font-size:12px;fill:#333} .value{font-family:DejaVu Sans,Verdana,Geneva,sans-serif;font-size:12px;fill:#555} </style>
<text x="10" y="20" class="label">延迟柱状图（越低越好，Top 15），单位 ms</text>
<text x="10" y="46" class="label">rockstargames.com</text>
<rect x="180" y="30" width="92.04" height="22" fill="#4c78a8" rx="3"/>
<text x="280.04" y="46" class="value">40.77</text>
<text x="10" y="78" class="label">cdn.cloudflare.steamstatic.com</text>
<rect x="180" y="62" width="175.24" height="22" fill="#4c78a8" rx="3"/>
<text x="363.24" y="78" class="value">77.63</text>
<text x="10" y="110" class="label">eaassets-a.akamaihd.net</text>
<rect x="180" y="94" width="176.46" height="22" fill="#4c78a8" rx="3"/>
<text x="364.46000000000004" y="110" class="value">78.17</text>
<text x="10" y="142" class="label">ubisoft.com</text>
<rect x="180" y="126" width="185.45" height="22" fill="#4c78a8" rx="3"/>
<text x="373.45" y="142" class="value">82.15</text>
<text x="10" y="174" class="label">ea.com</text>
<rect x="180" y="158" width="252.49" height="22" fill="#4c78a8" rx="3"/>
<text x="440.49" y="174" class="value">111.85</text>
<text x="10" y="206" class="label">origin.com</text>
<rect x="180" y="190" width="261.66" height="22" fill="#4c78a8" rx="3"/>
<text x="449.66" y="206" class="value">115.91</text>
<text x="10" y="238" class="label">cdn.akamai.steamstatic.com</text>
<rect x="180" y="222" width="332.95" height="22" fill="#4c78a8" rx="3"/>
<text x="520.95" y="238" class="value">147.49</text>
<text x="10" y="270" class="label">static3.cdn.ubi.com</text>
<rect x="180" y="254" width="369.88" height="22" fill="#4c78a8" rx="3"/>
<text x="557.88" y="270" class="value">163.85</text>
<text x="10" y="302" class="label">easyanticheat.net</text>
<rect x="180" y="286" width="409.95" height="22" fill="#4c78a8" rx="3"/>
<text x="597.95" y="302" class="value">181.60</text>
<text x="10" y="334" class="label">community.akamai.steamstatic.com</text>
<rect x="180" y="318" width="413.92" height="22" fill="#4c78a8" rx="3"/>
<text x="601.9200000000001" y="334" class="value">183.36</text>
<text x="10" y="366" class="label">steamcdn-a.akamaihd.net</text>
<rect x="180" y="350" width="414.67" height="22" fill="#4c78a8" rx="3"/>
<text x="602.6700000000001" y="366" class="value">183.69</text>
<text x="10" y="398" class="label">store.akamai.steamstatic.com</text>
<rect x="180" y="382" width="438.08" height="22" fill="#4c78a8" rx="3"/>
<text x="626.0799999999999" y="398" class="value">194.06</text>
<text x="10" y="430" class="label">www.steamcommunity.com</text>
<rect x="180" y="414" width="533.81" height="22" fill="#4c78a8" rx="3"/>
<text x="721.81" y="430" class="value">236.47</text>
<text x="10" y="462" class="label">steam-chat.com</text>
<rect x="180" y="446" width="538.78" height="22" fill="#4c78a8" rx="3"/>
<text x="726.78" y="462" class="value">238.67</text>
<text x="10" y="494" class="label">api.steampowered.com</text>
<rect x="180" y="478" width="580.0" height="22" fill="#4c78a8" rx="3"/>
<text x="768.0" y="494" class="value">256.93</text>
<line x1="180" y1="30" x2="180" y2="520" stroke="#ccc"/>
<line x1="180" y1="520" x2="760" y2="520" stroke="#ccc"/>
</svg>