<svg xmlns="http://www.w3.org/2000/svg" width="800" height="540">
<style> .label{font-family:DejaVu Sans,Verdana,Geneva,sans-serif;font-size:12px;fill:#333} .value{font-family:DejaVu Sans,Verdana,Geneva,sans-serif;font-size:12px;fill:#555} </style>
<text x="10" y="20" class="label">延迟柱状图（越低越好，Top 15），单位 ms</text>
<text x="10" y="46" class="label">rockstargames.com</text>
<rect x="180" y="30" width="77.75" height="22" fill="#4c78a8" rx="3"/>
<text x="265.75" y="46" class="value">37.92</text>
<text x="10" y="78" class="label">origin.com</text>
<rect x="180" y="62" width="177.22" height="22" fill="#4c78a8" rx="3"/>
<text x="365.22" y="78" class="value">86.43</text>
<text x="10" y="110" class="label">cdn.akamai.steamstatic.com</text>
<rect x="180" y="94" width="222.31" height="22" fill="#4c78a8" rx="3"/>
<text x="410.31" y="110" class="value">108.42</text>
<text x="10" y="142" class="label">ubisoft.com</text>
<rect x="180" y="126" width="235.05" height="22" fill="#4c78a8" rx="3"/>
<text x="423.05" y="142" class="value">114.63</text>
<text x="10" y="174" class="label">steamcdn-a.akamaihd.net</text>
<rect x="180" y="158" width="238.49" height="22" fill="#4c78a8" rx="3"/>
<text x="426.49" y="174" class="value">116.31</text>
<text x="10" y="206" class="label">ea.com</text>
<rect x="180" y="190" width="246.61" height="22" fill="#4c78a8" rx="3"/>
<text x="434.61" y="206" class="value">120.27</text>
<text x="10" y="238" class="label">community.akamai.steamstatic.com</text>
<rect x="180" y="222" width="277.1" height="22" fill="#4c78a8" rx="3"/>
<text x="465.1" y="238" class="value">135.14</text>
<text x="10" y="270" class="label">store.akamai.steamstatic.com</text>
<rect x="180" y="254" width="291.62" height="22" fill="#4c78a8" rx="3"/>
<text x="479.62" y="270" class="value">142.22</text>
<text x="10" y="302" class="label">easyanticheat.net</text>
<rect x="180" y="286" width="337.3" height="22" fill="#4c78a8" rx="3"/>
<text x="525.3" y="302" class="value">164.50</text>
<text x="10" y="334" class="label">steam-chat.com</text>
<rect x="180" y="318" width="418.4" height="22" fill="#4c78a8" rx="3"/>
<text x="606.4" y="334" class="value">204.05</text>
<text x="10" y="366" class="label">cdn.cloudflare.steamstatic.com</text>
<rect x="180" y="350" width="456.23" height="22" fill="#4c78a8" rx="3"/>
<text x="644.23" y="366" class="value">222.50</text>
<text x="10" y="398" class="label">api.steampowered.com</text>
<rect x="180" y="382" width="463.7" height="22" fill="#4c78a8" rx="3"/>
<text x="651.7" y="398" class="value">226.14</text>
<text x="10" y="430" class="label">eaassets-a.akamaihd.net</text>
<rect x="180" y="414" width="525.38" height="22" fill="#4c78a8" rx="3"/>
<text x="713.38" y="430" class="value">256.22</text>
<text x="10" y="462" class="label">www.steamcommunity.com</text>
<rect x="180" y="446" width="557.75" height="22" fill="#4c78a8" rx="3"/>
<text x="745.75" y="462" class="value">272.01</text>
<text x="10" y="494" class="label">steamcommunity.com</text>
<rect x="180" y="478" width="580.0" height="22" fill="#4c78a8" rx="3"/>
<text x="768.0" y="494" class="value">282.86</text>
<line x1="180" y1="30" x2="180" y2="520" stroke="#ccc"/>
<line x1="180" y1="520" x2="760" y2="520" stroke="#ccc"/>
</svg>