<svg xmlns="http://www.w3.org/2000/svg" width="800" height="540">
<style> .label{font-family:DejaVu Sans,Verdana,Geneva,sans-serif;font-size:12px;fill:#333} .value{font-family:DejaVu Sans,Verdana,Geneva,sans-serif;font-size:12px;fill:#555} </style>
<text x="10" y="20" class="label">延迟柱状图（越低越好，Top 15），单位 ms</text>
<text x="10" y="46" class="label">ea.com</text>
<rect x="180" y="30" width="99.46" height="22" fill="#4c78a8" rx="3"/>
<text x="287.46" y="46" class="value">50.30</text>
<text x="10" y="78" class="label">rockstargames.com</text>
<rect x="180" y="62" width="115.98" height="22" fill="#4c78a8" rx="3"/>
<text x="303.98" y="78" class="value">58.65</text>
<text x="10" y="110" class="label">eaassets-a.akamaihd.net</text>
<rect x="180" y="94" width="116.19" height="22" fill="#4c78a8" rx="3"/>
<text x="304.19" y="110" class="value">58.76</text>
<text x="10" y="142" class="label">ubisoft.com</text>
<rect x="180" y="126" width="195.57" height="22" fill="#4c78a8" rx="3"/>
<text x="383.57" y="142" class="value">98.90</text>
<text x="10" y="174" class="label">cdn.cloudflare.steamstatic.com</text>
<rect x="180" y="158" width="236.28" height="22" fill="#4c78a8" rx="3"/>
<text x="424.28" y="174" class="value">119.49</text>
<text x="10" y="206" class="label">community.akamai.steamstatic.com</text>
<rect x="180" y="190" width="237.39" height="22" fill="#4c78a8" rx="3"/>
<text x="425.39" y="206" class="value">120.05</text>
<text x="10" y="238" class="label">origin.com</text>
<rect x="180" y="222" width="246.27" height="22" fill="#4c78a8" rx="3"/>
<text x="434.27" y="238" class="value">124.54</text>
<text x="10" y="270" class="label">cdn.akamai.steamstatic.com</text>
<rect x="180" y="254" width="289.52" height="22" fill="#4c78a8" rx="3"/>
<text x="477.52" y="270" class="value">146.41</text>
<text x="10" y="302" class="label">steamcdn-a.akamaihd.net</text>
<rect x="180" y="286" width="314.13" height="22" fill="#4c78a8" rx="3"/>
<text x="502.13" y="302" class="value">158.86</text>
<text x="10" y="334" class="label">store.akamai.steamstatic.com</text>
<rect x="180" y="318" width="362.44" height="22" fill="#4c78a8" rx="3"/>
<text x="550.44" y="334" class="value">183.29</text>
<text x="10" y="366" class="label">steam-chat.com</text>
<rect x="180" y="350" width="469.9" height="22" fill="#4c78a8" rx="3"/>
<text x="657.9" y="366" class="value">237.63</text>
<text x="10" y="398" class="label">battle.net</text>
<rect x="180" y="382" width="563.59" height="22" fill="#4c78a8" rx="3"/>
<text x="751.59" y="398" class="value">285.01</text>
<text x="10" y="430" class="label">launcher-public-service-prod06.ol.epicgames.com</text>
<rect x="180" y="414" width="569.78" height="22" fill="#4c78a8" rx="3"/>
<text x="757.78" y="430" class="value">288.14</text>
<text x="10" y="462" class="label">easyanticheat.net</text>
<rect x="180" y="446" width="577.07" height="22" fill="#4c78a8" rx="3"/>
<text x="765.07" y="462" class="value">291.83</text>
<text x="10" y="494" class="label">ubi.com</text>
<rect x="180" y="478" width="580.0" height="22" fill="#4c78a8" rx="3"/>
<text x="768.0" y="494" class="value">293.31</text>
<line x1="180" y1="30" x2="180" y2="520" stroke="#ccc"/>
<line x1="180" y1="520" x2="760" y2="520" stroke="#ccc"/>
</svg>