<svg xmlns="http://www.w3.org/2000/svg" width="800" height="540">
<style> .label{font-family:DejaVu Sans,Verdana,Geneva,sans-serif;font-size:12px;fill:#333} .value{font-family:DejaVu Sans,Verdana,Geneva,sans-serif;font-size:12px;fill:#555} </style>
<text x="10" y="20" class="label">延迟柱状图（越低越好，Top 15），单位 ms</text>
<text x="10" y="46" class="label">eaassets-a.akamaihd.net</text>
<rect x="180" y="30" width="144.41" height="22" fill="#4c78a8" rx="3"/>
<text x="332.40999999999997" y="46" class="value">45.12</text>
<text x="10" y="78" class="label">ea.com</text>
<rect x="180" y="62" width="244.17" height="22" fill="#4c78a8" rx="3"/>
<text x="432.16999999999996" y="78" class="value">76.29</text>
<text x="10" y="110" class="label">rockstargames.com</text>
<rect x="180" y="94" width="244.39" height="22" fill="#4c78a8" rx="3"/>
<text x="432.39" y="110" class="value">76.36</text>
<text x="10" y="142" class="label">battle.net</text>
<rect x="180" y="126" width="403.78" height="22" fill="#4c78a8" rx="3"/>
<text x="591.78" y="142" class="value">126.16</text>
<text x="10" y="174" class="label">community.akamai.steamstatic.com</text>
<rect x="180" y="158" width="412.84" height="22" fill="#4c78a8" rx="3"/>
<text x="600.8399999999999" y="174" class="value">128.99</text>
<text x="10" y="206" class="label">www.steamcommunity.com</text>
<rect x="180" y="190" width="418.57" height="22" fill="#4c78a8" rx="3"/>
<text x="606.5699999999999" y="206" class="value">130.78</text>
<text x="10" y="238" class="label">socialclub.rockstargames.com</text>
<rect x="180" y="222" width="422.15" height="22" fill="#4c78a8" rx="3"/>
<text x="610.15" y="238" class="value">131.90</text>
<text x="10" y="270" class="label">blizzard.com</text>
<rect x="180" y="254" width="454.03" height="22" fill="#4c78a8" rx="3"/>
<text x="642.03" y="270" class="value">141.86</text>
<text x="10" y="302" class="label">cdn.akamai.steamstatic.com</text>
<rect x="180" y="286" width="470.41" height="22" fill="#4c78a8" rx="3"/>
<text x="658.4100000000001" y="302" class="value">146.98</text>
<text x="10" y="334" class="label">ubisoft.com</text>
<rect x="180" y="318" width="483.7" height="22" fill="#4c78a8" rx="3"/>
<text x="671.7" y="334" class="value">151.13</text>
<text x="10" y="366" class="label">ubi.com</text>
<rect x="180" y="350" width="497.14" height="22" fill="#4c78a8" rx="3"/>
<text x="685.14" y="366" class="value">155.33</text>
<text x="10" y="398" class="label">store.akamai.steamstatic.com</text>
<rect x="180" y="382" width="500.15" height="22" fill="#4c78a8" rx="3"/>
<text x="688.15" y="398" class="value">156.27</text>
<text x="10" y="430" class="label">easyanticheat.net</text>
<rect x="180" y="414" width="520.73" height="22" fill="#4c78a8" rx="3"/>
<text x="708.73" y="430" class="value">162.70</text>
<text x="10" y="462" class="label">static3.cdn.ubi.com</text>
<rect x="180" y="446" width="576.19" height="22" fill="#4c78a8" rx="3"/>
<text x="764.19" y="462" class="value">180.03</text>
<text x="10" y="494" class="label">origin.com</text>
<rect x="180" y="478" width="580.0" height="22" fill="#4c78a8" rx="3"/>
<text x="768.0" y="494" class="value">181.22</text>
<line x1="180" y1="30" x2="180" y2="520" stroke="#ccc"/>
<line x1="180" y1="520" x2="760" y2="520" stroke="#ccc"/>
</svg>