<svg xmlns="http://www.w3.org/2000/svg" width="800" height="540">
<style> .label{font-family:DejaVu Sans,Verdana,Geneva,sans-serif;font-size:12px;fill:#333} .value{font-family:DejaVu Sans,Verdana,Geneva,sans-serif;font-size:12px;fill:#555} </style>
<text x="10" y="20" class="label">延迟柱状图（越低越好，Top 15），单位 ms</text>
<text x="10" y="46" class="label">steamcdn-a.akamaihd.net</text>
<rect x="180" y="30" width="358.97" height="22" fill="#4c78a8" rx="3"/>
<text x="546.97" y="46" class="value">142.53</text>
<text x="10" y="78" class="label">ubisoft.com</text>
<rect x="180" y="62" width="397.43" height="22" fill="#4c78a8" rx="3"/>
<text x="585.4300000000001" y="78" class="value">157.80</text>
<text x="10" y="110" class="label">cdn.akamai.steamstatic.com</text>
<rect x="180" y="94" width="434.0" height="22" fill="#4c78a8" rx="3"/>
<text x="622.0" y="110" class="value">172.32</text>
<text x="10" y="142" class="label">store.akamai.steamstatic.com</text>
<rect x="180" y="126" width="442.16" height="22" fill="#4c78a8" rx="3"/>
<text x="630.1600000000001" y="142" class="value">175.56</text>
<text x="10" y="174" class="label">community.akamai.steamstatic.com</text>
<rect x="180" y="158" width="446.54" height="22" fill="#4c78a8" rx="3"/>
<text x="634.54" y="174" class="value">177.30</text>
<text x="10" y="206" class="label">eaassets-a.akamaihd.net</text>
<rect x="180" y="190" width="453.64" height="22" fill="#4c78a8" rx="3"/>
<text x="641.64" y="206" class="value">180.12</text>
<text x="10" y="238" class="label">easyanticheat.net</text>
<rect x="180" y="222" width="468.13" height="22" fill="#4c78a8" rx="3"/>
<text x="656.13" y="238" class="value">185.87</text>
<text x="10" y="270" class="label">rockstargames.com</text>
<rect x="180" y="254" width="479.16" height="22" fill="#4c78a8" rx="3"/>
<text x="667.1600000000001" y="270" class="value">190.25</text>
<text x="10" y="302" class="label">www.steamcommunity.com</text>
<rect x="180" y="286" width="494.49" height="22" fill="#4c78a8" rx="3"/>
<text x="682.49" y="302" class="value">196.34</text>
<text x="10" y="334" class="label">battle.net</text>
<rect x="180" y="318" width="536.38" height="22" fill="#4c78a8" rx="3"/>
<text x="724.38" y="334" class="value">212.97</text>
<text x="10" y="366" class="label">ubi.com</text>
<rect x="180" y="350" width="552.14" height="22" fill="#4c78a8" rx="3"/>
<text x="740.14" y="366" class="value">219.23</text>
<text x="10" y="398" class="label">ea.com</text>
<rect x="180" y="382" width="556.4" height="22" fill="#4c78a8" rx="3"/>
<text x="744.4" y="398" class="value">220.92</text>
<text x="10" y="430" class="label">blizzard.com</text>
<rect x="180" y="414" width="557.11" height="22" fill="#4c78a8" rx="3"/>
<text x="745.11" y="430" class="value">221.20</text>
<text x="10" y="462" class="label">fortnite.com</text>
<rect x="180" y="446" width="568.79" height="22" fill="#4c78a8" rx="3"/>
<text x="756.79" y="462" class="value">225.84</text>
<text x="10" y="494" class="label">steamcommunity.com</text>
<rect x="180" y="478" width="580.0" height="22" fill="#4c78a8" rx="3"/>
<text x="768.0" y="494" class="value">230.29</text>
<line x1="180" y1="30" x2="180" y2="520" stroke="#ccc"/>
<line x1="180" y1="520" x2="760" y2="520" stroke="#ccc"/>
</svg>