<svg xmlns="http://www.w3.org/2000/svg" width="800" height="540">
<style> .label{font-family:DejaVu Sans,Verdana,Geneva,sans-serif;font-size:12px;fill:#333} .value{font-family:DejaVu Sans,Verdana,Geneva,sans-serif;font-size:12px;fill:#555} </style>
<text x="10" y="20" class="label">延迟柱状图（越低越好，Top 15），单位 ms</text>
<text x="10" y="46" class="label">eaassets-a.akamaihd.net</text>
<rect x="180" y="30" width="220.74" height="22" fill="#4c78a8" rx="3"/>
<text x="408.74" y="46" class="value">61.00</text>
<text x="10" y="78" class="label">socialclub.rockstargames.com</text>
<rect x="180" y="62" width="250.12" height="22" fill="#4c78a8" rx="3"/>
<text x="438.12" y="78" class="value">69.12</text>
<text x="10" y="110" class="label">rockstargames.com</text>
<rect x="180" y="94" width="253.85" height="22" fill="#4c78a8" rx="3"/>
<text x="441.85" y="110" class="value">70.15</text>
<text x="10" y="142" class="label">blizzard.com</text>
<rect x="180" y="126" width="302.12" height="22" fill="#4c78a8" rx="3"/>
<text x="490.12" y="142" class="value">83.49</text>
<text x="10" y="174" class="label">ubi.com</text>
<rect x="180" y="158" width="314.1" height="22" fill="#4c78a8" rx="3"/>
<text x="502.1" y="174" class="value">86.80</text>
<text x="10" y="206" class="label">epicgames.com</text>
<rect x="180" y="190" width="381.52" height="22" fill="#4c78a8" rx="3"/>
<text x="569.52" y="206" class="value">105.43</text>
<text x="10" y="238" class="label">battle.net</text>
<rect x="180" y="222" width="407.35" height="22" fill="#4c78a8" rx="3"/>
<text x="595.35" y="238" class="value">112.57</text>
<text x="10" y="270" class="label">store.akamai.steamstatic.com</text>
<rect x="180" y="254" width="473.65" height="22" fill="#4c78a8" rx="3"/>
<text x="661.65" y="270" class="value">130.89</text>
<text x="10" y="302" class="label">origin.com</text>
<rect x="180" y="286" width="543.56" height="22" fill="#4c78a8" rx="3"/>
<text x="731.56" y="302" class="value">150.21</text>
<text x="10" y="334" class="label">cdn.cloudflare.steamstatic.com</text>
<rect x="180" y="318" width="562.27" height="22" fill="#4c78a8" rx="3"/>
<text x="750.27" y="334" class="value">155.38</text>
<text x="10" y="366" class="label">ea.com</text>
<rect x="180" y="350" width="563.17" height="22" fill="#4c78a8" rx="3"/>
<text x="751.17" y="366" class="value">155.63</text>
<text x="10" y="398" class="label">easyanticheat.net</text>
<rect x="180" y="382" width="565.45" height="22" fill="#4c78a8" rx="3"/>
<text x="753.45" y="398" class="value">156.26</text>
<text x="10" y="430" class="label">unrealengine.com</text>
<rect x="180" y="414" width="579.17" height="22" fill="#4c78a8" rx="3"/>
<text x="767.17" y="430" class="value">160.05</text>
<text x="10" y="462" class="label">fortnite.com</text>
<rect x="180" y="446" width="579.71" height="22" fill="#4c78a8" rx="3"/>
<text x="767.71" y="462" class="value">160.20</text>
<text x="10" y="494" class="label">steamcdn-a.akamaihd.net</text>
<rect x="180" y="478" width="580.0" height="22" fill="#4c78a8" rx="3"/>
<text x="768.0" y="494" class="value">160.28</text>
<line x1="180" y1="30" x2="180" y2="520" stroke="#ccc"/>
<line x1="180" y1="520" x2="760" y2="520" stroke="#ccc"/>
</svg>