<svg xmlns="http://www.w3.org/2000/svg" width="800" height="540">
<style> .label{font-family:DejaVu Sans,Verdana,Geneva,sans-serif;font-size:12px;fill:#333} .value{font-family:DejaVu Sans,Verdana,Geneva,sans-serif;font-size:12px;fill:#555} </style>
<text x="10" y="20" class="label">延迟柱状图（越低越好，Top 15），单位 ms</text>
<text x="10" y="46" class="label">eaassets-a.akamaihd.net</text>
<rect x="180" y="30" width="204.0" height="22" fill="#4c78a8" rx="3"/>
<text x="392.0" y="46" class="value">66.73</text>
<text x="10" y="78" class="label">ea.com</text>
<rect x="180" y="62" width="271.23" height="22" fill="#4c78a8" rx="3"/>
<text x="459.23" y="78" class="value">88.72</text>
<text x="10" y="110" class="label">rockstargames.com</text>
<rect x="180" y="94" width="304.12" height="22" fill="#4c78a8" rx="3"/>
<text x="492.12" y="110" class="value">99.48</text>
<text x="10" y="142" class="label">cdn.cloudflare.steamstatic.com</text>
<rect x="180" y="126" width="351.88" height="22" fill="#4c78a8" rx="3"/>
<text x="539.88" y="142" class="value">115.10</text>
<text x="10" y="174" class="label">steamcdn-a.akamaihd.net</text>
<rect x="180" y="158" width="381.19" height="22" fill="#4c78a8" rx="3"/>
<text x="569.19" y="174" class="value">124.69</text>
<text x="10" y="206" class="label">battle.net</text>
<rect x="180" y="190" width="407.82" height="22" fill="#4c78a8" rx="3"/>
<text x="595.8199999999999" y="206" class="value">133.40</text>
<text x="10" y="238" class="label">socialclub.rockstargames.com</text>
<rect x="180" y="222" width="412.1" height="22" fill="#4c78a8" rx="3"/>
<text x="600.1" y="238" class="value">134.80</text>
<text x="10" y="270" class="label">ubisoft.com</text>
<rect x="180" y="254" width="456.12" height="22" fill="#4c78a8" rx="3"/>
<text x="644.12" y="270" class="value">149.20</text>
<text x="10" y="302" class="label">blizzard.com</text>
<rect x="180" y="286" width="462.18" height="22" fill="#4c78a8" rx="3"/>
<text x="650.1800000000001" y="302" class="value">151.18</text>
<text x="10" y="334" class="label">origin.com</text>
<rect x="180" y="318" width="512.5" height="22" fill="#4c78a8" rx="3"/>
<text x="700.5" y="334" class="value">167.64</text>
<text x="10" y="366" class="label">fortnite.com</text>
<rect x="180" y="350" width="530.29" height="22" fill="#4c78a8" rx="3"/>
<text x="718.29" y="366" class="value">173.46</text>
<text x="10" y="398" class="label">www.steamcommunity.com</text>
<rect x="180" y="382" width="568.38" height="22" fill="#4c78a8" rx="3"/>
<text x="756.38" y="398" class="value">185.92</text>
<text x="10" y="430" class="label">community.akamai.steamstatic.com</text>
<rect x="180" y="414" width="571.53" height="22" fill="#4c78a8" rx="3"/>
<text x="759.53" y="430" class="value">186.95</text>
<text x="10" y="462" class="label">ubi.com</text>
<rect x="180" y="446" width="574.31" height="22" fill="#4c78a8" rx="3"/>
<text x="762.31" y="462" class="value">187.86</text>
<text x="10" y="494" class="label">static3.cdn.ubi.com</text>
<rect x="180" y="478" width="580.0" height="22" fill="#4c78a8" rx="3"/>
<text x="768.0" y="494" class="value">189.72</text>
<line x1="180" y1="30" x2="180" y2="520" stroke="#ccc"/>
<line x1="180" y1="520" x2="760" y2="520" stroke="#ccc"/>
</svg>