<svg xmlns="http://www.w3.org/2000/svg" width="800" height="540">
<style> .label{font-family:DejaVu Sans,Verdana,Geneva,sans-serif;font-size:12px;fill:#333} .value{font-family:DejaVu Sans,Verdana,Geneva,sans-serif;font-size:12px;fill:#555} </style>
<text x="10" y="20" class="label">延迟柱状图（越低越好，Top 15），单位 ms</text>
<text x="10" y="46" class="label">rockstargames.com</text>
<rect x="180" y="30" width="196.01" height="22" fill="#4c78a8" rx="3"/>
<text x="384.01" y="46" class="value">72.99</text>
<text x="10" y="78" class="label">socialclub.rockstargames.com</text>
<rect x="180" y="62" width="219.91" height="22" fill="#4c78a8" rx="3"/>
<text x="407.90999999999997" y="78" class="value">81.89</text>
<text x="10" y="110" class="label">ubisoft.com</text>
<rect x="180" y="94" width="276.25" height="22" fill="#4c78a8" rx="3"/>
<text x="464.25" y="110" class="value">102.87</text>
<text x="10" y="142" class="label">ubi.com</text>
<rect x="180" y="126" width="292.69" height="22" fill="#4c78a8" rx="3"/>
<text x="480.69" y="142" class="value">108.99</text>
<text x="10" y="174" class="label">ea.com</text>
<rect x="180" y="158" width="345.64" height="22" fill="#4c78a8" rx="3"/>
<text x="533.64" y="174" class="value">128.71</text>
<text x="10" y="206" class="label">eaassets-a.akamaihd.net</text>
<rect x="180" y="190" width="375.96" height="22" fill="#4c78a8" rx="3"/>
<text x="563.96" y="206" class="value">140.00</text>
<text x="10" y="238" class="label">epicgames.com</text>
<rect x="180" y="222" width="384.26" height="22" fill="#4c78a8" rx="3"/>
<text x="572.26" y="238" class="value">143.09</text>
<text x="10" y="270" class="label">store.akamai.steamstatic.com</text>
<rect x="180" y="254" width="408.27" height="22" fill="#4c78a8" rx="3"/>
<text x="596.27" y="270" class="value">152.03</text>
<text x="10" y="302" class="label">battle.net</text>
<rect x="180" y="286" width="412.59" height="22" fill="#4c78a8" rx="3"/>
<text x="600.5899999999999" y="302" class="value">153.64</text>
<text x="10" y="334" class="label">cdn.akamai.steamstatic.com</text>
<rect x="180" y="318" width="439.47" height="22" fill="#4c78a8" rx="3"/>
<text x="627.47" y="334" class="value">163.65</text>
<text x="10" y="366" class="label">unrealengine.com</text>
<rect x="180" y="350" width="456.31" height="22" fill="#4c78a8" rx="3"/>
<text x="644.31" y="366" class="value">169.92</text>
<text x="10" y="398" class="label">steamcdn-a.akamaihd.net</text>
<rect x="180" y="382" width="467.29" height="22" fill="#4c78a8" rx="3"/>
<text x="655.29" y="398" class="value">174.01</text>
<text x="10" y="430" class="label">community.akamai.steamstatic.com</text>
<rect x="180" y="414" width="482.44" height="22" fill="#4c78a8" rx="3"/>
<text x="670.44" y="430" class="value">179.65</text>
<text x="10" y="462" class="label">fortnite.com</text>
<rect x="180" y="446" width="519.04" height="22" fill="#4c78a8" rx="3"/>
<text x="707.04" y="462" class="value">193.28</text>
<text x="10" y="494" class="label">static3.cdn.ubi.com</text>
<rect x="180" y="478" width="580.0" height="22" fill="#4c78a8" rx="3"/>
<text x="768.0" y="494" class="value">215.98</text>
<line x1="180" y1="30" x2="180" y2="520" stroke="#ccc"/>
<line x1="180" y1="520" x2="760" y2="520" stroke="#ccc"/>
</svg>