<svg xmlns="http://www.w3.org/2000/svg" width="800" height="540">
<style> .label{font-family:DejaVu Sans,Verdana,Geneva,sans-serif;font-size:12px;fill:#333} .value{font-family:DejaVu Sans,Verdana,Geneva,sans-serif;font-size:12px;fill:#555} </style>
<text x="10" y="20" class="label">延迟柱状图（越低越好，Top 15），单位 ms</text>
<text x="10" y="46" class="label">eaassets-a.akamaihd.net</text>
<rect x="180" y="30" width="130.24" height="22" fill="#4c78a8" rx="3"/>
<text x="318.24" y="46" class="value">64.41</text>
<text x="10" y="78" class="label">rockstargames.com</text>
<rect x="180" y="62" width="148.15" height="22" fill="#4c78a8" rx="3"/>
<text x="336.15" y="78" class="value">73.27</text>
<text x="10" y="110" class="label">ea.com</text>
<rect x="180" y="94" width="172.6" height="22" fill="#4c78a8" rx="3"/>
<text x="360.6" y="110" class="value">85.36</text>
<text x="10" y="142" class="label">ubisoft.com</text>
<rect x="180" y="126" width="199.25" height="22" fill="#4c78a8" rx="3"/>
<text x="387.25" y="142" class="value">98.54</text>
<text x="10" y="174" class="label">cdn.akamai.steamstatic.com</text>
<rect x="180" y="158" width="231.48" height="22" fill="#4c78a8" rx="3"/>
<text x="419.48" y="174" class="value">114.48</text>
<text x="10" y="206" class="label">store.akamai.steamstatic.com</text>
<rect x="180" y="190" width="270.37" height="22" fill="#4c78a8" rx="3"/>
<text x="458.37" y="206" class="value">133.71</text>
<text x="10" y="238" class="label">steamcdn-a.akamaihd.net</text>
<rect x="180" y="222" width="299.81" height="22" fill="#4c78a8" rx="3"/>
<text x="487.81" y="238" class="value">148.27</text>
<text x="10" y="270" class="label">cdn.cloudflare.steamstatic.com</text>
<rect x="180" y="254" width="307.98" height="22" fill="#4c78a8" rx="3"/>
<text x="495.98" y="270" class="value">152.31</text>
<text x="10" y="302" class="label">origin.com</text>
<rect x="180" y="286" width="376.58" height="22" fill="#4c78a8" rx="3"/>
<text x="564.5799999999999" y="302" class="value">186.24</text>
<text x="10" y="334" class="label">community.akamai.steamstatic.com</text>
<rect x="180" y="318" width="398.34" height="22" fill="#4c78a8" rx="3"/>
<text x="586.3399999999999" y="334" class="value">197.00</text>
<text x="10" y="366" class="label">easyanticheat.net</text>
<rect x="180" y="350" width="419.17" height="22" fill="#4c78a8" rx="3"/>
<text x="607.1700000000001" y="366" class="value">207.30</text>
<text x="10" y="398" class="label">steam-chat.com</text>
<rect x="180" y="382" width="449.24" height="22" fill="#4c78a8" rx="3"/>
<text x="637.24" y="398" class="value">222.17</text>
<text x="10" y="430" class="label">launcher-public-service-prod06.ol.epicgames.com</text>
<rect x="180" y="414" width="473.34" height="22" fill="#4c78a8" rx="3"/>
<text x="661.3399999999999" y="430" class="value">234.09</text>
<text x="10" y="462" class="label">www.steamcommunity.com</text>
<rect x="180" y="446" width="535.96" height="22" fill="#4c78a8" rx="3"/>
<text x="723.96" y="462" class="value">265.06</text>
<text x="10" y="494" class="label">battle.net</text>
<rect x="180" y="478" width="580.0" height="22" fill="#4c78a8" rx="3"/>
<text x="768.0" y="494" class="value">286.84</text>
<line x1="180" y1="30" x2="180" y2="520" stroke="#ccc"/>
<line x1="180" y1="520" x2="760" y2="520" stroke="#ccc"/>
</svg>