<svg xmlns="http://www.w3.org/2000/svg" width="800" height="540">
<style> .label{font-family:DejaVu Sans,Verdana,Geneva,sans-serif;font-size:12px;fill:#333} .value{font-family:DejaVu Sans,Verdana,Geneva,sans-serif;font-size:12px;fill:#555} </style>
<text x="10" y="20" class="label">延迟柱状图（越低越好，Top 15），单位 ms</text>
<text x="10" y="46" class="label">socialclub.rockstargames.com</text>
<rect x="180" y="30" width="225.46" height="22" fill="#4c78a8" rx="3"/>
<text x="413.46000000000004" y="46" class="value">74.97</text>
<text x="10" y="78" class="label">ubi.com</text>
<rect x="180" y="62" width="248.32" height="22" fill="#4c78a8" rx="3"/>
<text x="436.32" y="78" class="value">82.57</text>
<text x="10" y="110" class="label">eaassets-a.akamaihd.net</text>
<rect x="180" y="94" width="267.23" height="22" fill="#4c78a8" rx="3"/>
<text x="455.23" y="110" class="value">88.86</text>
<text x="10" y="142" class="label">rockstargames.com</text>
<rect x="180" y="126" width="272.65" height="22" fill="#4c78a8" rx="3"/>
<text x="460.65" y="142" class="value">90.66</text>
<text x="10" y="174" class="label">ea.com</text>
<rect x="180" y="158" width="308.71" height="22" fill="#4c78a8" rx="3"/>
<text x="496.71" y="174" class="value">102.65</text>
<text x="10" y="206" class="label">battle.net</text>
<rect x="180" y="190" width="326.6" height="22" fill="#4c78a8" rx="3"/>
<text x="514.6" y="206" class="value">108.60</text>
<text x="10" y="238" class="label">blizzard.com</text>
<rect x="180" y="222" width="373.0" height="22" fill="#4c78a8" rx="3"/>
<text x="561.0" y="238" class="value">124.03</text>
<text x="10" y="270" class="label">fortnite.com</text>
<rect x="180" y="254" width="374.42" height="22" fill="#4c78a8" rx="3"/>
<text x="562.4200000000001" y="270" class="value">124.50</text>
<text x="10" y="302" class="label">steamcdn-a.akamaihd.net</text>
<rect x="180" y="286" width="472.49" height="22" fill="#4c78a8" rx="3"/>
<text x="660.49" y="302" class="value">157.11</text>
<text x="10" y="334" class="label">launcher-public-service-prod06.ol.epicgames.com</text>
<rect x="180" y="318" width="479.82" height="22" fill="#4c78a8" rx="3"/>
<text x="667.8199999999999" y="334" class="value">159.55</text>
<text x="10" y="366" class="label">unrealengine.com</text>
<rect x="180" y="350" width="485.18" height="22" fill="#4c78a8" rx="3"/>
<text x="673.1800000000001" y="366" class="value">161.33</text>
<text x="10" y="398" class="label">cdn.cloudflare.steamstatic.com</text>
<rect x="180" y="382" width="499.55" height="22" fill="#4c78a8" rx="3"/>
<text x="687.55" y="398" class="value">166.11</text>
<text x="10" y="430" class="label">community.akamai.steamstatic.com</text>
<rect x="180" y="414" width="577.47" height="22" fill="#4c78a8" rx="3"/>
<text x="765.47" y="430" class="value">192.02</text>
<text x="10" y="462" class="label">origin.com</text>
<rect x="180" y="446" width="578.08" height="22" fill="#4c78a8" rx="3"/>
<text x="766.08" y="462" class="value">192.22</text>
<text x="10" y="494" class="label">static3.cdn.ubi.com</text>
<rect x="180" y="478" width="580.0" height="22" fill="#4c78a8" rx="3"/>
<text x="768.0" y="494" class="value">192.86</text>
<line x1="180" y1="30" x2="180" y2="520" stroke="#ccc"/>
<line x1="180" y1="520" x2="760" y2="520" stroke="#ccc"/>
</svg>