<svg xmlns="http://www.w3.org/2000/svg" width="800" height="540">
<style> .label{font-family:DejaVu Sans,Verdana,Geneva,sans-serif;font-size:12px;fill:#333} .value{font-family:DejaVu Sans,Verdana,Geneva,sans-serif;font-size:12px;fill:#555} </style>
<text x="10" y="20" class="label">延迟柱状图（越低越好，Top 15），单位 ms</text>
<text x="10" y="46" class="label">ubisoft.com</text>
<rect x="180" y="30" width="142.13" height="22" fill="#4c78a8" rx="3"/>
<text x="330.13" y="46" class="value">67.07</text>
<text x="10" y="78" class="label">eaassets-a.akamaihd.net</text>
<rect x="180" y="62" width="153.08" height="22" fill="#4c78a8" rx="3"/>
<text x="341.08000000000004" y="78" class="value">72.24</text>
<text x="10" y="110" class="label">store.akamai.steamstatic.com</text>
<rect x="180" y="94" width="191.65" height="22" fill="#4c78a8" rx="3"/>
<text x="379.65" y="110" class="value">90.44</text>
<text x="10" y="142" class="label">rockstargames.com</text>
<rect x="180" y="126" width="197.86" height="22" fill="#4c78a8" rx="3"/>
<text x="385.86" y="142" class="value">93.37</text>
<text x="10" y="174" class="label">steamcdn-a.akamaihd.net</text>
<rect x="180" y="158" width="266.03" height="22" fill="#4c78a8" rx="3"/>
<text x="454.03" y="174" class="value">125.54</text>
<text x="10" y="206" class="label">community.akamai.steamstatic.com</text>
<rect x="180" y="190" width="278.92" height="22" fill="#4c78a8" rx="3"/>
<text x="466.92" y="206" class="value">131.62</text>
<text x="10" y="238" class="label">ea.com</text>
<rect x="180" y="222" width="292.97" height="22" fill="#4c78a8" rx="3"/>
<text x="480.97" y="238" class="value">138.25</text>
<text x="10" y="270" class="label">origin.com</text>
<rect x="180" y="254" width="307.1" height="22" fill="#4c78a8" rx="3"/>
<text x="495.1" y="270" class="value">144.92</text>
<text x="10" y="302" class="label">www.steamcommunity.com</text>
<rect x="180" y="286" width="443.57" height="22" fill="#4c78a8" rx="3"/>
<text x="631.5699999999999" y="302" class="value">209.32</text>
<text x="10" y="334" class="label">steam-chat.com</text>
<rect x="180" y="318" width="451.79" height="22" fill="#4c78a8" rx="3"/>
<text x="639.79" y="334" class="value">213.20</text>
<text x="10" y="366" class="label">launcher-public-service-prod06.ol.epicgames.com</text>
<rect x="180" y="350" width="514.75" height="22" fill="#4c78a8" rx="3"/>
<text x="702.75" y="366" class="value">242.91</text>
<text x="10" y="398" class="label">cdn.akamai.steamstatic.com</text>
<rect x="180" y="382" width="527.91" height="22" fill="#4c78a8" rx="3"/>
<text x="715.91" y="398" class="value">249.12</text>
<text x="10" y="430" class="label">easyanticheat.net</text>
<rect x="180" y="414" width="556.29" height="22" fill="#4c78a8" rx="3"/>
<text x="744.29" y="430" class="value">262.51</text>
<text x="10" y="462" class="label">ubi.com</text>
<rect x="180" y="446" width="559.19" height="22" fill="#4c78a8" rx="3"/>
<text x="747.19" y="462" class="value">263.88</text>
<text x="10" y="494" class="label">cdn.cloudflare.steamstatic.com</text>
<rect x="180" y="478" width="580.0" height="22" fill="#4c78a8" rx="3"/>
<text x="768.0" y="494" class="value">273.70</text>
<line x1="180" y1="30" x2="180" y2="520" stroke="#ccc"/>
<line x1="180" y1="520" x2="760" y2="520" stroke="#ccc"/>
</svg>