<svg xmlns="http://www.w3.org/2000/svg" width="800" height="540">
<style> .label{font-family:DejaVu Sans,Verdana,Geneva,sans-serif;font-size:12px;fill:#333} .value{font-family:DejaVu Sans,Verdana,Geneva,sans-serif;font-size:12px;fill:#555} </style>
<text x="10" y="20" class="label">延迟柱状图（越低越好，Top 15），单位 ms</text>
<text x="10" y="46" class="label">eaassets-a.akamaihd.net</text>
<rect x="180" y="30" width="67.38" height="22" fill="#4c78a8" rx="3"/>
<text x="255.38" y="46" class="value">33.22</text>
<text x="10" y="78" class="label">rockstargames.com</text>
<rect x="180" y="62" width="71.99" height="22" fill="#4c78a8" rx="3"/>
<text x="259.99" y="78" class="value">35.49</text>
<text x="10" y="110" class="label">ea.com</text>
<rect x="180" y="94" width="170.85" height="22" fill="#4c78a8" rx="3"/>
<text x="358.85" y="110" class="value">84.23</text>
<text x="10" y="142" class="label">cdn.cloudflare.steamstatic.com</text>
<rect x="180" y="126" width="197.63" height="22" fill="#4c78a8" rx="3"/>
<text x="385.63" y="142" class="value">97.43</text>
<text x="10" y="174" class="label">origin.com</text>
<rect x="180" y="158" width="287.69" height="22" fill="#4c78a8" rx="3"/>
<text x="475.69" y="174" class="value">141.83</text>
<text x="10" y="206" class="label">steamcdn-a.akamaihd.net</text>
<rect x="180" y="190" width="292.76" height="22" fill="#4c78a8" rx="3"/>
<text x="480.76" y="206" class="value">144.33</text>
<text x="10" y="238" class="label">ubisoft.com</text>
<rect x="180" y="222" width="330.34" height="22" fill="#4c78a8" rx="3"/>
<text x="518.3399999999999" y="238" class="value">162.86</text>
<text x="10" y="270" class="label">community.akamai.steamstatic.com</text>
<rect x="180" y="254" width="338.88" height="22" fill="#4c78a8" rx="3"/>
<text x="526.88" y="270" class="value">167.07</text>
<text x="10" y="302" class="label">store.akamai.steamstatic.com</text>
<rect x="180" y="286" width="345.62" height="22" fill="#4c78a8" rx="3"/>
<text x="533.62" y="302" class="value">170.39</text>
<text x="10" y="334" class="label">easyanticheat.net</text>
<rect x="180" y="318" width="356.0" height="22" fill="#4c78a8" rx="3"/>
<text x="544.0" y="334" class="value">175.51</text>
<text x="10" y="366" class="label">cdn.akamai.steamstatic.com</text>
<rect x="180" y="350" width="399.63" height="22" fill="#4c78a8" rx="3"/>
<text x="587.63" y="366" class="value">197.02</text>
<text x="10" y="398" class="label">api.steampowered.com</text>
<rect x="180" y="382" width="466.39" height="22" fill="#4c78a8" rx="3"/>
<text x="654.39" y="398" class="value">229.93</text>
<text x="10" y="430" class="label">steam-chat.com</text>
<rect x="180" y="414" width="493.81" height="22" fill="#4c78a8" rx="3"/>
<text x="681.81" y="430" class="value">243.45</text>
<text x="10" y="462" class="label">www.steamcommunity.com</text>
<rect x="180" y="446" width="529.23" height="22" fill="#4c78a8" rx="3"/>
<text x="717.23" y="462" class="value">260.91</text>
<text x="10" y="494" class="label">launcher-public-service-prod06.ol.epicgames.com</text>
<rect x="180" y="478" width="580.0" height="22" fill="#4c78a8" rx="3"/>
<text x="768.0" y="494" class="value">285.94</text>
<line x1="180" y1="30" x2="180" y2="520" stroke="#ccc"/>
<line x1="180" y1="520" x2="760" y2="520" stroke="#ccc"/>
</svg>