<svg xmlns="http://www.w3.org/2000/svg" width="800" height="540">
<style> .label{font-family:DejaVu Sans,Verdana,Geneva,sans-serif;font-size:12px;fill:#333} .value{font-family:DejaVu Sans,Verdana,Geneva,sans-serif;font-size:12px;fill:#555} </style>
<text x="10" y="20" class="label">延迟柱状图（越低越好，Top 15），单位 ms</text>
<text x="10" y="46" class="label">rockstargames.com</text>
<rect x="180" y="30" width="81.56" height="22" fill="#4c78a8" rx="3"/>
<text x="269.56" y="46" class="value">39.71</text>
<text x="10" y="78" class="label">steamcdn-a.akamaihd.net</text>
<rect x="180" y="62" width="156.45" height="22" fill="#4c78a8" rx="3"/>
<text x="344.45" y="78" class="value">76.17</text>
<text x="10" y="110" class="label">ea.com</text>
<rect x="180" y="94" width="260.71" height="22" fill="#4c78a8" rx="3"/>
<text x="448.71" y="110" class="value">126.93</text>
<text x="10" y="142" class="label">cdn.akamai.steamstatic.com</text>
<rect x="180" y="126" width="266.38" height="22" fill="#4c78a8" rx="3"/>
<text x="454.38" y="142" class="value">129.69</text>
<text x="10" y="174" class="label">origin.com</text>
<rect x="180" y="158" width="279.83" height="22" fill="#4c78a8" rx="3"/>
<text x="467.83" y="174" class="value">136.24</text>
<text x="10" y="206" class="label">community.akamai.steamstatic.com</text>
<rect x="180" y="190" width="280.14" height="22" fill="#4c78a8" rx="3"/>
<text x="468.14" y="206" class="value">136.39</text>
<text x="10" y="238" class="label">store.akamai.steamstatic.com</text>
<rect x="180" y="222" width="336.36" height="22" fill="#4c78a8" rx="3"/>
<text x="524.36" y="238" class="value">163.76</text>
<text x="10" y="270" class="label">eaassets-a.akamaihd.net</text>
<rect x="180" y="254" width="338.41" height="22" fill="#4c78a8" rx="3"/>
<text x="526.4100000000001" y="270" class="value">164.76</text>
<text x="10" y="302" class="label">api.steampowered.com</text>
<rect x="180" y="286" width="372.71" height="22" fill="#4c78a8" rx="3"/>
<text x="560.71" y="302" class="value">181.46</text>
<text x="10" y="334" class="label">cdn.cloudflare.steamstatic.com</text>
<rect x="180" y="318" width="411.33" height="22" fill="#4c78a8" rx="3"/>
<text x="599.3299999999999" y="334" class="value">200.26</text>
<text x="10" y="366" class="label">easyanticheat.net</text>
<rect x="180" y="350" width="425.44" height="22" fill="#4c78a8" rx="3"/>
<text x="613.44" y="366" class="value">207.13</text>
<text x="10" y="398" class="label">www.steamcommunity.com</text>
<rect x="180" y="382" width="516.1" height="22" fill="#4c78a8" rx="3"/>
<text x="704.1" y="398" class="value">251.27</text>
<text x="10" y="430" class="label">ubisoft.com</text>
<rect x="180" y="414" width="535.45" height="22" fill="#4c78a8" rx="3"/>
<text x="723.45" y="430" class="value">260.69</text>
<text x="10" y="462" class="label">steam-chat.com</text>
<rect x="180" y="446" width="562.48" height="22" fill="#4c78a8" rx="3"/>
<text x="750.48" y="462" class="value">273.85</text>
<text x="10" y="494" class="label">ubi.com</text>
<rect x="180" y="478" width="580.0" height="22" fill="#4c78a8" rx="3"/>
<text x="768.0" y="494" class="value">282.38</text>
<line x1="180" y1="30" x2="180" y2="520" stroke="#ccc"/>
<line x1="180" y1="520" x2="760" y2="520" stroke="#ccc"/>
</svg>