<svg xmlns="http://www.w3.org/2000/svg" width="800" height="540">
<style> .label{font-family:DejaVu Sans,Verdana,Geneva,sans-serif;font-size:12px;fill:#333} .value{font-family:DejaVu Sans,Verdana,Geneva,sans-serif;font-size:12px;fill:#555} </style>
<text x="10" y="20" class="label">延迟柱状图（越低越好，Top 15），单位 ms</text>
<text x="10" y="46" class="label">rockstargames.com</text>
<rect x="180" y="30" width="195.1" height="22" fill="#4c78a8" rx="3"/>
<text x="383.1" y="46" class="value">71.13</text>
<text x="10" y="78" class="label">eaassets-a.akamaihd.net</text>
<rect x="180" y="62" width="209.39" height="22" fill="#4c78a8" rx="3"/>
<text x="397.39" y="78" class="value">76.34</text>
<text x="10" y="110" class="label">ubi.com</text>
<rect x="180" y="94" width="220.96" height="22" fill="#4c78a8" rx="3"/>
<text x="408.96000000000004" y="110" class="value">80.56</text>
<text x="10" y="142" class="label">socialclub.rockstargames.com</text>
<rect x="180" y="126" width="232.87" height="22" fill="#4c78a8" rx="3"/>
<text x="420.87" y="142" class="value">84.90</text>
<text x="10" y="174" class="label">epicgames.com</text>
<rect x="180" y="158" width="271.07" height="22" fill="#4c78a8" rx="3"/>
<text x="459.07" y="174" class="value">98.83</text>
<text x="10" y="206" class="label">fortnite.com</text>
<rect x="180" y="190" width="298.31" height="22" fill="#4c78a8" rx="3"/>
<text x="486.31" y="206" class="value">108.76</text>
<text x="10" y="238" class="label">unrealengine.com</text>
<rect x="180" y="222" width="313.89" height="22" fill="#4c78a8" rx="3"/>
<text x="501.89" y="238" class="value">114.44</text>
<text x="10" y="270" class="label">battle.net</text>
<rect x="180" y="254" width="323.87" height="22" fill="#4c78a8" rx="3"/>
<text x="511.87" y="270" class="value">118.08</text>
<text x="10" y="302" class="label">blizzard.com</text>
<rect x="180" y="286" width="338.66" height="22" fill="#4c78a8" rx="3"/>
<text x="526.6600000000001" y="302" class="value">123.47</text>
<text x="10" y="334" class="label">ea.com</text>
<rect x="180" y="318" width="361.2" height="22" fill="#4c78a8" rx="3"/>
<text x="549.2" y="334" class="value">131.69</text>
<text x="10" y="366" class="label">cdn.cloudflare.steamstatic.com</text>
<rect x="180" y="350" width="488.97" height="22" fill="#4c78a8" rx="3"/>
<text x="676.97" y="366" class="value">178.27</text>
<text x="10" y="398" class="label">store.akamai.steamstatic.com</text>
<rect x="180" y="382" width="505.72" height="22" fill="#4c78a8" rx="3"/>
<text x="693.72" y="398" class="value">184.38</text>
<text x="10" y="430" class="label">static3.cdn.ubi.com</text>
<rect x="180" y="414" width="523.69" height="22" fill="#4c78a8" rx="3"/>
<text x="711.69" y="430" class="value">190.93</text>
<text x="10" y="462" class="label">ubisoft.com</text>
<rect x="180" y="446" width="525.31" height="22" fill="#4c78a8" rx="3"/>
<text x="713.31" y="462" class="value">191.52</text>
<text x="10" y="494" class="label">origin.com</text>
<rect x="180" y="478" width="580.0" height="22" fill="#4c78a8" rx="3"/>
<text x="768.0" y="494" class="value">211.46</text>
<line x1="180" y1="30" x2="180" y2="520" stroke="#ccc"/>
<line x1="180" y1="520" x2="760" y2="520" stroke="#ccc"/>
</svg>