<svg xmlns="http://www.w3.org/2000/svg" width="800" height="540">
<style> .label{font-family:DejaVu Sans,Verdana,Geneva,sans-serif;font-size:12px;fill:#333} .value{font-family:DejaVu Sans,Verdana,Geneva,sans-serif;font-size:12px;fill:#555} </style>
<text x="10" y="20" class="label">延迟柱状图（越低越好，Top 15），单位 ms</text>
<text x="10" y="46" class="label">rockstargames.com</text>
<rect x="180" y="30" width="166.82" height="22" fill="#4c78a8" rx="3"/>
<text x="354.82" y="46" class="value">58.67</text>
<text x="10" y="78" class="label">socialclub.rockstargames.com</text>
<rect x="180" y="62" width="245.57" height="22" fill="#4c78a8" rx="3"/>
<text x="433.57" y="78" class="value">86.37</text>
<text x="10" y="110" class="label">eaassets-a.akamaihd.net</text>
<rect x="180" y="94" width="256.66" height="22" fill="#4c78a8" rx="3"/>
<text x="444.66" y="110" class="value">90.27</text>
<text x="10" y="142" class="label">community.akamai.steamstatic.com</text>
<rect x="180" y="126" width="283.05" height="22" fill="#4c78a8" rx="3"/>
<text x="471.05" y="142" class="value">99.55</text>
<text x="10" y="174" class="label">battle.net</text>
<rect x="180" y="158" width="296.35" height="22" fill="#4c78a8" rx="3"/>
<text x="484.35" y="174" class="value">104.23</text>
<text x="10" y="206" class="label">blizzard.com</text>
<rect x="180" y="190" width="333.09" height="22" fill="#4c78a8" rx="3"/>
<text x="521.0899999999999" y="206" class="value">117.15</text>
<text x="10" y="238" class="label">static3.cdn.ubi.com</text>
<rect x="180" y="222" width="361.72" height="22" fill="#4c78a8" rx="3"/>
<text x="549.72" y="238" class="value">127.22</text>
<text x="10" y="270" class="label">ubi.com</text>
<rect x="180" y="254" width="380.83" height="22" fill="#4c78a8" rx="3"/>
<text x="568.8299999999999" y="270" class="value">133.94</text>
<text x="10" y="302" class="label">ea.com</text>
<rect x="180" y="286" width="416.09" height="22" fill="#4c78a8" rx="3"/>
<text x="604.0899999999999" y="302" class="value">146.34</text>
<text x="10" y="334" class="label">ubisoft.com</text>
<rect x="180" y="318" width="423.22" height="22" fill="#4c78a8" rx="3"/>
<text x="611.22" y="334" class="value">148.85</text>
<text x="10" y="366" class="label">origin.com</text>
<rect x="180" y="350" width="465.1" height="22" fill="#4c78a8" rx="3"/>
<text x="653.1" y="366" class="value">163.58</text>
<text x="10" y="398" class="label">easyanticheat.net</text>
<rect x="180" y="382" width="470.53" height="22" fill="#4c78a8" rx="3"/>
<text x="658.53" y="398" class="value">165.49</text>
<text x="10" y="430" class="label">epicgames.com</text>
<rect x="180" y="414" width="488.82" height="22" fill="#4c78a8" rx="3"/>
<text x="676.8199999999999" y="430" class="value">171.92</text>
<text x="10" y="462" class="label">fortnite.com</text>
<rect x="180" y="446" width="538.29" height="22" fill="#4c78a8" rx="3"/>
<text x="726.29" y="462" class="value">189.32</text>
<text x="10" y="494" class="label">store.akamai.steamstatic.com</text>
<rect x="180" y="478" width="580.0" height="22" fill="#4c78a8" rx="3"/>
<text x="768.0" y="494" class="value">203.99</text>
<line x1="180" y1="30" x2="180" y2="520" stroke="#ccc"/>
<line x1="180" y1="520" x2="760" y2="520" stroke="#ccc"/>
</svg>