<svg xmlns="http://www.w3.org/2000/svg" width="800" height="540">
<style> .label{font-family:DejaVu Sans,Verdana,Geneva,sans-serif;font-size:12px;fill:#333} .value{font-family:DejaVu Sans,Verdana,Geneva,sans-serif;font-size:12px;fill:#555} </style>
<text x="10" y="20" class="label">延迟柱状图（越低越好，Top 15），单位 ms</text>
<text x="10" y="46" class="label">eaassets-a.akamaihd.net</text>
<rect x="180" y="30" width="177.61" height="22" fill="#4c78a8" rx="3"/>
<text x="365.61" y="46" class="value">68.46</text>
<text x="10" y="78" class="label">rockstargames.com</text>
<rect x="180" y="62" width="182.39" height="22" fill="#4c78a8" rx="3"/>
<text x="370.39" y="78" class="value">70.30</text>
<text x="10" y="110" class="label">ubisoft.com</text>
<rect x="180" y="94" width="186.82" height="22" fill="#4c78a8" rx="3"/>
<text x="374.82" y="110" class="value">72.01</text>
<text x="10" y="142" class="label">ea.com</text>
<rect x="180" y="126" width="214.71" height="22" fill="#4c78a8" rx="3"/>
<text x="402.71000000000004" y="142" class="value">82.76</text>
<text x="10" y="174" class="label">cdn.akamai.steamstatic.com</text>
<rect x="180" y="158" width="230.15" height="22" fill="#4c78a8" rx="3"/>
<text x="418.15" y="174" class="value">88.71</text>
<text x="10" y="206" class="label">battle.net</text>
<rect x="180" y="190" width="325.8" height="22" fill="#4c78a8" rx="3"/>
<text x="513.8" y="206" class="value">125.58</text>
<text x="10" y="238" class="label">blizzard.com</text>
<rect x="180" y="222" width="344.85" height="22" fill="#4c78a8" rx="3"/>
<text x="532.85" y="238" class="value">132.92</text>
<text x="10" y="270" class="label">socialclub.rockstargames.com</text>
<rect x="180" y="254" width="367.23" height="22" fill="#4c78a8" rx="3"/>
<text x="555.23" y="270" class="value">141.55</text>
<text x="10" y="302" class="label">static3.cdn.ubi.com</text>
<rect x="180" y="286" width="375.12" height="22" fill="#4c78a8" rx="3"/>
<text x="563.12" y="302" class="value">144.59</text>
<text x="10" y="334" class="label">ubi.com</text>
<rect x="180" y="318" width="389.08" height="22" fill="#4c78a8" rx="3"/>
<text x="577.0799999999999" y="334" class="value">149.97</text>
<text x="10" y="366" class="label">steamcdn-a.akamaihd.net</text>
<rect x="180" y="350" width="485.12" height="22" fill="#4c78a8" rx="3"/>
<text x="673.12" y="366" class="value">186.99</text>
<text x="10" y="398" class="label">store.akamai.steamstatic.com</text>
<rect x="180" y="382" width="566.22" height="22" fill="#4c78a8" rx="3"/>
<text x="754.22" y="398" class="value">218.25</text>
<text x="10" y="430" class="label">cdn.cloudflare.steamstatic.com</text>
<rect x="180" y="414" width="568.61" height="22" fill="#4c78a8" rx="3"/>
<text x="756.61" y="430" class="value">219.17</text>
<text x="10" y="462" class="label">origin.com</text>
<rect x="180" y="446" width="569.44" height="22" fill="#4c78a8" rx="3"/>
<text x="757.44" y="462" class="value">219.49</text>
<text x="10" y="494" class="label">easyanticheat.net</text>
<rect x="180" y="478" width="580.0" height="22" fill="#4c78a8" rx="3"/>
<text x="768.0" y="494" class="value">223.56</text>
<line x1="180" y1="30" x2="180" y2="520" stroke="#ccc"/>
<line x1="180" y1="520" x2="760" y2="520" stroke="#ccc"/>
</svg>