<svg xmlns="http://www.w3.org/2000/svg" width="800" height="540">
<style> .label{font-family:DejaVu Sans,Verdana,Geneva,sans-serif;font-size:12px;fill:#333} .value{font-family:DejaVu Sans,Verdana,Geneva,sans-serif;font-size:12px;fill:#555} </style>
<text x="10" y="20" class="label">延迟柱状图（越低越好，Top 15），单位 ms</text>
<text x="10" y="46" class="label">origin.com</text>
<rect x="180" y="30" width="274.0" height="22" fill="#4c78a8" rx="3"/>
<text x="462.0" y="46" class="value">128.25</text>
<text x="10" y="78" class="label">rockstargames.com</text>
<rect x="180" y="62" width="276.84" height="22" fill="#4c78a8" rx="3"/>
<text x="464.84" y="78" class="value">129.58</text>
<text x="10" y="110" class="label">store.akamai.steamstatic.com</text>
<rect x="180" y="94" width="279.75" height="22" fill="#4c78a8" rx="3"/>
<text x="467.75" y="110" class="value">130.94</text>
<text x="10" y="142" class="label">ea.com</text>
<rect x="180" y="126" width="294.89" height="22" fill="#4c78a8" rx="3"/>
<text x="482.89" y="142" class="value">138.03</text>
<text x="10" y="174" class="label">socialclub.rockstargames.com</text>
<rect x="180" y="158" width="300.38" height="22" fill="#4c78a8" rx="3"/>
<text x="488.38" y="174" class="value">140.60</text>
<text x="10" y="206" class="label">eaassets-a.akamaihd.net</text>
<rect x="180" y="190" width="348.3" height="22" fill="#4c78a8" rx="3"/>
<text x="536.3" y="206" class="value">163.03</text>
<text x="10" y="238" class="label">ubi.com</text>
<rect x="180" y="222" width="418.23" height="22" fill="#4c78a8" rx="3"/>
<text x="606.23" y="238" class="value">195.76</text>
<text x="10" y="270" class="label">blizzard.com</text>
<rect x="180" y="254" width="421.67" height="22" fill="#4c78a8" rx="3"/>
<text x="609.6700000000001" y="270" class="value">197.37</text>
<text x="10" y="302" class="label">battle.net</text>
<rect x="180" y="286" width="429.51" height="22" fill="#4c78a8" rx="3"/>
<text x="617.51" y="302" class="value">201.04</text>
<text x="10" y="334" class="label">steamcdn-a.akamaihd.net</text>
<rect x="180" y="318" width="441.2" height="22" fill="#4c78a8" rx="3"/>
<text x="629.2" y="334" class="value">206.51</text>
<text x="10" y="366" class="label">ubisoft.com</text>
<rect x="180" y="350" width="482.98" height="22" fill="#4c78a8" rx="3"/>
<text x="670.98" y="366" class="value">226.07</text>
<text x="10" y="398" class="label">static3.cdn.ubi.com</text>
<rect x="180" y="382" width="511.76" height="22" fill="#4c78a8" rx="3"/>
<text x="699.76" y="398" class="value">239.54</text>
<text x="10" y="430" class="label">unrealengine.com</text>
<rect x="180" y="414" width="541.76" height="22" fill="#4c78a8" rx="3"/>
<text x="729.76" y="430" class="value">253.58</text>
<text x="10" y="462" class="label">easyanticheat.net</text>
<rect x="180" y="446" width="545.86" height="22" fill="#4c78a8" rx="3"/>
<text x="733.86" y="462" class="value">255.50</text>
<text x="10" y="494" class="label">community.akamai.steamstatic.com</text>
<rect x="180" y="478" width="580.0" height="22" fill="#4c78a8" rx="3"/>
<text x="768.0" y="494" class="value">271.48</text>
<line x1="180" y1="30" x2="180" y2="520" stroke="#ccc"/>
<line x1="180" y1="520" x2="760" y2="520" stroke="#ccc"/>
</svg>