<svg xmlns="http://www.w3.org/2000/svg" width="800" height="540">
<style> .label{font-family:DejaVu Sans,Verdana,Geneva,sans-serif;font-size:12px;fill:#333} .value{font-family:DejaVu Sans,Verdana,Geneva,sans-serif;font-size:12px;fill:#555} </style>
<text x="10" y="20" class="label">延迟柱状图（越低越好，Top 15），单位 ms</text>
<text x="10" y="46" class="label">store.akamai.steamstatic.com</text>
<rect x="180" y="30" width="165.42" height="22" fill="#4c78a8" rx="3"/>
<text x="353.41999999999996" y="46" class="value">68.73</text>
<text x="10" y="78" class="label">ubisoft.com</text>
<rect x="180" y="62" width="226.32" height="22" fill="#4c78a8" rx="3"/>
<text x="414.32" y="78" class="value">94.03</text>
<text x="10" y="110" class="label">rockstargames.com</text>
<rect x="180" y="94" width="291.64" height="22" fill="#4c78a8" rx="3"/>
<text x="479.64" y="110" class="value">121.17</text>
<text x="10" y="142" class="label">blizzard.com</text>
<rect x="180" y="126" width="338.23" height="22" fill="#4c78a8" rx="3"/>
<text x="526.23" y="142" class="value">140.53</text>
<text x="10" y="174" class="label">origin.com</text>
<rect x="180" y="158" width="365.65" height="22" fill="#4c78a8" rx="3"/>
<text x="553.65" y="174" class="value">151.92</text>
<text x="10" y="206" class="label">battle.net</text>
<rect x="180" y="190" width="367.4" height="22" fill="#4c78a8" rx="3"/>
<text x="555.4" y="206" class="value">152.65</text>
<text x="10" y="238" class="label">socialclub.rockstargames.com</text>
<rect x="180" y="222" width="371.33" height="22" fill="#4c78a8" rx="3"/>
<text x="559.3299999999999" y="238" class="value">154.28</text>
<text x="10" y="270" class="label">ea.com</text>
<rect x="180" y="254" width="408.92" height="22" fill="#4c78a8" rx="3"/>
<text x="596.9200000000001" y="270" class="value">169.90</text>
<text x="10" y="302" class="label">steamcdn-a.akamaihd.net</text>
<rect x="180" y="286" width="441.53" height="22" fill="#4c78a8" rx="3"/>
<text x="629.53" y="302" class="value">183.45</text>
<text x="10" y="334" class="label">community.akamai.steamstatic.com</text>
<rect x="180" y="318" width="443.41" height="22" fill="#4c78a8" rx="3"/>
<text x="631.4100000000001" y="334" class="value">184.23</text>
<text x="10" y="366" class="label">ubi.com</text>
<rect x="180" y="350" width="479.83" height="22" fill="#4c78a8" rx="3"/>
<text x="667.8299999999999" y="366" class="value">199.36</text>
<text x="10" y="398" class="label">cdn.cloudflare.steamstatic.com</text>
<rect x="180" y="382" width="488.28" height="22" fill="#4c78a8" rx="3"/>
<text x="676.28" y="398" class="value">202.87</text>
<text x="10" y="430" class="label">static3.cdn.ubi.com</text>
<rect x="180" y="414" width="501.2" height="22" fill="#4c78a8" rx="3"/>
<text x="689.2" y="430" class="value">208.24</text>
<text x="10" y="462" class="label">cdn.akamai.steamstatic.com</text>
<rect x="180" y="446" width="509.02" height="22" fill="#4c78a8" rx="3"/>
<text x="697.02" y="462" class="value">211.49</text>
<text x="10" y="494" class="label">easyanticheat.net</text>
<rect x="180" y="478" width="580.0" height="22" fill="#4c78a8" rx="3"/>
<text x="768.0" y="494" class="value">240.98</text>
<line x1="180" y1="30" x2="180" y2="520" stroke="#ccc"/>
<line x1="180" y1="520" x2="760" y2="520" stroke="#ccc"/>
</svg>