<svg xmlns="http://www.w3.org/2000/svg" width="800" height="540">
<style> .label{font-family:DejaVu Sans,Verdana,Geneva,sans-serif;font-size:12px;fill:#333} .value{font-family:DejaVu Sans,Verdana,Geneva,sans-serif;font-size:12px;fill:#555} </style>
<text x="10" y="20" class="label">延迟柱状图（越低越好，Top 15），单位 ms</text>
<text x="10" y="46" class="label">easyanticheat.net</text>
<rect x="180" y="30" width="269.17" height="22" fill="#4c78a8" rx="3"/>
<text x="457.17" y="46" class="value">119.22</text>
<text x="10" y="78" class="label">rockstargames.com</text>
<rect x="180" y="62" width="275.52" height="22" fill="#4c78a8" rx="3"/>
<text x="463.52" y="78" class="value">122.03</text>
<text x="10" y="110" class="label">cdn.cloudflare.steamstatic.com</text>
<rect x="180" y="94" width="352.69" height="22" fill="#4c78a8" rx="3"/>
<text x="540.69" y="110" class="value">156.21</text>
<text x="10" y="142" class="label">battle.net</text>
<rect x="180" y="126" width="383.51" height="22" fill="#4c78a8" rx="3"/>
<text x="571.51" y="142" class="value">169.86</text>
<text x="10" y="174" class="label">eaassets-a.akamaihd.net</text>
<rect x="180" y="158" width="394.09" height="22" fill="#4c78a8" rx="3"/>
<text x="582.0899999999999" y="174" class="value">174.55</text>
<text x="10" y="206" class="label">ubi.com</text>
<rect x="180" y="190" width="412.88" height="22" fill="#4c78a8" rx="3"/>
<text x="600.88" y="206" class="value">182.87</text>
<text x="10" y="238" class="label">blizzard.com</text>
<rect x="180" y="222" width="413.74" height="22" fill="#4c78a8" rx="3"/>
<text x="601.74" y="238" class="value">183.25</text>
<text x="10" y="270" class="label">ea.com</text>
<rect x="180" y="254" width="419.36" height="22" fill="#4c78a8" rx="3"/>
<text x="607.36" y="270" class="value">185.74</text>
<text x="10" y="302" class="label">ubisoft.com</text>
<rect x="180" y="286" width="427.1" height="22" fill="#4c78a8" rx="3"/>
<text x="615.1" y="302" class="value">189.17</text>
<text x="10" y="334" class="label">socialclub.rockstargames.com</text>
<rect x="180" y="318" width="500.46" height="22" fill="#4c78a8" rx="3"/>
<text x="688.46" y="334" class="value">221.66</text>
<text x="10" y="366" class="label">cdn.akamai.steamstatic.com</text>
<rect x="180" y="350" width="501.77" height="22" fill="#4c78a8" rx="3"/>
<text x="689.77" y="366" class="value">222.24</text>
<text x="10" y="398" class="label">static3.cdn.ubi.com</text>
<rect x="180" y="382" width="515.68" height="22" fill="#4c78a8" rx="3"/>
<text x="703.68" y="398" class="value">228.40</text>
<text x="10" y="430" class="label">store.akamai.steamstatic.com</text>
<rect x="180" y="414" width="526.54" height="22" fill="#4c78a8" rx="3"/>
<text x="714.54" y="430" class="value">233.21</text>
<text x="10" y="462" class="label">launcher-public-service-prod06.ol.epicgames.com</text>
<rect x="180" y="446" width="572.73" height="22" fill="#4c78a8" rx="3"/>
<text x="760.73" y="462" class="value">253.67</text>
<text x="10" y="494" class="label">community.akamai.steamstatic.com</text>
<rect x="180" y="478" width="580.0" height="22" fill="#4c78a8" rx="3"/>
<text x="768.0" y="494" class="value">256.89</text>
<line x1="180" y1="30" x2="180" y2="520" stroke="#ccc"/>
<line x1="180" y1="520" x2="760" y2="520" stroke="#ccc"/>
</svg>