<svg xmlns="http://www.w3.org/2000/svg" width="800" height="540">
<style> .label{font-family:DejaVu Sans,Verdana,Geneva,sans-serif;font-size:12px;fill:#333} .value{font-family:DejaVu Sans,Verdana,Geneva,sans-serif;font-size:12px;fill:#555} </style>
<text x="10" y="20" class="label">延迟柱状图（越低越好，Top 15），单位 ms</text>
<text x="10" y="46" class="label">eaassets-a.akamaihd.net</text>
<rect x="180" y="30" width="148.02" height="22" fill="#4c78a8" rx="3"/>
<text x="336.02" y="46" class="value">53.22</text>
<text x="10" y="78" class="label">rockstargames.com</text>
<rect x="180" y="62" width="196.84" height="22" fill="#4c78a8" rx="3"/>
<text x="384.84000000000003" y="78" class="value">70.77</text>
<text x="10" y="110" class="label">store.akamai.steamstatic.com</text>
<rect x="180" y="94" width="217.98" height="22" fill="#4c78a8" rx="3"/>
<text x="405.98" y="110" class="value">78.37</text>
<text x="10" y="142" class="label">ubisoft.com</text>
<rect x="180" y="126" width="314.77" height="22" fill="#4c78a8" rx="3"/>
<text x="502.77" y="142" class="value">113.17</text>
<text x="10" y="174" class="label">ea.com</text>
<rect x="180" y="158" width="330.54" height="22" fill="#4c78a8" rx="3"/>
<text x="518.54" y="174" class="value">118.84</text>
<text x="10" y="206" class="label">ubi.com</text>
<rect x="180" y="190" width="347.17" height="22" fill="#4c78a8" rx="3"/>
<text x="535.1700000000001" y="206" class="value">124.82</text>
<text x="10" y="238" class="label">battle.net</text>
<rect x="180" y="222" width="385.94" height="22" fill="#4c78a8" rx="3"/>
<text x="573.94" y="238" class="value">138.76</text>
<text x="10" y="270" class="label">socialclub.rockstargames.com</text>
<rect x="180" y="254" width="390.81" height="22" fill="#4c78a8" rx="3"/>
<text x="578.81" y="270" class="value">140.51</text>
<text x="10" y="302" class="label">blizzard.com</text>
<rect x="180" y="286" width="396.71" height="22" fill="#4c78a8" rx="3"/>
<text x="584.71" y="302" class="value">142.63</text>
<text x="10" y="334" class="label">easyanticheat.net</text>
<rect x="180" y="318" width="443.55" height="22" fill="#4c78a8" rx="3"/>
<text x="631.55" y="334" class="value">159.47</text>
<text x="10" y="366" class="label">cdn.akamai.steamstatic.com</text>
<rect x="180" y="350" width="451.39" height="22" fill="#4c78a8" rx="3"/>
<text x="639.39" y="366" class="value">162.29</text>
<text x="10" y="398" class="label">origin.com</text>
<rect x="180" y="382" width="486.66" height="22" fill="#4c78a8" rx="3"/>
<text x="674.6600000000001" y="398" class="value">174.97</text>
<text x="10" y="430" class="label">community.akamai.steamstatic.com</text>
<rect x="180" y="414" width="550.32" height="22" fill="#4c78a8" rx="3"/>
<text x="738.32" y="430" class="value">197.86</text>
<text x="10" y="462" class="label">steamcdn-a.akamaihd.net</text>
<rect x="180" y="446" width="575.86" height="22" fill="#4c78a8" rx="3"/>
<text x="763.86" y="462" class="value">207.04</text>
<text x="10" y="494" class="label">cdn.cloudflare.steamstatic.com</text>
<rect x="180" y="478" width="580.0" height="22" fill="#4c78a8" rx="3"/>
<text x="768.0" y="494" class="value">208.53</text>
<line x1="180" y1="30" x2="180" y2="520" stroke="#ccc"/>
<line x1="180" y1="520" x2="760" y2="520" stroke="#ccc"/>
</svg>