<svg xmlns="http://www.w3.org/2000/svg" width="800" height="540">
<style> .label{font-family:DejaVu Sans,Verdana,Geneva,sans-serif;font-size:12px;fill:#333} .value{font-family:DejaVu Sans,Verdana,Geneva,sans-serif;font-size:12px;fill:#555} </style>
<text x="10" y="20" class="label">延迟柱状图（越低越好，Top 15），单位 ms</text>
<text x="10" y="46" class="label">eaassets-a.akamaihd.net</text>
<rect x="180" y="30" width="83.86" height="22" fill="#4c78a8" rx="3"/>
<text x="271.86" y="46" class="value">43.35</text>
<text x="10" y="78" class="label">rockstargames.com</text>
<rect x="180" y="62" width="91.93" height="22" fill="#4c78a8" rx="3"/>
<text x="279.93" y="78" class="value">47.52</text>
<text x="10" y="110" class="label">ubisoft.com</text>
<rect x="180" y="94" width="140.57" height="22" fill="#4c78a8" rx="3"/>
<text x="328.57" y="110" class="value">72.66</text>
<text x="10" y="142" class="label">ea.com</text>
<rect x="180" y="126" width="141.53" height="22" fill="#4c78a8" rx="3"/>
<text x="329.53" y="142" class="value">73.16</text>
<text x="10" y="174" class="label">community.akamai.steamstatic.com</text>
<rect x="180" y="158" width="169.35" height="22" fill="#4c78a8" rx="3"/>
<text x="357.35" y="174" class="value">87.54</text>
<text x="10" y="206" class="label">origin.com</text>
<rect x="180" y="190" width="259.25" height="22" fill="#4c78a8" rx="3"/>
<text x="447.25" y="206" class="value">134.01</text>
<text x="10" y="238" class="label">cdn.cloudflare.steamstatic.com</text>
<rect x="180" y="222" width="273.04" height="22" fill="#4c78a8" rx="3"/>
<text x="461.04" y="238" class="value">141.14</text>
<text x="10" y="270" class="label">cdn.akamai.steamstatic.com</text>
<rect x="180" y="254" width="303.49" height="22" fill="#4c78a8" rx="3"/>
<text x="491.49" y="270" class="value">156.88</text>
<text x="10" y="302" class="label">easyanticheat.net</text>
<rect x="180" y="286" width="368.34" height="22" fill="#4c78a8" rx="3"/>
<text x="556.3399999999999" y="302" class="value">190.40</text>
<text x="10" y="334" class="label">store.akamai.steamstatic.com</text>
<rect x="180" y="318" width="401.32" height="22" fill="#4c78a8" rx="3"/>
<text x="589.3199999999999" y="334" class="value">207.45</text>
<text x="10" y="366" class="label">steamcdn-a.akamaihd.net</text>
<rect x="180" y="350" width="430.17" height="22" fill="#4c78a8" rx="3"/>
<text x="618.1700000000001" y="366" class="value">222.36</text>
<text x="10" y="398" class="label">steam-chat.com</text>
<rect x="180" y="382" width="457.17" height="22" fill="#4c78a8" rx="3"/>
<text x="645.1700000000001" y="398" class="value">236.32</text>
<text x="10" y="430" class="label">api.steampowered.com</text>
<rect x="180" y="414" width="470.33" height="22" fill="#4c78a8" rx="3"/>
<text x="658.3299999999999" y="430" class="value">243.12</text>
<text x="10" y="462" class="label">steamcommunity.com</text>
<rect x="180" y="446" width="519.29" height="22" fill="#4c78a8" rx="3"/>
<text x="707.29" y="462" class="value">268.43</text>
<text x="10" y="494" class="label">blizzard.com</text>
<rect x="180" y="478" width="580.0" height="22" fill="#4c78a8" rx="3"/>
<text x="768.0" y="494" class="value">299.81</text>
<line x1="180" y1="30" x2="180" y2="520" stroke="#ccc"/>
<line x1="180" y1="520" x2="760" y2="520" stroke="#ccc"/>
</svg>