<svg xmlns="http://www.w3.org/2000/svg" width="800" height="540">
<style> .label{font-family:DejaVu Sans,Verdana,Geneva,sans-serif;font-size:12px;fill:#333} .value{font-family:DejaVu Sans,Verdana,Geneva,sans-serif;font-size:12px;fill:#555} </style>
<text x="10" y="20" class="label">延迟柱状图（越低越好，Top 15），单位 ms</text>
<text x="10" y="46" class="label">rockstargames.com</text>
<rect x="180" y="30" width="135.16" height="22" fill="#4c78a8" rx="3"/>
<text x="323.15999999999997" y="46" class="value">50.73</text>
<text x="10" y="78" class="label">community.akamai.steamstatic.com</text>
<rect x="180" y="62" width="196.73" height="22" fill="#4c78a8" rx="3"/>
<text x="384.73" y="78" class="value">73.84</text>
<text x="10" y="110" class="label">eaassets-a.akamaihd.net</text>
<rect x="180" y="94" width="198.03" height="22" fill="#4c78a8" rx="3"/>
<text x="386.03" y="110" class="value">74.33</text>
<text x="10" y="142" class="label">ubisoft.com</text>
<rect x="180" y="126" width="297.54" height="22" fill="#4c78a8" rx="3"/>
<text x="485.54" y="142" class="value">111.68</text>
<text x="10" y="174" class="label">ea.com</text>
<rect x="180" y="158" width="301.32" height="22" fill="#4c78a8" rx="3"/>
<text x="489.32" y="174" class="value">113.10</text>
<text x="10" y="206" class="label">socialclub.rockstargames.com</text>
<rect x="180" y="190" width="328.79" height="22" fill="#4c78a8" rx="3"/>
<text x="516.79" y="206" class="value">123.41</text>
<text x="10" y="238" class="label">ubi.com</text>
<rect x="180" y="222" width="364.38" height="22" fill="#4c78a8" rx="3"/>
<text x="552.38" y="238" class="value">136.77</text>
<text x="10" y="270" class="label">battle.net</text>
<rect x="180" y="254" width="395.1" height="22" fill="#4c78a8" rx="3"/>
<text x="583.1" y="270" class="value">148.30</text>
<text x="10" y="302" class="label">origin.com</text>
<rect x="180" y="286" width="404.72" height="22" fill="#4c78a8" rx="3"/>
<text x="592.72" y="302" class="value">151.91</text>
<text x="10" y="334" class="label">blizzard.com</text>
<rect x="180" y="318" width="411.46" height="22" fill="#4c78a8" rx="3"/>
<text x="599.46" y="334" class="value">154.44</text>
<text x="10" y="366" class="label">static3.cdn.ubi.com</text>
<rect x="180" y="350" width="420.49" height="22" fill="#4c78a8" rx="3"/>
<text x="608.49" y="366" class="value">157.83</text>
<text x="10" y="398" class="label">cdn.cloudflare.steamstatic.com</text>
<rect x="180" y="382" width="447.32" height="22" fill="#4c78a8" rx="3"/>
<text x="635.3199999999999" y="398" class="value">167.90</text>
<text x="10" y="430" class="label">steamcdn-a.akamaihd.net</text>
<rect x="180" y="414" width="456.35" height="22" fill="#4c78a8" rx="3"/>
<text x="644.35" y="430" class="value">171.29</text>
<text x="10" y="462" class="label">www.steamcommunity.com</text>
<rect x="180" y="446" width="543.95" height="22" fill="#4c78a8" rx="3"/>
<text x="731.95" y="462" class="value">204.17</text>
<text x="10" y="494" class="label">steam-chat.com</text>
<rect x="180" y="478" width="580.0" height="22" fill="#4c78a8" rx="3"/>
<text x="768.0" y="494" class="value">217.70</text>
<line x1="180" y1="30" x2="180" y2="520" stroke="#ccc"/>
<line x1="180" y1="520" x2="760" y2="520" stroke="#ccc"/>
</svg>