<svg xmlns="http://www.w3.org/2000/svg" width="800" height="540">
<style> .label{font-family:DejaVu Sans,Verdana,Geneva,sans-serif;font-size:12px;fill:#333} .value{font-family:DejaVu Sans,Verdana,Geneva,sans-serif;font-size:12px;fill:#555} </style>
<text x="10" y="20" class="label">延迟柱状图（越低越好，Top 15），单位 ms</text>
<text x="10" y="46" class="label">rockstargames.com</text>
<rect x="180" y="30" width="302.4" height="22" fill="#4c78a8" rx="3"/>
<text x="490.4" y="46" class="value">131.85</text>
<text x="10" y="78" class="label">cdn.cloudflare.steamstatic.com</text>
<rect x="180" y="62" width="324.0" height="22" fill="#4c78a8" rx="3"/>
<text x="512.0" y="78" class="value">141.27</text>
<text x="10" y="110" class="label">blizzard.com</text>
<rect x="180" y="94" width="359.46" height="22" fill="#4c78a8" rx="3"/>
<text x="547.46" y="110" class="value">156.73</text>
<text x="10" y="142" class="label">eaassets-a.akamaihd.net</text>
<rect x="180" y="126" width="374.11" height="22" fill="#4c78a8" rx="3"/>
<text x="562.11" y="142" class="value">163.12</text>
<text x="10" y="174" class="label">ubisoft.com</text>
<rect x="180" y="158" width="380.35" height="22" fill="#4c78a8" rx="3"/>
<text x="568.35" y="174" class="value">165.84</text>
<text x="10" y="206" class="label">battle.net</text>
<rect x="180" y="190" width="385.63" height="22" fill="#4c78a8" rx="3"/>
<text x="573.63" y="206" class="value">168.14</text>
<text x="10" y="238" class="label">ea.com</text>
<rect x="180" y="222" width="395.53" height="22" fill="#4c78a8" rx="3"/>
<text x="583.53" y="238" class="value">172.46</text>
<text x="10" y="270" class="label">ubi.com</text>
<rect x="180" y="254" width="436.47" height="22" fill="#4c78a8" rx="3"/>
<text x="624.47" y="270" class="value">190.31</text>
<text x="10" y="302" class="label">community.akamai.steamstatic.com</text>
<rect x="180" y="286" width="457.73" height="22" fill="#4c78a8" rx="3"/>
<text x="645.73" y="302" class="value">199.58</text>
<text x="10" y="334" class="label">steamcdn-a.akamaihd.net</text>
<rect x="180" y="318" width="485.71" height="22" fill="#4c78a8" rx="3"/>
<text x="673.71" y="334" class="value">211.78</text>
<text x="10" y="366" class="label">origin.com</text>
<rect x="180" y="350" width="486.15" height="22" fill="#4c78a8" rx="3"/>
<text x="674.15" y="366" class="value">211.97</text>
<text x="10" y="398" class="label">socialclub.rockstargames.com</text>
<rect x="180" y="382" width="489.06" height="22" fill="#4c78a8" rx="3"/>
<text x="677.06" y="398" class="value">213.24</text>
<text x="10" y="430" class="label">static3.cdn.ubi.com</text>
<rect x="180" y="414" width="536.79" height="22" fill="#4c78a8" rx="3"/>
<text x="724.79" y="430" class="value">234.05</text>
<text x="10" y="462" class="label">easyanticheat.net</text>
<rect x="180" y="446" width="568.74" height="22" fill="#4c78a8" rx="3"/>
<text x="756.74" y="462" class="value">247.98</text>
<text x="10" y="494" class="label">unrealengine.com</text>
<rect x="180" y="478" width="580.0" height="22" fill="#4c78a8" rx="3"/>
<text x="768.0" y="494" class="value">252.89</text>
<line x1="180" y1="30" x2="180" y2="520" stroke="#ccc"/>
<line x1="180" y1="520" x2="760" y2="520" stroke="#ccc"/>
</svg>