<svg xmlns="http://www.w3.org/2000/svg" width="800" height="540">
<style> .label{font-family:DejaVu Sans,Verdana,Geneva,sans-serif;font-size:12px;fill:#333} .value{font-family:DejaVu Sans,Verdana,Geneva,sans-serif;font-size:12px;fill:#555} </style>
<text x="10" y="20" class="label">延迟柱状图（越低越好，Top 15），单位 ms</text>
<text x="10" y="46" class="label">battle.net</text>
<rect x="180" y="30" width="330.32" height="22" fill="#4c78a8" rx="3"/>
<text x="518.3199999999999" y="46" class="value">142.75</text>
<text x="10" y="78" class="label">rockstargames.com</text>
<rect x="180" y="62" width="362.93" height="22" fill="#4c78a8" rx="3"/>
<text x="550.9300000000001" y="78" class="value">156.84</text>
<text x="10" y="110" class="label">eaassets-a.akamaihd.net</text>
<rect x="180" y="94" width="366.33" height="22" fill="#4c78a8" rx="3"/>
<text x="554.3299999999999" y="110" class="value">158.31</text>
<text x="10" y="142" class="label">blizzard.com</text>
<rect x="180" y="126" width="379.33" height="22" fill="#4c78a8" rx="3"/>
<text x="567.3299999999999" y="142" class="value">163.93</text>
<text x="10" y="174" class="label">ea.com</text>
<rect x="180" y="158" width="393.79" height="22" fill="#4c78a8" rx="3"/>
<text x="581.79" y="174" class="value">170.18</text>
<text x="10" y="206" class="label">ubisoft.com</text>
<rect x="180" y="190" width="405.57" height="22" fill="#4c78a8" rx="3"/>
<text x="593.5699999999999" y="206" class="value">175.27</text>
<text x="10" y="238" class="label">store.akamai.steamstatic.com</text>
<rect x="180" y="222" width="407.35" height="22" fill="#4c78a8" rx="3"/>
<text x="595.35" y="238" class="value">176.04</text>
<text x="10" y="270" class="label">steamcdn-a.akamaihd.net</text>
<rect x="180" y="254" width="410.59" height="22" fill="#4c78a8" rx="3"/>
<text x="598.5899999999999" y="270" class="value">177.44</text>
<text x="10" y="302" class="label">ubi.com</text>
<rect x="180" y="286" width="411.98" height="22" fill="#4c78a8" rx="3"/>
<text x="599.98" y="302" class="value">178.04</text>
<text x="10" y="334" class="label">socialclub.rockstargames.com</text>
<rect x="180" y="318" width="425.24" height="22" fill="#4c78a8" rx="3"/>
<text x="613.24" y="334" class="value">183.77</text>
<text x="10" y="366" class="label">cdn.cloudflare.steamstatic.com</text>
<rect x="180" y="350" width="528.88" height="22" fill="#4c78a8" rx="3"/>
<text x="716.88" y="366" class="value">228.56</text>
<text x="10" y="398" class="label">easyanticheat.net</text>
<rect x="180" y="382" width="530.11" height="22" fill="#4c78a8" rx="3"/>
<text x="718.11" y="398" class="value">229.09</text>
<text x="10" y="430" class="label">epicgames.com</text>
<rect x="180" y="414" width="550.4" height="22" fill="#4c78a8" rx="3"/>
<text x="738.4" y="430" class="value">237.86</text>
<text x="10" y="462" class="label">steam-chat.com</text>
<rect x="180" y="446" width="574.1" height="22" fill="#4c78a8" rx="3"/>
<text x="762.1" y="462" class="value">248.10</text>
<text x="10" y="494" class="label">gog.com</text>
<rect x="180" y="478" width="580.0" height="22" fill="#4c78a8" rx="3"/>
<text x="768.0" y="494" class="value">250.65</text>
<line x1="180" y1="30" x2="180" y2="520" stroke="#ccc"/>
<line x1="180" y1="520" x2="760" y2="520" stroke="#ccc"/>
</svg>