<svg xmlns="http://www.w3.org/2000/svg" width="800" height="540">
<style> .label{font-family:DejaVu Sans,Verdana,Geneva,sans-serif;font-size:12px;fill:#333} .value{font-family:DejaVu Sans,Verdana,Geneva,sans-serif;font-size:12px;fill:#555} </style>
<text x="10" y="20" class="label">延迟柱状图（越低越好，Top 15），单位 ms</text>
<text x="10" y="46" class="label">store.akamai.steamstatic.com</text>
<rect x="180" y="30" width="204.91" height="22" fill="#4c78a8" rx="3"/>
<text x="392.90999999999997" y="46" class="value">110.83</text>
<text x="10" y="78" class="label">community.akamai.steamstatic.com</text>
<rect x="180" y="62" width="230.99" height="22" fill="#4c78a8" rx="3"/>
<text x="418.99" y="78" class="value">124.94</text>
<text x="10" y="110" class="label">eaassets-a.akamaihd.net</text>
<rect x="180" y="94" width="235.71" height="22" fill="#4c78a8" rx="3"/>
<text x="423.71000000000004" y="110" class="value">127.49</text>
<text x="10" y="142" class="label">steamcdn-a.akamaihd.net</text>
<rect x="180" y="126" width="238.2" height="22" fill="#4c78a8" rx="3"/>
<text x="426.2" y="142" class="value">128.84</text>
<text x="10" y="174" class="label">rockstargames.com</text>
<rect x="180" y="158" width="244.97" height="22" fill="#4c78a8" rx="3"/>
<text x="432.97" y="174" class="value">132.50</text>
<text x="10" y="206" class="label">ea.com</text>
<rect x="180" y="190" width="276.75" height="22" fill="#4c78a8" rx="3"/>
<text x="464.75" y="206" class="value">149.69</text>
<text x="10" y="238" class="label">easyanticheat.net</text>
<rect x="180" y="222" width="298.94" height="22" fill="#4c78a8" rx="3"/>
<text x="486.94" y="238" class="value">161.69</text>
<text x="10" y="270" class="label">origin.com</text>
<rect x="180" y="254" width="299.07" height="22" fill="#4c78a8" rx="3"/>
<text x="487.07" y="270" class="value">161.76</text>
<text x="10" y="302" class="label">cdn.akamai.steamstatic.com</text>
<rect x="180" y="286" width="412.64" height="22" fill="#4c78a8" rx="3"/>
<text x="600.64" y="302" class="value">223.19</text>
<text x="10" y="334" class="label">ubisoft.com</text>
<rect x="180" y="318" width="458.66" height="22" fill="#4c78a8" rx="3"/>
<text x="646.6600000000001" y="334" class="value">248.08</text>
<text x="10" y="366" class="label">steam-chat.com</text>
<rect x="180" y="350" width="504.99" height="22" fill="#4c78a8" rx="3"/>
<text x="692.99" y="366" class="value">273.14</text>
<text x="10" y="398" class="label">steamcommunity.com</text>
<rect x="180" y="382" width="506.55" height="22" fill="#4c78a8" rx="3"/>
<text x="694.55" y="398" class="value">273.98</text>
<text x="10" y="430" class="label">ubi.com</text>
<rect x="180" y="414" width="529.4" height="22" fill="#4c78a8" rx="3"/>
<text x="717.4" y="430" class="value">286.34</text>
<text x="10" y="462" class="label">www.steamcommunity.com</text>
<rect x="180" y="446" width="550.81" height="22" fill="#4c78a8" rx="3"/>
<text x="738.81" y="462" class="value">297.92</text>
<text x="10" y="494" class="label">socialclub.rockstargames.com</text>
<rect x="180" y="478" width="580.0" height="22" fill="#4c78a8" rx="3"/>
<text x="768.0" y="494" class="value">313.71</text>
<line x1="180" y1="30" x2="180" y2="520" stroke="#ccc"/>
<line x1="180" y1="520" x2="760" y2="520" stroke="#ccc"/>
</svg>