<svg xmlns="http://www.w3.org/2000/svg" width="800" height="540">
<style> .label{font-family:DejaVu Sans,Verdana,Geneva,sans-serif;font-size:12px;fill:#333} .value{font-family:DejaVu Sans,Verdana,Geneva,sans-serif;font-size:12px;fill:#555} </style>
<text x="10" y="20" class="label">延迟柱状图（越低越好，Top 15），单位 ms</text>
<text x="10" y="46" class="label">rockstargames.com</text>
<rect x="180" y="30" width="165.15" height="22" fill="#4c78a8" rx="3"/>
<text x="353.15" y="46" class="value">63.41</text>
<text x="10" y="78" class="label">socialclub.rockstargames.com</text>
<rect x="180" y="62" width="173.43" height="22" fill="#4c78a8" rx="3"/>
<text x="361.43" y="78" class="value">66.59</text>
<text x="10" y="110" class="label">blizzard.com</text>
<rect x="180" y="94" width="206.8" height="22" fill="#4c78a8" rx="3"/>
<text x="394.8" y="110" class="value">79.40</text>
<text x="10" y="142" class="label">battle.net</text>
<rect x="180" y="126" width="241.31" height="22" fill="#4c78a8" rx="3"/>
<text x="429.31" y="142" class="value">92.65</text>
<text x="10" y="174" class="label">ubi.com</text>
<rect x="180" y="158" width="249.64" height="22" fill="#4c78a8" rx="3"/>
<text x="437.64" y="174" class="value">95.85</text>
<text x="10" y="206" class="label">eaassets-a.akamaihd.net</text>
<rect x="180" y="190" width="307.57" height="22" fill="#4c78a8" rx="3"/>
<text x="495.57" y="206" class="value">118.09</text>
<text x="10" y="238" class="label">origin.com</text>
<rect x="180" y="222" width="320.25" height="22" fill="#4c78a8" rx="3"/>
<text x="508.25" y="238" class="value">122.96</text>
<text x="10" y="270" class="label">ea.com</text>
<rect x="180" y="254" width="358.54" height="22" fill="#4c78a8" rx="3"/>
<text x="546.54" y="270" class="value">137.66</text>
<text x="10" y="302" class="label">unrealengine.com</text>
<rect x="180" y="286" width="370.34" height="22" fill="#4c78a8" rx="3"/>
<text x="558.3399999999999" y="302" class="value">142.19</text>
<text x="10" y="334" class="label">epicgames.com</text>
<rect x="180" y="318" width="377.34" height="22" fill="#4c78a8" rx="3"/>
<text x="565.3399999999999" y="334" class="value">144.88</text>
<text x="10" y="366" class="label">fortnite.com</text>
<rect x="180" y="350" width="382.53" height="22" fill="#4c78a8" rx="3"/>
<text x="570.53" y="366" class="value">146.87</text>
<text x="10" y="398" class="label">ubisoft.com</text>
<rect x="180" y="382" width="409.95" height="22" fill="#4c78a8" rx="3"/>
<text x="597.95" y="398" class="value">157.40</text>
<text x="10" y="430" class="label">store.akamai.steamstatic.com</text>
<rect x="180" y="414" width="431.8" height="22" fill="#4c78a8" rx="3"/>
<text x="619.8" y="430" class="value">165.79</text>
<text x="10" y="462" class="label">cdn.akamai.steamstatic.com</text>
<rect x="180" y="446" width="538.48" height="22" fill="#4c78a8" rx="3"/>
<text x="726.48" y="462" class="value">206.75</text>
<text x="10" y="494" class="label">easyanticheat.net</text>
<rect x="180" y="478" width="580.0" height="22" fill="#4c78a8" rx="3"/>
<text x="768.0" y="494" class="value">222.69</text>
<line x1="180" y1="30" x2="180" y2="520" stroke="#ccc"/>
<line x1="180" y1="520" x2="760" y2="520" stroke="#ccc"/>
</svg>