<svg xmlns="http://www.w3.org/2000/svg" width="800" height="540">
<style> .label{font-family:DejaVu Sans,Verdana,Geneva,sans-serif;font-size:12px;fill:#333} .value{font-family:DejaVu Sans,Verdana,Geneva,sans-serif;font-size:12px;fill:#555} </style>
<text x="10" y="20" class="label">延迟柱状图（越低越好，Top 15），单位 ms</text>
<text x="10" y="46" class="label">unrealengine.com</text>
<rect x="180" y="30" width="190.86" height="22" fill="#4c78a8" rx="3"/>
<text x="378.86" y="46" class="value">74.75</text>
<text x="10" y="78" class="label">socialclub.rockstargames.com</text>
<rect x="180" y="62" width="213.58" height="22" fill="#4c78a8" rx="3"/>
<text x="401.58000000000004" y="78" class="value">83.65</text>
<text x="10" y="110" class="label">ubi.com</text>
<rect x="180" y="94" width="229.97" height="22" fill="#4c78a8" rx="3"/>
<text x="417.97" y="110" class="value">90.07</text>
<text x="10" y="142" class="label">rockstargames.com</text>
<rect x="180" y="126" width="252.01" height="22" fill="#4c78a8" rx="3"/>
<text x="440.01" y="142" class="value">98.70</text>
<text x="10" y="174" class="label">fortnite.com</text>
<rect x="180" y="158" width="282.49" height="22" fill="#4c78a8" rx="3"/>
<text x="470.49" y="174" class="value">110.64</text>
<text x="10" y="206" class="label">store.akamai.steamstatic.com</text>
<rect x="180" y="190" width="302.92" height="22" fill="#4c78a8" rx="3"/>
<text x="490.92" y="206" class="value">118.64</text>
<text x="10" y="238" class="label">battle.net</text>
<rect x="180" y="222" width="309.4" height="22" fill="#4c78a8" rx="3"/>
<text x="497.4" y="238" class="value">121.18</text>
<text x="10" y="270" class="label">eaassets-a.akamaihd.net</text>
<rect x="180" y="254" width="317.14" height="22" fill="#4c78a8" rx="3"/>
<text x="505.14" y="270" class="value">124.21</text>
<text x="10" y="302" class="label">blizzard.com</text>
<rect x="180" y="286" width="338.64" height="22" fill="#4c78a8" rx="3"/>
<text x="526.64" y="302" class="value">132.63</text>
<text x="10" y="334" class="label">ea.com</text>
<rect x="180" y="318" width="353.01" height="22" fill="#4c78a8" rx="3"/>
<text x="541.01" y="334" class="value">138.26</text>
<text x="10" y="366" class="label">epicgames.com</text>
<rect x="180" y="350" width="456.83" height="22" fill="#4c78a8" rx="3"/>
<text x="644.8299999999999" y="366" class="value">178.92</text>
<text x="10" y="398" class="label">origin.com</text>
<rect x="180" y="382" width="532.71" height="22" fill="#4c78a8" rx="3"/>
<text x="720.71" y="398" class="value">208.64</text>
<text x="10" y="430" class="label">community.akamai.steamstatic.com</text>
<rect x="180" y="414" width="563.28" height="22" fill="#4c78a8" rx="3"/>
<text x="751.28" y="430" class="value">220.61</text>
<text x="10" y="462" class="label">static3.cdn.ubi.com</text>
<rect x="180" y="446" width="570.66" height="22" fill="#4c78a8" rx="3"/>
<text x="758.66" y="462" class="value">223.50</text>
<text x="10" y="494" class="label">cdn.cloudflare.steamstatic.com</text>
<rect x="180" y="478" width="580.0" height="22" fill="#4c78a8" rx="3"/>
<text x="768.0" y="494" class="value">227.16</text>
<line x1="180" y1="30" x2="180" y2="520" stroke="#ccc"/>
<line x1="180" y1="520" x2="760" y2="520" stroke="#ccc"/>
</svg>