<svg xmlns="http://www.w3.org/2000/svg" width="800" height="540">
<style> .label{font-family:DejaVu Sans,Verdana,Geneva,sans-serif;font-size:12px;fill:#333} .value{font-family:DejaVu Sans,Verdana,Geneva,sans-serif;font-size:12px;fill:#555} </style>
<text x="10" y="20" class="label">延迟柱状图（越低越好，Top 15），单位 ms</text>
<text x="10" y="46" class="label">rockstargames.com</text>
<rect x="180" y="30" width="195.36" height="22" fill="#4c78a8" rx="3"/>
<text x="383.36" y="46" class="value">76.59</text>
<text x="10" y="78" class="label">blizzard.com</text>
<rect x="180" y="62" width="205.23" height="22" fill="#4c78a8" rx="3"/>
<text x="393.23" y="78" class="value">80.46</text>
<text x="10" y="110" class="label">socialclub.rockstargames.com</text>
<rect x="180" y="94" width="265.25" height="22" fill="#4c78a8" rx="3"/>
<text x="453.25" y="110" class="value">103.99</text>
<text x="10" y="142" class="label">battle.net</text>
<rect x="180" y="126" width="270.17" height="22" fill="#4c78a8" rx="3"/>
<text x="458.17" y="142" class="value">105.92</text>
<text x="10" y="174" class="label">ubi.com</text>
<rect x="180" y="158" width="289.3" height="22" fill="#4c78a8" rx="3"/>
<text x="477.3" y="174" class="value">113.42</text>
<text x="10" y="206" class="label">eaassets-a.akamaihd.net</text>
<rect x="180" y="190" width="291.36" height="22" fill="#4c78a8" rx="3"/>
<text x="479.36" y="206" class="value">114.23</text>
<text x="10" y="238" class="label">unrealengine.com</text>
<rect x="180" y="222" width="423.29" height="22" fill="#4c78a8" rx="3"/>
<text x="611.29" y="238" class="value">165.95</text>
<text x="10" y="270" class="label">ea.com</text>
<rect x="180" y="254" width="425.38" height="22" fill="#4c78a8" rx="3"/>
<text x="613.38" y="270" class="value">166.77</text>
<text x="10" y="302" class="label">ubisoft.com</text>
<rect x="180" y="286" width="481.72" height="22" fill="#4c78a8" rx="3"/>
<text x="669.72" y="302" class="value">188.86</text>
<text x="10" y="334" class="label">cdn.akamai.steamstatic.com</text>
<rect x="180" y="318" width="510.83" height="22" fill="#4c78a8" rx="3"/>
<text x="698.8299999999999" y="334" class="value">200.27</text>
<text x="10" y="366" class="label">epicgames.com</text>
<rect x="180" y="350" width="567.68" height="22" fill="#4c78a8" rx="3"/>
<text x="755.68" y="366" class="value">222.56</text>
<text x="10" y="398" class="label">steam-chat.com</text>
<rect x="180" y="382" width="567.73" height="22" fill="#4c78a8" rx="3"/>
<text x="755.73" y="398" class="value">222.58</text>
<text x="10" y="430" class="label">cdn.cloudflare.steamstatic.com</text>
<rect x="180" y="414" width="570.31" height="22" fill="#4c78a8" rx="3"/>
<text x="758.31" y="430" class="value">223.59</text>
<text x="10" y="462" class="label">steamcdn-a.akamaihd.net</text>
<rect x="180" y="446" width="578.72" height="22" fill="#4c78a8" rx="3"/>
<text x="766.72" y="462" class="value">226.89</text>
<text x="10" y="494" class="label">origin.com</text>
<rect x="180" y="478" width="580.0" height="22" fill="#4c78a8" rx="3"/>
<text x="768.0" y="494" class="value">227.39</text>
<line x1="180" y1="30" x2="180" y2="520" stroke="#ccc"/>
<line x1="180" y1="520" x2="760" y2="520" stroke="#ccc"/>
</svg>