<svg xmlns="http://www.w3.org/2000/svg" width="800" height="540">
<style> .label{font-family:DejaVu Sans,Verdana,Geneva,sans-serif;font-size:12px;fill:#333} .value{font-family:DejaVu Sans,Verdana,Geneva,sans-serif;font-size:12px;fill:#555} </style>
<text x="10" y="20" class="label">延迟柱状图（越低越好，Top 15），单位 ms</text>
<text x="10" y="46" class="label">rockstargames.com</text>
<rect x="180" y="30" width="228.84" height="22" fill="#4c78a8" rx="3"/>
<text x="416.84000000000003" y="46" class="value">65.07</text>
<text x="10" y="78" class="label">battle.net</text>
<rect x="180" y="62" width="285.99" height="22" fill="#4c78a8" rx="3"/>
<text x="473.99" y="78" class="value">81.32</text>
<text x="10" y="110" class="label">unrealengine.com</text>
<rect x="180" y="94" width="310.43" height="22" fill="#4c78a8" rx="3"/>
<text x="498.43" y="110" class="value">88.27</text>
<text x="10" y="142" class="label">ubi.com</text>
<rect x="180" y="126" width="332.55" height="22" fill="#4c78a8" rx="3"/>
<text x="520.55" y="142" class="value">94.56</text>
<text x="10" y="174" class="label">blizzard.com</text>
<rect x="180" y="158" width="334.73" height="22" fill="#4c78a8" rx="3"/>
<text x="522.73" y="174" class="value">95.18</text>
<text x="10" y="206" class="label">socialclub.rockstargames.com</text>
<rect x="180" y="190" width="335.12" height="22" fill="#4c78a8" rx="3"/>
<text x="523.12" y="206" class="value">95.29</text>
<text x="10" y="238" class="label">cdn.akamai.steamstatic.com</text>
<rect x="180" y="222" width="351.69" height="22" fill="#4c78a8" rx="3"/>
<text x="539.69" y="238" class="value">100.00</text>
<text x="10" y="270" class="label">ea.com</text>
<rect x="180" y="254" width="358.97" height="22" fill="#4c78a8" rx="3"/>
<text x="546.97" y="270" class="value">102.07</text>
<text x="10" y="302" class="label">fortnite.com</text>
<rect x="180" y="286" width="391.11" height="22" fill="#4c78a8" rx="3"/>
<text x="579.11" y="302" class="value">111.21</text>
<text x="10" y="334" class="label">ubisoft.com</text>
<rect x="180" y="318" width="401.06" height="22" fill="#4c78a8" rx="3"/>
<text x="589.06" y="334" class="value">114.04</text>
<text x="10" y="366" class="label">eaassets-a.akamaihd.net</text>
<rect x="180" y="350" width="451.46" height="22" fill="#4c78a8" rx="3"/>
<text x="639.46" y="366" class="value">128.37</text>
<text x="10" y="398" class="label">static3.cdn.ubi.com</text>
<rect x="180" y="382" width="534.21" height="22" fill="#4c78a8" rx="3"/>
<text x="722.21" y="398" class="value">151.90</text>
<text x="10" y="430" class="label">epicgames.com</text>
<rect x="180" y="414" width="541.6" height="22" fill="#4c78a8" rx="3"/>
<text x="729.6" y="430" class="value">154.00</text>
<text x="10" y="462" class="label">store.akamai.steamstatic.com</text>
<rect x="180" y="446" width="564.84" height="22" fill="#4c78a8" rx="3"/>
<text x="752.84" y="462" class="value">160.61</text>
<text x="10" y="494" class="label">cdn.cloudflare.steamstatic.com</text>
<rect x="180" y="478" width="580.0" height="22" fill="#4c78a8" rx="3"/>
<text x="768.0" y="494" class="value">164.92</text>
<line x1="180" y1="30" x2="180" y2="520" stroke="#ccc"/>
<line x1="180" y1="520" x2="760" y2="520" stroke="#ccc"/>
</svg>