<svg xmlns="http://www.w3.org/2000/svg" width="800" height="540">
<style> .label{font-family:DejaVu Sans,Verdana,Geneva,sans-serif;font-size:12px;fill:#333} .value{font-family:DejaVu Sans,Verdana,Geneva,sans-serif;font-size:12px;fill:#555} </style>
<text x="10" y="20" class="label">延迟柱状图（越低越好，Top 15），单位 ms</text>
<text x="10" y="46" class="label">eaassets-a.akamaihd.net</text>
<rect x="180" y="30" width="287.88" height="22" fill="#4c78a8" rx="3"/>
<text x="475.88" y="46" class="value">99.30</text>
<text x="10" y="78" class="label">community.akamai.steamstatic.com</text>
<rect x="180" y="62" width="291.33" height="22" fill="#4c78a8" rx="3"/>
<text x="479.33" y="78" class="value">100.49</text>
<text x="10" y="110" class="label">ubisoft.com</text>
<rect x="180" y="94" width="321.19" height="22" fill="#4c78a8" rx="3"/>
<text x="509.19" y="110" class="value">110.79</text>
<text x="10" y="142" class="label">rockstargames.com</text>
<rect x="180" y="126" width="370.1" height="22" fill="#4c78a8" rx="3"/>
<text x="558.1" y="142" class="value">127.66</text>
<text x="10" y="174" class="label">steamcdn-a.akamaihd.net</text>
<rect x="180" y="158" width="410.43" height="22" fill="#4c78a8" rx="3"/>
<text x="598.4300000000001" y="174" class="value">141.57</text>
<text x="10" y="206" class="label">store.akamai.steamstatic.com</text>
<rect x="180" y="190" width="418.08" height="22" fill="#4c78a8" rx="3"/>
<text x="606.0799999999999" y="206" class="value">144.21</text>
<text x="10" y="238" class="label">easyanticheat.net</text>
<rect x="180" y="222" width="425.07" height="22" fill="#4c78a8" rx="3"/>
<text x="613.0699999999999" y="238" class="value">146.62</text>
<text x="10" y="270" class="label">blizzard.com</text>
<rect x="180" y="254" width="430.55" height="22" fill="#4c78a8" rx="3"/>
<text x="618.55" y="270" class="value">148.51</text>
<text x="10" y="302" class="label">ea.com</text>
<rect x="180" y="286" width="438.44" height="22" fill="#4c78a8" rx="3"/>
<text x="626.44" y="302" class="value">151.23</text>
<text x="10" y="334" class="label">battle.net</text>
<rect x="180" y="318" width="452.96" height="22" fill="#4c78a8" rx="3"/>
<text x="640.96" y="334" class="value">156.24</text>
<text x="10" y="366" class="label">ubi.com</text>
<rect x="180" y="350" width="492.97" height="22" fill="#4c78a8" rx="3"/>
<text x="680.97" y="366" class="value">170.04</text>
<text x="10" y="398" class="label">launcher-public-service-prod06.ol.epicgames.com</text>
<rect x="180" y="382" width="514.19" height="22" fill="#4c78a8" rx="3"/>
<text x="702.19" y="398" class="value">177.36</text>
<text x="10" y="430" class="label">origin.com</text>
<rect x="180" y="414" width="520.71" height="22" fill="#4c78a8" rx="3"/>
<text x="708.71" y="430" class="value">179.61</text>
<text x="10" y="462" class="label">cdn.akamai.steamstatic.com</text>
<rect x="180" y="446" width="541.76" height="22" fill="#4c78a8" rx="3"/>
<text x="729.76" y="462" class="value">186.87</text>
<text x="10" y="494" class="label">socialclub.rockstargames.com</text>
<rect x="180" y="478" width="580.0" height="22" fill="#4c78a8" rx="3"/>
<text x="768.0" y="494" class="value">200.06</text>
<line x1="180" y1="30" x2="180" y2="520" stroke="#ccc"/>
<line x1="180" y1="520" x2="760" y2="520" stroke="#ccc"/>
</svg>