<svg xmlns="http://www.w3.org/2000/svg" width="800" height="540">
<style> .label{font-family:DejaVu Sans,Verdana,Geneva,sans-serif;font-size:12px;fill:#333} .value{font-family:DejaVu Sans,Verdana,Geneva,sans-serif;font-size:12px;fill:#555} </style>
<text x="10" y="20" class="label">延迟柱状图（越低越好，Top 15），单位 ms</text>
<text x="10" y="46" class="label">rockstargames.com</text>
<rect x="180" y="30" width="174.37" height="22" fill="#4c78a8" rx="3"/>
<text x="362.37" y="46" class="value">79.93</text>
<text x="10" y="78" class="label">store.akamai.steamstatic.com</text>
<rect x="180" y="62" width="180.37" height="22" fill="#4c78a8" rx="3"/>
<text x="368.37" y="78" class="value">82.68</text>
<text x="10" y="110" class="label">origin.com</text>
<rect x="180" y="94" width="250.81" height="22" fill="#4c78a8" rx="3"/>
<text x="438.81" y="110" class="value">114.97</text>
<text x="10" y="142" class="label">ea.com</text>
<rect x="180" y="126" width="264.4" height="22" fill="#4c78a8" rx="3"/>
<text x="452.4" y="142" class="value">121.20</text>
<text x="10" y="174" class="label">eaassets-a.akamaihd.net</text>
<rect x="180" y="158" width="309.86" height="22" fill="#4c78a8" rx="3"/>
<text x="497.86" y="174" class="value">142.04</text>
<text x="10" y="206" class="label">cdn.cloudflare.steamstatic.com</text>
<rect x="180" y="190" width="318.96" height="22" fill="#4c78a8" rx="3"/>
<text x="506.96" y="206" class="value">146.21</text>
<text x="10" y="238" class="label">steamcdn-a.akamaihd.net</text>
<rect x="180" y="222" width="356.42" height="22" fill="#4c78a8" rx="3"/>
<text x="544.4200000000001" y="238" class="value">163.38</text>
<text x="10" y="270" class="label">community.akamai.steamstatic.com</text>
<rect x="180" y="254" width="374.28" height="22" fill="#4c78a8" rx="3"/>
<text x="562.28" y="270" class="value">171.57</text>
<text x="10" y="302" class="label">cdn.akamai.steamstatic.com</text>
<rect x="180" y="286" width="424.2" height="22" fill="#4c78a8" rx="3"/>
<text x="612.2" y="302" class="value">194.45</text>
<text x="10" y="334" class="label">static3.cdn.ubi.com</text>
<rect x="180" y="318" width="425.92" height="22" fill="#4c78a8" rx="3"/>
<text x="613.9200000000001" y="334" class="value">195.24</text>
<text x="10" y="366" class="label">easyanticheat.net</text>
<rect x="180" y="350" width="477.36" height="22" fill="#4c78a8" rx="3"/>
<text x="665.36" y="366" class="value">218.82</text>
<text x="10" y="398" class="label">www.steamcommunity.com</text>
<rect x="180" y="382" width="503.39" height="22" fill="#4c78a8" rx="3"/>
<text x="691.39" y="398" class="value">230.75</text>
<text x="10" y="430" class="label">ubi.com</text>
<rect x="180" y="414" width="550.27" height="22" fill="#4c78a8" rx="3"/>
<text x="738.27" y="430" class="value">252.24</text>
<text x="10" y="462" class="label">fortnite.com</text>
<rect x="180" y="446" width="574.02" height="22" fill="#4c78a8" rx="3"/>
<text x="762.02" y="462" class="value">263.13</text>
<text x="10" y="494" class="label">unrealengine.com</text>
<rect x="180" y="478" width="580.0" height="22" fill="#4c78a8" rx="3"/>
<text x="768.0" y="494" class="value">265.87</text>
<line x1="180" y1="30" x2="180" y2="520" stroke="#ccc"/>
<line x1="180" y1="520" x2="760" y2="520" stroke="#ccc"/>
</svg>