<svg xmlns="http://www.w3.org/2000/svg" width="800" height="540">
<style> .label{font-family:DejaVu Sans,Verdana,Geneva,sans-serif;font-size:12px;fill:#333} .value{font-family:DejaVu Sans,Verdana,Geneva,sans-serif;font-size:12px;fill:#555} </style>
<text x="10" y="20" class="label">延迟柱状图（越低越好，Top 15），单位 ms</text>
<text x="10" y="46" class="label">epicgames.com</text>
<rect x="180" y="30" width="204.0" height="22" fill="#4c78a8" rx="3"/>
<text x="392.0" y="46" class="value">80.44</text>
<text x="10" y="78" class="label">ea.com</text>
<rect x="180" y="62" width="206.36" height="22" fill="#4c78a8" rx="3"/>
<text x="394.36" y="78" class="value">81.37</text>
<text x="10" y="110" class="label">blizzard.com</text>
<rect x="180" y="94" width="206.77" height="22" fill="#4c78a8" rx="3"/>
<text x="394.77" y="110" class="value">81.53</text>
<text x="10" y="142" class="label">battle.net</text>
<rect x="180" y="126" width="209.07" height="22" fill="#4c78a8" rx="3"/>
<text x="397.07" y="142" class="value">82.44</text>
<text x="10" y="174" class="label">eaassets-a.akamaihd.net</text>
<rect x="180" y="158" width="275.37" height="22" fill="#4c78a8" rx="3"/>
<text x="463.37" y="174" class="value">108.58</text>
<text x="10" y="206" class="label">rockstargames.com</text>
<rect x="180" y="190" width="281.91" height="22" fill="#4c78a8" rx="3"/>
<text x="469.91" y="206" class="value">111.16</text>
<text x="10" y="238" class="label">ubi.com</text>
<rect x="180" y="222" width="282.32" height="22" fill="#4c78a8" rx="3"/>
<text x="470.32" y="238" class="value">111.32</text>
<text x="10" y="270" class="label">socialclub.rockstargames.com</text>
<rect x="180" y="254" width="312.34" height="22" fill="#4c78a8" rx="3"/>
<text x="500.34" y="270" class="value">123.16</text>
<text x="10" y="302" class="label">store.akamai.steamstatic.com</text>
<rect x="180" y="286" width="313.69" height="22" fill="#4c78a8" rx="3"/>
<text x="501.69" y="302" class="value">123.69</text>
<text x="10" y="334" class="label">fortnite.com</text>
<rect x="180" y="318" width="364.99" height="22" fill="#4c78a8" rx="3"/>
<text x="552.99" y="334" class="value">143.92</text>
<text x="10" y="366" class="label">community.akamai.steamstatic.com</text>
<rect x="180" y="350" width="375.85" height="22" fill="#4c78a8" rx="3"/>
<text x="563.85" y="366" class="value">148.20</text>
<text x="10" y="398" class="label">unrealengine.com</text>
<rect x="180" y="382" width="459.71" height="22" fill="#4c78a8" rx="3"/>
<text x="647.71" y="398" class="value">181.27</text>
<text x="10" y="430" class="label">cdn.akamai.steamstatic.com</text>
<rect x="180" y="414" width="503.99" height="22" fill="#4c78a8" rx="3"/>
<text x="691.99" y="430" class="value">198.73</text>
<text x="10" y="462" class="label">ubisoft.com</text>
<rect x="180" y="446" width="566.58" height="22" fill="#4c78a8" rx="3"/>
<text x="754.58" y="462" class="value">223.41</text>
<text x="10" y="494" class="label">cdn.cloudflare.steamstatic.com</text>
<rect x="180" y="478" width="580.0" height="22" fill="#4c78a8" rx="3"/>
<text x="768.0" y="494" class="value">228.70</text>
<line x1="180" y1="30" x2="180" y2="520" stroke="#ccc"/>
<line x1="180" y1="520" x2="760" y2="520" stroke="#ccc"/>
</svg>