<svg xmlns="http://www.w3.org/2000/svg" width="800" height="540">
<style> .label{font-family:DejaVu Sans,Verdana,Geneva,sans-serif;font-size:12px;fill:#333} .value{font-family:DejaVu Sans,Verdana,Geneva,sans-serif;font-size:12px;fill:#555} </style>
<text x="10" y="20" class="label">延迟柱状图（越低越好，Top 15），单位 ms</text>
<text x="10" y="46" class="label">steamcdn-a.akamaihd.net</text>
<rect x="180" y="30" width="189.15" height="22" fill="#4c78a8" rx="3"/>
<text x="377.15" y="46" class="value">86.13</text>
<text x="10" y="78" class="label">store.akamai.steamstatic.com</text>
<rect x="180" y="62" width="199.3" height="22" fill="#4c78a8" rx="3"/>
<text x="387.3" y="78" class="value">90.75</text>
<text x="10" y="110" class="label">rockstargames.com</text>
<rect x="180" y="94" width="227.96" height="22" fill="#4c78a8" rx="3"/>
<text x="415.96000000000004" y="110" class="value">103.80</text>
<text x="10" y="142" class="label">community.akamai.steamstatic.com</text>
<rect x="180" y="126" width="281.5" height="22" fill="#4c78a8" rx="3"/>
<text x="469.5" y="142" class="value">128.18</text>
<text x="10" y="174" class="label">eaassets-a.akamaihd.net</text>
<rect x="180" y="158" width="287.43" height="22" fill="#4c78a8" rx="3"/>
<text x="475.43" y="174" class="value">130.88</text>
<text x="10" y="206" class="label">ubisoft.com</text>
<rect x="180" y="190" width="314.14" height="22" fill="#4c78a8" rx="3"/>
<text x="502.14" y="206" class="value">143.04</text>
<text x="10" y="238" class="label">origin.com</text>
<rect x="180" y="222" width="326.59" height="22" fill="#4c78a8" rx="3"/>
<text x="514.5899999999999" y="238" class="value">148.71</text>
<text x="10" y="270" class="label">cdn.akamai.steamstatic.com</text>
<rect x="180" y="254" width="340.69" height="22" fill="#4c78a8" rx="3"/>
<text x="528.69" y="270" class="value">155.13</text>
<text x="10" y="302" class="label">easyanticheat.net</text>
<rect x="180" y="286" width="352.0" height="22" fill="#4c78a8" rx="3"/>
<text x="540.0" y="302" class="value">160.28</text>
<text x="10" y="334" class="label">ea.com</text>
<rect x="180" y="318" width="368.29" height="22" fill="#4c78a8" rx="3"/>
<text x="556.29" y="334" class="value">167.70</text>
<text x="10" y="366" class="label">api.steampowered.com</text>
<rect x="180" y="350" width="453.61" height="22" fill="#4c78a8" rx="3"/>
<text x="641.61" y="366" class="value">206.55</text>
<text x="10" y="398" class="label">cdn.cloudflare.steamstatic.com</text>
<rect x="180" y="382" width="470.11" height="22" fill="#4c78a8" rx="3"/>
<text x="658.11" y="398" class="value">214.06</text>
<text x="10" y="430" class="label">steam-chat.com</text>
<rect x="180" y="414" width="520.51" height="22" fill="#4c78a8" rx="3"/>
<text x="708.51" y="430" class="value">237.01</text>
<text x="10" y="462" class="label">www.steamcommunity.com</text>
<rect x="180" y="446" width="559.88" height="22" fill="#4c78a8" rx="3"/>
<text x="747.88" y="462" class="value">254.94</text>
<text x="10" y="494" class="label">launcher-public-service-prod06.ol.epicgames.com</text>
<rect x="180" y="478" width="580.0" height="22" fill="#4c78a8" rx="3"/>
<text x="768.0" y="494" class="value">264.10</text>
<line x1="180" y1="30" x2="180" y2="520" stroke="#ccc"/>
<line x1="180" y1="520" x2="760" y2="520" stroke="#ccc"/>
</svg>