<svg xmlns="http://www.w3.org/2000/svg" width="800" height="540">
<style> .label{font-family:DejaVu Sans,Verdana,Geneva,sans-serif;font-size:12px;fill:#333} .value{font-family:DejaVu Sans,Verdana,Geneva,sans-serif;font-size:12px;fill:#555} </style>
<text x="10" y="20" class="label">延迟柱状图（越低越好，Top 15），单位 ms</text>
<text x="10" y="46" class="label">rockstargames.com</text>
<rect x="180" y="30" width="187.77" height="22" fill="#4c78a8" rx="3"/>
<text x="375.77" y="46" class="value">75.55</text>
<text x="10" y="78" class="label">eaassets-a.akamaihd.net</text>
<rect x="180" y="62" width="202.91" height="22" fill="#4c78a8" rx="3"/>
<text x="390.90999999999997" y="78" class="value">81.64</text>
<text x="10" y="110" class="label">ubi.com</text>
<rect x="180" y="94" width="207.16" height="22" fill="#4c78a8" rx="3"/>
<text x="395.15999999999997" y="110" class="value">83.35</text>
<text x="10" y="142" class="label">blizzard.com</text>
<rect x="180" y="126" width="216.51" height="22" fill="#4c78a8" rx="3"/>
<text x="404.51" y="142" class="value">87.11</text>
<text x="10" y="174" class="label">socialclub.rockstargames.com</text>
<rect x="180" y="158" width="229.55" height="22" fill="#4c78a8" rx="3"/>
<text x="417.55" y="174" class="value">92.36</text>
<text x="10" y="206" class="label">battle.net</text>
<rect x="180" y="190" width="265.64" height="22" fill="#4c78a8" rx="3"/>
<text x="453.64" y="206" class="value">106.88</text>
<text x="10" y="238" class="label">ea.com</text>
<rect x="180" y="222" width="340.65" height="22" fill="#4c78a8" rx="3"/>
<text x="528.65" y="238" class="value">137.06</text>
<text x="10" y="270" class="label">static3.cdn.ubi.com</text>
<rect x="180" y="254" width="352.68" height="22" fill="#4c78a8" rx="3"/>
<text x="540.6800000000001" y="270" class="value">141.90</text>
<text x="10" y="302" class="label">fortnite.com</text>
<rect x="180" y="286" width="386.86" height="22" fill="#4c78a8" rx="3"/>
<text x="574.86" y="302" class="value">155.65</text>
<text x="10" y="334" class="label">ubisoft.com</text>
<rect x="180" y="318" width="444.82" height="22" fill="#4c78a8" rx="3"/>
<text x="632.8199999999999" y="334" class="value">178.97</text>
<text x="10" y="366" class="label">store.akamai.steamstatic.com</text>
<rect x="180" y="350" width="491.99" height="22" fill="#4c78a8" rx="3"/>
<text x="679.99" y="366" class="value">197.95</text>
<text x="10" y="398" class="label">easyanticheat.net</text>
<rect x="180" y="382" width="500.29" height="22" fill="#4c78a8" rx="3"/>
<text x="688.29" y="398" class="value">201.29</text>
<text x="10" y="430" class="label">steamcommunity.com</text>
<rect x="180" y="414" width="541.55" height="22" fill="#4c78a8" rx="3"/>
<text x="729.55" y="430" class="value">217.89</text>
<text x="10" y="462" class="label">epicgames.com</text>
<rect x="180" y="446" width="570.85" height="22" fill="#4c78a8" rx="3"/>
<text x="758.85" y="462" class="value">229.68</text>
<text x="10" y="494" class="label">steam-chat.com</text>
<rect x="180" y="478" width="580.0" height="22" fill="#4c78a8" rx="3"/>
<text x="768.0" y="494" class="value">233.36</text>
<line x1="180" y1="30" x2="180" y2="520" stroke="#ccc"/>
<line x1="180" y1="520" x2="760" y2="520" stroke="#ccc"/>
</svg>