<svg xmlns="http://www.w3.org/2000/svg" width="800" height="540">
<style> .label{font-family:DejaVu Sans,Verdana,Geneva,sans-serif;font-size:12px;fill:#333} .value{font-family:DejaVu Sans,Verdana,Geneva,sans-serif;font-size:12px;fill:#555} </style>
<text x="10" y="20" class="label">延迟柱状图（越低越好，Top 15），单位 ms</text>
<text x="10" y="46" class="label">eaassets-a.akamaihd.net</text>
<rect x="180" y="30" width="101.5" height="22" fill="#4c78a8" rx="3"/>
<text x="289.5" y="46" class="value">51.04</text>
<text x="10" y="78" class="label">rockstargames.com</text>
<rect x="180" y="62" width="109.87" height="22" fill="#4c78a8" rx="3"/>
<text x="297.87" y="78" class="value">55.25</text>
<text x="10" y="110" class="label">ea.com</text>
<rect x="180" y="94" width="129.04" height="22" fill="#4c78a8" rx="3"/>
<text x="317.03999999999996" y="110" class="value">64.89</text>
<text x="10" y="142" class="label">steamcdn-a.akamaihd.net</text>
<rect x="180" y="126" width="182.87" height="22" fill="#4c78a8" rx="3"/>
<text x="370.87" y="142" class="value">91.96</text>
<text x="10" y="174" class="label">store.akamai.steamstatic.com</text>
<rect x="180" y="158" width="236.86" height="22" fill="#4c78a8" rx="3"/>
<text x="424.86" y="174" class="value">119.11</text>
<text x="10" y="206" class="label">origin.com</text>
<rect x="180" y="190" width="275.85" height="22" fill="#4c78a8" rx="3"/>
<text x="463.85" y="206" class="value">138.72</text>
<text x="10" y="238" class="label">community.akamai.steamstatic.com</text>
<rect x="180" y="222" width="312.42" height="22" fill="#4c78a8" rx="3"/>
<text x="500.42" y="238" class="value">157.11</text>
<text x="10" y="270" class="label">cdn.akamai.steamstatic.com</text>
<rect x="180" y="254" width="329.24" height="22" fill="#4c78a8" rx="3"/>
<text x="517.24" y="270" class="value">165.57</text>
<text x="10" y="302" class="label">easyanticheat.net</text>
<rect x="180" y="286" width="392.24" height="22" fill="#4c78a8" rx="3"/>
<text x="580.24" y="302" class="value">197.25</text>
<text x="10" y="334" class="label">api.steampowered.com</text>
<rect x="180" y="318" width="410.46" height="22" fill="#4c78a8" rx="3"/>
<text x="598.46" y="334" class="value">206.41</text>
<text x="10" y="366" class="label">steam-chat.com</text>
<rect x="180" y="350" width="435.65" height="22" fill="#4c78a8" rx="3"/>
<text x="623.65" y="366" class="value">219.08</text>
<text x="10" y="398" class="label">launcher-public-service-prod06.ol.epicgames.com</text>
<rect x="180" y="382" width="544.42" height="22" fill="#4c78a8" rx="3"/>
<text x="732.42" y="398" class="value">273.78</text>
<text x="10" y="430" class="label">www.steamcommunity.com</text>
<rect x="180" y="414" width="545.02" height="22" fill="#4c78a8" rx="3"/>
<text x="733.02" y="430" class="value">274.08</text>
<text x="10" y="462" class="label">ubisoft.com</text>
<rect x="180" y="446" width="572.19" height="22" fill="#4c78a8" rx="3"/>
<text x="760.19" y="462" class="value">287.74</text>
<text x="10" y="494" class="label">store.steampowered.com</text>
<rect x="180" y="478" width="580.0" height="22" fill="#4c78a8" rx="3"/>
<text x="768.0" y="494" class="value">291.67</text>
<line x1="180" y1="30" x2="180" y2="520" stroke="#ccc"/>
<line x1="180" y1="520" x2="760" y2="520" stroke="#ccc"/>
</svg>