<svg xmlns="http://www.w3.org/2000/svg" width="800" height="540">
<style> .label{font-family:DejaVu Sans,Verdana,Geneva,sans-serif;font-size:12px;fill:#333} .value{font-family:DejaVu Sans,Verdana,Geneva,sans-serif;font-size:12px;fill:#555} </style>
<text x="10" y="20" class="label">延迟柱状图（越低越好，Top 15），单位 ms</text>
<text x="10" y="46" class="label">eaassets-a.akamaihd.net</text>
<rect x="180" y="30" width="124.98" height="22" fill="#4c78a8" rx="3"/>
<text x="312.98" y="46" class="value">45.05</text>
<text x="10" y="78" class="label">rockstargames.com</text>
<rect x="180" y="62" width="167.46" height="22" fill="#4c78a8" rx="3"/>
<text x="355.46000000000004" y="78" class="value">60.36</text>
<text x="10" y="110" class="label">steamcdn-a.akamaihd.net</text>
<rect x="180" y="94" width="235.32" height="22" fill="#4c78a8" rx="3"/>
<text x="423.32" y="110" class="value">84.82</text>
<text x="10" y="142" class="label">origin.com</text>
<rect x="180" y="126" width="246.67" height="22" fill="#4c78a8" rx="3"/>
<text x="434.66999999999996" y="142" class="value">88.91</text>
<text x="10" y="174" class="label">cdn.akamai.steamstatic.com</text>
<rect x="180" y="158" width="279.01" height="22" fill="#4c78a8" rx="3"/>
<text x="467.01" y="174" class="value">100.57</text>
<text x="10" y="206" class="label">battle.net</text>
<rect x="180" y="190" width="344.24" height="22" fill="#4c78a8" rx="3"/>
<text x="532.24" y="206" class="value">124.08</text>
<text x="10" y="238" class="label">ubisoft.com</text>
<rect x="180" y="222" width="344.29" height="22" fill="#4c78a8" rx="3"/>
<text x="532.29" y="238" class="value">124.10</text>
<text x="10" y="270" class="label">ea.com</text>
<rect x="180" y="254" width="347.76" height="22" fill="#4c78a8" rx="3"/>
<text x="535.76" y="270" class="value">125.35</text>
<text x="10" y="302" class="label">blizzard.com</text>
<rect x="180" y="286" width="353.95" height="22" fill="#4c78a8" rx="3"/>
<text x="541.95" y="302" class="value">127.58</text>
<text x="10" y="334" class="label">ubi.com</text>
<rect x="180" y="318" width="372.59" height="22" fill="#4c78a8" rx="3"/>
<text x="560.5899999999999" y="334" class="value">134.30</text>
<text x="10" y="366" class="label">store.akamai.steamstatic.com</text>
<rect x="180" y="350" width="391.1" height="22" fill="#4c78a8" rx="3"/>
<text x="579.1" y="366" class="value">140.97</text>
<text x="10" y="398" class="label">socialclub.rockstargames.com</text>
<rect x="180" y="382" width="431.85" height="22" fill="#4c78a8" rx="3"/>
<text x="619.85" y="398" class="value">155.66</text>
<text x="10" y="430" class="label">easyanticheat.net</text>
<rect x="180" y="414" width="487.09" height="22" fill="#4c78a8" rx="3"/>
<text x="675.0899999999999" y="430" class="value">175.57</text>
<text x="10" y="462" class="label">fortnite.com</text>
<rect x="180" y="446" width="541.66" height="22" fill="#4c78a8" rx="3"/>
<text x="729.66" y="462" class="value">195.24</text>
<text x="10" y="494" class="label">epicgames.com</text>
<rect x="180" y="478" width="580.0" height="22" fill="#4c78a8" rx="3"/>
<text x="768.0" y="494" class="value">209.06</text>
<line x1="180" y1="30" x2="180" y2="520" stroke="#ccc"/>
<line x1="180" y1="520" x2="760" y2="520" stroke="#ccc"/>
</svg>