<svg xmlns="http://www.w3.org/2000/svg" width="800" height="540">
<style> .label{font-family:DejaVu Sans,Verdana,Geneva,sans-serif;font-size:12px;fill:#333} .value{font-family:DejaVu Sans,Verdana,Geneva,sans-serif;font-size:12px;fill:#555} </style>
<text x="10" y="20" class="label">延迟柱状图（越低越好，Top 15），单位 ms</text>
<text x="10" y="46" class="label">rockstargames.com</text>
<rect x="180" y="30" width="70.61" height="22" fill="#4c78a8" rx="3"/>
<text x="258.61" y="46" class="value">33.89</text>
<text x="10" y="78" class="label">ea.com</text>
<rect x="180" y="62" width="77.86" height="22" fill="#4c78a8" rx="3"/>
<text x="265.86" y="78" class="value">37.37</text>
<text x="10" y="110" class="label">eaassets-a.akamaihd.net</text>
<rect x="180" y="94" width="79.84" height="22" fill="#4c78a8" rx="3"/>
<text x="267.84000000000003" y="110" class="value">38.32</text>
<text x="10" y="142" class="label">steamcdn-a.akamaihd.net</text>
<rect x="180" y="126" width="199.57" height="22" fill="#4c78a8" rx="3"/>
<text x="387.57" y="142" class="value">95.79</text>
<text x="10" y="174" class="label">ubisoft.com</text>
<rect x="180" y="158" width="207.84" height="22" fill="#4c78a8" rx="3"/>
<text x="395.84000000000003" y="174" class="value">99.76</text>
<text x="10" y="206" class="label">cdn.cloudflare.steamstatic.com</text>
<rect x="180" y="190" width="306.57" height="22" fill="#4c78a8" rx="3"/>
<text x="494.57" y="206" class="value">147.15</text>
<text x="10" y="238" class="label">origin.com</text>
<rect x="180" y="222" width="349.76" height="22" fill="#4c78a8" rx="3"/>
<text x="537.76" y="238" class="value">167.88</text>
<text x="10" y="270" class="label">community.akamai.steamstatic.com</text>
<rect x="180" y="254" width="366.24" height="22" fill="#4c78a8" rx="3"/>
<text x="554.24" y="270" class="value">175.79</text>
<text x="10" y="302" class="label">easyanticheat.net</text>
<rect x="180" y="286" width="430.22" height="22" fill="#4c78a8" rx="3"/>
<text x="618.22" y="302" class="value">206.50</text>
<text x="10" y="334" class="label">store.akamai.steamstatic.com</text>
<rect x="180" y="318" width="440.89" height="22" fill="#4c78a8" rx="3"/>
<text x="628.89" y="334" class="value">211.62</text>
<text x="10" y="366" class="label">cdn.akamai.steamstatic.com</text>
<rect x="180" y="350" width="450.6" height="22" fill="#4c78a8" rx="3"/>
<text x="638.6" y="366" class="value">216.28</text>
<text x="10" y="398" class="label">api.steampowered.com</text>
<rect x="180" y="382" width="494.83" height="22" fill="#4c78a8" rx="3"/>
<text x="682.8299999999999" y="398" class="value">237.51</text>
<text x="10" y="430" class="label">launcher-public-service-prod06.ol.epicgames.com</text>
<rect x="180" y="414" width="537.21" height="22" fill="#4c78a8" rx="3"/>
<text x="725.21" y="430" class="value">257.85</text>
<text x="10" y="462" class="label">steamcommunity.com</text>
<rect x="180" y="446" width="560.5" height="22" fill="#4c78a8" rx="3"/>
<text x="748.5" y="462" class="value">269.03</text>
<text x="10" y="494" class="label">www.steamcommunity.com</text>
<rect x="180" y="478" width="580.0" height="22" fill="#4c78a8" rx="3"/>
<text x="768.0" y="494" class="value">278.39</text>
<line x1="180" y1="30" x2="180" y2="520" stroke="#ccc"/>
<line x1="180" y1="520" x2="760" y2="520" stroke="#ccc"/>
</svg>