<svg xmlns="http://www.w3.org/2000/svg" width="800" height="540">
<style> .label{font-family:DejaVu Sans,Verdana,Geneva,sans-serif;font-size:12px;fill:#333} .value{font-family:DejaVu Sans,Verdana,Geneva,sans-serif;font-size:12px;fill:#555} </style>
<text x="10" y="20" class="label">延迟柱状图（越低越好，Top 15），单位 ms</text>
<text x="10" y="46" class="label">eaassets-a.akamaihd.net</text>
<rect x="180" y="30" width="167.42" height="22" fill="#4c78a8" rx="3"/>
<text x="355.41999999999996" y="46" class="value">59.35</text>
<text x="10" y="78" class="label">blizzard.com</text>
<rect x="180" y="62" width="257.38" height="22" fill="#4c78a8" rx="3"/>
<text x="445.38" y="78" class="value">91.24</text>
<text x="10" y="110" class="label">socialclub.rockstargames.com</text>
<rect x="180" y="94" width="264.01" height="22" fill="#4c78a8" rx="3"/>
<text x="452.01" y="110" class="value">93.59</text>
<text x="10" y="142" class="label">battle.net</text>
<rect x="180" y="126" width="271.88" height="22" fill="#4c78a8" rx="3"/>
<text x="459.88" y="142" class="value">96.38</text>
<text x="10" y="174" class="label">rockstargames.com</text>
<rect x="180" y="158" width="314.13" height="22" fill="#4c78a8" rx="3"/>
<text x="502.13" y="174" class="value">111.36</text>
<text x="10" y="206" class="label">epicgames.com</text>
<rect x="180" y="190" width="327.53" height="22" fill="#4c78a8" rx="3"/>
<text x="515.53" y="206" class="value">116.11</text>
<text x="10" y="238" class="label">ubi.com</text>
<rect x="180" y="222" width="418.79" height="22" fill="#4c78a8" rx="3"/>
<text x="606.79" y="238" class="value">148.46</text>
<text x="10" y="270" class="label">ea.com</text>
<rect x="180" y="254" width="471.65" height="22" fill="#4c78a8" rx="3"/>
<text x="659.65" y="270" class="value">167.20</text>
<text x="10" y="302" class="label">store.akamai.steamstatic.com</text>
<rect x="180" y="286" width="497.12" height="22" fill="#4c78a8" rx="3"/>
<text x="685.12" y="302" class="value">176.23</text>
<text x="10" y="334" class="label">community.akamai.steamstatic.com</text>
<rect x="180" y="318" width="505.92" height="22" fill="#4c78a8" rx="3"/>
<text x="693.9200000000001" y="334" class="value">179.35</text>
<text x="10" y="366" class="label">unrealengine.com</text>
<rect x="180" y="350" width="519.29" height="22" fill="#4c78a8" rx="3"/>
<text x="707.29" y="366" class="value">184.09</text>
<text x="10" y="398" class="label">fortnite.com</text>
<rect x="180" y="382" width="520.56" height="22" fill="#4c78a8" rx="3"/>
<text x="708.56" y="398" class="value">184.54</text>
<text x="10" y="430" class="label">origin.com</text>
<rect x="180" y="414" width="537.52" height="22" fill="#4c78a8" rx="3"/>
<text x="725.52" y="430" class="value">190.55</text>
<text x="10" y="462" class="label">steam-chat.com</text>
<rect x="180" y="446" width="554.81" height="22" fill="#4c78a8" rx="3"/>
<text x="742.81" y="462" class="value">196.68</text>
<text x="10" y="494" class="label">easyanticheat.net</text>
<rect x="180" y="478" width="580.0" height="22" fill="#4c78a8" rx="3"/>
<text x="768.0" y="494" class="value">205.61</text>
<line x1="180" y1="30" x2="180" y2="520" stroke="#ccc"/>
<line x1="180" y1="520" x2="760" y2="520" stroke="#ccc"/>
</svg>