<svg xmlns="http://www.w3.org/2000/svg" width="800" height="540">
<style> .label{font-family:DejaVu Sans,Verdana,Geneva,sans-serif;font-size:12px;fill:#333} .value{font-family:DejaVu Sans,Verdana,Geneva,sans-serif;font-size:12px;fill:#555} </style>
<text x="10" y="20" class="label">延迟柱状图（越低越好，Top 15），单位 ms</text>
<text x="10" y="46" class="label">rockstargames.com</text>
<rect x="180" y="30" width="60.54" height="22" fill="#4c78a8" rx="3"/>
<text x="248.54" y="46" class="value">30.09</text>
<text x="10" y="78" class="label">eaassets-a.akamaihd.net</text>
<rect x="180" y="62" width="157.33" height="22" fill="#4c78a8" rx="3"/>
<text x="345.33000000000004" y="78" class="value">78.20</text>
<text x="10" y="110" class="label">cdn.cloudflare.steamstatic.com</text>
<rect x="180" y="94" width="170.71" height="22" fill="#4c78a8" rx="3"/>
<text x="358.71000000000004" y="110" class="value">84.85</text>
<text x="10" y="142" class="label">ea.com</text>
<rect x="180" y="126" width="206.3" height="22" fill="#4c78a8" rx="3"/>
<text x="394.3" y="142" class="value">102.54</text>
<text x="10" y="174" class="label">cdn.akamai.steamstatic.com</text>
<rect x="180" y="158" width="245.94" height="22" fill="#4c78a8" rx="3"/>
<text x="433.94" y="174" class="value">122.24</text>
<text x="10" y="206" class="label">ubisoft.com</text>
<rect x="180" y="190" width="248.07" height="22" fill="#4c78a8" rx="3"/>
<text x="436.07" y="206" class="value">123.30</text>
<text x="10" y="238" class="label">steamcdn-a.akamaihd.net</text>
<rect x="180" y="222" width="285.75" height="22" fill="#4c78a8" rx="3"/>
<text x="473.75" y="238" class="value">142.03</text>
<text x="10" y="270" class="label">community.akamai.steamstatic.com</text>
<rect x="180" y="254" width="322.79" height="22" fill="#4c78a8" rx="3"/>
<text x="510.79" y="270" class="value">160.44</text>
<text x="10" y="302" class="label">store.akamai.steamstatic.com</text>
<rect x="180" y="286" width="363.74" height="22" fill="#4c78a8" rx="3"/>
<text x="551.74" y="302" class="value">180.79</text>
<text x="10" y="334" class="label">easyanticheat.net</text>
<rect x="180" y="318" width="366.05" height="22" fill="#4c78a8" rx="3"/>
<text x="554.05" y="334" class="value">181.94</text>
<text x="10" y="366" class="label">origin.com</text>
<rect x="180" y="350" width="372.39" height="22" fill="#4c78a8" rx="3"/>
<text x="560.39" y="366" class="value">185.09</text>
<text x="10" y="398" class="label">steam-chat.com</text>
<rect x="180" y="382" width="474.39" height="22" fill="#4c78a8" rx="3"/>
<text x="662.39" y="398" class="value">235.79</text>
<text x="10" y="430" class="label">api.steampowered.com</text>
<rect x="180" y="414" width="507.73" height="22" fill="#4c78a8" rx="3"/>
<text x="695.73" y="430" class="value">252.36</text>
<text x="10" y="462" class="label">ubi.com</text>
<rect x="180" y="446" width="567.53" height="22" fill="#4c78a8" rx="3"/>
<text x="755.53" y="462" class="value">282.08</text>
<text x="10" y="494" class="label">launcher-public-service-prod06.ol.epicgames.com</text>
<rect x="180" y="478" width="580.0" height="22" fill="#4c78a8" rx="3"/>
<text x="768.0" y="494" class="value">288.28</text>
<line x1="180" y1="30" x2="180" y2="520" stroke="#ccc"/>
<line x1="180" y1="520" x2="760" y2="520" stroke="#ccc"/>
</svg>