<svg xmlns="http://www.w3.org/2000/svg" width="800" height="540">
<style> .label{font-family:DejaVu Sans,Verdana,Geneva,sans-serif;font-size:12px;fill:#333} .value{font-family:DejaVu Sans,Verdana,Geneva,sans-serif;font-size:12px;fill:#555} </style>
<text x="10" y="20" class="label">延迟柱状图（越低越好，Top 15），单位 ms</text>
<text x="10" y="46" class="label">rockstargames.com</text>
<rect x="180" y="30" width="177.7" height="22" fill="#4c78a8" rx="3"/>
<text x="365.7" y="46" class="value">64.62</text>
<text x="10" y="78" class="label">eaassets-a.akamaihd.net</text>
<rect x="180" y="62" width="246.77" height="22" fill="#4c78a8" rx="3"/>
<text x="434.77" y="78" class="value">89.74</text>
<text x="10" y="110" class="label">steamcdn-a.akamaihd.net</text>
<rect x="180" y="94" width="300.09" height="22" fill="#4c78a8" rx="3"/>
<text x="488.09" y="110" class="value">109.13</text>
<text x="10" y="142" class="label">ubisoft.com</text>
<rect x="180" y="126" width="304.77" height="22" fill="#4c78a8" rx="3"/>
<text x="492.77" y="142" class="value">110.83</text>
<text x="10" y="174" class="label">cdn.akamai.steamstatic.com</text>
<rect x="180" y="158" width="334.25" height="22" fill="#4c78a8" rx="3"/>
<text x="522.25" y="174" class="value">121.55</text>
<text x="10" y="206" class="label">ea.com</text>
<rect x="180" y="190" width="336.61" height="22" fill="#4c78a8" rx="3"/>
<text x="524.61" y="206" class="value">122.41</text>
<text x="10" y="238" class="label">socialclub.rockstargames.com</text>
<rect x="180" y="222" width="374.81" height="22" fill="#4c78a8" rx="3"/>
<text x="562.81" y="238" class="value">136.30</text>
<text x="10" y="270" class="label">origin.com</text>
<rect x="180" y="254" width="397.46" height="22" fill="#4c78a8" rx="3"/>
<text x="585.46" y="270" class="value">144.54</text>
<text x="10" y="302" class="label">blizzard.com</text>
<rect x="180" y="286" width="407.56" height="22" fill="#4c78a8" rx="3"/>
<text x="595.56" y="302" class="value">148.21</text>
<text x="10" y="334" class="label">ubi.com</text>
<rect x="180" y="318" width="412.97" height="22" fill="#4c78a8" rx="3"/>
<text x="600.97" y="334" class="value">150.18</text>
<text x="10" y="366" class="label">battle.net</text>
<rect x="180" y="350" width="426.39" height="22" fill="#4c78a8" rx="3"/>
<text x="614.39" y="366" class="value">155.06</text>
<text x="10" y="398" class="label">api.steampowered.com</text>
<rect x="180" y="382" width="429.64" height="22" fill="#4c78a8" rx="3"/>
<text x="617.64" y="398" class="value">156.24</text>
<text x="10" y="430" class="label">static3.cdn.ubi.com</text>
<rect x="180" y="414" width="467.48" height="22" fill="#4c78a8" rx="3"/>
<text x="655.48" y="430" class="value">170.00</text>
<text x="10" y="462" class="label">launcher-public-service-prod06.ol.epicgames.com</text>
<rect x="180" y="446" width="561.63" height="22" fill="#4c78a8" rx="3"/>
<text x="749.63" y="462" class="value">204.24</text>
<text x="10" y="494" class="label">steam-chat.com</text>
<rect x="180" y="478" width="580.0" height="22" fill="#4c78a8" rx="3"/>
<text x="768.0" y="494" class="value">210.92</text>
<line x1="180" y1="30" x2="180" y2="520" stroke="#ccc"/>
<line x1="180" y1="520" x2="760" y2="520" stroke="#ccc"/>
</svg>