<svg xmlns="http://www.w3.org/2000/svg" width="800" height="540">
<style> .label{font-family:DejaVu Sans,Verdana,Geneva,sans-serif;font-size:12px;fill:#333} .value{font-family:DejaVu Sans,Verdana,Geneva,sans-serif;font-size:12px;fill:#555} </style>
<text x="10" y="20" class="label">延迟柱状图（越低越好，Top 15），单位 ms</text>
<text x="10" y="46" class="label">rockstargames.com</text>
<rect x="180" y="30" width="213.44" height="22" fill="#4c78a8" rx="3"/>
<text x="401.44" y="46" class="value">65.99</text>
<text x="10" y="78" class="label">eaassets-a.akamaihd.net</text>
<rect x="180" y="62" width="228.58" height="22" fill="#4c78a8" rx="3"/>
<text x="416.58000000000004" y="78" class="value">70.67</text>
<text x="10" y="110" class="label">socialclub.rockstargames.com</text>
<rect x="180" y="94" width="272.66" height="22" fill="#4c78a8" rx="3"/>
<text x="460.66" y="110" class="value">84.30</text>
<text x="10" y="142" class="label">ubisoft.com</text>
<rect x="180" y="126" width="317.46" height="22" fill="#4c78a8" rx="3"/>
<text x="505.46" y="142" class="value">98.15</text>
<text x="10" y="174" class="label">blizzard.com</text>
<rect x="180" y="158" width="324.06" height="22" fill="#4c78a8" rx="3"/>
<text x="512.06" y="174" class="value">100.19</text>
<text x="10" y="206" class="label">ubi.com</text>
<rect x="180" y="190" width="365.98" height="22" fill="#4c78a8" rx="3"/>
<text x="553.98" y="206" class="value">113.15</text>
<text x="10" y="238" class="label">battle.net</text>
<rect x="180" y="222" width="441.34" height="22" fill="#4c78a8" rx="3"/>
<text x="629.3399999999999" y="238" class="value">136.45</text>
<text x="10" y="270" class="label">unrealengine.com</text>
<rect x="180" y="254" width="463.53" height="22" fill="#4c78a8" rx="3"/>
<text x="651.53" y="270" class="value">143.31</text>
<text x="10" y="302" class="label">ea.com</text>
<rect x="180" y="286" width="480.93" height="22" fill="#4c78a8" rx="3"/>
<text x="668.9300000000001" y="302" class="value">148.69</text>
<text x="10" y="334" class="label">epicgames.com</text>
<rect x="180" y="318" width="533.39" height="22" fill="#4c78a8" rx="3"/>
<text x="721.39" y="334" class="value">164.91</text>
<text x="10" y="366" class="label">origin.com</text>
<rect x="180" y="350" width="540.44" height="22" fill="#4c78a8" rx="3"/>
<text x="728.44" y="366" class="value">167.09</text>
<text x="10" y="398" class="label">cdn.cloudflare.steamstatic.com</text>
<rect x="180" y="382" width="562.76" height="22" fill="#4c78a8" rx="3"/>
<text x="750.76" y="398" class="value">173.99</text>
<text x="10" y="430" class="label">fortnite.com</text>
<rect x="180" y="414" width="567.35" height="22" fill="#4c78a8" rx="3"/>
<text x="755.35" y="430" class="value">175.41</text>
<text x="10" y="462" class="label">community.akamai.steamstatic.com</text>
<rect x="180" y="446" width="574.02" height="22" fill="#4c78a8" rx="3"/>
<text x="762.02" y="462" class="value">177.47</text>
<text x="10" y="494" class="label">cdn.akamai.steamstatic.com</text>
<rect x="180" y="478" width="580.0" height="22" fill="#4c78a8" rx="3"/>
<text x="768.0" y="494" class="value">179.32</text>
<line x1="180" y1="30" x2="180" y2="520" stroke="#ccc"/>
<line x1="180" y1="520" x2="760" y2="520" stroke="#ccc"/>
</svg>