<svg xmlns="http://www.w3.org/2000/svg" width="800" height="540">
<style> .label{font-family:DejaVu Sans,Verdana,Geneva,sans-serif;font-size:12px;fill:#333} .value{font-family:DejaVu Sans,Verdana,Geneva,sans-serif;font-size:12px;fill:#555} </style>
<text x="10" y="20" class="label">延迟柱状图（越低越好，Top 15），单位 ms</text>
<text x="10" y="46" class="label">ea.com</text>
<rect x="180" y="30" width="127.17" height="22" fill="#4c78a8" rx="3"/>
<text x="315.17" y="46" class="value">57.69</text>
<text x="10" y="78" class="label">rockstargames.com</text>
<rect x="180" y="62" width="136.8" height="22" fill="#4c78a8" rx="3"/>
<text x="324.8" y="78" class="value">62.06</text>
<text x="10" y="110" class="label">steamcdn-a.akamaihd.net</text>
<rect x="180" y="94" width="168.7" height="22" fill="#4c78a8" rx="3"/>
<text x="356.7" y="110" class="value">76.53</text>
<text x="10" y="142" class="label">community.akamai.steamstatic.com</text>
<rect x="180" y="126" width="233.26" height="22" fill="#4c78a8" rx="3"/>
<text x="421.26" y="142" class="value">105.82</text>
<text x="10" y="174" class="label">ubisoft.com</text>
<rect x="180" y="158" width="252.42" height="22" fill="#4c78a8" rx="3"/>
<text x="440.41999999999996" y="174" class="value">114.51</text>
<text x="10" y="206" class="label">store.akamai.steamstatic.com</text>
<rect x="180" y="190" width="260.62" height="22" fill="#4c78a8" rx="3"/>
<text x="448.62" y="206" class="value">118.23</text>
<text x="10" y="238" class="label">origin.com</text>
<rect x="180" y="222" width="277.37" height="22" fill="#4c78a8" rx="3"/>
<text x="465.37" y="238" class="value">125.83</text>
<text x="10" y="270" class="label">cdn.cloudflare.steamstatic.com</text>
<rect x="180" y="254" width="312.51" height="22" fill="#4c78a8" rx="3"/>
<text x="500.51" y="270" class="value">141.77</text>
<text x="10" y="302" class="label">easyanticheat.net</text>
<rect x="180" y="286" width="341.85" height="22" fill="#4c78a8" rx="3"/>
<text x="529.85" y="302" class="value">155.08</text>
<text x="10" y="334" class="label">static3.cdn.ubi.com</text>
<rect x="180" y="318" width="343.12" height="22" fill="#4c78a8" rx="3"/>
<text x="531.12" y="334" class="value">155.66</text>
<text x="10" y="366" class="label">api.steampowered.com</text>
<rect x="180" y="350" width="434.32" height="22" fill="#4c78a8" rx="3"/>
<text x="622.3199999999999" y="366" class="value">197.03</text>
<text x="10" y="398" class="label">www.steamcommunity.com</text>
<rect x="180" y="382" width="503.62" height="22" fill="#4c78a8" rx="3"/>
<text x="691.62" y="398" class="value">228.47</text>
<text x="10" y="430" class="label">launcher-public-service-prod06.ol.epicgames.com</text>
<rect x="180" y="414" width="549.71" height="22" fill="#4c78a8" rx="3"/>
<text x="737.71" y="430" class="value">249.38</text>
<text x="10" y="462" class="label">steam-chat.com</text>
<rect x="180" y="446" width="552.95" height="22" fill="#4c78a8" rx="3"/>
<text x="740.95" y="462" class="value">250.85</text>
<text x="10" y="494" class="label">eaassets-a.akamaihd.net</text>
<rect x="180" y="478" width="580.0" height="22" fill="#4c78a8" rx="3"/>
<text x="768.0" y="494" class="value">263.12</text>
<line x1="180" y1="30" x2="180" y2="520" stroke="#ccc"/>
<line x1="180" y1="520" x2="760" y2="520" stroke="#ccc"/>
</svg>