<svg xmlns="http://www.w3.org/2000/svg" width="800" height="540">
<style> .label{font-family:DejaVu Sans,Verdana,Geneva,sans-serif;font-size:12px;fill:#333} .value{font-family:DejaVu Sans,Verdana,Geneva,sans-serif;font-size:12px;fill:#555} </style>
<text x="10" y="20" class="label">延迟柱状图（越低越好，Top 15），单位 ms</text>
<text x="10" y="46" class="label">socialclub.rockstargames.com</text>
<rect x="180" y="30" width="181.04" height="22" fill="#4c78a8" rx="3"/>
<text x="369.03999999999996" y="46" class="value">64.86</text>
<text x="10" y="78" class="label">rockstargames.com</text>
<rect x="180" y="62" width="200.05" height="22" fill="#4c78a8" rx="3"/>
<text x="388.05" y="78" class="value">71.67</text>
<text x="10" y="110" class="label">fortnite.com</text>
<rect x="180" y="94" width="225.01" height="22" fill="#4c78a8" rx="3"/>
<text x="413.01" y="110" class="value">80.61</text>
<text x="10" y="142" class="label">battle.net</text>
<rect x="180" y="126" width="233.02" height="22" fill="#4c78a8" rx="3"/>
<text x="421.02" y="142" class="value">83.48</text>
<text x="10" y="174" class="label">blizzard.com</text>
<rect x="180" y="158" width="233.74" height="22" fill="#4c78a8" rx="3"/>
<text x="421.74" y="174" class="value">83.74</text>
<text x="10" y="206" class="label">unrealengine.com</text>
<rect x="180" y="190" width="247.28" height="22" fill="#4c78a8" rx="3"/>
<text x="435.28" y="206" class="value">88.59</text>
<text x="10" y="238" class="label">eaassets-a.akamaihd.net</text>
<rect x="180" y="222" width="260.09" height="22" fill="#4c78a8" rx="3"/>
<text x="448.09" y="238" class="value">93.18</text>
<text x="10" y="270" class="label">ea.com</text>
<rect x="180" y="254" width="264.98" height="22" fill="#4c78a8" rx="3"/>
<text x="452.98" y="270" class="value">94.93</text>
<text x="10" y="302" class="label">ubi.com</text>
<rect x="180" y="286" width="292.58" height="22" fill="#4c78a8" rx="3"/>
<text x="480.58" y="302" class="value">104.82</text>
<text x="10" y="334" class="label">origin.com</text>
<rect x="180" y="318" width="384.28" height="22" fill="#4c78a8" rx="3"/>
<text x="572.28" y="334" class="value">137.67</text>
<text x="10" y="366" class="label">store.akamai.steamstatic.com</text>
<rect x="180" y="350" width="421.37" height="22" fill="#4c78a8" rx="3"/>
<text x="609.37" y="366" class="value">150.96</text>
<text x="10" y="398" class="label">gog.com</text>
<rect x="180" y="382" width="477.59" height="22" fill="#4c78a8" rx="3"/>
<text x="665.5899999999999" y="398" class="value">171.10</text>
<text x="10" y="430" class="label">static3.cdn.ubi.com</text>
<rect x="180" y="414" width="526.16" height="22" fill="#4c78a8" rx="3"/>
<text x="714.16" y="430" class="value">188.50</text>
<text x="10" y="462" class="label">easyanticheat.net</text>
<rect x="180" y="446" width="530.12" height="22" fill="#4c78a8" rx="3"/>
<text x="718.12" y="462" class="value">189.92</text>
<text x="10" y="494" class="label">epicgames.com</text>
<rect x="180" y="478" width="580.0" height="22" fill="#4c78a8" rx="3"/>
<text x="768.0" y="494" class="value">207.79</text>
<line x1="180" y1="30" x2="180" y2="520" stroke="#ccc"/>
<line x1="180" y1="520" x2="760" y2="520" stroke="#ccc"/>
</svg>