<svg xmlns="http://www.w3.org/2000/svg" width="800" height="540">
<style> .label{font-family:DejaVu Sans,Verdana,Geneva,sans-serif;font-size:12px;fill:#333} .value{font-family:DejaVu Sans,Verdana,Geneva,sans-serif;font-size:12px;fill:#555} </style>
<text x="10" y="20" class="label">延迟柱状图（越低越好，Top 15），单位 ms</text>
<text x="10" y="46" class="label">ea.com</text>
<rect x="180" y="30" width="236.5" height="22" fill="#4c78a8" rx="3"/>
<text x="424.5" y="46" class="value">86.60</text>
<text x="10" y="78" class="label">eaassets-a.akamaihd.net</text>
<rect x="180" y="62" width="266.4" height="22" fill="#4c78a8" rx="3"/>
<text x="454.4" y="78" class="value">97.55</text>
<text x="10" y="110" class="label">community.akamai.steamstatic.com</text>
<rect x="180" y="94" width="329.82" height="22" fill="#4c78a8" rx="3"/>
<text x="517.8199999999999" y="110" class="value">120.77</text>
<text x="10" y="142" class="label">store.akamai.steamstatic.com</text>
<rect x="180" y="126" width="336.24" height="22" fill="#4c78a8" rx="3"/>
<text x="524.24" y="142" class="value">123.12</text>
<text x="10" y="174" class="label">rockstargames.com</text>
<rect x="180" y="158" width="352.21" height="22" fill="#4c78a8" rx="3"/>
<text x="540.21" y="174" class="value">128.97</text>
<text x="10" y="206" class="label">socialclub.rockstargames.com</text>
<rect x="180" y="190" width="379.0" height="22" fill="#4c78a8" rx="3"/>
<text x="567.0" y="206" class="value">138.78</text>
<text x="10" y="238" class="label">battle.net</text>
<rect x="180" y="222" width="416.28" height="22" fill="#4c78a8" rx="3"/>
<text x="604.28" y="238" class="value">152.43</text>
<text x="10" y="270" class="label">blizzard.com</text>
<rect x="180" y="254" width="423.76" height="22" fill="#4c78a8" rx="3"/>
<text x="611.76" y="270" class="value">155.17</text>
<text x="10" y="302" class="label">cdn.cloudflare.steamstatic.com</text>
<rect x="180" y="286" width="468.5" height="22" fill="#4c78a8" rx="3"/>
<text x="656.5" y="302" class="value">171.55</text>
<text x="10" y="334" class="label">ubi.com</text>
<rect x="180" y="318" width="510.61" height="22" fill="#4c78a8" rx="3"/>
<text x="698.61" y="334" class="value">186.97</text>
<text x="10" y="366" class="label">api.steampowered.com</text>
<rect x="180" y="350" width="530.43" height="22" fill="#4c78a8" rx="3"/>
<text x="718.43" y="366" class="value">194.23</text>
<text x="10" y="398" class="label">origin.com</text>
<rect x="180" y="382" width="530.87" height="22" fill="#4c78a8" rx="3"/>
<text x="718.87" y="398" class="value">194.39</text>
<text x="10" y="430" class="label">static3.cdn.ubi.com</text>
<rect x="180" y="414" width="553.43" height="22" fill="#4c78a8" rx="3"/>
<text x="741.43" y="430" class="value">202.65</text>
<text x="10" y="462" class="label">cdn.akamai.steamstatic.com</text>
<rect x="180" y="446" width="578.8" height="22" fill="#4c78a8" rx="3"/>
<text x="766.8" y="462" class="value">211.94</text>
<text x="10" y="494" class="label">ubisoft.com</text>
<rect x="180" y="478" width="580.0" height="22" fill="#4c78a8" rx="3"/>
<text x="768.0" y="494" class="value">212.38</text>
<line x1="180" y1="30" x2="180" y2="520" stroke="#ccc"/>
<line x1="180" y1="520" x2="760" y2="520" stroke="#ccc"/>
</svg>