<svg xmlns="http://www.w3.org/2000/svg" width="800" height="540">
<style> .label{font-family:DejaVu Sans,Verdana,Geneva,sans-serif;font-size:12px;fill:#333} .value{font-family:DejaVu Sans,Verdana,Geneva,sans-serif;font-size:12px;fill:#555} </style>
<text x="10" y="20" class="label">延迟柱状图（越低越好，Top 15），单位 ms</text>
<text x="10" y="46" class="label">rockstargames.com</text>
<rect x="180" y="30" width="208.6" height="22" fill="#4c78a8" rx="3"/>
<text x="396.6" y="46" class="value">102.68</text>
<text x="10" y="78" class="label">eaassets-a.akamaihd.net</text>
<rect x="180" y="62" width="209.66" height="22" fill="#4c78a8" rx="3"/>
<text x="397.65999999999997" y="78" class="value">103.20</text>
<text x="10" y="110" class="label">ubisoft.com</text>
<rect x="180" y="94" width="265.85" height="22" fill="#4c78a8" rx="3"/>
<text x="453.85" y="110" class="value">130.86</text>
<text x="10" y="142" class="label">origin.com</text>
<rect x="180" y="126" width="308.31" height="22" fill="#4c78a8" rx="3"/>
<text x="496.31" y="142" class="value">151.76</text>
<text x="10" y="174" class="label">steamcdn-a.akamaihd.net</text>
<rect x="180" y="158" width="313.64" height="22" fill="#4c78a8" rx="3"/>
<text x="501.64" y="174" class="value">154.38</text>
<text x="10" y="206" class="label">ea.com</text>
<rect x="180" y="190" width="314.45" height="22" fill="#4c78a8" rx="3"/>
<text x="502.45" y="206" class="value">154.78</text>
<text x="10" y="238" class="label">socialclub.rockstargames.com</text>
<rect x="180" y="222" width="315.45" height="22" fill="#4c78a8" rx="3"/>
<text x="503.45" y="238" class="value">155.27</text>
<text x="10" y="270" class="label">battle.net</text>
<rect x="180" y="254" width="378.81" height="22" fill="#4c78a8" rx="3"/>
<text x="566.81" y="270" class="value">186.46</text>
<text x="10" y="302" class="label">blizzard.com</text>
<rect x="180" y="286" width="380.23" height="22" fill="#4c78a8" rx="3"/>
<text x="568.23" y="302" class="value">187.16</text>
<text x="10" y="334" class="label">ubi.com</text>
<rect x="180" y="318" width="387.08" height="22" fill="#4c78a8" rx="3"/>
<text x="575.0799999999999" y="334" class="value">190.53</text>
<text x="10" y="366" class="label">static3.cdn.ubi.com</text>
<rect x="180" y="350" width="394.11" height="22" fill="#4c78a8" rx="3"/>
<text x="582.11" y="366" class="value">193.99</text>
<text x="10" y="398" class="label">steam-chat.com</text>
<rect x="180" y="382" width="430.74" height="22" fill="#4c78a8" rx="3"/>
<text x="618.74" y="398" class="value">212.02</text>
<text x="10" y="430" class="label">easyanticheat.net</text>
<rect x="180" y="414" width="568.7" height="22" fill="#4c78a8" rx="3"/>
<text x="756.7" y="430" class="value">279.93</text>
<text x="10" y="462" class="label">store.akamai.steamstatic.com</text>
<rect x="180" y="446" width="572.02" height="22" fill="#4c78a8" rx="3"/>
<text x="760.02" y="462" class="value">281.56</text>
<text x="10" y="494" class="label">community.akamai.steamstatic.com</text>
<rect x="180" y="478" width="580.0" height="22" fill="#4c78a8" rx="3"/>
<text x="768.0" y="494" class="value">285.49</text>
<line x1="180" y1="30" x2="180" y2="520" stroke="#ccc"/>
<line x1="180" y1="520" x2="760" y2="520" stroke="#ccc"/>
</svg>