<svg xmlns="http://www.w3.org/2000/svg" width="800" height="540">
<style> .label{font-family:DejaVu Sans,Verdana,Geneva,sans-serif;font-size:12px;fill:#333} .value{font-family:DejaVu Sans,Verdana,Geneva,sans-serif;font-size:12px;fill:#555} </style>
<text x="10" y="20" class="label">延迟柱状图（越低越好，Top 15），单位 ms</text>
<text x="10" y="46" class="label">eaassets-a.akamaihd.net</text>
<rect x="180" y="30" width="182.9" height="22" fill="#4c78a8" rx="3"/>
<text x="370.9" y="46" class="value">66.92</text>
<text x="10" y="78" class="label">rockstargames.com</text>
<rect x="180" y="62" width="199.44" height="22" fill="#4c78a8" rx="3"/>
<text x="387.44" y="78" class="value">72.97</text>
<text x="10" y="110" class="label">store.akamai.steamstatic.com</text>
<rect x="180" y="94" width="213.46" height="22" fill="#4c78a8" rx="3"/>
<text x="401.46000000000004" y="110" class="value">78.10</text>
<text x="10" y="142" class="label">community.akamai.steamstatic.com</text>
<rect x="180" y="126" width="292.91" height="22" fill="#4c78a8" rx="3"/>
<text x="480.91" y="142" class="value">107.17</text>
<text x="10" y="174" class="label">ea.com</text>
<rect x="180" y="158" width="305.62" height="22" fill="#4c78a8" rx="3"/>
<text x="493.62" y="174" class="value">111.82</text>
<text x="10" y="206" class="label">socialclub.rockstargames.com</text>
<rect x="180" y="190" width="377.69" height="22" fill="#4c78a8" rx="3"/>
<text x="565.69" y="206" class="value">138.19</text>
<text x="10" y="238" class="label">blizzard.com</text>
<rect x="180" y="222" width="394.56" height="22" fill="#4c78a8" rx="3"/>
<text x="582.56" y="238" class="value">144.36</text>
<text x="10" y="270" class="label">origin.com</text>
<rect x="180" y="254" width="445.42" height="22" fill="#4c78a8" rx="3"/>
<text x="633.4200000000001" y="270" class="value">162.97</text>
<text x="10" y="302" class="label">steamcdn-a.akamaihd.net</text>
<rect x="180" y="286" width="453.35" height="22" fill="#4c78a8" rx="3"/>
<text x="641.35" y="302" class="value">165.87</text>
<text x="10" y="334" class="label">ubisoft.com</text>
<rect x="180" y="318" width="454.49" height="22" fill="#4c78a8" rx="3"/>
<text x="642.49" y="334" class="value">166.29</text>
<text x="10" y="366" class="label">ubi.com</text>
<rect x="180" y="350" width="456.13" height="22" fill="#4c78a8" rx="3"/>
<text x="644.13" y="366" class="value">166.89</text>
<text x="10" y="398" class="label">battle.net</text>
<rect x="180" y="382" width="466.14" height="22" fill="#4c78a8" rx="3"/>
<text x="654.14" y="398" class="value">170.55</text>
<text x="10" y="430" class="label">cdn.cloudflare.steamstatic.com</text>
<rect x="180" y="414" width="533.59" height="22" fill="#4c78a8" rx="3"/>
<text x="721.59" y="430" class="value">195.23</text>
<text x="10" y="462" class="label">static3.cdn.ubi.com</text>
<rect x="180" y="446" width="549.39" height="22" fill="#4c78a8" rx="3"/>
<text x="737.39" y="462" class="value">201.01</text>
<text x="10" y="494" class="label">cdn.akamai.steamstatic.com</text>
<rect x="180" y="478" width="580.0" height="22" fill="#4c78a8" rx="3"/>
<text x="768.0" y="494" class="value">212.21</text>
<line x1="180" y1="30" x2="180" y2="520" stroke="#ccc"/>
<line x1="180" y1="520" x2="760" y2="520" stroke="#ccc"/>
</svg>