<svg xmlns="http://www.w3.org/2000/svg" width="800" height="540">
<style> .label{font-family:DejaVu Sans,Verdana,Geneva,sans-serif;font-size:12px;fill:#333} .value{font-family:DejaVu Sans,Verdana,Geneva,sans-serif;font-size:12px;fill:#555} </style>
<text x="10" y="20" class="label">延迟柱状图（越低越好，Top 15），单位 ms</text>
<text x="10" y="46" class="label">rockstargames.com</text>
<rect x="180" y="30" width="79.71" height="22" fill="#4c78a8" rx="3"/>
<text x="267.71" y="46" class="value">31.34</text>
<text x="10" y="78" class="label">eaassets-a.akamaihd.net</text>
<rect x="180" y="62" width="93.39" height="22" fill="#4c78a8" rx="3"/>
<text x="281.39" y="78" class="value">36.72</text>
<text x="10" y="110" class="label">ea.com</text>
<rect x="180" y="94" width="121.42" height="22" fill="#4c78a8" rx="3"/>
<text x="309.42" y="110" class="value">47.74</text>
<text x="10" y="142" class="label">community.akamai.steamstatic.com</text>
<rect x="180" y="126" width="273.99" height="22" fill="#4c78a8" rx="3"/>
<text x="461.99" y="142" class="value">107.73</text>
<text x="10" y="174" class="label">origin.com</text>
<rect x="180" y="158" width="275.01" height="22" fill="#4c78a8" rx="3"/>
<text x="463.01" y="174" class="value">108.13</text>
<text x="10" y="206" class="label">ubisoft.com</text>
<rect x="180" y="190" width="293.98" height="22" fill="#4c78a8" rx="3"/>
<text x="481.98" y="206" class="value">115.59</text>
<text x="10" y="238" class="label">cdn.akamai.steamstatic.com</text>
<rect x="180" y="222" width="301.13" height="22" fill="#4c78a8" rx="3"/>
<text x="489.13" y="238" class="value">118.40</text>
<text x="10" y="270" class="label">store.akamai.steamstatic.com</text>
<rect x="180" y="254" width="339.35" height="22" fill="#4c78a8" rx="3"/>
<text x="527.35" y="270" class="value">133.43</text>
<text x="10" y="302" class="label">cdn.cloudflare.steamstatic.com</text>
<rect x="180" y="286" width="388.62" height="22" fill="#4c78a8" rx="3"/>
<text x="576.62" y="302" class="value">152.80</text>
<text x="10" y="334" class="label">static3.cdn.ubi.com</text>
<rect x="180" y="318" width="450.72" height="22" fill="#4c78a8" rx="3"/>
<text x="638.72" y="334" class="value">177.22</text>
<text x="10" y="366" class="label">steamcdn-a.akamaihd.net</text>
<rect x="180" y="350" width="474.83" height="22" fill="#4c78a8" rx="3"/>
<text x="662.8299999999999" y="366" class="value">186.70</text>
<text x="10" y="398" class="label">gog.com</text>
<rect x="180" y="382" width="506.8" height="22" fill="#4c78a8" rx="3"/>
<text x="694.8" y="398" class="value">199.27</text>
<text x="10" y="430" class="label">easyanticheat.net</text>
<rect x="180" y="414" width="514.28" height="22" fill="#4c78a8" rx="3"/>
<text x="702.28" y="430" class="value">202.21</text>
<text x="10" y="462" class="label">api.steampowered.com</text>
<rect x="180" y="446" width="561.03" height="22" fill="#4c78a8" rx="3"/>
<text x="749.03" y="462" class="value">220.59</text>
<text x="10" y="494" class="label">steam-chat.com</text>
<rect x="180" y="478" width="580.0" height="22" fill="#4c78a8" rx="3"/>
<text x="768.0" y="494" class="value">228.05</text>
<line x1="180" y1="30" x2="180" y2="520" stroke="#ccc"/>
<line x1="180" y1="520" x2="760" y2="520" stroke="#ccc"/>
</svg>