<svg xmlns="http://www.w3.org/2000/svg" width="800" height="540">
<style> .label{font-family:DejaVu Sans,Verdana,Geneva,sans-serif;font-size:12px;fill:#333} .value{font-family:DejaVu Sans,Verdana,Geneva,sans-serif;font-size:12px;fill:#555} </style>
<text x="10" y="20" class="label">延迟柱状图（越低越好，Top 15），单位 ms</text>
<text x="10" y="46" class="label">rockstargames.com</text>
<rect x="180" y="30" width="177.47" height="22" fill="#4c78a8" rx="3"/>
<text x="365.47" y="46" class="value">57.96</text>
<text x="10" y="78" class="label">eaassets-a.akamaihd.net</text>
<rect x="180" y="62" width="202.34" height="22" fill="#4c78a8" rx="3"/>
<text x="390.34000000000003" y="78" class="value">66.08</text>
<text x="10" y="110" class="label">socialclub.rockstargames.com</text>
<rect x="180" y="94" width="215.13" height="22" fill="#4c78a8" rx="3"/>
<text x="403.13" y="110" class="value">70.26</text>
<text x="10" y="142" class="label">epicgames.com</text>
<rect x="180" y="126" width="239.42" height="22" fill="#4c78a8" rx="3"/>
<text x="427.41999999999996" y="142" class="value">78.19</text>
<text x="10" y="174" class="label">blizzard.com</text>
<rect x="180" y="158" width="243.09" height="22" fill="#4c78a8" rx="3"/>
<text x="431.09000000000003" y="174" class="value">79.39</text>
<text x="10" y="206" class="label">ea.com</text>
<rect x="180" y="190" width="264.86" height="22" fill="#4c78a8" rx="3"/>
<text x="452.86" y="206" class="value">86.50</text>
<text x="10" y="238" class="label">steamcdn-a.akamaihd.net</text>
<rect x="180" y="222" width="282.38" height="22" fill="#4c78a8" rx="3"/>
<text x="470.38" y="238" class="value">92.22</text>
<text x="10" y="270" class="label">ubisoft.com</text>
<rect x="180" y="254" width="297.78" height="22" fill="#4c78a8" rx="3"/>
<text x="485.78" y="270" class="value">97.25</text>
<text x="10" y="302" class="label">ubi.com</text>
<rect x="180" y="286" width="376.62" height="22" fill="#4c78a8" rx="3"/>
<text x="564.62" y="302" class="value">123.00</text>
<text x="10" y="334" class="label">battle.net</text>
<rect x="180" y="318" width="420.44" height="22" fill="#4c78a8" rx="3"/>
<text x="608.44" y="334" class="value">137.31</text>
<text x="10" y="366" class="label">static3.cdn.ubi.com</text>
<rect x="180" y="350" width="495.34" height="22" fill="#4c78a8" rx="3"/>
<text x="683.3399999999999" y="366" class="value">161.77</text>
<text x="10" y="398" class="label">origin.com</text>
<rect x="180" y="382" width="522.1" height="22" fill="#4c78a8" rx="3"/>
<text x="710.1" y="398" class="value">170.51</text>
<text x="10" y="430" class="label">easyanticheat.net</text>
<rect x="180" y="414" width="538.33" height="22" fill="#4c78a8" rx="3"/>
<text x="726.33" y="430" class="value">175.81</text>
<text x="10" y="462" class="label">store.akamai.steamstatic.com</text>
<rect x="180" y="446" width="571.82" height="22" fill="#4c78a8" rx="3"/>
<text x="759.82" y="462" class="value">186.75</text>
<text x="10" y="494" class="label">cdn.cloudflare.steamstatic.com</text>
<rect x="180" y="478" width="580.0" height="22" fill="#4c78a8" rx="3"/>
<text x="768.0" y="494" class="value">189.42</text>
<line x1="180" y1="30" x2="180" y2="520" stroke="#ccc"/>
<line x1="180" y1="520" x2="760" y2="520" stroke="#ccc"/>
</svg>