<svg xmlns="http://www.w3.org/2000/svg" width="800" height="540">
<style> .label{font-family:DejaVu Sans,Verdana,Geneva,sans-serif;font-size:12px;fill:#333} .value{font-family:DejaVu Sans,Verdana,Geneva,sans-serif;font-size:12px;fill:#555} </style>
<text x="10" y="20" class="label">延迟柱状图（越低越好，Top 15），单位 ms</text>
<text x="10" y="46" class="label">rockstargames.com</text>
<rect x="180" y="30" width="160.34" height="22" fill="#4c78a8" rx="3"/>
<text x="348.34000000000003" y="46" class="value">77.03</text>
<text x="10" y="78" class="label">socialclub.rockstargames.com</text>
<rect x="180" y="62" width="176.7" height="22" fill="#4c78a8" rx="3"/>
<text x="364.7" y="78" class="value">84.89</text>
<text x="10" y="110" class="label">epicgames.com</text>
<rect x="180" y="94" width="187.3" height="22" fill="#4c78a8" rx="3"/>
<text x="375.3" y="110" class="value">89.98</text>
<text x="10" y="142" class="label">battle.net</text>
<rect x="180" y="126" width="190.65" height="22" fill="#4c78a8" rx="3"/>
<text x="378.65" y="142" class="value">91.59</text>
<text x="10" y="174" class="label">ubi.com</text>
<rect x="180" y="158" width="191.25" height="22" fill="#4c78a8" rx="3"/>
<text x="379.25" y="174" class="value">91.88</text>
<text x="10" y="206" class="label">unrealengine.com</text>
<rect x="180" y="190" width="195.91" height="22" fill="#4c78a8" rx="3"/>
<text x="383.90999999999997" y="206" class="value">94.12</text>
<text x="10" y="238" class="label">blizzard.com</text>
<rect x="180" y="222" width="208.82" height="22" fill="#4c78a8" rx="3"/>
<text x="396.82" y="238" class="value">100.32</text>
<text x="10" y="270" class="label">fortnite.com</text>
<rect x="180" y="254" width="229.7" height="22" fill="#4c78a8" rx="3"/>
<text x="417.7" y="270" class="value">110.35</text>
<text x="10" y="302" class="label">ubisoft.com</text>
<rect x="180" y="286" width="241.73" height="22" fill="#4c78a8" rx="3"/>
<text x="429.73" y="302" class="value">116.13</text>
<text x="10" y="334" class="label">easyanticheat.net</text>
<rect x="180" y="318" width="267.25" height="22" fill="#4c78a8" rx="3"/>
<text x="455.25" y="334" class="value">128.39</text>
<text x="10" y="366" class="label">ea.com</text>
<rect x="180" y="350" width="364.94" height="22" fill="#4c78a8" rx="3"/>
<text x="552.94" y="366" class="value">175.32</text>
<text x="10" y="398" class="label">gog.com</text>
<rect x="180" y="382" width="468.89" height="22" fill="#4c78a8" rx="3"/>
<text x="656.89" y="398" class="value">225.26</text>
<text x="10" y="430" class="label">static3.cdn.ubi.com</text>
<rect x="180" y="414" width="562.16" height="22" fill="#4c78a8" rx="3"/>
<text x="750.16" y="430" class="value">270.07</text>
<text x="10" y="462" class="label">launcher-public-service-prod06.ol.epicgames.com</text>
<rect x="180" y="446" width="570.95" height="22" fill="#4c78a8" rx="3"/>
<text x="758.95" y="462" class="value">274.29</text>
<text x="10" y="494" class="label">origin.com</text>
<rect x="180" y="478" width="580.0" height="22" fill="#4c78a8" rx="3"/>
<text x="768.0" y="494" class="value">278.64</text>
<line x1="180" y1="30" x2="180" y2="520" stroke="#ccc"/>
<line x1="180" y1="520" x2="760" y2="520" stroke="#ccc"/>
</svg>