<svg xmlns="http://www.w3.org/2000/svg" width="800" height="540">
<style> .label{font-family:DejaVu Sans,Verdana,Geneva,sans-serif;font-size:12px;fill:#333} .value{font-family:DejaVu Sans,Verdana,Geneva,sans-serif;font-size:12px;fill:#555} </style>
<text x="10" y="20" class="label">延迟柱状图（越低越好，Top 15），单位 ms</text>
<text x="10" y="46" class="label">blizzard.com</text>
<rect x="180" y="30" width="187.2" height="22" fill="#4c78a8" rx="3"/>
<text x="375.2" y="46" class="value">73.60</text>
<text x="10" y="78" class="label">rockstargames.com</text>
<rect x="180" y="62" width="204.75" height="22" fill="#4c78a8" rx="3"/>
<text x="392.75" y="78" class="value">80.50</text>
<text x="10" y="110" class="label">socialclub.rockstargames.com</text>
<rect x="180" y="94" width="231.26" height="22" fill="#4c78a8" rx="3"/>
<text x="419.26" y="110" class="value">90.92</text>
<text x="10" y="142" class="label">ubi.com</text>
<rect x="180" y="126" width="262.72" height="22" fill="#4c78a8" rx="3"/>
<text x="450.72" y="142" class="value">103.29</text>
<text x="10" y="174" class="label">fortnite.com</text>
<rect x="180" y="158" width="305.02" height="22" fill="#4c78a8" rx="3"/>
<text x="493.02" y="174" class="value">119.92</text>
<text x="10" y="206" class="label">battle.net</text>
<rect x="180" y="190" width="318.81" height="22" fill="#4c78a8" rx="3"/>
<text x="506.81" y="206" class="value">125.34</text>
<text x="10" y="238" class="label">ea.com</text>
<rect x="180" y="222" width="379.42" height="22" fill="#4c78a8" rx="3"/>
<text x="567.4200000000001" y="238" class="value">149.17</text>
<text x="10" y="270" class="label">store.akamai.steamstatic.com</text>
<rect x="180" y="254" width="422.38" height="22" fill="#4c78a8" rx="3"/>
<text x="610.38" y="270" class="value">166.06</text>
<text x="10" y="302" class="label">origin.com</text>
<rect x="180" y="286" width="464.78" height="22" fill="#4c78a8" rx="3"/>
<text x="652.78" y="302" class="value">182.73</text>
<text x="10" y="334" class="label">community.akamai.steamstatic.com</text>
<rect x="180" y="318" width="484.01" height="22" fill="#4c78a8" rx="3"/>
<text x="672.01" y="334" class="value">190.29</text>
<text x="10" y="366" class="label">ubisoft.com</text>
<rect x="180" y="350" width="491.94" height="22" fill="#4c78a8" rx="3"/>
<text x="679.94" y="366" class="value">193.41</text>
<text x="10" y="398" class="label">cdn.akamai.steamstatic.com</text>
<rect x="180" y="382" width="543.42" height="22" fill="#4c78a8" rx="3"/>
<text x="731.42" y="398" class="value">213.65</text>
<text x="10" y="430" class="label">cdn.cloudflare.steamstatic.com</text>
<rect x="180" y="414" width="548.94" height="22" fill="#4c78a8" rx="3"/>
<text x="736.94" y="430" class="value">215.82</text>
<text x="10" y="462" class="label">launcher-public-service-prod06.ol.epicgames.com</text>
<rect x="180" y="446" width="569.88" height="22" fill="#4c78a8" rx="3"/>
<text x="757.88" y="462" class="value">224.05</text>
<text x="10" y="494" class="label">www.steamcommunity.com</text>
<rect x="180" y="478" width="580.0" height="22" fill="#4c78a8" rx="3"/>
<text x="768.0" y="494" class="value">228.03</text>
<line x1="180" y1="30" x2="180" y2="520" stroke="#ccc"/>
<line x1="180" y1="520" x2="760" y2="520" stroke="#ccc"/>
</svg>