<svg xmlns="http://www.w3.org/2000/svg" width="800" height="540">
<style> .label{font-family:DejaVu Sans,Verdana,Geneva,sans-serif;font-size:12px;fill:#333} .value{font-family:DejaVu Sans,Verdana,Geneva,sans-serif;font-size:12px;fill:#555} </style>
<text x="10" y="20" class="label">延迟柱状图（越低越好，Top 15），单位 ms</text>
<text x="10" y="46" class="label">eaassets-a.akamaihd.net</text>
<rect x="180" y="30" width="190.95" height="22" fill="#4c78a8" rx="3"/>
<text x="378.95" y="46" class="value">85.30</text>
<text x="10" y="78" class="label">rockstargames.com</text>
<rect x="180" y="62" width="202.14" height="22" fill="#4c78a8" rx="3"/>
<text x="390.14" y="78" class="value">90.30</text>
<text x="10" y="110" class="label">store.akamai.steamstatic.com</text>
<rect x="180" y="94" width="227.23" height="22" fill="#4c78a8" rx="3"/>
<text x="415.23" y="110" class="value">101.51</text>
<text x="10" y="142" class="label">cdn.akamai.steamstatic.com</text>
<rect x="180" y="126" width="256.47" height="22" fill="#4c78a8" rx="3"/>
<text x="444.47" y="142" class="value">114.57</text>
<text x="10" y="174" class="label">ubisoft.com</text>
<rect x="180" y="158" width="257.65" height="22" fill="#4c78a8" rx="3"/>
<text x="445.65" y="174" class="value">115.10</text>
<text x="10" y="206" class="label">community.akamai.steamstatic.com</text>
<rect x="180" y="190" width="292.08" height="22" fill="#4c78a8" rx="3"/>
<text x="480.08" y="206" class="value">130.48</text>
<text x="10" y="238" class="label">origin.com</text>
<rect x="180" y="222" width="336.96" height="22" fill="#4c78a8" rx="3"/>
<text x="524.96" y="238" class="value">150.53</text>
<text x="10" y="270" class="label">ea.com</text>
<rect x="180" y="254" width="360.36" height="22" fill="#4c78a8" rx="3"/>
<text x="548.36" y="270" class="value">160.98</text>
<text x="10" y="302" class="label">steamcdn-a.akamaihd.net</text>
<rect x="180" y="286" width="373.09" height="22" fill="#4c78a8" rx="3"/>
<text x="561.0899999999999" y="302" class="value">166.67</text>
<text x="10" y="334" class="label">cdn.cloudflare.steamstatic.com</text>
<rect x="180" y="318" width="373.59" height="22" fill="#4c78a8" rx="3"/>
<text x="561.5899999999999" y="334" class="value">166.89</text>
<text x="10" y="366" class="label">static3.cdn.ubi.com</text>
<rect x="180" y="350" width="420.04" height="22" fill="#4c78a8" rx="3"/>
<text x="608.04" y="366" class="value">187.64</text>
<text x="10" y="398" class="label">easyanticheat.net</text>
<rect x="180" y="382" width="439.09" height="22" fill="#4c78a8" rx="3"/>
<text x="627.0899999999999" y="398" class="value">196.15</text>
<text x="10" y="430" class="label">steamcommunity.com</text>
<rect x="180" y="414" width="521.13" height="22" fill="#4c78a8" rx="3"/>
<text x="709.13" y="430" class="value">232.80</text>
<text x="10" y="462" class="label">api.steampowered.com</text>
<rect x="180" y="446" width="565.38" height="22" fill="#4c78a8" rx="3"/>
<text x="753.38" y="462" class="value">252.57</text>
<text x="10" y="494" class="label">steam-chat.com</text>
<rect x="180" y="478" width="580.0" height="22" fill="#4c78a8" rx="3"/>
<text x="768.0" y="494" class="value">259.10</text>
<line x1="180" y1="30" x2="180" y2="520" stroke="#ccc"/>
<line x1="180" y1="520" x2="760" y2="520" stroke="#ccc"/>
</svg>