<svg xmlns="http://www.w3.org/2000/svg" width="800" height="540">
<style> .label{font-family:DejaVu Sans,Verdana,Geneva,sans-serif;font-size:12px;fill:#333} .value{font-family:DejaVu Sans,Verdana,Geneva,sans-serif;font-size:12px;fill:#555} </style>
<text x="10" y="20" class="label">延迟柱状图（越低越好，Top 15），单位 ms</text>
<text x="10" y="46" class="label">origin.com</text>
<rect x="180" y="30" width="239.97" height="22" fill="#4c78a8" rx="3"/>
<text x="427.97" y="46" class="value">89.46</text>
<text x="10" y="78" class="label">rockstargames.com</text>
<rect x="180" y="62" width="244.93" height="22" fill="#4c78a8" rx="3"/>
<text x="432.93" y="78" class="value">91.31</text>
<text x="10" y="110" class="label">ea.com</text>
<rect x="180" y="94" width="270.63" height="22" fill="#4c78a8" rx="3"/>
<text x="458.63" y="110" class="value">100.89</text>
<text x="10" y="142" class="label">eaassets-a.akamaihd.net</text>
<rect x="180" y="126" width="291.88" height="22" fill="#4c78a8" rx="3"/>
<text x="479.88" y="142" class="value">108.81</text>
<text x="10" y="174" class="label">ubisoft.com</text>
<rect x="180" y="158" width="372.19" height="22" fill="#4c78a8" rx="3"/>
<text x="560.19" y="174" class="value">138.75</text>
<text x="10" y="206" class="label">socialclub.rockstargames.com</text>
<rect x="180" y="190" width="380.02" height="22" fill="#4c78a8" rx="3"/>
<text x="568.02" y="206" class="value">141.67</text>
<text x="10" y="238" class="label">easyanticheat.net</text>
<rect x="180" y="222" width="409.45" height="22" fill="#4c78a8" rx="3"/>
<text x="597.45" y="238" class="value">152.64</text>
<text x="10" y="270" class="label">blizzard.com</text>
<rect x="180" y="254" width="418.49" height="22" fill="#4c78a8" rx="3"/>
<text x="606.49" y="270" class="value">156.01</text>
<text x="10" y="302" class="label">ubi.com</text>
<rect x="180" y="286" width="433.06" height="22" fill="#4c78a8" rx="3"/>
<text x="621.06" y="302" class="value">161.44</text>
<text x="10" y="334" class="label">community.akamai.steamstatic.com</text>
<rect x="180" y="318" width="435.25" height="22" fill="#4c78a8" rx="3"/>
<text x="623.25" y="334" class="value">162.26</text>
<text x="10" y="366" class="label">steamcdn-a.akamaihd.net</text>
<rect x="180" y="350" width="488.74" height="22" fill="#4c78a8" rx="3"/>
<text x="676.74" y="366" class="value">182.20</text>
<text x="10" y="398" class="label">battle.net</text>
<rect x="180" y="382" width="520.74" height="22" fill="#4c78a8" rx="3"/>
<text x="708.74" y="398" class="value">194.13</text>
<text x="10" y="430" class="label">store.akamai.steamstatic.com</text>
<rect x="180" y="414" width="523.4" height="22" fill="#4c78a8" rx="3"/>
<text x="711.4" y="430" class="value">195.12</text>
<text x="10" y="462" class="label">static3.cdn.ubi.com</text>
<rect x="180" y="446" width="536.89" height="22" fill="#4c78a8" rx="3"/>
<text x="724.89" y="462" class="value">200.15</text>
<text x="10" y="494" class="label">steam-chat.com</text>
<rect x="180" y="478" width="580.0" height="22" fill="#4c78a8" rx="3"/>
<text x="768.0" y="494" class="value">216.22</text>
<line x1="180" y1="30" x2="180" y2="520" stroke="#ccc"/>
<line x1="180" y1="520" x2="760" y2="520" stroke="#ccc"/>
</svg>