<svg xmlns="http://www.w3.org/2000/svg" width="800" height="540">
<style> .label{font-family:DejaVu Sans,Verdana,Geneva,sans-serif;font-size:12px;fill:#333} .value{font-family:DejaVu Sans,Verdana,Geneva,sans-serif;font-size:12px;fill:#555} </style>
<text x="10" y="20" class="label">延迟柱状图（越低越好，Top 15），单位 ms</text>
<text x="10" y="46" class="label">rockstargames.com</text>
<rect x="180" y="30" width="176.56" height="22" fill="#4c78a8" rx="3"/>
<text x="364.56" y="46" class="value">64.26</text>
<text x="10" y="78" class="label">socialclub.rockstargames.com</text>
<rect x="180" y="62" width="197.8" height="22" fill="#4c78a8" rx="3"/>
<text x="385.8" y="78" class="value">71.99</text>
<text x="10" y="110" class="label">eaassets-a.akamaihd.net</text>
<rect x="180" y="94" width="236.98" height="22" fill="#4c78a8" rx="3"/>
<text x="424.98" y="110" class="value">86.25</text>
<text x="10" y="142" class="label">store.akamai.steamstatic.com</text>
<rect x="180" y="126" width="255.53" height="22" fill="#4c78a8" rx="3"/>
<text x="443.53" y="142" class="value">93.00</text>
<text x="10" y="174" class="label">battle.net</text>
<rect x="180" y="158" width="291.88" height="22" fill="#4c78a8" rx="3"/>
<text x="479.88" y="174" class="value">106.23</text>
<text x="10" y="206" class="label">ea.com</text>
<rect x="180" y="190" width="299.6" height="22" fill="#4c78a8" rx="3"/>
<text x="487.6" y="206" class="value">109.04</text>
<text x="10" y="238" class="label">ubisoft.com</text>
<rect x="180" y="222" width="328.78" height="22" fill="#4c78a8" rx="3"/>
<text x="516.78" y="238" class="value">119.66</text>
<text x="10" y="270" class="label">ubi.com</text>
<rect x="180" y="254" width="333.4" height="22" fill="#4c78a8" rx="3"/>
<text x="521.4" y="270" class="value">121.34</text>
<text x="10" y="302" class="label">cdn.cloudflare.steamstatic.com</text>
<rect x="180" y="286" width="341.72" height="22" fill="#4c78a8" rx="3"/>
<text x="529.72" y="302" class="value">124.37</text>
<text x="10" y="334" class="label">unrealengine.com</text>
<rect x="180" y="318" width="376.1" height="22" fill="#4c78a8" rx="3"/>
<text x="564.1" y="334" class="value">136.88</text>
<text x="10" y="366" class="label">origin.com</text>
<rect x="180" y="350" width="438.96" height="22" fill="#4c78a8" rx="3"/>
<text x="626.96" y="366" class="value">159.76</text>
<text x="10" y="398" class="label">blizzard.com</text>
<rect x="180" y="382" width="448.8" height="22" fill="#4c78a8" rx="3"/>
<text x="636.8" y="398" class="value">163.34</text>
<text x="10" y="430" class="label">cdn.akamai.steamstatic.com</text>
<rect x="180" y="414" width="552.06" height="22" fill="#4c78a8" rx="3"/>
<text x="740.06" y="430" class="value">200.92</text>
<text x="10" y="462" class="label">gog.com</text>
<rect x="180" y="446" width="574.39" height="22" fill="#4c78a8" rx="3"/>
<text x="762.39" y="462" class="value">209.05</text>
<text x="10" y="494" class="label">epicgames.com</text>
<rect x="180" y="478" width="580.0" height="22" fill="#4c78a8" rx="3"/>
<text x="768.0" y="494" class="value">211.09</text>
<line x1="180" y1="30" x2="180" y2="520" stroke="#ccc"/>
<line x1="180" y1="520" x2="760" y2="520" stroke="#ccc"/>
</svg>