<svg xmlns="http://www.w3.org/2000/svg" width="800" height="540">
<style> .label{font-family:DejaVu Sans,Verdana,Geneva,sans-serif;font-size:12px;fill:#333} .value{font-family:DejaVu Sans,Verdana,Geneva,sans-serif;font-size:12px;fill:#555} </style>
<text x="10" y="20" class="label">延迟柱状图（越低越好，Top 15），单位 ms</text>
<text x="10" y="46" class="label">store.akamai.steamstatic.com</text>
<rect x="180" y="30" width="179.3" height="22" fill="#4c78a8" rx="3"/>
<text x="367.3" y="46" class="value">62.53</text>
<text x="10" y="78" class="label">origin.com</text>
<rect x="180" y="62" width="208.12" height="22" fill="#4c78a8" rx="3"/>
<text x="396.12" y="78" class="value">72.58</text>
<text x="10" y="110" class="label">rockstargames.com</text>
<rect x="180" y="94" width="301.71" height="22" fill="#4c78a8" rx="3"/>
<text x="489.71" y="110" class="value">105.22</text>
<text x="10" y="142" class="label">community.akamai.steamstatic.com</text>
<rect x="180" y="126" width="302.83" height="22" fill="#4c78a8" rx="3"/>
<text x="490.83" y="142" class="value">105.61</text>
<text x="10" y="174" class="label">api.steampowered.com</text>
<rect x="180" y="158" width="329.41" height="22" fill="#4c78a8" rx="3"/>
<text x="517.4100000000001" y="174" class="value">114.88</text>
<text x="10" y="206" class="label">eaassets-a.akamaihd.net</text>
<rect x="180" y="190" width="344.21" height="22" fill="#4c78a8" rx="3"/>
<text x="532.21" y="206" class="value">120.04</text>
<text x="10" y="238" class="label">socialclub.rockstargames.com</text>
<rect x="180" y="222" width="375.15" height="22" fill="#4c78a8" rx="3"/>
<text x="563.15" y="238" class="value">130.83</text>
<text x="10" y="270" class="label">ubi.com</text>
<rect x="180" y="254" width="434.79" height="22" fill="#4c78a8" rx="3"/>
<text x="622.79" y="270" class="value">151.63</text>
<text x="10" y="302" class="label">easyanticheat.net</text>
<rect x="180" y="286" width="438.72" height="22" fill="#4c78a8" rx="3"/>
<text x="626.72" y="302" class="value">153.00</text>
<text x="10" y="334" class="label">blizzard.com</text>
<rect x="180" y="318" width="481.7" height="22" fill="#4c78a8" rx="3"/>
<text x="669.7" y="334" class="value">167.99</text>
<text x="10" y="366" class="label">ea.com</text>
<rect x="180" y="350" width="488.36" height="22" fill="#4c78a8" rx="3"/>
<text x="676.36" y="366" class="value">170.31</text>
<text x="10" y="398" class="label">cdn.akamai.steamstatic.com</text>
<rect x="180" y="382" width="529.99" height="22" fill="#4c78a8" rx="3"/>
<text x="717.99" y="398" class="value">184.83</text>
<text x="10" y="430" class="label">steamcdn-a.akamaihd.net</text>
<rect x="180" y="414" width="543.33" height="22" fill="#4c78a8" rx="3"/>
<text x="731.33" y="430" class="value">189.48</text>
<text x="10" y="462" class="label">static3.cdn.ubi.com</text>
<rect x="180" y="446" width="569.33" height="22" fill="#4c78a8" rx="3"/>
<text x="757.33" y="462" class="value">198.55</text>
<text x="10" y="494" class="label">steamcommunity.com</text>
<rect x="180" y="478" width="580.0" height="22" fill="#4c78a8" rx="3"/>
<text x="768.0" y="494" class="value">202.27</text>
<line x1="180" y1="30" x2="180" y2="520" stroke="#ccc"/>
<line x1="180" y1="520" x2="760" y2="520" stroke="#ccc"/>
</svg>