<svg xmlns="http://www.w3.org/2000/svg" width="800" height="540">
<style> .label{font-family:DejaVu Sans,Verdana,Geneva,sans-serif;font-size:12px;fill:#333} .value{font-family:DejaVu Sans,Verdana,Geneva,sans-serif;font-size:12px;fill:#555} </style>
<text x="10" y="20" class="label">延迟柱状图（越低越好，Top 15），单位 ms</text>
<text x="10" y="46" class="label">rockstargames.com</text>
<rect x="180" y="30" width="175.65" height="22" fill="#4c78a8" rx="3"/>
<text x="363.65" y="46" class="value">63.39</text>
<text x="10" y="78" class="label">blizzard.com</text>
<rect x="180" y="62" width="199.06" height="22" fill="#4c78a8" rx="3"/>
<text x="387.06" y="78" class="value">71.84</text>
<text x="10" y="110" class="label">socialclub.rockstargames.com</text>
<rect x="180" y="94" width="251.1" height="22" fill="#4c78a8" rx="3"/>
<text x="439.1" y="110" class="value">90.62</text>
<text x="10" y="142" class="label">battle.net</text>
<rect x="180" y="126" width="304.66" height="22" fill="#4c78a8" rx="3"/>
<text x="492.66" y="142" class="value">109.95</text>
<text x="10" y="174" class="label">epicgames.com</text>
<rect x="180" y="158" width="307.29" height="22" fill="#4c78a8" rx="3"/>
<text x="495.29" y="174" class="value">110.90</text>
<text x="10" y="206" class="label">eaassets-a.akamaihd.net</text>
<rect x="180" y="190" width="318.15" height="22" fill="#4c78a8" rx="3"/>
<text x="506.15" y="206" class="value">114.82</text>
<text x="10" y="238" class="label">ubi.com</text>
<rect x="180" y="222" width="323.94" height="22" fill="#4c78a8" rx="3"/>
<text x="511.94" y="238" class="value">116.91</text>
<text x="10" y="270" class="label">ea.com</text>
<rect x="180" y="254" width="391.25" height="22" fill="#4c78a8" rx="3"/>
<text x="579.25" y="270" class="value">141.20</text>
<text x="10" y="302" class="label">store.akamai.steamstatic.com</text>
<rect x="180" y="286" width="467.17" height="22" fill="#4c78a8" rx="3"/>
<text x="655.1700000000001" y="302" class="value">168.60</text>
<text x="10" y="334" class="label">fortnite.com</text>
<rect x="180" y="318" width="489.31" height="22" fill="#4c78a8" rx="3"/>
<text x="677.31" y="334" class="value">176.59</text>
<text x="10" y="366" class="label">community.akamai.steamstatic.com</text>
<rect x="180" y="350" width="535.61" height="22" fill="#4c78a8" rx="3"/>
<text x="723.61" y="366" class="value">193.30</text>
<text x="10" y="398" class="label">origin.com</text>
<rect x="180" y="382" width="554.31" height="22" fill="#4c78a8" rx="3"/>
<text x="742.31" y="398" class="value">200.05</text>
<text x="10" y="430" class="label">cdn.cloudflare.steamstatic.com</text>
<rect x="180" y="414" width="568.36" height="22" fill="#4c78a8" rx="3"/>
<text x="756.36" y="430" class="value">205.12</text>
<text x="10" y="462" class="label">unrealengine.com</text>
<rect x="180" y="446" width="574.65" height="22" fill="#4c78a8" rx="3"/>
<text x="762.65" y="462" class="value">207.39</text>
<text x="10" y="494" class="label">steamcdn-a.akamaihd.net</text>
<rect x="180" y="478" width="580.0" height="22" fill="#4c78a8" rx="3"/>
<text x="768.0" y="494" class="value">209.32</text>
<line x1="180" y1="30" x2="180" y2="520" stroke="#ccc"/>
<line x1="180" y1="520" x2="760" y2="520" stroke="#ccc"/>
</svg>