<svg xmlns="http://www.w3.org/2000/svg" width="800" height="540">
<style> .label{font-family:DejaVu Sans,Verdana,Geneva,sans-serif;font-size:12px;fill:#333} .value{font-family:DejaVu Sans,Verdana,Geneva,sans-serif;font-size:12px;fill:#555} </style>
<text x="10" y="20" class="label">延迟柱状图（越低越好，Top 15），单位 ms</text>
<text x="10" y="46" class="label">store.akamai.steamstatic.com</text>
<rect x="180" y="30" width="168.45" height="22" fill="#4c78a8" rx="3"/>
<text x="356.45" y="46" class="value">83.23</text>
<text x="10" y="78" class="label">ubisoft.com</text>
<rect x="180" y="62" width="230.45" height="22" fill="#4c78a8" rx="3"/>
<text x="418.45" y="78" class="value">113.86</text>
<text x="10" y="110" class="label">rockstargames.com</text>
<rect x="180" y="94" width="295.39" height="22" fill="#4c78a8" rx="3"/>
<text x="483.39" y="110" class="value">145.95</text>
<text x="10" y="142" class="label">steamcdn-a.akamaihd.net</text>
<rect x="180" y="126" width="305.37" height="22" fill="#4c78a8" rx="3"/>
<text x="493.37" y="142" class="value">150.88</text>
<text x="10" y="174" class="label">eaassets-a.akamaihd.net</text>
<rect x="180" y="158" width="305.84" height="22" fill="#4c78a8" rx="3"/>
<text x="493.84" y="174" class="value">151.11</text>
<text x="10" y="206" class="label">blizzard.com</text>
<rect x="180" y="190" width="334.48" height="22" fill="#4c78a8" rx="3"/>
<text x="522.48" y="206" class="value">165.26</text>
<text x="10" y="238" class="label">battle.net</text>
<rect x="180" y="222" width="349.66" height="22" fill="#4c78a8" rx="3"/>
<text x="537.6600000000001" y="238" class="value">172.76</text>
<text x="10" y="270" class="label">static3.cdn.ubi.com</text>
<rect x="180" y="254" width="355.59" height="22" fill="#4c78a8" rx="3"/>
<text x="543.5899999999999" y="270" class="value">175.69</text>
<text x="10" y="302" class="label">easyanticheat.net</text>
<rect x="180" y="286" width="389.55" height="22" fill="#4c78a8" rx="3"/>
<text x="577.55" y="302" class="value">192.47</text>
<text x="10" y="334" class="label">socialclub.rockstargames.com</text>
<rect x="180" y="318" width="398.13" height="22" fill="#4c78a8" rx="3"/>
<text x="586.13" y="334" class="value">196.71</text>
<text x="10" y="366" class="label">cdn.cloudflare.steamstatic.com</text>
<rect x="180" y="350" width="451.32" height="22" fill="#4c78a8" rx="3"/>
<text x="639.3199999999999" y="366" class="value">222.99</text>
<text x="10" y="398" class="label">steam-chat.com</text>
<rect x="180" y="382" width="483.7" height="22" fill="#4c78a8" rx="3"/>
<text x="671.7" y="398" class="value">238.99</text>
<text x="10" y="430" class="label">origin.com</text>
<rect x="180" y="414" width="486.84" height="22" fill="#4c78a8" rx="3"/>
<text x="674.8399999999999" y="430" class="value">240.54</text>
<text x="10" y="462" class="label">ea.com</text>
<rect x="180" y="446" width="524.42" height="22" fill="#4c78a8" rx="3"/>
<text x="712.42" y="462" class="value">259.11</text>
<text x="10" y="494" class="label">epicgames.com</text>
<rect x="180" y="478" width="580.0" height="22" fill="#4c78a8" rx="3"/>
<text x="768.0" y="494" class="value">286.57</text>
<line x1="180" y1="30" x2="180" y2="520" stroke="#ccc"/>
<line x1="180" y1="520" x2="760" y2="520" stroke="#ccc"/>
</svg>