<svg xmlns="http://www.w3.org/2000/svg" width="800" height="540">
<style> .label{font-family:DejaVu Sans,Verdana,Geneva,sans-serif;font-size:12px;fill:#333} .value{font-family:DejaVu Sans,Verdana,Geneva,sans-serif;font-size:12px;fill:#555} </style>
<text x="10" y="20" class="label">延迟柱状图（越低越好，Top 15），单位 ms</text>
<text x="10" y="46" class="label">rockstargames.com</text>
<rect x="180" y="30" width="168.22" height="22" fill="#4c78a8" rx="3"/>
<text x="356.22" y="46" class="value">69.10</text>
<text x="10" y="78" class="label">eaassets-a.akamaihd.net</text>
<rect x="180" y="62" width="185.7" height="22" fill="#4c78a8" rx="3"/>
<text x="373.7" y="78" class="value">76.28</text>
<text x="10" y="110" class="label">battle.net</text>
<rect x="180" y="94" width="204.49" height="22" fill="#4c78a8" rx="3"/>
<text x="392.49" y="110" class="value">84.00</text>
<text x="10" y="142" class="label">fortnite.com</text>
<rect x="180" y="126" width="218.39" height="22" fill="#4c78a8" rx="3"/>
<text x="406.39" y="142" class="value">89.71</text>
<text x="10" y="174" class="label">blizzard.com</text>
<rect x="180" y="158" width="225.18" height="22" fill="#4c78a8" rx="3"/>
<text x="413.18" y="174" class="value">92.50</text>
<text x="10" y="206" class="label">socialclub.rockstargames.com</text>
<rect x="180" y="190" width="228.54" height="22" fill="#4c78a8" rx="3"/>
<text x="416.53999999999996" y="206" class="value">93.88</text>
<text x="10" y="238" class="label">ubisoft.com</text>
<rect x="180" y="222" width="268.69" height="22" fill="#4c78a8" rx="3"/>
<text x="456.69" y="238" class="value">110.37</text>
<text x="10" y="270" class="label">ubi.com</text>
<rect x="180" y="254" width="300.24" height="22" fill="#4c78a8" rx="3"/>
<text x="488.24" y="270" class="value">123.33</text>
<text x="10" y="302" class="label">static3.cdn.ubi.com</text>
<rect x="180" y="286" width="321.08" height="22" fill="#4c78a8" rx="3"/>
<text x="509.08" y="302" class="value">131.89</text>
<text x="10" y="334" class="label">easyanticheat.net</text>
<rect x="180" y="318" width="407.76" height="22" fill="#4c78a8" rx="3"/>
<text x="595.76" y="334" class="value">167.50</text>
<text x="10" y="366" class="label">origin.com</text>
<rect x="180" y="350" width="416.85" height="22" fill="#4c78a8" rx="3"/>
<text x="604.85" y="366" class="value">171.23</text>
<text x="10" y="398" class="label">epicgames.com</text>
<rect x="180" y="382" width="445.67" height="22" fill="#4c78a8" rx="3"/>
<text x="633.6700000000001" y="398" class="value">183.07</text>
<text x="10" y="430" class="label">ea.com</text>
<rect x="180" y="414" width="469.11" height="22" fill="#4c78a8" rx="3"/>
<text x="657.11" y="430" class="value">192.70</text>
<text x="10" y="462" class="label">unrealengine.com</text>
<rect x="180" y="446" width="483.52" height="22" fill="#4c78a8" rx="3"/>
<text x="671.52" y="462" class="value">198.62</text>
<text x="10" y="494" class="label">cdn.cloudflare.steamstatic.com</text>
<rect x="180" y="478" width="580.0" height="22" fill="#4c78a8" rx="3"/>
<text x="768.0" y="494" class="value">238.25</text>
<line x1="180" y1="30" x2="180" y2="520" stroke="#ccc"/>
<line x1="180" y1="520" x2="760" y2="520" stroke="#ccc"/>
</svg>