<svg xmlns="http://www.w3.org/2000/svg" width="800" height="540">
<style> .label{font-family:DejaVu Sans,Verdana,Geneva,sans-serif;font-size:12px;fill:#333} .value{font-family:DejaVu Sans,Verdana,Geneva,sans-serif;font-size:12px;fill:#555} </style>
<text x="10" y="20" class="label">延迟柱状图（越低越好，Top 15），单位 ms</text>
<text x="10" y="46" class="label">rockstargames.com</text>
<rect x="180" y="30" width="165.76" height="22" fill="#4c78a8" rx="3"/>
<text x="353.76" y="46" class="value">60.65</text>
<text x="10" y="78" class="label">eaassets-a.akamaihd.net</text>
<rect x="180" y="62" width="187.4" height="22" fill="#4c78a8" rx="3"/>
<text x="375.4" y="78" class="value">68.57</text>
<text x="10" y="110" class="label">ea.com</text>
<rect x="180" y="94" width="285.49" height="22" fill="#4c78a8" rx="3"/>
<text x="473.49" y="110" class="value">104.46</text>
<text x="10" y="142" class="label">ubisoft.com</text>
<rect x="180" y="126" width="292.3" height="22" fill="#4c78a8" rx="3"/>
<text x="480.3" y="142" class="value">106.95</text>
<text x="10" y="174" class="label">socialclub.rockstargames.com</text>
<rect x="180" y="158" width="375.43" height="22" fill="#4c78a8" rx="3"/>
<text x="563.4300000000001" y="174" class="value">137.37</text>
<text x="10" y="206" class="label">store.akamai.steamstatic.com</text>
<rect x="180" y="190" width="382.9" height="22" fill="#4c78a8" rx="3"/>
<text x="570.9" y="206" class="value">140.10</text>
<text x="10" y="238" class="label">ubi.com</text>
<rect x="180" y="222" width="389.62" height="22" fill="#4c78a8" rx="3"/>
<text x="577.62" y="238" class="value">142.56</text>
<text x="10" y="270" class="label">battle.net</text>
<rect x="180" y="254" width="391.26" height="22" fill="#4c78a8" rx="3"/>
<text x="579.26" y="270" class="value">143.16</text>
<text x="10" y="302" class="label">blizzard.com</text>
<rect x="180" y="286" width="406.97" height="22" fill="#4c78a8" rx="3"/>
<text x="594.97" y="302" class="value">148.91</text>
<text x="10" y="334" class="label">origin.com</text>
<rect x="180" y="318" width="469.2" height="22" fill="#4c78a8" rx="3"/>
<text x="657.2" y="334" class="value">171.68</text>
<text x="10" y="366" class="label">cdn.cloudflare.steamstatic.com</text>
<rect x="180" y="350" width="486.37" height="22" fill="#4c78a8" rx="3"/>
<text x="674.37" y="366" class="value">177.96</text>
<text x="10" y="398" class="label">steamcdn-a.akamaihd.net</text>
<rect x="180" y="382" width="510.39" height="22" fill="#4c78a8" rx="3"/>
<text x="698.39" y="398" class="value">186.75</text>
<text x="10" y="430" class="label">community.akamai.steamstatic.com</text>
<rect x="180" y="414" width="512.3" height="22" fill="#4c78a8" rx="3"/>
<text x="700.3" y="430" class="value">187.45</text>
<text x="10" y="462" class="label">static3.cdn.ubi.com</text>
<rect x="180" y="446" width="553.57" height="22" fill="#4c78a8" rx="3"/>
<text x="741.57" y="462" class="value">202.55</text>
<text x="10" y="494" class="label">cdn.akamai.steamstatic.com</text>
<rect x="180" y="478" width="580.0" height="22" fill="#4c78a8" rx="3"/>
<text x="768.0" y="494" class="value">212.22</text>
<line x1="180" y1="30" x2="180" y2="520" stroke="#ccc"/>
<line x1="180" y1="520" x2="760" y2="520" stroke="#ccc"/>
</svg>