<svg xmlns="http://www.w3.org/2000/svg" width="800" height="540">
<style> .label{font-family:DejaVu Sans,Verdana,Geneva,sans-serif;font-size:12px;fill:#333} .value{font-family:DejaVu Sans,Verdana,Geneva,sans-serif;font-size:12px;fill:#555} </style>
<text x="10" y="20" class="label">延迟柱状图（越低越好，Top 15），单位 ms</text>
<text x="10" y="46" class="label">eaassets-a.akamaihd.net</text>
<rect x="180" y="30" width="161.55" height="22" fill="#4c78a8" rx="3"/>
<text x="349.55" y="46" class="value">62.61</text>
<text x="10" y="78" class="label">rockstargames.com</text>
<rect x="180" y="62" width="204.27" height="22" fill="#4c78a8" rx="3"/>
<text x="392.27" y="78" class="value">79.17</text>
<text x="10" y="110" class="label">cdn.cloudflare.steamstatic.com</text>
<rect x="180" y="94" width="254.2" height="22" fill="#4c78a8" rx="3"/>
<text x="442.2" y="110" class="value">98.52</text>
<text x="10" y="142" class="label">store.akamai.steamstatic.com</text>
<rect x="180" y="126" width="317.7" height="22" fill="#4c78a8" rx="3"/>
<text x="505.7" y="142" class="value">123.13</text>
<text x="10" y="174" class="label">blizzard.com</text>
<rect x="180" y="158" width="327.97" height="22" fill="#4c78a8" rx="3"/>
<text x="515.97" y="174" class="value">127.11</text>
<text x="10" y="206" class="label">battle.net</text>
<rect x="180" y="190" width="356.76" height="22" fill="#4c78a8" rx="3"/>
<text x="544.76" y="206" class="value">138.27</text>
<text x="10" y="238" class="label">ea.com</text>
<rect x="180" y="222" width="365.56" height="22" fill="#4c78a8" rx="3"/>
<text x="553.56" y="238" class="value">141.68</text>
<text x="10" y="270" class="label">socialclub.rockstargames.com</text>
<rect x="180" y="254" width="368.35" height="22" fill="#4c78a8" rx="3"/>
<text x="556.35" y="270" class="value">142.76</text>
<text x="10" y="302" class="label">community.akamai.steamstatic.com</text>
<rect x="180" y="286" width="388.47" height="22" fill="#4c78a8" rx="3"/>
<text x="576.47" y="302" class="value">150.56</text>
<text x="10" y="334" class="label">origin.com</text>
<rect x="180" y="318" width="391.16" height="22" fill="#4c78a8" rx="3"/>
<text x="579.1600000000001" y="334" class="value">151.60</text>
<text x="10" y="366" class="label">ubi.com</text>
<rect x="180" y="350" width="443.17" height="22" fill="#4c78a8" rx="3"/>
<text x="631.1700000000001" y="366" class="value">171.76</text>
<text x="10" y="398" class="label">ubisoft.com</text>
<rect x="180" y="382" width="496.3" height="22" fill="#4c78a8" rx="3"/>
<text x="684.3" y="398" class="value">192.35</text>
<text x="10" y="430" class="label">cdn.akamai.steamstatic.com</text>
<rect x="180" y="414" width="535.59" height="22" fill="#4c78a8" rx="3"/>
<text x="723.59" y="430" class="value">207.58</text>
<text x="10" y="462" class="label">fortnite.com</text>
<rect x="180" y="446" width="563.9" height="22" fill="#4c78a8" rx="3"/>
<text x="751.9" y="462" class="value">218.55</text>
<text x="10" y="494" class="label">easyanticheat.net</text>
<rect x="180" y="478" width="580.0" height="22" fill="#4c78a8" rx="3"/>
<text x="768.0" y="494" class="value">224.79</text>
<line x1="180" y1="30" x2="180" y2="520" stroke="#ccc"/>
<line x1="180" y1="520" x2="760" y2="520" stroke="#ccc"/>
</svg>