<svg xmlns="http://www.w3.org/2000/svg" width="800" height="540">
<style> .label{font-family:DejaVu Sans,Verdana,Geneva,sans-serif;font-size:12px;fill:#333} .value{font-family:DejaVu Sans,Verdana,Geneva,sans-serif;font-size:12px;fill:#555} </style>
<text x="10" y="20" class="label">延迟柱状图（越低越好，Top 15），单位 ms</text>
<text x="10" y="46" class="label">eaassets-a.akamaihd.net</text>
<rect x="180" y="30" width="248.97" height="22" fill="#4c78a8" rx="3"/>
<text x="436.97" y="46" class="value">118.33</text>
<text x="10" y="78" class="label">origin.com</text>
<rect x="180" y="62" width="283.33" height="22" fill="#4c78a8" rx="3"/>
<text x="471.33" y="78" class="value">134.66</text>
<text x="10" y="110" class="label">cdn.akamai.steamstatic.com</text>
<rect x="180" y="94" width="285.79" height="22" fill="#4c78a8" rx="3"/>
<text x="473.79" y="110" class="value">135.83</text>
<text x="10" y="142" class="label">store.akamai.steamstatic.com</text>
<rect x="180" y="126" width="315.71" height="22" fill="#4c78a8" rx="3"/>
<text x="503.71" y="142" class="value">150.05</text>
<text x="10" y="174" class="label">ea.com</text>
<rect x="180" y="158" width="355.06" height="22" fill="#4c78a8" rx="3"/>
<text x="543.06" y="174" class="value">168.75</text>
<text x="10" y="206" class="label">ubisoft.com</text>
<rect x="180" y="190" width="372.14" height="22" fill="#4c78a8" rx="3"/>
<text x="560.14" y="206" class="value">176.87</text>
<text x="10" y="238" class="label">easyanticheat.net</text>
<rect x="180" y="222" width="378.77" height="22" fill="#4c78a8" rx="3"/>
<text x="566.77" y="238" class="value">180.02</text>
<text x="10" y="270" class="label">community.akamai.steamstatic.com</text>
<rect x="180" y="254" width="400.5" height="22" fill="#4c78a8" rx="3"/>
<text x="588.5" y="270" class="value">190.35</text>
<text x="10" y="302" class="label">steamcdn-a.akamaihd.net</text>
<rect x="180" y="286" width="417.97" height="22" fill="#4c78a8" rx="3"/>
<text x="605.97" y="302" class="value">198.65</text>
<text x="10" y="334" class="label">rockstargames.com</text>
<rect x="180" y="318" width="417.99" height="22" fill="#4c78a8" rx="3"/>
<text x="605.99" y="334" class="value">198.66</text>
<text x="10" y="366" class="label">ubi.com</text>
<rect x="180" y="350" width="465.06" height="22" fill="#4c78a8" rx="3"/>
<text x="653.06" y="366" class="value">221.03</text>
<text x="10" y="398" class="label">cdn.cloudflare.steamstatic.com</text>
<rect x="180" y="382" width="500.47" height="22" fill="#4c78a8" rx="3"/>
<text x="688.47" y="398" class="value">237.86</text>
<text x="10" y="430" class="label">www.steamcommunity.com</text>
<rect x="180" y="414" width="522.98" height="22" fill="#4c78a8" rx="3"/>
<text x="710.98" y="430" class="value">248.56</text>
<text x="10" y="462" class="label">api.steampowered.com</text>
<rect x="180" y="446" width="541.52" height="22" fill="#4c78a8" rx="3"/>
<text x="729.52" y="462" class="value">257.37</text>
<text x="10" y="494" class="label">steamcommunity.com</text>
<rect x="180" y="478" width="580.0" height="22" fill="#4c78a8" rx="3"/>
<text x="768.0" y="494" class="value">275.66</text>
<line x1="180" y1="30" x2="180" y2="520" stroke="#ccc"/>
<line x1="180" y1="520" x2="760" y2="520" stroke="#ccc"/>
</svg>