<svg xmlns="http://www.w3.org/2000/svg" width="800" height="540">
<style> .label{font-family:DejaVu Sans,Verdana,Geneva,sans-serif;font-size:12px;fill:#333} .value{font-family:DejaVu Sans,Verdana,Geneva,sans-serif;font-size:12px;fill:#555} </style>
<text x="10" y="20" class="label">延迟柱状图（越低越好，Top 15），单位 ms</text>
<text x="10" y="46" class="label">rockstargames.com</text>
<rect x="180" y="30" width="237.64" height="22" fill="#4c78a8" rx="3"/>
<text x="425.64" y="46" class="value">110.58</text>
<text x="10" y="78" class="label">ea.com</text>
<rect x="180" y="62" width="271.66" height="22" fill="#4c78a8" rx="3"/>
<text x="459.66" y="78" class="value">126.41</text>
<text x="10" y="110" class="label">eaassets-a.akamaihd.net</text>
<rect x="180" y="94" width="320.42" height="22" fill="#4c78a8" rx="3"/>
<text x="508.42" y="110" class="value">149.10</text>
<text x="10" y="142" class="label">community.akamai.steamstatic.com</text>
<rect x="180" y="126" width="379.69" height="22" fill="#4c78a8" rx="3"/>
<text x="567.69" y="142" class="value">176.68</text>
<text x="10" y="174" class="label">easyanticheat.net</text>
<rect x="180" y="158" width="390.28" height="22" fill="#4c78a8" rx="3"/>
<text x="578.28" y="174" class="value">181.61</text>
<text x="10" y="206" class="label">store.akamai.steamstatic.com</text>
<rect x="180" y="190" width="408.12" height="22" fill="#4c78a8" rx="3"/>
<text x="596.12" y="206" class="value">189.91</text>
<text x="10" y="238" class="label">blizzard.com</text>
<rect x="180" y="222" width="411.15" height="22" fill="#4c78a8" rx="3"/>
<text x="599.15" y="238" class="value">191.32</text>
<text x="10" y="270" class="label">steamcdn-a.akamaihd.net</text>
<rect x="180" y="254" width="437.15" height="22" fill="#4c78a8" rx="3"/>
<text x="625.15" y="270" class="value">203.42</text>
<text x="10" y="302" class="label">cdn.akamai.steamstatic.com</text>
<rect x="180" y="286" width="500.16" height="22" fill="#4c78a8" rx="3"/>
<text x="688.1600000000001" y="302" class="value">232.74</text>
<text x="10" y="334" class="label">ubi.com</text>
<rect x="180" y="318" width="511.92" height="22" fill="#4c78a8" rx="3"/>
<text x="699.9200000000001" y="334" class="value">238.21</text>
<text x="10" y="366" class="label">socialclub.rockstargames.com</text>
<rect x="180" y="350" width="514.43" height="22" fill="#4c78a8" rx="3"/>
<text x="702.43" y="366" class="value">239.38</text>
<text x="10" y="398" class="label">steam-chat.com</text>
<rect x="180" y="382" width="561.35" height="22" fill="#4c78a8" rx="3"/>
<text x="749.35" y="398" class="value">261.21</text>
<text x="10" y="430" class="label">launcher-public-service-prod06.ol.epicgames.com</text>
<rect x="180" y="414" width="563.88" height="22" fill="#4c78a8" rx="3"/>
<text x="751.88" y="430" class="value">262.39</text>
<text x="10" y="462" class="label">fortnite.com</text>
<rect x="180" y="446" width="578.19" height="22" fill="#4c78a8" rx="3"/>
<text x="766.19" y="462" class="value">269.05</text>
<text x="10" y="494" class="label">ubisoft.com</text>
<rect x="180" y="478" width="580.0" height="22" fill="#4c78a8" rx="3"/>
<text x="768.0" y="494" class="value">269.89</text>
<line x1="180" y1="30" x2="180" y2="520" stroke="#ccc"/>
<line x1="180" y1="520" x2="760" y2="520" stroke="#ccc"/>
</svg>