<svg xmlns="http://www.w3.org/2000/svg" width="800" height="540">
<style> .label{font-family:DejaVu Sans,Verdana,Geneva,sans-serif;font-size:12px;fill:#333} .value{font-family:DejaVu Sans,Verdana,Geneva,sans-serif;font-size:12px;fill:#555} </style>
<text x="10" y="20" class="label">延迟柱状图（越低越好，Top 15），单位 ms</text>
<text x="10" y="46" class="label">rockstargames.com</text>
<rect x="180" y="30" width="121.75" height="22" fill="#4c78a8" rx="3"/>
<text x="309.75" y="46" class="value">62.64</text>
<text x="10" y="78" class="label">store.akamai.steamstatic.com</text>
<rect x="180" y="62" width="211.71" height="22" fill="#4c78a8" rx="3"/>
<text x="399.71000000000004" y="78" class="value">108.92</text>
<text x="10" y="110" class="label">ubisoft.com</text>
<rect x="180" y="94" width="215.77" height="22" fill="#4c78a8" rx="3"/>
<text x="403.77" y="110" class="value">111.01</text>
<text x="10" y="142" class="label">origin.com</text>
<rect x="180" y="126" width="240.69" height="22" fill="#4c78a8" rx="3"/>
<text x="428.69" y="142" class="value">123.83</text>
<text x="10" y="174" class="label">community.akamai.steamstatic.com</text>
<rect x="180" y="158" width="240.94" height="22" fill="#4c78a8" rx="3"/>
<text x="428.94" y="174" class="value">123.96</text>
<text x="10" y="206" class="label">eaassets-a.akamaihd.net</text>
<rect x="180" y="190" width="253.42" height="22" fill="#4c78a8" rx="3"/>
<text x="441.41999999999996" y="206" class="value">130.38</text>
<text x="10" y="238" class="label">cdn.cloudflare.steamstatic.com</text>
<rect x="180" y="222" width="257.5" height="22" fill="#4c78a8" rx="3"/>
<text x="445.5" y="238" class="value">132.48</text>
<text x="10" y="270" class="label">steamcdn-a.akamaihd.net</text>
<rect x="180" y="254" width="274.61" height="22" fill="#4c78a8" rx="3"/>
<text x="462.61" y="270" class="value">141.28</text>
<text x="10" y="302" class="label">ea.com</text>
<rect x="180" y="286" width="310.8" height="22" fill="#4c78a8" rx="3"/>
<text x="498.8" y="302" class="value">159.90</text>
<text x="10" y="334" class="label">easyanticheat.net</text>
<rect x="180" y="318" width="329.59" height="22" fill="#4c78a8" rx="3"/>
<text x="517.5899999999999" y="334" class="value">169.57</text>
<text x="10" y="366" class="label">cdn.akamai.steamstatic.com</text>
<rect x="180" y="350" width="384.23" height="22" fill="#4c78a8" rx="3"/>
<text x="572.23" y="366" class="value">197.68</text>
<text x="10" y="398" class="label">www.steamcommunity.com</text>
<rect x="180" y="382" width="390.53" height="22" fill="#4c78a8" rx="3"/>
<text x="578.53" y="398" class="value">200.92</text>
<text x="10" y="430" class="label">launcher-public-service-prod06.ol.epicgames.com</text>
<rect x="180" y="414" width="429.65" height="22" fill="#4c78a8" rx="3"/>
<text x="617.65" y="430" class="value">221.05</text>
<text x="10" y="462" class="label">ubi.com</text>
<rect x="180" y="446" width="483.4" height="22" fill="#4c78a8" rx="3"/>
<text x="671.4" y="462" class="value">248.70</text>
<text x="10" y="494" class="label">api.steampowered.com</text>
<rect x="180" y="478" width="580.0" height="22" fill="#4c78a8" rx="3"/>
<text x="768.0" y="494" class="value">298.40</text>
<line x1="180" y1="30" x2="180" y2="520" stroke="#ccc"/>
<line x1="180" y1="520" x2="760" y2="520" stroke="#ccc"/>
</svg>