<svg xmlns="http://www.w3.org/2000/svg" width="800" height="540">
<style> .label{font-family:DejaVu Sans,Verdana,Geneva,sans-serif;font-size:12px;fill:#333} .value{font-family:DejaVu Sans,Verdana,Geneva,sans-serif;font-size:12px;fill:#555} </style>
<text x="10" y="20" class="label">延迟柱状图（越低越好，Top 15），单位 ms</text>
<text x="10" y="46" class="label">community.akamai.steamstatic.com</text>
<rect x="180" y="30" width="201.88" height="22" fill="#4c78a8" rx="3"/>
<text x="389.88" y="46" class="value">83.87</text>
<text x="10" y="78" class="label">store.akamai.steamstatic.com</text>
<rect x="180" y="62" width="205.37" height="22" fill="#4c78a8" rx="3"/>
<text x="393.37" y="78" class="value">85.32</text>
<text x="10" y="110" class="label">eaassets-a.akamaihd.net</text>
<rect x="180" y="94" width="253.56" height="22" fill="#4c78a8" rx="3"/>
<text x="441.56" y="110" class="value">105.34</text>
<text x="10" y="142" class="label">ea.com</text>
<rect x="180" y="126" width="259.7" height="22" fill="#4c78a8" rx="3"/>
<text x="447.7" y="142" class="value">107.89</text>
<text x="10" y="174" class="label">cdn.cloudflare.steamstatic.com</text>
<rect x="180" y="158" width="278.28" height="22" fill="#4c78a8" rx="3"/>
<text x="466.28" y="174" class="value">115.61</text>
<text x="10" y="206" class="label">rockstargames.com</text>
<rect x="180" y="190" width="319.53" height="22" fill="#4c78a8" rx="3"/>
<text x="507.53" y="206" class="value">132.75</text>
<text x="10" y="238" class="label">origin.com</text>
<rect x="180" y="222" width="325.99" height="22" fill="#4c78a8" rx="3"/>
<text x="513.99" y="238" class="value">135.43</text>
<text x="10" y="270" class="label">blizzard.com</text>
<rect x="180" y="254" width="400.29" height="22" fill="#4c78a8" rx="3"/>
<text x="588.29" y="270" class="value">166.30</text>
<text x="10" y="302" class="label">ubi.com</text>
<rect x="180" y="286" width="408.93" height="22" fill="#4c78a8" rx="3"/>
<text x="596.9300000000001" y="302" class="value">169.89</text>
<text x="10" y="334" class="label">battle.net</text>
<rect x="180" y="318" width="416.63" height="22" fill="#4c78a8" rx="3"/>
<text x="604.63" y="334" class="value">173.09</text>
<text x="10" y="366" class="label">ubisoft.com</text>
<rect x="180" y="350" width="456.35" height="22" fill="#4c78a8" rx="3"/>
<text x="644.35" y="366" class="value">189.59</text>
<text x="10" y="398" class="label">fortnite.com</text>
<rect x="180" y="382" width="514.91" height="22" fill="#4c78a8" rx="3"/>
<text x="702.91" y="398" class="value">213.92</text>
<text x="10" y="430" class="label">socialclub.rockstargames.com</text>
<rect x="180" y="414" width="547.77" height="22" fill="#4c78a8" rx="3"/>
<text x="735.77" y="430" class="value">227.57</text>
<text x="10" y="462" class="label">steamcdn-a.akamaihd.net</text>
<rect x="180" y="446" width="567.03" height="22" fill="#4c78a8" rx="3"/>
<text x="755.03" y="462" class="value">235.57</text>
<text x="10" y="494" class="label">steamcommunity.com</text>
<rect x="180" y="478" width="580.0" height="22" fill="#4c78a8" rx="3"/>
<text x="768.0" y="494" class="value">240.96</text>
<line x1="180" y1="30" x2="180" y2="520" stroke="#ccc"/>
<line x1="180" y1="520" x2="760" y2="520" stroke="#ccc"/>
</svg>