<svg xmlns="http://www.w3.org/2000/svg" width="800" height="540">
<style> .label{font-family:DejaVu Sans,Verdana,Geneva,sans-serif;font-size:12px;fill:#333} .value{font-family:DejaVu Sans,Verdana,Geneva,sans-serif;font-size:12px;fill:#555} </style>
<text x="10" y="20" class="label">延迟柱状图（越低越好，Top 15），单位 ms</text>
<text x="10" y="46" class="label">rockstargames.com</text>
<rect x="180" y="30" width="97.55" height="22" fill="#4c78a8" rx="3"/>
<text x="285.55" y="46" class="value">37.77</text>
<text x="10" y="78" class="label">socialclub.rockstargames.com</text>
<rect x="180" y="62" width="184.38" height="22" fill="#4c78a8" rx="3"/>
<text x="372.38" y="78" class="value">71.39</text>
<text x="10" y="110" class="label">ea.com</text>
<rect x="180" y="94" width="202.38" height="22" fill="#4c78a8" rx="3"/>
<text x="390.38" y="110" class="value">78.36</text>
<text x="10" y="142" class="label">battle.net</text>
<rect x="180" y="126" width="207.0" height="22" fill="#4c78a8" rx="3"/>
<text x="395.0" y="142" class="value">80.15</text>
<text x="10" y="174" class="label">ubi.com</text>
<rect x="180" y="158" width="232.19" height="22" fill="#4c78a8" rx="3"/>
<text x="420.19" y="174" class="value">89.90</text>
<text x="10" y="206" class="label">eaassets-a.akamaihd.net</text>
<rect x="180" y="190" width="232.26" height="22" fill="#4c78a8" rx="3"/>
<text x="420.26" y="206" class="value">89.93</text>
<text x="10" y="238" class="label">blizzard.com</text>
<rect x="180" y="222" width="285.03" height="22" fill="#4c78a8" rx="3"/>
<text x="473.03" y="238" class="value">110.36</text>
<text x="10" y="270" class="label">ubisoft.com</text>
<rect x="180" y="254" width="325.5" height="22" fill="#4c78a8" rx="3"/>
<text x="513.5" y="270" class="value">126.03</text>
<text x="10" y="302" class="label">cdn.akamai.steamstatic.com</text>
<rect x="180" y="286" width="446.76" height="22" fill="#4c78a8" rx="3"/>
<text x="634.76" y="302" class="value">172.98</text>
<text x="10" y="334" class="label">cdn.cloudflare.steamstatic.com</text>
<rect x="180" y="318" width="453.03" height="22" fill="#4c78a8" rx="3"/>
<text x="641.03" y="334" class="value">175.41</text>
<text x="10" y="366" class="label">store.akamai.steamstatic.com</text>
<rect x="180" y="350" width="456.83" height="22" fill="#4c78a8" rx="3"/>
<text x="644.8299999999999" y="366" class="value">176.88</text>
<text x="10" y="398" class="label">origin.com</text>
<rect x="180" y="382" width="459.52" height="22" fill="#4c78a8" rx="3"/>
<text x="647.52" y="398" class="value">177.92</text>
<text x="10" y="430" class="label">fortnite.com</text>
<rect x="180" y="414" width="485.81" height="22" fill="#4c78a8" rx="3"/>
<text x="673.81" y="430" class="value">188.10</text>
<text x="10" y="462" class="label">epicgames.com</text>
<rect x="180" y="446" width="497.79" height="22" fill="#4c78a8" rx="3"/>
<text x="685.79" y="462" class="value">192.74</text>
<text x="10" y="494" class="label">community.akamai.steamstatic.com</text>
<rect x="180" y="478" width="580.0" height="22" fill="#4c78a8" rx="3"/>
<text x="768.0" y="494" class="value">224.57</text>
<line x1="180" y1="30" x2="180" y2="520" stroke="#ccc"/>
<line x1="180" y1="520" x2="760" y2="520" stroke="#ccc"/>
</svg>