<svg xmlns="http://www.w3.org/2000/svg" width="800" height="540">
<style> .label{font-family:DejaVu Sans,Verdana,Geneva,sans-serif;font-size:12px;fill:#333} .value{font-family:DejaVu Sans,Verdana,Geneva,sans-serif;font-size:12px;fill:#555} </style>
<text x="10" y="20" class="label">延迟柱状图（越低越好，Top 15），单位 ms</text>
<text x="10" y="46" class="label">community.akamai.steamstatic.com</text>
<rect x="180" y="30" width="294.83" height="22" fill="#4c78a8" rx="3"/>
<text x="482.83" y="46" class="value">119.05</text>
<text x="10" y="78" class="label">cdn.cloudflare.steamstatic.com</text>
<rect x="180" y="62" width="333.22" height="22" fill="#4c78a8" rx="3"/>
<text x="521.22" y="78" class="value">134.55</text>
<text x="10" y="110" class="label">store.akamai.steamstatic.com</text>
<rect x="180" y="94" width="358.05" height="22" fill="#4c78a8" rx="3"/>
<text x="546.05" y="110" class="value">144.58</text>
<text x="10" y="142" class="label">ubisoft.com</text>
<rect x="180" y="126" width="362.39" height="22" fill="#4c78a8" rx="3"/>
<text x="550.39" y="142" class="value">146.33</text>
<text x="10" y="174" class="label">easyanticheat.net</text>
<rect x="180" y="158" width="398.05" height="22" fill="#4c78a8" rx="3"/>
<text x="586.05" y="174" class="value">160.73</text>
<text x="10" y="206" class="label">eaassets-a.akamaihd.net</text>
<rect x="180" y="190" width="424.82" height="22" fill="#4c78a8" rx="3"/>
<text x="612.8199999999999" y="206" class="value">171.54</text>
<text x="10" y="238" class="label">rockstargames.com</text>
<rect x="180" y="222" width="462.84" height="22" fill="#4c78a8" rx="3"/>
<text x="650.8399999999999" y="238" class="value">186.89</text>
<text x="10" y="270" class="label">launcher-public-service-prod06.ol.epicgames.com</text>
<rect x="180" y="254" width="493.0" height="22" fill="#4c78a8" rx="3"/>
<text x="681.0" y="270" class="value">199.07</text>
<text x="10" y="302" class="label">steamcdn-a.akamaihd.net</text>
<rect x="180" y="286" width="540.57" height="22" fill="#4c78a8" rx="3"/>
<text x="728.57" y="302" class="value">218.28</text>
<text x="10" y="334" class="label">blizzard.com</text>
<rect x="180" y="318" width="544.24" height="22" fill="#4c78a8" rx="3"/>
<text x="732.24" y="334" class="value">219.76</text>
<text x="10" y="366" class="label">api.steampowered.com</text>
<rect x="180" y="350" width="545.73" height="22" fill="#4c78a8" rx="3"/>
<text x="733.73" y="366" class="value">220.36</text>
<text x="10" y="398" class="label">battle.net</text>
<rect x="180" y="382" width="554.76" height="22" fill="#4c78a8" rx="3"/>
<text x="742.76" y="398" class="value">224.01</text>
<text x="10" y="430" class="label">cdn.akamai.steamstatic.com</text>
<rect x="180" y="414" width="571.31" height="22" fill="#4c78a8" rx="3"/>
<text x="759.31" y="430" class="value">230.69</text>
<text x="10" y="462" class="label">ubi.com</text>
<rect x="180" y="446" width="578.24" height="22" fill="#4c78a8" rx="3"/>
<text x="766.24" y="462" class="value">233.49</text>
<text x="10" y="494" class="label">steam-chat.com</text>
<rect x="180" y="478" width="580.0" height="22" fill="#4c78a8" rx="3"/>
<text x="768.0" y="494" class="value">234.20</text>
<line x1="180" y1="30" x2="180" y2="520" stroke="#ccc"/>
<line x1="180" y1="520" x2="760" y2="520" stroke="#ccc"/>
</svg>