<svg xmlns="http://www.w3.org/2000/svg" width="800" height="540">
<style> .label{font-family:DejaVu Sans,Verdana,Geneva,sans-serif;font-size:12px;fill:#333} .value{font-family:DejaVu Sans,Verdana,Geneva,sans-serif;font-size:12px;fill:#555} </style>
<text x="10" y="20" class="label">延迟柱状图（越低越好，Top 15），单位 ms</text>
<text x="10" y="46" class="label">eaassets-a.akamaihd.net</text>
<rect x="180" y="30" width="241.52" height="22" fill="#4c78a8" rx="3"/>
<text x="429.52" y="46" class="value">88.45</text>
<text x="10" y="78" class="label">ubi.com</text>
<rect x="180" y="62" width="258.78" height="22" fill="#4c78a8" rx="3"/>
<text x="446.78" y="78" class="value">94.77</text>
<text x="10" y="110" class="label">battle.net</text>
<rect x="180" y="94" width="269.62" height="22" fill="#4c78a8" rx="3"/>
<text x="457.62" y="110" class="value">98.74</text>
<text x="10" y="142" class="label">rockstargames.com</text>
<rect x="180" y="126" width="273.68" height="22" fill="#4c78a8" rx="3"/>
<text x="461.68" y="142" class="value">100.23</text>
<text x="10" y="174" class="label">socialclub.rockstargames.com</text>
<rect x="180" y="158" width="281.0" height="22" fill="#4c78a8" rx="3"/>
<text x="469.0" y="174" class="value">102.91</text>
<text x="10" y="206" class="label">blizzard.com</text>
<rect x="180" y="190" width="303.01" height="22" fill="#4c78a8" rx="3"/>
<text x="491.01" y="206" class="value">110.97</text>
<text x="10" y="238" class="label">steamcdn-a.akamaihd.net</text>
<rect x="180" y="222" width="307.46" height="22" fill="#4c78a8" rx="3"/>
<text x="495.46" y="238" class="value">112.60</text>
<text x="10" y="270" class="label">ea.com</text>
<rect x="180" y="254" width="310.63" height="22" fill="#4c78a8" rx="3"/>
<text x="498.63" y="270" class="value">113.76</text>
<text x="10" y="302" class="label">ubisoft.com</text>
<rect x="180" y="286" width="341.05" height="22" fill="#4c78a8" rx="3"/>
<text x="529.05" y="302" class="value">124.90</text>
<text x="10" y="334" class="label">fortnite.com</text>
<rect x="180" y="318" width="368.27" height="22" fill="#4c78a8" rx="3"/>
<text x="556.27" y="334" class="value">134.87</text>
<text x="10" y="366" class="label">static3.cdn.ubi.com</text>
<rect x="180" y="350" width="421.52" height="22" fill="#4c78a8" rx="3"/>
<text x="609.52" y="366" class="value">154.37</text>
<text x="10" y="398" class="label">unrealengine.com</text>
<rect x="180" y="382" width="460.48" height="22" fill="#4c78a8" rx="3"/>
<text x="648.48" y="398" class="value">168.64</text>
<text x="10" y="430" class="label">epicgames.com</text>
<rect x="180" y="414" width="504.36" height="22" fill="#4c78a8" rx="3"/>
<text x="692.36" y="430" class="value">184.71</text>
<text x="10" y="462" class="label">cdn.cloudflare.steamstatic.com</text>
<rect x="180" y="446" width="510.07" height="22" fill="#4c78a8" rx="3"/>
<text x="698.0699999999999" y="462" class="value">186.80</text>
<text x="10" y="494" class="label">cdn.akamai.steamstatic.com</text>
<rect x="180" y="478" width="580.0" height="22" fill="#4c78a8" rx="3"/>
<text x="768.0" y="494" class="value">212.41</text>
<line x1="180" y1="30" x2="180" y2="520" stroke="#ccc"/>
<line x1="180" y1="520" x2="760" y2="520" stroke="#ccc"/>
</svg>