<svg xmlns="http://www.w3.org/2000/svg" width="800" height="540">
<style> .label{font-family:DejaVu Sans,Verdana,Geneva,sans-serif;font-size:12px;fill:#333} .value{font-family:DejaVu Sans,Verdana,Geneva,sans-serif;font-size:12px;fill:#555} </style>
<text x="10" y="20" class="label">延迟柱状图（越低越好，Top 15），单位 ms</text>
<text x="10" y="46" class="label">community.akamai.steamstatic.com</text>
<rect x="180" y="30" width="251.98" height="22" fill="#4c78a8" rx="3"/>
<text x="439.98" y="46" class="value">115.49</text>
<text x="10" y="78" class="label">steamcdn-a.akamaihd.net</text>
<rect x="180" y="62" width="273.95" height="22" fill="#4c78a8" rx="3"/>
<text x="461.95" y="78" class="value">125.56</text>
<text x="10" y="110" class="label">eaassets-a.akamaihd.net</text>
<rect x="180" y="94" width="286.17" height="22" fill="#4c78a8" rx="3"/>
<text x="474.17" y="110" class="value">131.16</text>
<text x="10" y="142" class="label">ubisoft.com</text>
<rect x="180" y="126" width="289.95" height="22" fill="#4c78a8" rx="3"/>
<text x="477.95" y="142" class="value">132.89</text>
<text x="10" y="174" class="label">ea.com</text>
<rect x="180" y="158" width="293.61" height="22" fill="#4c78a8" rx="3"/>
<text x="481.61" y="174" class="value">134.57</text>
<text x="10" y="206" class="label">easyanticheat.net</text>
<rect x="180" y="190" width="410.69" height="22" fill="#4c78a8" rx="3"/>
<text x="598.69" y="206" class="value">188.23</text>
<text x="10" y="238" class="label">battle.net</text>
<rect x="180" y="222" width="424.91" height="22" fill="#4c78a8" rx="3"/>
<text x="612.9100000000001" y="238" class="value">194.75</text>
<text x="10" y="270" class="label">rockstargames.com</text>
<rect x="180" y="254" width="429.74" height="22" fill="#4c78a8" rx="3"/>
<text x="617.74" y="270" class="value">196.96</text>
<text x="10" y="302" class="label">www.steamcommunity.com</text>
<rect x="180" y="286" width="476.95" height="22" fill="#4c78a8" rx="3"/>
<text x="664.95" y="302" class="value">218.60</text>
<text x="10" y="334" class="label">steam-chat.com</text>
<rect x="180" y="318" width="480.31" height="22" fill="#4c78a8" rx="3"/>
<text x="668.31" y="334" class="value">220.14</text>
<text x="10" y="366" class="label">ubi.com</text>
<rect x="180" y="350" width="496.37" height="22" fill="#4c78a8" rx="3"/>
<text x="684.37" y="366" class="value">227.50</text>
<text x="10" y="398" class="label">origin.com</text>
<rect x="180" y="382" width="511.21" height="22" fill="#4c78a8" rx="3"/>
<text x="699.21" y="398" class="value">234.30</text>
<text x="10" y="430" class="label">store.akamai.steamstatic.com</text>
<rect x="180" y="414" width="543.32" height="22" fill="#4c78a8" rx="3"/>
<text x="731.32" y="430" class="value">249.02</text>
<text x="10" y="462" class="label">cdn.cloudflare.steamstatic.com</text>
<rect x="180" y="446" width="560.52" height="22" fill="#4c78a8" rx="3"/>
<text x="748.52" y="462" class="value">256.90</text>
<text x="10" y="494" class="label">launcher-public-service-prod06.ol.epicgames.com</text>
<rect x="180" y="478" width="580.0" height="22" fill="#4c78a8" rx="3"/>
<text x="768.0" y="494" class="value">265.83</text>
<line x1="180" y1="30" x2="180" y2="520" stroke="#ccc"/>
<line x1="180" y1="520" x2="760" y2="520" stroke="#ccc"/>
</svg>