<svg xmlns="http://www.w3.org/2000/svg" width="800" height="540">
<style> .label{font-family:DejaVu Sans,Verdana,Geneva,sans-serif;font-size:12px;fill:#333} .value{font-family:DejaVu Sans,Verdana,Geneva,sans-serif;font-size:12px;fill:#555} </style>
<text x="10" y="20" class="label">延迟柱状图（越低越好，Top 15），单位 ms</text>
<text x="10" y="46" class="label">fortnite.com</text>
<rect x="180" y="30" width="191.32" height="22" fill="#4c78a8" rx="3"/>
<text x="379.32" y="46" class="value">81.89</text>
<text x="10" y="78" class="label">rockstargames.com</text>
<rect x="180" y="62" width="196.85" height="22" fill="#4c78a8" rx="3"/>
<text x="384.85" y="78" class="value">84.26</text>
<text x="10" y="110" class="label">ubi.com</text>
<rect x="180" y="94" width="210.38" height="22" fill="#4c78a8" rx="3"/>
<text x="398.38" y="110" class="value">90.05</text>
<text x="10" y="142" class="label">socialclub.rockstargames.com</text>
<rect x="180" y="126" width="219.56" height="22" fill="#4c78a8" rx="3"/>
<text x="407.56" y="142" class="value">93.98</text>
<text x="10" y="174" class="label">blizzard.com</text>
<rect x="180" y="158" width="247.18" height="22" fill="#4c78a8" rx="3"/>
<text x="435.18" y="174" class="value">105.80</text>
<text x="10" y="206" class="label">ubisoft.com</text>
<rect x="180" y="190" width="297.31" height="22" fill="#4c78a8" rx="3"/>
<text x="485.31" y="206" class="value">127.26</text>
<text x="10" y="238" class="label">battle.net</text>
<rect x="180" y="222" width="300.09" height="22" fill="#4c78a8" rx="3"/>
<text x="488.09" y="238" class="value">128.45</text>
<text x="10" y="270" class="label">unrealengine.com</text>
<rect x="180" y="254" width="335.11" height="22" fill="#4c78a8" rx="3"/>
<text x="523.11" y="270" class="value">143.44</text>
<text x="10" y="302" class="label">ea.com</text>
<rect x="180" y="286" width="342.89" height="22" fill="#4c78a8" rx="3"/>
<text x="530.89" y="302" class="value">146.77</text>
<text x="10" y="334" class="label">epicgames.com</text>
<rect x="180" y="318" width="346.42" height="22" fill="#4c78a8" rx="3"/>
<text x="534.4200000000001" y="334" class="value">148.28</text>
<text x="10" y="366" class="label">origin.com</text>
<rect x="180" y="350" width="444.71" height="22" fill="#4c78a8" rx="3"/>
<text x="632.71" y="366" class="value">190.35</text>
<text x="10" y="398" class="label">static3.cdn.ubi.com</text>
<rect x="180" y="382" width="461.86" height="22" fill="#4c78a8" rx="3"/>
<text x="649.86" y="398" class="value">197.69</text>
<text x="10" y="430" class="label">community.akamai.steamstatic.com</text>
<rect x="180" y="414" width="552.76" height="22" fill="#4c78a8" rx="3"/>
<text x="740.76" y="430" class="value">236.60</text>
<text x="10" y="462" class="label">cdn.cloudflare.steamstatic.com</text>
<rect x="180" y="446" width="558.48" height="22" fill="#4c78a8" rx="3"/>
<text x="746.48" y="462" class="value">239.05</text>
<text x="10" y="494" class="label">store.akamai.steamstatic.com</text>
<rect x="180" y="478" width="580.0" height="22" fill="#4c78a8" rx="3"/>
<text x="768.0" y="494" class="value">248.26</text>
<line x1="180" y1="30" x2="180" y2="520" stroke="#ccc"/>
<line x1="180" y1="520" x2="760" y2="520" stroke="#ccc"/>
</svg>