<svg xmlns="http://www.w3.org/2000/svg" width="800" height="540">
<style> .label{font-family:DejaVu Sans,Verdana,Geneva,sans-serif;font-size:12px;fill:#333} .value{font-family:DejaVu Sans,Verdana,Geneva,sans-serif;font-size:12px;fill:#555} </style>
<text x="10" y="20" class="label">延迟柱状图（越低越好，Top 15），单位 ms</text>
<text x="10" y="46" class="label">rockstargames.com</text>
<rect x="180" y="30" width="151.91" height="22" fill="#4c78a8" rx="3"/>
<text x="339.90999999999997" y="46" class="value">74.86</text>
<text x="10" y="78" class="label">eaassets-a.akamaihd.net</text>
<rect x="180" y="62" width="158.25" height="22" fill="#4c78a8" rx="3"/>
<text x="346.25" y="78" class="value">77.98</text>
<text x="10" y="110" class="label">cdn.cloudflare.steamstatic.com</text>
<rect x="180" y="94" width="221.76" height="22" fill="#4c78a8" rx="3"/>
<text x="409.76" y="110" class="value">109.28</text>
<text x="10" y="142" class="label">cdn.akamai.steamstatic.com</text>
<rect x="180" y="126" width="261.9" height="22" fill="#4c78a8" rx="3"/>
<text x="449.9" y="142" class="value">129.06</text>
<text x="10" y="174" class="label">store.akamai.steamstatic.com</text>
<rect x="180" y="158" width="282.24" height="22" fill="#4c78a8" rx="3"/>
<text x="470.24" y="174" class="value">139.08</text>
<text x="10" y="206" class="label">steamcdn-a.akamaihd.net</text>
<rect x="180" y="190" width="352.41" height="22" fill="#4c78a8" rx="3"/>
<text x="540.4100000000001" y="206" class="value">173.66</text>
<text x="10" y="238" class="label">easyanticheat.net</text>
<rect x="180" y="222" width="363.07" height="22" fill="#4c78a8" rx="3"/>
<text x="551.0699999999999" y="238" class="value">178.91</text>
<text x="10" y="270" class="label">ea.com</text>
<rect x="180" y="254" width="371.95" height="22" fill="#4c78a8" rx="3"/>
<text x="559.95" y="270" class="value">183.29</text>
<text x="10" y="302" class="label">community.akamai.steamstatic.com</text>
<rect x="180" y="286" width="383.46" height="22" fill="#4c78a8" rx="3"/>
<text x="571.46" y="302" class="value">188.96</text>
<text x="10" y="334" class="label">origin.com</text>
<rect x="180" y="318" width="394.07" height="22" fill="#4c78a8" rx="3"/>
<text x="582.0699999999999" y="334" class="value">194.19</text>
<text x="10" y="366" class="label">api.steampowered.com</text>
<rect x="180" y="350" width="413.62" height="22" fill="#4c78a8" rx="3"/>
<text x="601.62" y="366" class="value">203.82</text>
<text x="10" y="398" class="label">steam-chat.com</text>
<rect x="180" y="382" width="452.32" height="22" fill="#4c78a8" rx="3"/>
<text x="640.3199999999999" y="398" class="value">222.89</text>
<text x="10" y="430" class="label">ubi.com</text>
<rect x="180" y="414" width="476.38" height="22" fill="#4c78a8" rx="3"/>
<text x="664.38" y="430" class="value">234.75</text>
<text x="10" y="462" class="label">ubisoft.com</text>
<rect x="180" y="446" width="498.91" height="22" fill="#4c78a8" rx="3"/>
<text x="686.9100000000001" y="462" class="value">245.85</text>
<text x="10" y="494" class="label">www.steamcommunity.com</text>
<rect x="180" y="478" width="580.0" height="22" fill="#4c78a8" rx="3"/>
<text x="768.0" y="494" class="value">285.81</text>
<line x1="180" y1="30" x2="180" y2="520" stroke="#ccc"/>
<line x1="180" y1="520" x2="760" y2="520" stroke="#ccc"/>
</svg>