<svg xmlns="http://www.w3.org/2000/svg" width="800" height="540">
<style> .label{font-family:DejaVu Sans,Verdana,Geneva,sans-serif;font-size:12px;fill:#333} .value{font-family:DejaVu Sans,Verdana,Geneva,sans-serif;font-size:12px;fill:#555} </style>
<text x="10" y="20" class="label">延迟柱状图（越低越好，Top 15），单位 ms</text>
<text x="10" y="46" class="label">rockstargames.com</text>
<rect x="180" y="30" width="217.2" height="22" fill="#4c78a8" rx="3"/>
<text x="405.2" y="46" class="value">82.26</text>
<text x="10" y="78" class="label">eaassets-a.akamaihd.net</text>
<rect x="180" y="62" width="254.35" height="22" fill="#4c78a8" rx="3"/>
<text x="442.35" y="78" class="value">96.33</text>
<text x="10" y="110" class="label">socialclub.rockstargames.com</text>
<rect x="180" y="94" width="266.76" height="22" fill="#4c78a8" rx="3"/>
<text x="454.76" y="110" class="value">101.03</text>
<text x="10" y="142" class="label">ubisoft.com</text>
<rect x="180" y="126" width="276.98" height="22" fill="#4c78a8" rx="3"/>
<text x="464.98" y="142" class="value">104.90</text>
<text x="10" y="174" class="label">battle.net</text>
<rect x="180" y="158" width="293.78" height="22" fill="#4c78a8" rx="3"/>
<text x="481.78" y="174" class="value">111.26</text>
<text x="10" y="206" class="label">blizzard.com</text>
<rect x="180" y="190" width="312.1" height="22" fill="#4c78a8" rx="3"/>
<text x="500.1" y="206" class="value">118.20</text>
<text x="10" y="238" class="label">fortnite.com</text>
<rect x="180" y="222" width="353.5" height="22" fill="#4c78a8" rx="3"/>
<text x="541.5" y="238" class="value">133.88</text>
<text x="10" y="270" class="label">steamcdn-a.akamaihd.net</text>
<rect x="180" y="254" width="383.79" height="22" fill="#4c78a8" rx="3"/>
<text x="571.79" y="270" class="value">145.35</text>
<text x="10" y="302" class="label">ubi.com</text>
<rect x="180" y="286" width="403.8" height="22" fill="#4c78a8" rx="3"/>
<text x="591.8" y="302" class="value">152.93</text>
<text x="10" y="334" class="label">ea.com</text>
<rect x="180" y="318" width="431.48" height="22" fill="#4c78a8" rx="3"/>
<text x="619.48" y="334" class="value">163.41</text>
<text x="10" y="366" class="label">store.akamai.steamstatic.com</text>
<rect x="180" y="350" width="484.65" height="22" fill="#4c78a8" rx="3"/>
<text x="672.65" y="366" class="value">183.55</text>
<text x="10" y="398" class="label">origin.com</text>
<rect x="180" y="382" width="525.79" height="22" fill="#4c78a8" rx="3"/>
<text x="713.79" y="398" class="value">199.13</text>
<text x="10" y="430" class="label">community.akamai.steamstatic.com</text>
<rect x="180" y="414" width="535.24" height="22" fill="#4c78a8" rx="3"/>
<text x="723.24" y="430" class="value">202.71</text>
<text x="10" y="462" class="label">cdn.cloudflare.steamstatic.com</text>
<rect x="180" y="446" width="556.71" height="22" fill="#4c78a8" rx="3"/>
<text x="744.71" y="462" class="value">210.84</text>
<text x="10" y="494" class="label">steam-chat.com</text>
<rect x="180" y="478" width="580.0" height="22" fill="#4c78a8" rx="3"/>
<text x="768.0" y="494" class="value">219.66</text>
<line x1="180" y1="30" x2="180" y2="520" stroke="#ccc"/>
<line x1="180" y1="520" x2="760" y2="520" stroke="#ccc"/>
</svg>