<svg xmlns="http://www.w3.org/2000/svg" width="800" height="540">
<style> .label{font-family:DejaVu Sans,Verdana,Geneva,sans-serif;font-size:12px;fill:#333} .value{font-family:DejaVu Sans,Verdana,Geneva,sans-serif;font-size:12px;fill:#555} </style>
<text x="10" y="20" class="label">延迟柱状图（越低越好，Top 15），单位 ms</text>
<text x="10" y="46" class="label">rockstargames.com</text>
<rect x="180" y="30" width="140.7" height="22" fill="#4c78a8" rx="3"/>
<text x="328.7" y="46" class="value">53.84</text>
<text x="10" y="78" class="label">socialclub.rockstargames.com</text>
<rect x="180" y="62" width="236.32" height="22" fill="#4c78a8" rx="3"/>
<text x="424.32" y="78" class="value">90.43</text>
<text x="10" y="110" class="label">battle.net</text>
<rect x="180" y="94" width="245.81" height="22" fill="#4c78a8" rx="3"/>
<text x="433.81" y="110" class="value">94.06</text>
<text x="10" y="142" class="label">ubisoft.com</text>
<rect x="180" y="126" width="265.3" height="22" fill="#4c78a8" rx="3"/>
<text x="453.3" y="142" class="value">101.52</text>
<text x="10" y="174" class="label">eaassets-a.akamaihd.net</text>
<rect x="180" y="158" width="300.61" height="22" fill="#4c78a8" rx="3"/>
<text x="488.61" y="174" class="value">115.03</text>
<text x="10" y="206" class="label">blizzard.com</text>
<rect x="180" y="190" width="304.43" height="22" fill="#4c78a8" rx="3"/>
<text x="492.43" y="206" class="value">116.49</text>
<text x="10" y="238" class="label">ubi.com</text>
<rect x="180" y="222" width="379.98" height="22" fill="#4c78a8" rx="3"/>
<text x="567.98" y="238" class="value">145.40</text>
<text x="10" y="270" class="label">epicgames.com</text>
<rect x="180" y="254" width="387.53" height="22" fill="#4c78a8" rx="3"/>
<text x="575.53" y="270" class="value">148.29</text>
<text x="10" y="302" class="label">cdn.akamai.steamstatic.com</text>
<rect x="180" y="286" width="393.2" height="22" fill="#4c78a8" rx="3"/>
<text x="581.2" y="302" class="value">150.46</text>
<text x="10" y="334" class="label">ea.com</text>
<rect x="180" y="318" width="399.65" height="22" fill="#4c78a8" rx="3"/>
<text x="587.65" y="334" class="value">152.93</text>
<text x="10" y="366" class="label">unrealengine.com</text>
<rect x="180" y="350" width="455.08" height="22" fill="#4c78a8" rx="3"/>
<text x="643.0799999999999" y="366" class="value">174.14</text>
<text x="10" y="398" class="label">fortnite.com</text>
<rect x="180" y="382" width="518.77" height="22" fill="#4c78a8" rx="3"/>
<text x="706.77" y="398" class="value">198.51</text>
<text x="10" y="430" class="label">gog.com</text>
<rect x="180" y="414" width="535.7" height="22" fill="#4c78a8" rx="3"/>
<text x="723.7" y="430" class="value">204.99</text>
<text x="10" y="462" class="label">origin.com</text>
<rect x="180" y="446" width="556.09" height="22" fill="#4c78a8" rx="3"/>
<text x="744.09" y="462" class="value">212.79</text>
<text x="10" y="494" class="label">community.akamai.steamstatic.com</text>
<rect x="180" y="478" width="580.0" height="22" fill="#4c78a8" rx="3"/>
<text x="768.0" y="494" class="value">221.94</text>
<line x1="180" y1="30" x2="180" y2="520" stroke="#ccc"/>
<line x1="180" y1="520" x2="760" y2="520" stroke="#ccc"/>
</svg>