<svg xmlns="http://www.w3.org/2000/svg" width="800" height="540">
<style> .label{font-family:DejaVu Sans,Verdana,Geneva,sans-serif;font-size:12px;fill:#333} .value{font-family:DejaVu Sans,Verdana,Geneva,sans-serif;font-size:12px;fill:#555} </style>
<text x="10" y="20" class="label">延迟柱状图（越低越好，Top 15），单位 ms</text>
<text x="10" y="46" class="label">eaassets-a.akamaihd.net</text>
<rect x="180" y="30" width="224.99" height="22" fill="#4c78a8" rx="3"/>
<text x="412.99" y="46" class="value">84.32</text>
<text x="10" y="78" class="label">socialclub.rockstargames.com</text>
<rect x="180" y="62" width="231.66" height="22" fill="#4c78a8" rx="3"/>
<text x="419.65999999999997" y="78" class="value">86.82</text>
<text x="10" y="110" class="label">rockstargames.com</text>
<rect x="180" y="94" width="232.03" height="22" fill="#4c78a8" rx="3"/>
<text x="420.03" y="110" class="value">86.96</text>
<text x="10" y="142" class="label">battle.net</text>
<rect x="180" y="126" width="235.82" height="22" fill="#4c78a8" rx="3"/>
<text x="423.82" y="142" class="value">88.38</text>
<text x="10" y="174" class="label">blizzard.com</text>
<rect x="180" y="158" width="267.44" height="22" fill="#4c78a8" rx="3"/>
<text x="455.44" y="174" class="value">100.23</text>
<text x="10" y="206" class="label">ubi.com</text>
<rect x="180" y="190" width="311.76" height="22" fill="#4c78a8" rx="3"/>
<text x="499.76" y="206" class="value">116.84</text>
<text x="10" y="238" class="label">community.akamai.steamstatic.com</text>
<rect x="180" y="222" width="337.16" height="22" fill="#4c78a8" rx="3"/>
<text x="525.1600000000001" y="238" class="value">126.36</text>
<text x="10" y="270" class="label">ea.com</text>
<rect x="180" y="254" width="338.36" height="22" fill="#4c78a8" rx="3"/>
<text x="526.36" y="270" class="value">126.81</text>
<text x="10" y="302" class="label">unrealengine.com</text>
<rect x="180" y="286" width="423.88" height="22" fill="#4c78a8" rx="3"/>
<text x="611.88" y="302" class="value">158.86</text>
<text x="10" y="334" class="label">ubisoft.com</text>
<rect x="180" y="318" width="425.91" height="22" fill="#4c78a8" rx="3"/>
<text x="613.9100000000001" y="334" class="value">159.62</text>
<text x="10" y="366" class="label">cdn.akamai.steamstatic.com</text>
<rect x="180" y="350" width="453.26" height="22" fill="#4c78a8" rx="3"/>
<text x="641.26" y="366" class="value">169.87</text>
<text x="10" y="398" class="label">steamcdn-a.akamaihd.net</text>
<rect x="180" y="382" width="523.35" height="22" fill="#4c78a8" rx="3"/>
<text x="711.35" y="398" class="value">196.14</text>
<text x="10" y="430" class="label">static3.cdn.ubi.com</text>
<rect x="180" y="414" width="530.61" height="22" fill="#4c78a8" rx="3"/>
<text x="718.61" y="430" class="value">198.86</text>
<text x="10" y="462" class="label">epicgames.com</text>
<rect x="180" y="446" width="563.86" height="22" fill="#4c78a8" rx="3"/>
<text x="751.86" y="462" class="value">211.32</text>
<text x="10" y="494" class="label">origin.com</text>
<rect x="180" y="478" width="580.0" height="22" fill="#4c78a8" rx="3"/>
<text x="768.0" y="494" class="value">217.37</text>
<line x1="180" y1="30" x2="180" y2="520" stroke="#ccc"/>
<line x1="180" y1="520" x2="760" y2="520" stroke="#ccc"/>
</svg>