<svg xmlns="http://www.w3.org/2000/svg" width="800" height="540">
<style> .label{font-family:DejaVu Sans,Verdana,Geneva,sans-serif;font-size:12px;fill:#333} .value{font-family:DejaVu Sans,Verdana,Geneva,sans-serif;font-size:12px;fill:#555} </style>
<text x="10" y="20" class="label">延迟柱状图（越低越好，Top 15），单位 ms</text>
<text x="10" y="46" class="label">rockstargames.com</text>
<rect x="180" y="30" width="149.75" height="22" fill="#4c78a8" rx="3"/>
<text x="337.75" y="46" class="value">57.64</text>
<text x="10" y="78" class="label">eaassets-a.akamaihd.net</text>
<rect x="180" y="62" width="151.07" height="22" fill="#4c78a8" rx="3"/>
<text x="339.07" y="78" class="value">58.15</text>
<text x="10" y="110" class="label">socialclub.rockstargames.com</text>
<rect x="180" y="94" width="208.75" height="22" fill="#4c78a8" rx="3"/>
<text x="396.75" y="110" class="value">80.35</text>
<text x="10" y="142" class="label">blizzard.com</text>
<rect x="180" y="126" width="253.72" height="22" fill="#4c78a8" rx="3"/>
<text x="441.72" y="142" class="value">97.66</text>
<text x="10" y="174" class="label">battle.net</text>
<rect x="180" y="158" width="268.92" height="22" fill="#4c78a8" rx="3"/>
<text x="456.92" y="174" class="value">103.51</text>
<text x="10" y="206" class="label">ubisoft.com</text>
<rect x="180" y="190" width="277.67" height="22" fill="#4c78a8" rx="3"/>
<text x="465.67" y="206" class="value">106.88</text>
<text x="10" y="238" class="label">epicgames.com</text>
<rect x="180" y="222" width="281.75" height="22" fill="#4c78a8" rx="3"/>
<text x="469.75" y="238" class="value">108.45</text>
<text x="10" y="270" class="label">ubi.com</text>
<rect x="180" y="254" width="296.38" height="22" fill="#4c78a8" rx="3"/>
<text x="484.38" y="270" class="value">114.08</text>
<text x="10" y="302" class="label">ea.com</text>
<rect x="180" y="286" width="341.17" height="22" fill="#4c78a8" rx="3"/>
<text x="529.1700000000001" y="302" class="value">131.32</text>
<text x="10" y="334" class="label">cdn.akamai.steamstatic.com</text>
<rect x="180" y="318" width="406.32" height="22" fill="#4c78a8" rx="3"/>
<text x="594.3199999999999" y="334" class="value">156.40</text>
<text x="10" y="366" class="label">fortnite.com</text>
<rect x="180" y="350" width="438.12" height="22" fill="#4c78a8" rx="3"/>
<text x="626.12" y="366" class="value">168.64</text>
<text x="10" y="398" class="label">origin.com</text>
<rect x="180" y="382" width="495.93" height="22" fill="#4c78a8" rx="3"/>
<text x="683.9300000000001" y="398" class="value">190.89</text>
<text x="10" y="430" class="label">unrealengine.com</text>
<rect x="180" y="414" width="536.72" height="22" fill="#4c78a8" rx="3"/>
<text x="724.72" y="430" class="value">206.59</text>
<text x="10" y="462" class="label">store.akamai.steamstatic.com</text>
<rect x="180" y="446" width="563.14" height="22" fill="#4c78a8" rx="3"/>
<text x="751.14" y="462" class="value">216.76</text>
<text x="10" y="494" class="label">steamcdn-a.akamaihd.net</text>
<rect x="180" y="478" width="580.0" height="22" fill="#4c78a8" rx="3"/>
<text x="768.0" y="494" class="value">223.25</text>
<line x1="180" y1="30" x2="180" y2="520" stroke="#ccc"/>
<line x1="180" y1="520" x2="760" y2="520" stroke="#ccc"/>
</svg>