<svg xmlns="http://www.w3.org/2000/svg" width="800" height="540">
<style> .label{font-family:DejaVu Sans,Verdana,Geneva,sans-serif;font-size:12px;fill:#333} .value{font-family:DejaVu Sans,Verdana,Geneva,sans-serif;font-size:12px;fill:#555} </style>
<text x="10" y="20" class="label">延迟柱状图（越低越好，Top 15），单位 ms</text>
<text x="10" y="46" class="label">eaassets-a.akamaihd.net</text>
<rect x="180" y="30" width="288.88" height="22" fill="#4c78a8" rx="3"/>
<text x="476.88" y="46" class="value">113.16</text>
<text x="10" y="78" class="label">cdn.akamai.steamstatic.com</text>
<rect x="180" y="62" width="340.09" height="22" fill="#4c78a8" rx="3"/>
<text x="528.0899999999999" y="78" class="value">133.22</text>
<text x="10" y="110" class="label">store.akamai.steamstatic.com</text>
<rect x="180" y="94" width="365.56" height="22" fill="#4c78a8" rx="3"/>
<text x="553.56" y="110" class="value">143.20</text>
<text x="10" y="142" class="label">steamcdn-a.akamaihd.net</text>
<rect x="180" y="126" width="366.71" height="22" fill="#4c78a8" rx="3"/>
<text x="554.71" y="142" class="value">143.65</text>
<text x="10" y="174" class="label">community.akamai.steamstatic.com</text>
<rect x="180" y="158" width="371.41" height="22" fill="#4c78a8" rx="3"/>
<text x="559.4100000000001" y="174" class="value">145.49</text>
<text x="10" y="206" class="label">ubisoft.com</text>
<rect x="180" y="190" width="372.99" height="22" fill="#4c78a8" rx="3"/>
<text x="560.99" y="206" class="value">146.11</text>
<text x="10" y="238" class="label">api.steampowered.com</text>
<rect x="180" y="222" width="440.28" height="22" fill="#4c78a8" rx="3"/>
<text x="628.28" y="238" class="value">172.47</text>
<text x="10" y="270" class="label">easyanticheat.net</text>
<rect x="180" y="254" width="482.33" height="22" fill="#4c78a8" rx="3"/>
<text x="670.3299999999999" y="270" class="value">188.94</text>
<text x="10" y="302" class="label">rockstargames.com</text>
<rect x="180" y="286" width="497.8" height="22" fill="#4c78a8" rx="3"/>
<text x="685.8" y="302" class="value">195.00</text>
<text x="10" y="334" class="label">steam-chat.com</text>
<rect x="180" y="318" width="511.25" height="22" fill="#4c78a8" rx="3"/>
<text x="699.25" y="334" class="value">200.27</text>
<text x="10" y="366" class="label">ubi.com</text>
<rect x="180" y="350" width="532.75" height="22" fill="#4c78a8" rx="3"/>
<text x="720.75" y="366" class="value">208.69</text>
<text x="10" y="398" class="label">www.steamcommunity.com</text>
<rect x="180" y="382" width="551.64" height="22" fill="#4c78a8" rx="3"/>
<text x="739.64" y="398" class="value">216.09</text>
<text x="10" y="430" class="label">battle.net</text>
<rect x="180" y="414" width="566.98" height="22" fill="#4c78a8" rx="3"/>
<text x="754.98" y="430" class="value">222.10</text>
<text x="10" y="462" class="label">cdn.cloudflare.steamstatic.com</text>
<rect x="180" y="446" width="567.26" height="22" fill="#4c78a8" rx="3"/>
<text x="755.26" y="462" class="value">222.21</text>
<text x="10" y="494" class="label">blizzard.com</text>
<rect x="180" y="478" width="580.0" height="22" fill="#4c78a8" rx="3"/>
<text x="768.0" y="494" class="value">227.20</text>
<line x1="180" y1="30" x2="180" y2="520" stroke="#ccc"/>
<line x1="180" y1="520" x2="760" y2="520" stroke="#ccc"/>
</svg>