<svg xmlns="http://www.w3.org/2000/svg" width="800" height="540">
<style> .label{font-family:DejaVu Sans,Verdana,Geneva,sans-serif;font-size:12px;fill:#333} .value{font-family:DejaVu Sans,Verdana,Geneva,sans-serif;font-size:12px;fill:#555} </style>
<text x="10" y="20" class="label">延迟柱状图（越低越好，Top 15），单位 ms</text>
<text x="10" y="46" class="label">store.akamai.steamstatic.com</text>
<rect x="180" y="30" width="242.37" height="22" fill="#4c78a8" rx="3"/>
<text x="430.37" y="46" class="value">97.61</text>
<text x="10" y="78" class="label">rockstargames.com</text>
<rect x="180" y="62" width="307.23" height="22" fill="#4c78a8" rx="3"/>
<text x="495.23" y="78" class="value">123.73</text>
<text x="10" y="110" class="label">cdn.cloudflare.steamstatic.com</text>
<rect x="180" y="94" width="330.95" height="22" fill="#4c78a8" rx="3"/>
<text x="518.95" y="110" class="value">133.28</text>
<text x="10" y="142" class="label">ubisoft.com</text>
<rect x="180" y="126" width="375.91" height="22" fill="#4c78a8" rx="3"/>
<text x="563.9100000000001" y="142" class="value">151.39</text>
<text x="10" y="174" class="label">eaassets-a.akamaihd.net</text>
<rect x="180" y="158" width="380.24" height="22" fill="#4c78a8" rx="3"/>
<text x="568.24" y="174" class="value">153.13</text>
<text x="10" y="206" class="label">community.akamai.steamstatic.com</text>
<rect x="180" y="190" width="412.74" height="22" fill="#4c78a8" rx="3"/>
<text x="600.74" y="206" class="value">166.22</text>
<text x="10" y="238" class="label">ea.com</text>
<rect x="180" y="222" width="423.34" height="22" fill="#4c78a8" rx="3"/>
<text x="611.3399999999999" y="238" class="value">170.49</text>
<text x="10" y="270" class="label">steamcdn-a.akamaihd.net</text>
<rect x="180" y="254" width="430.52" height="22" fill="#4c78a8" rx="3"/>
<text x="618.52" y="270" class="value">173.38</text>
<text x="10" y="302" class="label">easyanticheat.net</text>
<rect x="180" y="286" width="443.03" height="22" fill="#4c78a8" rx="3"/>
<text x="631.03" y="302" class="value">178.42</text>
<text x="10" y="334" class="label">cdn.akamai.steamstatic.com</text>
<rect x="180" y="318" width="456.44" height="22" fill="#4c78a8" rx="3"/>
<text x="644.44" y="334" class="value">183.82</text>
<text x="10" y="366" class="label">api.steampowered.com</text>
<rect x="180" y="350" width="499.27" height="22" fill="#4c78a8" rx="3"/>
<text x="687.27" y="366" class="value">201.07</text>
<text x="10" y="398" class="label">launcher-public-service-prod06.ol.epicgames.com</text>
<rect x="180" y="382" width="532.23" height="22" fill="#4c78a8" rx="3"/>
<text x="720.23" y="398" class="value">214.34</text>
<text x="10" y="430" class="label">ubi.com</text>
<rect x="180" y="414" width="540.47" height="22" fill="#4c78a8" rx="3"/>
<text x="728.47" y="430" class="value">217.66</text>
<text x="10" y="462" class="label">gog.com</text>
<rect x="180" y="446" width="567.34" height="22" fill="#4c78a8" rx="3"/>
<text x="755.34" y="462" class="value">228.48</text>
<text x="10" y="494" class="label">blizzard.com</text>
<rect x="180" y="478" width="580.0" height="22" fill="#4c78a8" rx="3"/>
<text x="768.0" y="494" class="value">233.58</text>
<line x1="180" y1="30" x2="180" y2="520" stroke="#ccc"/>
<line x1="180" y1="520" x2="760" y2="520" stroke="#ccc"/>
</svg>