<svg xmlns="http://www.w3.org/2000/svg" width="800" height="540">
<style> .label{font-family:DejaVu Sans,Verdana,Geneva,sans-serif;font-size:12px;fill:#333} .value{font-family:DejaVu Sans,Verdana,Geneva,sans-serif;font-size:12px;fill:#555} </style>
<text x="10" y="20" class="label">延迟柱状图（越低越好，Top 15），单位 ms</text>
<text x="10" y="46" class="label">ea.com</text>
<rect x="180" y="30" width="190.32" height="22" fill="#4c78a8" rx="3"/>
<text x="378.32" y="46" class="value">70.29</text>
<text x="10" y="78" class="label">rockstargames.com</text>
<rect x="180" y="62" width="194.24" height="22" fill="#4c78a8" rx="3"/>
<text x="382.24" y="78" class="value">71.74</text>
<text x="10" y="110" class="label">eaassets-a.akamaihd.net</text>
<rect x="180" y="94" width="208.51" height="22" fill="#4c78a8" rx="3"/>
<text x="396.51" y="110" class="value">77.01</text>
<text x="10" y="142" class="label">origin.com</text>
<rect x="180" y="126" width="316.98" height="22" fill="#4c78a8" rx="3"/>
<text x="504.98" y="142" class="value">117.07</text>
<text x="10" y="174" class="label">steamcdn-a.akamaihd.net</text>
<rect x="180" y="158" width="341.08" height="22" fill="#4c78a8" rx="3"/>
<text x="529.0799999999999" y="174" class="value">125.97</text>
<text x="10" y="206" class="label">store.akamai.steamstatic.com</text>
<rect x="180" y="190" width="345.87" height="22" fill="#4c78a8" rx="3"/>
<text x="533.87" y="206" class="value">127.74</text>
<text x="10" y="238" class="label">socialclub.rockstargames.com</text>
<rect x="180" y="222" width="369.78" height="22" fill="#4c78a8" rx="3"/>
<text x="557.78" y="238" class="value">136.57</text>
<text x="10" y="270" class="label">blizzard.com</text>
<rect x="180" y="254" width="401.41" height="22" fill="#4c78a8" rx="3"/>
<text x="589.4100000000001" y="270" class="value">148.25</text>
<text x="10" y="302" class="label">ubisoft.com</text>
<rect x="180" y="286" width="405.36" height="22" fill="#4c78a8" rx="3"/>
<text x="593.36" y="302" class="value">149.71</text>
<text x="10" y="334" class="label">battle.net</text>
<rect x="180" y="318" width="414.67" height="22" fill="#4c78a8" rx="3"/>
<text x="602.6700000000001" y="334" class="value">153.15</text>
<text x="10" y="366" class="label">unrealengine.com</text>
<rect x="180" y="350" width="423.8" height="22" fill="#4c78a8" rx="3"/>
<text x="611.8" y="366" class="value">156.52</text>
<text x="10" y="398" class="label">api.steampowered.com</text>
<rect x="180" y="382" width="433.68" height="22" fill="#4c78a8" rx="3"/>
<text x="621.6800000000001" y="398" class="value">160.17</text>
<text x="10" y="430" class="label">steam-chat.com</text>
<rect x="180" y="414" width="444.84" height="22" fill="#4c78a8" rx="3"/>
<text x="632.8399999999999" y="430" class="value">164.29</text>
<text x="10" y="462" class="label">ubi.com</text>
<rect x="180" y="446" width="466.01" height="22" fill="#4c78a8" rx="3"/>
<text x="654.01" y="462" class="value">172.11</text>
<text x="10" y="494" class="label">steamcommunity.com</text>
<rect x="180" y="478" width="580.0" height="22" fill="#4c78a8" rx="3"/>
<text x="768.0" y="494" class="value">214.21</text>
<line x1="180" y1="30" x2="180" y2="520" stroke="#ccc"/>
<line x1="180" y1="520" x2="760" y2="520" stroke="#ccc"/>
</svg>