<svg xmlns="http://www.w3.org/2000/svg" width="800" height="540">
<style> .label{font-family:DejaVu Sans,Verdana,Geneva,sans-serif;font-size:12px;fill:#333} .value{font-family:DejaVu Sans,Verdana,Geneva,sans-serif;font-size:12px;fill:#555} </style>
<text x="10" y="20" class="label">延迟柱状图（越低越好，Top 15），单位 ms</text>
<text x="10" y="46" class="label">rockstargames.com</text>
<rect x="180" y="30" width="182.56" height="22" fill="#4c78a8" rx="3"/>
<text x="370.56" y="46" class="value">59.67</text>
<text x="10" y="78" class="label">socialclub.rockstargames.com</text>
<rect x="180" y="62" width="214.05" height="22" fill="#4c78a8" rx="3"/>
<text x="402.05" y="78" class="value">69.96</text>
<text x="10" y="110" class="label">eaassets-a.akamaihd.net</text>
<rect x="180" y="94" width="243.11" height="22" fill="#4c78a8" rx="3"/>
<text x="431.11" y="110" class="value">79.46</text>
<text x="10" y="142" class="label">blizzard.com</text>
<rect x="180" y="126" width="273.71" height="22" fill="#4c78a8" rx="3"/>
<text x="461.71" y="142" class="value">89.46</text>
<text x="10" y="174" class="label">battle.net</text>
<rect x="180" y="158" width="355.0" height="22" fill="#4c78a8" rx="3"/>
<text x="543.0" y="174" class="value">116.03</text>
<text x="10" y="206" class="label">ubi.com</text>
<rect x="180" y="190" width="366.93" height="22" fill="#4c78a8" rx="3"/>
<text x="554.9300000000001" y="206" class="value">119.93</text>
<text x="10" y="238" class="label">ea.com</text>
<rect x="180" y="222" width="386.7" height="22" fill="#4c78a8" rx="3"/>
<text x="574.7" y="238" class="value">126.39</text>
<text x="10" y="270" class="label">epicgames.com</text>
<rect x="180" y="254" width="387.77" height="22" fill="#4c78a8" rx="3"/>
<text x="575.77" y="270" class="value">126.74</text>
<text x="10" y="302" class="label">ubisoft.com</text>
<rect x="180" y="286" width="409.25" height="22" fill="#4c78a8" rx="3"/>
<text x="597.25" y="302" class="value">133.76</text>
<text x="10" y="334" class="label">cdn.cloudflare.steamstatic.com</text>
<rect x="180" y="318" width="495.43" height="22" fill="#4c78a8" rx="3"/>
<text x="683.4300000000001" y="334" class="value">161.93</text>
<text x="10" y="366" class="label">static3.cdn.ubi.com</text>
<rect x="180" y="350" width="527.28" height="22" fill="#4c78a8" rx="3"/>
<text x="715.28" y="366" class="value">172.34</text>
<text x="10" y="398" class="label">community.akamai.steamstatic.com</text>
<rect x="180" y="382" width="527.47" height="22" fill="#4c78a8" rx="3"/>
<text x="715.47" y="398" class="value">172.40</text>
<text x="10" y="430" class="label">fortnite.com</text>
<rect x="180" y="414" width="544.42" height="22" fill="#4c78a8" rx="3"/>
<text x="732.42" y="430" class="value">177.94</text>
<text x="10" y="462" class="label">unrealengine.com</text>
<rect x="180" y="446" width="562.81" height="22" fill="#4c78a8" rx="3"/>
<text x="750.81" y="462" class="value">183.95</text>
<text x="10" y="494" class="label">store.akamai.steamstatic.com</text>
<rect x="180" y="478" width="580.0" height="22" fill="#4c78a8" rx="3"/>
<text x="768.0" y="494" class="value">189.57</text>
<line x1="180" y1="30" x2="180" y2="520" stroke="#ccc"/>
<line x1="180" y1="520" x2="760" y2="520" stroke="#ccc"/>
</svg>