<svg xmlns="http://www.w3.org/2000/svg" width="800" height="540">
<style> .label{font-family:DejaVu Sans,Verdana,Geneva,sans-serif;font-size:12px;fill:#333} .value{font-family:DejaVu Sans,Verdana,Geneva,sans-serif;font-size:12px;fill:#555} </style>
<text x="10" y="20" class="label">延迟柱状图（越低越好，Top 15），单位 ms</text>
<text x="10" y="46" class="label">eaassets-a.akamaihd.net</text>
<rect x="180" y="30" width="91.46" height="22" fill="#4c78a8" rx="3"/>
<text x="279.46" y="46" class="value">37.78</text>
<text x="10" y="78" class="label">ubisoft.com</text>
<rect x="180" y="62" width="196.12" height="22" fill="#4c78a8" rx="3"/>
<text x="384.12" y="78" class="value">81.01</text>
<text x="10" y="110" class="label">rockstargames.com</text>
<rect x="180" y="94" width="213.86" height="22" fill="#4c78a8" rx="3"/>
<text x="401.86" y="110" class="value">88.34</text>
<text x="10" y="142" class="label">ea.com</text>
<rect x="180" y="126" width="223.11" height="22" fill="#4c78a8" rx="3"/>
<text x="411.11" y="142" class="value">92.16</text>
<text x="10" y="174" class="label">steamcdn-a.akamaihd.net</text>
<rect x="180" y="158" width="223.98" height="22" fill="#4c78a8" rx="3"/>
<text x="411.98" y="174" class="value">92.52</text>
<text x="10" y="206" class="label">origin.com</text>
<rect x="180" y="190" width="249.28" height="22" fill="#4c78a8" rx="3"/>
<text x="437.28" y="206" class="value">102.97</text>
<text x="10" y="238" class="label">community.akamai.steamstatic.com</text>
<rect x="180" y="222" width="368.44" height="22" fill="#4c78a8" rx="3"/>
<text x="556.44" y="238" class="value">152.19</text>
<text x="10" y="270" class="label">cdn.cloudflare.steamstatic.com</text>
<rect x="180" y="254" width="432.03" height="22" fill="#4c78a8" rx="3"/>
<text x="620.03" y="270" class="value">178.46</text>
<text x="10" y="302" class="label">cdn.akamai.steamstatic.com</text>
<rect x="180" y="286" width="436.78" height="22" fill="#4c78a8" rx="3"/>
<text x="624.78" y="302" class="value">180.42</text>
<text x="10" y="334" class="label">launcher-public-service-prod06.ol.epicgames.com</text>
<rect x="180" y="318" width="450.02" height="22" fill="#4c78a8" rx="3"/>
<text x="638.02" y="334" class="value">185.89</text>
<text x="10" y="366" class="label">store.akamai.steamstatic.com</text>
<rect x="180" y="350" width="454.45" height="22" fill="#4c78a8" rx="3"/>
<text x="642.45" y="366" class="value">187.72</text>
<text x="10" y="398" class="label">easyanticheat.net</text>
<rect x="180" y="382" width="466.48" height="22" fill="#4c78a8" rx="3"/>
<text x="654.48" y="398" class="value">192.69</text>
<text x="10" y="430" class="label">api.steampowered.com</text>
<rect x="180" y="414" width="564.65" height="22" fill="#4c78a8" rx="3"/>
<text x="752.65" y="430" class="value">233.24</text>
<text x="10" y="462" class="label">gog.com</text>
<rect x="180" y="446" width="574.7" height="22" fill="#4c78a8" rx="3"/>
<text x="762.7" y="462" class="value">237.39</text>
<text x="10" y="494" class="label">www.steamcommunity.com</text>
<rect x="180" y="478" width="580.0" height="22" fill="#4c78a8" rx="3"/>
<text x="768.0" y="494" class="value">239.58</text>
<line x1="180" y1="30" x2="180" y2="520" stroke="#ccc"/>
<line x1="180" y1="520" x2="760" y2="520" stroke="#ccc"/>
</svg>