<svg xmlns="http://www.w3.org/2000/svg" width="800" height="540">
<style> .label{font-family:DejaVu Sans,Verdana,Geneva,sans-serif;font-size:12px;fill:#333} .value{font-family:DejaVu Sans,Verdana,Geneva,sans-serif;font-size:12px;fill:#555} </style>
<text x="10" y="20" class="label">延迟柱状图（越低越好，Top 15），单位 ms</text>
<text x="10" y="46" class="label">rockstargames.com</text>
<rect x="180" y="30" width="180.88" height="22" fill="#4c78a8" rx="3"/>
<text x="368.88" y="46" class="value">69.99</text>
<text x="10" y="78" class="label">eaassets-a.akamaihd.net</text>
<rect x="180" y="62" width="212.46" height="22" fill="#4c78a8" rx="3"/>
<text x="400.46000000000004" y="78" class="value">82.21</text>
<text x="10" y="110" class="label">socialclub.rockstargames.com</text>
<rect x="180" y="94" width="216.88" height="22" fill="#4c78a8" rx="3"/>
<text x="404.88" y="110" class="value">83.92</text>
<text x="10" y="142" class="label">blizzard.com</text>
<rect x="180" y="126" width="254.94" height="22" fill="#4c78a8" rx="3"/>
<text x="442.94" y="142" class="value">98.65</text>
<text x="10" y="174" class="label">ubisoft.com</text>
<rect x="180" y="158" width="255.93" height="22" fill="#4c78a8" rx="3"/>
<text x="443.93" y="174" class="value">99.03</text>
<text x="10" y="206" class="label">steamcdn-a.akamaihd.net</text>
<rect x="180" y="190" width="262.08" height="22" fill="#4c78a8" rx="3"/>
<text x="450.08" y="206" class="value">101.41</text>
<text x="10" y="238" class="label">origin.com</text>
<rect x="180" y="222" width="262.8" height="22" fill="#4c78a8" rx="3"/>
<text x="450.8" y="238" class="value">101.69</text>
<text x="10" y="270" class="label">ubi.com</text>
<rect x="180" y="254" width="274.3" height="22" fill="#4c78a8" rx="3"/>
<text x="462.3" y="270" class="value">106.14</text>
<text x="10" y="302" class="label">battle.net</text>
<rect x="180" y="286" width="280.01" height="22" fill="#4c78a8" rx="3"/>
<text x="468.01" y="302" class="value">108.35</text>
<text x="10" y="334" class="label">ea.com</text>
<rect x="180" y="318" width="342.86" height="22" fill="#4c78a8" rx="3"/>
<text x="530.86" y="334" class="value">132.67</text>
<text x="10" y="366" class="label">unrealengine.com</text>
<rect x="180" y="350" width="342.99" height="22" fill="#4c78a8" rx="3"/>
<text x="530.99" y="366" class="value">132.72</text>
<text x="10" y="398" class="label">epicgames.com</text>
<rect x="180" y="382" width="377.41" height="22" fill="#4c78a8" rx="3"/>
<text x="565.4100000000001" y="398" class="value">146.04</text>
<text x="10" y="430" class="label">static3.cdn.ubi.com</text>
<rect x="180" y="414" width="455.05" height="22" fill="#4c78a8" rx="3"/>
<text x="643.05" y="430" class="value">176.08</text>
<text x="10" y="462" class="label">cdn.cloudflare.steamstatic.com</text>
<rect x="180" y="446" width="519.79" height="22" fill="#4c78a8" rx="3"/>
<text x="707.79" y="462" class="value">201.13</text>
<text x="10" y="494" class="label">store.akamai.steamstatic.com</text>
<rect x="180" y="478" width="580.0" height="22" fill="#4c78a8" rx="3"/>
<text x="768.0" y="494" class="value">224.43</text>
<line x1="180" y1="30" x2="180" y2="520" stroke="#ccc"/>
<line x1="180" y1="520" x2="760" y2="520" stroke="#ccc"/>
</svg>