<svg xmlns="http://www.w3.org/2000/svg" width="800" height="540">
<style> .label{font-family:DejaVu Sans,Verdana,Geneva,sans-serif;font-size:12px;fill:#333} .value{font-family:DejaVu Sans,Verdana,Geneva,sans-serif;font-size:12px;fill:#555} </style>
<text x="10" y="20" class="label">延迟柱状图（越低越好，Top 15），单位 ms</text>
<text x="10" y="46" class="label">rockstargames.com</text>
<rect x="180" y="30" width="169.05" height="22" fill="#4c78a8" rx="3"/>
<text x="357.05" y="46" class="value">64.52</text>
<text x="10" y="78" class="label">socialclub.rockstargames.com</text>
<rect x="180" y="62" width="235.58" height="22" fill="#4c78a8" rx="3"/>
<text x="423.58000000000004" y="78" class="value">89.91</text>
<text x="10" y="110" class="label">ubi.com</text>
<rect x="180" y="94" width="275.88" height="22" fill="#4c78a8" rx="3"/>
<text x="463.88" y="110" class="value">105.29</text>
<text x="10" y="142" class="label">blizzard.com</text>
<rect x="180" y="126" width="282.14" height="22" fill="#4c78a8" rx="3"/>
<text x="470.14" y="142" class="value">107.68</text>
<text x="10" y="174" class="label">battle.net</text>
<rect x="180" y="158" width="361.69" height="22" fill="#4c78a8" rx="3"/>
<text x="549.69" y="174" class="value">138.04</text>
<text x="10" y="206" class="label">ubisoft.com</text>
<rect x="180" y="190" width="376.78" height="22" fill="#4c78a8" rx="3"/>
<text x="564.78" y="206" class="value">143.80</text>
<text x="10" y="238" class="label">launcher-public-service-prod06.ol.epicgames.com</text>
<rect x="180" y="222" width="403.11" height="22" fill="#4c78a8" rx="3"/>
<text x="591.11" y="238" class="value">153.85</text>
<text x="10" y="270" class="label">ea.com</text>
<rect x="180" y="254" width="408.38" height="22" fill="#4c78a8" rx="3"/>
<text x="596.38" y="270" class="value">155.86</text>
<text x="10" y="302" class="label">steamcdn-a.akamaihd.net</text>
<rect x="180" y="286" width="463.53" height="22" fill="#4c78a8" rx="3"/>
<text x="651.53" y="302" class="value">176.91</text>
<text x="10" y="334" class="label">fortnite.com</text>
<rect x="180" y="318" width="541.43" height="22" fill="#4c78a8" rx="3"/>
<text x="729.43" y="334" class="value">206.64</text>
<text x="10" y="366" class="label">unrealengine.com</text>
<rect x="180" y="350" width="543.21" height="22" fill="#4c78a8" rx="3"/>
<text x="731.21" y="366" class="value">207.32</text>
<text x="10" y="398" class="label">origin.com</text>
<rect x="180" y="382" width="543.4" height="22" fill="#4c78a8" rx="3"/>
<text x="731.4" y="398" class="value">207.39</text>
<text x="10" y="430" class="label">cdn.akamai.steamstatic.com</text>
<rect x="180" y="414" width="543.63" height="22" fill="#4c78a8" rx="3"/>
<text x="731.63" y="430" class="value">207.48</text>
<text x="10" y="462" class="label">store.akamai.steamstatic.com</text>
<rect x="180" y="446" width="565.07" height="22" fill="#4c78a8" rx="3"/>
<text x="753.07" y="462" class="value">215.66</text>
<text x="10" y="494" class="label">epicgames.com</text>
<rect x="180" y="478" width="580.0" height="22" fill="#4c78a8" rx="3"/>
<text x="768.0" y="494" class="value">221.36</text>
<line x1="180" y1="30" x2="180" y2="520" stroke="#ccc"/>
<line x1="180" y1="520" x2="760" y2="520" stroke="#ccc"/>
</svg>