<svg xmlns="http://www.w3.org/2000/svg" width="800" height="540">
<style> .label{font-family:DejaVu Sans,Verdana,Geneva,sans-serif;font-size:12px;fill:#333} .value{font-family:DejaVu Sans,Verdana,Geneva,sans-serif;font-size:12px;fill:#555} </style>
<text x="10" y="20" class="label">延迟柱状图（越低越好，Top 15），单位 ms</text>
<text x="10" y="46" class="label">eaassets-a.akamaihd.net</text>
<rect x="180" y="30" width="145.56" height="22" fill="#4c78a8" rx="3"/>
<text x="333.56" y="46" class="value">63.23</text>
<text x="10" y="78" class="label">ea.com</text>
<rect x="180" y="62" width="169.02" height="22" fill="#4c78a8" rx="3"/>
<text x="357.02" y="78" class="value">73.42</text>
<text x="10" y="110" class="label">blizzard.com</text>
<rect x="180" y="94" width="182.79" height="22" fill="#4c78a8" rx="3"/>
<text x="370.78999999999996" y="110" class="value">79.40</text>
<text x="10" y="142" class="label">ubi.com</text>
<rect x="180" y="126" width="191.03" height="22" fill="#4c78a8" rx="3"/>
<text x="379.03" y="142" class="value">82.98</text>
<text x="10" y="174" class="label">battle.net</text>
<rect x="180" y="158" width="191.93" height="22" fill="#4c78a8" rx="3"/>
<text x="379.93" y="174" class="value">83.37</text>
<text x="10" y="206" class="label">socialclub.rockstargames.com</text>
<rect x="180" y="190" width="215.92" height="22" fill="#4c78a8" rx="3"/>
<text x="403.91999999999996" y="206" class="value">93.79</text>
<text x="10" y="238" class="label">rockstargames.com</text>
<rect x="180" y="222" width="230.1" height="22" fill="#4c78a8" rx="3"/>
<text x="418.1" y="238" class="value">99.95</text>
<text x="10" y="270" class="label">ubisoft.com</text>
<rect x="180" y="254" width="244.99" height="22" fill="#4c78a8" rx="3"/>
<text x="432.99" y="270" class="value">106.42</text>
<text x="10" y="302" class="label">unrealengine.com</text>
<rect x="180" y="286" width="285.37" height="22" fill="#4c78a8" rx="3"/>
<text x="473.37" y="302" class="value">123.96</text>
<text x="10" y="334" class="label">fortnite.com</text>
<rect x="180" y="318" width="338.09" height="22" fill="#4c78a8" rx="3"/>
<text x="526.0899999999999" y="334" class="value">146.86</text>
<text x="10" y="366" class="label">epicgames.com</text>
<rect x="180" y="350" width="350.11" height="22" fill="#4c78a8" rx="3"/>
<text x="538.11" y="366" class="value">152.08</text>
<text x="10" y="398" class="label">static3.cdn.ubi.com</text>
<rect x="180" y="382" width="419.13" height="22" fill="#4c78a8" rx="3"/>
<text x="607.13" y="398" class="value">182.06</text>
<text x="10" y="430" class="label">cdn.akamai.steamstatic.com</text>
<rect x="180" y="414" width="422.9" height="22" fill="#4c78a8" rx="3"/>
<text x="610.9" y="430" class="value">183.70</text>
<text x="10" y="462" class="label">community.akamai.steamstatic.com</text>
<rect x="180" y="446" width="510.04" height="22" fill="#4c78a8" rx="3"/>
<text x="698.04" y="462" class="value">221.55</text>
<text x="10" y="494" class="label">origin.com</text>
<rect x="180" y="478" width="580.0" height="22" fill="#4c78a8" rx="3"/>
<text x="768.0" y="494" class="value">251.94</text>
<line x1="180" y1="30" x2="180" y2="520" stroke="#ccc"/>
<line x1="180" y1="520" x2="760" y2="520" stroke="#ccc"/>
</svg>