<svg xmlns="http://www.w3.org/2000/svg" width="800" height="540">
<style> .label{font-family:DejaVu Sans,Verdana,Geneva,sans-serif;font-size:12px;fill:#333} .value{font-family:DejaVu Sans,Verdana,Geneva,sans-serif;font-size:12px;fill:#555} </style>
<text x="10" y="20" class="label">延迟柱状图（越低越好，Top 15），单位 ms</text>
<text x="10" y="46" class="label">cdn.cloudflare.steamstatic.com</text>
<rect x="180" y="30" width="371.45" height="22" fill="#4c78a8" rx="3"/>
<text x="559.45" y="46" class="value">134.35</text>
<text x="10" y="78" class="label">easyanticheat.net</text>
<rect x="180" y="62" width="400.34" height="22" fill="#4c78a8" rx="3"/>
<text x="588.3399999999999" y="78" class="value">144.80</text>
<text x="10" y="110" class="label">ubi.com</text>
<rect x="180" y="94" width="435.71" height="22" fill="#4c78a8" rx="3"/>
<text x="623.71" y="110" class="value">157.59</text>
<text x="10" y="142" class="label">eaassets-a.akamaihd.net</text>
<rect x="180" y="126" width="447.65" height="22" fill="#4c78a8" rx="3"/>
<text x="635.65" y="142" class="value">161.91</text>
<text x="10" y="174" class="label">rockstargames.com</text>
<rect x="180" y="158" width="448.95" height="22" fill="#4c78a8" rx="3"/>
<text x="636.95" y="174" class="value">162.38</text>
<text x="10" y="206" class="label">ubisoft.com</text>
<rect x="180" y="190" width="466.97" height="22" fill="#4c78a8" rx="3"/>
<text x="654.97" y="206" class="value">168.90</text>
<text x="10" y="238" class="label">blizzard.com</text>
<rect x="180" y="222" width="470.43" height="22" fill="#4c78a8" rx="3"/>
<text x="658.4300000000001" y="238" class="value">170.15</text>
<text x="10" y="270" class="label">launcher-public-service-prod06.ol.epicgames.com</text>
<rect x="180" y="254" width="480.22" height="22" fill="#4c78a8" rx="3"/>
<text x="668.22" y="270" class="value">173.69</text>
<text x="10" y="302" class="label">battle.net</text>
<rect x="180" y="286" width="492.6" height="22" fill="#4c78a8" rx="3"/>
<text x="680.6" y="302" class="value">178.17</text>
<text x="10" y="334" class="label">socialclub.rockstargames.com</text>
<rect x="180" y="318" width="509.08" height="22" fill="#4c78a8" rx="3"/>
<text x="697.0799999999999" y="334" class="value">184.13</text>
<text x="10" y="366" class="label">cdn.akamai.steamstatic.com</text>
<rect x="180" y="350" width="510.08" height="22" fill="#4c78a8" rx="3"/>
<text x="698.0799999999999" y="366" class="value">184.49</text>
<text x="10" y="398" class="label">steamcdn-a.akamaihd.net</text>
<rect x="180" y="382" width="533.41" height="22" fill="#4c78a8" rx="3"/>
<text x="721.41" y="398" class="value">192.93</text>
<text x="10" y="430" class="label">www.steamcommunity.com</text>
<rect x="180" y="414" width="536.43" height="22" fill="#4c78a8" rx="3"/>
<text x="724.43" y="430" class="value">194.02</text>
<text x="10" y="462" class="label">ea.com</text>
<rect x="180" y="446" width="541.57" height="22" fill="#4c78a8" rx="3"/>
<text x="729.57" y="462" class="value">195.88</text>
<text x="10" y="494" class="label">store.akamai.steamstatic.com</text>
<rect x="180" y="478" width="580.0" height="22" fill="#4c78a8" rx="3"/>
<text x="768.0" y="494" class="value">209.78</text>
<line x1="180" y1="30" x2="180" y2="520" stroke="#ccc"/>
<line x1="180" y1="520" x2="760" y2="520" stroke="#ccc"/>
</svg>