<svg xmlns="http://www.w3.org/2000/svg" width="800" height="540">
<style> .label{font-family:DejaVu Sans,Verdana,Geneva,sans-serif;font-size:12px;fill:#333} .value{font-family:DejaVu Sans,Verdana,Geneva,sans-serif;font-size:12px;fill:#555} </style>
<text x="10" y="20" class="label">延迟柱状图（越低越好，Top 15），单位 ms</text>
<text x="10" y="46" class="label">epicgames.com</text>
<rect x="180" y="30" width="235.05" height="22" fill="#4c78a8" rx="3"/>
<text x="423.05" y="46" class="value">87.74</text>
<text x="10" y="78" class="label">ubi.com</text>
<rect x="180" y="62" width="243.79" height="22" fill="#4c78a8" rx="3"/>
<text x="431.78999999999996" y="78" class="value">91.00</text>
<text x="10" y="110" class="label">battle.net</text>
<rect x="180" y="94" width="251.74" height="22" fill="#4c78a8" rx="3"/>
<text x="439.74" y="110" class="value">93.97</text>
<text x="10" y="142" class="label">rockstargames.com</text>
<rect x="180" y="126" width="271.03" height="22" fill="#4c78a8" rx="3"/>
<text x="459.03" y="142" class="value">101.17</text>
<text x="10" y="174" class="label">eaassets-a.akamaihd.net</text>
<rect x="180" y="158" width="271.52" height="22" fill="#4c78a8" rx="3"/>
<text x="459.52" y="174" class="value">101.35</text>
<text x="10" y="206" class="label">unrealengine.com</text>
<rect x="180" y="190" width="288.47" height="22" fill="#4c78a8" rx="3"/>
<text x="476.47" y="206" class="value">107.68</text>
<text x="10" y="238" class="label">blizzard.com</text>
<rect x="180" y="222" width="291.79" height="22" fill="#4c78a8" rx="3"/>
<text x="479.79" y="238" class="value">108.92</text>
<text x="10" y="270" class="label">socialclub.rockstargames.com</text>
<rect x="180" y="254" width="304.87" height="22" fill="#4c78a8" rx="3"/>
<text x="492.87" y="270" class="value">113.80</text>
<text x="10" y="302" class="label">ubisoft.com</text>
<rect x="180" y="286" width="308.27" height="22" fill="#4c78a8" rx="3"/>
<text x="496.27" y="302" class="value">115.07</text>
<text x="10" y="334" class="label">ea.com</text>
<rect x="180" y="318" width="351.56" height="22" fill="#4c78a8" rx="3"/>
<text x="539.56" y="334" class="value">131.23</text>
<text x="10" y="366" class="label">origin.com</text>
<rect x="180" y="350" width="482.14" height="22" fill="#4c78a8" rx="3"/>
<text x="670.14" y="366" class="value">179.97</text>
<text x="10" y="398" class="label">fortnite.com</text>
<rect x="180" y="382" width="500.84" height="22" fill="#4c78a8" rx="3"/>
<text x="688.8399999999999" y="398" class="value">186.95</text>
<text x="10" y="430" class="label">community.akamai.steamstatic.com</text>
<rect x="180" y="414" width="530.41" height="22" fill="#4c78a8" rx="3"/>
<text x="718.41" y="430" class="value">197.99</text>
<text x="10" y="462" class="label">steamcdn-a.akamaihd.net</text>
<rect x="180" y="446" width="534.38" height="22" fill="#4c78a8" rx="3"/>
<text x="722.38" y="462" class="value">199.47</text>
<text x="10" y="494" class="label">easyanticheat.net</text>
<rect x="180" y="478" width="580.0" height="22" fill="#4c78a8" rx="3"/>
<text x="768.0" y="494" class="value">216.50</text>
<line x1="180" y1="30" x2="180" y2="520" stroke="#ccc"/>
<line x1="180" y1="520" x2="760" y2="520" stroke="#ccc"/>
</svg>