<svg xmlns="http://www.w3.org/2000/svg" width="800" height="540">
<style> .label{font-family:DejaVu Sans,Verdana,Geneva,sans-serif;font-size:12px;fill:#333} .value{font-family:DejaVu Sans,Verdana,Geneva,sans-serif;font-size:12px;fill:#555} </style>
<text x="10" y="20" class="label">延迟柱状图（越低越好，Top 15），单位 ms</text>
<text x="10" y="46" class="label">rockstargames.com</text>
<rect x="180" y="30" width="130.61" height="22" fill="#4c78a8" rx="3"/>
<text x="318.61" y="46" class="value">52.05</text>
<text x="10" y="78" class="label">fortnite.com</text>
<rect x="180" y="62" width="174.82" height="22" fill="#4c78a8" rx="3"/>
<text x="362.82" y="78" class="value">69.67</text>
<text x="10" y="110" class="label">eaassets-a.akamaihd.net</text>
<rect x="180" y="94" width="175.75" height="22" fill="#4c78a8" rx="3"/>
<text x="363.75" y="110" class="value">70.04</text>
<text x="10" y="142" class="label">socialclub.rockstargames.com</text>
<rect x="180" y="126" width="213.59" height="22" fill="#4c78a8" rx="3"/>
<text x="401.59000000000003" y="142" class="value">85.12</text>
<text x="10" y="174" class="label">ubisoft.com</text>
<rect x="180" y="158" width="261.32" height="22" fill="#4c78a8" rx="3"/>
<text x="449.32" y="174" class="value">104.14</text>
<text x="10" y="206" class="label">blizzard.com</text>
<rect x="180" y="190" width="270.68" height="22" fill="#4c78a8" rx="3"/>
<text x="458.68" y="206" class="value">107.87</text>
<text x="10" y="238" class="label">ubi.com</text>
<rect x="180" y="222" width="279.86" height="22" fill="#4c78a8" rx="3"/>
<text x="467.86" y="238" class="value">111.53</text>
<text x="10" y="270" class="label">ea.com</text>
<rect x="180" y="254" width="280.49" height="22" fill="#4c78a8" rx="3"/>
<text x="468.49" y="270" class="value">111.78</text>
<text x="10" y="302" class="label">epicgames.com</text>
<rect x="180" y="286" width="287.52" height="22" fill="#4c78a8" rx="3"/>
<text x="475.52" y="302" class="value">114.58</text>
<text x="10" y="334" class="label">battle.net</text>
<rect x="180" y="318" width="291.71" height="22" fill="#4c78a8" rx="3"/>
<text x="479.71" y="334" class="value">116.25</text>
<text x="10" y="366" class="label">store.akamai.steamstatic.com</text>
<rect x="180" y="350" width="483.09" height="22" fill="#4c78a8" rx="3"/>
<text x="671.0899999999999" y="366" class="value">192.52</text>
<text x="10" y="398" class="label">unrealengine.com</text>
<rect x="180" y="382" width="487.28" height="22" fill="#4c78a8" rx="3"/>
<text x="675.28" y="398" class="value">194.19</text>
<text x="10" y="430" class="label">origin.com</text>
<rect x="180" y="414" width="501.06" height="22" fill="#4c78a8" rx="3"/>
<text x="689.06" y="430" class="value">199.68</text>
<text x="10" y="462" class="label">cdn.akamai.steamstatic.com</text>
<rect x="180" y="446" width="558.02" height="22" fill="#4c78a8" rx="3"/>
<text x="746.02" y="462" class="value">222.38</text>
<text x="10" y="494" class="label">community.akamai.steamstatic.com</text>
<rect x="180" y="478" width="580.0" height="22" fill="#4c78a8" rx="3"/>
<text x="768.0" y="494" class="value">231.14</text>
<line x1="180" y1="30" x2="180" y2="520" stroke="#ccc"/>
<line x1="180" y1="520" x2="760" y2="520" stroke="#ccc"/>
</svg>