<svg xmlns="http://www.w3.org/2000/svg" width="800" height="540">
<style> .label{font-family:DejaVu Sans,Verdana,Geneva,sans-serif;font-size:12px;fill:#333} .value{font-family:DejaVu Sans,Verdana,Geneva,sans-serif;font-size:12px;fill:#555} </style>
<text x="10" y="20" class="label">延迟柱状图（越低越好，Top 15），单位 ms</text>
<text x="10" y="46" class="label">rockstargames.com</text>
<rect x="180" y="30" width="75.27" height="22" fill="#4c78a8" rx="3"/>
<text x="263.27" y="46" class="value">37.60</text>
<text x="10" y="78" class="label">eaassets-a.akamaihd.net</text>
<rect x="180" y="62" width="84.82" height="22" fill="#4c78a8" rx="3"/>
<text x="272.82" y="78" class="value">42.37</text>
<text x="10" y="110" class="label">ea.com</text>
<rect x="180" y="94" width="155.94" height="22" fill="#4c78a8" rx="3"/>
<text x="343.94" y="110" class="value">77.90</text>
<text x="10" y="142" class="label">steamcdn-a.akamaihd.net</text>
<rect x="180" y="126" width="204.0" height="22" fill="#4c78a8" rx="3"/>
<text x="392.0" y="142" class="value">101.91</text>
<text x="10" y="174" class="label">ubisoft.com</text>
<rect x="180" y="158" width="247.68" height="22" fill="#4c78a8" rx="3"/>
<text x="435.68" y="174" class="value">123.73</text>
<text x="10" y="206" class="label">origin.com</text>
<rect x="180" y="190" width="249.04" height="22" fill="#4c78a8" rx="3"/>
<text x="437.03999999999996" y="206" class="value">124.41</text>
<text x="10" y="238" class="label">store.akamai.steamstatic.com</text>
<rect x="180" y="222" width="265.32" height="22" fill="#4c78a8" rx="3"/>
<text x="453.32" y="238" class="value">132.54</text>
<text x="10" y="270" class="label">cdn.cloudflare.steamstatic.com</text>
<rect x="180" y="254" width="308.52" height="22" fill="#4c78a8" rx="3"/>
<text x="496.52" y="270" class="value">154.12</text>
<text x="10" y="302" class="label">cdn.akamai.steamstatic.com</text>
<rect x="180" y="286" width="311.98" height="22" fill="#4c78a8" rx="3"/>
<text x="499.98" y="302" class="value">155.85</text>
<text x="10" y="334" class="label">community.akamai.steamstatic.com</text>
<rect x="180" y="318" width="370.25" height="22" fill="#4c78a8" rx="3"/>
<text x="558.25" y="334" class="value">184.96</text>
<text x="10" y="366" class="label">easyanticheat.net</text>
<rect x="180" y="350" width="484.15" height="22" fill="#4c78a8" rx="3"/>
<text x="672.15" y="366" class="value">241.86</text>
<text x="10" y="398" class="label">www.steamcommunity.com</text>
<rect x="180" y="382" width="535.06" height="22" fill="#4c78a8" rx="3"/>
<text x="723.06" y="398" class="value">267.29</text>
<text x="10" y="430" class="label">steam-chat.com</text>
<rect x="180" y="414" width="549.51" height="22" fill="#4c78a8" rx="3"/>
<text x="737.51" y="430" class="value">274.51</text>
<text x="10" y="462" class="label">blizzard.com</text>
<rect x="180" y="446" width="556.36" height="22" fill="#4c78a8" rx="3"/>
<text x="744.36" y="462" class="value">277.93</text>
<text x="10" y="494" class="label">api.steampowered.com</text>
<rect x="180" y="478" width="580.0" height="22" fill="#4c78a8" rx="3"/>
<text x="768.0" y="494" class="value">289.74</text>
<line x1="180" y1="30" x2="180" y2="520" stroke="#ccc"/>
<line x1="180" y1="520" x2="760" y2="520" stroke="#ccc"/>
</svg>