<svg xmlns="http://www.w3.org/2000/svg" width="800" height="540">
<style> .label{font-family:DejaVu Sans,Verdana,Geneva,sans-serif;font-size:12px;fill:#333} .value{font-family:DejaVu Sans,Verdana,Geneva,sans-serif;font-size:12px;fill:#555} </style>
<text x="10" y="20" class="label">延迟柱状图（越低越好，Top 15），单位 ms</text>
<text x="10" y="46" class="label">rockstargames.com</text>
<rect x="180" y="30" width="172.09" height="22" fill="#4c78a8" rx="3"/>
<text x="360.09000000000003" y="46" class="value">59.95</text>
<text x="10" y="78" class="label">eaassets-a.akamaihd.net</text>
<rect x="180" y="62" width="214.46" height="22" fill="#4c78a8" rx="3"/>
<text x="402.46000000000004" y="78" class="value">74.71</text>
<text x="10" y="110" class="label">ea.com</text>
<rect x="180" y="94" width="215.44" height="22" fill="#4c78a8" rx="3"/>
<text x="403.44" y="110" class="value">75.05</text>
<text x="10" y="142" class="label">origin.com</text>
<rect x="180" y="126" width="366.4" height="22" fill="#4c78a8" rx="3"/>
<text x="554.4" y="142" class="value">127.64</text>
<text x="10" y="174" class="label">steamcdn-a.akamaihd.net</text>
<rect x="180" y="158" width="385.26" height="22" fill="#4c78a8" rx="3"/>
<text x="573.26" y="174" class="value">134.21</text>
<text x="10" y="206" class="label">ubisoft.com</text>
<rect x="180" y="190" width="396.25" height="22" fill="#4c78a8" rx="3"/>
<text x="584.25" y="206" class="value">138.04</text>
<text x="10" y="238" class="label">socialclub.rockstargames.com</text>
<rect x="180" y="222" width="398.75" height="22" fill="#4c78a8" rx="3"/>
<text x="586.75" y="238" class="value">138.91</text>
<text x="10" y="270" class="label">easyanticheat.net</text>
<rect x="180" y="254" width="418.13" height="22" fill="#4c78a8" rx="3"/>
<text x="606.13" y="270" class="value">145.66</text>
<text x="10" y="302" class="label">blizzard.com</text>
<rect x="180" y="286" width="440.49" height="22" fill="#4c78a8" rx="3"/>
<text x="628.49" y="302" class="value">153.45</text>
<text x="10" y="334" class="label">battle.net</text>
<rect x="180" y="318" width="474.28" height="22" fill="#4c78a8" rx="3"/>
<text x="662.28" y="334" class="value">165.22</text>
<text x="10" y="366" class="label">community.akamai.steamstatic.com</text>
<rect x="180" y="350" width="475.68" height="22" fill="#4c78a8" rx="3"/>
<text x="663.6800000000001" y="366" class="value">165.71</text>
<text x="10" y="398" class="label">ubi.com</text>
<rect x="180" y="382" width="522.16" height="22" fill="#4c78a8" rx="3"/>
<text x="710.16" y="398" class="value">181.90</text>
<text x="10" y="430" class="label">steam-chat.com</text>
<rect x="180" y="414" width="532.89" height="22" fill="#4c78a8" rx="3"/>
<text x="720.89" y="430" class="value">185.64</text>
<text x="10" y="462" class="label">api.steampowered.com</text>
<rect x="180" y="446" width="539.67" height="22" fill="#4c78a8" rx="3"/>
<text x="727.67" y="462" class="value">188.00</text>
<text x="10" y="494" class="label">store.akamai.steamstatic.com</text>
<rect x="180" y="478" width="580.0" height="22" fill="#4c78a8" rx="3"/>
<text x="768.0" y="494" class="value">202.05</text>
<line x1="180" y1="30" x2="180" y2="520" stroke="#ccc"/>
<line x1="180" y1="520" x2="760" y2="520" stroke="#ccc"/>
</svg>