<svg xmlns="http://www.w3.org/2000/svg" width="800" height="540">
<style> .label{font-family:DejaVu Sans,Verdana,Geneva,sans-serif;font-size:12px;fill:#333} .value{font-family:DejaVu Sans,Verdana,Geneva,sans-serif;font-size:12px;fill:#555} </style>
<text x="10" y="20" class="label">延迟柱状图（越低越好，Top 15），单位 ms</text>
<text x="10" y="46" class="label">rockstargames.com</text>
<rect x="180" y="30" width="197.09" height="22" fill="#4c78a8" rx="3"/>
<text x="385.09000000000003" y="46" class="value">71.01</text>
<text x="10" y="78" class="label">ea.com</text>
<rect x="180" y="62" width="279.13" height="22" fill="#4c78a8" rx="3"/>
<text x="467.13" y="78" class="value">100.57</text>
<text x="10" y="110" class="label">eaassets-a.akamaihd.net</text>
<rect x="180" y="94" width="311.72" height="22" fill="#4c78a8" rx="3"/>
<text x="499.72" y="110" class="value">112.31</text>
<text x="10" y="142" class="label">socialclub.rockstargames.com</text>
<rect x="180" y="126" width="348.49" height="22" fill="#4c78a8" rx="3"/>
<text x="536.49" y="142" class="value">125.56</text>
<text x="10" y="174" class="label">ubi.com</text>
<rect x="180" y="158" width="385.8" height="22" fill="#4c78a8" rx="3"/>
<text x="573.8" y="174" class="value">139.00</text>
<text x="10" y="206" class="label">community.akamai.steamstatic.com</text>
<rect x="180" y="190" width="394.93" height="22" fill="#4c78a8" rx="3"/>
<text x="582.9300000000001" y="206" class="value">142.29</text>
<text x="10" y="238" class="label">ubisoft.com</text>
<rect x="180" y="222" width="442.75" height="22" fill="#4c78a8" rx="3"/>
<text x="630.75" y="238" class="value">159.52</text>
<text x="10" y="270" class="label">steamcdn-a.akamaihd.net</text>
<rect x="180" y="254" width="450.88" height="22" fill="#4c78a8" rx="3"/>
<text x="638.88" y="270" class="value">162.45</text>
<text x="10" y="302" class="label">blizzard.com</text>
<rect x="180" y="286" width="451.94" height="22" fill="#4c78a8" rx="3"/>
<text x="639.94" y="302" class="value">162.83</text>
<text x="10" y="334" class="label">battle.net</text>
<rect x="180" y="318" width="493.49" height="22" fill="#4c78a8" rx="3"/>
<text x="681.49" y="334" class="value">177.80</text>
<text x="10" y="366" class="label">cdn.akamai.steamstatic.com</text>
<rect x="180" y="350" width="514.14" height="22" fill="#4c78a8" rx="3"/>
<text x="702.14" y="366" class="value">185.24</text>
<text x="10" y="398" class="label">origin.com</text>
<rect x="180" y="382" width="526.1" height="22" fill="#4c78a8" rx="3"/>
<text x="714.1" y="398" class="value">189.55</text>
<text x="10" y="430" class="label">api.steampowered.com</text>
<rect x="180" y="414" width="540.95" height="22" fill="#4c78a8" rx="3"/>
<text x="728.95" y="430" class="value">194.90</text>
<text x="10" y="462" class="label">steam-chat.com</text>
<rect x="180" y="446" width="544.45" height="22" fill="#4c78a8" rx="3"/>
<text x="732.45" y="462" class="value">196.16</text>
<text x="10" y="494" class="label">www.steamcommunity.com</text>
<rect x="180" y="478" width="580.0" height="22" fill="#4c78a8" rx="3"/>
<text x="768.0" y="494" class="value">208.97</text>
<line x1="180" y1="30" x2="180" y2="520" stroke="#ccc"/>
<line x1="180" y1="520" x2="760" y2="520" stroke="#ccc"/>
</svg>