<svg xmlns="http://www.w3.org/2000/svg" width="800" height="540">
<style> .label{font-family:DejaVu Sans,Verdana,Geneva,sans-serif;font-size:12px;fill:#333} .value{font-family:DejaVu Sans,Verdana,Geneva,sans-serif;font-size:12px;fill:#555} </style>
<text x="10" y="20" class="label">延迟柱状图（越低越好，Top 15），单位 ms</text>
<text x="10" y="46" class="label">rockstargames.com</text>
<rect x="180" y="30" width="86.18" height="22" fill="#4c78a8" rx="3"/>
<text x="274.18" y="46" class="value">41.70</text>
<text x="10" y="78" class="label">community.akamai.steamstatic.com</text>
<rect x="180" y="62" width="168.77" height="22" fill="#4c78a8" rx="3"/>
<text x="356.77" y="78" class="value">81.66</text>
<text x="10" y="110" class="label">ea.com</text>
<rect x="180" y="94" width="175.86" height="22" fill="#4c78a8" rx="3"/>
<text x="363.86" y="110" class="value">85.09</text>
<text x="10" y="142" class="label">cdn.cloudflare.steamstatic.com</text>
<rect x="180" y="126" width="182.76" height="22" fill="#4c78a8" rx="3"/>
<text x="370.76" y="142" class="value">88.43</text>
<text x="10" y="174" class="label">eaassets-a.akamaihd.net</text>
<rect x="180" y="158" width="185.84" height="22" fill="#4c78a8" rx="3"/>
<text x="373.84000000000003" y="174" class="value">89.92</text>
<text x="10" y="206" class="label">ubisoft.com</text>
<rect x="180" y="190" width="190.18" height="22" fill="#4c78a8" rx="3"/>
<text x="378.18" y="206" class="value">92.02</text>
<text x="10" y="238" class="label">steamcdn-a.akamaihd.net</text>
<rect x="180" y="222" width="218.39" height="22" fill="#4c78a8" rx="3"/>
<text x="406.39" y="238" class="value">105.67</text>
<text x="10" y="270" class="label">store.akamai.steamstatic.com</text>
<rect x="180" y="254" width="304.2" height="22" fill="#4c78a8" rx="3"/>
<text x="492.2" y="270" class="value">147.19</text>
<text x="10" y="302" class="label">easyanticheat.net</text>
<rect x="180" y="286" width="338.79" height="22" fill="#4c78a8" rx="3"/>
<text x="526.79" y="302" class="value">163.93</text>
<text x="10" y="334" class="label">origin.com</text>
<rect x="180" y="318" width="406.75" height="22" fill="#4c78a8" rx="3"/>
<text x="594.75" y="334" class="value">196.81</text>
<text x="10" y="366" class="label">cdn.akamai.steamstatic.com</text>
<rect x="180" y="350" width="407.0" height="22" fill="#4c78a8" rx="3"/>
<text x="595.0" y="366" class="value">196.93</text>
<text x="10" y="398" class="label">api.steampowered.com</text>
<rect x="180" y="382" width="476.6" height="22" fill="#4c78a8" rx="3"/>
<text x="664.6" y="398" class="value">230.61</text>
<text x="10" y="430" class="label">www.steamcommunity.com</text>
<rect x="180" y="414" width="515.11" height="22" fill="#4c78a8" rx="3"/>
<text x="703.11" y="430" class="value">249.24</text>
<text x="10" y="462" class="label">launcher-public-service-prod06.ol.epicgames.com</text>
<rect x="180" y="446" width="577.17" height="22" fill="#4c78a8" rx="3"/>
<text x="765.17" y="462" class="value">279.27</text>
<text x="10" y="494" class="label">steam-chat.com</text>
<rect x="180" y="478" width="580.0" height="22" fill="#4c78a8" rx="3"/>
<text x="768.0" y="494" class="value">280.64</text>
<line x1="180" y1="30" x2="180" y2="520" stroke="#ccc"/>
<line x1="180" y1="520" x2="760" y2="520" stroke="#ccc"/>
</svg>