<svg xmlns="http://www.w3.org/2000/svg" width="800" height="540">
<style> .label{font-family:DejaVu Sans,Verdana,Geneva,sans-serif;font-size:12px;fill:#333} .value{font-family:DejaVu Sans,Verdana,Geneva,sans-serif;font-size:12px;fill:#555} </style>
<text x="10" y="20" class="label">延迟柱状图（越低越好，Top 15），单位 ms</text>
<text x="10" y="46" class="label">socialclub.rockstargames.com</text>
<rect x="180" y="30" width="223.38" height="22" fill="#4c78a8" rx="3"/>
<text x="411.38" y="46" class="value">84.96</text>
<text x="10" y="78" class="label">eaassets-a.akamaihd.net</text>
<rect x="180" y="62" width="223.38" height="22" fill="#4c78a8" rx="3"/>
<text x="411.38" y="78" class="value">84.96</text>
<text x="10" y="110" class="label">rockstargames.com</text>
<rect x="180" y="94" width="239.7" height="22" fill="#4c78a8" rx="3"/>
<text x="427.7" y="110" class="value">91.17</text>
<text x="10" y="142" class="label">ubi.com</text>
<rect x="180" y="126" width="256.06" height="22" fill="#4c78a8" rx="3"/>
<text x="444.06" y="142" class="value">97.39</text>
<text x="10" y="174" class="label">battle.net</text>
<rect x="180" y="158" width="271.96" height="22" fill="#4c78a8" rx="3"/>
<text x="459.96" y="174" class="value">103.44</text>
<text x="10" y="206" class="label">fortnite.com</text>
<rect x="180" y="190" width="276.51" height="22" fill="#4c78a8" rx="3"/>
<text x="464.51" y="206" class="value">105.17</text>
<text x="10" y="238" class="label">ea.com</text>
<rect x="180" y="222" width="325.76" height="22" fill="#4c78a8" rx="3"/>
<text x="513.76" y="238" class="value">123.90</text>
<text x="10" y="270" class="label">blizzard.com</text>
<rect x="180" y="254" width="366.17" height="22" fill="#4c78a8" rx="3"/>
<text x="554.1700000000001" y="270" class="value">139.27</text>
<text x="10" y="302" class="label">origin.com</text>
<rect x="180" y="286" width="428.53" height="22" fill="#4c78a8" rx="3"/>
<text x="616.53" y="302" class="value">162.99</text>
<text x="10" y="334" class="label">epicgames.com</text>
<rect x="180" y="318" width="452.01" height="22" fill="#4c78a8" rx="3"/>
<text x="640.01" y="334" class="value">171.92</text>
<text x="10" y="366" class="label">store.akamai.steamstatic.com</text>
<rect x="180" y="350" width="534.7" height="22" fill="#4c78a8" rx="3"/>
<text x="722.7" y="366" class="value">203.37</text>
<text x="10" y="398" class="label">cdn.cloudflare.steamstatic.com</text>
<rect x="180" y="382" width="537.01" height="22" fill="#4c78a8" rx="3"/>
<text x="725.01" y="398" class="value">204.25</text>
<text x="10" y="430" class="label">community.akamai.steamstatic.com</text>
<rect x="180" y="414" width="557.13" height="22" fill="#4c78a8" rx="3"/>
<text x="745.13" y="430" class="value">211.90</text>
<text x="10" y="462" class="label">ubisoft.com</text>
<rect x="180" y="446" width="557.99" height="22" fill="#4c78a8" rx="3"/>
<text x="745.99" y="462" class="value">212.23</text>
<text x="10" y="494" class="label">steamcdn-a.akamaihd.net</text>
<rect x="180" y="478" width="580.0" height="22" fill="#4c78a8" rx="3"/>
<text x="768.0" y="494" class="value">220.60</text>
<line x1="180" y1="30" x2="180" y2="520" stroke="#ccc"/>
<line x1="180" y1="520" x2="760" y2="520" stroke="#ccc"/>
</svg>