<svg xmlns="http://www.w3.org/2000/svg" width="800" height="540">
<style> .label{font-family:DejaVu Sans,Verdana,Geneva,sans-serif;font-size:12px;fill:#333} .value{font-family:DejaVu Sans,Verdana,Geneva,sans-serif;font-size:12px;fill:#555} </style>
<text x="10" y="20" class="label">延迟柱状图（越低越好，Top 15），单位 ms</text>
<text x="10" y="46" class="label">rockstargames.com</text>
<rect x="180" y="30" width="150.44" height="22" fill="#4c78a8" rx="3"/>
<text x="338.44" y="46" class="value">62.07</text>
<text x="10" y="78" class="label">fortnite.com</text>
<rect x="180" y="62" width="190.74" height="22" fill="#4c78a8" rx="3"/>
<text x="378.74" y="78" class="value">78.70</text>
<text x="10" y="110" class="label">socialclub.rockstargames.com</text>
<rect x="180" y="94" width="198.01" height="22" fill="#4c78a8" rx="3"/>
<text x="386.01" y="110" class="value">81.70</text>
<text x="10" y="142" class="label">blizzard.com</text>
<rect x="180" y="126" width="220.57" height="22" fill="#4c78a8" rx="3"/>
<text x="408.57" y="142" class="value">91.01</text>
<text x="10" y="174" class="label">eaassets-a.akamaihd.net</text>
<rect x="180" y="158" width="235.36" height="22" fill="#4c78a8" rx="3"/>
<text x="423.36" y="174" class="value">97.11</text>
<text x="10" y="206" class="label">battle.net</text>
<rect x="180" y="190" width="269.41" height="22" fill="#4c78a8" rx="3"/>
<text x="457.41" y="206" class="value">111.16</text>
<text x="10" y="238" class="label">unrealengine.com</text>
<rect x="180" y="222" width="298.25" height="22" fill="#4c78a8" rx="3"/>
<text x="486.25" y="238" class="value">123.06</text>
<text x="10" y="270" class="label">ea.com</text>
<rect x="180" y="254" width="306.66" height="22" fill="#4c78a8" rx="3"/>
<text x="494.66" y="270" class="value">126.53</text>
<text x="10" y="302" class="label">ubi.com</text>
<rect x="180" y="286" width="319.46" height="22" fill="#4c78a8" rx="3"/>
<text x="507.46" y="302" class="value">131.81</text>
<text x="10" y="334" class="label">ubisoft.com</text>
<rect x="180" y="318" width="330.83" height="22" fill="#4c78a8" rx="3"/>
<text x="518.8299999999999" y="334" class="value">136.50</text>
<text x="10" y="366" class="label">cdn.cloudflare.steamstatic.com</text>
<rect x="180" y="350" width="353.58" height="22" fill="#4c78a8" rx="3"/>
<text x="541.5799999999999" y="366" class="value">145.89</text>
<text x="10" y="398" class="label">cdn.akamai.steamstatic.com</text>
<rect x="180" y="382" width="404.8" height="22" fill="#4c78a8" rx="3"/>
<text x="592.8" y="398" class="value">167.02</text>
<text x="10" y="430" class="label">community.akamai.steamstatic.com</text>
<rect x="180" y="414" width="515.1" height="22" fill="#4c78a8" rx="3"/>
<text x="703.1" y="430" class="value">212.53</text>
<text x="10" y="462" class="label">epicgames.com</text>
<rect x="180" y="446" width="579.9" height="22" fill="#4c78a8" rx="3"/>
<text x="767.9" y="462" class="value">239.27</text>
<text x="10" y="494" class="label">easyanticheat.net</text>
<rect x="180" y="478" width="580.0" height="22" fill="#4c78a8" rx="3"/>
<text x="768.0" y="494" class="value">239.31</text>
<line x1="180" y1="30" x2="180" y2="520" stroke="#ccc"/>
<line x1="180" y1="520" x2="760" y2="520" stroke="#ccc"/>
</svg>