<svg xmlns="http://www.w3.org/2000/svg" width="800" height="540">
<style> .label{font-family:DejaVu Sans,Verdana,Geneva,sans-serif;font-size:12px;fill:#333} .value{font-family:DejaVu Sans,Verdana,Geneva,sans-serif;font-size:12px;fill:#555} </style>
<text x="10" y="20" class="label">延迟柱状图（越低越好，Top 15），单位 ms</text>
<text x="10" y="46" class="label">rockstargames.com</text>
<rect x="180" y="30" width="97.61" height="22" fill="#4c78a8" rx="3"/>
<text x="285.61" y="46" class="value">48.81</text>
<text x="10" y="78" class="label">eaassets-a.akamaihd.net</text>
<rect x="180" y="62" width="112.38" height="22" fill="#4c78a8" rx="3"/>
<text x="300.38" y="78" class="value">56.20</text>
<text x="10" y="110" class="label">cdn.akamai.steamstatic.com</text>
<rect x="180" y="94" width="182.55" height="22" fill="#4c78a8" rx="3"/>
<text x="370.55" y="110" class="value">91.29</text>
<text x="10" y="142" class="label">ubisoft.com</text>
<rect x="180" y="126" width="210.71" height="22" fill="#4c78a8" rx="3"/>
<text x="398.71000000000004" y="142" class="value">105.37</text>
<text x="10" y="174" class="label">origin.com</text>
<rect x="180" y="158" width="240.85" height="22" fill="#4c78a8" rx="3"/>
<text x="428.85" y="174" class="value">120.44</text>
<text x="10" y="206" class="label">ea.com</text>
<rect x="180" y="190" width="248.45" height="22" fill="#4c78a8" rx="3"/>
<text x="436.45" y="206" class="value">124.24</text>
<text x="10" y="238" class="label">easyanticheat.net</text>
<rect x="180" y="222" width="268.9" height="22" fill="#4c78a8" rx="3"/>
<text x="456.9" y="238" class="value">134.47</text>
<text x="10" y="270" class="label">community.akamai.steamstatic.com</text>
<rect x="180" y="254" width="291.5" height="22" fill="#4c78a8" rx="3"/>
<text x="479.5" y="270" class="value">145.77</text>
<text x="10" y="302" class="label">steamcdn-a.akamaihd.net</text>
<rect x="180" y="286" width="293.82" height="22" fill="#4c78a8" rx="3"/>
<text x="481.82" y="302" class="value">146.93</text>
<text x="10" y="334" class="label">store.akamai.steamstatic.com</text>
<rect x="180" y="318" width="300.5" height="22" fill="#4c78a8" rx="3"/>
<text x="488.5" y="334" class="value">150.27</text>
<text x="10" y="366" class="label">blizzard.com</text>
<rect x="180" y="350" width="536.37" height="22" fill="#4c78a8" rx="3"/>
<text x="724.37" y="366" class="value">268.22</text>
<text x="10" y="398" class="label">battle.net</text>
<rect x="180" y="382" width="536.99" height="22" fill="#4c78a8" rx="3"/>
<text x="724.99" y="398" class="value">268.53</text>
<text x="10" y="430" class="label">www.steamcommunity.com</text>
<rect x="180" y="414" width="550.68" height="22" fill="#4c78a8" rx="3"/>
<text x="738.68" y="430" class="value">275.38</text>
<text x="10" y="462" class="label">steam-chat.com</text>
<rect x="180" y="446" width="557.04" height="22" fill="#4c78a8" rx="3"/>
<text x="745.04" y="462" class="value">278.56</text>
<text x="10" y="494" class="label">ubi.com</text>
<rect x="180" y="478" width="580.0" height="22" fill="#4c78a8" rx="3"/>
<text x="768.0" y="494" class="value">290.04</text>
<line x1="180" y1="30" x2="180" y2="520" stroke="#ccc"/>
<line x1="180" y1="520" x2="760" y2="520" stroke="#ccc"/>
</svg>