<svg xmlns="http://www.w3.org/2000/svg" width="800" height="540">
<style> .label{font-family:DejaVu Sans,Verdana,Geneva,sans-serif;font-size:12px;fill:#333} .value{font-family:DejaVu Sans,Verdana,Geneva,sans-serif;font-size:12px;fill:#555} </style>
<text x="10" y="20" class="label">延迟柱状图（越低越好，Top 15），单位 ms</text>
<text x="10" y="46" class="label">eaassets-a.akamaihd.net</text>
<rect x="180" y="30" width="140.6" height="22" fill="#4c78a8" rx="3"/>
<text x="328.6" y="46" class="value">53.72</text>
<text x="10" y="78" class="label">rockstargames.com</text>
<rect x="180" y="62" width="148.97" height="22" fill="#4c78a8" rx="3"/>
<text x="336.97" y="78" class="value">56.92</text>
<text x="10" y="110" class="label">blizzard.com</text>
<rect x="180" y="94" width="189.77" height="22" fill="#4c78a8" rx="3"/>
<text x="377.77" y="110" class="value">72.51</text>
<text x="10" y="142" class="label">battle.net</text>
<rect x="180" y="126" width="224.98" height="22" fill="#4c78a8" rx="3"/>
<text x="412.98" y="142" class="value">85.96</text>
<text x="10" y="174" class="label">socialclub.rockstargames.com</text>
<rect x="180" y="158" width="228.9" height="22" fill="#4c78a8" rx="3"/>
<text x="416.9" y="174" class="value">87.46</text>
<text x="10" y="206" class="label">ubi.com</text>
<rect x="180" y="190" width="240.08" height="22" fill="#4c78a8" rx="3"/>
<text x="428.08000000000004" y="206" class="value">91.73</text>
<text x="10" y="238" class="label">ubisoft.com</text>
<rect x="180" y="222" width="302.16" height="22" fill="#4c78a8" rx="3"/>
<text x="490.16" y="238" class="value">115.45</text>
<text x="10" y="270" class="label">epicgames.com</text>
<rect x="180" y="254" width="328.72" height="22" fill="#4c78a8" rx="3"/>
<text x="516.72" y="270" class="value">125.60</text>
<text x="10" y="302" class="label">fortnite.com</text>
<rect x="180" y="286" width="359.47" height="22" fill="#4c78a8" rx="3"/>
<text x="547.47" y="302" class="value">137.35</text>
<text x="10" y="334" class="label">ea.com</text>
<rect x="180" y="318" width="364.16" height="22" fill="#4c78a8" rx="3"/>
<text x="552.1600000000001" y="334" class="value">139.14</text>
<text x="10" y="366" class="label">unrealengine.com</text>
<rect x="180" y="350" width="370.6" height="22" fill="#4c78a8" rx="3"/>
<text x="558.6" y="366" class="value">141.60</text>
<text x="10" y="398" class="label">store.akamai.steamstatic.com</text>
<rect x="180" y="382" width="433.12" height="22" fill="#4c78a8" rx="3"/>
<text x="621.12" y="398" class="value">165.49</text>
<text x="10" y="430" class="label">origin.com</text>
<rect x="180" y="414" width="476.41" height="22" fill="#4c78a8" rx="3"/>
<text x="664.4100000000001" y="430" class="value">182.03</text>
<text x="10" y="462" class="label">cdn.akamai.steamstatic.com</text>
<rect x="180" y="446" width="489.39" height="22" fill="#4c78a8" rx="3"/>
<text x="677.39" y="462" class="value">186.99</text>
<text x="10" y="494" class="label">community.akamai.steamstatic.com</text>
<rect x="180" y="478" width="580.0" height="22" fill="#4c78a8" rx="3"/>
<text x="768.0" y="494" class="value">221.61</text>
<line x1="180" y1="30" x2="180" y2="520" stroke="#ccc"/>
<line x1="180" y1="520" x2="760" y2="520" stroke="#ccc"/>
</svg>