<svg xmlns="http://www.w3.org/2000/svg" width="800" height="540">
<style> .label{font-family:DejaVu Sans,Verdana,Geneva,sans-serif;font-size:12px;fill:#333} .value{font-family:DejaVu Sans,Verdana,Geneva,sans-serif;font-size:12px;fill:#555} </style>
<text x="10" y="20" class="label">延迟柱状图（越低越好，Top 15），单位 ms</text>
<text x="10" y="46" class="label">rockstargames.com</text>
<rect x="180" y="30" width="154.6" height="22" fill="#4c78a8" rx="3"/>
<text x="342.6" y="46" class="value">59.60</text>
<text x="10" y="78" class="label">blizzard.com</text>
<rect x="180" y="62" width="202.2" height="22" fill="#4c78a8" rx="3"/>
<text x="390.2" y="78" class="value">77.95</text>
<text x="10" y="110" class="label">eaassets-a.akamaihd.net</text>
<rect x="180" y="94" width="221.27" height="22" fill="#4c78a8" rx="3"/>
<text x="409.27" y="110" class="value">85.30</text>
<text x="10" y="142" class="label">ubi.com</text>
<rect x="180" y="126" width="225.73" height="22" fill="#4c78a8" rx="3"/>
<text x="413.73" y="142" class="value">87.02</text>
<text x="10" y="174" class="label">socialclub.rockstargames.com</text>
<rect x="180" y="158" width="232.79" height="22" fill="#4c78a8" rx="3"/>
<text x="420.78999999999996" y="174" class="value">89.74</text>
<text x="10" y="206" class="label">unrealengine.com</text>
<rect x="180" y="190" width="232.92" height="22" fill="#4c78a8" rx="3"/>
<text x="420.91999999999996" y="206" class="value">89.79</text>
<text x="10" y="238" class="label">battle.net</text>
<rect x="180" y="222" width="264.95" height="22" fill="#4c78a8" rx="3"/>
<text x="452.95" y="238" class="value">102.14</text>
<text x="10" y="270" class="label">static3.cdn.ubi.com</text>
<rect x="180" y="254" width="338.6" height="22" fill="#4c78a8" rx="3"/>
<text x="526.6" y="270" class="value">130.53</text>
<text x="10" y="302" class="label">ubisoft.com</text>
<rect x="180" y="286" width="400.44" height="22" fill="#4c78a8" rx="3"/>
<text x="588.44" y="302" class="value">154.37</text>
<text x="10" y="334" class="label">epicgames.com</text>
<rect x="180" y="318" width="409.96" height="22" fill="#4c78a8" rx="3"/>
<text x="597.96" y="334" class="value">158.04</text>
<text x="10" y="366" class="label">steamcdn-a.akamaihd.net</text>
<rect x="180" y="350" width="442.98" height="22" fill="#4c78a8" rx="3"/>
<text x="630.98" y="366" class="value">170.77</text>
<text x="10" y="398" class="label">ea.com</text>
<rect x="180" y="382" width="468.61" height="22" fill="#4c78a8" rx="3"/>
<text x="656.61" y="398" class="value">180.65</text>
<text x="10" y="430" class="label">origin.com</text>
<rect x="180" y="414" width="509.6" height="22" fill="#4c78a8" rx="3"/>
<text x="697.6" y="430" class="value">196.45</text>
<text x="10" y="462" class="label">launcher-public-service-prod06.ol.epicgames.com</text>
<rect x="180" y="446" width="563.97" height="22" fill="#4c78a8" rx="3"/>
<text x="751.97" y="462" class="value">217.41</text>
<text x="10" y="494" class="label">easyanticheat.net</text>
<rect x="180" y="478" width="580.0" height="22" fill="#4c78a8" rx="3"/>
<text x="768.0" y="494" class="value">223.59</text>
<line x1="180" y1="30" x2="180" y2="520" stroke="#ccc"/>
<line x1="180" y1="520" x2="760" y2="520" stroke="#ccc"/>
</svg>