<svg xmlns="http://www.w3.org/2000/svg" width="800" height="540">
<style> .label{font-family:DejaVu Sans,Verdana,Geneva,sans-serif;font-size:12px;fill:#333} .value{font-family:DejaVu Sans,Verdana,Geneva,sans-serif;font-size:12px;fill:#555} </style>
<text x="10" y="20" class="label">延迟柱状图（越低越好，Top 15），单位 ms</text>
<text x="10" y="46" class="label">rockstargames.com</text>
<rect x="180" y="30" width="241.96" height="22" fill="#4c78a8" rx="3"/>
<text x="429.96000000000004" y="46" class="value">74.42</text>
<text x="10" y="78" class="label">blizzard.com</text>
<rect x="180" y="62" width="295.8" height="22" fill="#4c78a8" rx="3"/>
<text x="483.8" y="78" class="value">90.98</text>
<text x="10" y="110" class="label">eaassets-a.akamaihd.net</text>
<rect x="180" y="94" width="314.04" height="22" fill="#4c78a8" rx="3"/>
<text x="502.04" y="110" class="value">96.59</text>
<text x="10" y="142" class="label">socialclub.rockstargames.com</text>
<rect x="180" y="126" width="368.93" height="22" fill="#4c78a8" rx="3"/>
<text x="556.9300000000001" y="142" class="value">113.47</text>
<text x="10" y="174" class="label">battle.net</text>
<rect x="180" y="158" width="439.15" height="22" fill="#4c78a8" rx="3"/>
<text x="627.15" y="174" class="value">135.07</text>
<text x="10" y="206" class="label">origin.com</text>
<rect x="180" y="190" width="487.63" height="22" fill="#4c78a8" rx="3"/>
<text x="675.63" y="206" class="value">149.98</text>
<text x="10" y="238" class="label">cdn.akamai.steamstatic.com</text>
<rect x="180" y="222" width="489.39" height="22" fill="#4c78a8" rx="3"/>
<text x="677.39" y="238" class="value">150.52</text>
<text x="10" y="270" class="label">epicgames.com</text>
<rect x="180" y="254" width="510.06" height="22" fill="#4c78a8" rx="3"/>
<text x="698.06" y="270" class="value">156.88</text>
<text x="10" y="302" class="label">easyanticheat.net</text>
<rect x="180" y="286" width="522.71" height="22" fill="#4c78a8" rx="3"/>
<text x="710.71" y="302" class="value">160.77</text>
<text x="10" y="334" class="label">ubi.com</text>
<rect x="180" y="318" width="526.42" height="22" fill="#4c78a8" rx="3"/>
<text x="714.42" y="334" class="value">161.91</text>
<text x="10" y="366" class="label">launcher-public-service-prod06.ol.epicgames.com</text>
<rect x="180" y="350" width="526.91" height="22" fill="#4c78a8" rx="3"/>
<text x="714.91" y="366" class="value">162.06</text>
<text x="10" y="398" class="label">ea.com</text>
<rect x="180" y="382" width="541.24" height="22" fill="#4c78a8" rx="3"/>
<text x="729.24" y="398" class="value">166.47</text>
<text x="10" y="430" class="label">fortnite.com</text>
<rect x="180" y="414" width="577.85" height="22" fill="#4c78a8" rx="3"/>
<text x="765.85" y="430" class="value">177.73</text>
<text x="10" y="462" class="label">static3.cdn.ubi.com</text>
<rect x="180" y="446" width="578.21" height="22" fill="#4c78a8" rx="3"/>
<text x="766.21" y="462" class="value">177.84</text>
<text x="10" y="494" class="label">steam-chat.com</text>
<rect x="180" y="478" width="580.0" height="22" fill="#4c78a8" rx="3"/>
<text x="768.0" y="494" class="value">178.39</text>
<line x1="180" y1="30" x2="180" y2="520" stroke="#ccc"/>
<line x1="180" y1="520" x2="760" y2="520" stroke="#ccc"/>
</svg>