<svg xmlns="http://www.w3.org/2000/svg" width="800" height="540">
<style> .label{font-family:DejaVu Sans,Verdana,Geneva,sans-serif;font-size:12px;fill:#333} .value{font-family:DejaVu Sans,Verdana,Geneva,sans-serif;font-size:12px;fill:#555} </style>
<text x="10" y="20" class="label">延迟柱状图（越低越好，Top 15），单位 ms</text>
<text x="10" y="46" class="label">rockstargames.com</text>
<rect x="180" y="30" width="108.23" height="22" fill="#4c78a8" rx="3"/>
<text x="296.23" y="46" class="value">43.49</text>
<text x="10" y="78" class="label">store.akamai.steamstatic.com</text>
<rect x="180" y="62" width="274.11" height="22" fill="#4c78a8" rx="3"/>
<text x="462.11" y="78" class="value">110.15</text>
<text x="10" y="110" class="label">steamcdn-a.akamaihd.net</text>
<rect x="180" y="94" width="287.5" height="22" fill="#4c78a8" rx="3"/>
<text x="475.5" y="110" class="value">115.53</text>
<text x="10" y="142" class="label">ea.com</text>
<rect x="180" y="126" width="294.52" height="22" fill="#4c78a8" rx="3"/>
<text x="482.52" y="142" class="value">118.35</text>
<text x="10" y="174" class="label">ubi.com</text>
<rect x="180" y="158" width="304.77" height="22" fill="#4c78a8" rx="3"/>
<text x="492.77" y="174" class="value">122.47</text>
<text x="10" y="206" class="label">blizzard.com</text>
<rect x="180" y="190" width="333.29" height="22" fill="#4c78a8" rx="3"/>
<text x="521.29" y="206" class="value">133.93</text>
<text x="10" y="238" class="label">cdn.cloudflare.steamstatic.com</text>
<rect x="180" y="222" width="340.38" height="22" fill="#4c78a8" rx="3"/>
<text x="528.38" y="238" class="value">136.78</text>
<text x="10" y="270" class="label">battle.net</text>
<rect x="180" y="254" width="351.43" height="22" fill="#4c78a8" rx="3"/>
<text x="539.4300000000001" y="270" class="value">141.22</text>
<text x="10" y="302" class="label">socialclub.rockstargames.com</text>
<rect x="180" y="286" width="369.17" height="22" fill="#4c78a8" rx="3"/>
<text x="557.1700000000001" y="302" class="value">148.35</text>
<text x="10" y="334" class="label">origin.com</text>
<rect x="180" y="318" width="446.37" height="22" fill="#4c78a8" rx="3"/>
<text x="634.37" y="334" class="value">179.37</text>
<text x="10" y="366" class="label">steam-chat.com</text>
<rect x="180" y="350" width="449.38" height="22" fill="#4c78a8" rx="3"/>
<text x="637.38" y="366" class="value">180.58</text>
<text x="10" y="398" class="label">www.steamcommunity.com</text>
<rect x="180" y="382" width="454.55" height="22" fill="#4c78a8" rx="3"/>
<text x="642.55" y="398" class="value">182.66</text>
<text x="10" y="430" class="label">static3.cdn.ubi.com</text>
<rect x="180" y="414" width="490.49" height="22" fill="#4c78a8" rx="3"/>
<text x="678.49" y="430" class="value">197.10</text>
<text x="10" y="462" class="label">cdn.akamai.steamstatic.com</text>
<rect x="180" y="446" width="565.62" height="22" fill="#4c78a8" rx="3"/>
<text x="753.62" y="462" class="value">227.29</text>
<text x="10" y="494" class="label">ubisoft.com</text>
<rect x="180" y="478" width="580.0" height="22" fill="#4c78a8" rx="3"/>
<text x="768.0" y="494" class="value">233.07</text>
<line x1="180" y1="30" x2="180" y2="520" stroke="#ccc"/>
<line x1="180" y1="520" x2="760" y2="520" stroke="#ccc"/>
</svg>