<svg xmlns="http://www.w3.org/2000/svg" width="800" height="540">
<style> .label{font-family:DejaVu Sans,Verdana,Geneva,sans-serif;font-size:12px;fill:#333} .value{font-family:DejaVu Sans,Verdana,Geneva,sans-serif;font-size:12px;fill:#555} </style>
<text x="10" y="20" class="label">延迟柱状图（越低越好，Top 15），单位 ms</text>
<text x="10" y="46" class="label">ea.com</text>
<rect x="180" y="30" width="133.26" height="22" fill="#4c78a8" rx="3"/>
<text x="321.26" y="46" class="value">59.13</text>
<text x="10" y="78" class="label">eaassets-a.akamaihd.net</text>
<rect x="180" y="62" width="165.35" height="22" fill="#4c78a8" rx="3"/>
<text x="353.35" y="78" class="value">73.37</text>
<text x="10" y="110" class="label">rockstargames.com</text>
<rect x="180" y="94" width="186.83" height="22" fill="#4c78a8" rx="3"/>
<text x="374.83000000000004" y="110" class="value">82.90</text>
<text x="10" y="142" class="label">store.akamai.steamstatic.com</text>
<rect x="180" y="126" width="208.28" height="22" fill="#4c78a8" rx="3"/>
<text x="396.28" y="142" class="value">92.42</text>
<text x="10" y="174" class="label">ubisoft.com</text>
<rect x="180" y="158" width="221.67" height="22" fill="#4c78a8" rx="3"/>
<text x="409.66999999999996" y="174" class="value">98.36</text>
<text x="10" y="206" class="label">cdn.cloudflare.steamstatic.com</text>
<rect x="180" y="190" width="250.63" height="22" fill="#4c78a8" rx="3"/>
<text x="438.63" y="206" class="value">111.21</text>
<text x="10" y="238" class="label">steamcdn-a.akamaihd.net</text>
<rect x="180" y="222" width="274.88" height="22" fill="#4c78a8" rx="3"/>
<text x="462.88" y="238" class="value">121.97</text>
<text x="10" y="270" class="label">community.akamai.steamstatic.com</text>
<rect x="180" y="254" width="361.89" height="22" fill="#4c78a8" rx="3"/>
<text x="549.89" y="270" class="value">160.58</text>
<text x="10" y="302" class="label">easyanticheat.net</text>
<rect x="180" y="286" width="380.6" height="22" fill="#4c78a8" rx="3"/>
<text x="568.6" y="302" class="value">168.88</text>
<text x="10" y="334" class="label">origin.com</text>
<rect x="180" y="318" width="393.65" height="22" fill="#4c78a8" rx="3"/>
<text x="581.65" y="334" class="value">174.67</text>
<text x="10" y="366" class="label">cdn.akamai.steamstatic.com</text>
<rect x="180" y="350" width="448.12" height="22" fill="#4c78a8" rx="3"/>
<text x="636.12" y="366" class="value">198.84</text>
<text x="10" y="398" class="label">steam-chat.com</text>
<rect x="180" y="382" width="537.25" height="22" fill="#4c78a8" rx="3"/>
<text x="725.25" y="398" class="value">238.39</text>
<text x="10" y="430" class="label">api.steampowered.com</text>
<rect x="180" y="414" width="554.13" height="22" fill="#4c78a8" rx="3"/>
<text x="742.13" y="430" class="value">245.88</text>
<text x="10" y="462" class="label">launcher-public-service-prod06.ol.epicgames.com</text>
<rect x="180" y="446" width="566.07" height="22" fill="#4c78a8" rx="3"/>
<text x="754.07" y="462" class="value">251.18</text>
<text x="10" y="494" class="label">gog.com</text>
<rect x="180" y="478" width="580.0" height="22" fill="#4c78a8" rx="3"/>
<text x="768.0" y="494" class="value">257.36</text>
<line x1="180" y1="30" x2="180" y2="520" stroke="#ccc"/>
<line x1="180" y1="520" x2="760" y2="520" stroke="#ccc"/>
</svg>