<svg xmlns="http://www.w3.org/2000/svg" width="800" height="540">
<style> .label{font-family:DejaVu Sans,Verdana,Geneva,sans-serif;font-size:12px;fill:#333} .value{font-family:DejaVu Sans,Verdana,Geneva,sans-serif;font-size:12px;fill:#555} </style>
<text x="10" y="20" class="label">延迟柱状图（越低越好，Top 15），单位 ms</text>
<text x="10" y="46" class="label">rockstargames.com</text>
<rect x="180" y="30" width="177.59" height="22" fill="#4c78a8" rx="3"/>
<text x="365.59000000000003" y="46" class="value">67.41</text>
<text x="10" y="78" class="label">eaassets-a.akamaihd.net</text>
<rect x="180" y="62" width="178.4" height="22" fill="#4c78a8" rx="3"/>
<text x="366.4" y="78" class="value">67.72</text>
<text x="10" y="110" class="label">steamcdn-a.akamaihd.net</text>
<rect x="180" y="94" width="184.44" height="22" fill="#4c78a8" rx="3"/>
<text x="372.44" y="110" class="value">70.01</text>
<text x="10" y="142" class="label">ea.com</text>
<rect x="180" y="126" width="246.95" height="22" fill="#4c78a8" rx="3"/>
<text x="434.95" y="142" class="value">93.74</text>
<text x="10" y="174" class="label">ubisoft.com</text>
<rect x="180" y="158" width="301.91" height="22" fill="#4c78a8" rx="3"/>
<text x="489.91" y="174" class="value">114.60</text>
<text x="10" y="206" class="label">blizzard.com</text>
<rect x="180" y="190" width="348.91" height="22" fill="#4c78a8" rx="3"/>
<text x="536.9100000000001" y="206" class="value">132.44</text>
<text x="10" y="238" class="label">battle.net</text>
<rect x="180" y="222" width="364.87" height="22" fill="#4c78a8" rx="3"/>
<text x="552.87" y="238" class="value">138.50</text>
<text x="10" y="270" class="label">ubi.com</text>
<rect x="180" y="254" width="393.16" height="22" fill="#4c78a8" rx="3"/>
<text x="581.1600000000001" y="270" class="value">149.24</text>
<text x="10" y="302" class="label">socialclub.rockstargames.com</text>
<rect x="180" y="286" width="414.64" height="22" fill="#4c78a8" rx="3"/>
<text x="602.64" y="302" class="value">157.39</text>
<text x="10" y="334" class="label">store.akamai.steamstatic.com</text>
<rect x="180" y="318" width="453.76" height="22" fill="#4c78a8" rx="3"/>
<text x="641.76" y="334" class="value">172.24</text>
<text x="10" y="366" class="label">origin.com</text>
<rect x="180" y="350" width="464.14" height="22" fill="#4c78a8" rx="3"/>
<text x="652.14" y="366" class="value">176.18</text>
<text x="10" y="398" class="label">community.akamai.steamstatic.com</text>
<rect x="180" y="382" width="484.4" height="22" fill="#4c78a8" rx="3"/>
<text x="672.4" y="398" class="value">183.87</text>
<text x="10" y="430" class="label">gog.com</text>
<rect x="180" y="414" width="513.01" height="22" fill="#4c78a8" rx="3"/>
<text x="701.01" y="430" class="value">194.73</text>
<text x="10" y="462" class="label">steamcommunity.com</text>
<rect x="180" y="446" width="532.37" height="22" fill="#4c78a8" rx="3"/>
<text x="720.37" y="462" class="value">202.08</text>
<text x="10" y="494" class="label">easyanticheat.net</text>
<rect x="180" y="478" width="580.0" height="22" fill="#4c78a8" rx="3"/>
<text x="768.0" y="494" class="value">220.16</text>
<line x1="180" y1="30" x2="180" y2="520" stroke="#ccc"/>
<line x1="180" y1="520" x2="760" y2="520" stroke="#ccc"/>
</svg>