<svg xmlns="http://www.w3.org/2000/svg" width="800" height="540">
<style> .label{font-family:DejaVu Sans,Verdana,Geneva,sans-serif;font-size:12px;fill:#333} .value{font-family:DejaVu Sans,Verdana,Geneva,sans-serif;font-size:12px;fill:#555} </style>
<text x="10" y="20" class="label">延迟柱状图（越低越好，Top 15），单位 ms</text>
<text x="10" y="46" class="label">rockstargames.com</text>
<rect x="180" y="30" width="197.58" height="22" fill="#4c78a8" rx="3"/>
<text x="385.58000000000004" y="46" class="value">65.05</text>
<text x="10" y="78" class="label">eaassets-a.akamaihd.net</text>
<rect x="180" y="62" width="246.87" height="22" fill="#4c78a8" rx="3"/>
<text x="434.87" y="78" class="value">81.28</text>
<text x="10" y="110" class="label">ea.com</text>
<rect x="180" y="94" width="247.02" height="22" fill="#4c78a8" rx="3"/>
<text x="435.02" y="110" class="value">81.33</text>
<text x="10" y="142" class="label">cdn.akamai.steamstatic.com</text>
<rect x="180" y="126" width="294.95" height="22" fill="#4c78a8" rx="3"/>
<text x="482.95" y="142" class="value">97.11</text>
<text x="10" y="174" class="label">origin.com</text>
<rect x="180" y="158" width="380.54" height="22" fill="#4c78a8" rx="3"/>
<text x="568.54" y="174" class="value">125.29</text>
<text x="10" y="206" class="label">easyanticheat.net</text>
<rect x="180" y="190" width="412.8" height="22" fill="#4c78a8" rx="3"/>
<text x="600.8" y="206" class="value">135.91</text>
<text x="10" y="238" class="label">store.akamai.steamstatic.com</text>
<rect x="180" y="222" width="415.5" height="22" fill="#4c78a8" rx="3"/>
<text x="603.5" y="238" class="value">136.80</text>
<text x="10" y="270" class="label">ubi.com</text>
<rect x="180" y="254" width="418.63" height="22" fill="#4c78a8" rx="3"/>
<text x="606.63" y="270" class="value">137.83</text>
<text x="10" y="302" class="label">community.akamai.steamstatic.com</text>
<rect x="180" y="286" width="443.26" height="22" fill="#4c78a8" rx="3"/>
<text x="631.26" y="302" class="value">145.94</text>
<text x="10" y="334" class="label">steamcdn-a.akamaihd.net</text>
<rect x="180" y="318" width="443.66" height="22" fill="#4c78a8" rx="3"/>
<text x="631.6600000000001" y="334" class="value">146.07</text>
<text x="10" y="366" class="label">blizzard.com</text>
<rect x="180" y="350" width="489.31" height="22" fill="#4c78a8" rx="3"/>
<text x="677.31" y="366" class="value">161.10</text>
<text x="10" y="398" class="label">battle.net</text>
<rect x="180" y="382" width="493.44" height="22" fill="#4c78a8" rx="3"/>
<text x="681.44" y="398" class="value">162.46</text>
<text x="10" y="430" class="label">gog.com</text>
<rect x="180" y="414" width="499.63" height="22" fill="#4c78a8" rx="3"/>
<text x="687.63" y="430" class="value">164.50</text>
<text x="10" y="462" class="label">steamcommunity.com</text>
<rect x="180" y="446" width="563.08" height="22" fill="#4c78a8" rx="3"/>
<text x="751.08" y="462" class="value">185.39</text>
<text x="10" y="494" class="label">api.steampowered.com</text>
<rect x="180" y="478" width="580.0" height="22" fill="#4c78a8" rx="3"/>
<text x="768.0" y="494" class="value">190.96</text>
<line x1="180" y1="30" x2="180" y2="520" stroke="#ccc"/>
<line x1="180" y1="520" x2="760" y2="520" stroke="#ccc"/>
</svg>