<svg xmlns="http://www.w3.org/2000/svg" width="800" height="540">
<style> .label{font-family:DejaVu Sans,Verdana,Geneva,sans-serif;font-size:12px;fill:#333} .value{font-family:DejaVu Sans,Verdana,Geneva,sans-serif;font-size:12px;fill:#555} </style>
<text x="10" y="20" class="label">延迟柱状图（越低越好，Top 15），单位 ms</text>
<text x="10" y="46" class="label">rockstargames.com</text>
<rect x="180" y="30" width="85.69" height="22" fill="#4c78a8" rx="3"/>
<text x="273.69" y="46" class="value">40.68</text>
<text x="10" y="78" class="label">eaassets-a.akamaihd.net</text>
<rect x="180" y="62" width="100.29" height="22" fill="#4c78a8" rx="3"/>
<text x="288.29" y="78" class="value">47.61</text>
<text x="10" y="110" class="label">ea.com</text>
<rect x="180" y="94" width="195.47" height="22" fill="#4c78a8" rx="3"/>
<text x="383.47" y="110" class="value">92.79</text>
<text x="10" y="142" class="label">ubisoft.com</text>
<rect x="180" y="126" width="229.83" height="22" fill="#4c78a8" rx="3"/>
<text x="417.83000000000004" y="142" class="value">109.10</text>
<text x="10" y="174" class="label">easyanticheat.net</text>
<rect x="180" y="158" width="267.87" height="22" fill="#4c78a8" rx="3"/>
<text x="455.87" y="174" class="value">127.16</text>
<text x="10" y="206" class="label">store.akamai.steamstatic.com</text>
<rect x="180" y="190" width="275.96" height="22" fill="#4c78a8" rx="3"/>
<text x="463.96" y="206" class="value">131.00</text>
<text x="10" y="238" class="label">cdn.cloudflare.steamstatic.com</text>
<rect x="180" y="222" width="283.04" height="22" fill="#4c78a8" rx="3"/>
<text x="471.04" y="238" class="value">134.36</text>
<text x="10" y="270" class="label">cdn.akamai.steamstatic.com</text>
<rect x="180" y="254" width="312.15" height="22" fill="#4c78a8" rx="3"/>
<text x="500.15" y="270" class="value">148.18</text>
<text x="10" y="302" class="label">steamcdn-a.akamaihd.net</text>
<rect x="180" y="286" width="385.27" height="22" fill="#4c78a8" rx="3"/>
<text x="573.27" y="302" class="value">182.89</text>
<text x="10" y="334" class="label">origin.com</text>
<rect x="180" y="318" width="397.19" height="22" fill="#4c78a8" rx="3"/>
<text x="585.19" y="334" class="value">188.55</text>
<text x="10" y="366" class="label">community.akamai.steamstatic.com</text>
<rect x="180" y="350" width="410.21" height="22" fill="#4c78a8" rx="3"/>
<text x="598.21" y="366" class="value">194.73</text>
<text x="10" y="398" class="label">steam-chat.com</text>
<rect x="180" y="382" width="480.89" height="22" fill="#4c78a8" rx="3"/>
<text x="668.89" y="398" class="value">228.28</text>
<text x="10" y="430" class="label">api.steampowered.com</text>
<rect x="180" y="414" width="527.27" height="22" fill="#4c78a8" rx="3"/>
<text x="715.27" y="430" class="value">250.30</text>
<text x="10" y="462" class="label">www.steamcommunity.com</text>
<rect x="180" y="446" width="571.22" height="22" fill="#4c78a8" rx="3"/>
<text x="759.22" y="462" class="value">271.16</text>
<text x="10" y="494" class="label">launcher-public-service-prod06.ol.epicgames.com</text>
<rect x="180" y="478" width="580.0" height="22" fill="#4c78a8" rx="3"/>
<text x="768.0" y="494" class="value">275.33</text>
<line x1="180" y1="30" x2="180" y2="520" stroke="#ccc"/>
<line x1="180" y1="520" x2="760" y2="520" stroke="#ccc"/>
</svg>