<svg xmlns="http://www.w3.org/2000/svg" width="800" height="540">
<style> .label{font-family:DejaVu Sans,Verdana,Geneva,sans-serif;font-size:12px;fill:#333} .value{font-family:DejaVu Sans,Verdana,Geneva,sans-serif;font-size:12px;fill:#555} </style>
<text x="10" y="20" class="label">延迟柱状图（越低越好，Top 15），单位 ms</text>
<text x="10" y="46" class="label">blizzard.com</text>
<rect x="180" y="30" width="150.3" height="22" fill="#4c78a8" rx="3"/>
<text x="338.3" y="46" class="value">54.27</text>
<text x="10" y="78" class="label">rockstargames.com</text>
<rect x="180" y="62" width="171.82" height="22" fill="#4c78a8" rx="3"/>
<text x="359.82" y="78" class="value">62.04</text>
<text x="10" y="110" class="label">eaassets-a.akamaihd.net</text>
<rect x="180" y="94" width="252.08" height="22" fill="#4c78a8" rx="3"/>
<text x="440.08000000000004" y="110" class="value">91.02</text>
<text x="10" y="142" class="label">ea.com</text>
<rect x="180" y="126" width="265.05" height="22" fill="#4c78a8" rx="3"/>
<text x="453.05" y="142" class="value">95.70</text>
<text x="10" y="174" class="label">socialclub.rockstargames.com</text>
<rect x="180" y="158" width="282.41" height="22" fill="#4c78a8" rx="3"/>
<text x="470.41" y="174" class="value">101.97</text>
<text x="10" y="206" class="label">store.akamai.steamstatic.com</text>
<rect x="180" y="190" width="282.97" height="22" fill="#4c78a8" rx="3"/>
<text x="470.97" y="206" class="value">102.17</text>
<text x="10" y="238" class="label">ubisoft.com</text>
<rect x="180" y="222" width="298.5" height="22" fill="#4c78a8" rx="3"/>
<text x="486.5" y="238" class="value">107.78</text>
<text x="10" y="270" class="label">battle.net</text>
<rect x="180" y="254" width="360.73" height="22" fill="#4c78a8" rx="3"/>
<text x="548.73" y="270" class="value">130.25</text>
<text x="10" y="302" class="label">ubi.com</text>
<rect x="180" y="286" width="394.5" height="22" fill="#4c78a8" rx="3"/>
<text x="582.5" y="302" class="value">142.44</text>
<text x="10" y="334" class="label">community.akamai.steamstatic.com</text>
<rect x="180" y="318" width="404.3" height="22" fill="#4c78a8" rx="3"/>
<text x="592.3" y="334" class="value">145.98</text>
<text x="10" y="366" class="label">fortnite.com</text>
<rect x="180" y="350" width="445.98" height="22" fill="#4c78a8" rx="3"/>
<text x="633.98" y="366" class="value">161.03</text>
<text x="10" y="398" class="label">epicgames.com</text>
<rect x="180" y="382" width="484.45" height="22" fill="#4c78a8" rx="3"/>
<text x="672.45" y="398" class="value">174.92</text>
<text x="10" y="430" class="label">steamcdn-a.akamaihd.net</text>
<rect x="180" y="414" width="490.93" height="22" fill="#4c78a8" rx="3"/>
<text x="678.9300000000001" y="430" class="value">177.26</text>
<text x="10" y="462" class="label">origin.com</text>
<rect x="180" y="446" width="527.32" height="22" fill="#4c78a8" rx="3"/>
<text x="715.32" y="462" class="value">190.40</text>
<text x="10" y="494" class="label">unrealengine.com</text>
<rect x="180" y="478" width="580.0" height="22" fill="#4c78a8" rx="3"/>
<text x="768.0" y="494" class="value">209.42</text>
<line x1="180" y1="30" x2="180" y2="520" stroke="#ccc"/>
<line x1="180" y1="520" x2="760" y2="520" stroke="#ccc"/>
</svg>