<svg xmlns="http://www.w3.org/2000/svg" width="800" height="540">
<style> .label{font-family:DejaVu Sans,Verdana,Geneva,sans-serif;font-size:12px;fill:#333} .value{font-family:DejaVu Sans,Verdana,Geneva,sans-serif;font-size:12px;fill:#555} </style>
<text x="10" y="20" class="label">延迟柱状图（越低越好，Top 15），单位 ms</text>
<text x="10" y="46" class="label">rockstargames.com</text>
<rect x="180" y="30" width="272.57" height="22" fill="#4c78a8" rx="3"/>
<text x="460.57" y="46" class="value">105.69</text>
<text x="10" y="78" class="label">eaassets-a.akamaihd.net</text>
<rect x="180" y="62" width="360.53" height="22" fill="#4c78a8" rx="3"/>
<text x="548.53" y="78" class="value">139.80</text>
<text x="10" y="110" class="label">ea.com</text>
<rect x="180" y="94" width="366.59" height="22" fill="#4c78a8" rx="3"/>
<text x="554.5899999999999" y="110" class="value">142.15</text>
<text x="10" y="142" class="label">origin.com</text>
<rect x="180" y="126" width="382.04" height="22" fill="#4c78a8" rx="3"/>
<text x="570.04" y="142" class="value">148.14</text>
<text x="10" y="174" class="label">ubisoft.com</text>
<rect x="180" y="158" width="406.83" height="22" fill="#4c78a8" rx="3"/>
<text x="594.8299999999999" y="174" class="value">157.75</text>
<text x="10" y="206" class="label">store.akamai.steamstatic.com</text>
<rect x="180" y="190" width="448.42" height="22" fill="#4c78a8" rx="3"/>
<text x="636.4200000000001" y="206" class="value">173.88</text>
<text x="10" y="238" class="label">easyanticheat.net</text>
<rect x="180" y="222" width="450.25" height="22" fill="#4c78a8" rx="3"/>
<text x="638.25" y="238" class="value">174.59</text>
<text x="10" y="270" class="label">steamcdn-a.akamaihd.net</text>
<rect x="180" y="254" width="457.81" height="22" fill="#4c78a8" rx="3"/>
<text x="645.81" y="270" class="value">177.52</text>
<text x="10" y="302" class="label">www.steamcommunity.com</text>
<rect x="180" y="286" width="515.06" height="22" fill="#4c78a8" rx="3"/>
<text x="703.06" y="302" class="value">199.72</text>
<text x="10" y="334" class="label">cdn.akamai.steamstatic.com</text>
<rect x="180" y="318" width="516.3" height="22" fill="#4c78a8" rx="3"/>
<text x="704.3" y="334" class="value">200.20</text>
<text x="10" y="366" class="label">ubi.com</text>
<rect x="180" y="350" width="523.01" height="22" fill="#4c78a8" rx="3"/>
<text x="711.01" y="366" class="value">202.80</text>
<text x="10" y="398" class="label">launcher-public-service-prod06.ol.epicgames.com</text>
<rect x="180" y="382" width="530.74" height="22" fill="#4c78a8" rx="3"/>
<text x="718.74" y="398" class="value">205.80</text>
<text x="10" y="430" class="label">api.steampowered.com</text>
<rect x="180" y="414" width="553.18" height="22" fill="#4c78a8" rx="3"/>
<text x="741.18" y="430" class="value">214.50</text>
<text x="10" y="462" class="label">battle.net</text>
<rect x="180" y="446" width="555.91" height="22" fill="#4c78a8" rx="3"/>
<text x="743.91" y="462" class="value">215.56</text>
<text x="10" y="494" class="label">blizzard.com</text>
<rect x="180" y="478" width="580.0" height="22" fill="#4c78a8" rx="3"/>
<text x="768.0" y="494" class="value">224.90</text>
<line x1="180" y1="30" x2="180" y2="520" stroke="#ccc"/>
<line x1="180" y1="520" x2="760" y2="520" stroke="#ccc"/>
</svg>