<svg xmlns="http://www.w3.org/2000/svg" width="800" height="540">
<style> .label{font-family:DejaVu Sans,Verdana,Geneva,sans-serif;font-size:12px;fill:#333} .value{font-family:DejaVu Sans,Verdana,Geneva,sans-serif;font-size:12px;fill:#555} </style>
<text x="10" y="20" class="label">延迟柱状图（越低越好，Top 15），单位 ms</text>
<text x="10" y="46" class="label">ea.com</text>
<rect x="180" y="30" width="143.04" height="22" fill="#4c78a8" rx="3"/>
<text x="331.03999999999996" y="46" class="value">70.60</text>
<text x="10" y="78" class="label">rockstargames.com</text>
<rect x="180" y="62" width="188.27" height="22" fill="#4c78a8" rx="3"/>
<text x="376.27" y="78" class="value">92.92</text>
<text x="10" y="110" class="label">origin.com</text>
<rect x="180" y="94" width="207.37" height="22" fill="#4c78a8" rx="3"/>
<text x="395.37" y="110" class="value">102.35</text>
<text x="10" y="142" class="label">eaassets-a.akamaihd.net</text>
<rect x="180" y="126" width="233.37" height="22" fill="#4c78a8" rx="3"/>
<text x="421.37" y="142" class="value">115.18</text>
<text x="10" y="174" class="label">ubisoft.com</text>
<rect x="180" y="158" width="308.56" height="22" fill="#4c78a8" rx="3"/>
<text x="496.56" y="174" class="value">152.29</text>
<text x="10" y="206" class="label">cdn.cloudflare.steamstatic.com</text>
<rect x="180" y="190" width="321.95" height="22" fill="#4c78a8" rx="3"/>
<text x="509.95" y="206" class="value">158.90</text>
<text x="10" y="238" class="label">community.akamai.steamstatic.com</text>
<rect x="180" y="222" width="355.69" height="22" fill="#4c78a8" rx="3"/>
<text x="543.69" y="238" class="value">175.55</text>
<text x="10" y="270" class="label">store.akamai.steamstatic.com</text>
<rect x="180" y="254" width="377.63" height="22" fill="#4c78a8" rx="3"/>
<text x="565.63" y="270" class="value">186.38</text>
<text x="10" y="302" class="label">steam-chat.com</text>
<rect x="180" y="286" width="416.51" height="22" fill="#4c78a8" rx="3"/>
<text x="604.51" y="302" class="value">205.57</text>
<text x="10" y="334" class="label">steamcdn-a.akamaihd.net</text>
<rect x="180" y="318" width="426.48" height="22" fill="#4c78a8" rx="3"/>
<text x="614.48" y="334" class="value">210.49</text>
<text x="10" y="366" class="label">easyanticheat.net</text>
<rect x="180" y="350" width="438.9" height="22" fill="#4c78a8" rx="3"/>
<text x="626.9" y="366" class="value">216.62</text>
<text x="10" y="398" class="label">cdn.akamai.steamstatic.com</text>
<rect x="180" y="382" width="483.8" height="22" fill="#4c78a8" rx="3"/>
<text x="671.8" y="398" class="value">238.78</text>
<text x="10" y="430" class="label">api.steampowered.com</text>
<rect x="180" y="414" width="485.62" height="22" fill="#4c78a8" rx="3"/>
<text x="673.62" y="430" class="value">239.68</text>
<text x="10" y="462" class="label">launcher-public-service-prod06.ol.epicgames.com</text>
<rect x="180" y="446" width="529.89" height="22" fill="#4c78a8" rx="3"/>
<text x="717.89" y="462" class="value">261.53</text>
<text x="10" y="494" class="label">www.steamcommunity.com</text>
<rect x="180" y="478" width="580.0" height="22" fill="#4c78a8" rx="3"/>
<text x="768.0" y="494" class="value">286.26</text>
<line x1="180" y1="30" x2="180" y2="520" stroke="#ccc"/>
<line x1="180" y1="520" x2="760" y2="520" stroke="#ccc"/>
</svg>