<svg xmlns="http://www.w3.org/2000/svg" width="800" height="540">
<style> .label{font-family:DejaVu Sans,Verdana,Geneva,sans-serif;font-size:12px;fill:#333} .value{font-family:DejaVu Sans,Verdana,Geneva,sans-serif;font-size:12px;fill:#555} </style>
<text x="10" y="20" class="label">延迟柱状图（越低越好，Top 15），单位 ms</text>
<text x="10" y="46" class="label">eaassets-a.akamaihd.net</text>
<rect x="180" y="30" width="76.07" height="22" fill="#4c78a8" rx="3"/>
<text x="264.07" y="46" class="value">38.49</text>
<text x="10" y="78" class="label">rockstargames.com</text>
<rect x="180" y="62" width="142.6" height="22" fill="#4c78a8" rx="3"/>
<text x="330.6" y="78" class="value">72.15</text>
<text x="10" y="110" class="label">ea.com</text>
<rect x="180" y="94" width="159.67" height="22" fill="#4c78a8" rx="3"/>
<text x="347.66999999999996" y="110" class="value">80.79</text>
<text x="10" y="142" class="label">cdn.akamai.steamstatic.com</text>
<rect x="180" y="126" width="219.01" height="22" fill="#4c78a8" rx="3"/>
<text x="407.01" y="142" class="value">110.81</text>
<text x="10" y="174" class="label">steamcdn-a.akamaihd.net</text>
<rect x="180" y="158" width="302.25" height="22" fill="#4c78a8" rx="3"/>
<text x="490.25" y="174" class="value">152.93</text>
<text x="10" y="206" class="label">ubisoft.com</text>
<rect x="180" y="190" width="330.18" height="22" fill="#4c78a8" rx="3"/>
<text x="518.1800000000001" y="206" class="value">167.06</text>
<text x="10" y="238" class="label">cdn.cloudflare.steamstatic.com</text>
<rect x="180" y="222" width="336.09" height="22" fill="#4c78a8" rx="3"/>
<text x="524.0899999999999" y="238" class="value">170.05</text>
<text x="10" y="270" class="label">origin.com</text>
<rect x="180" y="254" width="337.75" height="22" fill="#4c78a8" rx="3"/>
<text x="525.75" y="270" class="value">170.89</text>
<text x="10" y="302" class="label">easyanticheat.net</text>
<rect x="180" y="286" width="372.93" height="22" fill="#4c78a8" rx="3"/>
<text x="560.9300000000001" y="302" class="value">188.69</text>
<text x="10" y="334" class="label">store.akamai.steamstatic.com</text>
<rect x="180" y="318" width="385.03" height="22" fill="#4c78a8" rx="3"/>
<text x="573.03" y="334" class="value">194.81</text>
<text x="10" y="366" class="label">community.akamai.steamstatic.com</text>
<rect x="180" y="350" width="440.03" height="22" fill="#4c78a8" rx="3"/>
<text x="628.03" y="366" class="value">222.64</text>
<text x="10" y="398" class="label">steam-chat.com</text>
<rect x="180" y="382" width="469.81" height="22" fill="#4c78a8" rx="3"/>
<text x="657.81" y="398" class="value">237.71</text>
<text x="10" y="430" class="label">launcher-public-service-prod06.ol.epicgames.com</text>
<rect x="180" y="414" width="507.19" height="22" fill="#4c78a8" rx="3"/>
<text x="695.19" y="430" class="value">256.62</text>
<text x="10" y="462" class="label">battle.net</text>
<rect x="180" y="446" width="578.74" height="22" fill="#4c78a8" rx="3"/>
<text x="766.74" y="462" class="value">292.82</text>
<text x="10" y="494" class="label">blizzard.com</text>
<rect x="180" y="478" width="580.0" height="22" fill="#4c78a8" rx="3"/>
<text x="768.0" y="494" class="value">293.46</text>
<line x1="180" y1="30" x2="180" y2="520" stroke="#ccc"/>
<line x1="180" y1="520" x2="760" y2="520" stroke="#ccc"/>
</svg>