<svg xmlns="http://www.w3.org/2000/svg" width="800" height="540">
<style> .label{font-family:DejaVu Sans,Verdana,Geneva,sans-serif;font-size:12px;fill:#333} .value{font-family:DejaVu Sans,Verdana,Geneva,sans-serif;font-size:12px;fill:#555} </style>
<text x="10" y="20" class="label">延迟柱状图（越低越好，Top 15），单位 ms</text>
<text x="10" y="46" class="label">eaassets-a.akamaihd.net</text>
<rect x="180" y="30" width="204.68" height="22" fill="#4c78a8" rx="3"/>
<text x="392.68" y="46" class="value">108.68</text>
<text x="10" y="78" class="label">community.akamai.steamstatic.com</text>
<rect x="180" y="62" width="222.39" height="22" fill="#4c78a8" rx="3"/>
<text x="410.39" y="78" class="value">118.08</text>
<text x="10" y="110" class="label">steamcdn-a.akamaihd.net</text>
<rect x="180" y="94" width="271.07" height="22" fill="#4c78a8" rx="3"/>
<text x="459.07" y="110" class="value">143.93</text>
<text x="10" y="142" class="label">store.akamai.steamstatic.com</text>
<rect x="180" y="126" width="320.25" height="22" fill="#4c78a8" rx="3"/>
<text x="508.25" y="142" class="value">170.04</text>
<text x="10" y="174" class="label">ea.com</text>
<rect x="180" y="158" width="349.12" height="22" fill="#4c78a8" rx="3"/>
<text x="537.12" y="174" class="value">185.37</text>
<text x="10" y="206" class="label">cdn.cloudflare.steamstatic.com</text>
<rect x="180" y="190" width="422.7" height="22" fill="#4c78a8" rx="3"/>
<text x="610.7" y="206" class="value">224.44</text>
<text x="10" y="238" class="label">origin.com</text>
<rect x="180" y="222" width="429.86" height="22" fill="#4c78a8" rx="3"/>
<text x="617.86" y="238" class="value">228.24</text>
<text x="10" y="270" class="label">ubi.com</text>
<rect x="180" y="254" width="443.85" height="22" fill="#4c78a8" rx="3"/>
<text x="631.85" y="270" class="value">235.67</text>
<text x="10" y="302" class="label">api.steampowered.com</text>
<rect x="180" y="286" width="447.54" height="22" fill="#4c78a8" rx="3"/>
<text x="635.54" y="302" class="value">237.63</text>
<text x="10" y="334" class="label">steam-chat.com</text>
<rect x="180" y="318" width="479.77" height="22" fill="#4c78a8" rx="3"/>
<text x="667.77" y="334" class="value">254.74</text>
<text x="10" y="366" class="label">easyanticheat.net</text>
<rect x="180" y="350" width="494.72" height="22" fill="#4c78a8" rx="3"/>
<text x="682.72" y="366" class="value">262.68</text>
<text x="10" y="398" class="label">steamcommunity.com</text>
<rect x="180" y="382" width="497.3" height="22" fill="#4c78a8" rx="3"/>
<text x="685.3" y="398" class="value">264.05</text>
<text x="10" y="430" class="label">socialclub.rockstargames.com</text>
<rect x="180" y="414" width="503.89" height="22" fill="#4c78a8" rx="3"/>
<text x="691.89" y="430" class="value">267.55</text>
<text x="10" y="462" class="label">ubisoft.com</text>
<rect x="180" y="446" width="512.05" height="22" fill="#4c78a8" rx="3"/>
<text x="700.05" y="462" class="value">271.88</text>
<text x="10" y="494" class="label">cdn.akamai.steamstatic.com</text>
<rect x="180" y="478" width="580.0" height="22" fill="#4c78a8" rx="3"/>
<text x="768.0" y="494" class="value">307.96</text>
<line x1="180" y1="30" x2="180" y2="520" stroke="#ccc"/>
<line x1="180" y1="520" x2="760" y2="520" stroke="#ccc"/>
</svg>