<svg xmlns="http://www.w3.org/2000/svg" width="800" height="540">
<style> .label{font-family:DejaVu Sans,Verdana,Geneva,sans-serif;font-size:12px;fill:#333} .value{font-family:DejaVu Sans,Verdana,Geneva,sans-serif;font-size:12px;fill:#555} </style>
<text x="10" y="20" class="label">延迟柱状图（越低越好，Top 15），单位 ms</text>
<text x="10" y="46" class="label">rockstargames.com</text>
<rect x="180" y="30" width="165.75" height="22" fill="#4c78a8" rx="3"/>
<text x="353.75" y="46" class="value">71.35</text>
<text x="10" y="78" class="label">eaassets-a.akamaihd.net</text>
<rect x="180" y="62" width="228.82" height="22" fill="#4c78a8" rx="3"/>
<text x="416.82" y="78" class="value">98.50</text>
<text x="10" y="110" class="label">cdn.cloudflare.steamstatic.com</text>
<rect x="180" y="94" width="237.21" height="22" fill="#4c78a8" rx="3"/>
<text x="425.21000000000004" y="110" class="value">102.11</text>
<text x="10" y="142" class="label">ea.com</text>
<rect x="180" y="126" width="240.74" height="22" fill="#4c78a8" rx="3"/>
<text x="428.74" y="142" class="value">103.63</text>
<text x="10" y="174" class="label">origin.com</text>
<rect x="180" y="158" width="290.64" height="22" fill="#4c78a8" rx="3"/>
<text x="478.64" y="174" class="value">125.11</text>
<text x="10" y="206" class="label">ubisoft.com</text>
<rect x="180" y="190" width="331.64" height="22" fill="#4c78a8" rx="3"/>
<text x="519.64" y="206" class="value">142.76</text>
<text x="10" y="238" class="label">static3.cdn.ubi.com</text>
<rect x="180" y="222" width="343.28" height="22" fill="#4c78a8" rx="3"/>
<text x="531.28" y="238" class="value">147.77</text>
<text x="10" y="270" class="label">steamcdn-a.akamaihd.net</text>
<rect x="180" y="254" width="375.76" height="22" fill="#4c78a8" rx="3"/>
<text x="563.76" y="270" class="value">161.75</text>
<text x="10" y="302" class="label">easyanticheat.net</text>
<rect x="180" y="286" width="436.36" height="22" fill="#4c78a8" rx="3"/>
<text x="624.36" y="302" class="value">187.84</text>
<text x="10" y="334" class="label">community.akamai.steamstatic.com</text>
<rect x="180" y="318" width="452.49" height="22" fill="#4c78a8" rx="3"/>
<text x="640.49" y="334" class="value">194.78</text>
<text x="10" y="366" class="label">gog.com</text>
<rect x="180" y="350" width="469.91" height="22" fill="#4c78a8" rx="3"/>
<text x="657.9100000000001" y="366" class="value">202.28</text>
<text x="10" y="398" class="label">store.akamai.steamstatic.com</text>
<rect x="180" y="382" width="473.6" height="22" fill="#4c78a8" rx="3"/>
<text x="661.6" y="398" class="value">203.87</text>
<text x="10" y="430" class="label">cdn.akamai.steamstatic.com</text>
<rect x="180" y="414" width="490.07" height="22" fill="#4c78a8" rx="3"/>
<text x="678.0699999999999" y="430" class="value">210.96</text>
<text x="10" y="462" class="label">steam-chat.com</text>
<rect x="180" y="446" width="527.13" height="22" fill="#4c78a8" rx="3"/>
<text x="715.13" y="462" class="value">226.91</text>
<text x="10" y="494" class="label">api.steampowered.com</text>
<rect x="180" y="478" width="580.0" height="22" fill="#4c78a8" rx="3"/>
<text x="768.0" y="494" class="value">249.67</text>
<line x1="180" y1="30" x2="180" y2="520" stroke="#ccc"/>
<line x1="180" y1="520" x2="760" y2="520" stroke="#ccc"/>
</svg>