<svg xmlns="http://www.w3.org/2000/svg" width="800" height="540">
<style> .label{font-family:DejaVu Sans,Verdana,Geneva,sans-serif;font-size:12px;fill:#333} .value{font-family:DejaVu Sans,Verdana,Geneva,sans-serif;font-size:12px;fill:#555} </style>
<text x="10" y="20" class="label">延迟柱状图（越低越好，Top 15），单位 ms</text>
<text x="10" y="46" class="label">rockstargames.com</text>
<rect x="180" y="30" width="136.97" height="22" fill="#4c78a8" rx="3"/>
<text x="324.97" y="46" class="value">48.71</text>
<text x="10" y="78" class="label">unrealengine.com</text>
<rect x="180" y="62" width="222.12" height="22" fill="#4c78a8" rx="3"/>
<text x="410.12" y="78" class="value">78.99</text>
<text x="10" y="110" class="label">socialclub.rockstargames.com</text>
<rect x="180" y="94" width="231.17" height="22" fill="#4c78a8" rx="3"/>
<text x="419.16999999999996" y="110" class="value">82.21</text>
<text x="10" y="142" class="label">ubi.com</text>
<rect x="180" y="126" width="265.56" height="22" fill="#4c78a8" rx="3"/>
<text x="453.56" y="142" class="value">94.44</text>
<text x="10" y="174" class="label">ubisoft.com</text>
<rect x="180" y="158" width="274.93" height="22" fill="#4c78a8" rx="3"/>
<text x="462.93" y="174" class="value">97.77</text>
<text x="10" y="206" class="label">blizzard.com</text>
<rect x="180" y="190" width="323.91" height="22" fill="#4c78a8" rx="3"/>
<text x="511.91" y="206" class="value">115.19</text>
<text x="10" y="238" class="label">battle.net</text>
<rect x="180" y="222" width="340.42" height="22" fill="#4c78a8" rx="3"/>
<text x="528.4200000000001" y="238" class="value">121.06</text>
<text x="10" y="270" class="label">eaassets-a.akamaihd.net</text>
<rect x="180" y="254" width="403.63" height="22" fill="#4c78a8" rx="3"/>
<text x="591.63" y="270" class="value">143.54</text>
<text x="10" y="302" class="label">static3.cdn.ubi.com</text>
<rect x="180" y="286" width="449.07" height="22" fill="#4c78a8" rx="3"/>
<text x="637.0699999999999" y="302" class="value">159.70</text>
<text x="10" y="334" class="label">steamcdn-a.akamaihd.net</text>
<rect x="180" y="318" width="499.52" height="22" fill="#4c78a8" rx="3"/>
<text x="687.52" y="334" class="value">177.64</text>
<text x="10" y="366" class="label">store.akamai.steamstatic.com</text>
<rect x="180" y="350" width="505.23" height="22" fill="#4c78a8" rx="3"/>
<text x="693.23" y="366" class="value">179.67</text>
<text x="10" y="398" class="label">cdn.cloudflare.steamstatic.com</text>
<rect x="180" y="382" width="526.38" height="22" fill="#4c78a8" rx="3"/>
<text x="714.38" y="398" class="value">187.19</text>
<text x="10" y="430" class="label">origin.com</text>
<rect x="180" y="414" width="527.7" height="22" fill="#4c78a8" rx="3"/>
<text x="715.7" y="430" class="value">187.66</text>
<text x="10" y="462" class="label">fortnite.com</text>
<rect x="180" y="446" width="567.23" height="22" fill="#4c78a8" rx="3"/>
<text x="755.23" y="462" class="value">201.72</text>
<text x="10" y="494" class="label">launcher-public-service-prod06.ol.epicgames.com</text>
<rect x="180" y="478" width="580.0" height="22" fill="#4c78a8" rx="3"/>
<text x="768.0" y="494" class="value">206.26</text>
<line x1="180" y1="30" x2="180" y2="520" stroke="#ccc"/>
<line x1="180" y1="520" x2="760" y2="520" stroke="#ccc"/>
</svg>