<svg xmlns="http://www.w3.org/2000/svg" width="800" height="540">
<style> .label{font-family:DejaVu Sans,Verdana,Geneva,sans-serif;font-size:12px;fill:#333} .value{font-family:DejaVu Sans,Verdana,Geneva,sans-serif;font-size:12px;fill:#555} </style>
<text x="10" y="20" class="label">延迟柱状图（越低越好，Top 15），单位 ms</text>
<text x="10" y="46" class="label">eaassets-a.akamaihd.net</text>
<rect x="180" y="30" width="92.1" height="22" fill="#4c78a8" rx="3"/>
<text x="280.1" y="46" class="value">34.69</text>
<text x="10" y="78" class="label">rockstargames.com</text>
<rect x="180" y="62" width="137.63" height="22" fill="#4c78a8" rx="3"/>
<text x="325.63" y="78" class="value">51.84</text>
<text x="10" y="110" class="label">socialclub.rockstargames.com</text>
<rect x="180" y="94" width="215.15" height="22" fill="#4c78a8" rx="3"/>
<text x="403.15" y="110" class="value">81.04</text>
<text x="10" y="142" class="label">ubi.com</text>
<rect x="180" y="126" width="274.14" height="22" fill="#4c78a8" rx="3"/>
<text x="462.14" y="142" class="value">103.26</text>
<text x="10" y="174" class="label">battle.net</text>
<rect x="180" y="158" width="297.15" height="22" fill="#4c78a8" rx="3"/>
<text x="485.15" y="174" class="value">111.93</text>
<text x="10" y="206" class="label">blizzard.com</text>
<rect x="180" y="190" width="309.82" height="22" fill="#4c78a8" rx="3"/>
<text x="497.82" y="206" class="value">116.70</text>
<text x="10" y="238" class="label">ea.com</text>
<rect x="180" y="222" width="360.26" height="22" fill="#4c78a8" rx="3"/>
<text x="548.26" y="238" class="value">135.70</text>
<text x="10" y="270" class="label">static3.cdn.ubi.com</text>
<rect x="180" y="254" width="430.88" height="22" fill="#4c78a8" rx="3"/>
<text x="618.88" y="270" class="value">162.30</text>
<text x="10" y="302" class="label">epicgames.com</text>
<rect x="180" y="286" width="465.42" height="22" fill="#4c78a8" rx="3"/>
<text x="653.4200000000001" y="302" class="value">175.31</text>
<text x="10" y="334" class="label">unrealengine.com</text>
<rect x="180" y="318" width="475.88" height="22" fill="#4c78a8" rx="3"/>
<text x="663.88" y="334" class="value">179.25</text>
<text x="10" y="366" class="label">ubisoft.com</text>
<rect x="180" y="350" width="518.99" height="22" fill="#4c78a8" rx="3"/>
<text x="706.99" y="366" class="value">195.49</text>
<text x="10" y="398" class="label">origin.com</text>
<rect x="180" y="382" width="530.38" height="22" fill="#4c78a8" rx="3"/>
<text x="718.38" y="398" class="value">199.78</text>
<text x="10" y="430" class="label">cdn.cloudflare.steamstatic.com</text>
<rect x="180" y="414" width="552.1" height="22" fill="#4c78a8" rx="3"/>
<text x="740.1" y="430" class="value">207.96</text>
<text x="10" y="462" class="label">cdn.akamai.steamstatic.com</text>
<rect x="180" y="446" width="562.43" height="22" fill="#4c78a8" rx="3"/>
<text x="750.43" y="462" class="value">211.85</text>
<text x="10" y="494" class="label">fortnite.com</text>
<rect x="180" y="478" width="580.0" height="22" fill="#4c78a8" rx="3"/>
<text x="768.0" y="494" class="value">218.47</text>
<line x1="180" y1="30" x2="180" y2="520" stroke="#ccc"/>
<line x1="180" y1="520" x2="760" y2="520" stroke="#ccc"/>
</svg>