<svg xmlns="http://www.w3.org/2000/svg" width="800" height="540">
<style> .label{font-family:DejaVu Sans,Verdana,Geneva,sans-serif;font-size:12px;fill:#333} .value{font-family:DejaVu Sans,Verdana,Geneva,sans-serif;font-size:12px;fill:#555} </style>
<text x="10" y="20" class="label">延迟柱状图（越低越好，Top 15），单位 ms</text>
<text x="10" y="46" class="label">eaassets-a.akamaihd.net</text>
<rect x="180" y="30" width="134.66" height="22" fill="#4c78a8" rx="3"/>
<text x="322.65999999999997" y="46" class="value">62.47</text>
<text x="10" y="78" class="label">rockstargames.com</text>
<rect x="180" y="62" width="138.56" height="22" fill="#4c78a8" rx="3"/>
<text x="326.56" y="78" class="value">64.28</text>
<text x="10" y="110" class="label">ea.com</text>
<rect x="180" y="94" width="161.84" height="22" fill="#4c78a8" rx="3"/>
<text x="349.84000000000003" y="110" class="value">75.08</text>
<text x="10" y="142" class="label">store.akamai.steamstatic.com</text>
<rect x="180" y="126" width="172.49" height="22" fill="#4c78a8" rx="3"/>
<text x="360.49" y="142" class="value">80.02</text>
<text x="10" y="174" class="label">community.akamai.steamstatic.com</text>
<rect x="180" y="158" width="237.78" height="22" fill="#4c78a8" rx="3"/>
<text x="425.78" y="174" class="value">110.31</text>
<text x="10" y="206" class="label">ubisoft.com</text>
<rect x="180" y="190" width="250.84" height="22" fill="#4c78a8" rx="3"/>
<text x="438.84000000000003" y="206" class="value">116.37</text>
<text x="10" y="238" class="label">cdn.akamai.steamstatic.com</text>
<rect x="180" y="222" width="277.64" height="22" fill="#4c78a8" rx="3"/>
<text x="465.64" y="238" class="value">128.80</text>
<text x="10" y="270" class="label">origin.com</text>
<rect x="180" y="254" width="352.93" height="22" fill="#4c78a8" rx="3"/>
<text x="540.9300000000001" y="270" class="value">163.73</text>
<text x="10" y="302" class="label">steamcdn-a.akamaihd.net</text>
<rect x="180" y="286" width="353.45" height="22" fill="#4c78a8" rx="3"/>
<text x="541.45" y="302" class="value">163.97</text>
<text x="10" y="334" class="label">cdn.cloudflare.steamstatic.com</text>
<rect x="180" y="318" width="382.1" height="22" fill="#4c78a8" rx="3"/>
<text x="570.1" y="334" class="value">177.26</text>
<text x="10" y="366" class="label">gog.com</text>
<rect x="180" y="350" width="523.22" height="22" fill="#4c78a8" rx="3"/>
<text x="711.22" y="366" class="value">242.73</text>
<text x="10" y="398" class="label">api.steampowered.com</text>
<rect x="180" y="382" width="523.35" height="22" fill="#4c78a8" rx="3"/>
<text x="711.35" y="398" class="value">242.79</text>
<text x="10" y="430" class="label">www.steamcommunity.com</text>
<rect x="180" y="414" width="538.35" height="22" fill="#4c78a8" rx="3"/>
<text x="726.35" y="430" class="value">249.75</text>
<text x="10" y="462" class="label">easyanticheat.net</text>
<rect x="180" y="446" width="565.06" height="22" fill="#4c78a8" rx="3"/>
<text x="753.06" y="462" class="value">262.14</text>
<text x="10" y="494" class="label">steam-chat.com</text>
<rect x="180" y="478" width="580.0" height="22" fill="#4c78a8" rx="3"/>
<text x="768.0" y="494" class="value">269.07</text>
<line x1="180" y1="30" x2="180" y2="520" stroke="#ccc"/>
<line x1="180" y1="520" x2="760" y2="520" stroke="#ccc"/>
</svg>