<svg xmlns="http://www.w3.org/2000/svg" width="800" height="540">
<style> .label{font-family:DejaVu Sans,Verdana,Geneva,sans-serif;font-size:12px;fill:#333} .value{font-family:DejaVu Sans,Verdana,Geneva,sans-serif;font-size:12px;fill:#555} </style>
<text x="10" y="20" class="label">延迟柱状图（越低越好，Top 15），单位 ms</text>
<text x="10" y="46" class="label">blizzard.com</text>
<rect x="180" y="30" width="199.7" height="22" fill="#4c78a8" rx="3"/>
<text x="387.7" y="46" class="value">65.85</text>
<text x="10" y="78" class="label">battle.net</text>
<rect x="180" y="62" width="233.49" height="22" fill="#4c78a8" rx="3"/>
<text x="421.49" y="78" class="value">76.99</text>
<text x="10" y="110" class="label">ubi.com</text>
<rect x="180" y="94" width="242.52" height="22" fill="#4c78a8" rx="3"/>
<text x="430.52" y="110" class="value">79.97</text>
<text x="10" y="142" class="label">rockstargames.com</text>
<rect x="180" y="126" width="256.29" height="22" fill="#4c78a8" rx="3"/>
<text x="444.29" y="142" class="value">84.51</text>
<text x="10" y="174" class="label">ea.com</text>
<rect x="180" y="158" width="321.19" height="22" fill="#4c78a8" rx="3"/>
<text x="509.19" y="174" class="value">105.91</text>
<text x="10" y="206" class="label">store.akamai.steamstatic.com</text>
<rect x="180" y="190" width="331.78" height="22" fill="#4c78a8" rx="3"/>
<text x="519.78" y="206" class="value">109.40</text>
<text x="10" y="238" class="label">socialclub.rockstargames.com</text>
<rect x="180" y="222" width="370.2" height="22" fill="#4c78a8" rx="3"/>
<text x="558.2" y="238" class="value">122.07</text>
<text x="10" y="270" class="label">community.akamai.steamstatic.com</text>
<rect x="180" y="254" width="376.81" height="22" fill="#4c78a8" rx="3"/>
<text x="564.81" y="270" class="value">124.25</text>
<text x="10" y="302" class="label">epicgames.com</text>
<rect x="180" y="286" width="396.46" height="22" fill="#4c78a8" rx="3"/>
<text x="584.46" y="302" class="value">130.73</text>
<text x="10" y="334" class="label">eaassets-a.akamaihd.net</text>
<rect x="180" y="318" width="411.08" height="22" fill="#4c78a8" rx="3"/>
<text x="599.0799999999999" y="334" class="value">135.55</text>
<text x="10" y="366" class="label">fortnite.com</text>
<rect x="180" y="350" width="431.07" height="22" fill="#4c78a8" rx="3"/>
<text x="619.0699999999999" y="366" class="value">142.14</text>
<text x="10" y="398" class="label">unrealengine.com</text>
<rect x="180" y="382" width="439.95" height="22" fill="#4c78a8" rx="3"/>
<text x="627.95" y="398" class="value">145.07</text>
<text x="10" y="430" class="label">origin.com</text>
<rect x="180" y="414" width="488.96" height="22" fill="#4c78a8" rx="3"/>
<text x="676.96" y="430" class="value">161.23</text>
<text x="10" y="462" class="label">static3.cdn.ubi.com</text>
<rect x="180" y="446" width="518.16" height="22" fill="#4c78a8" rx="3"/>
<text x="706.16" y="462" class="value">170.86</text>
<text x="10" y="494" class="label">steam-chat.com</text>
<rect x="180" y="478" width="580.0" height="22" fill="#4c78a8" rx="3"/>
<text x="768.0" y="494" class="value">191.25</text>
<line x1="180" y1="30" x2="180" y2="520" stroke="#ccc"/>
<line x1="180" y1="520" x2="760" y2="520" stroke="#ccc"/>
</svg>