<svg xmlns="http://www.w3.org/2000/svg" width="800" height="540">
<style> .label{font-family:DejaVu Sans,Verdana,Geneva,sans-serif;font-size:12px;fill:#333} .value{font-family:DejaVu Sans,Verdana,Geneva,sans-serif;font-size:12px;fill:#555} </style>
<text x="10" y="20" class="label">延迟柱状图（越低越好，Top 15），单位 ms</text>
<text x="10" y="46" class="label">eaassets-a.akamaihd.net</text>
<rect x="180" y="30" width="253.06" height="22" fill="#4c78a8" rx="3"/>
<text x="441.06" y="46" class="value">83.12</text>
<text x="10" y="78" class="label">store.akamai.steamstatic.com</text>
<rect x="180" y="62" width="277.62" height="22" fill="#4c78a8" rx="3"/>
<text x="465.62" y="78" class="value">91.19</text>
<text x="10" y="110" class="label">rockstargames.com</text>
<rect x="180" y="94" width="278.54" height="22" fill="#4c78a8" rx="3"/>
<text x="466.54" y="110" class="value">91.49</text>
<text x="10" y="142" class="label">socialclub.rockstargames.com</text>
<rect x="180" y="126" width="359.03" height="22" fill="#4c78a8" rx="3"/>
<text x="547.03" y="142" class="value">117.93</text>
<text x="10" y="174" class="label">ea.com</text>
<rect x="180" y="158" width="367.65" height="22" fill="#4c78a8" rx="3"/>
<text x="555.65" y="174" class="value">120.76</text>
<text x="10" y="206" class="label">ubi.com</text>
<rect x="180" y="190" width="407.17" height="22" fill="#4c78a8" rx="3"/>
<text x="595.1700000000001" y="206" class="value">133.74</text>
<text x="10" y="238" class="label">battle.net</text>
<rect x="180" y="222" width="446.38" height="22" fill="#4c78a8" rx="3"/>
<text x="634.38" y="238" class="value">146.62</text>
<text x="10" y="270" class="label">blizzard.com</text>
<rect x="180" y="254" width="450.82" height="22" fill="#4c78a8" rx="3"/>
<text x="638.8199999999999" y="270" class="value">148.08</text>
<text x="10" y="302" class="label">ubisoft.com</text>
<rect x="180" y="286" width="483.19" height="22" fill="#4c78a8" rx="3"/>
<text x="671.19" y="302" class="value">158.71</text>
<text x="10" y="334" class="label">steamcdn-a.akamaihd.net</text>
<rect x="180" y="318" width="488.57" height="22" fill="#4c78a8" rx="3"/>
<text x="676.5699999999999" y="334" class="value">160.48</text>
<text x="10" y="366" class="label">cdn.akamai.steamstatic.com</text>
<rect x="180" y="350" width="499.14" height="22" fill="#4c78a8" rx="3"/>
<text x="687.14" y="366" class="value">163.95</text>
<text x="10" y="398" class="label">launcher-public-service-prod06.ol.epicgames.com</text>
<rect x="180" y="382" width="533.08" height="22" fill="#4c78a8" rx="3"/>
<text x="721.08" y="398" class="value">175.10</text>
<text x="10" y="430" class="label">static3.cdn.ubi.com</text>
<rect x="180" y="414" width="534.18" height="22" fill="#4c78a8" rx="3"/>
<text x="722.18" y="430" class="value">175.46</text>
<text x="10" y="462" class="label">epicgames.com</text>
<rect x="180" y="446" width="568.04" height="22" fill="#4c78a8" rx="3"/>
<text x="756.04" y="462" class="value">186.58</text>
<text x="10" y="494" class="label">cdn.cloudflare.steamstatic.com</text>
<rect x="180" y="478" width="580.0" height="22" fill="#4c78a8" rx="3"/>
<text x="768.0" y="494" class="value">190.51</text>
<line x1="180" y1="30" x2="180" y2="520" stroke="#ccc"/>
<line x1="180" y1="520" x2="760" y2="520" stroke="#ccc"/>
</svg>