<svg xmlns="http://www.w3.org/2000/svg" width="800" height="540">
<style> .label{font-family:DejaVu Sans,Verdana,Geneva,sans-serif;font-size:12px;fill:#333} .value{font-family:DejaVu Sans,Verdana,Geneva,sans-serif;font-size:12px;fill:#555} </style>
<text x="10" y="20" class="label">延迟柱状图（越低越好，Top 15），单位 ms</text>
<text x="10" y="46" class="label">rockstargames.com</text>
<rect x="180" y="30" width="186.52" height="22" fill="#4c78a8" rx="3"/>
<text x="374.52" y="46" class="value">82.00</text>
<text x="10" y="78" class="label">eaassets-a.akamaihd.net</text>
<rect x="180" y="62" width="213.31" height="22" fill="#4c78a8" rx="3"/>
<text x="401.31" y="78" class="value">93.78</text>
<text x="10" y="110" class="label">ea.com</text>
<rect x="180" y="94" width="219.5" height="22" fill="#4c78a8" rx="3"/>
<text x="407.5" y="110" class="value">96.50</text>
<text x="10" y="142" class="label">ubisoft.com</text>
<rect x="180" y="126" width="257.44" height="22" fill="#4c78a8" rx="3"/>
<text x="445.44" y="142" class="value">113.18</text>
<text x="10" y="174" class="label">community.akamai.steamstatic.com</text>
<rect x="180" y="158" width="295.47" height="22" fill="#4c78a8" rx="3"/>
<text x="483.47" y="174" class="value">129.90</text>
<text x="10" y="206" class="label">steamcdn-a.akamaihd.net</text>
<rect x="180" y="190" width="325.95" height="22" fill="#4c78a8" rx="3"/>
<text x="513.95" y="206" class="value">143.30</text>
<text x="10" y="238" class="label">cdn.akamai.steamstatic.com</text>
<rect x="180" y="222" width="358.48" height="22" fill="#4c78a8" rx="3"/>
<text x="546.48" y="238" class="value">157.60</text>
<text x="10" y="270" class="label">launcher-public-service-prod06.ol.epicgames.com</text>
<rect x="180" y="254" width="385.11" height="22" fill="#4c78a8" rx="3"/>
<text x="573.11" y="270" class="value">169.31</text>
<text x="10" y="302" class="label">origin.com</text>
<rect x="180" y="286" width="426.21" height="22" fill="#4c78a8" rx="3"/>
<text x="614.21" y="302" class="value">187.38</text>
<text x="10" y="334" class="label">static3.cdn.ubi.com</text>
<rect x="180" y="318" width="431.15" height="22" fill="#4c78a8" rx="3"/>
<text x="619.15" y="334" class="value">189.55</text>
<text x="10" y="366" class="label">easyanticheat.net</text>
<rect x="180" y="350" width="465.61" height="22" fill="#4c78a8" rx="3"/>
<text x="653.61" y="366" class="value">204.70</text>
<text x="10" y="398" class="label">steam-chat.com</text>
<rect x="180" y="382" width="524.91" height="22" fill="#4c78a8" rx="3"/>
<text x="712.91" y="398" class="value">230.77</text>
<text x="10" y="430" class="label">api.steampowered.com</text>
<rect x="180" y="414" width="543.54" height="22" fill="#4c78a8" rx="3"/>
<text x="731.54" y="430" class="value">238.96</text>
<text x="10" y="462" class="label">www.steamcommunity.com</text>
<rect x="180" y="446" width="577.07" height="22" fill="#4c78a8" rx="3"/>
<text x="765.07" y="462" class="value">253.70</text>
<text x="10" y="494" class="label">steamcommunity.com</text>
<rect x="180" y="478" width="580.0" height="22" fill="#4c78a8" rx="3"/>
<text x="768.0" y="494" class="value">254.99</text>
<line x1="180" y1="30" x2="180" y2="520" stroke="#ccc"/>
<line x1="180" y1="520" x2="760" y2="520" stroke="#ccc"/>
</svg>