<svg xmlns="http://www.w3.org/2000/svg" width="800" height="540">
<style> .label{font-family:DejaVu Sans,Verdana,Geneva,sans-serif;font-size:12px;fill:#333} .value{font-family:DejaVu Sans,Verdana,Geneva,sans-serif;font-size:12px;fill:#555} </style>
<text x="10" y="20" class="label">延迟柱状图（越低越好，Top 15），单位 ms</text>
<text x="10" y="46" class="label">rockstargames.com</text>
<rect x="180" y="30" width="77.87" height="22" fill="#4c78a8" rx="3"/>
<text x="265.87" y="46" class="value">40.34</text>
<text x="10" y="78" class="label">ea.com</text>
<rect x="180" y="62" width="101.77" height="22" fill="#4c78a8" rx="3"/>
<text x="289.77" y="78" class="value">52.72</text>
<text x="10" y="110" class="label">origin.com</text>
<rect x="180" y="94" width="181.51" height="22" fill="#4c78a8" rx="3"/>
<text x="369.51" y="110" class="value">94.03</text>
<text x="10" y="142" class="label">eaassets-a.akamaihd.net</text>
<rect x="180" y="126" width="189.5" height="22" fill="#4c78a8" rx="3"/>
<text x="377.5" y="142" class="value">98.17</text>
<text x="10" y="174" class="label">cdn.akamai.steamstatic.com</text>
<rect x="180" y="158" width="208.13" height="22" fill="#4c78a8" rx="3"/>
<text x="396.13" y="174" class="value">107.82</text>
<text x="10" y="206" class="label">steamcdn-a.akamaihd.net</text>
<rect x="180" y="190" width="277.42" height="22" fill="#4c78a8" rx="3"/>
<text x="465.42" y="206" class="value">143.72</text>
<text x="10" y="238" class="label">cdn.cloudflare.steamstatic.com</text>
<rect x="180" y="222" width="303.81" height="22" fill="#4c78a8" rx="3"/>
<text x="491.81" y="238" class="value">157.39</text>
<text x="10" y="270" class="label">easyanticheat.net</text>
<rect x="180" y="254" width="359.62" height="22" fill="#4c78a8" rx="3"/>
<text x="547.62" y="270" class="value">186.30</text>
<text x="10" y="302" class="label">store.akamai.steamstatic.com</text>
<rect x="180" y="286" width="389.57" height="22" fill="#4c78a8" rx="3"/>
<text x="577.5699999999999" y="302" class="value">201.82</text>
<text x="10" y="334" class="label">community.akamai.steamstatic.com</text>
<rect x="180" y="318" width="409.92" height="22" fill="#4c78a8" rx="3"/>
<text x="597.9200000000001" y="334" class="value">212.36</text>
<text x="10" y="366" class="label">ubisoft.com</text>
<rect x="180" y="350" width="481.63" height="22" fill="#4c78a8" rx="3"/>
<text x="669.63" y="366" class="value">249.51</text>
<text x="10" y="398" class="label">steam-chat.com</text>
<rect x="180" y="382" width="487.0" height="22" fill="#4c78a8" rx="3"/>
<text x="675.0" y="398" class="value">252.29</text>
<text x="10" y="430" class="label">www.steamcommunity.com</text>
<rect x="180" y="414" width="510.2" height="22" fill="#4c78a8" rx="3"/>
<text x="698.2" y="430" class="value">264.31</text>
<text x="10" y="462" class="label">launcher-public-service-prod06.ol.epicgames.com</text>
<rect x="180" y="446" width="520.14" height="22" fill="#4c78a8" rx="3"/>
<text x="708.14" y="462" class="value">269.46</text>
<text x="10" y="494" class="label">steamcommunity.com</text>
<rect x="180" y="478" width="580.0" height="22" fill="#4c78a8" rx="3"/>
<text x="768.0" y="494" class="value">300.47</text>
<line x1="180" y1="30" x2="180" y2="520" stroke="#ccc"/>
<line x1="180" y1="520" x2="760" y2="520" stroke="#ccc"/>
</svg>