<svg xmlns="http://www.w3.org/2000/svg" width="800" height="540">
<style> .label{font-family:DejaVu Sans,Verdana,Geneva,sans-serif;font-size:12px;fill:#333} .value{font-family:DejaVu Sans,Verdana,Geneva,sans-serif;font-size:12px;fill:#555} </style>
<text x="10" y="20" class="label">延迟柱状图（越低越好，Top 15），单位 ms</text>
<text x="10" y="46" class="label">eaassets-a.akamaihd.net</text>
<rect x="180" y="30" width="134.09" height="22" fill="#4c78a8" rx="3"/>
<text x="322.09000000000003" y="46" class="value">76.32</text>
<text x="10" y="78" class="label">ubisoft.com</text>
<rect x="180" y="62" width="146.04" height="22" fill="#4c78a8" rx="3"/>
<text x="334.03999999999996" y="78" class="value">83.12</text>
<text x="10" y="110" class="label">rockstargames.com</text>
<rect x="180" y="94" width="234.45" height="22" fill="#4c78a8" rx="3"/>
<text x="422.45" y="110" class="value">133.44</text>
<text x="10" y="142" class="label">ea.com</text>
<rect x="180" y="126" width="254.28" height="22" fill="#4c78a8" rx="3"/>
<text x="442.28" y="142" class="value">144.73</text>
<text x="10" y="174" class="label">steamcdn-a.akamaihd.net</text>
<rect x="180" y="158" width="286.15" height="22" fill="#4c78a8" rx="3"/>
<text x="474.15" y="174" class="value">162.87</text>
<text x="10" y="206" class="label">cdn.cloudflare.steamstatic.com</text>
<rect x="180" y="190" width="327.6" height="22" fill="#4c78a8" rx="3"/>
<text x="515.6" y="206" class="value">186.46</text>
<text x="10" y="238" class="label">origin.com</text>
<rect x="180" y="222" width="339.97" height="22" fill="#4c78a8" rx="3"/>
<text x="527.97" y="238" class="value">193.50</text>
<text x="10" y="270" class="label">store.akamai.steamstatic.com</text>
<rect x="180" y="254" width="341.11" height="22" fill="#4c78a8" rx="3"/>
<text x="529.11" y="270" class="value">194.15</text>
<text x="10" y="302" class="label">cdn.akamai.steamstatic.com</text>
<rect x="180" y="286" width="360.0" height="22" fill="#4c78a8" rx="3"/>
<text x="548.0" y="302" class="value">204.90</text>
<text x="10" y="334" class="label">community.akamai.steamstatic.com</text>
<rect x="180" y="318" width="404.36" height="22" fill="#4c78a8" rx="3"/>
<text x="592.36" y="334" class="value">230.15</text>
<text x="10" y="366" class="label">steamcommunity.com</text>
<rect x="180" y="350" width="470.44" height="22" fill="#4c78a8" rx="3"/>
<text x="658.44" y="366" class="value">267.76</text>
<text x="10" y="398" class="label">ubi.com</text>
<rect x="180" y="382" width="475.81" height="22" fill="#4c78a8" rx="3"/>
<text x="663.81" y="398" class="value">270.82</text>
<text x="10" y="430" class="label">easyanticheat.net</text>
<rect x="180" y="414" width="493.77" height="22" fill="#4c78a8" rx="3"/>
<text x="681.77" y="430" class="value">281.04</text>
<text x="10" y="462" class="label">www.steamcommunity.com</text>
<rect x="180" y="446" width="546.83" height="22" fill="#4c78a8" rx="3"/>
<text x="734.83" y="462" class="value">311.24</text>
<text x="10" y="494" class="label">socialclub.rockstargames.com</text>
<rect x="180" y="478" width="580.0" height="22" fill="#4c78a8" rx="3"/>
<text x="768.0" y="494" class="value">330.12</text>
<line x1="180" y1="30" x2="180" y2="520" stroke="#ccc"/>
<line x1="180" y1="520" x2="760" y2="520" stroke="#ccc"/>
</svg>