<svg xmlns="http://www.w3.org/2000/svg" width="800" height="540">
<style> .label{font-family:DejaVu Sans,Verdana,Geneva,sans-serif;font-size:12px;fill:#333} .value{font-family:DejaVu Sans,Verdana,Geneva,sans-serif;font-size:12px;fill:#555} </style>
<text x="10" y="20" class="label">延迟柱状图（越低越好，Top 15），单位 ms</text>
<text x="10" y="46" class="label">ea.com</text>
<rect x="180" y="30" width="255.97" height="22" fill="#4c78a8" rx="3"/>
<text x="443.97" y="46" class="value">121.68</text>
<text x="10" y="78" class="label">eaassets-a.akamaihd.net</text>
<rect x="180" y="62" width="304.15" height="22" fill="#4c78a8" rx="3"/>
<text x="492.15" y="78" class="value">144.58</text>
<text x="10" y="110" class="label">origin.com</text>
<rect x="180" y="94" width="305.75" height="22" fill="#4c78a8" rx="3"/>
<text x="493.75" y="110" class="value">145.34</text>
<text x="10" y="142" class="label">rockstargames.com</text>
<rect x="180" y="126" width="329.87" height="22" fill="#4c78a8" rx="3"/>
<text x="517.87" y="142" class="value">156.81</text>
<text x="10" y="174" class="label">community.akamai.steamstatic.com</text>
<rect x="180" y="158" width="344.68" height="22" fill="#4c78a8" rx="3"/>
<text x="532.6800000000001" y="174" class="value">163.85</text>
<text x="10" y="206" class="label">ubisoft.com</text>
<rect x="180" y="190" width="351.35" height="22" fill="#4c78a8" rx="3"/>
<text x="539.35" y="206" class="value">167.02</text>
<text x="10" y="238" class="label">store.akamai.steamstatic.com</text>
<rect x="180" y="222" width="353.69" height="22" fill="#4c78a8" rx="3"/>
<text x="541.69" y="238" class="value">168.13</text>
<text x="10" y="270" class="label">steamcdn-a.akamaihd.net</text>
<rect x="180" y="254" width="375.17" height="22" fill="#4c78a8" rx="3"/>
<text x="563.1700000000001" y="270" class="value">178.34</text>
<text x="10" y="302" class="label">cdn.akamai.steamstatic.com</text>
<rect x="180" y="286" width="439.2" height="22" fill="#4c78a8" rx="3"/>
<text x="627.2" y="302" class="value">208.78</text>
<text x="10" y="334" class="label">battle.net</text>
<rect x="180" y="318" width="474.8" height="22" fill="#4c78a8" rx="3"/>
<text x="662.8" y="334" class="value">225.70</text>
<text x="10" y="366" class="label">blizzard.com</text>
<rect x="180" y="350" width="475.3" height="22" fill="#4c78a8" rx="3"/>
<text x="663.3" y="366" class="value">225.94</text>
<text x="10" y="398" class="label">cdn.cloudflare.steamstatic.com</text>
<rect x="180" y="382" width="480.67" height="22" fill="#4c78a8" rx="3"/>
<text x="668.6700000000001" y="398" class="value">228.49</text>
<text x="10" y="430" class="label">easyanticheat.net</text>
<rect x="180" y="414" width="490.01" height="22" fill="#4c78a8" rx="3"/>
<text x="678.01" y="430" class="value">232.93</text>
<text x="10" y="462" class="label">ubi.com</text>
<rect x="180" y="446" width="498.69" height="22" fill="#4c78a8" rx="3"/>
<text x="686.69" y="462" class="value">237.06</text>
<text x="10" y="494" class="label">epicgames.com</text>
<rect x="180" y="478" width="580.0" height="22" fill="#4c78a8" rx="3"/>
<text x="768.0" y="494" class="value">275.71</text>
<line x1="180" y1="30" x2="180" y2="520" stroke="#ccc"/>
<line x1="180" y1="520" x2="760" y2="520" stroke="#ccc"/>
</svg>