<svg xmlns="http://www.w3.org/2000/svg" width="800" height="540">
<style> .label{font-family:DejaVu Sans,Verdana,Geneva,sans-serif;font-size:12px;fill:#333} .value{font-family:DejaVu Sans,Verdana,Geneva,sans-serif;font-size:12px;fill:#555} </style>
<text x="10" y="20" class="label">延迟柱状图（越低越好，Top 15），单位 ms</text>
<text x="10" y="46" class="label">cdn.akamai.steamstatic.com</text>
<rect x="180" y="30" width="298.81" height="22" fill="#4c78a8" rx="3"/>
<text x="486.81" y="46" class="value">127.53</text>
<text x="10" y="78" class="label">eaassets-a.akamaihd.net</text>
<rect x="180" y="62" width="299.21" height="22" fill="#4c78a8" rx="3"/>
<text x="487.21" y="78" class="value">127.70</text>
<text x="10" y="110" class="label">steamcdn-a.akamaihd.net</text>
<rect x="180" y="94" width="318.37" height="22" fill="#4c78a8" rx="3"/>
<text x="506.37" y="110" class="value">135.88</text>
<text x="10" y="142" class="label">ubisoft.com</text>
<rect x="180" y="126" width="330.39" height="22" fill="#4c78a8" rx="3"/>
<text x="518.39" y="142" class="value">141.01</text>
<text x="10" y="174" class="label">store.akamai.steamstatic.com</text>
<rect x="180" y="158" width="333.14" height="22" fill="#4c78a8" rx="3"/>
<text x="521.14" y="174" class="value">142.18</text>
<text x="10" y="206" class="label">community.akamai.steamstatic.com</text>
<rect x="180" y="190" width="354.57" height="22" fill="#4c78a8" rx="3"/>
<text x="542.5699999999999" y="206" class="value">151.33</text>
<text x="10" y="238" class="label">cdn.cloudflare.steamstatic.com</text>
<rect x="180" y="222" width="361.53" height="22" fill="#4c78a8" rx="3"/>
<text x="549.53" y="238" class="value">154.30</text>
<text x="10" y="270" class="label">easyanticheat.net</text>
<rect x="180" y="254" width="420.11" height="22" fill="#4c78a8" rx="3"/>
<text x="608.11" y="270" class="value">179.30</text>
<text x="10" y="302" class="label">rockstargames.com</text>
<rect x="180" y="286" width="440.05" height="22" fill="#4c78a8" rx="3"/>
<text x="628.05" y="302" class="value">187.81</text>
<text x="10" y="334" class="label">api.steampowered.com</text>
<rect x="180" y="318" width="535.08" height="22" fill="#4c78a8" rx="3"/>
<text x="723.08" y="334" class="value">228.37</text>
<text x="10" y="366" class="label">launcher-public-service-prod06.ol.epicgames.com</text>
<rect x="180" y="350" width="562.99" height="22" fill="#4c78a8" rx="3"/>
<text x="750.99" y="366" class="value">240.28</text>
<text x="10" y="398" class="label">www.steamcommunity.com</text>
<rect x="180" y="382" width="563.95" height="22" fill="#4c78a8" rx="3"/>
<text x="751.95" y="398" class="value">240.69</text>
<text x="10" y="430" class="label">steam-chat.com</text>
<rect x="180" y="414" width="564.61" height="22" fill="#4c78a8" rx="3"/>
<text x="752.61" y="430" class="value">240.97</text>
<text x="10" y="462" class="label">ubi.com</text>
<rect x="180" y="446" width="578.85" height="22" fill="#4c78a8" rx="3"/>
<text x="766.85" y="462" class="value">247.05</text>
<text x="10" y="494" class="label">epicgames.com</text>
<rect x="180" y="478" width="580.0" height="22" fill="#4c78a8" rx="3"/>
<text x="768.0" y="494" class="value">247.54</text>
<line x1="180" y1="30" x2="180" y2="520" stroke="#ccc"/>
<line x1="180" y1="520" x2="760" y2="520" stroke="#ccc"/>
</svg>