<svg xmlns="http://www.w3.org/2000/svg" width="800" height="540">
<style> .label{font-family:DejaVu Sans,Verdana,Geneva,sans-serif;font-size:12px;fill:#333} .value{font-family:DejaVu Sans,Verdana,Geneva,sans-serif;font-size:12px;fill:#555} </style>
<text x="10" y="20" class="label">延迟柱状图（越低越好，Top 15），单位 ms</text>
<text x="10" y="46" class="label">eaassets-a.akamaihd.net</text>
<rect x="180" y="30" width="198.22" height="22" fill="#4c78a8" rx="3"/>
<text x="386.22" y="46" class="value">63.64</text>
<text x="10" y="78" class="label">socialclub.rockstargames.com</text>
<rect x="180" y="62" width="201.24" height="22" fill="#4c78a8" rx="3"/>
<text x="389.24" y="78" class="value">64.61</text>
<text x="10" y="110" class="label">ubi.com</text>
<rect x="180" y="94" width="225.07" height="22" fill="#4c78a8" rx="3"/>
<text x="413.07" y="110" class="value">72.26</text>
<text x="10" y="142" class="label">rockstargames.com</text>
<rect x="180" y="126" width="227.22" height="22" fill="#4c78a8" rx="3"/>
<text x="415.22" y="142" class="value">72.95</text>
<text x="10" y="174" class="label">cdn.akamai.steamstatic.com</text>
<rect x="180" y="158" width="242.45" height="22" fill="#4c78a8" rx="3"/>
<text x="430.45" y="174" class="value">77.84</text>
<text x="10" y="206" class="label">ea.com</text>
<rect x="180" y="190" width="256.56" height="22" fill="#4c78a8" rx="3"/>
<text x="444.56" y="206" class="value">82.37</text>
<text x="10" y="238" class="label">blizzard.com</text>
<rect x="180" y="222" width="267.25" height="22" fill="#4c78a8" rx="3"/>
<text x="455.25" y="238" class="value">85.80</text>
<text x="10" y="270" class="label">battle.net</text>
<rect x="180" y="254" width="272.48" height="22" fill="#4c78a8" rx="3"/>
<text x="460.48" y="270" class="value">87.48</text>
<text x="10" y="302" class="label">unrealengine.com</text>
<rect x="180" y="286" width="290.61" height="22" fill="#4c78a8" rx="3"/>
<text x="478.61" y="302" class="value">93.30</text>
<text x="10" y="334" class="label">static3.cdn.ubi.com</text>
<rect x="180" y="318" width="405.2" height="22" fill="#4c78a8" rx="3"/>
<text x="593.2" y="334" class="value">130.09</text>
<text x="10" y="366" class="label">fortnite.com</text>
<rect x="180" y="350" width="435.76" height="22" fill="#4c78a8" rx="3"/>
<text x="623.76" y="366" class="value">139.90</text>
<text x="10" y="398" class="label">community.akamai.steamstatic.com</text>
<rect x="180" y="382" width="443.7" height="22" fill="#4c78a8" rx="3"/>
<text x="631.7" y="398" class="value">142.45</text>
<text x="10" y="430" class="label">easyanticheat.net</text>
<rect x="180" y="414" width="536.46" height="22" fill="#4c78a8" rx="3"/>
<text x="724.46" y="430" class="value">172.23</text>
<text x="10" y="462" class="label">ubisoft.com</text>
<rect x="180" y="446" width="573.09" height="22" fill="#4c78a8" rx="3"/>
<text x="761.09" y="462" class="value">183.99</text>
<text x="10" y="494" class="label">store.akamai.steamstatic.com</text>
<rect x="180" y="478" width="580.0" height="22" fill="#4c78a8" rx="3"/>
<text x="768.0" y="494" class="value">186.21</text>
<line x1="180" y1="30" x2="180" y2="520" stroke="#ccc"/>
<line x1="180" y1="520" x2="760" y2="520" stroke="#ccc"/>
</svg>