<svg xmlns="http://www.w3.org/2000/svg" width="800" height="540">
<style> .label{font-family:DejaVu Sans,Verdana,Geneva,sans-serif;font-size:12px;fill:#333} .value{font-family:DejaVu Sans,Verdana,Geneva,sans-serif;font-size:12px;fill:#555} </style>
<text x="10" y="20" class="label">延迟柱状图（越低越好，Top 15），单位 ms</text>
<text x="10" y="46" class="label">rockstargames.com</text>
<rect x="180" y="30" width="174.34" height="22" fill="#4c78a8" rx="3"/>
<text x="362.34000000000003" y="46" class="value">59.53</text>
<text x="10" y="78" class="label">battle.net</text>
<rect x="180" y="62" width="267.11" height="22" fill="#4c78a8" rx="3"/>
<text x="455.11" y="78" class="value">91.21</text>
<text x="10" y="110" class="label">blizzard.com</text>
<rect x="180" y="94" width="267.7" height="22" fill="#4c78a8" rx="3"/>
<text x="455.7" y="110" class="value">91.41</text>
<text x="10" y="142" class="label">ubi.com</text>
<rect x="180" y="126" width="271.04" height="22" fill="#4c78a8" rx="3"/>
<text x="459.04" y="142" class="value">92.55</text>
<text x="10" y="174" class="label">socialclub.rockstargames.com</text>
<rect x="180" y="158" width="284.01" height="22" fill="#4c78a8" rx="3"/>
<text x="472.01" y="174" class="value">96.98</text>
<text x="10" y="206" class="label">eaassets-a.akamaihd.net</text>
<rect x="180" y="190" width="305.13" height="22" fill="#4c78a8" rx="3"/>
<text x="493.13" y="206" class="value">104.19</text>
<text x="10" y="238" class="label">ea.com</text>
<rect x="180" y="222" width="313.03" height="22" fill="#4c78a8" rx="3"/>
<text x="501.03" y="238" class="value">106.89</text>
<text x="10" y="270" class="label">epicgames.com</text>
<rect x="180" y="254" width="334.03" height="22" fill="#4c78a8" rx="3"/>
<text x="522.03" y="270" class="value">114.06</text>
<text x="10" y="302" class="label">unrealengine.com</text>
<rect x="180" y="286" width="343.11" height="22" fill="#4c78a8" rx="3"/>
<text x="531.11" y="302" class="value">117.16</text>
<text x="10" y="334" class="label">store.akamai.steamstatic.com</text>
<rect x="180" y="318" width="385.54" height="22" fill="#4c78a8" rx="3"/>
<text x="573.54" y="334" class="value">131.65</text>
<text x="10" y="366" class="label">cdn.cloudflare.steamstatic.com</text>
<rect x="180" y="350" width="405.6" height="22" fill="#4c78a8" rx="3"/>
<text x="593.6" y="366" class="value">138.50</text>
<text x="10" y="398" class="label">community.akamai.steamstatic.com</text>
<rect x="180" y="382" width="470.79" height="22" fill="#4c78a8" rx="3"/>
<text x="658.79" y="398" class="value">160.76</text>
<text x="10" y="430" class="label">steamcdn-a.akamaihd.net</text>
<rect x="180" y="414" width="473.93" height="22" fill="#4c78a8" rx="3"/>
<text x="661.9300000000001" y="430" class="value">161.83</text>
<text x="10" y="462" class="label">static3.cdn.ubi.com</text>
<rect x="180" y="446" width="525.27" height="22" fill="#4c78a8" rx="3"/>
<text x="713.27" y="462" class="value">179.36</text>
<text x="10" y="494" class="label">fortnite.com</text>
<rect x="180" y="478" width="580.0" height="22" fill="#4c78a8" rx="3"/>
<text x="768.0" y="494" class="value">198.05</text>
<line x1="180" y1="30" x2="180" y2="520" stroke="#ccc"/>
<line x1="180" y1="520" x2="760" y2="520" stroke="#ccc"/>
</svg>