<svg xmlns="http://www.w3.org/2000/svg" width="800" height="540">
<style> .label{font-family:DejaVu Sans,Verdana,Geneva,sans-serif;font-size:12px;fill:#333} .value{font-family:DejaVu Sans,Verdana,Geneva,sans-serif;font-size:12px;fill:#555} </style>
<text x="10" y="20" class="label">延迟柱状图（越低越好，Top 15），单位 ms</text>
<text x="10" y="46" class="label">store.akamai.steamstatic.com</text>
<rect x="180" y="30" width="237.06" height="22" fill="#4c78a8" rx="3"/>
<text x="425.06" y="46" class="value">109.46</text>
<text x="10" y="78" class="label">ubisoft.com</text>
<rect x="180" y="62" width="311.95" height="22" fill="#4c78a8" rx="3"/>
<text x="499.95" y="78" class="value">144.04</text>
<text x="10" y="110" class="label">rockstargames.com</text>
<rect x="180" y="94" width="318.71" height="22" fill="#4c78a8" rx="3"/>
<text x="506.71" y="110" class="value">147.16</text>
<text x="10" y="142" class="label">api.steampowered.com</text>
<rect x="180" y="126" width="386.19" height="22" fill="#4c78a8" rx="3"/>
<text x="574.19" y="142" class="value">178.32</text>
<text x="10" y="174" class="label">easyanticheat.net</text>
<rect x="180" y="158" width="399.94" height="22" fill="#4c78a8" rx="3"/>
<text x="587.94" y="174" class="value">184.67</text>
<text x="10" y="206" class="label">steam-chat.com</text>
<rect x="180" y="190" width="408.97" height="22" fill="#4c78a8" rx="3"/>
<text x="596.97" y="206" class="value">188.84</text>
<text x="10" y="238" class="label">launcher-public-service-prod06.ol.epicgames.com</text>
<rect x="180" y="222" width="431.3" height="22" fill="#4c78a8" rx="3"/>
<text x="619.3" y="238" class="value">199.15</text>
<text x="10" y="270" class="label">cdn.cloudflare.steamstatic.com</text>
<rect x="180" y="254" width="435.72" height="22" fill="#4c78a8" rx="3"/>
<text x="623.72" y="270" class="value">201.19</text>
<text x="10" y="302" class="label">battle.net</text>
<rect x="180" y="286" width="483.91" height="22" fill="#4c78a8" rx="3"/>
<text x="671.9100000000001" y="302" class="value">223.44</text>
<text x="10" y="334" class="label">blizzard.com</text>
<rect x="180" y="318" width="492.07" height="22" fill="#4c78a8" rx="3"/>
<text x="680.0699999999999" y="334" class="value">227.21</text>
<text x="10" y="366" class="label">ubi.com</text>
<rect x="180" y="350" width="508.77" height="22" fill="#4c78a8" rx="3"/>
<text x="696.77" y="366" class="value">234.92</text>
<text x="10" y="398" class="label">socialclub.rockstargames.com</text>
<rect x="180" y="382" width="546.13" height="22" fill="#4c78a8" rx="3"/>
<text x="734.13" y="398" class="value">252.17</text>
<text x="10" y="430" class="label">ea.com</text>
<rect x="180" y="414" width="563.67" height="22" fill="#4c78a8" rx="3"/>
<text x="751.67" y="430" class="value">260.27</text>
<text x="10" y="462" class="label">gog.com</text>
<rect x="180" y="446" width="565.1" height="22" fill="#4c78a8" rx="3"/>
<text x="753.1" y="462" class="value">260.93</text>
<text x="10" y="494" class="label">community.akamai.steamstatic.com</text>
<rect x="180" y="478" width="580.0" height="22" fill="#4c78a8" rx="3"/>
<text x="768.0" y="494" class="value">267.81</text>
<line x1="180" y1="30" x2="180" y2="520" stroke="#ccc"/>
<line x1="180" y1="520" x2="760" y2="520" stroke="#ccc"/>
</svg>