<svg xmlns="http://www.w3.org/2000/svg" width="800" height="540">
<style> .label{font-family:DejaVu Sans,Verdana,Geneva,sans-serif;font-size:12px;fill:#333} .value{font-family:DejaVu Sans,Verdana,Geneva,sans-serif;font-size:12px;fill:#555} </style>
<text x="10" y="20" class="label">延迟柱状图（越低越好，Top 15），单位 ms</text>
<text x="10" y="46" class="label">rockstargames.com</text>
<rect x="180" y="30" width="187.83" height="22" fill="#4c78a8" rx="3"/>
<text x="375.83000000000004" y="46" class="value">77.00</text>
<text x="10" y="78" class="label">origin.com</text>
<rect x="180" y="62" width="277.03" height="22" fill="#4c78a8" rx="3"/>
<text x="465.03" y="78" class="value">113.57</text>
<text x="10" y="110" class="label">community.akamai.steamstatic.com</text>
<rect x="180" y="94" width="284.16" height="22" fill="#4c78a8" rx="3"/>
<text x="472.16" y="110" class="value">116.49</text>
<text x="10" y="142" class="label">ea.com</text>
<rect x="180" y="126" width="291.11" height="22" fill="#4c78a8" rx="3"/>
<text x="479.11" y="142" class="value">119.34</text>
<text x="10" y="174" class="label">blizzard.com</text>
<rect x="180" y="158" width="327.38" height="22" fill="#4c78a8" rx="3"/>
<text x="515.38" y="174" class="value">134.21</text>
<text x="10" y="206" class="label">socialclub.rockstargames.com</text>
<rect x="180" y="190" width="332.09" height="22" fill="#4c78a8" rx="3"/>
<text x="520.0899999999999" y="206" class="value">136.14</text>
<text x="10" y="238" class="label">ubi.com</text>
<rect x="180" y="222" width="342.04" height="22" fill="#4c78a8" rx="3"/>
<text x="530.04" y="238" class="value">140.22</text>
<text x="10" y="270" class="label">battle.net</text>
<rect x="180" y="254" width="357.87" height="22" fill="#4c78a8" rx="3"/>
<text x="545.87" y="270" class="value">146.71</text>
<text x="10" y="302" class="label">cdn.akamai.steamstatic.com</text>
<rect x="180" y="286" width="368.22" height="22" fill="#4c78a8" rx="3"/>
<text x="556.22" y="302" class="value">150.95</text>
<text x="10" y="334" class="label">ubisoft.com</text>
<rect x="180" y="318" width="383.56" height="22" fill="#4c78a8" rx="3"/>
<text x="571.56" y="334" class="value">157.24</text>
<text x="10" y="366" class="label">www.steamcommunity.com</text>
<rect x="180" y="350" width="473.62" height="22" fill="#4c78a8" rx="3"/>
<text x="661.62" y="366" class="value">194.16</text>
<text x="10" y="398" class="label">cdn.cloudflare.steamstatic.com</text>
<rect x="180" y="382" width="483.13" height="22" fill="#4c78a8" rx="3"/>
<text x="671.13" y="398" class="value">198.06</text>
<text x="10" y="430" class="label">static3.cdn.ubi.com</text>
<rect x="180" y="414" width="508.72" height="22" fill="#4c78a8" rx="3"/>
<text x="696.72" y="430" class="value">208.55</text>
<text x="10" y="462" class="label">store.akamai.steamstatic.com</text>
<rect x="180" y="446" width="539.7" height="22" fill="#4c78a8" rx="3"/>
<text x="727.7" y="462" class="value">221.25</text>
<text x="10" y="494" class="label">steamcdn-a.akamaihd.net</text>
<rect x="180" y="478" width="580.0" height="22" fill="#4c78a8" rx="3"/>
<text x="768.0" y="494" class="value">237.77</text>
<line x1="180" y1="30" x2="180" y2="520" stroke="#ccc"/>
<line x1="180" y1="520" x2="760" y2="520" stroke="#ccc"/>
</svg>