<svg xmlns="http://www.w3.org/2000/svg" width="800" height="540">
<style> .label{font-family:DejaVu Sans,Verdana,Geneva,sans-serif;font-size:12px;fill:#333} .value{font-family:DejaVu Sans,Verdana,Geneva,sans-serif;font-size:12px;fill:#555} </style>
<text x="10" y="20" class="label">延迟柱状图（越低越好，Top 15），单位 ms</text>
<text x="10" y="46" class="label">rockstargames.com</text>
<rect x="180" y="30" width="273.11" height="22" fill="#4c78a8" rx="3"/>
<text x="461.11" y="46" class="value">115.02</text>
<text x="10" y="78" class="label">cdn.akamai.steamstatic.com</text>
<rect x="180" y="62" width="292.77" height="22" fill="#4c78a8" rx="3"/>
<text x="480.77" y="78" class="value">123.30</text>
<text x="10" y="110" class="label">ea.com</text>
<rect x="180" y="94" width="331.02" height="22" fill="#4c78a8" rx="3"/>
<text x="519.02" y="110" class="value">139.41</text>
<text x="10" y="142" class="label">eaassets-a.akamaihd.net</text>
<rect x="180" y="126" width="420.77" height="22" fill="#4c78a8" rx="3"/>
<text x="608.77" y="142" class="value">177.21</text>
<text x="10" y="174" class="label">store.akamai.steamstatic.com</text>
<rect x="180" y="158" width="440.57" height="22" fill="#4c78a8" rx="3"/>
<text x="628.5699999999999" y="174" class="value">185.55</text>
<text x="10" y="206" class="label">ubi.com</text>
<rect x="180" y="190" width="445.89" height="22" fill="#4c78a8" rx="3"/>
<text x="633.89" y="206" class="value">187.79</text>
<text x="10" y="238" class="label">battle.net</text>
<rect x="180" y="222" width="451.76" height="22" fill="#4c78a8" rx="3"/>
<text x="639.76" y="238" class="value">190.26</text>
<text x="10" y="270" class="label">blizzard.com</text>
<rect x="180" y="254" width="460.8" height="22" fill="#4c78a8" rx="3"/>
<text x="648.8" y="270" class="value">194.07</text>
<text x="10" y="302" class="label">community.akamai.steamstatic.com</text>
<rect x="180" y="286" width="497.66" height="22" fill="#4c78a8" rx="3"/>
<text x="685.6600000000001" y="302" class="value">209.59</text>
<text x="10" y="334" class="label">socialclub.rockstargames.com</text>
<rect x="180" y="318" width="505.09" height="22" fill="#4c78a8" rx="3"/>
<text x="693.0899999999999" y="334" class="value">212.72</text>
<text x="10" y="366" class="label">ubisoft.com</text>
<rect x="180" y="350" width="541.34" height="22" fill="#4c78a8" rx="3"/>
<text x="729.34" y="366" class="value">227.99</text>
<text x="10" y="398" class="label">epicgames.com</text>
<rect x="180" y="382" width="548.25" height="22" fill="#4c78a8" rx="3"/>
<text x="736.25" y="398" class="value">230.90</text>
<text x="10" y="430" class="label">cdn.cloudflare.steamstatic.com</text>
<rect x="180" y="414" width="550.03" height="22" fill="#4c78a8" rx="3"/>
<text x="738.03" y="430" class="value">231.65</text>
<text x="10" y="462" class="label">static3.cdn.ubi.com</text>
<rect x="180" y="446" width="573.14" height="22" fill="#4c78a8" rx="3"/>
<text x="761.14" y="462" class="value">241.38</text>
<text x="10" y="494" class="label">easyanticheat.net</text>
<rect x="180" y="478" width="580.0" height="22" fill="#4c78a8" rx="3"/>
<text x="768.0" y="494" class="value">244.27</text>
<line x1="180" y1="30" x2="180" y2="520" stroke="#ccc"/>
<line x1="180" y1="520" x2="760" y2="520" stroke="#ccc"/>
</svg>