<svg xmlns="http://www.w3.org/2000/svg" width="800" height="540">
<style> .label{font-family:DejaVu Sans,Verdana,Geneva,sans-serif;font-size:12px;fill:#333} .value{font-family:DejaVu Sans,Verdana,Geneva,sans-serif;font-size:12px;fill:#555} </style>
<text x="10" y="20" class="label">延迟柱状图（越低越好，Top 15），单位 ms</text>
<text x="10" y="46" class="label">rockstargames.com</text>
<rect x="180" y="30" width="148.71" height="22" fill="#4c78a8" rx="3"/>
<text x="336.71000000000004" y="46" class="value">58.76</text>
<text x="10" y="78" class="label">socialclub.rockstargames.com</text>
<rect x="180" y="62" width="174.37" height="22" fill="#4c78a8" rx="3"/>
<text x="362.37" y="78" class="value">68.90</text>
<text x="10" y="110" class="label">eaassets-a.akamaihd.net</text>
<rect x="180" y="94" width="176.98" height="22" fill="#4c78a8" rx="3"/>
<text x="364.98" y="110" class="value">69.93</text>
<text x="10" y="142" class="label">ea.com</text>
<rect x="180" y="126" width="196.13" height="22" fill="#4c78a8" rx="3"/>
<text x="384.13" y="142" class="value">77.50</text>
<text x="10" y="174" class="label">battle.net</text>
<rect x="180" y="158" width="225.06" height="22" fill="#4c78a8" rx="3"/>
<text x="413.06" y="174" class="value">88.93</text>
<text x="10" y="206" class="label">epicgames.com</text>
<rect x="180" y="190" width="269.3" height="22" fill="#4c78a8" rx="3"/>
<text x="457.3" y="206" class="value">106.41</text>
<text x="10" y="238" class="label">blizzard.com</text>
<rect x="180" y="222" width="302.48" height="22" fill="#4c78a8" rx="3"/>
<text x="490.48" y="238" class="value">119.52</text>
<text x="10" y="270" class="label">ubi.com</text>
<rect x="180" y="254" width="312.98" height="22" fill="#4c78a8" rx="3"/>
<text x="500.98" y="270" class="value">123.67</text>
<text x="10" y="302" class="label">ubisoft.com</text>
<rect x="180" y="286" width="349.98" height="22" fill="#4c78a8" rx="3"/>
<text x="537.98" y="302" class="value">138.29</text>
<text x="10" y="334" class="label">cdn.akamai.steamstatic.com</text>
<rect x="180" y="318" width="373.46" height="22" fill="#4c78a8" rx="3"/>
<text x="561.46" y="334" class="value">147.57</text>
<text x="10" y="366" class="label">store.akamai.steamstatic.com</text>
<rect x="180" y="350" width="410.92" height="22" fill="#4c78a8" rx="3"/>
<text x="598.9200000000001" y="366" class="value">162.37</text>
<text x="10" y="398" class="label">static3.cdn.ubi.com</text>
<rect x="180" y="382" width="451.16" height="22" fill="#4c78a8" rx="3"/>
<text x="639.1600000000001" y="398" class="value">178.27</text>
<text x="10" y="430" class="label">fortnite.com</text>
<rect x="180" y="414" width="528.78" height="22" fill="#4c78a8" rx="3"/>
<text x="716.78" y="430" class="value">208.94</text>
<text x="10" y="462" class="label">origin.com</text>
<rect x="180" y="446" width="553.98" height="22" fill="#4c78a8" rx="3"/>
<text x="741.98" y="462" class="value">218.90</text>
<text x="10" y="494" class="label">unrealengine.com</text>
<rect x="180" y="478" width="580.0" height="22" fill="#4c78a8" rx="3"/>
<text x="768.0" y="494" class="value">229.18</text>
<line x1="180" y1="30" x2="180" y2="520" stroke="#ccc"/>
<line x1="180" y1="520" x2="760" y2="520" stroke="#ccc"/>
</svg>