<svg xmlns="http://www.w3.org/2000/svg" width="800" height="540">
<style> .label{font-family:DejaVu Sans,Verdana,Geneva,sans-serif;font-size:12px;fill:#333} .value{font-family:DejaVu Sans,Verdana,Geneva,sans-serif;font-size:12px;fill:#555} </style>
<text x="10" y="20" class="label">延迟柱状图（越低越好，Top 15），单位 ms</text>
<text x="10" y="46" class="label">ea.com</text>
<rect x="180" y="30" width="217.73" height="22" fill="#4c78a8" rx="3"/>
<text x="405.73" y="46" class="value">73.15</text>
<text x="10" y="78" class="label">eaassets-a.akamaihd.net</text>
<rect x="180" y="62" width="276.04" height="22" fill="#4c78a8" rx="3"/>
<text x="464.04" y="78" class="value">92.74</text>
<text x="10" y="110" class="label">rockstargames.com</text>
<rect x="180" y="94" width="294.35" height="22" fill="#4c78a8" rx="3"/>
<text x="482.35" y="110" class="value">98.89</text>
<text x="10" y="142" class="label">steamcdn-a.akamaihd.net</text>
<rect x="180" y="126" width="336.31" height="22" fill="#4c78a8" rx="3"/>
<text x="524.31" y="142" class="value">112.99</text>
<text x="10" y="174" class="label">easyanticheat.net</text>
<rect x="180" y="158" width="366.29" height="22" fill="#4c78a8" rx="3"/>
<text x="554.29" y="174" class="value">123.06</text>
<text x="10" y="206" class="label">ubi.com</text>
<rect x="180" y="190" width="414.15" height="22" fill="#4c78a8" rx="3"/>
<text x="602.15" y="206" class="value">139.14</text>
<text x="10" y="238" class="label">store.akamai.steamstatic.com</text>
<rect x="180" y="222" width="436.8" height="22" fill="#4c78a8" rx="3"/>
<text x="624.8" y="238" class="value">146.75</text>
<text x="10" y="270" class="label">socialclub.rockstargames.com</text>
<rect x="180" y="254" width="442.4" height="22" fill="#4c78a8" rx="3"/>
<text x="630.4" y="270" class="value">148.63</text>
<text x="10" y="302" class="label">origin.com</text>
<rect x="180" y="286" width="449.3" height="22" fill="#4c78a8" rx="3"/>
<text x="637.3" y="302" class="value">150.95</text>
<text x="10" y="334" class="label">ubisoft.com</text>
<rect x="180" y="318" width="458.89" height="22" fill="#4c78a8" rx="3"/>
<text x="646.89" y="334" class="value">154.17</text>
<text x="10" y="366" class="label">launcher-public-service-prod06.ol.epicgames.com</text>
<rect x="180" y="350" width="521.99" height="22" fill="#4c78a8" rx="3"/>
<text x="709.99" y="366" class="value">175.37</text>
<text x="10" y="398" class="label">blizzard.com</text>
<rect x="180" y="382" width="535.0" height="22" fill="#4c78a8" rx="3"/>
<text x="723.0" y="398" class="value">179.74</text>
<text x="10" y="430" class="label">battle.net</text>
<rect x="180" y="414" width="539.19" height="22" fill="#4c78a8" rx="3"/>
<text x="727.19" y="430" class="value">181.15</text>
<text x="10" y="462" class="label">gog.com</text>
<rect x="180" y="446" width="578.63" height="22" fill="#4c78a8" rx="3"/>
<text x="766.63" y="462" class="value">194.40</text>
<text x="10" y="494" class="label">community.akamai.steamstatic.com</text>
<rect x="180" y="478" width="580.0" height="22" fill="#4c78a8" rx="3"/>
<text x="768.0" y="494" class="value">194.86</text>
<line x1="180" y1="30" x2="180" y2="520" stroke="#ccc"/>
<line x1="180" y1="520" x2="760" y2="520" stroke="#ccc"/>
</svg>