<svg xmlns="http://www.w3.org/2000/svg" width="800" height="540">
<style> .label{font-family:DejaVu Sans,Verdana,Geneva,sans-serif;font-size:12px;fill:#333} .value{font-family:DejaVu Sans,Verdana,Geneva,sans-serif;font-size:12px;fill:#555} </style>
<text x="10" y="20" class="label">延迟柱状图（越低越好，Top 15），单位 ms</text>
<text x="10" y="46" class="label">epicgames.com</text>
<rect x="180" y="30" width="206.35" height="22" fill="#4c78a8" rx="3"/>
<text x="394.35" y="46" class="value">64.57</text>
<text x="10" y="78" class="label">eaassets-a.akamaihd.net</text>
<rect x="180" y="62" width="212.52" height="22" fill="#4c78a8" rx="3"/>
<text x="400.52" y="78" class="value">66.50</text>
<text x="10" y="110" class="label">battle.net</text>
<rect x="180" y="94" width="261.16" height="22" fill="#4c78a8" rx="3"/>
<text x="449.16" y="110" class="value">81.72</text>
<text x="10" y="142" class="label">socialclub.rockstargames.com</text>
<rect x="180" y="126" width="281.42" height="22" fill="#4c78a8" rx="3"/>
<text x="469.42" y="142" class="value">88.06</text>
<text x="10" y="174" class="label">ubi.com</text>
<rect x="180" y="158" width="281.68" height="22" fill="#4c78a8" rx="3"/>
<text x="469.68" y="174" class="value">88.14</text>
<text x="10" y="206" class="label">rockstargames.com</text>
<rect x="180" y="190" width="287.04" height="22" fill="#4c78a8" rx="3"/>
<text x="475.04" y="206" class="value">89.82</text>
<text x="10" y="238" class="label">blizzard.com</text>
<rect x="180" y="222" width="332.52" height="22" fill="#4c78a8" rx="3"/>
<text x="520.52" y="238" class="value">104.05</text>
<text x="10" y="270" class="label">store.akamai.steamstatic.com</text>
<rect x="180" y="254" width="336.1" height="22" fill="#4c78a8" rx="3"/>
<text x="524.1" y="270" class="value">105.17</text>
<text x="10" y="302" class="label">ea.com</text>
<rect x="180" y="286" width="418.61" height="22" fill="#4c78a8" rx="3"/>
<text x="606.61" y="302" class="value">130.99</text>
<text x="10" y="334" class="label">cdn.cloudflare.steamstatic.com</text>
<rect x="180" y="318" width="424.62" height="22" fill="#4c78a8" rx="3"/>
<text x="612.62" y="334" class="value">132.87</text>
<text x="10" y="366" class="label">unrealengine.com</text>
<rect x="180" y="350" width="439.71" height="22" fill="#4c78a8" rx="3"/>
<text x="627.71" y="366" class="value">137.59</text>
<text x="10" y="398" class="label">ubisoft.com</text>
<rect x="180" y="382" width="500.07" height="22" fill="#4c78a8" rx="3"/>
<text x="688.0699999999999" y="398" class="value">156.48</text>
<text x="10" y="430" class="label">community.akamai.steamstatic.com</text>
<rect x="180" y="414" width="524.71" height="22" fill="#4c78a8" rx="3"/>
<text x="712.71" y="430" class="value">164.19</text>
<text x="10" y="462" class="label">easyanticheat.net</text>
<rect x="180" y="446" width="543.63" height="22" fill="#4c78a8" rx="3"/>
<text x="731.63" y="462" class="value">170.11</text>
<text x="10" y="494" class="label">origin.com</text>
<rect x="180" y="478" width="580.0" height="22" fill="#4c78a8" rx="3"/>
<text x="768.0" y="494" class="value">181.49</text>
<line x1="180" y1="30" x2="180" y2="520" stroke="#ccc"/>
<line x1="180" y1="520" x2="760" y2="520" stroke="#ccc"/>
</svg>