<svg xmlns="http://www.w3.org/2000/svg" width="800" height="540">
<style> .label{font-family:DejaVu Sans,Verdana,Geneva,sans-serif;font-size:12px;fill:#333} .value{font-family:DejaVu Sans,Verdana,Geneva,sans-serif;font-size:12px;fill:#555} </style>
<text x="10" y="20" class="label">延迟柱状图（越低越好，Top 15），单位 ms</text>
<text x="10" y="46" class="label">rockstargames.com</text>
<rect x="180" y="30" width="256.63" height="22" fill="#4c78a8" rx="3"/>
<text x="444.63" y="46" class="value">111.01</text>
<text x="10" y="78" class="label">eaassets-a.akamaihd.net</text>
<rect x="180" y="62" width="294.33" height="22" fill="#4c78a8" rx="3"/>
<text x="482.33" y="78" class="value">127.32</text>
<text x="10" y="110" class="label">community.akamai.steamstatic.com</text>
<rect x="180" y="94" width="303.07" height="22" fill="#4c78a8" rx="3"/>
<text x="491.07" y="110" class="value">131.10</text>
<text x="10" y="142" class="label">store.akamai.steamstatic.com</text>
<rect x="180" y="126" width="321.17" height="22" fill="#4c78a8" rx="3"/>
<text x="509.17" y="142" class="value">138.93</text>
<text x="10" y="174" class="label">steamcdn-a.akamaihd.net</text>
<rect x="180" y="158" width="327.86" height="22" fill="#4c78a8" rx="3"/>
<text x="515.86" y="174" class="value">141.82</text>
<text x="10" y="206" class="label">ubisoft.com</text>
<rect x="180" y="190" width="350.42" height="22" fill="#4c78a8" rx="3"/>
<text x="538.4200000000001" y="206" class="value">151.58</text>
<text x="10" y="238" class="label">easyanticheat.net</text>
<rect x="180" y="222" width="408.12" height="22" fill="#4c78a8" rx="3"/>
<text x="596.12" y="238" class="value">176.54</text>
<text x="10" y="270" class="label">battle.net</text>
<rect x="180" y="254" width="416.49" height="22" fill="#4c78a8" rx="3"/>
<text x="604.49" y="270" class="value">180.16</text>
<text x="10" y="302" class="label">cdn.cloudflare.steamstatic.com</text>
<rect x="180" y="286" width="454.98" height="22" fill="#4c78a8" rx="3"/>
<text x="642.98" y="302" class="value">196.81</text>
<text x="10" y="334" class="label">launcher-public-service-prod06.ol.epicgames.com</text>
<rect x="180" y="318" width="463.09" height="22" fill="#4c78a8" rx="3"/>
<text x="651.0899999999999" y="334" class="value">200.32</text>
<text x="10" y="366" class="label">www.steamcommunity.com</text>
<rect x="180" y="350" width="497.7" height="22" fill="#4c78a8" rx="3"/>
<text x="685.7" y="366" class="value">215.29</text>
<text x="10" y="398" class="label">ubi.com</text>
<rect x="180" y="382" width="543.29" height="22" fill="#4c78a8" rx="3"/>
<text x="731.29" y="398" class="value">235.01</text>
<text x="10" y="430" class="label">steam-chat.com</text>
<rect x="180" y="414" width="560.26" height="22" fill="#4c78a8" rx="3"/>
<text x="748.26" y="430" class="value">242.35</text>
<text x="10" y="462" class="label">cdn.akamai.steamstatic.com</text>
<rect x="180" y="446" width="564.95" height="22" fill="#4c78a8" rx="3"/>
<text x="752.95" y="462" class="value">244.38</text>
<text x="10" y="494" class="label">api.steampowered.com</text>
<rect x="180" y="478" width="580.0" height="22" fill="#4c78a8" rx="3"/>
<text x="768.0" y="494" class="value">250.89</text>
<line x1="180" y1="30" x2="180" y2="520" stroke="#ccc"/>
<line x1="180" y1="520" x2="760" y2="520" stroke="#ccc"/>
</svg>