<svg xmlns="http://www.w3.org/2000/svg" width="800" height="540">
<style> .label{font-family:DejaVu Sans,Verdana,Geneva,sans-serif;font-size:12px;fill:#333} .value{font-family:DejaVu Sans,Verdana,Geneva,sans-serif;font-size:12px;fill:#555} </style>
<text x="10" y="20" class="label">延迟柱状图（越低越好，Top 15），单位 ms</text>
<text x="10" y="46" class="label">ubisoft.com</text>
<rect x="180" y="30" width="262.47" height="22" fill="#4c78a8" rx="3"/>
<text x="450.47" y="46" class="value">130.29</text>
<text x="10" y="78" class="label">eaassets-a.akamaihd.net</text>
<rect x="180" y="62" width="307.96" height="22" fill="#4c78a8" rx="3"/>
<text x="495.96" y="78" class="value">152.87</text>
<text x="10" y="110" class="label">origin.com</text>
<rect x="180" y="94" width="336.63" height="22" fill="#4c78a8" rx="3"/>
<text x="524.63" y="110" class="value">167.10</text>
<text x="10" y="142" class="label">cdn.cloudflare.steamstatic.com</text>
<rect x="180" y="126" width="351.84" height="22" fill="#4c78a8" rx="3"/>
<text x="539.8399999999999" y="142" class="value">174.65</text>
<text x="10" y="174" class="label">rockstargames.com</text>
<rect x="180" y="158" width="369.64" height="22" fill="#4c78a8" rx="3"/>
<text x="557.64" y="174" class="value">183.49</text>
<text x="10" y="206" class="label">community.akamai.steamstatic.com</text>
<rect x="180" y="190" width="394.36" height="22" fill="#4c78a8" rx="3"/>
<text x="582.36" y="206" class="value">195.76</text>
<text x="10" y="238" class="label">blizzard.com</text>
<rect x="180" y="222" width="394.93" height="22" fill="#4c78a8" rx="3"/>
<text x="582.9300000000001" y="238" class="value">196.04</text>
<text x="10" y="270" class="label">battle.net</text>
<rect x="180" y="254" width="422.46" height="22" fill="#4c78a8" rx="3"/>
<text x="610.46" y="270" class="value">209.71</text>
<text x="10" y="302" class="label">easyanticheat.net</text>
<rect x="180" y="286" width="477.12" height="22" fill="#4c78a8" rx="3"/>
<text x="665.12" y="302" class="value">236.84</text>
<text x="10" y="334" class="label">ubi.com</text>
<rect x="180" y="318" width="492.61" height="22" fill="#4c78a8" rx="3"/>
<text x="680.61" y="334" class="value">244.53</text>
<text x="10" y="366" class="label">socialclub.rockstargames.com</text>
<rect x="180" y="350" width="535.06" height="22" fill="#4c78a8" rx="3"/>
<text x="723.06" y="366" class="value">265.60</text>
<text x="10" y="398" class="label">ea.com</text>
<rect x="180" y="382" width="547.63" height="22" fill="#4c78a8" rx="3"/>
<text x="735.63" y="398" class="value">271.84</text>
<text x="10" y="430" class="label">steamcdn-a.akamaihd.net</text>
<rect x="180" y="414" width="560.7" height="22" fill="#4c78a8" rx="3"/>
<text x="748.7" y="430" class="value">278.33</text>
<text x="10" y="462" class="label">static3.cdn.ubi.com</text>
<rect x="180" y="446" width="574.8" height="22" fill="#4c78a8" rx="3"/>
<text x="762.8" y="462" class="value">285.33</text>
<text x="10" y="494" class="label">epicgames.com</text>
<rect x="180" y="478" width="580.0" height="22" fill="#4c78a8" rx="3"/>
<text x="768.0" y="494" class="value">287.91</text>
<line x1="180" y1="30" x2="180" y2="520" stroke="#ccc"/>
<line x1="180" y1="520" x2="760" y2="520" stroke="#ccc"/>
</svg>