<svg xmlns="http://www.w3.org/2000/svg" width="800" height="540">
<style> .label{font-family:DejaVu Sans,Verdana,Geneva,sans-serif;font-size:12px;fill:#333} .value{font-family:DejaVu Sans,Verdana,Geneva,sans-serif;font-size:12px;fill:#555} </style>
<text x="10" y="20" class="label">延迟柱状图（越低越好，Top 15），单位 ms</text>
<text x="10" y="46" class="label">rockstargames.com</text>
<rect x="180" y="30" width="101.77" height="22" fill="#4c78a8" rx="3"/>
<text x="289.77" y="46" class="value">47.19</text>
<text x="10" y="78" class="label">ubisoft.com</text>
<rect x="180" y="62" width="103.0" height="22" fill="#4c78a8" rx="3"/>
<text x="291.0" y="78" class="value">47.76</text>
<text x="10" y="110" class="label">ea.com</text>
<rect x="180" y="94" width="140.29" height="22" fill="#4c78a8" rx="3"/>
<text x="328.28999999999996" y="110" class="value">65.05</text>
<text x="10" y="142" class="label">eaassets-a.akamaihd.net</text>
<rect x="180" y="126" width="178.74" height="22" fill="#4c78a8" rx="3"/>
<text x="366.74" y="142" class="value">82.88</text>
<text x="10" y="174" class="label">cdn.akamai.steamstatic.com</text>
<rect x="180" y="158" width="198.34" height="22" fill="#4c78a8" rx="3"/>
<text x="386.34000000000003" y="174" class="value">91.97</text>
<text x="10" y="206" class="label">store.akamai.steamstatic.com</text>
<rect x="180" y="190" width="204.66" height="22" fill="#4c78a8" rx="3"/>
<text x="392.65999999999997" y="206" class="value">94.90</text>
<text x="10" y="238" class="label">cdn.cloudflare.steamstatic.com</text>
<rect x="180" y="222" width="286.12" height="22" fill="#4c78a8" rx="3"/>
<text x="474.12" y="238" class="value">132.67</text>
<text x="10" y="270" class="label">steamcdn-a.akamaihd.net</text>
<rect x="180" y="254" width="287.39" height="22" fill="#4c78a8" rx="3"/>
<text x="475.39" y="270" class="value">133.26</text>
<text x="10" y="302" class="label">community.akamai.steamstatic.com</text>
<rect x="180" y="286" width="380.86" height="22" fill="#4c78a8" rx="3"/>
<text x="568.86" y="302" class="value">176.60</text>
<text x="10" y="334" class="label">gog.com</text>
<rect x="180" y="318" width="469.97" height="22" fill="#4c78a8" rx="3"/>
<text x="657.97" y="334" class="value">217.92</text>
<text x="10" y="366" class="label">origin.com</text>
<rect x="180" y="350" width="494.75" height="22" fill="#4c78a8" rx="3"/>
<text x="682.75" y="366" class="value">229.41</text>
<text x="10" y="398" class="label">easyanticheat.net</text>
<rect x="180" y="382" width="497.01" height="22" fill="#4c78a8" rx="3"/>
<text x="685.01" y="398" class="value">230.46</text>
<text x="10" y="430" class="label">www.steamcommunity.com</text>
<rect x="180" y="414" width="555.31" height="22" fill="#4c78a8" rx="3"/>
<text x="743.31" y="430" class="value">257.49</text>
<text x="10" y="462" class="label">api.steampowered.com</text>
<rect x="180" y="446" width="575.56" height="22" fill="#4c78a8" rx="3"/>
<text x="763.56" y="462" class="value">266.88</text>
<text x="10" y="494" class="label">launcher-public-service-prod06.ol.epicgames.com</text>
<rect x="180" y="478" width="580.0" height="22" fill="#4c78a8" rx="3"/>
<text x="768.0" y="494" class="value">268.94</text>
<line x1="180" y1="30" x2="180" y2="520" stroke="#ccc"/>
<line x1="180" y1="520" x2="760" y2="520" stroke="#ccc"/>
</svg>