<svg xmlns="http://www.w3.org/2000/svg" width="800" height="540">
<style> .label{font-family:DejaVu Sans,Verdana,Geneva,sans-serif;font-size:12px;fill:#333} .value{font-family:DejaVu Sans,Verdana,Geneva,sans-serif;font-size:12px;fill:#555} </style>
<text x="10" y="20" class="label">延迟柱状图（越低越好，Top 15），单位 ms</text>
<text x="10" y="46" class="label">steamcdn-a.akamaihd.net</text>
<rect x="180" y="30" width="255.5" height="22" fill="#4c78a8" rx="3"/>
<text x="443.5" y="46" class="value">122.55</text>
<text x="10" y="78" class="label">rockstargames.com</text>
<rect x="180" y="62" width="279.45" height="22" fill="#4c78a8" rx="3"/>
<text x="467.45" y="78" class="value">134.04</text>
<text x="10" y="110" class="label">eaassets-a.akamaihd.net</text>
<rect x="180" y="94" width="367.7" height="22" fill="#4c78a8" rx="3"/>
<text x="555.7" y="110" class="value">176.37</text>
<text x="10" y="142" class="label">launcher-public-service-prod06.ol.epicgames.com</text>
<rect x="180" y="126" width="408.4" height="22" fill="#4c78a8" rx="3"/>
<text x="596.4" y="142" class="value">195.89</text>
<text x="10" y="174" class="label">cdn.akamai.steamstatic.com</text>
<rect x="180" y="158" width="418.99" height="22" fill="#4c78a8" rx="3"/>
<text x="606.99" y="174" class="value">200.97</text>
<text x="10" y="206" class="label">ubisoft.com</text>
<rect x="180" y="190" width="437.25" height="22" fill="#4c78a8" rx="3"/>
<text x="625.25" y="206" class="value">209.73</text>
<text x="10" y="238" class="label">community.akamai.steamstatic.com</text>
<rect x="180" y="222" width="450.55" height="22" fill="#4c78a8" rx="3"/>
<text x="638.55" y="238" class="value">216.11</text>
<text x="10" y="270" class="label">cdn.cloudflare.steamstatic.com</text>
<rect x="180" y="254" width="471.98" height="22" fill="#4c78a8" rx="3"/>
<text x="659.98" y="270" class="value">226.39</text>
<text x="10" y="302" class="label">origin.com</text>
<rect x="180" y="286" width="481.7" height="22" fill="#4c78a8" rx="3"/>
<text x="669.7" y="302" class="value">231.05</text>
<text x="10" y="334" class="label">store.akamai.steamstatic.com</text>
<rect x="180" y="318" width="490.39" height="22" fill="#4c78a8" rx="3"/>
<text x="678.39" y="334" class="value">235.22</text>
<text x="10" y="366" class="label">easyanticheat.net</text>
<rect x="180" y="350" width="499.78" height="22" fill="#4c78a8" rx="3"/>
<text x="687.78" y="366" class="value">239.72</text>
<text x="10" y="398" class="label">blizzard.com</text>
<rect x="180" y="382" width="529.76" height="22" fill="#4c78a8" rx="3"/>
<text x="717.76" y="398" class="value">254.10</text>
<text x="10" y="430" class="label">ubi.com</text>
<rect x="180" y="414" width="535.07" height="22" fill="#4c78a8" rx="3"/>
<text x="723.07" y="430" class="value">256.65</text>
<text x="10" y="462" class="label">battle.net</text>
<rect x="180" y="446" width="538.28" height="22" fill="#4c78a8" rx="3"/>
<text x="726.28" y="462" class="value">258.19</text>
<text x="10" y="494" class="label">socialclub.rockstargames.com</text>
<rect x="180" y="478" width="580.0" height="22" fill="#4c78a8" rx="3"/>
<text x="768.0" y="494" class="value">278.20</text>
<line x1="180" y1="30" x2="180" y2="520" stroke="#ccc"/>
<line x1="180" y1="520" x2="760" y2="520" stroke="#ccc"/>
</svg>