<svg xmlns="http://www.w3.org/2000/svg" width="800" height="540">
<style> .label{font-family:DejaVu Sans,Verdana,Geneva,sans-serif;font-size:12px;fill:#333} .value{font-family:DejaVu Sans,Verdana,Geneva,sans-serif;font-size:12px;fill:#555} </style>
<text x="10" y="20" class="label">延迟柱状图（越低越好，Top 15），单位 ms</text>
<text x="10" y="46" class="label">eaassets-a.akamaihd.net</text>
<rect x="180" y="30" width="232.19" height="22" fill="#4c78a8" rx="3"/>
<text x="420.19" y="46" class="value">87.37</text>
<text x="10" y="78" class="label">store.akamai.steamstatic.com</text>
<rect x="180" y="62" width="239.31" height="22" fill="#4c78a8" rx="3"/>
<text x="427.31" y="78" class="value">90.05</text>
<text x="10" y="110" class="label">rockstargames.com</text>
<rect x="180" y="94" width="305.77" height="22" fill="#4c78a8" rx="3"/>
<text x="493.77" y="110" class="value">115.06</text>
<text x="10" y="142" class="label">ea.com</text>
<rect x="180" y="126" width="336.15" height="22" fill="#4c78a8" rx="3"/>
<text x="524.15" y="142" class="value">126.49</text>
<text x="10" y="174" class="label">socialclub.rockstargames.com</text>
<rect x="180" y="158" width="377.82" height="22" fill="#4c78a8" rx="3"/>
<text x="565.8199999999999" y="174" class="value">142.17</text>
<text x="10" y="206" class="label">origin.com</text>
<rect x="180" y="190" width="388.85" height="22" fill="#4c78a8" rx="3"/>
<text x="576.85" y="206" class="value">146.32</text>
<text x="10" y="238" class="label">battle.net</text>
<rect x="180" y="222" width="389.16" height="22" fill="#4c78a8" rx="3"/>
<text x="577.1600000000001" y="238" class="value">146.44</text>
<text x="10" y="270" class="label">blizzard.com</text>
<rect x="180" y="254" width="423.71" height="22" fill="#4c78a8" rx="3"/>
<text x="611.71" y="270" class="value">159.44</text>
<text x="10" y="302" class="label">static3.cdn.ubi.com</text>
<rect x="180" y="286" width="430.04" height="22" fill="#4c78a8" rx="3"/>
<text x="618.04" y="302" class="value">161.82</text>
<text x="10" y="334" class="label">ubi.com</text>
<rect x="180" y="318" width="441.3" height="22" fill="#4c78a8" rx="3"/>
<text x="629.3" y="334" class="value">166.06</text>
<text x="10" y="366" class="label">ubisoft.com</text>
<rect x="180" y="350" width="456.85" height="22" fill="#4c78a8" rx="3"/>
<text x="644.85" y="366" class="value">171.91</text>
<text x="10" y="398" class="label">community.akamai.steamstatic.com</text>
<rect x="180" y="382" width="467.61" height="22" fill="#4c78a8" rx="3"/>
<text x="655.61" y="398" class="value">175.96</text>
<text x="10" y="430" class="label">cdn.akamai.steamstatic.com</text>
<rect x="180" y="414" width="506.25" height="22" fill="#4c78a8" rx="3"/>
<text x="694.25" y="430" class="value">190.50</text>
<text x="10" y="462" class="label">cdn.cloudflare.steamstatic.com</text>
<rect x="180" y="446" width="570.62" height="22" fill="#4c78a8" rx="3"/>
<text x="758.62" y="462" class="value">214.72</text>
<text x="10" y="494" class="label">steamcdn-a.akamaihd.net</text>
<rect x="180" y="478" width="580.0" height="22" fill="#4c78a8" rx="3"/>
<text x="768.0" y="494" class="value">218.25</text>
<line x1="180" y1="30" x2="180" y2="520" stroke="#ccc"/>
<line x1="180" y1="520" x2="760" y2="520" stroke="#ccc"/>
</svg>