<svg xmlns="http://www.w3.org/2000/svg" width="800" height="540">
<style> .label{font-family:DejaVu Sans,Verdana,Geneva,sans-serif;font-size:12px;fill:#333} .value{font-family:DejaVu Sans,Verdana,Geneva,sans-serif;font-size:12px;fill:#555} </style>
<text x="10" y="20" class="label">延迟柱状图（越低越好，Top 15），单位 ms</text>
<text x="10" y="46" class="label">eaassets-a.akamaihd.net</text>
<rect x="180" y="30" width="177.48" height="22" fill="#4c78a8" rx="3"/>
<text x="365.48" y="46" class="value">77.78</text>
<text x="10" y="78" class="label">rockstargames.com</text>
<rect x="180" y="62" width="197.01" height="22" fill="#4c78a8" rx="3"/>
<text x="385.01" y="78" class="value">86.34</text>
<text x="10" y="110" class="label">ubisoft.com</text>
<rect x="180" y="94" width="252.6" height="22" fill="#4c78a8" rx="3"/>
<text x="440.6" y="110" class="value">110.70</text>
<text x="10" y="142" class="label">cdn.cloudflare.steamstatic.com</text>
<rect x="180" y="126" width="278.82" height="22" fill="#4c78a8" rx="3"/>
<text x="466.82" y="142" class="value">122.19</text>
<text x="10" y="174" class="label">ea.com</text>
<rect x="180" y="158" width="282.22" height="22" fill="#4c78a8" rx="3"/>
<text x="470.22" y="174" class="value">123.68</text>
<text x="10" y="206" class="label">community.akamai.steamstatic.com</text>
<rect x="180" y="190" width="298.9" height="22" fill="#4c78a8" rx="3"/>
<text x="486.9" y="206" class="value">130.99</text>
<text x="10" y="238" class="label">origin.com</text>
<rect x="180" y="222" width="339.42" height="22" fill="#4c78a8" rx="3"/>
<text x="527.4200000000001" y="238" class="value">148.75</text>
<text x="10" y="270" class="label">store.akamai.steamstatic.com</text>
<rect x="180" y="254" width="348.94" height="22" fill="#4c78a8" rx="3"/>
<text x="536.94" y="270" class="value">152.92</text>
<text x="10" y="302" class="label">steamcdn-a.akamaihd.net</text>
<rect x="180" y="286" width="358.07" height="22" fill="#4c78a8" rx="3"/>
<text x="546.0699999999999" y="302" class="value">156.92</text>
<text x="10" y="334" class="label">cdn.akamai.steamstatic.com</text>
<rect x="180" y="318" width="474.28" height="22" fill="#4c78a8" rx="3"/>
<text x="662.28" y="334" class="value">207.85</text>
<text x="10" y="366" class="label">steam-chat.com</text>
<rect x="180" y="350" width="490.12" height="22" fill="#4c78a8" rx="3"/>
<text x="678.12" y="366" class="value">214.79</text>
<text x="10" y="398" class="label">easyanticheat.net</text>
<rect x="180" y="382" width="491.62" height="22" fill="#4c78a8" rx="3"/>
<text x="679.62" y="398" class="value">215.45</text>
<text x="10" y="430" class="label">gog.com</text>
<rect x="180" y="414" width="511.11" height="22" fill="#4c78a8" rx="3"/>
<text x="699.11" y="430" class="value">223.99</text>
<text x="10" y="462" class="label">www.steamcommunity.com</text>
<rect x="180" y="446" width="529.41" height="22" fill="#4c78a8" rx="3"/>
<text x="717.41" y="462" class="value">232.01</text>
<text x="10" y="494" class="label">api.steampowered.com</text>
<rect x="180" y="478" width="580.0" height="22" fill="#4c78a8" rx="3"/>
<text x="768.0" y="494" class="value">254.18</text>
<line x1="180" y1="30" x2="180" y2="520" stroke="#ccc"/>
<line x1="180" y1="520" x2="760" y2="520" stroke="#ccc"/>
</svg>