<svg xmlns="http://www.w3.org/2000/svg" width="800" height="540">
<style> .label{font-family:DejaVu Sans,Verdana,Geneva,sans-serif;font-size:12px;fill:#333} .value{font-family:DejaVu Sans,Verdana,Geneva,sans-serif;font-size:12px;fill:#555} </style>
<text x="10" y="20" class="label">延迟柱状图（越低越好，Top 15），单位 ms</text>
<text x="10" y="46" class="label">rockstargames.com</text>
<rect x="180" y="30" width="192.18" height="22" fill="#4c78a8" rx="3"/>
<text x="380.18" y="46" class="value">69.22</text>
<text x="10" y="78" class="label">eaassets-a.akamaihd.net</text>
<rect x="180" y="62" width="279.94" height="22" fill="#4c78a8" rx="3"/>
<text x="467.94" y="78" class="value">100.83</text>
<text x="10" y="110" class="label">ea.com</text>
<rect x="180" y="94" width="327.08" height="22" fill="#4c78a8" rx="3"/>
<text x="515.0799999999999" y="110" class="value">117.81</text>
<text x="10" y="142" class="label">cdn.cloudflare.steamstatic.com</text>
<rect x="180" y="126" width="328.41" height="22" fill="#4c78a8" rx="3"/>
<text x="516.4100000000001" y="142" class="value">118.29</text>
<text x="10" y="174" class="label">socialclub.rockstargames.com</text>
<rect x="180" y="158" width="375.0" height="22" fill="#4c78a8" rx="3"/>
<text x="563.0" y="174" class="value">135.07</text>
<text x="10" y="206" class="label">blizzard.com</text>
<rect x="180" y="190" width="431.3" height="22" fill="#4c78a8" rx="3"/>
<text x="619.3" y="206" class="value">155.35</text>
<text x="10" y="238" class="label">origin.com</text>
<rect x="180" y="222" width="454.21" height="22" fill="#4c78a8" rx="3"/>
<text x="642.21" y="238" class="value">163.60</text>
<text x="10" y="270" class="label">community.akamai.steamstatic.com</text>
<rect x="180" y="254" width="467.67" height="22" fill="#4c78a8" rx="3"/>
<text x="655.6700000000001" y="270" class="value">168.45</text>
<text x="10" y="302" class="label">ubi.com</text>
<rect x="180" y="286" width="474.89" height="22" fill="#4c78a8" rx="3"/>
<text x="662.89" y="302" class="value">171.05</text>
<text x="10" y="334" class="label">steamcdn-a.akamaihd.net</text>
<rect x="180" y="318" width="524.14" height="22" fill="#4c78a8" rx="3"/>
<text x="712.14" y="334" class="value">188.79</text>
<text x="10" y="366" class="label">store.akamai.steamstatic.com</text>
<rect x="180" y="350" width="531.91" height="22" fill="#4c78a8" rx="3"/>
<text x="719.91" y="366" class="value">191.59</text>
<text x="10" y="398" class="label">battle.net</text>
<rect x="180" y="382" width="536.16" height="22" fill="#4c78a8" rx="3"/>
<text x="724.16" y="398" class="value">193.12</text>
<text x="10" y="430" class="label">easyanticheat.net</text>
<rect x="180" y="414" width="536.27" height="22" fill="#4c78a8" rx="3"/>
<text x="724.27" y="430" class="value">193.16</text>
<text x="10" y="462" class="label">ubisoft.com</text>
<rect x="180" y="446" width="569.12" height="22" fill="#4c78a8" rx="3"/>
<text x="757.12" y="462" class="value">204.99</text>
<text x="10" y="494" class="label">cdn.akamai.steamstatic.com</text>
<rect x="180" y="478" width="580.0" height="22" fill="#4c78a8" rx="3"/>
<text x="768.0" y="494" class="value">208.91</text>
<line x1="180" y1="30" x2="180" y2="520" stroke="#ccc"/>
<line x1="180" y1="520" x2="760" y2="520" stroke="#ccc"/>
</svg>