<svg xmlns="http://www.w3.org/2000/svg" width="800" height="540">
<style> .label{font-family:DejaVu Sans,Verdana,Geneva,sans-serif;font-size:12px;fill:#333} .value{font-family:DejaVu Sans,Verdana,Geneva,sans-serif;font-size:12px;fill:#555} </style>
<text x="10" y="20" class="label">延迟柱状图（越低越好，Top 15），单位 ms</text>
<text x="10" y="46" class="label">eaassets-a.akamaihd.net</text>
<rect x="180" y="30" width="207.87" height="22" fill="#4c78a8" rx="3"/>
<text x="395.87" y="46" class="value">72.47</text>
<text x="10" y="78" class="label">rockstargames.com</text>
<rect x="180" y="62" width="241.22" height="22" fill="#4c78a8" rx="3"/>
<text x="429.22" y="78" class="value">84.10</text>
<text x="10" y="110" class="label">socialclub.rockstargames.com</text>
<rect x="180" y="94" width="256.54" height="22" fill="#4c78a8" rx="3"/>
<text x="444.54" y="110" class="value">89.44</text>
<text x="10" y="142" class="label">blizzard.com</text>
<rect x="180" y="126" width="274.38" height="22" fill="#4c78a8" rx="3"/>
<text x="462.38" y="142" class="value">95.66</text>
<text x="10" y="174" class="label">battle.net</text>
<rect x="180" y="158" width="294.52" height="22" fill="#4c78a8" rx="3"/>
<text x="482.52" y="174" class="value">102.68</text>
<text x="10" y="206" class="label">epicgames.com</text>
<rect x="180" y="190" width="305.22" height="22" fill="#4c78a8" rx="3"/>
<text x="493.22" y="206" class="value">106.41</text>
<text x="10" y="238" class="label">steamcdn-a.akamaihd.net</text>
<rect x="180" y="222" width="314.48" height="22" fill="#4c78a8" rx="3"/>
<text x="502.48" y="238" class="value">109.64</text>
<text x="10" y="270" class="label">ubi.com</text>
<rect x="180" y="254" width="325.93" height="22" fill="#4c78a8" rx="3"/>
<text x="513.9300000000001" y="270" class="value">113.63</text>
<text x="10" y="302" class="label">unrealengine.com</text>
<rect x="180" y="286" width="372.91" height="22" fill="#4c78a8" rx="3"/>
<text x="560.9100000000001" y="302" class="value">130.01</text>
<text x="10" y="334" class="label">fortnite.com</text>
<rect x="180" y="318" width="413.24" height="22" fill="#4c78a8" rx="3"/>
<text x="601.24" y="334" class="value">144.07</text>
<text x="10" y="366" class="label">ea.com</text>
<rect x="180" y="350" width="413.95" height="22" fill="#4c78a8" rx="3"/>
<text x="601.95" y="366" class="value">144.32</text>
<text x="10" y="398" class="label">store.akamai.steamstatic.com</text>
<rect x="180" y="382" width="424.91" height="22" fill="#4c78a8" rx="3"/>
<text x="612.9100000000001" y="398" class="value">148.14</text>
<text x="10" y="430" class="label">community.akamai.steamstatic.com</text>
<rect x="180" y="414" width="467.19" height="22" fill="#4c78a8" rx="3"/>
<text x="655.19" y="430" class="value">162.88</text>
<text x="10" y="462" class="label">origin.com</text>
<rect x="180" y="446" width="548.88" height="22" fill="#4c78a8" rx="3"/>
<text x="736.88" y="462" class="value">191.36</text>
<text x="10" y="494" class="label">easyanticheat.net</text>
<rect x="180" y="478" width="580.0" height="22" fill="#4c78a8" rx="3"/>
<text x="768.0" y="494" class="value">202.21</text>
<line x1="180" y1="30" x2="180" y2="520" stroke="#ccc"/>
<line x1="180" y1="520" x2="760" y2="520" stroke="#ccc"/>
</svg>