<svg xmlns="http://www.w3.org/2000/svg" width="800" height="540">
<style> .label{font-family:DejaVu Sans,Verdana,Geneva,sans-serif;font-size:12px;fill:#333} .value{font-family:DejaVu Sans,Verdana,Geneva,sans-serif;font-size:12px;fill:#555} </style>
<text x="10" y="20" class="label">延迟柱状图（越低越好，Top 15），单位 ms</text>
<text x="10" y="46" class="label">rockstargames.com</text>
<rect x="180" y="30" width="105.94" height="22" fill="#4c78a8" rx="3"/>
<text x="293.94" y="46" class="value">51.59</text>
<text x="10" y="78" class="label">store.akamai.steamstatic.com</text>
<rect x="180" y="62" width="186.89" height="22" fill="#4c78a8" rx="3"/>
<text x="374.89" y="78" class="value">91.01</text>
<text x="10" y="110" class="label">ea.com</text>
<rect x="180" y="94" width="193.27" height="22" fill="#4c78a8" rx="3"/>
<text x="381.27" y="110" class="value">94.12</text>
<text x="10" y="142" class="label">eaassets-a.akamaihd.net</text>
<rect x="180" y="126" width="195.65" height="22" fill="#4c78a8" rx="3"/>
<text x="383.65" y="142" class="value">95.28</text>
<text x="10" y="174" class="label">ubisoft.com</text>
<rect x="180" y="158" width="213.77" height="22" fill="#4c78a8" rx="3"/>
<text x="401.77" y="174" class="value">104.10</text>
<text x="10" y="206" class="label">steamcdn-a.akamaihd.net</text>
<rect x="180" y="190" width="229.0" height="22" fill="#4c78a8" rx="3"/>
<text x="417.0" y="206" class="value">111.52</text>
<text x="10" y="238" class="label">community.akamai.steamstatic.com</text>
<rect x="180" y="222" width="245.98" height="22" fill="#4c78a8" rx="3"/>
<text x="433.98" y="238" class="value">119.79</text>
<text x="10" y="270" class="label">cdn.akamai.steamstatic.com</text>
<rect x="180" y="254" width="373.18" height="22" fill="#4c78a8" rx="3"/>
<text x="561.1800000000001" y="270" class="value">181.73</text>
<text x="10" y="302" class="label">origin.com</text>
<rect x="180" y="286" width="376.32" height="22" fill="#4c78a8" rx="3"/>
<text x="564.3199999999999" y="302" class="value">183.26</text>
<text x="10" y="334" class="label">cdn.cloudflare.steamstatic.com</text>
<rect x="180" y="318" width="436.81" height="22" fill="#4c78a8" rx="3"/>
<text x="624.81" y="334" class="value">212.72</text>
<text x="10" y="366" class="label">easyanticheat.net</text>
<rect x="180" y="350" width="461.56" height="22" fill="#4c78a8" rx="3"/>
<text x="649.56" y="366" class="value">224.77</text>
<text x="10" y="398" class="label">api.steampowered.com</text>
<rect x="180" y="382" width="487.84" height="22" fill="#4c78a8" rx="3"/>
<text x="675.8399999999999" y="398" class="value">237.57</text>
<text x="10" y="430" class="label">www.steamcommunity.com</text>
<rect x="180" y="414" width="543.51" height="22" fill="#4c78a8" rx="3"/>
<text x="731.51" y="430" class="value">264.68</text>
<text x="10" y="462" class="label">launcher-public-service-prod06.ol.epicgames.com</text>
<rect x="180" y="446" width="572.96" height="22" fill="#4c78a8" rx="3"/>
<text x="760.96" y="462" class="value">279.02</text>
<text x="10" y="494" class="label">blizzard.com</text>
<rect x="180" y="478" width="580.0" height="22" fill="#4c78a8" rx="3"/>
<text x="768.0" y="494" class="value">282.45</text>
<line x1="180" y1="30" x2="180" y2="520" stroke="#ccc"/>
<line x1="180" y1="520" x2="760" y2="520" stroke="#ccc"/>
</svg>