<svg xmlns="http://www.w3.org/2000/svg" width="800" height="540">
<style> .label{font-family:DejaVu Sans,Verdana,Geneva,sans-serif;font-size:12px;fill:#333} .value{font-family:DejaVu Sans,Verdana,Geneva,sans-serif;font-size:12px;fill:#555} </style>
<text x="10" y="20" class="label">延迟柱状图（越低越好，Top 15），单位 ms</text>
<text x="10" y="46" class="label">rockstargames.com</text>
<rect x="180" y="30" width="214.91" height="22" fill="#4c78a8" rx="3"/>
<text x="402.90999999999997" y="46" class="value">68.90</text>
<text x="10" y="78" class="label">ea.com</text>
<rect x="180" y="62" width="302.62" height="22" fill="#4c78a8" rx="3"/>
<text x="490.62" y="78" class="value">97.02</text>
<text x="10" y="110" class="label">store.akamai.steamstatic.com</text>
<rect x="180" y="94" width="329.22" height="22" fill="#4c78a8" rx="3"/>
<text x="517.22" y="110" class="value">105.55</text>
<text x="10" y="142" class="label">eaassets-a.akamaihd.net</text>
<rect x="180" y="126" width="341.95" height="22" fill="#4c78a8" rx="3"/>
<text x="529.95" y="142" class="value">109.63</text>
<text x="10" y="174" class="label">origin.com</text>
<rect x="180" y="158" width="344.04" height="22" fill="#4c78a8" rx="3"/>
<text x="532.04" y="174" class="value">110.30</text>
<text x="10" y="206" class="label">community.akamai.steamstatic.com</text>
<rect x="180" y="190" width="361.47" height="22" fill="#4c78a8" rx="3"/>
<text x="549.47" y="206" class="value">115.89</text>
<text x="10" y="238" class="label">ubisoft.com</text>
<rect x="180" y="222" width="392.17" height="22" fill="#4c78a8" rx="3"/>
<text x="580.1700000000001" y="238" class="value">125.73</text>
<text x="10" y="270" class="label">cdn.cloudflare.steamstatic.com</text>
<rect x="180" y="254" width="400.96" height="22" fill="#4c78a8" rx="3"/>
<text x="588.96" y="270" class="value">128.55</text>
<text x="10" y="302" class="label">steamcdn-a.akamaihd.net</text>
<rect x="180" y="286" width="416.0" height="22" fill="#4c78a8" rx="3"/>
<text x="604.0" y="302" class="value">133.37</text>
<text x="10" y="334" class="label">ubi.com</text>
<rect x="180" y="318" width="433.46" height="22" fill="#4c78a8" rx="3"/>
<text x="621.46" y="334" class="value">138.97</text>
<text x="10" y="366" class="label">blizzard.com</text>
<rect x="180" y="350" width="466.53" height="22" fill="#4c78a8" rx="3"/>
<text x="654.53" y="366" class="value">149.57</text>
<text x="10" y="398" class="label">battle.net</text>
<rect x="180" y="382" width="481.81" height="22" fill="#4c78a8" rx="3"/>
<text x="669.81" y="398" class="value">154.47</text>
<text x="10" y="430" class="label">socialclub.rockstargames.com</text>
<rect x="180" y="414" width="505.05" height="22" fill="#4c78a8" rx="3"/>
<text x="693.05" y="430" class="value">161.92</text>
<text x="10" y="462" class="label">www.steamcommunity.com</text>
<rect x="180" y="446" width="568.9" height="22" fill="#4c78a8" rx="3"/>
<text x="756.9" y="462" class="value">182.39</text>
<text x="10" y="494" class="label">static3.cdn.ubi.com</text>
<rect x="180" y="478" width="580.0" height="22" fill="#4c78a8" rx="3"/>
<text x="768.0" y="494" class="value">185.95</text>
<line x1="180" y1="30" x2="180" y2="520" stroke="#ccc"/>
<line x1="180" y1="520" x2="760" y2="520" stroke="#ccc"/>
</svg>