<svg xmlns="http://www.w3.org/2000/svg" width="800" height="540">
<style> .label{font-family:DejaVu Sans,Verdana,Geneva,sans-serif;font-size:12px;fill:#333} .value{font-family:DejaVu Sans,Verdana,Geneva,sans-serif;font-size:12px;fill:#555} </style>
<text x="10" y="20" class="label">延迟柱状图（越低越好，Top 15），单位 ms</text>
<text x="10" y="46" class="label">rockstargames.com</text>
<rect x="180" y="30" width="211.87" height="22" fill="#4c78a8" rx="3"/>
<text x="399.87" y="46" class="value">72.47</text>
<text x="10" y="78" class="label">eaassets-a.akamaihd.net</text>
<rect x="180" y="62" width="326.12" height="22" fill="#4c78a8" rx="3"/>
<text x="514.12" y="78" class="value">111.55</text>
<text x="10" y="110" class="label">store.akamai.steamstatic.com</text>
<rect x="180" y="94" width="338.9" height="22" fill="#4c78a8" rx="3"/>
<text x="526.9" y="110" class="value">115.92</text>
<text x="10" y="142" class="label">ea.com</text>
<rect x="180" y="126" width="366.96" height="22" fill="#4c78a8" rx="3"/>
<text x="554.96" y="142" class="value">125.52</text>
<text x="10" y="174" class="label">cdn.cloudflare.steamstatic.com</text>
<rect x="180" y="158" width="371.82" height="22" fill="#4c78a8" rx="3"/>
<text x="559.8199999999999" y="174" class="value">127.18</text>
<text x="10" y="206" class="label">battle.net</text>
<rect x="180" y="190" width="416.98" height="22" fill="#4c78a8" rx="3"/>
<text x="604.98" y="206" class="value">142.63</text>
<text x="10" y="238" class="label">ubi.com</text>
<rect x="180" y="222" width="463.88" height="22" fill="#4c78a8" rx="3"/>
<text x="651.88" y="238" class="value">158.67</text>
<text x="10" y="270" class="label">ubisoft.com</text>
<rect x="180" y="254" width="466.16" height="22" fill="#4c78a8" rx="3"/>
<text x="654.1600000000001" y="270" class="value">159.45</text>
<text x="10" y="302" class="label">cdn.akamai.steamstatic.com</text>
<rect x="180" y="286" width="471.54" height="22" fill="#4c78a8" rx="3"/>
<text x="659.54" y="302" class="value">161.29</text>
<text x="10" y="334" class="label">blizzard.com</text>
<rect x="180" y="318" width="473.41" height="22" fill="#4c78a8" rx="3"/>
<text x="661.4100000000001" y="334" class="value">161.93</text>
<text x="10" y="366" class="label">steamcdn-a.akamaihd.net</text>
<rect x="180" y="350" width="521.24" height="22" fill="#4c78a8" rx="3"/>
<text x="709.24" y="366" class="value">178.29</text>
<text x="10" y="398" class="label">gog.com</text>
<rect x="180" y="382" width="525.83" height="22" fill="#4c78a8" rx="3"/>
<text x="713.83" y="398" class="value">179.86</text>
<text x="10" y="430" class="label">origin.com</text>
<rect x="180" y="414" width="543.75" height="22" fill="#4c78a8" rx="3"/>
<text x="731.75" y="430" class="value">185.99</text>
<text x="10" y="462" class="label">community.akamai.steamstatic.com</text>
<rect x="180" y="446" width="558.28" height="22" fill="#4c78a8" rx="3"/>
<text x="746.28" y="462" class="value">190.96</text>
<text x="10" y="494" class="label">api.steampowered.com</text>
<rect x="180" y="478" width="580.0" height="22" fill="#4c78a8" rx="3"/>
<text x="768.0" y="494" class="value">198.39</text>
<line x1="180" y1="30" x2="180" y2="520" stroke="#ccc"/>
<line x1="180" y1="520" x2="760" y2="520" stroke="#ccc"/>
</svg>