<svg xmlns="http://www.w3.org/2000/svg" width="800" height="540">
<style> .label{font-family:DejaVu Sans,Verdana,Geneva,sans-serif;font-size:12px;fill:#333} .value{font-family:DejaVu Sans,Verdana,Geneva,sans-serif;font-size:12px;fill:#555} </style>
<text x="10" y="20" class="label">延迟柱状图（越低越好，Top 15），单位 ms</text>
<text x="10" y="46" class="label">rockstargames.com</text>
<rect x="180" y="30" width="116.87" height="22" fill="#4c78a8" rx="3"/>
<text x="304.87" y="46" class="value">48.58</text>
<text x="10" y="78" class="label">cdn.akamai.steamstatic.com</text>
<rect x="180" y="62" width="185.02" height="22" fill="#4c78a8" rx="3"/>
<text x="373.02" y="78" class="value">76.91</text>
<text x="10" y="110" class="label">steamcdn-a.akamaihd.net</text>
<rect x="180" y="94" width="189.78" height="22" fill="#4c78a8" rx="3"/>
<text x="377.78" y="110" class="value">78.89</text>
<text x="10" y="142" class="label">cdn.cloudflare.steamstatic.com</text>
<rect x="180" y="126" width="201.23" height="22" fill="#4c78a8" rx="3"/>
<text x="389.23" y="142" class="value">83.65</text>
<text x="10" y="174" class="label">eaassets-a.akamaihd.net</text>
<rect x="180" y="158" width="208.55" height="22" fill="#4c78a8" rx="3"/>
<text x="396.55" y="174" class="value">86.69</text>
<text x="10" y="206" class="label">origin.com</text>
<rect x="180" y="190" width="219.37" height="22" fill="#4c78a8" rx="3"/>
<text x="407.37" y="206" class="value">91.19</text>
<text x="10" y="238" class="label">ubisoft.com</text>
<rect x="180" y="222" width="232.87" height="22" fill="#4c78a8" rx="3"/>
<text x="420.87" y="238" class="value">96.80</text>
<text x="10" y="270" class="label">store.akamai.steamstatic.com</text>
<rect x="180" y="254" width="254.16" height="22" fill="#4c78a8" rx="3"/>
<text x="442.15999999999997" y="270" class="value">105.65</text>
<text x="10" y="302" class="label">ea.com</text>
<rect x="180" y="286" width="298.73" height="22" fill="#4c78a8" rx="3"/>
<text x="486.73" y="302" class="value">124.18</text>
<text x="10" y="334" class="label">api.steampowered.com</text>
<rect x="180" y="318" width="465.23" height="22" fill="#4c78a8" rx="3"/>
<text x="653.23" y="334" class="value">193.39</text>
<text x="10" y="366" class="label">community.akamai.steamstatic.com</text>
<rect x="180" y="350" width="471.96" height="22" fill="#4c78a8" rx="3"/>
<text x="659.96" y="366" class="value">196.19</text>
<text x="10" y="398" class="label">easyanticheat.net</text>
<rect x="180" y="382" width="490.49" height="22" fill="#4c78a8" rx="3"/>
<text x="678.49" y="398" class="value">203.89</text>
<text x="10" y="430" class="label">gog.com</text>
<rect x="180" y="414" width="495.97" height="22" fill="#4c78a8" rx="3"/>
<text x="683.97" y="430" class="value">206.17</text>
<text x="10" y="462" class="label">steam-chat.com</text>
<rect x="180" y="446" width="568.69" height="22" fill="#4c78a8" rx="3"/>
<text x="756.69" y="462" class="value">236.40</text>
<text x="10" y="494" class="label">www.steamcommunity.com</text>
<rect x="180" y="478" width="580.0" height="22" fill="#4c78a8" rx="3"/>
<text x="768.0" y="494" class="value">241.10</text>
<line x1="180" y1="30" x2="180" y2="520" stroke="#ccc"/>
<line x1="180" y1="520" x2="760" y2="520" stroke="#ccc"/>
</svg>