<svg xmlns="http://www.w3.org/2000/svg" width="800" height="540">
<style> .label{font-family:DejaVu Sans,Verdana,Geneva,sans-serif;font-size:12px;fill:#333} .value{font-family:DejaVu Sans,Verdana,Geneva,sans-serif;font-size:12px;fill:#555} </style>
<text x="10" y="20" class="label">延迟柱状图（越低越好，Top 15），单位 ms</text>
<text x="10" y="46" class="label">rockstargames.com</text>
<rect x="180" y="30" width="141.68" height="22" fill="#4c78a8" rx="3"/>
<text x="329.68" y="46" class="value">64.99</text>
<text x="10" y="78" class="label">eaassets-a.akamaihd.net</text>
<rect x="180" y="62" width="160.16" height="22" fill="#4c78a8" rx="3"/>
<text x="348.15999999999997" y="78" class="value">73.47</text>
<text x="10" y="110" class="label">cdn.akamai.steamstatic.com</text>
<rect x="180" y="94" width="221.48" height="22" fill="#4c78a8" rx="3"/>
<text x="409.48" y="110" class="value">101.60</text>
<text x="10" y="142" class="label">ubisoft.com</text>
<rect x="180" y="126" width="267.18" height="22" fill="#4c78a8" rx="3"/>
<text x="455.18" y="142" class="value">122.56</text>
<text x="10" y="174" class="label">steamcdn-a.akamaihd.net</text>
<rect x="180" y="158" width="289.02" height="22" fill="#4c78a8" rx="3"/>
<text x="477.02" y="174" class="value">132.58</text>
<text x="10" y="206" class="label">community.akamai.steamstatic.com</text>
<rect x="180" y="190" width="293.68" height="22" fill="#4c78a8" rx="3"/>
<text x="481.68" y="206" class="value">134.72</text>
<text x="10" y="238" class="label">store.akamai.steamstatic.com</text>
<rect x="180" y="222" width="301.36" height="22" fill="#4c78a8" rx="3"/>
<text x="489.36" y="238" class="value">138.24</text>
<text x="10" y="270" class="label">cdn.cloudflare.steamstatic.com</text>
<rect x="180" y="254" width="351.65" height="22" fill="#4c78a8" rx="3"/>
<text x="539.65" y="270" class="value">161.31</text>
<text x="10" y="302" class="label">ea.com</text>
<rect x="180" y="286" width="353.98" height="22" fill="#4c78a8" rx="3"/>
<text x="541.98" y="302" class="value">162.38</text>
<text x="10" y="334" class="label">origin.com</text>
<rect x="180" y="318" width="360.17" height="22" fill="#4c78a8" rx="3"/>
<text x="548.1700000000001" y="334" class="value">165.22</text>
<text x="10" y="366" class="label">easyanticheat.net</text>
<rect x="180" y="350" width="507.71" height="22" fill="#4c78a8" rx="3"/>
<text x="695.71" y="366" class="value">232.90</text>
<text x="10" y="398" class="label">api.steampowered.com</text>
<rect x="180" y="382" width="511.29" height="22" fill="#4c78a8" rx="3"/>
<text x="699.29" y="398" class="value">234.54</text>
<text x="10" y="430" class="label">www.steamcommunity.com</text>
<rect x="180" y="414" width="527.53" height="22" fill="#4c78a8" rx="3"/>
<text x="715.53" y="430" class="value">241.99</text>
<text x="10" y="462" class="label">steam-chat.com</text>
<rect x="180" y="446" width="557.57" height="22" fill="#4c78a8" rx="3"/>
<text x="745.57" y="462" class="value">255.77</text>
<text x="10" y="494" class="label">ubi.com</text>
<rect x="180" y="478" width="580.0" height="22" fill="#4c78a8" rx="3"/>
<text x="768.0" y="494" class="value">266.06</text>
<line x1="180" y1="30" x2="180" y2="520" stroke="#ccc"/>
<line x1="180" y1="520" x2="760" y2="520" stroke="#ccc"/>
</svg>