<svg xmlns="http://www.w3.org/2000/svg" width="800" height="540">
<style> .label{font-family:DejaVu Sans,Verdana,Geneva,sans-serif;font-size:12px;fill:#333} .value{font-family:DejaVu Sans,Verdana,Geneva,sans-serif;font-size:12px;fill:#555} </style>
<text x="10" y="20" class="label">延迟柱状图（越低越好，Top 15），单位 ms</text>
<text x="10" y="46" class="label">rockstargames.com</text>
<rect x="180" y="30" width="161.89" height="22" fill="#4c78a8" rx="3"/>
<text x="349.89" y="46" class="value">62.14</text>
<text x="10" y="78" class="label">eaassets-a.akamaihd.net</text>
<rect x="180" y="62" width="181.25" height="22" fill="#4c78a8" rx="3"/>
<text x="369.25" y="78" class="value">69.57</text>
<text x="10" y="110" class="label">ea.com</text>
<rect x="180" y="94" width="275.14" height="22" fill="#4c78a8" rx="3"/>
<text x="463.14" y="110" class="value">105.61</text>
<text x="10" y="142" class="label">community.akamai.steamstatic.com</text>
<rect x="180" y="126" width="338.78" height="22" fill="#4c78a8" rx="3"/>
<text x="526.78" y="142" class="value">130.04</text>
<text x="10" y="174" class="label">battle.net</text>
<rect x="180" y="158" width="351.91" height="22" fill="#4c78a8" rx="3"/>
<text x="539.9100000000001" y="174" class="value">135.08</text>
<text x="10" y="206" class="label">socialclub.rockstargames.com</text>
<rect x="180" y="190" width="363.53" height="22" fill="#4c78a8" rx="3"/>
<text x="551.53" y="206" class="value">139.54</text>
<text x="10" y="238" class="label">blizzard.com</text>
<rect x="180" y="222" width="365.82" height="22" fill="#4c78a8" rx="3"/>
<text x="553.8199999999999" y="238" class="value">140.42</text>
<text x="10" y="270" class="label">ubi.com</text>
<rect x="180" y="254" width="373.95" height="22" fill="#4c78a8" rx="3"/>
<text x="561.95" y="270" class="value">143.54</text>
<text x="10" y="302" class="label">ubisoft.com</text>
<rect x="180" y="286" width="390.21" height="22" fill="#4c78a8" rx="3"/>
<text x="578.21" y="302" class="value">149.78</text>
<text x="10" y="334" class="label">cdn.cloudflare.steamstatic.com</text>
<rect x="180" y="318" width="458.31" height="22" fill="#4c78a8" rx="3"/>
<text x="646.31" y="334" class="value">175.92</text>
<text x="10" y="366" class="label">static3.cdn.ubi.com</text>
<rect x="180" y="350" width="461.25" height="22" fill="#4c78a8" rx="3"/>
<text x="649.25" y="366" class="value">177.05</text>
<text x="10" y="398" class="label">origin.com</text>
<rect x="180" y="382" width="521.2" height="22" fill="#4c78a8" rx="3"/>
<text x="709.2" y="398" class="value">200.06</text>
<text x="10" y="430" class="label">steamcommunity.com</text>
<rect x="180" y="414" width="542.43" height="22" fill="#4c78a8" rx="3"/>
<text x="730.43" y="430" class="value">208.21</text>
<text x="10" y="462" class="label">cdn.akamai.steamstatic.com</text>
<rect x="180" y="446" width="577.66" height="22" fill="#4c78a8" rx="3"/>
<text x="765.66" y="462" class="value">221.73</text>
<text x="10" y="494" class="label">steamcdn-a.akamaihd.net</text>
<rect x="180" y="478" width="580.0" height="22" fill="#4c78a8" rx="3"/>
<text x="768.0" y="494" class="value">222.63</text>
<line x1="180" y1="30" x2="180" y2="520" stroke="#ccc"/>
<line x1="180" y1="520" x2="760" y2="520" stroke="#ccc"/>
</svg>