<svg xmlns="http://www.w3.org/2000/svg" width="800" height="540">
<style> .label{font-family:DejaVu Sans,Verdana,Geneva,sans-serif;font-size:12px;fill:#333} .value{font-family:DejaVu Sans,Verdana,Geneva,sans-serif;font-size:12px;fill:#555} </style>
<text x="10" y="20" class="label">延迟柱状图（越低越好，Top 15），单位 ms</text>
<text x="10" y="46" class="label">eaassets-a.akamaihd.net</text>
<rect x="180" y="30" width="94.27" height="22" fill="#4c78a8" rx="3"/>
<text x="282.27" y="46" class="value">38.76</text>
<text x="10" y="78" class="label">socialclub.rockstargames.com</text>
<rect x="180" y="62" width="145.27" height="22" fill="#4c78a8" rx="3"/>
<text x="333.27" y="78" class="value">59.73</text>
<text x="10" y="110" class="label">rockstargames.com</text>
<rect x="180" y="94" width="151.76" height="22" fill="#4c78a8" rx="3"/>
<text x="339.76" y="110" class="value">62.40</text>
<text x="10" y="142" class="label">ubi.com</text>
<rect x="180" y="126" width="275.41" height="22" fill="#4c78a8" rx="3"/>
<text x="463.41" y="142" class="value">113.24</text>
<text x="10" y="174" class="label">blizzard.com</text>
<rect x="180" y="158" width="288.64" height="22" fill="#4c78a8" rx="3"/>
<text x="476.64" y="174" class="value">118.68</text>
<text x="10" y="206" class="label">ubisoft.com</text>
<rect x="180" y="190" width="290.78" height="22" fill="#4c78a8" rx="3"/>
<text x="478.78" y="206" class="value">119.56</text>
<text x="10" y="238" class="label">static3.cdn.ubi.com</text>
<rect x="180" y="222" width="312.89" height="22" fill="#4c78a8" rx="3"/>
<text x="500.89" y="238" class="value">128.65</text>
<text x="10" y="270" class="label">battle.net</text>
<rect x="180" y="254" width="314.52" height="22" fill="#4c78a8" rx="3"/>
<text x="502.52" y="270" class="value">129.32</text>
<text x="10" y="302" class="label">unrealengine.com</text>
<rect x="180" y="286" width="377.26" height="22" fill="#4c78a8" rx="3"/>
<text x="565.26" y="302" class="value">155.12</text>
<text x="10" y="334" class="label">epicgames.com</text>
<rect x="180" y="318" width="382.88" height="22" fill="#4c78a8" rx="3"/>
<text x="570.88" y="334" class="value">157.43</text>
<text x="10" y="366" class="label">ea.com</text>
<rect x="180" y="350" width="384.15" height="22" fill="#4c78a8" rx="3"/>
<text x="572.15" y="366" class="value">157.95</text>
<text x="10" y="398" class="label">store.akamai.steamstatic.com</text>
<rect x="180" y="382" width="491.55" height="22" fill="#4c78a8" rx="3"/>
<text x="679.55" y="398" class="value">202.11</text>
<text x="10" y="430" class="label">cdn.akamai.steamstatic.com</text>
<rect x="180" y="414" width="546.02" height="22" fill="#4c78a8" rx="3"/>
<text x="734.02" y="430" class="value">224.51</text>
<text x="10" y="462" class="label">fortnite.com</text>
<rect x="180" y="446" width="554.51" height="22" fill="#4c78a8" rx="3"/>
<text x="742.51" y="462" class="value">228.00</text>
<text x="10" y="494" class="label">origin.com</text>
<rect x="180" y="478" width="580.0" height="22" fill="#4c78a8" rx="3"/>
<text x="768.0" y="494" class="value">238.48</text>
<line x1="180" y1="30" x2="180" y2="520" stroke="#ccc"/>
<line x1="180" y1="520" x2="760" y2="520" stroke="#ccc"/>
</svg>