<svg xmlns="http://www.w3.org/2000/svg" width="800" height="540">
<style> .label{font-family:DejaVu Sans,Verdana,Geneva,sans-serif;font-size:12px;fill:#333} .value{font-family:DejaVu Sans,Verdana,Geneva,sans-serif;font-size:12px;fill:#555} </style>
<text x="10" y="20" class="label">延迟柱状图（越低越好，Top 15），单位 ms</text>
<text x="10" y="46" class="label">rockstargames.com</text>
<rect x="180" y="30" width="87.28" height="22" fill="#4c78a8" rx="3"/>
<text x="275.28" y="46" class="value">42.51</text>
<text x="10" y="78" class="label">eaassets-a.akamaihd.net</text>
<rect x="180" y="62" width="120.79" height="22" fill="#4c78a8" rx="3"/>
<text x="308.79" y="78" class="value">58.83</text>
<text x="10" y="110" class="label">ea.com</text>
<rect x="180" y="94" width="150.85" height="22" fill="#4c78a8" rx="3"/>
<text x="338.85" y="110" class="value">73.47</text>
<text x="10" y="142" class="label">cdn.akamai.steamstatic.com</text>
<rect x="180" y="126" width="202.92" height="22" fill="#4c78a8" rx="3"/>
<text x="390.91999999999996" y="142" class="value">98.83</text>
<text x="10" y="174" class="label">ubisoft.com</text>
<rect x="180" y="158" width="222.8" height="22" fill="#4c78a8" rx="3"/>
<text x="410.8" y="174" class="value">108.51</text>
<text x="10" y="206" class="label">origin.com</text>
<rect x="180" y="190" width="227.62" height="22" fill="#4c78a8" rx="3"/>
<text x="415.62" y="206" class="value">110.86</text>
<text x="10" y="238" class="label">store.akamai.steamstatic.com</text>
<rect x="180" y="222" width="234.3" height="22" fill="#4c78a8" rx="3"/>
<text x="422.3" y="238" class="value">114.11</text>
<text x="10" y="270" class="label">steamcdn-a.akamaihd.net</text>
<rect x="180" y="254" width="256.14" height="22" fill="#4c78a8" rx="3"/>
<text x="444.14" y="270" class="value">124.75</text>
<text x="10" y="302" class="label">community.akamai.steamstatic.com</text>
<rect x="180" y="286" width="293.92" height="22" fill="#4c78a8" rx="3"/>
<text x="481.92" y="302" class="value">143.15</text>
<text x="10" y="334" class="label">easyanticheat.net</text>
<rect x="180" y="318" width="323.67" height="22" fill="#4c78a8" rx="3"/>
<text x="511.67" y="334" class="value">157.64</text>
<text x="10" y="366" class="label">gog.com</text>
<rect x="180" y="350" width="408.94" height="22" fill="#4c78a8" rx="3"/>
<text x="596.94" y="366" class="value">199.17</text>
<text x="10" y="398" class="label">www.steamcommunity.com</text>
<rect x="180" y="382" width="419.6" height="22" fill="#4c78a8" rx="3"/>
<text x="607.6" y="398" class="value">204.36</text>
<text x="10" y="430" class="label">steam-chat.com</text>
<rect x="180" y="414" width="490.83" height="22" fill="#4c78a8" rx="3"/>
<text x="678.8299999999999" y="430" class="value">239.05</text>
<text x="10" y="462" class="label">api.steampowered.com</text>
<rect x="180" y="446" width="572.01" height="22" fill="#4c78a8" rx="3"/>
<text x="760.01" y="462" class="value">278.59</text>
<text x="10" y="494" class="label">blizzard.com</text>
<rect x="180" y="478" width="580.0" height="22" fill="#4c78a8" rx="3"/>
<text x="768.0" y="494" class="value">282.48</text>
<line x1="180" y1="30" x2="180" y2="520" stroke="#ccc"/>
<line x1="180" y1="520" x2="760" y2="520" stroke="#ccc"/>
</svg>