<svg xmlns="http://www.w3.org/2000/svg" width="800" height="540">
<style> .label{font-family:DejaVu Sans,Verdana,Geneva,sans-serif;font-size:12px;fill:#333} .value{font-family:DejaVu Sans,Verdana,Geneva,sans-serif;font-size:12px;fill:#555} </style>
<text x="10" y="20" class="label">延迟柱状图（越低越好，Top 15），单位 ms</text>
<text x="10" y="46" class="label">blizzard.com</text>
<rect x="180" y="30" width="137.88" height="22" fill="#4c78a8" rx="3"/>
<text x="325.88" y="46" class="value">50.37</text>
<text x="10" y="78" class="label">rockstargames.com</text>
<rect x="180" y="62" width="142.21" height="22" fill="#4c78a8" rx="3"/>
<text x="330.21000000000004" y="78" class="value">51.95</text>
<text x="10" y="110" class="label">ubi.com</text>
<rect x="180" y="94" width="222.93" height="22" fill="#4c78a8" rx="3"/>
<text x="410.93" y="110" class="value">81.44</text>
<text x="10" y="142" class="label">socialclub.rockstargames.com</text>
<rect x="180" y="126" width="226.55" height="22" fill="#4c78a8" rx="3"/>
<text x="414.55" y="142" class="value">82.76</text>
<text x="10" y="174" class="label">battle.net</text>
<rect x="180" y="158" width="334.81" height="22" fill="#4c78a8" rx="3"/>
<text x="522.81" y="174" class="value">122.31</text>
<text x="10" y="206" class="label">epicgames.com</text>
<rect x="180" y="190" width="342.23" height="22" fill="#4c78a8" rx="3"/>
<text x="530.23" y="206" class="value">125.02</text>
<text x="10" y="238" class="label">static3.cdn.ubi.com</text>
<rect x="180" y="222" width="425.23" height="22" fill="#4c78a8" rx="3"/>
<text x="613.23" y="238" class="value">155.34</text>
<text x="10" y="270" class="label">ea.com</text>
<rect x="180" y="254" width="478.61" height="22" fill="#4c78a8" rx="3"/>
<text x="666.61" y="270" class="value">174.84</text>
<text x="10" y="302" class="label">origin.com</text>
<rect x="180" y="286" width="506.31" height="22" fill="#4c78a8" rx="3"/>
<text x="694.31" y="302" class="value">184.96</text>
<text x="10" y="334" class="label">ubisoft.com</text>
<rect x="180" y="318" width="512.99" height="22" fill="#4c78a8" rx="3"/>
<text x="700.99" y="334" class="value">187.40</text>
<text x="10" y="366" class="label">cdn.akamai.steamstatic.com</text>
<rect x="180" y="350" width="542.06" height="22" fill="#4c78a8" rx="3"/>
<text x="730.06" y="366" class="value">198.02</text>
<text x="10" y="398" class="label">launcher-public-service-prod06.ol.epicgames.com</text>
<rect x="180" y="382" width="545.81" height="22" fill="#4c78a8" rx="3"/>
<text x="733.81" y="398" class="value">199.39</text>
<text x="10" y="430" class="label">unrealengine.com</text>
<rect x="180" y="414" width="569.32" height="22" fill="#4c78a8" rx="3"/>
<text x="757.32" y="430" class="value">207.98</text>
<text x="10" y="462" class="label">api.steampowered.com</text>
<rect x="180" y="446" width="578.88" height="22" fill="#4c78a8" rx="3"/>
<text x="766.88" y="462" class="value">211.47</text>
<text x="10" y="494" class="label">steamcdn-a.akamaihd.net</text>
<rect x="180" y="478" width="580.0" height="22" fill="#4c78a8" rx="3"/>
<text x="768.0" y="494" class="value">211.88</text>
<line x1="180" y1="30" x2="180" y2="520" stroke="#ccc"/>
<line x1="180" y1="520" x2="760" y2="520" stroke="#ccc"/>
</svg>