<svg xmlns="http://www.w3.org/2000/svg" width="800" height="540">
<style> .label{font-family:DejaVu Sans,Verdana,Geneva,sans-serif;font-size:12px;fill:#333} .value{font-family:DejaVu Sans,Verdana,Geneva,sans-serif;font-size:12px;fill:#555} </style>
<text x="10" y="20" class="label">延迟柱状图（越低越好，Top 15），单位 ms</text>
<text x="10" y="46" class="label">rockstargames.com</text>
<rect x="180" y="30" width="316.83" height="22" fill="#4c78a8" rx="3"/>
<text x="504.83" y="46" class="value">106.63</text>
<text x="10" y="78" class="label">ubisoft.com</text>
<rect x="180" y="62" width="322.57" height="22" fill="#4c78a8" rx="3"/>
<text x="510.57" y="78" class="value">108.56</text>
<text x="10" y="110" class="label">store.akamai.steamstatic.com</text>
<rect x="180" y="94" width="324.32" height="22" fill="#4c78a8" rx="3"/>
<text x="512.3199999999999" y="110" class="value">109.15</text>
<text x="10" y="142" class="label">origin.com</text>
<rect x="180" y="126" width="400.83" height="22" fill="#4c78a8" rx="3"/>
<text x="588.8299999999999" y="142" class="value">134.90</text>
<text x="10" y="174" class="label">cdn.cloudflare.steamstatic.com</text>
<rect x="180" y="158" width="469.17" height="22" fill="#4c78a8" rx="3"/>
<text x="657.1700000000001" y="174" class="value">157.90</text>
<text x="10" y="206" class="label">ea.com</text>
<rect x="180" y="190" width="499.18" height="22" fill="#4c78a8" rx="3"/>
<text x="687.1800000000001" y="206" class="value">168.00</text>
<text x="10" y="238" class="label">blizzard.com</text>
<rect x="180" y="222" width="509.1" height="22" fill="#4c78a8" rx="3"/>
<text x="697.1" y="238" class="value">171.34</text>
<text x="10" y="270" class="label">eaassets-a.akamaihd.net</text>
<rect x="180" y="254" width="514.04" height="22" fill="#4c78a8" rx="3"/>
<text x="702.04" y="270" class="value">173.00</text>
<text x="10" y="302" class="label">ubi.com</text>
<rect x="180" y="286" width="532.82" height="22" fill="#4c78a8" rx="3"/>
<text x="720.82" y="302" class="value">179.32</text>
<text x="10" y="334" class="label">battle.net</text>
<rect x="180" y="318" width="555.25" height="22" fill="#4c78a8" rx="3"/>
<text x="743.25" y="334" class="value">186.87</text>
<text x="10" y="366" class="label">api.steampowered.com</text>
<rect x="180" y="350" width="572.19" height="22" fill="#4c78a8" rx="3"/>
<text x="760.19" y="366" class="value">192.57</text>
<text x="10" y="398" class="label">easyanticheat.net</text>
<rect x="180" y="382" width="575.96" height="22" fill="#4c78a8" rx="3"/>
<text x="763.96" y="398" class="value">193.84</text>
<text x="10" y="430" class="label">socialclub.rockstargames.com</text>
<rect x="180" y="414" width="577.92" height="22" fill="#4c78a8" rx="3"/>
<text x="765.92" y="430" class="value">194.50</text>
<text x="10" y="462" class="label">community.akamai.steamstatic.com</text>
<rect x="180" y="446" width="578.96" height="22" fill="#4c78a8" rx="3"/>
<text x="766.96" y="462" class="value">194.85</text>
<text x="10" y="494" class="label">cdn.akamai.steamstatic.com</text>
<rect x="180" y="478" width="580.0" height="22" fill="#4c78a8" rx="3"/>
<text x="768.0" y="494" class="value">195.20</text>
<line x1="180" y1="30" x2="180" y2="520" stroke="#ccc"/>
<line x1="180" y1="520" x2="760" y2="520" stroke="#ccc"/>
</svg>