<svg xmlns="http://www.w3.org/2000/svg" width="800" height="540">
<style> .label{font-family:DejaVu Sans,Verdana,Geneva,sans-serif;font-size:12px;fill:#333} .value{font-family:DejaVu Sans,Verdana,Geneva,sans-serif;font-size:12px;fill:#555} </style>
<text x="10" y="20" class="label">延迟柱状图（越低越好，Top 15），单位 ms</text>
<text x="10" y="46" class="label">origin.com</text>
<rect x="180" y="30" width="249.97" height="22" fill="#4c78a8" rx="3"/>
<text x="437.97" y="46" class="value">88.73</text>
<text x="10" y="78" class="label">rockstargames.com</text>
<rect x="180" y="62" width="257.18" height="22" fill="#4c78a8" rx="3"/>
<text x="445.18" y="78" class="value">91.29</text>
<text x="10" y="110" class="label">eaassets-a.akamaihd.net</text>
<rect x="180" y="94" width="272.62" height="22" fill="#4c78a8" rx="3"/>
<text x="460.62" y="110" class="value">96.77</text>
<text x="10" y="142" class="label">community.akamai.steamstatic.com</text>
<rect x="180" y="126" width="344.82" height="22" fill="#4c78a8" rx="3"/>
<text x="532.8199999999999" y="142" class="value">122.40</text>
<text x="10" y="174" class="label">api.steampowered.com</text>
<rect x="180" y="158" width="357.53" height="22" fill="#4c78a8" rx="3"/>
<text x="545.53" y="174" class="value">126.91</text>
<text x="10" y="206" class="label">store.akamai.steamstatic.com</text>
<rect x="180" y="190" width="359.08" height="22" fill="#4c78a8" rx="3"/>
<text x="547.0799999999999" y="206" class="value">127.46</text>
<text x="10" y="238" class="label">socialclub.rockstargames.com</text>
<rect x="180" y="222" width="385.22" height="22" fill="#4c78a8" rx="3"/>
<text x="573.22" y="238" class="value">136.74</text>
<text x="10" y="270" class="label">ubi.com</text>
<rect x="180" y="254" width="415.51" height="22" fill="#4c78a8" rx="3"/>
<text x="603.51" y="270" class="value">147.49</text>
<text x="10" y="302" class="label">blizzard.com</text>
<rect x="180" y="286" width="424.52" height="22" fill="#4c78a8" rx="3"/>
<text x="612.52" y="302" class="value">150.69</text>
<text x="10" y="334" class="label">battle.net</text>
<rect x="180" y="318" width="433.56" height="22" fill="#4c78a8" rx="3"/>
<text x="621.56" y="334" class="value">153.90</text>
<text x="10" y="366" class="label">ea.com</text>
<rect x="180" y="350" width="461.71" height="22" fill="#4c78a8" rx="3"/>
<text x="649.71" y="366" class="value">163.89</text>
<text x="10" y="398" class="label">ubisoft.com</text>
<rect x="180" y="382" width="478.47" height="22" fill="#4c78a8" rx="3"/>
<text x="666.47" y="398" class="value">169.84</text>
<text x="10" y="430" class="label">static3.cdn.ubi.com</text>
<rect x="180" y="414" width="548.03" height="22" fill="#4c78a8" rx="3"/>
<text x="736.03" y="430" class="value">194.53</text>
<text x="10" y="462" class="label">steam-chat.com</text>
<rect x="180" y="446" width="563.18" height="22" fill="#4c78a8" rx="3"/>
<text x="751.18" y="462" class="value">199.91</text>
<text x="10" y="494" class="label">cdn.cloudflare.steamstatic.com</text>
<rect x="180" y="478" width="580.0" height="22" fill="#4c78a8" rx="3"/>
<text x="768.0" y="494" class="value">205.88</text>
<line x1="180" y1="30" x2="180" y2="520" stroke="#ccc"/>
<line x1="180" y1="520" x2="760" y2="520" stroke="#ccc"/>
</svg>