<svg xmlns="http://www.w3.org/2000/svg" width="800" height="540">
<style> .label{font-family:DejaVu Sans,Verdana,Geneva,sans-serif;font-size:12px;fill:#333} .value{font-family:DejaVu Sans,Verdana,Geneva,sans-serif;font-size:12px;fill:#555} </style>
<text x="10" y="20" class="label">延迟柱状图（越低越好，Top 15），单位 ms</text>
<text x="10" y="46" class="label">socialclub.rockstargames.com</text>
<rect x="180" y="30" width="193.82" height="22" fill="#4c78a8" rx="3"/>
<text x="381.82" y="46" class="value">62.64</text>
<text x="10" y="78" class="label">blizzard.com</text>
<rect x="180" y="62" width="220.34" height="22" fill="#4c78a8" rx="3"/>
<text x="408.34000000000003" y="78" class="value">71.21</text>
<text x="10" y="110" class="label">rockstargames.com</text>
<rect x="180" y="94" width="269.22" height="22" fill="#4c78a8" rx="3"/>
<text x="457.22" y="110" class="value">87.01</text>
<text x="10" y="142" class="label">battle.net</text>
<rect x="180" y="126" width="324.86" height="22" fill="#4c78a8" rx="3"/>
<text x="512.86" y="142" class="value">104.99</text>
<text x="10" y="174" class="label">eaassets-a.akamaihd.net</text>
<rect x="180" y="158" width="336.24" height="22" fill="#4c78a8" rx="3"/>
<text x="524.24" y="174" class="value">108.67</text>
<text x="10" y="206" class="label">ubi.com</text>
<rect x="180" y="190" width="348.19" height="22" fill="#4c78a8" rx="3"/>
<text x="536.19" y="206" class="value">112.53</text>
<text x="10" y="238" class="label">origin.com</text>
<rect x="180" y="222" width="350.82" height="22" fill="#4c78a8" rx="3"/>
<text x="538.8199999999999" y="238" class="value">113.38</text>
<text x="10" y="270" class="label">epicgames.com</text>
<rect x="180" y="254" width="352.02" height="22" fill="#4c78a8" rx="3"/>
<text x="540.02" y="270" class="value">113.77</text>
<text x="10" y="302" class="label">ubisoft.com</text>
<rect x="180" y="286" width="401.71" height="22" fill="#4c78a8" rx="3"/>
<text x="589.71" y="302" class="value">129.83</text>
<text x="10" y="334" class="label">cdn.akamai.steamstatic.com</text>
<rect x="180" y="318" width="435.29" height="22" fill="#4c78a8" rx="3"/>
<text x="623.29" y="334" class="value">140.68</text>
<text x="10" y="366" class="label">fortnite.com</text>
<rect x="180" y="350" width="465.14" height="22" fill="#4c78a8" rx="3"/>
<text x="653.14" y="366" class="value">150.33</text>
<text x="10" y="398" class="label">store.akamai.steamstatic.com</text>
<rect x="180" y="382" width="518.36" height="22" fill="#4c78a8" rx="3"/>
<text x="706.36" y="398" class="value">167.53</text>
<text x="10" y="430" class="label">ea.com</text>
<rect x="180" y="414" width="550.57" height="22" fill="#4c78a8" rx="3"/>
<text x="738.57" y="430" class="value">177.94</text>
<text x="10" y="462" class="label">unrealengine.com</text>
<rect x="180" y="446" width="555.28" height="22" fill="#4c78a8" rx="3"/>
<text x="743.28" y="462" class="value">179.46</text>
<text x="10" y="494" class="label">community.akamai.steamstatic.com</text>
<rect x="180" y="478" width="580.0" height="22" fill="#4c78a8" rx="3"/>
<text x="768.0" y="494" class="value">187.45</text>
<line x1="180" y1="30" x2="180" y2="520" stroke="#ccc"/>
<line x1="180" y1="520" x2="760" y2="520" stroke="#ccc"/>
</svg>