<svg xmlns="http://www.w3.org/2000/svg" width="800" height="540">
<style> .label{font-family:DejaVu Sans,Verdana,Geneva,sans-serif;font-size:12px;fill:#333} .value{font-family:DejaVu Sans,Verdana,Geneva,sans-serif;font-size:12px;fill:#555} </style>
<text x="10" y="20" class="label">延迟柱状图（越低越好，Top 15），单位 ms</text>
<text x="10" y="46" class="label">rockstargames.com</text>
<rect x="180" y="30" width="65.01" height="22" fill="#4c78a8" rx="3"/>
<text x="253.01" y="46" class="value">33.90</text>
<text x="10" y="78" class="label">ea.com</text>
<rect x="180" y="62" width="133.89" height="22" fill="#4c78a8" rx="3"/>
<text x="321.89" y="78" class="value">69.82</text>
<text x="10" y="110" class="label">cdn.akamai.steamstatic.com</text>
<rect x="180" y="94" width="258.21" height="22" fill="#4c78a8" rx="3"/>
<text x="446.21" y="110" class="value">134.65</text>
<text x="10" y="142" class="label">community.akamai.steamstatic.com</text>
<rect x="180" y="126" width="270.42" height="22" fill="#4c78a8" rx="3"/>
<text x="458.42" y="142" class="value">141.02</text>
<text x="10" y="174" class="label">steamcdn-a.akamaihd.net</text>
<rect x="180" y="158" width="290.92" height="22" fill="#4c78a8" rx="3"/>
<text x="478.92" y="174" class="value">151.71</text>
<text x="10" y="206" class="label">store.akamai.steamstatic.com</text>
<rect x="180" y="190" width="296.29" height="22" fill="#4c78a8" rx="3"/>
<text x="484.29" y="206" class="value">154.51</text>
<text x="10" y="238" class="label">cdn.cloudflare.steamstatic.com</text>
<rect x="180" y="222" width="324.92" height="22" fill="#4c78a8" rx="3"/>
<text x="512.9200000000001" y="238" class="value">169.44</text>
<text x="10" y="270" class="label">api.steampowered.com</text>
<rect x="180" y="254" width="387.95" height="22" fill="#4c78a8" rx="3"/>
<text x="575.95" y="270" class="value">202.31</text>
<text x="10" y="302" class="label">origin.com</text>
<rect x="180" y="286" width="404.33" height="22" fill="#4c78a8" rx="3"/>
<text x="592.3299999999999" y="302" class="value">210.85</text>
<text x="10" y="334" class="label">launcher-public-service-prod06.ol.epicgames.com</text>
<rect x="180" y="318" width="408.24" height="22" fill="#4c78a8" rx="3"/>
<text x="596.24" y="334" class="value">212.89</text>
<text x="10" y="366" class="label">easyanticheat.net</text>
<rect x="180" y="350" width="418.69" height="22" fill="#4c78a8" rx="3"/>
<text x="606.69" y="366" class="value">218.34</text>
<text x="10" y="398" class="label">ubisoft.com</text>
<rect x="180" y="382" width="466.98" height="22" fill="#4c78a8" rx="3"/>
<text x="654.98" y="398" class="value">243.52</text>
<text x="10" y="430" class="label">steamcommunity.com</text>
<rect x="180" y="414" width="503.26" height="22" fill="#4c78a8" rx="3"/>
<text x="691.26" y="430" class="value">262.44</text>
<text x="10" y="462" class="label">steam-chat.com</text>
<rect x="180" y="446" width="517.04" height="22" fill="#4c78a8" rx="3"/>
<text x="705.04" y="462" class="value">269.63</text>
<text x="10" y="494" class="label">blizzard.com</text>
<rect x="180" y="478" width="580.0" height="22" fill="#4c78a8" rx="3"/>
<text x="768.0" y="494" class="value">302.46</text>
<line x1="180" y1="30" x2="180" y2="520" stroke="#ccc"/>
<line x1="180" y1="520" x2="760" y2="520" stroke="#ccc"/>
</svg>