<svg xmlns="http://www.w3.org/2000/svg" width="800" height="540">
<style> .label{font-family:DejaVu Sans,Verdana,Geneva,sans-serif;font-size:12px;fill:#333} .value{font-family:DejaVu Sans,Verdana,Geneva,sans-serif;font-size:12px;fill:#555} </style>
<text x="10" y="20" class="label">延迟柱状图（越低越好，Top 15），单位 ms</text>
<text x="10" y="46" class="label">rockstargames.com</text>
<rect x="180" y="30" width="165.12" height="22" fill="#4c78a8" rx="3"/>
<text x="353.12" y="46" class="value">57.23</text>
<text x="10" y="78" class="label">ubisoft.com</text>
<rect x="180" y="62" width="260.43" height="22" fill="#4c78a8" rx="3"/>
<text x="448.43" y="78" class="value">90.26</text>
<text x="10" y="110" class="label">eaassets-a.akamaihd.net</text>
<rect x="180" y="94" width="267.38" height="22" fill="#4c78a8" rx="3"/>
<text x="455.38" y="110" class="value">92.67</text>
<text x="10" y="142" class="label">socialclub.rockstargames.com</text>
<rect x="180" y="126" width="273.5" height="22" fill="#4c78a8" rx="3"/>
<text x="461.5" y="142" class="value">94.79</text>
<text x="10" y="174" class="label">ubi.com</text>
<rect x="180" y="158" width="280.36" height="22" fill="#4c78a8" rx="3"/>
<text x="468.36" y="174" class="value">97.17</text>
<text x="10" y="206" class="label">cdn.akamai.steamstatic.com</text>
<rect x="180" y="190" width="284.86" height="22" fill="#4c78a8" rx="3"/>
<text x="472.86" y="206" class="value">98.73</text>
<text x="10" y="238" class="label">battle.net</text>
<rect x="180" y="222" width="298.4" height="22" fill="#4c78a8" rx="3"/>
<text x="486.4" y="238" class="value">103.42</text>
<text x="10" y="270" class="label">blizzard.com</text>
<rect x="180" y="254" width="303.79" height="22" fill="#4c78a8" rx="3"/>
<text x="491.79" y="270" class="value">105.29</text>
<text x="10" y="302" class="label">ea.com</text>
<rect x="180" y="286" width="308.38" height="22" fill="#4c78a8" rx="3"/>
<text x="496.38" y="302" class="value">106.88</text>
<text x="10" y="334" class="label">store.akamai.steamstatic.com</text>
<rect x="180" y="318" width="317.93" height="22" fill="#4c78a8" rx="3"/>
<text x="505.93" y="334" class="value">110.19</text>
<text x="10" y="366" class="label">epicgames.com</text>
<rect x="180" y="350" width="431.12" height="22" fill="#4c78a8" rx="3"/>
<text x="619.12" y="366" class="value">149.42</text>
<text x="10" y="398" class="label">static3.cdn.ubi.com</text>
<rect x="180" y="382" width="503.54" height="22" fill="#4c78a8" rx="3"/>
<text x="691.54" y="398" class="value">174.52</text>
<text x="10" y="430" class="label">origin.com</text>
<rect x="180" y="414" width="512.74" height="22" fill="#4c78a8" rx="3"/>
<text x="700.74" y="430" class="value">177.71</text>
<text x="10" y="462" class="label">community.akamai.steamstatic.com</text>
<rect x="180" y="446" width="541.39" height="22" fill="#4c78a8" rx="3"/>
<text x="729.39" y="462" class="value">187.64</text>
<text x="10" y="494" class="label">unrealengine.com</text>
<rect x="180" y="478" width="580.0" height="22" fill="#4c78a8" rx="3"/>
<text x="768.0" y="494" class="value">201.02</text>
<line x1="180" y1="30" x2="180" y2="520" stroke="#ccc"/>
<line x1="180" y1="520" x2="760" y2="520" stroke="#ccc"/>
</svg>