<svg xmlns="http://www.w3.org/2000/svg" width="800" height="540">
<style> .label{font-family:DejaVu Sans,Verdana,Geneva,sans-serif;font-size:12px;fill:#333} .value{font-family:DejaVu Sans,Verdana,Geneva,sans-serif;font-size:12px;fill:#555} </style>
<text x="10" y="20" class="label">延迟柱状图（越低越好，Top 15），单位 ms</text>
<text x="10" y="46" class="label">rockstargames.com</text>
<rect x="180" y="30" width="228.64" height="22" fill="#4c78a8" rx="3"/>
<text x="416.64" y="46" class="value">83.80</text>
<text x="10" y="78" class="label">socialclub.rockstargames.com</text>
<rect x="180" y="62" width="238.41" height="22" fill="#4c78a8" rx="3"/>
<text x="426.40999999999997" y="78" class="value">87.38</text>
<text x="10" y="110" class="label">eaassets-a.akamaihd.net</text>
<rect x="180" y="94" width="238.84" height="22" fill="#4c78a8" rx="3"/>
<text x="426.84000000000003" y="110" class="value">87.54</text>
<text x="10" y="142" class="label">unrealengine.com</text>
<rect x="180" y="126" width="239.61" height="22" fill="#4c78a8" rx="3"/>
<text x="427.61" y="142" class="value">87.82</text>
<text x="10" y="174" class="label">blizzard.com</text>
<rect x="180" y="158" width="243.73" height="22" fill="#4c78a8" rx="3"/>
<text x="431.73" y="174" class="value">89.33</text>
<text x="10" y="206" class="label">ubi.com</text>
<rect x="180" y="190" width="256.8" height="22" fill="#4c78a8" rx="3"/>
<text x="444.8" y="206" class="value">94.12</text>
<text x="10" y="238" class="label">ea.com</text>
<rect x="180" y="222" width="283.67" height="22" fill="#4c78a8" rx="3"/>
<text x="471.67" y="238" class="value">103.97</text>
<text x="10" y="270" class="label">battle.net</text>
<rect x="180" y="254" width="320.45" height="22" fill="#4c78a8" rx="3"/>
<text x="508.45" y="270" class="value">117.45</text>
<text x="10" y="302" class="label">steamcdn-a.akamaihd.net</text>
<rect x="180" y="286" width="341.89" height="22" fill="#4c78a8" rx="3"/>
<text x="529.89" y="302" class="value">125.31</text>
<text x="10" y="334" class="label">fortnite.com</text>
<rect x="180" y="318" width="344.87" height="22" fill="#4c78a8" rx="3"/>
<text x="532.87" y="334" class="value">126.40</text>
<text x="10" y="366" class="label">ubisoft.com</text>
<rect x="180" y="350" width="367.79" height="22" fill="#4c78a8" rx="3"/>
<text x="555.79" y="366" class="value">134.80</text>
<text x="10" y="398" class="label">epicgames.com</text>
<rect x="180" y="382" width="400.25" height="22" fill="#4c78a8" rx="3"/>
<text x="588.25" y="398" class="value">146.70</text>
<text x="10" y="430" class="label">origin.com</text>
<rect x="180" y="414" width="407.13" height="22" fill="#4c78a8" rx="3"/>
<text x="595.13" y="430" class="value">149.22</text>
<text x="10" y="462" class="label">store.akamai.steamstatic.com</text>
<rect x="180" y="446" width="556.89" height="22" fill="#4c78a8" rx="3"/>
<text x="744.89" y="462" class="value">204.11</text>
<text x="10" y="494" class="label">community.akamai.steamstatic.com</text>
<rect x="180" y="478" width="580.0" height="22" fill="#4c78a8" rx="3"/>
<text x="768.0" y="494" class="value">212.58</text>
<line x1="180" y1="30" x2="180" y2="520" stroke="#ccc"/>
<line x1="180" y1="520" x2="760" y2="520" stroke="#ccc"/>
</svg>