<svg xmlns="http://www.w3.org/2000/svg" width="800" height="540">
<style> .label{font-family:DejaVu Sans,Verdana,Geneva,sans-serif;font-size:12px;fill:#333} .value{font-family:DejaVu Sans,Verdana,Geneva,sans-serif;font-size:12px;fill:#555} </style>
<text x="10" y="20" class="label">延迟柱状图（越低越好，Top 15），单位 ms</text>
<text x="10" y="46" class="label">rockstargames.com</text>
<rect x="180" y="30" width="98.84" height="22" fill="#4c78a8" rx="3"/>
<text x="286.84000000000003" y="46" class="value">43.87</text>
<text x="10" y="78" class="label">ea.com</text>
<rect x="180" y="62" width="176.05" height="22" fill="#4c78a8" rx="3"/>
<text x="364.05" y="78" class="value">78.14</text>
<text x="10" y="110" class="label">eaassets-a.akamaihd.net</text>
<rect x="180" y="94" width="200.58" height="22" fill="#4c78a8" rx="3"/>
<text x="388.58000000000004" y="110" class="value">89.03</text>
<text x="10" y="142" class="label">ubisoft.com</text>
<rect x="180" y="126" width="217.64" height="22" fill="#4c78a8" rx="3"/>
<text x="405.64" y="142" class="value">96.60</text>
<text x="10" y="174" class="label">store.akamai.steamstatic.com</text>
<rect x="180" y="158" width="257.42" height="22" fill="#4c78a8" rx="3"/>
<text x="445.42" y="174" class="value">114.26</text>
<text x="10" y="206" class="label">origin.com</text>
<rect x="180" y="190" width="293.94" height="22" fill="#4c78a8" rx="3"/>
<text x="481.94" y="206" class="value">130.47</text>
<text x="10" y="238" class="label">steamcdn-a.akamaihd.net</text>
<rect x="180" y="222" width="312.33" height="22" fill="#4c78a8" rx="3"/>
<text x="500.33" y="238" class="value">138.63</text>
<text x="10" y="270" class="label">community.akamai.steamstatic.com</text>
<rect x="180" y="254" width="333.96" height="22" fill="#4c78a8" rx="3"/>
<text x="521.96" y="270" class="value">148.23</text>
<text x="10" y="302" class="label">cdn.cloudflare.steamstatic.com</text>
<rect x="180" y="286" width="374.53" height="22" fill="#4c78a8" rx="3"/>
<text x="562.53" y="302" class="value">166.24</text>
<text x="10" y="334" class="label">cdn.akamai.steamstatic.com</text>
<rect x="180" y="318" width="420.47" height="22" fill="#4c78a8" rx="3"/>
<text x="608.47" y="334" class="value">186.63</text>
<text x="10" y="366" class="label">gog.com</text>
<rect x="180" y="350" width="442.84" height="22" fill="#4c78a8" rx="3"/>
<text x="630.8399999999999" y="366" class="value">196.56</text>
<text x="10" y="398" class="label">easyanticheat.net</text>
<rect x="180" y="382" width="454.29" height="22" fill="#4c78a8" rx="3"/>
<text x="642.29" y="398" class="value">201.64</text>
<text x="10" y="430" class="label">www.steamcommunity.com</text>
<rect x="180" y="414" width="498.58" height="22" fill="#4c78a8" rx="3"/>
<text x="686.5799999999999" y="430" class="value">221.30</text>
<text x="10" y="462" class="label">steam-chat.com</text>
<rect x="180" y="446" width="555.65" height="22" fill="#4c78a8" rx="3"/>
<text x="743.65" y="462" class="value">246.63</text>
<text x="10" y="494" class="label">launcher-public-service-prod06.ol.epicgames.com</text>
<rect x="180" y="478" width="580.0" height="22" fill="#4c78a8" rx="3"/>
<text x="768.0" y="494" class="value">257.44</text>
<line x1="180" y1="30" x2="180" y2="520" stroke="#ccc"/>
<line x1="180" y1="520" x2="760" y2="520" stroke="#ccc"/>
</svg>