<svg xmlns="http://www.w3.org/2000/svg" width="800" height="540">
<style> .label{font-family:DejaVu Sans,Verdana,Geneva,sans-serif;font-size:12px;fill:#333} .value{font-family:DejaVu Sans,Verdana,Geneva,sans-serif;font-size:12px;fill:#555} </style>
<text x="10" y="20" class="label">延迟柱状图（越低越好，Top 15），单位 ms</text>
<text x="10" y="46" class="label">rockstargames.com</text>
<rect x="180" y="30" width="167.66" height="22" fill="#4c78a8" rx="3"/>
<text x="355.65999999999997" y="46" class="value">60.95</text>
<text x="10" y="78" class="label">socialclub.rockstargames.com</text>
<rect x="180" y="62" width="231.09" height="22" fill="#4c78a8" rx="3"/>
<text x="419.09000000000003" y="78" class="value">84.01</text>
<text x="10" y="110" class="label">battle.net</text>
<rect x="180" y="94" width="253.04" height="22" fill="#4c78a8" rx="3"/>
<text x="441.03999999999996" y="110" class="value">91.99</text>
<text x="10" y="142" class="label">fortnite.com</text>
<rect x="180" y="126" width="267.32" height="22" fill="#4c78a8" rx="3"/>
<text x="455.32" y="142" class="value">97.18</text>
<text x="10" y="174" class="label">eaassets-a.akamaihd.net</text>
<rect x="180" y="158" width="277.25" height="22" fill="#4c78a8" rx="3"/>
<text x="465.25" y="174" class="value">100.79</text>
<text x="10" y="206" class="label">blizzard.com</text>
<rect x="180" y="190" width="278.79" height="22" fill="#4c78a8" rx="3"/>
<text x="466.79" y="206" class="value">101.35</text>
<text x="10" y="238" class="label">ubi.com</text>
<rect x="180" y="222" width="285.78" height="22" fill="#4c78a8" rx="3"/>
<text x="473.78" y="238" class="value">103.89</text>
<text x="10" y="270" class="label">ubisoft.com</text>
<rect x="180" y="254" width="299.04" height="22" fill="#4c78a8" rx="3"/>
<text x="487.04" y="270" class="value">108.71</text>
<text x="10" y="302" class="label">community.akamai.steamstatic.com</text>
<rect x="180" y="286" width="350.28" height="22" fill="#4c78a8" rx="3"/>
<text x="538.28" y="302" class="value">127.34</text>
<text x="10" y="334" class="label">epicgames.com</text>
<rect x="180" y="318" width="416.36" height="22" fill="#4c78a8" rx="3"/>
<text x="604.36" y="334" class="value">151.36</text>
<text x="10" y="366" class="label">launcher-public-service-prod06.ol.epicgames.com</text>
<rect x="180" y="350" width="461.58" height="22" fill="#4c78a8" rx="3"/>
<text x="649.5799999999999" y="366" class="value">167.80</text>
<text x="10" y="398" class="label">cdn.akamai.steamstatic.com</text>
<rect x="180" y="382" width="463.78" height="22" fill="#4c78a8" rx="3"/>
<text x="651.78" y="398" class="value">168.60</text>
<text x="10" y="430" class="label">ea.com</text>
<rect x="180" y="414" width="467.3" height="22" fill="#4c78a8" rx="3"/>
<text x="655.3" y="430" class="value">169.88</text>
<text x="10" y="462" class="label">static3.cdn.ubi.com</text>
<rect x="180" y="446" width="522.95" height="22" fill="#4c78a8" rx="3"/>
<text x="710.95" y="462" class="value">190.11</text>
<text x="10" y="494" class="label">origin.com</text>
<rect x="180" y="478" width="580.0" height="22" fill="#4c78a8" rx="3"/>
<text x="768.0" y="494" class="value">210.85</text>
<line x1="180" y1="30" x2="180" y2="520" stroke="#ccc"/>
<line x1="180" y1="520" x2="760" y2="520" stroke="#ccc"/>
</svg>