<svg xmlns="http://www.w3.org/2000/svg" width="800" height="540">
<style> .label{font-family:DejaVu Sans,Verdana,Geneva,sans-serif;font-size:12px;fill:#333} .value{font-family:DejaVu Sans,Verdana,Geneva,sans-serif;font-size:12px;fill:#555} </style>
<text x="10" y="20" class="label">延迟柱状图（越低越好，Top 15），单位 ms</text>
<text x="10" y="46" class="label">ea.com</text>
<rect x="180" y="30" width="262.16" height="22" fill="#4c78a8" rx="3"/>
<text x="450.16" y="46" class="value">106.85</text>
<text x="10" y="78" class="label">easyanticheat.net</text>
<rect x="180" y="62" width="287.83" height="22" fill="#4c78a8" rx="3"/>
<text x="475.83" y="78" class="value">117.31</text>
<text x="10" y="110" class="label">rockstargames.com</text>
<rect x="180" y="94" width="302.67" height="22" fill="#4c78a8" rx="3"/>
<text x="490.67" y="110" class="value">123.36</text>
<text x="10" y="142" class="label">ubisoft.com</text>
<rect x="180" y="126" width="369.93" height="22" fill="#4c78a8" rx="3"/>
<text x="557.9300000000001" y="142" class="value">150.77</text>
<text x="10" y="174" class="label">battle.net</text>
<rect x="180" y="158" width="410.83" height="22" fill="#4c78a8" rx="3"/>
<text x="598.8299999999999" y="174" class="value">167.44</text>
<text x="10" y="206" class="label">eaassets-a.akamaihd.net</text>
<rect x="180" y="190" width="416.94" height="22" fill="#4c78a8" rx="3"/>
<text x="604.94" y="206" class="value">169.93</text>
<text x="10" y="238" class="label">blizzard.com</text>
<rect x="180" y="222" width="424.12" height="22" fill="#4c78a8" rx="3"/>
<text x="612.12" y="238" class="value">172.86</text>
<text x="10" y="270" class="label">www.steamcommunity.com</text>
<rect x="180" y="254" width="431.83" height="22" fill="#4c78a8" rx="3"/>
<text x="619.8299999999999" y="270" class="value">176.00</text>
<text x="10" y="302" class="label">ubi.com</text>
<rect x="180" y="286" width="457.13" height="22" fill="#4c78a8" rx="3"/>
<text x="645.13" y="302" class="value">186.31</text>
<text x="10" y="334" class="label">steamcdn-a.akamaihd.net</text>
<rect x="180" y="318" width="473.1" height="22" fill="#4c78a8" rx="3"/>
<text x="661.1" y="334" class="value">192.82</text>
<text x="10" y="366" class="label">socialclub.rockstargames.com</text>
<rect x="180" y="350" width="483.26" height="22" fill="#4c78a8" rx="3"/>
<text x="671.26" y="366" class="value">196.96</text>
<text x="10" y="398" class="label">origin.com</text>
<rect x="180" y="382" width="493.02" height="22" fill="#4c78a8" rx="3"/>
<text x="681.02" y="398" class="value">200.94</text>
<text x="10" y="430" class="label">launcher-public-service-prod06.ol.epicgames.com</text>
<rect x="180" y="414" width="534.54" height="22" fill="#4c78a8" rx="3"/>
<text x="722.54" y="430" class="value">217.86</text>
<text x="10" y="462" class="label">api.steampowered.com</text>
<rect x="180" y="446" width="542.39" height="22" fill="#4c78a8" rx="3"/>
<text x="730.39" y="462" class="value">221.06</text>
<text x="10" y="494" class="label">cdn.cloudflare.steamstatic.com</text>
<rect x="180" y="478" width="580.0" height="22" fill="#4c78a8" rx="3"/>
<text x="768.0" y="494" class="value">236.39</text>
<line x1="180" y1="30" x2="180" y2="520" stroke="#ccc"/>
<line x1="180" y1="520" x2="760" y2="520" stroke="#ccc"/>
</svg>