<svg xmlns="http://www.w3.org/2000/svg" width="800" height="540">
<style> .label{font-family:DejaVu Sans,Verdana,Geneva,sans-serif;font-size:12px;fill:#333} .value{font-family:DejaVu Sans,Verdana,Geneva,sans-serif;font-size:12px;fill:#555} </style>
<text x="10" y="20" class="label">延迟柱状图（越低越好，Top 15），单位 ms</text>
<text x="10" y="46" class="label">rockstargames.com</text>
<rect x="180" y="30" width="184.66" height="22" fill="#4c78a8" rx="3"/>
<text x="372.65999999999997" y="46" class="value">63.67</text>
<text x="10" y="78" class="label">eaassets-a.akamaihd.net</text>
<rect x="180" y="62" width="215.32" height="22" fill="#4c78a8" rx="3"/>
<text x="403.32" y="78" class="value">74.24</text>
<text x="10" y="110" class="label">socialclub.rockstargames.com</text>
<rect x="180" y="94" width="235.94" height="22" fill="#4c78a8" rx="3"/>
<text x="423.94" y="110" class="value">81.35</text>
<text x="10" y="142" class="label">ea.com</text>
<rect x="180" y="126" width="280.37" height="22" fill="#4c78a8" rx="3"/>
<text x="468.37" y="142" class="value">96.67</text>
<text x="10" y="174" class="label">ubi.com</text>
<rect x="180" y="158" width="343.71" height="22" fill="#4c78a8" rx="3"/>
<text x="531.71" y="174" class="value">118.51</text>
<text x="10" y="206" class="label">battle.net</text>
<rect x="180" y="190" width="358.36" height="22" fill="#4c78a8" rx="3"/>
<text x="546.36" y="206" class="value">123.56</text>
<text x="10" y="238" class="label">blizzard.com</text>
<rect x="180" y="222" width="370.25" height="22" fill="#4c78a8" rx="3"/>
<text x="558.25" y="238" class="value">127.66</text>
<text x="10" y="270" class="label">fortnite.com</text>
<rect x="180" y="254" width="372.48" height="22" fill="#4c78a8" rx="3"/>
<text x="560.48" y="270" class="value">128.43</text>
<text x="10" y="302" class="label">unrealengine.com</text>
<rect x="180" y="286" width="421.99" height="22" fill="#4c78a8" rx="3"/>
<text x="609.99" y="302" class="value">145.50</text>
<text x="10" y="334" class="label">steamcdn-a.akamaihd.net</text>
<rect x="180" y="318" width="432.49" height="22" fill="#4c78a8" rx="3"/>
<text x="620.49" y="334" class="value">149.12</text>
<text x="10" y="366" class="label">ubisoft.com</text>
<rect x="180" y="350" width="446.09" height="22" fill="#4c78a8" rx="3"/>
<text x="634.0899999999999" y="366" class="value">153.81</text>
<text x="10" y="398" class="label">cdn.akamai.steamstatic.com</text>
<rect x="180" y="382" width="506.54" height="22" fill="#4c78a8" rx="3"/>
<text x="694.54" y="398" class="value">174.65</text>
<text x="10" y="430" class="label">epicgames.com</text>
<rect x="180" y="414" width="529.85" height="22" fill="#4c78a8" rx="3"/>
<text x="717.85" y="430" class="value">182.69</text>
<text x="10" y="462" class="label">origin.com</text>
<rect x="180" y="446" width="538.64" height="22" fill="#4c78a8" rx="3"/>
<text x="726.64" y="462" class="value">185.72</text>
<text x="10" y="494" class="label">static3.cdn.ubi.com</text>
<rect x="180" y="478" width="580.0" height="22" fill="#4c78a8" rx="3"/>
<text x="768.0" y="494" class="value">199.98</text>
<line x1="180" y1="30" x2="180" y2="520" stroke="#ccc"/>
<line x1="180" y1="520" x2="760" y2="520" stroke="#ccc"/>
</svg>