<svg xmlns="http://www.w3.org/2000/svg" width="800" height="540">
<style> .label{font-family:DejaVu Sans,Verdana,Geneva,sans-serif;font-size:12px;fill:#333} .value{font-family:DejaVu Sans,Verdana,Geneva,sans-serif;font-size:12px;fill:#555} </style>
<text x="10" y="20" class="label">延迟柱状图（越低越好，Top 15），单位 ms</text>
<text x="10" y="46" class="label">eaassets-a.akamaihd.net</text>
<rect x="180" y="30" width="196.5" height="22" fill="#4c78a8" rx="3"/>
<text x="384.5" y="46" class="value">64.27</text>
<text x="10" y="78" class="label">rockstargames.com</text>
<rect x="180" y="62" width="196.66" height="22" fill="#4c78a8" rx="3"/>
<text x="384.65999999999997" y="78" class="value">64.32</text>
<text x="10" y="110" class="label">community.akamai.steamstatic.com</text>
<rect x="180" y="94" width="240.93" height="22" fill="#4c78a8" rx="3"/>
<text x="428.93" y="110" class="value">78.80</text>
<text x="10" y="142" class="label">ea.com</text>
<rect x="180" y="126" width="252.55" height="22" fill="#4c78a8" rx="3"/>
<text x="440.55" y="142" class="value">82.60</text>
<text x="10" y="174" class="label">ubisoft.com</text>
<rect x="180" y="158" width="284.13" height="22" fill="#4c78a8" rx="3"/>
<text x="472.13" y="174" class="value">92.93</text>
<text x="10" y="206" class="label">static3.cdn.ubi.com</text>
<rect x="180" y="190" width="380.07" height="22" fill="#4c78a8" rx="3"/>
<text x="568.0699999999999" y="206" class="value">124.31</text>
<text x="10" y="238" class="label">battle.net</text>
<rect x="180" y="222" width="386.52" height="22" fill="#4c78a8" rx="3"/>
<text x="574.52" y="238" class="value">126.42</text>
<text x="10" y="270" class="label">ubi.com</text>
<rect x="180" y="254" width="416.0" height="22" fill="#4c78a8" rx="3"/>
<text x="604.0" y="270" class="value">136.06</text>
<text x="10" y="302" class="label">cdn.cloudflare.steamstatic.com</text>
<rect x="180" y="286" width="433.88" height="22" fill="#4c78a8" rx="3"/>
<text x="621.88" y="302" class="value">141.91</text>
<text x="10" y="334" class="label">blizzard.com</text>
<rect x="180" y="318" width="435.99" height="22" fill="#4c78a8" rx="3"/>
<text x="623.99" y="334" class="value">142.60</text>
<text x="10" y="366" class="label">origin.com</text>
<rect x="180" y="350" width="451.22" height="22" fill="#4c78a8" rx="3"/>
<text x="639.22" y="366" class="value">147.58</text>
<text x="10" y="398" class="label">socialclub.rockstargames.com</text>
<rect x="180" y="382" width="483.2" height="22" fill="#4c78a8" rx="3"/>
<text x="671.2" y="398" class="value">158.04</text>
<text x="10" y="430" class="label">steamcdn-a.akamaihd.net</text>
<rect x="180" y="414" width="522.46" height="22" fill="#4c78a8" rx="3"/>
<text x="710.46" y="430" class="value">170.88</text>
<text x="10" y="462" class="label">store.akamai.steamstatic.com</text>
<rect x="180" y="446" width="555.94" height="22" fill="#4c78a8" rx="3"/>
<text x="743.94" y="462" class="value">181.83</text>
<text x="10" y="494" class="label">steam-chat.com</text>
<rect x="180" y="478" width="580.0" height="22" fill="#4c78a8" rx="3"/>
<text x="768.0" y="494" class="value">189.70</text>
<line x1="180" y1="30" x2="180" y2="520" stroke="#ccc"/>
<line x1="180" y1="520" x2="760" y2="520" stroke="#ccc"/>
</svg>