<svg xmlns="http://www.w3.org/2000/svg" width="800" height="540">
<style> .label{font-family:DejaVu Sans,Verdana,Geneva,sans-serif;font-size:12px;fill:#333} .value{font-family:DejaVu Sans,Verdana,Geneva,sans-serif;font-size:12px;fill:#555} </style>
<text x="10" y="20" class="label">延迟柱状图（越低越好，Top 15），单位 ms</text>
<text x="10" y="46" class="label">ea.com</text>
<rect x="180" y="30" width="220.98" height="22" fill="#4c78a8" rx="3"/>
<text x="408.98" y="46" class="value">80.85</text>
<text x="10" y="78" class="label">rockstargames.com</text>
<rect x="180" y="62" width="236.43" height="22" fill="#4c78a8" rx="3"/>
<text x="424.43" y="78" class="value">86.50</text>
<text x="10" y="110" class="label">origin.com</text>
<rect x="180" y="94" width="244.49" height="22" fill="#4c78a8" rx="3"/>
<text x="432.49" y="110" class="value">89.45</text>
<text x="10" y="142" class="label">eaassets-a.akamaihd.net</text>
<rect x="180" y="126" width="283.69" height="22" fill="#4c78a8" rx="3"/>
<text x="471.69" y="142" class="value">103.79</text>
<text x="10" y="174" class="label">ubisoft.com</text>
<rect x="180" y="158" width="334.42" height="22" fill="#4c78a8" rx="3"/>
<text x="522.4200000000001" y="174" class="value">122.35</text>
<text x="10" y="206" class="label">steamcdn-a.akamaihd.net</text>
<rect x="180" y="190" width="373.12" height="22" fill="#4c78a8" rx="3"/>
<text x="561.12" y="206" class="value">136.51</text>
<text x="10" y="238" class="label">socialclub.rockstargames.com</text>
<rect x="180" y="222" width="373.86" height="22" fill="#4c78a8" rx="3"/>
<text x="561.86" y="238" class="value">136.78</text>
<text x="10" y="270" class="label">blizzard.com</text>
<rect x="180" y="254" width="399.85" height="22" fill="#4c78a8" rx="3"/>
<text x="587.85" y="270" class="value">146.29</text>
<text x="10" y="302" class="label">battle.net</text>
<rect x="180" y="286" width="438.31" height="22" fill="#4c78a8" rx="3"/>
<text x="626.31" y="302" class="value">160.36</text>
<text x="10" y="334" class="label">ubi.com</text>
<rect x="180" y="318" width="469.85" height="22" fill="#4c78a8" rx="3"/>
<text x="657.85" y="334" class="value">171.90</text>
<text x="10" y="366" class="label">static3.cdn.ubi.com</text>
<rect x="180" y="350" width="499.78" height="22" fill="#4c78a8" rx="3"/>
<text x="687.78" y="366" class="value">182.85</text>
<text x="10" y="398" class="label">easyanticheat.net</text>
<rect x="180" y="382" width="519.54" height="22" fill="#4c78a8" rx="3"/>
<text x="707.54" y="398" class="value">190.08</text>
<text x="10" y="430" class="label">fortnite.com</text>
<rect x="180" y="414" width="566.52" height="22" fill="#4c78a8" rx="3"/>
<text x="754.52" y="430" class="value">207.27</text>
<text x="10" y="462" class="label">community.akamai.steamstatic.com</text>
<rect x="180" y="446" width="572.35" height="22" fill="#4c78a8" rx="3"/>
<text x="760.35" y="462" class="value">209.40</text>
<text x="10" y="494" class="label">steamcommunity.com</text>
<rect x="180" y="478" width="580.0" height="22" fill="#4c78a8" rx="3"/>
<text x="768.0" y="494" class="value">212.20</text>
<line x1="180" y1="30" x2="180" y2="520" stroke="#ccc"/>
<line x1="180" y1="520" x2="760" y2="520" stroke="#ccc"/>
</svg>