<svg xmlns="http://www.w3.org/2000/svg" width="800" height="540">
<style> .label{font-family:DejaVu Sans,Verdana,Geneva,sans-serif;font-size:12px;fill:#333} .value{font-family:DejaVu Sans,Verdana,Geneva,sans-serif;font-size:12px;fill:#555} </style>
<text x="10" y="20" class="label">延迟柱状图（越低越好，Top 15），单位 ms</text>
<text x="10" y="46" class="label">eaassets-a.akamaihd.net</text>
<rect x="180" y="30" width="180.25" height="22" fill="#4c78a8" rx="3"/>
<text x="368.25" y="46" class="value">61.08</text>
<text x="10" y="78" class="label">rockstargames.com</text>
<rect x="180" y="62" width="199.34" height="22" fill="#4c78a8" rx="3"/>
<text x="387.34000000000003" y="78" class="value">67.55</text>
<text x="10" y="110" class="label">ea.com</text>
<rect x="180" y="94" width="321.69" height="22" fill="#4c78a8" rx="3"/>
<text x="509.69" y="110" class="value">109.01</text>
<text x="10" y="142" class="label">blizzard.com</text>
<rect x="180" y="126" width="386.38" height="22" fill="#4c78a8" rx="3"/>
<text x="574.38" y="142" class="value">130.93</text>
<text x="10" y="174" class="label">ubi.com</text>
<rect x="180" y="158" width="412.06" height="22" fill="#4c78a8" rx="3"/>
<text x="600.06" y="174" class="value">139.63</text>
<text x="10" y="206" class="label">socialclub.rockstargames.com</text>
<rect x="180" y="190" width="429.47" height="22" fill="#4c78a8" rx="3"/>
<text x="617.47" y="206" class="value">145.53</text>
<text x="10" y="238" class="label">battle.net</text>
<rect x="180" y="222" width="442.13" height="22" fill="#4c78a8" rx="3"/>
<text x="630.13" y="238" class="value">149.82</text>
<text x="10" y="270" class="label">community.akamai.steamstatic.com</text>
<rect x="180" y="254" width="447.65" height="22" fill="#4c78a8" rx="3"/>
<text x="635.65" y="270" class="value">151.69</text>
<text x="10" y="302" class="label">cdn.cloudflare.steamstatic.com</text>
<rect x="180" y="286" width="492.86" height="22" fill="#4c78a8" rx="3"/>
<text x="680.86" y="302" class="value">167.01</text>
<text x="10" y="334" class="label">ubisoft.com</text>
<rect x="180" y="318" width="518.03" height="22" fill="#4c78a8" rx="3"/>
<text x="706.03" y="334" class="value">175.54</text>
<text x="10" y="366" class="label">steamcdn-a.akamaihd.net</text>
<rect x="180" y="350" width="527.12" height="22" fill="#4c78a8" rx="3"/>
<text x="715.12" y="366" class="value">178.62</text>
<text x="10" y="398" class="label">www.steamcommunity.com</text>
<rect x="180" y="382" width="539.72" height="22" fill="#4c78a8" rx="3"/>
<text x="727.72" y="398" class="value">182.89</text>
<text x="10" y="430" class="label">static3.cdn.ubi.com</text>
<rect x="180" y="414" width="542.02" height="22" fill="#4c78a8" rx="3"/>
<text x="730.02" y="430" class="value">183.67</text>
<text x="10" y="462" class="label">store.akamai.steamstatic.com</text>
<rect x="180" y="446" width="579.59" height="22" fill="#4c78a8" rx="3"/>
<text x="767.59" y="462" class="value">196.40</text>
<text x="10" y="494" class="label">epicgames.com</text>
<rect x="180" y="478" width="580.0" height="22" fill="#4c78a8" rx="3"/>
<text x="768.0" y="494" class="value">196.54</text>
<line x1="180" y1="30" x2="180" y2="520" stroke="#ccc"/>
<line x1="180" y1="520" x2="760" y2="520" stroke="#ccc"/>
</svg>