<svg xmlns="http://www.w3.org/2000/svg" width="800" height="540">
<style> .label{font-family:DejaVu Sans,Verdana,Geneva,sans-serif;font-size:12px;fill:#333} .value{font-family:DejaVu Sans,Verdana,Geneva,sans-serif;font-size:12px;fill:#555} </style>
<text x="10" y="20" class="label">延迟柱状图（越低越好，Top 15），单位 ms</text>
<text x="10" y="46" class="label">eaassets-a.akamaihd.net</text>
<rect x="180" y="30" width="177.86" height="22" fill="#4c78a8" rx="3"/>
<text x="365.86" y="46" class="value">62.96</text>
<text x="10" y="78" class="label">rockstargames.com</text>
<rect x="180" y="62" width="200.72" height="22" fill="#4c78a8" rx="3"/>
<text x="388.72" y="78" class="value">71.05</text>
<text x="10" y="110" class="label">origin.com</text>
<rect x="180" y="94" width="259.98" height="22" fill="#4c78a8" rx="3"/>
<text x="447.98" y="110" class="value">92.03</text>
<text x="10" y="142" class="label">steamcdn-a.akamaihd.net</text>
<rect x="180" y="126" width="354.48" height="22" fill="#4c78a8" rx="3"/>
<text x="542.48" y="142" class="value">125.48</text>
<text x="10" y="174" class="label">blizzard.com</text>
<rect x="180" y="158" width="359.65" height="22" fill="#4c78a8" rx="3"/>
<text x="547.65" y="174" class="value">127.31</text>
<text x="10" y="206" class="label">battle.net</text>
<rect x="180" y="190" width="365.44" height="22" fill="#4c78a8" rx="3"/>
<text x="553.44" y="206" class="value">129.36</text>
<text x="10" y="238" class="label">ubi.com</text>
<rect x="180" y="222" width="405.78" height="22" fill="#4c78a8" rx="3"/>
<text x="593.78" y="238" class="value">143.64</text>
<text x="10" y="270" class="label">ea.com</text>
<rect x="180" y="254" width="436.21" height="22" fill="#4c78a8" rx="3"/>
<text x="624.21" y="270" class="value">154.41</text>
<text x="10" y="302" class="label">socialclub.rockstargames.com</text>
<rect x="180" y="286" width="443.81" height="22" fill="#4c78a8" rx="3"/>
<text x="631.81" y="302" class="value">157.10</text>
<text x="10" y="334" class="label">ubisoft.com</text>
<rect x="180" y="318" width="455.36" height="22" fill="#4c78a8" rx="3"/>
<text x="643.36" y="334" class="value">161.19</text>
<text x="10" y="366" class="label">static3.cdn.ubi.com</text>
<rect x="180" y="350" width="463.55" height="22" fill="#4c78a8" rx="3"/>
<text x="651.55" y="366" class="value">164.09</text>
<text x="10" y="398" class="label">community.akamai.steamstatic.com</text>
<rect x="180" y="382" width="514.83" height="22" fill="#4c78a8" rx="3"/>
<text x="702.83" y="398" class="value">182.24</text>
<text x="10" y="430" class="label">store.akamai.steamstatic.com</text>
<rect x="180" y="414" width="532.57" height="22" fill="#4c78a8" rx="3"/>
<text x="720.57" y="430" class="value">188.52</text>
<text x="10" y="462" class="label">cdn.cloudflare.steamstatic.com</text>
<rect x="180" y="446" width="543.44" height="22" fill="#4c78a8" rx="3"/>
<text x="731.44" y="462" class="value">192.37</text>
<text x="10" y="494" class="label">fortnite.com</text>
<rect x="180" y="478" width="580.0" height="22" fill="#4c78a8" rx="3"/>
<text x="768.0" y="494" class="value">205.31</text>
<line x1="180" y1="30" x2="180" y2="520" stroke="#ccc"/>
<line x1="180" y1="520" x2="760" y2="520" stroke="#ccc"/>
</svg>