<svg xmlns="http://www.w3.org/2000/svg" width="800" height="540">
<style> .label{font-family:DejaVu Sans,Verdana,Geneva,sans-serif;font-size:12px;fill:#333} .value{font-family:DejaVu Sans,Verdana,Geneva,sans-serif;font-size:12px;fill:#555} </style>
<text x="10" y="20" class="label">延迟柱状图（越低越好，Top 15），单位 ms</text>
<text x="10" y="46" class="label">rockstargames.com</text>
<rect x="180" y="30" width="154.73" height="22" fill="#4c78a8" rx="3"/>
<text x="342.73" y="46" class="value">52.97</text>
<text x="10" y="78" class="label">eaassets-a.akamaihd.net</text>
<rect x="180" y="62" width="190.33" height="22" fill="#4c78a8" rx="3"/>
<text x="378.33000000000004" y="78" class="value">65.16</text>
<text x="10" y="110" class="label">ea.com</text>
<rect x="180" y="94" width="195.24" height="22" fill="#4c78a8" rx="3"/>
<text x="383.24" y="110" class="value">66.84</text>
<text x="10" y="142" class="label">store.akamai.steamstatic.com</text>
<rect x="180" y="126" width="274.05" height="22" fill="#4c78a8" rx="3"/>
<text x="462.05" y="142" class="value">93.82</text>
<text x="10" y="174" class="label">cdn.akamai.steamstatic.com</text>
<rect x="180" y="158" width="294.06" height="22" fill="#4c78a8" rx="3"/>
<text x="482.06" y="174" class="value">100.67</text>
<text x="10" y="206" class="label">blizzard.com</text>
<rect x="180" y="190" width="333.11" height="22" fill="#4c78a8" rx="3"/>
<text x="521.11" y="206" class="value">114.04</text>
<text x="10" y="238" class="label">battle.net</text>
<rect x="180" y="222" width="353.21" height="22" fill="#4c78a8" rx="3"/>
<text x="541.21" y="238" class="value">120.92</text>
<text x="10" y="270" class="label">origin.com</text>
<rect x="180" y="254" width="367.93" height="22" fill="#4c78a8" rx="3"/>
<text x="555.9300000000001" y="270" class="value">125.96</text>
<text x="10" y="302" class="label">steamcdn-a.akamaihd.net</text>
<rect x="180" y="286" width="372.78" height="22" fill="#4c78a8" rx="3"/>
<text x="560.78" y="302" class="value">127.62</text>
<text x="10" y="334" class="label">socialclub.rockstargames.com</text>
<rect x="180" y="318" width="374.71" height="22" fill="#4c78a8" rx="3"/>
<text x="562.71" y="334" class="value">128.28</text>
<text x="10" y="366" class="label">community.akamai.steamstatic.com</text>
<rect x="180" y="350" width="410.35" height="22" fill="#4c78a8" rx="3"/>
<text x="598.35" y="366" class="value">140.48</text>
<text x="10" y="398" class="label">ubi.com</text>
<rect x="180" y="382" width="426.27" height="22" fill="#4c78a8" rx="3"/>
<text x="614.27" y="398" class="value">145.93</text>
<text x="10" y="430" class="label">cdn.cloudflare.steamstatic.com</text>
<rect x="180" y="414" width="519.53" height="22" fill="#4c78a8" rx="3"/>
<text x="707.53" y="430" class="value">177.86</text>
<text x="10" y="462" class="label">ubisoft.com</text>
<rect x="180" y="446" width="563.64" height="22" fill="#4c78a8" rx="3"/>
<text x="751.64" y="462" class="value">192.96</text>
<text x="10" y="494" class="label">epicgames.com</text>
<rect x="180" y="478" width="580.0" height="22" fill="#4c78a8" rx="3"/>
<text x="768.0" y="494" class="value">198.56</text>
<line x1="180" y1="30" x2="180" y2="520" stroke="#ccc"/>
<line x1="180" y1="520" x2="760" y2="520" stroke="#ccc"/>
</svg>