<svg xmlns="http://www.w3.org/2000/svg" width="800" height="540">
<style> .label{font-family:DejaVu Sans,Verdana,Geneva,sans-serif;font-size:12px;fill:#333} .value{font-family:DejaVu Sans,Verdana,Geneva,sans-serif;font-size:12px;fill:#555} </style>
<text x="10" y="20" class="label">延迟柱状图（越低越好，Top 15），单位 ms</text>
<text x="10" y="46" class="label">rockstargames.com</text>
<rect x="180" y="30" width="141.56" height="22" fill="#4c78a8" rx="3"/>
<text x="329.56" y="46" class="value">60.87</text>
<text x="10" y="78" class="label">store.akamai.steamstatic.com</text>
<rect x="180" y="62" width="268.29" height="22" fill="#4c78a8" rx="3"/>
<text x="456.29" y="78" class="value">115.36</text>
<text x="10" y="110" class="label">eaassets-a.akamaihd.net</text>
<rect x="180" y="94" width="280.34" height="22" fill="#4c78a8" rx="3"/>
<text x="468.34" y="110" class="value">120.54</text>
<text x="10" y="142" class="label">cdn.akamai.steamstatic.com</text>
<rect x="180" y="126" width="282.69" height="22" fill="#4c78a8" rx="3"/>
<text x="470.69" y="142" class="value">121.55</text>
<text x="10" y="174" class="label">steamcdn-a.akamaihd.net</text>
<rect x="180" y="158" width="285.1" height="22" fill="#4c78a8" rx="3"/>
<text x="473.1" y="174" class="value">122.59</text>
<text x="10" y="206" class="label">origin.com</text>
<rect x="180" y="190" width="295.9" height="22" fill="#4c78a8" rx="3"/>
<text x="483.9" y="206" class="value">127.23</text>
<text x="10" y="238" class="label">community.akamai.steamstatic.com</text>
<rect x="180" y="222" width="321.13" height="22" fill="#4c78a8" rx="3"/>
<text x="509.13" y="238" class="value">138.08</text>
<text x="10" y="270" class="label">cdn.cloudflare.steamstatic.com</text>
<rect x="180" y="254" width="358.41" height="22" fill="#4c78a8" rx="3"/>
<text x="546.4100000000001" y="270" class="value">154.11</text>
<text x="10" y="302" class="label">ubisoft.com</text>
<rect x="180" y="286" width="396.09" height="22" fill="#4c78a8" rx="3"/>
<text x="584.0899999999999" y="302" class="value">170.31</text>
<text x="10" y="334" class="label">easyanticheat.net</text>
<rect x="180" y="318" width="419.18" height="22" fill="#4c78a8" rx="3"/>
<text x="607.1800000000001" y="334" class="value">180.24</text>
<text x="10" y="366" class="label">api.steampowered.com</text>
<rect x="180" y="350" width="437.2" height="22" fill="#4c78a8" rx="3"/>
<text x="625.2" y="366" class="value">187.99</text>
<text x="10" y="398" class="label">ea.com</text>
<rect x="180" y="382" width="444.34" height="22" fill="#4c78a8" rx="3"/>
<text x="632.3399999999999" y="398" class="value">191.06</text>
<text x="10" y="430" class="label">www.steamcommunity.com</text>
<rect x="180" y="414" width="489.35" height="22" fill="#4c78a8" rx="3"/>
<text x="677.35" y="430" class="value">210.41</text>
<text x="10" y="462" class="label">steam-chat.com</text>
<rect x="180" y="446" width="550.07" height="22" fill="#4c78a8" rx="3"/>
<text x="738.07" y="462" class="value">236.52</text>
<text x="10" y="494" class="label">unrealengine.com</text>
<rect x="180" y="478" width="580.0" height="22" fill="#4c78a8" rx="3"/>
<text x="768.0" y="494" class="value">249.39</text>
<line x1="180" y1="30" x2="180" y2="520" stroke="#ccc"/>
<line x1="180" y1="520" x2="760" y2="520" stroke="#ccc"/>
</svg>