<svg xmlns="http://www.w3.org/2000/svg" width="800" height="540">
<style> .label{font-family:DejaVu Sans,Verdana,Geneva,sans-serif;font-size:12px;fill:#333} .value{font-family:DejaVu Sans,Verdana,Geneva,sans-serif;font-size:12px;fill:#555} </style>
<text x="10" y="20" class="label">延迟柱状图（越低越好，Top 15），单位 ms</text>
<text x="10" y="46" class="label">rockstargames.com</text>
<rect x="180" y="30" width="194.21" height="22" fill="#4c78a8" rx="3"/>
<text x="382.21000000000004" y="46" class="value">84.28</text>
<text x="10" y="78" class="label">ubisoft.com</text>
<rect x="180" y="62" width="213.08" height="22" fill="#4c78a8" rx="3"/>
<text x="401.08000000000004" y="78" class="value">92.47</text>
<text x="10" y="110" class="label">steamcdn-a.akamaihd.net</text>
<rect x="180" y="94" width="260.11" height="22" fill="#4c78a8" rx="3"/>
<text x="448.11" y="110" class="value">112.88</text>
<text x="10" y="142" class="label">cdn.cloudflare.steamstatic.com</text>
<rect x="180" y="126" width="263.89" height="22" fill="#4c78a8" rx="3"/>
<text x="451.89" y="142" class="value">114.52</text>
<text x="10" y="174" class="label">eaassets-a.akamaihd.net</text>
<rect x="180" y="158" width="264.93" height="22" fill="#4c78a8" rx="3"/>
<text x="452.93" y="174" class="value">114.97</text>
<text x="10" y="206" class="label">ea.com</text>
<rect x="180" y="190" width="287.19" height="22" fill="#4c78a8" rx="3"/>
<text x="475.19" y="206" class="value">124.63</text>
<text x="10" y="238" class="label">cdn.akamai.steamstatic.com</text>
<rect x="180" y="222" width="339.4" height="22" fill="#4c78a8" rx="3"/>
<text x="527.4" y="238" class="value">147.29</text>
<text x="10" y="270" class="label">store.akamai.steamstatic.com</text>
<rect x="180" y="254" width="352.36" height="22" fill="#4c78a8" rx="3"/>
<text x="540.36" y="270" class="value">152.91</text>
<text x="10" y="302" class="label">origin.com</text>
<rect x="180" y="286" width="370.72" height="22" fill="#4c78a8" rx="3"/>
<text x="558.72" y="302" class="value">160.88</text>
<text x="10" y="334" class="label">community.akamai.steamstatic.com</text>
<rect x="180" y="318" width="399.06" height="22" fill="#4c78a8" rx="3"/>
<text x="587.06" y="334" class="value">173.18</text>
<text x="10" y="366" class="label">easyanticheat.net</text>
<rect x="180" y="350" width="487.73" height="22" fill="#4c78a8" rx="3"/>
<text x="675.73" y="366" class="value">211.66</text>
<text x="10" y="398" class="label">steam-chat.com</text>
<rect x="180" y="382" width="505.41" height="22" fill="#4c78a8" rx="3"/>
<text x="693.4100000000001" y="398" class="value">219.33</text>
<text x="10" y="430" class="label">api.steampowered.com</text>
<rect x="180" y="414" width="568.06" height="22" fill="#4c78a8" rx="3"/>
<text x="756.06" y="430" class="value">246.52</text>
<text x="10" y="462" class="label">ubi.com</text>
<rect x="180" y="446" width="570.74" height="22" fill="#4c78a8" rx="3"/>
<text x="758.74" y="462" class="value">247.68</text>
<text x="10" y="494" class="label">www.steamcommunity.com</text>
<rect x="180" y="478" width="580.0" height="22" fill="#4c78a8" rx="3"/>
<text x="768.0" y="494" class="value">251.70</text>
<line x1="180" y1="30" x2="180" y2="520" stroke="#ccc"/>
<line x1="180" y1="520" x2="760" y2="520" stroke="#ccc"/>
</svg>