<svg xmlns="http://www.w3.org/2000/svg" width="800" height="540">
<style> .label{font-family:DejaVu Sans,Verdana,Geneva,sans-serif;font-size:12px;fill:#333} .value{font-family:DejaVu Sans,Verdana,Geneva,sans-serif;font-size:12px;fill:#555} </style>
<text x="10" y="20" class="label">延迟柱状图（越低越好，Top 15），单位 ms</text>
<text x="10" y="46" class="label">community.akamai.steamstatic.com</text>
<rect x="180" y="30" width="223.29" height="22" fill="#4c78a8" rx="3"/>
<text x="411.28999999999996" y="46" class="value">90.15</text>
<text x="10" y="78" class="label">rockstargames.com</text>
<rect x="180" y="62" width="333.36" height="22" fill="#4c78a8" rx="3"/>
<text x="521.36" y="78" class="value">134.59</text>
<text x="10" y="110" class="label">easyanticheat.net</text>
<rect x="180" y="94" width="336.16" height="22" fill="#4c78a8" rx="3"/>
<text x="524.1600000000001" y="110" class="value">135.72</text>
<text x="10" y="142" class="label">blizzard.com</text>
<rect x="180" y="126" width="345.84" height="22" fill="#4c78a8" rx="3"/>
<text x="533.8399999999999" y="142" class="value">139.63</text>
<text x="10" y="174" class="label">store.akamai.steamstatic.com</text>
<rect x="180" y="158" width="366.03" height="22" fill="#4c78a8" rx="3"/>
<text x="554.03" y="174" class="value">147.78</text>
<text x="10" y="206" class="label">battle.net</text>
<rect x="180" y="190" width="378.61" height="22" fill="#4c78a8" rx="3"/>
<text x="566.61" y="206" class="value">152.86</text>
<text x="10" y="238" class="label">eaassets-a.akamaihd.net</text>
<rect x="180" y="222" width="415.51" height="22" fill="#4c78a8" rx="3"/>
<text x="603.51" y="238" class="value">167.76</text>
<text x="10" y="270" class="label">ubisoft.com</text>
<rect x="180" y="254" width="463.39" height="22" fill="#4c78a8" rx="3"/>
<text x="651.39" y="270" class="value">187.09</text>
<text x="10" y="302" class="label">ubi.com</text>
<rect x="180" y="286" width="474.41" height="22" fill="#4c78a8" rx="3"/>
<text x="662.4100000000001" y="302" class="value">191.54</text>
<text x="10" y="334" class="label">steam-chat.com</text>
<rect x="180" y="318" width="487.96" height="22" fill="#4c78a8" rx="3"/>
<text x="675.96" y="334" class="value">197.01</text>
<text x="10" y="366" class="label">steamcdn-a.akamaihd.net</text>
<rect x="180" y="350" width="492.64" height="22" fill="#4c78a8" rx="3"/>
<text x="680.64" y="366" class="value">198.90</text>
<text x="10" y="398" class="label">socialclub.rockstargames.com</text>
<rect x="180" y="382" width="522.17" height="22" fill="#4c78a8" rx="3"/>
<text x="710.17" y="398" class="value">210.82</text>
<text x="10" y="430" class="label">ea.com</text>
<rect x="180" y="414" width="550.38" height="22" fill="#4c78a8" rx="3"/>
<text x="738.38" y="430" class="value">222.21</text>
<text x="10" y="462" class="label">cdn.cloudflare.steamstatic.com</text>
<rect x="180" y="446" width="557.78" height="22" fill="#4c78a8" rx="3"/>
<text x="745.78" y="462" class="value">225.20</text>
<text x="10" y="494" class="label">api.steampowered.com</text>
<rect x="180" y="478" width="580.0" height="22" fill="#4c78a8" rx="3"/>
<text x="768.0" y="494" class="value">234.17</text>
<line x1="180" y1="30" x2="180" y2="520" stroke="#ccc"/>
<line x1="180" y1="520" x2="760" y2="520" stroke="#ccc"/>
</svg>