<svg xmlns="http://www.w3.org/2000/svg" width="800" height="540">
<style> .label{font-family:DejaVu Sans,Verdana,Geneva,sans-serif;font-size:12px;fill:#333} .value{font-family:DejaVu Sans,Verdana,Geneva,sans-serif;font-size:12px;fill:#555} </style>
<text x="10" y="20" class="label">延迟柱状图（越低越好，Top 15），单位 ms</text>
<text x="10" y="46" class="label">rockstargames.com</text>
<rect x="180" y="30" width="159.01" height="22" fill="#4c78a8" rx="3"/>
<text x="347.01" y="46" class="value">61.64</text>
<text x="10" y="78" class="label">ea.com</text>
<rect x="180" y="62" width="236.59" height="22" fill="#4c78a8" rx="3"/>
<text x="424.59000000000003" y="78" class="value">91.71</text>
<text x="10" y="110" class="label">ubi.com</text>
<rect x="180" y="94" width="249.69" height="22" fill="#4c78a8" rx="3"/>
<text x="437.69" y="110" class="value">96.79</text>
<text x="10" y="142" class="label">blizzard.com</text>
<rect x="180" y="126" width="266.85" height="22" fill="#4c78a8" rx="3"/>
<text x="454.85" y="142" class="value">103.44</text>
<text x="10" y="174" class="label">socialclub.rockstargames.com</text>
<rect x="180" y="158" width="276.55" height="22" fill="#4c78a8" rx="3"/>
<text x="464.55" y="174" class="value">107.20</text>
<text x="10" y="206" class="label">community.akamai.steamstatic.com</text>
<rect x="180" y="190" width="283.95" height="22" fill="#4c78a8" rx="3"/>
<text x="471.95" y="206" class="value">110.07</text>
<text x="10" y="238" class="label">fortnite.com</text>
<rect x="180" y="222" width="330.08" height="22" fill="#4c78a8" rx="3"/>
<text x="518.0799999999999" y="238" class="value">127.95</text>
<text x="10" y="270" class="label">origin.com</text>
<rect x="180" y="254" width="342.33" height="22" fill="#4c78a8" rx="3"/>
<text x="530.3299999999999" y="270" class="value">132.70</text>
<text x="10" y="302" class="label">static3.cdn.ubi.com</text>
<rect x="180" y="286" width="434.84" height="22" fill="#4c78a8" rx="3"/>
<text x="622.8399999999999" y="302" class="value">168.56</text>
<text x="10" y="334" class="label">unrealengine.com</text>
<rect x="180" y="318" width="517.73" height="22" fill="#4c78a8" rx="3"/>
<text x="705.73" y="334" class="value">200.69</text>
<text x="10" y="366" class="label">store.akamai.steamstatic.com</text>
<rect x="180" y="350" width="528.79" height="22" fill="#4c78a8" rx="3"/>
<text x="716.79" y="366" class="value">204.98</text>
<text x="10" y="398" class="label">cdn.akamai.steamstatic.com</text>
<rect x="180" y="382" width="534.06" height="22" fill="#4c78a8" rx="3"/>
<text x="722.06" y="398" class="value">207.02</text>
<text x="10" y="430" class="label">epicgames.com</text>
<rect x="180" y="414" width="558.85" height="22" fill="#4c78a8" rx="3"/>
<text x="746.85" y="430" class="value">216.63</text>
<text x="10" y="462" class="label">easyanticheat.net</text>
<rect x="180" y="446" width="569.91" height="22" fill="#4c78a8" rx="3"/>
<text x="757.91" y="462" class="value">220.92</text>
<text x="10" y="494" class="label">steam-chat.com</text>
<rect x="180" y="478" width="580.0" height="22" fill="#4c78a8" rx="3"/>
<text x="768.0" y="494" class="value">224.83</text>
<line x1="180" y1="30" x2="180" y2="520" stroke="#ccc"/>
<line x1="180" y1="520" x2="760" y2="520" stroke="#ccc"/>
</svg>