<svg xmlns="http://www.w3.org/2000/svg" width="800" height="540">
<style> .label{font-family:DejaVu Sans,Verdana,Geneva,sans-serif;font-size:12px;fill:#333} .value{font-family:DejaVu Sans,Verdana,Geneva,sans-serif;font-size:12px;fill:#555} </style>
<text x="10" y="20" class="label">延迟柱状图（越低越好，Top 15），单位 ms</text>
<text x="10" y="46" class="label">rockstargames.com</text>
<rect x="180" y="30" width="150.3" height="22" fill="#4c78a8" rx="3"/>
<text x="338.3" y="46" class="value">51.59</text>
<text x="10" y="78" class="label">battle.net</text>
<rect x="180" y="62" width="255.88" height="22" fill="#4c78a8" rx="3"/>
<text x="443.88" y="78" class="value">87.83</text>
<text x="10" y="110" class="label">blizzard.com</text>
<rect x="180" y="94" width="256.47" height="22" fill="#4c78a8" rx="3"/>
<text x="444.47" y="110" class="value">88.03</text>
<text x="10" y="142" class="label">ubi.com</text>
<rect x="180" y="126" width="299.61" height="22" fill="#4c78a8" rx="3"/>
<text x="487.61" y="142" class="value">102.84</text>
<text x="10" y="174" class="label">socialclub.rockstargames.com</text>
<rect x="180" y="158" width="337.69" height="22" fill="#4c78a8" rx="3"/>
<text x="525.69" y="174" class="value">115.91</text>
<text x="10" y="206" class="label">launcher-public-service-prod06.ol.epicgames.com</text>
<rect x="180" y="190" width="341.74" height="22" fill="#4c78a8" rx="3"/>
<text x="529.74" y="206" class="value">117.30</text>
<text x="10" y="238" class="label">store.akamai.steamstatic.com</text>
<rect x="180" y="222" width="378.92" height="22" fill="#4c78a8" rx="3"/>
<text x="566.9200000000001" y="238" class="value">130.06</text>
<text x="10" y="270" class="label">unrealengine.com</text>
<rect x="180" y="254" width="413.21" height="22" fill="#4c78a8" rx="3"/>
<text x="601.21" y="270" class="value">141.83</text>
<text x="10" y="302" class="label">community.akamai.steamstatic.com</text>
<rect x="180" y="286" width="431.15" height="22" fill="#4c78a8" rx="3"/>
<text x="619.15" y="302" class="value">147.99</text>
<text x="10" y="334" class="label">eaassets-a.akamaihd.net</text>
<rect x="180" y="318" width="449.68" height="22" fill="#4c78a8" rx="3"/>
<text x="637.6800000000001" y="334" class="value">154.35</text>
<text x="10" y="366" class="label">origin.com</text>
<rect x="180" y="350" width="510.19" height="22" fill="#4c78a8" rx="3"/>
<text x="698.19" y="366" class="value">175.12</text>
<text x="10" y="398" class="label">cdn.akamai.steamstatic.com</text>
<rect x="180" y="382" width="532.28" height="22" fill="#4c78a8" rx="3"/>
<text x="720.28" y="398" class="value">182.70</text>
<text x="10" y="430" class="label">ea.com</text>
<rect x="180" y="414" width="534.93" height="22" fill="#4c78a8" rx="3"/>
<text x="722.93" y="430" class="value">183.61</text>
<text x="10" y="462" class="label">ubisoft.com</text>
<rect x="180" y="446" width="548.54" height="22" fill="#4c78a8" rx="3"/>
<text x="736.54" y="462" class="value">188.28</text>
<text x="10" y="494" class="label">epicgames.com</text>
<rect x="180" y="478" width="580.0" height="22" fill="#4c78a8" rx="3"/>
<text x="768.0" y="494" class="value">199.08</text>
<line x1="180" y1="30" x2="180" y2="520" stroke="#ccc"/>
<line x1="180" y1="520" x2="760" y2="520" stroke="#ccc"/>
</svg>