<svg xmlns="http://www.w3.org/2000/svg" width="800" height="540">
<style> .label{font-family:DejaVu Sans,Verdana,Geneva,sans-serif;font-size:12px;fill:#333} .value{font-family:DejaVu Sans,Verdana,Geneva,sans-serif;font-size:12px;fill:#555} </style>
<text x="10" y="20" class="label">延迟柱状图（越低越好，Top 15），单位 ms</text>
<text x="10" y="46" class="label">rockstargames.com</text>
<rect x="180" y="30" width="122.06" height="22" fill="#4c78a8" rx="3"/>
<text x="310.06" y="46" class="value">43.36</text>
<text x="10" y="78" class="label">socialclub.rockstargames.com</text>
<rect x="180" y="62" width="181.14" height="22" fill="#4c78a8" rx="3"/>
<text x="369.14" y="78" class="value">64.35</text>
<text x="10" y="110" class="label">community.akamai.steamstatic.com</text>
<rect x="180" y="94" width="248.59" height="22" fill="#4c78a8" rx="3"/>
<text x="436.59000000000003" y="110" class="value">88.31</text>
<text x="10" y="142" class="label">blizzard.com</text>
<rect x="180" y="126" width="282.62" height="22" fill="#4c78a8" rx="3"/>
<text x="470.62" y="142" class="value">100.40</text>
<text x="10" y="174" class="label">fortnite.com</text>
<rect x="180" y="158" width="283.92" height="22" fill="#4c78a8" rx="3"/>
<text x="471.92" y="174" class="value">100.86</text>
<text x="10" y="206" class="label">ubi.com</text>
<rect x="180" y="190" width="294.53" height="22" fill="#4c78a8" rx="3"/>
<text x="482.53" y="206" class="value">104.63</text>
<text x="10" y="238" class="label">battle.net</text>
<rect x="180" y="222" width="294.64" height="22" fill="#4c78a8" rx="3"/>
<text x="482.64" y="238" class="value">104.67</text>
<text x="10" y="270" class="label">eaassets-a.akamaihd.net</text>
<rect x="180" y="254" width="315.84" height="22" fill="#4c78a8" rx="3"/>
<text x="503.84" y="270" class="value">112.20</text>
<text x="10" y="302" class="label">unrealengine.com</text>
<rect x="180" y="286" width="316.88" height="22" fill="#4c78a8" rx="3"/>
<text x="504.88" y="302" class="value">112.57</text>
<text x="10" y="334" class="label">ubisoft.com</text>
<rect x="180" y="318" width="328.71" height="22" fill="#4c78a8" rx="3"/>
<text x="516.71" y="334" class="value">116.77</text>
<text x="10" y="366" class="label">epicgames.com</text>
<rect x="180" y="350" width="396.07" height="22" fill="#4c78a8" rx="3"/>
<text x="584.0699999999999" y="366" class="value">140.70</text>
<text x="10" y="398" class="label">ea.com</text>
<rect x="180" y="382" width="439.19" height="22" fill="#4c78a8" rx="3"/>
<text x="627.19" y="398" class="value">156.02</text>
<text x="10" y="430" class="label">cdn.akamai.steamstatic.com</text>
<rect x="180" y="414" width="526.49" height="22" fill="#4c78a8" rx="3"/>
<text x="714.49" y="430" class="value">187.03</text>
<text x="10" y="462" class="label">store.akamai.steamstatic.com</text>
<rect x="180" y="446" width="545.99" height="22" fill="#4c78a8" rx="3"/>
<text x="733.99" y="462" class="value">193.96</text>
<text x="10" y="494" class="label">static3.cdn.ubi.com</text>
<rect x="180" y="478" width="580.0" height="22" fill="#4c78a8" rx="3"/>
<text x="768.0" y="494" class="value">206.04</text>
<line x1="180" y1="30" x2="180" y2="520" stroke="#ccc"/>
<line x1="180" y1="520" x2="760" y2="520" stroke="#ccc"/>
</svg>