<svg xmlns="http://www.w3.org/2000/svg" width="800" height="540">
<style> .label{font-family:DejaVu Sans,Verdana,Geneva,sans-serif;font-size:12px;fill:#333} .value{font-family:DejaVu Sans,Verdana,Geneva,sans-serif;font-size:12px;fill:#555} </style>
<text x="10" y="20" class="label">延迟柱状图（越低越好，Top 15），单位 ms</text>
<text x="10" y="46" class="label">rockstargames.com</text>
<rect x="180" y="30" width="77.08" height="22" fill="#4c78a8" rx="3"/>
<text x="265.08" y="46" class="value">35.85</text>
<text x="10" y="78" class="label">ea.com</text>
<rect x="180" y="62" width="121.82" height="22" fill="#4c78a8" rx="3"/>
<text x="309.82" y="78" class="value">56.66</text>
<text x="10" y="110" class="label">eaassets-a.akamaihd.net</text>
<rect x="180" y="94" width="266.7" height="22" fill="#4c78a8" rx="3"/>
<text x="454.7" y="110" class="value">124.05</text>
<text x="10" y="142" class="label">ubisoft.com</text>
<rect x="180" y="126" width="278.34" height="22" fill="#4c78a8" rx="3"/>
<text x="466.34" y="142" class="value">129.46</text>
<text x="10" y="174" class="label">cdn.cloudflare.steamstatic.com</text>
<rect x="180" y="158" width="287.11" height="22" fill="#4c78a8" rx="3"/>
<text x="475.11" y="174" class="value">133.54</text>
<text x="10" y="206" class="label">origin.com</text>
<rect x="180" y="190" width="289.19" height="22" fill="#4c78a8" rx="3"/>
<text x="477.19" y="206" class="value">134.51</text>
<text x="10" y="238" class="label">steamcdn-a.akamaihd.net</text>
<rect x="180" y="222" width="307.17" height="22" fill="#4c78a8" rx="3"/>
<text x="495.17" y="238" class="value">142.87</text>
<text x="10" y="270" class="label">api.steampowered.com</text>
<rect x="180" y="254" width="444.92" height="22" fill="#4c78a8" rx="3"/>
<text x="632.9200000000001" y="270" class="value">206.94</text>
<text x="10" y="302" class="label">store.akamai.steamstatic.com</text>
<rect x="180" y="286" width="450.7" height="22" fill="#4c78a8" rx="3"/>
<text x="638.7" y="302" class="value">209.63</text>
<text x="10" y="334" class="label">easyanticheat.net</text>
<rect x="180" y="318" width="451.37" height="22" fill="#4c78a8" rx="3"/>
<text x="639.37" y="334" class="value">209.94</text>
<text x="10" y="366" class="label">cdn.akamai.steamstatic.com</text>
<rect x="180" y="350" width="455.52" height="22" fill="#4c78a8" rx="3"/>
<text x="643.52" y="366" class="value">211.87</text>
<text x="10" y="398" class="label">community.akamai.steamstatic.com</text>
<rect x="180" y="382" width="480.63" height="22" fill="#4c78a8" rx="3"/>
<text x="668.63" y="398" class="value">223.55</text>
<text x="10" y="430" class="label">www.steamcommunity.com</text>
<rect x="180" y="414" width="498.71" height="22" fill="#4c78a8" rx="3"/>
<text x="686.71" y="430" class="value">231.96</text>
<text x="10" y="462" class="label">launcher-public-service-prod06.ol.epicgames.com</text>
<rect x="180" y="446" width="579.66" height="22" fill="#4c78a8" rx="3"/>
<text x="767.66" y="462" class="value">269.61</text>
<text x="10" y="494" class="label">steam-chat.com</text>
<rect x="180" y="478" width="580.0" height="22" fill="#4c78a8" rx="3"/>
<text x="768.0" y="494" class="value">269.77</text>
<line x1="180" y1="30" x2="180" y2="520" stroke="#ccc"/>
<line x1="180" y1="520" x2="760" y2="520" stroke="#ccc"/>
</svg>