<svg xmlns="http://www.w3.org/2000/svg" width="800" height="540">
<style> .label{font-family:DejaVu Sans,Verdana,Geneva,sans-serif;font-size:12px;fill:#333} .value{font-family:DejaVu Sans,Verdana,Geneva,sans-serif;font-size:12px;fill:#555} </style>
<text x="10" y="20" class="label">延迟柱状图（越低越好，Top 15），单位 ms</text>
<text x="10" y="46" class="label">eaassets-a.akamaihd.net</text>
<rect x="180" y="30" width="96.4" height="22" fill="#4c78a8" rx="3"/>
<text x="284.4" y="46" class="value">41.57</text>
<text x="10" y="78" class="label">ubisoft.com</text>
<rect x="180" y="62" width="162.24" height="22" fill="#4c78a8" rx="3"/>
<text x="350.24" y="78" class="value">69.96</text>
<text x="10" y="110" class="label">origin.com</text>
<rect x="180" y="94" width="187.73" height="22" fill="#4c78a8" rx="3"/>
<text x="375.73" y="110" class="value">80.95</text>
<text x="10" y="142" class="label">rockstargames.com</text>
<rect x="180" y="126" width="279.33" height="22" fill="#4c78a8" rx="3"/>
<text x="467.33" y="142" class="value">120.45</text>
<text x="10" y="174" class="label">cdn.cloudflare.steamstatic.com</text>
<rect x="180" y="158" width="289.51" height="22" fill="#4c78a8" rx="3"/>
<text x="477.51" y="174" class="value">124.84</text>
<text x="10" y="206" class="label">ea.com</text>
<rect x="180" y="190" width="290.77" height="22" fill="#4c78a8" rx="3"/>
<text x="478.77" y="206" class="value">125.38</text>
<text x="10" y="238" class="label">store.akamai.steamstatic.com</text>
<rect x="180" y="222" width="348.51" height="22" fill="#4c78a8" rx="3"/>
<text x="536.51" y="238" class="value">150.28</text>
<text x="10" y="270" class="label">steamcdn-a.akamaihd.net</text>
<rect x="180" y="254" width="373.28" height="22" fill="#4c78a8" rx="3"/>
<text x="561.28" y="270" class="value">160.96</text>
<text x="10" y="302" class="label">cdn.akamai.steamstatic.com</text>
<rect x="180" y="286" width="374.02" height="22" fill="#4c78a8" rx="3"/>
<text x="562.02" y="302" class="value">161.28</text>
<text x="10" y="334" class="label">easyanticheat.net</text>
<rect x="180" y="318" width="375.64" height="22" fill="#4c78a8" rx="3"/>
<text x="563.64" y="334" class="value">161.98</text>
<text x="10" y="366" class="label">community.akamai.steamstatic.com</text>
<rect x="180" y="350" width="429.91" height="22" fill="#4c78a8" rx="3"/>
<text x="617.9100000000001" y="366" class="value">185.38</text>
<text x="10" y="398" class="label">steam-chat.com</text>
<rect x="180" y="382" width="469.4" height="22" fill="#4c78a8" rx="3"/>
<text x="657.4" y="398" class="value">202.41</text>
<text x="10" y="430" class="label">launcher-public-service-prod06.ol.epicgames.com</text>
<rect x="180" y="414" width="528.63" height="22" fill="#4c78a8" rx="3"/>
<text x="716.63" y="430" class="value">227.95</text>
<text x="10" y="462" class="label">api.steampowered.com</text>
<rect x="180" y="446" width="547.19" height="22" fill="#4c78a8" rx="3"/>
<text x="735.19" y="462" class="value">235.95</text>
<text x="10" y="494" class="label">www.steamcommunity.com</text>
<rect x="180" y="478" width="580.0" height="22" fill="#4c78a8" rx="3"/>
<text x="768.0" y="494" class="value">250.10</text>
<line x1="180" y1="30" x2="180" y2="520" stroke="#ccc"/>
<line x1="180" y1="520" x2="760" y2="520" stroke="#ccc"/>
</svg>