<svg xmlns="http://www.w3.org/2000/svg" width="800" height="540">
<style> .label{font-family:DejaVu Sans,Verdana,Geneva,sans-serif;font-size:12px;fill:#333} .value{font-family:DejaVu Sans,Verdana,Geneva,sans-serif;font-size:12px;fill:#555} </style>
<text x="10" y="20" class="label">延迟柱状图（越低越好，Top 15），单位 ms</text>
<text x="10" y="46" class="label">unrealengine.com</text>
<rect x="180" y="30" width="151.57" height="22" fill="#4c78a8" rx="3"/>
<text x="339.57" y="46" class="value">54.12</text>
<text x="10" y="78" class="label">eaassets-a.akamaihd.net</text>
<rect x="180" y="62" width="240.23" height="22" fill="#4c78a8" rx="3"/>
<text x="428.23" y="78" class="value">85.78</text>
<text x="10" y="110" class="label">blizzard.com</text>
<rect x="180" y="94" width="244.97" height="22" fill="#4c78a8" rx="3"/>
<text x="432.97" y="110" class="value">87.47</text>
<text x="10" y="142" class="label">battle.net</text>
<rect x="180" y="126" width="320.22" height="22" fill="#4c78a8" rx="3"/>
<text x="508.22" y="142" class="value">114.34</text>
<text x="10" y="174" class="label">ubisoft.com</text>
<rect x="180" y="158" width="324.45" height="22" fill="#4c78a8" rx="3"/>
<text x="512.45" y="174" class="value">115.85</text>
<text x="10" y="206" class="label">store.akamai.steamstatic.com</text>
<rect x="180" y="190" width="433.95" height="22" fill="#4c78a8" rx="3"/>
<text x="621.95" y="206" class="value">154.95</text>
<text x="10" y="238" class="label">ubi.com</text>
<rect x="180" y="222" width="434.76" height="22" fill="#4c78a8" rx="3"/>
<text x="622.76" y="238" class="value">155.24</text>
<text x="10" y="270" class="label">static3.cdn.ubi.com</text>
<rect x="180" y="254" width="436.92" height="22" fill="#4c78a8" rx="3"/>
<text x="624.9200000000001" y="270" class="value">156.01</text>
<text x="10" y="302" class="label">rockstargames.com</text>
<rect x="180" y="286" width="451.03" height="22" fill="#4c78a8" rx="3"/>
<text x="639.03" y="302" class="value">161.05</text>
<text x="10" y="334" class="label">fortnite.com</text>
<rect x="180" y="318" width="465.09" height="22" fill="#4c78a8" rx="3"/>
<text x="653.0899999999999" y="334" class="value">166.07</text>
<text x="10" y="366" class="label">socialclub.rockstargames.com</text>
<rect x="180" y="350" width="492.9" height="22" fill="#4c78a8" rx="3"/>
<text x="680.9" y="366" class="value">176.00</text>
<text x="10" y="398" class="label">gog.com</text>
<rect x="180" y="382" width="556.62" height="22" fill="#4c78a8" rx="3"/>
<text x="744.62" y="398" class="value">198.75</text>
<text x="10" y="430" class="label">cdn.cloudflare.steamstatic.com</text>
<rect x="180" y="414" width="557.51" height="22" fill="#4c78a8" rx="3"/>
<text x="745.51" y="430" class="value">199.07</text>
<text x="10" y="462" class="label">easyanticheat.net</text>
<rect x="180" y="446" width="558.6" height="22" fill="#4c78a8" rx="3"/>
<text x="746.6" y="462" class="value">199.46</text>
<text x="10" y="494" class="label">www.steamcommunity.com</text>
<rect x="180" y="478" width="580.0" height="22" fill="#4c78a8" rx="3"/>
<text x="768.0" y="494" class="value">207.10</text>
<line x1="180" y1="30" x2="180" y2="520" stroke="#ccc"/>
<line x1="180" y1="520" x2="760" y2="520" stroke="#ccc"/>
</svg>