<svg xmlns="http://www.w3.org/2000/svg" width="800" height="540">
<style> .label{font-family:DejaVu Sans,Verdana,Geneva,sans-serif;font-size:12px;fill:#333} .value{font-family:DejaVu Sans,Verdana,Geneva,sans-serif;font-size:12px;fill:#555} </style>
<text x="10" y="20" class="label">延迟柱状图（越低越好，Top 15），单位 ms</text>
<text x="10" y="46" class="label">rockstargames.com</text>
<rect x="180" y="30" width="73.97" height="22" fill="#4c78a8" rx="3"/>
<text x="261.97" y="46" class="value">36.73</text>
<text x="10" y="78" class="label">community.akamai.steamstatic.com</text>
<rect x="180" y="62" width="150.76" height="22" fill="#4c78a8" rx="3"/>
<text x="338.76" y="78" class="value">74.86</text>
<text x="10" y="110" class="label">ea.com</text>
<rect x="180" y="94" width="172.23" height="22" fill="#4c78a8" rx="3"/>
<text x="360.23" y="110" class="value">85.52</text>
<text x="10" y="142" class="label">eaassets-a.akamaihd.net</text>
<rect x="180" y="126" width="181.41" height="22" fill="#4c78a8" rx="3"/>
<text x="369.40999999999997" y="142" class="value">90.08</text>
<text x="10" y="174" class="label">steamcdn-a.akamaihd.net</text>
<rect x="180" y="158" width="189.2" height="22" fill="#4c78a8" rx="3"/>
<text x="377.2" y="174" class="value">93.95</text>
<text x="10" y="206" class="label">cdn.cloudflare.steamstatic.com</text>
<rect x="180" y="190" width="203.52" height="22" fill="#4c78a8" rx="3"/>
<text x="391.52" y="206" class="value">101.06</text>
<text x="10" y="238" class="label">ubisoft.com</text>
<rect x="180" y="222" width="229.64" height="22" fill="#4c78a8" rx="3"/>
<text x="417.64" y="238" class="value">114.03</text>
<text x="10" y="270" class="label">store.akamai.steamstatic.com</text>
<rect x="180" y="254" width="323.47" height="22" fill="#4c78a8" rx="3"/>
<text x="511.47" y="270" class="value">160.62</text>
<text x="10" y="302" class="label">origin.com</text>
<rect x="180" y="286" width="323.83" height="22" fill="#4c78a8" rx="3"/>
<text x="511.83" y="302" class="value">160.80</text>
<text x="10" y="334" class="label">cdn.akamai.steamstatic.com</text>
<rect x="180" y="318" width="336.32" height="22" fill="#4c78a8" rx="3"/>
<text x="524.3199999999999" y="334" class="value">167.00</text>
<text x="10" y="366" class="label">easyanticheat.net</text>
<rect x="180" y="350" width="397.7" height="22" fill="#4c78a8" rx="3"/>
<text x="585.7" y="366" class="value">197.48</text>
<text x="10" y="398" class="label">steam-chat.com</text>
<rect x="180" y="382" width="422.41" height="22" fill="#4c78a8" rx="3"/>
<text x="610.4100000000001" y="398" class="value">209.75</text>
<text x="10" y="430" class="label">www.steamcommunity.com</text>
<rect x="180" y="414" width="474.94" height="22" fill="#4c78a8" rx="3"/>
<text x="662.94" y="430" class="value">235.83</text>
<text x="10" y="462" class="label">api.steampowered.com</text>
<rect x="180" y="446" width="563.04" height="22" fill="#4c78a8" rx="3"/>
<text x="751.04" y="462" class="value">279.58</text>
<text x="10" y="494" class="label">battle.net</text>
<rect x="180" y="478" width="580.0" height="22" fill="#4c78a8" rx="3"/>
<text x="768.0" y="494" class="value">288.00</text>
<line x1="180" y1="30" x2="180" y2="520" stroke="#ccc"/>
<line x1="180" y1="520" x2="760" y2="520" stroke="#ccc"/>
</svg>