<svg xmlns="http://www.w3.org/2000/svg" width="800" height="540">
<style> .label{font-family:DejaVu Sans,Verdana,Geneva,sans-serif;font-size:12px;fill:#333} .value{font-family:DejaVu Sans,Verdana,Geneva,sans-serif;font-size:12px;fill:#555} </style>
<text x="10" y="20" class="label">延迟柱状图（越低越好，Top 15），单位 ms</text>
<text x="10" y="46" class="label">rockstargames.com</text>
<rect x="180" y="30" width="205.81" height="22" fill="#4c78a8" rx="3"/>
<text x="393.81" y="46" class="value">74.45</text>
<text x="10" y="78" class="label">ea.com</text>
<rect x="180" y="62" width="313.68" height="22" fill="#4c78a8" rx="3"/>
<text x="501.68" y="78" class="value">113.47</text>
<text x="10" y="110" class="label">easyanticheat.net</text>
<rect x="180" y="94" width="426.44" height="22" fill="#4c78a8" rx="3"/>
<text x="614.44" y="110" class="value">154.26</text>
<text x="10" y="142" class="label">battle.net</text>
<rect x="180" y="126" width="468.9" height="22" fill="#4c78a8" rx="3"/>
<text x="656.9" y="142" class="value">169.62</text>
<text x="10" y="174" class="label">ubisoft.com</text>
<rect x="180" y="158" width="476.75" height="22" fill="#4c78a8" rx="3"/>
<text x="664.75" y="174" class="value">172.46</text>
<text x="10" y="206" class="label">cdn.cloudflare.steamstatic.com</text>
<rect x="180" y="190" width="483.49" height="22" fill="#4c78a8" rx="3"/>
<text x="671.49" y="206" class="value">174.90</text>
<text x="10" y="238" class="label">fortnite.com</text>
<rect x="180" y="222" width="504.78" height="22" fill="#4c78a8" rx="3"/>
<text x="692.78" y="238" class="value">182.60</text>
<text x="10" y="270" class="label">blizzard.com</text>
<rect x="180" y="254" width="507.99" height="22" fill="#4c78a8" rx="3"/>
<text x="695.99" y="270" class="value">183.76</text>
<text x="10" y="302" class="label">steamcdn-a.akamaihd.net</text>
<rect x="180" y="286" width="528.03" height="22" fill="#4c78a8" rx="3"/>
<text x="716.03" y="302" class="value">191.01</text>
<text x="10" y="334" class="label">cdn.akamai.steamstatic.com</text>
<rect x="180" y="318" width="536.43" height="22" fill="#4c78a8" rx="3"/>
<text x="724.43" y="334" class="value">194.05</text>
<text x="10" y="366" class="label">epicgames.com</text>
<rect x="180" y="350" width="539.23" height="22" fill="#4c78a8" rx="3"/>
<text x="727.23" y="366" class="value">195.06</text>
<text x="10" y="398" class="label">ubi.com</text>
<rect x="180" y="382" width="563.22" height="22" fill="#4c78a8" rx="3"/>
<text x="751.22" y="398" class="value">203.74</text>
<text x="10" y="430" class="label">api.steampowered.com</text>
<rect x="180" y="414" width="565.51" height="22" fill="#4c78a8" rx="3"/>
<text x="753.51" y="430" class="value">204.57</text>
<text x="10" y="462" class="label">steam-chat.com</text>
<rect x="180" y="446" width="577.54" height="22" fill="#4c78a8" rx="3"/>
<text x="765.54" y="462" class="value">208.92</text>
<text x="10" y="494" class="label">eaassets-a.akamaihd.net</text>
<rect x="180" y="478" width="580.0" height="22" fill="#4c78a8" rx="3"/>
<text x="768.0" y="494" class="value">209.81</text>
<line x1="180" y1="30" x2="180" y2="520" stroke="#ccc"/>
<line x1="180" y1="520" x2="760" y2="520" stroke="#ccc"/>
</svg>