<svg xmlns="http://www.w3.org/2000/svg" width="800" height="540">
<style> .label{font-family:DejaVu Sans,Verdana,Geneva,sans-serif;font-size:12px;fill:#333} .value{font-family:DejaVu Sans,Verdana,Geneva,sans-serif;font-size:12px;fill:#555} </style>
<text x="10" y="20" class="label">延迟柱状图（越低越好，Top 15），单位 ms</text>
<text x="10" y="46" class="label">rockstargames.com</text>
<rect x="180" y="30" width="144.89" height="22" fill="#4c78a8" rx="3"/>
<text x="332.89" y="46" class="value">61.95</text>
<text x="10" y="78" class="label">eaassets-a.akamaihd.net</text>
<rect x="180" y="62" width="180.87" height="22" fill="#4c78a8" rx="3"/>
<text x="368.87" y="78" class="value">77.33</text>
<text x="10" y="110" class="label">ubisoft.com</text>
<rect x="180" y="94" width="256.2" height="22" fill="#4c78a8" rx="3"/>
<text x="444.2" y="110" class="value">109.54</text>
<text x="10" y="142" class="label">community.akamai.steamstatic.com</text>
<rect x="180" y="126" width="266.59" height="22" fill="#4c78a8" rx="3"/>
<text x="454.59" y="142" class="value">113.98</text>
<text x="10" y="174" class="label">origin.com</text>
<rect x="180" y="158" width="274.73" height="22" fill="#4c78a8" rx="3"/>
<text x="462.73" y="174" class="value">117.46</text>
<text x="10" y="206" class="label">cdn.akamai.steamstatic.com</text>
<rect x="180" y="190" width="276.08" height="22" fill="#4c78a8" rx="3"/>
<text x="464.08" y="206" class="value">118.04</text>
<text x="10" y="238" class="label">steamcdn-a.akamaihd.net</text>
<rect x="180" y="222" width="291.12" height="22" fill="#4c78a8" rx="3"/>
<text x="479.12" y="238" class="value">124.47</text>
<text x="10" y="270" class="label">cdn.cloudflare.steamstatic.com</text>
<rect x="180" y="254" width="316.71" height="22" fill="#4c78a8" rx="3"/>
<text x="504.71" y="270" class="value">135.41</text>
<text x="10" y="302" class="label">ea.com</text>
<rect x="180" y="286" width="325.86" height="22" fill="#4c78a8" rx="3"/>
<text x="513.86" y="302" class="value">139.32</text>
<text x="10" y="334" class="label">store.akamai.steamstatic.com</text>
<rect x="180" y="318" width="330.58" height="22" fill="#4c78a8" rx="3"/>
<text x="518.5799999999999" y="334" class="value">141.34</text>
<text x="10" y="366" class="label">easyanticheat.net</text>
<rect x="180" y="350" width="380.8" height="22" fill="#4c78a8" rx="3"/>
<text x="568.8" y="366" class="value">162.81</text>
<text x="10" y="398" class="label">launcher-public-service-prod06.ol.epicgames.com</text>
<rect x="180" y="382" width="537.27" height="22" fill="#4c78a8" rx="3"/>
<text x="725.27" y="398" class="value">229.71</text>
<text x="10" y="430" class="label">api.steampowered.com</text>
<rect x="180" y="414" width="551.77" height="22" fill="#4c78a8" rx="3"/>
<text x="739.77" y="430" class="value">235.91</text>
<text x="10" y="462" class="label">www.steamcommunity.com</text>
<rect x="180" y="446" width="563.02" height="22" fill="#4c78a8" rx="3"/>
<text x="751.02" y="462" class="value">240.72</text>
<text x="10" y="494" class="label">ubi.com</text>
<rect x="180" y="478" width="580.0" height="22" fill="#4c78a8" rx="3"/>
<text x="768.0" y="494" class="value">247.98</text>
<line x1="180" y1="30" x2="180" y2="520" stroke="#ccc"/>
<line x1="180" y1="520" x2="760" y2="520" stroke="#ccc"/>
</svg>