<svg xmlns="http://www.w3.org/2000/svg" width="800" height="540">
<style> .label{font-family:DejaVu Sans,Verdana,Geneva,sans-serif;font-size:12px;fill:#333} .value{font-family:DejaVu Sans,Verdana,Geneva,sans-serif;font-size:12px;fill:#555} </style>
<text x="10" y="20" class="label">延迟柱状图（越低越好，Top 15），单位 ms</text>
<text x="10" y="46" class="label">rockstargames.com</text>
<rect x="180" y="30" width="160.42" height="22" fill="#4c78a8" rx="3"/>
<text x="348.41999999999996" y="46" class="value">66.39</text>
<text x="10" y="78" class="label">eaassets-a.akamaihd.net</text>
<rect x="180" y="62" width="177.35" height="22" fill="#4c78a8" rx="3"/>
<text x="365.35" y="78" class="value">73.40</text>
<text x="10" y="110" class="label">socialclub.rockstargames.com</text>
<rect x="180" y="94" width="190.76" height="22" fill="#4c78a8" rx="3"/>
<text x="378.76" y="110" class="value">78.95</text>
<text x="10" y="142" class="label">ubisoft.com</text>
<rect x="180" y="126" width="231.7" height="22" fill="#4c78a8" rx="3"/>
<text x="419.7" y="142" class="value">95.89</text>
<text x="10" y="174" class="label">ubi.com</text>
<rect x="180" y="158" width="280.26" height="22" fill="#4c78a8" rx="3"/>
<text x="468.26" y="174" class="value">115.99</text>
<text x="10" y="206" class="label">battle.net</text>
<rect x="180" y="190" width="291.81" height="22" fill="#4c78a8" rx="3"/>
<text x="479.81" y="206" class="value">120.77</text>
<text x="10" y="238" class="label">blizzard.com</text>
<rect x="180" y="222" width="307.08" height="22" fill="#4c78a8" rx="3"/>
<text x="495.08" y="238" class="value">127.09</text>
<text x="10" y="270" class="label">unrealengine.com</text>
<rect x="180" y="254" width="346.18" height="22" fill="#4c78a8" rx="3"/>
<text x="534.1800000000001" y="270" class="value">143.27</text>
<text x="10" y="302" class="label">ea.com</text>
<rect x="180" y="286" width="350.94" height="22" fill="#4c78a8" rx="3"/>
<text x="538.94" y="302" class="value">145.24</text>
<text x="10" y="334" class="label">cdn.cloudflare.steamstatic.com</text>
<rect x="180" y="318" width="370.85" height="22" fill="#4c78a8" rx="3"/>
<text x="558.85" y="334" class="value">153.48</text>
<text x="10" y="366" class="label">origin.com</text>
<rect x="180" y="350" width="483.08" height="22" fill="#4c78a8" rx="3"/>
<text x="671.0799999999999" y="366" class="value">199.93</text>
<text x="10" y="398" class="label">steamcdn-a.akamaihd.net</text>
<rect x="180" y="382" width="491.06" height="22" fill="#4c78a8" rx="3"/>
<text x="679.06" y="398" class="value">203.23</text>
<text x="10" y="430" class="label">static3.cdn.ubi.com</text>
<rect x="180" y="414" width="549.02" height="22" fill="#4c78a8" rx="3"/>
<text x="737.02" y="430" class="value">227.22</text>
<text x="10" y="462" class="label">fortnite.com</text>
<rect x="180" y="446" width="575.43" height="22" fill="#4c78a8" rx="3"/>
<text x="763.43" y="462" class="value">238.15</text>
<text x="10" y="494" class="label">cdn.akamai.steamstatic.com</text>
<rect x="180" y="478" width="580.0" height="22" fill="#4c78a8" rx="3"/>
<text x="768.0" y="494" class="value">240.04</text>
<line x1="180" y1="30" x2="180" y2="520" stroke="#ccc"/>
<line x1="180" y1="520" x2="760" y2="520" stroke="#ccc"/>
</svg>