<svg xmlns="http://www.w3.org/2000/svg" width="800" height="540">
<style> .label{font-family:DejaVu Sans,Verdana,Geneva,sans-serif;font-size:12px;fill:#333} .value{font-family:DejaVu Sans,Verdana,Geneva,sans-serif;font-size:12px;fill:#555} </style>
<text x="10" y="20" class="label">延迟柱状图（越低越好，Top 15），单位 ms</text>
<text x="10" y="46" class="label">eaassets-a.akamaihd.net</text>
<rect x="180" y="30" width="268.78" height="22" fill="#4c78a8" rx="3"/>
<text x="456.78" y="46" class="value">106.19</text>
<text x="10" y="78" class="label">store.akamai.steamstatic.com</text>
<rect x="180" y="62" width="381.61" height="22" fill="#4c78a8" rx="3"/>
<text x="569.61" y="78" class="value">150.77</text>
<text x="10" y="110" class="label">rockstargames.com</text>
<rect x="180" y="94" width="385.06" height="22" fill="#4c78a8" rx="3"/>
<text x="573.06" y="110" class="value">152.13</text>
<text x="10" y="142" class="label">steamcdn-a.akamaihd.net</text>
<rect x="180" y="126" width="393.56" height="22" fill="#4c78a8" rx="3"/>
<text x="581.56" y="142" class="value">155.49</text>
<text x="10" y="174" class="label">ubi.com</text>
<rect x="180" y="158" width="424.51" height="22" fill="#4c78a8" rx="3"/>
<text x="612.51" y="174" class="value">167.72</text>
<text x="10" y="206" class="label">origin.com</text>
<rect x="180" y="190" width="434.92" height="22" fill="#4c78a8" rx="3"/>
<text x="622.9200000000001" y="206" class="value">171.83</text>
<text x="10" y="238" class="label">blizzard.com</text>
<rect x="180" y="222" width="447.17" height="22" fill="#4c78a8" rx="3"/>
<text x="635.1700000000001" y="238" class="value">176.67</text>
<text x="10" y="270" class="label">socialclub.rockstargames.com</text>
<rect x="180" y="254" width="455.12" height="22" fill="#4c78a8" rx="3"/>
<text x="643.12" y="270" class="value">179.81</text>
<text x="10" y="302" class="label">battle.net</text>
<rect x="180" y="286" width="474.66" height="22" fill="#4c78a8" rx="3"/>
<text x="662.6600000000001" y="302" class="value">187.53</text>
<text x="10" y="334" class="label">ubisoft.com</text>
<rect x="180" y="318" width="506.09" height="22" fill="#4c78a8" rx="3"/>
<text x="694.0899999999999" y="334" class="value">199.95</text>
<text x="10" y="366" class="label">ea.com</text>
<rect x="180" y="350" width="527.33" height="22" fill="#4c78a8" rx="3"/>
<text x="715.33" y="366" class="value">208.34</text>
<text x="10" y="398" class="label">www.steamcommunity.com</text>
<rect x="180" y="382" width="568.69" height="22" fill="#4c78a8" rx="3"/>
<text x="756.69" y="398" class="value">224.68</text>
<text x="10" y="430" class="label">cdn.akamai.steamstatic.com</text>
<rect x="180" y="414" width="573.04" height="22" fill="#4c78a8" rx="3"/>
<text x="761.04" y="430" class="value">226.40</text>
<text x="10" y="462" class="label">easyanticheat.net</text>
<rect x="180" y="446" width="577.8" height="22" fill="#4c78a8" rx="3"/>
<text x="765.8" y="462" class="value">228.28</text>
<text x="10" y="494" class="label">launcher-public-service-prod06.ol.epicgames.com</text>
<rect x="180" y="478" width="580.0" height="22" fill="#4c78a8" rx="3"/>
<text x="768.0" y="494" class="value">229.15</text>
<line x1="180" y1="30" x2="180" y2="520" stroke="#ccc"/>
<line x1="180" y1="520" x2="760" y2="520" stroke="#ccc"/>
</svg>