<svg xmlns="http://www.w3.org/2000/svg" width="800" height="540">
<style> .label{font-family:DejaVu Sans,Verdana,Geneva,sans-serif;font-size:12px;fill:#333} .value{font-family:DejaVu Sans,Verdana,Geneva,sans-serif;font-size:12px;fill:#555} </style>
<text x="10" y="20" class="label">延迟柱状图（越低越好，Top 15），单位 ms</text>
<text x="10" y="46" class="label">cdn.akamai.steamstatic.com</text>
<rect x="180" y="30" width="205.96" height="22" fill="#4c78a8" rx="3"/>
<text x="393.96000000000004" y="46" class="value">79.61</text>
<text x="10" y="78" class="label">rockstargames.com</text>
<rect x="180" y="62" width="242.57" height="22" fill="#4c78a8" rx="3"/>
<text x="430.57" y="78" class="value">93.76</text>
<text x="10" y="110" class="label">store.akamai.steamstatic.com</text>
<rect x="180" y="94" width="266.42" height="22" fill="#4c78a8" rx="3"/>
<text x="454.42" y="110" class="value">102.98</text>
<text x="10" y="142" class="label">origin.com</text>
<rect x="180" y="126" width="320.13" height="22" fill="#4c78a8" rx="3"/>
<text x="508.13" y="142" class="value">123.74</text>
<text x="10" y="174" class="label">battle.net</text>
<rect x="180" y="158" width="355.67" height="22" fill="#4c78a8" rx="3"/>
<text x="543.6700000000001" y="174" class="value">137.48</text>
<text x="10" y="206" class="label">community.akamai.steamstatic.com</text>
<rect x="180" y="190" width="377.66" height="22" fill="#4c78a8" rx="3"/>
<text x="565.6600000000001" y="206" class="value">145.98</text>
<text x="10" y="238" class="label">socialclub.rockstargames.com</text>
<rect x="180" y="222" width="397.71" height="22" fill="#4c78a8" rx="3"/>
<text x="585.71" y="238" class="value">153.73</text>
<text x="10" y="270" class="label">blizzard.com</text>
<rect x="180" y="254" width="422.86" height="22" fill="#4c78a8" rx="3"/>
<text x="610.86" y="270" class="value">163.45</text>
<text x="10" y="302" class="label">ubisoft.com</text>
<rect x="180" y="286" width="424.21" height="22" fill="#4c78a8" rx="3"/>
<text x="612.21" y="302" class="value">163.97</text>
<text x="10" y="334" class="label">ubi.com</text>
<rect x="180" y="318" width="425.16" height="22" fill="#4c78a8" rx="3"/>
<text x="613.1600000000001" y="334" class="value">164.34</text>
<text x="10" y="366" class="label">cdn.cloudflare.steamstatic.com</text>
<rect x="180" y="350" width="453.21" height="22" fill="#4c78a8" rx="3"/>
<text x="641.21" y="366" class="value">175.18</text>
<text x="10" y="398" class="label">easyanticheat.net</text>
<rect x="180" y="382" width="470.98" height="22" fill="#4c78a8" rx="3"/>
<text x="658.98" y="398" class="value">182.05</text>
<text x="10" y="430" class="label">steamcdn-a.akamaihd.net</text>
<rect x="180" y="414" width="488.78" height="22" fill="#4c78a8" rx="3"/>
<text x="676.78" y="430" class="value">188.93</text>
<text x="10" y="462" class="label">ea.com</text>
<rect x="180" y="446" width="507.2" height="22" fill="#4c78a8" rx="3"/>
<text x="695.2" y="462" class="value">196.05</text>
<text x="10" y="494" class="label">static3.cdn.ubi.com</text>
<rect x="180" y="478" width="580.0" height="22" fill="#4c78a8" rx="3"/>
<text x="768.0" y="494" class="value">224.19</text>
<line x1="180" y1="30" x2="180" y2="520" stroke="#ccc"/>
<line x1="180" y1="520" x2="760" y2="520" stroke="#ccc"/>
</svg>