<svg xmlns="http://www.w3.org/2000/svg" width="800" height="540">
<style> .label{font-family:DejaVu Sans,Verdana,Geneva,sans-serif;font-size:12px;fill:#333} .value{font-family:DejaVu Sans,Verdana,Geneva,sans-serif;font-size:12px;fill:#555} </style>
<text x="10" y="20" class="label">延迟柱状图（越低越好，Top 15），单位 ms</text>
<text x="10" y="46" class="label">store.akamai.steamstatic.com</text>
<rect x="180" y="30" width="156.23" height="22" fill="#4c78a8" rx="3"/>
<text x="344.23" y="46" class="value">76.36</text>
<text x="10" y="78" class="label">rockstargames.com</text>
<rect x="180" y="62" width="158.87" height="22" fill="#4c78a8" rx="3"/>
<text x="346.87" y="78" class="value">77.65</text>
<text x="10" y="110" class="label">community.akamai.steamstatic.com</text>
<rect x="180" y="94" width="249.78" height="22" fill="#4c78a8" rx="3"/>
<text x="437.78" y="110" class="value">122.08</text>
<text x="10" y="142" class="label">origin.com</text>
<rect x="180" y="126" width="263.77" height="22" fill="#4c78a8" rx="3"/>
<text x="451.77" y="142" class="value">128.92</text>
<text x="10" y="174" class="label">ea.com</text>
<rect x="180" y="158" width="287.57" height="22" fill="#4c78a8" rx="3"/>
<text x="475.57" y="174" class="value">140.55</text>
<text x="10" y="206" class="label">eaassets-a.akamaihd.net</text>
<rect x="180" y="190" width="304.75" height="22" fill="#4c78a8" rx="3"/>
<text x="492.75" y="206" class="value">148.95</text>
<text x="10" y="238" class="label">cdn.akamai.steamstatic.com</text>
<rect x="180" y="222" width="395.61" height="22" fill="#4c78a8" rx="3"/>
<text x="583.61" y="238" class="value">193.36</text>
<text x="10" y="270" class="label">steamcdn-a.akamaihd.net</text>
<rect x="180" y="254" width="421.82" height="22" fill="#4c78a8" rx="3"/>
<text x="609.8199999999999" y="270" class="value">206.17</text>
<text x="10" y="302" class="label">easyanticheat.net</text>
<rect x="180" y="286" width="434.8" height="22" fill="#4c78a8" rx="3"/>
<text x="622.8" y="302" class="value">212.51</text>
<text x="10" y="334" class="label">gog.com</text>
<rect x="180" y="318" width="475.1" height="22" fill="#4c78a8" rx="3"/>
<text x="663.1" y="334" class="value">232.21</text>
<text x="10" y="366" class="label">www.steamcommunity.com</text>
<rect x="180" y="350" width="496.5" height="22" fill="#4c78a8" rx="3"/>
<text x="684.5" y="366" class="value">242.67</text>
<text x="10" y="398" class="label">steam-chat.com</text>
<rect x="180" y="382" width="508.94" height="22" fill="#4c78a8" rx="3"/>
<text x="696.94" y="398" class="value">248.75</text>
<text x="10" y="430" class="label">launcher-public-service-prod06.ol.epicgames.com</text>
<rect x="180" y="414" width="533.97" height="22" fill="#4c78a8" rx="3"/>
<text x="721.97" y="430" class="value">260.98</text>
<text x="10" y="462" class="label">api.steampowered.com</text>
<rect x="180" y="446" width="568.52" height="22" fill="#4c78a8" rx="3"/>
<text x="756.52" y="462" class="value">277.87</text>
<text x="10" y="494" class="label">ubi.com</text>
<rect x="180" y="478" width="580.0" height="22" fill="#4c78a8" rx="3"/>
<text x="768.0" y="494" class="value">283.48</text>
<line x1="180" y1="30" x2="180" y2="520" stroke="#ccc"/>
<line x1="180" y1="520" x2="760" y2="520" stroke="#ccc"/>
</svg>