<svg xmlns="http://www.w3.org/2000/svg" width="800" height="540">
<style> .label{font-family:DejaVu Sans,Verdana,Geneva,sans-serif;font-size:12px;fill:#333} .value{font-family:DejaVu Sans,Verdana,Geneva,sans-serif;font-size:12px;fill:#555} </style>
<text x="10" y="20" class="label">延迟柱状图（越低越好，Top 15），单位 ms</text>
<text x="10" y="46" class="label">rockstargames.com</text>
<rect x="180" y="30" width="167.83" height="22" fill="#4c78a8" rx="3"/>
<text x="355.83000000000004" y="46" class="value">59.09</text>
<text x="10" y="78" class="label">unrealengine.com</text>
<rect x="180" y="62" width="230.77" height="22" fill="#4c78a8" rx="3"/>
<text x="418.77" y="78" class="value">81.25</text>
<text x="10" y="110" class="label">blizzard.com</text>
<rect x="180" y="94" width="251.59" height="22" fill="#4c78a8" rx="3"/>
<text x="439.59000000000003" y="110" class="value">88.58</text>
<text x="10" y="142" class="label">socialclub.rockstargames.com</text>
<rect x="180" y="126" width="252.98" height="22" fill="#4c78a8" rx="3"/>
<text x="440.98" y="142" class="value">89.07</text>
<text x="10" y="174" class="label">battle.net</text>
<rect x="180" y="158" width="255.14" height="22" fill="#4c78a8" rx="3"/>
<text x="443.14" y="174" class="value">89.83</text>
<text x="10" y="206" class="label">ubi.com</text>
<rect x="180" y="190" width="292.43" height="22" fill="#4c78a8" rx="3"/>
<text x="480.43" y="206" class="value">102.96</text>
<text x="10" y="238" class="label">fortnite.com</text>
<rect x="180" y="222" width="375.93" height="22" fill="#4c78a8" rx="3"/>
<text x="563.9300000000001" y="238" class="value">132.36</text>
<text x="10" y="270" class="label">eaassets-a.akamaihd.net</text>
<rect x="180" y="254" width="426.17" height="22" fill="#4c78a8" rx="3"/>
<text x="614.1700000000001" y="270" class="value">150.05</text>
<text x="10" y="302" class="label">cdn.akamai.steamstatic.com</text>
<rect x="180" y="286" width="462.07" height="22" fill="#4c78a8" rx="3"/>
<text x="650.0699999999999" y="302" class="value">162.69</text>
<text x="10" y="334" class="label">static3.cdn.ubi.com</text>
<rect x="180" y="318" width="483.69" height="22" fill="#4c78a8" rx="3"/>
<text x="671.69" y="334" class="value">170.30</text>
<text x="10" y="366" class="label">ea.com</text>
<rect x="180" y="350" width="489.2" height="22" fill="#4c78a8" rx="3"/>
<text x="677.2" y="366" class="value">172.24</text>
<text x="10" y="398" class="label">steamcdn-a.akamaihd.net</text>
<rect x="180" y="382" width="558.53" height="22" fill="#4c78a8" rx="3"/>
<text x="746.53" y="398" class="value">196.65</text>
<text x="10" y="430" class="label">epicgames.com</text>
<rect x="180" y="414" width="561.51" height="22" fill="#4c78a8" rx="3"/>
<text x="749.51" y="430" class="value">197.70</text>
<text x="10" y="462" class="label">steam-chat.com</text>
<rect x="180" y="446" width="564.04" height="22" fill="#4c78a8" rx="3"/>
<text x="752.04" y="462" class="value">198.59</text>
<text x="10" y="494" class="label">ubisoft.com</text>
<rect x="180" y="478" width="580.0" height="22" fill="#4c78a8" rx="3"/>
<text x="768.0" y="494" class="value">204.21</text>
<line x1="180" y1="30" x2="180" y2="520" stroke="#ccc"/>
<line x1="180" y1="520" x2="760" y2="520" stroke="#ccc"/>
</svg>