<svg xmlns="http://www.w3.org/2000/svg" width="800" height="540">
<style> .label{font-family:DejaVu Sans,Verdana,Geneva,sans-serif;font-size:12px;fill:#333} .value{font-family:DejaVu Sans,Verdana,Geneva,sans-serif;font-size:12px;fill:#555} </style>
<text x="10" y="20" class="label">延迟柱状图（越低越好，Top 15），单位 ms</text>
<text x="10" y="46" class="label">ubisoft.com</text>
<rect x="180" y="30" width="324.27" height="22" fill="#4c78a8" rx="3"/>
<text x="512.27" y="46" class="value">136.44</text>
<text x="10" y="78" class="label">cdn.akamai.steamstatic.com</text>
<rect x="180" y="62" width="325.2" height="22" fill="#4c78a8" rx="3"/>
<text x="513.2" y="78" class="value">136.83</text>
<text x="10" y="110" class="label">rockstargames.com</text>
<rect x="180" y="94" width="329.57" height="22" fill="#4c78a8" rx="3"/>
<text x="517.5699999999999" y="110" class="value">138.67</text>
<text x="10" y="142" class="label">cdn.cloudflare.steamstatic.com</text>
<rect x="180" y="126" width="379.89" height="22" fill="#4c78a8" rx="3"/>
<text x="567.89" y="142" class="value">159.84</text>
<text x="10" y="174" class="label">eaassets-a.akamaihd.net</text>
<rect x="180" y="158" width="380.36" height="22" fill="#4c78a8" rx="3"/>
<text x="568.36" y="174" class="value">160.04</text>
<text x="10" y="206" class="label">community.akamai.steamstatic.com</text>
<rect x="180" y="190" width="399.37" height="22" fill="#4c78a8" rx="3"/>
<text x="587.37" y="206" class="value">168.04</text>
<text x="10" y="238" class="label">origin.com</text>
<rect x="180" y="222" width="434.07" height="22" fill="#4c78a8" rx="3"/>
<text x="622.0699999999999" y="238" class="value">182.64</text>
<text x="10" y="270" class="label">ubi.com</text>
<rect x="180" y="254" width="485.36" height="22" fill="#4c78a8" rx="3"/>
<text x="673.36" y="270" class="value">204.22</text>
<text x="10" y="302" class="label">easyanticheat.net</text>
<rect x="180" y="286" width="502.24" height="22" fill="#4c78a8" rx="3"/>
<text x="690.24" y="302" class="value">211.32</text>
<text x="10" y="334" class="label">store.akamai.steamstatic.com</text>
<rect x="180" y="318" width="514.93" height="22" fill="#4c78a8" rx="3"/>
<text x="702.93" y="334" class="value">216.66</text>
<text x="10" y="366" class="label">www.steamcommunity.com</text>
<rect x="180" y="350" width="520.13" height="22" fill="#4c78a8" rx="3"/>
<text x="708.13" y="366" class="value">218.85</text>
<text x="10" y="398" class="label">battle.net</text>
<rect x="180" y="382" width="545.21" height="22" fill="#4c78a8" rx="3"/>
<text x="733.21" y="398" class="value">229.40</text>
<text x="10" y="430" class="label">ea.com</text>
<rect x="180" y="414" width="549.46" height="22" fill="#4c78a8" rx="3"/>
<text x="737.46" y="430" class="value">231.19</text>
<text x="10" y="462" class="label">blizzard.com</text>
<rect x="180" y="446" width="558.25" height="22" fill="#4c78a8" rx="3"/>
<text x="746.25" y="462" class="value">234.89</text>
<text x="10" y="494" class="label">steamcdn-a.akamaihd.net</text>
<rect x="180" y="478" width="580.0" height="22" fill="#4c78a8" rx="3"/>
<text x="768.0" y="494" class="value">244.04</text>
<line x1="180" y1="30" x2="180" y2="520" stroke="#ccc"/>
<line x1="180" y1="520" x2="760" y2="520" stroke="#ccc"/>
</svg>