<svg xmlns="http://www.w3.org/2000/svg" width="800" height="540">
<style> .label{font-family:DejaVu Sans,Verdana,Geneva,sans-serif;font-size:12px;fill:#333} .value{font-family:DejaVu Sans,Verdana,Geneva,sans-serif;font-size:12px;fill:#555} </style>
<text x="10" y="20" class="label">延迟柱状图（Top 15），单位 ms</text>
<text x="10" y="46" class="label">store.steampowered.com</text>
<rect x="180" y="30" width="580.0" height="22" fill="#4c78a8" rx="3"/>
<text x="768.0" y="46" class="value">2329.81</text>
<text x="10" y="78" class="label">static3.cdn.ubi.com</text>
<rect x="180" y="62" width="484.56" height="22" fill="#4c78a8" rx="3"/>
<text x="672.56" y="78" class="value">1946.43</text>
<text x="10" y="110" class="label">cdn.akamai.steamstatic.com</text>
<rect x="180" y="94" width="354.04" height="22" fill="#4c78a8" rx="3"/>
<text x="542.04" y="110" class="value">1422.16</text>
<text x="10" y="142" class="label">ea.com</text>
<rect x="180" y="126" width="339.62" height="22" fill="#4c78a8" rx="3"/>
<text x="527.62" y="142" class="value">1364.23</text>
<text x="10" y="174" class="label">origin.com</text>
<rect x="180" y="158" width="334.01" height="22" fill="#4c78a8" rx="3"/>
<text x="522.01" y="174" class="value">1341.67</text>
<text x="10" y="206" class="label">rockstargames.com</text>
<rect x="180" y="190" width="324.55" height="22" fill="#4c78a8" rx="3"/>
<text x="512.55" y="206" class="value">1303.67</text>
<text x="10" y="238" class="label">steam-chat.com</text>
<rect x="180" y="222" width="322.5" height="22" fill="#4c78a8" rx="3"/>
<text x="510.5" y="238" class="value">1295.47</text>
<text x="10" y="270" class="label">eaassets-a.akamaihd.net</text>
<rect x="180" y="254" width="317.69" height="22" fill="#4c78a8" rx="3"/>
<text x="505.69" y="270" class="value">1276.14</text>
<text x="10" y="302" class="label">gogalaxy.com</text>
<rect x="180" y="286" width="317.41" height="22" fill="#4c78a8" rx="3"/>
<text x="505.41" y="302" class="value">1274.99</text>
<text x="10" y="334" class="label">api.steampowered.com</text>
<rect x="180" y="318" width="305.39" height="22" fill="#4c78a8" rx="3"/>
<text x="493.39" y="334" class="value">1226.74</text>
<text x="10" y="366" class="label">socialclub.rockstargames.com</text>
<rect x="180" y="350" width="298.52" height="22" fill="#4c78a8" rx="3"/>
<text x="486.52" y="366" class="value">1199.14</text>
<text x="10" y="398" class="label">cdn.cloudflare.steamstatic.com</text>
<rect x="180" y="382" width="289.74" height="22" fill="#4c78a8" rx="3"/>
<text x="477.74" y="398" class="value">1163.87</text>
<text x="10" y="430" class="label">battle.net</text>
<rect x="180" y="414" width="281.0" height="22" fill="#4c78a8" rx="3"/>
<text x="469.0" y="430" class="value">1128.74</text>
<text x="10" y="462" class="label">store.akamai.steamstatic.com</text>
<rect x="180" y="446" width="277.17" height="22" fill="#4c78a8" rx="3"/>
<text x="465.17" y="462" class="value">1113.38</text>
<text x="10" y="494" class="label">blizzard.com</text>
<rect x="180" y="478" width="267.35" height="22" fill="#4c78a8" rx="3"/>
<text x="455.35" y="494" class="value">1073.94</text>
<line x1="180" y1="30" x2="180" y2="520" stroke="#ccc"/>
<line x1="180" y1="520" x2="760" y2="520" stroke="#ccc"/>
</svg>