<svg xmlns="http://www.w3.org/2000/svg" width="800" height="540">
<style> .label{font-family:DejaVu Sans,Verdana,Geneva,sans-serif;font-size:12px;fill:#333} .value{font-family:DejaVu Sans,Verdana,Geneva,sans-serif;font-size:12px;fill:#555} </style>
<text x="10" y="20" class="label">延迟柱状图（越低越好，Top 15），单位 ms</text>
<text x="10" y="46" class="label">rockstargames.com</text>
<rect x="180" y="30" width="78.27" height="22" fill="#4c78a8" rx="3"/>
<text x="266.27" y="46" class="value">36.70</text>
<text x="10" y="78" class="label">eaassets-a.akamaihd.net</text>
<rect x="180" y="62" width="94.73" height="22" fill="#4c78a8" rx="3"/>
<text x="282.73" y="78" class="value">44.42</text>
<text x="10" y="110" class="label">steamcdn-a.akamaihd.net</text>
<rect x="180" y="94" width="188.8" height="22" fill="#4c78a8" rx="3"/>
<text x="376.8" y="110" class="value">88.53</text>
<text x="10" y="142" class="label">ea.com</text>
<rect x="180" y="126" width="252.98" height="22" fill="#4c78a8" rx="3"/>
<text x="440.98" y="142" class="value">118.62</text>
<text x="10" y="174" class="label">origin.com</text>
<rect x="180" y="158" width="257.22" height="22" fill="#4c78a8" rx="3"/>
<text x="445.22" y="174" class="value">120.61</text>
<text x="10" y="206" class="label">cdn.akamai.steamstatic.com</text>
<rect x="180" y="190" width="410.28" height="22" fill="#4c78a8" rx="3"/>
<text x="598.28" y="206" class="value">192.38</text>
<text x="10" y="238" class="label">cdn.cloudflare.steamstatic.com</text>
<rect x="180" y="222" width="417.68" height="22" fill="#4c78a8" rx="3"/>
<text x="605.6800000000001" y="238" class="value">195.85</text>
<text x="10" y="270" class="label">ubisoft.com</text>
<rect x="180" y="254" width="428.43" height="22" fill="#4c78a8" rx="3"/>
<text x="616.4300000000001" y="270" class="value">200.89</text>
<text x="10" y="302" class="label">store.akamai.steamstatic.com</text>
<rect x="180" y="286" width="444.53" height="22" fill="#4c78a8" rx="3"/>
<text x="632.53" y="302" class="value">208.44</text>
<text x="10" y="334" class="label">gog.com</text>
<rect x="180" y="318" width="464.54" height="22" fill="#4c78a8" rx="3"/>
<text x="652.54" y="334" class="value">217.82</text>
<text x="10" y="366" class="label">community.akamai.steamstatic.com</text>
<rect x="180" y="350" width="482.81" height="22" fill="#4c78a8" rx="3"/>
<text x="670.81" y="366" class="value">226.39</text>
<text x="10" y="398" class="label">easyanticheat.net</text>
<rect x="180" y="382" width="486.06" height="22" fill="#4c78a8" rx="3"/>
<text x="674.06" y="398" class="value">227.91</text>
<text x="10" y="430" class="label">api.steampowered.com</text>
<rect x="180" y="414" width="542.44" height="22" fill="#4c78a8" rx="3"/>
<text x="730.44" y="430" class="value">254.35</text>
<text x="10" y="462" class="label">steam-chat.com</text>
<rect x="180" y="446" width="561.21" height="22" fill="#4c78a8" rx="3"/>
<text x="749.21" y="462" class="value">263.15</text>
<text x="10" y="494" class="label">www.steamcommunity.com</text>
<rect x="180" y="478" width="580.0" height="22" fill="#4c78a8" rx="3"/>
<text x="768.0" y="494" class="value">271.96</text>
<line x1="180" y1="30" x2="180" y2="520" stroke="#ccc"/>
<line x1="180" y1="520" x2="760" y2="520" stroke="#ccc"/>
</svg>