<svg xmlns="http://www.w3.org/2000/svg" width="800" height="540">
<style> .label{font-family:DejaVu Sans,Verdana,Geneva,sans-serif;font-size:12px;fill:#333} .value{font-family:DejaVu Sans,Verdana,Geneva,sans-serif;font-size:12px;fill:#555} </style>
<text x="10" y="20" class="label">延迟柱状图（越低越好，Top 15），单位 ms</text>
<text x="10" y="46" class="label">rockstargames.com</text>
<rect x="180" y="30" width="72.1" height="22" fill="#4c78a8" rx="3"/>
<text x="260.1" y="46" class="value">34.25</text>
<text x="10" y="78" class="label">eaassets-a.akamaihd.net</text>
<rect x="180" y="62" width="87.55" height="22" fill="#4c78a8" rx="3"/>
<text x="275.55" y="78" class="value">41.59</text>
<text x="10" y="110" class="label">ea.com</text>
<rect x="180" y="94" width="89.2" height="22" fill="#4c78a8" rx="3"/>
<text x="277.2" y="110" class="value">42.37</text>
<text x="10" y="142" class="label">ubisoft.com</text>
<rect x="180" y="126" width="201.63" height="22" fill="#4c78a8" rx="3"/>
<text x="389.63" y="142" class="value">95.78</text>
<text x="10" y="174" class="label">cdn.cloudflare.steamstatic.com</text>
<rect x="180" y="158" width="242.77" height="22" fill="#4c78a8" rx="3"/>
<text x="430.77" y="174" class="value">115.32</text>
<text x="10" y="206" class="label">steamcdn-a.akamaihd.net</text>
<rect x="180" y="190" width="279.53" height="22" fill="#4c78a8" rx="3"/>
<text x="467.53" y="206" class="value">132.78</text>
<text x="10" y="238" class="label">easyanticheat.net</text>
<rect x="180" y="222" width="292.09" height="22" fill="#4c78a8" rx="3"/>
<text x="480.09" y="238" class="value">138.75</text>
<text x="10" y="270" class="label">origin.com</text>
<rect x="180" y="254" width="355.63" height="22" fill="#4c78a8" rx="3"/>
<text x="543.63" y="270" class="value">168.93</text>
<text x="10" y="302" class="label">community.akamai.steamstatic.com</text>
<rect x="180" y="286" width="387.19" height="22" fill="#4c78a8" rx="3"/>
<text x="575.19" y="302" class="value">183.92</text>
<text x="10" y="334" class="label">store.akamai.steamstatic.com</text>
<rect x="180" y="318" width="411.44" height="22" fill="#4c78a8" rx="3"/>
<text x="599.44" y="334" class="value">195.44</text>
<text x="10" y="366" class="label">cdn.akamai.steamstatic.com</text>
<rect x="180" y="350" width="422.93" height="22" fill="#4c78a8" rx="3"/>
<text x="610.9300000000001" y="366" class="value">200.90</text>
<text x="10" y="398" class="label">steam-chat.com</text>
<rect x="180" y="382" width="463.04" height="22" fill="#4c78a8" rx="3"/>
<text x="651.04" y="398" class="value">219.95</text>
<text x="10" y="430" class="label">api.steampowered.com</text>
<rect x="180" y="414" width="480.93" height="22" fill="#4c78a8" rx="3"/>
<text x="668.9300000000001" y="430" class="value">228.45</text>
<text x="10" y="462" class="label">www.steamcommunity.com</text>
<rect x="180" y="446" width="558.06" height="22" fill="#4c78a8" rx="3"/>
<text x="746.06" y="462" class="value">265.09</text>
<text x="10" y="494" class="label">launcher-public-service-prod06.ol.epicgames.com</text>
<rect x="180" y="478" width="580.0" height="22" fill="#4c78a8" rx="3"/>
<text x="768.0" y="494" class="value">275.51</text>
<line x1="180" y1="30" x2="180" y2="520" stroke="#ccc"/>
<line x1="180" y1="520" x2="760" y2="520" stroke="#ccc"/>
</svg>