<svg xmlns="http://www.w3.org/2000/svg" width="800" height="540">
<style> .label{font-family:DejaVu Sans,Verdana,Geneva,sans-serif;font-size:12px;fill:#333} .value{font-family:DejaVu Sans,Verdana,Geneva,sans-serif;font-size:12px;fill:#555} </style>
<text x="10" y="20" class="label">延迟柱状图（越低越好，Top 15），单位 ms</text>
<text x="10" y="46" class="label">rockstargames.com</text>
<rect x="180" y="30" width="240.79" height="22" fill="#4c78a8" rx="3"/>
<text x="428.78999999999996" y="46" class="value">73.49</text>
<text x="10" y="78" class="label">blizzard.com</text>
<rect x="180" y="62" width="242.52" height="22" fill="#4c78a8" rx="3"/>
<text x="430.52" y="78" class="value">74.02</text>
<text x="10" y="110" class="label">eaassets-a.akamaihd.net</text>
<rect x="180" y="94" width="271.03" height="22" fill="#4c78a8" rx="3"/>
<text x="459.03" y="110" class="value">82.72</text>
<text x="10" y="142" class="label">battle.net</text>
<rect x="180" y="126" width="274.73" height="22" fill="#4c78a8" rx="3"/>
<text x="462.73" y="142" class="value">83.85</text>
<text x="10" y="174" class="label">unrealengine.com</text>
<rect x="180" y="158" width="283.64" height="22" fill="#4c78a8" rx="3"/>
<text x="471.64" y="174" class="value">86.57</text>
<text x="10" y="206" class="label">socialclub.rockstargames.com</text>
<rect x="180" y="190" width="314.7" height="22" fill="#4c78a8" rx="3"/>
<text x="502.7" y="206" class="value">96.05</text>
<text x="10" y="238" class="label">ubisoft.com</text>
<rect x="180" y="222" width="316.44" height="22" fill="#4c78a8" rx="3"/>
<text x="504.44" y="238" class="value">96.58</text>
<text x="10" y="270" class="label">ubi.com</text>
<rect x="180" y="254" width="317.19" height="22" fill="#4c78a8" rx="3"/>
<text x="505.19" y="270" class="value">96.81</text>
<text x="10" y="302" class="label">ea.com</text>
<rect x="180" y="286" width="435.18" height="22" fill="#4c78a8" rx="3"/>
<text x="623.1800000000001" y="302" class="value">132.82</text>
<text x="10" y="334" class="label">fortnite.com</text>
<rect x="180" y="318" width="489.24" height="22" fill="#4c78a8" rx="3"/>
<text x="677.24" y="334" class="value">149.32</text>
<text x="10" y="366" class="label">store.akamai.steamstatic.com</text>
<rect x="180" y="350" width="492.26" height="22" fill="#4c78a8" rx="3"/>
<text x="680.26" y="366" class="value">150.24</text>
<text x="10" y="398" class="label">origin.com</text>
<rect x="180" y="382" width="541.93" height="22" fill="#4c78a8" rx="3"/>
<text x="729.93" y="398" class="value">165.40</text>
<text x="10" y="430" class="label">cdn.cloudflare.steamstatic.com</text>
<rect x="180" y="414" width="551.17" height="22" fill="#4c78a8" rx="3"/>
<text x="739.17" y="430" class="value">168.22</text>
<text x="10" y="462" class="label">static3.cdn.ubi.com</text>
<rect x="180" y="446" width="556.05" height="22" fill="#4c78a8" rx="3"/>
<text x="744.05" y="462" class="value">169.71</text>
<text x="10" y="494" class="label">steamcdn-a.akamaihd.net</text>
<rect x="180" y="478" width="580.0" height="22" fill="#4c78a8" rx="3"/>
<text x="768.0" y="494" class="value">177.02</text>
<line x1="180" y1="30" x2="180" y2="520" stroke="#ccc"/>
<line x1="180" y1="520" x2="760" y2="520" stroke="#ccc"/>
</svg>