<svg xmlns="http://www.w3.org/2000/svg" width="800" height="540">
<style> .label{font-family:DejaVu Sans,Verdana,Geneva,sans-serif;font-size:12px;fill:#333} .value{font-family:DejaVu Sans,Verdana,Geneva,sans-serif;font-size:12px;fill:#555} </style>
<text x="10" y="20" class="label">延迟柱状图（越低越好，Top 15），单位 ms</text>
<text x="10" y="46" class="label">eaassets-a.akamaihd.net</text>
<rect x="180" y="30" width="262.08" height="22" fill="#4c78a8" rx="3"/>
<text x="450.08" y="46" class="value">113.91</text>
<text x="10" y="78" class="label">store.akamai.steamstatic.com</text>
<rect x="180" y="62" width="281.27" height="22" fill="#4c78a8" rx="3"/>
<text x="469.27" y="78" class="value">122.25</text>
<text x="10" y="110" class="label">ea.com</text>
<rect x="180" y="94" width="301.91" height="22" fill="#4c78a8" rx="3"/>
<text x="489.91" y="110" class="value">131.22</text>
<text x="10" y="142" class="label">ubisoft.com</text>
<rect x="180" y="126" width="303.38" height="22" fill="#4c78a8" rx="3"/>
<text x="491.38" y="142" class="value">131.86</text>
<text x="10" y="174" class="label">rockstargames.com</text>
<rect x="180" y="158" width="360.21" height="22" fill="#4c78a8" rx="3"/>
<text x="548.21" y="174" class="value">156.56</text>
<text x="10" y="206" class="label">steamcdn-a.akamaihd.net</text>
<rect x="180" y="190" width="378.8" height="22" fill="#4c78a8" rx="3"/>
<text x="566.8" y="206" class="value">164.64</text>
<text x="10" y="238" class="label">ubi.com</text>
<rect x="180" y="222" width="497.93" height="22" fill="#4c78a8" rx="3"/>
<text x="685.9300000000001" y="238" class="value">216.42</text>
<text x="10" y="270" class="label">api.steampowered.com</text>
<rect x="180" y="254" width="545.03" height="22" fill="#4c78a8" rx="3"/>
<text x="733.03" y="270" class="value">236.89</text>
<text x="10" y="302" class="label">easyanticheat.net</text>
<rect x="180" y="286" width="552.48" height="22" fill="#4c78a8" rx="3"/>
<text x="740.48" y="302" class="value">240.13</text>
<text x="10" y="334" class="label">socialclub.rockstargames.com</text>
<rect x="180" y="318" width="556.49" height="22" fill="#4c78a8" rx="3"/>
<text x="744.49" y="334" class="value">241.87</text>
<text x="10" y="366" class="label">community.akamai.steamstatic.com</text>
<rect x="180" y="350" width="567.09" height="22" fill="#4c78a8" rx="3"/>
<text x="755.09" y="366" class="value">246.48</text>
<text x="10" y="398" class="label">fortnite.com</text>
<rect x="180" y="382" width="567.16" height="22" fill="#4c78a8" rx="3"/>
<text x="755.16" y="398" class="value">246.51</text>
<text x="10" y="430" class="label">static3.cdn.ubi.com</text>
<rect x="180" y="414" width="575.47" height="22" fill="#4c78a8" rx="3"/>
<text x="763.47" y="430" class="value">250.12</text>
<text x="10" y="462" class="label">cdn.akamai.steamstatic.com</text>
<rect x="180" y="446" width="578.53" height="22" fill="#4c78a8" rx="3"/>
<text x="766.53" y="462" class="value">251.45</text>
<text x="10" y="494" class="label">epicgames.com</text>
<rect x="180" y="478" width="580.0" height="22" fill="#4c78a8" rx="3"/>
<text x="768.0" y="494" class="value">252.09</text>
<line x1="180" y1="30" x2="180" y2="520" stroke="#ccc"/>
<line x1="180" y1="520" x2="760" y2="520" stroke="#ccc"/>
</svg>