<svg xmlns="http://www.w3.org/2000/svg" width="800" height="540">
<style> .label{font-family:DejaVu Sans,Verdana,Geneva,sans-serif;font-size:12px;fill:#333} .value{font-family:DejaVu Sans,Verdana,Geneva,sans-serif;font-size:12px;fill:#555} </style>
<text x="10" y="20" class="label">延迟柱状图（越低越好，Top 15），单位 ms</text>
<text x="10" y="46" class="label">rockstargames.com</text>
<rect x="180" y="30" width="68.16" height="22" fill="#4c78a8" rx="3"/>
<text x="256.15999999999997" y="46" class="value">32.82</text>
<text x="10" y="78" class="label">ea.com</text>
<rect x="180" y="62" width="194.5" height="22" fill="#4c78a8" rx="3"/>
<text x="382.5" y="78" class="value">93.66</text>
<text x="10" y="110" class="label">ubisoft.com</text>
<rect x="180" y="94" width="229.93" height="22" fill="#4c78a8" rx="3"/>
<text x="417.93" y="110" class="value">110.72</text>
<text x="10" y="142" class="label">eaassets-a.akamaihd.net</text>
<rect x="180" y="126" width="232.28" height="22" fill="#4c78a8" rx="3"/>
<text x="420.28" y="142" class="value">111.85</text>
<text x="10" y="174" class="label">origin.com</text>
<rect x="180" y="158" width="298.57" height="22" fill="#4c78a8" rx="3"/>
<text x="486.57" y="174" class="value">143.77</text>
<text x="10" y="206" class="label">steamcdn-a.akamaihd.net</text>
<rect x="180" y="190" width="333.85" height="22" fill="#4c78a8" rx="3"/>
<text x="521.85" y="206" class="value">160.76</text>
<text x="10" y="238" class="label">cdn.cloudflare.steamstatic.com</text>
<rect x="180" y="222" width="336.26" height="22" fill="#4c78a8" rx="3"/>
<text x="524.26" y="238" class="value">161.92</text>
<text x="10" y="270" class="label">store.akamai.steamstatic.com</text>
<rect x="180" y="254" width="372.77" height="22" fill="#4c78a8" rx="3"/>
<text x="560.77" y="270" class="value">179.50</text>
<text x="10" y="302" class="label">cdn.akamai.steamstatic.com</text>
<rect x="180" y="286" width="384.79" height="22" fill="#4c78a8" rx="3"/>
<text x="572.79" y="302" class="value">185.29</text>
<text x="10" y="334" class="label">easyanticheat.net</text>
<rect x="180" y="318" width="395.46" height="22" fill="#4c78a8" rx="3"/>
<text x="583.46" y="334" class="value">190.43</text>
<text x="10" y="366" class="label">community.akamai.steamstatic.com</text>
<rect x="180" y="350" width="395.8" height="22" fill="#4c78a8" rx="3"/>
<text x="583.8" y="366" class="value">190.59</text>
<text x="10" y="398" class="label">steam-chat.com</text>
<rect x="180" y="382" width="457.95" height="22" fill="#4c78a8" rx="3"/>
<text x="645.95" y="398" class="value">220.52</text>
<text x="10" y="430" class="label">api.steampowered.com</text>
<rect x="180" y="414" width="509.87" height="22" fill="#4c78a8" rx="3"/>
<text x="697.87" y="430" class="value">245.52</text>
<text x="10" y="462" class="label">www.steamcommunity.com</text>
<rect x="180" y="446" width="522.45" height="22" fill="#4c78a8" rx="3"/>
<text x="710.45" y="462" class="value">251.58</text>
<text x="10" y="494" class="label">launcher-public-service-prod06.ol.epicgames.com</text>
<rect x="180" y="478" width="580.0" height="22" fill="#4c78a8" rx="3"/>
<text x="768.0" y="494" class="value">279.29</text>
<line x1="180" y1="30" x2="180" y2="520" stroke="#ccc"/>
<line x1="180" y1="520" x2="760" y2="520" stroke="#ccc"/>
</svg>