<svg xmlns="http://www.w3.org/2000/svg" width="800" height="540">
<style> .label{font-family:DejaVu Sans,Verdana,Geneva,sans-serif;font-size:12px;fill:#333} .value{font-family:DejaVu Sans,Verdana,Geneva,sans-serif;font-size:12px;fill:#555} </style>
<text x="10" y="20" class="label">延迟柱状图（越低越好，Top 15），单位 ms</text>
<text x="10" y="46" class="label">eaassets-a.akamaihd.net</text>
<rect x="180" y="30" width="137.26" height="22" fill="#4c78a8" rx="3"/>
<text x="325.26" y="46" class="value">49.25</text>
<text x="10" y="78" class="label">rockstargames.com</text>
<rect x="180" y="62" width="263.2" height="22" fill="#4c78a8" rx="3"/>
<text x="451.2" y="78" class="value">94.44</text>
<text x="10" y="110" class="label">ubisoft.com</text>
<rect x="180" y="94" width="328.17" height="22" fill="#4c78a8" rx="3"/>
<text x="516.1700000000001" y="110" class="value">117.75</text>
<text x="10" y="142" class="label">cdn.akamai.steamstatic.com</text>
<rect x="180" y="126" width="334.08" height="22" fill="#4c78a8" rx="3"/>
<text x="522.0799999999999" y="142" class="value">119.87</text>
<text x="10" y="174" class="label">ubi.com</text>
<rect x="180" y="158" width="370.45" height="22" fill="#4c78a8" rx="3"/>
<text x="558.45" y="174" class="value">132.92</text>
<text x="10" y="206" class="label">socialclub.rockstargames.com</text>
<rect x="180" y="190" width="380.56" height="22" fill="#4c78a8" rx="3"/>
<text x="568.56" y="206" class="value">136.55</text>
<text x="10" y="238" class="label">ea.com</text>
<rect x="180" y="222" width="395.53" height="22" fill="#4c78a8" rx="3"/>
<text x="583.53" y="238" class="value">141.92</text>
<text x="10" y="270" class="label">cdn.cloudflare.steamstatic.com</text>
<rect x="180" y="254" width="401.55" height="22" fill="#4c78a8" rx="3"/>
<text x="589.55" y="270" class="value">144.08</text>
<text x="10" y="302" class="label">battle.net</text>
<rect x="180" y="286" width="414.31" height="22" fill="#4c78a8" rx="3"/>
<text x="602.31" y="302" class="value">148.66</text>
<text x="10" y="334" class="label">origin.com</text>
<rect x="180" y="318" width="434.66" height="22" fill="#4c78a8" rx="3"/>
<text x="622.6600000000001" y="334" class="value">155.96</text>
<text x="10" y="366" class="label">blizzard.com</text>
<rect x="180" y="350" width="516.43" height="22" fill="#4c78a8" rx="3"/>
<text x="704.43" y="366" class="value">185.30</text>
<text x="10" y="398" class="label">store.akamai.steamstatic.com</text>
<rect x="180" y="382" width="557.68" height="22" fill="#4c78a8" rx="3"/>
<text x="745.68" y="398" class="value">200.10</text>
<text x="10" y="430" class="label">steamcommunity.com</text>
<rect x="180" y="414" width="574.57" height="22" fill="#4c78a8" rx="3"/>
<text x="762.57" y="430" class="value">206.16</text>
<text x="10" y="462" class="label">steamcdn-a.akamaihd.net</text>
<rect x="180" y="446" width="579.41" height="22" fill="#4c78a8" rx="3"/>
<text x="767.41" y="462" class="value">207.90</text>
<text x="10" y="494" class="label">community.akamai.steamstatic.com</text>
<rect x="180" y="478" width="580.0" height="22" fill="#4c78a8" rx="3"/>
<text x="768.0" y="494" class="value">208.11</text>
<line x1="180" y1="30" x2="180" y2="520" stroke="#ccc"/>
<line x1="180" y1="520" x2="760" y2="520" stroke="#ccc"/>
</svg>