<svg xmlns="http://www.w3.org/2000/svg" width="800" height="540">
<style> .label{font-family:DejaVu Sans,Verdana,Geneva,sans-serif;font-size:12px;fill:#333} .value{font-family:DejaVu Sans,Verdana,Geneva,sans-serif;font-size:12px;fill:#555} </style>
<text x="10" y="20" class="label">延迟柱状图（越低越好，Top 15），单位 ms</text>
<text x="10" y="46" class="label">eaassets-a.akamaihd.net</text>
<rect x="180" y="30" width="115.95" height="22" fill="#4c78a8" rx="3"/>
<text x="303.95" y="46" class="value">38.89</text>
<text x="10" y="78" class="label">rockstargames.com</text>
<rect x="180" y="62" width="127.19" height="22" fill="#4c78a8" rx="3"/>
<text x="315.19" y="78" class="value">42.66</text>
<text x="10" y="110" class="label">blizzard.com</text>
<rect x="180" y="94" width="187.39" height="22" fill="#4c78a8" rx="3"/>
<text x="375.39" y="110" class="value">62.85</text>
<text x="10" y="142" class="label">battle.net</text>
<rect x="180" y="126" width="243.41" height="22" fill="#4c78a8" rx="3"/>
<text x="431.40999999999997" y="142" class="value">81.64</text>
<text x="10" y="174" class="label">socialclub.rockstargames.com</text>
<rect x="180" y="158" width="248.24" height="22" fill="#4c78a8" rx="3"/>
<text x="436.24" y="174" class="value">83.26</text>
<text x="10" y="206" class="label">community.akamai.steamstatic.com</text>
<rect x="180" y="190" width="285.84" height="22" fill="#4c78a8" rx="3"/>
<text x="473.84" y="206" class="value">95.87</text>
<text x="10" y="238" class="label">ubi.com</text>
<rect x="180" y="222" width="297.29" height="22" fill="#4c78a8" rx="3"/>
<text x="485.29" y="238" class="value">99.71</text>
<text x="10" y="270" class="label">cdn.akamai.steamstatic.com</text>
<rect x="180" y="254" width="323.8" height="22" fill="#4c78a8" rx="3"/>
<text x="511.8" y="270" class="value">108.60</text>
<text x="10" y="302" class="label">epicgames.com</text>
<rect x="180" y="286" width="329.34" height="22" fill="#4c78a8" rx="3"/>
<text x="517.3399999999999" y="302" class="value">110.46</text>
<text x="10" y="334" class="label">unrealengine.com</text>
<rect x="180" y="318" width="333.1" height="22" fill="#4c78a8" rx="3"/>
<text x="521.1" y="334" class="value">111.72</text>
<text x="10" y="366" class="label">ea.com</text>
<rect x="180" y="350" width="361.09" height="22" fill="#4c78a8" rx="3"/>
<text x="549.0899999999999" y="366" class="value">121.11</text>
<text x="10" y="398" class="label">ubisoft.com</text>
<rect x="180" y="382" width="385.66" height="22" fill="#4c78a8" rx="3"/>
<text x="573.6600000000001" y="398" class="value">129.35</text>
<text x="10" y="430" class="label">static3.cdn.ubi.com</text>
<rect x="180" y="414" width="401.41" height="22" fill="#4c78a8" rx="3"/>
<text x="589.4100000000001" y="430" class="value">134.63</text>
<text x="10" y="462" class="label">cdn.cloudflare.steamstatic.com</text>
<rect x="180" y="446" width="525.2" height="22" fill="#4c78a8" rx="3"/>
<text x="713.2" y="462" class="value">176.15</text>
<text x="10" y="494" class="label">fortnite.com</text>
<rect x="180" y="478" width="580.0" height="22" fill="#4c78a8" rx="3"/>
<text x="768.0" y="494" class="value">194.53</text>
<line x1="180" y1="30" x2="180" y2="520" stroke="#ccc"/>
<line x1="180" y1="520" x2="760" y2="520" stroke="#ccc"/>
</svg>