<svg xmlns="http://www.w3.org/2000/svg" width="800" height="540">
<style> .label{font-family:DejaVu Sans,Verdana,Geneva,sans-serif;font-size:12px;fill:#333} .value{font-family:DejaVu Sans,Verdana,Geneva,sans-serif;font-size:12px;fill:#555} </style>
<text x="10" y="20" class="label">延迟柱状图（越低越好，Top 15），单位 ms</text>
<text x="10" y="46" class="label">eaassets-a.akamaihd.net</text>
<rect x="180" y="30" width="203.43" height="22" fill="#4c78a8" rx="3"/>
<text x="391.43" y="46" class="value">68.49</text>
<text x="10" y="78" class="label">rockstargames.com</text>
<rect x="180" y="62" width="230.4" height="22" fill="#4c78a8" rx="3"/>
<text x="418.4" y="78" class="value">77.57</text>
<text x="10" y="110" class="label">socialclub.rockstargames.com</text>
<rect x="180" y="94" width="233.34" height="22" fill="#4c78a8" rx="3"/>
<text x="421.34000000000003" y="110" class="value">78.56</text>
<text x="10" y="142" class="label">blizzard.com</text>
<rect x="180" y="126" width="285.47" height="22" fill="#4c78a8" rx="3"/>
<text x="473.47" y="142" class="value">96.11</text>
<text x="10" y="174" class="label">ea.com</text>
<rect x="180" y="158" width="329.25" height="22" fill="#4c78a8" rx="3"/>
<text x="517.25" y="174" class="value">110.85</text>
<text x="10" y="206" class="label">fortnite.com</text>
<rect x="180" y="190" width="349.78" height="22" fill="#4c78a8" rx="3"/>
<text x="537.78" y="206" class="value">117.76</text>
<text x="10" y="238" class="label">ubi.com</text>
<rect x="180" y="222" width="378.5" height="22" fill="#4c78a8" rx="3"/>
<text x="566.5" y="238" class="value">127.43</text>
<text x="10" y="270" class="label">cdn.akamai.steamstatic.com</text>
<rect x="180" y="254" width="407.49" height="22" fill="#4c78a8" rx="3"/>
<text x="595.49" y="270" class="value">137.19</text>
<text x="10" y="302" class="label">battle.net</text>
<rect x="180" y="286" width="418.54" height="22" fill="#4c78a8" rx="3"/>
<text x="606.54" y="302" class="value">140.91</text>
<text x="10" y="334" class="label">unrealengine.com</text>
<rect x="180" y="318" width="424.09" height="22" fill="#4c78a8" rx="3"/>
<text x="612.0899999999999" y="334" class="value">142.78</text>
<text x="10" y="366" class="label">cdn.cloudflare.steamstatic.com</text>
<rect x="180" y="350" width="454.21" height="22" fill="#4c78a8" rx="3"/>
<text x="642.21" y="366" class="value">152.92</text>
<text x="10" y="398" class="label">ubisoft.com</text>
<rect x="180" y="382" width="456.76" height="22" fill="#4c78a8" rx="3"/>
<text x="644.76" y="398" class="value">153.78</text>
<text x="10" y="430" class="label">epicgames.com</text>
<rect x="180" y="414" width="532.39" height="22" fill="#4c78a8" rx="3"/>
<text x="720.39" y="430" class="value">179.24</text>
<text x="10" y="462" class="label">store.akamai.steamstatic.com</text>
<rect x="180" y="446" width="539.96" height="22" fill="#4c78a8" rx="3"/>
<text x="727.96" y="462" class="value">181.79</text>
<text x="10" y="494" class="label">static3.cdn.ubi.com</text>
<rect x="180" y="478" width="580.0" height="22" fill="#4c78a8" rx="3"/>
<text x="768.0" y="494" class="value">195.27</text>
<line x1="180" y1="30" x2="180" y2="520" stroke="#ccc"/>
<line x1="180" y1="520" x2="760" y2="520" stroke="#ccc"/>
</svg>