<svg xmlns="http://www.w3.org/2000/svg" width="800" height="540">
<style> .label{font-family:DejaVu Sans,Verdana,Geneva,sans-serif;font-size:12px;fill:#333} .value{font-family:DejaVu Sans,Verdana,Geneva,sans-serif;font-size:12px;fill:#555} </style>
<text x="10" y="20" class="label">延迟柱状图（越低越好，Top 15），单位 ms</text>
<text x="10" y="46" class="label">steamcdn-a.akamaihd.net</text>
<rect x="180" y="30" width="242.83" height="22" fill="#4c78a8" rx="3"/>
<text x="430.83000000000004" y="46" class="value">105.16</text>
<text x="10" y="78" class="label">cdn.cloudflare.steamstatic.com</text>
<rect x="180" y="62" width="278.79" height="22" fill="#4c78a8" rx="3"/>
<text x="466.79" y="78" class="value">120.73</text>
<text x="10" y="110" class="label">ea.com</text>
<rect x="180" y="94" width="312.36" height="22" fill="#4c78a8" rx="3"/>
<text x="500.36" y="110" class="value">135.27</text>
<text x="10" y="142" class="label">eaassets-a.akamaihd.net</text>
<rect x="180" y="126" width="318.69" height="22" fill="#4c78a8" rx="3"/>
<text x="506.69" y="142" class="value">138.01</text>
<text x="10" y="174" class="label">ubisoft.com</text>
<rect x="180" y="158" width="319.62" height="22" fill="#4c78a8" rx="3"/>
<text x="507.62" y="174" class="value">138.41</text>
<text x="10" y="206" class="label">store.akamai.steamstatic.com</text>
<rect x="180" y="190" width="363.56" height="22" fill="#4c78a8" rx="3"/>
<text x="551.56" y="206" class="value">157.44</text>
<text x="10" y="238" class="label">origin.com</text>
<rect x="180" y="222" width="412.88" height="22" fill="#4c78a8" rx="3"/>
<text x="600.88" y="238" class="value">178.80</text>
<text x="10" y="270" class="label">easyanticheat.net</text>
<rect x="180" y="254" width="442.58" height="22" fill="#4c78a8" rx="3"/>
<text x="630.5799999999999" y="270" class="value">191.66</text>
<text x="10" y="302" class="label">rockstargames.com</text>
<rect x="180" y="286" width="451.96" height="22" fill="#4c78a8" rx="3"/>
<text x="639.96" y="302" class="value">195.72</text>
<text x="10" y="334" class="label">battle.net</text>
<rect x="180" y="318" width="494.42" height="22" fill="#4c78a8" rx="3"/>
<text x="682.4200000000001" y="334" class="value">214.11</text>
<text x="10" y="366" class="label">blizzard.com</text>
<rect x="180" y="350" width="494.79" height="22" fill="#4c78a8" rx="3"/>
<text x="682.79" y="366" class="value">214.27</text>
<text x="10" y="398" class="label">ubi.com</text>
<rect x="180" y="382" width="508.92" height="22" fill="#4c78a8" rx="3"/>
<text x="696.9200000000001" y="398" class="value">220.39</text>
<text x="10" y="430" class="label">launcher-public-service-prod06.ol.epicgames.com</text>
<rect x="180" y="414" width="533.24" height="22" fill="#4c78a8" rx="3"/>
<text x="721.24" y="430" class="value">230.92</text>
<text x="10" y="462" class="label">cdn.akamai.steamstatic.com</text>
<rect x="180" y="446" width="575.66" height="22" fill="#4c78a8" rx="3"/>
<text x="763.66" y="462" class="value">249.29</text>
<text x="10" y="494" class="label">community.akamai.steamstatic.com</text>
<rect x="180" y="478" width="580.0" height="22" fill="#4c78a8" rx="3"/>
<text x="768.0" y="494" class="value">251.17</text>
<line x1="180" y1="30" x2="180" y2="520" stroke="#ccc"/>
<line x1="180" y1="520" x2="760" y2="520" stroke="#ccc"/>
</svg>