<svg xmlns="http://www.w3.org/2000/svg" width="800" height="540">
<style> .label{font-family:DejaVu Sans,Verdana,Geneva,sans-serif;font-size:12px;fill:#333} .value{font-family:DejaVu Sans,Verdana,Geneva,sans-serif;font-size:12px;fill:#555} </style>
<text x="10" y="20" class="label">延迟柱状图（越低越好，Top 15），单位 ms</text>
<text x="10" y="46" class="label">community.akamai.steamstatic.com</text>
<rect x="180" y="30" width="312.53" height="22" fill="#4c78a8" rx="3"/>
<text x="500.53" y="46" class="value">131.83</text>
<text x="10" y="78" class="label">eaassets-a.akamaihd.net</text>
<rect x="180" y="62" width="317.56" height="22" fill="#4c78a8" rx="3"/>
<text x="505.56" y="78" class="value">133.95</text>
<text x="10" y="110" class="label">ubisoft.com</text>
<rect x="180" y="94" width="344.82" height="22" fill="#4c78a8" rx="3"/>
<text x="532.8199999999999" y="110" class="value">145.45</text>
<text x="10" y="142" class="label">ea.com</text>
<rect x="180" y="126" width="386.12" height="22" fill="#4c78a8" rx="3"/>
<text x="574.12" y="142" class="value">162.87</text>
<text x="10" y="174" class="label">origin.com</text>
<rect x="180" y="158" width="453.81" height="22" fill="#4c78a8" rx="3"/>
<text x="641.81" y="174" class="value">191.42</text>
<text x="10" y="206" class="label">cdn.cloudflare.steamstatic.com</text>
<rect x="180" y="190" width="460.61" height="22" fill="#4c78a8" rx="3"/>
<text x="648.61" y="206" class="value">194.29</text>
<text x="10" y="238" class="label">cdn.akamai.steamstatic.com</text>
<rect x="180" y="222" width="464.28" height="22" fill="#4c78a8" rx="3"/>
<text x="652.28" y="238" class="value">195.84</text>
<text x="10" y="270" class="label">rockstargames.com</text>
<rect x="180" y="254" width="502.9" height="22" fill="#4c78a8" rx="3"/>
<text x="690.9" y="270" class="value">212.13</text>
<text x="10" y="302" class="label">store.akamai.steamstatic.com</text>
<rect x="180" y="286" width="540.08" height="22" fill="#4c78a8" rx="3"/>
<text x="728.08" y="302" class="value">227.81</text>
<text x="10" y="334" class="label">battle.net</text>
<rect x="180" y="318" width="549.23" height="22" fill="#4c78a8" rx="3"/>
<text x="737.23" y="334" class="value">231.67</text>
<text x="10" y="366" class="label">blizzard.com</text>
<rect x="180" y="350" width="552.83" height="22" fill="#4c78a8" rx="3"/>
<text x="740.83" y="366" class="value">233.19</text>
<text x="10" y="398" class="label">steamcdn-a.akamaihd.net</text>
<rect x="180" y="382" width="557.5" height="22" fill="#4c78a8" rx="3"/>
<text x="745.5" y="398" class="value">235.16</text>
<text x="10" y="430" class="label">socialclub.rockstargames.com</text>
<rect x="180" y="414" width="560.87" height="22" fill="#4c78a8" rx="3"/>
<text x="748.87" y="430" class="value">236.58</text>
<text x="10" y="462" class="label">ubi.com</text>
<rect x="180" y="446" width="570.64" height="22" fill="#4c78a8" rx="3"/>
<text x="758.64" y="462" class="value">240.70</text>
<text x="10" y="494" class="label">easyanticheat.net</text>
<rect x="180" y="478" width="580.0" height="22" fill="#4c78a8" rx="3"/>
<text x="768.0" y="494" class="value">244.65</text>
<line x1="180" y1="30" x2="180" y2="520" stroke="#ccc"/>
<line x1="180" y1="520" x2="760" y2="520" stroke="#ccc"/>
</svg>