<svg xmlns="http://www.w3.org/2000/svg" width="800" height="540">
<style> .label{font-family:DejaVu Sans,Verdana,Geneva,sans-serif;font-size:12px;fill:#333} .value{font-family:DejaVu Sans,Verdana,Geneva,sans-serif;font-size:12px;fill:#555} </style>
<text x="10" y="20" class="label">延迟柱状图（越低越好，Top 15），单位 ms</text>
<text x="10" y="46" class="label">eaassets-a.akamaihd.net</text>
<rect x="180" y="30" width="178.3" height="22" fill="#4c78a8" rx="3"/>
<text x="366.3" y="46" class="value">72.29</text>
<text x="10" y="78" class="label">epicgames.com</text>
<rect x="180" y="62" width="238.66" height="22" fill="#4c78a8" rx="3"/>
<text x="426.65999999999997" y="78" class="value">96.76</text>
<text x="10" y="110" class="label">unrealengine.com</text>
<rect x="180" y="94" width="255.68" height="22" fill="#4c78a8" rx="3"/>
<text x="443.68" y="110" class="value">103.66</text>
<text x="10" y="142" class="label">ea.com</text>
<rect x="180" y="126" width="264.06" height="22" fill="#4c78a8" rx="3"/>
<text x="452.06" y="142" class="value">107.06</text>
<text x="10" y="174" class="label">battle.net</text>
<rect x="180" y="158" width="267.47" height="22" fill="#4c78a8" rx="3"/>
<text x="455.47" y="174" class="value">108.44</text>
<text x="10" y="206" class="label">blizzard.com</text>
<rect x="180" y="190" width="281.9" height="22" fill="#4c78a8" rx="3"/>
<text x="469.9" y="206" class="value">114.29</text>
<text x="10" y="238" class="label">ubi.com</text>
<rect x="180" y="222" width="284.04" height="22" fill="#4c78a8" rx="3"/>
<text x="472.04" y="238" class="value">115.16</text>
<text x="10" y="270" class="label">socialclub.rockstargames.com</text>
<rect x="180" y="254" width="300.86" height="22" fill="#4c78a8" rx="3"/>
<text x="488.86" y="270" class="value">121.98</text>
<text x="10" y="302" class="label">ubisoft.com</text>
<rect x="180" y="286" width="310.46" height="22" fill="#4c78a8" rx="3"/>
<text x="498.46" y="302" class="value">125.87</text>
<text x="10" y="334" class="label">cdn.akamai.steamstatic.com</text>
<rect x="180" y="318" width="313.02" height="22" fill="#4c78a8" rx="3"/>
<text x="501.02" y="334" class="value">126.91</text>
<text x="10" y="366" class="label">rockstargames.com</text>
<rect x="180" y="350" width="332.86" height="22" fill="#4c78a8" rx="3"/>
<text x="520.86" y="366" class="value">134.95</text>
<text x="10" y="398" class="label">community.akamai.steamstatic.com</text>
<rect x="180" y="382" width="435.51" height="22" fill="#4c78a8" rx="3"/>
<text x="623.51" y="398" class="value">176.57</text>
<text x="10" y="430" class="label">steamcdn-a.akamaihd.net</text>
<rect x="180" y="414" width="467.26" height="22" fill="#4c78a8" rx="3"/>
<text x="655.26" y="430" class="value">189.44</text>
<text x="10" y="462" class="label">static3.cdn.ubi.com</text>
<rect x="180" y="446" width="519.45" height="22" fill="#4c78a8" rx="3"/>
<text x="707.45" y="462" class="value">210.60</text>
<text x="10" y="494" class="label">fortnite.com</text>
<rect x="180" y="478" width="580.0" height="22" fill="#4c78a8" rx="3"/>
<text x="768.0" y="494" class="value">235.15</text>
<line x1="180" y1="30" x2="180" y2="520" stroke="#ccc"/>
<line x1="180" y1="520" x2="760" y2="520" stroke="#ccc"/>
</svg>