<svg xmlns="http://www.w3.org/2000/svg" width="800" height="540">
<style> .label{font-family:DejaVu Sans,Verdana,Geneva,sans-serif;font-size:12px;fill:#333} .value{font-family:DejaVu Sans,Verdana,Geneva,sans-serif;font-size:12px;fill:#555} </style>
<text x="10" y="20" class="label">延迟柱状图（越低越好，Top 15），单位 ms</text>
<text x="10" y="46" class="label">rockstargames.com</text>
<rect x="180" y="30" width="136.9" height="22" fill="#4c78a8" rx="3"/>
<text x="324.9" y="46" class="value">52.93</text>
<text x="10" y="78" class="label">socialclub.rockstargames.com</text>
<rect x="180" y="62" width="229.47" height="22" fill="#4c78a8" rx="3"/>
<text x="417.47" y="78" class="value">88.72</text>
<text x="10" y="110" class="label">ubi.com</text>
<rect x="180" y="94" width="234.38" height="22" fill="#4c78a8" rx="3"/>
<text x="422.38" y="110" class="value">90.62</text>
<text x="10" y="142" class="label">ea.com</text>
<rect x="180" y="126" width="265.8" height="22" fill="#4c78a8" rx="3"/>
<text x="453.8" y="142" class="value">102.77</text>
<text x="10" y="174" class="label">ubisoft.com</text>
<rect x="180" y="158" width="281.25" height="22" fill="#4c78a8" rx="3"/>
<text x="469.25" y="174" class="value">108.74</text>
<text x="10" y="206" class="label">battle.net</text>
<rect x="180" y="190" width="293.38" height="22" fill="#4c78a8" rx="3"/>
<text x="481.38" y="206" class="value">113.43</text>
<text x="10" y="238" class="label">community.akamai.steamstatic.com</text>
<rect x="180" y="222" width="302.43" height="22" fill="#4c78a8" rx="3"/>
<text x="490.43" y="238" class="value">116.93</text>
<text x="10" y="270" class="label">blizzard.com</text>
<rect x="180" y="254" width="311.53" height="22" fill="#4c78a8" rx="3"/>
<text x="499.53" y="270" class="value">120.45</text>
<text x="10" y="302" class="label">unrealengine.com</text>
<rect x="180" y="286" width="332.02" height="22" fill="#4c78a8" rx="3"/>
<text x="520.02" y="302" class="value">128.37</text>
<text x="10" y="334" class="label">origin.com</text>
<rect x="180" y="318" width="457.48" height="22" fill="#4c78a8" rx="3"/>
<text x="645.48" y="334" class="value">176.88</text>
<text x="10" y="366" class="label">api.steampowered.com</text>
<rect x="180" y="350" width="458.54" height="22" fill="#4c78a8" rx="3"/>
<text x="646.54" y="366" class="value">177.29</text>
<text x="10" y="398" class="label">steamcdn-a.akamaihd.net</text>
<rect x="180" y="382" width="470.62" height="22" fill="#4c78a8" rx="3"/>
<text x="658.62" y="398" class="value">181.96</text>
<text x="10" y="430" class="label">epicgames.com</text>
<rect x="180" y="414" width="482.13" height="22" fill="#4c78a8" rx="3"/>
<text x="670.13" y="430" class="value">186.41</text>
<text x="10" y="462" class="label">fortnite.com</text>
<rect x="180" y="446" width="534.94" height="22" fill="#4c78a8" rx="3"/>
<text x="722.94" y="462" class="value">206.83</text>
<text x="10" y="494" class="label">gog.com</text>
<rect x="180" y="478" width="580.0" height="22" fill="#4c78a8" rx="3"/>
<text x="768.0" y="494" class="value">224.25</text>
<line x1="180" y1="30" x2="180" y2="520" stroke="#ccc"/>
<line x1="180" y1="520" x2="760" y2="520" stroke="#ccc"/>
</svg>