<svg xmlns="http://www.w3.org/2000/svg" width="800" height="540">
<style> .label{font-family:DejaVu Sans,Verdana,Geneva,sans-serif;font-size:12px;fill:#333} .value{font-family:DejaVu Sans,Verdana,Geneva,sans-serif;font-size:12px;fill:#555} </style>
<text x="10" y="20" class="label">延迟柱状图（越低越好，Top 15），单位 ms</text>
<text x="10" y="46" class="label">rockstargames.com</text>
<rect x="180" y="30" width="277.54" height="22" fill="#4c78a8" rx="3"/>
<text x="465.54" y="46" class="value">118.98</text>
<text x="10" y="78" class="label">origin.com</text>
<rect x="180" y="62" width="386.78" height="22" fill="#4c78a8" rx="3"/>
<text x="574.78" y="78" class="value">165.81</text>
<text x="10" y="110" class="label">eaassets-a.akamaihd.net</text>
<rect x="180" y="94" width="392.85" height="22" fill="#4c78a8" rx="3"/>
<text x="580.85" y="110" class="value">168.41</text>
<text x="10" y="142" class="label">blizzard.com</text>
<rect x="180" y="126" width="399.24" height="22" fill="#4c78a8" rx="3"/>
<text x="587.24" y="142" class="value">171.15</text>
<text x="10" y="174" class="label">battle.net</text>
<rect x="180" y="158" width="407.78" height="22" fill="#4c78a8" rx="3"/>
<text x="595.78" y="174" class="value">174.81</text>
<text x="10" y="206" class="label">static3.cdn.ubi.com</text>
<rect x="180" y="190" width="409.32" height="22" fill="#4c78a8" rx="3"/>
<text x="597.3199999999999" y="206" class="value">175.47</text>
<text x="10" y="238" class="label">ubi.com</text>
<rect x="180" y="222" width="421.56" height="22" fill="#4c78a8" rx="3"/>
<text x="609.56" y="238" class="value">180.72</text>
<text x="10" y="270" class="label">socialclub.rockstargames.com</text>
<rect x="180" y="254" width="431.27" height="22" fill="#4c78a8" rx="3"/>
<text x="619.27" y="270" class="value">184.88</text>
<text x="10" y="302" class="label">ea.com</text>
<rect x="180" y="286" width="438.64" height="22" fill="#4c78a8" rx="3"/>
<text x="626.64" y="302" class="value">188.04</text>
<text x="10" y="334" class="label">steamcdn-a.akamaihd.net</text>
<rect x="180" y="318" width="460.12" height="22" fill="#4c78a8" rx="3"/>
<text x="648.12" y="334" class="value">197.25</text>
<text x="10" y="366" class="label">cdn.cloudflare.steamstatic.com</text>
<rect x="180" y="350" width="514.26" height="22" fill="#4c78a8" rx="3"/>
<text x="702.26" y="366" class="value">220.46</text>
<text x="10" y="398" class="label">launcher-public-service-prod06.ol.epicgames.com</text>
<rect x="180" y="382" width="561.32" height="22" fill="#4c78a8" rx="3"/>
<text x="749.32" y="398" class="value">240.63</text>
<text x="10" y="430" class="label">epicgames.com</text>
<rect x="180" y="414" width="562.9" height="22" fill="#4c78a8" rx="3"/>
<text x="750.9" y="430" class="value">241.31</text>
<text x="10" y="462" class="label">api.steampowered.com</text>
<rect x="180" y="446" width="568.59" height="22" fill="#4c78a8" rx="3"/>
<text x="756.59" y="462" class="value">243.75</text>
<text x="10" y="494" class="label">easyanticheat.net</text>
<rect x="180" y="478" width="580.0" height="22" fill="#4c78a8" rx="3"/>
<text x="768.0" y="494" class="value">248.64</text>
<line x1="180" y1="30" x2="180" y2="520" stroke="#ccc"/>
<line x1="180" y1="520" x2="760" y2="520" stroke="#ccc"/>
</svg>