<svg xmlns="http://www.w3.org/2000/svg" width="800" height="540">
<style> .label{font-family:DejaVu Sans,Verdana,Geneva,sans-serif;font-size:12px;fill:#333} .value{font-family:DejaVu Sans,Verdana,Geneva,sans-serif;font-size:12px;fill:#555} </style>
<text x="10" y="20" class="label">延迟柱状图（越低越好，Top 15），单位 ms</text>
<text x="10" y="46" class="label">eaassets-a.akamaihd.net</text>
<rect x="180" y="30" width="65.25" height="22" fill="#4c78a8" rx="3"/>
<text x="253.25" y="46" class="value">32.94</text>
<text x="10" y="78" class="label">rockstargames.com</text>
<rect x="180" y="62" width="119.51" height="22" fill="#4c78a8" rx="3"/>
<text x="307.51" y="78" class="value">60.33</text>
<text x="10" y="110" class="label">ubisoft.com</text>
<rect x="180" y="94" width="121.84" height="22" fill="#4c78a8" rx="3"/>
<text x="309.84000000000003" y="110" class="value">61.51</text>
<text x="10" y="142" class="label">cdn.cloudflare.steamstatic.com</text>
<rect x="180" y="126" width="159.5" height="22" fill="#4c78a8" rx="3"/>
<text x="347.5" y="142" class="value">80.52</text>
<text x="10" y="174" class="label">ea.com</text>
<rect x="180" y="158" width="188.58" height="22" fill="#4c78a8" rx="3"/>
<text x="376.58000000000004" y="174" class="value">95.20</text>
<text x="10" y="206" class="label">easyanticheat.net</text>
<rect x="180" y="190" width="233.62" height="22" fill="#4c78a8" rx="3"/>
<text x="421.62" y="206" class="value">117.94</text>
<text x="10" y="238" class="label">store.akamai.steamstatic.com</text>
<rect x="180" y="222" width="250.3" height="22" fill="#4c78a8" rx="3"/>
<text x="438.3" y="238" class="value">126.36</text>
<text x="10" y="270" class="label">steamcdn-a.akamaihd.net</text>
<rect x="180" y="254" width="270.49" height="22" fill="#4c78a8" rx="3"/>
<text x="458.49" y="270" class="value">136.55</text>
<text x="10" y="302" class="label">origin.com</text>
<rect x="180" y="286" width="274.43" height="22" fill="#4c78a8" rx="3"/>
<text x="462.43" y="302" class="value">138.54</text>
<text x="10" y="334" class="label">cdn.akamai.steamstatic.com</text>
<rect x="180" y="318" width="290.57" height="22" fill="#4c78a8" rx="3"/>
<text x="478.57" y="334" class="value">146.69</text>
<text x="10" y="366" class="label">community.akamai.steamstatic.com</text>
<rect x="180" y="350" width="370.46" height="22" fill="#4c78a8" rx="3"/>
<text x="558.46" y="366" class="value">187.02</text>
<text x="10" y="398" class="label">steam-chat.com</text>
<rect x="180" y="382" width="432.74" height="22" fill="#4c78a8" rx="3"/>
<text x="620.74" y="398" class="value">218.46</text>
<text x="10" y="430" class="label">www.steamcommunity.com</text>
<rect x="180" y="414" width="510.08" height="22" fill="#4c78a8" rx="3"/>
<text x="698.0799999999999" y="430" class="value">257.50</text>
<text x="10" y="462" class="label">api.steampowered.com</text>
<rect x="180" y="446" width="521.33" height="22" fill="#4c78a8" rx="3"/>
<text x="709.33" y="462" class="value">263.18</text>
<text x="10" y="494" class="label">ubi.com</text>
<rect x="180" y="478" width="580.0" height="22" fill="#4c78a8" rx="3"/>
<text x="768.0" y="494" class="value">292.80</text>
<line x1="180" y1="30" x2="180" y2="520" stroke="#ccc"/>
<line x1="180" y1="520" x2="760" y2="520" stroke="#ccc"/>
</svg>