<svg xmlns="http://www.w3.org/2000/svg" width="800" height="540">
<style> .label{font-family:DejaVu Sans,Verdana,Geneva,sans-serif;font-size:12px;fill:#333} .value{font-family:DejaVu Sans,Verdana,Geneva,sans-serif;font-size:12px;fill:#555} </style>
<text x="10" y="20" class="label">延迟柱状图（越低越好，Top 15），单位 ms</text>
<text x="10" y="46" class="label">rockstargames.com</text>
<rect x="180" y="30" width="67.29" height="22" fill="#4c78a8" rx="3"/>
<text x="255.29000000000002" y="46" class="value">33.64</text>
<text x="10" y="78" class="label">eaassets-a.akamaihd.net</text>
<rect x="180" y="62" width="68.87" height="22" fill="#4c78a8" rx="3"/>
<text x="256.87" y="78" class="value">34.43</text>
<text x="10" y="110" class="label">ea.com</text>
<rect x="180" y="94" width="128.82" height="22" fill="#4c78a8" rx="3"/>
<text x="316.82" y="110" class="value">64.40</text>
<text x="10" y="142" class="label">origin.com</text>
<rect x="180" y="126" width="184.19" height="22" fill="#4c78a8" rx="3"/>
<text x="372.19" y="142" class="value">92.08</text>
<text x="10" y="174" class="label">cdn.akamai.steamstatic.com</text>
<rect x="180" y="158" width="223.32" height="22" fill="#4c78a8" rx="3"/>
<text x="411.32" y="174" class="value">111.64</text>
<text x="10" y="206" class="label">community.akamai.steamstatic.com</text>
<rect x="180" y="190" width="224.78" height="22" fill="#4c78a8" rx="3"/>
<text x="412.78" y="206" class="value">112.37</text>
<text x="10" y="238" class="label">steamcdn-a.akamaihd.net</text>
<rect x="180" y="222" width="251.0" height="22" fill="#4c78a8" rx="3"/>
<text x="439.0" y="238" class="value">125.48</text>
<text x="10" y="270" class="label">easyanticheat.net</text>
<rect x="180" y="254" width="344.82" height="22" fill="#4c78a8" rx="3"/>
<text x="532.8199999999999" y="270" class="value">172.38</text>
<text x="10" y="302" class="label">store.akamai.steamstatic.com</text>
<rect x="180" y="286" width="350.06" height="22" fill="#4c78a8" rx="3"/>
<text x="538.06" y="302" class="value">175.00</text>
<text x="10" y="334" class="label">cdn.cloudflare.steamstatic.com</text>
<rect x="180" y="318" width="377.41" height="22" fill="#4c78a8" rx="3"/>
<text x="565.4100000000001" y="334" class="value">188.67</text>
<text x="10" y="366" class="label">launcher-public-service-prod06.ol.epicgames.com</text>
<rect x="180" y="350" width="384.99" height="22" fill="#4c78a8" rx="3"/>
<text x="572.99" y="366" class="value">192.46</text>
<text x="10" y="398" class="label">api.steampowered.com</text>
<rect x="180" y="382" width="400.43" height="22" fill="#4c78a8" rx="3"/>
<text x="588.4300000000001" y="398" class="value">200.18</text>
<text x="10" y="430" class="label">steam-chat.com</text>
<rect x="180" y="414" width="408.09" height="22" fill="#4c78a8" rx="3"/>
<text x="596.0899999999999" y="430" class="value">204.01</text>
<text x="10" y="462" class="label">www.steamcommunity.com</text>
<rect x="180" y="446" width="452.06" height="22" fill="#4c78a8" rx="3"/>
<text x="640.06" y="462" class="value">225.99</text>
<text x="10" y="494" class="label">ubisoft.com</text>
<rect x="180" y="478" width="580.0" height="22" fill="#4c78a8" rx="3"/>
<text x="768.0" y="494" class="value">289.95</text>
<line x1="180" y1="30" x2="180" y2="520" stroke="#ccc"/>
<line x1="180" y1="520" x2="760" y2="520" stroke="#ccc"/>
</svg>