<svg xmlns="http://www.w3.org/2000/svg" width="800" height="540">
<style> .label{font-family:DejaVu Sans,Verdana,Geneva,sans-serif;font-size:12px;fill:#333} .value{font-family:DejaVu Sans,Verdana,Geneva,sans-serif;font-size:12px;fill:#555} </style>
<text x="10" y="20" class="label">延迟柱状图（越低越好，Top 15），单位 ms</text>
<text x="10" y="46" class="label">ea.com</text>
<rect x="180" y="30" width="291.7" height="22" fill="#4c78a8" rx="3"/>
<text x="479.7" y="46" class="value">122.13</text>
<text x="10" y="78" class="label">cdn.akamai.steamstatic.com</text>
<rect x="180" y="62" width="309.58" height="22" fill="#4c78a8" rx="3"/>
<text x="497.58" y="78" class="value">129.62</text>
<text x="10" y="110" class="label">eaassets-a.akamaihd.net</text>
<rect x="180" y="94" width="327.59" height="22" fill="#4c78a8" rx="3"/>
<text x="515.5899999999999" y="110" class="value">137.16</text>
<text x="10" y="142" class="label">ubisoft.com</text>
<rect x="180" y="126" width="351.74" height="22" fill="#4c78a8" rx="3"/>
<text x="539.74" y="142" class="value">147.27</text>
<text x="10" y="174" class="label">cdn.cloudflare.steamstatic.com</text>
<rect x="180" y="158" width="369.49" height="22" fill="#4c78a8" rx="3"/>
<text x="557.49" y="174" class="value">154.70</text>
<text x="10" y="206" class="label">store.akamai.steamstatic.com</text>
<rect x="180" y="190" width="380.4" height="22" fill="#4c78a8" rx="3"/>
<text x="568.4" y="206" class="value">159.27</text>
<text x="10" y="238" class="label">community.akamai.steamstatic.com</text>
<rect x="180" y="222" width="383.53" height="22" fill="#4c78a8" rx="3"/>
<text x="571.53" y="238" class="value">160.58</text>
<text x="10" y="270" class="label">easyanticheat.net</text>
<rect x="180" y="254" width="442.98" height="22" fill="#4c78a8" rx="3"/>
<text x="630.98" y="270" class="value">185.47</text>
<text x="10" y="302" class="label">steamcdn-a.akamaihd.net</text>
<rect x="180" y="286" width="521.46" height="22" fill="#4c78a8" rx="3"/>
<text x="709.46" y="302" class="value">218.33</text>
<text x="10" y="334" class="label">blizzard.com</text>
<rect x="180" y="318" width="527.05" height="22" fill="#4c78a8" rx="3"/>
<text x="715.05" y="334" class="value">220.67</text>
<text x="10" y="366" class="label">rockstargames.com</text>
<rect x="180" y="350" width="529.89" height="22" fill="#4c78a8" rx="3"/>
<text x="717.89" y="366" class="value">221.86</text>
<text x="10" y="398" class="label">battle.net</text>
<rect x="180" y="382" width="532.92" height="22" fill="#4c78a8" rx="3"/>
<text x="720.92" y="398" class="value">223.13</text>
<text x="10" y="430" class="label">launcher-public-service-prod06.ol.epicgames.com</text>
<rect x="180" y="414" width="547.8" height="22" fill="#4c78a8" rx="3"/>
<text x="735.8" y="430" class="value">229.36</text>
<text x="10" y="462" class="label">epicgames.com</text>
<rect x="180" y="446" width="565.88" height="22" fill="#4c78a8" rx="3"/>
<text x="753.88" y="462" class="value">236.93</text>
<text x="10" y="494" class="label">socialclub.rockstargames.com</text>
<rect x="180" y="478" width="580.0" height="22" fill="#4c78a8" rx="3"/>
<text x="768.0" y="494" class="value">242.84</text>
<line x1="180" y1="30" x2="180" y2="520" stroke="#ccc"/>
<line x1="180" y1="520" x2="760" y2="520" stroke="#ccc"/>
</svg>