<svg xmlns="http://www.w3.org/2000/svg" width="800" height="540">
<style> .label{font-family:DejaVu Sans,Verdana,Geneva,sans-serif;font-size:12px;fill:#333} .value{font-family:DejaVu Sans,Verdana,Geneva,sans-serif;font-size:12px;fill:#555} </style>
<text x="10" y="20" class="label">延迟柱状图（越低越好，Top 15），单位 ms</text>
<text x="10" y="46" class="label">blizzard.com</text>
<rect x="180" y="30" width="191.6" height="22" fill="#4c78a8" rx="3"/>
<text x="379.6" y="46" class="value">75.08</text>
<text x="10" y="78" class="label">socialclub.rockstargames.com</text>
<rect x="180" y="62" width="218.88" height="22" fill="#4c78a8" rx="3"/>
<text x="406.88" y="78" class="value">85.77</text>
<text x="10" y="110" class="label">rockstargames.com</text>
<rect x="180" y="94" width="225.74" height="22" fill="#4c78a8" rx="3"/>
<text x="413.74" y="110" class="value">88.46</text>
<text x="10" y="142" class="label">ubi.com</text>
<rect x="180" y="126" width="299.65" height="22" fill="#4c78a8" rx="3"/>
<text x="487.65" y="142" class="value">117.42</text>
<text x="10" y="174" class="label">ubisoft.com</text>
<rect x="180" y="158" width="308.58" height="22" fill="#4c78a8" rx="3"/>
<text x="496.58" y="174" class="value">120.92</text>
<text x="10" y="206" class="label">fortnite.com</text>
<rect x="180" y="190" width="316.59" height="22" fill="#4c78a8" rx="3"/>
<text x="504.59" y="206" class="value">124.06</text>
<text x="10" y="238" class="label">ea.com</text>
<rect x="180" y="222" width="347.83" height="22" fill="#4c78a8" rx="3"/>
<text x="535.8299999999999" y="238" class="value">136.30</text>
<text x="10" y="270" class="label">community.akamai.steamstatic.com</text>
<rect x="180" y="254" width="475.29" height="22" fill="#4c78a8" rx="3"/>
<text x="663.29" y="270" class="value">186.25</text>
<text x="10" y="302" class="label">origin.com</text>
<rect x="180" y="286" width="478.59" height="22" fill="#4c78a8" rx="3"/>
<text x="666.5899999999999" y="302" class="value">187.54</text>
<text x="10" y="334" class="label">cdn.akamai.steamstatic.com</text>
<rect x="180" y="318" width="484.35" height="22" fill="#4c78a8" rx="3"/>
<text x="672.35" y="334" class="value">189.80</text>
<text x="10" y="366" class="label">unrealengine.com</text>
<rect x="180" y="350" width="533.38" height="22" fill="#4c78a8" rx="3"/>
<text x="721.38" y="366" class="value">209.01</text>
<text x="10" y="398" class="label">epicgames.com</text>
<rect x="180" y="382" width="535.14" height="22" fill="#4c78a8" rx="3"/>
<text x="723.14" y="398" class="value">209.70</text>
<text x="10" y="430" class="label">steamcdn-a.akamaihd.net</text>
<rect x="180" y="414" width="537.31" height="22" fill="#4c78a8" rx="3"/>
<text x="725.31" y="430" class="value">210.55</text>
<text x="10" y="462" class="label">store.akamai.steamstatic.com</text>
<rect x="180" y="446" width="550.07" height="22" fill="#4c78a8" rx="3"/>
<text x="738.07" y="462" class="value">215.55</text>
<text x="10" y="494" class="label">www.steamcommunity.com</text>
<rect x="180" y="478" width="580.0" height="22" fill="#4c78a8" rx="3"/>
<text x="768.0" y="494" class="value">227.28</text>
<line x1="180" y1="30" x2="180" y2="520" stroke="#ccc"/>
<line x1="180" y1="520" x2="760" y2="520" stroke="#ccc"/>
</svg>