<svg xmlns="http://www.w3.org/2000/svg" width="800" height="540">
<style> .label{font-family:DejaVu Sans,Verdana,Geneva,sans-serif;font-size:12px;fill:#333} .value{font-family:DejaVu Sans,Verdana,Geneva,sans-serif;font-size:12px;fill:#555} </style>
<text x="10" y="20" class="label">延迟柱状图（越低越好，Top 15），单位 ms</text>
<text x="10" y="46" class="label">eaassets-a.akamaihd.net</text>
<rect x="180" y="30" width="94.59" height="22" fill="#4c78a8" rx="3"/>
<text x="282.59000000000003" y="46" class="value">37.04</text>
<text x="10" y="78" class="label">rockstargames.com</text>
<rect x="180" y="62" width="113.84" height="22" fill="#4c78a8" rx="3"/>
<text x="301.84000000000003" y="78" class="value">44.58</text>
<text x="10" y="110" class="label">ubisoft.com</text>
<rect x="180" y="94" width="256.74" height="22" fill="#4c78a8" rx="3"/>
<text x="444.74" y="110" class="value">100.54</text>
<text x="10" y="142" class="label">community.akamai.steamstatic.com</text>
<rect x="180" y="126" width="324.79" height="22" fill="#4c78a8" rx="3"/>
<text x="512.79" y="142" class="value">127.19</text>
<text x="10" y="174" class="label">ea.com</text>
<rect x="180" y="158" width="333.25" height="22" fill="#4c78a8" rx="3"/>
<text x="521.25" y="174" class="value">130.50</text>
<text x="10" y="206" class="label">steamcdn-a.akamaihd.net</text>
<rect x="180" y="190" width="335.67" height="22" fill="#4c78a8" rx="3"/>
<text x="523.6700000000001" y="206" class="value">131.45</text>
<text x="10" y="238" class="label">origin.com</text>
<rect x="180" y="222" width="402.88" height="22" fill="#4c78a8" rx="3"/>
<text x="590.88" y="238" class="value">157.77</text>
<text x="10" y="270" class="label">static3.cdn.ubi.com</text>
<rect x="180" y="254" width="420.02" height="22" fill="#4c78a8" rx="3"/>
<text x="608.02" y="270" class="value">164.48</text>
<text x="10" y="302" class="label">easyanticheat.net</text>
<rect x="180" y="286" width="459.29" height="22" fill="#4c78a8" rx="3"/>
<text x="647.29" y="302" class="value">179.86</text>
<text x="10" y="334" class="label">cdn.akamai.steamstatic.com</text>
<rect x="180" y="318" width="504.29" height="22" fill="#4c78a8" rx="3"/>
<text x="692.29" y="334" class="value">197.48</text>
<text x="10" y="366" class="label">steam-chat.com</text>
<rect x="180" y="350" width="541.44" height="22" fill="#4c78a8" rx="3"/>
<text x="729.44" y="366" class="value">212.03</text>
<text x="10" y="398" class="label">store.akamai.steamstatic.com</text>
<rect x="180" y="382" width="546.65" height="22" fill="#4c78a8" rx="3"/>
<text x="734.65" y="398" class="value">214.07</text>
<text x="10" y="430" class="label">cdn.cloudflare.steamstatic.com</text>
<rect x="180" y="414" width="549.0" height="22" fill="#4c78a8" rx="3"/>
<text x="737.0" y="430" class="value">214.99</text>
<text x="10" y="462" class="label">api.steampowered.com</text>
<rect x="180" y="446" width="555.28" height="22" fill="#4c78a8" rx="3"/>
<text x="743.28" y="462" class="value">217.45</text>
<text x="10" y="494" class="label">gog.com</text>
<rect x="180" y="478" width="580.0" height="22" fill="#4c78a8" rx="3"/>
<text x="768.0" y="494" class="value">227.13</text>
<line x1="180" y1="30" x2="180" y2="520" stroke="#ccc"/>
<line x1="180" y1="520" x2="760" y2="520" stroke="#ccc"/>
</svg>