<svg xmlns="http://www.w3.org/2000/svg" width="800" height="540">
<style> .label{font-family:DejaVu Sans,Verdana,Geneva,sans-serif;font-size:12px;fill:#333} .value{font-family:DejaVu Sans,Verdana,Geneva,sans-serif;font-size:12px;fill:#555} </style>
<text x="10" y="20" class="label">延迟柱状图（越低越好，Top 15），单位 ms</text>
<text x="10" y="46" class="label">rockstargames.com</text>
<rect x="180" y="30" width="148.3" height="22" fill="#4c78a8" rx="3"/>
<text x="336.3" y="46" class="value">59.58</text>
<text x="10" y="78" class="label">eaassets-a.akamaihd.net</text>
<rect x="180" y="62" width="157.43" height="22" fill="#4c78a8" rx="3"/>
<text x="345.43" y="78" class="value">63.25</text>
<text x="10" y="110" class="label">ea.com</text>
<rect x="180" y="94" width="168.01" height="22" fill="#4c78a8" rx="3"/>
<text x="356.01" y="110" class="value">67.50</text>
<text x="10" y="142" class="label">cdn.cloudflare.steamstatic.com</text>
<rect x="180" y="126" width="243.58" height="22" fill="#4c78a8" rx="3"/>
<text x="431.58000000000004" y="142" class="value">97.86</text>
<text x="10" y="174" class="label">ubisoft.com</text>
<rect x="180" y="158" width="244.08" height="22" fill="#4c78a8" rx="3"/>
<text x="432.08000000000004" y="174" class="value">98.06</text>
<text x="10" y="206" class="label">community.akamai.steamstatic.com</text>
<rect x="180" y="190" width="257.32" height="22" fill="#4c78a8" rx="3"/>
<text x="445.32" y="206" class="value">103.38</text>
<text x="10" y="238" class="label">steamcdn-a.akamaihd.net</text>
<rect x="180" y="222" width="260.53" height="22" fill="#4c78a8" rx="3"/>
<text x="448.53" y="238" class="value">104.67</text>
<text x="10" y="270" class="label">origin.com</text>
<rect x="180" y="254" width="299.98" height="22" fill="#4c78a8" rx="3"/>
<text x="487.98" y="270" class="value">120.52</text>
<text x="10" y="302" class="label">cdn.akamai.steamstatic.com</text>
<rect x="180" y="286" width="336.99" height="22" fill="#4c78a8" rx="3"/>
<text x="524.99" y="302" class="value">135.39</text>
<text x="10" y="334" class="label">store.akamai.steamstatic.com</text>
<rect x="180" y="318" width="365.67" height="22" fill="#4c78a8" rx="3"/>
<text x="553.6700000000001" y="334" class="value">146.91</text>
<text x="10" y="366" class="label">easyanticheat.net</text>
<rect x="180" y="350" width="401.06" height="22" fill="#4c78a8" rx="3"/>
<text x="589.06" y="366" class="value">161.13</text>
<text x="10" y="398" class="label">api.steampowered.com</text>
<rect x="180" y="382" width="499.16" height="22" fill="#4c78a8" rx="3"/>
<text x="687.1600000000001" y="398" class="value">200.54</text>
<text x="10" y="430" class="label">steam-chat.com</text>
<rect x="180" y="414" width="544.26" height="22" fill="#4c78a8" rx="3"/>
<text x="732.26" y="430" class="value">218.66</text>
<text x="10" y="462" class="label">static3.cdn.ubi.com</text>
<rect x="180" y="446" width="561.88" height="22" fill="#4c78a8" rx="3"/>
<text x="749.88" y="462" class="value">225.74</text>
<text x="10" y="494" class="label">www.steamcommunity.com</text>
<rect x="180" y="478" width="580.0" height="22" fill="#4c78a8" rx="3"/>
<text x="768.0" y="494" class="value">233.02</text>
<line x1="180" y1="30" x2="180" y2="520" stroke="#ccc"/>
<line x1="180" y1="520" x2="760" y2="520" stroke="#ccc"/>
</svg>