<svg xmlns="http://www.w3.org/2000/svg" width="800" height="540">
<style> .label{font-family:DejaVu Sans,Verdana,Geneva,sans-serif;font-size:12px;fill:#333} .value{font-family:DejaVu Sans,Verdana,Geneva,sans-serif;font-size:12px;fill:#555} </style>
<text x="10" y="20" class="label">延迟柱状图（越低越好，Top 15），单位 ms</text>
<text x="10" y="46" class="label">rockstargames.com</text>
<rect x="180" y="30" width="196.6" height="22" fill="#4c78a8" rx="3"/>
<text x="384.6" y="46" class="value">72.93</text>
<text x="10" y="78" class="label">socialclub.rockstargames.com</text>
<rect x="180" y="62" width="223.48" height="22" fill="#4c78a8" rx="3"/>
<text x="411.48" y="78" class="value">82.90</text>
<text x="10" y="110" class="label">eaassets-a.akamaihd.net</text>
<rect x="180" y="94" width="255.91" height="22" fill="#4c78a8" rx="3"/>
<text x="443.90999999999997" y="110" class="value">94.93</text>
<text x="10" y="142" class="label">ea.com</text>
<rect x="180" y="126" width="270.04" height="22" fill="#4c78a8" rx="3"/>
<text x="458.04" y="142" class="value">100.17</text>
<text x="10" y="174" class="label">ubi.com</text>
<rect x="180" y="158" width="270.95" height="22" fill="#4c78a8" rx="3"/>
<text x="458.95" y="174" class="value">100.51</text>
<text x="10" y="206" class="label">ubisoft.com</text>
<rect x="180" y="190" width="271.49" height="22" fill="#4c78a8" rx="3"/>
<text x="459.49" y="206" class="value">100.71</text>
<text x="10" y="238" class="label">battle.net</text>
<rect x="180" y="222" width="284.14" height="22" fill="#4c78a8" rx="3"/>
<text x="472.14" y="238" class="value">105.40</text>
<text x="10" y="270" class="label">blizzard.com</text>
<rect x="180" y="254" width="287.21" height="22" fill="#4c78a8" rx="3"/>
<text x="475.21" y="270" class="value">106.54</text>
<text x="10" y="302" class="label">cdn.akamai.steamstatic.com</text>
<rect x="180" y="286" width="397.98" height="22" fill="#4c78a8" rx="3"/>
<text x="585.98" y="302" class="value">147.63</text>
<text x="10" y="334" class="label">origin.com</text>
<rect x="180" y="318" width="412.29" height="22" fill="#4c78a8" rx="3"/>
<text x="600.29" y="334" class="value">152.94</text>
<text x="10" y="366" class="label">unrealengine.com</text>
<rect x="180" y="350" width="448.96" height="22" fill="#4c78a8" rx="3"/>
<text x="636.96" y="366" class="value">166.54</text>
<text x="10" y="398" class="label">community.akamai.steamstatic.com</text>
<rect x="180" y="382" width="454.7" height="22" fill="#4c78a8" rx="3"/>
<text x="642.7" y="398" class="value">168.67</text>
<text x="10" y="430" class="label">epicgames.com</text>
<rect x="180" y="414" width="479.88" height="22" fill="#4c78a8" rx="3"/>
<text x="667.88" y="430" class="value">178.01</text>
<text x="10" y="462" class="label">fortnite.com</text>
<rect x="180" y="446" width="522.88" height="22" fill="#4c78a8" rx="3"/>
<text x="710.88" y="462" class="value">193.96</text>
<text x="10" y="494" class="label">store.akamai.steamstatic.com</text>
<rect x="180" y="478" width="580.0" height="22" fill="#4c78a8" rx="3"/>
<text x="768.0" y="494" class="value">215.15</text>
<line x1="180" y1="30" x2="180" y2="520" stroke="#ccc"/>
<line x1="180" y1="520" x2="760" y2="520" stroke="#ccc"/>
</svg>