<svg xmlns="http://www.w3.org/2000/svg" width="800" height="540">
<style> .label{font-family:DejaVu Sans,Verdana,Geneva,sans-serif;font-size:12px;fill:#333} .value{font-family:DejaVu Sans,Verdana,Geneva,sans-serif;font-size:12px;fill:#555} </style>
<text x="10" y="20" class="label">延迟柱状图（越低越好，Top 15），单位 ms</text>
<text x="10" y="46" class="label">ea.com</text>
<rect x="180" y="30" width="121.79" height="22" fill="#4c78a8" rx="3"/>
<text x="309.79" y="46" class="value">52.00</text>
<text x="10" y="78" class="label">rockstargames.com</text>
<rect x="180" y="62" width="137.18" height="22" fill="#4c78a8" rx="3"/>
<text x="325.18" y="78" class="value">58.57</text>
<text x="10" y="110" class="label">ubisoft.com</text>
<rect x="180" y="94" width="236.54" height="22" fill="#4c78a8" rx="3"/>
<text x="424.53999999999996" y="110" class="value">100.99</text>
<text x="10" y="142" class="label">eaassets-a.akamaihd.net</text>
<rect x="180" y="126" width="244.92" height="22" fill="#4c78a8" rx="3"/>
<text x="432.91999999999996" y="142" class="value">104.57</text>
<text x="10" y="174" class="label">community.akamai.steamstatic.com</text>
<rect x="180" y="158" width="272.73" height="22" fill="#4c78a8" rx="3"/>
<text x="460.73" y="174" class="value">116.44</text>
<text x="10" y="206" class="label">cdn.akamai.steamstatic.com</text>
<rect x="180" y="190" width="290.9" height="22" fill="#4c78a8" rx="3"/>
<text x="478.9" y="206" class="value">124.20</text>
<text x="10" y="238" class="label">origin.com</text>
<rect x="180" y="222" width="320.34" height="22" fill="#4c78a8" rx="3"/>
<text x="508.34" y="238" class="value">136.77</text>
<text x="10" y="270" class="label">cdn.cloudflare.steamstatic.com</text>
<rect x="180" y="254" width="338.92" height="22" fill="#4c78a8" rx="3"/>
<text x="526.9200000000001" y="270" class="value">144.70</text>
<text x="10" y="302" class="label">steamcdn-a.akamaihd.net</text>
<rect x="180" y="286" width="416.77" height="22" fill="#4c78a8" rx="3"/>
<text x="604.77" y="302" class="value">177.94</text>
<text x="10" y="334" class="label">easyanticheat.net</text>
<rect x="180" y="318" width="460.2" height="22" fill="#4c78a8" rx="3"/>
<text x="648.2" y="334" class="value">196.48</text>
<text x="10" y="366" class="label">store.akamai.steamstatic.com</text>
<rect x="180" y="350" width="462.73" height="22" fill="#4c78a8" rx="3"/>
<text x="650.73" y="366" class="value">197.56</text>
<text x="10" y="398" class="label">gog.com</text>
<rect x="180" y="382" width="522.08" height="22" fill="#4c78a8" rx="3"/>
<text x="710.08" y="398" class="value">222.90</text>
<text x="10" y="430" class="label">www.steamcommunity.com</text>
<rect x="180" y="414" width="538.59" height="22" fill="#4c78a8" rx="3"/>
<text x="726.59" y="430" class="value">229.95</text>
<text x="10" y="462" class="label">steam-chat.com</text>
<rect x="180" y="446" width="569.74" height="22" fill="#4c78a8" rx="3"/>
<text x="757.74" y="462" class="value">243.25</text>
<text x="10" y="494" class="label">steamcommunity.com</text>
<rect x="180" y="478" width="580.0" height="22" fill="#4c78a8" rx="3"/>
<text x="768.0" y="494" class="value">247.63</text>
<line x1="180" y1="30" x2="180" y2="520" stroke="#ccc"/>
<line x1="180" y1="520" x2="760" y2="520" stroke="#ccc"/>
</svg>