<svg xmlns="http://www.w3.org/2000/svg" width="800" height="540">
<style> .label{font-family:DejaVu Sans,Verdana,Geneva,sans-serif;font-size:12px;fill:#333} .value{font-family:DejaVu Sans,Verdana,Geneva,sans-serif;font-size:12px;fill:#555} </style>
<text x="10" y="20" class="label">延迟柱状图（越低越好，Top 15），单位 ms</text>
<text x="10" y="46" class="label">rockstargames.com</text>
<rect x="180" y="30" width="172.97" height="22" fill="#4c78a8" rx="3"/>
<text x="360.97" y="46" class="value">64.84</text>
<text x="10" y="78" class="label">unrealengine.com</text>
<rect x="180" y="62" width="225.02" height="22" fill="#4c78a8" rx="3"/>
<text x="413.02" y="78" class="value">84.35</text>
<text x="10" y="110" class="label">ubi.com</text>
<rect x="180" y="94" width="226.51" height="22" fill="#4c78a8" rx="3"/>
<text x="414.51" y="110" class="value">84.91</text>
<text x="10" y="142" class="label">eaassets-a.akamaihd.net</text>
<rect x="180" y="126" width="228.96" height="22" fill="#4c78a8" rx="3"/>
<text x="416.96000000000004" y="142" class="value">85.83</text>
<text x="10" y="174" class="label">socialclub.rockstargames.com</text>
<rect x="180" y="158" width="243.88" height="22" fill="#4c78a8" rx="3"/>
<text x="431.88" y="174" class="value">91.42</text>
<text x="10" y="206" class="label">fortnite.com</text>
<rect x="180" y="190" width="267.67" height="22" fill="#4c78a8" rx="3"/>
<text x="455.67" y="206" class="value">100.34</text>
<text x="10" y="238" class="label">ea.com</text>
<rect x="180" y="222" width="296.99" height="22" fill="#4c78a8" rx="3"/>
<text x="484.99" y="238" class="value">111.33</text>
<text x="10" y="270" class="label">battle.net</text>
<rect x="180" y="254" width="349.57" height="22" fill="#4c78a8" rx="3"/>
<text x="537.5699999999999" y="270" class="value">131.04</text>
<text x="10" y="302" class="label">cdn.akamai.steamstatic.com</text>
<rect x="180" y="286" width="377.79" height="22" fill="#4c78a8" rx="3"/>
<text x="565.79" y="302" class="value">141.62</text>
<text x="10" y="334" class="label">ubisoft.com</text>
<rect x="180" y="318" width="403.38" height="22" fill="#4c78a8" rx="3"/>
<text x="591.38" y="334" class="value">151.21</text>
<text x="10" y="366" class="label">epicgames.com</text>
<rect x="180" y="350" width="418.93" height="22" fill="#4c78a8" rx="3"/>
<text x="606.9300000000001" y="366" class="value">157.04</text>
<text x="10" y="398" class="label">steamcdn-a.akamaihd.net</text>
<rect x="180" y="382" width="463.93" height="22" fill="#4c78a8" rx="3"/>
<text x="651.9300000000001" y="398" class="value">173.91</text>
<text x="10" y="430" class="label">gog.com</text>
<rect x="180" y="414" width="519.44" height="22" fill="#4c78a8" rx="3"/>
<text x="707.44" y="430" class="value">194.72</text>
<text x="10" y="462" class="label">cdn.cloudflare.steamstatic.com</text>
<rect x="180" y="446" width="576.29" height="22" fill="#4c78a8" rx="3"/>
<text x="764.29" y="462" class="value">216.03</text>
<text x="10" y="494" class="label">store.akamai.steamstatic.com</text>
<rect x="180" y="478" width="580.0" height="22" fill="#4c78a8" rx="3"/>
<text x="768.0" y="494" class="value">217.42</text>
<line x1="180" y1="30" x2="180" y2="520" stroke="#ccc"/>
<line x1="180" y1="520" x2="760" y2="520" stroke="#ccc"/>
</svg>