<svg xmlns="http://www.w3.org/2000/svg" width="800" height="540">
<style> .label{font-family:DejaVu Sans,Verdana,Geneva,sans-serif;font-size:12px;fill:#333} .value{font-family:DejaVu Sans,Verdana,Geneva,sans-serif;font-size:12px;fill:#555} </style>
<text x="10" y="20" class="label">延迟柱状图（越低越好，Top 15），单位 ms</text>
<text x="10" y="46" class="label">rockstargames.com</text>
<rect x="180" y="30" width="306.72" height="22" fill="#4c78a8" rx="3"/>
<text x="494.72" y="46" class="value">116.64</text>
<text x="10" y="78" class="label">easyanticheat.net</text>
<rect x="180" y="62" width="324.4" height="22" fill="#4c78a8" rx="3"/>
<text x="512.4" y="78" class="value">123.36</text>
<text x="10" y="110" class="label">steamcdn-a.akamaihd.net</text>
<rect x="180" y="94" width="353.24" height="22" fill="#4c78a8" rx="3"/>
<text x="541.24" y="110" class="value">134.33</text>
<text x="10" y="142" class="label">api.steampowered.com</text>
<rect x="180" y="126" width="380.12" height="22" fill="#4c78a8" rx="3"/>
<text x="568.12" y="142" class="value">144.55</text>
<text x="10" y="174" class="label">eaassets-a.akamaihd.net</text>
<rect x="180" y="158" width="480.1" height="22" fill="#4c78a8" rx="3"/>
<text x="668.1" y="174" class="value">182.57</text>
<text x="10" y="206" class="label">ubi.com</text>
<rect x="180" y="190" width="481.02" height="22" fill="#4c78a8" rx="3"/>
<text x="669.02" y="206" class="value">182.92</text>
<text x="10" y="238" class="label">battle.net</text>
<rect x="180" y="222" width="489.12" height="22" fill="#4c78a8" rx="3"/>
<text x="677.12" y="238" class="value">186.00</text>
<text x="10" y="270" class="label">ubisoft.com</text>
<rect x="180" y="254" width="495.96" height="22" fill="#4c78a8" rx="3"/>
<text x="683.96" y="270" class="value">188.60</text>
<text x="10" y="302" class="label">blizzard.com</text>
<rect x="180" y="286" width="497.4" height="22" fill="#4c78a8" rx="3"/>
<text x="685.4" y="302" class="value">189.15</text>
<text x="10" y="334" class="label">community.akamai.steamstatic.com</text>
<rect x="180" y="318" width="502.45" height="22" fill="#4c78a8" rx="3"/>
<text x="690.45" y="334" class="value">191.07</text>
<text x="10" y="366" class="label">socialclub.rockstargames.com</text>
<rect x="180" y="350" width="511.73" height="22" fill="#4c78a8" rx="3"/>
<text x="699.73" y="366" class="value">194.60</text>
<text x="10" y="398" class="label">origin.com</text>
<rect x="180" y="382" width="527.62" height="22" fill="#4c78a8" rx="3"/>
<text x="715.62" y="398" class="value">200.64</text>
<text x="10" y="430" class="label">fortnite.com</text>
<rect x="180" y="414" width="554.39" height="22" fill="#4c78a8" rx="3"/>
<text x="742.39" y="430" class="value">210.82</text>
<text x="10" y="462" class="label">ea.com</text>
<rect x="180" y="446" width="579.37" height="22" fill="#4c78a8" rx="3"/>
<text x="767.37" y="462" class="value">220.32</text>
<text x="10" y="494" class="label">epicgames.com</text>
<rect x="180" y="478" width="580.0" height="22" fill="#4c78a8" rx="3"/>
<text x="768.0" y="494" class="value">220.56</text>
<line x1="180" y1="30" x2="180" y2="520" stroke="#ccc"/>
<line x1="180" y1="520" x2="760" y2="520" stroke="#ccc"/>
</svg>