<svg xmlns="http://www.w3.org/2000/svg" width="800" height="540">
<style> .label{font-family:DejaVu Sans,Verdana,Geneva,sans-serif;font-size:12px;fill:#333} .value{font-family:DejaVu Sans,Verdana,Geneva,sans-serif;font-size:12px;fill:#555} </style>
<text x="10" y="20" class="label">延迟柱状图（越低越好，Top 15），单位 ms</text>
<text x="10" y="46" class="label">eaassets-a.akamaihd.net</text>
<rect x="180" y="30" width="249.18" height="22" fill="#4c78a8" rx="3"/>
<text x="437.18" y="46" class="value">84.95</text>
<text x="10" y="78" class="label">ea.com</text>
<rect x="180" y="62" width="299.37" height="22" fill="#4c78a8" rx="3"/>
<text x="487.37" y="78" class="value">102.06</text>
<text x="10" y="110" class="label">rockstargames.com</text>
<rect x="180" y="94" width="376.81" height="22" fill="#4c78a8" rx="3"/>
<text x="564.81" y="110" class="value">128.46</text>
<text x="10" y="142" class="label">easyanticheat.net</text>
<rect x="180" y="126" width="427.7" height="22" fill="#4c78a8" rx="3"/>
<text x="615.7" y="142" class="value">145.81</text>
<text x="10" y="174" class="label">battle.net</text>
<rect x="180" y="158" width="458.18" height="22" fill="#4c78a8" rx="3"/>
<text x="646.1800000000001" y="174" class="value">156.20</text>
<text x="10" y="206" class="label">ubi.com</text>
<rect x="180" y="190" width="460.17" height="22" fill="#4c78a8" rx="3"/>
<text x="648.1700000000001" y="206" class="value">156.88</text>
<text x="10" y="238" class="label">blizzard.com</text>
<rect x="180" y="222" width="497.87" height="22" fill="#4c78a8" rx="3"/>
<text x="685.87" y="238" class="value">169.73</text>
<text x="10" y="270" class="label">launcher-public-service-prod06.ol.epicgames.com</text>
<rect x="180" y="254" width="538.17" height="22" fill="#4c78a8" rx="3"/>
<text x="726.17" y="270" class="value">183.47</text>
<text x="10" y="302" class="label">cdn.cloudflare.steamstatic.com</text>
<rect x="180" y="286" width="545.33" height="22" fill="#4c78a8" rx="3"/>
<text x="733.33" y="302" class="value">185.91</text>
<text x="10" y="334" class="label">steamcdn-a.akamaihd.net</text>
<rect x="180" y="318" width="545.89" height="22" fill="#4c78a8" rx="3"/>
<text x="733.89" y="334" class="value">186.10</text>
<text x="10" y="366" class="label">community.akamai.steamstatic.com</text>
<rect x="180" y="350" width="555.42" height="22" fill="#4c78a8" rx="3"/>
<text x="743.42" y="366" class="value">189.35</text>
<text x="10" y="398" class="label">ubisoft.com</text>
<rect x="180" y="382" width="561.37" height="22" fill="#4c78a8" rx="3"/>
<text x="749.37" y="398" class="value">191.38</text>
<text x="10" y="430" class="label">unrealengine.com</text>
<rect x="180" y="414" width="562.05" height="22" fill="#4c78a8" rx="3"/>
<text x="750.05" y="430" class="value">191.61</text>
<text x="10" y="462" class="label">store.akamai.steamstatic.com</text>
<rect x="180" y="446" width="565.27" height="22" fill="#4c78a8" rx="3"/>
<text x="753.27" y="462" class="value">192.71</text>
<text x="10" y="494" class="label">static3.cdn.ubi.com</text>
<rect x="180" y="478" width="580.0" height="22" fill="#4c78a8" rx="3"/>
<text x="768.0" y="494" class="value">197.73</text>
<line x1="180" y1="30" x2="180" y2="520" stroke="#ccc"/>
<line x1="180" y1="520" x2="760" y2="520" stroke="#ccc"/>
</svg>