<svg xmlns="http://www.w3.org/2000/svg" width="800" height="540">
<style> .label{font-family:DejaVu Sans,Verdana,Geneva,sans-serif;font-size:12px;fill:#333} .value{font-family:DejaVu Sans,Verdana,Geneva,sans-serif;font-size:12px;fill:#555} </style>
<text x="10" y="20" class="label">延迟柱状图（越低越好，Top 15），单位 ms</text>
<text x="10" y="46" class="label">socialclub.rockstargames.com</text>
<rect x="180" y="30" width="185.37" height="22" fill="#4c78a8" rx="3"/>
<text x="373.37" y="46" class="value">75.69</text>
<text x="10" y="78" class="label">rockstargames.com</text>
<rect x="180" y="62" width="214.75" height="22" fill="#4c78a8" rx="3"/>
<text x="402.75" y="78" class="value">87.69</text>
<text x="10" y="110" class="label">eaassets-a.akamaihd.net</text>
<rect x="180" y="94" width="222.86" height="22" fill="#4c78a8" rx="3"/>
<text x="410.86" y="110" class="value">91.00</text>
<text x="10" y="142" class="label">blizzard.com</text>
<rect x="180" y="126" width="278.28" height="22" fill="#4c78a8" rx="3"/>
<text x="466.28" y="142" class="value">113.63</text>
<text x="10" y="174" class="label">battle.net</text>
<rect x="180" y="158" width="279.65" height="22" fill="#4c78a8" rx="3"/>
<text x="467.65" y="174" class="value">114.19</text>
<text x="10" y="206" class="label">ubi.com</text>
<rect x="180" y="190" width="293.61" height="22" fill="#4c78a8" rx="3"/>
<text x="481.61" y="206" class="value">119.89</text>
<text x="10" y="238" class="label">unrealengine.com</text>
<rect x="180" y="222" width="336.05" height="22" fill="#4c78a8" rx="3"/>
<text x="524.05" y="238" class="value">137.22</text>
<text x="10" y="270" class="label">ea.com</text>
<rect x="180" y="254" width="348.42" height="22" fill="#4c78a8" rx="3"/>
<text x="536.4200000000001" y="270" class="value">142.27</text>
<text x="10" y="302" class="label">origin.com</text>
<rect x="180" y="286" width="365.1" height="22" fill="#4c78a8" rx="3"/>
<text x="553.1" y="302" class="value">149.08</text>
<text x="10" y="334" class="label">steamcdn-a.akamaihd.net</text>
<rect x="180" y="318" width="419.76" height="22" fill="#4c78a8" rx="3"/>
<text x="607.76" y="334" class="value">171.40</text>
<text x="10" y="366" class="label">community.akamai.steamstatic.com</text>
<rect x="180" y="350" width="470.16" height="22" fill="#4c78a8" rx="3"/>
<text x="658.1600000000001" y="366" class="value">191.98</text>
<text x="10" y="398" class="label">ubisoft.com</text>
<rect x="180" y="382" width="478.17" height="22" fill="#4c78a8" rx="3"/>
<text x="666.1700000000001" y="398" class="value">195.25</text>
<text x="10" y="430" class="label">www.steamcommunity.com</text>
<rect x="180" y="414" width="495.44" height="22" fill="#4c78a8" rx="3"/>
<text x="683.44" y="430" class="value">202.30</text>
<text x="10" y="462" class="label">epicgames.com</text>
<rect x="180" y="446" width="562.12" height="22" fill="#4c78a8" rx="3"/>
<text x="750.12" y="462" class="value">229.53</text>
<text x="10" y="494" class="label">store.akamai.steamstatic.com</text>
<rect x="180" y="478" width="580.0" height="22" fill="#4c78a8" rx="3"/>
<text x="768.0" y="494" class="value">236.83</text>
<line x1="180" y1="30" x2="180" y2="520" stroke="#ccc"/>
<line x1="180" y1="520" x2="760" y2="520" stroke="#ccc"/>
</svg>