<svg xmlns="http://www.w3.org/2000/svg" width="800" height="540">
<style> .label{font-family:DejaVu Sans,Verdana,Geneva,sans-serif;font-size:12px;fill:#333} .value{font-family:DejaVu Sans,Verdana,Geneva,sans-serif;font-size:12px;fill:#555} </style>
<text x="10" y="20" class="label">延迟柱状图（越低越好，Top 15），单位 ms</text>
<text x="10" y="46" class="label">rockstargames.com</text>
<rect x="180" y="30" width="86.75" height="22" fill="#4c78a8" rx="3"/>
<text x="274.75" y="46" class="value">42.78</text>
<text x="10" y="78" class="label">eaassets-a.akamaihd.net</text>
<rect x="180" y="62" width="88.15" height="22" fill="#4c78a8" rx="3"/>
<text x="276.15" y="78" class="value">43.47</text>
<text x="10" y="110" class="label">ea.com</text>
<rect x="180" y="94" width="127.99" height="22" fill="#4c78a8" rx="3"/>
<text x="315.99" y="110" class="value">63.12</text>
<text x="10" y="142" class="label">store.akamai.steamstatic.com</text>
<rect x="180" y="126" width="295.55" height="22" fill="#4c78a8" rx="3"/>
<text x="483.55" y="142" class="value">145.75</text>
<text x="10" y="174" class="label">ubisoft.com</text>
<rect x="180" y="158" width="326.96" height="22" fill="#4c78a8" rx="3"/>
<text x="514.96" y="174" class="value">161.24</text>
<text x="10" y="206" class="label">steamcdn-a.akamaihd.net</text>
<rect x="180" y="190" width="336.51" height="22" fill="#4c78a8" rx="3"/>
<text x="524.51" y="206" class="value">165.95</text>
<text x="10" y="238" class="label">cdn.cloudflare.steamstatic.com</text>
<rect x="180" y="222" width="411.51" height="22" fill="#4c78a8" rx="3"/>
<text x="599.51" y="238" class="value">202.94</text>
<text x="10" y="270" class="label">origin.com</text>
<rect x="180" y="254" width="413.01" height="22" fill="#4c78a8" rx="3"/>
<text x="601.01" y="270" class="value">203.68</text>
<text x="10" y="302" class="label">cdn.akamai.steamstatic.com</text>
<rect x="180" y="286" width="418.35" height="22" fill="#4c78a8" rx="3"/>
<text x="606.35" y="302" class="value">206.31</text>
<text x="10" y="334" class="label">community.akamai.steamstatic.com</text>
<rect x="180" y="318" width="436.23" height="22" fill="#4c78a8" rx="3"/>
<text x="624.23" y="334" class="value">215.13</text>
<text x="10" y="366" class="label">easyanticheat.net</text>
<rect x="180" y="350" width="464.66" height="22" fill="#4c78a8" rx="3"/>
<text x="652.6600000000001" y="366" class="value">229.15</text>
<text x="10" y="398" class="label">steam-chat.com</text>
<rect x="180" y="382" width="533.26" height="22" fill="#4c78a8" rx="3"/>
<text x="721.26" y="398" class="value">262.98</text>
<text x="10" y="430" class="label">www.steamcommunity.com</text>
<rect x="180" y="414" width="569.58" height="22" fill="#4c78a8" rx="3"/>
<text x="757.58" y="430" class="value">280.89</text>
<text x="10" y="462" class="label">api.steampowered.com</text>
<rect x="180" y="446" width="571.02" height="22" fill="#4c78a8" rx="3"/>
<text x="759.02" y="462" class="value">281.60</text>
<text x="10" y="494" class="label">battle.net</text>
<rect x="180" y="478" width="580.0" height="22" fill="#4c78a8" rx="3"/>
<text x="768.0" y="494" class="value">286.03</text>
<line x1="180" y1="30" x2="180" y2="520" stroke="#ccc"/>
<line x1="180" y1="520" x2="760" y2="520" stroke="#ccc"/>
</svg>