<svg xmlns="http://www.w3.org/2000/svg" width="800" height="540">
<style> .label{font-family:DejaVu Sans,Verdana,Geneva,sans-serif;font-size:12px;fill:#333} .value{font-family:DejaVu Sans,Verdana,Geneva,sans-serif;font-size:12px;fill:#555} </style>
<text x="10" y="20" class="label">延迟柱状图（越低越好，Top 15），单位 ms</text>
<text x="10" y="46" class="label">rockstargames.com</text>
<rect x="180" y="30" width="320.44" height="22" fill="#4c78a8" rx="3"/>
<text x="508.44" y="46" class="value">130.91</text>
<text x="10" y="78" class="label">easyanticheat.net</text>
<rect x="180" y="62" width="348.1" height="22" fill="#4c78a8" rx="3"/>
<text x="536.1" y="78" class="value">142.21</text>
<text x="10" y="110" class="label">ubi.com</text>
<rect x="180" y="94" width="401.83" height="22" fill="#4c78a8" rx="3"/>
<text x="589.8299999999999" y="110" class="value">164.16</text>
<text x="10" y="142" class="label">blizzard.com</text>
<rect x="180" y="126" width="412.23" height="22" fill="#4c78a8" rx="3"/>
<text x="600.23" y="142" class="value">168.41</text>
<text x="10" y="174" class="label">battle.net</text>
<rect x="180" y="158" width="416.9" height="22" fill="#4c78a8" rx="3"/>
<text x="604.9" y="174" class="value">170.32</text>
<text x="10" y="206" class="label">community.akamai.steamstatic.com</text>
<rect x="180" y="190" width="432.94" height="22" fill="#4c78a8" rx="3"/>
<text x="620.94" y="206" class="value">176.87</text>
<text x="10" y="238" class="label">ea.com</text>
<rect x="180" y="222" width="468.5" height="22" fill="#4c78a8" rx="3"/>
<text x="656.5" y="238" class="value">191.40</text>
<text x="10" y="270" class="label">cdn.cloudflare.steamstatic.com</text>
<rect x="180" y="254" width="469.58" height="22" fill="#4c78a8" rx="3"/>
<text x="657.5799999999999" y="270" class="value">191.84</text>
<text x="10" y="302" class="label">cdn.akamai.steamstatic.com</text>
<rect x="180" y="286" width="505.61" height="22" fill="#4c78a8" rx="3"/>
<text x="693.61" y="302" class="value">206.56</text>
<text x="10" y="334" class="label">socialclub.rockstargames.com</text>
<rect x="180" y="318" width="514.91" height="22" fill="#4c78a8" rx="3"/>
<text x="702.91" y="334" class="value">210.36</text>
<text x="10" y="366" class="label">eaassets-a.akamaihd.net</text>
<rect x="180" y="350" width="515.67" height="22" fill="#4c78a8" rx="3"/>
<text x="703.67" y="366" class="value">210.67</text>
<text x="10" y="398" class="label">api.steampowered.com</text>
<rect x="180" y="382" width="544.85" height="22" fill="#4c78a8" rx="3"/>
<text x="732.85" y="398" class="value">222.59</text>
<text x="10" y="430" class="label">ubisoft.com</text>
<rect x="180" y="414" width="561.98" height="22" fill="#4c78a8" rx="3"/>
<text x="749.98" y="430" class="value">229.59</text>
<text x="10" y="462" class="label">gog.com</text>
<rect x="180" y="446" width="578.26" height="22" fill="#4c78a8" rx="3"/>
<text x="766.26" y="462" class="value">236.24</text>
<text x="10" y="494" class="label">static3.cdn.ubi.com</text>
<rect x="180" y="478" width="580.0" height="22" fill="#4c78a8" rx="3"/>
<text x="768.0" y="494" class="value">236.95</text>
<line x1="180" y1="30" x2="180" y2="520" stroke="#ccc"/>
<line x1="180" y1="520" x2="760" y2="520" stroke="#ccc"/>
</svg>