<svg xmlns="http://www.w3.org/2000/svg" width="800" height="540">
<style> .label{font-family:DejaVu Sans,Verdana,Geneva,sans-serif;font-size:12px;fill:#333} .value{font-family:DejaVu Sans,Verdana,Geneva,sans-serif;font-size:12px;fill:#555} </style>
<text x="10" y="20" class="label">延迟柱状图（越低越好，Top 15），单位 ms</text>
<text x="10" y="46" class="label">rockstargames.com</text>
<rect x="180" y="30" width="146.36" height="22" fill="#4c78a8" rx="3"/>
<text x="334.36" y="46" class="value">68.49</text>
<text x="10" y="78" class="label">eaassets-a.akamaihd.net</text>
<rect x="180" y="62" width="177.24" height="22" fill="#4c78a8" rx="3"/>
<text x="365.24" y="78" class="value">82.94</text>
<text x="10" y="110" class="label">steamcdn-a.akamaihd.net</text>
<rect x="180" y="94" width="197.34" height="22" fill="#4c78a8" rx="3"/>
<text x="385.34000000000003" y="110" class="value">92.35</text>
<text x="10" y="142" class="label">ubisoft.com</text>
<rect x="180" y="126" width="226.0" height="22" fill="#4c78a8" rx="3"/>
<text x="414.0" y="142" class="value">105.76</text>
<text x="10" y="174" class="label">community.akamai.steamstatic.com</text>
<rect x="180" y="158" width="238.56" height="22" fill="#4c78a8" rx="3"/>
<text x="426.56" y="174" class="value">111.64</text>
<text x="10" y="206" class="label">cdn.akamai.steamstatic.com</text>
<rect x="180" y="190" width="292.22" height="22" fill="#4c78a8" rx="3"/>
<text x="480.22" y="206" class="value">136.75</text>
<text x="10" y="238" class="label">store.akamai.steamstatic.com</text>
<rect x="180" y="222" width="309.83" height="22" fill="#4c78a8" rx="3"/>
<text x="497.83" y="238" class="value">144.99</text>
<text x="10" y="270" class="label">origin.com</text>
<rect x="180" y="254" width="337.99" height="22" fill="#4c78a8" rx="3"/>
<text x="525.99" y="270" class="value">158.17</text>
<text x="10" y="302" class="label">ea.com</text>
<rect x="180" y="286" width="355.6" height="22" fill="#4c78a8" rx="3"/>
<text x="543.6" y="302" class="value">166.41</text>
<text x="10" y="334" class="label">static3.cdn.ubi.com</text>
<rect x="180" y="318" width="383.3" height="22" fill="#4c78a8" rx="3"/>
<text x="571.3" y="334" class="value">179.37</text>
<text x="10" y="366" class="label">easyanticheat.net</text>
<rect x="180" y="350" width="450.29" height="22" fill="#4c78a8" rx="3"/>
<text x="638.29" y="366" class="value">210.72</text>
<text x="10" y="398" class="label">steam-chat.com</text>
<rect x="180" y="382" width="459.67" height="22" fill="#4c78a8" rx="3"/>
<text x="647.6700000000001" y="398" class="value">215.11</text>
<text x="10" y="430" class="label">api.steampowered.com</text>
<rect x="180" y="414" width="546.9" height="22" fill="#4c78a8" rx="3"/>
<text x="734.9" y="430" class="value">255.93</text>
<text x="10" y="462" class="label">steamcommunity.com</text>
<rect x="180" y="446" width="573.31" height="22" fill="#4c78a8" rx="3"/>
<text x="761.31" y="462" class="value">268.29</text>
<text x="10" y="494" class="label">gog.com</text>
<rect x="180" y="478" width="580.0" height="22" fill="#4c78a8" rx="3"/>
<text x="768.0" y="494" class="value">271.42</text>
<line x1="180" y1="30" x2="180" y2="520" stroke="#ccc"/>
<line x1="180" y1="520" x2="760" y2="520" stroke="#ccc"/>
</svg>