<svg xmlns="http://www.w3.org/2000/svg" width="800" height="540">
<style> .label{font-family:DejaVu Sans,Verdana,Geneva,sans-serif;font-size:12px;fill:#333} .value{font-family:DejaVu Sans,Verdana,Geneva,sans-serif;font-size:12px;fill:#555} </style>
<text x="10" y="20" class="label">延迟柱状图（越低越好，Top 15），单位 ms</text>
<text x="10" y="46" class="label">eaassets-a.akamaihd.net</text>
<rect x="180" y="30" width="165.24" height="22" fill="#4c78a8" rx="3"/>
<text x="353.24" y="46" class="value">64.75</text>
<text x="10" y="78" class="label">rockstargames.com</text>
<rect x="180" y="62" width="252.72" height="22" fill="#4c78a8" rx="3"/>
<text x="440.72" y="78" class="value">99.03</text>
<text x="10" y="110" class="label">origin.com</text>
<rect x="180" y="94" width="335.86" height="22" fill="#4c78a8" rx="3"/>
<text x="523.86" y="110" class="value">131.61</text>
<text x="10" y="142" class="label">socialclub.rockstargames.com</text>
<rect x="180" y="126" width="354.23" height="22" fill="#4c78a8" rx="3"/>
<text x="542.23" y="142" class="value">138.81</text>
<text x="10" y="174" class="label">blizzard.com</text>
<rect x="180" y="158" width="373.55" height="22" fill="#4c78a8" rx="3"/>
<text x="561.55" y="174" class="value">146.38</text>
<text x="10" y="206" class="label">battle.net</text>
<rect x="180" y="190" width="374.01" height="22" fill="#4c78a8" rx="3"/>
<text x="562.01" y="206" class="value">146.56</text>
<text x="10" y="238" class="label">static3.cdn.ubi.com</text>
<rect x="180" y="222" width="379.78" height="22" fill="#4c78a8" rx="3"/>
<text x="567.78" y="238" class="value">148.82</text>
<text x="10" y="270" class="label">ubisoft.com</text>
<rect x="180" y="254" width="393.91" height="22" fill="#4c78a8" rx="3"/>
<text x="581.9100000000001" y="270" class="value">154.36</text>
<text x="10" y="302" class="label">ubi.com</text>
<rect x="180" y="286" width="397.87" height="22" fill="#4c78a8" rx="3"/>
<text x="585.87" y="302" class="value">155.91</text>
<text x="10" y="334" class="label">store.akamai.steamstatic.com</text>
<rect x="180" y="318" width="449.67" height="22" fill="#4c78a8" rx="3"/>
<text x="637.6700000000001" y="334" class="value">176.21</text>
<text x="10" y="366" class="label">steamcdn-a.akamaihd.net</text>
<rect x="180" y="350" width="454.39" height="22" fill="#4c78a8" rx="3"/>
<text x="642.39" y="366" class="value">178.06</text>
<text x="10" y="398" class="label">cdn.cloudflare.steamstatic.com</text>
<rect x="180" y="382" width="471.14" height="22" fill="#4c78a8" rx="3"/>
<text x="659.14" y="398" class="value">184.62</text>
<text x="10" y="430" class="label">community.akamai.steamstatic.com</text>
<rect x="180" y="414" width="516.89" height="22" fill="#4c78a8" rx="3"/>
<text x="704.89" y="430" class="value">202.55</text>
<text x="10" y="462" class="label">launcher-public-service-prod06.ol.epicgames.com</text>
<rect x="180" y="446" width="566.25" height="22" fill="#4c78a8" rx="3"/>
<text x="754.25" y="462" class="value">221.89</text>
<text x="10" y="494" class="label">www.steamcommunity.com</text>
<rect x="180" y="478" width="580.0" height="22" fill="#4c78a8" rx="3"/>
<text x="768.0" y="494" class="value">227.28</text>
<line x1="180" y1="30" x2="180" y2="520" stroke="#ccc"/>
<line x1="180" y1="520" x2="760" y2="520" stroke="#ccc"/>
</svg>