<svg xmlns="http://www.w3.org/2000/svg" width="800" height="540">
<style> .label{font-family:DejaVu Sans,Verdana,Geneva,sans-serif;font-size:12px;fill:#333} .value{font-family:DejaVu Sans,Verdana,Geneva,sans-serif;font-size:12px;fill:#555} </style>
<text x="10" y="20" class="label">延迟柱状图（越低越好，Top 15），单位 ms</text>
<text x="10" y="46" class="label">rockstargames.com</text>
<rect x="180" y="30" width="138.79" height="22" fill="#4c78a8" rx="3"/>
<text x="326.78999999999996" y="46" class="value">52.49</text>
<text x="10" y="78" class="label">eaassets-a.akamaihd.net</text>
<rect x="180" y="62" width="206.92" height="22" fill="#4c78a8" rx="3"/>
<text x="394.91999999999996" y="78" class="value">78.26</text>
<text x="10" y="110" class="label">socialclub.rockstargames.com</text>
<rect x="180" y="94" width="221.94" height="22" fill="#4c78a8" rx="3"/>
<text x="409.94" y="110" class="value">83.94</text>
<text x="10" y="142" class="label">blizzard.com</text>
<rect x="180" y="126" width="240.82" height="22" fill="#4c78a8" rx="3"/>
<text x="428.82" y="142" class="value">91.08</text>
<text x="10" y="174" class="label">ea.com</text>
<rect x="180" y="158" width="274.77" height="22" fill="#4c78a8" rx="3"/>
<text x="462.77" y="174" class="value">103.92</text>
<text x="10" y="206" class="label">ubi.com</text>
<rect x="180" y="190" width="297.91" height="22" fill="#4c78a8" rx="3"/>
<text x="485.91" y="206" class="value">112.67</text>
<text x="10" y="238" class="label">store.akamai.steamstatic.com</text>
<rect x="180" y="222" width="307.5" height="22" fill="#4c78a8" rx="3"/>
<text x="495.5" y="238" class="value">116.30</text>
<text x="10" y="270" class="label">unrealengine.com</text>
<rect x="180" y="254" width="315.52" height="22" fill="#4c78a8" rx="3"/>
<text x="503.52" y="270" class="value">119.33</text>
<text x="10" y="302" class="label">battle.net</text>
<rect x="180" y="286" width="330.72" height="22" fill="#4c78a8" rx="3"/>
<text x="518.72" y="302" class="value">125.08</text>
<text x="10" y="334" class="label">ubisoft.com</text>
<rect x="180" y="318" width="416.31" height="22" fill="#4c78a8" rx="3"/>
<text x="604.31" y="334" class="value">157.45</text>
<text x="10" y="366" class="label">static3.cdn.ubi.com</text>
<rect x="180" y="350" width="451.05" height="22" fill="#4c78a8" rx="3"/>
<text x="639.05" y="366" class="value">170.59</text>
<text x="10" y="398" class="label">community.akamai.steamstatic.com</text>
<rect x="180" y="382" width="502.29" height="22" fill="#4c78a8" rx="3"/>
<text x="690.29" y="398" class="value">189.97</text>
<text x="10" y="430" class="label">launcher-public-service-prod06.ol.epicgames.com</text>
<rect x="180" y="414" width="549.88" height="22" fill="#4c78a8" rx="3"/>
<text x="737.88" y="430" class="value">207.97</text>
<text x="10" y="462" class="label">origin.com</text>
<rect x="180" y="446" width="573.5" height="22" fill="#4c78a8" rx="3"/>
<text x="761.5" y="462" class="value">216.90</text>
<text x="10" y="494" class="label">api.steampowered.com</text>
<rect x="180" y="478" width="580.0" height="22" fill="#4c78a8" rx="3"/>
<text x="768.0" y="494" class="value">219.36</text>
<line x1="180" y1="30" x2="180" y2="520" stroke="#ccc"/>
<line x1="180" y1="520" x2="760" y2="520" stroke="#ccc"/>
</svg>