<svg xmlns="http://www.w3.org/2000/svg" width="800" height="540">
<style> .label{font-family:DejaVu Sans,Verdana,Geneva,sans-serif;font-size:12px;fill:#333} .value{font-family:DejaVu Sans,Verdana,Geneva,sans-serif;font-size:12px;fill:#555} </style>
<text x="10" y="20" class="label">延迟柱状图（越低越好，Top 15），单位 ms</text>
<text x="10" y="46" class="label">rockstargames.com</text>
<rect x="180" y="30" width="172.69" height="22" fill="#4c78a8" rx="3"/>
<text x="360.69" y="46" class="value">69.34</text>
<text x="10" y="78" class="label">ea.com</text>
<rect x="180" y="62" width="207.45" height="22" fill="#4c78a8" rx="3"/>
<text x="395.45" y="78" class="value">83.30</text>
<text x="10" y="110" class="label">eaassets-a.akamaihd.net</text>
<rect x="180" y="94" width="249.87" height="22" fill="#4c78a8" rx="3"/>
<text x="437.87" y="110" class="value">100.33</text>
<text x="10" y="142" class="label">origin.com</text>
<rect x="180" y="126" width="250.94" height="22" fill="#4c78a8" rx="3"/>
<text x="438.94" y="142" class="value">100.76</text>
<text x="10" y="174" class="label">easyanticheat.net</text>
<rect x="180" y="158" width="334.29" height="22" fill="#4c78a8" rx="3"/>
<text x="522.29" y="174" class="value">134.23</text>
<text x="10" y="206" class="label">blizzard.com</text>
<rect x="180" y="190" width="339.57" height="22" fill="#4c78a8" rx="3"/>
<text x="527.5699999999999" y="206" class="value">136.35</text>
<text x="10" y="238" class="label">socialclub.rockstargames.com</text>
<rect x="180" y="222" width="352.75" height="22" fill="#4c78a8" rx="3"/>
<text x="540.75" y="238" class="value">141.64</text>
<text x="10" y="270" class="label">ubi.com</text>
<rect x="180" y="254" width="364.53" height="22" fill="#4c78a8" rx="3"/>
<text x="552.53" y="270" class="value">146.37</text>
<text x="10" y="302" class="label">battle.net</text>
<rect x="180" y="286" width="392.99" height="22" fill="#4c78a8" rx="3"/>
<text x="580.99" y="302" class="value">157.80</text>
<text x="10" y="334" class="label">ubisoft.com</text>
<rect x="180" y="318" width="466.91" height="22" fill="#4c78a8" rx="3"/>
<text x="654.9100000000001" y="334" class="value">187.48</text>
<text x="10" y="366" class="label">unrealengine.com</text>
<rect x="180" y="350" width="514.73" height="22" fill="#4c78a8" rx="3"/>
<text x="702.73" y="366" class="value">206.68</text>
<text x="10" y="398" class="label">steamcdn-a.akamaihd.net</text>
<rect x="180" y="382" width="538.81" height="22" fill="#4c78a8" rx="3"/>
<text x="726.81" y="398" class="value">216.35</text>
<text x="10" y="430" class="label">store.akamai.steamstatic.com</text>
<rect x="180" y="414" width="552.46" height="22" fill="#4c78a8" rx="3"/>
<text x="740.46" y="430" class="value">221.83</text>
<text x="10" y="462" class="label">launcher-public-service-prod06.ol.epicgames.com</text>
<rect x="180" y="446" width="577.39" height="22" fill="#4c78a8" rx="3"/>
<text x="765.39" y="462" class="value">231.84</text>
<text x="10" y="494" class="label">steam-chat.com</text>
<rect x="180" y="478" width="580.0" height="22" fill="#4c78a8" rx="3"/>
<text x="768.0" y="494" class="value">232.89</text>
<line x1="180" y1="30" x2="180" y2="520" stroke="#ccc"/>
<line x1="180" y1="520" x2="760" y2="520" stroke="#ccc"/>
</svg>