<svg xmlns="http://www.w3.org/2000/svg" width="800" height="540">
<style> .label{font-family:DejaVu Sans,Verdana,Geneva,sans-serif;font-size:12px;fill:#333} .value{font-family:DejaVu Sans,Verdana,Geneva,sans-serif;font-size:12px;fill:#555} </style>
<text x="10" y="20" class="label">延迟柱状图（越低越好，Top 15），单位 ms</text>
<text x="10" y="46" class="label">eaassets-a.akamaihd.net</text>
<rect x="180" y="30" width="278.6" height="22" fill="#4c78a8" rx="3"/>
<text x="466.6" y="46" class="value">99.74</text>
<text x="10" y="78" class="label">community.akamai.steamstatic.com</text>
<rect x="180" y="62" width="334.08" height="22" fill="#4c78a8" rx="3"/>
<text x="522.0799999999999" y="78" class="value">119.60</text>
<text x="10" y="110" class="label">rockstargames.com</text>
<rect x="180" y="94" width="369.75" height="22" fill="#4c78a8" rx="3"/>
<text x="557.75" y="110" class="value">132.37</text>
<text x="10" y="142" class="label">origin.com</text>
<rect x="180" y="126" width="372.65" height="22" fill="#4c78a8" rx="3"/>
<text x="560.65" y="142" class="value">133.41</text>
<text x="10" y="174" class="label">ubi.com</text>
<rect x="180" y="158" width="376.01" height="22" fill="#4c78a8" rx="3"/>
<text x="564.01" y="174" class="value">134.61</text>
<text x="10" y="206" class="label">steamcdn-a.akamaihd.net</text>
<rect x="180" y="190" width="396.51" height="22" fill="#4c78a8" rx="3"/>
<text x="584.51" y="206" class="value">141.95</text>
<text x="10" y="238" class="label">battle.net</text>
<rect x="180" y="222" width="432.54" height="22" fill="#4c78a8" rx="3"/>
<text x="620.54" y="238" class="value">154.85</text>
<text x="10" y="270" class="label">easyanticheat.net</text>
<rect x="180" y="254" width="464.66" height="22" fill="#4c78a8" rx="3"/>
<text x="652.6600000000001" y="270" class="value">166.35</text>
<text x="10" y="302" class="label">cdn.akamai.steamstatic.com</text>
<rect x="180" y="286" width="479.78" height="22" fill="#4c78a8" rx="3"/>
<text x="667.78" y="302" class="value">171.76</text>
<text x="10" y="334" class="label">api.steampowered.com</text>
<rect x="180" y="318" width="502.57" height="22" fill="#4c78a8" rx="3"/>
<text x="690.5699999999999" y="334" class="value">179.92</text>
<text x="10" y="366" class="label">ubisoft.com</text>
<rect x="180" y="350" width="506.06" height="22" fill="#4c78a8" rx="3"/>
<text x="694.06" y="366" class="value">181.17</text>
<text x="10" y="398" class="label">blizzard.com</text>
<rect x="180" y="382" width="517.54" height="22" fill="#4c78a8" rx="3"/>
<text x="705.54" y="398" class="value">185.28</text>
<text x="10" y="430" class="label">socialclub.rockstargames.com</text>
<rect x="180" y="414" width="527.09" height="22" fill="#4c78a8" rx="3"/>
<text x="715.09" y="430" class="value">188.70</text>
<text x="10" y="462" class="label">cdn.cloudflare.steamstatic.com</text>
<rect x="180" y="446" width="536.54" height="22" fill="#4c78a8" rx="3"/>
<text x="724.54" y="462" class="value">192.08</text>
<text x="10" y="494" class="label">fortnite.com</text>
<rect x="180" y="478" width="580.0" height="22" fill="#4c78a8" rx="3"/>
<text x="768.0" y="494" class="value">207.64</text>
<line x1="180" y1="30" x2="180" y2="520" stroke="#ccc"/>
<line x1="180" y1="520" x2="760" y2="520" stroke="#ccc"/>
</svg>