<svg xmlns="http://www.w3.org/2000/svg" width="800" height="540">
<style> .label{font-family:DejaVu Sans,Verdana,Geneva,sans-serif;font-size:12px;fill:#333} .value{font-family:DejaVu Sans,Verdana,Geneva,sans-serif;font-size:12px;fill:#555} </style>
<text x="10" y="20" class="label">延迟柱状图（越低越好，Top 15），单位 ms</text>
<text x="10" y="46" class="label">rockstargames.com</text>
<rect x="180" y="30" width="202.66" height="22" fill="#4c78a8" rx="3"/>
<text x="390.65999999999997" y="46" class="value">56.51</text>
<text x="10" y="78" class="label">socialclub.rockstargames.com</text>
<rect x="180" y="62" width="289.3" height="22" fill="#4c78a8" rx="3"/>
<text x="477.3" y="78" class="value">80.67</text>
<text x="10" y="110" class="label">blizzard.com</text>
<rect x="180" y="94" width="304.11" height="22" fill="#4c78a8" rx="3"/>
<text x="492.11" y="110" class="value">84.80</text>
<text x="10" y="142" class="label">epicgames.com</text>
<rect x="180" y="126" width="327.42" height="22" fill="#4c78a8" rx="3"/>
<text x="515.4200000000001" y="142" class="value">91.30</text>
<text x="10" y="174" class="label">community.akamai.steamstatic.com</text>
<rect x="180" y="158" width="357.33" height="22" fill="#4c78a8" rx="3"/>
<text x="545.3299999999999" y="174" class="value">99.64</text>
<text x="10" y="206" class="label">ubisoft.com</text>
<rect x="180" y="190" width="435.15" height="22" fill="#4c78a8" rx="3"/>
<text x="623.15" y="206" class="value">121.34</text>
<text x="10" y="238" class="label">battle.net</text>
<rect x="180" y="222" width="449.93" height="22" fill="#4c78a8" rx="3"/>
<text x="637.9300000000001" y="238" class="value">125.46</text>
<text x="10" y="270" class="label">origin.com</text>
<rect x="180" y="254" width="458.96" height="22" fill="#4c78a8" rx="3"/>
<text x="646.96" y="270" class="value">127.98</text>
<text x="10" y="302" class="label">eaassets-a.akamaihd.net</text>
<rect x="180" y="286" width="484.64" height="22" fill="#4c78a8" rx="3"/>
<text x="672.64" y="302" class="value">135.14</text>
<text x="10" y="334" class="label">ubi.com</text>
<rect x="180" y="318" width="498.74" height="22" fill="#4c78a8" rx="3"/>
<text x="686.74" y="334" class="value">139.07</text>
<text x="10" y="366" class="label">unrealengine.com</text>
<rect x="180" y="350" width="509.57" height="22" fill="#4c78a8" rx="3"/>
<text x="697.5699999999999" y="366" class="value">142.09</text>
<text x="10" y="398" class="label">ea.com</text>
<rect x="180" y="382" width="556.3" height="22" fill="#4c78a8" rx="3"/>
<text x="744.3" y="398" class="value">155.12</text>
<text x="10" y="430" class="label">fortnite.com</text>
<rect x="180" y="414" width="570.21" height="22" fill="#4c78a8" rx="3"/>
<text x="758.21" y="430" class="value">159.00</text>
<text x="10" y="462" class="label">static3.cdn.ubi.com</text>
<rect x="180" y="446" width="574.44" height="22" fill="#4c78a8" rx="3"/>
<text x="762.44" y="462" class="value">160.18</text>
<text x="10" y="494" class="label">cdn.akamai.steamstatic.com</text>
<rect x="180" y="478" width="580.0" height="22" fill="#4c78a8" rx="3"/>
<text x="768.0" y="494" class="value">161.73</text>
<line x1="180" y1="30" x2="180" y2="520" stroke="#ccc"/>
<line x1="180" y1="520" x2="760" y2="520" stroke="#ccc"/>
</svg>