<svg xmlns="http://www.w3.org/2000/svg" width="800" height="540">
<style> .label{font-family:DejaVu Sans,Verdana,Geneva,sans-serif;font-size:12px;fill:#333} .value{font-family:DejaVu Sans,Verdana,Geneva,sans-serif;font-size:12px;fill:#555} </style>
<text x="10" y="20" class="label">延迟柱状图（越低越好，Top 15），单位 ms</text>
<text x="10" y="46" class="label">rockstargames.com</text>
<rect x="180" y="30" width="196.18" height="22" fill="#4c78a8" rx="3"/>
<text x="384.18" y="46" class="value">56.58</text>
<text x="10" y="78" class="label">eaassets-a.akamaihd.net</text>
<rect x="180" y="62" width="196.77" height="22" fill="#4c78a8" rx="3"/>
<text x="384.77" y="78" class="value">56.75</text>
<text x="10" y="110" class="label">cdn.cloudflare.steamstatic.com</text>
<rect x="180" y="94" width="231.09" height="22" fill="#4c78a8" rx="3"/>
<text x="419.09000000000003" y="110" class="value">66.65</text>
<text x="10" y="142" class="label">unrealengine.com</text>
<rect x="180" y="126" width="231.4" height="22" fill="#4c78a8" rx="3"/>
<text x="419.4" y="142" class="value">66.74</text>
<text x="10" y="174" class="label">socialclub.rockstargames.com</text>
<rect x="180" y="158" width="287.12" height="22" fill="#4c78a8" rx="3"/>
<text x="475.12" y="174" class="value">82.81</text>
<text x="10" y="206" class="label">cdn.akamai.steamstatic.com</text>
<rect x="180" y="190" width="296.69" height="22" fill="#4c78a8" rx="3"/>
<text x="484.69" y="206" class="value">85.57</text>
<text x="10" y="238" class="label">blizzard.com</text>
<rect x="180" y="222" width="326.86" height="22" fill="#4c78a8" rx="3"/>
<text x="514.86" y="238" class="value">94.27</text>
<text x="10" y="270" class="label">ubi.com</text>
<rect x="180" y="254" width="334.69" height="22" fill="#4c78a8" rx="3"/>
<text x="522.69" y="270" class="value">96.53</text>
<text x="10" y="302" class="label">steamcdn-a.akamaihd.net</text>
<rect x="180" y="286" width="348.32" height="22" fill="#4c78a8" rx="3"/>
<text x="536.3199999999999" y="302" class="value">100.46</text>
<text x="10" y="334" class="label">ubisoft.com</text>
<rect x="180" y="318" width="351.79" height="22" fill="#4c78a8" rx="3"/>
<text x="539.79" y="334" class="value">101.46</text>
<text x="10" y="366" class="label">battle.net</text>
<rect x="180" y="350" width="362.19" height="22" fill="#4c78a8" rx="3"/>
<text x="550.19" y="366" class="value">104.46</text>
<text x="10" y="398" class="label">static3.cdn.ubi.com</text>
<rect x="180" y="382" width="447.72" height="22" fill="#4c78a8" rx="3"/>
<text x="635.72" y="398" class="value">129.13</text>
<text x="10" y="430" class="label">fortnite.com</text>
<rect x="180" y="414" width="462.18" height="22" fill="#4c78a8" rx="3"/>
<text x="650.1800000000001" y="430" class="value">133.30</text>
<text x="10" y="462" class="label">ea.com</text>
<rect x="180" y="446" width="462.5" height="22" fill="#4c78a8" rx="3"/>
<text x="650.5" y="462" class="value">133.39</text>
<text x="10" y="494" class="label">community.akamai.steamstatic.com</text>
<rect x="180" y="478" width="580.0" height="22" fill="#4c78a8" rx="3"/>
<text x="768.0" y="494" class="value">167.28</text>
<line x1="180" y1="30" x2="180" y2="520" stroke="#ccc"/>
<line x1="180" y1="520" x2="760" y2="520" stroke="#ccc"/>
</svg>