<svg xmlns="http://www.w3.org/2000/svg" width="800" height="540">
<style> .label{font-family:DejaVu Sans,Verdana,Geneva,sans-serif;font-size:12px;fill:#333} .value{font-family:DejaVu Sans,Verdana,Geneva,sans-serif;font-size:12px;fill:#555} </style>
<text x="10" y="20" class="label">延迟柱状图（越低越好，Top 15），单位 ms</text>
<text x="10" y="46" class="label">rockstargames.com</text>
<rect x="180" y="30" width="64.15" height="22" fill="#4c78a8" rx="3"/>
<text x="252.15" y="46" class="value">30.61</text>
<text x="10" y="78" class="label">ea.com</text>
<rect x="180" y="62" width="96.05" height="22" fill="#4c78a8" rx="3"/>
<text x="284.05" y="78" class="value">45.83</text>
<text x="10" y="110" class="label">ubisoft.com</text>
<rect x="180" y="94" width="266.13" height="22" fill="#4c78a8" rx="3"/>
<text x="454.13" y="110" class="value">126.98</text>
<text x="10" y="142" class="label">steamcdn-a.akamaihd.net</text>
<rect x="180" y="126" width="327.72" height="22" fill="#4c78a8" rx="3"/>
<text x="515.72" y="142" class="value">156.37</text>
<text x="10" y="174" class="label">store.akamai.steamstatic.com</text>
<rect x="180" y="158" width="350.09" height="22" fill="#4c78a8" rx="3"/>
<text x="538.0899999999999" y="174" class="value">167.04</text>
<text x="10" y="206" class="label">origin.com</text>
<rect x="180" y="190" width="406.13" height="22" fill="#4c78a8" rx="3"/>
<text x="594.13" y="206" class="value">193.78</text>
<text x="10" y="238" class="label">cdn.akamai.steamstatic.com</text>
<rect x="180" y="222" width="408.12" height="22" fill="#4c78a8" rx="3"/>
<text x="596.12" y="238" class="value">194.73</text>
<text x="10" y="270" class="label">easyanticheat.net</text>
<rect x="180" y="254" width="409.63" height="22" fill="#4c78a8" rx="3"/>
<text x="597.63" y="270" class="value">195.45</text>
<text x="10" y="302" class="label">steam-chat.com</text>
<rect x="180" y="286" width="409.76" height="22" fill="#4c78a8" rx="3"/>
<text x="597.76" y="302" class="value">195.51</text>
<text x="10" y="334" class="label">community.akamai.steamstatic.com</text>
<rect x="180" y="318" width="413.49" height="22" fill="#4c78a8" rx="3"/>
<text x="601.49" y="334" class="value">197.29</text>
<text x="10" y="366" class="label">cdn.cloudflare.steamstatic.com</text>
<rect x="180" y="350" width="429.18" height="22" fill="#4c78a8" rx="3"/>
<text x="617.1800000000001" y="366" class="value">204.78</text>
<text x="10" y="398" class="label">launcher-public-service-prod06.ol.epicgames.com</text>
<rect x="180" y="382" width="473.62" height="22" fill="#4c78a8" rx="3"/>
<text x="661.62" y="398" class="value">225.98</text>
<text x="10" y="430" class="label">eaassets-a.akamaihd.net</text>
<rect x="180" y="414" width="518.01" height="22" fill="#4c78a8" rx="3"/>
<text x="706.01" y="430" class="value">247.16</text>
<text x="10" y="462" class="label">api.steampowered.com</text>
<rect x="180" y="446" width="542.72" height="22" fill="#4c78a8" rx="3"/>
<text x="730.72" y="462" class="value">258.95</text>
<text x="10" y="494" class="label">www.steamcommunity.com</text>
<rect x="180" y="478" width="580.0" height="22" fill="#4c78a8" rx="3"/>
<text x="768.0" y="494" class="value">276.74</text>
<line x1="180" y1="30" x2="180" y2="520" stroke="#ccc"/>
<line x1="180" y1="520" x2="760" y2="520" stroke="#ccc"/>
</svg>