<svg xmlns="http://www.w3.org/2000/svg" width="800" height="540">
<style> .label{font-family:DejaVu Sans,Verdana,Geneva,sans-serif;font-size:12px;fill:#333} .value{font-family:DejaVu Sans,Verdana,Geneva,sans-serif;font-size:12px;fill:#555} </style>
<text x="10" y="20" class="label">延迟柱状图（越低越好，Top 15），单位 ms</text>
<text x="10" y="46" class="label">eaassets-a.akamaihd.net</text>
<rect x="180" y="30" width="153.33" height="22" fill="#4c78a8" rx="3"/>
<text x="341.33000000000004" y="46" class="value">51.28</text>
<text x="10" y="78" class="label">rockstargames.com</text>
<rect x="180" y="62" width="201.68" height="22" fill="#4c78a8" rx="3"/>
<text x="389.68" y="78" class="value">67.45</text>
<text x="10" y="110" class="label">community.akamai.steamstatic.com</text>
<rect x="180" y="94" width="280.76" height="22" fill="#4c78a8" rx="3"/>
<text x="468.76" y="110" class="value">93.90</text>
<text x="10" y="142" class="label">ea.com</text>
<rect x="180" y="126" width="297.3" height="22" fill="#4c78a8" rx="3"/>
<text x="485.3" y="142" class="value">99.43</text>
<text x="10" y="174" class="label">steamcdn-a.akamaihd.net</text>
<rect x="180" y="158" width="304.35" height="22" fill="#4c78a8" rx="3"/>
<text x="492.35" y="174" class="value">101.79</text>
<text x="10" y="206" class="label">ubi.com</text>
<rect x="180" y="190" width="350.94" height="22" fill="#4c78a8" rx="3"/>
<text x="538.94" y="206" class="value">117.37</text>
<text x="10" y="238" class="label">store.akamai.steamstatic.com</text>
<rect x="180" y="222" width="356.53" height="22" fill="#4c78a8" rx="3"/>
<text x="544.53" y="238" class="value">119.24</text>
<text x="10" y="270" class="label">cdn.akamai.steamstatic.com</text>
<rect x="180" y="254" width="357.99" height="22" fill="#4c78a8" rx="3"/>
<text x="545.99" y="270" class="value">119.73</text>
<text x="10" y="302" class="label">socialclub.rockstargames.com</text>
<rect x="180" y="286" width="377.22" height="22" fill="#4c78a8" rx="3"/>
<text x="565.22" y="302" class="value">126.16</text>
<text x="10" y="334" class="label">blizzard.com</text>
<rect x="180" y="318" width="412.62" height="22" fill="#4c78a8" rx="3"/>
<text x="600.62" y="334" class="value">138.00</text>
<text x="10" y="366" class="label">battle.net</text>
<rect x="180" y="350" width="445.45" height="22" fill="#4c78a8" rx="3"/>
<text x="633.45" y="366" class="value">148.98</text>
<text x="10" y="398" class="label">ubisoft.com</text>
<rect x="180" y="382" width="500.68" height="22" fill="#4c78a8" rx="3"/>
<text x="688.6800000000001" y="398" class="value">167.45</text>
<text x="10" y="430" class="label">epicgames.com</text>
<rect x="180" y="414" width="521.22" height="22" fill="#4c78a8" rx="3"/>
<text x="709.22" y="430" class="value">174.32</text>
<text x="10" y="462" class="label">cdn.cloudflare.steamstatic.com</text>
<rect x="180" y="446" width="550.34" height="22" fill="#4c78a8" rx="3"/>
<text x="738.34" y="462" class="value">184.06</text>
<text x="10" y="494" class="label">api.steampowered.com</text>
<rect x="180" y="478" width="580.0" height="22" fill="#4c78a8" rx="3"/>
<text x="768.0" y="494" class="value">193.98</text>
<line x1="180" y1="30" x2="180" y2="520" stroke="#ccc"/>
<line x1="180" y1="520" x2="760" y2="520" stroke="#ccc"/>
</svg>