<svg xmlns="http://www.w3.org/2000/svg" width="800" height="540">
<style> .label{font-family:DejaVu Sans,Verdana,Geneva,sans-serif;font-size:12px;fill:#333} .value{font-family:DejaVu Sans,Verdana,Geneva,sans-serif;font-size:12px;fill:#555} </style>
<text x="10" y="20" class="label">延迟柱状图（越低越好，Top 15），单位 ms</text>
<text x="10" y="46" class="label">rockstargames.com</text>
<rect x="180" y="30" width="124.1" height="22" fill="#4c78a8" rx="3"/>
<text x="312.1" y="46" class="value">47.97</text>
<text x="10" y="78" class="label">socialclub.rockstargames.com</text>
<rect x="180" y="62" width="181.3" height="22" fill="#4c78a8" rx="3"/>
<text x="369.3" y="78" class="value">70.08</text>
<text x="10" y="110" class="label">ubi.com</text>
<rect x="180" y="94" width="293.39" height="22" fill="#4c78a8" rx="3"/>
<text x="481.39" y="110" class="value">113.41</text>
<text x="10" y="142" class="label">blizzard.com</text>
<rect x="180" y="126" width="296.75" height="22" fill="#4c78a8" rx="3"/>
<text x="484.75" y="142" class="value">114.71</text>
<text x="10" y="174" class="label">ubisoft.com</text>
<rect x="180" y="158" width="302.55" height="22" fill="#4c78a8" rx="3"/>
<text x="490.55" y="174" class="value">116.95</text>
<text x="10" y="206" class="label">battle.net</text>
<rect x="180" y="190" width="330.77" height="22" fill="#4c78a8" rx="3"/>
<text x="518.77" y="206" class="value">127.86</text>
<text x="10" y="238" class="label">store.akamai.steamstatic.com</text>
<rect x="180" y="222" width="333.05" height="22" fill="#4c78a8" rx="3"/>
<text x="521.05" y="238" class="value">128.74</text>
<text x="10" y="270" class="label">epicgames.com</text>
<rect x="180" y="254" width="402.56" height="22" fill="#4c78a8" rx="3"/>
<text x="590.56" y="270" class="value">155.61</text>
<text x="10" y="302" class="label">unrealengine.com</text>
<rect x="180" y="286" width="408.17" height="22" fill="#4c78a8" rx="3"/>
<text x="596.1700000000001" y="302" class="value">157.78</text>
<text x="10" y="334" class="label">ea.com</text>
<rect x="180" y="318" width="421.21" height="22" fill="#4c78a8" rx="3"/>
<text x="609.21" y="334" class="value">162.82</text>
<text x="10" y="366" class="label">static3.cdn.ubi.com</text>
<rect x="180" y="350" width="427.65" height="22" fill="#4c78a8" rx="3"/>
<text x="615.65" y="366" class="value">165.31</text>
<text x="10" y="398" class="label">community.akamai.steamstatic.com</text>
<rect x="180" y="382" width="518.25" height="22" fill="#4c78a8" rx="3"/>
<text x="706.25" y="398" class="value">200.33</text>
<text x="10" y="430" class="label">fortnite.com</text>
<rect x="180" y="414" width="539.15" height="22" fill="#4c78a8" rx="3"/>
<text x="727.15" y="430" class="value">208.41</text>
<text x="10" y="462" class="label">www.steamcommunity.com</text>
<rect x="180" y="446" width="579.4" height="22" fill="#4c78a8" rx="3"/>
<text x="767.4" y="462" class="value">223.97</text>
<text x="10" y="494" class="label">steamcdn-a.akamaihd.net</text>
<rect x="180" y="478" width="580.0" height="22" fill="#4c78a8" rx="3"/>
<text x="768.0" y="494" class="value">224.20</text>
<line x1="180" y1="30" x2="180" y2="520" stroke="#ccc"/>
<line x1="180" y1="520" x2="760" y2="520" stroke="#ccc"/>
</svg>