<svg xmlns="http://www.w3.org/2000/svg" width="800" height="540">
<style> .label{font-family:DejaVu Sans,Verdana,Geneva,sans-serif;font-size:12px;fill:#333} .value{font-family:DejaVu Sans,Verdana,Geneva,sans-serif;font-size:12px;fill:#555} </style>
<text x="10" y="20" class="label">延迟柱状图（越低越好，Top 15），单位 ms</text>
<text x="10" y="46" class="label">rockstargames.com</text>
<rect x="180" y="30" width="172.26" height="22" fill="#4c78a8" rx="3"/>
<text x="360.26" y="46" class="value">61.84</text>
<text x="10" y="78" class="label">battle.net</text>
<rect x="180" y="62" width="203.84" height="22" fill="#4c78a8" rx="3"/>
<text x="391.84000000000003" y="78" class="value">73.18</text>
<text x="10" y="110" class="label">socialclub.rockstargames.com</text>
<rect x="180" y="94" width="234.46" height="22" fill="#4c78a8" rx="3"/>
<text x="422.46000000000004" y="110" class="value">84.17</text>
<text x="10" y="142" class="label">blizzard.com</text>
<rect x="180" y="126" width="241.03" height="22" fill="#4c78a8" rx="3"/>
<text x="429.03" y="142" class="value">86.53</text>
<text x="10" y="174" class="label">ubi.com</text>
<rect x="180" y="158" width="289.25" height="22" fill="#4c78a8" rx="3"/>
<text x="477.25" y="174" class="value">103.84</text>
<text x="10" y="206" class="label">ea.com</text>
<rect x="180" y="190" width="307.35" height="22" fill="#4c78a8" rx="3"/>
<text x="495.35" y="206" class="value">110.34</text>
<text x="10" y="238" class="label">eaassets-a.akamaihd.net</text>
<rect x="180" y="222" width="330.08" height="22" fill="#4c78a8" rx="3"/>
<text x="518.0799999999999" y="238" class="value">118.50</text>
<text x="10" y="270" class="label">fortnite.com</text>
<rect x="180" y="254" width="349.61" height="22" fill="#4c78a8" rx="3"/>
<text x="537.61" y="270" class="value">125.51</text>
<text x="10" y="302" class="label">unrealengine.com</text>
<rect x="180" y="286" width="374.23" height="22" fill="#4c78a8" rx="3"/>
<text x="562.23" y="302" class="value">134.35</text>
<text x="10" y="334" class="label">origin.com</text>
<rect x="180" y="318" width="381.25" height="22" fill="#4c78a8" rx="3"/>
<text x="569.25" y="334" class="value">136.87</text>
<text x="10" y="366" class="label">cdn.akamai.steamstatic.com</text>
<rect x="180" y="350" width="444.62" height="22" fill="#4c78a8" rx="3"/>
<text x="632.62" y="366" class="value">159.62</text>
<text x="10" y="398" class="label">epicgames.com</text>
<rect x="180" y="382" width="470.53" height="22" fill="#4c78a8" rx="3"/>
<text x="658.53" y="398" class="value">168.92</text>
<text x="10" y="430" class="label">store.akamai.steamstatic.com</text>
<rect x="180" y="414" width="496.66" height="22" fill="#4c78a8" rx="3"/>
<text x="684.6600000000001" y="430" class="value">178.30</text>
<text x="10" y="462" class="label">ubisoft.com</text>
<rect x="180" y="446" width="508.72" height="22" fill="#4c78a8" rx="3"/>
<text x="696.72" y="462" class="value">182.63</text>
<text x="10" y="494" class="label">www.steamcommunity.com</text>
<rect x="180" y="478" width="580.0" height="22" fill="#4c78a8" rx="3"/>
<text x="768.0" y="494" class="value">208.22</text>
<line x1="180" y1="30" x2="180" y2="520" stroke="#ccc"/>
<line x1="180" y1="520" x2="760" y2="520" stroke="#ccc"/>
</svg>