<svg xmlns="http://www.w3.org/2000/svg" width="800" height="540">
<style> .label{font-family:DejaVu Sans,Verdana,Geneva,sans-serif;font-size:12px;fill:#333} .value{font-family:DejaVu Sans,Verdana,Geneva,sans-serif;font-size:12px;fill:#555} </style>
<text x="10" y="20" class="label">延迟柱状图（越低越好，Top 15），单位 ms</text>
<text x="10" y="46" class="label">fortnite.com</text>
<rect x="180" y="30" width="189.85" height="22" fill="#4c78a8" rx="3"/>
<text x="377.85" y="46" class="value">69.67</text>
<text x="10" y="78" class="label">ubi.com</text>
<rect x="180" y="62" width="215.05" height="22" fill="#4c78a8" rx="3"/>
<text x="403.05" y="78" class="value">78.92</text>
<text x="10" y="110" class="label">rockstargames.com</text>
<rect x="180" y="94" width="216.85" height="22" fill="#4c78a8" rx="3"/>
<text x="404.85" y="110" class="value">79.58</text>
<text x="10" y="142" class="label">eaassets-a.akamaihd.net</text>
<rect x="180" y="126" width="240.07" height="22" fill="#4c78a8" rx="3"/>
<text x="428.07" y="142" class="value">88.10</text>
<text x="10" y="174" class="label">socialclub.rockstargames.com</text>
<rect x="180" y="158" width="270.58" height="22" fill="#4c78a8" rx="3"/>
<text x="458.58" y="174" class="value">99.30</text>
<text x="10" y="206" class="label">ea.com</text>
<rect x="180" y="190" width="291.27" height="22" fill="#4c78a8" rx="3"/>
<text x="479.27" y="206" class="value">106.89</text>
<text x="10" y="238" class="label">battle.net</text>
<rect x="180" y="222" width="294.89" height="22" fill="#4c78a8" rx="3"/>
<text x="482.89" y="238" class="value">108.22</text>
<text x="10" y="270" class="label">blizzard.com</text>
<rect x="180" y="254" width="309.03" height="22" fill="#4c78a8" rx="3"/>
<text x="497.03" y="270" class="value">113.41</text>
<text x="10" y="302" class="label">origin.com</text>
<rect x="180" y="286" width="498.5" height="22" fill="#4c78a8" rx="3"/>
<text x="686.5" y="302" class="value">182.94</text>
<text x="10" y="334" class="label">ubisoft.com</text>
<rect x="180" y="318" width="502.69" height="22" fill="#4c78a8" rx="3"/>
<text x="690.69" y="334" class="value">184.48</text>
<text x="10" y="366" class="label">cdn.cloudflare.steamstatic.com</text>
<rect x="180" y="350" width="525.37" height="22" fill="#4c78a8" rx="3"/>
<text x="713.37" y="366" class="value">192.80</text>
<text x="10" y="398" class="label">static3.cdn.ubi.com</text>
<rect x="180" y="382" width="529.23" height="22" fill="#4c78a8" rx="3"/>
<text x="717.23" y="398" class="value">194.22</text>
<text x="10" y="430" class="label">unrealengine.com</text>
<rect x="180" y="414" width="556.16" height="22" fill="#4c78a8" rx="3"/>
<text x="744.16" y="430" class="value">204.10</text>
<text x="10" y="462" class="label">cdn.akamai.steamstatic.com</text>
<rect x="180" y="446" width="566.38" height="22" fill="#4c78a8" rx="3"/>
<text x="754.38" y="462" class="value">207.85</text>
<text x="10" y="494" class="label">store.akamai.steamstatic.com</text>
<rect x="180" y="478" width="580.0" height="22" fill="#4c78a8" rx="3"/>
<text x="768.0" y="494" class="value">212.85</text>
<line x1="180" y1="30" x2="180" y2="520" stroke="#ccc"/>
<line x1="180" y1="520" x2="760" y2="520" stroke="#ccc"/>
</svg>