<svg xmlns="http://www.w3.org/2000/svg" width="800" height="540">
<style> .label{font-family:DejaVu Sans,Verdana,Geneva,sans-serif;font-size:12px;fill:#333} .value{font-family:DejaVu Sans,Verdana,Geneva,sans-serif;font-size:12px;fill:#555} </style>
<text x="10" y="20" class="label">延迟柱状图（越低越好，Top 15），单位 ms</text>
<text x="10" y="46" class="label">rockstargames.com</text>
<rect x="180" y="30" width="176.83" height="22" fill="#4c78a8" rx="3"/>
<text x="364.83000000000004" y="46" class="value">62.24</text>
<text x="10" y="78" class="label">eaassets-a.akamaihd.net</text>
<rect x="180" y="62" width="177.76" height="22" fill="#4c78a8" rx="3"/>
<text x="365.76" y="78" class="value">62.57</text>
<text x="10" y="110" class="label">socialclub.rockstargames.com</text>
<rect x="180" y="94" width="237.48" height="22" fill="#4c78a8" rx="3"/>
<text x="425.48" y="110" class="value">83.59</text>
<text x="10" y="142" class="label">blizzard.com</text>
<rect x="180" y="126" width="269.1" height="22" fill="#4c78a8" rx="3"/>
<text x="457.1" y="142" class="value">94.72</text>
<text x="10" y="174" class="label">battle.net</text>
<rect x="180" y="158" width="295.92" height="22" fill="#4c78a8" rx="3"/>
<text x="483.92" y="174" class="value">104.16</text>
<text x="10" y="206" class="label">ea.com</text>
<rect x="180" y="190" width="302.8" height="22" fill="#4c78a8" rx="3"/>
<text x="490.8" y="206" class="value">106.58</text>
<text x="10" y="238" class="label">fortnite.com</text>
<rect x="180" y="222" width="310.07" height="22" fill="#4c78a8" rx="3"/>
<text x="498.07" y="238" class="value">109.14</text>
<text x="10" y="270" class="label">ubi.com</text>
<rect x="180" y="254" width="332.32" height="22" fill="#4c78a8" rx="3"/>
<text x="520.3199999999999" y="270" class="value">116.97</text>
<text x="10" y="302" class="label">ubisoft.com</text>
<rect x="180" y="286" width="384.31" height="22" fill="#4c78a8" rx="3"/>
<text x="572.31" y="302" class="value">135.27</text>
<text x="10" y="334" class="label">cdn.cloudflare.steamstatic.com</text>
<rect x="180" y="318" width="449.34" height="22" fill="#4c78a8" rx="3"/>
<text x="637.3399999999999" y="334" class="value">158.16</text>
<text x="10" y="366" class="label">origin.com</text>
<rect x="180" y="350" width="485.51" height="22" fill="#4c78a8" rx="3"/>
<text x="673.51" y="366" class="value">170.89</text>
<text x="10" y="398" class="label">epicgames.com</text>
<rect x="180" y="382" width="536.76" height="22" fill="#4c78a8" rx="3"/>
<text x="724.76" y="398" class="value">188.93</text>
<text x="10" y="430" class="label">store.akamai.steamstatic.com</text>
<rect x="180" y="414" width="559.54" height="22" fill="#4c78a8" rx="3"/>
<text x="747.54" y="430" class="value">196.95</text>
<text x="10" y="462" class="label">static3.cdn.ubi.com</text>
<rect x="180" y="446" width="563.18" height="22" fill="#4c78a8" rx="3"/>
<text x="751.18" y="462" class="value">198.23</text>
<text x="10" y="494" class="label">steamcdn-a.akamaihd.net</text>
<rect x="180" y="478" width="580.0" height="22" fill="#4c78a8" rx="3"/>
<text x="768.0" y="494" class="value">204.15</text>
<line x1="180" y1="30" x2="180" y2="520" stroke="#ccc"/>
<line x1="180" y1="520" x2="760" y2="520" stroke="#ccc"/>
</svg>