<svg xmlns="http://www.w3.org/2000/svg" width="800" height="540">
<style> .label{font-family:DejaVu Sans,Verdana,Geneva,sans-serif;font-size:12px;fill:#333} .value{font-family:DejaVu Sans,Verdana,Geneva,sans-serif;font-size:12px;fill:#555} </style>
<text x="10" y="20" class="label">延迟柱状图（越低越好，Top 15），单位 ms</text>
<text x="10" y="46" class="label">eaassets-a.akamaihd.net</text>
<rect x="180" y="30" width="147.99" height="22" fill="#4c78a8" rx="3"/>
<text x="335.99" y="46" class="value">61.41</text>
<text x="10" y="78" class="label">rockstargames.com</text>
<rect x="180" y="62" width="166.57" height="22" fill="#4c78a8" rx="3"/>
<text x="354.57" y="78" class="value">69.12</text>
<text x="10" y="110" class="label">ea.com</text>
<rect x="180" y="94" width="248.86" height="22" fill="#4c78a8" rx="3"/>
<text x="436.86" y="110" class="value">103.27</text>
<text x="10" y="142" class="label">steamcdn-a.akamaihd.net</text>
<rect x="180" y="126" width="259.83" height="22" fill="#4c78a8" rx="3"/>
<text x="447.83" y="142" class="value">107.82</text>
<text x="10" y="174" class="label">battle.net</text>
<rect x="180" y="158" width="316.68" height="22" fill="#4c78a8" rx="3"/>
<text x="504.68" y="174" class="value">131.41</text>
<text x="10" y="206" class="label">blizzard.com</text>
<rect x="180" y="190" width="329.14" height="22" fill="#4c78a8" rx="3"/>
<text x="517.14" y="206" class="value">136.58</text>
<text x="10" y="238" class="label">socialclub.rockstargames.com</text>
<rect x="180" y="222" width="329.28" height="22" fill="#4c78a8" rx="3"/>
<text x="517.28" y="238" class="value">136.64</text>
<text x="10" y="270" class="label">ubi.com</text>
<rect x="180" y="254" width="331.26" height="22" fill="#4c78a8" rx="3"/>
<text x="519.26" y="270" class="value">137.46</text>
<text x="10" y="302" class="label">ubisoft.com</text>
<rect x="180" y="286" width="354.61" height="22" fill="#4c78a8" rx="3"/>
<text x="542.61" y="302" class="value">147.15</text>
<text x="10" y="334" class="label">static3.cdn.ubi.com</text>
<rect x="180" y="318" width="405.6" height="22" fill="#4c78a8" rx="3"/>
<text x="593.6" y="334" class="value">168.31</text>
<text x="10" y="366" class="label">origin.com</text>
<rect x="180" y="350" width="407.24" height="22" fill="#4c78a8" rx="3"/>
<text x="595.24" y="366" class="value">168.99</text>
<text x="10" y="398" class="label">cdn.cloudflare.steamstatic.com</text>
<rect x="180" y="382" width="442.64" height="22" fill="#4c78a8" rx="3"/>
<text x="630.64" y="398" class="value">183.68</text>
<text x="10" y="430" class="label">gog.com</text>
<rect x="180" y="414" width="450.25" height="22" fill="#4c78a8" rx="3"/>
<text x="638.25" y="430" class="value">186.84</text>
<text x="10" y="462" class="label">cdn.akamai.steamstatic.com</text>
<rect x="180" y="446" width="483.2" height="22" fill="#4c78a8" rx="3"/>
<text x="671.2" y="462" class="value">200.51</text>
<text x="10" y="494" class="label">api.steampowered.com</text>
<rect x="180" y="478" width="580.0" height="22" fill="#4c78a8" rx="3"/>
<text x="768.0" y="494" class="value">240.68</text>
<line x1="180" y1="30" x2="180" y2="520" stroke="#ccc"/>
<line x1="180" y1="520" x2="760" y2="520" stroke="#ccc"/>
</svg>