<svg xmlns="http://www.w3.org/2000/svg" width="800" height="540">
<style> .label{font-family:DejaVu Sans,Verdana,Geneva,sans-serif;font-size:12px;fill:#333} .value{font-family:DejaVu Sans,Verdana,Geneva,sans-serif;font-size:12px;fill:#555} </style>
<text x="10" y="20" class="label">延迟柱状图（越低越好，Top 15），单位 ms</text>
<text x="10" y="46" class="label">rockstargames.com</text>
<rect x="180" y="30" width="112.04" height="22" fill="#4c78a8" rx="3"/>
<text x="300.04" y="46" class="value">36.31</text>
<text x="10" y="78" class="label">eaassets-a.akamaihd.net</text>
<rect x="180" y="62" width="155.48" height="22" fill="#4c78a8" rx="3"/>
<text x="343.48" y="78" class="value">50.39</text>
<text x="10" y="110" class="label">socialclub.rockstargames.com</text>
<rect x="180" y="94" width="228.09" height="22" fill="#4c78a8" rx="3"/>
<text x="416.09000000000003" y="110" class="value">73.92</text>
<text x="10" y="142" class="label">cdn.cloudflare.steamstatic.com</text>
<rect x="180" y="126" width="256.88" height="22" fill="#4c78a8" rx="3"/>
<text x="444.88" y="142" class="value">83.25</text>
<text x="10" y="174" class="label">battle.net</text>
<rect x="180" y="158" width="265.61" height="22" fill="#4c78a8" rx="3"/>
<text x="453.61" y="174" class="value">86.08</text>
<text x="10" y="206" class="label">ubi.com</text>
<rect x="180" y="190" width="377.43" height="22" fill="#4c78a8" rx="3"/>
<text x="565.4300000000001" y="206" class="value">122.32</text>
<text x="10" y="238" class="label">blizzard.com</text>
<rect x="180" y="222" width="402.12" height="22" fill="#4c78a8" rx="3"/>
<text x="590.12" y="238" class="value">130.32</text>
<text x="10" y="270" class="label">origin.com</text>
<rect x="180" y="254" width="408.84" height="22" fill="#4c78a8" rx="3"/>
<text x="596.8399999999999" y="270" class="value">132.50</text>
<text x="10" y="302" class="label">cdn.akamai.steamstatic.com</text>
<rect x="180" y="286" width="453.86" height="22" fill="#4c78a8" rx="3"/>
<text x="641.86" y="302" class="value">147.09</text>
<text x="10" y="334" class="label">ubisoft.com</text>
<rect x="180" y="318" width="509.34" height="22" fill="#4c78a8" rx="3"/>
<text x="697.3399999999999" y="334" class="value">165.07</text>
<text x="10" y="366" class="label">static3.cdn.ubi.com</text>
<rect x="180" y="350" width="510.67" height="22" fill="#4c78a8" rx="3"/>
<text x="698.6700000000001" y="366" class="value">165.50</text>
<text x="10" y="398" class="label">ea.com</text>
<rect x="180" y="382" width="530.57" height="22" fill="#4c78a8" rx="3"/>
<text x="718.57" y="398" class="value">171.95</text>
<text x="10" y="430" class="label">steamcdn-a.akamaihd.net</text>
<rect x="180" y="414" width="561.42" height="22" fill="#4c78a8" rx="3"/>
<text x="749.42" y="430" class="value">181.95</text>
<text x="10" y="462" class="label">store.akamai.steamstatic.com</text>
<rect x="180" y="446" width="575.06" height="22" fill="#4c78a8" rx="3"/>
<text x="763.06" y="462" class="value">186.37</text>
<text x="10" y="494" class="label">epicgames.com</text>
<rect x="180" y="478" width="580.0" height="22" fill="#4c78a8" rx="3"/>
<text x="768.0" y="494" class="value">187.97</text>
<line x1="180" y1="30" x2="180" y2="520" stroke="#ccc"/>
<line x1="180" y1="520" x2="760" y2="520" stroke="#ccc"/>
</svg>