<svg xmlns="http://www.w3.org/2000/svg" width="800" height="540">
<style> .label{font-family:DejaVu Sans,Verdana,Geneva,sans-serif;font-size:12px;fill:#333} .value{font-family:DejaVu Sans,Verdana,Geneva,sans-serif;font-size:12px;fill:#555} </style>
<text x="10" y="20" class="label">延迟柱状图（越低越好，Top 15），单位 ms</text>
<text x="10" y="46" class="label">eaassets-a.akamaihd.net</text>
<rect x="180" y="30" width="156.96" height="22" fill="#4c78a8" rx="3"/>
<text x="344.96000000000004" y="46" class="value">64.24</text>
<text x="10" y="78" class="label">ea.com</text>
<rect x="180" y="62" width="172.08" height="22" fill="#4c78a8" rx="3"/>
<text x="360.08000000000004" y="78" class="value">70.43</text>
<text x="10" y="110" class="label">rockstargames.com</text>
<rect x="180" y="94" width="178.29" height="22" fill="#4c78a8" rx="3"/>
<text x="366.28999999999996" y="110" class="value">72.97</text>
<text x="10" y="142" class="label">community.akamai.steamstatic.com</text>
<rect x="180" y="126" width="222.0" height="22" fill="#4c78a8" rx="3"/>
<text x="410.0" y="142" class="value">90.86</text>
<text x="10" y="174" class="label">blizzard.com</text>
<rect x="180" y="158" width="308.45" height="22" fill="#4c78a8" rx="3"/>
<text x="496.45" y="174" class="value">126.24</text>
<text x="10" y="206" class="label">socialclub.rockstargames.com</text>
<rect x="180" y="190" width="336.79" height="22" fill="#4c78a8" rx="3"/>
<text x="524.79" y="206" class="value">137.84</text>
<text x="10" y="238" class="label">battle.net</text>
<rect x="180" y="222" width="344.29" height="22" fill="#4c78a8" rx="3"/>
<text x="532.29" y="238" class="value">140.91</text>
<text x="10" y="270" class="label">ubi.com</text>
<rect x="180" y="254" width="349.54" height="22" fill="#4c78a8" rx="3"/>
<text x="537.54" y="270" class="value">143.06</text>
<text x="10" y="302" class="label">static3.cdn.ubi.com</text>
<rect x="180" y="286" width="388.69" height="22" fill="#4c78a8" rx="3"/>
<text x="576.69" y="302" class="value">159.08</text>
<text x="10" y="334" class="label">gog.com</text>
<rect x="180" y="318" width="479.43" height="22" fill="#4c78a8" rx="3"/>
<text x="667.4300000000001" y="334" class="value">196.22</text>
<text x="10" y="366" class="label">store.akamai.steamstatic.com</text>
<rect x="180" y="350" width="480.21" height="22" fill="#4c78a8" rx="3"/>
<text x="668.21" y="366" class="value">196.54</text>
<text x="10" y="398" class="label">easyanticheat.net</text>
<rect x="180" y="382" width="511.34" height="22" fill="#4c78a8" rx="3"/>
<text x="699.3399999999999" y="398" class="value">209.28</text>
<text x="10" y="430" class="label">ubisoft.com</text>
<rect x="180" y="414" width="555.84" height="22" fill="#4c78a8" rx="3"/>
<text x="743.84" y="430" class="value">227.49</text>
<text x="10" y="462" class="label">origin.com</text>
<rect x="180" y="446" width="562.07" height="22" fill="#4c78a8" rx="3"/>
<text x="750.07" y="462" class="value">230.04</text>
<text x="10" y="494" class="label">steamcommunity.com</text>
<rect x="180" y="478" width="580.0" height="22" fill="#4c78a8" rx="3"/>
<text x="768.0" y="494" class="value">237.38</text>
<line x1="180" y1="30" x2="180" y2="520" stroke="#ccc"/>
<line x1="180" y1="520" x2="760" y2="520" stroke="#ccc"/>
</svg>