<svg xmlns="http://www.w3.org/2000/svg" width="800" height="540">
<style> .label{font-family:DejaVu Sans,Verdana,Geneva,sans-serif;font-size:12px;fill:#333} .value{font-family:DejaVu Sans,Verdana,Geneva,sans-serif;font-size:12px;fill:#555} </style>
<text x="10" y="20" class="label">延迟柱状图（越低越好，Top 15），单位 ms</text>
<text x="10" y="46" class="label">rockstargames.com</text>
<rect x="180" y="30" width="139.07" height="22" fill="#4c78a8" rx="3"/>
<text x="327.07" y="46" class="value">69.98</text>
<text x="10" y="78" class="label">store.akamai.steamstatic.com</text>
<rect x="180" y="62" width="202.13" height="22" fill="#4c78a8" rx="3"/>
<text x="390.13" y="78" class="value">101.71</text>
<text x="10" y="110" class="label">ubisoft.com</text>
<rect x="180" y="94" width="209.03" height="22" fill="#4c78a8" rx="3"/>
<text x="397.03" y="110" class="value">105.18</text>
<text x="10" y="142" class="label">cdn.cloudflare.steamstatic.com</text>
<rect x="180" y="126" width="219.9" height="22" fill="#4c78a8" rx="3"/>
<text x="407.9" y="142" class="value">110.65</text>
<text x="10" y="174" class="label">eaassets-a.akamaihd.net</text>
<rect x="180" y="158" width="235.18" height="22" fill="#4c78a8" rx="3"/>
<text x="423.18" y="174" class="value">118.34</text>
<text x="10" y="206" class="label">cdn.akamai.steamstatic.com</text>
<rect x="180" y="190" width="271.53" height="22" fill="#4c78a8" rx="3"/>
<text x="459.53" y="206" class="value">136.63</text>
<text x="10" y="238" class="label">community.akamai.steamstatic.com</text>
<rect x="180" y="222" width="276.06" height="22" fill="#4c78a8" rx="3"/>
<text x="464.06" y="238" class="value">138.91</text>
<text x="10" y="270" class="label">origin.com</text>
<rect x="180" y="254" width="300.36" height="22" fill="#4c78a8" rx="3"/>
<text x="488.36" y="270" class="value">151.14</text>
<text x="10" y="302" class="label">steamcdn-a.akamaihd.net</text>
<rect x="180" y="286" width="316.28" height="22" fill="#4c78a8" rx="3"/>
<text x="504.28" y="302" class="value">159.15</text>
<text x="10" y="334" class="label">easyanticheat.net</text>
<rect x="180" y="318" width="386.3" height="22" fill="#4c78a8" rx="3"/>
<text x="574.3" y="334" class="value">194.38</text>
<text x="10" y="366" class="label">steam-chat.com</text>
<rect x="180" y="350" width="467.2" height="22" fill="#4c78a8" rx="3"/>
<text x="655.2" y="366" class="value">235.09</text>
<text x="10" y="398" class="label">api.steampowered.com</text>
<rect x="180" y="382" width="475.33" height="22" fill="#4c78a8" rx="3"/>
<text x="663.3299999999999" y="398" class="value">239.18</text>
<text x="10" y="430" class="label">ubi.com</text>
<rect x="180" y="414" width="478.31" height="22" fill="#4c78a8" rx="3"/>
<text x="666.31" y="430" class="value">240.68</text>
<text x="10" y="462" class="label">www.steamcommunity.com</text>
<rect x="180" y="446" width="524.41" height="22" fill="#4c78a8" rx="3"/>
<text x="712.41" y="462" class="value">263.88</text>
<text x="10" y="494" class="label">unrealengine.com</text>
<rect x="180" y="478" width="580.0" height="22" fill="#4c78a8" rx="3"/>
<text x="768.0" y="494" class="value">291.85</text>
<line x1="180" y1="30" x2="180" y2="520" stroke="#ccc"/>
<line x1="180" y1="520" x2="760" y2="520" stroke="#ccc"/>
</svg>