<svg xmlns="http://www.w3.org/2000/svg" width="800" height="540">
<style> .label{font-family:DejaVu Sans,Verdana,Geneva,sans-serif;font-size:12px;fill:#333} .value{font-family:DejaVu Sans,Verdana,Geneva,sans-serif;font-size:12px;fill:#555} </style>
<text x="10" y="20" class="label">延迟柱状图（越低越好，Top 15），单位 ms</text>
<text x="10" y="46" class="label">eaassets-a.akamaihd.net</text>
<rect x="180" y="30" width="160.07" height="22" fill="#4c78a8" rx="3"/>
<text x="348.07" y="46" class="value">62.63</text>
<text x="10" y="78" class="label">ubi.com</text>
<rect x="180" y="62" width="178.49" height="22" fill="#4c78a8" rx="3"/>
<text x="366.49" y="78" class="value">69.84</text>
<text x="10" y="110" class="label">rockstargames.com</text>
<rect x="180" y="94" width="199.76" height="22" fill="#4c78a8" rx="3"/>
<text x="387.76" y="110" class="value">78.16</text>
<text x="10" y="142" class="label">ea.com</text>
<rect x="180" y="126" width="204.74" height="22" fill="#4c78a8" rx="3"/>
<text x="392.74" y="142" class="value">80.11</text>
<text x="10" y="174" class="label">cdn.cloudflare.steamstatic.com</text>
<rect x="180" y="158" width="214.53" height="22" fill="#4c78a8" rx="3"/>
<text x="402.53" y="174" class="value">83.94</text>
<text x="10" y="206" class="label">socialclub.rockstargames.com</text>
<rect x="180" y="190" width="229.53" height="22" fill="#4c78a8" rx="3"/>
<text x="417.53" y="206" class="value">89.81</text>
<text x="10" y="238" class="label">battle.net</text>
<rect x="180" y="222" width="231.12" height="22" fill="#4c78a8" rx="3"/>
<text x="419.12" y="238" class="value">90.43</text>
<text x="10" y="270" class="label">blizzard.com</text>
<rect x="180" y="254" width="239.86" height="22" fill="#4c78a8" rx="3"/>
<text x="427.86" y="270" class="value">93.85</text>
<text x="10" y="302" class="label">store.akamai.steamstatic.com</text>
<rect x="180" y="286" width="278.19" height="22" fill="#4c78a8" rx="3"/>
<text x="466.19" y="302" class="value">108.85</text>
<text x="10" y="334" class="label">unrealengine.com</text>
<rect x="180" y="318" width="380.32" height="22" fill="#4c78a8" rx="3"/>
<text x="568.3199999999999" y="334" class="value">148.81</text>
<text x="10" y="366" class="label">static3.cdn.ubi.com</text>
<rect x="180" y="350" width="469.62" height="22" fill="#4c78a8" rx="3"/>
<text x="657.62" y="366" class="value">183.75</text>
<text x="10" y="398" class="label">launcher-public-service-prod06.ol.epicgames.com</text>
<rect x="180" y="382" width="475.39" height="22" fill="#4c78a8" rx="3"/>
<text x="663.39" y="398" class="value">186.01</text>
<text x="10" y="430" class="label">epicgames.com</text>
<rect x="180" y="414" width="544.83" height="22" fill="#4c78a8" rx="3"/>
<text x="732.83" y="430" class="value">213.18</text>
<text x="10" y="462" class="label">fortnite.com</text>
<rect x="180" y="446" width="553.47" height="22" fill="#4c78a8" rx="3"/>
<text x="741.47" y="462" class="value">216.56</text>
<text x="10" y="494" class="label">origin.com</text>
<rect x="180" y="478" width="580.0" height="22" fill="#4c78a8" rx="3"/>
<text x="768.0" y="494" class="value">226.94</text>
<line x1="180" y1="30" x2="180" y2="520" stroke="#ccc"/>
<line x1="180" y1="520" x2="760" y2="520" stroke="#ccc"/>
</svg>