<svg xmlns="http://www.w3.org/2000/svg" width="800" height="540">
<style> .label{font-family:DejaVu Sans,Verdana,Geneva,sans-serif;font-size:12px;fill:#333} .value{font-family:DejaVu Sans,Verdana,Geneva,sans-serif;font-size:12px;fill:#555} </style>
<text x="10" y="20" class="label">延迟柱状图（越低越好，Top 15），单位 ms</text>
<text x="10" y="46" class="label">eaassets-a.akamaihd.net</text>
<rect x="180" y="30" width="152.13" height="22" fill="#4c78a8" rx="3"/>
<text x="340.13" y="46" class="value">52.79</text>
<text x="10" y="78" class="label">store.akamai.steamstatic.com</text>
<rect x="180" y="62" width="195.41" height="22" fill="#4c78a8" rx="3"/>
<text x="383.40999999999997" y="78" class="value">67.81</text>
<text x="10" y="110" class="label">rockstargames.com</text>
<rect x="180" y="94" width="199.44" height="22" fill="#4c78a8" rx="3"/>
<text x="387.44" y="110" class="value">69.21</text>
<text x="10" y="142" class="label">ubisoft.com</text>
<rect x="180" y="126" width="268.2" height="22" fill="#4c78a8" rx="3"/>
<text x="456.2" y="142" class="value">93.07</text>
<text x="10" y="174" class="label">ea.com</text>
<rect x="180" y="158" width="279.64" height="22" fill="#4c78a8" rx="3"/>
<text x="467.64" y="174" class="value">97.04</text>
<text x="10" y="206" class="label">socialclub.rockstargames.com</text>
<rect x="180" y="190" width="369.52" height="22" fill="#4c78a8" rx="3"/>
<text x="557.52" y="206" class="value">128.23</text>
<text x="10" y="238" class="label">blizzard.com</text>
<rect x="180" y="222" width="377.04" height="22" fill="#4c78a8" rx="3"/>
<text x="565.04" y="238" class="value">130.84</text>
<text x="10" y="270" class="label">battle.net</text>
<rect x="180" y="254" width="415.51" height="22" fill="#4c78a8" rx="3"/>
<text x="603.51" y="270" class="value">144.19</text>
<text x="10" y="302" class="label">ubi.com</text>
<rect x="180" y="286" width="437.56" height="22" fill="#4c78a8" rx="3"/>
<text x="625.56" y="302" class="value">151.84</text>
<text x="10" y="334" class="label">origin.com</text>
<rect x="180" y="318" width="470.38" height="22" fill="#4c78a8" rx="3"/>
<text x="658.38" y="334" class="value">163.23</text>
<text x="10" y="366" class="label">easyanticheat.net</text>
<rect x="180" y="350" width="479.23" height="22" fill="#4c78a8" rx="3"/>
<text x="667.23" y="366" class="value">166.30</text>
<text x="10" y="398" class="label">static3.cdn.ubi.com</text>
<rect x="180" y="382" width="540.12" height="22" fill="#4c78a8" rx="3"/>
<text x="728.12" y="398" class="value">187.43</text>
<text x="10" y="430" class="label">steamcdn-a.akamaihd.net</text>
<rect x="180" y="414" width="556.74" height="22" fill="#4c78a8" rx="3"/>
<text x="744.74" y="430" class="value">193.20</text>
<text x="10" y="462" class="label">community.akamai.steamstatic.com</text>
<rect x="180" y="446" width="575.45" height="22" fill="#4c78a8" rx="3"/>
<text x="763.45" y="462" class="value">199.69</text>
<text x="10" y="494" class="label">api.steampowered.com</text>
<rect x="180" y="478" width="580.0" height="22" fill="#4c78a8" rx="3"/>
<text x="768.0" y="494" class="value">201.27</text>
<line x1="180" y1="30" x2="180" y2="520" stroke="#ccc"/>
<line x1="180" y1="520" x2="760" y2="520" stroke="#ccc"/>
</svg>