<svg xmlns="http://www.w3.org/2000/svg" width="800" height="540">
<style> .label{font-family:DejaVu Sans,Verdana,Geneva,sans-serif;font-size:12px;fill:#333} .value{font-family:DejaVu Sans,Verdana,Geneva,sans-serif;font-size:12px;fill:#555} </style>
<text x="10" y="20" class="label">延迟柱状图（越低越好，Top 15），单位 ms</text>
<text x="10" y="46" class="label">blizzard.com</text>
<rect x="180" y="30" width="244.12" height="22" fill="#4c78a8" rx="3"/>
<text x="432.12" y="46" class="value">87.67</text>
<text x="10" y="78" class="label">battle.net</text>
<rect x="180" y="62" width="247.02" height="22" fill="#4c78a8" rx="3"/>
<text x="435.02" y="78" class="value">88.71</text>
<text x="10" y="110" class="label">ea.com</text>
<rect x="180" y="94" width="249.11" height="22" fill="#4c78a8" rx="3"/>
<text x="437.11" y="110" class="value">89.46</text>
<text x="10" y="142" class="label">ubi.com</text>
<rect x="180" y="126" width="265.57" height="22" fill="#4c78a8" rx="3"/>
<text x="453.57" y="142" class="value">95.37</text>
<text x="10" y="174" class="label">socialclub.rockstargames.com</text>
<rect x="180" y="158" width="268.04" height="22" fill="#4c78a8" rx="3"/>
<text x="456.04" y="174" class="value">96.26</text>
<text x="10" y="206" class="label">eaassets-a.akamaihd.net</text>
<rect x="180" y="190" width="300.54" height="22" fill="#4c78a8" rx="3"/>
<text x="488.54" y="206" class="value">107.93</text>
<text x="10" y="238" class="label">rockstargames.com</text>
<rect x="180" y="222" width="374.25" height="22" fill="#4c78a8" rx="3"/>
<text x="562.25" y="238" class="value">134.40</text>
<text x="10" y="270" class="label">unrealengine.com</text>
<rect x="180" y="254" width="473.88" height="22" fill="#4c78a8" rx="3"/>
<text x="661.88" y="270" class="value">170.18</text>
<text x="10" y="302" class="label">fortnite.com</text>
<rect x="180" y="286" width="474.97" height="22" fill="#4c78a8" rx="3"/>
<text x="662.97" y="302" class="value">170.57</text>
<text x="10" y="334" class="label">static3.cdn.ubi.com</text>
<rect x="180" y="318" width="522.14" height="22" fill="#4c78a8" rx="3"/>
<text x="710.14" y="334" class="value">187.51</text>
<text x="10" y="366" class="label">epicgames.com</text>
<rect x="180" y="350" width="541.24" height="22" fill="#4c78a8" rx="3"/>
<text x="729.24" y="366" class="value">194.37</text>
<text x="10" y="398" class="label">ubisoft.com</text>
<rect x="180" y="382" width="547.39" height="22" fill="#4c78a8" rx="3"/>
<text x="735.39" y="398" class="value">196.58</text>
<text x="10" y="430" class="label">cdn.akamai.steamstatic.com</text>
<rect x="180" y="414" width="573.57" height="22" fill="#4c78a8" rx="3"/>
<text x="761.57" y="430" class="value">205.98</text>
<text x="10" y="462" class="label">community.akamai.steamstatic.com</text>
<rect x="180" y="446" width="576.24" height="22" fill="#4c78a8" rx="3"/>
<text x="764.24" y="462" class="value">206.94</text>
<text x="10" y="494" class="label">steamcdn-a.akamaihd.net</text>
<rect x="180" y="478" width="580.0" height="22" fill="#4c78a8" rx="3"/>
<text x="768.0" y="494" class="value">208.29</text>
<line x1="180" y1="30" x2="180" y2="520" stroke="#ccc"/>
<line x1="180" y1="520" x2="760" y2="520" stroke="#ccc"/>
</svg>