<svg xmlns="http://www.w3.org/2000/svg" width="800" height="540">
<style> .label{font-family:DejaVu Sans,Verdana,Geneva,sans-serif;font-size:12px;fill:#333} .value{font-family:DejaVu Sans,Verdana,Geneva,sans-serif;font-size:12px;fill:#555} </style>
<text x="10" y="20" class="label">延迟柱状图（越低越好，Top 15），单位 ms</text>
<text x="10" y="46" class="label">rockstargames.com</text>
<rect x="180" y="30" width="217.79" height="22" fill="#4c78a8" rx="3"/>
<text x="405.78999999999996" y="46" class="value">79.76</text>
<text x="10" y="78" class="label">socialclub.rockstargames.com</text>
<rect x="180" y="62" width="244.96" height="22" fill="#4c78a8" rx="3"/>
<text x="432.96000000000004" y="78" class="value">89.71</text>
<text x="10" y="110" class="label">battle.net</text>
<rect x="180" y="94" width="246.13" height="22" fill="#4c78a8" rx="3"/>
<text x="434.13" y="110" class="value">90.14</text>
<text x="10" y="142" class="label">eaassets-a.akamaihd.net</text>
<rect x="180" y="126" width="252.99" height="22" fill="#4c78a8" rx="3"/>
<text x="440.99" y="142" class="value">92.65</text>
<text x="10" y="174" class="label">blizzard.com</text>
<rect x="180" y="158" width="269.59" height="22" fill="#4c78a8" rx="3"/>
<text x="457.59" y="174" class="value">98.73</text>
<text x="10" y="206" class="label">ubi.com</text>
<rect x="180" y="190" width="348.07" height="22" fill="#4c78a8" rx="3"/>
<text x="536.0699999999999" y="206" class="value">127.47</text>
<text x="10" y="238" class="label">cdn.akamai.steamstatic.com</text>
<rect x="180" y="222" width="392.52" height="22" fill="#4c78a8" rx="3"/>
<text x="580.52" y="238" class="value">143.75</text>
<text x="10" y="270" class="label">store.akamai.steamstatic.com</text>
<rect x="180" y="254" width="433.53" height="22" fill="#4c78a8" rx="3"/>
<text x="621.53" y="270" class="value">158.77</text>
<text x="10" y="302" class="label">epicgames.com</text>
<rect x="180" y="286" width="433.78" height="22" fill="#4c78a8" rx="3"/>
<text x="621.78" y="302" class="value">158.86</text>
<text x="10" y="334" class="label">fortnite.com</text>
<rect x="180" y="318" width="439.89" height="22" fill="#4c78a8" rx="3"/>
<text x="627.89" y="334" class="value">161.10</text>
<text x="10" y="366" class="label">unrealengine.com</text>
<rect x="180" y="350" width="495.38" height="22" fill="#4c78a8" rx="3"/>
<text x="683.38" y="366" class="value">181.42</text>
<text x="10" y="398" class="label">static3.cdn.ubi.com</text>
<rect x="180" y="382" width="555.56" height="22" fill="#4c78a8" rx="3"/>
<text x="743.56" y="398" class="value">203.46</text>
<text x="10" y="430" class="label">cdn.cloudflare.steamstatic.com</text>
<rect x="180" y="414" width="563.21" height="22" fill="#4c78a8" rx="3"/>
<text x="751.21" y="430" class="value">206.26</text>
<text x="10" y="462" class="label">origin.com</text>
<rect x="180" y="446" width="570.09" height="22" fill="#4c78a8" rx="3"/>
<text x="758.09" y="462" class="value">208.78</text>
<text x="10" y="494" class="label">ea.com</text>
<rect x="180" y="478" width="580.0" height="22" fill="#4c78a8" rx="3"/>
<text x="768.0" y="494" class="value">212.41</text>
<line x1="180" y1="30" x2="180" y2="520" stroke="#ccc"/>
<line x1="180" y1="520" x2="760" y2="520" stroke="#ccc"/>
</svg>