<svg xmlns="http://www.w3.org/2000/svg" width="800" height="540">
<style> .label{font-family:DejaVu Sans,Verdana,Geneva,sans-serif;font-size:12px;fill:#333} .value{font-family:DejaVu Sans,Verdana,Geneva,sans-serif;font-size:12px;fill:#555} </style>
<text x="10" y="20" class="label">延迟柱状图（越低越好，Top 15），单位 ms</text>
<text x="10" y="46" class="label">socialclub.rockstargames.com</text>
<rect x="180" y="30" width="268.42" height="22" fill="#4c78a8" rx="3"/>
<text x="456.42" y="46" class="value">95.15</text>
<text x="10" y="78" class="label">epicgames.com</text>
<rect x="180" y="62" width="275.39" height="22" fill="#4c78a8" rx="3"/>
<text x="463.39" y="78" class="value">97.62</text>
<text x="10" y="110" class="label">ubi.com</text>
<rect x="180" y="94" width="283.91" height="22" fill="#4c78a8" rx="3"/>
<text x="471.91" y="110" class="value">100.64</text>
<text x="10" y="142" class="label">rockstargames.com</text>
<rect x="180" y="126" width="290.08" height="22" fill="#4c78a8" rx="3"/>
<text x="478.08" y="142" class="value">102.83</text>
<text x="10" y="174" class="label">blizzard.com</text>
<rect x="180" y="158" width="290.54" height="22" fill="#4c78a8" rx="3"/>
<text x="478.54" y="174" class="value">102.99</text>
<text x="10" y="206" class="label">battle.net</text>
<rect x="180" y="190" width="293.64" height="22" fill="#4c78a8" rx="3"/>
<text x="481.64" y="206" class="value">104.09</text>
<text x="10" y="238" class="label">store.akamai.steamstatic.com</text>
<rect x="180" y="222" width="355.7" height="22" fill="#4c78a8" rx="3"/>
<text x="543.7" y="238" class="value">126.09</text>
<text x="10" y="270" class="label">ubisoft.com</text>
<rect x="180" y="254" width="368.09" height="22" fill="#4c78a8" rx="3"/>
<text x="556.0899999999999" y="270" class="value">130.48</text>
<text x="10" y="302" class="label">cdn.akamai.steamstatic.com</text>
<rect x="180" y="286" width="445.47" height="22" fill="#4c78a8" rx="3"/>
<text x="633.47" y="302" class="value">157.91</text>
<text x="10" y="334" class="label">cdn.cloudflare.steamstatic.com</text>
<rect x="180" y="318" width="490.83" height="22" fill="#4c78a8" rx="3"/>
<text x="678.8299999999999" y="334" class="value">173.99</text>
<text x="10" y="366" class="label">steamcdn-a.akamaihd.net</text>
<rect x="180" y="350" width="508.71" height="22" fill="#4c78a8" rx="3"/>
<text x="696.71" y="366" class="value">180.33</text>
<text x="10" y="398" class="label">origin.com</text>
<rect x="180" y="382" width="514.16" height="22" fill="#4c78a8" rx="3"/>
<text x="702.16" y="398" class="value">182.26</text>
<text x="10" y="430" class="label">community.akamai.steamstatic.com</text>
<rect x="180" y="414" width="539.72" height="22" fill="#4c78a8" rx="3"/>
<text x="727.72" y="430" class="value">191.32</text>
<text x="10" y="462" class="label">unrealengine.com</text>
<rect x="180" y="446" width="572.83" height="22" fill="#4c78a8" rx="3"/>
<text x="760.83" y="462" class="value">203.06</text>
<text x="10" y="494" class="label">fortnite.com</text>
<rect x="180" y="478" width="580.0" height="22" fill="#4c78a8" rx="3"/>
<text x="768.0" y="494" class="value">205.60</text>
<line x1="180" y1="30" x2="180" y2="520" stroke="#ccc"/>
<line x1="180" y1="520" x2="760" y2="520" stroke="#ccc"/>
</svg>