<svg xmlns="http://www.w3.org/2000/svg" width="800" height="540">
<style> .label{font-family:DejaVu Sans,Verdana,Geneva,sans-serif;font-size:12px;fill:#333} .value{font-family:DejaVu Sans,Verdana,Geneva,sans-serif;font-size:12px;fill:#555} </style>
<text x="10" y="20" class="label">延迟柱状图（越低越好，Top 15），单位 ms</text>
<text x="10" y="46" class="label">ubisoft.com</text>
<rect x="180" y="30" width="312.76" height="22" fill="#4c78a8" rx="3"/>
<text x="500.76" y="46" class="value">132.58</text>
<text x="10" y="78" class="label">store.akamai.steamstatic.com</text>
<rect x="180" y="62" width="351.24" height="22" fill="#4c78a8" rx="3"/>
<text x="539.24" y="78" class="value">148.89</text>
<text x="10" y="110" class="label">steamcdn-a.akamaihd.net</text>
<rect x="180" y="94" width="370.68" height="22" fill="#4c78a8" rx="3"/>
<text x="558.6800000000001" y="110" class="value">157.13</text>
<text x="10" y="142" class="label">community.akamai.steamstatic.com</text>
<rect x="180" y="126" width="379.1" height="22" fill="#4c78a8" rx="3"/>
<text x="567.1" y="142" class="value">160.70</text>
<text x="10" y="174" class="label">eaassets-a.akamaihd.net</text>
<rect x="180" y="158" width="387.24" height="22" fill="#4c78a8" rx="3"/>
<text x="575.24" y="174" class="value">164.15</text>
<text x="10" y="206" class="label">blizzard.com</text>
<rect x="180" y="190" width="421.99" height="22" fill="#4c78a8" rx="3"/>
<text x="609.99" y="206" class="value">178.88</text>
<text x="10" y="238" class="label">easyanticheat.net</text>
<rect x="180" y="222" width="424.89" height="22" fill="#4c78a8" rx="3"/>
<text x="612.89" y="238" class="value">180.11</text>
<text x="10" y="270" class="label">rockstargames.com</text>
<rect x="180" y="254" width="438.79" height="22" fill="#4c78a8" rx="3"/>
<text x="626.79" y="270" class="value">186.00</text>
<text x="10" y="302" class="label">steam-chat.com</text>
<rect x="180" y="286" width="523.92" height="22" fill="#4c78a8" rx="3"/>
<text x="711.92" y="302" class="value">222.09</text>
<text x="10" y="334" class="label">cdn.akamai.steamstatic.com</text>
<rect x="180" y="318" width="528.1" height="22" fill="#4c78a8" rx="3"/>
<text x="716.1" y="334" class="value">223.86</text>
<text x="10" y="366" class="label">cdn.cloudflare.steamstatic.com</text>
<rect x="180" y="350" width="545.6" height="22" fill="#4c78a8" rx="3"/>
<text x="733.6" y="366" class="value">231.28</text>
<text x="10" y="398" class="label">launcher-public-service-prod06.ol.epicgames.com</text>
<rect x="180" y="382" width="546.67" height="22" fill="#4c78a8" rx="3"/>
<text x="734.67" y="398" class="value">231.73</text>
<text x="10" y="430" class="label">api.steampowered.com</text>
<rect x="180" y="414" width="554.07" height="22" fill="#4c78a8" rx="3"/>
<text x="742.07" y="430" class="value">234.87</text>
<text x="10" y="462" class="label">unrealengine.com</text>
<rect x="180" y="446" width="556.67" height="22" fill="#4c78a8" rx="3"/>
<text x="744.67" y="462" class="value">235.97</text>
<text x="10" y="494" class="label">steamcommunity.com</text>
<rect x="180" y="478" width="580.0" height="22" fill="#4c78a8" rx="3"/>
<text x="768.0" y="494" class="value">245.86</text>
<line x1="180" y1="30" x2="180" y2="520" stroke="#ccc"/>
<line x1="180" y1="520" x2="760" y2="520" stroke="#ccc"/>
</svg>