<svg xmlns="http://www.w3.org/2000/svg" width="800" height="540">
<style> .label{font-family:DejaVu Sans,Verdana,Geneva,sans-serif;font-size:12px;fill:#333} .value{font-family:DejaVu Sans,Verdana,Geneva,sans-serif;font-size:12px;fill:#555} </style>
<text x="10" y="20" class="label">延迟柱状图（越低越好，Top 15），单位 ms</text>
<text x="10" y="46" class="label">rockstargames.com</text>
<rect x="180" y="30" width="231.52" height="22" fill="#4c78a8" rx="3"/>
<text x="419.52" y="46" class="value">70.19</text>
<text x="10" y="78" class="label">socialclub.rockstargames.com</text>
<rect x="180" y="62" width="281.75" height="22" fill="#4c78a8" rx="3"/>
<text x="469.75" y="78" class="value">85.42</text>
<text x="10" y="110" class="label">epicgames.com</text>
<rect x="180" y="94" width="302.44" height="22" fill="#4c78a8" rx="3"/>
<text x="490.44" y="110" class="value">91.69</text>
<text x="10" y="142" class="label">battle.net</text>
<rect x="180" y="126" width="323.94" height="22" fill="#4c78a8" rx="3"/>
<text x="511.94" y="142" class="value">98.21</text>
<text x="10" y="174" class="label">community.akamai.steamstatic.com</text>
<rect x="180" y="158" width="331.73" height="22" fill="#4c78a8" rx="3"/>
<text x="519.73" y="174" class="value">100.57</text>
<text x="10" y="206" class="label">blizzard.com</text>
<rect x="180" y="190" width="366.99" height="22" fill="#4c78a8" rx="3"/>
<text x="554.99" y="206" class="value">111.26</text>
<text x="10" y="238" class="label">ubi.com</text>
<rect x="180" y="222" width="393.54" height="22" fill="#4c78a8" rx="3"/>
<text x="581.54" y="238" class="value">119.31</text>
<text x="10" y="270" class="label">eaassets-a.akamaihd.net</text>
<rect x="180" y="254" width="399.34" height="22" fill="#4c78a8" rx="3"/>
<text x="587.3399999999999" y="270" class="value">121.07</text>
<text x="10" y="302" class="label">ubisoft.com</text>
<rect x="180" y="286" width="431.9" height="22" fill="#4c78a8" rx="3"/>
<text x="619.9" y="302" class="value">130.94</text>
<text x="10" y="334" class="label">fortnite.com</text>
<rect x="180" y="318" width="443.08" height="22" fill="#4c78a8" rx="3"/>
<text x="631.0799999999999" y="334" class="value">134.33</text>
<text x="10" y="366" class="label">origin.com</text>
<rect x="180" y="350" width="514.76" height="22" fill="#4c78a8" rx="3"/>
<text x="702.76" y="366" class="value">156.06</text>
<text x="10" y="398" class="label">unrealengine.com</text>
<rect x="180" y="382" width="543.06" height="22" fill="#4c78a8" rx="3"/>
<text x="731.06" y="398" class="value">164.64</text>
<text x="10" y="430" class="label">static3.cdn.ubi.com</text>
<rect x="180" y="414" width="549.13" height="22" fill="#4c78a8" rx="3"/>
<text x="737.13" y="430" class="value">166.48</text>
<text x="10" y="462" class="label">easyanticheat.net</text>
<rect x="180" y="446" width="574.0" height="22" fill="#4c78a8" rx="3"/>
<text x="762.0" y="462" class="value">174.02</text>
<text x="10" y="494" class="label">cdn.cloudflare.steamstatic.com</text>
<rect x="180" y="478" width="580.0" height="22" fill="#4c78a8" rx="3"/>
<text x="768.0" y="494" class="value">175.84</text>
<line x1="180" y1="30" x2="180" y2="520" stroke="#ccc"/>
<line x1="180" y1="520" x2="760" y2="520" stroke="#ccc"/>
</svg>