<svg xmlns="http://www.w3.org/2000/svg" width="800" height="540">
<style> .label{font-family:DejaVu Sans,Verdana,Geneva,sans-serif;font-size:12px;fill:#333} .value{font-family:DejaVu Sans,Verdana,Geneva,sans-serif;font-size:12px;fill:#555} </style>
<text x="10" y="20" class="label">延迟柱状图（越低越好，Top 15），单位 ms</text>
<text x="10" y="46" class="label">eaassets-a.akamaihd.net</text>
<rect x="180" y="30" width="135.0" height="22" fill="#4c78a8" rx="3"/>
<text x="323.0" y="46" class="value">47.73</text>
<text x="10" y="78" class="label">socialclub.rockstargames.com</text>
<rect x="180" y="62" width="207.24" height="22" fill="#4c78a8" rx="3"/>
<text x="395.24" y="78" class="value">73.27</text>
<text x="10" y="110" class="label">rockstargames.com</text>
<rect x="180" y="94" width="242.91" height="22" fill="#4c78a8" rx="3"/>
<text x="430.90999999999997" y="110" class="value">85.88</text>
<text x="10" y="142" class="label">ubi.com</text>
<rect x="180" y="126" width="303.41" height="22" fill="#4c78a8" rx="3"/>
<text x="491.41" y="142" class="value">107.27</text>
<text x="10" y="174" class="label">battle.net</text>
<rect x="180" y="158" width="306.55" height="22" fill="#4c78a8" rx="3"/>
<text x="494.55" y="174" class="value">108.38</text>
<text x="10" y="206" class="label">ea.com</text>
<rect x="180" y="190" width="307.96" height="22" fill="#4c78a8" rx="3"/>
<text x="495.96" y="206" class="value">108.88</text>
<text x="10" y="238" class="label">blizzard.com</text>
<rect x="180" y="222" width="314.07" height="22" fill="#4c78a8" rx="3"/>
<text x="502.07" y="238" class="value">111.04</text>
<text x="10" y="270" class="label">cdn.akamai.steamstatic.com</text>
<rect x="180" y="254" width="331.1" height="22" fill="#4c78a8" rx="3"/>
<text x="519.1" y="270" class="value">117.06</text>
<text x="10" y="302" class="label">cdn.cloudflare.steamstatic.com</text>
<rect x="180" y="286" width="430.94" height="22" fill="#4c78a8" rx="3"/>
<text x="618.94" y="302" class="value">152.36</text>
<text x="10" y="334" class="label">ubisoft.com</text>
<rect x="180" y="318" width="441.35" height="22" fill="#4c78a8" rx="3"/>
<text x="629.35" y="334" class="value">156.04</text>
<text x="10" y="366" class="label">unrealengine.com</text>
<rect x="180" y="350" width="457.95" height="22" fill="#4c78a8" rx="3"/>
<text x="645.95" y="366" class="value">161.91</text>
<text x="10" y="398" class="label">community.akamai.steamstatic.com</text>
<rect x="180" y="382" width="484.82" height="22" fill="#4c78a8" rx="3"/>
<text x="672.8199999999999" y="398" class="value">171.41</text>
<text x="10" y="430" class="label">static3.cdn.ubi.com</text>
<rect x="180" y="414" width="539.92" height="22" fill="#4c78a8" rx="3"/>
<text x="727.92" y="430" class="value">190.89</text>
<text x="10" y="462" class="label">store.akamai.steamstatic.com</text>
<rect x="180" y="446" width="541.39" height="22" fill="#4c78a8" rx="3"/>
<text x="729.39" y="462" class="value">191.41</text>
<text x="10" y="494" class="label">origin.com</text>
<rect x="180" y="478" width="580.0" height="22" fill="#4c78a8" rx="3"/>
<text x="768.0" y="494" class="value">205.06</text>
<line x1="180" y1="30" x2="180" y2="520" stroke="#ccc"/>
<line x1="180" y1="520" x2="760" y2="520" stroke="#ccc"/>
</svg>