<svg xmlns="http://www.w3.org/2000/svg" width="800" height="540">
<style> .label{font-family:DejaVu Sans,Verdana,Geneva,sans-serif;font-size:12px;fill:#333} .value{font-family:DejaVu Sans,Verdana,Geneva,sans-serif;font-size:12px;fill:#555} </style>
<text x="10" y="20" class="label">延迟柱状图（越低越好，Top 15），单位 ms</text>
<text x="10" y="46" class="label">eaassets-a.akamaihd.net</text>
<rect x="180" y="30" width="180.76" height="22" fill="#4c78a8" rx="3"/>
<text x="368.76" y="46" class="value">62.35</text>
<text x="10" y="78" class="label">rockstargames.com</text>
<rect x="180" y="62" width="203.63" height="22" fill="#4c78a8" rx="3"/>
<text x="391.63" y="78" class="value">70.24</text>
<text x="10" y="110" class="label">origin.com</text>
<rect x="180" y="94" width="217.2" height="22" fill="#4c78a8" rx="3"/>
<text x="405.2" y="110" class="value">74.92</text>
<text x="10" y="142" class="label">ea.com</text>
<rect x="180" y="126" width="315.74" height="22" fill="#4c78a8" rx="3"/>
<text x="503.74" y="142" class="value">108.91</text>
<text x="10" y="174" class="label">community.akamai.steamstatic.com</text>
<rect x="180" y="158" width="335.95" height="22" fill="#4c78a8" rx="3"/>
<text x="523.95" y="174" class="value">115.88</text>
<text x="10" y="206" class="label">ubisoft.com</text>
<rect x="180" y="190" width="355.46" height="22" fill="#4c78a8" rx="3"/>
<text x="543.46" y="206" class="value">122.61</text>
<text x="10" y="238" class="label">steamcdn-a.akamaihd.net</text>
<rect x="180" y="222" width="367.9" height="22" fill="#4c78a8" rx="3"/>
<text x="555.9" y="238" class="value">126.90</text>
<text x="10" y="270" class="label">ubi.com</text>
<rect x="180" y="254" width="396.05" height="22" fill="#4c78a8" rx="3"/>
<text x="584.05" y="270" class="value">136.61</text>
<text x="10" y="302" class="label">battle.net</text>
<rect x="180" y="286" width="403.33" height="22" fill="#4c78a8" rx="3"/>
<text x="591.3299999999999" y="302" class="value">139.12</text>
<text x="10" y="334" class="label">cdn.cloudflare.steamstatic.com</text>
<rect x="180" y="318" width="456.38" height="22" fill="#4c78a8" rx="3"/>
<text x="644.38" y="334" class="value">157.42</text>
<text x="10" y="366" class="label">blizzard.com</text>
<rect x="180" y="350" width="464.35" height="22" fill="#4c78a8" rx="3"/>
<text x="652.35" y="366" class="value">160.17</text>
<text x="10" y="398" class="label">static3.cdn.ubi.com</text>
<rect x="180" y="382" width="502.16" height="22" fill="#4c78a8" rx="3"/>
<text x="690.1600000000001" y="398" class="value">173.21</text>
<text x="10" y="430" class="label">socialclub.rockstargames.com</text>
<rect x="180" y="414" width="505.03" height="22" fill="#4c78a8" rx="3"/>
<text x="693.03" y="430" class="value">174.20</text>
<text x="10" y="462" class="label">gog.com</text>
<rect x="180" y="446" width="509.75" height="22" fill="#4c78a8" rx="3"/>
<text x="697.75" y="462" class="value">175.83</text>
<text x="10" y="494" class="label">www.steamcommunity.com</text>
<rect x="180" y="478" width="580.0" height="22" fill="#4c78a8" rx="3"/>
<text x="768.0" y="494" class="value">200.06</text>
<line x1="180" y1="30" x2="180" y2="520" stroke="#ccc"/>
<line x1="180" y1="520" x2="760" y2="520" stroke="#ccc"/>
</svg>