<svg xmlns="http://www.w3.org/2000/svg" width="800" height="540">
<style> .label{font-family:DejaVu Sans,Verdana,Geneva,sans-serif;font-size:12px;fill:#333} .value{font-family:DejaVu Sans,Verdana,Geneva,sans-serif;font-size:12px;fill:#555} </style>
<text x="10" y="20" class="label">延迟柱状图（越低越好，Top 15），单位 ms</text>
<text x="10" y="46" class="label">rockstargames.com</text>
<rect x="180" y="30" width="84.23" height="22" fill="#4c78a8" rx="3"/>
<text x="272.23" y="46" class="value">36.33</text>
<text x="10" y="78" class="label">eaassets-a.akamaihd.net</text>
<rect x="180" y="62" width="107.83" height="22" fill="#4c78a8" rx="3"/>
<text x="295.83" y="78" class="value">46.51</text>
<text x="10" y="110" class="label">ea.com</text>
<rect x="180" y="94" width="152.6" height="22" fill="#4c78a8" rx="3"/>
<text x="340.6" y="110" class="value">65.82</text>
<text x="10" y="142" class="label">ubisoft.com</text>
<rect x="180" y="126" width="243.16" height="22" fill="#4c78a8" rx="3"/>
<text x="431.15999999999997" y="142" class="value">104.88</text>
<text x="10" y="174" class="label">store.akamai.steamstatic.com</text>
<rect x="180" y="158" width="268.4" height="22" fill="#4c78a8" rx="3"/>
<text x="456.4" y="174" class="value">115.77</text>
<text x="10" y="206" class="label">cdn.akamai.steamstatic.com</text>
<rect x="180" y="190" width="329.93" height="22" fill="#4c78a8" rx="3"/>
<text x="517.9300000000001" y="206" class="value">142.31</text>
<text x="10" y="238" class="label">community.akamai.steamstatic.com</text>
<rect x="180" y="222" width="390.49" height="22" fill="#4c78a8" rx="3"/>
<text x="578.49" y="238" class="value">168.43</text>
<text x="10" y="270" class="label">steamcdn-a.akamaihd.net</text>
<rect x="180" y="254" width="398.42" height="22" fill="#4c78a8" rx="3"/>
<text x="586.4200000000001" y="270" class="value">171.85</text>
<text x="10" y="302" class="label">origin.com</text>
<rect x="180" y="286" width="406.79" height="22" fill="#4c78a8" rx="3"/>
<text x="594.79" y="302" class="value">175.46</text>
<text x="10" y="334" class="label">cdn.cloudflare.steamstatic.com</text>
<rect x="180" y="318" width="407.6" height="22" fill="#4c78a8" rx="3"/>
<text x="595.6" y="334" class="value">175.81</text>
<text x="10" y="366" class="label">gog.com</text>
<rect x="180" y="350" width="455.25" height="22" fill="#4c78a8" rx="3"/>
<text x="643.25" y="366" class="value">196.36</text>
<text x="10" y="398" class="label">api.steampowered.com</text>
<rect x="180" y="382" width="464.22" height="22" fill="#4c78a8" rx="3"/>
<text x="652.22" y="398" class="value">200.23</text>
<text x="10" y="430" class="label">www.steamcommunity.com</text>
<rect x="180" y="414" width="540.08" height="22" fill="#4c78a8" rx="3"/>
<text x="728.08" y="430" class="value">232.95</text>
<text x="10" y="462" class="label">steam-chat.com</text>
<rect x="180" y="446" width="543.51" height="22" fill="#4c78a8" rx="3"/>
<text x="731.51" y="462" class="value">234.43</text>
<text x="10" y="494" class="label">easyanticheat.net</text>
<rect x="180" y="478" width="580.0" height="22" fill="#4c78a8" rx="3"/>
<text x="768.0" y="494" class="value">250.17</text>
<line x1="180" y1="30" x2="180" y2="520" stroke="#ccc"/>
<line x1="180" y1="520" x2="760" y2="520" stroke="#ccc"/>
</svg>