<svg xmlns="http://www.w3.org/2000/svg" width="800" height="540">
<style> .label{font-family:DejaVu Sans,Verdana,Geneva,sans-serif;font-size:12px;fill:#333} .value{font-family:DejaVu Sans,Verdana,Geneva,sans-serif;font-size:12px;fill:#555} </style>
<text x="10" y="20" class="label">延迟柱状图（越低越好，Top 15），单位 ms</text>
<text x="10" y="46" class="label">eaassets-a.akamaihd.net</text>
<rect x="180" y="30" width="218.13" height="22" fill="#4c78a8" rx="3"/>
<text x="406.13" y="46" class="value">100.68</text>
<text x="10" y="78" class="label">rockstargames.com</text>
<rect x="180" y="62" width="219.0" height="22" fill="#4c78a8" rx="3"/>
<text x="407.0" y="78" class="value">101.08</text>
<text x="10" y="110" class="label">origin.com</text>
<rect x="180" y="94" width="266.12" height="22" fill="#4c78a8" rx="3"/>
<text x="454.12" y="110" class="value">122.83</text>
<text x="10" y="142" class="label">easyanticheat.net</text>
<rect x="180" y="126" width="270.7" height="22" fill="#4c78a8" rx="3"/>
<text x="458.7" y="142" class="value">124.94</text>
<text x="10" y="174" class="label">store.akamai.steamstatic.com</text>
<rect x="180" y="158" width="289.35" height="22" fill="#4c78a8" rx="3"/>
<text x="477.35" y="174" class="value">133.55</text>
<text x="10" y="206" class="label">steamcdn-a.akamaihd.net</text>
<rect x="180" y="190" width="290.69" height="22" fill="#4c78a8" rx="3"/>
<text x="478.69" y="206" class="value">134.17</text>
<text x="10" y="238" class="label">ubisoft.com</text>
<rect x="180" y="222" width="385.46" height="22" fill="#4c78a8" rx="3"/>
<text x="573.46" y="238" class="value">177.91</text>
<text x="10" y="270" class="label">ea.com</text>
<rect x="180" y="254" width="391.27" height="22" fill="#4c78a8" rx="3"/>
<text x="579.27" y="270" class="value">180.59</text>
<text x="10" y="302" class="label">community.akamai.steamstatic.com</text>
<rect x="180" y="286" width="399.05" height="22" fill="#4c78a8" rx="3"/>
<text x="587.05" y="302" class="value">184.18</text>
<text x="10" y="334" class="label">cdn.cloudflare.steamstatic.com</text>
<rect x="180" y="318" width="458.37" height="22" fill="#4c78a8" rx="3"/>
<text x="646.37" y="334" class="value">211.56</text>
<text x="10" y="366" class="label">www.steamcommunity.com</text>
<rect x="180" y="350" width="482.59" height="22" fill="#4c78a8" rx="3"/>
<text x="670.5899999999999" y="366" class="value">222.74</text>
<text x="10" y="398" class="label">gog.com</text>
<rect x="180" y="382" width="483.35" height="22" fill="#4c78a8" rx="3"/>
<text x="671.35" y="398" class="value">223.09</text>
<text x="10" y="430" class="label">cdn.akamai.steamstatic.com</text>
<rect x="180" y="414" width="508.98" height="22" fill="#4c78a8" rx="3"/>
<text x="696.98" y="430" class="value">234.92</text>
<text x="10" y="462" class="label">steam-chat.com</text>
<rect x="180" y="446" width="563.95" height="22" fill="#4c78a8" rx="3"/>
<text x="751.95" y="462" class="value">260.29</text>
<text x="10" y="494" class="label">steamcommunity.com</text>
<rect x="180" y="478" width="580.0" height="22" fill="#4c78a8" rx="3"/>
<text x="768.0" y="494" class="value">267.70</text>
<line x1="180" y1="30" x2="180" y2="520" stroke="#ccc"/>
<line x1="180" y1="520" x2="760" y2="520" stroke="#ccc"/>
</svg>