<svg xmlns="http://www.w3.org/2000/svg" width="800" height="540">
<style> .label{font-family:DejaVu Sans,Verdana,Geneva,sans-serif;font-size:12px;fill:#333} .value{font-family:DejaVu Sans,Verdana,Geneva,sans-serif;font-size:12px;fill:#555} </style>
<text x="10" y="20" class="label">延迟柱状图（越低越好，Top 15），单位 ms</text>
<text x="10" y="46" class="label">rockstargames.com</text>
<rect x="180" y="30" width="113.64" height="22" fill="#4c78a8" rx="3"/>
<text x="301.64" y="46" class="value">52.04</text>
<text x="10" y="78" class="label">eaassets-a.akamaihd.net</text>
<rect x="180" y="62" width="135.78" height="22" fill="#4c78a8" rx="3"/>
<text x="323.78" y="78" class="value">62.18</text>
<text x="10" y="110" class="label">ea.com</text>
<rect x="180" y="94" width="222.25" height="22" fill="#4c78a8" rx="3"/>
<text x="410.25" y="110" class="value">101.78</text>
<text x="10" y="142" class="label">ubisoft.com</text>
<rect x="180" y="126" width="260.64" height="22" fill="#4c78a8" rx="3"/>
<text x="448.64" y="142" class="value">119.36</text>
<text x="10" y="174" class="label">steamcdn-a.akamaihd.net</text>
<rect x="180" y="158" width="287.61" height="22" fill="#4c78a8" rx="3"/>
<text x="475.61" y="174" class="value">131.71</text>
<text x="10" y="206" class="label">origin.com</text>
<rect x="180" y="190" width="301.63" height="22" fill="#4c78a8" rx="3"/>
<text x="489.63" y="206" class="value">138.13</text>
<text x="10" y="238" class="label">cdn.akamai.steamstatic.com</text>
<rect x="180" y="222" width="336.72" height="22" fill="#4c78a8" rx="3"/>
<text x="524.72" y="238" class="value">154.20</text>
<text x="10" y="270" class="label">community.akamai.steamstatic.com</text>
<rect x="180" y="254" width="343.55" height="22" fill="#4c78a8" rx="3"/>
<text x="531.55" y="270" class="value">157.33</text>
<text x="10" y="302" class="label">static3.cdn.ubi.com</text>
<rect x="180" y="286" width="374.76" height="22" fill="#4c78a8" rx="3"/>
<text x="562.76" y="302" class="value">171.62</text>
<text x="10" y="334" class="label">easyanticheat.net</text>
<rect x="180" y="318" width="384.52" height="22" fill="#4c78a8" rx="3"/>
<text x="572.52" y="334" class="value">176.09</text>
<text x="10" y="366" class="label">store.akamai.steamstatic.com</text>
<rect x="180" y="350" width="394.87" height="22" fill="#4c78a8" rx="3"/>
<text x="582.87" y="366" class="value">180.83</text>
<text x="10" y="398" class="label">www.steamcommunity.com</text>
<rect x="180" y="382" width="440.4" height="22" fill="#4c78a8" rx="3"/>
<text x="628.4" y="398" class="value">201.68</text>
<text x="10" y="430" class="label">launcher-public-service-prod06.ol.epicgames.com</text>
<rect x="180" y="414" width="485.75" height="22" fill="#4c78a8" rx="3"/>
<text x="673.75" y="430" class="value">222.45</text>
<text x="10" y="462" class="label">steam-chat.com</text>
<rect x="180" y="446" width="538.31" height="22" fill="#4c78a8" rx="3"/>
<text x="726.31" y="462" class="value">246.52</text>
<text x="10" y="494" class="label">api.steampowered.com</text>
<rect x="180" y="478" width="580.0" height="22" fill="#4c78a8" rx="3"/>
<text x="768.0" y="494" class="value">265.61</text>
<line x1="180" y1="30" x2="180" y2="520" stroke="#ccc"/>
<line x1="180" y1="520" x2="760" y2="520" stroke="#ccc"/>
</svg>