<svg xmlns="http://www.w3.org/2000/svg" width="800" height="540">
<style> .label{font-family:DejaVu Sans,Verdana,Geneva,sans-serif;font-size:12px;fill:#333} .value{font-family:DejaVu Sans,Verdana,Geneva,sans-serif;font-size:12px;fill:#555} </style>
<text x="10" y="20" class="label">延迟柱状图（越低越好，Top 15），单位 ms</text>
<text x="10" y="46" class="label">socialclub.rockstargames.com</text>
<rect x="180" y="30" width="186.34" height="22" fill="#4c78a8" rx="3"/>
<text x="374.34000000000003" y="46" class="value">60.60</text>
<text x="10" y="78" class="label">eaassets-a.akamaihd.net</text>
<rect x="180" y="62" width="217.09" height="22" fill="#4c78a8" rx="3"/>
<text x="405.09000000000003" y="78" class="value">70.60</text>
<text x="10" y="110" class="label">battle.net</text>
<rect x="180" y="94" width="231.11" height="22" fill="#4c78a8" rx="3"/>
<text x="419.11" y="110" class="value">75.16</text>
<text x="10" y="142" class="label">rockstargames.com</text>
<rect x="180" y="126" width="263.31" height="22" fill="#4c78a8" rx="3"/>
<text x="451.31" y="142" class="value">85.63</text>
<text x="10" y="174" class="label">ea.com</text>
<rect x="180" y="158" width="297.38" height="22" fill="#4c78a8" rx="3"/>
<text x="485.38" y="174" class="value">96.71</text>
<text x="10" y="206" class="label">blizzard.com</text>
<rect x="180" y="190" width="334.1" height="22" fill="#4c78a8" rx="3"/>
<text x="522.1" y="206" class="value">108.65</text>
<text x="10" y="238" class="label">ubi.com</text>
<rect x="180" y="222" width="365.89" height="22" fill="#4c78a8" rx="3"/>
<text x="553.89" y="238" class="value">118.99</text>
<text x="10" y="270" class="label">store.akamai.steamstatic.com</text>
<rect x="180" y="254" width="415.27" height="22" fill="#4c78a8" rx="3"/>
<text x="603.27" y="270" class="value">135.05</text>
<text x="10" y="302" class="label">epicgames.com</text>
<rect x="180" y="286" width="437.88" height="22" fill="#4c78a8" rx="3"/>
<text x="625.88" y="302" class="value">142.40</text>
<text x="10" y="334" class="label">fortnite.com</text>
<rect x="180" y="318" width="507.8" height="22" fill="#4c78a8" rx="3"/>
<text x="695.8" y="334" class="value">165.14</text>
<text x="10" y="366" class="label">cdn.akamai.steamstatic.com</text>
<rect x="180" y="350" width="529.91" height="22" fill="#4c78a8" rx="3"/>
<text x="717.91" y="366" class="value">172.33</text>
<text x="10" y="398" class="label">static3.cdn.ubi.com</text>
<rect x="180" y="382" width="540.15" height="22" fill="#4c78a8" rx="3"/>
<text x="728.15" y="398" class="value">175.66</text>
<text x="10" y="430" class="label">launcher-public-service-prod06.ol.epicgames.com</text>
<rect x="180" y="414" width="568.5" height="22" fill="#4c78a8" rx="3"/>
<text x="756.5" y="430" class="value">184.88</text>
<text x="10" y="462" class="label">community.akamai.steamstatic.com</text>
<rect x="180" y="446" width="572.5" height="22" fill="#4c78a8" rx="3"/>
<text x="760.5" y="462" class="value">186.18</text>
<text x="10" y="494" class="label">origin.com</text>
<rect x="180" y="478" width="580.0" height="22" fill="#4c78a8" rx="3"/>
<text x="768.0" y="494" class="value">188.62</text>
<line x1="180" y1="30" x2="180" y2="520" stroke="#ccc"/>
<line x1="180" y1="520" x2="760" y2="520" stroke="#ccc"/>
</svg>