<svg xmlns="http://www.w3.org/2000/svg" width="800" height="540">
<style> .label{font-family:DejaVu Sans,Verdana,Geneva,sans-serif;font-size:12px;fill:#333} .value{font-family:DejaVu Sans,Verdana,Geneva,sans-serif;font-size:12px;fill:#555} </style>
<text x="10" y="20" class="label">延迟柱状图（越低越好，Top 15），单位 ms</text>
<text x="10" y="46" class="label">rockstargames.com</text>
<rect x="180" y="30" width="173.84" height="22" fill="#4c78a8" rx="3"/>
<text x="361.84000000000003" y="46" class="value">66.79</text>
<text x="10" y="78" class="label">eaassets-a.akamaihd.net</text>
<rect x="180" y="62" width="185.76" height="22" fill="#4c78a8" rx="3"/>
<text x="373.76" y="78" class="value">71.37</text>
<text x="10" y="110" class="label">ea.com</text>
<rect x="180" y="94" width="227.43" height="22" fill="#4c78a8" rx="3"/>
<text x="415.43" y="110" class="value">87.38</text>
<text x="10" y="142" class="label">easyanticheat.net</text>
<rect x="180" y="126" width="320.69" height="22" fill="#4c78a8" rx="3"/>
<text x="508.69" y="142" class="value">123.21</text>
<text x="10" y="174" class="label">battle.net</text>
<rect x="180" y="158" width="347.7" height="22" fill="#4c78a8" rx="3"/>
<text x="535.7" y="174" class="value">133.59</text>
<text x="10" y="206" class="label">blizzard.com</text>
<rect x="180" y="190" width="355.15" height="22" fill="#4c78a8" rx="3"/>
<text x="543.15" y="206" class="value">136.45</text>
<text x="10" y="238" class="label">ubi.com</text>
<rect x="180" y="222" width="362.54" height="22" fill="#4c78a8" rx="3"/>
<text x="550.54" y="238" class="value">139.29</text>
<text x="10" y="270" class="label">socialclub.rockstargames.com</text>
<rect x="180" y="254" width="398.72" height="22" fill="#4c78a8" rx="3"/>
<text x="586.72" y="270" class="value">153.19</text>
<text x="10" y="302" class="label">origin.com</text>
<rect x="180" y="286" width="400.62" height="22" fill="#4c78a8" rx="3"/>
<text x="588.62" y="302" class="value">153.92</text>
<text x="10" y="334" class="label">community.akamai.steamstatic.com</text>
<rect x="180" y="318" width="405.28" height="22" fill="#4c78a8" rx="3"/>
<text x="593.28" y="334" class="value">155.71</text>
<text x="10" y="366" class="label">api.steampowered.com</text>
<rect x="180" y="350" width="504.18" height="22" fill="#4c78a8" rx="3"/>
<text x="692.1800000000001" y="366" class="value">193.71</text>
<text x="10" y="398" class="label">steamcdn-a.akamaihd.net</text>
<rect x="180" y="382" width="540.33" height="22" fill="#4c78a8" rx="3"/>
<text x="728.33" y="398" class="value">207.60</text>
<text x="10" y="430" class="label">cdn.cloudflare.steamstatic.com</text>
<rect x="180" y="414" width="550.72" height="22" fill="#4c78a8" rx="3"/>
<text x="738.72" y="430" class="value">211.59</text>
<text x="10" y="462" class="label">steam-chat.com</text>
<rect x="180" y="446" width="578.8" height="22" fill="#4c78a8" rx="3"/>
<text x="766.8" y="462" class="value">222.38</text>
<text x="10" y="494" class="label">cdn.akamai.steamstatic.com</text>
<rect x="180" y="478" width="580.0" height="22" fill="#4c78a8" rx="3"/>
<text x="768.0" y="494" class="value">222.84</text>
<line x1="180" y1="30" x2="180" y2="520" stroke="#ccc"/>
<line x1="180" y1="520" x2="760" y2="520" stroke="#ccc"/>
</svg>