<svg xmlns="http://www.w3.org/2000/svg" width="800" height="540">
<style> .label{font-family:DejaVu Sans,Verdana,Geneva,sans-serif;font-size:12px;fill:#333} .value{font-family:DejaVu Sans,Verdana,Geneva,sans-serif;font-size:12px;fill:#555} </style>
<text x="10" y="20" class="label">延迟柱状图（越低越好，Top 15），单位 ms</text>
<text x="10" y="46" class="label">rockstargames.com</text>
<rect x="180" y="30" width="65.02" height="22" fill="#4c78a8" rx="3"/>
<text x="253.01999999999998" y="46" class="value">30.99</text>
<text x="10" y="78" class="label">eaassets-a.akamaihd.net</text>
<rect x="180" y="62" width="91.23" height="22" fill="#4c78a8" rx="3"/>
<text x="279.23" y="78" class="value">43.48</text>
<text x="10" y="110" class="label">ea.com</text>
<rect x="180" y="94" width="152.92" height="22" fill="#4c78a8" rx="3"/>
<text x="340.91999999999996" y="110" class="value">72.88</text>
<text x="10" y="142" class="label">steamcdn-a.akamaihd.net</text>
<rect x="180" y="126" width="254.3" height="22" fill="#4c78a8" rx="3"/>
<text x="442.3" y="142" class="value">121.20</text>
<text x="10" y="174" class="label">origin.com</text>
<rect x="180" y="158" width="270.48" height="22" fill="#4c78a8" rx="3"/>
<text x="458.48" y="174" class="value">128.91</text>
<text x="10" y="206" class="label">ubisoft.com</text>
<rect x="180" y="190" width="289.02" height="22" fill="#4c78a8" rx="3"/>
<text x="477.02" y="206" class="value">137.75</text>
<text x="10" y="238" class="label">cdn.akamai.steamstatic.com</text>
<rect x="180" y="222" width="357.13" height="22" fill="#4c78a8" rx="3"/>
<text x="545.13" y="238" class="value">170.21</text>
<text x="10" y="270" class="label">community.akamai.steamstatic.com</text>
<rect x="180" y="254" width="395.65" height="22" fill="#4c78a8" rx="3"/>
<text x="583.65" y="270" class="value">188.57</text>
<text x="10" y="302" class="label">cdn.cloudflare.steamstatic.com</text>
<rect x="180" y="286" width="399.87" height="22" fill="#4c78a8" rx="3"/>
<text x="587.87" y="302" class="value">190.58</text>
<text x="10" y="334" class="label">store.akamai.steamstatic.com</text>
<rect x="180" y="318" width="441.71" height="22" fill="#4c78a8" rx="3"/>
<text x="629.71" y="334" class="value">210.52</text>
<text x="10" y="366" class="label">api.steampowered.com</text>
<rect x="180" y="350" width="496.16" height="22" fill="#4c78a8" rx="3"/>
<text x="684.1600000000001" y="366" class="value">236.47</text>
<text x="10" y="398" class="label">www.steamcommunity.com</text>
<rect x="180" y="382" width="499.64" height="22" fill="#4c78a8" rx="3"/>
<text x="687.64" y="398" class="value">238.13</text>
<text x="10" y="430" class="label">steam-chat.com</text>
<rect x="180" y="414" width="516.13" height="22" fill="#4c78a8" rx="3"/>
<text x="704.13" y="430" class="value">245.99</text>
<text x="10" y="462" class="label">easyanticheat.net</text>
<rect x="180" y="446" width="520.37" height="22" fill="#4c78a8" rx="3"/>
<text x="708.37" y="462" class="value">248.01</text>
<text x="10" y="494" class="label">launcher-public-service-prod06.ol.epicgames.com</text>
<rect x="180" y="478" width="580.0" height="22" fill="#4c78a8" rx="3"/>
<text x="768.0" y="494" class="value">276.43</text>
<line x1="180" y1="30" x2="180" y2="520" stroke="#ccc"/>
<line x1="180" y1="520" x2="760" y2="520" stroke="#ccc"/>
</svg>