<svg xmlns="http://www.w3.org/2000/svg" width="800" height="540">
<style> .label{font-family:DejaVu Sans,Verdana,Geneva,sans-serif;font-size:12px;fill:#333} .value{font-family:DejaVu Sans,Verdana,Geneva,sans-serif;font-size:12px;fill:#555} </style>
<text x="10" y="20" class="label">延迟柱状图（越低越好，Top 15），单位 ms</text>
<text x="10" y="46" class="label">eaassets-a.akamaihd.net</text>
<rect x="180" y="30" width="200.2" height="22" fill="#4c78a8" rx="3"/>
<text x="388.2" y="46" class="value">77.40</text>
<text x="10" y="78" class="label">rockstargames.com</text>
<rect x="180" y="62" width="207.05" height="22" fill="#4c78a8" rx="3"/>
<text x="395.05" y="78" class="value">80.05</text>
<text x="10" y="110" class="label">ea.com</text>
<rect x="180" y="94" width="250.66" height="22" fill="#4c78a8" rx="3"/>
<text x="438.65999999999997" y="110" class="value">96.91</text>
<text x="10" y="142" class="label">ubi.com</text>
<rect x="180" y="126" width="256.25" height="22" fill="#4c78a8" rx="3"/>
<text x="444.25" y="142" class="value">99.07</text>
<text x="10" y="174" class="label">blizzard.com</text>
<rect x="180" y="158" width="264.86" height="22" fill="#4c78a8" rx="3"/>
<text x="452.86" y="174" class="value">102.40</text>
<text x="10" y="206" class="label">socialclub.rockstargames.com</text>
<rect x="180" y="190" width="268.4" height="22" fill="#4c78a8" rx="3"/>
<text x="456.4" y="206" class="value">103.77</text>
<text x="10" y="238" class="label">unrealengine.com</text>
<rect x="180" y="222" width="269.13" height="22" fill="#4c78a8" rx="3"/>
<text x="457.13" y="238" class="value">104.05</text>
<text x="10" y="270" class="label">battle.net</text>
<rect x="180" y="254" width="315.71" height="22" fill="#4c78a8" rx="3"/>
<text x="503.71" y="270" class="value">122.06</text>
<text x="10" y="302" class="label">fortnite.com</text>
<rect x="180" y="286" width="357.02" height="22" fill="#4c78a8" rx="3"/>
<text x="545.02" y="302" class="value">138.03</text>
<text x="10" y="334" class="label">static3.cdn.ubi.com</text>
<rect x="180" y="318" width="445.89" height="22" fill="#4c78a8" rx="3"/>
<text x="633.89" y="334" class="value">172.39</text>
<text x="10" y="366" class="label">epicgames.com</text>
<rect x="180" y="350" width="462.55" height="22" fill="#4c78a8" rx="3"/>
<text x="650.55" y="366" class="value">178.83</text>
<text x="10" y="398" class="label">www.steamcommunity.com</text>
<rect x="180" y="382" width="510.22" height="22" fill="#4c78a8" rx="3"/>
<text x="698.22" y="398" class="value">197.26</text>
<text x="10" y="430" class="label">origin.com</text>
<rect x="180" y="414" width="537.56" height="22" fill="#4c78a8" rx="3"/>
<text x="725.56" y="430" class="value">207.83</text>
<text x="10" y="462" class="label">cdn.akamai.steamstatic.com</text>
<rect x="180" y="446" width="567.17" height="22" fill="#4c78a8" rx="3"/>
<text x="755.17" y="462" class="value">219.28</text>
<text x="10" y="494" class="label">ubisoft.com</text>
<rect x="180" y="478" width="580.0" height="22" fill="#4c78a8" rx="3"/>
<text x="768.0" y="494" class="value">224.24</text>
<line x1="180" y1="30" x2="180" y2="520" stroke="#ccc"/>
<line x1="180" y1="520" x2="760" y2="520" stroke="#ccc"/>
</svg>