<svg xmlns="http://www.w3.org/2000/svg" width="800" height="540">
<style> .label{font-family:DejaVu Sans,Verdana,Geneva,sans-serif;font-size:12px;fill:#333} .value{font-family:DejaVu Sans,Verdana,Geneva,sans-serif;font-size:12px;fill:#555} </style>
<text x="10" y="20" class="label">延迟柱状图（越低越好，Top 15），单位 ms</text>
<text x="10" y="46" class="label">eaassets-a.akamaihd.net</text>
<rect x="180" y="30" width="120.69" height="22" fill="#4c78a8" rx="3"/>
<text x="308.69" y="46" class="value">60.31</text>
<text x="10" y="78" class="label">rockstargames.com</text>
<rect x="180" y="62" width="137.13" height="22" fill="#4c78a8" rx="3"/>
<text x="325.13" y="78" class="value">68.52</text>
<text x="10" y="110" class="label">ubisoft.com</text>
<rect x="180" y="94" width="148.59" height="22" fill="#4c78a8" rx="3"/>
<text x="336.59000000000003" y="110" class="value">74.25</text>
<text x="10" y="142" class="label">cdn.cloudflare.steamstatic.com</text>
<rect x="180" y="126" width="199.42" height="22" fill="#4c78a8" rx="3"/>
<text x="387.41999999999996" y="142" class="value">99.65</text>
<text x="10" y="174" class="label">steamcdn-a.akamaihd.net</text>
<rect x="180" y="158" width="218.02" height="22" fill="#4c78a8" rx="3"/>
<text x="406.02" y="174" class="value">108.94</text>
<text x="10" y="206" class="label">ea.com</text>
<rect x="180" y="190" width="229.36" height="22" fill="#4c78a8" rx="3"/>
<text x="417.36" y="206" class="value">114.61</text>
<text x="10" y="238" class="label">store.akamai.steamstatic.com</text>
<rect x="180" y="222" width="261.76" height="22" fill="#4c78a8" rx="3"/>
<text x="449.76" y="238" class="value">130.80</text>
<text x="10" y="270" class="label">origin.com</text>
<rect x="180" y="254" width="295.32" height="22" fill="#4c78a8" rx="3"/>
<text x="483.32" y="270" class="value">147.57</text>
<text x="10" y="302" class="label">community.akamai.steamstatic.com</text>
<rect x="180" y="286" width="316.36" height="22" fill="#4c78a8" rx="3"/>
<text x="504.36" y="302" class="value">158.08</text>
<text x="10" y="334" class="label">cdn.akamai.steamstatic.com</text>
<rect x="180" y="318" width="357.64" height="22" fill="#4c78a8" rx="3"/>
<text x="545.64" y="334" class="value">178.71</text>
<text x="10" y="366" class="label">easyanticheat.net</text>
<rect x="180" y="350" width="378.07" height="22" fill="#4c78a8" rx="3"/>
<text x="566.0699999999999" y="366" class="value">188.92</text>
<text x="10" y="398" class="label">api.steampowered.com</text>
<rect x="180" y="382" width="470.19" height="22" fill="#4c78a8" rx="3"/>
<text x="658.19" y="398" class="value">234.95</text>
<text x="10" y="430" class="label">steam-chat.com</text>
<rect x="180" y="414" width="481.5" height="22" fill="#4c78a8" rx="3"/>
<text x="669.5" y="430" class="value">240.60</text>
<text x="10" y="462" class="label">www.steamcommunity.com</text>
<rect x="180" y="446" width="512.76" height="22" fill="#4c78a8" rx="3"/>
<text x="700.76" y="462" class="value">256.22</text>
<text x="10" y="494" class="label">ubi.com</text>
<rect x="180" y="478" width="580.0" height="22" fill="#4c78a8" rx="3"/>
<text x="768.0" y="494" class="value">289.82</text>
<line x1="180" y1="30" x2="180" y2="520" stroke="#ccc"/>
<line x1="180" y1="520" x2="760" y2="520" stroke="#ccc"/>
</svg>