<svg xmlns="http://www.w3.org/2000/svg" width="800" height="540">
<style> .label{font-family:DejaVu Sans,Verdana,Geneva,sans-serif;font-size:12px;fill:#333} .value{font-family:DejaVu Sans,Verdana,Geneva,sans-serif;font-size:12px;fill:#555} </style>
<text x="10" y="20" class="label">延迟柱状图（越低越好，Top 15），单位 ms</text>
<text x="10" y="46" class="label">rockstargames.com</text>
<rect x="180" y="30" width="261.56" height="22" fill="#4c78a8" rx="3"/>
<text x="449.56" y="46" class="value">108.81</text>
<text x="10" y="78" class="label">ubisoft.com</text>
<rect x="180" y="62" width="314.66" height="22" fill="#4c78a8" rx="3"/>
<text x="502.66" y="78" class="value">130.90</text>
<text x="10" y="110" class="label">eaassets-a.akamaihd.net</text>
<rect x="180" y="94" width="343.89" height="22" fill="#4c78a8" rx="3"/>
<text x="531.89" y="110" class="value">143.06</text>
<text x="10" y="142" class="label">origin.com</text>
<rect x="180" y="126" width="357.86" height="22" fill="#4c78a8" rx="3"/>
<text x="545.86" y="142" class="value">148.87</text>
<text x="10" y="174" class="label">store.akamai.steamstatic.com</text>
<rect x="180" y="158" width="370.58" height="22" fill="#4c78a8" rx="3"/>
<text x="558.5799999999999" y="174" class="value">154.16</text>
<text x="10" y="206" class="label">ea.com</text>
<rect x="180" y="190" width="383.85" height="22" fill="#4c78a8" rx="3"/>
<text x="571.85" y="206" class="value">159.68</text>
<text x="10" y="238" class="label">blizzard.com</text>
<rect x="180" y="222" width="439.57" height="22" fill="#4c78a8" rx="3"/>
<text x="627.5699999999999" y="238" class="value">182.86</text>
<text x="10" y="270" class="label">easyanticheat.net</text>
<rect x="180" y="254" width="440.24" height="22" fill="#4c78a8" rx="3"/>
<text x="628.24" y="270" class="value">183.14</text>
<text x="10" y="302" class="label">battle.net</text>
<rect x="180" y="286" width="448.27" height="22" fill="#4c78a8" rx="3"/>
<text x="636.27" y="302" class="value">186.48</text>
<text x="10" y="334" class="label">steamcdn-a.akamaihd.net</text>
<rect x="180" y="318" width="458.34" height="22" fill="#4c78a8" rx="3"/>
<text x="646.3399999999999" y="334" class="value">190.67</text>
<text x="10" y="366" class="label">cdn.akamai.steamstatic.com</text>
<rect x="180" y="350" width="488.58" height="22" fill="#4c78a8" rx="3"/>
<text x="676.5799999999999" y="366" class="value">203.25</text>
<text x="10" y="398" class="label">api.steampowered.com</text>
<rect x="180" y="382" width="505.48" height="22" fill="#4c78a8" rx="3"/>
<text x="693.48" y="398" class="value">210.28</text>
<text x="10" y="430" class="label">steam-chat.com</text>
<rect x="180" y="414" width="516.59" height="22" fill="#4c78a8" rx="3"/>
<text x="704.59" y="430" class="value">214.90</text>
<text x="10" y="462" class="label">ubi.com</text>
<rect x="180" y="446" width="523.73" height="22" fill="#4c78a8" rx="3"/>
<text x="711.73" y="462" class="value">217.87</text>
<text x="10" y="494" class="label">community.akamai.steamstatic.com</text>
<rect x="180" y="478" width="580.0" height="22" fill="#4c78a8" rx="3"/>
<text x="768.0" y="494" class="value">241.28</text>
<line x1="180" y1="30" x2="180" y2="520" stroke="#ccc"/>
<line x1="180" y1="520" x2="760" y2="520" stroke="#ccc"/>
</svg>