<svg xmlns="http://www.w3.org/2000/svg" width="800" height="540">
<style> .label{font-family:DejaVu Sans,Verdana,Geneva,sans-serif;font-size:12px;fill:#333} .value{font-family:DejaVu Sans,Verdana,Geneva,sans-serif;font-size:12px;fill:#555} </style>
<text x="10" y="20" class="label">延迟柱状图（越低越好，Top 15），单位 ms</text>
<text x="10" y="46" class="label">community.akamai.steamstatic.com</text>
<rect x="180" y="30" width="362.16" height="22" fill="#4c78a8" rx="3"/>
<text x="550.1600000000001" y="46" class="value">150.64</text>
<text x="10" y="78" class="label">rockstargames.com</text>
<rect x="180" y="62" width="364.04" height="22" fill="#4c78a8" rx="3"/>
<text x="552.04" y="78" class="value">151.42</text>
<text x="10" y="110" class="label">ubi.com</text>
<rect x="180" y="94" width="414.72" height="22" fill="#4c78a8" rx="3"/>
<text x="602.72" y="110" class="value">172.50</text>
<text x="10" y="142" class="label">ubisoft.com</text>
<rect x="180" y="126" width="414.84" height="22" fill="#4c78a8" rx="3"/>
<text x="602.8399999999999" y="142" class="value">172.55</text>
<text x="10" y="174" class="label">battle.net</text>
<rect x="180" y="158" width="437.43" height="22" fill="#4c78a8" rx="3"/>
<text x="625.4300000000001" y="174" class="value">181.95</text>
<text x="10" y="206" class="label">eaassets-a.akamaihd.net</text>
<rect x="180" y="190" width="441.02" height="22" fill="#4c78a8" rx="3"/>
<text x="629.02" y="206" class="value">183.44</text>
<text x="10" y="238" class="label">blizzard.com</text>
<rect x="180" y="222" width="444.14" height="22" fill="#4c78a8" rx="3"/>
<text x="632.14" y="238" class="value">184.74</text>
<text x="10" y="270" class="label">ea.com</text>
<rect x="180" y="254" width="447.7" height="22" fill="#4c78a8" rx="3"/>
<text x="635.7" y="270" class="value">186.22</text>
<text x="10" y="302" class="label">steam-chat.com</text>
<rect x="180" y="286" width="469.84" height="22" fill="#4c78a8" rx="3"/>
<text x="657.8399999999999" y="302" class="value">195.43</text>
<text x="10" y="334" class="label">cdn.cloudflare.steamstatic.com</text>
<rect x="180" y="318" width="476.62" height="22" fill="#4c78a8" rx="3"/>
<text x="664.62" y="334" class="value">198.25</text>
<text x="10" y="366" class="label">socialclub.rockstargames.com</text>
<rect x="180" y="350" width="503.12" height="22" fill="#4c78a8" rx="3"/>
<text x="691.12" y="366" class="value">209.27</text>
<text x="10" y="398" class="label">epicgames.com</text>
<rect x="180" y="382" width="524.68" height="22" fill="#4c78a8" rx="3"/>
<text x="712.68" y="398" class="value">218.24</text>
<text x="10" y="430" class="label">easyanticheat.net</text>
<rect x="180" y="414" width="530.76" height="22" fill="#4c78a8" rx="3"/>
<text x="718.76" y="430" class="value">220.77</text>
<text x="10" y="462" class="label">cdn.akamai.steamstatic.com</text>
<rect x="180" y="446" width="561.56" height="22" fill="#4c78a8" rx="3"/>
<text x="749.56" y="462" class="value">233.58</text>
<text x="10" y="494" class="label">api.steampowered.com</text>
<rect x="180" y="478" width="580.0" height="22" fill="#4c78a8" rx="3"/>
<text x="768.0" y="494" class="value">241.25</text>
<line x1="180" y1="30" x2="180" y2="520" stroke="#ccc"/>
<line x1="180" y1="520" x2="760" y2="520" stroke="#ccc"/>
</svg>