<svg xmlns="http://www.w3.org/2000/svg" width="800" height="540">
<style> .label{font-family:DejaVu Sans,Verdana,Geneva,sans-serif;font-size:12px;fill:#333} .value{font-family:DejaVu Sans,Verdana,Geneva,sans-serif;font-size:12px;fill:#555} </style>
<text x="10" y="20" class="label">延迟柱状图（越低越好，Top 15），单位 ms</text>
<text x="10" y="46" class="label">rockstargames.com</text>
<rect x="180" y="30" width="79.47" height="22" fill="#4c78a8" rx="3"/>
<text x="267.47" y="46" class="value">31.53</text>
<text x="10" y="78" class="label">eaassets-a.akamaihd.net</text>
<rect x="180" y="62" width="143.31" height="22" fill="#4c78a8" rx="3"/>
<text x="331.31" y="78" class="value">56.86</text>
<text x="10" y="110" class="label">ea.com</text>
<rect x="180" y="94" width="185.7" height="22" fill="#4c78a8" rx="3"/>
<text x="373.7" y="110" class="value">73.68</text>
<text x="10" y="142" class="label">cdn.cloudflare.steamstatic.com</text>
<rect x="180" y="126" width="287.01" height="22" fill="#4c78a8" rx="3"/>
<text x="475.01" y="142" class="value">113.88</text>
<text x="10" y="174" class="label">ubisoft.com</text>
<rect x="180" y="158" width="308.41" height="22" fill="#4c78a8" rx="3"/>
<text x="496.41" y="174" class="value">122.37</text>
<text x="10" y="206" class="label">store.akamai.steamstatic.com</text>
<rect x="180" y="190" width="356.7" height="22" fill="#4c78a8" rx="3"/>
<text x="544.7" y="206" class="value">141.53</text>
<text x="10" y="238" class="label">origin.com</text>
<rect x="180" y="222" width="366.25" height="22" fill="#4c78a8" rx="3"/>
<text x="554.25" y="238" class="value">145.32</text>
<text x="10" y="270" class="label">easyanticheat.net</text>
<rect x="180" y="254" width="424.65" height="22" fill="#4c78a8" rx="3"/>
<text x="612.65" y="270" class="value">168.49</text>
<text x="10" y="302" class="label">steamcdn-a.akamaihd.net</text>
<rect x="180" y="286" width="440.65" height="22" fill="#4c78a8" rx="3"/>
<text x="628.65" y="302" class="value">174.84</text>
<text x="10" y="334" class="label">community.akamai.steamstatic.com</text>
<rect x="180" y="318" width="444.66" height="22" fill="#4c78a8" rx="3"/>
<text x="632.6600000000001" y="334" class="value">176.43</text>
<text x="10" y="366" class="label">cdn.akamai.steamstatic.com</text>
<rect x="180" y="350" width="445.16" height="22" fill="#4c78a8" rx="3"/>
<text x="633.1600000000001" y="366" class="value">176.63</text>
<text x="10" y="398" class="label">gog.com</text>
<rect x="180" y="382" width="500.48" height="22" fill="#4c78a8" rx="3"/>
<text x="688.48" y="398" class="value">198.58</text>
<text x="10" y="430" class="label">static3.cdn.ubi.com</text>
<rect x="180" y="414" width="510.14" height="22" fill="#4c78a8" rx="3"/>
<text x="698.14" y="430" class="value">202.41</text>
<text x="10" y="462" class="label">steam-chat.com</text>
<rect x="180" y="446" width="569.26" height="22" fill="#4c78a8" rx="3"/>
<text x="757.26" y="462" class="value">225.87</text>
<text x="10" y="494" class="label">www.steamcommunity.com</text>
<rect x="180" y="478" width="580.0" height="22" fill="#4c78a8" rx="3"/>
<text x="768.0" y="494" class="value">230.13</text>
<line x1="180" y1="30" x2="180" y2="520" stroke="#ccc"/>
<line x1="180" y1="520" x2="760" y2="520" stroke="#ccc"/>
</svg>