<svg xmlns="http://www.w3.org/2000/svg" width="800" height="540">
<style> .label{font-family:DejaVu Sans,Verdana,Geneva,sans-serif;font-size:12px;fill:#333} .value{font-family:DejaVu Sans,Verdana,Geneva,sans-serif;font-size:12px;fill:#555} </style>
<text x="10" y="20" class="label">延迟柱状图（越低越好，Top 15），单位 ms</text>
<text x="10" y="46" class="label">eaassets-a.akamaihd.net</text>
<rect x="180" y="30" width="187.84" height="22" fill="#4c78a8" rx="3"/>
<text x="375.84000000000003" y="46" class="value">63.43</text>
<text x="10" y="78" class="label">socialclub.rockstargames.com</text>
<rect x="180" y="62" width="201.35" height="22" fill="#4c78a8" rx="3"/>
<text x="389.35" y="78" class="value">67.99</text>
<text x="10" y="110" class="label">rockstargames.com</text>
<rect x="180" y="94" width="221.16" height="22" fill="#4c78a8" rx="3"/>
<text x="409.15999999999997" y="110" class="value">74.68</text>
<text x="10" y="142" class="label">battle.net</text>
<rect x="180" y="126" width="253.56" height="22" fill="#4c78a8" rx="3"/>
<text x="441.56" y="142" class="value">85.62</text>
<text x="10" y="174" class="label">fortnite.com</text>
<rect x="180" y="158" width="258.53" height="22" fill="#4c78a8" rx="3"/>
<text x="446.53" y="174" class="value">87.30</text>
<text x="10" y="206" class="label">blizzard.com</text>
<rect x="180" y="190" width="305.86" height="22" fill="#4c78a8" rx="3"/>
<text x="493.86" y="206" class="value">103.28</text>
<text x="10" y="238" class="label">ubi.com</text>
<rect x="180" y="222" width="309.15" height="22" fill="#4c78a8" rx="3"/>
<text x="497.15" y="238" class="value">104.39</text>
<text x="10" y="270" class="label">cdn.akamai.steamstatic.com</text>
<rect x="180" y="254" width="379.63" height="22" fill="#4c78a8" rx="3"/>
<text x="567.63" y="270" class="value">128.19</text>
<text x="10" y="302" class="label">epicgames.com</text>
<rect x="180" y="286" width="403.08" height="22" fill="#4c78a8" rx="3"/>
<text x="591.0799999999999" y="302" class="value">136.11</text>
<text x="10" y="334" class="label">ubisoft.com</text>
<rect x="180" y="318" width="409.66" height="22" fill="#4c78a8" rx="3"/>
<text x="597.6600000000001" y="334" class="value">138.33</text>
<text x="10" y="366" class="label">store.akamai.steamstatic.com</text>
<rect x="180" y="350" width="430.92" height="22" fill="#4c78a8" rx="3"/>
<text x="618.9200000000001" y="366" class="value">145.51</text>
<text x="10" y="398" class="label">unrealengine.com</text>
<rect x="180" y="382" width="461.72" height="22" fill="#4c78a8" rx="3"/>
<text x="649.72" y="398" class="value">155.91</text>
<text x="10" y="430" class="label">ea.com</text>
<rect x="180" y="414" width="551.45" height="22" fill="#4c78a8" rx="3"/>
<text x="739.45" y="430" class="value">186.21</text>
<text x="10" y="462" class="label">cdn.cloudflare.steamstatic.com</text>
<rect x="180" y="446" width="577.31" height="22" fill="#4c78a8" rx="3"/>
<text x="765.31" y="462" class="value">194.94</text>
<text x="10" y="494" class="label">steamcdn-a.akamaihd.net</text>
<rect x="180" y="478" width="580.0" height="22" fill="#4c78a8" rx="3"/>
<text x="768.0" y="494" class="value">195.85</text>
<line x1="180" y1="30" x2="180" y2="520" stroke="#ccc"/>
<line x1="180" y1="520" x2="760" y2="520" stroke="#ccc"/>
</svg>