<svg xmlns="http://www.w3.org/2000/svg" width="800" height="540">
<style> .label{font-family:DejaVu Sans,Verdana,Geneva,sans-serif;font-size:12px;fill:#333} .value{font-family:DejaVu Sans,Verdana,Geneva,sans-serif;font-size:12px;fill:#555} </style>
<text x="10" y="20" class="label">延迟柱状图（越低越好，Top 15），单位 ms</text>
<text x="10" y="46" class="label">rockstargames.com</text>
<rect x="180" y="30" width="115.31" height="22" fill="#4c78a8" rx="3"/>
<text x="303.31" y="46" class="value">46.24</text>
<text x="10" y="78" class="label">ea.com</text>
<rect x="180" y="62" width="193.29" height="22" fill="#4c78a8" rx="3"/>
<text x="381.28999999999996" y="78" class="value">77.51</text>
<text x="10" y="110" class="label">eaassets-a.akamaihd.net</text>
<rect x="180" y="94" width="200.3" height="22" fill="#4c78a8" rx="3"/>
<text x="388.3" y="110" class="value">80.32</text>
<text x="10" y="142" class="label">steamcdn-a.akamaihd.net</text>
<rect x="180" y="126" width="213.57" height="22" fill="#4c78a8" rx="3"/>
<text x="401.57" y="142" class="value">85.64</text>
<text x="10" y="174" class="label">origin.com</text>
<rect x="180" y="158" width="220.5" height="22" fill="#4c78a8" rx="3"/>
<text x="408.5" y="174" class="value">88.42</text>
<text x="10" y="206" class="label">ubisoft.com</text>
<rect x="180" y="190" width="228.68" height="22" fill="#4c78a8" rx="3"/>
<text x="416.68" y="206" class="value">91.70</text>
<text x="10" y="238" class="label">cdn.cloudflare.steamstatic.com</text>
<rect x="180" y="222" width="248.53" height="22" fill="#4c78a8" rx="3"/>
<text x="436.53" y="238" class="value">99.66</text>
<text x="10" y="270" class="label">store.akamai.steamstatic.com</text>
<rect x="180" y="254" width="274.04" height="22" fill="#4c78a8" rx="3"/>
<text x="462.04" y="270" class="value">109.89</text>
<text x="10" y="302" class="label">cdn.akamai.steamstatic.com</text>
<rect x="180" y="286" width="279.28" height="22" fill="#4c78a8" rx="3"/>
<text x="467.28" y="302" class="value">111.99</text>
<text x="10" y="334" class="label">community.akamai.steamstatic.com</text>
<rect x="180" y="318" width="369.03" height="22" fill="#4c78a8" rx="3"/>
<text x="557.03" y="334" class="value">147.98</text>
<text x="10" y="366" class="label">api.steampowered.com</text>
<rect x="180" y="350" width="422.04" height="22" fill="#4c78a8" rx="3"/>
<text x="610.04" y="366" class="value">169.24</text>
<text x="10" y="398" class="label">easyanticheat.net</text>
<rect x="180" y="382" width="465.61" height="22" fill="#4c78a8" rx="3"/>
<text x="653.61" y="398" class="value">186.71</text>
<text x="10" y="430" class="label">steam-chat.com</text>
<rect x="180" y="414" width="495.44" height="22" fill="#4c78a8" rx="3"/>
<text x="683.44" y="430" class="value">198.67</text>
<text x="10" y="462" class="label">www.steamcommunity.com</text>
<rect x="180" y="446" width="559.63" height="22" fill="#4c78a8" rx="3"/>
<text x="747.63" y="462" class="value">224.41</text>
<text x="10" y="494" class="label">launcher-public-service-prod06.ol.epicgames.com</text>
<rect x="180" y="478" width="580.0" height="22" fill="#4c78a8" rx="3"/>
<text x="768.0" y="494" class="value">232.58</text>
<line x1="180" y1="30" x2="180" y2="520" stroke="#ccc"/>
<line x1="180" y1="520" x2="760" y2="520" stroke="#ccc"/>
</svg>