<svg xmlns="http://www.w3.org/2000/svg" width="800" height="540">
<style> .label{font-family:DejaVu Sans,Verdana,Geneva,sans-serif;font-size:12px;fill:#333} .value{font-family:DejaVu Sans,Verdana,Geneva,sans-serif;font-size:12px;fill:#555} </style>
<text x="10" y="20" class="label">延迟柱状图（越低越好，Top 15），单位 ms</text>
<text x="10" y="46" class="label">store.akamai.steamstatic.com</text>
<rect x="180" y="30" width="293.96" height="22" fill="#4c78a8" rx="3"/>
<text x="481.96" y="46" class="value">135.13</text>
<text x="10" y="78" class="label">steamcdn-a.akamaihd.net</text>
<rect x="180" y="62" width="350.26" height="22" fill="#4c78a8" rx="3"/>
<text x="538.26" y="78" class="value">161.01</text>
<text x="10" y="110" class="label">easyanticheat.net</text>
<rect x="180" y="94" width="355.02" height="22" fill="#4c78a8" rx="3"/>
<text x="543.02" y="110" class="value">163.20</text>
<text x="10" y="142" class="label">ubisoft.com</text>
<rect x="180" y="126" width="363.59" height="22" fill="#4c78a8" rx="3"/>
<text x="551.5899999999999" y="142" class="value">167.14</text>
<text x="10" y="174" class="label">eaassets-a.akamaihd.net</text>
<rect x="180" y="158" width="369.16" height="22" fill="#4c78a8" rx="3"/>
<text x="557.1600000000001" y="174" class="value">169.70</text>
<text x="10" y="206" class="label">community.akamai.steamstatic.com</text>
<rect x="180" y="190" width="369.23" height="22" fill="#4c78a8" rx="3"/>
<text x="557.23" y="206" class="value">169.73</text>
<text x="10" y="238" class="label">cdn.cloudflare.steamstatic.com</text>
<rect x="180" y="222" width="391.07" height="22" fill="#4c78a8" rx="3"/>
<text x="579.0699999999999" y="238" class="value">179.77</text>
<text x="10" y="270" class="label">cdn.akamai.steamstatic.com</text>
<rect x="180" y="254" width="416.15" height="22" fill="#4c78a8" rx="3"/>
<text x="604.15" y="270" class="value">191.30</text>
<text x="10" y="302" class="label">rockstargames.com</text>
<rect x="180" y="286" width="432.01" height="22" fill="#4c78a8" rx="3"/>
<text x="620.01" y="302" class="value">198.59</text>
<text x="10" y="334" class="label">ubi.com</text>
<rect x="180" y="318" width="486.05" height="22" fill="#4c78a8" rx="3"/>
<text x="674.05" y="334" class="value">223.43</text>
<text x="10" y="366" class="label">launcher-public-service-prod06.ol.epicgames.com</text>
<rect x="180" y="350" width="545.19" height="22" fill="#4c78a8" rx="3"/>
<text x="733.19" y="366" class="value">250.62</text>
<text x="10" y="398" class="label">epicgames.com</text>
<rect x="180" y="382" width="553.03" height="22" fill="#4c78a8" rx="3"/>
<text x="741.03" y="398" class="value">254.22</text>
<text x="10" y="430" class="label">unrealengine.com</text>
<rect x="180" y="414" width="556.35" height="22" fill="#4c78a8" rx="3"/>
<text x="744.35" y="430" class="value">255.75</text>
<text x="10" y="462" class="label">api.steampowered.com</text>
<rect x="180" y="446" width="573.21" height="22" fill="#4c78a8" rx="3"/>
<text x="761.21" y="462" class="value">263.50</text>
<text x="10" y="494" class="label">fortnite.com</text>
<rect x="180" y="478" width="580.0" height="22" fill="#4c78a8" rx="3"/>
<text x="768.0" y="494" class="value">266.62</text>
<line x1="180" y1="30" x2="180" y2="520" stroke="#ccc"/>
<line x1="180" y1="520" x2="760" y2="520" stroke="#ccc"/>
</svg>