<svg xmlns="http://www.w3.org/2000/svg" width="800" height="540">
<style> .label{font-family:DejaVu Sans,Verdana,Geneva,sans-serif;font-size:12px;fill:#333} .value{font-family:DejaVu Sans,Verdana,Geneva,sans-serif;font-size:12px;fill:#555} </style>
<text x="10" y="20" class="label">延迟柱状图（越低越好，Top 15），单位 ms</text>
<text x="10" y="46" class="label">origin.com</text>
<rect x="180" y="30" width="215.61" height="22" fill="#4c78a8" rx="3"/>
<text x="403.61" y="46" class="value">62.63</text>
<text x="10" y="78" class="label">rockstargames.com</text>
<rect x="180" y="62" width="301.22" height="22" fill="#4c78a8" rx="3"/>
<text x="489.22" y="78" class="value">87.50</text>
<text x="10" y="110" class="label">eaassets-a.akamaihd.net</text>
<rect x="180" y="94" width="322.43" height="22" fill="#4c78a8" rx="3"/>
<text x="510.43" y="110" class="value">93.66</text>
<text x="10" y="142" class="label">store.akamai.steamstatic.com</text>
<rect x="180" y="126" width="340.88" height="22" fill="#4c78a8" rx="3"/>
<text x="528.88" y="142" class="value">99.02</text>
<text x="10" y="174" class="label">community.akamai.steamstatic.com</text>
<rect x="180" y="158" width="379.82" height="22" fill="#4c78a8" rx="3"/>
<text x="567.8199999999999" y="174" class="value">110.33</text>
<text x="10" y="206" class="label">ubisoft.com</text>
<rect x="180" y="190" width="386.87" height="22" fill="#4c78a8" rx="3"/>
<text x="574.87" y="206" class="value">112.38</text>
<text x="10" y="238" class="label">blizzard.com</text>
<rect x="180" y="222" width="438.24" height="22" fill="#4c78a8" rx="3"/>
<text x="626.24" y="238" class="value">127.30</text>
<text x="10" y="270" class="label">battle.net</text>
<rect x="180" y="254" width="439.72" height="22" fill="#4c78a8" rx="3"/>
<text x="627.72" y="270" class="value">127.73</text>
<text x="10" y="302" class="label">ubi.com</text>
<rect x="180" y="286" width="472.01" height="22" fill="#4c78a8" rx="3"/>
<text x="660.01" y="302" class="value">137.11</text>
<text x="10" y="334" class="label">cdn.cloudflare.steamstatic.com</text>
<rect x="180" y="318" width="513.94" height="22" fill="#4c78a8" rx="3"/>
<text x="701.94" y="334" class="value">149.29</text>
<text x="10" y="366" class="label">socialclub.rockstargames.com</text>
<rect x="180" y="350" width="528.05" height="22" fill="#4c78a8" rx="3"/>
<text x="716.05" y="366" class="value">153.39</text>
<text x="10" y="398" class="label">static3.cdn.ubi.com</text>
<rect x="180" y="382" width="540.34" height="22" fill="#4c78a8" rx="3"/>
<text x="728.34" y="398" class="value">156.96</text>
<text x="10" y="430" class="label">ea.com</text>
<rect x="180" y="414" width="549.15" height="22" fill="#4c78a8" rx="3"/>
<text x="737.15" y="430" class="value">159.52</text>
<text x="10" y="462" class="label">gog.com</text>
<rect x="180" y="446" width="573.32" height="22" fill="#4c78a8" rx="3"/>
<text x="761.32" y="462" class="value">166.54</text>
<text x="10" y="494" class="label">launcher-public-service-prod06.ol.epicgames.com</text>
<rect x="180" y="478" width="580.0" height="22" fill="#4c78a8" rx="3"/>
<text x="768.0" y="494" class="value">168.48</text>
<line x1="180" y1="30" x2="180" y2="520" stroke="#ccc"/>
<line x1="180" y1="520" x2="760" y2="520" stroke="#ccc"/>
</svg>