<svg xmlns="http://www.w3.org/2000/svg" width="800" height="540">
<style> .label{font-family:DejaVu Sans,Verdana,Geneva,sans-serif;font-size:12px;fill:#333} .value{font-family:DejaVu Sans,Verdana,Geneva,sans-serif;font-size:12px;fill:#555} </style>
<text x="10" y="20" class="label">延迟柱状图（越低越好，Top 15），单位 ms</text>
<text x="10" y="46" class="label">eaassets-a.akamaihd.net</text>
<rect x="180" y="30" width="270.84" height="22" fill="#4c78a8" rx="3"/>
<text x="458.84" y="46" class="value">132.64</text>
<text x="10" y="78" class="label">ubisoft.com</text>
<rect x="180" y="62" width="272.59" height="22" fill="#4c78a8" rx="3"/>
<text x="460.59" y="78" class="value">133.50</text>
<text x="10" y="110" class="label">cdn.akamai.steamstatic.com</text>
<rect x="180" y="94" width="279.62" height="22" fill="#4c78a8" rx="3"/>
<text x="467.62" y="110" class="value">136.94</text>
<text x="10" y="142" class="label">cdn.cloudflare.steamstatic.com</text>
<rect x="180" y="126" width="358.17" height="22" fill="#4c78a8" rx="3"/>
<text x="546.1700000000001" y="142" class="value">175.41</text>
<text x="10" y="174" class="label">rockstargames.com</text>
<rect x="180" y="158" width="361.78" height="22" fill="#4c78a8" rx="3"/>
<text x="549.78" y="174" class="value">177.18</text>
<text x="10" y="206" class="label">blizzard.com</text>
<rect x="180" y="190" width="376.79" height="22" fill="#4c78a8" rx="3"/>
<text x="564.79" y="206" class="value">184.53</text>
<text x="10" y="238" class="label">origin.com</text>
<rect x="180" y="222" width="432.27" height="22" fill="#4c78a8" rx="3"/>
<text x="620.27" y="238" class="value">211.70</text>
<text x="10" y="270" class="label">store.akamai.steamstatic.com</text>
<rect x="180" y="254" width="445.09" height="22" fill="#4c78a8" rx="3"/>
<text x="633.0899999999999" y="270" class="value">217.98</text>
<text x="10" y="302" class="label">ubi.com</text>
<rect x="180" y="286" width="446.56" height="22" fill="#4c78a8" rx="3"/>
<text x="634.56" y="302" class="value">218.70</text>
<text x="10" y="334" class="label">easyanticheat.net</text>
<rect x="180" y="318" width="475.62" height="22" fill="#4c78a8" rx="3"/>
<text x="663.62" y="334" class="value">232.93</text>
<text x="10" y="366" class="label">steamcommunity.com</text>
<rect x="180" y="350" width="480.19" height="22" fill="#4c78a8" rx="3"/>
<text x="668.19" y="366" class="value">235.17</text>
<text x="10" y="398" class="label">steamcdn-a.akamaihd.net</text>
<rect x="180" y="382" width="521.7" height="22" fill="#4c78a8" rx="3"/>
<text x="709.7" y="398" class="value">255.50</text>
<text x="10" y="430" class="label">socialclub.rockstargames.com</text>
<rect x="180" y="414" width="535.98" height="22" fill="#4c78a8" rx="3"/>
<text x="723.98" y="430" class="value">262.49</text>
<text x="10" y="462" class="label">fortnite.com</text>
<rect x="180" y="446" width="550.76" height="22" fill="#4c78a8" rx="3"/>
<text x="738.76" y="462" class="value">269.73</text>
<text x="10" y="494" class="label">api.steampowered.com</text>
<rect x="180" y="478" width="580.0" height="22" fill="#4c78a8" rx="3"/>
<text x="768.0" y="494" class="value">284.05</text>
<line x1="180" y1="30" x2="180" y2="520" stroke="#ccc"/>
<line x1="180" y1="520" x2="760" y2="520" stroke="#ccc"/>
</svg>