<svg xmlns="http://www.w3.org/2000/svg" width="800" height="540">
<style> .label{font-family:DejaVu Sans,Verdana,Geneva,sans-serif;font-size:12px;fill:#333} .value{font-family:DejaVu Sans,Verdana,Geneva,sans-serif;font-size:12px;fill:#555} </style>
<text x="10" y="20" class="label">延迟柱状图（越低越好，Top 15），单位 ms</text>
<text x="10" y="46" class="label">rockstargames.com</text>
<rect x="180" y="30" width="73.5" height="22" fill="#4c78a8" rx="3"/>
<text x="261.5" y="46" class="value">31.38</text>
<text x="10" y="78" class="label">eaassets-a.akamaihd.net</text>
<rect x="180" y="62" width="94.77" height="22" fill="#4c78a8" rx="3"/>
<text x="282.77" y="78" class="value">40.46</text>
<text x="10" y="110" class="label">steamcdn-a.akamaihd.net</text>
<rect x="180" y="94" width="176.16" height="22" fill="#4c78a8" rx="3"/>
<text x="364.15999999999997" y="110" class="value">75.21</text>
<text x="10" y="142" class="label">ea.com</text>
<rect x="180" y="126" width="184.82" height="22" fill="#4c78a8" rx="3"/>
<text x="372.82" y="142" class="value">78.91</text>
<text x="10" y="174" class="label">community.akamai.steamstatic.com</text>
<rect x="180" y="158" width="220.1" height="22" fill="#4c78a8" rx="3"/>
<text x="408.1" y="174" class="value">93.97</text>
<text x="10" y="206" class="label">origin.com</text>
<rect x="180" y="190" width="239.54" height="22" fill="#4c78a8" rx="3"/>
<text x="427.53999999999996" y="206" class="value">102.27</text>
<text x="10" y="238" class="label">easyanticheat.net</text>
<rect x="180" y="222" width="339.01" height="22" fill="#4c78a8" rx="3"/>
<text x="527.01" y="238" class="value">144.74</text>
<text x="10" y="270" class="label">cdn.akamai.steamstatic.com</text>
<rect x="180" y="254" width="374.14" height="22" fill="#4c78a8" rx="3"/>
<text x="562.14" y="270" class="value">159.74</text>
<text x="10" y="302" class="label">store.akamai.steamstatic.com</text>
<rect x="180" y="286" width="413.87" height="22" fill="#4c78a8" rx="3"/>
<text x="601.87" y="302" class="value">176.70</text>
<text x="10" y="334" class="label">cdn.cloudflare.steamstatic.com</text>
<rect x="180" y="318" width="431.32" height="22" fill="#4c78a8" rx="3"/>
<text x="619.3199999999999" y="334" class="value">184.15</text>
<text x="10" y="366" class="label">api.steampowered.com</text>
<rect x="180" y="350" width="488.49" height="22" fill="#4c78a8" rx="3"/>
<text x="676.49" y="366" class="value">208.56</text>
<text x="10" y="398" class="label">www.steamcommunity.com</text>
<rect x="180" y="382" width="516.71" height="22" fill="#4c78a8" rx="3"/>
<text x="704.71" y="398" class="value">220.61</text>
<text x="10" y="430" class="label">launcher-public-service-prod06.ol.epicgames.com</text>
<rect x="180" y="414" width="524.35" height="22" fill="#4c78a8" rx="3"/>
<text x="712.35" y="430" class="value">223.87</text>
<text x="10" y="462" class="label">steam-chat.com</text>
<rect x="180" y="446" width="537.63" height="22" fill="#4c78a8" rx="3"/>
<text x="725.63" y="462" class="value">229.54</text>
<text x="10" y="494" class="label">ubisoft.com</text>
<rect x="180" y="478" width="580.0" height="22" fill="#4c78a8" rx="3"/>
<text x="768.0" y="494" class="value">247.63</text>
<line x1="180" y1="30" x2="180" y2="520" stroke="#ccc"/>
<line x1="180" y1="520" x2="760" y2="520" stroke="#ccc"/>
</svg>