<svg xmlns="http://www.w3.org/2000/svg" width="800" height="540">
<style> .label{font-family:DejaVu Sans,Verdana,Geneva,sans-serif;font-size:12px;fill:#333} .value{font-family:DejaVu Sans,Verdana,Geneva,sans-serif;font-size:12px;fill:#555} </style>
<text x="10" y="20" class="label">延迟柱状图（越低越好，Top 15），单位 ms</text>
<text x="10" y="46" class="label">socialclub.rockstargames.com</text>
<rect x="180" y="30" width="213.17" height="22" fill="#4c78a8" rx="3"/>
<text x="401.16999999999996" y="46" class="value">76.10</text>
<text x="10" y="78" class="label">eaassets-a.akamaihd.net</text>
<rect x="180" y="62" width="241.68" height="22" fill="#4c78a8" rx="3"/>
<text x="429.68" y="78" class="value">86.28</text>
<text x="10" y="110" class="label">battle.net</text>
<rect x="180" y="94" width="255.32" height="22" fill="#4c78a8" rx="3"/>
<text x="443.32" y="110" class="value">91.15</text>
<text x="10" y="142" class="label">blizzard.com</text>
<rect x="180" y="126" width="262.13" height="22" fill="#4c78a8" rx="3"/>
<text x="450.13" y="142" class="value">93.58</text>
<text x="10" y="174" class="label">ubi.com</text>
<rect x="180" y="158" width="274.68" height="22" fill="#4c78a8" rx="3"/>
<text x="462.68" y="174" class="value">98.06</text>
<text x="10" y="206" class="label">rockstargames.com</text>
<rect x="180" y="190" width="308.26" height="22" fill="#4c78a8" rx="3"/>
<text x="496.26" y="206" class="value">110.05</text>
<text x="10" y="238" class="label">ea.com</text>
<rect x="180" y="222" width="342.89" height="22" fill="#4c78a8" rx="3"/>
<text x="530.89" y="238" class="value">122.41</text>
<text x="10" y="270" class="label">ubisoft.com</text>
<rect x="180" y="254" width="352.52" height="22" fill="#4c78a8" rx="3"/>
<text x="540.52" y="270" class="value">125.85</text>
<text x="10" y="302" class="label">fortnite.com</text>
<rect x="180" y="286" width="367.0" height="22" fill="#4c78a8" rx="3"/>
<text x="555.0" y="302" class="value">131.02</text>
<text x="10" y="334" class="label">static3.cdn.ubi.com</text>
<rect x="180" y="318" width="463.39" height="22" fill="#4c78a8" rx="3"/>
<text x="651.39" y="334" class="value">165.43</text>
<text x="10" y="366" class="label">community.akamai.steamstatic.com</text>
<rect x="180" y="350" width="521.96" height="22" fill="#4c78a8" rx="3"/>
<text x="709.96" y="366" class="value">186.34</text>
<text x="10" y="398" class="label">unrealengine.com</text>
<rect x="180" y="382" width="567.31" height="22" fill="#4c78a8" rx="3"/>
<text x="755.31" y="398" class="value">202.53</text>
<text x="10" y="430" class="label">origin.com</text>
<rect x="180" y="414" width="567.37" height="22" fill="#4c78a8" rx="3"/>
<text x="755.37" y="430" class="value">202.55</text>
<text x="10" y="462" class="label">cdn.akamai.steamstatic.com</text>
<rect x="180" y="446" width="579.05" height="22" fill="#4c78a8" rx="3"/>
<text x="767.05" y="462" class="value">206.72</text>
<text x="10" y="494" class="label">epicgames.com</text>
<rect x="180" y="478" width="580.0" height="22" fill="#4c78a8" rx="3"/>
<text x="768.0" y="494" class="value">207.06</text>
<line x1="180" y1="30" x2="180" y2="520" stroke="#ccc"/>
<line x1="180" y1="520" x2="760" y2="520" stroke="#ccc"/>
</svg>