<svg xmlns="http://www.w3.org/2000/svg" width="800" height="540">
<style> .label{font-family:DejaVu Sans,Verdana,Geneva,sans-serif;font-size:12px;fill:#333} .value{font-family:DejaVu Sans,Verdana,Geneva,sans-serif;font-size:12px;fill:#555} </style>
<text x="10" y="20" class="label">延迟柱状图（越低越好，Top 15），单位 ms</text>
<text x="10" y="46" class="label">rockstargames.com</text>
<rect x="180" y="30" width="243.25" height="22" fill="#4c78a8" rx="3"/>
<text x="431.25" y="46" class="value">79.68</text>
<text x="10" y="78" class="label">eaassets-a.akamaihd.net</text>
<rect x="180" y="62" width="256.22" height="22" fill="#4c78a8" rx="3"/>
<text x="444.22" y="78" class="value">83.93</text>
<text x="10" y="110" class="label">ubisoft.com</text>
<rect x="180" y="94" width="334.74" height="22" fill="#4c78a8" rx="3"/>
<text x="522.74" y="110" class="value">109.65</text>
<text x="10" y="142" class="label">store.akamai.steamstatic.com</text>
<rect x="180" y="126" width="408.46" height="22" fill="#4c78a8" rx="3"/>
<text x="596.46" y="142" class="value">133.80</text>
<text x="10" y="174" class="label">blizzard.com</text>
<rect x="180" y="158" width="423.79" height="22" fill="#4c78a8" rx="3"/>
<text x="611.79" y="174" class="value">138.82</text>
<text x="10" y="206" class="label">socialclub.rockstargames.com</text>
<rect x="180" y="190" width="425.71" height="22" fill="#4c78a8" rx="3"/>
<text x="613.71" y="206" class="value">139.45</text>
<text x="10" y="238" class="label">cdn.akamai.steamstatic.com</text>
<rect x="180" y="222" width="451.66" height="22" fill="#4c78a8" rx="3"/>
<text x="639.6600000000001" y="238" class="value">147.95</text>
<text x="10" y="270" class="label">steamcdn-a.akamaihd.net</text>
<rect x="180" y="254" width="471.96" height="22" fill="#4c78a8" rx="3"/>
<text x="659.96" y="270" class="value">154.60</text>
<text x="10" y="302" class="label">battle.net</text>
<rect x="180" y="286" width="474.01" height="22" fill="#4c78a8" rx="3"/>
<text x="662.01" y="302" class="value">155.27</text>
<text x="10" y="334" class="label">ea.com</text>
<rect x="180" y="318" width="515.68" height="22" fill="#4c78a8" rx="3"/>
<text x="703.68" y="334" class="value">168.92</text>
<text x="10" y="366" class="label">ubi.com</text>
<rect x="180" y="350" width="521.63" height="22" fill="#4c78a8" rx="3"/>
<text x="709.63" y="366" class="value">170.87</text>
<text x="10" y="398" class="label">cdn.cloudflare.steamstatic.com</text>
<rect x="180" y="382" width="537.17" height="22" fill="#4c78a8" rx="3"/>
<text x="725.17" y="398" class="value">175.96</text>
<text x="10" y="430" class="label">static3.cdn.ubi.com</text>
<rect x="180" y="414" width="564.89" height="22" fill="#4c78a8" rx="3"/>
<text x="752.89" y="430" class="value">185.04</text>
<text x="10" y="462" class="label">origin.com</text>
<rect x="180" y="446" width="573.99" height="22" fill="#4c78a8" rx="3"/>
<text x="761.99" y="462" class="value">188.02</text>
<text x="10" y="494" class="label">gog.com</text>
<rect x="180" y="478" width="580.0" height="22" fill="#4c78a8" rx="3"/>
<text x="768.0" y="494" class="value">189.99</text>
<line x1="180" y1="30" x2="180" y2="520" stroke="#ccc"/>
<line x1="180" y1="520" x2="760" y2="520" stroke="#ccc"/>
</svg>