<svg xmlns="http://www.w3.org/2000/svg" width="800" height="540">
<style> .label{font-family:DejaVu Sans,Verdana,Geneva,sans-serif;font-size:12px;fill:#333} .value{font-family:DejaVu Sans,Verdana,Geneva,sans-serif;font-size:12px;fill:#555} </style>
<text x="10" y="20" class="label">延迟柱状图（越低越好，Top 15），单位 ms</text>
<text x="10" y="46" class="label">rockstargames.com</text>
<rect x="180" y="30" width="75.45" height="22" fill="#4c78a8" rx="3"/>
<text x="263.45" y="46" class="value">32.11</text>
<text x="10" y="78" class="label">eaassets-a.akamaihd.net</text>
<rect x="180" y="62" width="101.72" height="22" fill="#4c78a8" rx="3"/>
<text x="289.72" y="78" class="value">43.29</text>
<text x="10" y="110" class="label">ubisoft.com</text>
<rect x="180" y="94" width="182.58" height="22" fill="#4c78a8" rx="3"/>
<text x="370.58000000000004" y="110" class="value">77.70</text>
<text x="10" y="142" class="label">ea.com</text>
<rect x="180" y="126" width="244.03" height="22" fill="#4c78a8" rx="3"/>
<text x="432.03" y="142" class="value">103.85</text>
<text x="10" y="174" class="label">cdn.akamai.steamstatic.com</text>
<rect x="180" y="158" width="345.96" height="22" fill="#4c78a8" rx="3"/>
<text x="533.96" y="174" class="value">147.23</text>
<text x="10" y="206" class="label">community.akamai.steamstatic.com</text>
<rect x="180" y="190" width="379.05" height="22" fill="#4c78a8" rx="3"/>
<text x="567.05" y="206" class="value">161.31</text>
<text x="10" y="238" class="label">store.akamai.steamstatic.com</text>
<rect x="180" y="222" width="427.5" height="22" fill="#4c78a8" rx="3"/>
<text x="615.5" y="238" class="value">181.93</text>
<text x="10" y="270" class="label">origin.com</text>
<rect x="180" y="254" width="450.31" height="22" fill="#4c78a8" rx="3"/>
<text x="638.31" y="270" class="value">191.64</text>
<text x="10" y="302" class="label">static3.cdn.ubi.com</text>
<rect x="180" y="286" width="475.6" height="22" fill="#4c78a8" rx="3"/>
<text x="663.6" y="302" class="value">202.40</text>
<text x="10" y="334" class="label">steamcdn-a.akamaihd.net</text>
<rect x="180" y="318" width="478.91" height="22" fill="#4c78a8" rx="3"/>
<text x="666.9100000000001" y="334" class="value">203.81</text>
<text x="10" y="366" class="label">cdn.cloudflare.steamstatic.com</text>
<rect x="180" y="350" width="534.39" height="22" fill="#4c78a8" rx="3"/>
<text x="722.39" y="366" class="value">227.42</text>
<text x="10" y="398" class="label">easyanticheat.net</text>
<rect x="180" y="382" width="541.7" height="22" fill="#4c78a8" rx="3"/>
<text x="729.7" y="398" class="value">230.53</text>
<text x="10" y="430" class="label">steamcommunity.com</text>
<rect x="180" y="414" width="542.17" height="22" fill="#4c78a8" rx="3"/>
<text x="730.17" y="430" class="value">230.73</text>
<text x="10" y="462" class="label">api.steampowered.com</text>
<rect x="180" y="446" width="576.43" height="22" fill="#4c78a8" rx="3"/>
<text x="764.43" y="462" class="value">245.31</text>
<text x="10" y="494" class="label">steam-chat.com</text>
<rect x="180" y="478" width="580.0" height="22" fill="#4c78a8" rx="3"/>
<text x="768.0" y="494" class="value">246.83</text>
<line x1="180" y1="30" x2="180" y2="520" stroke="#ccc"/>
<line x1="180" y1="520" x2="760" y2="520" stroke="#ccc"/>
</svg>