<svg xmlns="http://www.w3.org/2000/svg" width="800" height="540">
<style> .label{font-family:DejaVu Sans,Verdana,Geneva,sans-serif;font-size:12px;fill:#333} .value{font-family:DejaVu Sans,Verdana,Geneva,sans-serif;font-size:12px;fill:#555} </style>
<text x="10" y="20" class="label">延迟柱状图（越低越好，Top 15），单位 ms</text>
<text x="10" y="46" class="label">rockstargames.com</text>
<rect x="180" y="30" width="128.37" height="22" fill="#4c78a8" rx="3"/>
<text x="316.37" y="46" class="value">48.13</text>
<text x="10" y="78" class="label">blizzard.com</text>
<rect x="180" y="62" width="218.15" height="22" fill="#4c78a8" rx="3"/>
<text x="406.15" y="78" class="value">81.79</text>
<text x="10" y="110" class="label">socialclub.rockstargames.com</text>
<rect x="180" y="94" width="220.81" height="22" fill="#4c78a8" rx="3"/>
<text x="408.81" y="110" class="value">82.79</text>
<text x="10" y="142" class="label">ubi.com</text>
<rect x="180" y="126" width="295.89" height="22" fill="#4c78a8" rx="3"/>
<text x="483.89" y="142" class="value">110.94</text>
<text x="10" y="174" class="label">battle.net</text>
<rect x="180" y="158" width="309.42" height="22" fill="#4c78a8" rx="3"/>
<text x="497.42" y="174" class="value">116.01</text>
<text x="10" y="206" class="label">ubisoft.com</text>
<rect x="180" y="190" width="336.09" height="22" fill="#4c78a8" rx="3"/>
<text x="524.0899999999999" y="206" class="value">126.01</text>
<text x="10" y="238" class="label">easyanticheat.net</text>
<rect x="180" y="222" width="368.04" height="22" fill="#4c78a8" rx="3"/>
<text x="556.04" y="238" class="value">137.99</text>
<text x="10" y="270" class="label">ea.com</text>
<rect x="180" y="254" width="370.23" height="22" fill="#4c78a8" rx="3"/>
<text x="558.23" y="270" class="value">138.81</text>
<text x="10" y="302" class="label">fortnite.com</text>
<rect x="180" y="286" width="370.71" height="22" fill="#4c78a8" rx="3"/>
<text x="558.71" y="302" class="value">138.99</text>
<text x="10" y="334" class="label">community.akamai.steamstatic.com</text>
<rect x="180" y="318" width="373.16" height="22" fill="#4c78a8" rx="3"/>
<text x="561.1600000000001" y="334" class="value">139.91</text>
<text x="10" y="366" class="label">eaassets-a.akamaihd.net</text>
<rect x="180" y="350" width="374.1" height="22" fill="#4c78a8" rx="3"/>
<text x="562.1" y="366" class="value">140.26</text>
<text x="10" y="398" class="label">store.akamai.steamstatic.com</text>
<rect x="180" y="382" width="489.29" height="22" fill="#4c78a8" rx="3"/>
<text x="677.29" y="398" class="value">183.45</text>
<text x="10" y="430" class="label">epicgames.com</text>
<rect x="180" y="414" width="522.55" height="22" fill="#4c78a8" rx="3"/>
<text x="710.55" y="430" class="value">195.92</text>
<text x="10" y="462" class="label">unrealengine.com</text>
<rect x="180" y="446" width="547.54" height="22" fill="#4c78a8" rx="3"/>
<text x="735.54" y="462" class="value">205.29</text>
<text x="10" y="494" class="label">static3.cdn.ubi.com</text>
<rect x="180" y="478" width="580.0" height="22" fill="#4c78a8" rx="3"/>
<text x="768.0" y="494" class="value">217.46</text>
<line x1="180" y1="30" x2="180" y2="520" stroke="#ccc"/>
<line x1="180" y1="520" x2="760" y2="520" stroke="#ccc"/>
</svg>