<svg xmlns="http://www.w3.org/2000/svg" width="800" height="540">
<style> .label{font-family:DejaVu Sans,Verdana,Geneva,sans-serif;font-size:12px;fill:#333} .value{font-family:DejaVu Sans,Verdana,Geneva,sans-serif;font-size:12px;fill:#555} </style>
<text x="10" y="20" class="label">延迟柱状图（越低越好，Top 15），单位 ms</text>
<text x="10" y="46" class="label">eaassets-a.akamaihd.net</text>
<rect x="180" y="30" width="127.86" height="22" fill="#4c78a8" rx="3"/>
<text x="315.86" y="46" class="value">44.48</text>
<text x="10" y="78" class="label">rockstargames.com</text>
<rect x="180" y="62" width="184.69" height="22" fill="#4c78a8" rx="3"/>
<text x="372.69" y="78" class="value">64.25</text>
<text x="10" y="110" class="label">cdn.cloudflare.steamstatic.com</text>
<rect x="180" y="94" width="266.27" height="22" fill="#4c78a8" rx="3"/>
<text x="454.27" y="110" class="value">92.63</text>
<text x="10" y="142" class="label">ea.com</text>
<rect x="180" y="126" width="335.75" height="22" fill="#4c78a8" rx="3"/>
<text x="523.75" y="142" class="value">116.80</text>
<text x="10" y="174" class="label">socialclub.rockstargames.com</text>
<rect x="180" y="158" width="372.11" height="22" fill="#4c78a8" rx="3"/>
<text x="560.11" y="174" class="value">129.45</text>
<text x="10" y="206" class="label">battle.net</text>
<rect x="180" y="190" width="377.08" height="22" fill="#4c78a8" rx="3"/>
<text x="565.0799999999999" y="206" class="value">131.18</text>
<text x="10" y="238" class="label">ubi.com</text>
<rect x="180" y="222" width="378.92" height="22" fill="#4c78a8" rx="3"/>
<text x="566.9200000000001" y="238" class="value">131.82</text>
<text x="10" y="270" class="label">easyanticheat.net</text>
<rect x="180" y="254" width="384.85" height="22" fill="#4c78a8" rx="3"/>
<text x="572.85" y="270" class="value">133.88</text>
<text x="10" y="302" class="label">blizzard.com</text>
<rect x="180" y="286" width="395.83" height="22" fill="#4c78a8" rx="3"/>
<text x="583.8299999999999" y="302" class="value">137.70</text>
<text x="10" y="334" class="label">community.akamai.steamstatic.com</text>
<rect x="180" y="318" width="457.23" height="22" fill="#4c78a8" rx="3"/>
<text x="645.23" y="334" class="value">159.06</text>
<text x="10" y="366" class="label">store.akamai.steamstatic.com</text>
<rect x="180" y="350" width="480.05" height="22" fill="#4c78a8" rx="3"/>
<text x="668.05" y="366" class="value">167.00</text>
<text x="10" y="398" class="label">steamcdn-a.akamaihd.net</text>
<rect x="180" y="382" width="510.81" height="22" fill="#4c78a8" rx="3"/>
<text x="698.81" y="398" class="value">177.70</text>
<text x="10" y="430" class="label">steam-chat.com</text>
<rect x="180" y="414" width="512.25" height="22" fill="#4c78a8" rx="3"/>
<text x="700.25" y="430" class="value">178.20</text>
<text x="10" y="462" class="label">origin.com</text>
<rect x="180" y="446" width="522.74" height="22" fill="#4c78a8" rx="3"/>
<text x="710.74" y="462" class="value">181.85</text>
<text x="10" y="494" class="label">static3.cdn.ubi.com</text>
<rect x="180" y="478" width="580.0" height="22" fill="#4c78a8" rx="3"/>
<text x="768.0" y="494" class="value">201.77</text>
<line x1="180" y1="30" x2="180" y2="520" stroke="#ccc"/>
<line x1="180" y1="520" x2="760" y2="520" stroke="#ccc"/>
</svg>