<svg xmlns="http://www.w3.org/2000/svg" width="800" height="540">
<style> .label{font-family:DejaVu Sans,Verdana,Geneva,sans-serif;font-size:12px;fill:#333} .value{font-family:DejaVu Sans,Verdana,Geneva,sans-serif;font-size:12px;fill:#555} </style>
<text x="10" y="20" class="label">延迟柱状图（越低越好，Top 15），单位 ms</text>
<text x="10" y="46" class="label">eaassets-a.akamaihd.net</text>
<rect x="180" y="30" width="227.29" height="22" fill="#4c78a8" rx="3"/>
<text x="415.28999999999996" y="46" class="value">83.01</text>
<text x="10" y="78" class="label">store.akamai.steamstatic.com</text>
<rect x="180" y="62" width="311.67" height="22" fill="#4c78a8" rx="3"/>
<text x="499.67" y="78" class="value">113.83</text>
<text x="10" y="110" class="label">rockstargames.com</text>
<rect x="180" y="94" width="336.72" height="22" fill="#4c78a8" rx="3"/>
<text x="524.72" y="110" class="value">122.98</text>
<text x="10" y="142" class="label">origin.com</text>
<rect x="180" y="126" width="361.48" height="22" fill="#4c78a8" rx="3"/>
<text x="549.48" y="142" class="value">132.02</text>
<text x="10" y="174" class="label">ea.com</text>
<rect x="180" y="158" width="423.58" height="22" fill="#4c78a8" rx="3"/>
<text x="611.5799999999999" y="174" class="value">154.70</text>
<text x="10" y="206" class="label">blizzard.com</text>
<rect x="180" y="190" width="448.19" height="22" fill="#4c78a8" rx="3"/>
<text x="636.19" y="206" class="value">163.69</text>
<text x="10" y="238" class="label">easyanticheat.net</text>
<rect x="180" y="222" width="450.55" height="22" fill="#4c78a8" rx="3"/>
<text x="638.55" y="238" class="value">164.55</text>
<text x="10" y="270" class="label">ubi.com</text>
<rect x="180" y="254" width="453.34" height="22" fill="#4c78a8" rx="3"/>
<text x="641.3399999999999" y="270" class="value">165.57</text>
<text x="10" y="302" class="label">community.akamai.steamstatic.com</text>
<rect x="180" y="286" width="470.78" height="22" fill="#4c78a8" rx="3"/>
<text x="658.78" y="302" class="value">171.94</text>
<text x="10" y="334" class="label">battle.net</text>
<rect x="180" y="318" width="479.71" height="22" fill="#4c78a8" rx="3"/>
<text x="667.71" y="334" class="value">175.20</text>
<text x="10" y="366" class="label">cdn.akamai.steamstatic.com</text>
<rect x="180" y="350" width="532.93" height="22" fill="#4c78a8" rx="3"/>
<text x="720.93" y="366" class="value">194.64</text>
<text x="10" y="398" class="label">steamcdn-a.akamaihd.net</text>
<rect x="180" y="382" width="540.87" height="22" fill="#4c78a8" rx="3"/>
<text x="728.87" y="398" class="value">197.54</text>
<text x="10" y="430" class="label">ubisoft.com</text>
<rect x="180" y="414" width="541.86" height="22" fill="#4c78a8" rx="3"/>
<text x="729.86" y="430" class="value">197.90</text>
<text x="10" y="462" class="label">static3.cdn.ubi.com</text>
<rect x="180" y="446" width="563.49" height="22" fill="#4c78a8" rx="3"/>
<text x="751.49" y="462" class="value">205.80</text>
<text x="10" y="494" class="label">socialclub.rockstargames.com</text>
<rect x="180" y="478" width="580.0" height="22" fill="#4c78a8" rx="3"/>
<text x="768.0" y="494" class="value">211.83</text>
<line x1="180" y1="30" x2="180" y2="520" stroke="#ccc"/>
<line x1="180" y1="520" x2="760" y2="520" stroke="#ccc"/>
</svg>