<svg xmlns="http://www.w3.org/2000/svg" width="800" height="540">
<style> .label{font-family:DejaVu Sans,Verdana,Geneva,sans-serif;font-size:12px;fill:#333} .value{font-family:DejaVu Sans,Verdana,Geneva,sans-serif;font-size:12px;fill:#555} </style>
<text x="10" y="20" class="label">延迟柱状图（越低越好，Top 15），单位 ms</text>
<text x="10" y="46" class="label">ea.com</text>
<rect x="180" y="30" width="221.34" height="22" fill="#4c78a8" rx="3"/>
<text x="409.34000000000003" y="46" class="value">84.85</text>
<text x="10" y="78" class="label">eaassets-a.akamaihd.net</text>
<rect x="180" y="62" width="251.08" height="22" fill="#4c78a8" rx="3"/>
<text x="439.08000000000004" y="78" class="value">96.25</text>
<text x="10" y="110" class="label">cdn.akamai.steamstatic.com</text>
<rect x="180" y="94" width="272.34" height="22" fill="#4c78a8" rx="3"/>
<text x="460.34" y="110" class="value">104.40</text>
<text x="10" y="142" class="label">store.akamai.steamstatic.com</text>
<rect x="180" y="126" width="273.54" height="22" fill="#4c78a8" rx="3"/>
<text x="461.54" y="142" class="value">104.86</text>
<text x="10" y="174" class="label">community.akamai.steamstatic.com</text>
<rect x="180" y="158" width="286.14" height="22" fill="#4c78a8" rx="3"/>
<text x="474.14" y="174" class="value">109.69</text>
<text x="10" y="206" class="label">rockstargames.com</text>
<rect x="180" y="190" width="329.0" height="22" fill="#4c78a8" rx="3"/>
<text x="517.0" y="206" class="value">126.12</text>
<text x="10" y="238" class="label">ubi.com</text>
<rect x="180" y="222" width="369.62" height="22" fill="#4c78a8" rx="3"/>
<text x="557.62" y="238" class="value">141.69</text>
<text x="10" y="270" class="label">steam-chat.com</text>
<rect x="180" y="254" width="372.98" height="22" fill="#4c78a8" rx="3"/>
<text x="560.98" y="270" class="value">142.98</text>
<text x="10" y="302" class="label">socialclub.rockstargames.com</text>
<rect x="180" y="286" width="401.0" height="22" fill="#4c78a8" rx="3"/>
<text x="589.0" y="302" class="value">153.72</text>
<text x="10" y="334" class="label">battle.net</text>
<rect x="180" y="318" width="475.37" height="22" fill="#4c78a8" rx="3"/>
<text x="663.37" y="334" class="value">182.23</text>
<text x="10" y="366" class="label">static3.cdn.ubi.com</text>
<rect x="180" y="350" width="504.4" height="22" fill="#4c78a8" rx="3"/>
<text x="692.4" y="366" class="value">193.36</text>
<text x="10" y="398" class="label">ubisoft.com</text>
<rect x="180" y="382" width="509.91" height="22" fill="#4c78a8" rx="3"/>
<text x="697.9100000000001" y="398" class="value">195.47</text>
<text x="10" y="430" class="label">origin.com</text>
<rect x="180" y="414" width="544.16" height="22" fill="#4c78a8" rx="3"/>
<text x="732.16" y="430" class="value">208.60</text>
<text x="10" y="462" class="label">api.steampowered.com</text>
<rect x="180" y="446" width="550.39" height="22" fill="#4c78a8" rx="3"/>
<text x="738.39" y="462" class="value">210.99</text>
<text x="10" y="494" class="label">steamcdn-a.akamaihd.net</text>
<rect x="180" y="478" width="580.0" height="22" fill="#4c78a8" rx="3"/>
<text x="768.0" y="494" class="value">222.34</text>
<line x1="180" y1="30" x2="180" y2="520" stroke="#ccc"/>
<line x1="180" y1="520" x2="760" y2="520" stroke="#ccc"/>
</svg>