<svg xmlns="http://www.w3.org/2000/svg" width="800" height="540">
<style> .label{font-family:DejaVu Sans,Verdana,Geneva,sans-serif;font-size:12px;fill:#333} .value{font-family:DejaVu Sans,Verdana,Geneva,sans-serif;font-size:12px;fill:#555} </style>
<text x="10" y="20" class="label">延迟柱状图（越低越好，Top 15），单位 ms</text>
<text x="10" y="46" class="label">rockstargames.com</text>
<rect x="180" y="30" width="206.71" height="22" fill="#4c78a8" rx="3"/>
<text x="394.71000000000004" y="46" class="value">67.33</text>
<text x="10" y="78" class="label">origin.com</text>
<rect x="180" y="62" width="252.39" height="22" fill="#4c78a8" rx="3"/>
<text x="440.39" y="78" class="value">82.21</text>
<text x="10" y="110" class="label">blizzard.com</text>
<rect x="180" y="94" width="253.68" height="22" fill="#4c78a8" rx="3"/>
<text x="441.68" y="110" class="value">82.63</text>
<text x="10" y="142" class="label">socialclub.rockstargames.com</text>
<rect x="180" y="126" width="269.4" height="22" fill="#4c78a8" rx="3"/>
<text x="457.4" y="142" class="value">87.75</text>
<text x="10" y="174" class="label">battle.net</text>
<rect x="180" y="158" width="274.19" height="22" fill="#4c78a8" rx="3"/>
<text x="462.19" y="174" class="value">89.31</text>
<text x="10" y="206" class="label">eaassets-a.akamaihd.net</text>
<rect x="180" y="190" width="285.89" height="22" fill="#4c78a8" rx="3"/>
<text x="473.89" y="206" class="value">93.12</text>
<text x="10" y="238" class="label">ea.com</text>
<rect x="180" y="222" width="311.74" height="22" fill="#4c78a8" rx="3"/>
<text x="499.74" y="238" class="value">101.54</text>
<text x="10" y="270" class="label">ubi.com</text>
<rect x="180" y="254" width="372.28" height="22" fill="#4c78a8" rx="3"/>
<text x="560.28" y="270" class="value">121.26</text>
<text x="10" y="302" class="label">ubisoft.com</text>
<rect x="180" y="286" width="383.76" height="22" fill="#4c78a8" rx="3"/>
<text x="571.76" y="302" class="value">125.00</text>
<text x="10" y="334" class="label">unrealengine.com</text>
<rect x="180" y="318" width="470.34" height="22" fill="#4c78a8" rx="3"/>
<text x="658.3399999999999" y="334" class="value">153.20</text>
<text x="10" y="366" class="label">cdn.cloudflare.steamstatic.com</text>
<rect x="180" y="350" width="488.57" height="22" fill="#4c78a8" rx="3"/>
<text x="676.5699999999999" y="366" class="value">159.14</text>
<text x="10" y="398" class="label">epicgames.com</text>
<rect x="180" y="382" width="537.79" height="22" fill="#4c78a8" rx="3"/>
<text x="725.79" y="398" class="value">175.17</text>
<text x="10" y="430" class="label">www.steamcommunity.com</text>
<rect x="180" y="414" width="560.32" height="22" fill="#4c78a8" rx="3"/>
<text x="748.32" y="430" class="value">182.51</text>
<text x="10" y="462" class="label">gog.com</text>
<rect x="180" y="446" width="565.02" height="22" fill="#4c78a8" rx="3"/>
<text x="753.02" y="462" class="value">184.04</text>
<text x="10" y="494" class="label">community.akamai.steamstatic.com</text>
<rect x="180" y="478" width="580.0" height="22" fill="#4c78a8" rx="3"/>
<text x="768.0" y="494" class="value">188.92</text>
<line x1="180" y1="30" x2="180" y2="520" stroke="#ccc"/>
<line x1="180" y1="520" x2="760" y2="520" stroke="#ccc"/>
</svg>