<svg xmlns="http://www.w3.org/2000/svg" width="800" height="540">
<style> .label{font-family:DejaVu Sans,Verdana,Geneva,sans-serif;font-size:12px;fill:#333} .value{font-family:DejaVu Sans,Verdana,Geneva,sans-serif;font-size:12px;fill:#555} </style>
<text x="10" y="20" class="label">延迟柱状图（越低越好，Top 15），单位 ms</text>
<text x="10" y="46" class="label">rockstargames.com</text>
<rect x="180" y="30" width="149.67" height="22" fill="#4c78a8" rx="3"/>
<text x="337.66999999999996" y="46" class="value">67.59</text>
<text x="10" y="78" class="label">eaassets-a.akamaihd.net</text>
<rect x="180" y="62" width="178.84" height="22" fill="#4c78a8" rx="3"/>
<text x="366.84000000000003" y="78" class="value">80.76</text>
<text x="10" y="110" class="label">store.akamai.steamstatic.com</text>
<rect x="180" y="94" width="224.67" height="22" fill="#4c78a8" rx="3"/>
<text x="412.66999999999996" y="110" class="value">101.46</text>
<text x="10" y="142" class="label">ubisoft.com</text>
<rect x="180" y="126" width="247.86" height="22" fill="#4c78a8" rx="3"/>
<text x="435.86" y="142" class="value">111.93</text>
<text x="10" y="174" class="label">cdn.akamai.steamstatic.com</text>
<rect x="180" y="158" width="263.16" height="22" fill="#4c78a8" rx="3"/>
<text x="451.16" y="174" class="value">118.84</text>
<text x="10" y="206" class="label">steamcdn-a.akamaihd.net</text>
<rect x="180" y="190" width="265.0" height="22" fill="#4c78a8" rx="3"/>
<text x="453.0" y="206" class="value">119.67</text>
<text x="10" y="238" class="label">community.akamai.steamstatic.com</text>
<rect x="180" y="222" width="303.33" height="22" fill="#4c78a8" rx="3"/>
<text x="491.33" y="238" class="value">136.98</text>
<text x="10" y="270" class="label">ea.com</text>
<rect x="180" y="254" width="335.28" height="22" fill="#4c78a8" rx="3"/>
<text x="523.28" y="270" class="value">151.41</text>
<text x="10" y="302" class="label">origin.com</text>
<rect x="180" y="286" width="360.29" height="22" fill="#4c78a8" rx="3"/>
<text x="548.29" y="302" class="value">162.70</text>
<text x="10" y="334" class="label">easyanticheat.net</text>
<rect x="180" y="318" width="387.46" height="22" fill="#4c78a8" rx="3"/>
<text x="575.46" y="334" class="value">174.97</text>
<text x="10" y="366" class="label">cdn.cloudflare.steamstatic.com</text>
<rect x="180" y="350" width="388.01" height="22" fill="#4c78a8" rx="3"/>
<text x="576.01" y="366" class="value">175.22</text>
<text x="10" y="398" class="label">api.steampowered.com</text>
<rect x="180" y="382" width="491.31" height="22" fill="#4c78a8" rx="3"/>
<text x="679.31" y="398" class="value">221.87</text>
<text x="10" y="430" class="label">www.steamcommunity.com</text>
<rect x="180" y="414" width="500.33" height="22" fill="#4c78a8" rx="3"/>
<text x="688.3299999999999" y="430" class="value">225.94</text>
<text x="10" y="462" class="label">launcher-public-service-prod06.ol.epicgames.com</text>
<rect x="180" y="446" width="571.96" height="22" fill="#4c78a8" rx="3"/>
<text x="759.96" y="462" class="value">258.29</text>
<text x="10" y="494" class="label">ubi.com</text>
<rect x="180" y="478" width="580.0" height="22" fill="#4c78a8" rx="3"/>
<text x="768.0" y="494" class="value">261.92</text>
<line x1="180" y1="30" x2="180" y2="520" stroke="#ccc"/>
<line x1="180" y1="520" x2="760" y2="520" stroke="#ccc"/>
</svg>