<svg xmlns="http://www.w3.org/2000/svg" width="800" height="540">
<style> .label{font-family:DejaVu Sans,Verdana,Geneva,sans-serif;font-size:12px;fill:#333} .value{font-family:DejaVu Sans,Verdana,Geneva,sans-serif;font-size:12px;fill:#555} </style>
<text x="10" y="20" class="label">延迟柱状图（越低越好，Top 15），单位 ms</text>
<text x="10" y="46" class="label">rockstargames.com</text>
<rect x="180" y="30" width="199.02" height="22" fill="#4c78a8" rx="3"/>
<text x="387.02" y="46" class="value">68.64</text>
<text x="10" y="78" class="label">ea.com</text>
<rect x="180" y="62" width="249.58" height="22" fill="#4c78a8" rx="3"/>
<text x="437.58000000000004" y="78" class="value">86.08</text>
<text x="10" y="110" class="label">eaassets-a.akamaihd.net</text>
<rect x="180" y="94" width="251.23" height="22" fill="#4c78a8" rx="3"/>
<text x="439.23" y="110" class="value">86.65</text>
<text x="10" y="142" class="label">store.akamai.steamstatic.com</text>
<rect x="180" y="126" width="286.26" height="22" fill="#4c78a8" rx="3"/>
<text x="474.26" y="142" class="value">98.73</text>
<text x="10" y="174" class="label">community.akamai.steamstatic.com</text>
<rect x="180" y="158" width="313.95" height="22" fill="#4c78a8" rx="3"/>
<text x="501.95" y="174" class="value">108.28</text>
<text x="10" y="206" class="label">cdn.akamai.steamstatic.com</text>
<rect x="180" y="190" width="339.17" height="22" fill="#4c78a8" rx="3"/>
<text x="527.1700000000001" y="206" class="value">116.98</text>
<text x="10" y="238" class="label">blizzard.com</text>
<rect x="180" y="222" width="352.11" height="22" fill="#4c78a8" rx="3"/>
<text x="540.11" y="238" class="value">121.44</text>
<text x="10" y="270" class="label">ubi.com</text>
<rect x="180" y="254" width="388.49" height="22" fill="#4c78a8" rx="3"/>
<text x="576.49" y="270" class="value">133.99</text>
<text x="10" y="302" class="label">battle.net</text>
<rect x="180" y="286" width="393.22" height="22" fill="#4c78a8" rx="3"/>
<text x="581.22" y="302" class="value">135.62</text>
<text x="10" y="334" class="label">socialclub.rockstargames.com</text>
<rect x="180" y="318" width="449.56" height="22" fill="#4c78a8" rx="3"/>
<text x="637.56" y="334" class="value">155.05</text>
<text x="10" y="366" class="label">unrealengine.com</text>
<rect x="180" y="350" width="464.49" height="22" fill="#4c78a8" rx="3"/>
<text x="652.49" y="366" class="value">160.20</text>
<text x="10" y="398" class="label">steamcommunity.com</text>
<rect x="180" y="382" width="468.69" height="22" fill="#4c78a8" rx="3"/>
<text x="656.69" y="398" class="value">161.65</text>
<text x="10" y="430" class="label">static3.cdn.ubi.com</text>
<rect x="180" y="414" width="486.96" height="22" fill="#4c78a8" rx="3"/>
<text x="674.96" y="430" class="value">167.95</text>
<text x="10" y="462" class="label">ubisoft.com</text>
<rect x="180" y="446" width="554.66" height="22" fill="#4c78a8" rx="3"/>
<text x="742.66" y="462" class="value">191.30</text>
<text x="10" y="494" class="label">origin.com</text>
<rect x="180" y="478" width="580.0" height="22" fill="#4c78a8" rx="3"/>
<text x="768.0" y="494" class="value">200.04</text>
<line x1="180" y1="30" x2="180" y2="520" stroke="#ccc"/>
<line x1="180" y1="520" x2="760" y2="520" stroke="#ccc"/>
</svg>