<svg xmlns="http://www.w3.org/2000/svg" width="800" height="540">
<style> .label{font-family:DejaVu Sans,Verdana,Geneva,sans-serif;font-size:12px;fill:#333} .value{font-family:DejaVu Sans,Verdana,Geneva,sans-serif;font-size:12px;fill:#555} </style>
<text x="10" y="20" class="label">延迟柱状图（越低越好，Top 15），单位 ms</text>
<text x="10" y="46" class="label">rockstargames.com</text>
<rect x="180" y="30" width="159.93" height="22" fill="#4c78a8" rx="3"/>
<text x="347.93" y="46" class="value">58.25</text>
<text x="10" y="78" class="label">eaassets-a.akamaihd.net</text>
<rect x="180" y="62" width="176.05" height="22" fill="#4c78a8" rx="3"/>
<text x="364.05" y="78" class="value">64.12</text>
<text x="10" y="110" class="label">community.akamai.steamstatic.com</text>
<rect x="180" y="94" width="333.53" height="22" fill="#4c78a8" rx="3"/>
<text x="521.53" y="110" class="value">121.48</text>
<text x="10" y="142" class="label">ubi.com</text>
<rect x="180" y="126" width="357.2" height="22" fill="#4c78a8" rx="3"/>
<text x="545.2" y="142" class="value">130.10</text>
<text x="10" y="174" class="label">blizzard.com</text>
<rect x="180" y="158" width="361.73" height="22" fill="#4c78a8" rx="3"/>
<text x="549.73" y="174" class="value">131.75</text>
<text x="10" y="206" class="label">cdn.cloudflare.steamstatic.com</text>
<rect x="180" y="190" width="389.1" height="22" fill="#4c78a8" rx="3"/>
<text x="577.1" y="206" class="value">141.72</text>
<text x="10" y="238" class="label">battle.net</text>
<rect x="180" y="222" width="392.84" height="22" fill="#4c78a8" rx="3"/>
<text x="580.8399999999999" y="238" class="value">143.08</text>
<text x="10" y="270" class="label">socialclub.rockstargames.com</text>
<rect x="180" y="254" width="396.79" height="22" fill="#4c78a8" rx="3"/>
<text x="584.79" y="270" class="value">144.52</text>
<text x="10" y="302" class="label">ea.com</text>
<rect x="180" y="286" width="406.43" height="22" fill="#4c78a8" rx="3"/>
<text x="594.4300000000001" y="302" class="value">148.03</text>
<text x="10" y="334" class="label">api.steampowered.com</text>
<rect x="180" y="318" width="448.35" height="22" fill="#4c78a8" rx="3"/>
<text x="636.35" y="334" class="value">163.30</text>
<text x="10" y="366" class="label">ubisoft.com</text>
<rect x="180" y="350" width="457.85" height="22" fill="#4c78a8" rx="3"/>
<text x="645.85" y="366" class="value">166.76</text>
<text x="10" y="398" class="label">store.akamai.steamstatic.com</text>
<rect x="180" y="382" width="503.76" height="22" fill="#4c78a8" rx="3"/>
<text x="691.76" y="398" class="value">183.48</text>
<text x="10" y="430" class="label">static3.cdn.ubi.com</text>
<rect x="180" y="414" width="504.52" height="22" fill="#4c78a8" rx="3"/>
<text x="692.52" y="430" class="value">183.76</text>
<text x="10" y="462" class="label">origin.com</text>
<rect x="180" y="446" width="539.42" height="22" fill="#4c78a8" rx="3"/>
<text x="727.42" y="462" class="value">196.47</text>
<text x="10" y="494" class="label">easyanticheat.net</text>
<rect x="180" y="478" width="580.0" height="22" fill="#4c78a8" rx="3"/>
<text x="768.0" y="494" class="value">211.25</text>
<line x1="180" y1="30" x2="180" y2="520" stroke="#ccc"/>
<line x1="180" y1="520" x2="760" y2="520" stroke="#ccc"/>
</svg>