<svg xmlns="http://www.w3.org/2000/svg" width="800" height="540">
<style> .label{font-family:DejaVu Sans,Verdana,Geneva,sans-serif;font-size:12px;fill:#333} .value{font-family:DejaVu Sans,Verdana,Geneva,sans-serif;font-size:12px;fill:#555} </style>
<text x="10" y="20" class="label">延迟柱状图（越低越好，Top 15），单位 ms</text>
<text x="10" y="46" class="label">ea.com</text>
<rect x="180" y="30" width="255.8" height="22" fill="#4c78a8" rx="3"/>
<text x="443.8" y="46" class="value">120.36</text>
<text x="10" y="78" class="label">community.akamai.steamstatic.com</text>
<rect x="180" y="62" width="267.77" height="22" fill="#4c78a8" rx="3"/>
<text x="455.77" y="78" class="value">125.99</text>
<text x="10" y="110" class="label">ubi.com</text>
<rect x="180" y="94" width="345.39" height="22" fill="#4c78a8" rx="3"/>
<text x="533.39" y="110" class="value">162.51</text>
<text x="10" y="142" class="label">easyanticheat.net</text>
<rect x="180" y="126" width="345.98" height="22" fill="#4c78a8" rx="3"/>
<text x="533.98" y="142" class="value">162.79</text>
<text x="10" y="174" class="label">battle.net</text>
<rect x="180" y="158" width="349.57" height="22" fill="#4c78a8" rx="3"/>
<text x="537.5699999999999" y="174" class="value">164.48</text>
<text x="10" y="206" class="label">rockstargames.com</text>
<rect x="180" y="190" width="361.75" height="22" fill="#4c78a8" rx="3"/>
<text x="549.75" y="206" class="value">170.21</text>
<text x="10" y="238" class="label">blizzard.com</text>
<rect x="180" y="222" width="391.34" height="22" fill="#4c78a8" rx="3"/>
<text x="579.3399999999999" y="238" class="value">184.13</text>
<text x="10" y="270" class="label">launcher-public-service-prod06.ol.epicgames.com</text>
<rect x="180" y="254" width="419.26" height="22" fill="#4c78a8" rx="3"/>
<text x="607.26" y="270" class="value">197.27</text>
<text x="10" y="302" class="label">socialclub.rockstargames.com</text>
<rect x="180" y="286" width="421.37" height="22" fill="#4c78a8" rx="3"/>
<text x="609.37" y="302" class="value">198.26</text>
<text x="10" y="334" class="label">eaassets-a.akamaihd.net</text>
<rect x="180" y="318" width="435.8" height="22" fill="#4c78a8" rx="3"/>
<text x="623.8" y="334" class="value">205.05</text>
<text x="10" y="366" class="label">ubisoft.com</text>
<rect x="180" y="350" width="453.46" height="22" fill="#4c78a8" rx="3"/>
<text x="641.46" y="366" class="value">213.36</text>
<text x="10" y="398" class="label">cdn.akamai.steamstatic.com</text>
<rect x="180" y="382" width="479.62" height="22" fill="#4c78a8" rx="3"/>
<text x="667.62" y="398" class="value">225.67</text>
<text x="10" y="430" class="label">cdn.cloudflare.steamstatic.com</text>
<rect x="180" y="414" width="504.61" height="22" fill="#4c78a8" rx="3"/>
<text x="692.61" y="430" class="value">237.43</text>
<text x="10" y="462" class="label">steamcdn-a.akamaihd.net</text>
<rect x="180" y="446" width="553.99" height="22" fill="#4c78a8" rx="3"/>
<text x="741.99" y="462" class="value">260.66</text>
<text x="10" y="494" class="label">store.akamai.steamstatic.com</text>
<rect x="180" y="478" width="580.0" height="22" fill="#4c78a8" rx="3"/>
<text x="768.0" y="494" class="value">272.90</text>
<line x1="180" y1="30" x2="180" y2="520" stroke="#ccc"/>
<line x1="180" y1="520" x2="760" y2="520" stroke="#ccc"/>
</svg>