<svg xmlns="http://www.w3.org/2000/svg" width="800" height="540">
<style> .label{font-family:DejaVu Sans,Verdana,Geneva,sans-serif;font-size:12px;fill:#333} .value{font-family:DejaVu Sans,Verdana,Geneva,sans-serif;font-size:12px;fill:#555} </style>
<text x="10" y="20" class="label">延迟柱状图（越低越好，Top 15），单位 ms</text>
<text x="10" y="46" class="label">ea.com</text>
<rect x="180" y="30" width="135.76" height="22" fill="#4c78a8" rx="3"/>
<text x="323.76" y="46" class="value">37.37</text>
<text x="10" y="78" class="label">eaassets-a.akamaihd.net</text>
<rect x="180" y="62" width="299.5" height="22" fill="#4c78a8" rx="3"/>
<text x="487.5" y="78" class="value">82.44</text>
<text x="10" y="110" class="label">community.akamai.steamstatic.com</text>
<rect x="180" y="94" width="303.1" height="22" fill="#4c78a8" rx="3"/>
<text x="491.1" y="110" class="value">83.43</text>
<text x="10" y="142" class="label">rockstargames.com</text>
<rect x="180" y="126" width="404.82" height="22" fill="#4c78a8" rx="3"/>
<text x="592.8199999999999" y="142" class="value">111.43</text>
<text x="10" y="174" class="label">store.akamai.steamstatic.com</text>
<rect x="180" y="158" width="451.76" height="22" fill="#4c78a8" rx="3"/>
<text x="639.76" y="174" class="value">124.35</text>
<text x="10" y="206" class="label">origin.com</text>
<rect x="180" y="190" width="464.76" height="22" fill="#4c78a8" rx="3"/>
<text x="652.76" y="206" class="value">127.93</text>
<text x="10" y="238" class="label">easyanticheat.net</text>
<rect x="180" y="222" width="486.71" height="22" fill="#4c78a8" rx="3"/>
<text x="674.71" y="238" class="value">133.97</text>
<text x="10" y="270" class="label">socialclub.rockstargames.com</text>
<rect x="180" y="254" width="501.89" height="22" fill="#4c78a8" rx="3"/>
<text x="689.89" y="270" class="value">138.15</text>
<text x="10" y="302" class="label">ubisoft.com</text>
<rect x="180" y="286" width="511.3" height="22" fill="#4c78a8" rx="3"/>
<text x="699.3" y="302" class="value">140.74</text>
<text x="10" y="334" class="label">battle.net</text>
<rect x="180" y="318" width="552.32" height="22" fill="#4c78a8" rx="3"/>
<text x="740.32" y="334" class="value">152.03</text>
<text x="10" y="366" class="label">blizzard.com</text>
<rect x="180" y="350" width="568.92" height="22" fill="#4c78a8" rx="3"/>
<text x="756.92" y="366" class="value">156.60</text>
<text x="10" y="398" class="label">cdn.cloudflare.steamstatic.com</text>
<rect x="180" y="382" width="574.01" height="22" fill="#4c78a8" rx="3"/>
<text x="762.01" y="398" class="value">158.00</text>
<text x="10" y="430" class="label">cdn.akamai.steamstatic.com</text>
<rect x="180" y="414" width="574.77" height="22" fill="#4c78a8" rx="3"/>
<text x="762.77" y="430" class="value">158.21</text>
<text x="10" y="462" class="label">ubi.com</text>
<rect x="180" y="446" width="579.56" height="22" fill="#4c78a8" rx="3"/>
<text x="767.56" y="462" class="value">159.53</text>
<text x="10" y="494" class="label">steamcdn-a.akamaihd.net</text>
<rect x="180" y="478" width="580.0" height="22" fill="#4c78a8" rx="3"/>
<text x="768.0" y="494" class="value">159.65</text>
<line x1="180" y1="30" x2="180" y2="520" stroke="#ccc"/>
<line x1="180" y1="520" x2="760" y2="520" stroke="#ccc"/>
</svg>