<svg xmlns="http://www.w3.org/2000/svg" width="800" height="540">
<style> .label{font-family:DejaVu Sans,Verdana,Geneva,sans-serif;font-size:12px;fill:#333} .value{font-family:DejaVu Sans,Verdana,Geneva,sans-serif;font-size:12px;fill:#555} </style>
<text x="10" y="20" class="label">延迟柱状图（越低越好，Top 15），单位 ms</text>
<text x="10" y="46" class="label">rockstargames.com</text>
<rect x="180" y="30" width="85.34" height="22" fill="#4c78a8" rx="3"/>
<text x="273.34000000000003" y="46" class="value">39.76</text>
<text x="10" y="78" class="label">eaassets-a.akamaihd.net</text>
<rect x="180" y="62" width="98.13" height="22" fill="#4c78a8" rx="3"/>
<text x="286.13" y="78" class="value">45.72</text>
<text x="10" y="110" class="label">ea.com</text>
<rect x="180" y="94" width="119.94" height="22" fill="#4c78a8" rx="3"/>
<text x="307.94" y="110" class="value">55.88</text>
<text x="10" y="142" class="label">ubisoft.com</text>
<rect x="180" y="126" width="220.78" height="22" fill="#4c78a8" rx="3"/>
<text x="408.78" y="142" class="value">102.86</text>
<text x="10" y="174" class="label">origin.com</text>
<rect x="180" y="158" width="248.12" height="22" fill="#4c78a8" rx="3"/>
<text x="436.12" y="174" class="value">115.60</text>
<text x="10" y="206" class="label">community.akamai.steamstatic.com</text>
<rect x="180" y="190" width="301.83" height="22" fill="#4c78a8" rx="3"/>
<text x="489.83" y="206" class="value">140.62</text>
<text x="10" y="238" class="label">steamcdn-a.akamaihd.net</text>
<rect x="180" y="222" width="352.98" height="22" fill="#4c78a8" rx="3"/>
<text x="540.98" y="238" class="value">164.45</text>
<text x="10" y="270" class="label">store.akamai.steamstatic.com</text>
<rect x="180" y="254" width="388.11" height="22" fill="#4c78a8" rx="3"/>
<text x="576.11" y="270" class="value">180.82</text>
<text x="10" y="302" class="label">cdn.akamai.steamstatic.com</text>
<rect x="180" y="286" width="410.97" height="22" fill="#4c78a8" rx="3"/>
<text x="598.97" y="302" class="value">191.47</text>
<text x="10" y="334" class="label">steam-chat.com</text>
<rect x="180" y="318" width="440.12" height="22" fill="#4c78a8" rx="3"/>
<text x="628.12" y="334" class="value">205.05</text>
<text x="10" y="366" class="label">cdn.cloudflare.steamstatic.com</text>
<rect x="180" y="350" width="452.42" height="22" fill="#4c78a8" rx="3"/>
<text x="640.4200000000001" y="366" class="value">210.78</text>
<text x="10" y="398" class="label">easyanticheat.net</text>
<rect x="180" y="382" width="474.25" height="22" fill="#4c78a8" rx="3"/>
<text x="662.25" y="398" class="value">220.95</text>
<text x="10" y="430" class="label">www.steamcommunity.com</text>
<rect x="180" y="414" width="477.64" height="22" fill="#4c78a8" rx="3"/>
<text x="665.64" y="430" class="value">222.53</text>
<text x="10" y="462" class="label">launcher-public-service-prod06.ol.epicgames.com</text>
<rect x="180" y="446" width="531.86" height="22" fill="#4c78a8" rx="3"/>
<text x="719.86" y="462" class="value">247.79</text>
<text x="10" y="494" class="label">api.steampowered.com</text>
<rect x="180" y="478" width="580.0" height="22" fill="#4c78a8" rx="3"/>
<text x="768.0" y="494" class="value">270.22</text>
<line x1="180" y1="30" x2="180" y2="520" stroke="#ccc"/>
<line x1="180" y1="520" x2="760" y2="520" stroke="#ccc"/>
</svg>