<svg xmlns="http://www.w3.org/2000/svg" width="800" height="540">
<style> .label{font-family:DejaVu Sans,Verdana,Geneva,sans-serif;font-size:12px;fill:#333} .value{font-family:DejaVu Sans,Verdana,Geneva,sans-serif;font-size:12px;fill:#555} </style>
<text x="10" y="20" class="label">延迟柱状图（越低越好，Top 15），单位 ms</text>
<text x="10" y="46" class="label">eaassets-a.akamaihd.net</text>
<rect x="180" y="30" width="161.85" height="22" fill="#4c78a8" rx="3"/>
<text x="349.85" y="46" class="value">58.48</text>
<text x="10" y="78" class="label">ea.com</text>
<rect x="180" y="62" width="198.93" height="22" fill="#4c78a8" rx="3"/>
<text x="386.93" y="78" class="value">71.88</text>
<text x="10" y="110" class="label">rockstargames.com</text>
<rect x="180" y="94" width="255.0" height="22" fill="#4c78a8" rx="3"/>
<text x="443.0" y="110" class="value">92.14</text>
<text x="10" y="142" class="label">cdn.akamai.steamstatic.com</text>
<rect x="180" y="126" width="347.44" height="22" fill="#4c78a8" rx="3"/>
<text x="535.44" y="142" class="value">125.54</text>
<text x="10" y="174" class="label">ubi.com</text>
<rect x="180" y="158" width="375.56" height="22" fill="#4c78a8" rx="3"/>
<text x="563.56" y="174" class="value">135.70</text>
<text x="10" y="206" class="label">battle.net</text>
<rect x="180" y="190" width="413.42" height="22" fill="#4c78a8" rx="3"/>
<text x="601.4200000000001" y="206" class="value">149.38</text>
<text x="10" y="238" class="label">socialclub.rockstargames.com</text>
<rect x="180" y="222" width="418.76" height="22" fill="#4c78a8" rx="3"/>
<text x="606.76" y="238" class="value">151.31</text>
<text x="10" y="270" class="label">blizzard.com</text>
<rect x="180" y="254" width="422.97" height="22" fill="#4c78a8" rx="3"/>
<text x="610.97" y="270" class="value">152.83</text>
<text x="10" y="302" class="label">cdn.cloudflare.steamstatic.com</text>
<rect x="180" y="286" width="425.9" height="22" fill="#4c78a8" rx="3"/>
<text x="613.9" y="302" class="value">153.89</text>
<text x="10" y="334" class="label">steamcdn-a.akamaihd.net</text>
<rect x="180" y="318" width="441.76" height="22" fill="#4c78a8" rx="3"/>
<text x="629.76" y="334" class="value">159.62</text>
<text x="10" y="366" class="label">ubisoft.com</text>
<rect x="180" y="350" width="479.9" height="22" fill="#4c78a8" rx="3"/>
<text x="667.9" y="366" class="value">173.40</text>
<text x="10" y="398" class="label">static3.cdn.ubi.com</text>
<rect x="180" y="382" width="495.04" height="22" fill="#4c78a8" rx="3"/>
<text x="683.04" y="398" class="value">178.87</text>
<text x="10" y="430" class="label">origin.com</text>
<rect x="180" y="414" width="531.62" height="22" fill="#4c78a8" rx="3"/>
<text x="719.62" y="430" class="value">192.09</text>
<text x="10" y="462" class="label">unrealengine.com</text>
<rect x="180" y="446" width="565.3" height="22" fill="#4c78a8" rx="3"/>
<text x="753.3" y="462" class="value">204.26</text>
<text x="10" y="494" class="label">community.akamai.steamstatic.com</text>
<rect x="180" y="478" width="580.0" height="22" fill="#4c78a8" rx="3"/>
<text x="768.0" y="494" class="value">209.57</text>
<line x1="180" y1="30" x2="180" y2="520" stroke="#ccc"/>
<line x1="180" y1="520" x2="760" y2="520" stroke="#ccc"/>
</svg>