<svg xmlns="http://www.w3.org/2000/svg" width="800" height="540">
<style> .label{font-family:DejaVu Sans,Verdana,Geneva,sans-serif;font-size:12px;fill:#333} .value{font-family:DejaVu Sans,Verdana,Geneva,sans-serif;font-size:12px;fill:#555} </style>
<text x="10" y="20" class="label">延迟柱状图（越低越好，Top 15），单位 ms</text>
<text x="10" y="46" class="label">rockstargames.com</text>
<rect x="180" y="30" width="184.84" height="22" fill="#4c78a8" rx="3"/>
<text x="372.84000000000003" y="46" class="value">56.59</text>
<text x="10" y="78" class="label">eaassets-a.akamaihd.net</text>
<rect x="180" y="62" width="249.42" height="22" fill="#4c78a8" rx="3"/>
<text x="437.41999999999996" y="78" class="value">76.36</text>
<text x="10" y="110" class="label">socialclub.rockstargames.com</text>
<rect x="180" y="94" width="264.08" height="22" fill="#4c78a8" rx="3"/>
<text x="452.08" y="110" class="value">80.85</text>
<text x="10" y="142" class="label">battle.net</text>
<rect x="180" y="126" width="302.95" height="22" fill="#4c78a8" rx="3"/>
<text x="490.95" y="142" class="value">92.75</text>
<text x="10" y="174" class="label">fortnite.com</text>
<rect x="180" y="158" width="321.21" height="22" fill="#4c78a8" rx="3"/>
<text x="509.21" y="174" class="value">98.34</text>
<text x="10" y="206" class="label">unrealengine.com</text>
<rect x="180" y="190" width="321.47" height="22" fill="#4c78a8" rx="3"/>
<text x="509.47" y="206" class="value">98.42</text>
<text x="10" y="238" class="label">ubi.com</text>
<rect x="180" y="222" width="346.52" height="22" fill="#4c78a8" rx="3"/>
<text x="534.52" y="238" class="value">106.09</text>
<text x="10" y="270" class="label">blizzard.com</text>
<rect x="180" y="254" width="352.34" height="22" fill="#4c78a8" rx="3"/>
<text x="540.3399999999999" y="270" class="value">107.87</text>
<text x="10" y="302" class="label">store.akamai.steamstatic.com</text>
<rect x="180" y="286" width="372.46" height="22" fill="#4c78a8" rx="3"/>
<text x="560.46" y="302" class="value">114.03</text>
<text x="10" y="334" class="label">ea.com</text>
<rect x="180" y="318" width="435.11" height="22" fill="#4c78a8" rx="3"/>
<text x="623.11" y="334" class="value">133.21</text>
<text x="10" y="366" class="label">ubisoft.com</text>
<rect x="180" y="350" width="441.8" height="22" fill="#4c78a8" rx="3"/>
<text x="629.8" y="366" class="value">135.26</text>
<text x="10" y="398" class="label">epicgames.com</text>
<rect x="180" y="382" width="452.12" height="22" fill="#4c78a8" rx="3"/>
<text x="640.12" y="398" class="value">138.42</text>
<text x="10" y="430" class="label">community.akamai.steamstatic.com</text>
<rect x="180" y="414" width="500.11" height="22" fill="#4c78a8" rx="3"/>
<text x="688.11" y="430" class="value">153.11</text>
<text x="10" y="462" class="label">steamcdn-a.akamaihd.net</text>
<rect x="180" y="446" width="539.69" height="22" fill="#4c78a8" rx="3"/>
<text x="727.69" y="462" class="value">165.23</text>
<text x="10" y="494" class="label">api.steampowered.com</text>
<rect x="180" y="478" width="580.0" height="22" fill="#4c78a8" rx="3"/>
<text x="768.0" y="494" class="value">177.57</text>
<line x1="180" y1="30" x2="180" y2="520" stroke="#ccc"/>
<line x1="180" y1="520" x2="760" y2="520" stroke="#ccc"/>
</svg>