<svg xmlns="http://www.w3.org/2000/svg" width="800" height="540">
<style> .label{font-family:DejaVu Sans,Verdana,Geneva,sans-serif;font-size:12px;fill:#333} .value{font-family:DejaVu Sans,Verdana,Geneva,sans-serif;font-size:12px;fill:#555} </style>
<text x="10" y="20" class="label">延迟柱状图（越低越好，Top 15），单位 ms</text>
<text x="10" y="46" class="label">eaassets-a.akamaihd.net</text>
<rect x="180" y="30" width="193.06" height="22" fill="#4c78a8" rx="3"/>
<text x="381.06" y="46" class="value">75.75</text>
<text x="10" y="78" class="label">rockstargames.com</text>
<rect x="180" y="62" width="201.45" height="22" fill="#4c78a8" rx="3"/>
<text x="389.45" y="78" class="value">79.04</text>
<text x="10" y="110" class="label">ea.com</text>
<rect x="180" y="94" width="211.41" height="22" fill="#4c78a8" rx="3"/>
<text x="399.40999999999997" y="110" class="value">82.95</text>
<text x="10" y="142" class="label">origin.com</text>
<rect x="180" y="126" width="250.66" height="22" fill="#4c78a8" rx="3"/>
<text x="438.65999999999997" y="142" class="value">98.35</text>
<text x="10" y="174" class="label">community.akamai.steamstatic.com</text>
<rect x="180" y="158" width="283.56" height="22" fill="#4c78a8" rx="3"/>
<text x="471.56" y="174" class="value">111.26</text>
<text x="10" y="206" class="label">ubi.com</text>
<rect x="180" y="190" width="354.72" height="22" fill="#4c78a8" rx="3"/>
<text x="542.72" y="206" class="value">139.18</text>
<text x="10" y="238" class="label">store.akamai.steamstatic.com</text>
<rect x="180" y="222" width="360.23" height="22" fill="#4c78a8" rx="3"/>
<text x="548.23" y="238" class="value">141.34</text>
<text x="10" y="270" class="label">blizzard.com</text>
<rect x="180" y="254" width="363.26" height="22" fill="#4c78a8" rx="3"/>
<text x="551.26" y="270" class="value">142.53</text>
<text x="10" y="302" class="label">battle.net</text>
<rect x="180" y="286" width="366.65" height="22" fill="#4c78a8" rx="3"/>
<text x="554.65" y="302" class="value">143.86</text>
<text x="10" y="334" class="label">socialclub.rockstargames.com</text>
<rect x="180" y="318" width="390.99" height="22" fill="#4c78a8" rx="3"/>
<text x="578.99" y="334" class="value">153.41</text>
<text x="10" y="366" class="label">steamcdn-a.akamaihd.net</text>
<rect x="180" y="350" width="403.63" height="22" fill="#4c78a8" rx="3"/>
<text x="591.63" y="366" class="value">158.37</text>
<text x="10" y="398" class="label">api.steampowered.com</text>
<rect x="180" y="382" width="487.18" height="22" fill="#4c78a8" rx="3"/>
<text x="675.1800000000001" y="398" class="value">191.15</text>
<text x="10" y="430" class="label">unrealengine.com</text>
<rect x="180" y="414" width="563.41" height="22" fill="#4c78a8" rx="3"/>
<text x="751.41" y="430" class="value">221.06</text>
<text x="10" y="462" class="label">easyanticheat.net</text>
<rect x="180" y="446" width="567.59" height="22" fill="#4c78a8" rx="3"/>
<text x="755.59" y="462" class="value">222.70</text>
<text x="10" y="494" class="label">ubisoft.com</text>
<rect x="180" y="478" width="580.0" height="22" fill="#4c78a8" rx="3"/>
<text x="768.0" y="494" class="value">227.57</text>
<line x1="180" y1="30" x2="180" y2="520" stroke="#ccc"/>
<line x1="180" y1="520" x2="760" y2="520" stroke="#ccc"/>
</svg>