<svg xmlns="http://www.w3.org/2000/svg" width="800" height="540">
<style> .label{font-family:DejaVu Sans,Verdana,Geneva,sans-serif;font-size:12px;fill:#333} .value{font-family:DejaVu Sans,Verdana,Geneva,sans-serif;font-size:12px;fill:#555} </style>
<text x="10" y="20" class="label">延迟柱状图（越低越好，Top 15），单位 ms</text>
<text x="10" y="46" class="label">steamcdn-a.akamaihd.net</text>
<rect x="180" y="30" width="206.35" height="22" fill="#4c78a8" rx="3"/>
<text x="394.35" y="46" class="value">81.74</text>
<text x="10" y="78" class="label">store.akamai.steamstatic.com</text>
<rect x="180" y="62" width="222.86" height="22" fill="#4c78a8" rx="3"/>
<text x="410.86" y="78" class="value">88.28</text>
<text x="10" y="110" class="label">rockstargames.com</text>
<rect x="180" y="94" width="233.46" height="22" fill="#4c78a8" rx="3"/>
<text x="421.46000000000004" y="110" class="value">92.48</text>
<text x="10" y="142" class="label">eaassets-a.akamaihd.net</text>
<rect x="180" y="126" width="245.1" height="22" fill="#4c78a8" rx="3"/>
<text x="433.1" y="142" class="value">97.09</text>
<text x="10" y="174" class="label">origin.com</text>
<rect x="180" y="158" width="246.54" height="22" fill="#4c78a8" rx="3"/>
<text x="434.53999999999996" y="174" class="value">97.66</text>
<text x="10" y="206" class="label">community.akamai.steamstatic.com</text>
<rect x="180" y="190" width="247.27" height="22" fill="#4c78a8" rx="3"/>
<text x="435.27" y="206" class="value">97.95</text>
<text x="10" y="238" class="label">ea.com</text>
<rect x="180" y="222" width="292.94" height="22" fill="#4c78a8" rx="3"/>
<text x="480.94" y="238" class="value">116.04</text>
<text x="10" y="270" class="label">blizzard.com</text>
<rect x="180" y="254" width="312.99" height="22" fill="#4c78a8" rx="3"/>
<text x="500.99" y="270" class="value">123.98</text>
<text x="10" y="302" class="label">ubisoft.com</text>
<rect x="180" y="286" width="342.77" height="22" fill="#4c78a8" rx="3"/>
<text x="530.77" y="302" class="value">135.78</text>
<text x="10" y="334" class="label">socialclub.rockstargames.com</text>
<rect x="180" y="318" width="353.76" height="22" fill="#4c78a8" rx="3"/>
<text x="541.76" y="334" class="value">140.13</text>
<text x="10" y="366" class="label">battle.net</text>
<rect x="180" y="350" width="402.96" height="22" fill="#4c78a8" rx="3"/>
<text x="590.96" y="366" class="value">159.62</text>
<text x="10" y="398" class="label">cdn.akamai.steamstatic.com</text>
<rect x="180" y="382" width="437.37" height="22" fill="#4c78a8" rx="3"/>
<text x="625.37" y="398" class="value">173.25</text>
<text x="10" y="430" class="label">ubi.com</text>
<rect x="180" y="414" width="454.76" height="22" fill="#4c78a8" rx="3"/>
<text x="642.76" y="430" class="value">180.14</text>
<text x="10" y="462" class="label">www.steamcommunity.com</text>
<rect x="180" y="446" width="510.65" height="22" fill="#4c78a8" rx="3"/>
<text x="698.65" y="462" class="value">202.28</text>
<text x="10" y="494" class="label">easyanticheat.net</text>
<rect x="180" y="478" width="580.0" height="22" fill="#4c78a8" rx="3"/>
<text x="768.0" y="494" class="value">229.75</text>
<line x1="180" y1="30" x2="180" y2="520" stroke="#ccc"/>
<line x1="180" y1="520" x2="760" y2="520" stroke="#ccc"/>
</svg>