<svg xmlns="http://www.w3.org/2000/svg" width="800" height="540">
<style> .label{font-family:DejaVu Sans,Verdana,Geneva,sans-serif;font-size:12px;fill:#333} .value{font-family:DejaVu Sans,Verdana,Geneva,sans-serif;font-size:12px;fill:#555} </style>
<text x="10" y="20" class="label">延迟柱状图（越低越好，Top 15），单位 ms</text>
<text x="10" y="46" class="label">blizzard.com</text>
<rect x="180" y="30" width="185.05" height="22" fill="#4c78a8" rx="3"/>
<text x="373.05" y="46" class="value">66.68</text>
<text x="10" y="78" class="label">battle.net</text>
<rect x="180" y="62" width="191.6" height="22" fill="#4c78a8" rx="3"/>
<text x="379.6" y="78" class="value">69.04</text>
<text x="10" y="110" class="label">socialclub.rockstargames.com</text>
<rect x="180" y="94" width="268.39" height="22" fill="#4c78a8" rx="3"/>
<text x="456.39" y="110" class="value">96.71</text>
<text x="10" y="142" class="label">ubi.com</text>
<rect x="180" y="126" width="270.06" height="22" fill="#4c78a8" rx="3"/>
<text x="458.06" y="142" class="value">97.31</text>
<text x="10" y="174" class="label">eaassets-a.akamaihd.net</text>
<rect x="180" y="158" width="298.2" height="22" fill="#4c78a8" rx="3"/>
<text x="486.2" y="174" class="value">107.45</text>
<text x="10" y="206" class="label">store.akamai.steamstatic.com</text>
<rect x="180" y="190" width="305.5" height="22" fill="#4c78a8" rx="3"/>
<text x="493.5" y="206" class="value">110.08</text>
<text x="10" y="238" class="label">unrealengine.com</text>
<rect x="180" y="222" width="362.42" height="22" fill="#4c78a8" rx="3"/>
<text x="550.4200000000001" y="238" class="value">130.59</text>
<text x="10" y="270" class="label">fortnite.com</text>
<rect x="180" y="254" width="381.79" height="22" fill="#4c78a8" rx="3"/>
<text x="569.79" y="270" class="value">137.57</text>
<text x="10" y="302" class="label">rockstargames.com</text>
<rect x="180" y="286" width="396.44" height="22" fill="#4c78a8" rx="3"/>
<text x="584.44" y="302" class="value">142.85</text>
<text x="10" y="334" class="label">ubisoft.com</text>
<rect x="180" y="318" width="398.3" height="22" fill="#4c78a8" rx="3"/>
<text x="586.3" y="334" class="value">143.52</text>
<text x="10" y="366" class="label">epicgames.com</text>
<rect x="180" y="350" width="402.44" height="22" fill="#4c78a8" rx="3"/>
<text x="590.44" y="366" class="value">145.01</text>
<text x="10" y="398" class="label">community.akamai.steamstatic.com</text>
<rect x="180" y="382" width="411.21" height="22" fill="#4c78a8" rx="3"/>
<text x="599.21" y="398" class="value">148.17</text>
<text x="10" y="430" class="label">ea.com</text>
<rect x="180" y="414" width="433.99" height="22" fill="#4c78a8" rx="3"/>
<text x="621.99" y="430" class="value">156.38</text>
<text x="10" y="462" class="label">steam-chat.com</text>
<rect x="180" y="446" width="521.78" height="22" fill="#4c78a8" rx="3"/>
<text x="709.78" y="462" class="value">188.01</text>
<text x="10" y="494" class="label">api.steampowered.com</text>
<rect x="180" y="478" width="580.0" height="22" fill="#4c78a8" rx="3"/>
<text x="768.0" y="494" class="value">208.99</text>
<line x1="180" y1="30" x2="180" y2="520" stroke="#ccc"/>
<line x1="180" y1="520" x2="760" y2="520" stroke="#ccc"/>
</svg>