<svg xmlns="http://www.w3.org/2000/svg" width="800" height="540">
<style> .label{font-family:DejaVu Sans,Verdana,Geneva,sans-serif;font-size:12px;fill:#333} .value{font-family:DejaVu Sans,Verdana,Geneva,sans-serif;font-size:12px;fill:#555} </style>
<text x="10" y="20" class="label">延迟柱状图（越低越好，Top 15），单位 ms</text>
<text x="10" y="46" class="label">eaassets-a.akamaihd.net</text>
<rect x="180" y="30" width="133.16" height="22" fill="#4c78a8" rx="3"/>
<text x="321.15999999999997" y="46" class="value">49.29</text>
<text x="10" y="78" class="label">rockstargames.com</text>
<rect x="180" y="62" width="163.55" height="22" fill="#4c78a8" rx="3"/>
<text x="351.55" y="78" class="value">60.54</text>
<text x="10" y="110" class="label">steamcdn-a.akamaihd.net</text>
<rect x="180" y="94" width="216.58" height="22" fill="#4c78a8" rx="3"/>
<text x="404.58000000000004" y="110" class="value">80.17</text>
<text x="10" y="142" class="label">ubisoft.com</text>
<rect x="180" y="126" width="274.53" height="22" fill="#4c78a8" rx="3"/>
<text x="462.53" y="142" class="value">101.62</text>
<text x="10" y="174" class="label">ea.com</text>
<rect x="180" y="158" width="303.33" height="22" fill="#4c78a8" rx="3"/>
<text x="491.33" y="174" class="value">112.28</text>
<text x="10" y="206" class="label">ubi.com</text>
<rect x="180" y="190" width="377.06" height="22" fill="#4c78a8" rx="3"/>
<text x="565.06" y="206" class="value">139.57</text>
<text x="10" y="238" class="label">blizzard.com</text>
<rect x="180" y="222" width="388.65" height="22" fill="#4c78a8" rx="3"/>
<text x="576.65" y="238" class="value">143.86</text>
<text x="10" y="270" class="label">battle.net</text>
<rect x="180" y="254" width="390.48" height="22" fill="#4c78a8" rx="3"/>
<text x="578.48" y="270" class="value">144.54</text>
<text x="10" y="302" class="label">socialclub.rockstargames.com</text>
<rect x="180" y="286" width="405.59" height="22" fill="#4c78a8" rx="3"/>
<text x="593.5899999999999" y="302" class="value">150.13</text>
<text x="10" y="334" class="label">cdn.akamai.steamstatic.com</text>
<rect x="180" y="318" width="441.14" height="22" fill="#4c78a8" rx="3"/>
<text x="629.14" y="334" class="value">163.29</text>
<text x="10" y="366" class="label">static3.cdn.ubi.com</text>
<rect x="180" y="350" width="475.75" height="22" fill="#4c78a8" rx="3"/>
<text x="663.75" y="366" class="value">176.10</text>
<text x="10" y="398" class="label">origin.com</text>
<rect x="180" y="382" width="477.29" height="22" fill="#4c78a8" rx="3"/>
<text x="665.29" y="398" class="value">176.67</text>
<text x="10" y="430" class="label">store.akamai.steamstatic.com</text>
<rect x="180" y="414" width="528.43" height="22" fill="#4c78a8" rx="3"/>
<text x="716.43" y="430" class="value">195.60</text>
<text x="10" y="462" class="label">community.akamai.steamstatic.com</text>
<rect x="180" y="446" width="562.63" height="22" fill="#4c78a8" rx="3"/>
<text x="750.63" y="462" class="value">208.26</text>
<text x="10" y="494" class="label">cdn.cloudflare.steamstatic.com</text>
<rect x="180" y="478" width="580.0" height="22" fill="#4c78a8" rx="3"/>
<text x="768.0" y="494" class="value">214.69</text>
<line x1="180" y1="30" x2="180" y2="520" stroke="#ccc"/>
<line x1="180" y1="520" x2="760" y2="520" stroke="#ccc"/>
</svg>