<svg xmlns="http://www.w3.org/2000/svg" width="800" height="540">
<style> .label{font-family:DejaVu Sans,Verdana,Geneva,sans-serif;font-size:12px;fill:#333} .value{font-family:DejaVu Sans,Verdana,Geneva,sans-serif;font-size:12px;fill:#555} </style>
<text x="10" y="20" class="label">延迟柱状图（越低越好，Top 15），单位 ms</text>
<text x="10" y="46" class="label">rockstargames.com</text>
<rect x="180" y="30" width="82.02" height="22" fill="#4c78a8" rx="3"/>
<text x="270.02" y="46" class="value">40.76</text>
<text x="10" y="78" class="label">origin.com</text>
<rect x="180" y="62" width="148.37" height="22" fill="#4c78a8" rx="3"/>
<text x="336.37" y="78" class="value">73.73</text>
<text x="10" y="110" class="label">cdn.cloudflare.steamstatic.com</text>
<rect x="180" y="94" width="196.75" height="22" fill="#4c78a8" rx="3"/>
<text x="384.75" y="110" class="value">97.77</text>
<text x="10" y="142" class="label">eaassets-a.akamaihd.net</text>
<rect x="180" y="126" width="200.83" height="22" fill="#4c78a8" rx="3"/>
<text x="388.83000000000004" y="142" class="value">99.80</text>
<text x="10" y="174" class="label">ea.com</text>
<rect x="180" y="158" width="201.22" height="22" fill="#4c78a8" rx="3"/>
<text x="389.22" y="174" class="value">99.99</text>
<text x="10" y="206" class="label">community.akamai.steamstatic.com</text>
<rect x="180" y="190" width="313.36" height="22" fill="#4c78a8" rx="3"/>
<text x="501.36" y="206" class="value">155.72</text>
<text x="10" y="238" class="label">cdn.akamai.steamstatic.com</text>
<rect x="180" y="222" width="322.46" height="22" fill="#4c78a8" rx="3"/>
<text x="510.46" y="238" class="value">160.24</text>
<text x="10" y="270" class="label">easyanticheat.net</text>
<rect x="180" y="254" width="327.91" height="22" fill="#4c78a8" rx="3"/>
<text x="515.9100000000001" y="270" class="value">162.95</text>
<text x="10" y="302" class="label">steamcdn-a.akamaihd.net</text>
<rect x="180" y="286" width="361.5" height="22" fill="#4c78a8" rx="3"/>
<text x="549.5" y="302" class="value">179.64</text>
<text x="10" y="334" class="label">store.akamai.steamstatic.com</text>
<rect x="180" y="318" width="408.95" height="22" fill="#4c78a8" rx="3"/>
<text x="596.95" y="334" class="value">203.22</text>
<text x="10" y="366" class="label">ubisoft.com</text>
<rect x="180" y="350" width="415.71" height="22" fill="#4c78a8" rx="3"/>
<text x="603.71" y="366" class="value">206.58</text>
<text x="10" y="398" class="label">steam-chat.com</text>
<rect x="180" y="382" width="557.12" height="22" fill="#4c78a8" rx="3"/>
<text x="745.12" y="398" class="value">276.85</text>
<text x="10" y="430" class="label">static3.cdn.ubi.com</text>
<rect x="180" y="414" width="570.04" height="22" fill="#4c78a8" rx="3"/>
<text x="758.04" y="430" class="value">283.27</text>
<text x="10" y="462" class="label">battle.net</text>
<rect x="180" y="446" width="570.32" height="22" fill="#4c78a8" rx="3"/>
<text x="758.32" y="462" class="value">283.41</text>
<text x="10" y="494" class="label">api.steampowered.com</text>
<rect x="180" y="478" width="580.0" height="22" fill="#4c78a8" rx="3"/>
<text x="768.0" y="494" class="value">288.22</text>
<line x1="180" y1="30" x2="180" y2="520" stroke="#ccc"/>
<line x1="180" y1="520" x2="760" y2="520" stroke="#ccc"/>
</svg>