<svg xmlns="http://www.w3.org/2000/svg" width="800" height="540">
<style> .label{font-family:DejaVu Sans,Verdana,Geneva,sans-serif;font-size:12px;fill:#333} .value{font-family:DejaVu Sans,Verdana,Geneva,sans-serif;font-size:12px;fill:#555} </style>
<text x="10" y="20" class="label">延迟柱状图（越低越好，Top 15），单位 ms</text>
<text x="10" y="46" class="label">rockstargames.com</text>
<rect x="180" y="30" width="212.58" height="22" fill="#4c78a8" rx="3"/>
<text x="400.58000000000004" y="46" class="value">65.89</text>
<text x="10" y="78" class="label">socialclub.rockstargames.com</text>
<rect x="180" y="62" width="282.69" height="22" fill="#4c78a8" rx="3"/>
<text x="470.69" y="78" class="value">87.62</text>
<text x="10" y="110" class="label">battle.net</text>
<rect x="180" y="94" width="290.79" height="22" fill="#4c78a8" rx="3"/>
<text x="478.79" y="110" class="value">90.13</text>
<text x="10" y="142" class="label">blizzard.com</text>
<rect x="180" y="126" width="320.7" height="22" fill="#4c78a8" rx="3"/>
<text x="508.7" y="142" class="value">99.40</text>
<text x="10" y="174" class="label">cdn.cloudflare.steamstatic.com</text>
<rect x="180" y="158" width="320.99" height="22" fill="#4c78a8" rx="3"/>
<text x="508.99" y="174" class="value">99.49</text>
<text x="10" y="206" class="label">ubisoft.com</text>
<rect x="180" y="190" width="339.8" height="22" fill="#4c78a8" rx="3"/>
<text x="527.8" y="206" class="value">105.32</text>
<text x="10" y="238" class="label">ubi.com</text>
<rect x="180" y="222" width="343.28" height="22" fill="#4c78a8" rx="3"/>
<text x="531.28" y="238" class="value">106.40</text>
<text x="10" y="270" class="label">unrealengine.com</text>
<rect x="180" y="254" width="343.41" height="22" fill="#4c78a8" rx="3"/>
<text x="531.4100000000001" y="270" class="value">106.44</text>
<text x="10" y="302" class="label">epicgames.com</text>
<rect x="180" y="286" width="382.9" height="22" fill="#4c78a8" rx="3"/>
<text x="570.9" y="302" class="value">118.68</text>
<text x="10" y="334" class="label">steamcdn-a.akamaihd.net</text>
<rect x="180" y="318" width="491.15" height="22" fill="#4c78a8" rx="3"/>
<text x="679.15" y="334" class="value">152.23</text>
<text x="10" y="366" class="label">eaassets-a.akamaihd.net</text>
<rect x="180" y="350" width="501.24" height="22" fill="#4c78a8" rx="3"/>
<text x="689.24" y="366" class="value">155.36</text>
<text x="10" y="398" class="label">ea.com</text>
<rect x="180" y="382" width="538.67" height="22" fill="#4c78a8" rx="3"/>
<text x="726.67" y="398" class="value">166.96</text>
<text x="10" y="430" class="label">static3.cdn.ubi.com</text>
<rect x="180" y="414" width="566.55" height="22" fill="#4c78a8" rx="3"/>
<text x="754.55" y="430" class="value">175.60</text>
<text x="10" y="462" class="label">origin.com</text>
<rect x="180" y="446" width="577.23" height="22" fill="#4c78a8" rx="3"/>
<text x="765.23" y="462" class="value">178.91</text>
<text x="10" y="494" class="label">gog.com</text>
<rect x="180" y="478" width="580.0" height="22" fill="#4c78a8" rx="3"/>
<text x="768.0" y="494" class="value">179.77</text>
<line x1="180" y1="30" x2="180" y2="520" stroke="#ccc"/>
<line x1="180" y1="520" x2="760" y2="520" stroke="#ccc"/>
</svg>