<svg xmlns="http://www.w3.org/2000/svg" width="800" height="540">
<style> .label{font-family:DejaVu Sans,Verdana,Geneva,sans-serif;font-size:12px;fill:#333} .value{font-family:DejaVu Sans,Verdana,Geneva,sans-serif;font-size:12px;fill:#555} </style>
<text x="10" y="20" class="label">延迟柱状图（越低越好，Top 15），单位 ms</text>
<text x="10" y="46" class="label">rockstargames.com</text>
<rect x="180" y="30" width="102.69" height="22" fill="#4c78a8" rx="3"/>
<text x="290.69" y="46" class="value">45.42</text>
<text x="10" y="78" class="label">ea.com</text>
<rect x="180" y="62" width="113.0" height="22" fill="#4c78a8" rx="3"/>
<text x="301.0" y="78" class="value">49.98</text>
<text x="10" y="110" class="label">eaassets-a.akamaihd.net</text>
<rect x="180" y="94" width="138.19" height="22" fill="#4c78a8" rx="3"/>
<text x="326.19" y="110" class="value">61.12</text>
<text x="10" y="142" class="label">steamcdn-a.akamaihd.net</text>
<rect x="180" y="126" width="176.44" height="22" fill="#4c78a8" rx="3"/>
<text x="364.44" y="142" class="value">78.04</text>
<text x="10" y="174" class="label">cdn.cloudflare.steamstatic.com</text>
<rect x="180" y="158" width="224.9" height="22" fill="#4c78a8" rx="3"/>
<text x="412.9" y="174" class="value">99.47</text>
<text x="10" y="206" class="label">cdn.akamai.steamstatic.com</text>
<rect x="180" y="190" width="293.92" height="22" fill="#4c78a8" rx="3"/>
<text x="481.92" y="206" class="value">130.00</text>
<text x="10" y="238" class="label">ubisoft.com</text>
<rect x="180" y="222" width="309.41" height="22" fill="#4c78a8" rx="3"/>
<text x="497.41" y="238" class="value">136.85</text>
<text x="10" y="270" class="label">community.akamai.steamstatic.com</text>
<rect x="180" y="254" width="326.8" height="22" fill="#4c78a8" rx="3"/>
<text x="514.8" y="270" class="value">144.54</text>
<text x="10" y="302" class="label">origin.com</text>
<rect x="180" y="286" width="346.49" height="22" fill="#4c78a8" rx="3"/>
<text x="534.49" y="302" class="value">153.25</text>
<text x="10" y="334" class="label">static3.cdn.ubi.com</text>
<rect x="180" y="318" width="387.28" height="22" fill="#4c78a8" rx="3"/>
<text x="575.28" y="334" class="value">171.29</text>
<text x="10" y="366" class="label">store.akamai.steamstatic.com</text>
<rect x="180" y="350" width="396.09" height="22" fill="#4c78a8" rx="3"/>
<text x="584.0899999999999" y="366" class="value">175.19</text>
<text x="10" y="398" class="label">api.steampowered.com</text>
<rect x="180" y="382" width="515.79" height="22" fill="#4c78a8" rx="3"/>
<text x="703.79" y="398" class="value">228.13</text>
<text x="10" y="430" class="label">launcher-public-service-prod06.ol.epicgames.com</text>
<rect x="180" y="414" width="519.81" height="22" fill="#4c78a8" rx="3"/>
<text x="707.81" y="430" class="value">229.91</text>
<text x="10" y="462" class="label">easyanticheat.net</text>
<rect x="180" y="446" width="567.02" height="22" fill="#4c78a8" rx="3"/>
<text x="755.02" y="462" class="value">250.79</text>
<text x="10" y="494" class="label">www.steamcommunity.com</text>
<rect x="180" y="478" width="580.0" height="22" fill="#4c78a8" rx="3"/>
<text x="768.0" y="494" class="value">256.53</text>
<line x1="180" y1="30" x2="180" y2="520" stroke="#ccc"/>
<line x1="180" y1="520" x2="760" y2="520" stroke="#ccc"/>
</svg>