<svg xmlns="http://www.w3.org/2000/svg" width="800" height="540">
<style> .label{font-family:DejaVu Sans,Verdana,Geneva,sans-serif;font-size:12px;fill:#333} .value{font-family:DejaVu Sans,Verdana,Geneva,sans-serif;font-size:12px;fill:#555} </style>
<text x="10" y="20" class="label">延迟柱状图（越低越好，Top 15），单位 ms</text>
<text x="10" y="46" class="label">rockstargames.com</text>
<rect x="180" y="30" width="129.45" height="22" fill="#4c78a8" rx="3"/>
<text x="317.45" y="46" class="value">46.32</text>
<text x="10" y="78" class="label">socialclub.rockstargames.com</text>
<rect x="180" y="62" width="189.85" height="22" fill="#4c78a8" rx="3"/>
<text x="377.85" y="78" class="value">67.93</text>
<text x="10" y="110" class="label">ea.com</text>
<rect x="180" y="94" width="228.31" height="22" fill="#4c78a8" rx="3"/>
<text x="416.31" y="110" class="value">81.69</text>
<text x="10" y="142" class="label">community.akamai.steamstatic.com</text>
<rect x="180" y="126" width="237.28" height="22" fill="#4c78a8" rx="3"/>
<text x="425.28" y="142" class="value">84.90</text>
<text x="10" y="174" class="label">eaassets-a.akamaihd.net</text>
<rect x="180" y="158" width="238.7" height="22" fill="#4c78a8" rx="3"/>
<text x="426.7" y="174" class="value">85.41</text>
<text x="10" y="206" class="label">battle.net</text>
<rect x="180" y="190" width="258.66" height="22" fill="#4c78a8" rx="3"/>
<text x="446.66" y="206" class="value">92.55</text>
<text x="10" y="238" class="label">blizzard.com</text>
<rect x="180" y="222" width="288.45" height="22" fill="#4c78a8" rx="3"/>
<text x="476.45" y="238" class="value">103.21</text>
<text x="10" y="270" class="label">store.akamai.steamstatic.com</text>
<rect x="180" y="254" width="300.83" height="22" fill="#4c78a8" rx="3"/>
<text x="488.83" y="270" class="value">107.64</text>
<text x="10" y="302" class="label">ubisoft.com</text>
<rect x="180" y="286" width="351.14" height="22" fill="#4c78a8" rx="3"/>
<text x="539.14" y="302" class="value">125.64</text>
<text x="10" y="334" class="label">ubi.com</text>
<rect x="180" y="318" width="396.69" height="22" fill="#4c78a8" rx="3"/>
<text x="584.69" y="334" class="value">141.94</text>
<text x="10" y="366" class="label">unrealengine.com</text>
<rect x="180" y="350" width="458.06" height="22" fill="#4c78a8" rx="3"/>
<text x="646.06" y="366" class="value">163.90</text>
<text x="10" y="398" class="label">cdn.akamai.steamstatic.com</text>
<rect x="180" y="382" width="472.01" height="22" fill="#4c78a8" rx="3"/>
<text x="660.01" y="398" class="value">168.89</text>
<text x="10" y="430" class="label">fortnite.com</text>
<rect x="180" y="414" width="480.95" height="22" fill="#4c78a8" rx="3"/>
<text x="668.95" y="430" class="value">172.09</text>
<text x="10" y="462" class="label">static3.cdn.ubi.com</text>
<rect x="180" y="446" width="568.37" height="22" fill="#4c78a8" rx="3"/>
<text x="756.37" y="462" class="value">203.37</text>
<text x="10" y="494" class="label">www.steamcommunity.com</text>
<rect x="180" y="478" width="580.0" height="22" fill="#4c78a8" rx="3"/>
<text x="768.0" y="494" class="value">207.53</text>
<line x1="180" y1="30" x2="180" y2="520" stroke="#ccc"/>
<line x1="180" y1="520" x2="760" y2="520" stroke="#ccc"/>
</svg>