<svg xmlns="http://www.w3.org/2000/svg" width="800" height="540">
<style> .label{font-family:DejaVu Sans,Verdana,Geneva,sans-serif;font-size:12px;fill:#333} .value{font-family:DejaVu Sans,Verdana,Geneva,sans-serif;font-size:12px;fill:#555} </style>
<text x="10" y="20" class="label">延迟柱状图（越低越好，Top 15），单位 ms</text>
<text x="10" y="46" class="label">eaassets-a.akamaihd.net</text>
<rect x="180" y="30" width="228.57" height="22" fill="#4c78a8" rx="3"/>
<text x="416.57" y="46" class="value">111.18</text>
<text x="10" y="78" class="label">cdn.akamai.steamstatic.com</text>
<rect x="180" y="62" width="239.8" height="22" fill="#4c78a8" rx="3"/>
<text x="427.8" y="78" class="value">116.64</text>
<text x="10" y="110" class="label">store.akamai.steamstatic.com</text>
<rect x="180" y="94" width="253.67" height="22" fill="#4c78a8" rx="3"/>
<text x="441.66999999999996" y="110" class="value">123.39</text>
<text x="10" y="142" class="label">ubisoft.com</text>
<rect x="180" y="126" width="271.44" height="22" fill="#4c78a8" rx="3"/>
<text x="459.44" y="142" class="value">132.03</text>
<text x="10" y="174" class="label">ea.com</text>
<rect x="180" y="158" width="283.36" height="22" fill="#4c78a8" rx="3"/>
<text x="471.36" y="174" class="value">137.83</text>
<text x="10" y="206" class="label">cdn.cloudflare.steamstatic.com</text>
<rect x="180" y="190" width="353.22" height="22" fill="#4c78a8" rx="3"/>
<text x="541.22" y="206" class="value">171.81</text>
<text x="10" y="238" class="label">origin.com</text>
<rect x="180" y="222" width="367.79" height="22" fill="#4c78a8" rx="3"/>
<text x="555.79" y="238" class="value">178.90</text>
<text x="10" y="270" class="label">rockstargames.com</text>
<rect x="180" y="254" width="406.3" height="22" fill="#4c78a8" rx="3"/>
<text x="594.3" y="270" class="value">197.63</text>
<text x="10" y="302" class="label">ubi.com</text>
<rect x="180" y="286" width="424.45" height="22" fill="#4c78a8" rx="3"/>
<text x="612.45" y="302" class="value">206.46</text>
<text x="10" y="334" class="label">community.akamai.steamstatic.com</text>
<rect x="180" y="318" width="426.78" height="22" fill="#4c78a8" rx="3"/>
<text x="614.78" y="334" class="value">207.59</text>
<text x="10" y="366" class="label">steamcdn-a.akamaihd.net</text>
<rect x="180" y="350" width="433.27" height="22" fill="#4c78a8" rx="3"/>
<text x="621.27" y="366" class="value">210.75</text>
<text x="10" y="398" class="label">unrealengine.com</text>
<rect x="180" y="382" width="524.04" height="22" fill="#4c78a8" rx="3"/>
<text x="712.04" y="398" class="value">254.90</text>
<text x="10" y="430" class="label">socialclub.rockstargames.com</text>
<rect x="180" y="414" width="542.46" height="22" fill="#4c78a8" rx="3"/>
<text x="730.46" y="430" class="value">263.86</text>
<text x="10" y="462" class="label">easyanticheat.net</text>
<rect x="180" y="446" width="572.0" height="22" fill="#4c78a8" rx="3"/>
<text x="760.0" y="462" class="value">278.23</text>
<text x="10" y="494" class="label">epicgames.com</text>
<rect x="180" y="478" width="580.0" height="22" fill="#4c78a8" rx="3"/>
<text x="768.0" y="494" class="value">282.12</text>
<line x1="180" y1="30" x2="180" y2="520" stroke="#ccc"/>
<line x1="180" y1="520" x2="760" y2="520" stroke="#ccc"/>
</svg>