<svg xmlns="http://www.w3.org/2000/svg" width="800" height="540">
<style> .label{font-family:DejaVu Sans,Verdana,Geneva,sans-serif;font-size:12px;fill:#333} .value{font-family:DejaVu Sans,Verdana,Geneva,sans-serif;font-size:12px;fill:#555} </style>
<text x="10" y="20" class="label">延迟柱状图（越低越好，Top 15），单位 ms</text>
<text x="10" y="46" class="label">rockstargames.com</text>
<rect x="180" y="30" width="213.62" height="22" fill="#4c78a8" rx="3"/>
<text x="401.62" y="46" class="value">94.54</text>
<text x="10" y="78" class="label">eaassets-a.akamaihd.net</text>
<rect x="180" y="62" width="275.63" height="22" fill="#4c78a8" rx="3"/>
<text x="463.63" y="78" class="value">121.98</text>
<text x="10" y="110" class="label">steamcdn-a.akamaihd.net</text>
<rect x="180" y="94" width="290.25" height="22" fill="#4c78a8" rx="3"/>
<text x="478.25" y="110" class="value">128.45</text>
<text x="10" y="142" class="label">ubisoft.com</text>
<rect x="180" y="126" width="303.4" height="22" fill="#4c78a8" rx="3"/>
<text x="491.4" y="142" class="value">134.27</text>
<text x="10" y="174" class="label">community.akamai.steamstatic.com</text>
<rect x="180" y="158" width="330.31" height="22" fill="#4c78a8" rx="3"/>
<text x="518.31" y="174" class="value">146.18</text>
<text x="10" y="206" class="label">easyanticheat.net</text>
<rect x="180" y="190" width="359.66" height="22" fill="#4c78a8" rx="3"/>
<text x="547.6600000000001" y="206" class="value">159.17</text>
<text x="10" y="238" class="label">ea.com</text>
<rect x="180" y="222" width="371.57" height="22" fill="#4c78a8" rx="3"/>
<text x="559.5699999999999" y="238" class="value">164.44</text>
<text x="10" y="270" class="label">store.akamai.steamstatic.com</text>
<rect x="180" y="254" width="421.76" height="22" fill="#4c78a8" rx="3"/>
<text x="609.76" y="270" class="value">186.65</text>
<text x="10" y="302" class="label">blizzard.com</text>
<rect x="180" y="286" width="447.43" height="22" fill="#4c78a8" rx="3"/>
<text x="635.4300000000001" y="302" class="value">198.01</text>
<text x="10" y="334" class="label">cdn.cloudflare.steamstatic.com</text>
<rect x="180" y="318" width="463.18" height="22" fill="#4c78a8" rx="3"/>
<text x="651.1800000000001" y="334" class="value">204.98</text>
<text x="10" y="366" class="label">www.steamcommunity.com</text>
<rect x="180" y="350" width="467.54" height="22" fill="#4c78a8" rx="3"/>
<text x="655.54" y="366" class="value">206.91</text>
<text x="10" y="398" class="label">cdn.akamai.steamstatic.com</text>
<rect x="180" y="382" width="468.51" height="22" fill="#4c78a8" rx="3"/>
<text x="656.51" y="398" class="value">207.34</text>
<text x="10" y="430" class="label">ubi.com</text>
<rect x="180" y="414" width="526.61" height="22" fill="#4c78a8" rx="3"/>
<text x="714.61" y="430" class="value">233.05</text>
<text x="10" y="462" class="label">api.steampowered.com</text>
<rect x="180" y="446" width="571.01" height="22" fill="#4c78a8" rx="3"/>
<text x="759.01" y="462" class="value">252.70</text>
<text x="10" y="494" class="label">launcher-public-service-prod06.ol.epicgames.com</text>
<rect x="180" y="478" width="580.0" height="22" fill="#4c78a8" rx="3"/>
<text x="768.0" y="494" class="value">256.68</text>
<line x1="180" y1="30" x2="180" y2="520" stroke="#ccc"/>
<line x1="180" y1="520" x2="760" y2="520" stroke="#ccc"/>
</svg>