<svg xmlns="http://www.w3.org/2000/svg" width="800" height="540">
<style> .label{font-family:DejaVu Sans,Verdana,Geneva,sans-serif;font-size:12px;fill:#333} .value{font-family:DejaVu Sans,Verdana,Geneva,sans-serif;font-size:12px;fill:#555} </style>
<text x="10" y="20" class="label">延迟柱状图（越低越好，Top 15），单位 ms</text>
<text x="10" y="46" class="label">socialclub.rockstargames.com</text>
<rect x="180" y="30" width="173.65" height="22" fill="#4c78a8" rx="3"/>
<text x="361.65" y="46" class="value">61.01</text>
<text x="10" y="78" class="label">battle.net</text>
<rect x="180" y="62" width="235.18" height="22" fill="#4c78a8" rx="3"/>
<text x="423.18" y="78" class="value">82.63</text>
<text x="10" y="110" class="label">ubi.com</text>
<rect x="180" y="94" width="241.3" height="22" fill="#4c78a8" rx="3"/>
<text x="429.3" y="110" class="value">84.78</text>
<text x="10" y="142" class="label">rockstargames.com</text>
<rect x="180" y="126" width="275.88" height="22" fill="#4c78a8" rx="3"/>
<text x="463.88" y="142" class="value">96.93</text>
<text x="10" y="174" class="label">ubisoft.com</text>
<rect x="180" y="158" width="294.78" height="22" fill="#4c78a8" rx="3"/>
<text x="482.78" y="174" class="value">103.57</text>
<text x="10" y="206" class="label">blizzard.com</text>
<rect x="180" y="190" width="300.08" height="22" fill="#4c78a8" rx="3"/>
<text x="488.08" y="206" class="value">105.43</text>
<text x="10" y="238" class="label">ea.com</text>
<rect x="180" y="222" width="373.62" height="22" fill="#4c78a8" rx="3"/>
<text x="561.62" y="238" class="value">131.27</text>
<text x="10" y="270" class="label">epicgames.com</text>
<rect x="180" y="254" width="381.93" height="22" fill="#4c78a8" rx="3"/>
<text x="569.9300000000001" y="270" class="value">134.19</text>
<text x="10" y="302" class="label">eaassets-a.akamaihd.net</text>
<rect x="180" y="286" width="389.84" height="22" fill="#4c78a8" rx="3"/>
<text x="577.8399999999999" y="302" class="value">136.97</text>
<text x="10" y="334" class="label">static3.cdn.ubi.com</text>
<rect x="180" y="318" width="394.09" height="22" fill="#4c78a8" rx="3"/>
<text x="582.0899999999999" y="334" class="value">138.46</text>
<text x="10" y="366" class="label">fortnite.com</text>
<rect x="180" y="350" width="417.99" height="22" fill="#4c78a8" rx="3"/>
<text x="605.99" y="366" class="value">146.86</text>
<text x="10" y="398" class="label">launcher-public-service-prod06.ol.epicgames.com</text>
<rect x="180" y="382" width="431.8" height="22" fill="#4c78a8" rx="3"/>
<text x="619.8" y="398" class="value">151.71</text>
<text x="10" y="430" class="label">unrealengine.com</text>
<rect x="180" y="414" width="565.03" height="22" fill="#4c78a8" rx="3"/>
<text x="753.03" y="430" class="value">198.52</text>
<text x="10" y="462" class="label">steamcommunity.com</text>
<rect x="180" y="446" width="565.74" height="22" fill="#4c78a8" rx="3"/>
<text x="753.74" y="462" class="value">198.77</text>
<text x="10" y="494" class="label">cdn.akamai.steamstatic.com</text>
<rect x="180" y="478" width="580.0" height="22" fill="#4c78a8" rx="3"/>
<text x="768.0" y="494" class="value">203.78</text>
<line x1="180" y1="30" x2="180" y2="520" stroke="#ccc"/>
<line x1="180" y1="520" x2="760" y2="520" stroke="#ccc"/>
</svg>