<svg xmlns="http://www.w3.org/2000/svg" width="800" height="540">
<style> .label{font-family:DejaVu Sans,Verdana,Geneva,sans-serif;font-size:12px;fill:#333} .value{font-family:DejaVu Sans,Verdana,Geneva,sans-serif;font-size:12px;fill:#555} </style>
<text x="10" y="20" class="label">延迟柱状图（越低越好，Top 15），单位 ms</text>
<text x="10" y="46" class="label">rockstargames.com</text>
<rect x="180" y="30" width="158.15" height="22" fill="#4c78a8" rx="3"/>
<text x="346.15" y="46" class="value">52.36</text>
<text x="10" y="78" class="label">blizzard.com</text>
<rect x="180" y="62" width="209.38" height="22" fill="#4c78a8" rx="3"/>
<text x="397.38" y="78" class="value">69.32</text>
<text x="10" y="110" class="label">unrealengine.com</text>
<rect x="180" y="94" width="212.83" height="22" fill="#4c78a8" rx="3"/>
<text x="400.83000000000004" y="110" class="value">70.46</text>
<text x="10" y="142" class="label">battle.net</text>
<rect x="180" y="126" width="230.92" height="22" fill="#4c78a8" rx="3"/>
<text x="418.91999999999996" y="142" class="value">76.45</text>
<text x="10" y="174" class="label">eaassets-a.akamaihd.net</text>
<rect x="180" y="158" width="246.6" height="22" fill="#4c78a8" rx="3"/>
<text x="434.6" y="174" class="value">81.64</text>
<text x="10" y="206" class="label">store.akamai.steamstatic.com</text>
<rect x="180" y="190" width="316.82" height="22" fill="#4c78a8" rx="3"/>
<text x="504.82" y="206" class="value">104.89</text>
<text x="10" y="238" class="label">socialclub.rockstargames.com</text>
<rect x="180" y="222" width="318.79" height="22" fill="#4c78a8" rx="3"/>
<text x="506.79" y="238" class="value">105.54</text>
<text x="10" y="270" class="label">ubi.com</text>
<rect x="180" y="254" width="318.88" height="22" fill="#4c78a8" rx="3"/>
<text x="506.88" y="270" class="value">105.57</text>
<text x="10" y="302" class="label">ea.com</text>
<rect x="180" y="286" width="325.19" height="22" fill="#4c78a8" rx="3"/>
<text x="513.19" y="302" class="value">107.66</text>
<text x="10" y="334" class="label">fortnite.com</text>
<rect x="180" y="318" width="382.13" height="22" fill="#4c78a8" rx="3"/>
<text x="570.13" y="334" class="value">126.51</text>
<text x="10" y="366" class="label">ubisoft.com</text>
<rect x="180" y="350" width="417.22" height="22" fill="#4c78a8" rx="3"/>
<text x="605.22" y="366" class="value">138.13</text>
<text x="10" y="398" class="label">cdn.cloudflare.steamstatic.com</text>
<rect x="180" y="382" width="471.77" height="22" fill="#4c78a8" rx="3"/>
<text x="659.77" y="398" class="value">156.19</text>
<text x="10" y="430" class="label">origin.com</text>
<rect x="180" y="414" width="489.14" height="22" fill="#4c78a8" rx="3"/>
<text x="677.14" y="430" class="value">161.94</text>
<text x="10" y="462" class="label">cdn.akamai.steamstatic.com</text>
<rect x="180" y="446" width="538.59" height="22" fill="#4c78a8" rx="3"/>
<text x="726.59" y="462" class="value">178.31</text>
<text x="10" y="494" class="label">steam-chat.com</text>
<rect x="180" y="478" width="580.0" height="22" fill="#4c78a8" rx="3"/>
<text x="768.0" y="494" class="value">192.02</text>
<line x1="180" y1="30" x2="180" y2="520" stroke="#ccc"/>
<line x1="180" y1="520" x2="760" y2="520" stroke="#ccc"/>
</svg>