<svg xmlns="http://www.w3.org/2000/svg" width="800" height="540">
<style> .label{font-family:DejaVu Sans,Verdana,Geneva,sans-serif;font-size:12px;fill:#333} .value{font-family:DejaVu Sans,Verdana,Geneva,sans-serif;font-size:12px;fill:#555} </style>
<text x="10" y="20" class="label">延迟柱状图（越低越好，Top 15），单位 ms</text>
<text x="10" y="46" class="label">rockstargames.com</text>
<rect x="180" y="30" width="69.7" height="22" fill="#4c78a8" rx="3"/>
<text x="257.7" y="46" class="value">33.99</text>
<text x="10" y="78" class="label">eaassets-a.akamaihd.net</text>
<rect x="180" y="62" width="83.87" height="22" fill="#4c78a8" rx="3"/>
<text x="271.87" y="78" class="value">40.90</text>
<text x="10" y="110" class="label">ea.com</text>
<rect x="180" y="94" width="140.39" height="22" fill="#4c78a8" rx="3"/>
<text x="328.39" y="110" class="value">68.46</text>
<text x="10" y="142" class="label">cdn.akamai.steamstatic.com</text>
<rect x="180" y="126" width="199.66" height="22" fill="#4c78a8" rx="3"/>
<text x="387.65999999999997" y="142" class="value">97.36</text>
<text x="10" y="174" class="label">ubisoft.com</text>
<rect x="180" y="158" width="214.24" height="22" fill="#4c78a8" rx="3"/>
<text x="402.24" y="174" class="value">104.47</text>
<text x="10" y="206" class="label">steamcdn-a.akamaihd.net</text>
<rect x="180" y="190" width="307.01" height="22" fill="#4c78a8" rx="3"/>
<text x="495.01" y="206" class="value">149.71</text>
<text x="10" y="238" class="label">easyanticheat.net</text>
<rect x="180" y="222" width="352.35" height="22" fill="#4c78a8" rx="3"/>
<text x="540.35" y="238" class="value">171.82</text>
<text x="10" y="270" class="label">community.akamai.steamstatic.com</text>
<rect x="180" y="254" width="366.69" height="22" fill="#4c78a8" rx="3"/>
<text x="554.69" y="270" class="value">178.81</text>
<text x="10" y="302" class="label">origin.com</text>
<rect x="180" y="286" width="373.27" height="22" fill="#4c78a8" rx="3"/>
<text x="561.27" y="302" class="value">182.02</text>
<text x="10" y="334" class="label">cdn.cloudflare.steamstatic.com</text>
<rect x="180" y="318" width="382.78" height="22" fill="#4c78a8" rx="3"/>
<text x="570.78" y="334" class="value">186.66</text>
<text x="10" y="366" class="label">store.akamai.steamstatic.com</text>
<rect x="180" y="350" width="390.76" height="22" fill="#4c78a8" rx="3"/>
<text x="578.76" y="366" class="value">190.55</text>
<text x="10" y="398" class="label">api.steampowered.com</text>
<rect x="180" y="382" width="489.09" height="22" fill="#4c78a8" rx="3"/>
<text x="677.0899999999999" y="398" class="value">238.50</text>
<text x="10" y="430" class="label">steam-chat.com</text>
<rect x="180" y="414" width="507.77" height="22" fill="#4c78a8" rx="3"/>
<text x="695.77" y="430" class="value">247.61</text>
<text x="10" y="462" class="label">www.steamcommunity.com</text>
<rect x="180" y="446" width="564.37" height="22" fill="#4c78a8" rx="3"/>
<text x="752.37" y="462" class="value">275.21</text>
<text x="10" y="494" class="label">blizzard.com</text>
<rect x="180" y="478" width="580.0" height="22" fill="#4c78a8" rx="3"/>
<text x="768.0" y="494" class="value">282.83</text>
<line x1="180" y1="30" x2="180" y2="520" stroke="#ccc"/>
<line x1="180" y1="520" x2="760" y2="520" stroke="#ccc"/>
</svg>