<svg xmlns="http://www.w3.org/2000/svg" width="800" height="540">
<style> .label{font-family:DejaVu Sans,Verdana,Geneva,sans-serif;font-size:12px;fill:#333} .value{font-family:DejaVu Sans,Verdana,Geneva,sans-serif;font-size:12px;fill:#555} </style>
<text x="10" y="20" class="label">延迟柱状图（越低越好，Top 15），单位 ms</text>
<text x="10" y="46" class="label">rockstargames.com</text>
<rect x="180" y="30" width="210.57" height="22" fill="#4c78a8" rx="3"/>
<text x="398.57" y="46" class="value">75.95</text>
<text x="10" y="78" class="label">steamcdn-a.akamaihd.net</text>
<rect x="180" y="62" width="274.25" height="22" fill="#4c78a8" rx="3"/>
<text x="462.25" y="78" class="value">98.92</text>
<text x="10" y="110" class="label">origin.com</text>
<rect x="180" y="94" width="297.71" height="22" fill="#4c78a8" rx="3"/>
<text x="485.71" y="110" class="value">107.38</text>
<text x="10" y="142" class="label">eaassets-a.akamaihd.net</text>
<rect x="180" y="126" width="320.19" height="22" fill="#4c78a8" rx="3"/>
<text x="508.19" y="142" class="value">115.49</text>
<text x="10" y="174" class="label">socialclub.rockstargames.com</text>
<rect x="180" y="158" width="362.42" height="22" fill="#4c78a8" rx="3"/>
<text x="550.4200000000001" y="174" class="value">130.72</text>
<text x="10" y="206" class="label">ea.com</text>
<rect x="180" y="190" width="373.23" height="22" fill="#4c78a8" rx="3"/>
<text x="561.23" y="206" class="value">134.62</text>
<text x="10" y="238" class="label">battle.net</text>
<rect x="180" y="222" width="381.1" height="22" fill="#4c78a8" rx="3"/>
<text x="569.1" y="238" class="value">137.46</text>
<text x="10" y="270" class="label">blizzard.com</text>
<rect x="180" y="254" width="384.26" height="22" fill="#4c78a8" rx="3"/>
<text x="572.26" y="270" class="value">138.60</text>
<text x="10" y="302" class="label">store.akamai.steamstatic.com</text>
<rect x="180" y="286" width="401.04" height="22" fill="#4c78a8" rx="3"/>
<text x="589.04" y="302" class="value">144.65</text>
<text x="10" y="334" class="label">ubi.com</text>
<rect x="180" y="318" width="452.77" height="22" fill="#4c78a8" rx="3"/>
<text x="640.77" y="334" class="value">163.31</text>
<text x="10" y="366" class="label">community.akamai.steamstatic.com</text>
<rect x="180" y="350" width="456.1" height="22" fill="#4c78a8" rx="3"/>
<text x="644.1" y="366" class="value">164.51</text>
<text x="10" y="398" class="label">steamcommunity.com</text>
<rect x="180" y="382" width="498.82" height="22" fill="#4c78a8" rx="3"/>
<text x="686.8199999999999" y="398" class="value">179.92</text>
<text x="10" y="430" class="label">cdn.akamai.steamstatic.com</text>
<rect x="180" y="414" width="505.61" height="22" fill="#4c78a8" rx="3"/>
<text x="693.61" y="430" class="value">182.37</text>
<text x="10" y="462" class="label">static3.cdn.ubi.com</text>
<rect x="180" y="446" width="540.85" height="22" fill="#4c78a8" rx="3"/>
<text x="728.85" y="462" class="value">195.08</text>
<text x="10" y="494" class="label">ubisoft.com</text>
<rect x="180" y="478" width="580.0" height="22" fill="#4c78a8" rx="3"/>
<text x="768.0" y="494" class="value">209.20</text>
<line x1="180" y1="30" x2="180" y2="520" stroke="#ccc"/>
<line x1="180" y1="520" x2="760" y2="520" stroke="#ccc"/>
</svg>