<svg xmlns="http://www.w3.org/2000/svg" width="800" height="540">
<style> .label{font-family:DejaVu Sans,Verdana,Geneva,sans-serif;font-size:12px;fill:#333} .value{font-family:DejaVu Sans,Verdana,Geneva,sans-serif;font-size:12px;fill:#555} </style>
<text x="10" y="20" class="label">延迟柱状图（越低越好，Top 15），单位 ms</text>
<text x="10" y="46" class="label">eaassets-a.akamaihd.net</text>
<rect x="180" y="30" width="183.07" height="22" fill="#4c78a8" rx="3"/>
<text x="371.07" y="46" class="value">62.36</text>
<text x="10" y="78" class="label">socialclub.rockstargames.com</text>
<rect x="180" y="62" width="198.74" height="22" fill="#4c78a8" rx="3"/>
<text x="386.74" y="78" class="value">67.70</text>
<text x="10" y="110" class="label">epicgames.com</text>
<rect x="180" y="94" width="210.46" height="22" fill="#4c78a8" rx="3"/>
<text x="398.46000000000004" y="110" class="value">71.69</text>
<text x="10" y="142" class="label">rockstargames.com</text>
<rect x="180" y="126" width="219.03" height="22" fill="#4c78a8" rx="3"/>
<text x="407.03" y="142" class="value">74.61</text>
<text x="10" y="174" class="label">ubi.com</text>
<rect x="180" y="158" width="230.95" height="22" fill="#4c78a8" rx="3"/>
<text x="418.95" y="174" class="value">78.67</text>
<text x="10" y="206" class="label">battle.net</text>
<rect x="180" y="190" width="232.68" height="22" fill="#4c78a8" rx="3"/>
<text x="420.68" y="206" class="value">79.26</text>
<text x="10" y="238" class="label">community.akamai.steamstatic.com</text>
<rect x="180" y="222" width="249.74" height="22" fill="#4c78a8" rx="3"/>
<text x="437.74" y="238" class="value">85.07</text>
<text x="10" y="270" class="label">blizzard.com</text>
<rect x="180" y="254" width="261.13" height="22" fill="#4c78a8" rx="3"/>
<text x="449.13" y="270" class="value">88.95</text>
<text x="10" y="302" class="label">unrealengine.com</text>
<rect x="180" y="286" width="353.95" height="22" fill="#4c78a8" rx="3"/>
<text x="541.95" y="302" class="value">120.57</text>
<text x="10" y="334" class="label">ea.com</text>
<rect x="180" y="318" width="426.17" height="22" fill="#4c78a8" rx="3"/>
<text x="614.1700000000001" y="334" class="value">145.17</text>
<text x="10" y="366" class="label">fortnite.com</text>
<rect x="180" y="350" width="478.1" height="22" fill="#4c78a8" rx="3"/>
<text x="666.1" y="366" class="value">162.86</text>
<text x="10" y="398" class="label">launcher-public-service-prod06.ol.epicgames.com</text>
<rect x="180" y="382" width="526.34" height="22" fill="#4c78a8" rx="3"/>
<text x="714.34" y="398" class="value">179.29</text>
<text x="10" y="430" class="label">cdn.akamai.steamstatic.com</text>
<rect x="180" y="414" width="554.2" height="22" fill="#4c78a8" rx="3"/>
<text x="742.2" y="430" class="value">188.78</text>
<text x="10" y="462" class="label">store.akamai.steamstatic.com</text>
<rect x="180" y="446" width="568.58" height="22" fill="#4c78a8" rx="3"/>
<text x="756.58" y="462" class="value">193.68</text>
<text x="10" y="494" class="label">ubisoft.com</text>
<rect x="180" y="478" width="580.0" height="22" fill="#4c78a8" rx="3"/>
<text x="768.0" y="494" class="value">197.57</text>
<line x1="180" y1="30" x2="180" y2="520" stroke="#ccc"/>
<line x1="180" y1="520" x2="760" y2="520" stroke="#ccc"/>
</svg>