<svg xmlns="http://www.w3.org/2000/svg" width="800" height="540">
<style> .label{font-family:DejaVu Sans,Verdana,Geneva,sans-serif;font-size:12px;fill:#333} .value{font-family:DejaVu Sans,Verdana,Geneva,sans-serif;font-size:12px;fill:#555} </style>
<text x="10" y="20" class="label">延迟柱状图（越低越好，Top 15），单位 ms</text>
<text x="10" y="46" class="label">eaassets-a.akamaihd.net</text>
<rect x="180" y="30" width="103.19" height="22" fill="#4c78a8" rx="3"/>
<text x="291.19" y="46" class="value">42.43</text>
<text x="10" y="78" class="label">rockstargames.com</text>
<rect x="180" y="62" width="131.59" height="22" fill="#4c78a8" rx="3"/>
<text x="319.59000000000003" y="78" class="value">54.11</text>
<text x="10" y="110" class="label">community.akamai.steamstatic.com</text>
<rect x="180" y="94" width="161.97" height="22" fill="#4c78a8" rx="3"/>
<text x="349.97" y="110" class="value">66.60</text>
<text x="10" y="142" class="label">api.steampowered.com</text>
<rect x="180" y="126" width="274.72" height="22" fill="#4c78a8" rx="3"/>
<text x="462.72" y="142" class="value">112.96</text>
<text x="10" y="174" class="label">ubi.com</text>
<rect x="180" y="158" width="289.02" height="22" fill="#4c78a8" rx="3"/>
<text x="477.02" y="174" class="value">118.84</text>
<text x="10" y="206" class="label">ubisoft.com</text>
<rect x="180" y="190" width="300.96" height="22" fill="#4c78a8" rx="3"/>
<text x="488.96" y="206" class="value">123.75</text>
<text x="10" y="238" class="label">blizzard.com</text>
<rect x="180" y="222" width="329.0" height="22" fill="#4c78a8" rx="3"/>
<text x="517.0" y="238" class="value">135.28</text>
<text x="10" y="270" class="label">battle.net</text>
<rect x="180" y="254" width="329.26" height="22" fill="#4c78a8" rx="3"/>
<text x="517.26" y="270" class="value">135.39</text>
<text x="10" y="302" class="label">cdn.akamai.steamstatic.com</text>
<rect x="180" y="286" width="329.65" height="22" fill="#4c78a8" rx="3"/>
<text x="517.65" y="302" class="value">135.55</text>
<text x="10" y="334" class="label">steamcdn-a.akamaihd.net</text>
<rect x="180" y="318" width="334.13" height="22" fill="#4c78a8" rx="3"/>
<text x="522.13" y="334" class="value">137.39</text>
<text x="10" y="366" class="label">socialclub.rockstargames.com</text>
<rect x="180" y="350" width="341.5" height="22" fill="#4c78a8" rx="3"/>
<text x="529.5" y="366" class="value">140.42</text>
<text x="10" y="398" class="label">ea.com</text>
<rect x="180" y="382" width="409.28" height="22" fill="#4c78a8" rx="3"/>
<text x="597.28" y="398" class="value">168.29</text>
<text x="10" y="430" class="label">origin.com</text>
<rect x="180" y="414" width="489.99" height="22" fill="#4c78a8" rx="3"/>
<text x="677.99" y="430" class="value">201.48</text>
<text x="10" y="462" class="label">cdn.cloudflare.steamstatic.com</text>
<rect x="180" y="446" width="578.49" height="22" fill="#4c78a8" rx="3"/>
<text x="766.49" y="462" class="value">237.87</text>
<text x="10" y="494" class="label">easyanticheat.net</text>
<rect x="180" y="478" width="580.0" height="22" fill="#4c78a8" rx="3"/>
<text x="768.0" y="494" class="value">238.49</text>
<line x1="180" y1="30" x2="180" y2="520" stroke="#ccc"/>
<line x1="180" y1="520" x2="760" y2="520" stroke="#ccc"/>
</svg>