<svg xmlns="http://www.w3.org/2000/svg" width="800" height="540">
<style> .label{font-family:DejaVu Sans,Verdana,Geneva,sans-serif;font-size:12px;fill:#333} .value{font-family:DejaVu Sans,Verdana,Geneva,sans-serif;font-size:12px;fill:#555} </style>
<text x="10" y="20" class="label">延迟柱状图（越低越好，Top 15），单位 ms</text>
<text x="10" y="46" class="label">eaassets-a.akamaihd.net</text>
<rect x="180" y="30" width="118.74" height="22" fill="#4c78a8" rx="3"/>
<text x="306.74" y="46" class="value">46.82</text>
<text x="10" y="78" class="label">rockstargames.com</text>
<rect x="180" y="62" width="158.16" height="22" fill="#4c78a8" rx="3"/>
<text x="346.15999999999997" y="78" class="value">62.36</text>
<text x="10" y="110" class="label">store.akamai.steamstatic.com</text>
<rect x="180" y="94" width="198.99" height="22" fill="#4c78a8" rx="3"/>
<text x="386.99" y="110" class="value">78.46</text>
<text x="10" y="142" class="label">ea.com</text>
<rect x="180" y="126" width="223.64" height="22" fill="#4c78a8" rx="3"/>
<text x="411.64" y="142" class="value">88.18</text>
<text x="10" y="174" class="label">battle.net</text>
<rect x="180" y="158" width="289.84" height="22" fill="#4c78a8" rx="3"/>
<text x="477.84" y="174" class="value">114.28</text>
<text x="10" y="206" class="label">ubi.com</text>
<rect x="180" y="190" width="345.15" height="22" fill="#4c78a8" rx="3"/>
<text x="533.15" y="206" class="value">136.09</text>
<text x="10" y="238" class="label">socialclub.rockstargames.com</text>
<rect x="180" y="222" width="351.46" height="22" fill="#4c78a8" rx="3"/>
<text x="539.46" y="238" class="value">138.58</text>
<text x="10" y="270" class="label">static3.cdn.ubi.com</text>
<rect x="180" y="254" width="410.3" height="22" fill="#4c78a8" rx="3"/>
<text x="598.3" y="270" class="value">161.78</text>
<text x="10" y="302" class="label">community.akamai.steamstatic.com</text>
<rect x="180" y="286" width="469.35" height="22" fill="#4c78a8" rx="3"/>
<text x="657.35" y="302" class="value">185.06</text>
<text x="10" y="334" class="label">steamcdn-a.akamaihd.net</text>
<rect x="180" y="318" width="489.61" height="22" fill="#4c78a8" rx="3"/>
<text x="677.61" y="334" class="value">193.05</text>
<text x="10" y="366" class="label">cdn.akamai.steamstatic.com</text>
<rect x="180" y="350" width="534.86" height="22" fill="#4c78a8" rx="3"/>
<text x="722.86" y="366" class="value">210.89</text>
<text x="10" y="398" class="label">easyanticheat.net</text>
<rect x="180" y="382" width="555.86" height="22" fill="#4c78a8" rx="3"/>
<text x="743.86" y="398" class="value">219.17</text>
<text x="10" y="430" class="label">ubisoft.com</text>
<rect x="180" y="414" width="563.46" height="22" fill="#4c78a8" rx="3"/>
<text x="751.46" y="430" class="value">222.17</text>
<text x="10" y="462" class="label">cdn.cloudflare.steamstatic.com</text>
<rect x="180" y="446" width="566.79" height="22" fill="#4c78a8" rx="3"/>
<text x="754.79" y="462" class="value">223.48</text>
<text x="10" y="494" class="label">epicgames.com</text>
<rect x="180" y="478" width="580.0" height="22" fill="#4c78a8" rx="3"/>
<text x="768.0" y="494" class="value">228.69</text>
<line x1="180" y1="30" x2="180" y2="520" stroke="#ccc"/>
<line x1="180" y1="520" x2="760" y2="520" stroke="#ccc"/>
</svg>