<svg xmlns="http://www.w3.org/2000/svg" width="800" height="540">
<style> .label{font-family:DejaVu Sans,Verdana,Geneva,sans-serif;font-size:12px;fill:#333} .value{font-family:DejaVu Sans,Verdana,Geneva,sans-serif;font-size:12px;fill:#555} </style>
<text x="10" y="20" class="label">延迟柱状图（越低越好，Top 15），单位 ms</text>
<text x="10" y="46" class="label">eaassets-a.akamaihd.net</text>
<rect x="180" y="30" width="286.5" height="22" fill="#4c78a8" rx="3"/>
<text x="474.5" y="46" class="value">119.40</text>
<text x="10" y="78" class="label">ubisoft.com</text>
<rect x="180" y="62" width="361.24" height="22" fill="#4c78a8" rx="3"/>
<text x="549.24" y="78" class="value">150.55</text>
<text x="10" y="110" class="label">ea.com</text>
<rect x="180" y="94" width="382.48" height="22" fill="#4c78a8" rx="3"/>
<text x="570.48" y="110" class="value">159.40</text>
<text x="10" y="142" class="label">easyanticheat.net</text>
<rect x="180" y="126" width="429.55" height="22" fill="#4c78a8" rx="3"/>
<text x="617.55" y="142" class="value">179.02</text>
<text x="10" y="174" class="label">battle.net</text>
<rect x="180" y="158" width="434.45" height="22" fill="#4c78a8" rx="3"/>
<text x="622.45" y="174" class="value">181.06</text>
<text x="10" y="206" class="label">socialclub.rockstargames.com</text>
<rect x="180" y="190" width="441.91" height="22" fill="#4c78a8" rx="3"/>
<text x="629.9100000000001" y="206" class="value">184.17</text>
<text x="10" y="238" class="label">ubi.com</text>
<rect x="180" y="222" width="455.49" height="22" fill="#4c78a8" rx="3"/>
<text x="643.49" y="238" class="value">189.83</text>
<text x="10" y="270" class="label">blizzard.com</text>
<rect x="180" y="254" width="457.36" height="22" fill="#4c78a8" rx="3"/>
<text x="645.36" y="270" class="value">190.61</text>
<text x="10" y="302" class="label">cdn.akamai.steamstatic.com</text>
<rect x="180" y="286" width="463.94" height="22" fill="#4c78a8" rx="3"/>
<text x="651.94" y="302" class="value">193.35</text>
<text x="10" y="334" class="label">rockstargames.com</text>
<rect x="180" y="318" width="465.47" height="22" fill="#4c78a8" rx="3"/>
<text x="653.47" y="334" class="value">193.99</text>
<text x="10" y="366" class="label">api.steampowered.com</text>
<rect x="180" y="350" width="491.6" height="22" fill="#4c78a8" rx="3"/>
<text x="679.6" y="366" class="value">204.88</text>
<text x="10" y="398" class="label">static3.cdn.ubi.com</text>
<rect x="180" y="382" width="536.64" height="22" fill="#4c78a8" rx="3"/>
<text x="724.64" y="398" class="value">223.65</text>
<text x="10" y="430" class="label">community.akamai.steamstatic.com</text>
<rect x="180" y="414" width="537.72" height="22" fill="#4c78a8" rx="3"/>
<text x="725.72" y="430" class="value">224.10</text>
<text x="10" y="462" class="label">steam-chat.com</text>
<rect x="180" y="446" width="575.94" height="22" fill="#4c78a8" rx="3"/>
<text x="763.94" y="462" class="value">240.03</text>
<text x="10" y="494" class="label">gog.com</text>
<rect x="180" y="478" width="580.0" height="22" fill="#4c78a8" rx="3"/>
<text x="768.0" y="494" class="value">241.72</text>
<line x1="180" y1="30" x2="180" y2="520" stroke="#ccc"/>
<line x1="180" y1="520" x2="760" y2="520" stroke="#ccc"/>
</svg>