<svg xmlns="http://www.w3.org/2000/svg" width="800" height="540">
<style> .label{font-family:DejaVu Sans,Verdana,Geneva,sans-serif;font-size:12px;fill:#333} .value{font-family:DejaVu Sans,Verdana,Geneva,sans-serif;font-size:12px;fill:#555} </style>
<text x="10" y="20" class="label">延迟柱状图（越低越好，Top 15），单位 ms</text>
<text x="10" y="46" class="label">eaassets-a.akamaihd.net</text>
<rect x="180" y="30" width="201.79" height="22" fill="#4c78a8" rx="3"/>
<text x="389.78999999999996" y="46" class="value">120.53</text>
<text x="10" y="78" class="label">ubisoft.com</text>
<rect x="180" y="62" width="305.18" height="22" fill="#4c78a8" rx="3"/>
<text x="493.18" y="78" class="value">182.29</text>
<text x="10" y="110" class="label">ea.com</text>
<rect x="180" y="94" width="338.15" height="22" fill="#4c78a8" rx="3"/>
<text x="526.15" y="110" class="value">201.98</text>
<text x="10" y="142" class="label">steamcdn-a.akamaihd.net</text>
<rect x="180" y="126" width="353.59" height="22" fill="#4c78a8" rx="3"/>
<text x="541.5899999999999" y="142" class="value">211.20</text>
<text x="10" y="174" class="label">ubi.com</text>
<rect x="180" y="158" width="381.29" height="22" fill="#4c78a8" rx="3"/>
<text x="569.29" y="174" class="value">227.75</text>
<text x="10" y="206" class="label">cdn.akamai.steamstatic.com</text>
<rect x="180" y="190" width="423.55" height="22" fill="#4c78a8" rx="3"/>
<text x="611.55" y="206" class="value">252.99</text>
<text x="10" y="238" class="label">socialclub.rockstargames.com</text>
<rect x="180" y="222" width="454.25" height="22" fill="#4c78a8" rx="3"/>
<text x="642.25" y="238" class="value">271.33</text>
<text x="10" y="270" class="label">origin.com</text>
<rect x="180" y="254" width="455.93" height="22" fill="#4c78a8" rx="3"/>
<text x="643.9300000000001" y="270" class="value">272.33</text>
<text x="10" y="302" class="label">rockstargames.com</text>
<rect x="180" y="286" width="461.89" height="22" fill="#4c78a8" rx="3"/>
<text x="649.89" y="302" class="value">275.89</text>
<text x="10" y="334" class="label">community.akamai.steamstatic.com</text>
<rect x="180" y="318" width="475.93" height="22" fill="#4c78a8" rx="3"/>
<text x="663.9300000000001" y="334" class="value">284.28</text>
<text x="10" y="366" class="label">store.akamai.steamstatic.com</text>
<rect x="180" y="350" width="480.87" height="22" fill="#4c78a8" rx="3"/>
<text x="668.87" y="366" class="value">287.23</text>
<text x="10" y="398" class="label">static3.cdn.ubi.com</text>
<rect x="180" y="382" width="515.36" height="22" fill="#4c78a8" rx="3"/>
<text x="703.36" y="398" class="value">307.83</text>
<text x="10" y="430" class="label">cdn.cloudflare.steamstatic.com</text>
<rect x="180" y="414" width="552.26" height="22" fill="#4c78a8" rx="3"/>
<text x="740.26" y="430" class="value">329.87</text>
<text x="10" y="462" class="label">unrealengine.com</text>
<rect x="180" y="446" width="555.89" height="22" fill="#4c78a8" rx="3"/>
<text x="743.89" y="462" class="value">332.04</text>
<text x="10" y="494" class="label">steam-chat.com</text>
<rect x="180" y="478" width="580.0" height="22" fill="#4c78a8" rx="3"/>
<text x="768.0" y="494" class="value">346.44</text>
<line x1="180" y1="30" x2="180" y2="520" stroke="#ccc"/>
<line x1="180" y1="520" x2="760" y2="520" stroke="#ccc"/>
</svg>