<svg xmlns="http://www.w3.org/2000/svg" width="800" height="540">
<style> .label{font-family:DejaVu Sans,Verdana,Geneva,sans-serif;font-size:12px;fill:#333} .value{font-family:DejaVu Sans,Verdana,Geneva,sans-serif;font-size:12px;fill:#555} </style>
<text x="10" y="20" class="label">延迟柱状图（越低越好，Top 15），单位 ms</text>
<text x="10" y="46" class="label">rockstargames.com</text>
<rect x="180" y="30" width="126.01" height="22" fill="#4c78a8" rx="3"/>
<text x="314.01" y="46" class="value">43.84</text>
<text x="10" y="78" class="label">eaassets-a.akamaihd.net</text>
<rect x="180" y="62" width="145.24" height="22" fill="#4c78a8" rx="3"/>
<text x="333.24" y="78" class="value">50.53</text>
<text x="10" y="110" class="label">ubi.com</text>
<rect x="180" y="94" width="214.69" height="22" fill="#4c78a8" rx="3"/>
<text x="402.69" y="110" class="value">74.69</text>
<text x="10" y="142" class="label">blizzard.com</text>
<rect x="180" y="126" width="219.92" height="22" fill="#4c78a8" rx="3"/>
<text x="407.91999999999996" y="142" class="value">76.51</text>
<text x="10" y="174" class="label">socialclub.rockstargames.com</text>
<rect x="180" y="158" width="221.47" height="22" fill="#4c78a8" rx="3"/>
<text x="409.47" y="174" class="value">77.05</text>
<text x="10" y="206" class="label">unrealengine.com</text>
<rect x="180" y="190" width="253.03" height="22" fill="#4c78a8" rx="3"/>
<text x="441.03" y="206" class="value">88.03</text>
<text x="10" y="238" class="label">ubisoft.com</text>
<rect x="180" y="222" width="273.21" height="22" fill="#4c78a8" rx="3"/>
<text x="461.21" y="238" class="value">95.05</text>
<text x="10" y="270" class="label">store.akamai.steamstatic.com</text>
<rect x="180" y="254" width="282.79" height="22" fill="#4c78a8" rx="3"/>
<text x="470.79" y="270" class="value">98.38</text>
<text x="10" y="302" class="label">battle.net</text>
<rect x="180" y="286" width="313.4" height="22" fill="#4c78a8" rx="3"/>
<text x="501.4" y="302" class="value">109.03</text>
<text x="10" y="334" class="label">origin.com</text>
<rect x="180" y="318" width="412.16" height="22" fill="#4c78a8" rx="3"/>
<text x="600.1600000000001" y="334" class="value">143.39</text>
<text x="10" y="366" class="label">ea.com</text>
<rect x="180" y="350" width="413.57" height="22" fill="#4c78a8" rx="3"/>
<text x="601.5699999999999" y="366" class="value">143.88</text>
<text x="10" y="398" class="label">epicgames.com</text>
<rect x="180" y="382" width="496.61" height="22" fill="#4c78a8" rx="3"/>
<text x="684.61" y="398" class="value">172.77</text>
<text x="10" y="430" class="label">fortnite.com</text>
<rect x="180" y="414" width="533.2" height="22" fill="#4c78a8" rx="3"/>
<text x="721.2" y="430" class="value">185.50</text>
<text x="10" y="462" class="label">cdn.cloudflare.steamstatic.com</text>
<rect x="180" y="446" width="547.72" height="22" fill="#4c78a8" rx="3"/>
<text x="735.72" y="462" class="value">190.55</text>
<text x="10" y="494" class="label">steamcdn-a.akamaihd.net</text>
<rect x="180" y="478" width="580.0" height="22" fill="#4c78a8" rx="3"/>
<text x="768.0" y="494" class="value">201.78</text>
<line x1="180" y1="30" x2="180" y2="520" stroke="#ccc"/>
<line x1="180" y1="520" x2="760" y2="520" stroke="#ccc"/>
</svg>