<svg xmlns="http://www.w3.org/2000/svg" width="800" height="540">
<style> .label{font-family:DejaVu Sans,Verdana,Geneva,sans-serif;font-size:12px;fill:#333} .value{font-family:DejaVu Sans,Verdana,Geneva,sans-serif;font-size:12px;fill:#555} </style>
<text x="10" y="20" class="label">延迟柱状图（越低越好，Top 15），单位 ms</text>
<text x="10" y="46" class="label">rockstargames.com</text>
<rect x="180" y="30" width="180.26" height="22" fill="#4c78a8" rx="3"/>
<text x="368.26" y="46" class="value">53.03</text>
<text x="10" y="78" class="label">socialclub.rockstargames.com</text>
<rect x="180" y="62" width="217.82" height="22" fill="#4c78a8" rx="3"/>
<text x="405.82" y="78" class="value">64.08</text>
<text x="10" y="110" class="label">blizzard.com</text>
<rect x="180" y="94" width="287.09" height="22" fill="#4c78a8" rx="3"/>
<text x="475.09" y="110" class="value">84.46</text>
<text x="10" y="142" class="label">battle.net</text>
<rect x="180" y="126" width="311.53" height="22" fill="#4c78a8" rx="3"/>
<text x="499.53" y="142" class="value">91.65</text>
<text x="10" y="174" class="label">ubi.com</text>
<rect x="180" y="158" width="315.65" height="22" fill="#4c78a8" rx="3"/>
<text x="503.65" y="174" class="value">92.86</text>
<text x="10" y="206" class="label">eaassets-a.akamaihd.net</text>
<rect x="180" y="190" width="371.33" height="22" fill="#4c78a8" rx="3"/>
<text x="559.3299999999999" y="206" class="value">109.24</text>
<text x="10" y="238" class="label">ea.com</text>
<rect x="180" y="222" width="421.97" height="22" fill="#4c78a8" rx="3"/>
<text x="609.97" y="238" class="value">124.14</text>
<text x="10" y="270" class="label">fortnite.com</text>
<rect x="180" y="254" width="432.58" height="22" fill="#4c78a8" rx="3"/>
<text x="620.5799999999999" y="270" class="value">127.26</text>
<text x="10" y="302" class="label">store.akamai.steamstatic.com</text>
<rect x="180" y="286" width="452.26" height="22" fill="#4c78a8" rx="3"/>
<text x="640.26" y="302" class="value">133.05</text>
<text x="10" y="334" class="label">static3.cdn.ubi.com</text>
<rect x="180" y="318" width="453.89" height="22" fill="#4c78a8" rx="3"/>
<text x="641.89" y="334" class="value">133.53</text>
<text x="10" y="366" class="label">cdn.akamai.steamstatic.com</text>
<rect x="180" y="350" width="539.38" height="22" fill="#4c78a8" rx="3"/>
<text x="727.38" y="366" class="value">158.68</text>
<text x="10" y="398" class="label">community.akamai.steamstatic.com</text>
<rect x="180" y="382" width="565.66" height="22" fill="#4c78a8" rx="3"/>
<text x="753.66" y="398" class="value">166.41</text>
<text x="10" y="430" class="label">epicgames.com</text>
<rect x="180" y="414" width="566.81" height="22" fill="#4c78a8" rx="3"/>
<text x="754.81" y="430" class="value">166.75</text>
<text x="10" y="462" class="label">origin.com</text>
<rect x="180" y="446" width="571.67" height="22" fill="#4c78a8" rx="3"/>
<text x="759.67" y="462" class="value">168.18</text>
<text x="10" y="494" class="label">unrealengine.com</text>
<rect x="180" y="478" width="580.0" height="22" fill="#4c78a8" rx="3"/>
<text x="768.0" y="494" class="value">170.63</text>
<line x1="180" y1="30" x2="180" y2="520" stroke="#ccc"/>
<line x1="180" y1="520" x2="760" y2="520" stroke="#ccc"/>
</svg>