<svg xmlns="http://www.w3.org/2000/svg" width="800" height="540">
<style> .label{font-family:DejaVu Sans,Verdana,Geneva,sans-serif;font-size:12px;fill:#333} .value{font-family:DejaVu Sans,Verdana,Geneva,sans-serif;font-size:12px;fill:#555} </style>
<text x="10" y="20" class="label">延迟柱状图（越低越好，Top 15），单位 ms</text>
<text x="10" y="46" class="label">rockstargames.com</text>
<rect x="180" y="30" width="178.15" height="22" fill="#4c78a8" rx="3"/>
<text x="366.15" y="46" class="value">53.22</text>
<text x="10" y="78" class="label">store.akamai.steamstatic.com</text>
<rect x="180" y="62" width="208.24" height="22" fill="#4c78a8" rx="3"/>
<text x="396.24" y="78" class="value">62.21</text>
<text x="10" y="110" class="label">ubisoft.com</text>
<rect x="180" y="94" width="316.09" height="22" fill="#4c78a8" rx="3"/>
<text x="504.09" y="110" class="value">94.43</text>
<text x="10" y="142" class="label">origin.com</text>
<rect x="180" y="126" width="318.17" height="22" fill="#4c78a8" rx="3"/>
<text x="506.17" y="142" class="value">95.05</text>
<text x="10" y="174" class="label">cdn.cloudflare.steamstatic.com</text>
<rect x="180" y="158" width="373.37" height="22" fill="#4c78a8" rx="3"/>
<text x="561.37" y="174" class="value">111.54</text>
<text x="10" y="206" class="label">blizzard.com</text>
<rect x="180" y="190" width="377.95" height="22" fill="#4c78a8" rx="3"/>
<text x="565.95" y="206" class="value">112.91</text>
<text x="10" y="238" class="label">battle.net</text>
<rect x="180" y="222" width="417.92" height="22" fill="#4c78a8" rx="3"/>
<text x="605.9200000000001" y="238" class="value">124.85</text>
<text x="10" y="270" class="label">eaassets-a.akamaihd.net</text>
<rect x="180" y="254" width="422.14" height="22" fill="#4c78a8" rx="3"/>
<text x="610.14" y="270" class="value">126.11</text>
<text x="10" y="302" class="label">ubi.com</text>
<rect x="180" y="286" width="432.28" height="22" fill="#4c78a8" rx="3"/>
<text x="620.28" y="302" class="value">129.14</text>
<text x="10" y="334" class="label">easyanticheat.net</text>
<rect x="180" y="318" width="451.23" height="22" fill="#4c78a8" rx="3"/>
<text x="639.23" y="334" class="value">134.80</text>
<text x="10" y="366" class="label">community.akamai.steamstatic.com</text>
<rect x="180" y="350" width="492.23" height="22" fill="#4c78a8" rx="3"/>
<text x="680.23" y="366" class="value">147.05</text>
<text x="10" y="398" class="label">socialclub.rockstargames.com</text>
<rect x="180" y="382" width="511.51" height="22" fill="#4c78a8" rx="3"/>
<text x="699.51" y="398" class="value">152.81</text>
<text x="10" y="430" class="label">api.steampowered.com</text>
<rect x="180" y="414" width="559.28" height="22" fill="#4c78a8" rx="3"/>
<text x="747.28" y="430" class="value">167.08</text>
<text x="10" y="462" class="label">ea.com</text>
<rect x="180" y="446" width="569.96" height="22" fill="#4c78a8" rx="3"/>
<text x="757.96" y="462" class="value">170.27</text>
<text x="10" y="494" class="label">cdn.akamai.steamstatic.com</text>
<rect x="180" y="478" width="580.0" height="22" fill="#4c78a8" rx="3"/>
<text x="768.0" y="494" class="value">173.27</text>
<line x1="180" y1="30" x2="180" y2="520" stroke="#ccc"/>
<line x1="180" y1="520" x2="760" y2="520" stroke="#ccc"/>
</svg>