<svg xmlns="http://www.w3.org/2000/svg" width="800" height="540">
<style> .label{font-family:DejaVu Sans,Verdana,Geneva,sans-serif;font-size:12px;fill:#333} .value{font-family:DejaVu Sans,Verdana,Geneva,sans-serif;font-size:12px;fill:#555} </style>
<text x="10" y="20" class="label">延迟柱状图（越低越好，Top 15），单位 ms</text>
<text x="10" y="46" class="label">rockstargames.com</text>
<rect x="180" y="30" width="144.89" height="22" fill="#4c78a8" rx="3"/>
<text x="332.89" y="46" class="value">61.54</text>
<text x="10" y="78" class="label">ubisoft.com</text>
<rect x="180" y="62" width="240.01" height="22" fill="#4c78a8" rx="3"/>
<text x="428.01" y="78" class="value">101.94</text>
<text x="10" y="110" class="label">eaassets-a.akamaihd.net</text>
<rect x="180" y="94" width="241.92" height="22" fill="#4c78a8" rx="3"/>
<text x="429.91999999999996" y="110" class="value">102.75</text>
<text x="10" y="142" class="label">ea.com</text>
<rect x="180" y="126" width="285.74" height="22" fill="#4c78a8" rx="3"/>
<text x="473.74" y="142" class="value">121.36</text>
<text x="10" y="174" class="label">cdn.akamai.steamstatic.com</text>
<rect x="180" y="158" width="324.09" height="22" fill="#4c78a8" rx="3"/>
<text x="512.0899999999999" y="174" class="value">137.65</text>
<text x="10" y="206" class="label">steamcdn-a.akamaihd.net</text>
<rect x="180" y="190" width="354.35" height="22" fill="#4c78a8" rx="3"/>
<text x="542.35" y="206" class="value">150.50</text>
<text x="10" y="238" class="label">store.akamai.steamstatic.com</text>
<rect x="180" y="222" width="378.01" height="22" fill="#4c78a8" rx="3"/>
<text x="566.01" y="238" class="value">160.55</text>
<text x="10" y="270" class="label">static3.cdn.ubi.com</text>
<rect x="180" y="254" width="441.51" height="22" fill="#4c78a8" rx="3"/>
<text x="629.51" y="270" class="value">187.52</text>
<text x="10" y="302" class="label">cdn.cloudflare.steamstatic.com</text>
<rect x="180" y="286" width="451.02" height="22" fill="#4c78a8" rx="3"/>
<text x="639.02" y="302" class="value">191.56</text>
<text x="10" y="334" class="label">origin.com</text>
<rect x="180" y="318" width="480.66" height="22" fill="#4c78a8" rx="3"/>
<text x="668.6600000000001" y="334" class="value">204.15</text>
<text x="10" y="366" class="label">community.akamai.steamstatic.com</text>
<rect x="180" y="350" width="485.23" height="22" fill="#4c78a8" rx="3"/>
<text x="673.23" y="366" class="value">206.09</text>
<text x="10" y="398" class="label">ubi.com</text>
<rect x="180" y="382" width="550.8" height="22" fill="#4c78a8" rx="3"/>
<text x="738.8" y="398" class="value">233.94</text>
<text x="10" y="430" class="label">easyanticheat.net</text>
<rect x="180" y="414" width="560.22" height="22" fill="#4c78a8" rx="3"/>
<text x="748.22" y="430" class="value">237.94</text>
<text x="10" y="462" class="label">steamcommunity.com</text>
<rect x="180" y="446" width="562.25" height="22" fill="#4c78a8" rx="3"/>
<text x="750.25" y="462" class="value">238.80</text>
<text x="10" y="494" class="label">steam-chat.com</text>
<rect x="180" y="478" width="580.0" height="22" fill="#4c78a8" rx="3"/>
<text x="768.0" y="494" class="value">246.34</text>
<line x1="180" y1="30" x2="180" y2="520" stroke="#ccc"/>
<line x1="180" y1="520" x2="760" y2="520" stroke="#ccc"/>
</svg>