<svg xmlns="http://www.w3.org/2000/svg" width="800" height="540">
<style> .label{font-family:DejaVu Sans,Verdana,Geneva,sans-serif;font-size:12px;fill:#333} .value{font-family:DejaVu Sans,Verdana,Geneva,sans-serif;font-size:12px;fill:#555} </style>
<text x="10" y="20" class="label">延迟柱状图（越低越好，Top 15），单位 ms</text>
<text x="10" y="46" class="label">rockstargames.com</text>
<rect x="180" y="30" width="188.92" height="22" fill="#4c78a8" rx="3"/>
<text x="376.91999999999996" y="46" class="value">64.64</text>
<text x="10" y="78" class="label">socialclub.rockstargames.com</text>
<rect x="180" y="62" width="244.71" height="22" fill="#4c78a8" rx="3"/>
<text x="432.71000000000004" y="78" class="value">83.73</text>
<text x="10" y="110" class="label">battle.net</text>
<rect x="180" y="94" width="263.54" height="22" fill="#4c78a8" rx="3"/>
<text x="451.54" y="110" class="value">90.17</text>
<text x="10" y="142" class="label">ubisoft.com</text>
<rect x="180" y="126" width="282.09" height="22" fill="#4c78a8" rx="3"/>
<text x="470.09" y="142" class="value">96.52</text>
<text x="10" y="174" class="label">blizzard.com</text>
<rect x="180" y="158" width="294.69" height="22" fill="#4c78a8" rx="3"/>
<text x="482.69" y="174" class="value">100.83</text>
<text x="10" y="206" class="label">eaassets-a.akamaihd.net</text>
<rect x="180" y="190" width="300.27" height="22" fill="#4c78a8" rx="3"/>
<text x="488.27" y="206" class="value">102.74</text>
<text x="10" y="238" class="label">ea.com</text>
<rect x="180" y="222" width="314.42" height="22" fill="#4c78a8" rx="3"/>
<text x="502.42" y="238" class="value">107.58</text>
<text x="10" y="270" class="label">cdn.cloudflare.steamstatic.com</text>
<rect x="180" y="254" width="330.84" height="22" fill="#4c78a8" rx="3"/>
<text x="518.8399999999999" y="270" class="value">113.20</text>
<text x="10" y="302" class="label">ubi.com</text>
<rect x="180" y="286" width="334.18" height="22" fill="#4c78a8" rx="3"/>
<text x="522.1800000000001" y="302" class="value">114.34</text>
<text x="10" y="334" class="label">unrealengine.com</text>
<rect x="180" y="318" width="385.7" height="22" fill="#4c78a8" rx="3"/>
<text x="573.7" y="334" class="value">131.97</text>
<text x="10" y="366" class="label">store.akamai.steamstatic.com</text>
<rect x="180" y="350" width="408.97" height="22" fill="#4c78a8" rx="3"/>
<text x="596.97" y="366" class="value">139.93</text>
<text x="10" y="398" class="label">fortnite.com</text>
<rect x="180" y="382" width="417.0" height="22" fill="#4c78a8" rx="3"/>
<text x="605.0" y="398" class="value">142.68</text>
<text x="10" y="430" class="label">static3.cdn.ubi.com</text>
<rect x="180" y="414" width="473.79" height="22" fill="#4c78a8" rx="3"/>
<text x="661.79" y="430" class="value">162.11</text>
<text x="10" y="462" class="label">steamcdn-a.akamaihd.net</text>
<rect x="180" y="446" width="560.48" height="22" fill="#4c78a8" rx="3"/>
<text x="748.48" y="462" class="value">191.77</text>
<text x="10" y="494" class="label">easyanticheat.net</text>
<rect x="180" y="478" width="580.0" height="22" fill="#4c78a8" rx="3"/>
<text x="768.0" y="494" class="value">198.45</text>
<line x1="180" y1="30" x2="180" y2="520" stroke="#ccc"/>
<line x1="180" y1="520" x2="760" y2="520" stroke="#ccc"/>
</svg>