<svg xmlns="http://www.w3.org/2000/svg" width="800" height="540">
<style> .label{font-family:DejaVu Sans,Verdana,Geneva,sans-serif;font-size:12px;fill:#333} .value{font-family:DejaVu Sans,Verdana,Geneva,sans-serif;font-size:12px;fill:#555} </style>
<text x="10" y="20" class="label">延迟柱状图（越低越好，Top 15），单位 ms</text>
<text x="10" y="46" class="label">eaassets-a.akamaihd.net</text>
<rect x="180" y="30" width="217.16" height="22" fill="#4c78a8" rx="3"/>
<text x="405.15999999999997" y="46" class="value">59.72</text>
<text x="10" y="78" class="label">rockstargames.com</text>
<rect x="180" y="62" width="226.69" height="22" fill="#4c78a8" rx="3"/>
<text x="414.69" y="78" class="value">62.34</text>
<text x="10" y="110" class="label">ea.com</text>
<rect x="180" y="94" width="288.98" height="22" fill="#4c78a8" rx="3"/>
<text x="476.98" y="110" class="value">79.47</text>
<text x="10" y="142" class="label">ubisoft.com</text>
<rect x="180" y="126" width="304.07" height="22" fill="#4c78a8" rx="3"/>
<text x="492.07" y="142" class="value">83.62</text>
<text x="10" y="174" class="label">easyanticheat.net</text>
<rect x="180" y="158" width="466.47" height="22" fill="#4c78a8" rx="3"/>
<text x="654.47" y="174" class="value">128.28</text>
<text x="10" y="206" class="label">ubi.com</text>
<rect x="180" y="190" width="475.6" height="22" fill="#4c78a8" rx="3"/>
<text x="663.6" y="206" class="value">130.79</text>
<text x="10" y="238" class="label">store.akamai.steamstatic.com</text>
<rect x="180" y="222" width="476.22" height="22" fill="#4c78a8" rx="3"/>
<text x="664.22" y="238" class="value">130.96</text>
<text x="10" y="270" class="label">socialclub.rockstargames.com</text>
<rect x="180" y="254" width="522.4" height="22" fill="#4c78a8" rx="3"/>
<text x="710.4" y="270" class="value">143.66</text>
<text x="10" y="302" class="label">origin.com</text>
<rect x="180" y="286" width="548.65" height="22" fill="#4c78a8" rx="3"/>
<text x="736.65" y="302" class="value">150.88</text>
<text x="10" y="334" class="label">community.akamai.steamstatic.com</text>
<rect x="180" y="318" width="563.38" height="22" fill="#4c78a8" rx="3"/>
<text x="751.38" y="334" class="value">154.93</text>
<text x="10" y="366" class="label">cdn.cloudflare.steamstatic.com</text>
<rect x="180" y="350" width="563.82" height="22" fill="#4c78a8" rx="3"/>
<text x="751.82" y="366" class="value">155.05</text>
<text x="10" y="398" class="label">launcher-public-service-prod06.ol.epicgames.com</text>
<rect x="180" y="382" width="566.18" height="22" fill="#4c78a8" rx="3"/>
<text x="754.18" y="398" class="value">155.70</text>
<text x="10" y="430" class="label">battle.net</text>
<rect x="180" y="414" width="567.16" height="22" fill="#4c78a8" rx="3"/>
<text x="755.16" y="430" class="value">155.97</text>
<text x="10" y="462" class="label">blizzard.com</text>
<rect x="180" y="446" width="572.69" height="22" fill="#4c78a8" rx="3"/>
<text x="760.69" y="462" class="value">157.49</text>
<text x="10" y="494" class="label">www.steamcommunity.com</text>
<rect x="180" y="478" width="580.0" height="22" fill="#4c78a8" rx="3"/>
<text x="768.0" y="494" class="value">159.50</text>
<line x1="180" y1="30" x2="180" y2="520" stroke="#ccc"/>
<line x1="180" y1="520" x2="760" y2="520" stroke="#ccc"/>
</svg>