<svg xmlns="http://www.w3.org/2000/svg" width="800" height="540">
<style> .label{font-family:DejaVu Sans,Verdana,Geneva,sans-serif;font-size:12px;fill:#333} .value{font-family:DejaVu Sans,Verdana,Geneva,sans-serif;font-size:12px;fill:#555} </style>
<text x="10" y="20" class="label">延迟柱状图（越低越好，Top 15），单位 ms</text>
<text x="10" y="46" class="label">community.akamai.steamstatic.com</text>
<rect x="180" y="30" width="103.15" height="22" fill="#4c78a8" rx="3"/>
<text x="291.15" y="46" class="value">46.70</text>
<text x="10" y="78" class="label">eaassets-a.akamaihd.net</text>
<rect x="180" y="62" width="141.21" height="22" fill="#4c78a8" rx="3"/>
<text x="329.21000000000004" y="78" class="value">63.93</text>
<text x="10" y="110" class="label">origin.com</text>
<rect x="180" y="94" width="147.53" height="22" fill="#4c78a8" rx="3"/>
<text x="335.53" y="110" class="value">66.79</text>
<text x="10" y="142" class="label">rockstargames.com</text>
<rect x="180" y="126" width="220.02" height="22" fill="#4c78a8" rx="3"/>
<text x="408.02" y="142" class="value">99.61</text>
<text x="10" y="174" class="label">ea.com</text>
<rect x="180" y="158" width="274.07" height="22" fill="#4c78a8" rx="3"/>
<text x="462.07" y="174" class="value">124.08</text>
<text x="10" y="206" class="label">store.akamai.steamstatic.com</text>
<rect x="180" y="190" width="282.34" height="22" fill="#4c78a8" rx="3"/>
<text x="470.34" y="206" class="value">127.82</text>
<text x="10" y="238" class="label">cdn.akamai.steamstatic.com</text>
<rect x="180" y="222" width="304.2" height="22" fill="#4c78a8" rx="3"/>
<text x="492.2" y="238" class="value">137.72</text>
<text x="10" y="270" class="label">easyanticheat.net</text>
<rect x="180" y="254" width="328.01" height="22" fill="#4c78a8" rx="3"/>
<text x="516.01" y="270" class="value">148.50</text>
<text x="10" y="302" class="label">ubisoft.com</text>
<rect x="180" y="286" width="360.55" height="22" fill="#4c78a8" rx="3"/>
<text x="548.55" y="302" class="value">163.23</text>
<text x="10" y="334" class="label">steamcdn-a.akamaihd.net</text>
<rect x="180" y="318" width="463.86" height="22" fill="#4c78a8" rx="3"/>
<text x="651.86" y="334" class="value">210.00</text>
<text x="10" y="366" class="label">www.steamcommunity.com</text>
<rect x="180" y="350" width="511.55" height="22" fill="#4c78a8" rx="3"/>
<text x="699.55" y="366" class="value">231.59</text>
<text x="10" y="398" class="label">api.steampowered.com</text>
<rect x="180" y="382" width="512.81" height="22" fill="#4c78a8" rx="3"/>
<text x="700.81" y="398" class="value">232.16</text>
<text x="10" y="430" class="label">cdn.cloudflare.steamstatic.com</text>
<rect x="180" y="414" width="517.25" height="22" fill="#4c78a8" rx="3"/>
<text x="705.25" y="430" class="value">234.17</text>
<text x="10" y="462" class="label">steam-chat.com</text>
<rect x="180" y="446" width="534.43" height="22" fill="#4c78a8" rx="3"/>
<text x="722.43" y="462" class="value">241.95</text>
<text x="10" y="494" class="label">steamcommunity.com</text>
<rect x="180" y="478" width="580.0" height="22" fill="#4c78a8" rx="3"/>
<text x="768.0" y="494" class="value">262.58</text>
<line x1="180" y1="30" x2="180" y2="520" stroke="#ccc"/>
<line x1="180" y1="520" x2="760" y2="520" stroke="#ccc"/>
</svg>