<svg xmlns="http://www.w3.org/2000/svg" width="800" height="540">
<style> .label{font-family:DejaVu Sans,Verdana,Geneva,sans-serif;font-size:12px;fill:#333} .value{font-family:DejaVu Sans,Verdana,Geneva,sans-serif;font-size:12px;fill:#555} </style>
<text x="10" y="20" class="label">延迟柱状图（越低越好，Top 15），单位 ms</text>
<text x="10" y="46" class="label">rockstargames.com</text>
<rect x="180" y="30" width="194.12" height="22" fill="#4c78a8" rx="3"/>
<text x="382.12" y="46" class="value">68.32</text>
<text x="10" y="78" class="label">eaassets-a.akamaihd.net</text>
<rect x="180" y="62" width="194.49" height="22" fill="#4c78a8" rx="3"/>
<text x="382.49" y="78" class="value">68.45</text>
<text x="10" y="110" class="label">cdn.cloudflare.steamstatic.com</text>
<rect x="180" y="94" width="215.74" height="22" fill="#4c78a8" rx="3"/>
<text x="403.74" y="110" class="value">75.93</text>
<text x="10" y="142" class="label">steamcdn-a.akamaihd.net</text>
<rect x="180" y="126" width="255.89" height="22" fill="#4c78a8" rx="3"/>
<text x="443.89" y="142" class="value">90.06</text>
<text x="10" y="174" class="label">ea.com</text>
<rect x="180" y="158" width="299.05" height="22" fill="#4c78a8" rx="3"/>
<text x="487.05" y="174" class="value">105.25</text>
<text x="10" y="206" class="label">origin.com</text>
<rect x="180" y="190" width="341.56" height="22" fill="#4c78a8" rx="3"/>
<text x="529.56" y="206" class="value">120.21</text>
<text x="10" y="238" class="label">cdn.akamai.steamstatic.com</text>
<rect x="180" y="222" width="357.15" height="22" fill="#4c78a8" rx="3"/>
<text x="545.15" y="238" class="value">125.70</text>
<text x="10" y="270" class="label">blizzard.com</text>
<rect x="180" y="254" width="373.09" height="22" fill="#4c78a8" rx="3"/>
<text x="561.0899999999999" y="270" class="value">131.31</text>
<text x="10" y="302" class="label">battle.net</text>
<rect x="180" y="286" width="385.57" height="22" fill="#4c78a8" rx="3"/>
<text x="573.5699999999999" y="302" class="value">135.70</text>
<text x="10" y="334" class="label">socialclub.rockstargames.com</text>
<rect x="180" y="318" width="387.59" height="22" fill="#4c78a8" rx="3"/>
<text x="575.5899999999999" y="334" class="value">136.41</text>
<text x="10" y="366" class="label">ubi.com</text>
<rect x="180" y="350" width="391.71" height="22" fill="#4c78a8" rx="3"/>
<text x="579.71" y="366" class="value">137.86</text>
<text x="10" y="398" class="label">store.akamai.steamstatic.com</text>
<rect x="180" y="382" width="429.61" height="22" fill="#4c78a8" rx="3"/>
<text x="617.61" y="398" class="value">151.20</text>
<text x="10" y="430" class="label">www.steamcommunity.com</text>
<rect x="180" y="414" width="450.8" height="22" fill="#4c78a8" rx="3"/>
<text x="638.8" y="430" class="value">158.66</text>
<text x="10" y="462" class="label">static3.cdn.ubi.com</text>
<rect x="180" y="446" width="523.37" height="22" fill="#4c78a8" rx="3"/>
<text x="711.37" y="462" class="value">184.20</text>
<text x="10" y="494" class="label">easyanticheat.net</text>
<rect x="180" y="478" width="580.0" height="22" fill="#4c78a8" rx="3"/>
<text x="768.0" y="494" class="value">204.13</text>
<line x1="180" y1="30" x2="180" y2="520" stroke="#ccc"/>
<line x1="180" y1="520" x2="760" y2="520" stroke="#ccc"/>
</svg>