<svg xmlns="http://www.w3.org/2000/svg" width="800" height="540">
<style> .label{font-family:DejaVu Sans,Verdana,Geneva,sans-serif;font-size:12px;fill:#333} .value{font-family:DejaVu Sans,Verdana,Geneva,sans-serif;font-size:12px;fill:#555} </style>
<text x="10" y="20" class="label">延迟柱状图（越低越好，Top 15），单位 ms</text>
<text x="10" y="46" class="label">ea.com</text>
<rect x="180" y="30" width="251.31" height="22" fill="#4c78a8" rx="3"/>
<text x="439.31" y="46" class="value">83.28</text>
<text x="10" y="78" class="label">store.akamai.steamstatic.com</text>
<rect x="180" y="62" width="269.39" height="22" fill="#4c78a8" rx="3"/>
<text x="457.39" y="78" class="value">89.27</text>
<text x="10" y="110" class="label">community.akamai.steamstatic.com</text>
<rect x="180" y="94" width="269.63" height="22" fill="#4c78a8" rx="3"/>
<text x="457.63" y="110" class="value">89.35</text>
<text x="10" y="142" class="label">rockstargames.com</text>
<rect x="180" y="126" width="270.42" height="22" fill="#4c78a8" rx="3"/>
<text x="458.42" y="142" class="value">89.61</text>
<text x="10" y="174" class="label">eaassets-a.akamaihd.net</text>
<rect x="180" y="158" width="281.46" height="22" fill="#4c78a8" rx="3"/>
<text x="469.46" y="174" class="value">93.27</text>
<text x="10" y="206" class="label">easyanticheat.net</text>
<rect x="180" y="190" width="401.44" height="22" fill="#4c78a8" rx="3"/>
<text x="589.44" y="206" class="value">133.03</text>
<text x="10" y="238" class="label">socialclub.rockstargames.com</text>
<rect x="180" y="222" width="420.88" height="22" fill="#4c78a8" rx="3"/>
<text x="608.88" y="238" class="value">139.47</text>
<text x="10" y="270" class="label">static3.cdn.ubi.com</text>
<rect x="180" y="254" width="453.74" height="22" fill="#4c78a8" rx="3"/>
<text x="641.74" y="270" class="value">150.36</text>
<text x="10" y="302" class="label">ubisoft.com</text>
<rect x="180" y="286" width="457.42" height="22" fill="#4c78a8" rx="3"/>
<text x="645.4200000000001" y="302" class="value">151.58</text>
<text x="10" y="334" class="label">blizzard.com</text>
<rect x="180" y="318" width="485.85" height="22" fill="#4c78a8" rx="3"/>
<text x="673.85" y="334" class="value">161.00</text>
<text x="10" y="366" class="label">battle.net</text>
<rect x="180" y="350" width="507.97" height="22" fill="#4c78a8" rx="3"/>
<text x="695.97" y="366" class="value">168.33</text>
<text x="10" y="398" class="label">ubi.com</text>
<rect x="180" y="382" width="517.71" height="22" fill="#4c78a8" rx="3"/>
<text x="705.71" y="398" class="value">171.56</text>
<text x="10" y="430" class="label">cdn.akamai.steamstatic.com</text>
<rect x="180" y="414" width="551.69" height="22" fill="#4c78a8" rx="3"/>
<text x="739.69" y="430" class="value">182.82</text>
<text x="10" y="462" class="label">origin.com</text>
<rect x="180" y="446" width="557.13" height="22" fill="#4c78a8" rx="3"/>
<text x="745.13" y="462" class="value">184.62</text>
<text x="10" y="494" class="label">cdn.cloudflare.steamstatic.com</text>
<rect x="180" y="478" width="580.0" height="22" fill="#4c78a8" rx="3"/>
<text x="768.0" y="494" class="value">192.20</text>
<line x1="180" y1="30" x2="180" y2="520" stroke="#ccc"/>
<line x1="180" y1="520" x2="760" y2="520" stroke="#ccc"/>
</svg>