<svg xmlns="http://www.w3.org/2000/svg" width="800" height="540">
<style> .label{font-family:DejaVu Sans,Verdana,Geneva,sans-serif;font-size:12px;fill:#333} .value{font-family:DejaVu Sans,Verdana,Geneva,sans-serif;font-size:12px;fill:#555} </style>
<text x="10" y="20" class="label">延迟柱状图（越低越好，Top 15），单位 ms</text>
<text x="10" y="46" class="label">rockstargames.com</text>
<rect x="180" y="30" width="149.13" height="22" fill="#4c78a8" rx="3"/>
<text x="337.13" y="46" class="value">65.07</text>
<text x="10" y="78" class="label">community.akamai.steamstatic.com</text>
<rect x="180" y="62" width="242.66" height="22" fill="#4c78a8" rx="3"/>
<text x="430.65999999999997" y="78" class="value">105.88</text>
<text x="10" y="110" class="label">eaassets-a.akamaihd.net</text>
<rect x="180" y="94" width="246.92" height="22" fill="#4c78a8" rx="3"/>
<text x="434.91999999999996" y="110" class="value">107.74</text>
<text x="10" y="142" class="label">ea.com</text>
<rect x="180" y="126" width="257.08" height="22" fill="#4c78a8" rx="3"/>
<text x="445.08" y="142" class="value">112.17</text>
<text x="10" y="174" class="label">origin.com</text>
<rect x="180" y="158" width="361.68" height="22" fill="#4c78a8" rx="3"/>
<text x="549.6800000000001" y="174" class="value">157.81</text>
<text x="10" y="206" class="label">cdn.cloudflare.steamstatic.com</text>
<rect x="180" y="190" width="368.16" height="22" fill="#4c78a8" rx="3"/>
<text x="556.1600000000001" y="206" class="value">160.64</text>
<text x="10" y="238" class="label">cdn.akamai.steamstatic.com</text>
<rect x="180" y="222" width="396.31" height="22" fill="#4c78a8" rx="3"/>
<text x="584.31" y="238" class="value">172.92</text>
<text x="10" y="270" class="label">store.akamai.steamstatic.com</text>
<rect x="180" y="254" width="417.97" height="22" fill="#4c78a8" rx="3"/>
<text x="605.97" y="270" class="value">182.37</text>
<text x="10" y="302" class="label">steamcdn-a.akamaihd.net</text>
<rect x="180" y="286" width="485.6" height="22" fill="#4c78a8" rx="3"/>
<text x="673.6" y="302" class="value">211.88</text>
<text x="10" y="334" class="label">easyanticheat.net</text>
<rect x="180" y="318" width="503.82" height="22" fill="#4c78a8" rx="3"/>
<text x="691.8199999999999" y="334" class="value">219.83</text>
<text x="10" y="366" class="label">api.steampowered.com</text>
<rect x="180" y="350" width="528.32" height="22" fill="#4c78a8" rx="3"/>
<text x="716.32" y="366" class="value">230.52</text>
<text x="10" y="398" class="label">ubi.com</text>
<rect x="180" y="382" width="550.71" height="22" fill="#4c78a8" rx="3"/>
<text x="738.71" y="398" class="value">240.29</text>
<text x="10" y="430" class="label">ubisoft.com</text>
<rect x="180" y="414" width="568.84" height="22" fill="#4c78a8" rx="3"/>
<text x="756.84" y="430" class="value">248.20</text>
<text x="10" y="462" class="label">www.steamcommunity.com</text>
<rect x="180" y="446" width="569.46" height="22" fill="#4c78a8" rx="3"/>
<text x="757.46" y="462" class="value">248.47</text>
<text x="10" y="494" class="label">steam-chat.com</text>
<rect x="180" y="478" width="580.0" height="22" fill="#4c78a8" rx="3"/>
<text x="768.0" y="494" class="value">253.07</text>
<line x1="180" y1="30" x2="180" y2="520" stroke="#ccc"/>
<line x1="180" y1="520" x2="760" y2="520" stroke="#ccc"/>
</svg>