<svg xmlns="http://www.w3.org/2000/svg" width="800" height="540">
<style> .label{font-family:DejaVu Sans,Verdana,Geneva,sans-serif;font-size:12px;fill:#333} .value{font-family:DejaVu Sans,Verdana,Geneva,sans-serif;font-size:12px;fill:#555} </style>
<text x="10" y="20" class="label">延迟柱状图（越低越好，Top 15），单位 ms</text>
<text x="10" y="46" class="label">ea.com</text>
<rect x="180" y="30" width="98.71" height="22" fill="#4c78a8" rx="3"/>
<text x="286.71" y="46" class="value">50.10</text>
<text x="10" y="78" class="label">rockstargames.com</text>
<rect x="180" y="62" width="98.98" height="22" fill="#4c78a8" rx="3"/>
<text x="286.98" y="78" class="value">50.24</text>
<text x="10" y="110" class="label">eaassets-a.akamaihd.net</text>
<rect x="180" y="94" width="123.26" height="22" fill="#4c78a8" rx="3"/>
<text x="311.26" y="110" class="value">62.56</text>
<text x="10" y="142" class="label">steamcdn-a.akamaihd.net</text>
<rect x="180" y="126" width="172.18" height="22" fill="#4c78a8" rx="3"/>
<text x="360.18" y="142" class="value">87.39</text>
<text x="10" y="174" class="label">origin.com</text>
<rect x="180" y="158" width="264.29" height="22" fill="#4c78a8" rx="3"/>
<text x="452.29" y="174" class="value">134.14</text>
<text x="10" y="206" class="label">community.akamai.steamstatic.com</text>
<rect x="180" y="190" width="337.54" height="22" fill="#4c78a8" rx="3"/>
<text x="525.54" y="206" class="value">171.32</text>
<text x="10" y="238" class="label">api.steampowered.com</text>
<rect x="180" y="222" width="362.88" height="22" fill="#4c78a8" rx="3"/>
<text x="550.88" y="238" class="value">184.18</text>
<text x="10" y="270" class="label">easyanticheat.net</text>
<rect x="180" y="254" width="378.11" height="22" fill="#4c78a8" rx="3"/>
<text x="566.11" y="270" class="value">191.91</text>
<text x="10" y="302" class="label">store.akamai.steamstatic.com</text>
<rect x="180" y="286" width="410.56" height="22" fill="#4c78a8" rx="3"/>
<text x="598.56" y="302" class="value">208.38</text>
<text x="10" y="334" class="label">cdn.akamai.steamstatic.com</text>
<rect x="180" y="318" width="441.45" height="22" fill="#4c78a8" rx="3"/>
<text x="629.45" y="334" class="value">224.06</text>
<text x="10" y="366" class="label">cdn.cloudflare.steamstatic.com</text>
<rect x="180" y="350" width="480.86" height="22" fill="#4c78a8" rx="3"/>
<text x="668.86" y="366" class="value">244.06</text>
<text x="10" y="398" class="label">steam-chat.com</text>
<rect x="180" y="382" width="483.81" height="22" fill="#4c78a8" rx="3"/>
<text x="671.81" y="398" class="value">245.56</text>
<text x="10" y="430" class="label">launcher-public-service-prod06.ol.epicgames.com</text>
<rect x="180" y="414" width="541.34" height="22" fill="#4c78a8" rx="3"/>
<text x="729.34" y="430" class="value">274.76</text>
<text x="10" y="462" class="label">steamcommunity.com</text>
<rect x="180" y="446" width="548.65" height="22" fill="#4c78a8" rx="3"/>
<text x="736.65" y="462" class="value">278.47</text>
<text x="10" y="494" class="label">blizzard.com</text>
<rect x="180" y="478" width="580.0" height="22" fill="#4c78a8" rx="3"/>
<text x="768.0" y="494" class="value">294.38</text>
<line x1="180" y1="30" x2="180" y2="520" stroke="#ccc"/>
<line x1="180" y1="520" x2="760" y2="520" stroke="#ccc"/>
</svg>