<svg xmlns="http://www.w3.org/2000/svg" width="800" height="540">
<style> .label{font-family:DejaVu Sans,Verdana,Geneva,sans-serif;font-size:12px;fill:#333} .value{font-family:DejaVu Sans,Verdana,Geneva,sans-serif;font-size:12px;fill:#555} </style>
<text x="10" y="20" class="label">延迟柱状图（越低越好，Top 15），单位 ms</text>
<text x="10" y="46" class="label">rockstargames.com</text>
<rect x="180" y="30" width="212.07" height="22" fill="#4c78a8" rx="3"/>
<text x="400.07" y="46" class="value">69.36</text>
<text x="10" y="78" class="label">eaassets-a.akamaihd.net</text>
<rect x="180" y="62" width="251.17" height="22" fill="#4c78a8" rx="3"/>
<text x="439.16999999999996" y="78" class="value">82.15</text>
<text x="10" y="110" class="label">steamcdn-a.akamaihd.net</text>
<rect x="180" y="94" width="351.91" height="22" fill="#4c78a8" rx="3"/>
<text x="539.9100000000001" y="110" class="value">115.10</text>
<text x="10" y="142" class="label">blizzard.com</text>
<rect x="180" y="126" width="378.97" height="22" fill="#4c78a8" rx="3"/>
<text x="566.97" y="142" class="value">123.95</text>
<text x="10" y="174" class="label">cdn.akamai.steamstatic.com</text>
<rect x="180" y="158" width="379.43" height="22" fill="#4c78a8" rx="3"/>
<text x="567.4300000000001" y="174" class="value">124.10</text>
<text x="10" y="206" class="label">ea.com</text>
<rect x="180" y="190" width="389.49" height="22" fill="#4c78a8" rx="3"/>
<text x="577.49" y="206" class="value">127.39</text>
<text x="10" y="238" class="label">socialclub.rockstargames.com</text>
<rect x="180" y="222" width="420.19" height="22" fill="#4c78a8" rx="3"/>
<text x="608.19" y="238" class="value">137.43</text>
<text x="10" y="270" class="label">battle.net</text>
<rect x="180" y="254" width="436.3" height="22" fill="#4c78a8" rx="3"/>
<text x="624.3" y="270" class="value">142.70</text>
<text x="10" y="302" class="label">static3.cdn.ubi.com</text>
<rect x="180" y="286" width="452.05" height="22" fill="#4c78a8" rx="3"/>
<text x="640.05" y="302" class="value">147.85</text>
<text x="10" y="334" class="label">ubi.com</text>
<rect x="180" y="318" width="479.35" height="22" fill="#4c78a8" rx="3"/>
<text x="667.35" y="334" class="value">156.78</text>
<text x="10" y="366" class="label">community.akamai.steamstatic.com</text>
<rect x="180" y="350" width="501.21" height="22" fill="#4c78a8" rx="3"/>
<text x="689.21" y="366" class="value">163.93</text>
<text x="10" y="398" class="label">api.steampowered.com</text>
<rect x="180" y="382" width="508.15" height="22" fill="#4c78a8" rx="3"/>
<text x="696.15" y="398" class="value">166.20</text>
<text x="10" y="430" class="label">gog.com</text>
<rect x="180" y="414" width="558.44" height="22" fill="#4c78a8" rx="3"/>
<text x="746.44" y="430" class="value">182.65</text>
<text x="10" y="462" class="label">ubisoft.com</text>
<rect x="180" y="446" width="565.39" height="22" fill="#4c78a8" rx="3"/>
<text x="753.39" y="462" class="value">184.92</text>
<text x="10" y="494" class="label">steam-chat.com</text>
<rect x="180" y="478" width="580.0" height="22" fill="#4c78a8" rx="3"/>
<text x="768.0" y="494" class="value">189.70</text>
<line x1="180" y1="30" x2="180" y2="520" stroke="#ccc"/>
<line x1="180" y1="520" x2="760" y2="520" stroke="#ccc"/>
</svg>