<svg xmlns="http://www.w3.org/2000/svg" width="800" height="540">
<style> .label{font-family:DejaVu Sans,Verdana,Geneva,sans-serif;font-size:12px;fill:#333} .value{font-family:DejaVu Sans,Verdana,Geneva,sans-serif;font-size:12px;fill:#555} </style>
<text x="10" y="20" class="label">延迟柱状图（越低越好，Top 15），单位 ms</text>
<text x="10" y="46" class="label">cdn.akamai.steamstatic.com</text>
<rect x="180" y="30" width="216.52" height="22" fill="#4c78a8" rx="3"/>
<text x="404.52" y="46" class="value">94.40</text>
<text x="10" y="78" class="label">rockstargames.com</text>
<rect x="180" y="62" width="239.34" height="22" fill="#4c78a8" rx="3"/>
<text x="427.34000000000003" y="78" class="value">104.35</text>
<text x="10" y="110" class="label">eaassets-a.akamaihd.net</text>
<rect x="180" y="94" width="250.51" height="22" fill="#4c78a8" rx="3"/>
<text x="438.51" y="110" class="value">109.22</text>
<text x="10" y="142" class="label">community.akamai.steamstatic.com</text>
<rect x="180" y="126" width="342.81" height="22" fill="#4c78a8" rx="3"/>
<text x="530.81" y="142" class="value">149.46</text>
<text x="10" y="174" class="label">store.akamai.steamstatic.com</text>
<rect x="180" y="158" width="344.23" height="22" fill="#4c78a8" rx="3"/>
<text x="532.23" y="174" class="value">150.08</text>
<text x="10" y="206" class="label">easyanticheat.net</text>
<rect x="180" y="190" width="346.46" height="22" fill="#4c78a8" rx="3"/>
<text x="534.46" y="206" class="value">151.05</text>
<text x="10" y="238" class="label">ea.com</text>
<rect x="180" y="222" width="413.55" height="22" fill="#4c78a8" rx="3"/>
<text x="601.55" y="238" class="value">180.30</text>
<text x="10" y="270" class="label">ubisoft.com</text>
<rect x="180" y="254" width="420.06" height="22" fill="#4c78a8" rx="3"/>
<text x="608.06" y="270" class="value">183.14</text>
<text x="10" y="302" class="label">battle.net</text>
<rect x="180" y="286" width="421.44" height="22" fill="#4c78a8" rx="3"/>
<text x="609.44" y="302" class="value">183.74</text>
<text x="10" y="334" class="label">blizzard.com</text>
<rect x="180" y="318" width="433.04" height="22" fill="#4c78a8" rx="3"/>
<text x="621.04" y="334" class="value">188.80</text>
<text x="10" y="366" class="label">ubi.com</text>
<rect x="180" y="350" width="435.77" height="22" fill="#4c78a8" rx="3"/>
<text x="623.77" y="366" class="value">189.99</text>
<text x="10" y="398" class="label">socialclub.rockstargames.com</text>
<rect x="180" y="382" width="453.62" height="22" fill="#4c78a8" rx="3"/>
<text x="641.62" y="398" class="value">197.77</text>
<text x="10" y="430" class="label">cdn.cloudflare.steamstatic.com</text>
<rect x="180" y="414" width="487.52" height="22" fill="#4c78a8" rx="3"/>
<text x="675.52" y="430" class="value">212.55</text>
<text x="10" y="462" class="label">fortnite.com</text>
<rect x="180" y="446" width="491.44" height="22" fill="#4c78a8" rx="3"/>
<text x="679.44" y="462" class="value">214.26</text>
<text x="10" y="494" class="label">api.steampowered.com</text>
<rect x="180" y="478" width="580.0" height="22" fill="#4c78a8" rx="3"/>
<text x="768.0" y="494" class="value">252.87</text>
<line x1="180" y1="30" x2="180" y2="520" stroke="#ccc"/>
<line x1="180" y1="520" x2="760" y2="520" stroke="#ccc"/>
</svg>