<svg xmlns="http://www.w3.org/2000/svg" width="800" height="540">
<style> .label{font-family:DejaVu Sans,Verdana,Geneva,sans-serif;font-size:12px;fill:#333} .value{font-family:DejaVu Sans,Verdana,Geneva,sans-serif;font-size:12px;fill:#555} </style>
<text x="10" y="20" class="label">延迟柱状图（越低越好，Top 15），单位 ms</text>
<text x="10" y="46" class="label">rockstargames.com</text>
<rect x="180" y="30" width="124.87" height="22" fill="#4c78a8" rx="3"/>
<text x="312.87" y="46" class="value">52.38</text>
<text x="10" y="78" class="label">ea.com</text>
<rect x="180" y="62" width="191.15" height="22" fill="#4c78a8" rx="3"/>
<text x="379.15" y="78" class="value">80.18</text>
<text x="10" y="110" class="label">cdn.cloudflare.steamstatic.com</text>
<rect x="180" y="94" width="210.98" height="22" fill="#4c78a8" rx="3"/>
<text x="398.98" y="110" class="value">88.50</text>
<text x="10" y="142" class="label">store.akamai.steamstatic.com</text>
<rect x="180" y="126" width="261.9" height="22" fill="#4c78a8" rx="3"/>
<text x="449.9" y="142" class="value">109.86</text>
<text x="10" y="174" class="label">eaassets-a.akamaihd.net</text>
<rect x="180" y="158" width="264.48" height="22" fill="#4c78a8" rx="3"/>
<text x="452.48" y="174" class="value">110.94</text>
<text x="10" y="206" class="label">ubisoft.com</text>
<rect x="180" y="190" width="286.84" height="22" fill="#4c78a8" rx="3"/>
<text x="474.84" y="206" class="value">120.32</text>
<text x="10" y="238" class="label">steamcdn-a.akamaihd.net</text>
<rect x="180" y="222" width="301.38" height="22" fill="#4c78a8" rx="3"/>
<text x="489.38" y="238" class="value">126.42</text>
<text x="10" y="270" class="label">origin.com</text>
<rect x="180" y="254" width="307.13" height="22" fill="#4c78a8" rx="3"/>
<text x="495.13" y="270" class="value">128.83</text>
<text x="10" y="302" class="label">cdn.akamai.steamstatic.com</text>
<rect x="180" y="286" width="374.74" height="22" fill="#4c78a8" rx="3"/>
<text x="562.74" y="302" class="value">157.19</text>
<text x="10" y="334" class="label">easyanticheat.net</text>
<rect x="180" y="318" width="429.48" height="22" fill="#4c78a8" rx="3"/>
<text x="617.48" y="334" class="value">180.15</text>
<text x="10" y="366" class="label">launcher-public-service-prod06.ol.epicgames.com</text>
<rect x="180" y="350" width="478.73" height="22" fill="#4c78a8" rx="3"/>
<text x="666.73" y="366" class="value">200.81</text>
<text x="10" y="398" class="label">community.akamai.steamstatic.com</text>
<rect x="180" y="382" width="507.0" height="22" fill="#4c78a8" rx="3"/>
<text x="695.0" y="398" class="value">212.67</text>
<text x="10" y="430" class="label">gog.com</text>
<rect x="180" y="414" width="567.82" height="22" fill="#4c78a8" rx="3"/>
<text x="755.82" y="430" class="value">238.18</text>
<text x="10" y="462" class="label">steam-chat.com</text>
<rect x="180" y="446" width="575.18" height="22" fill="#4c78a8" rx="3"/>
<text x="763.18" y="462" class="value">241.27</text>
<text x="10" y="494" class="label">www.steamcommunity.com</text>
<rect x="180" y="478" width="580.0" height="22" fill="#4c78a8" rx="3"/>
<text x="768.0" y="494" class="value">243.29</text>
<line x1="180" y1="30" x2="180" y2="520" stroke="#ccc"/>
<line x1="180" y1="520" x2="760" y2="520" stroke="#ccc"/>
</svg>