<svg xmlns="http://www.w3.org/2000/svg" width="800" height="540">
<style> .label{font-family:DejaVu Sans,Verdana,Geneva,sans-serif;font-size:12px;fill:#333} .value{font-family:DejaVu Sans,Verdana,Geneva,sans-serif;font-size:12px;fill:#555} </style>
<text x="10" y="20" class="label">延迟柱状图（越低越好，Top 15），单位 ms</text>
<text x="10" y="46" class="label">ea.com</text>
<rect x="180" y="30" width="281.01" height="22" fill="#4c78a8" rx="3"/>
<text x="469.01" y="46" class="value">103.63</text>
<text x="10" y="78" class="label">rockstargames.com</text>
<rect x="180" y="62" width="339.34" height="22" fill="#4c78a8" rx="3"/>
<text x="527.3399999999999" y="78" class="value">125.14</text>
<text x="10" y="110" class="label">static3.cdn.ubi.com</text>
<rect x="180" y="94" width="404.72" height="22" fill="#4c78a8" rx="3"/>
<text x="592.72" y="110" class="value">149.25</text>
<text x="10" y="142" class="label">origin.com</text>
<rect x="180" y="126" width="406.78" height="22" fill="#4c78a8" rx="3"/>
<text x="594.78" y="142" class="value">150.01</text>
<text x="10" y="174" class="label">eaassets-a.akamaihd.net</text>
<rect x="180" y="158" width="412.45" height="22" fill="#4c78a8" rx="3"/>
<text x="600.45" y="174" class="value">152.10</text>
<text x="10" y="206" class="label">ubisoft.com</text>
<rect x="180" y="190" width="416.73" height="22" fill="#4c78a8" rx="3"/>
<text x="604.73" y="206" class="value">153.68</text>
<text x="10" y="238" class="label">battle.net</text>
<rect x="180" y="222" width="424.81" height="22" fill="#4c78a8" rx="3"/>
<text x="612.81" y="238" class="value">156.66</text>
<text x="10" y="270" class="label">steam-chat.com</text>
<rect x="180" y="254" width="431.24" height="22" fill="#4c78a8" rx="3"/>
<text x="619.24" y="270" class="value">159.03</text>
<text x="10" y="302" class="label">blizzard.com</text>
<rect x="180" y="286" width="449.03" height="22" fill="#4c78a8" rx="3"/>
<text x="637.03" y="302" class="value">165.59</text>
<text x="10" y="334" class="label">ubi.com</text>
<rect x="180" y="318" width="484.25" height="22" fill="#4c78a8" rx="3"/>
<text x="672.25" y="334" class="value">178.58</text>
<text x="10" y="366" class="label">easyanticheat.net</text>
<rect x="180" y="350" width="487.61" height="22" fill="#4c78a8" rx="3"/>
<text x="675.61" y="366" class="value">179.82</text>
<text x="10" y="398" class="label">community.akamai.steamstatic.com</text>
<rect x="180" y="382" width="500.95" height="22" fill="#4c78a8" rx="3"/>
<text x="688.95" y="398" class="value">184.74</text>
<text x="10" y="430" class="label">cdn.cloudflare.steamstatic.com</text>
<rect x="180" y="414" width="573.46" height="22" fill="#4c78a8" rx="3"/>
<text x="761.46" y="430" class="value">211.48</text>
<text x="10" y="462" class="label">socialclub.rockstargames.com</text>
<rect x="180" y="446" width="577.26" height="22" fill="#4c78a8" rx="3"/>
<text x="765.26" y="462" class="value">212.88</text>
<text x="10" y="494" class="label">epicgames.com</text>
<rect x="180" y="478" width="580.0" height="22" fill="#4c78a8" rx="3"/>
<text x="768.0" y="494" class="value">213.89</text>
<line x1="180" y1="30" x2="180" y2="520" stroke="#ccc"/>
<line x1="180" y1="520" x2="760" y2="520" stroke="#ccc"/>
</svg>