<svg xmlns="http://www.w3.org/2000/svg" width="800" height="540">
<style> .label{font-family:DejaVu Sans,Verdana,Geneva,sans-serif;font-size:12px;fill:#333} .value{font-family:DejaVu Sans,Verdana,Geneva,sans-serif;font-size:12px;fill:#555} </style>
<text x="10" y="20" class="label">延迟柱状图（越低越好，Top 15），单位 ms</text>
<text x="10" y="46" class="label">eaassets-a.akamaihd.net</text>
<rect x="180" y="30" width="166.9" height="22" fill="#4c78a8" rx="3"/>
<text x="354.9" y="46" class="value">77.55</text>
<text x="10" y="78" class="label">ubisoft.com</text>
<rect x="180" y="62" width="192.98" height="22" fill="#4c78a8" rx="3"/>
<text x="380.98" y="78" class="value">89.67</text>
<text x="10" y="110" class="label">ea.com</text>
<rect x="180" y="94" width="204.93" height="22" fill="#4c78a8" rx="3"/>
<text x="392.93" y="110" class="value">95.22</text>
<text x="10" y="142" class="label">rockstargames.com</text>
<rect x="180" y="126" width="210.33" height="22" fill="#4c78a8" rx="3"/>
<text x="398.33000000000004" y="142" class="value">97.73</text>
<text x="10" y="174" class="label">community.akamai.steamstatic.com</text>
<rect x="180" y="158" width="216.46" height="22" fill="#4c78a8" rx="3"/>
<text x="404.46000000000004" y="174" class="value">100.58</text>
<text x="10" y="206" class="label">steamcdn-a.akamaihd.net</text>
<rect x="180" y="190" width="245.17" height="22" fill="#4c78a8" rx="3"/>
<text x="433.16999999999996" y="206" class="value">113.92</text>
<text x="10" y="238" class="label">store.akamai.steamstatic.com</text>
<rect x="180" y="222" width="273.67" height="22" fill="#4c78a8" rx="3"/>
<text x="461.67" y="238" class="value">127.16</text>
<text x="10" y="270" class="label">origin.com</text>
<rect x="180" y="254" width="315.46" height="22" fill="#4c78a8" rx="3"/>
<text x="503.46" y="270" class="value">146.58</text>
<text x="10" y="302" class="label">easyanticheat.net</text>
<rect x="180" y="286" width="332.7" height="22" fill="#4c78a8" rx="3"/>
<text x="520.7" y="302" class="value">154.59</text>
<text x="10" y="334" class="label">cdn.akamai.steamstatic.com</text>
<rect x="180" y="318" width="370.32" height="22" fill="#4c78a8" rx="3"/>
<text x="558.3199999999999" y="334" class="value">172.07</text>
<text x="10" y="366" class="label">cdn.cloudflare.steamstatic.com</text>
<rect x="180" y="350" width="374.43" height="22" fill="#4c78a8" rx="3"/>
<text x="562.4300000000001" y="366" class="value">173.98</text>
<text x="10" y="398" class="label">launcher-public-service-prod06.ol.epicgames.com</text>
<rect x="180" y="382" width="526.41" height="22" fill="#4c78a8" rx="3"/>
<text x="714.41" y="398" class="value">244.60</text>
<text x="10" y="430" class="label">api.steampowered.com</text>
<rect x="180" y="414" width="565.95" height="22" fill="#4c78a8" rx="3"/>
<text x="753.95" y="430" class="value">262.97</text>
<text x="10" y="462" class="label">ubi.com</text>
<rect x="180" y="446" width="570.25" height="22" fill="#4c78a8" rx="3"/>
<text x="758.25" y="462" class="value">264.97</text>
<text x="10" y="494" class="label">steam-chat.com</text>
<rect x="180" y="478" width="580.0" height="22" fill="#4c78a8" rx="3"/>
<text x="768.0" y="494" class="value">269.50</text>
<line x1="180" y1="30" x2="180" y2="520" stroke="#ccc"/>
<line x1="180" y1="520" x2="760" y2="520" stroke="#ccc"/>
</svg>