<svg xmlns="http://www.w3.org/2000/svg" width="800" height="540">
<style> .label{font-family:DejaVu Sans,Verdana,Geneva,sans-serif;font-size:12px;fill:#333} .value{font-family:DejaVu Sans,Verdana,Geneva,sans-serif;font-size:12px;fill:#555} </style>
<text x="10" y="20" class="label">延迟柱状图（越低越好，Top 15），单位 ms</text>
<text x="10" y="46" class="label">rockstargames.com</text>
<rect x="180" y="30" width="146.36" height="22" fill="#4c78a8" rx="3"/>
<text x="334.36" y="46" class="value">59.29</text>
<text x="10" y="78" class="label">store.akamai.steamstatic.com</text>
<rect x="180" y="62" width="192.68" height="22" fill="#4c78a8" rx="3"/>
<text x="380.68" y="78" class="value">78.05</text>
<text x="10" y="110" class="label">blizzard.com</text>
<rect x="180" y="94" width="294.23" height="22" fill="#4c78a8" rx="3"/>
<text x="482.23" y="110" class="value">119.19</text>
<text x="10" y="142" class="label">socialclub.rockstargames.com</text>
<rect x="180" y="126" width="307.44" height="22" fill="#4c78a8" rx="3"/>
<text x="495.44" y="142" class="value">124.54</text>
<text x="10" y="174" class="label">battle.net</text>
<rect x="180" y="158" width="315.17" height="22" fill="#4c78a8" rx="3"/>
<text x="503.17" y="174" class="value">127.67</text>
<text x="10" y="206" class="label">ubisoft.com</text>
<rect x="180" y="190" width="319.69" height="22" fill="#4c78a8" rx="3"/>
<text x="507.69" y="206" class="value">129.50</text>
<text x="10" y="238" class="label">ubi.com</text>
<rect x="180" y="222" width="345.06" height="22" fill="#4c78a8" rx="3"/>
<text x="533.06" y="238" class="value">139.78</text>
<text x="10" y="270" class="label">ea.com</text>
<rect x="180" y="254" width="361.7" height="22" fill="#4c78a8" rx="3"/>
<text x="549.7" y="270" class="value">146.52</text>
<text x="10" y="302" class="label">origin.com</text>
<rect x="180" y="286" width="371.18" height="22" fill="#4c78a8" rx="3"/>
<text x="559.1800000000001" y="302" class="value">150.36</text>
<text x="10" y="334" class="label">unrealengine.com</text>
<rect x="180" y="318" width="372.93" height="22" fill="#4c78a8" rx="3"/>
<text x="560.9300000000001" y="334" class="value">151.07</text>
<text x="10" y="366" class="label">easyanticheat.net</text>
<rect x="180" y="350" width="377.15" height="22" fill="#4c78a8" rx="3"/>
<text x="565.15" y="366" class="value">152.78</text>
<text x="10" y="398" class="label">community.akamai.steamstatic.com</text>
<rect x="180" y="382" width="446.57" height="22" fill="#4c78a8" rx="3"/>
<text x="634.5699999999999" y="398" class="value">180.90</text>
<text x="10" y="430" class="label">static3.cdn.ubi.com</text>
<rect x="180" y="414" width="509.3" height="22" fill="#4c78a8" rx="3"/>
<text x="697.3" y="430" class="value">206.31</text>
<text x="10" y="462" class="label">api.steampowered.com</text>
<rect x="180" y="446" width="579.01" height="22" fill="#4c78a8" rx="3"/>
<text x="767.01" y="462" class="value">234.55</text>
<text x="10" y="494" class="label">steam-chat.com</text>
<rect x="180" y="478" width="580.0" height="22" fill="#4c78a8" rx="3"/>
<text x="768.0" y="494" class="value">234.95</text>
<line x1="180" y1="30" x2="180" y2="520" stroke="#ccc"/>
<line x1="180" y1="520" x2="760" y2="520" stroke="#ccc"/>
</svg>