<svg xmlns="http://www.w3.org/2000/svg" width="800" height="540">
<style> .label{font-family:DejaVu Sans,Verdana,Geneva,sans-serif;font-size:12px;fill:#333} .value{font-family:DejaVu Sans,Verdana,Geneva,sans-serif;font-size:12px;fill:#555} </style>
<text x="10" y="20" class="label">延迟柱状图（越低越好，Top 15），单位 ms</text>
<text x="10" y="46" class="label">rockstargames.com</text>
<rect x="180" y="30" width="95.07" height="22" fill="#4c78a8" rx="3"/>
<text x="283.07" y="46" class="value">48.32</text>
<text x="10" y="78" class="label">ea.com</text>
<rect x="180" y="62" width="109.81" height="22" fill="#4c78a8" rx="3"/>
<text x="297.81" y="78" class="value">55.81</text>
<text x="10" y="110" class="label">eaassets-a.akamaihd.net</text>
<rect x="180" y="94" width="120.69" height="22" fill="#4c78a8" rx="3"/>
<text x="308.69" y="110" class="value">61.34</text>
<text x="10" y="142" class="label">ubisoft.com</text>
<rect x="180" y="126" width="154.24" height="22" fill="#4c78a8" rx="3"/>
<text x="342.24" y="142" class="value">78.39</text>
<text x="10" y="174" class="label">community.akamai.steamstatic.com</text>
<rect x="180" y="158" width="190.42" height="22" fill="#4c78a8" rx="3"/>
<text x="378.41999999999996" y="174" class="value">96.78</text>
<text x="10" y="206" class="label">cdn.akamai.steamstatic.com</text>
<rect x="180" y="190" width="249.53" height="22" fill="#4c78a8" rx="3"/>
<text x="437.53" y="206" class="value">126.82</text>
<text x="10" y="238" class="label">steamcdn-a.akamaihd.net</text>
<rect x="180" y="222" width="250.22" height="22" fill="#4c78a8" rx="3"/>
<text x="438.22" y="238" class="value">127.17</text>
<text x="10" y="270" class="label">easyanticheat.net</text>
<rect x="180" y="254" width="274.46" height="22" fill="#4c78a8" rx="3"/>
<text x="462.46" y="270" class="value">139.49</text>
<text x="10" y="302" class="label">store.akamai.steamstatic.com</text>
<rect x="180" y="286" width="366.14" height="22" fill="#4c78a8" rx="3"/>
<text x="554.14" y="302" class="value">186.09</text>
<text x="10" y="334" class="label">origin.com</text>
<rect x="180" y="318" width="430.94" height="22" fill="#4c78a8" rx="3"/>
<text x="618.94" y="334" class="value">219.02</text>
<text x="10" y="366" class="label">steam-chat.com</text>
<rect x="180" y="350" width="444.41" height="22" fill="#4c78a8" rx="3"/>
<text x="632.4100000000001" y="366" class="value">225.87</text>
<text x="10" y="398" class="label">www.steamcommunity.com</text>
<rect x="180" y="382" width="460.47" height="22" fill="#4c78a8" rx="3"/>
<text x="648.47" y="398" class="value">234.03</text>
<text x="10" y="430" class="label">gog.com</text>
<rect x="180" y="414" width="512.83" height="22" fill="#4c78a8" rx="3"/>
<text x="700.83" y="430" class="value">260.64</text>
<text x="10" y="462" class="label">api.steampowered.com</text>
<rect x="180" y="446" width="535.16" height="22" fill="#4c78a8" rx="3"/>
<text x="723.16" y="462" class="value">271.99</text>
<text x="10" y="494" class="label">launcher-public-service-prod06.ol.epicgames.com</text>
<rect x="180" y="478" width="580.0" height="22" fill="#4c78a8" rx="3"/>
<text x="768.0" y="494" class="value">294.78</text>
<line x1="180" y1="30" x2="180" y2="520" stroke="#ccc"/>
<line x1="180" y1="520" x2="760" y2="520" stroke="#ccc"/>
</svg>