<svg xmlns="http://www.w3.org/2000/svg" width="800" height="540">
<style> .label{font-family:DejaVu Sans,Verdana,Geneva,sans-serif;font-size:12px;fill:#333} .value{font-family:DejaVu Sans,Verdana,Geneva,sans-serif;font-size:12px;fill:#555} </style>
<text x="10" y="20" class="label">延迟柱状图（越低越好，Top 15），单位 ms</text>
<text x="10" y="46" class="label">rockstargames.com</text>
<rect x="180" y="30" width="231.3" height="22" fill="#4c78a8" rx="3"/>
<text x="419.3" y="46" class="value">112.46</text>
<text x="10" y="78" class="label">origin.com</text>
<rect x="180" y="62" width="283.05" height="22" fill="#4c78a8" rx="3"/>
<text x="471.05" y="78" class="value">137.62</text>
<text x="10" y="110" class="label">eaassets-a.akamaihd.net</text>
<rect x="180" y="94" width="288.87" height="22" fill="#4c78a8" rx="3"/>
<text x="476.87" y="110" class="value">140.45</text>
<text x="10" y="142" class="label">ubisoft.com</text>
<rect x="180" y="126" width="357.81" height="22" fill="#4c78a8" rx="3"/>
<text x="545.81" y="142" class="value">173.97</text>
<text x="10" y="174" class="label">cdn.akamai.steamstatic.com</text>
<rect x="180" y="158" width="364.87" height="22" fill="#4c78a8" rx="3"/>
<text x="552.87" y="174" class="value">177.40</text>
<text x="10" y="206" class="label">easyanticheat.net</text>
<rect x="180" y="190" width="403.84" height="22" fill="#4c78a8" rx="3"/>
<text x="591.8399999999999" y="206" class="value">196.35</text>
<text x="10" y="238" class="label">steam-chat.com</text>
<rect x="180" y="222" width="438.48" height="22" fill="#4c78a8" rx="3"/>
<text x="626.48" y="238" class="value">213.19</text>
<text x="10" y="270" class="label">static3.cdn.ubi.com</text>
<rect x="180" y="254" width="439.81" height="22" fill="#4c78a8" rx="3"/>
<text x="627.81" y="270" class="value">213.84</text>
<text x="10" y="302" class="label">ubi.com</text>
<rect x="180" y="286" width="484.51" height="22" fill="#4c78a8" rx="3"/>
<text x="672.51" y="302" class="value">235.57</text>
<text x="10" y="334" class="label">community.akamai.steamstatic.com</text>
<rect x="180" y="318" width="523.79" height="22" fill="#4c78a8" rx="3"/>
<text x="711.79" y="334" class="value">254.67</text>
<text x="10" y="366" class="label">steamcdn-a.akamaihd.net</text>
<rect x="180" y="350" width="545.41" height="22" fill="#4c78a8" rx="3"/>
<text x="733.41" y="366" class="value">265.18</text>
<text x="10" y="398" class="label">ea.com</text>
<rect x="180" y="382" width="550.9" height="22" fill="#4c78a8" rx="3"/>
<text x="738.9" y="398" class="value">267.85</text>
<text x="10" y="430" class="label">store.akamai.steamstatic.com</text>
<rect x="180" y="414" width="572.84" height="22" fill="#4c78a8" rx="3"/>
<text x="760.84" y="430" class="value">278.52</text>
<text x="10" y="462" class="label">socialclub.rockstargames.com</text>
<rect x="180" y="446" width="574.24" height="22" fill="#4c78a8" rx="3"/>
<text x="762.24" y="462" class="value">279.20</text>
<text x="10" y="494" class="label">cdn.cloudflare.steamstatic.com</text>
<rect x="180" y="478" width="580.0" height="22" fill="#4c78a8" rx="3"/>
<text x="768.0" y="494" class="value">282.00</text>
<line x1="180" y1="30" x2="180" y2="520" stroke="#ccc"/>
<line x1="180" y1="520" x2="760" y2="520" stroke="#ccc"/>
</svg>