<svg xmlns="http://www.w3.org/2000/svg" width="800" height="540">
<style> .label{font-family:DejaVu Sans,Verdana,Geneva,sans-serif;font-size:12px;fill:#333} .value{font-family:DejaVu Sans,Verdana,Geneva,sans-serif;font-size:12px;fill:#555} </style>
<text x="10" y="20" class="label">延迟柱状图（越低越好，Top 15），单位 ms</text>
<text x="10" y="46" class="label">rockstargames.com</text>
<rect x="180" y="30" width="131.78" height="22" fill="#4c78a8" rx="3"/>
<text x="319.78" y="46" class="value">47.66</text>
<text x="10" y="78" class="label">socialclub.rockstargames.com</text>
<rect x="180" y="62" width="231.96" height="22" fill="#4c78a8" rx="3"/>
<text x="419.96000000000004" y="78" class="value">83.89</text>
<text x="10" y="110" class="label">blizzard.com</text>
<rect x="180" y="94" width="283.31" height="22" fill="#4c78a8" rx="3"/>
<text x="471.31" y="110" class="value">102.46</text>
<text x="10" y="142" class="label">battle.net</text>
<rect x="180" y="126" width="333.27" height="22" fill="#4c78a8" rx="3"/>
<text x="521.27" y="142" class="value">120.53</text>
<text x="10" y="174" class="label">ea.com</text>
<rect x="180" y="158" width="418.24" height="22" fill="#4c78a8" rx="3"/>
<text x="606.24" y="174" class="value">151.26</text>
<text x="10" y="206" class="label">ubi.com</text>
<rect x="180" y="190" width="423.55" height="22" fill="#4c78a8" rx="3"/>
<text x="611.55" y="206" class="value">153.18</text>
<text x="10" y="238" class="label">cdn.cloudflare.steamstatic.com</text>
<rect x="180" y="222" width="463.81" height="22" fill="#4c78a8" rx="3"/>
<text x="651.81" y="238" class="value">167.74</text>
<text x="10" y="270" class="label">epicgames.com</text>
<rect x="180" y="254" width="470.67" height="22" fill="#4c78a8" rx="3"/>
<text x="658.6700000000001" y="270" class="value">170.22</text>
<text x="10" y="302" class="label">gog.com</text>
<rect x="180" y="286" width="473.38" height="22" fill="#4c78a8" rx="3"/>
<text x="661.38" y="302" class="value">171.20</text>
<text x="10" y="334" class="label">store.akamai.steamstatic.com</text>
<rect x="180" y="318" width="473.85" height="22" fill="#4c78a8" rx="3"/>
<text x="661.85" y="334" class="value">171.37</text>
<text x="10" y="366" class="label">fortnite.com</text>
<rect x="180" y="350" width="496.85" height="22" fill="#4c78a8" rx="3"/>
<text x="684.85" y="366" class="value">179.69</text>
<text x="10" y="398" class="label">unrealengine.com</text>
<rect x="180" y="382" width="499.23" height="22" fill="#4c78a8" rx="3"/>
<text x="687.23" y="398" class="value">180.55</text>
<text x="10" y="430" class="label">www.steamcommunity.com</text>
<rect x="180" y="414" width="528.35" height="22" fill="#4c78a8" rx="3"/>
<text x="716.35" y="430" class="value">191.08</text>
<text x="10" y="462" class="label">origin.com</text>
<rect x="180" y="446" width="567.72" height="22" fill="#4c78a8" rx="3"/>
<text x="755.72" y="462" class="value">205.32</text>
<text x="10" y="494" class="label">steam-chat.com</text>
<rect x="180" y="478" width="580.0" height="22" fill="#4c78a8" rx="3"/>
<text x="768.0" y="494" class="value">209.76</text>
<line x1="180" y1="30" x2="180" y2="520" stroke="#ccc"/>
<line x1="180" y1="520" x2="760" y2="520" stroke="#ccc"/>
</svg>