<svg xmlns="http://www.w3.org/2000/svg" width="800" height="540">
<style> .label{font-family:DejaVu Sans,Verdana,Geneva,sans-serif;font-size:12px;fill:#333} .value{font-family:DejaVu Sans,Verdana,Geneva,sans-serif;font-size:12px;fill:#555} </style>
<text x="10" y="20" class="label">延迟柱状图（越低越好，Top 15），单位 ms</text>
<text x="10" y="46" class="label">rockstargames.com</text>
<rect x="180" y="30" width="174.78" height="22" fill="#4c78a8" rx="3"/>
<text x="362.78" y="46" class="value">65.96</text>
<text x="10" y="78" class="label">ubi.com</text>
<rect x="180" y="62" width="204.7" height="22" fill="#4c78a8" rx="3"/>
<text x="392.7" y="78" class="value">77.25</text>
<text x="10" y="110" class="label">socialclub.rockstargames.com</text>
<rect x="180" y="94" width="231.07" height="22" fill="#4c78a8" rx="3"/>
<text x="419.07" y="110" class="value">87.20</text>
<text x="10" y="142" class="label">unrealengine.com</text>
<rect x="180" y="126" width="240.66" height="22" fill="#4c78a8" rx="3"/>
<text x="428.65999999999997" y="142" class="value">90.82</text>
<text x="10" y="174" class="label">battle.net</text>
<rect x="180" y="158" width="247.76" height="22" fill="#4c78a8" rx="3"/>
<text x="435.76" y="174" class="value">93.50</text>
<text x="10" y="206" class="label">fortnite.com</text>
<rect x="180" y="190" width="272.25" height="22" fill="#4c78a8" rx="3"/>
<text x="460.25" y="206" class="value">102.74</text>
<text x="10" y="238" class="label">ubisoft.com</text>
<rect x="180" y="222" width="273.31" height="22" fill="#4c78a8" rx="3"/>
<text x="461.31" y="238" class="value">103.14</text>
<text x="10" y="270" class="label">ea.com</text>
<rect x="180" y="254" width="276.3" height="22" fill="#4c78a8" rx="3"/>
<text x="464.3" y="270" class="value">104.27</text>
<text x="10" y="302" class="label">epicgames.com</text>
<rect x="180" y="286" width="285.63" height="22" fill="#4c78a8" rx="3"/>
<text x="473.63" y="302" class="value">107.79</text>
<text x="10" y="334" class="label">eaassets-a.akamaihd.net</text>
<rect x="180" y="318" width="295.19" height="22" fill="#4c78a8" rx="3"/>
<text x="483.19" y="334" class="value">111.40</text>
<text x="10" y="366" class="label">blizzard.com</text>
<rect x="180" y="350" width="319.07" height="22" fill="#4c78a8" rx="3"/>
<text x="507.07" y="366" class="value">120.41</text>
<text x="10" y="398" class="label">cdn.cloudflare.steamstatic.com</text>
<rect x="180" y="382" width="538.0" height="22" fill="#4c78a8" rx="3"/>
<text x="726.0" y="398" class="value">203.03</text>
<text x="10" y="430" class="label">static3.cdn.ubi.com</text>
<rect x="180" y="414" width="540.78" height="22" fill="#4c78a8" rx="3"/>
<text x="728.78" y="430" class="value">204.08</text>
<text x="10" y="462" class="label">easyanticheat.net</text>
<rect x="180" y="446" width="567.94" height="22" fill="#4c78a8" rx="3"/>
<text x="755.94" y="462" class="value">214.33</text>
<text x="10" y="494" class="label">steam-chat.com</text>
<rect x="180" y="478" width="580.0" height="22" fill="#4c78a8" rx="3"/>
<text x="768.0" y="494" class="value">218.88</text>
<line x1="180" y1="30" x2="180" y2="520" stroke="#ccc"/>
<line x1="180" y1="520" x2="760" y2="520" stroke="#ccc"/>
</svg>