<svg xmlns="http://www.w3.org/2000/svg" width="800" height="540">
<style> .label{font-family:DejaVu Sans,Verdana,Geneva,sans-serif;font-size:12px;fill:#333} .value{font-family:DejaVu Sans,Verdana,Geneva,sans-serif;font-size:12px;fill:#555} </style>
<text x="10" y="20" class="label">延迟柱状图（越低越好，Top 15），单位 ms</text>
<text x="10" y="46" class="label">rockstargames.com</text>
<rect x="180" y="30" width="182.19" height="22" fill="#4c78a8" rx="3"/>
<text x="370.19" y="46" class="value">73.86</text>
<text x="10" y="78" class="label">eaassets-a.akamaihd.net</text>
<rect x="180" y="62" width="190.28" height="22" fill="#4c78a8" rx="3"/>
<text x="378.28" y="78" class="value">77.14</text>
<text x="10" y="110" class="label">blizzard.com</text>
<rect x="180" y="94" width="222.82" height="22" fill="#4c78a8" rx="3"/>
<text x="410.82" y="110" class="value">90.33</text>
<text x="10" y="142" class="label">socialclub.rockstargames.com</text>
<rect x="180" y="126" width="230.1" height="22" fill="#4c78a8" rx="3"/>
<text x="418.1" y="142" class="value">93.28</text>
<text x="10" y="174" class="label">battle.net</text>
<rect x="180" y="158" width="257.75" height="22" fill="#4c78a8" rx="3"/>
<text x="445.75" y="174" class="value">104.49</text>
<text x="10" y="206" class="label">ubi.com</text>
<rect x="180" y="190" width="258.88" height="22" fill="#4c78a8" rx="3"/>
<text x="446.88" y="206" class="value">104.95</text>
<text x="10" y="238" class="label">store.akamai.steamstatic.com</text>
<rect x="180" y="222" width="296.28" height="22" fill="#4c78a8" rx="3"/>
<text x="484.28" y="238" class="value">120.11</text>
<text x="10" y="270" class="label">unrealengine.com</text>
<rect x="180" y="254" width="331.65" height="22" fill="#4c78a8" rx="3"/>
<text x="519.65" y="270" class="value">134.45</text>
<text x="10" y="302" class="label">ea.com</text>
<rect x="180" y="286" width="344.21" height="22" fill="#4c78a8" rx="3"/>
<text x="532.21" y="302" class="value">139.54</text>
<text x="10" y="334" class="label">cdn.cloudflare.steamstatic.com</text>
<rect x="180" y="318" width="351.68" height="22" fill="#4c78a8" rx="3"/>
<text x="539.6800000000001" y="334" class="value">142.57</text>
<text x="10" y="366" class="label">ubisoft.com</text>
<rect x="180" y="350" width="408.59" height="22" fill="#4c78a8" rx="3"/>
<text x="596.5899999999999" y="366" class="value">165.64</text>
<text x="10" y="398" class="label">epicgames.com</text>
<rect x="180" y="382" width="498.13" height="22" fill="#4c78a8" rx="3"/>
<text x="686.13" y="398" class="value">201.94</text>
<text x="10" y="430" class="label">api.steampowered.com</text>
<rect x="180" y="414" width="507.7" height="22" fill="#4c78a8" rx="3"/>
<text x="695.7" y="430" class="value">205.82</text>
<text x="10" y="462" class="label">steamcdn-a.akamaihd.net</text>
<rect x="180" y="446" width="576.6" height="22" fill="#4c78a8" rx="3"/>
<text x="764.6" y="462" class="value">233.75</text>
<text x="10" y="494" class="label">easyanticheat.net</text>
<rect x="180" y="478" width="580.0" height="22" fill="#4c78a8" rx="3"/>
<text x="768.0" y="494" class="value">235.13</text>
<line x1="180" y1="30" x2="180" y2="520" stroke="#ccc"/>
<line x1="180" y1="520" x2="760" y2="520" stroke="#ccc"/>
</svg>