<svg xmlns="http://www.w3.org/2000/svg" width="800" height="540">
<style> .label{font-family:DejaVu Sans,Verdana,Geneva,sans-serif;font-size:12px;fill:#333} .value{font-family:DejaVu Sans,Verdana,Geneva,sans-serif;font-size:12px;fill:#555} </style>
<text x="10" y="20" class="label">延迟柱状图（越低越好，Top 15），单位 ms</text>
<text x="10" y="46" class="label">community.akamai.steamstatic.com</text>
<rect x="180" y="30" width="286.79" height="22" fill="#4c78a8" rx="3"/>
<text x="474.79" y="46" class="value">105.38</text>
<text x="10" y="78" class="label">ubisoft.com</text>
<rect x="180" y="62" width="326.77" height="22" fill="#4c78a8" rx="3"/>
<text x="514.77" y="78" class="value">120.07</text>
<text x="10" y="110" class="label">ea.com</text>
<rect x="180" y="94" width="337.68" height="22" fill="#4c78a8" rx="3"/>
<text x="525.6800000000001" y="110" class="value">124.08</text>
<text x="10" y="142" class="label">cdn.cloudflare.steamstatic.com</text>
<rect x="180" y="126" width="342.61" height="22" fill="#4c78a8" rx="3"/>
<text x="530.61" y="142" class="value">125.89</text>
<text x="10" y="174" class="label">rockstargames.com</text>
<rect x="180" y="158" width="359.59" height="22" fill="#4c78a8" rx="3"/>
<text x="547.5899999999999" y="174" class="value">132.13</text>
<text x="10" y="206" class="label">blizzard.com</text>
<rect x="180" y="190" width="420.9" height="22" fill="#4c78a8" rx="3"/>
<text x="608.9" y="206" class="value">154.66</text>
<text x="10" y="238" class="label">eaassets-a.akamaihd.net</text>
<rect x="180" y="222" width="423.95" height="22" fill="#4c78a8" rx="3"/>
<text x="611.95" y="238" class="value">155.78</text>
<text x="10" y="270" class="label">battle.net</text>
<rect x="180" y="254" width="435.73" height="22" fill="#4c78a8" rx="3"/>
<text x="623.73" y="270" class="value">160.11</text>
<text x="10" y="302" class="label">origin.com</text>
<rect x="180" y="286" width="458.27" height="22" fill="#4c78a8" rx="3"/>
<text x="646.27" y="302" class="value">168.39</text>
<text x="10" y="334" class="label">cdn.akamai.steamstatic.com</text>
<rect x="180" y="318" width="466.38" height="22" fill="#4c78a8" rx="3"/>
<text x="654.38" y="334" class="value">171.37</text>
<text x="10" y="366" class="label">easyanticheat.net</text>
<rect x="180" y="350" width="490.08" height="22" fill="#4c78a8" rx="3"/>
<text x="678.0799999999999" y="366" class="value">180.08</text>
<text x="10" y="398" class="label">steamcdn-a.akamaihd.net</text>
<rect x="180" y="382" width="540.62" height="22" fill="#4c78a8" rx="3"/>
<text x="728.62" y="398" class="value">198.65</text>
<text x="10" y="430" class="label">steam-chat.com</text>
<rect x="180" y="414" width="562.5" height="22" fill="#4c78a8" rx="3"/>
<text x="750.5" y="430" class="value">206.69</text>
<text x="10" y="462" class="label">ubi.com</text>
<rect x="180" y="446" width="569.58" height="22" fill="#4c78a8" rx="3"/>
<text x="757.58" y="462" class="value">209.29</text>
<text x="10" y="494" class="label">static3.cdn.ubi.com</text>
<rect x="180" y="478" width="580.0" height="22" fill="#4c78a8" rx="3"/>
<text x="768.0" y="494" class="value">213.12</text>
<line x1="180" y1="30" x2="180" y2="520" stroke="#ccc"/>
<line x1="180" y1="520" x2="760" y2="520" stroke="#ccc"/>
</svg>