<svg xmlns="http://www.w3.org/2000/svg" width="800" height="540">
<style> .label{font-family:DejaVu Sans,Verdana,Geneva,sans-serif;font-size:12px;fill:#333} .value{font-family:DejaVu Sans,Verdana,Geneva,sans-serif;font-size:12px;fill:#555} </style>
<text x="10" y="20" class="label">延迟柱状图（越低越好，Top 15），单位 ms</text>
<text x="10" y="46" class="label">eaassets-a.akamaihd.net</text>
<rect x="180" y="30" width="194.5" height="22" fill="#4c78a8" rx="3"/>
<text x="382.5" y="46" class="value">61.32</text>
<text x="10" y="78" class="label">rockstargames.com</text>
<rect x="180" y="62" width="260.12" height="22" fill="#4c78a8" rx="3"/>
<text x="448.12" y="78" class="value">82.01</text>
<text x="10" y="110" class="label">store.akamai.steamstatic.com</text>
<rect x="180" y="94" width="276.01" height="22" fill="#4c78a8" rx="3"/>
<text x="464.01" y="110" class="value">87.02</text>
<text x="10" y="142" class="label">origin.com</text>
<rect x="180" y="126" width="339.54" height="22" fill="#4c78a8" rx="3"/>
<text x="527.54" y="142" class="value">107.05</text>
<text x="10" y="174" class="label">cdn.akamai.steamstatic.com</text>
<rect x="180" y="158" width="372.72" height="22" fill="#4c78a8" rx="3"/>
<text x="560.72" y="174" class="value">117.51</text>
<text x="10" y="206" class="label">ea.com</text>
<rect x="180" y="190" width="379.86" height="22" fill="#4c78a8" rx="3"/>
<text x="567.86" y="206" class="value">119.76</text>
<text x="10" y="238" class="label">steamcdn-a.akamaihd.net</text>
<rect x="180" y="222" width="398.19" height="22" fill="#4c78a8" rx="3"/>
<text x="586.19" y="238" class="value">125.54</text>
<text x="10" y="270" class="label">socialclub.rockstargames.com</text>
<rect x="180" y="254" width="433.68" height="22" fill="#4c78a8" rx="3"/>
<text x="621.6800000000001" y="270" class="value">136.73</text>
<text x="10" y="302" class="label">blizzard.com</text>
<rect x="180" y="286" width="442.18" height="22" fill="#4c78a8" rx="3"/>
<text x="630.1800000000001" y="302" class="value">139.41</text>
<text x="10" y="334" class="label">ubi.com</text>
<rect x="180" y="318" width="442.82" height="22" fill="#4c78a8" rx="3"/>
<text x="630.8199999999999" y="334" class="value">139.61</text>
<text x="10" y="366" class="label">battle.net</text>
<rect x="180" y="350" width="453.89" height="22" fill="#4c78a8" rx="3"/>
<text x="641.89" y="366" class="value">143.10</text>
<text x="10" y="398" class="label">ubisoft.com</text>
<rect x="180" y="382" width="456.55" height="22" fill="#4c78a8" rx="3"/>
<text x="644.55" y="398" class="value">143.94</text>
<text x="10" y="430" class="label">fortnite.com</text>
<rect x="180" y="414" width="574.7" height="22" fill="#4c78a8" rx="3"/>
<text x="762.7" y="430" class="value">181.19</text>
<text x="10" y="462" class="label">cdn.cloudflare.steamstatic.com</text>
<rect x="180" y="446" width="575.88" height="22" fill="#4c78a8" rx="3"/>
<text x="763.88" y="462" class="value">181.56</text>
<text x="10" y="494" class="label">gog.com</text>
<rect x="180" y="478" width="580.0" height="22" fill="#4c78a8" rx="3"/>
<text x="768.0" y="494" class="value">182.86</text>
<line x1="180" y1="30" x2="180" y2="520" stroke="#ccc"/>
<line x1="180" y1="520" x2="760" y2="520" stroke="#ccc"/>
</svg>