<svg xmlns="http://www.w3.org/2000/svg" width="800" height="540">
<style> .label{font-family:DejaVu Sans,Verdana,Geneva,sans-serif;font-size:12px;fill:#333} .value{font-family:DejaVu Sans,Verdana,Geneva,sans-serif;font-size:12px;fill:#555} </style>
<text x="10" y="20" class="label">延迟柱状图（越低越好，Top 15），单位 ms</text>
<text x="10" y="46" class="label">rockstargames.com</text>
<rect x="180" y="30" width="187.29" height="22" fill="#4c78a8" rx="3"/>
<text x="375.28999999999996" y="46" class="value">73.08</text>
<text x="10" y="78" class="label">cdn.akamai.steamstatic.com</text>
<rect x="180" y="62" width="188.29" height="22" fill="#4c78a8" rx="3"/>
<text x="376.28999999999996" y="78" class="value">73.47</text>
<text x="10" y="110" class="label">socialclub.rockstargames.com</text>
<rect x="180" y="94" width="204.41" height="22" fill="#4c78a8" rx="3"/>
<text x="392.40999999999997" y="110" class="value">79.76</text>
<text x="10" y="142" class="label">ubisoft.com</text>
<rect x="180" y="126" width="250.19" height="22" fill="#4c78a8" rx="3"/>
<text x="438.19" y="142" class="value">97.62</text>
<text x="10" y="174" class="label">eaassets-a.akamaihd.net</text>
<rect x="180" y="158" width="255.34" height="22" fill="#4c78a8" rx="3"/>
<text x="443.34000000000003" y="174" class="value">99.63</text>
<text x="10" y="206" class="label">blizzard.com</text>
<rect x="180" y="190" width="268.74" height="22" fill="#4c78a8" rx="3"/>
<text x="456.74" y="206" class="value">104.86</text>
<text x="10" y="238" class="label">battle.net</text>
<rect x="180" y="222" width="275.35" height="22" fill="#4c78a8" rx="3"/>
<text x="463.35" y="238" class="value">107.44</text>
<text x="10" y="270" class="label">ubi.com</text>
<rect x="180" y="254" width="298.14" height="22" fill="#4c78a8" rx="3"/>
<text x="486.14" y="270" class="value">116.33</text>
<text x="10" y="302" class="label">community.akamai.steamstatic.com</text>
<rect x="180" y="286" width="332.04" height="22" fill="#4c78a8" rx="3"/>
<text x="520.04" y="302" class="value">129.56</text>
<text x="10" y="334" class="label">ea.com</text>
<rect x="180" y="318" width="414.21" height="22" fill="#4c78a8" rx="3"/>
<text x="602.21" y="334" class="value">161.62</text>
<text x="10" y="366" class="label">unrealengine.com</text>
<rect x="180" y="350" width="508.75" height="22" fill="#4c78a8" rx="3"/>
<text x="696.75" y="366" class="value">198.51</text>
<text x="10" y="398" class="label">easyanticheat.net</text>
<rect x="180" y="382" width="525.77" height="22" fill="#4c78a8" rx="3"/>
<text x="713.77" y="398" class="value">205.15</text>
<text x="10" y="430" class="label">cdn.cloudflare.steamstatic.com</text>
<rect x="180" y="414" width="542.81" height="22" fill="#4c78a8" rx="3"/>
<text x="730.81" y="430" class="value">211.80</text>
<text x="10" y="462" class="label">gog.com</text>
<rect x="180" y="446" width="544.94" height="22" fill="#4c78a8" rx="3"/>
<text x="732.94" y="462" class="value">212.63</text>
<text x="10" y="494" class="label">epicgames.com</text>
<rect x="180" y="478" width="580.0" height="22" fill="#4c78a8" rx="3"/>
<text x="768.0" y="494" class="value">226.31</text>
<line x1="180" y1="30" x2="180" y2="520" stroke="#ccc"/>
<line x1="180" y1="520" x2="760" y2="520" stroke="#ccc"/>
</svg>