<svg xmlns="http://www.w3.org/2000/svg" width="800" height="540">
<style> .label{font-family:DejaVu Sans,Verdana,Geneva,sans-serif;font-size:12px;fill:#333} .value{font-family:DejaVu Sans,Verdana,Geneva,sans-serif;font-size:12px;fill:#555} </style>
<text x="10" y="20" class="label">延迟柱状图（越低越好，Top 15），单位 ms</text>
<text x="10" y="46" class="label">rockstargames.com</text>
<rect x="180" y="30" width="136.32" height="22" fill="#4c78a8" rx="3"/>
<text x="324.32" y="46" class="value">53.28</text>
<text x="10" y="78" class="label">eaassets-a.akamaihd.net</text>
<rect x="180" y="62" width="143.97" height="22" fill="#4c78a8" rx="3"/>
<text x="331.97" y="78" class="value">56.27</text>
<text x="10" y="110" class="label">cdn.akamai.steamstatic.com</text>
<rect x="180" y="94" width="148.22" height="22" fill="#4c78a8" rx="3"/>
<text x="336.22" y="110" class="value">57.93</text>
<text x="10" y="142" class="label">ubisoft.com</text>
<rect x="180" y="126" width="153.1" height="22" fill="#4c78a8" rx="3"/>
<text x="341.1" y="142" class="value">59.84</text>
<text x="10" y="174" class="label">community.akamai.steamstatic.com</text>
<rect x="180" y="158" width="212.16" height="22" fill="#4c78a8" rx="3"/>
<text x="400.15999999999997" y="174" class="value">82.92</text>
<text x="10" y="206" class="label">store.akamai.steamstatic.com</text>
<rect x="180" y="190" width="249.97" height="22" fill="#4c78a8" rx="3"/>
<text x="437.97" y="206" class="value">97.70</text>
<text x="10" y="238" class="label">ea.com</text>
<rect x="180" y="222" width="288.91" height="22" fill="#4c78a8" rx="3"/>
<text x="476.91" y="238" class="value">112.92</text>
<text x="10" y="270" class="label">steamcdn-a.akamaihd.net</text>
<rect x="180" y="254" width="320.59" height="22" fill="#4c78a8" rx="3"/>
<text x="508.59" y="270" class="value">125.30</text>
<text x="10" y="302" class="label">cdn.cloudflare.steamstatic.com</text>
<rect x="180" y="286" width="362.73" height="22" fill="#4c78a8" rx="3"/>
<text x="550.73" y="302" class="value">141.77</text>
<text x="10" y="334" class="label">easyanticheat.net</text>
<rect x="180" y="318" width="377.06" height="22" fill="#4c78a8" rx="3"/>
<text x="565.06" y="334" class="value">147.37</text>
<text x="10" y="366" class="label">static3.cdn.ubi.com</text>
<rect x="180" y="350" width="389.92" height="22" fill="#4c78a8" rx="3"/>
<text x="577.9200000000001" y="366" class="value">152.40</text>
<text x="10" y="398" class="label">www.steamcommunity.com</text>
<rect x="180" y="382" width="466.86" height="22" fill="#4c78a8" rx="3"/>
<text x="654.86" y="398" class="value">182.47</text>
<text x="10" y="430" class="label">origin.com</text>
<rect x="180" y="414" width="482.77" height="22" fill="#4c78a8" rx="3"/>
<text x="670.77" y="430" class="value">188.69</text>
<text x="10" y="462" class="label">steam-chat.com</text>
<rect x="180" y="446" width="562.73" height="22" fill="#4c78a8" rx="3"/>
<text x="750.73" y="462" class="value">219.94</text>
<text x="10" y="494" class="label">launcher-public-service-prod06.ol.epicgames.com</text>
<rect x="180" y="478" width="580.0" height="22" fill="#4c78a8" rx="3"/>
<text x="768.0" y="494" class="value">226.69</text>
<line x1="180" y1="30" x2="180" y2="520" stroke="#ccc"/>
<line x1="180" y1="520" x2="760" y2="520" stroke="#ccc"/>
</svg>