<svg xmlns="http://www.w3.org/2000/svg" width="800" height="540">
<style> .label{font-family:DejaVu Sans,Verdana,Geneva,sans-serif;font-size:12px;fill:#333} .value{font-family:DejaVu Sans,Verdana,Geneva,sans-serif;font-size:12px;fill:#555} </style>
<text x="10" y="20" class="label">延迟柱状图（越低越好，Top 15），单位 ms</text>
<text x="10" y="46" class="label">rockstargames.com</text>
<rect x="180" y="30" width="91.53" height="22" fill="#4c78a8" rx="3"/>
<text x="279.53" y="46" class="value">41.86</text>
<text x="10" y="78" class="label">eaassets-a.akamaihd.net</text>
<rect x="180" y="62" width="116.91" height="22" fill="#4c78a8" rx="3"/>
<text x="304.90999999999997" y="78" class="value">53.47</text>
<text x="10" y="110" class="label">ea.com</text>
<rect x="180" y="94" width="152.4" height="22" fill="#4c78a8" rx="3"/>
<text x="340.4" y="110" class="value">69.70</text>
<text x="10" y="142" class="label">origin.com</text>
<rect x="180" y="126" width="250.18" height="22" fill="#4c78a8" rx="3"/>
<text x="438.18" y="142" class="value">114.42</text>
<text x="10" y="174" class="label">community.akamai.steamstatic.com</text>
<rect x="180" y="158" width="330.91" height="22" fill="#4c78a8" rx="3"/>
<text x="518.9100000000001" y="174" class="value">151.34</text>
<text x="10" y="206" class="label">static3.cdn.ubi.com</text>
<rect x="180" y="190" width="336.75" height="22" fill="#4c78a8" rx="3"/>
<text x="524.75" y="206" class="value">154.01</text>
<text x="10" y="238" class="label">cdn.akamai.steamstatic.com</text>
<rect x="180" y="222" width="344.07" height="22" fill="#4c78a8" rx="3"/>
<text x="532.0699999999999" y="238" class="value">157.36</text>
<text x="10" y="270" class="label">steamcdn-a.akamaihd.net</text>
<rect x="180" y="254" width="350.98" height="22" fill="#4c78a8" rx="3"/>
<text x="538.98" y="270" class="value">160.52</text>
<text x="10" y="302" class="label">easyanticheat.net</text>
<rect x="180" y="286" width="351.22" height="22" fill="#4c78a8" rx="3"/>
<text x="539.22" y="302" class="value">160.63</text>
<text x="10" y="334" class="label">cdn.cloudflare.steamstatic.com</text>
<rect x="180" y="318" width="371.36" height="22" fill="#4c78a8" rx="3"/>
<text x="559.36" y="334" class="value">169.84</text>
<text x="10" y="366" class="label">ubisoft.com</text>
<rect x="180" y="350" width="460.07" height="22" fill="#4c78a8" rx="3"/>
<text x="648.0699999999999" y="366" class="value">210.41</text>
<text x="10" y="398" class="label">steam-chat.com</text>
<rect x="180" y="382" width="473.52" height="22" fill="#4c78a8" rx="3"/>
<text x="661.52" y="398" class="value">216.56</text>
<text x="10" y="430" class="label">store.akamai.steamstatic.com</text>
<rect x="180" y="414" width="504.59" height="22" fill="#4c78a8" rx="3"/>
<text x="692.5899999999999" y="430" class="value">230.77</text>
<text x="10" y="462" class="label">api.steampowered.com</text>
<rect x="180" y="446" width="516.59" height="22" fill="#4c78a8" rx="3"/>
<text x="704.59" y="462" class="value">236.26</text>
<text x="10" y="494" class="label">launcher-public-service-prod06.ol.epicgames.com</text>
<rect x="180" y="478" width="580.0" height="22" fill="#4c78a8" rx="3"/>
<text x="768.0" y="494" class="value">265.26</text>
<line x1="180" y1="30" x2="180" y2="520" stroke="#ccc"/>
<line x1="180" y1="520" x2="760" y2="520" stroke="#ccc"/>
</svg>