<svg xmlns="http://www.w3.org/2000/svg" width="800" height="540">
<style> .label{font-family:DejaVu Sans,Verdana,Geneva,sans-serif;font-size:12px;fill:#333} .value{font-family:DejaVu Sans,Verdana,Geneva,sans-serif;font-size:12px;fill:#555} </style>
<text x="10" y="20" class="label">延迟柱状图（越低越好，Top 15），单位 ms</text>
<text x="10" y="46" class="label">rockstargames.com</text>
<rect x="180" y="30" width="90.49" height="22" fill="#4c78a8" rx="3"/>
<text x="278.49" y="46" class="value">41.50</text>
<text x="10" y="78" class="label">eaassets-a.akamaihd.net</text>
<rect x="180" y="62" width="92.28" height="22" fill="#4c78a8" rx="3"/>
<text x="280.28" y="78" class="value">42.32</text>
<text x="10" y="110" class="label">ea.com</text>
<rect x="180" y="94" width="130.09" height="22" fill="#4c78a8" rx="3"/>
<text x="318.09000000000003" y="110" class="value">59.66</text>
<text x="10" y="142" class="label">origin.com</text>
<rect x="180" y="126" width="180.32" height="22" fill="#4c78a8" rx="3"/>
<text x="368.32" y="142" class="value">82.70</text>
<text x="10" y="174" class="label">cdn.cloudflare.steamstatic.com</text>
<rect x="180" y="158" width="185.36" height="22" fill="#4c78a8" rx="3"/>
<text x="373.36" y="174" class="value">85.01</text>
<text x="10" y="206" class="label">ubisoft.com</text>
<rect x="180" y="190" width="224.04" height="22" fill="#4c78a8" rx="3"/>
<text x="412.03999999999996" y="206" class="value">102.75</text>
<text x="10" y="238" class="label">steamcdn-a.akamaihd.net</text>
<rect x="180" y="222" width="280.38" height="22" fill="#4c78a8" rx="3"/>
<text x="468.38" y="238" class="value">128.59</text>
<text x="10" y="270" class="label">cdn.akamai.steamstatic.com</text>
<rect x="180" y="254" width="379.64" height="22" fill="#4c78a8" rx="3"/>
<text x="567.64" y="270" class="value">174.11</text>
<text x="10" y="302" class="label">easyanticheat.net</text>
<rect x="180" y="286" width="403.32" height="22" fill="#4c78a8" rx="3"/>
<text x="591.3199999999999" y="302" class="value">184.97</text>
<text x="10" y="334" class="label">community.akamai.steamstatic.com</text>
<rect x="180" y="318" width="459.97" height="22" fill="#4c78a8" rx="3"/>
<text x="647.97" y="334" class="value">210.95</text>
<text x="10" y="366" class="label">store.akamai.steamstatic.com</text>
<rect x="180" y="350" width="481.25" height="22" fill="#4c78a8" rx="3"/>
<text x="669.25" y="366" class="value">220.71</text>
<text x="10" y="398" class="label">api.steampowered.com</text>
<rect x="180" y="382" width="485.59" height="22" fill="#4c78a8" rx="3"/>
<text x="673.5899999999999" y="398" class="value">222.70</text>
<text x="10" y="430" class="label">gog.com</text>
<rect x="180" y="414" width="542.47" height="22" fill="#4c78a8" rx="3"/>
<text x="730.47" y="430" class="value">248.79</text>
<text x="10" y="462" class="label">steam-chat.com</text>
<rect x="180" y="446" width="569.14" height="22" fill="#4c78a8" rx="3"/>
<text x="757.14" y="462" class="value">261.02</text>
<text x="10" y="494" class="label">www.steamcommunity.com</text>
<rect x="180" y="478" width="580.0" height="22" fill="#4c78a8" rx="3"/>
<text x="768.0" y="494" class="value">266.00</text>
<line x1="180" y1="30" x2="180" y2="520" stroke="#ccc"/>
<line x1="180" y1="520" x2="760" y2="520" stroke="#ccc"/>
</svg>