<svg xmlns="http://www.w3.org/2000/svg" width="800" height="540">
<style> .label{font-family:DejaVu Sans,Verdana,Geneva,sans-serif;font-size:12px;fill:#333} .value{font-family:DejaVu Sans,Verdana,Geneva,sans-serif;font-size:12px;fill:#555} </style>
<text x="10" y="20" class="label">延迟柱状图（越低越好，Top 15），单位 ms</text>
<text x="10" y="46" class="label">community.akamai.steamstatic.com</text>
<rect x="180" y="30" width="188.19" height="22" fill="#4c78a8" rx="3"/>
<text x="376.19" y="46" class="value">68.48</text>
<text x="10" y="78" class="label">rockstargames.com</text>
<rect x="180" y="62" width="223.73" height="22" fill="#4c78a8" rx="3"/>
<text x="411.73" y="78" class="value">81.41</text>
<text x="10" y="110" class="label">eaassets-a.akamaihd.net</text>
<rect x="180" y="94" width="228.54" height="22" fill="#4c78a8" rx="3"/>
<text x="416.53999999999996" y="110" class="value">83.16</text>
<text x="10" y="142" class="label">socialclub.rockstargames.com</text>
<rect x="180" y="126" width="279.21" height="22" fill="#4c78a8" rx="3"/>
<text x="467.21" y="142" class="value">101.60</text>
<text x="10" y="174" class="label">cdn.akamai.steamstatic.com</text>
<rect x="180" y="158" width="299.8" height="22" fill="#4c78a8" rx="3"/>
<text x="487.8" y="174" class="value">109.09</text>
<text x="10" y="206" class="label">ubisoft.com</text>
<rect x="180" y="190" width="329.09" height="22" fill="#4c78a8" rx="3"/>
<text x="517.0899999999999" y="206" class="value">119.75</text>
<text x="10" y="238" class="label">battle.net</text>
<rect x="180" y="222" width="350.5" height="22" fill="#4c78a8" rx="3"/>
<text x="538.5" y="238" class="value">127.54</text>
<text x="10" y="270" class="label">blizzard.com</text>
<rect x="180" y="254" width="355.23" height="22" fill="#4c78a8" rx="3"/>
<text x="543.23" y="270" class="value">129.26</text>
<text x="10" y="302" class="label">ubi.com</text>
<rect x="180" y="286" width="362.13" height="22" fill="#4c78a8" rx="3"/>
<text x="550.13" y="302" class="value">131.77</text>
<text x="10" y="334" class="label">ea.com</text>
<rect x="180" y="318" width="383.2" height="22" fill="#4c78a8" rx="3"/>
<text x="571.2" y="334" class="value">139.44</text>
<text x="10" y="366" class="label">unrealengine.com</text>
<rect x="180" y="350" width="455.34" height="22" fill="#4c78a8" rx="3"/>
<text x="643.3399999999999" y="366" class="value">165.69</text>
<text x="10" y="398" class="label">static3.cdn.ubi.com</text>
<rect x="180" y="382" width="517.92" height="22" fill="#4c78a8" rx="3"/>
<text x="705.92" y="398" class="value">188.46</text>
<text x="10" y="430" class="label">cdn.cloudflare.steamstatic.com</text>
<rect x="180" y="414" width="524.9" height="22" fill="#4c78a8" rx="3"/>
<text x="712.9" y="430" class="value">191.00</text>
<text x="10" y="462" class="label">origin.com</text>
<rect x="180" y="446" width="564.47" height="22" fill="#4c78a8" rx="3"/>
<text x="752.47" y="462" class="value">205.40</text>
<text x="10" y="494" class="label">launcher-public-service-prod06.ol.epicgames.com</text>
<rect x="180" y="478" width="580.0" height="22" fill="#4c78a8" rx="3"/>
<text x="768.0" y="494" class="value">211.05</text>
<line x1="180" y1="30" x2="180" y2="520" stroke="#ccc"/>
<line x1="180" y1="520" x2="760" y2="520" stroke="#ccc"/>
</svg>