<svg xmlns="http://www.w3.org/2000/svg" width="800" height="540">
<style> .label{font-family:DejaVu Sans,Verdana,Geneva,sans-serif;font-size:12px;fill:#333} .value{font-family:DejaVu Sans,Verdana,Geneva,sans-serif;font-size:12px;fill:#555} </style>
<text x="10" y="20" class="label">延迟柱状图（越低越好，Top 15），单位 ms</text>
<text x="10" y="46" class="label">eaassets-a.akamaihd.net</text>
<rect x="180" y="30" width="244.8" height="22" fill="#4c78a8" rx="3"/>
<text x="432.8" y="46" class="value">130.89</text>
<text x="10" y="78" class="label">ubisoft.com</text>
<rect x="180" y="62" width="271.05" height="22" fill="#4c78a8" rx="3"/>
<text x="459.05" y="78" class="value">144.93</text>
<text x="10" y="110" class="label">origin.com</text>
<rect x="180" y="94" width="331.37" height="22" fill="#4c78a8" rx="3"/>
<text x="519.37" y="110" class="value">177.18</text>
<text x="10" y="142" class="label">rockstargames.com</text>
<rect x="180" y="126" width="335.41" height="22" fill="#4c78a8" rx="3"/>
<text x="523.4100000000001" y="142" class="value">179.34</text>
<text x="10" y="174" class="label">ubi.com</text>
<rect x="180" y="158" width="409.53" height="22" fill="#4c78a8" rx="3"/>
<text x="597.53" y="174" class="value">218.97</text>
<text x="10" y="206" class="label">socialclub.rockstargames.com</text>
<rect x="180" y="190" width="496.94" height="22" fill="#4c78a8" rx="3"/>
<text x="684.94" y="206" class="value">265.71</text>
<text x="10" y="238" class="label">api.steampowered.com</text>
<rect x="180" y="222" width="497.9" height="22" fill="#4c78a8" rx="3"/>
<text x="685.9" y="238" class="value">266.22</text>
<text x="10" y="270" class="label">easyanticheat.net</text>
<rect x="180" y="254" width="527.41" height="22" fill="#4c78a8" rx="3"/>
<text x="715.41" y="270" class="value">282.00</text>
<text x="10" y="302" class="label">cdn.akamai.steamstatic.com</text>
<rect x="180" y="286" width="533.9" height="22" fill="#4c78a8" rx="3"/>
<text x="721.9" y="302" class="value">285.47</text>
<text x="10" y="334" class="label">steamcdn-a.akamaihd.net</text>
<rect x="180" y="318" width="542.61" height="22" fill="#4c78a8" rx="3"/>
<text x="730.61" y="334" class="value">290.13</text>
<text x="10" y="366" class="label">static3.cdn.ubi.com</text>
<rect x="180" y="350" width="570.22" height="22" fill="#4c78a8" rx="3"/>
<text x="758.22" y="366" class="value">304.89</text>
<text x="10" y="398" class="label">ea.com</text>
<rect x="180" y="382" width="570.74" height="22" fill="#4c78a8" rx="3"/>
<text x="758.74" y="398" class="value">305.17</text>
<text x="10" y="430" class="label">store.akamai.steamstatic.com</text>
<rect x="180" y="414" width="573.06" height="22" fill="#4c78a8" rx="3"/>
<text x="761.06" y="430" class="value">306.41</text>
<text x="10" y="462" class="label">steam-chat.com</text>
<rect x="180" y="446" width="573.59" height="22" fill="#4c78a8" rx="3"/>
<text x="761.59" y="462" class="value">306.69</text>
<text x="10" y="494" class="label">cdn.cloudflare.steamstatic.com</text>
<rect x="180" y="478" width="580.0" height="22" fill="#4c78a8" rx="3"/>
<text x="768.0" y="494" class="value">310.12</text>
<line x1="180" y1="30" x2="180" y2="520" stroke="#ccc"/>
<line x1="180" y1="520" x2="760" y2="520" stroke="#ccc"/>
</svg>