<svg xmlns="http://www.w3.org/2000/svg" width="800" height="540">
<style> .label{font-family:DejaVu Sans,Verdana,Geneva,sans-serif;font-size:12px;fill:#333} .value{font-family:DejaVu Sans,Verdana,Geneva,sans-serif;font-size:12px;fill:#555} </style>
<text x="10" y="20" class="label">延迟柱状图（越低越好，Top 15），单位 ms</text>
<text x="10" y="46" class="label">store.akamai.steamstatic.com</text>
<rect x="180" y="30" width="287.47" height="22" fill="#4c78a8" rx="3"/>
<text x="475.47" y="46" class="value">145.23</text>
<text x="10" y="78" class="label">ubisoft.com</text>
<rect x="180" y="62" width="295.28" height="22" fill="#4c78a8" rx="3"/>
<text x="483.28" y="78" class="value">149.18</text>
<text x="10" y="110" class="label">eaassets-a.akamaihd.net</text>
<rect x="180" y="94" width="321.55" height="22" fill="#4c78a8" rx="3"/>
<text x="509.55" y="110" class="value">162.45</text>
<text x="10" y="142" class="label">cdn.cloudflare.steamstatic.com</text>
<rect x="180" y="126" width="356.55" height="22" fill="#4c78a8" rx="3"/>
<text x="544.55" y="142" class="value">180.13</text>
<text x="10" y="174" class="label">rockstargames.com</text>
<rect x="180" y="158" width="389.17" height="22" fill="#4c78a8" rx="3"/>
<text x="577.1700000000001" y="174" class="value">196.61</text>
<text x="10" y="206" class="label">steamcdn-a.akamaihd.net</text>
<rect x="180" y="190" width="410.82" height="22" fill="#4c78a8" rx="3"/>
<text x="598.8199999999999" y="206" class="value">207.55</text>
<text x="10" y="238" class="label">battle.net</text>
<rect x="180" y="222" width="425.27" height="22" fill="#4c78a8" rx="3"/>
<text x="613.27" y="238" class="value">214.85</text>
<text x="10" y="270" class="label">ubi.com</text>
<rect x="180" y="254" width="451.3" height="22" fill="#4c78a8" rx="3"/>
<text x="639.3" y="270" class="value">228.00</text>
<text x="10" y="302" class="label">blizzard.com</text>
<rect x="180" y="286" width="453.4" height="22" fill="#4c78a8" rx="3"/>
<text x="641.4" y="302" class="value">229.06</text>
<text x="10" y="334" class="label">cdn.akamai.steamstatic.com</text>
<rect x="180" y="318" width="469.51" height="22" fill="#4c78a8" rx="3"/>
<text x="657.51" y="334" class="value">237.20</text>
<text x="10" y="366" class="label">community.akamai.steamstatic.com</text>
<rect x="180" y="350" width="513.69" height="22" fill="#4c78a8" rx="3"/>
<text x="701.69" y="366" class="value">259.52</text>
<text x="10" y="398" class="label">socialclub.rockstargames.com</text>
<rect x="180" y="382" width="518.46" height="22" fill="#4c78a8" rx="3"/>
<text x="706.46" y="398" class="value">261.93</text>
<text x="10" y="430" class="label">ea.com</text>
<rect x="180" y="414" width="531.09" height="22" fill="#4c78a8" rx="3"/>
<text x="719.09" y="430" class="value">268.31</text>
<text x="10" y="462" class="label">easyanticheat.net</text>
<rect x="180" y="446" width="563.08" height="22" fill="#4c78a8" rx="3"/>
<text x="751.08" y="462" class="value">284.47</text>
<text x="10" y="494" class="label">epicgames.com</text>
<rect x="180" y="478" width="580.0" height="22" fill="#4c78a8" rx="3"/>
<text x="768.0" y="494" class="value">293.02</text>
<line x1="180" y1="30" x2="180" y2="520" stroke="#ccc"/>
<line x1="180" y1="520" x2="760" y2="520" stroke="#ccc"/>
</svg>