<svg xmlns="http://www.w3.org/2000/svg" width="800" height="540">
<style> .label{font-family:DejaVu Sans,Verdana,Geneva,sans-serif;font-size:12px;fill:#333} .value{font-family:DejaVu Sans,Verdana,Geneva,sans-serif;font-size:12px;fill:#555} </style>
<text x="10" y="20" class="label">延迟柱状图（越低越好，Top 15），单位 ms</text>
<text x="10" y="46" class="label">rockstargames.com</text>
<rect x="180" y="30" width="136.91" height="22" fill="#4c78a8" rx="3"/>
<text x="324.90999999999997" y="46" class="value">53.98</text>
<text x="10" y="78" class="label">ubi.com</text>
<rect x="180" y="62" width="179.54" height="22" fill="#4c78a8" rx="3"/>
<text x="367.53999999999996" y="78" class="value">70.79</text>
<text x="10" y="110" class="label">socialclub.rockstargames.com</text>
<rect x="180" y="94" width="217.84" height="22" fill="#4c78a8" rx="3"/>
<text x="405.84000000000003" y="110" class="value">85.89</text>
<text x="10" y="142" class="label">eaassets-a.akamaihd.net</text>
<rect x="180" y="126" width="233.92" height="22" fill="#4c78a8" rx="3"/>
<text x="421.91999999999996" y="142" class="value">92.23</text>
<text x="10" y="174" class="label">ubisoft.com</text>
<rect x="180" y="158" width="272.55" height="22" fill="#4c78a8" rx="3"/>
<text x="460.55" y="174" class="value">107.46</text>
<text x="10" y="206" class="label">battle.net</text>
<rect x="180" y="190" width="318.2" height="22" fill="#4c78a8" rx="3"/>
<text x="506.2" y="206" class="value">125.46</text>
<text x="10" y="238" class="label">blizzard.com</text>
<rect x="180" y="222" width="329.9" height="22" fill="#4c78a8" rx="3"/>
<text x="517.9" y="238" class="value">130.07</text>
<text x="10" y="270" class="label">steam-chat.com</text>
<rect x="180" y="254" width="396.65" height="22" fill="#4c78a8" rx="3"/>
<text x="584.65" y="270" class="value">156.39</text>
<text x="10" y="302" class="label">ea.com</text>
<rect x="180" y="286" width="439.82" height="22" fill="#4c78a8" rx="3"/>
<text x="627.8199999999999" y="302" class="value">173.41</text>
<text x="10" y="334" class="label">unrealengine.com</text>
<rect x="180" y="318" width="533.31" height="22" fill="#4c78a8" rx="3"/>
<text x="721.31" y="334" class="value">210.27</text>
<text x="10" y="366" class="label">cdn.cloudflare.steamstatic.com</text>
<rect x="180" y="350" width="537.54" height="22" fill="#4c78a8" rx="3"/>
<text x="725.54" y="366" class="value">211.94</text>
<text x="10" y="398" class="label">store.akamai.steamstatic.com</text>
<rect x="180" y="382" width="552.73" height="22" fill="#4c78a8" rx="3"/>
<text x="740.73" y="398" class="value">217.93</text>
<text x="10" y="430" class="label">epicgames.com</text>
<rect x="180" y="414" width="568.61" height="22" fill="#4c78a8" rx="3"/>
<text x="756.61" y="430" class="value">224.19</text>
<text x="10" y="462" class="label">static3.cdn.ubi.com</text>
<rect x="180" y="446" width="571.91" height="22" fill="#4c78a8" rx="3"/>
<text x="759.91" y="462" class="value">225.49</text>
<text x="10" y="494" class="label">community.akamai.steamstatic.com</text>
<rect x="180" y="478" width="580.0" height="22" fill="#4c78a8" rx="3"/>
<text x="768.0" y="494" class="value">228.68</text>
<line x1="180" y1="30" x2="180" y2="520" stroke="#ccc"/>
<line x1="180" y1="520" x2="760" y2="520" stroke="#ccc"/>
</svg>