<svg xmlns="http://www.w3.org/2000/svg" width="800" height="540">
<style> .label{font-family:DejaVu Sans,Verdana,Geneva,sans-serif;font-size:12px;fill:#333} .value{font-family:DejaVu Sans,Verdana,Geneva,sans-serif;font-size:12px;fill:#555} </style>
<text x="10" y="20" class="label">延迟柱状图（越低越好，Top 15），单位 ms</text>
<text x="10" y="46" class="label">store.akamai.steamstatic.com</text>
<rect x="180" y="30" width="236.17" height="22" fill="#4c78a8" rx="3"/>
<text x="424.16999999999996" y="46" class="value">83.43</text>
<text x="10" y="78" class="label">rockstargames.com</text>
<rect x="180" y="62" width="247.16" height="22" fill="#4c78a8" rx="3"/>
<text x="435.15999999999997" y="78" class="value">87.31</text>
<text x="10" y="110" class="label">eaassets-a.akamaihd.net</text>
<rect x="180" y="94" width="260.12" height="22" fill="#4c78a8" rx="3"/>
<text x="448.12" y="110" class="value">91.89</text>
<text x="10" y="142" class="label">ea.com</text>
<rect x="180" y="126" width="334.2" height="22" fill="#4c78a8" rx="3"/>
<text x="522.2" y="142" class="value">118.06</text>
<text x="10" y="174" class="label">cdn.akamai.steamstatic.com</text>
<rect x="180" y="158" width="375.73" height="22" fill="#4c78a8" rx="3"/>
<text x="563.73" y="174" class="value">132.73</text>
<text x="10" y="206" class="label">blizzard.com</text>
<rect x="180" y="190" width="391.87" height="22" fill="#4c78a8" rx="3"/>
<text x="579.87" y="206" class="value">138.43</text>
<text x="10" y="238" class="label">ubi.com</text>
<rect x="180" y="222" width="397.61" height="22" fill="#4c78a8" rx="3"/>
<text x="585.61" y="238" class="value">140.46</text>
<text x="10" y="270" class="label">easyanticheat.net</text>
<rect x="180" y="254" width="407.15" height="22" fill="#4c78a8" rx="3"/>
<text x="595.15" y="270" class="value">143.83</text>
<text x="10" y="302" class="label">battle.net</text>
<rect x="180" y="286" width="416.3" height="22" fill="#4c78a8" rx="3"/>
<text x="604.3" y="302" class="value">147.06</text>
<text x="10" y="334" class="label">socialclub.rockstargames.com</text>
<rect x="180" y="318" width="418.79" height="22" fill="#4c78a8" rx="3"/>
<text x="606.79" y="334" class="value">147.94</text>
<text x="10" y="366" class="label">steamcdn-a.akamaihd.net</text>
<rect x="180" y="350" width="433.39" height="22" fill="#4c78a8" rx="3"/>
<text x="621.39" y="366" class="value">153.10</text>
<text x="10" y="398" class="label">community.akamai.steamstatic.com</text>
<rect x="180" y="382" width="479.45" height="22" fill="#4c78a8" rx="3"/>
<text x="667.45" y="398" class="value">169.37</text>
<text x="10" y="430" class="label">ubisoft.com</text>
<rect x="180" y="414" width="508.41" height="22" fill="#4c78a8" rx="3"/>
<text x="696.4100000000001" y="430" class="value">179.60</text>
<text x="10" y="462" class="label">epicgames.com</text>
<rect x="180" y="446" width="545.58" height="22" fill="#4c78a8" rx="3"/>
<text x="733.58" y="462" class="value">192.73</text>
<text x="10" y="494" class="label">steamcommunity.com</text>
<rect x="180" y="478" width="580.0" height="22" fill="#4c78a8" rx="3"/>
<text x="768.0" y="494" class="value">204.89</text>
<line x1="180" y1="30" x2="180" y2="520" stroke="#ccc"/>
<line x1="180" y1="520" x2="760" y2="520" stroke="#ccc"/>
</svg>