<svg xmlns="http://www.w3.org/2000/svg" width="800" height="540">
<style> .label{font-family:DejaVu Sans,Verdana,Geneva,sans-serif;font-size:12px;fill:#333} .value{font-family:DejaVu Sans,Verdana,Geneva,sans-serif;font-size:12px;fill:#555} </style>
<text x="10" y="20" class="label">延迟柱状图（越低越好，Top 15），单位 ms</text>
<text x="10" y="46" class="label">rockstargames.com</text>
<rect x="180" y="30" width="113.74" height="22" fill="#4c78a8" rx="3"/>
<text x="301.74" y="46" class="value">52.65</text>
<text x="10" y="78" class="label">community.akamai.steamstatic.com</text>
<rect x="180" y="62" width="215.71" height="22" fill="#4c78a8" rx="3"/>
<text x="403.71000000000004" y="78" class="value">99.85</text>
<text x="10" y="110" class="label">ea.com</text>
<rect x="180" y="94" width="215.97" height="22" fill="#4c78a8" rx="3"/>
<text x="403.97" y="110" class="value">99.97</text>
<text x="10" y="142" class="label">ubisoft.com</text>
<rect x="180" y="126" width="245.01" height="22" fill="#4c78a8" rx="3"/>
<text x="433.01" y="142" class="value">113.41</text>
<text x="10" y="174" class="label">store.akamai.steamstatic.com</text>
<rect x="180" y="158" width="248.23" height="22" fill="#4c78a8" rx="3"/>
<text x="436.23" y="174" class="value">114.90</text>
<text x="10" y="206" class="label">cdn.akamai.steamstatic.com</text>
<rect x="180" y="190" width="266.85" height="22" fill="#4c78a8" rx="3"/>
<text x="454.85" y="206" class="value">123.52</text>
<text x="10" y="238" class="label">static3.cdn.ubi.com</text>
<rect x="180" y="222" width="322.72" height="22" fill="#4c78a8" rx="3"/>
<text x="510.72" y="238" class="value">149.38</text>
<text x="10" y="270" class="label">easyanticheat.net</text>
<rect x="180" y="254" width="352.88" height="22" fill="#4c78a8" rx="3"/>
<text x="540.88" y="270" class="value">163.34</text>
<text x="10" y="302" class="label">cdn.cloudflare.steamstatic.com</text>
<rect x="180" y="286" width="355.95" height="22" fill="#4c78a8" rx="3"/>
<text x="543.95" y="302" class="value">164.76</text>
<text x="10" y="334" class="label">origin.com</text>
<rect x="180" y="318" width="375.8" height="22" fill="#4c78a8" rx="3"/>
<text x="563.8" y="334" class="value">173.95</text>
<text x="10" y="366" class="label">steamcdn-a.akamaihd.net</text>
<rect x="180" y="350" width="399.46" height="22" fill="#4c78a8" rx="3"/>
<text x="587.46" y="366" class="value">184.90</text>
<text x="10" y="398" class="label">eaassets-a.akamaihd.net</text>
<rect x="180" y="382" width="501.34" height="22" fill="#4c78a8" rx="3"/>
<text x="689.3399999999999" y="398" class="value">232.06</text>
<text x="10" y="430" class="label">api.steampowered.com</text>
<rect x="180" y="414" width="503.15" height="22" fill="#4c78a8" rx="3"/>
<text x="691.15" y="430" class="value">232.90</text>
<text x="10" y="462" class="label">steam-chat.com</text>
<rect x="180" y="446" width="506.68" height="22" fill="#4c78a8" rx="3"/>
<text x="694.6800000000001" y="462" class="value">234.53</text>
<text x="10" y="494" class="label">launcher-public-service-prod06.ol.epicgames.com</text>
<rect x="180" y="478" width="580.0" height="22" fill="#4c78a8" rx="3"/>
<text x="768.0" y="494" class="value">268.47</text>
<line x1="180" y1="30" x2="180" y2="520" stroke="#ccc"/>
<line x1="180" y1="520" x2="760" y2="520" stroke="#ccc"/>
</svg>