<svg xmlns="http://www.w3.org/2000/svg" width="800" height="540">
<style> .label{font-family:DejaVu Sans,Verdana,Geneva,sans-serif;font-size:12px;fill:#333} .value{font-family:DejaVu Sans,Verdana,Geneva,sans-serif;font-size:12px;fill:#555} </style>
<text x="10" y="20" class="label">延迟柱状图（越低越好，Top 15），单位 ms</text>
<text x="10" y="46" class="label">eaassets-a.akamaihd.net</text>
<rect x="180" y="30" width="109.16" height="22" fill="#4c78a8" rx="3"/>
<text x="297.15999999999997" y="46" class="value">49.80</text>
<text x="10" y="78" class="label">rockstargames.com</text>
<rect x="180" y="62" width="110.08" height="22" fill="#4c78a8" rx="3"/>
<text x="298.08" y="78" class="value">50.22</text>
<text x="10" y="110" class="label">ea.com</text>
<rect x="180" y="94" width="133.6" height="22" fill="#4c78a8" rx="3"/>
<text x="321.6" y="110" class="value">60.95</text>
<text x="10" y="142" class="label">origin.com</text>
<rect x="180" y="126" width="196.31" height="22" fill="#4c78a8" rx="3"/>
<text x="384.31" y="142" class="value">89.56</text>
<text x="10" y="174" class="label">steamcdn-a.akamaihd.net</text>
<rect x="180" y="158" width="218.51" height="22" fill="#4c78a8" rx="3"/>
<text x="406.51" y="174" class="value">99.69</text>
<text x="10" y="206" class="label">community.akamai.steamstatic.com</text>
<rect x="180" y="190" width="223.51" height="22" fill="#4c78a8" rx="3"/>
<text x="411.51" y="206" class="value">101.97</text>
<text x="10" y="238" class="label">store.akamai.steamstatic.com</text>
<rect x="180" y="222" width="233.48" height="22" fill="#4c78a8" rx="3"/>
<text x="421.48" y="238" class="value">106.52</text>
<text x="10" y="270" class="label">ubisoft.com</text>
<rect x="180" y="254" width="240.34" height="22" fill="#4c78a8" rx="3"/>
<text x="428.34000000000003" y="270" class="value">109.65</text>
<text x="10" y="302" class="label">cdn.akamai.steamstatic.com</text>
<rect x="180" y="286" width="345.36" height="22" fill="#4c78a8" rx="3"/>
<text x="533.36" y="302" class="value">157.56</text>
<text x="10" y="334" class="label">cdn.cloudflare.steamstatic.com</text>
<rect x="180" y="318" width="477.7" height="22" fill="#4c78a8" rx="3"/>
<text x="665.7" y="334" class="value">217.94</text>
<text x="10" y="366" class="label">easyanticheat.net</text>
<rect x="180" y="350" width="508.37" height="22" fill="#4c78a8" rx="3"/>
<text x="696.37" y="366" class="value">231.93</text>
<text x="10" y="398" class="label">steamcommunity.com</text>
<rect x="180" y="382" width="543.53" height="22" fill="#4c78a8" rx="3"/>
<text x="731.53" y="398" class="value">247.97</text>
<text x="10" y="430" class="label">steam-chat.com</text>
<rect x="180" y="414" width="573.73" height="22" fill="#4c78a8" rx="3"/>
<text x="761.73" y="430" class="value">261.75</text>
<text x="10" y="462" class="label">launcher-public-service-prod06.ol.epicgames.com</text>
<rect x="180" y="446" width="575.02" height="22" fill="#4c78a8" rx="3"/>
<text x="763.02" y="462" class="value">262.34</text>
<text x="10" y="494" class="label">api.steampowered.com</text>
<rect x="180" y="478" width="580.0" height="22" fill="#4c78a8" rx="3"/>
<text x="768.0" y="494" class="value">264.61</text>
<line x1="180" y1="30" x2="180" y2="520" stroke="#ccc"/>
<line x1="180" y1="520" x2="760" y2="520" stroke="#ccc"/>
</svg>