<svg xmlns="http://www.w3.org/2000/svg" width="800" height="540">
<style> .label{font-family:DejaVu Sans,Verdana,Geneva,sans-serif;font-size:12px;fill:#333} .value{font-family:DejaVu Sans,Verdana,Geneva,sans-serif;font-size:12px;fill:#555} </style>
<text x="10" y="20" class="label">延迟柱状图（越低越好，Top 15），单位 ms</text>
<text x="10" y="46" class="label">rockstargames.com</text>
<rect x="180" y="30" width="139.19" height="22" fill="#4c78a8" rx="3"/>
<text x="327.19" y="46" class="value">58.42</text>
<text x="10" y="78" class="label">eaassets-a.akamaihd.net</text>
<rect x="180" y="62" width="154.11" height="22" fill="#4c78a8" rx="3"/>
<text x="342.11" y="78" class="value">64.68</text>
<text x="10" y="110" class="label">blizzard.com</text>
<rect x="180" y="94" width="212.58" height="22" fill="#4c78a8" rx="3"/>
<text x="400.58000000000004" y="110" class="value">89.22</text>
<text x="10" y="142" class="label">socialclub.rockstargames.com</text>
<rect x="180" y="126" width="238.05" height="22" fill="#4c78a8" rx="3"/>
<text x="426.05" y="142" class="value">99.91</text>
<text x="10" y="174" class="label">ubi.com</text>
<rect x="180" y="158" width="276.65" height="22" fill="#4c78a8" rx="3"/>
<text x="464.65" y="174" class="value">116.11</text>
<text x="10" y="206" class="label">battle.net</text>
<rect x="180" y="190" width="293.59" height="22" fill="#4c78a8" rx="3"/>
<text x="481.59" y="206" class="value">123.22</text>
<text x="10" y="238" class="label">gog.com</text>
<rect x="180" y="222" width="375.88" height="22" fill="#4c78a8" rx="3"/>
<text x="563.88" y="238" class="value">157.76</text>
<text x="10" y="270" class="label">unrealengine.com</text>
<rect x="180" y="254" width="426.27" height="22" fill="#4c78a8" rx="3"/>
<text x="614.27" y="270" class="value">178.91</text>
<text x="10" y="302" class="label">ubisoft.com</text>
<rect x="180" y="286" width="441.47" height="22" fill="#4c78a8" rx="3"/>
<text x="629.47" y="302" class="value">185.29</text>
<text x="10" y="334" class="label">store.akamai.steamstatic.com</text>
<rect x="180" y="318" width="480.19" height="22" fill="#4c78a8" rx="3"/>
<text x="668.19" y="334" class="value">201.54</text>
<text x="10" y="366" class="label">epicgames.com</text>
<rect x="180" y="350" width="533.75" height="22" fill="#4c78a8" rx="3"/>
<text x="721.75" y="366" class="value">224.02</text>
<text x="10" y="398" class="label">origin.com</text>
<rect x="180" y="382" width="538.69" height="22" fill="#4c78a8" rx="3"/>
<text x="726.69" y="398" class="value">226.09</text>
<text x="10" y="430" class="label">fortnite.com</text>
<rect x="180" y="414" width="553.55" height="22" fill="#4c78a8" rx="3"/>
<text x="741.55" y="430" class="value">232.33</text>
<text x="10" y="462" class="label">community.akamai.steamstatic.com</text>
<rect x="180" y="446" width="554.2" height="22" fill="#4c78a8" rx="3"/>
<text x="742.2" y="462" class="value">232.60</text>
<text x="10" y="494" class="label">cdn.cloudflare.steamstatic.com</text>
<rect x="180" y="478" width="580.0" height="22" fill="#4c78a8" rx="3"/>
<text x="768.0" y="494" class="value">243.43</text>
<line x1="180" y1="30" x2="180" y2="520" stroke="#ccc"/>
<line x1="180" y1="520" x2="760" y2="520" stroke="#ccc"/>
</svg>