<svg xmlns="http://www.w3.org/2000/svg" width="800" height="540">
<style> .label{font-family:DejaVu Sans,Verdana,Geneva,sans-serif;font-size:12px;fill:#333} .value{font-family:DejaVu Sans,Verdana,Geneva,sans-serif;font-size:12px;fill:#555} </style>
<text x="10" y="20" class="label">延迟柱状图（越低越好，Top 15），单位 ms</text>
<text x="10" y="46" class="label">ea.com</text>
<rect x="180" y="30" width="199.71" height="22" fill="#4c78a8" rx="3"/>
<text x="387.71000000000004" y="46" class="value">83.72</text>
<text x="10" y="78" class="label">unrealengine.com</text>
<rect x="180" y="62" width="205.01" height="22" fill="#4c78a8" rx="3"/>
<text x="393.01" y="78" class="value">85.94</text>
<text x="10" y="110" class="label">rockstargames.com</text>
<rect x="180" y="94" width="213.67" height="22" fill="#4c78a8" rx="3"/>
<text x="401.66999999999996" y="110" class="value">89.57</text>
<text x="10" y="142" class="label">socialclub.rockstargames.com</text>
<rect x="180" y="126" width="222.75" height="22" fill="#4c78a8" rx="3"/>
<text x="410.75" y="142" class="value">93.38</text>
<text x="10" y="174" class="label">eaassets-a.akamaihd.net</text>
<rect x="180" y="158" width="227.43" height="22" fill="#4c78a8" rx="3"/>
<text x="415.43" y="174" class="value">95.34</text>
<text x="10" y="206" class="label">blizzard.com</text>
<rect x="180" y="190" width="274.69" height="22" fill="#4c78a8" rx="3"/>
<text x="462.69" y="206" class="value">115.15</text>
<text x="10" y="238" class="label">ubi.com</text>
<rect x="180" y="222" width="274.8" height="22" fill="#4c78a8" rx="3"/>
<text x="462.8" y="238" class="value">115.20</text>
<text x="10" y="270" class="label">battle.net</text>
<rect x="180" y="254" width="286.02" height="22" fill="#4c78a8" rx="3"/>
<text x="474.02" y="270" class="value">119.90</text>
<text x="10" y="302" class="label">ubisoft.com</text>
<rect x="180" y="286" width="319.53" height="22" fill="#4c78a8" rx="3"/>
<text x="507.53" y="302" class="value">133.95</text>
<text x="10" y="334" class="label">store.akamai.steamstatic.com</text>
<rect x="180" y="318" width="339.31" height="22" fill="#4c78a8" rx="3"/>
<text x="527.31" y="334" class="value">142.24</text>
<text x="10" y="366" class="label">fortnite.com</text>
<rect x="180" y="350" width="390.79" height="22" fill="#4c78a8" rx="3"/>
<text x="578.79" y="366" class="value">163.82</text>
<text x="10" y="398" class="label">static3.cdn.ubi.com</text>
<rect x="180" y="382" width="400.28" height="22" fill="#4c78a8" rx="3"/>
<text x="588.28" y="398" class="value">167.80</text>
<text x="10" y="430" class="label">community.akamai.steamstatic.com</text>
<rect x="180" y="414" width="443.46" height="22" fill="#4c78a8" rx="3"/>
<text x="631.46" y="430" class="value">185.90</text>
<text x="10" y="462" class="label">epicgames.com</text>
<rect x="180" y="446" width="537.23" height="22" fill="#4c78a8" rx="3"/>
<text x="725.23" y="462" class="value">225.21</text>
<text x="10" y="494" class="label">steamcdn-a.akamaihd.net</text>
<rect x="180" y="478" width="580.0" height="22" fill="#4c78a8" rx="3"/>
<text x="768.0" y="494" class="value">243.14</text>
<line x1="180" y1="30" x2="180" y2="520" stroke="#ccc"/>
<line x1="180" y1="520" x2="760" y2="520" stroke="#ccc"/>
</svg>