<svg xmlns="http://www.w3.org/2000/svg" width="800" height="540">
<style> .label{font-family:DejaVu Sans,Verdana,Geneva,sans-serif;font-size:12px;fill:#333} .value{font-family:DejaVu Sans,Verdana,Geneva,sans-serif;font-size:12px;fill:#555} </style>
<text x="10" y="20" class="label">延迟柱状图（越低越好，Top 15），单位 ms</text>
<text x="10" y="46" class="label">rockstargames.com</text>
<rect x="180" y="30" width="105.75" height="22" fill="#4c78a8" rx="3"/>
<text x="293.75" y="46" class="value">48.52</text>
<text x="10" y="78" class="label">ea.com</text>
<rect x="180" y="62" width="168.47" height="22" fill="#4c78a8" rx="3"/>
<text x="356.47" y="78" class="value">77.30</text>
<text x="10" y="110" class="label">eaassets-a.akamaihd.net</text>
<rect x="180" y="94" width="196.0" height="22" fill="#4c78a8" rx="3"/>
<text x="384.0" y="110" class="value">89.93</text>
<text x="10" y="142" class="label">ubisoft.com</text>
<rect x="180" y="126" width="241.05" height="22" fill="#4c78a8" rx="3"/>
<text x="429.05" y="142" class="value">110.60</text>
<text x="10" y="174" class="label">cdn.cloudflare.steamstatic.com</text>
<rect x="180" y="158" width="297.21" height="22" fill="#4c78a8" rx="3"/>
<text x="485.21" y="174" class="value">136.37</text>
<text x="10" y="206" class="label">community.akamai.steamstatic.com</text>
<rect x="180" y="190" width="323.04" height="22" fill="#4c78a8" rx="3"/>
<text x="511.04" y="206" class="value">148.22</text>
<text x="10" y="238" class="label">steamcdn-a.akamaihd.net</text>
<rect x="180" y="222" width="339.23" height="22" fill="#4c78a8" rx="3"/>
<text x="527.23" y="238" class="value">155.65</text>
<text x="10" y="270" class="label">store.akamai.steamstatic.com</text>
<rect x="180" y="254" width="361.31" height="22" fill="#4c78a8" rx="3"/>
<text x="549.31" y="270" class="value">165.78</text>
<text x="10" y="302" class="label">origin.com</text>
<rect x="180" y="286" width="382.26" height="22" fill="#4c78a8" rx="3"/>
<text x="570.26" y="302" class="value">175.39</text>
<text x="10" y="334" class="label">cdn.akamai.steamstatic.com</text>
<rect x="180" y="318" width="413.23" height="22" fill="#4c78a8" rx="3"/>
<text x="601.23" y="334" class="value">189.60</text>
<text x="10" y="366" class="label">gog.com</text>
<rect x="180" y="350" width="419.9" height="22" fill="#4c78a8" rx="3"/>
<text x="607.9" y="366" class="value">192.66</text>
<text x="10" y="398" class="label">easyanticheat.net</text>
<rect x="180" y="382" width="463.79" height="22" fill="#4c78a8" rx="3"/>
<text x="651.79" y="398" class="value">212.80</text>
<text x="10" y="430" class="label">api.steampowered.com</text>
<rect x="180" y="414" width="512.92" height="22" fill="#4c78a8" rx="3"/>
<text x="700.92" y="430" class="value">235.34</text>
<text x="10" y="462" class="label">www.steamcommunity.com</text>
<rect x="180" y="446" width="515.86" height="22" fill="#4c78a8" rx="3"/>
<text x="703.86" y="462" class="value">236.69</text>
<text x="10" y="494" class="label">launcher-public-service-prod06.ol.epicgames.com</text>
<rect x="180" y="478" width="580.0" height="22" fill="#4c78a8" rx="3"/>
<text x="768.0" y="494" class="value">266.12</text>
<line x1="180" y1="30" x2="180" y2="520" stroke="#ccc"/>
<line x1="180" y1="520" x2="760" y2="520" stroke="#ccc"/>
</svg>