<svg xmlns="http://www.w3.org/2000/svg" width="800" height="540">
<style> .label{font-family:DejaVu Sans,Verdana,Geneva,sans-serif;font-size:12px;fill:#333} .value{font-family:DejaVu Sans,Verdana,Geneva,sans-serif;font-size:12px;fill:#555} </style>
<text x="10" y="20" class="label">延迟柱状图（越低越好，Top 15），单位 ms</text>
<text x="10" y="46" class="label">rockstargames.com</text>
<rect x="180" y="30" width="216.84" height="22" fill="#4c78a8" rx="3"/>
<text x="404.84000000000003" y="46" class="value">65.44</text>
<text x="10" y="78" class="label">eaassets-a.akamaihd.net</text>
<rect x="180" y="62" width="259.02" height="22" fill="#4c78a8" rx="3"/>
<text x="447.02" y="78" class="value">78.17</text>
<text x="10" y="110" class="label">cdn.akamai.steamstatic.com</text>
<rect x="180" y="94" width="282.18" height="22" fill="#4c78a8" rx="3"/>
<text x="470.18" y="110" class="value">85.16</text>
<text x="10" y="142" class="label">socialclub.rockstargames.com</text>
<rect x="180" y="126" width="305.51" height="22" fill="#4c78a8" rx="3"/>
<text x="493.51" y="142" class="value">92.20</text>
<text x="10" y="174" class="label">blizzard.com</text>
<rect x="180" y="158" width="308.82" height="22" fill="#4c78a8" rx="3"/>
<text x="496.82" y="174" class="value">93.20</text>
<text x="10" y="206" class="label">community.akamai.steamstatic.com</text>
<rect x="180" y="190" width="329.53" height="22" fill="#4c78a8" rx="3"/>
<text x="517.53" y="206" class="value">99.45</text>
<text x="10" y="238" class="label">ubi.com</text>
<rect x="180" y="222" width="350.14" height="22" fill="#4c78a8" rx="3"/>
<text x="538.14" y="238" class="value">105.67</text>
<text x="10" y="270" class="label">battle.net</text>
<rect x="180" y="254" width="362.53" height="22" fill="#4c78a8" rx="3"/>
<text x="550.53" y="270" class="value">109.41</text>
<text x="10" y="302" class="label">unrealengine.com</text>
<rect x="180" y="286" width="370.52" height="22" fill="#4c78a8" rx="3"/>
<text x="558.52" y="302" class="value">111.82</text>
<text x="10" y="334" class="label">cdn.cloudflare.steamstatic.com</text>
<rect x="180" y="318" width="447.86" height="22" fill="#4c78a8" rx="3"/>
<text x="635.86" y="334" class="value">135.16</text>
<text x="10" y="366" class="label">store.akamai.steamstatic.com</text>
<rect x="180" y="350" width="452.2" height="22" fill="#4c78a8" rx="3"/>
<text x="640.2" y="366" class="value">136.47</text>
<text x="10" y="398" class="label">ubisoft.com</text>
<rect x="180" y="382" width="452.79" height="22" fill="#4c78a8" rx="3"/>
<text x="640.79" y="398" class="value">136.65</text>
<text x="10" y="430" class="label">fortnite.com</text>
<rect x="180" y="414" width="457.47" height="22" fill="#4c78a8" rx="3"/>
<text x="645.47" y="430" class="value">138.06</text>
<text x="10" y="462" class="label">epicgames.com</text>
<rect x="180" y="446" width="499.18" height="22" fill="#4c78a8" rx="3"/>
<text x="687.1800000000001" y="462" class="value">150.65</text>
<text x="10" y="494" class="label">ea.com</text>
<rect x="180" y="478" width="580.0" height="22" fill="#4c78a8" rx="3"/>
<text x="768.0" y="494" class="value">175.04</text>
<line x1="180" y1="30" x2="180" y2="520" stroke="#ccc"/>
<line x1="180" y1="520" x2="760" y2="520" stroke="#ccc"/>
</svg>