<svg xmlns="http://www.w3.org/2000/svg" width="800" height="540">
<style> .label{font-family:DejaVu Sans,Verdana,Geneva,sans-serif;font-size:12px;fill:#333} .value{font-family:DejaVu Sans,Verdana,Geneva,sans-serif;font-size:12px;fill:#555} </style>
<text x="10" y="20" class="label">延迟柱状图（越低越好，Top 15），单位 ms</text>
<text x="10" y="46" class="label">eaassets-a.akamaihd.net</text>
<rect x="180" y="30" width="337.97" height="22" fill="#4c78a8" rx="3"/>
<text x="525.97" y="46" class="value">142.10</text>
<text x="10" y="78" class="label">rockstargames.com</text>
<rect x="180" y="62" width="347.96" height="22" fill="#4c78a8" rx="3"/>
<text x="535.96" y="78" class="value">146.30</text>
<text x="10" y="110" class="label">community.akamai.steamstatic.com</text>
<rect x="180" y="94" width="358.43" height="22" fill="#4c78a8" rx="3"/>
<text x="546.4300000000001" y="110" class="value">150.70</text>
<text x="10" y="142" class="label">ubisoft.com</text>
<rect x="180" y="126" width="374.15" height="22" fill="#4c78a8" rx="3"/>
<text x="562.15" y="142" class="value">157.31</text>
<text x="10" y="174" class="label">store.akamai.steamstatic.com</text>
<rect x="180" y="158" width="376.81" height="22" fill="#4c78a8" rx="3"/>
<text x="564.81" y="174" class="value">158.43</text>
<text x="10" y="206" class="label">cdn.cloudflare.steamstatic.com</text>
<rect x="180" y="190" width="384.59" height="22" fill="#4c78a8" rx="3"/>
<text x="572.5899999999999" y="206" class="value">161.70</text>
<text x="10" y="238" class="label">steamcdn-a.akamaihd.net</text>
<rect x="180" y="222" width="388.82" height="22" fill="#4c78a8" rx="3"/>
<text x="576.8199999999999" y="238" class="value">163.48</text>
<text x="10" y="270" class="label">origin.com</text>
<rect x="180" y="254" width="389.7" height="22" fill="#4c78a8" rx="3"/>
<text x="577.7" y="270" class="value">163.85</text>
<text x="10" y="302" class="label">steam-chat.com</text>
<rect x="180" y="286" width="501.92" height="22" fill="#4c78a8" rx="3"/>
<text x="689.9200000000001" y="302" class="value">211.03</text>
<text x="10" y="334" class="label">static3.cdn.ubi.com</text>
<rect x="180" y="318" width="528.39" height="22" fill="#4c78a8" rx="3"/>
<text x="716.39" y="334" class="value">222.16</text>
<text x="10" y="366" class="label">ubi.com</text>
<rect x="180" y="350" width="539.47" height="22" fill="#4c78a8" rx="3"/>
<text x="727.47" y="366" class="value">226.82</text>
<text x="10" y="398" class="label">easyanticheat.net</text>
<rect x="180" y="382" width="547.53" height="22" fill="#4c78a8" rx="3"/>
<text x="735.53" y="398" class="value">230.21</text>
<text x="10" y="430" class="label">www.steamcommunity.com</text>
<rect x="180" y="414" width="555.65" height="22" fill="#4c78a8" rx="3"/>
<text x="743.65" y="430" class="value">233.62</text>
<text x="10" y="462" class="label">gog.com</text>
<rect x="180" y="446" width="563.49" height="22" fill="#4c78a8" rx="3"/>
<text x="751.49" y="462" class="value">236.92</text>
<text x="10" y="494" class="label">launcher-public-service-prod06.ol.epicgames.com</text>
<rect x="180" y="478" width="580.0" height="22" fill="#4c78a8" rx="3"/>
<text x="768.0" y="494" class="value">243.86</text>
<line x1="180" y1="30" x2="180" y2="520" stroke="#ccc"/>
<line x1="180" y1="520" x2="760" y2="520" stroke="#ccc"/>
</svg>