<svg xmlns="http://www.w3.org/2000/svg" width="800" height="540">
<style> .label{font-family:DejaVu Sans,Verdana,Geneva,sans-serif;font-size:12px;fill:#333} .value{font-family:DejaVu Sans,Verdana,Geneva,sans-serif;font-size:12px;fill:#555} </style>
<text x="10" y="20" class="label">延迟柱状图（越低越好，Top 15），单位 ms</text>
<text x="10" y="46" class="label">rockstargames.com</text>
<rect x="180" y="30" width="163.0" height="22" fill="#4c78a8" rx="3"/>
<text x="351.0" y="46" class="value">57.97</text>
<text x="10" y="78" class="label">eaassets-a.akamaihd.net</text>
<rect x="180" y="62" width="174.14" height="22" fill="#4c78a8" rx="3"/>
<text x="362.14" y="78" class="value">61.93</text>
<text x="10" y="110" class="label">ubi.com</text>
<rect x="180" y="94" width="200.43" height="22" fill="#4c78a8" rx="3"/>
<text x="388.43" y="110" class="value">71.28</text>
<text x="10" y="142" class="label">blizzard.com</text>
<rect x="180" y="126" width="211.11" height="22" fill="#4c78a8" rx="3"/>
<text x="399.11" y="142" class="value">75.08</text>
<text x="10" y="174" class="label">socialclub.rockstargames.com</text>
<rect x="180" y="158" width="226.78" height="22" fill="#4c78a8" rx="3"/>
<text x="414.78" y="174" class="value">80.65</text>
<text x="10" y="206" class="label">cdn.cloudflare.steamstatic.com</text>
<rect x="180" y="190" width="230.26" height="22" fill="#4c78a8" rx="3"/>
<text x="418.26" y="206" class="value">81.89</text>
<text x="10" y="238" class="label">battle.net</text>
<rect x="180" y="222" width="239.09" height="22" fill="#4c78a8" rx="3"/>
<text x="427.09000000000003" y="238" class="value">85.03</text>
<text x="10" y="270" class="label">epicgames.com</text>
<rect x="180" y="254" width="248.99" height="22" fill="#4c78a8" rx="3"/>
<text x="436.99" y="270" class="value">88.55</text>
<text x="10" y="302" class="label">ubisoft.com</text>
<rect x="180" y="286" width="305.42" height="22" fill="#4c78a8" rx="3"/>
<text x="493.42" y="302" class="value">108.62</text>
<text x="10" y="334" class="label">steamcdn-a.akamaihd.net</text>
<rect x="180" y="318" width="329.1" height="22" fill="#4c78a8" rx="3"/>
<text x="517.1" y="334" class="value">117.04</text>
<text x="10" y="366" class="label">ea.com</text>
<rect x="180" y="350" width="357.33" height="22" fill="#4c78a8" rx="3"/>
<text x="545.3299999999999" y="366" class="value">127.08</text>
<text x="10" y="398" class="label">static3.cdn.ubi.com</text>
<rect x="180" y="382" width="372.2" height="22" fill="#4c78a8" rx="3"/>
<text x="560.2" y="398" class="value">132.37</text>
<text x="10" y="430" class="label">community.akamai.steamstatic.com</text>
<rect x="180" y="414" width="466.99" height="22" fill="#4c78a8" rx="3"/>
<text x="654.99" y="430" class="value">166.08</text>
<text x="10" y="462" class="label">launcher-public-service-prod06.ol.epicgames.com</text>
<rect x="180" y="446" width="569.37" height="22" fill="#4c78a8" rx="3"/>
<text x="757.37" y="462" class="value">202.49</text>
<text x="10" y="494" class="label">unrealengine.com</text>
<rect x="180" y="478" width="580.0" height="22" fill="#4c78a8" rx="3"/>
<text x="768.0" y="494" class="value">206.27</text>
<line x1="180" y1="30" x2="180" y2="520" stroke="#ccc"/>
<line x1="180" y1="520" x2="760" y2="520" stroke="#ccc"/>
</svg>