<svg xmlns="http://www.w3.org/2000/svg" width="800" height="540">
<style> .label{font-family:DejaVu Sans,Verdana,Geneva,sans-serif;font-size:12px;fill:#333} .value{font-family:DejaVu Sans,Verdana,Geneva,sans-serif;font-size:12px;fill:#555} </style>
<text x="10" y="20" class="label">延迟柱状图（越低越好，Top 15），单位 ms</text>
<text x="10" y="46" class="label">rockstargames.com</text>
<rect x="180" y="30" width="94.26" height="22" fill="#4c78a8" rx="3"/>
<text x="282.26" y="46" class="value">35.48</text>
<text x="10" y="78" class="label">store.akamai.steamstatic.com</text>
<rect x="180" y="62" width="212.04" height="22" fill="#4c78a8" rx="3"/>
<text x="400.03999999999996" y="78" class="value">79.81</text>
<text x="10" y="110" class="label">origin.com</text>
<rect x="180" y="94" width="239.59" height="22" fill="#4c78a8" rx="3"/>
<text x="427.59000000000003" y="110" class="value">90.18</text>
<text x="10" y="142" class="label">ea.com</text>
<rect x="180" y="126" width="249.66" height="22" fill="#4c78a8" rx="3"/>
<text x="437.65999999999997" y="142" class="value">93.97</text>
<text x="10" y="174" class="label">steamcdn-a.akamaihd.net</text>
<rect x="180" y="158" width="263.15" height="22" fill="#4c78a8" rx="3"/>
<text x="451.15" y="174" class="value">99.05</text>
<text x="10" y="206" class="label">blizzard.com</text>
<rect x="180" y="190" width="334.2" height="22" fill="#4c78a8" rx="3"/>
<text x="522.2" y="206" class="value">125.79</text>
<text x="10" y="238" class="label">battle.net</text>
<rect x="180" y="222" width="353.01" height="22" fill="#4c78a8" rx="3"/>
<text x="541.01" y="238" class="value">132.87</text>
<text x="10" y="270" class="label">socialclub.rockstargames.com</text>
<rect x="180" y="254" width="385.23" height="22" fill="#4c78a8" rx="3"/>
<text x="573.23" y="270" class="value">145.00</text>
<text x="10" y="302" class="label">static3.cdn.ubi.com</text>
<rect x="180" y="286" width="394.77" height="22" fill="#4c78a8" rx="3"/>
<text x="582.77" y="302" class="value">148.59</text>
<text x="10" y="334" class="label">ubi.com</text>
<rect x="180" y="318" width="413.05" height="22" fill="#4c78a8" rx="3"/>
<text x="601.05" y="334" class="value">155.47</text>
<text x="10" y="366" class="label">ubisoft.com</text>
<rect x="180" y="350" width="459.41" height="22" fill="#4c78a8" rx="3"/>
<text x="647.4100000000001" y="366" class="value">172.92</text>
<text x="10" y="398" class="label">easyanticheat.net</text>
<rect x="180" y="382" width="551.17" height="22" fill="#4c78a8" rx="3"/>
<text x="739.17" y="398" class="value">207.46</text>
<text x="10" y="430" class="label">epicgames.com</text>
<rect x="180" y="414" width="554.12" height="22" fill="#4c78a8" rx="3"/>
<text x="742.12" y="430" class="value">208.57</text>
<text x="10" y="462" class="label">community.akamai.steamstatic.com</text>
<rect x="180" y="446" width="577.42" height="22" fill="#4c78a8" rx="3"/>
<text x="765.42" y="462" class="value">217.34</text>
<text x="10" y="494" class="label">unrealengine.com</text>
<rect x="180" y="478" width="580.0" height="22" fill="#4c78a8" rx="3"/>
<text x="768.0" y="494" class="value">218.31</text>
<line x1="180" y1="30" x2="180" y2="520" stroke="#ccc"/>
<line x1="180" y1="520" x2="760" y2="520" stroke="#ccc"/>
</svg>