<svg xmlns="http://www.w3.org/2000/svg" width="800" height="540">
<style> .label{font-family:DejaVu Sans,Verdana,Geneva,sans-serif;font-size:12px;fill:#333} .value{font-family:DejaVu Sans,Verdana,Geneva,sans-serif;font-size:12px;fill:#555} </style>
<text x="10" y="20" class="label">延迟柱状图（越低越好，Top 15），单位 ms</text>
<text x="10" y="46" class="label">rockstargames.com</text>
<rect x="180" y="30" width="155.99" height="22" fill="#4c78a8" rx="3"/>
<text x="343.99" y="46" class="value">60.82</text>
<text x="10" y="78" class="label">blizzard.com</text>
<rect x="180" y="62" width="193.49" height="22" fill="#4c78a8" rx="3"/>
<text x="381.49" y="78" class="value">75.44</text>
<text x="10" y="110" class="label">socialclub.rockstargames.com</text>
<rect x="180" y="94" width="228.55" height="22" fill="#4c78a8" rx="3"/>
<text x="416.55" y="110" class="value">89.11</text>
<text x="10" y="142" class="label">battle.net</text>
<rect x="180" y="126" width="241.91" height="22" fill="#4c78a8" rx="3"/>
<text x="429.90999999999997" y="142" class="value">94.32</text>
<text x="10" y="174" class="label">eaassets-a.akamaihd.net</text>
<rect x="180" y="158" width="277.71" height="22" fill="#4c78a8" rx="3"/>
<text x="465.71" y="174" class="value">108.28</text>
<text x="10" y="206" class="label">ubi.com</text>
<rect x="180" y="190" width="291.15" height="22" fill="#4c78a8" rx="3"/>
<text x="479.15" y="206" class="value">113.52</text>
<text x="10" y="238" class="label">epicgames.com</text>
<rect x="180" y="222" width="299.21" height="22" fill="#4c78a8" rx="3"/>
<text x="487.21" y="238" class="value">116.66</text>
<text x="10" y="270" class="label">ea.com</text>
<rect x="180" y="254" width="300.03" height="22" fill="#4c78a8" rx="3"/>
<text x="488.03" y="270" class="value">116.98</text>
<text x="10" y="302" class="label">static3.cdn.ubi.com</text>
<rect x="180" y="286" width="388.36" height="22" fill="#4c78a8" rx="3"/>
<text x="576.36" y="302" class="value">151.42</text>
<text x="10" y="334" class="label">ubisoft.com</text>
<rect x="180" y="318" width="430.5" height="22" fill="#4c78a8" rx="3"/>
<text x="618.5" y="334" class="value">167.85</text>
<text x="10" y="366" class="label">cdn.cloudflare.steamstatic.com</text>
<rect x="180" y="350" width="495.49" height="22" fill="#4c78a8" rx="3"/>
<text x="683.49" y="366" class="value">193.19</text>
<text x="10" y="398" class="label">store.akamai.steamstatic.com</text>
<rect x="180" y="382" width="518.98" height="22" fill="#4c78a8" rx="3"/>
<text x="706.98" y="398" class="value">202.35</text>
<text x="10" y="430" class="label">origin.com</text>
<rect x="180" y="414" width="552.25" height="22" fill="#4c78a8" rx="3"/>
<text x="740.25" y="430" class="value">215.32</text>
<text x="10" y="462" class="label">fortnite.com</text>
<rect x="180" y="446" width="577.13" height="22" fill="#4c78a8" rx="3"/>
<text x="765.13" y="462" class="value">225.02</text>
<text x="10" y="494" class="label">unrealengine.com</text>
<rect x="180" y="478" width="580.0" height="22" fill="#4c78a8" rx="3"/>
<text x="768.0" y="494" class="value">226.14</text>
<line x1="180" y1="30" x2="180" y2="520" stroke="#ccc"/>
<line x1="180" y1="520" x2="760" y2="520" stroke="#ccc"/>
</svg>