<svg xmlns="http://www.w3.org/2000/svg" width="800" height="540">
<style> .label{font-family:DejaVu Sans,Verdana,Geneva,sans-serif;font-size:12px;fill:#333} .value{font-family:DejaVu Sans,Verdana,Geneva,sans-serif;font-size:12px;fill:#555} </style>
<text x="10" y="20" class="label">延迟柱状图（越低越好，Top 15），单位 ms</text>
<text x="10" y="46" class="label">rockstargames.com</text>
<rect x="180" y="30" width="124.44" height="22" fill="#4c78a8" rx="3"/>
<text x="312.44" y="46" class="value">98.69</text>
<text x="10" y="78" class="label">ea.com</text>
<rect x="180" y="62" width="182.56" height="22" fill="#4c78a8" rx="3"/>
<text x="370.56" y="78" class="value">144.78</text>
<text x="10" y="110" class="label">store.akamai.steamstatic.com</text>
<rect x="180" y="94" width="200.0" height="22" fill="#4c78a8" rx="3"/>
<text x="388.0" y="110" class="value">158.61</text>
<text x="10" y="142" class="label">origin.com</text>
<rect x="180" y="126" width="208.3" height="22" fill="#4c78a8" rx="3"/>
<text x="396.3" y="142" class="value">165.20</text>
<text x="10" y="174" class="label">easyanticheat.net</text>
<rect x="180" y="158" width="263.58" height="22" fill="#4c78a8" rx="3"/>
<text x="451.58" y="174" class="value">209.04</text>
<text x="10" y="206" class="label">launcher-public-service-prod06.ol.epicgames.com</text>
<rect x="180" y="190" width="323.59" height="22" fill="#4c78a8" rx="3"/>
<text x="511.59" y="206" class="value">256.63</text>
<text x="10" y="238" class="label">ubisoft.com</text>
<rect x="180" y="222" width="337.89" height="22" fill="#4c78a8" rx="3"/>
<text x="525.89" y="238" class="value">267.97</text>
<text x="10" y="270" class="label">ubi.com</text>
<rect x="180" y="254" width="356.39" height="22" fill="#4c78a8" rx="3"/>
<text x="544.39" y="270" class="value">282.64</text>
<text x="10" y="302" class="label">unrealengine.com</text>
<rect x="180" y="286" width="379.83" height="22" fill="#4c78a8" rx="3"/>
<text x="567.8299999999999" y="302" class="value">301.23</text>
<text x="10" y="334" class="label">socialclub.rockstargames.com</text>
<rect x="180" y="318" width="386.66" height="22" fill="#4c78a8" rx="3"/>
<text x="574.6600000000001" y="334" class="value">306.65</text>
<text x="10" y="366" class="label">fortnite.com</text>
<rect x="180" y="350" width="398.96" height="22" fill="#4c78a8" rx="3"/>
<text x="586.96" y="366" class="value">316.40</text>
<text x="10" y="398" class="label">blizzard.com</text>
<rect x="180" y="382" width="403.45" height="22" fill="#4c78a8" rx="3"/>
<text x="591.45" y="398" class="value">319.96</text>
<text x="10" y="430" class="label">battle.net</text>
<rect x="180" y="414" width="417.14" height="22" fill="#4c78a8" rx="3"/>
<text x="605.14" y="430" class="value">330.82</text>
<text x="10" y="462" class="label">epicgames.com</text>
<rect x="180" y="446" width="422.56" height="22" fill="#4c78a8" rx="3"/>
<text x="610.56" y="462" class="value">335.12</text>
<text x="10" y="494" class="label">cdn.akamai.steamstatic.com</text>
<rect x="180" y="478" width="580.0" height="22" fill="#4c78a8" rx="3"/>
<text x="768.0" y="494" class="value">459.98</text>
<line x1="180" y1="30" x2="180" y2="520" stroke="#ccc"/>
<line x1="180" y1="520" x2="760" y2="520" stroke="#ccc"/>
</svg>