<svg xmlns="http://www.w3.org/2000/svg" width="800" height="540">
<style> .label{font-family:DejaVu Sans,Verdana,Geneva,sans-serif;font-size:12px;fill:#333} .value{font-family:DejaVu Sans,Verdana,Geneva,sans-serif;font-size:12px;fill:#555} </style>
<text x="10" y="20" class="label">延迟柱状图（越低越好，Top 15），单位 ms</text>
<text x="10" y="46" class="label">cdn.cloudflare.steamstatic.com</text>
<rect x="180" y="30" width="290.53" height="22" fill="#4c78a8" rx="3"/>
<text x="478.53" y="46" class="value">136.81</text>
<text x="10" y="78" class="label">store.akamai.steamstatic.com</text>
<rect x="180" y="62" width="318.41" height="22" fill="#4c78a8" rx="3"/>
<text x="506.41" y="78" class="value">149.94</text>
<text x="10" y="110" class="label">ubisoft.com</text>
<rect x="180" y="94" width="327.06" height="22" fill="#4c78a8" rx="3"/>
<text x="515.06" y="110" class="value">154.01</text>
<text x="10" y="142" class="label">origin.com</text>
<rect x="180" y="126" width="366.45" height="22" fill="#4c78a8" rx="3"/>
<text x="554.45" y="142" class="value">172.56</text>
<text x="10" y="174" class="label">blizzard.com</text>
<rect x="180" y="158" width="397.94" height="22" fill="#4c78a8" rx="3"/>
<text x="585.94" y="174" class="value">187.39</text>
<text x="10" y="206" class="label">rockstargames.com</text>
<rect x="180" y="190" width="408.73" height="22" fill="#4c78a8" rx="3"/>
<text x="596.73" y="206" class="value">192.47</text>
<text x="10" y="238" class="label">steamcdn-a.akamaihd.net</text>
<rect x="180" y="222" width="419.92" height="22" fill="#4c78a8" rx="3"/>
<text x="607.9200000000001" y="238" class="value">197.74</text>
<text x="10" y="270" class="label">easyanticheat.net</text>
<rect x="180" y="254" width="427.31" height="22" fill="#4c78a8" rx="3"/>
<text x="615.31" y="270" class="value">201.22</text>
<text x="10" y="302" class="label">community.akamai.steamstatic.com</text>
<rect x="180" y="286" width="472.84" height="22" fill="#4c78a8" rx="3"/>
<text x="660.8399999999999" y="302" class="value">222.66</text>
<text x="10" y="334" class="label">eaassets-a.akamaihd.net</text>
<rect x="180" y="318" width="506.61" height="22" fill="#4c78a8" rx="3"/>
<text x="694.61" y="334" class="value">238.56</text>
<text x="10" y="366" class="label">ea.com</text>
<rect x="180" y="350" width="514.49" height="22" fill="#4c78a8" rx="3"/>
<text x="702.49" y="366" class="value">242.27</text>
<text x="10" y="398" class="label">cdn.akamai.steamstatic.com</text>
<rect x="180" y="382" width="562.23" height="22" fill="#4c78a8" rx="3"/>
<text x="750.23" y="398" class="value">264.75</text>
<text x="10" y="430" class="label">ubi.com</text>
<rect x="180" y="414" width="568.32" height="22" fill="#4c78a8" rx="3"/>
<text x="756.32" y="430" class="value">267.62</text>
<text x="10" y="462" class="label">socialclub.rockstargames.com</text>
<rect x="180" y="446" width="577.64" height="22" fill="#4c78a8" rx="3"/>
<text x="765.64" y="462" class="value">272.01</text>
<text x="10" y="494" class="label">unrealengine.com</text>
<rect x="180" y="478" width="580.0" height="22" fill="#4c78a8" rx="3"/>
<text x="768.0" y="494" class="value">273.12</text>
<line x1="180" y1="30" x2="180" y2="520" stroke="#ccc"/>
<line x1="180" y1="520" x2="760" y2="520" stroke="#ccc"/>
</svg>