<svg xmlns="http://www.w3.org/2000/svg" width="800" height="540">
<style> .label{font-family:DejaVu Sans,Verdana,Geneva,sans-serif;font-size:12px;fill:#333} .value{font-family:DejaVu Sans,Verdana,Geneva,sans-serif;font-size:12px;fill:#555} </style>
<text x="10" y="20" class="label">延迟柱状图（越低越好，Top 15），单位 ms</text>
<text x="10" y="46" class="label">store.akamai.steamstatic.com</text>
<rect x="180" y="30" width="224.56" height="22" fill="#4c78a8" rx="3"/>
<text x="412.56" y="46" class="value">86.58</text>
<text x="10" y="78" class="label">ea.com</text>
<rect x="180" y="62" width="251.61" height="22" fill="#4c78a8" rx="3"/>
<text x="439.61" y="78" class="value">97.01</text>
<text x="10" y="110" class="label">eaassets-a.akamaihd.net</text>
<rect x="180" y="94" width="266.73" height="22" fill="#4c78a8" rx="3"/>
<text x="454.73" y="110" class="value">102.84</text>
<text x="10" y="142" class="label">rockstargames.com</text>
<rect x="180" y="126" width="267.18" height="22" fill="#4c78a8" rx="3"/>
<text x="455.18" y="142" class="value">103.01</text>
<text x="10" y="174" class="label">origin.com</text>
<rect x="180" y="158" width="269.72" height="22" fill="#4c78a8" rx="3"/>
<text x="457.72" y="174" class="value">103.99</text>
<text x="10" y="206" class="label">socialclub.rockstargames.com</text>
<rect x="180" y="190" width="348.46" height="22" fill="#4c78a8" rx="3"/>
<text x="536.46" y="206" class="value">134.35</text>
<text x="10" y="238" class="label">ubi.com</text>
<rect x="180" y="222" width="388.95" height="22" fill="#4c78a8" rx="3"/>
<text x="576.95" y="238" class="value">149.96</text>
<text x="10" y="270" class="label">blizzard.com</text>
<rect x="180" y="254" width="400.7" height="22" fill="#4c78a8" rx="3"/>
<text x="588.7" y="270" class="value">154.49</text>
<text x="10" y="302" class="label">battle.net</text>
<rect x="180" y="286" width="407.7" height="22" fill="#4c78a8" rx="3"/>
<text x="595.7" y="302" class="value">157.19</text>
<text x="10" y="334" class="label">ubisoft.com</text>
<rect x="180" y="318" width="413.17" height="22" fill="#4c78a8" rx="3"/>
<text x="601.1700000000001" y="334" class="value">159.30</text>
<text x="10" y="366" class="label">cdn.cloudflare.steamstatic.com</text>
<rect x="180" y="350" width="485.17" height="22" fill="#4c78a8" rx="3"/>
<text x="673.1700000000001" y="366" class="value">187.06</text>
<text x="10" y="398" class="label">community.akamai.steamstatic.com</text>
<rect x="180" y="382" width="487.09" height="22" fill="#4c78a8" rx="3"/>
<text x="675.0899999999999" y="398" class="value">187.80</text>
<text x="10" y="430" class="label">static3.cdn.ubi.com</text>
<rect x="180" y="414" width="540.84" height="22" fill="#4c78a8" rx="3"/>
<text x="728.84" y="430" class="value">208.52</text>
<text x="10" y="462" class="label">steam-chat.com</text>
<rect x="180" y="446" width="573.9" height="22" fill="#4c78a8" rx="3"/>
<text x="761.9" y="462" class="value">221.27</text>
<text x="10" y="494" class="label">steamcommunity.com</text>
<rect x="180" y="478" width="580.0" height="22" fill="#4c78a8" rx="3"/>
<text x="768.0" y="494" class="value">223.62</text>
<line x1="180" y1="30" x2="180" y2="520" stroke="#ccc"/>
<line x1="180" y1="520" x2="760" y2="520" stroke="#ccc"/>
</svg>