<svg xmlns="http://www.w3.org/2000/svg" width="800" height="540">
<style> .label{font-family:DejaVu Sans,Verdana,Geneva,sans-serif;font-size:12px;fill:#333} .value{font-family:DejaVu Sans,Verdana,Geneva,sans-serif;font-size:12px;fill:#555} </style>
<text x="10" y="20" class="label">延迟柱状图（越低越好，Top 15），单位 ms</text>
<text x="10" y="46" class="label">rockstargames.com</text>
<rect x="180" y="30" width="207.41" height="22" fill="#4c78a8" rx="3"/>
<text x="395.40999999999997" y="46" class="value">87.62</text>
<text x="10" y="78" class="label">socialclub.rockstargames.com</text>
<rect x="180" y="62" width="215.72" height="22" fill="#4c78a8" rx="3"/>
<text x="403.72" y="78" class="value">91.13</text>
<text x="10" y="110" class="label">battle.net</text>
<rect x="180" y="94" width="239.46" height="22" fill="#4c78a8" rx="3"/>
<text x="427.46000000000004" y="110" class="value">101.16</text>
<text x="10" y="142" class="label">epicgames.com</text>
<rect x="180" y="126" width="274.76" height="22" fill="#4c78a8" rx="3"/>
<text x="462.76" y="142" class="value">116.07</text>
<text x="10" y="174" class="label">blizzard.com</text>
<rect x="180" y="158" width="279.87" height="22" fill="#4c78a8" rx="3"/>
<text x="467.87" y="174" class="value">118.23</text>
<text x="10" y="206" class="label">ea.com</text>
<rect x="180" y="190" width="284.82" height="22" fill="#4c78a8" rx="3"/>
<text x="472.82" y="206" class="value">120.32</text>
<text x="10" y="238" class="label">ubi.com</text>
<rect x="180" y="222" width="316.11" height="22" fill="#4c78a8" rx="3"/>
<text x="504.11" y="238" class="value">133.54</text>
<text x="10" y="270" class="label">unrealengine.com</text>
<rect x="180" y="254" width="388.43" height="22" fill="#4c78a8" rx="3"/>
<text x="576.4300000000001" y="270" class="value">164.09</text>
<text x="10" y="302" class="label">store.akamai.steamstatic.com</text>
<rect x="180" y="286" width="461.74" height="22" fill="#4c78a8" rx="3"/>
<text x="649.74" y="302" class="value">195.06</text>
<text x="10" y="334" class="label">ubisoft.com</text>
<rect x="180" y="318" width="477.22" height="22" fill="#4c78a8" rx="3"/>
<text x="665.22" y="334" class="value">201.60</text>
<text x="10" y="366" class="label">community.akamai.steamstatic.com</text>
<rect x="180" y="350" width="484.7" height="22" fill="#4c78a8" rx="3"/>
<text x="672.7" y="366" class="value">204.76</text>
<text x="10" y="398" class="label">origin.com</text>
<rect x="180" y="382" width="515.61" height="22" fill="#4c78a8" rx="3"/>
<text x="703.61" y="398" class="value">217.82</text>
<text x="10" y="430" class="label">fortnite.com</text>
<rect x="180" y="414" width="517.96" height="22" fill="#4c78a8" rx="3"/>
<text x="705.96" y="430" class="value">218.81</text>
<text x="10" y="462" class="label">cdn.akamai.steamstatic.com</text>
<rect x="180" y="446" width="538.29" height="22" fill="#4c78a8" rx="3"/>
<text x="726.29" y="462" class="value">227.40</text>
<text x="10" y="494" class="label">gog.com</text>
<rect x="180" y="478" width="580.0" height="22" fill="#4c78a8" rx="3"/>
<text x="768.0" y="494" class="value">245.02</text>
<line x1="180" y1="30" x2="180" y2="520" stroke="#ccc"/>
<line x1="180" y1="520" x2="760" y2="520" stroke="#ccc"/>
</svg>