<svg xmlns="http://www.w3.org/2000/svg" width="800" height="540">
<style> .label{font-family:DejaVu Sans,Verdana,Geneva,sans-serif;font-size:12px;fill:#333} .value{font-family:DejaVu Sans,Verdana,Geneva,sans-serif;font-size:12px;fill:#555} </style>
<text x="10" y="20" class="label">延迟柱状图（越低越好，Top 15），单位 ms</text>
<text x="10" y="46" class="label">eaassets-a.akamaihd.net</text>
<rect x="180" y="30" width="239.18" height="22" fill="#4c78a8" rx="3"/>
<text x="427.18" y="46" class="value">138.50</text>
<text x="10" y="78" class="label">ubisoft.com</text>
<rect x="180" y="62" width="271.89" height="22" fill="#4c78a8" rx="3"/>
<text x="459.89" y="78" class="value">157.44</text>
<text x="10" y="110" class="label">cdn.cloudflare.steamstatic.com</text>
<rect x="180" y="94" width="292.7" height="22" fill="#4c78a8" rx="3"/>
<text x="480.7" y="110" class="value">169.49</text>
<text x="10" y="142" class="label">ea.com</text>
<rect x="180" y="126" width="295.67" height="22" fill="#4c78a8" rx="3"/>
<text x="483.67" y="142" class="value">171.21</text>
<text x="10" y="174" class="label">rockstargames.com</text>
<rect x="180" y="158" width="305.4" height="22" fill="#4c78a8" rx="3"/>
<text x="493.4" y="174" class="value">176.84</text>
<text x="10" y="206" class="label">origin.com</text>
<rect x="180" y="190" width="337.12" height="22" fill="#4c78a8" rx="3"/>
<text x="525.12" y="206" class="value">195.21</text>
<text x="10" y="238" class="label">ubi.com</text>
<rect x="180" y="222" width="372.54" height="22" fill="#4c78a8" rx="3"/>
<text x="560.54" y="238" class="value">215.72</text>
<text x="10" y="270" class="label">community.akamai.steamstatic.com</text>
<rect x="180" y="254" width="400.57" height="22" fill="#4c78a8" rx="3"/>
<text x="588.5699999999999" y="270" class="value">231.95</text>
<text x="10" y="302" class="label">socialclub.rockstargames.com</text>
<rect x="180" y="286" width="471.03" height="22" fill="#4c78a8" rx="3"/>
<text x="659.03" y="302" class="value">272.75</text>
<text x="10" y="334" class="label">unrealengine.com</text>
<rect x="180" y="318" width="495.69" height="22" fill="#4c78a8" rx="3"/>
<text x="683.69" y="334" class="value">287.03</text>
<text x="10" y="366" class="label">cdn.akamai.steamstatic.com</text>
<rect x="180" y="350" width="508.92" height="22" fill="#4c78a8" rx="3"/>
<text x="696.9200000000001" y="366" class="value">294.69</text>
<text x="10" y="398" class="label">static3.cdn.ubi.com</text>
<rect x="180" y="382" width="532.21" height="22" fill="#4c78a8" rx="3"/>
<text x="720.21" y="398" class="value">308.18</text>
<text x="10" y="430" class="label">easyanticheat.net</text>
<rect x="180" y="414" width="560.33" height="22" fill="#4c78a8" rx="3"/>
<text x="748.33" y="430" class="value">324.46</text>
<text x="10" y="462" class="label">steamcdn-a.akamaihd.net</text>
<rect x="180" y="446" width="576.36" height="22" fill="#4c78a8" rx="3"/>
<text x="764.36" y="462" class="value">333.74</text>
<text x="10" y="494" class="label">store.akamai.steamstatic.com</text>
<rect x="180" y="478" width="580.0" height="22" fill="#4c78a8" rx="3"/>
<text x="768.0" y="494" class="value">335.85</text>
<line x1="180" y1="30" x2="180" y2="520" stroke="#ccc"/>
<line x1="180" y1="520" x2="760" y2="520" stroke="#ccc"/>
</svg>