<svg xmlns="http://www.w3.org/2000/svg" width="800" height="540">
<style> .label{font-family:DejaVu Sans,Verdana,Geneva,sans-serif;font-size:12px;fill:#333} .value{font-family:DejaVu Sans,Verdana,Geneva,sans-serif;font-size:12px;fill:#555} </style>
<text x="10" y="20" class="label">延迟柱状图（越低越好，Top 15），单位 ms</text>
<text x="10" y="46" class="label">rockstargames.com</text>
<rect x="180" y="30" width="124.5" height="22" fill="#4c78a8" rx="3"/>
<text x="312.5" y="46" class="value">62.03</text>
<text x="10" y="78" class="label">steamcdn-a.akamaihd.net</text>
<rect x="180" y="62" width="170.1" height="22" fill="#4c78a8" rx="3"/>
<text x="358.1" y="78" class="value">84.75</text>
<text x="10" y="110" class="label">ubisoft.com</text>
<rect x="180" y="94" width="173.35" height="22" fill="#4c78a8" rx="3"/>
<text x="361.35" y="110" class="value">86.37</text>
<text x="10" y="142" class="label">ea.com</text>
<rect x="180" y="126" width="223.61" height="22" fill="#4c78a8" rx="3"/>
<text x="411.61" y="142" class="value">111.41</text>
<text x="10" y="174" class="label">community.akamai.steamstatic.com</text>
<rect x="180" y="158" width="269.93" height="22" fill="#4c78a8" rx="3"/>
<text x="457.93" y="174" class="value">134.49</text>
<text x="10" y="206" class="label">store.akamai.steamstatic.com</text>
<rect x="180" y="190" width="300.12" height="22" fill="#4c78a8" rx="3"/>
<text x="488.12" y="206" class="value">149.53</text>
<text x="10" y="238" class="label">origin.com</text>
<rect x="180" y="222" width="322.37" height="22" fill="#4c78a8" rx="3"/>
<text x="510.37" y="238" class="value">160.62</text>
<text x="10" y="270" class="label">cdn.cloudflare.steamstatic.com</text>
<rect x="180" y="254" width="325.32" height="22" fill="#4c78a8" rx="3"/>
<text x="513.3199999999999" y="270" class="value">162.09</text>
<text x="10" y="302" class="label">easyanticheat.net</text>
<rect x="180" y="286" width="347.06" height="22" fill="#4c78a8" rx="3"/>
<text x="535.06" y="302" class="value">172.92</text>
<text x="10" y="334" class="label">cdn.akamai.steamstatic.com</text>
<rect x="180" y="318" width="370.72" height="22" fill="#4c78a8" rx="3"/>
<text x="558.72" y="334" class="value">184.71</text>
<text x="10" y="366" class="label">www.steamcommunity.com</text>
<rect x="180" y="350" width="464.59" height="22" fill="#4c78a8" rx="3"/>
<text x="652.5899999999999" y="366" class="value">231.48</text>
<text x="10" y="398" class="label">eaassets-a.akamaihd.net</text>
<rect x="180" y="382" width="504.88" height="22" fill="#4c78a8" rx="3"/>
<text x="692.88" y="398" class="value">251.55</text>
<text x="10" y="430" class="label">api.steampowered.com</text>
<rect x="180" y="414" width="523.54" height="22" fill="#4c78a8" rx="3"/>
<text x="711.54" y="430" class="value">260.85</text>
<text x="10" y="462" class="label">steamcommunity.com</text>
<rect x="180" y="446" width="541.83" height="22" fill="#4c78a8" rx="3"/>
<text x="729.83" y="462" class="value">269.96</text>
<text x="10" y="494" class="label">battle.net</text>
<rect x="180" y="478" width="580.0" height="22" fill="#4c78a8" rx="3"/>
<text x="768.0" y="494" class="value">288.98</text>
<line x1="180" y1="30" x2="180" y2="520" stroke="#ccc"/>
<line x1="180" y1="520" x2="760" y2="520" stroke="#ccc"/>
</svg>