<svg xmlns="http://www.w3.org/2000/svg" width="800" height="540">
<style> .label{font-family:DejaVu Sans,Verdana,Geneva,sans-serif;font-size:12px;fill:#333} .value{font-family:DejaVu Sans,Verdana,Geneva,sans-serif;font-size:12px;fill:#555} </style>
<text x="10" y="20" class="label">延迟柱状图（越低越好，Top 15），单位 ms</text>
<text x="10" y="46" class="label">rockstargames.com</text>
<rect x="180" y="30" width="240.16" height="22" fill="#4c78a8" rx="3"/>
<text x="428.15999999999997" y="46" class="value">86.09</text>
<text x="10" y="78" class="label">ea.com</text>
<rect x="180" y="62" width="246.08" height="22" fill="#4c78a8" rx="3"/>
<text x="434.08000000000004" y="78" class="value">88.21</text>
<text x="10" y="110" class="label">ubi.com</text>
<rect x="180" y="94" width="250.68" height="22" fill="#4c78a8" rx="3"/>
<text x="438.68" y="110" class="value">89.86</text>
<text x="10" y="142" class="label">blizzard.com</text>
<rect x="180" y="126" width="271.41" height="22" fill="#4c78a8" rx="3"/>
<text x="459.41" y="142" class="value">97.29</text>
<text x="10" y="174" class="label">socialclub.rockstargames.com</text>
<rect x="180" y="158" width="304.63" height="22" fill="#4c78a8" rx="3"/>
<text x="492.63" y="174" class="value">109.20</text>
<text x="10" y="206" class="label">eaassets-a.akamaihd.net</text>
<rect x="180" y="190" width="415.55" height="22" fill="#4c78a8" rx="3"/>
<text x="603.55" y="206" class="value">148.96</text>
<text x="10" y="238" class="label">battle.net</text>
<rect x="180" y="222" width="450.22" height="22" fill="#4c78a8" rx="3"/>
<text x="638.22" y="238" class="value">161.39</text>
<text x="10" y="270" class="label">cdn.cloudflare.steamstatic.com</text>
<rect x="180" y="254" width="463.78" height="22" fill="#4c78a8" rx="3"/>
<text x="651.78" y="270" class="value">166.25</text>
<text x="10" y="302" class="label">epicgames.com</text>
<rect x="180" y="286" width="471.01" height="22" fill="#4c78a8" rx="3"/>
<text x="659.01" y="302" class="value">168.84</text>
<text x="10" y="334" class="label">community.akamai.steamstatic.com</text>
<rect x="180" y="318" width="510.59" height="22" fill="#4c78a8" rx="3"/>
<text x="698.5899999999999" y="334" class="value">183.03</text>
<text x="10" y="366" class="label">steam-chat.com</text>
<rect x="180" y="350" width="543.06" height="22" fill="#4c78a8" rx="3"/>
<text x="731.06" y="366" class="value">194.67</text>
<text x="10" y="398" class="label">static3.cdn.ubi.com</text>
<rect x="180" y="382" width="557.63" height="22" fill="#4c78a8" rx="3"/>
<text x="745.63" y="398" class="value">199.89</text>
<text x="10" y="430" class="label">steamcdn-a.akamaihd.net</text>
<rect x="180" y="414" width="560.89" height="22" fill="#4c78a8" rx="3"/>
<text x="748.89" y="430" class="value">201.06</text>
<text x="10" y="462" class="label">origin.com</text>
<rect x="180" y="446" width="572.33" height="22" fill="#4c78a8" rx="3"/>
<text x="760.33" y="462" class="value">205.16</text>
<text x="10" y="494" class="label">easyanticheat.net</text>
<rect x="180" y="478" width="580.0" height="22" fill="#4c78a8" rx="3"/>
<text x="768.0" y="494" class="value">207.91</text>
<line x1="180" y1="30" x2="180" y2="520" stroke="#ccc"/>
<line x1="180" y1="520" x2="760" y2="520" stroke="#ccc"/>
</svg>