<svg xmlns="http://www.w3.org/2000/svg" width="800" height="540">
<style> .label{font-family:DejaVu Sans,Verdana,Geneva,sans-serif;font-size:12px;fill:#333} .value{font-family:DejaVu Sans,Verdana,Geneva,sans-serif;font-size:12px;fill:#555} </style>
<text x="10" y="20" class="label">延迟柱状图（越低越好，Top 15），单位 ms</text>
<text x="10" y="46" class="label">rockstargames.com</text>
<rect x="180" y="30" width="169.33" height="22" fill="#4c78a8" rx="3"/>
<text x="357.33000000000004" y="46" class="value">61.29</text>
<text x="10" y="78" class="label">eaassets-a.akamaihd.net</text>
<rect x="180" y="62" width="213.26" height="22" fill="#4c78a8" rx="3"/>
<text x="401.26" y="78" class="value">77.19</text>
<text x="10" y="110" class="label">ubi.com</text>
<rect x="180" y="94" width="239.73" height="22" fill="#4c78a8" rx="3"/>
<text x="427.73" y="110" class="value">86.77</text>
<text x="10" y="142" class="label">epicgames.com</text>
<rect x="180" y="126" width="244.18" height="22" fill="#4c78a8" rx="3"/>
<text x="432.18" y="142" class="value">88.38</text>
<text x="10" y="174" class="label">blizzard.com</text>
<rect x="180" y="158" width="249.18" height="22" fill="#4c78a8" rx="3"/>
<text x="437.18" y="174" class="value">90.19</text>
<text x="10" y="206" class="label">fortnite.com</text>
<rect x="180" y="190" width="265.4" height="22" fill="#4c78a8" rx="3"/>
<text x="453.4" y="206" class="value">96.06</text>
<text x="10" y="238" class="label">socialclub.rockstargames.com</text>
<rect x="180" y="222" width="270.73" height="22" fill="#4c78a8" rx="3"/>
<text x="458.73" y="238" class="value">97.99</text>
<text x="10" y="270" class="label">unrealengine.com</text>
<rect x="180" y="254" width="320.29" height="22" fill="#4c78a8" rx="3"/>
<text x="508.29" y="270" class="value">115.93</text>
<text x="10" y="302" class="label">battle.net</text>
<rect x="180" y="286" width="368.78" height="22" fill="#4c78a8" rx="3"/>
<text x="556.78" y="302" class="value">133.48</text>
<text x="10" y="334" class="label">ubisoft.com</text>
<rect x="180" y="318" width="370.3" height="22" fill="#4c78a8" rx="3"/>
<text x="558.3" y="334" class="value">134.03</text>
<text x="10" y="366" class="label">cdn.cloudflare.steamstatic.com</text>
<rect x="180" y="350" width="440.23" height="22" fill="#4c78a8" rx="3"/>
<text x="628.23" y="366" class="value">159.34</text>
<text x="10" y="398" class="label">static3.cdn.ubi.com</text>
<rect x="180" y="382" width="470.15" height="22" fill="#4c78a8" rx="3"/>
<text x="658.15" y="398" class="value">170.17</text>
<text x="10" y="430" class="label">origin.com</text>
<rect x="180" y="414" width="532.34" height="22" fill="#4c78a8" rx="3"/>
<text x="720.34" y="430" class="value">192.68</text>
<text x="10" y="462" class="label">community.akamai.steamstatic.com</text>
<rect x="180" y="446" width="568.76" height="22" fill="#4c78a8" rx="3"/>
<text x="756.76" y="462" class="value">205.86</text>
<text x="10" y="494" class="label">steamcdn-a.akamaihd.net</text>
<rect x="180" y="478" width="580.0" height="22" fill="#4c78a8" rx="3"/>
<text x="768.0" y="494" class="value">209.93</text>
<line x1="180" y1="30" x2="180" y2="520" stroke="#ccc"/>
<line x1="180" y1="520" x2="760" y2="520" stroke="#ccc"/>
</svg>