<svg xmlns="http://www.w3.org/2000/svg" width="800" height="540">
<style> .label{font-family:DejaVu Sans,Verdana,Geneva,sans-serif;font-size:12px;fill:#333} .value{font-family:DejaVu Sans,Verdana,Geneva,sans-serif;font-size:12px;fill:#555} </style>
<text x="10" y="20" class="label">延迟柱状图（越低越好，Top 15），单位 ms</text>
<text x="10" y="46" class="label">eaassets-a.akamaihd.net</text>
<rect x="180" y="30" width="201.96" height="22" fill="#4c78a8" rx="3"/>
<text x="389.96000000000004" y="46" class="value">79.40</text>
<text x="10" y="78" class="label">rockstargames.com</text>
<rect x="180" y="62" width="203.26" height="22" fill="#4c78a8" rx="3"/>
<text x="391.26" y="78" class="value">79.91</text>
<text x="10" y="110" class="label">socialclub.rockstargames.com</text>
<rect x="180" y="94" width="232.56" height="22" fill="#4c78a8" rx="3"/>
<text x="420.56" y="110" class="value">91.43</text>
<text x="10" y="142" class="label">battle.net</text>
<rect x="180" y="126" width="266.55" height="22" fill="#4c78a8" rx="3"/>
<text x="454.55" y="142" class="value">104.79</text>
<text x="10" y="174" class="label">blizzard.com</text>
<rect x="180" y="158" width="278.76" height="22" fill="#4c78a8" rx="3"/>
<text x="466.76" y="174" class="value">109.59</text>
<text x="10" y="206" class="label">ea.com</text>
<rect x="180" y="190" width="284.3" height="22" fill="#4c78a8" rx="3"/>
<text x="472.3" y="206" class="value">111.77</text>
<text x="10" y="238" class="label">ubi.com</text>
<rect x="180" y="222" width="287.71" height="22" fill="#4c78a8" rx="3"/>
<text x="475.71" y="238" class="value">113.11</text>
<text x="10" y="270" class="label">ubisoft.com</text>
<rect x="180" y="254" width="317.24" height="22" fill="#4c78a8" rx="3"/>
<text x="505.24" y="270" class="value">124.72</text>
<text x="10" y="302" class="label">fortnite.com</text>
<rect x="180" y="286" width="367.12" height="22" fill="#4c78a8" rx="3"/>
<text x="555.12" y="302" class="value">144.33</text>
<text x="10" y="334" class="label">unrealengine.com</text>
<rect x="180" y="318" width="396.5" height="22" fill="#4c78a8" rx="3"/>
<text x="584.5" y="334" class="value">155.88</text>
<text x="10" y="366" class="label">cdn.akamai.steamstatic.com</text>
<rect x="180" y="350" width="451.9" height="22" fill="#4c78a8" rx="3"/>
<text x="639.9" y="366" class="value">177.66</text>
<text x="10" y="398" class="label">www.steamcommunity.com</text>
<rect x="180" y="382" width="509.97" height="22" fill="#4c78a8" rx="3"/>
<text x="697.97" y="398" class="value">200.49</text>
<text x="10" y="430" class="label">steamcdn-a.akamaihd.net</text>
<rect x="180" y="414" width="517.91" height="22" fill="#4c78a8" rx="3"/>
<text x="705.91" y="430" class="value">203.61</text>
<text x="10" y="462" class="label">steam-chat.com</text>
<rect x="180" y="446" width="547.7" height="22" fill="#4c78a8" rx="3"/>
<text x="735.7" y="462" class="value">215.32</text>
<text x="10" y="494" class="label">cdn.cloudflare.steamstatic.com</text>
<rect x="180" y="478" width="580.0" height="22" fill="#4c78a8" rx="3"/>
<text x="768.0" y="494" class="value">228.02</text>
<line x1="180" y1="30" x2="180" y2="520" stroke="#ccc"/>
<line x1="180" y1="520" x2="760" y2="520" stroke="#ccc"/>
</svg>