<svg xmlns="http://www.w3.org/2000/svg" width="800" height="540">
<style> .label{font-family:DejaVu Sans,Verdana,Geneva,sans-serif;font-size:12px;fill:#333} .value{font-family:DejaVu Sans,Verdana,Geneva,sans-serif;font-size:12px;fill:#555} </style>
<text x="10" y="20" class="label">延迟柱状图（越低越好，Top 15），单位 ms</text>
<text x="10" y="46" class="label">cdn.cloudflare.steamstatic.com</text>
<rect x="180" y="30" width="163.99" height="22" fill="#4c78a8" rx="3"/>
<text x="351.99" y="46" class="value">52.00</text>
<text x="10" y="78" class="label">eaassets-a.akamaihd.net</text>
<rect x="180" y="62" width="214.39" height="22" fill="#4c78a8" rx="3"/>
<text x="402.39" y="78" class="value">67.98</text>
<text x="10" y="110" class="label">rockstargames.com</text>
<rect x="180" y="94" width="215.56" height="22" fill="#4c78a8" rx="3"/>
<text x="403.56" y="110" class="value">68.35</text>
<text x="10" y="142" class="label">socialclub.rockstargames.com</text>
<rect x="180" y="126" width="257.22" height="22" fill="#4c78a8" rx="3"/>
<text x="445.22" y="142" class="value">81.56</text>
<text x="10" y="174" class="label">blizzard.com</text>
<rect x="180" y="158" width="299.67" height="22" fill="#4c78a8" rx="3"/>
<text x="487.67" y="174" class="value">95.02</text>
<text x="10" y="206" class="label">cdn.akamai.steamstatic.com</text>
<rect x="180" y="190" width="302.79" height="22" fill="#4c78a8" rx="3"/>
<text x="490.79" y="206" class="value">96.01</text>
<text x="10" y="238" class="label">battle.net</text>
<rect x="180" y="222" width="341.55" height="22" fill="#4c78a8" rx="3"/>
<text x="529.55" y="238" class="value">108.30</text>
<text x="10" y="270" class="label">fortnite.com</text>
<rect x="180" y="254" width="402.26" height="22" fill="#4c78a8" rx="3"/>
<text x="590.26" y="270" class="value">127.55</text>
<text x="10" y="302" class="label">ubisoft.com</text>
<rect x="180" y="286" width="415.31" height="22" fill="#4c78a8" rx="3"/>
<text x="603.31" y="302" class="value">131.69</text>
<text x="10" y="334" class="label">ubi.com</text>
<rect x="180" y="318" width="430.45" height="22" fill="#4c78a8" rx="3"/>
<text x="618.45" y="334" class="value">136.49</text>
<text x="10" y="366" class="label">origin.com</text>
<rect x="180" y="350" width="472.68" height="22" fill="#4c78a8" rx="3"/>
<text x="660.6800000000001" y="366" class="value">149.88</text>
<text x="10" y="398" class="label">unrealengine.com</text>
<rect x="180" y="382" width="523.9" height="22" fill="#4c78a8" rx="3"/>
<text x="711.9" y="398" class="value">166.12</text>
<text x="10" y="430" class="label">ea.com</text>
<rect x="180" y="414" width="546.98" height="22" fill="#4c78a8" rx="3"/>
<text x="734.98" y="430" class="value">173.44</text>
<text x="10" y="462" class="label">epicgames.com</text>
<rect x="180" y="446" width="559.56" height="22" fill="#4c78a8" rx="3"/>
<text x="747.56" y="462" class="value">177.43</text>
<text x="10" y="494" class="label">www.steamcommunity.com</text>
<rect x="180" y="478" width="580.0" height="22" fill="#4c78a8" rx="3"/>
<text x="768.0" y="494" class="value">183.91</text>
<line x1="180" y1="30" x2="180" y2="520" stroke="#ccc"/>
<line x1="180" y1="520" x2="760" y2="520" stroke="#ccc"/>
</svg>