<svg xmlns="http://www.w3.org/2000/svg" width="800" height="540">
<style> .label{font-family:DejaVu Sans,Verdana,Geneva,sans-serif;font-size:12px;fill:#333} .value{font-family:DejaVu Sans,Verdana,Geneva,sans-serif;font-size:12px;fill:#555} </style>
<text x="10" y="20" class="label">延迟柱状图（越低越好，Top 15），单位 ms</text>
<text x="10" y="46" class="label">rockstargames.com</text>
<rect x="180" y="30" width="258.22" height="22" fill="#4c78a8" rx="3"/>
<text x="446.22" y="46" class="value">105.58</text>
<text x="10" y="78" class="label">community.akamai.steamstatic.com</text>
<rect x="180" y="62" width="334.57" height="22" fill="#4c78a8" rx="3"/>
<text x="522.5699999999999" y="78" class="value">136.80</text>
<text x="10" y="110" class="label">ubisoft.com</text>
<rect x="180" y="94" width="348.78" height="22" fill="#4c78a8" rx="3"/>
<text x="536.78" y="110" class="value">142.61</text>
<text x="10" y="142" class="label">api.steampowered.com</text>
<rect x="180" y="126" width="403.59" height="22" fill="#4c78a8" rx="3"/>
<text x="591.5899999999999" y="142" class="value">165.02</text>
<text x="10" y="174" class="label">steamcdn-a.akamaihd.net</text>
<rect x="180" y="158" width="408.92" height="22" fill="#4c78a8" rx="3"/>
<text x="596.9200000000001" y="174" class="value">167.20</text>
<text x="10" y="206" class="label">easyanticheat.net</text>
<rect x="180" y="190" width="410.17" height="22" fill="#4c78a8" rx="3"/>
<text x="598.1700000000001" y="206" class="value">167.71</text>
<text x="10" y="238" class="label">eaassets-a.akamaihd.net</text>
<rect x="180" y="222" width="479.48" height="22" fill="#4c78a8" rx="3"/>
<text x="667.48" y="238" class="value">196.05</text>
<text x="10" y="270" class="label">launcher-public-service-prod06.ol.epicgames.com</text>
<rect x="180" y="254" width="515.46" height="22" fill="#4c78a8" rx="3"/>
<text x="703.46" y="270" class="value">210.76</text>
<text x="10" y="302" class="label">cdn.akamai.steamstatic.com</text>
<rect x="180" y="286" width="546.57" height="22" fill="#4c78a8" rx="3"/>
<text x="734.57" y="302" class="value">223.48</text>
<text x="10" y="334" class="label">ubi.com</text>
<rect x="180" y="318" width="554.08" height="22" fill="#4c78a8" rx="3"/>
<text x="742.08" y="334" class="value">226.55</text>
<text x="10" y="366" class="label">origin.com</text>
<rect x="180" y="350" width="559.14" height="22" fill="#4c78a8" rx="3"/>
<text x="747.14" y="366" class="value">228.62</text>
<text x="10" y="398" class="label">store.akamai.steamstatic.com</text>
<rect x="180" y="382" width="559.95" height="22" fill="#4c78a8" rx="3"/>
<text x="747.95" y="398" class="value">228.95</text>
<text x="10" y="430" class="label">ea.com</text>
<rect x="180" y="414" width="564.2" height="22" fill="#4c78a8" rx="3"/>
<text x="752.2" y="430" class="value">230.69</text>
<text x="10" y="462" class="label">www.steamcommunity.com</text>
<rect x="180" y="446" width="568.8" height="22" fill="#4c78a8" rx="3"/>
<text x="756.8" y="462" class="value">232.57</text>
<text x="10" y="494" class="label">fortnite.com</text>
<rect x="180" y="478" width="580.0" height="22" fill="#4c78a8" rx="3"/>
<text x="768.0" y="494" class="value">237.15</text>
<line x1="180" y1="30" x2="180" y2="520" stroke="#ccc"/>
<line x1="180" y1="520" x2="760" y2="520" stroke="#ccc"/>
</svg>