<svg xmlns="http://www.w3.org/2000/svg" width="800" height="540">
<style> .label{font-family:DejaVu Sans,Verdana,Geneva,sans-serif;font-size:12px;fill:#333} .value{font-family:DejaVu Sans,Verdana,Geneva,sans-serif;font-size:12px;fill:#555} </style>
<text x="10" y="20" class="label">延迟柱状图（越低越好，Top 15），单位 ms</text>
<text x="10" y="46" class="label">rockstargames.com</text>
<rect x="180" y="30" width="181.15" height="22" fill="#4c78a8" rx="3"/>
<text x="369.15" y="46" class="value">70.00</text>
<text x="10" y="78" class="label">blizzard.com</text>
<rect x="180" y="62" width="206.36" height="22" fill="#4c78a8" rx="3"/>
<text x="394.36" y="78" class="value">79.74</text>
<text x="10" y="110" class="label">socialclub.rockstargames.com</text>
<rect x="180" y="94" width="241.5" height="22" fill="#4c78a8" rx="3"/>
<text x="429.5" y="110" class="value">93.32</text>
<text x="10" y="142" class="label">ea.com</text>
<rect x="180" y="126" width="276.59" height="22" fill="#4c78a8" rx="3"/>
<text x="464.59" y="142" class="value">106.88</text>
<text x="10" y="174" class="label">eaassets-a.akamaihd.net</text>
<rect x="180" y="158" width="301.93" height="22" fill="#4c78a8" rx="3"/>
<text x="489.93" y="174" class="value">116.67</text>
<text x="10" y="206" class="label">ubisoft.com</text>
<rect x="180" y="190" width="327.55" height="22" fill="#4c78a8" rx="3"/>
<text x="515.55" y="206" class="value">126.57</text>
<text x="10" y="238" class="label">ubi.com</text>
<rect x="180" y="222" width="334.72" height="22" fill="#4c78a8" rx="3"/>
<text x="522.72" y="238" class="value">129.34</text>
<text x="10" y="270" class="label">epicgames.com</text>
<rect x="180" y="254" width="338.26" height="22" fill="#4c78a8" rx="3"/>
<text x="526.26" y="270" class="value">130.71</text>
<text x="10" y="302" class="label">battle.net</text>
<rect x="180" y="286" width="343.91" height="22" fill="#4c78a8" rx="3"/>
<text x="531.9100000000001" y="302" class="value">132.89</text>
<text x="10" y="334" class="label">unrealengine.com</text>
<rect x="180" y="318" width="352.26" height="22" fill="#4c78a8" rx="3"/>
<text x="540.26" y="334" class="value">136.12</text>
<text x="10" y="366" class="label">origin.com</text>
<rect x="180" y="350" width="407.85" height="22" fill="#4c78a8" rx="3"/>
<text x="595.85" y="366" class="value">157.60</text>
<text x="10" y="398" class="label">cdn.akamai.steamstatic.com</text>
<rect x="180" y="382" width="468.18" height="22" fill="#4c78a8" rx="3"/>
<text x="656.1800000000001" y="398" class="value">180.91</text>
<text x="10" y="430" class="label">fortnite.com</text>
<rect x="180" y="414" width="528.81" height="22" fill="#4c78a8" rx="3"/>
<text x="716.81" y="430" class="value">204.34</text>
<text x="10" y="462" class="label">cdn.cloudflare.steamstatic.com</text>
<rect x="180" y="446" width="547.73" height="22" fill="#4c78a8" rx="3"/>
<text x="735.73" y="462" class="value">211.65</text>
<text x="10" y="494" class="label">static3.cdn.ubi.com</text>
<rect x="180" y="478" width="580.0" height="22" fill="#4c78a8" rx="3"/>
<text x="768.0" y="494" class="value">224.12</text>
<line x1="180" y1="30" x2="180" y2="520" stroke="#ccc"/>
<line x1="180" y1="520" x2="760" y2="520" stroke="#ccc"/>
</svg>