<svg xmlns="http://www.w3.org/2000/svg" width="800" height="540">
<style> .label{font-family:DejaVu Sans,Verdana,Geneva,sans-serif;font-size:12px;fill:#333} .value{font-family:DejaVu Sans,Verdana,Geneva,sans-serif;font-size:12px;fill:#555} </style>
<text x="10" y="20" class="label">延迟柱状图（越低越好，Top 15），单位 ms</text>
<text x="10" y="46" class="label">store.akamai.steamstatic.com</text>
<rect x="180" y="30" width="232.58" height="22" fill="#4c78a8" rx="3"/>
<text x="420.58000000000004" y="46" class="value">93.57</text>
<text x="10" y="78" class="label">steamcdn-a.akamaihd.net</text>
<rect x="180" y="62" width="325.4" height="22" fill="#4c78a8" rx="3"/>
<text x="513.4" y="78" class="value">130.91</text>
<text x="10" y="110" class="label">cdn.akamai.steamstatic.com</text>
<rect x="180" y="94" width="326.44" height="22" fill="#4c78a8" rx="3"/>
<text x="514.44" y="110" class="value">131.33</text>
<text x="10" y="142" class="label">easyanticheat.net</text>
<rect x="180" y="126" width="340.46" height="22" fill="#4c78a8" rx="3"/>
<text x="528.46" y="142" class="value">136.97</text>
<text x="10" y="174" class="label">rockstargames.com</text>
<rect x="180" y="158" width="359.65" height="22" fill="#4c78a8" rx="3"/>
<text x="547.65" y="174" class="value">144.69</text>
<text x="10" y="206" class="label">eaassets-a.akamaihd.net</text>
<rect x="180" y="190" width="379.61" height="22" fill="#4c78a8" rx="3"/>
<text x="567.61" y="206" class="value">152.72</text>
<text x="10" y="238" class="label">ea.com</text>
<rect x="180" y="222" width="404.76" height="22" fill="#4c78a8" rx="3"/>
<text x="592.76" y="238" class="value">162.84</text>
<text x="10" y="270" class="label">ubisoft.com</text>
<rect x="180" y="254" width="422.16" height="22" fill="#4c78a8" rx="3"/>
<text x="610.1600000000001" y="270" class="value">169.84</text>
<text x="10" y="302" class="label">ubi.com</text>
<rect x="180" y="286" width="422.31" height="22" fill="#4c78a8" rx="3"/>
<text x="610.31" y="302" class="value">169.90</text>
<text x="10" y="334" class="label">community.akamai.steamstatic.com</text>
<rect x="180" y="318" width="434.59" height="22" fill="#4c78a8" rx="3"/>
<text x="622.5899999999999" y="334" class="value">174.84</text>
<text x="10" y="366" class="label">battle.net</text>
<rect x="180" y="350" width="436.3" height="22" fill="#4c78a8" rx="3"/>
<text x="624.3" y="366" class="value">175.53</text>
<text x="10" y="398" class="label">launcher-public-service-prod06.ol.epicgames.com</text>
<rect x="180" y="382" width="468.52" height="22" fill="#4c78a8" rx="3"/>
<text x="656.52" y="398" class="value">188.49</text>
<text x="10" y="430" class="label">blizzard.com</text>
<rect x="180" y="414" width="470.58" height="22" fill="#4c78a8" rx="3"/>
<text x="658.5799999999999" y="430" class="value">189.32</text>
<text x="10" y="462" class="label">socialclub.rockstargames.com</text>
<rect x="180" y="446" width="521.94" height="22" fill="#4c78a8" rx="3"/>
<text x="709.94" y="462" class="value">209.98</text>
<text x="10" y="494" class="label">fortnite.com</text>
<rect x="180" y="478" width="580.0" height="22" fill="#4c78a8" rx="3"/>
<text x="768.0" y="494" class="value">233.34</text>
<line x1="180" y1="30" x2="180" y2="520" stroke="#ccc"/>
<line x1="180" y1="520" x2="760" y2="520" stroke="#ccc"/>
</svg>