<svg xmlns="http://www.w3.org/2000/svg" width="800" height="540">
<style> .label{font-family:DejaVu Sans,Verdana,Geneva,sans-serif;font-size:12px;fill:#333} .value{font-family:DejaVu Sans,Verdana,Geneva,sans-serif;font-size:12px;fill:#555} </style>
<text x="10" y="20" class="label">延迟柱状图（越低越好，Top 15），单位 ms</text>
<text x="10" y="46" class="label">rockstargames.com</text>
<rect x="180" y="30" width="132.85" height="22" fill="#4c78a8" rx="3"/>
<text x="320.85" y="46" class="value">48.61</text>
<text x="10" y="78" class="label">eaassets-a.akamaihd.net</text>
<rect x="180" y="62" width="169.69" height="22" fill="#4c78a8" rx="3"/>
<text x="357.69" y="78" class="value">62.09</text>
<text x="10" y="110" class="label">socialclub.rockstargames.com</text>
<rect x="180" y="94" width="189.26" height="22" fill="#4c78a8" rx="3"/>
<text x="377.26" y="110" class="value">69.25</text>
<text x="10" y="142" class="label">blizzard.com</text>
<rect x="180" y="126" width="259.12" height="22" fill="#4c78a8" rx="3"/>
<text x="447.12" y="142" class="value">94.81</text>
<text x="10" y="174" class="label">battle.net</text>
<rect x="180" y="158" width="261.77" height="22" fill="#4c78a8" rx="3"/>
<text x="449.77" y="174" class="value">95.78</text>
<text x="10" y="206" class="label">ubi.com</text>
<rect x="180" y="190" width="307.27" height="22" fill="#4c78a8" rx="3"/>
<text x="495.27" y="206" class="value">112.43</text>
<text x="10" y="238" class="label">community.akamai.steamstatic.com</text>
<rect x="180" y="222" width="340.18" height="22" fill="#4c78a8" rx="3"/>
<text x="528.1800000000001" y="238" class="value">124.47</text>
<text x="10" y="270" class="label">ea.com</text>
<rect x="180" y="254" width="341.24" height="22" fill="#4c78a8" rx="3"/>
<text x="529.24" y="270" class="value">124.86</text>
<text x="10" y="302" class="label">static3.cdn.ubi.com</text>
<rect x="180" y="286" width="384.26" height="22" fill="#4c78a8" rx="3"/>
<text x="572.26" y="302" class="value">140.60</text>
<text x="10" y="334" class="label">store.akamai.steamstatic.com</text>
<rect x="180" y="318" width="462.32" height="22" fill="#4c78a8" rx="3"/>
<text x="650.3199999999999" y="334" class="value">169.16</text>
<text x="10" y="366" class="label">origin.com</text>
<rect x="180" y="350" width="515.01" height="22" fill="#4c78a8" rx="3"/>
<text x="703.01" y="366" class="value">188.44</text>
<text x="10" y="398" class="label">ubisoft.com</text>
<rect x="180" y="382" width="553.54" height="22" fill="#4c78a8" rx="3"/>
<text x="741.54" y="398" class="value">202.54</text>
<text x="10" y="430" class="label">unrealengine.com</text>
<rect x="180" y="414" width="558.96" height="22" fill="#4c78a8" rx="3"/>
<text x="746.96" y="430" class="value">204.52</text>
<text x="10" y="462" class="label">epicgames.com</text>
<rect x="180" y="446" width="572.48" height="22" fill="#4c78a8" rx="3"/>
<text x="760.48" y="462" class="value">209.47</text>
<text x="10" y="494" class="label">cdn.cloudflare.steamstatic.com</text>
<rect x="180" y="478" width="580.0" height="22" fill="#4c78a8" rx="3"/>
<text x="768.0" y="494" class="value">212.22</text>
<line x1="180" y1="30" x2="180" y2="520" stroke="#ccc"/>
<line x1="180" y1="520" x2="760" y2="520" stroke="#ccc"/>
</svg>