<svg xmlns="http://www.w3.org/2000/svg" width="800" height="540">
<style> .label{font-family:DejaVu Sans,Verdana,Geneva,sans-serif;font-size:12px;fill:#333} .value{font-family:DejaVu Sans,Verdana,Geneva,sans-serif;font-size:12px;fill:#555} </style>
<text x="10" y="20" class="label">延迟柱状图（越低越好，Top 15），单位 ms</text>
<text x="10" y="46" class="label">eaassets-a.akamaihd.net</text>
<rect x="180" y="30" width="211.88" height="22" fill="#4c78a8" rx="3"/>
<text x="399.88" y="46" class="value">97.85</text>
<text x="10" y="78" class="label">rockstargames.com</text>
<rect x="180" y="62" width="294.38" height="22" fill="#4c78a8" rx="3"/>
<text x="482.38" y="78" class="value">135.95</text>
<text x="10" y="110" class="label">steamcdn-a.akamaihd.net</text>
<rect x="180" y="94" width="329.64" height="22" fill="#4c78a8" rx="3"/>
<text x="517.64" y="110" class="value">152.23</text>
<text x="10" y="142" class="label">blizzard.com</text>
<rect x="180" y="126" width="350.38" height="22" fill="#4c78a8" rx="3"/>
<text x="538.38" y="142" class="value">161.81</text>
<text x="10" y="174" class="label">ea.com</text>
<rect x="180" y="158" width="355.67" height="22" fill="#4c78a8" rx="3"/>
<text x="543.6700000000001" y="174" class="value">164.25</text>
<text x="10" y="206" class="label">battle.net</text>
<rect x="180" y="190" width="362.16" height="22" fill="#4c78a8" rx="3"/>
<text x="550.1600000000001" y="206" class="value">167.25</text>
<text x="10" y="238" class="label">community.akamai.steamstatic.com</text>
<rect x="180" y="222" width="380.35" height="22" fill="#4c78a8" rx="3"/>
<text x="568.35" y="238" class="value">175.65</text>
<text x="10" y="270" class="label">ubi.com</text>
<rect x="180" y="254" width="388.23" height="22" fill="#4c78a8" rx="3"/>
<text x="576.23" y="270" class="value">179.29</text>
<text x="10" y="302" class="label">easyanticheat.net</text>
<rect x="180" y="286" width="416.14" height="22" fill="#4c78a8" rx="3"/>
<text x="604.14" y="302" class="value">192.18</text>
<text x="10" y="334" class="label">socialclub.rockstargames.com</text>
<rect x="180" y="318" width="418.57" height="22" fill="#4c78a8" rx="3"/>
<text x="606.5699999999999" y="334" class="value">193.30</text>
<text x="10" y="366" class="label">api.steampowered.com</text>
<rect x="180" y="350" width="465.58" height="22" fill="#4c78a8" rx="3"/>
<text x="653.5799999999999" y="366" class="value">215.01</text>
<text x="10" y="398" class="label">ubisoft.com</text>
<rect x="180" y="382" width="483.9" height="22" fill="#4c78a8" rx="3"/>
<text x="671.9" y="398" class="value">223.47</text>
<text x="10" y="430" class="label">store.akamai.steamstatic.com</text>
<rect x="180" y="414" width="522.14" height="22" fill="#4c78a8" rx="3"/>
<text x="710.14" y="430" class="value">241.13</text>
<text x="10" y="462" class="label">www.steamcommunity.com</text>
<rect x="180" y="446" width="577.36" height="22" fill="#4c78a8" rx="3"/>
<text x="765.36" y="462" class="value">266.63</text>
<text x="10" y="494" class="label">origin.com</text>
<rect x="180" y="478" width="580.0" height="22" fill="#4c78a8" rx="3"/>
<text x="768.0" y="494" class="value">267.85</text>
<line x1="180" y1="30" x2="180" y2="520" stroke="#ccc"/>
<line x1="180" y1="520" x2="760" y2="520" stroke="#ccc"/>
</svg>