<svg xmlns="http://www.w3.org/2000/svg" width="800" height="540">
<style> .label{font-family:DejaVu Sans,Verdana,Geneva,sans-serif;font-size:12px;fill:#333} .value{font-family:DejaVu Sans,Verdana,Geneva,sans-serif;font-size:12px;fill:#555} </style>
<text x="10" y="20" class="label">延迟柱状图（越低越好，Top 15），单位 ms</text>
<text x="10" y="46" class="label">rockstargames.com</text>
<rect x="180" y="30" width="263.65" height="22" fill="#4c78a8" rx="3"/>
<text x="451.65" y="46" class="value">126.90</text>
<text x="10" y="78" class="label">ubisoft.com</text>
<rect x="180" y="62" width="279.77" height="22" fill="#4c78a8" rx="3"/>
<text x="467.77" y="78" class="value">134.66</text>
<text x="10" y="110" class="label">community.akamai.steamstatic.com</text>
<rect x="180" y="94" width="285.63" height="22" fill="#4c78a8" rx="3"/>
<text x="473.63" y="110" class="value">137.48</text>
<text x="10" y="142" class="label">eaassets-a.akamaihd.net</text>
<rect x="180" y="126" width="336.17" height="22" fill="#4c78a8" rx="3"/>
<text x="524.1700000000001" y="142" class="value">161.81</text>
<text x="10" y="174" class="label">easyanticheat.net</text>
<rect x="180" y="158" width="366.3" height="22" fill="#4c78a8" rx="3"/>
<text x="554.3" y="174" class="value">176.31</text>
<text x="10" y="206" class="label">battle.net</text>
<rect x="180" y="190" width="466.98" height="22" fill="#4c78a8" rx="3"/>
<text x="654.98" y="206" class="value">224.77</text>
<text x="10" y="238" class="label">ubi.com</text>
<rect x="180" y="222" width="475.12" height="22" fill="#4c78a8" rx="3"/>
<text x="663.12" y="238" class="value">228.69</text>
<text x="10" y="270" class="label">steamcdn-a.akamaihd.net</text>
<rect x="180" y="254" width="475.73" height="22" fill="#4c78a8" rx="3"/>
<text x="663.73" y="270" class="value">228.98</text>
<text x="10" y="302" class="label">blizzard.com</text>
<rect x="180" y="286" width="476.91" height="22" fill="#4c78a8" rx="3"/>
<text x="664.9100000000001" y="302" class="value">229.55</text>
<text x="10" y="334" class="label">ea.com</text>
<rect x="180" y="318" width="502.17" height="22" fill="#4c78a8" rx="3"/>
<text x="690.1700000000001" y="334" class="value">241.71</text>
<text x="10" y="366" class="label">origin.com</text>
<rect x="180" y="350" width="503.42" height="22" fill="#4c78a8" rx="3"/>
<text x="691.4200000000001" y="366" class="value">242.31</text>
<text x="10" y="398" class="label">socialclub.rockstargames.com</text>
<rect x="180" y="382" width="521.97" height="22" fill="#4c78a8" rx="3"/>
<text x="709.97" y="398" class="value">251.24</text>
<text x="10" y="430" class="label">cdn.akamai.steamstatic.com</text>
<rect x="180" y="414" width="522.53" height="22" fill="#4c78a8" rx="3"/>
<text x="710.53" y="430" class="value">251.51</text>
<text x="10" y="462" class="label">store.akamai.steamstatic.com</text>
<rect x="180" y="446" width="571.42" height="22" fill="#4c78a8" rx="3"/>
<text x="759.42" y="462" class="value">275.04</text>
<text x="10" y="494" class="label">cdn.cloudflare.steamstatic.com</text>
<rect x="180" y="478" width="580.0" height="22" fill="#4c78a8" rx="3"/>
<text x="768.0" y="494" class="value">279.17</text>
<line x1="180" y1="30" x2="180" y2="520" stroke="#ccc"/>
<line x1="180" y1="520" x2="760" y2="520" stroke="#ccc"/>
</svg>