<svg xmlns="http://www.w3.org/2000/svg" width="800" height="540">
<style> .label{font-family:DejaVu Sans,Verdana,Geneva,sans-serif;font-size:12px;fill:#333} .value{font-family:DejaVu Sans,Verdana,Geneva,sans-serif;font-size:12px;fill:#555} </style>
<text x="10" y="20" class="label">延迟柱状图（越低越好，Top 15），单位 ms</text>
<text x="10" y="46" class="label">rockstargames.com</text>
<rect x="180" y="30" width="110.18" height="22" fill="#4c78a8" rx="3"/>
<text x="298.18" y="46" class="value">47.38</text>
<text x="10" y="78" class="label">eaassets-a.akamaihd.net</text>
<rect x="180" y="62" width="120.2" height="22" fill="#4c78a8" rx="3"/>
<text x="308.2" y="78" class="value">51.69</text>
<text x="10" y="110" class="label">steamcdn-a.akamaihd.net</text>
<rect x="180" y="94" width="227.6" height="22" fill="#4c78a8" rx="3"/>
<text x="415.6" y="110" class="value">97.87</text>
<text x="10" y="142" class="label">ea.com</text>
<rect x="180" y="126" width="229.13" height="22" fill="#4c78a8" rx="3"/>
<text x="417.13" y="142" class="value">98.53</text>
<text x="10" y="174" class="label">cdn.cloudflare.steamstatic.com</text>
<rect x="180" y="158" width="317.94" height="22" fill="#4c78a8" rx="3"/>
<text x="505.94" y="174" class="value">136.72</text>
<text x="10" y="206" class="label">community.akamai.steamstatic.com</text>
<rect x="180" y="190" width="348.71" height="22" fill="#4c78a8" rx="3"/>
<text x="536.71" y="206" class="value">149.95</text>
<text x="10" y="238" class="label">store.akamai.steamstatic.com</text>
<rect x="180" y="222" width="350.89" height="22" fill="#4c78a8" rx="3"/>
<text x="538.89" y="238" class="value">150.89</text>
<text x="10" y="270" class="label">static3.cdn.ubi.com</text>
<rect x="180" y="254" width="354.45" height="22" fill="#4c78a8" rx="3"/>
<text x="542.45" y="270" class="value">152.42</text>
<text x="10" y="302" class="label">cdn.akamai.steamstatic.com</text>
<rect x="180" y="286" width="356.24" height="22" fill="#4c78a8" rx="3"/>
<text x="544.24" y="302" class="value">153.19</text>
<text x="10" y="334" class="label">easyanticheat.net</text>
<rect x="180" y="318" width="408.1" height="22" fill="#4c78a8" rx="3"/>
<text x="596.1" y="334" class="value">175.49</text>
<text x="10" y="366" class="label">steam-chat.com</text>
<rect x="180" y="350" width="503.28" height="22" fill="#4c78a8" rx="3"/>
<text x="691.28" y="366" class="value">216.42</text>
<text x="10" y="398" class="label">origin.com</text>
<rect x="180" y="382" width="510.61" height="22" fill="#4c78a8" rx="3"/>
<text x="698.61" y="398" class="value">219.57</text>
<text x="10" y="430" class="label">launcher-public-service-prod06.ol.epicgames.com</text>
<rect x="180" y="414" width="535.75" height="22" fill="#4c78a8" rx="3"/>
<text x="723.75" y="430" class="value">230.38</text>
<text x="10" y="462" class="label">api.steampowered.com</text>
<rect x="180" y="446" width="547.16" height="22" fill="#4c78a8" rx="3"/>
<text x="735.16" y="462" class="value">235.29</text>
<text x="10" y="494" class="label">ubisoft.com</text>
<rect x="180" y="478" width="580.0" height="22" fill="#4c78a8" rx="3"/>
<text x="768.0" y="494" class="value">249.41</text>
<line x1="180" y1="30" x2="180" y2="520" stroke="#ccc"/>
<line x1="180" y1="520" x2="760" y2="520" stroke="#ccc"/>
</svg>