<svg xmlns="http://www.w3.org/2000/svg" width="800" height="540">
<style> .label{font-family:DejaVu Sans,Verdana,Geneva,sans-serif;font-size:12px;fill:#333} .value{font-family:DejaVu Sans,Verdana,Geneva,sans-serif;font-size:12px;fill:#555} </style>
<text x="10" y="20" class="label">延迟柱状图（越低越好，Top 15），单位 ms</text>
<text x="10" y="46" class="label">rockstargames.com</text>
<rect x="180" y="30" width="66.48" height="22" fill="#4c78a8" rx="3"/>
<text x="254.48000000000002" y="46" class="value">31.35</text>
<text x="10" y="78" class="label">ea.com</text>
<rect x="180" y="62" width="148.79" height="22" fill="#4c78a8" rx="3"/>
<text x="336.78999999999996" y="78" class="value">70.16</text>
<text x="10" y="110" class="label">eaassets-a.akamaihd.net</text>
<rect x="180" y="94" width="158.46" height="22" fill="#4c78a8" rx="3"/>
<text x="346.46000000000004" y="110" class="value">74.72</text>
<text x="10" y="142" class="label">steamcdn-a.akamaihd.net</text>
<rect x="180" y="126" width="248.8" height="22" fill="#4c78a8" rx="3"/>
<text x="436.8" y="142" class="value">117.32</text>
<text x="10" y="174" class="label">origin.com</text>
<rect x="180" y="158" width="257.66" height="22" fill="#4c78a8" rx="3"/>
<text x="445.66" y="174" class="value">121.50</text>
<text x="10" y="206" class="label">easyanticheat.net</text>
<rect x="180" y="190" width="307.28" height="22" fill="#4c78a8" rx="3"/>
<text x="495.28" y="206" class="value">144.90</text>
<text x="10" y="238" class="label">ubisoft.com</text>
<rect x="180" y="222" width="323.91" height="22" fill="#4c78a8" rx="3"/>
<text x="511.91" y="238" class="value">152.74</text>
<text x="10" y="270" class="label">cdn.cloudflare.steamstatic.com</text>
<rect x="180" y="254" width="327.85" height="22" fill="#4c78a8" rx="3"/>
<text x="515.85" y="270" class="value">154.60</text>
<text x="10" y="302" class="label">community.akamai.steamstatic.com</text>
<rect x="180" y="286" width="335.53" height="22" fill="#4c78a8" rx="3"/>
<text x="523.53" y="302" class="value">158.22</text>
<text x="10" y="334" class="label">cdn.akamai.steamstatic.com</text>
<rect x="180" y="318" width="457.64" height="22" fill="#4c78a8" rx="3"/>
<text x="645.64" y="334" class="value">215.80</text>
<text x="10" y="366" class="label">www.steamcommunity.com</text>
<rect x="180" y="350" width="505.63" height="22" fill="#4c78a8" rx="3"/>
<text x="693.63" y="366" class="value">238.43</text>
<text x="10" y="398" class="label">api.steampowered.com</text>
<rect x="180" y="382" width="508.56" height="22" fill="#4c78a8" rx="3"/>
<text x="696.56" y="398" class="value">239.81</text>
<text x="10" y="430" class="label">store.akamai.steamstatic.com</text>
<rect x="180" y="414" width="509.53" height="22" fill="#4c78a8" rx="3"/>
<text x="697.53" y="430" class="value">240.27</text>
<text x="10" y="462" class="label">launcher-public-service-prod06.ol.epicgames.com</text>
<rect x="180" y="446" width="539.5" height="22" fill="#4c78a8" rx="3"/>
<text x="727.5" y="462" class="value">254.40</text>
<text x="10" y="494" class="label">steam-chat.com</text>
<rect x="180" y="478" width="580.0" height="22" fill="#4c78a8" rx="3"/>
<text x="768.0" y="494" class="value">273.50</text>
<line x1="180" y1="30" x2="180" y2="520" stroke="#ccc"/>
<line x1="180" y1="520" x2="760" y2="520" stroke="#ccc"/>
</svg>