<svg xmlns="http://www.w3.org/2000/svg" width="800" height="540">
<style> .label{font-family:DejaVu Sans,Verdana,Geneva,sans-serif;font-size:12px;fill:#333} .value{font-family:DejaVu Sans,Verdana,Geneva,sans-serif;font-size:12px;fill:#555} </style>
<text x="10" y="20" class="label">延迟柱状图（越低越好，Top 15），单位 ms</text>
<text x="10" y="46" class="label">rockstargames.com</text>
<rect x="180" y="30" width="158.04" height="22" fill="#4c78a8" rx="3"/>
<text x="346.03999999999996" y="46" class="value">49.72</text>
<text x="10" y="78" class="label">epicgames.com</text>
<rect x="180" y="62" width="245.13" height="22" fill="#4c78a8" rx="3"/>
<text x="433.13" y="78" class="value">77.12</text>
<text x="10" y="110" class="label">blizzard.com</text>
<rect x="180" y="94" width="267.13" height="22" fill="#4c78a8" rx="3"/>
<text x="455.13" y="110" class="value">84.04</text>
<text x="10" y="142" class="label">battle.net</text>
<rect x="180" y="126" width="271.8" height="22" fill="#4c78a8" rx="3"/>
<text x="459.8" y="142" class="value">85.51</text>
<text x="10" y="174" class="label">socialclub.rockstargames.com</text>
<rect x="180" y="158" width="295.99" height="22" fill="#4c78a8" rx="3"/>
<text x="483.99" y="174" class="value">93.12</text>
<text x="10" y="206" class="label">ubi.com</text>
<rect x="180" y="190" width="303.52" height="22" fill="#4c78a8" rx="3"/>
<text x="491.52" y="206" class="value">95.49</text>
<text x="10" y="238" class="label">eaassets-a.akamaihd.net</text>
<rect x="180" y="222" width="391.48" height="22" fill="#4c78a8" rx="3"/>
<text x="579.48" y="238" class="value">123.16</text>
<text x="10" y="270" class="label">unrealengine.com</text>
<rect x="180" y="254" width="440.27" height="22" fill="#4c78a8" rx="3"/>
<text x="628.27" y="270" class="value">138.51</text>
<text x="10" y="302" class="label">origin.com</text>
<rect x="180" y="286" width="445.2" height="22" fill="#4c78a8" rx="3"/>
<text x="633.2" y="302" class="value">140.06</text>
<text x="10" y="334" class="label">cdn.akamai.steamstatic.com</text>
<rect x="180" y="318" width="474.18" height="22" fill="#4c78a8" rx="3"/>
<text x="662.1800000000001" y="334" class="value">149.18</text>
<text x="10" y="366" class="label">ea.com</text>
<rect x="180" y="350" width="478.35" height="22" fill="#4c78a8" rx="3"/>
<text x="666.35" y="366" class="value">150.49</text>
<text x="10" y="398" class="label">ubisoft.com</text>
<rect x="180" y="382" width="496.08" height="22" fill="#4c78a8" rx="3"/>
<text x="684.0799999999999" y="398" class="value">156.07</text>
<text x="10" y="430" class="label">fortnite.com</text>
<rect x="180" y="414" width="540.93" height="22" fill="#4c78a8" rx="3"/>
<text x="728.93" y="430" class="value">170.18</text>
<text x="10" y="462" class="label">cdn.cloudflare.steamstatic.com</text>
<rect x="180" y="446" width="551.87" height="22" fill="#4c78a8" rx="3"/>
<text x="739.87" y="462" class="value">173.62</text>
<text x="10" y="494" class="label">community.akamai.steamstatic.com</text>
<rect x="180" y="478" width="580.0" height="22" fill="#4c78a8" rx="3"/>
<text x="768.0" y="494" class="value">182.47</text>
<line x1="180" y1="30" x2="180" y2="520" stroke="#ccc"/>
<line x1="180" y1="520" x2="760" y2="520" stroke="#ccc"/>
</svg>