<svg xmlns="http://www.w3.org/2000/svg" width="800" height="540">
<style> .label{font-family:DejaVu Sans,Verdana,Geneva,sans-serif;font-size:12px;fill:#333} .value{font-family:DejaVu Sans,Verdana,Geneva,sans-serif;font-size:12px;fill:#555} </style>
<text x="10" y="20" class="label">延迟柱状图（越低越好，Top 15），单位 ms</text>
<text x="10" y="46" class="label">eaassets-a.akamaihd.net</text>
<rect x="180" y="30" width="150.26" height="22" fill="#4c78a8" rx="3"/>
<text x="338.26" y="46" class="value">49.51</text>
<text x="10" y="78" class="label">rockstargames.com</text>
<rect x="180" y="62" width="250.41" height="22" fill="#4c78a8" rx="3"/>
<text x="438.40999999999997" y="78" class="value">82.51</text>
<text x="10" y="110" class="label">ea.com</text>
<rect x="180" y="94" width="323.92" height="22" fill="#4c78a8" rx="3"/>
<text x="511.92" y="110" class="value">106.73</text>
<text x="10" y="142" class="label">steamcdn-a.akamaihd.net</text>
<rect x="180" y="126" width="372.59" height="22" fill="#4c78a8" rx="3"/>
<text x="560.5899999999999" y="142" class="value">122.77</text>
<text x="10" y="174" class="label">origin.com</text>
<rect x="180" y="158" width="391.56" height="22" fill="#4c78a8" rx="3"/>
<text x="579.56" y="174" class="value">129.02</text>
<text x="10" y="206" class="label">battle.net</text>
<rect x="180" y="190" width="428.71" height="22" fill="#4c78a8" rx="3"/>
<text x="616.71" y="206" class="value">141.26</text>
<text x="10" y="238" class="label">cdn.cloudflare.steamstatic.com</text>
<rect x="180" y="222" width="428.77" height="22" fill="#4c78a8" rx="3"/>
<text x="616.77" y="238" class="value">141.28</text>
<text x="10" y="270" class="label">blizzard.com</text>
<rect x="180" y="254" width="433.32" height="22" fill="#4c78a8" rx="3"/>
<text x="621.3199999999999" y="270" class="value">142.78</text>
<text x="10" y="302" class="label">ubi.com</text>
<rect x="180" y="286" width="458.94" height="22" fill="#4c78a8" rx="3"/>
<text x="646.94" y="302" class="value">151.22</text>
<text x="10" y="334" class="label">socialclub.rockstargames.com</text>
<rect x="180" y="318" width="465.58" height="22" fill="#4c78a8" rx="3"/>
<text x="653.5799999999999" y="334" class="value">153.41</text>
<text x="10" y="366" class="label">community.akamai.steamstatic.com</text>
<rect x="180" y="350" width="466.98" height="22" fill="#4c78a8" rx="3"/>
<text x="654.98" y="366" class="value">153.87</text>
<text x="10" y="398" class="label">static3.cdn.ubi.com</text>
<rect x="180" y="382" width="520.91" height="22" fill="#4c78a8" rx="3"/>
<text x="708.91" y="398" class="value">171.64</text>
<text x="10" y="430" class="label">fortnite.com</text>
<rect x="180" y="414" width="530.47" height="22" fill="#4c78a8" rx="3"/>
<text x="718.47" y="430" class="value">174.79</text>
<text x="10" y="462" class="label">ubisoft.com</text>
<rect x="180" y="446" width="576.93" height="22" fill="#4c78a8" rx="3"/>
<text x="764.93" y="462" class="value">190.10</text>
<text x="10" y="494" class="label">cdn.akamai.steamstatic.com</text>
<rect x="180" y="478" width="580.0" height="22" fill="#4c78a8" rx="3"/>
<text x="768.0" y="494" class="value">191.11</text>
<line x1="180" y1="30" x2="180" y2="520" stroke="#ccc"/>
<line x1="180" y1="520" x2="760" y2="520" stroke="#ccc"/>
</svg>