<svg xmlns="http://www.w3.org/2000/svg" width="800" height="540">
<style> .label{font-family:DejaVu Sans,Verdana,Geneva,sans-serif;font-size:12px;fill:#333} .value{font-family:DejaVu Sans,Verdana,Geneva,sans-serif;font-size:12px;fill:#555} </style>
<text x="10" y="20" class="label">延迟柱状图（越低越好，Top 15），单位 ms</text>
<text x="10" y="46" class="label">rockstargames.com</text>
<rect x="180" y="30" width="128.05" height="22" fill="#4c78a8" rx="3"/>
<text x="316.05" y="46" class="value">49.76</text>
<text x="10" y="78" class="label">battle.net</text>
<rect x="180" y="62" width="215.52" height="22" fill="#4c78a8" rx="3"/>
<text x="403.52" y="78" class="value">83.75</text>
<text x="10" y="110" class="label">blizzard.com</text>
<rect x="180" y="94" width="226.33" height="22" fill="#4c78a8" rx="3"/>
<text x="414.33000000000004" y="110" class="value">87.95</text>
<text x="10" y="142" class="label">eaassets-a.akamaihd.net</text>
<rect x="180" y="126" width="264.5" height="22" fill="#4c78a8" rx="3"/>
<text x="452.5" y="142" class="value">102.78</text>
<text x="10" y="174" class="label">cdn.akamai.steamstatic.com</text>
<rect x="180" y="158" width="290.64" height="22" fill="#4c78a8" rx="3"/>
<text x="478.64" y="174" class="value">112.94</text>
<text x="10" y="206" class="label">socialclub.rockstargames.com</text>
<rect x="180" y="190" width="305.75" height="22" fill="#4c78a8" rx="3"/>
<text x="493.75" y="206" class="value">118.81</text>
<text x="10" y="238" class="label">ea.com</text>
<rect x="180" y="222" width="337.61" height="22" fill="#4c78a8" rx="3"/>
<text x="525.61" y="238" class="value">131.19</text>
<text x="10" y="270" class="label">ubisoft.com</text>
<rect x="180" y="254" width="364.58" height="22" fill="#4c78a8" rx="3"/>
<text x="552.5799999999999" y="270" class="value">141.67</text>
<text x="10" y="302" class="label">ubi.com</text>
<rect x="180" y="286" width="396.13" height="22" fill="#4c78a8" rx="3"/>
<text x="584.13" y="302" class="value">153.93</text>
<text x="10" y="334" class="label">cdn.cloudflare.steamstatic.com</text>
<rect x="180" y="318" width="425.23" height="22" fill="#4c78a8" rx="3"/>
<text x="613.23" y="334" class="value">165.24</text>
<text x="10" y="366" class="label">unrealengine.com</text>
<rect x="180" y="350" width="443.09" height="22" fill="#4c78a8" rx="3"/>
<text x="631.0899999999999" y="366" class="value">172.18</text>
<text x="10" y="398" class="label">fortnite.com</text>
<rect x="180" y="382" width="450.56" height="22" fill="#4c78a8" rx="3"/>
<text x="638.56" y="398" class="value">175.08</text>
<text x="10" y="430" class="label">epicgames.com</text>
<rect x="180" y="414" width="523.77" height="22" fill="#4c78a8" rx="3"/>
<text x="711.77" y="430" class="value">203.53</text>
<text x="10" y="462" class="label">community.akamai.steamstatic.com</text>
<rect x="180" y="446" width="554.6" height="22" fill="#4c78a8" rx="3"/>
<text x="742.6" y="462" class="value">215.51</text>
<text x="10" y="494" class="label">origin.com</text>
<rect x="180" y="478" width="580.0" height="22" fill="#4c78a8" rx="3"/>
<text x="768.0" y="494" class="value">225.38</text>
<line x1="180" y1="30" x2="180" y2="520" stroke="#ccc"/>
<line x1="180" y1="520" x2="760" y2="520" stroke="#ccc"/>
</svg>