<svg xmlns="http://www.w3.org/2000/svg" width="800" height="540">
<style> .label{font-family:DejaVu Sans,Verdana,Geneva,sans-serif;font-size:12px;fill:#333} .value{font-family:DejaVu Sans,Verdana,Geneva,sans-serif;font-size:12px;fill:#555} </style>
<text x="10" y="20" class="label">延迟柱状图（越低越好，Top 15），单位 ms</text>
<text x="10" y="46" class="label">rockstargames.com</text>
<rect x="180" y="30" width="153.32" height="22" fill="#4c78a8" rx="3"/>
<text x="341.32" y="46" class="value">60.23</text>
<text x="10" y="78" class="label">battle.net</text>
<rect x="180" y="62" width="181.04" height="22" fill="#4c78a8" rx="3"/>
<text x="369.03999999999996" y="78" class="value">71.12</text>
<text x="10" y="110" class="label">socialclub.rockstargames.com</text>
<rect x="180" y="94" width="205.73" height="22" fill="#4c78a8" rx="3"/>
<text x="393.73" y="110" class="value">80.82</text>
<text x="10" y="142" class="label">eaassets-a.akamaihd.net</text>
<rect x="180" y="126" width="228.56" height="22" fill="#4c78a8" rx="3"/>
<text x="416.56" y="142" class="value">89.79</text>
<text x="10" y="174" class="label">epicgames.com</text>
<rect x="180" y="158" width="262.22" height="22" fill="#4c78a8" rx="3"/>
<text x="450.22" y="174" class="value">103.01</text>
<text x="10" y="206" class="label">blizzard.com</text>
<rect x="180" y="190" width="299.43" height="22" fill="#4c78a8" rx="3"/>
<text x="487.43" y="206" class="value">117.63</text>
<text x="10" y="238" class="label">unrealengine.com</text>
<rect x="180" y="222" width="304.06" height="22" fill="#4c78a8" rx="3"/>
<text x="492.06" y="238" class="value">119.45</text>
<text x="10" y="270" class="label">ubi.com</text>
<rect x="180" y="254" width="306.56" height="22" fill="#4c78a8" rx="3"/>
<text x="494.56" y="270" class="value">120.43</text>
<text x="10" y="302" class="label">ea.com</text>
<rect x="180" y="286" width="352.1" height="22" fill="#4c78a8" rx="3"/>
<text x="540.1" y="302" class="value">138.32</text>
<text x="10" y="334" class="label">community.akamai.steamstatic.com</text>
<rect x="180" y="318" width="374.09" height="22" fill="#4c78a8" rx="3"/>
<text x="562.0899999999999" y="334" class="value">146.96</text>
<text x="10" y="366" class="label">fortnite.com</text>
<rect x="180" y="350" width="415.48" height="22" fill="#4c78a8" rx="3"/>
<text x="603.48" y="366" class="value">163.22</text>
<text x="10" y="398" class="label">origin.com</text>
<rect x="180" y="382" width="466.29" height="22" fill="#4c78a8" rx="3"/>
<text x="654.29" y="398" class="value">183.18</text>
<text x="10" y="430" class="label">cdn.akamai.steamstatic.com</text>
<rect x="180" y="414" width="545.2" height="22" fill="#4c78a8" rx="3"/>
<text x="733.2" y="430" class="value">214.18</text>
<text x="10" y="462" class="label">ubisoft.com</text>
<rect x="180" y="446" width="546.88" height="22" fill="#4c78a8" rx="3"/>
<text x="734.88" y="462" class="value">214.84</text>
<text x="10" y="494" class="label">store.akamai.steamstatic.com</text>
<rect x="180" y="478" width="580.0" height="22" fill="#4c78a8" rx="3"/>
<text x="768.0" y="494" class="value">227.85</text>
<line x1="180" y1="30" x2="180" y2="520" stroke="#ccc"/>
<line x1="180" y1="520" x2="760" y2="520" stroke="#ccc"/>
</svg>