<svg xmlns="http://www.w3.org/2000/svg" width="800" height="540">
<style> .label{font-family:DejaVu Sans,Verdana,Geneva,sans-serif;font-size:12px;fill:#333} .value{font-family:DejaVu Sans,Verdana,Geneva,sans-serif;font-size:12px;fill:#555} </style>
<text x="10" y="20" class="label">延迟柱状图（越低越好，Top 15），单位 ms</text>
<text x="10" y="46" class="label">rockstargames.com</text>
<rect x="180" y="30" width="210.03" height="22" fill="#4c78a8" rx="3"/>
<text x="398.03" y="46" class="value">86.77</text>
<text x="10" y="78" class="label">ea.com</text>
<rect x="180" y="62" width="265.96" height="22" fill="#4c78a8" rx="3"/>
<text x="453.96" y="78" class="value">109.88</text>
<text x="10" y="110" class="label">eaassets-a.akamaihd.net</text>
<rect x="180" y="94" width="269.69" height="22" fill="#4c78a8" rx="3"/>
<text x="457.69" y="110" class="value">111.42</text>
<text x="10" y="142" class="label">steamcdn-a.akamaihd.net</text>
<rect x="180" y="126" width="292.44" height="22" fill="#4c78a8" rx="3"/>
<text x="480.44" y="142" class="value">120.82</text>
<text x="10" y="174" class="label">cdn.cloudflare.steamstatic.com</text>
<rect x="180" y="158" width="294.6" height="22" fill="#4c78a8" rx="3"/>
<text x="482.6" y="174" class="value">121.71</text>
<text x="10" y="206" class="label">store.akamai.steamstatic.com</text>
<rect x="180" y="190" width="306.56" height="22" fill="#4c78a8" rx="3"/>
<text x="494.56" y="206" class="value">126.65</text>
<text x="10" y="238" class="label">socialclub.rockstargames.com</text>
<rect x="180" y="222" width="333.86" height="22" fill="#4c78a8" rx="3"/>
<text x="521.86" y="238" class="value">137.93</text>
<text x="10" y="270" class="label">blizzard.com</text>
<rect x="180" y="254" width="348.62" height="22" fill="#4c78a8" rx="3"/>
<text x="536.62" y="270" class="value">144.03</text>
<text x="10" y="302" class="label">battle.net</text>
<rect x="180" y="286" width="379.12" height="22" fill="#4c78a8" rx="3"/>
<text x="567.12" y="302" class="value">156.63</text>
<text x="10" y="334" class="label">fortnite.com</text>
<rect x="180" y="318" width="404.32" height="22" fill="#4c78a8" rx="3"/>
<text x="592.3199999999999" y="334" class="value">167.04</text>
<text x="10" y="366" class="label">community.akamai.steamstatic.com</text>
<rect x="180" y="350" width="422.93" height="22" fill="#4c78a8" rx="3"/>
<text x="610.9300000000001" y="366" class="value">174.73</text>
<text x="10" y="398" class="label">ubi.com</text>
<rect x="180" y="382" width="424.53" height="22" fill="#4c78a8" rx="3"/>
<text x="612.53" y="398" class="value">175.39</text>
<text x="10" y="430" class="label">easyanticheat.net</text>
<rect x="180" y="414" width="478.56" height="22" fill="#4c78a8" rx="3"/>
<text x="666.56" y="430" class="value">197.71</text>
<text x="10" y="462" class="label">origin.com</text>
<rect x="180" y="446" width="513.32" height="22" fill="#4c78a8" rx="3"/>
<text x="701.32" y="462" class="value">212.07</text>
<text x="10" y="494" class="label">ubisoft.com</text>
<rect x="180" y="478" width="580.0" height="22" fill="#4c78a8" rx="3"/>
<text x="768.0" y="494" class="value">239.62</text>
<line x1="180" y1="30" x2="180" y2="520" stroke="#ccc"/>
<line x1="180" y1="520" x2="760" y2="520" stroke="#ccc"/>
</svg>