<svg xmlns="http://www.w3.org/2000/svg" width="800" height="540">
<style> .label{font-family:DejaVu Sans,Verdana,Geneva,sans-serif;font-size:12px;fill:#333} .value{font-family:DejaVu Sans,Verdana,Geneva,sans-serif;font-size:12px;fill:#555} </style>
<text x="10" y="20" class="label">延迟柱状图（越低越好，Top 15），单位 ms</text>
<text x="10" y="46" class="label">eaassets-a.akamaihd.net</text>
<rect x="180" y="30" width="267.14" height="22" fill="#4c78a8" rx="3"/>
<text x="455.14" y="46" class="value">115.58</text>
<text x="10" y="78" class="label">ubisoft.com</text>
<rect x="180" y="62" width="296.68" height="22" fill="#4c78a8" rx="3"/>
<text x="484.68" y="78" class="value">128.36</text>
<text x="10" y="110" class="label">cdn.akamai.steamstatic.com</text>
<rect x="180" y="94" width="353.42" height="22" fill="#4c78a8" rx="3"/>
<text x="541.4200000000001" y="110" class="value">152.91</text>
<text x="10" y="142" class="label">steamcdn-a.akamaihd.net</text>
<rect x="180" y="126" width="362.67" height="22" fill="#4c78a8" rx="3"/>
<text x="550.6700000000001" y="142" class="value">156.91</text>
<text x="10" y="174" class="label">ea.com</text>
<rect x="180" y="158" width="403.69" height="22" fill="#4c78a8" rx="3"/>
<text x="591.69" y="174" class="value">174.66</text>
<text x="10" y="206" class="label">easyanticheat.net</text>
<rect x="180" y="190" width="408.92" height="22" fill="#4c78a8" rx="3"/>
<text x="596.9200000000001" y="206" class="value">176.92</text>
<text x="10" y="238" class="label">rockstargames.com</text>
<rect x="180" y="222" width="441.41" height="22" fill="#4c78a8" rx="3"/>
<text x="629.4100000000001" y="238" class="value">190.98</text>
<text x="10" y="270" class="label">cdn.cloudflare.steamstatic.com</text>
<rect x="180" y="254" width="468.36" height="22" fill="#4c78a8" rx="3"/>
<text x="656.36" y="270" class="value">202.64</text>
<text x="10" y="302" class="label">ubi.com</text>
<rect x="180" y="286" width="506.8" height="22" fill="#4c78a8" rx="3"/>
<text x="694.8" y="302" class="value">219.27</text>
<text x="10" y="334" class="label">store.akamai.steamstatic.com</text>
<rect x="180" y="318" width="512.09" height="22" fill="#4c78a8" rx="3"/>
<text x="700.09" y="334" class="value">221.56</text>
<text x="10" y="366" class="label">unrealengine.com</text>
<rect x="180" y="350" width="519.4" height="22" fill="#4c78a8" rx="3"/>
<text x="707.4" y="366" class="value">224.72</text>
<text x="10" y="398" class="label">community.akamai.steamstatic.com</text>
<rect x="180" y="382" width="546.21" height="22" fill="#4c78a8" rx="3"/>
<text x="734.21" y="398" class="value">236.32</text>
<text x="10" y="430" class="label">epicgames.com</text>
<rect x="180" y="414" width="552.89" height="22" fill="#4c78a8" rx="3"/>
<text x="740.89" y="430" class="value">239.21</text>
<text x="10" y="462" class="label">fortnite.com</text>
<rect x="180" y="446" width="576.19" height="22" fill="#4c78a8" rx="3"/>
<text x="764.19" y="462" class="value">249.29</text>
<text x="10" y="494" class="label">origin.com</text>
<rect x="180" y="478" width="580.0" height="22" fill="#4c78a8" rx="3"/>
<text x="768.0" y="494" class="value">250.94</text>
<line x1="180" y1="30" x2="180" y2="520" stroke="#ccc"/>
<line x1="180" y1="520" x2="760" y2="520" stroke="#ccc"/>
</svg>