<svg xmlns="http://www.w3.org/2000/svg" width="800" height="540">
<style> .label{font-family:DejaVu Sans,Verdana,Geneva,sans-serif;font-size:12px;fill:#333} .value{font-family:DejaVu Sans,Verdana,Geneva,sans-serif;font-size:12px;fill:#555} </style>
<text x="10" y="20" class="label">延迟柱状图（越低越好，Top 15），单位 ms</text>
<text x="10" y="46" class="label">rockstargames.com</text>
<rect x="180" y="30" width="135.82" height="22" fill="#4c78a8" rx="3"/>
<text x="323.82" y="46" class="value">49.37</text>
<text x="10" y="78" class="label">eaassets-a.akamaihd.net</text>
<rect x="180" y="62" width="146.39" height="22" fill="#4c78a8" rx="3"/>
<text x="334.39" y="78" class="value">53.21</text>
<text x="10" y="110" class="label">fortnite.com</text>
<rect x="180" y="94" width="222.62" height="22" fill="#4c78a8" rx="3"/>
<text x="410.62" y="110" class="value">80.92</text>
<text x="10" y="142" class="label">blizzard.com</text>
<rect x="180" y="126" width="243.95" height="22" fill="#4c78a8" rx="3"/>
<text x="431.95" y="142" class="value">88.67</text>
<text x="10" y="174" class="label">socialclub.rockstargames.com</text>
<rect x="180" y="158" width="247.16" height="22" fill="#4c78a8" rx="3"/>
<text x="435.15999999999997" y="174" class="value">89.84</text>
<text x="10" y="206" class="label">battle.net</text>
<rect x="180" y="190" width="288.24" height="22" fill="#4c78a8" rx="3"/>
<text x="476.24" y="206" class="value">104.77</text>
<text x="10" y="238" class="label">ea.com</text>
<rect x="180" y="222" width="295.97" height="22" fill="#4c78a8" rx="3"/>
<text x="483.97" y="238" class="value">107.58</text>
<text x="10" y="270" class="label">ubi.com</text>
<rect x="180" y="254" width="306.53" height="22" fill="#4c78a8" rx="3"/>
<text x="494.53" y="270" class="value">111.42</text>
<text x="10" y="302" class="label">steamcdn-a.akamaihd.net</text>
<rect x="180" y="286" width="313.16" height="22" fill="#4c78a8" rx="3"/>
<text x="501.16" y="302" class="value">113.83</text>
<text x="10" y="334" class="label">ubisoft.com</text>
<rect x="180" y="318" width="321.36" height="22" fill="#4c78a8" rx="3"/>
<text x="509.36" y="334" class="value">116.81</text>
<text x="10" y="366" class="label">epicgames.com</text>
<rect x="180" y="350" width="346.18" height="22" fill="#4c78a8" rx="3"/>
<text x="534.1800000000001" y="366" class="value">125.83</text>
<text x="10" y="398" class="label">community.akamai.steamstatic.com</text>
<rect x="180" y="382" width="422.17" height="22" fill="#4c78a8" rx="3"/>
<text x="610.1700000000001" y="398" class="value">153.45</text>
<text x="10" y="430" class="label">store.akamai.steamstatic.com</text>
<rect x="180" y="414" width="459.31" height="22" fill="#4c78a8" rx="3"/>
<text x="647.31" y="430" class="value">166.95</text>
<text x="10" y="462" class="label">unrealengine.com</text>
<rect x="180" y="446" width="513.2" height="22" fill="#4c78a8" rx="3"/>
<text x="701.2" y="462" class="value">186.54</text>
<text x="10" y="494" class="label">www.steamcommunity.com</text>
<rect x="180" y="478" width="580.0" height="22" fill="#4c78a8" rx="3"/>
<text x="768.0" y="494" class="value">210.82</text>
<line x1="180" y1="30" x2="180" y2="520" stroke="#ccc"/>
<line x1="180" y1="520" x2="760" y2="520" stroke="#ccc"/>
</svg>