<svg xmlns="http://www.w3.org/2000/svg" width="800" height="540">
<style> .label{font-family:DejaVu Sans,Verdana,Geneva,sans-serif;font-size:12px;fill:#333} .value{font-family:DejaVu Sans,Verdana,Geneva,sans-serif;font-size:12px;fill:#555} </style>
<text x="10" y="20" class="label">延迟柱状图（越低越好，Top 15），单位 ms</text>
<text x="10" y="46" class="label">eaassets-a.akamaihd.net</text>
<rect x="180" y="30" width="158.36" height="22" fill="#4c78a8" rx="3"/>
<text x="346.36" y="46" class="value">51.58</text>
<text x="10" y="78" class="label">rockstargames.com</text>
<rect x="180" y="62" width="192.17" height="22" fill="#4c78a8" rx="3"/>
<text x="380.16999999999996" y="78" class="value">62.59</text>
<text x="10" y="110" class="label">ea.com</text>
<rect x="180" y="94" width="218.69" height="22" fill="#4c78a8" rx="3"/>
<text x="406.69" y="110" class="value">71.23</text>
<text x="10" y="142" class="label">steamcdn-a.akamaihd.net</text>
<rect x="180" y="126" width="224.31" height="22" fill="#4c78a8" rx="3"/>
<text x="412.31" y="142" class="value">73.06</text>
<text x="10" y="174" class="label">cdn.cloudflare.steamstatic.com</text>
<rect x="180" y="158" width="313.59" height="22" fill="#4c78a8" rx="3"/>
<text x="501.59" y="174" class="value">102.14</text>
<text x="10" y="206" class="label">community.akamai.steamstatic.com</text>
<rect x="180" y="190" width="350.74" height="22" fill="#4c78a8" rx="3"/>
<text x="538.74" y="206" class="value">114.24</text>
<text x="10" y="238" class="label">battle.net</text>
<rect x="180" y="222" width="414.36" height="22" fill="#4c78a8" rx="3"/>
<text x="602.36" y="238" class="value">134.96</text>
<text x="10" y="270" class="label">ubisoft.com</text>
<rect x="180" y="254" width="418.04" height="22" fill="#4c78a8" rx="3"/>
<text x="606.04" y="270" class="value">136.16</text>
<text x="10" y="302" class="label">blizzard.com</text>
<rect x="180" y="286" width="432.72" height="22" fill="#4c78a8" rx="3"/>
<text x="620.72" y="302" class="value">140.94</text>
<text x="10" y="334" class="label">store.akamai.steamstatic.com</text>
<rect x="180" y="318" width="448.99" height="22" fill="#4c78a8" rx="3"/>
<text x="636.99" y="334" class="value">146.24</text>
<text x="10" y="366" class="label">socialclub.rockstargames.com</text>
<rect x="180" y="350" width="462.29" height="22" fill="#4c78a8" rx="3"/>
<text x="650.29" y="366" class="value">150.57</text>
<text x="10" y="398" class="label">ubi.com</text>
<rect x="180" y="382" width="499.53" height="22" fill="#4c78a8" rx="3"/>
<text x="687.53" y="398" class="value">162.70</text>
<text x="10" y="430" class="label">static3.cdn.ubi.com</text>
<rect x="180" y="414" width="520.87" height="22" fill="#4c78a8" rx="3"/>
<text x="708.87" y="430" class="value">169.65</text>
<text x="10" y="462" class="label">gog.com</text>
<rect x="180" y="446" width="563.76" height="22" fill="#4c78a8" rx="3"/>
<text x="751.76" y="462" class="value">183.62</text>
<text x="10" y="494" class="label">cdn.akamai.steamstatic.com</text>
<rect x="180" y="478" width="580.0" height="22" fill="#4c78a8" rx="3"/>
<text x="768.0" y="494" class="value">188.91</text>
<line x1="180" y1="30" x2="180" y2="520" stroke="#ccc"/>
<line x1="180" y1="520" x2="760" y2="520" stroke="#ccc"/>
</svg>