<svg xmlns="http://www.w3.org/2000/svg" width="800" height="540">
<style> .label{font-family:DejaVu Sans,Verdana,Geneva,sans-serif;font-size:12px;fill:#333} .value{font-family:DejaVu Sans,Verdana,Geneva,sans-serif;font-size:12px;fill:#555} </style>
<text x="10" y="20" class="label">延迟柱状图（越低越好，Top 15），单位 ms</text>
<text x="10" y="46" class="label">rockstargames.com</text>
<rect x="180" y="30" width="191.25" height="22" fill="#4c78a8" rx="3"/>
<text x="379.25" y="46" class="value">69.92</text>
<text x="10" y="78" class="label">battle.net</text>
<rect x="180" y="62" width="200.0" height="22" fill="#4c78a8" rx="3"/>
<text x="388.0" y="78" class="value">73.12</text>
<text x="10" y="110" class="label">blizzard.com</text>
<rect x="180" y="94" width="211.54" height="22" fill="#4c78a8" rx="3"/>
<text x="399.53999999999996" y="110" class="value">77.34</text>
<text x="10" y="142" class="label">eaassets-a.akamaihd.net</text>
<rect x="180" y="126" width="236.05" height="22" fill="#4c78a8" rx="3"/>
<text x="424.05" y="142" class="value">86.30</text>
<text x="10" y="174" class="label">socialclub.rockstargames.com</text>
<rect x="180" y="158" width="241.9" height="22" fill="#4c78a8" rx="3"/>
<text x="429.9" y="174" class="value">88.44</text>
<text x="10" y="206" class="label">ubisoft.com</text>
<rect x="180" y="190" width="264.55" height="22" fill="#4c78a8" rx="3"/>
<text x="452.55" y="206" class="value">96.72</text>
<text x="10" y="238" class="label">unrealengine.com</text>
<rect x="180" y="222" width="319.96" height="22" fill="#4c78a8" rx="3"/>
<text x="507.96" y="238" class="value">116.98</text>
<text x="10" y="270" class="label">origin.com</text>
<rect x="180" y="254" width="349.18" height="22" fill="#4c78a8" rx="3"/>
<text x="537.1800000000001" y="270" class="value">127.66</text>
<text x="10" y="302" class="label">store.akamai.steamstatic.com</text>
<rect x="180" y="286" width="362.06" height="22" fill="#4c78a8" rx="3"/>
<text x="550.06" y="302" class="value">132.37</text>
<text x="10" y="334" class="label">ubi.com</text>
<rect x="180" y="318" width="400.08" height="22" fill="#4c78a8" rx="3"/>
<text x="588.0799999999999" y="334" class="value">146.27</text>
<text x="10" y="366" class="label">static3.cdn.ubi.com</text>
<rect x="180" y="350" width="434.57" height="22" fill="#4c78a8" rx="3"/>
<text x="622.5699999999999" y="366" class="value">158.88</text>
<text x="10" y="398" class="label">ea.com</text>
<rect x="180" y="382" width="437.99" height="22" fill="#4c78a8" rx="3"/>
<text x="625.99" y="398" class="value">160.13</text>
<text x="10" y="430" class="label">easyanticheat.net</text>
<rect x="180" y="414" width="498.6" height="22" fill="#4c78a8" rx="3"/>
<text x="686.6" y="430" class="value">182.29</text>
<text x="10" y="462" class="label">fortnite.com</text>
<rect x="180" y="446" width="551.75" height="22" fill="#4c78a8" rx="3"/>
<text x="739.75" y="462" class="value">201.72</text>
<text x="10" y="494" class="label">cdn.cloudflare.steamstatic.com</text>
<rect x="180" y="478" width="580.0" height="22" fill="#4c78a8" rx="3"/>
<text x="768.0" y="494" class="value">212.05</text>
<line x1="180" y1="30" x2="180" y2="520" stroke="#ccc"/>
<line x1="180" y1="520" x2="760" y2="520" stroke="#ccc"/>
</svg>