<svg xmlns="http://www.w3.org/2000/svg" width="800" height="540">
<style> .label{font-family:DejaVu Sans,Verdana,Geneva,sans-serif;font-size:12px;fill:#333} .value{font-family:DejaVu Sans,Verdana,Geneva,sans-serif;font-size:12px;fill:#555} </style>
<text x="10" y="20" class="label">延迟柱状图（越低越好，Top 15），单位 ms</text>
<text x="10" y="46" class="label">eaassets-a.akamaihd.net</text>
<rect x="180" y="30" width="249.75" height="22" fill="#4c78a8" rx="3"/>
<text x="437.75" y="46" class="value">117.48</text>
<text x="10" y="78" class="label">rockstargames.com</text>
<rect x="180" y="62" width="290.24" height="22" fill="#4c78a8" rx="3"/>
<text x="478.24" y="78" class="value">136.53</text>
<text x="10" y="110" class="label">socialclub.rockstargames.com</text>
<rect x="180" y="94" width="293.41" height="22" fill="#4c78a8" rx="3"/>
<text x="481.41" y="110" class="value">138.02</text>
<text x="10" y="142" class="label">ubi.com</text>
<rect x="180" y="126" width="352.15" height="22" fill="#4c78a8" rx="3"/>
<text x="540.15" y="142" class="value">165.65</text>
<text x="10" y="174" class="label">static3.cdn.ubi.com</text>
<rect x="180" y="158" width="377.66" height="22" fill="#4c78a8" rx="3"/>
<text x="565.6600000000001" y="174" class="value">177.65</text>
<text x="10" y="206" class="label">ea.com</text>
<rect x="180" y="190" width="381.72" height="22" fill="#4c78a8" rx="3"/>
<text x="569.72" y="206" class="value">179.56</text>
<text x="10" y="238" class="label">battle.net</text>
<rect x="180" y="222" width="382.89" height="22" fill="#4c78a8" rx="3"/>
<text x="570.89" y="238" class="value">180.11</text>
<text x="10" y="270" class="label">blizzard.com</text>
<rect x="180" y="254" width="399.79" height="22" fill="#4c78a8" rx="3"/>
<text x="587.79" y="270" class="value">188.06</text>
<text x="10" y="302" class="label">steamcdn-a.akamaihd.net</text>
<rect x="180" y="286" width="401.6" height="22" fill="#4c78a8" rx="3"/>
<text x="589.6" y="302" class="value">188.91</text>
<text x="10" y="334" class="label">easyanticheat.net</text>
<rect x="180" y="318" width="422.43" height="22" fill="#4c78a8" rx="3"/>
<text x="610.4300000000001" y="334" class="value">198.71</text>
<text x="10" y="366" class="label">store.akamai.steamstatic.com</text>
<rect x="180" y="350" width="432.7" height="22" fill="#4c78a8" rx="3"/>
<text x="620.7" y="366" class="value">203.54</text>
<text x="10" y="398" class="label">cdn.cloudflare.steamstatic.com</text>
<rect x="180" y="382" width="464.78" height="22" fill="#4c78a8" rx="3"/>
<text x="652.78" y="398" class="value">218.63</text>
<text x="10" y="430" class="label">ubisoft.com</text>
<rect x="180" y="414" width="476.56" height="22" fill="#4c78a8" rx="3"/>
<text x="664.56" y="430" class="value">224.17</text>
<text x="10" y="462" class="label">steamcommunity.com</text>
<rect x="180" y="446" width="558.06" height="22" fill="#4c78a8" rx="3"/>
<text x="746.06" y="462" class="value">262.51</text>
<text x="10" y="494" class="label">api.steampowered.com</text>
<rect x="180" y="478" width="580.0" height="22" fill="#4c78a8" rx="3"/>
<text x="768.0" y="494" class="value">272.83</text>
<line x1="180" y1="30" x2="180" y2="520" stroke="#ccc"/>
<line x1="180" y1="520" x2="760" y2="520" stroke="#ccc"/>
</svg>