<svg xmlns="http://www.w3.org/2000/svg" width="800" height="540">
<style> .label{font-family:DejaVu Sans,Verdana,Geneva,sans-serif;font-size:12px;fill:#333} .value{font-family:DejaVu Sans,Verdana,Geneva,sans-serif;font-size:12px;fill:#555} </style>
<text x="10" y="20" class="label">延迟柱状图（越低越好，Top 15），单位 ms</text>
<text x="10" y="46" class="label">rockstargames.com</text>
<rect x="180" y="30" width="232.77" height="22" fill="#4c78a8" rx="3"/>
<text x="420.77" y="46" class="value">92.41</text>
<text x="10" y="78" class="label">ea.com</text>
<rect x="180" y="62" width="242.42" height="22" fill="#4c78a8" rx="3"/>
<text x="430.41999999999996" y="78" class="value">96.24</text>
<text x="10" y="110" class="label">ubisoft.com</text>
<rect x="180" y="94" width="264.48" height="22" fill="#4c78a8" rx="3"/>
<text x="452.48" y="110" class="value">105.00</text>
<text x="10" y="142" class="label">cdn.cloudflare.steamstatic.com</text>
<rect x="180" y="126" width="357.38" height="22" fill="#4c78a8" rx="3"/>
<text x="545.38" y="142" class="value">141.88</text>
<text x="10" y="174" class="label">store.akamai.steamstatic.com</text>
<rect x="180" y="158" width="369.85" height="22" fill="#4c78a8" rx="3"/>
<text x="557.85" y="174" class="value">146.83</text>
<text x="10" y="206" class="label">community.akamai.steamstatic.com</text>
<rect x="180" y="190" width="371.76" height="22" fill="#4c78a8" rx="3"/>
<text x="559.76" y="206" class="value">147.59</text>
<text x="10" y="238" class="label">eaassets-a.akamaihd.net</text>
<rect x="180" y="222" width="372.19" height="22" fill="#4c78a8" rx="3"/>
<text x="560.19" y="238" class="value">147.76</text>
<text x="10" y="270" class="label">blizzard.com</text>
<rect x="180" y="254" width="421.41" height="22" fill="#4c78a8" rx="3"/>
<text x="609.4100000000001" y="270" class="value">167.30</text>
<text x="10" y="302" class="label">easyanticheat.net</text>
<rect x="180" y="286" width="426.95" height="22" fill="#4c78a8" rx="3"/>
<text x="614.95" y="302" class="value">169.50</text>
<text x="10" y="334" class="label">battle.net</text>
<rect x="180" y="318" width="434.84" height="22" fill="#4c78a8" rx="3"/>
<text x="622.8399999999999" y="334" class="value">172.63</text>
<text x="10" y="366" class="label">ubi.com</text>
<rect x="180" y="350" width="483.85" height="22" fill="#4c78a8" rx="3"/>
<text x="671.85" y="366" class="value">192.09</text>
<text x="10" y="398" class="label">socialclub.rockstargames.com</text>
<rect x="180" y="382" width="494.11" height="22" fill="#4c78a8" rx="3"/>
<text x="682.11" y="398" class="value">196.16</text>
<text x="10" y="430" class="label">epicgames.com</text>
<rect x="180" y="414" width="518.69" height="22" fill="#4c78a8" rx="3"/>
<text x="706.69" y="430" class="value">205.92</text>
<text x="10" y="462" class="label">steamcdn-a.akamaihd.net</text>
<rect x="180" y="446" width="520.5" height="22" fill="#4c78a8" rx="3"/>
<text x="708.5" y="462" class="value">206.64</text>
<text x="10" y="494" class="label">steam-chat.com</text>
<rect x="180" y="478" width="580.0" height="22" fill="#4c78a8" rx="3"/>
<text x="768.0" y="494" class="value">230.26</text>
<line x1="180" y1="30" x2="180" y2="520" stroke="#ccc"/>
<line x1="180" y1="520" x2="760" y2="520" stroke="#ccc"/>
</svg>