<svg xmlns="http://www.w3.org/2000/svg" width="800" height="540">
<style> .label{font-family:DejaVu Sans,Verdana,Geneva,sans-serif;font-size:12px;fill:#333} .value{font-family:DejaVu Sans,Verdana,Geneva,sans-serif;font-size:12px;fill:#555} </style>
<text x="10" y="20" class="label">延迟柱状图（越低越好，Top 15），单位 ms</text>
<text x="10" y="46" class="label">fortnite.com</text>
<rect x="180" y="30" width="228.85" height="22" fill="#4c78a8" rx="3"/>
<text x="416.85" y="46" class="value">73.33</text>
<text x="10" y="78" class="label">socialclub.rockstargames.com</text>
<rect x="180" y="62" width="310.14" height="22" fill="#4c78a8" rx="3"/>
<text x="498.14" y="78" class="value">99.38</text>
<text x="10" y="110" class="label">steamcdn-a.akamaihd.net</text>
<rect x="180" y="94" width="315.92" height="22" fill="#4c78a8" rx="3"/>
<text x="503.92" y="110" class="value">101.23</text>
<text x="10" y="142" class="label">battle.net</text>
<rect x="180" y="126" width="335.36" height="22" fill="#4c78a8" rx="3"/>
<text x="523.36" y="142" class="value">107.46</text>
<text x="10" y="174" class="label">rockstargames.com</text>
<rect x="180" y="158" width="372.53" height="22" fill="#4c78a8" rx="3"/>
<text x="560.53" y="174" class="value">119.37</text>
<text x="10" y="206" class="label">blizzard.com</text>
<rect x="180" y="190" width="386.85" height="22" fill="#4c78a8" rx="3"/>
<text x="574.85" y="206" class="value">123.96</text>
<text x="10" y="238" class="label">unrealengine.com</text>
<rect x="180" y="222" width="435.66" height="22" fill="#4c78a8" rx="3"/>
<text x="623.6600000000001" y="238" class="value">139.60</text>
<text x="10" y="270" class="label">origin.com</text>
<rect x="180" y="254" width="435.94" height="22" fill="#4c78a8" rx="3"/>
<text x="623.94" y="270" class="value">139.69</text>
<text x="10" y="302" class="label">eaassets-a.akamaihd.net</text>
<rect x="180" y="286" width="443.43" height="22" fill="#4c78a8" rx="3"/>
<text x="631.4300000000001" y="302" class="value">142.09</text>
<text x="10" y="334" class="label">easyanticheat.net</text>
<rect x="180" y="318" width="480.2" height="22" fill="#4c78a8" rx="3"/>
<text x="668.2" y="334" class="value">153.87</text>
<text x="10" y="366" class="label">cdn.cloudflare.steamstatic.com</text>
<rect x="180" y="350" width="490.31" height="22" fill="#4c78a8" rx="3"/>
<text x="678.31" y="366" class="value">157.11</text>
<text x="10" y="398" class="label">ubi.com</text>
<rect x="180" y="382" width="493.9" height="22" fill="#4c78a8" rx="3"/>
<text x="681.9" y="398" class="value">158.26</text>
<text x="10" y="430" class="label">ea.com</text>
<rect x="180" y="414" width="509.44" height="22" fill="#4c78a8" rx="3"/>
<text x="697.44" y="430" class="value">163.24</text>
<text x="10" y="462" class="label">epicgames.com</text>
<rect x="180" y="446" width="536.25" height="22" fill="#4c78a8" rx="3"/>
<text x="724.25" y="462" class="value">171.83</text>
<text x="10" y="494" class="label">community.akamai.steamstatic.com</text>
<rect x="180" y="478" width="580.0" height="22" fill="#4c78a8" rx="3"/>
<text x="768.0" y="494" class="value">185.85</text>
<line x1="180" y1="30" x2="180" y2="520" stroke="#ccc"/>
<line x1="180" y1="520" x2="760" y2="520" stroke="#ccc"/>
</svg>