<svg xmlns="http://www.w3.org/2000/svg" width="800" height="540">
<style> .label{font-family:DejaVu Sans,Verdana,Geneva,sans-serif;font-size:12px;fill:#333} .value{font-family:DejaVu Sans,Verdana,Geneva,sans-serif;font-size:12px;fill:#555} </style>
<text x="10" y="20" class="label">延迟柱状图（越低越好，Top 15），单位 ms</text>
<text x="10" y="46" class="label">ea.com</text>
<rect x="180" y="30" width="187.05" height="22" fill="#4c78a8" rx="3"/>
<text x="375.05" y="46" class="value">88.66</text>
<text x="10" y="78" class="label">rockstargames.com</text>
<rect x="180" y="62" width="209.08" height="22" fill="#4c78a8" rx="3"/>
<text x="397.08000000000004" y="78" class="value">99.10</text>
<text x="10" y="110" class="label">ubisoft.com</text>
<rect x="180" y="94" width="220.05" height="22" fill="#4c78a8" rx="3"/>
<text x="408.05" y="110" class="value">104.30</text>
<text x="10" y="142" class="label">community.akamai.steamstatic.com</text>
<rect x="180" y="126" width="222.62" height="22" fill="#4c78a8" rx="3"/>
<text x="410.62" y="142" class="value">105.52</text>
<text x="10" y="174" class="label">eaassets-a.akamaihd.net</text>
<rect x="180" y="158" width="227.98" height="22" fill="#4c78a8" rx="3"/>
<text x="415.98" y="174" class="value">108.06</text>
<text x="10" y="206" class="label">steamcdn-a.akamaihd.net</text>
<rect x="180" y="190" width="301.85" height="22" fill="#4c78a8" rx="3"/>
<text x="489.85" y="206" class="value">143.07</text>
<text x="10" y="238" class="label">cdn.cloudflare.steamstatic.com</text>
<rect x="180" y="222" width="339.42" height="22" fill="#4c78a8" rx="3"/>
<text x="527.4200000000001" y="238" class="value">160.88</text>
<text x="10" y="270" class="label">store.akamai.steamstatic.com</text>
<rect x="180" y="254" width="344.34" height="22" fill="#4c78a8" rx="3"/>
<text x="532.3399999999999" y="270" class="value">163.21</text>
<text x="10" y="302" class="label">cdn.akamai.steamstatic.com</text>
<rect x="180" y="286" width="349.17" height="22" fill="#4c78a8" rx="3"/>
<text x="537.1700000000001" y="302" class="value">165.50</text>
<text x="10" y="334" class="label">origin.com</text>
<rect x="180" y="318" width="359.68" height="22" fill="#4c78a8" rx="3"/>
<text x="547.6800000000001" y="334" class="value">170.48</text>
<text x="10" y="366" class="label">easyanticheat.net</text>
<rect x="180" y="350" width="438.2" height="22" fill="#4c78a8" rx="3"/>
<text x="626.2" y="366" class="value">207.70</text>
<text x="10" y="398" class="label">www.steamcommunity.com</text>
<rect x="180" y="382" width="450.1" height="22" fill="#4c78a8" rx="3"/>
<text x="638.1" y="398" class="value">213.34</text>
<text x="10" y="430" class="label">launcher-public-service-prod06.ol.epicgames.com</text>
<rect x="180" y="414" width="559.43" height="22" fill="#4c78a8" rx="3"/>
<text x="747.43" y="430" class="value">265.16</text>
<text x="10" y="462" class="label">steam-chat.com</text>
<rect x="180" y="446" width="579.32" height="22" fill="#4c78a8" rx="3"/>
<text x="767.32" y="462" class="value">274.59</text>
<text x="10" y="494" class="label">gog.com</text>
<rect x="180" y="478" width="580.0" height="22" fill="#4c78a8" rx="3"/>
<text x="768.0" y="494" class="value">274.91</text>
<line x1="180" y1="30" x2="180" y2="520" stroke="#ccc"/>
<line x1="180" y1="520" x2="760" y2="520" stroke="#ccc"/>
</svg>