<svg xmlns="http://www.w3.org/2000/svg" width="800" height="540">
<style> .label{font-family:DejaVu Sans,Verdana,Geneva,sans-serif;font-size:12px;fill:#333} .value{font-family:DejaVu Sans,Verdana,Geneva,sans-serif;font-size:12px;fill:#555} </style>
<text x="10" y="20" class="label">延迟柱状图（越低越好，Top 15），单位 ms</text>
<text x="10" y="46" class="label">rockstargames.com</text>
<rect x="180" y="30" width="162.75" height="22" fill="#4c78a8" rx="3"/>
<text x="350.75" y="46" class="value">95.77</text>
<text x="10" y="78" class="label">eaassets-a.akamaihd.net</text>
<rect x="180" y="62" width="175.81" height="22" fill="#4c78a8" rx="3"/>
<text x="363.81" y="78" class="value">103.46</text>
<text x="10" y="110" class="label">ubisoft.com</text>
<rect x="180" y="94" width="179.53" height="22" fill="#4c78a8" rx="3"/>
<text x="367.53" y="110" class="value">105.65</text>
<text x="10" y="142" class="label">ea.com</text>
<rect x="180" y="126" width="202.08" height="22" fill="#4c78a8" rx="3"/>
<text x="390.08000000000004" y="142" class="value">118.92</text>
<text x="10" y="174" class="label">cdn.cloudflare.steamstatic.com</text>
<rect x="180" y="158" width="251.21" height="22" fill="#4c78a8" rx="3"/>
<text x="439.21000000000004" y="174" class="value">147.83</text>
<text x="10" y="206" class="label">community.akamai.steamstatic.com</text>
<rect x="180" y="190" width="254.54" height="22" fill="#4c78a8" rx="3"/>
<text x="442.53999999999996" y="206" class="value">149.79</text>
<text x="10" y="238" class="label">cdn.akamai.steamstatic.com</text>
<rect x="180" y="222" width="402.01" height="22" fill="#4c78a8" rx="3"/>
<text x="590.01" y="238" class="value">236.57</text>
<text x="10" y="270" class="label">store.akamai.steamstatic.com</text>
<rect x="180" y="254" width="437.31" height="22" fill="#4c78a8" rx="3"/>
<text x="625.31" y="270" class="value">257.34</text>
<text x="10" y="302" class="label">easyanticheat.net</text>
<rect x="180" y="286" width="440.57" height="22" fill="#4c78a8" rx="3"/>
<text x="628.5699999999999" y="302" class="value">259.26</text>
<text x="10" y="334" class="label">steamcdn-a.akamaihd.net</text>
<rect x="180" y="318" width="478.92" height="22" fill="#4c78a8" rx="3"/>
<text x="666.9200000000001" y="334" class="value">281.83</text>
<text x="10" y="366" class="label">ubi.com</text>
<rect x="180" y="350" width="489.26" height="22" fill="#4c78a8" rx="3"/>
<text x="677.26" y="366" class="value">287.91</text>
<text x="10" y="398" class="label">socialclub.rockstargames.com</text>
<rect x="180" y="382" width="531.77" height="22" fill="#4c78a8" rx="3"/>
<text x="719.77" y="398" class="value">312.93</text>
<text x="10" y="430" class="label">static3.cdn.ubi.com</text>
<rect x="180" y="414" width="560.02" height="22" fill="#4c78a8" rx="3"/>
<text x="748.02" y="430" class="value">329.55</text>
<text x="10" y="462" class="label">battle.net</text>
<rect x="180" y="446" width="577.09" height="22" fill="#4c78a8" rx="3"/>
<text x="765.09" y="462" class="value">339.60</text>
<text x="10" y="494" class="label">blizzard.com</text>
<rect x="180" y="478" width="580.0" height="22" fill="#4c78a8" rx="3"/>
<text x="768.0" y="494" class="value">341.31</text>
<line x1="180" y1="30" x2="180" y2="520" stroke="#ccc"/>
<line x1="180" y1="520" x2="760" y2="520" stroke="#ccc"/>
</svg>