<svg xmlns="http://www.w3.org/2000/svg" width="800" height="540">
<style> .label{font-family:DejaVu Sans,Verdana,Geneva,sans-serif;font-size:12px;fill:#333} .value{font-family:DejaVu Sans,Verdana,Geneva,sans-serif;font-size:12px;fill:#555} </style>
<text x="10" y="20" class="label">延迟柱状图（越低越好，Top 15），单位 ms</text>
<text x="10" y="46" class="label">rockstargames.com</text>
<rect x="180" y="30" width="125.33" height="22" fill="#4c78a8" rx="3"/>
<text x="313.33" y="46" class="value">69.60</text>
<text x="10" y="78" class="label">ubisoft.com</text>
<rect x="180" y="62" width="206.86" height="22" fill="#4c78a8" rx="3"/>
<text x="394.86" y="78" class="value">114.88</text>
<text x="10" y="110" class="label">eaassets-a.akamaihd.net</text>
<rect x="180" y="94" width="221.63" height="22" fill="#4c78a8" rx="3"/>
<text x="409.63" y="110" class="value">123.08</text>
<text x="10" y="142" class="label">community.akamai.steamstatic.com</text>
<rect x="180" y="126" width="225.21" height="22" fill="#4c78a8" rx="3"/>
<text x="413.21000000000004" y="142" class="value">125.07</text>
<text x="10" y="174" class="label">ea.com</text>
<rect x="180" y="158" width="259.55" height="22" fill="#4c78a8" rx="3"/>
<text x="447.55" y="174" class="value">144.14</text>
<text x="10" y="206" class="label">steamcdn-a.akamaihd.net</text>
<rect x="180" y="190" width="299.87" height="22" fill="#4c78a8" rx="3"/>
<text x="487.87" y="206" class="value">166.53</text>
<text x="10" y="238" class="label">origin.com</text>
<rect x="180" y="222" width="326.14" height="22" fill="#4c78a8" rx="3"/>
<text x="514.14" y="238" class="value">181.12</text>
<text x="10" y="270" class="label">static3.cdn.ubi.com</text>
<rect x="180" y="254" width="369.97" height="22" fill="#4c78a8" rx="3"/>
<text x="557.97" y="270" class="value">205.46</text>
<text x="10" y="302" class="label">store.akamai.steamstatic.com</text>
<rect x="180" y="286" width="426.44" height="22" fill="#4c78a8" rx="3"/>
<text x="614.44" y="302" class="value">236.82</text>
<text x="10" y="334" class="label">ubi.com</text>
<rect x="180" y="318" width="441.51" height="22" fill="#4c78a8" rx="3"/>
<text x="629.51" y="334" class="value">245.19</text>
<text x="10" y="366" class="label">api.steampowered.com</text>
<rect x="180" y="350" width="461.75" height="22" fill="#4c78a8" rx="3"/>
<text x="649.75" y="366" class="value">256.43</text>
<text x="10" y="398" class="label">easyanticheat.net</text>
<rect x="180" y="382" width="474.91" height="22" fill="#4c78a8" rx="3"/>
<text x="662.9100000000001" y="398" class="value">263.74</text>
<text x="10" y="430" class="label">steamcommunity.com</text>
<rect x="180" y="414" width="501.89" height="22" fill="#4c78a8" rx="3"/>
<text x="689.89" y="430" class="value">278.72</text>
<text x="10" y="462" class="label">cdn.akamai.steamstatic.com</text>
<rect x="180" y="446" width="528.86" height="22" fill="#4c78a8" rx="3"/>
<text x="716.86" y="462" class="value">293.70</text>
<text x="10" y="494" class="label">www.steamcommunity.com</text>
<rect x="180" y="478" width="580.0" height="22" fill="#4c78a8" rx="3"/>
<text x="768.0" y="494" class="value">322.10</text>
<line x1="180" y1="30" x2="180" y2="520" stroke="#ccc"/>
<line x1="180" y1="520" x2="760" y2="520" stroke="#ccc"/>
</svg>