<svg xmlns="http://www.w3.org/2000/svg" width="800" height="540">
<style> .label{font-family:DejaVu Sans,Verdana,Geneva,sans-serif;font-size:12px;fill:#333} .value{font-family:DejaVu Sans,Verdana,Geneva,sans-serif;font-size:12px;fill:#555} </style>
<text x="10" y="20" class="label">延迟柱状图（越低越好，Top 15），单位 ms</text>
<text x="10" y="46" class="label">community.akamai.steamstatic.com</text>
<rect x="180" y="30" width="256.06" height="22" fill="#4c78a8" rx="3"/>
<text x="444.06" y="46" class="value">89.52</text>
<text x="10" y="78" class="label">eaassets-a.akamaihd.net</text>
<rect x="180" y="62" width="294.05" height="22" fill="#4c78a8" rx="3"/>
<text x="482.05" y="78" class="value">102.80</text>
<text x="10" y="110" class="label">ea.com</text>
<rect x="180" y="94" width="304.86" height="22" fill="#4c78a8" rx="3"/>
<text x="492.86" y="110" class="value">106.58</text>
<text x="10" y="142" class="label">rockstargames.com</text>
<rect x="180" y="126" width="305.15" height="22" fill="#4c78a8" rx="3"/>
<text x="493.15" y="142" class="value">106.68</text>
<text x="10" y="174" class="label">cdn.cloudflare.steamstatic.com</text>
<rect x="180" y="158" width="325.83" height="22" fill="#4c78a8" rx="3"/>
<text x="513.8299999999999" y="174" class="value">113.91</text>
<text x="10" y="206" class="label">socialclub.rockstargames.com</text>
<rect x="180" y="190" width="364.58" height="22" fill="#4c78a8" rx="3"/>
<text x="552.5799999999999" y="206" class="value">127.46</text>
<text x="10" y="238" class="label">ubisoft.com</text>
<rect x="180" y="222" width="425.0" height="22" fill="#4c78a8" rx="3"/>
<text x="613.0" y="238" class="value">148.58</text>
<text x="10" y="270" class="label">store.akamai.steamstatic.com</text>
<rect x="180" y="254" width="425.71" height="22" fill="#4c78a8" rx="3"/>
<text x="613.71" y="270" class="value">148.83</text>
<text x="10" y="302" class="label">blizzard.com</text>
<rect x="180" y="286" width="436.61" height="22" fill="#4c78a8" rx="3"/>
<text x="624.61" y="302" class="value">152.64</text>
<text x="10" y="334" class="label">battle.net</text>
<rect x="180" y="318" width="473.25" height="22" fill="#4c78a8" rx="3"/>
<text x="661.25" y="334" class="value">165.45</text>
<text x="10" y="366" class="label">ubi.com</text>
<rect x="180" y="350" width="506.57" height="22" fill="#4c78a8" rx="3"/>
<text x="694.5699999999999" y="366" class="value">177.10</text>
<text x="10" y="398" class="label">easyanticheat.net</text>
<rect x="180" y="382" width="552.2" height="22" fill="#4c78a8" rx="3"/>
<text x="740.2" y="398" class="value">193.05</text>
<text x="10" y="430" class="label">steamcdn-a.akamaihd.net</text>
<rect x="180" y="414" width="565.81" height="22" fill="#4c78a8" rx="3"/>
<text x="753.81" y="430" class="value">197.81</text>
<text x="10" y="462" class="label">launcher-public-service-prod06.ol.epicgames.com</text>
<rect x="180" y="446" width="568.27" height="22" fill="#4c78a8" rx="3"/>
<text x="756.27" y="462" class="value">198.67</text>
<text x="10" y="494" class="label">gog.com</text>
<rect x="180" y="478" width="580.0" height="22" fill="#4c78a8" rx="3"/>
<text x="768.0" y="494" class="value">202.77</text>
<line x1="180" y1="30" x2="180" y2="520" stroke="#ccc"/>
<line x1="180" y1="520" x2="760" y2="520" stroke="#ccc"/>
</svg>