<svg xmlns="http://www.w3.org/2000/svg" width="800" height="540">
<style> .label{font-family:DejaVu Sans,Verdana,Geneva,sans-serif;font-size:12px;fill:#333} .value{font-family:DejaVu Sans,Verdana,Geneva,sans-serif;font-size:12px;fill:#555} </style>
<text x="10" y="20" class="label">延迟柱状图（越低越好，Top 15），单位 ms</text>
<text x="10" y="46" class="label">rockstargames.com</text>
<rect x="180" y="30" width="77.88" height="22" fill="#4c78a8" rx="3"/>
<text x="265.88" y="46" class="value">37.77</text>
<text x="10" y="78" class="label">ea.com</text>
<rect x="180" y="62" width="141.92" height="22" fill="#4c78a8" rx="3"/>
<text x="329.91999999999996" y="78" class="value">68.83</text>
<text x="10" y="110" class="label">eaassets-a.akamaihd.net</text>
<rect x="180" y="94" width="155.33" height="22" fill="#4c78a8" rx="3"/>
<text x="343.33000000000004" y="110" class="value">75.33</text>
<text x="10" y="142" class="label">ubisoft.com</text>
<rect x="180" y="126" width="209.45" height="22" fill="#4c78a8" rx="3"/>
<text x="397.45" y="142" class="value">101.58</text>
<text x="10" y="174" class="label">community.akamai.steamstatic.com</text>
<rect x="180" y="158" width="333.93" height="22" fill="#4c78a8" rx="3"/>
<text x="521.9300000000001" y="174" class="value">161.95</text>
<text x="10" y="206" class="label">cdn.akamai.steamstatic.com</text>
<rect x="180" y="190" width="336.67" height="22" fill="#4c78a8" rx="3"/>
<text x="524.6700000000001" y="206" class="value">163.28</text>
<text x="10" y="238" class="label">cdn.cloudflare.steamstatic.com</text>
<rect x="180" y="222" width="353.02" height="22" fill="#4c78a8" rx="3"/>
<text x="541.02" y="238" class="value">171.21</text>
<text x="10" y="270" class="label">origin.com</text>
<rect x="180" y="254" width="369.44" height="22" fill="#4c78a8" rx="3"/>
<text x="557.44" y="270" class="value">179.17</text>
<text x="10" y="302" class="label">store.akamai.steamstatic.com</text>
<rect x="180" y="286" width="371.54" height="22" fill="#4c78a8" rx="3"/>
<text x="559.54" y="302" class="value">180.19</text>
<text x="10" y="334" class="label">steamcdn-a.akamaihd.net</text>
<rect x="180" y="318" width="393.95" height="22" fill="#4c78a8" rx="3"/>
<text x="581.95" y="334" class="value">191.06</text>
<text x="10" y="366" class="label">easyanticheat.net</text>
<rect x="180" y="350" width="418.7" height="22" fill="#4c78a8" rx="3"/>
<text x="606.7" y="366" class="value">203.06</text>
<text x="10" y="398" class="label">api.steampowered.com</text>
<rect x="180" y="382" width="449.17" height="22" fill="#4c78a8" rx="3"/>
<text x="637.1700000000001" y="398" class="value">217.84</text>
<text x="10" y="430" class="label">steam-chat.com</text>
<rect x="180" y="414" width="475.58" height="22" fill="#4c78a8" rx="3"/>
<text x="663.5799999999999" y="430" class="value">230.65</text>
<text x="10" y="462" class="label">www.steamcommunity.com</text>
<rect x="180" y="446" width="542.76" height="22" fill="#4c78a8" rx="3"/>
<text x="730.76" y="462" class="value">263.23</text>
<text x="10" y="494" class="label">blizzard.com</text>
<rect x="180" y="478" width="580.0" height="22" fill="#4c78a8" rx="3"/>
<text x="768.0" y="494" class="value">281.29</text>
<line x1="180" y1="30" x2="180" y2="520" stroke="#ccc"/>
<line x1="180" y1="520" x2="760" y2="520" stroke="#ccc"/>
</svg>