<svg xmlns="http://www.w3.org/2000/svg" width="800" height="540">
<style> .label{font-family:DejaVu Sans,Verdana,Geneva,sans-serif;font-size:12px;fill:#333} .value{font-family:DejaVu Sans,Verdana,Geneva,sans-serif;font-size:12px;fill:#555} </style>
<text x="10" y="20" class="label">延迟柱状图（越低越好，Top 15），单位 ms</text>
<text x="10" y="46" class="label">eaassets-a.akamaihd.net</text>
<rect x="180" y="30" width="183.98" height="22" fill="#4c78a8" rx="3"/>
<text x="371.98" y="46" class="value">69.09</text>
<text x="10" y="78" class="label">rockstargames.com</text>
<rect x="180" y="62" width="205.25" height="22" fill="#4c78a8" rx="3"/>
<text x="393.25" y="78" class="value">77.08</text>
<text x="10" y="110" class="label">steamcdn-a.akamaihd.net</text>
<rect x="180" y="94" width="258.03" height="22" fill="#4c78a8" rx="3"/>
<text x="446.03" y="110" class="value">96.90</text>
<text x="10" y="142" class="label">ea.com</text>
<rect x="180" y="126" width="309.98" height="22" fill="#4c78a8" rx="3"/>
<text x="497.98" y="142" class="value">116.41</text>
<text x="10" y="174" class="label">battle.net</text>
<rect x="180" y="158" width="373.39" height="22" fill="#4c78a8" rx="3"/>
<text x="561.39" y="174" class="value">140.22</text>
<text x="10" y="206" class="label">socialclub.rockstargames.com</text>
<rect x="180" y="190" width="379.25" height="22" fill="#4c78a8" rx="3"/>
<text x="567.25" y="206" class="value">142.42</text>
<text x="10" y="238" class="label">blizzard.com</text>
<rect x="180" y="222" width="399.67" height="22" fill="#4c78a8" rx="3"/>
<text x="587.6700000000001" y="238" class="value">150.09</text>
<text x="10" y="270" class="label">ubi.com</text>
<rect x="180" y="254" width="411.31" height="22" fill="#4c78a8" rx="3"/>
<text x="599.31" y="270" class="value">154.46</text>
<text x="10" y="302" class="label">origin.com</text>
<rect x="180" y="286" width="416.79" height="22" fill="#4c78a8" rx="3"/>
<text x="604.79" y="302" class="value">156.52</text>
<text x="10" y="334" class="label">ubisoft.com</text>
<rect x="180" y="318" width="454.34" height="22" fill="#4c78a8" rx="3"/>
<text x="642.3399999999999" y="334" class="value">170.62</text>
<text x="10" y="366" class="label">community.akamai.steamstatic.com</text>
<rect x="180" y="350" width="476.25" height="22" fill="#4c78a8" rx="3"/>
<text x="664.25" y="366" class="value">178.85</text>
<text x="10" y="398" class="label">cdn.akamai.steamstatic.com</text>
<rect x="180" y="382" width="508.56" height="22" fill="#4c78a8" rx="3"/>
<text x="696.56" y="398" class="value">190.98</text>
<text x="10" y="430" class="label">cdn.cloudflare.steamstatic.com</text>
<rect x="180" y="414" width="517.72" height="22" fill="#4c78a8" rx="3"/>
<text x="705.72" y="430" class="value">194.42</text>
<text x="10" y="462" class="label">easyanticheat.net</text>
<rect x="180" y="446" width="571.85" height="22" fill="#4c78a8" rx="3"/>
<text x="759.85" y="462" class="value">214.75</text>
<text x="10" y="494" class="label">api.steampowered.com</text>
<rect x="180" y="478" width="580.0" height="22" fill="#4c78a8" rx="3"/>
<text x="768.0" y="494" class="value">217.81</text>
<line x1="180" y1="30" x2="180" y2="520" stroke="#ccc"/>
<line x1="180" y1="520" x2="760" y2="520" stroke="#ccc"/>
</svg>