<svg xmlns="http://www.w3.org/2000/svg" width="800" height="540">
<style> .label{font-family:DejaVu Sans,Verdana,Geneva,sans-serif;font-size:12px;fill:#333} .value{font-family:DejaVu Sans,Verdana,Geneva,sans-serif;font-size:12px;fill:#555} </style>
<text x="10" y="20" class="label">延迟柱状图（越低越好，Top 15），单位 ms</text>
<text x="10" y="46" class="label">ea.com</text>
<rect x="180" y="30" width="183.1" height="22" fill="#4c78a8" rx="3"/>
<text x="371.1" y="46" class="value">73.35</text>
<text x="10" y="78" class="label">eaassets-a.akamaihd.net</text>
<rect x="180" y="62" width="222.34" height="22" fill="#4c78a8" rx="3"/>
<text x="410.34000000000003" y="78" class="value">89.07</text>
<text x="10" y="110" class="label">origin.com</text>
<rect x="180" y="94" width="242.18" height="22" fill="#4c78a8" rx="3"/>
<text x="430.18" y="110" class="value">97.02</text>
<text x="10" y="142" class="label">rockstargames.com</text>
<rect x="180" y="126" width="266.95" height="22" fill="#4c78a8" rx="3"/>
<text x="454.95" y="142" class="value">106.94</text>
<text x="10" y="174" class="label">cdn.akamai.steamstatic.com</text>
<rect x="180" y="158" width="340.54" height="22" fill="#4c78a8" rx="3"/>
<text x="528.54" y="174" class="value">136.42</text>
<text x="10" y="206" class="label">socialclub.rockstargames.com</text>
<rect x="180" y="190" width="350.85" height="22" fill="#4c78a8" rx="3"/>
<text x="538.85" y="206" class="value">140.55</text>
<text x="10" y="238" class="label">ubi.com</text>
<rect x="180" y="222" width="362.83" height="22" fill="#4c78a8" rx="3"/>
<text x="550.8299999999999" y="238" class="value">145.35</text>
<text x="10" y="270" class="label">ubisoft.com</text>
<rect x="180" y="254" width="396.9" height="22" fill="#4c78a8" rx="3"/>
<text x="584.9" y="270" class="value">159.00</text>
<text x="10" y="302" class="label">blizzard.com</text>
<rect x="180" y="286" width="398.4" height="22" fill="#4c78a8" rx="3"/>
<text x="586.4" y="302" class="value">159.60</text>
<text x="10" y="334" class="label">battle.net</text>
<rect x="180" y="318" width="404.17" height="22" fill="#4c78a8" rx="3"/>
<text x="592.1700000000001" y="334" class="value">161.91</text>
<text x="10" y="366" class="label">static3.cdn.ubi.com</text>
<rect x="180" y="350" width="445.83" height="22" fill="#4c78a8" rx="3"/>
<text x="633.8299999999999" y="366" class="value">178.60</text>
<text x="10" y="398" class="label">store.akamai.steamstatic.com</text>
<rect x="180" y="382" width="470.34" height="22" fill="#4c78a8" rx="3"/>
<text x="658.3399999999999" y="398" class="value">188.42</text>
<text x="10" y="430" class="label">steamcdn-a.akamaihd.net</text>
<rect x="180" y="414" width="494.23" height="22" fill="#4c78a8" rx="3"/>
<text x="682.23" y="430" class="value">197.99</text>
<text x="10" y="462" class="label">steam-chat.com</text>
<rect x="180" y="446" width="545.6" height="22" fill="#4c78a8" rx="3"/>
<text x="733.6" y="462" class="value">218.57</text>
<text x="10" y="494" class="label">epicgames.com</text>
<rect x="180" y="478" width="580.0" height="22" fill="#4c78a8" rx="3"/>
<text x="768.0" y="494" class="value">232.35</text>
<line x1="180" y1="30" x2="180" y2="520" stroke="#ccc"/>
<line x1="180" y1="520" x2="760" y2="520" stroke="#ccc"/>
</svg>