<svg xmlns="http://www.w3.org/2000/svg" width="800" height="540">
<style> .label{font-family:DejaVu Sans,Verdana,Geneva,sans-serif;font-size:12px;fill:#333} .value{font-family:DejaVu Sans,Verdana,Geneva,sans-serif;font-size:12px;fill:#555} </style>
<text x="10" y="20" class="label">延迟柱状图（越低越好，Top 15），单位 ms</text>
<text x="10" y="46" class="label">rockstargames.com</text>
<rect x="180" y="30" width="82.3" height="22" fill="#4c78a8" rx="3"/>
<text x="270.3" y="46" class="value">41.15</text>
<text x="10" y="78" class="label">eaassets-a.akamaihd.net</text>
<rect x="180" y="62" width="109.88" height="22" fill="#4c78a8" rx="3"/>
<text x="297.88" y="78" class="value">54.94</text>
<text x="10" y="110" class="label">ubisoft.com</text>
<rect x="180" y="94" width="151.79" height="22" fill="#4c78a8" rx="3"/>
<text x="339.78999999999996" y="110" class="value">75.90</text>
<text x="10" y="142" class="label">origin.com</text>
<rect x="180" y="126" width="177.85" height="22" fill="#4c78a8" rx="3"/>
<text x="365.85" y="142" class="value">88.93</text>
<text x="10" y="174" class="label">steamcdn-a.akamaihd.net</text>
<rect x="180" y="158" width="229.13" height="22" fill="#4c78a8" rx="3"/>
<text x="417.13" y="174" class="value">114.57</text>
<text x="10" y="206" class="label">community.akamai.steamstatic.com</text>
<rect x="180" y="190" width="231.73" height="22" fill="#4c78a8" rx="3"/>
<text x="419.73" y="206" class="value">115.87</text>
<text x="10" y="238" class="label">cdn.cloudflare.steamstatic.com</text>
<rect x="180" y="222" width="258.19" height="22" fill="#4c78a8" rx="3"/>
<text x="446.19" y="238" class="value">129.10</text>
<text x="10" y="270" class="label">ea.com</text>
<rect x="180" y="254" width="286.51" height="22" fill="#4c78a8" rx="3"/>
<text x="474.51" y="270" class="value">143.26</text>
<text x="10" y="302" class="label">store.akamai.steamstatic.com</text>
<rect x="180" y="286" width="348.43" height="22" fill="#4c78a8" rx="3"/>
<text x="536.4300000000001" y="302" class="value">174.22</text>
<text x="10" y="334" class="label">www.steamcommunity.com</text>
<rect x="180" y="318" width="423.83" height="22" fill="#4c78a8" rx="3"/>
<text x="611.8299999999999" y="334" class="value">211.92</text>
<text x="10" y="366" class="label">cdn.akamai.steamstatic.com</text>
<rect x="180" y="350" width="437.12" height="22" fill="#4c78a8" rx="3"/>
<text x="625.12" y="366" class="value">218.57</text>
<text x="10" y="398" class="label">easyanticheat.net</text>
<rect x="180" y="382" width="486.38" height="22" fill="#4c78a8" rx="3"/>
<text x="674.38" y="398" class="value">243.20</text>
<text x="10" y="430" class="label">steam-chat.com</text>
<rect x="180" y="414" width="525.64" height="22" fill="#4c78a8" rx="3"/>
<text x="713.64" y="430" class="value">262.83</text>
<text x="10" y="462" class="label">blizzard.com</text>
<rect x="180" y="446" width="570.16" height="22" fill="#4c78a8" rx="3"/>
<text x="758.16" y="462" class="value">285.09</text>
<text x="10" y="494" class="label">api.steampowered.com</text>
<rect x="180" y="478" width="580.0" height="22" fill="#4c78a8" rx="3"/>
<text x="768.0" y="494" class="value">290.01</text>
<line x1="180" y1="30" x2="180" y2="520" stroke="#ccc"/>
<line x1="180" y1="520" x2="760" y2="520" stroke="#ccc"/>
</svg>