<svg xmlns="http://www.w3.org/2000/svg" width="800" height="540">
<style> .label{font-family:DejaVu Sans,Verdana,Geneva,sans-serif;font-size:12px;fill:#333} .value{font-family:DejaVu Sans,Verdana,Geneva,sans-serif;font-size:12px;fill:#555} </style>
<text x="10" y="20" class="label">延迟柱状图（越低越好，Top 15），单位 ms</text>
<text x="10" y="46" class="label">rockstargames.com</text>
<rect x="180" y="30" width="126.0" height="22" fill="#4c78a8" rx="3"/>
<text x="314.0" y="46" class="value">54.27</text>
<text x="10" y="78" class="label">eaassets-a.akamaihd.net</text>
<rect x="180" y="62" width="204.91" height="22" fill="#4c78a8" rx="3"/>
<text x="392.90999999999997" y="78" class="value">88.26</text>
<text x="10" y="110" class="label">ubisoft.com</text>
<rect x="180" y="94" width="235.74" height="22" fill="#4c78a8" rx="3"/>
<text x="423.74" y="110" class="value">101.54</text>
<text x="10" y="142" class="label">origin.com</text>
<rect x="180" y="126" width="252.71" height="22" fill="#4c78a8" rx="3"/>
<text x="440.71000000000004" y="142" class="value">108.85</text>
<text x="10" y="174" class="label">cdn.cloudflare.steamstatic.com</text>
<rect x="180" y="158" width="257.54" height="22" fill="#4c78a8" rx="3"/>
<text x="445.54" y="174" class="value">110.93</text>
<text x="10" y="206" class="label">ea.com</text>
<rect x="180" y="190" width="297.27" height="22" fill="#4c78a8" rx="3"/>
<text x="485.27" y="206" class="value">128.04</text>
<text x="10" y="238" class="label">cdn.akamai.steamstatic.com</text>
<rect x="180" y="222" width="337.48" height="22" fill="#4c78a8" rx="3"/>
<text x="525.48" y="238" class="value">145.36</text>
<text x="10" y="270" class="label">steamcdn-a.akamaihd.net</text>
<rect x="180" y="254" width="427.47" height="22" fill="#4c78a8" rx="3"/>
<text x="615.47" y="270" class="value">184.12</text>
<text x="10" y="302" class="label">community.akamai.steamstatic.com</text>
<rect x="180" y="286" width="447.36" height="22" fill="#4c78a8" rx="3"/>
<text x="635.36" y="302" class="value">192.69</text>
<text x="10" y="334" class="label">store.akamai.steamstatic.com</text>
<rect x="180" y="318" width="455.77" height="22" fill="#4c78a8" rx="3"/>
<text x="643.77" y="334" class="value">196.31</text>
<text x="10" y="366" class="label">easyanticheat.net</text>
<rect x="180" y="350" width="458.69" height="22" fill="#4c78a8" rx="3"/>
<text x="646.69" y="366" class="value">197.57</text>
<text x="10" y="398" class="label">api.steampowered.com</text>
<rect x="180" y="382" width="504.08" height="22" fill="#4c78a8" rx="3"/>
<text x="692.0799999999999" y="398" class="value">217.12</text>
<text x="10" y="430" class="label">www.steamcommunity.com</text>
<rect x="180" y="414" width="549.86" height="22" fill="#4c78a8" rx="3"/>
<text x="737.86" y="430" class="value">236.84</text>
<text x="10" y="462" class="label">launcher-public-service-prod06.ol.epicgames.com</text>
<rect x="180" y="446" width="554.21" height="22" fill="#4c78a8" rx="3"/>
<text x="742.21" y="462" class="value">238.71</text>
<text x="10" y="494" class="label">steam-chat.com</text>
<rect x="180" y="478" width="580.0" height="22" fill="#4c78a8" rx="3"/>
<text x="768.0" y="494" class="value">249.82</text>
<line x1="180" y1="30" x2="180" y2="520" stroke="#ccc"/>
<line x1="180" y1="520" x2="760" y2="520" stroke="#ccc"/>
</svg>