<svg xmlns="http://www.w3.org/2000/svg" width="800" height="540">
<style> .label{font-family:DejaVu Sans,Verdana,Geneva,sans-serif;font-size:12px;fill:#333} .value{font-family:DejaVu Sans,Verdana,Geneva,sans-serif;font-size:12px;fill:#555} </style>
<text x="10" y="20" class="label">延迟柱状图（越低越好，Top 15），单位 ms</text>
<text x="10" y="46" class="label">eaassets-a.akamaihd.net</text>
<rect x="180" y="30" width="131.12" height="22" fill="#4c78a8" rx="3"/>
<text x="319.12" y="46" class="value">56.34</text>
<text x="10" y="78" class="label">rockstargames.com</text>
<rect x="180" y="62" width="143.36" height="22" fill="#4c78a8" rx="3"/>
<text x="331.36" y="78" class="value">61.60</text>
<text x="10" y="110" class="label">ea.com</text>
<rect x="180" y="94" width="251.39" height="22" fill="#4c78a8" rx="3"/>
<text x="439.39" y="110" class="value">108.02</text>
<text x="10" y="142" class="label">steamcdn-a.akamaihd.net</text>
<rect x="180" y="126" width="294.72" height="22" fill="#4c78a8" rx="3"/>
<text x="482.72" y="142" class="value">126.64</text>
<text x="10" y="174" class="label">cdn.akamai.steamstatic.com</text>
<rect x="180" y="158" width="300.71" height="22" fill="#4c78a8" rx="3"/>
<text x="488.71" y="174" class="value">129.21</text>
<text x="10" y="206" class="label">community.akamai.steamstatic.com</text>
<rect x="180" y="190" width="323.21" height="22" fill="#4c78a8" rx="3"/>
<text x="511.21" y="206" class="value">138.88</text>
<text x="10" y="238" class="label">origin.com</text>
<rect x="180" y="222" width="391.07" height="22" fill="#4c78a8" rx="3"/>
<text x="579.0699999999999" y="238" class="value">168.04</text>
<text x="10" y="270" class="label">api.steampowered.com</text>
<rect x="180" y="254" width="424.52" height="22" fill="#4c78a8" rx="3"/>
<text x="612.52" y="270" class="value">182.41</text>
<text x="10" y="302" class="label">store.akamai.steamstatic.com</text>
<rect x="180" y="286" width="429.45" height="22" fill="#4c78a8" rx="3"/>
<text x="617.45" y="302" class="value">184.53</text>
<text x="10" y="334" class="label">cdn.cloudflare.steamstatic.com</text>
<rect x="180" y="318" width="432.45" height="22" fill="#4c78a8" rx="3"/>
<text x="620.45" y="334" class="value">185.82</text>
<text x="10" y="366" class="label">easyanticheat.net</text>
<rect x="180" y="350" width="460.56" height="22" fill="#4c78a8" rx="3"/>
<text x="648.56" y="366" class="value">197.90</text>
<text x="10" y="398" class="label">ubisoft.com</text>
<rect x="180" y="382" width="515.93" height="22" fill="#4c78a8" rx="3"/>
<text x="703.93" y="398" class="value">221.69</text>
<text x="10" y="430" class="label">steamcommunity.com</text>
<rect x="180" y="414" width="541.39" height="22" fill="#4c78a8" rx="3"/>
<text x="729.39" y="430" class="value">232.63</text>
<text x="10" y="462" class="label">steam-chat.com</text>
<rect x="180" y="446" width="559.57" height="22" fill="#4c78a8" rx="3"/>
<text x="747.57" y="462" class="value">240.44</text>
<text x="10" y="494" class="label">www.steamcommunity.com</text>
<rect x="180" y="478" width="580.0" height="22" fill="#4c78a8" rx="3"/>
<text x="768.0" y="494" class="value">249.22</text>
<line x1="180" y1="30" x2="180" y2="520" stroke="#ccc"/>
<line x1="180" y1="520" x2="760" y2="520" stroke="#ccc"/>
</svg>