<svg xmlns="http://www.w3.org/2000/svg" width="800" height="540">
<style> .label{font-family:DejaVu Sans,Verdana,Geneva,sans-serif;font-size:12px;fill:#333} .value{font-family:DejaVu Sans,Verdana,Geneva,sans-serif;font-size:12px;fill:#555} </style>
<text x="10" y="20" class="label">延迟柱状图（越低越好，Top 15），单位 ms</text>
<text x="10" y="46" class="label">rockstargames.com</text>
<rect x="180" y="30" width="198.51" height="22" fill="#4c78a8" rx="3"/>
<text x="386.51" y="46" class="value">65.35</text>
<text x="10" y="78" class="label">socialclub.rockstargames.com</text>
<rect x="180" y="62" width="246.02" height="22" fill="#4c78a8" rx="3"/>
<text x="434.02" y="78" class="value">80.99</text>
<text x="10" y="110" class="label">cdn.akamai.steamstatic.com</text>
<rect x="180" y="94" width="284.26" height="22" fill="#4c78a8" rx="3"/>
<text x="472.26" y="110" class="value">93.58</text>
<text x="10" y="142" class="label">unrealengine.com</text>
<rect x="180" y="126" width="298.32" height="22" fill="#4c78a8" rx="3"/>
<text x="486.32" y="142" class="value">98.21</text>
<text x="10" y="174" class="label">eaassets-a.akamaihd.net</text>
<rect x="180" y="158" width="319.34" height="22" fill="#4c78a8" rx="3"/>
<text x="507.34" y="174" class="value">105.13</text>
<text x="10" y="206" class="label">epicgames.com</text>
<rect x="180" y="190" width="330.1" height="22" fill="#4c78a8" rx="3"/>
<text x="518.1" y="206" class="value">108.67</text>
<text x="10" y="238" class="label">community.akamai.steamstatic.com</text>
<rect x="180" y="222" width="334.32" height="22" fill="#4c78a8" rx="3"/>
<text x="522.3199999999999" y="238" class="value">110.06</text>
<text x="10" y="270" class="label">ubi.com</text>
<rect x="180" y="254" width="360.17" height="22" fill="#4c78a8" rx="3"/>
<text x="548.1700000000001" y="270" class="value">118.57</text>
<text x="10" y="302" class="label">ubisoft.com</text>
<rect x="180" y="286" width="368.1" height="22" fill="#4c78a8" rx="3"/>
<text x="556.1" y="302" class="value">121.18</text>
<text x="10" y="334" class="label">battle.net</text>
<rect x="180" y="318" width="395.53" height="22" fill="#4c78a8" rx="3"/>
<text x="583.53" y="334" class="value">130.21</text>
<text x="10" y="366" class="label">blizzard.com</text>
<rect x="180" y="350" width="410.68" height="22" fill="#4c78a8" rx="3"/>
<text x="598.6800000000001" y="366" class="value">135.20</text>
<text x="10" y="398" class="label">origin.com</text>
<rect x="180" y="382" width="569.76" height="22" fill="#4c78a8" rx="3"/>
<text x="757.76" y="398" class="value">187.57</text>
<text x="10" y="430" class="label">ea.com</text>
<rect x="180" y="414" width="571.71" height="22" fill="#4c78a8" rx="3"/>
<text x="759.71" y="430" class="value">188.21</text>
<text x="10" y="462" class="label">store.akamai.steamstatic.com</text>
<rect x="180" y="446" width="572.16" height="22" fill="#4c78a8" rx="3"/>
<text x="760.16" y="462" class="value">188.36</text>
<text x="10" y="494" class="label">cdn.cloudflare.steamstatic.com</text>
<rect x="180" y="478" width="580.0" height="22" fill="#4c78a8" rx="3"/>
<text x="768.0" y="494" class="value">190.94</text>
<line x1="180" y1="30" x2="180" y2="520" stroke="#ccc"/>
<line x1="180" y1="520" x2="760" y2="520" stroke="#ccc"/>
</svg>