<svg xmlns="http://www.w3.org/2000/svg" width="800" height="540">
<style> .label{font-family:DejaVu Sans,Verdana,Geneva,sans-serif;font-size:12px;fill:#333} .value{font-family:DejaVu Sans,Verdana,Geneva,sans-serif;font-size:12px;fill:#555} </style>
<text x="10" y="20" class="label">延迟柱状图（越低越好，Top 15），单位 ms</text>
<text x="10" y="46" class="label">ea.com</text>
<rect x="180" y="30" width="315.99" height="22" fill="#4c78a8" rx="3"/>
<text x="503.99" y="46" class="value">117.10</text>
<text x="10" y="78" class="label">easyanticheat.net</text>
<rect x="180" y="62" width="380.26" height="22" fill="#4c78a8" rx="3"/>
<text x="568.26" y="78" class="value">140.92</text>
<text x="10" y="110" class="label">eaassets-a.akamaihd.net</text>
<rect x="180" y="94" width="403.12" height="22" fill="#4c78a8" rx="3"/>
<text x="591.12" y="110" class="value">149.39</text>
<text x="10" y="142" class="label">ubi.com</text>
<rect x="180" y="126" width="427.13" height="22" fill="#4c78a8" rx="3"/>
<text x="615.13" y="142" class="value">158.29</text>
<text x="10" y="174" class="label">cdn.cloudflare.steamstatic.com</text>
<rect x="180" y="158" width="438.17" height="22" fill="#4c78a8" rx="3"/>
<text x="626.1700000000001" y="174" class="value">162.38</text>
<text x="10" y="206" class="label">rockstargames.com</text>
<rect x="180" y="190" width="447.8" height="22" fill="#4c78a8" rx="3"/>
<text x="635.8" y="206" class="value">165.95</text>
<text x="10" y="238" class="label">launcher-public-service-prod06.ol.epicgames.com</text>
<rect x="180" y="222" width="451.37" height="22" fill="#4c78a8" rx="3"/>
<text x="639.37" y="238" class="value">167.27</text>
<text x="10" y="270" class="label">ubisoft.com</text>
<rect x="180" y="254" width="456.68" height="22" fill="#4c78a8" rx="3"/>
<text x="644.6800000000001" y="270" class="value">169.24</text>
<text x="10" y="302" class="label">blizzard.com</text>
<rect x="180" y="286" width="459.46" height="22" fill="#4c78a8" rx="3"/>
<text x="647.46" y="302" class="value">170.27</text>
<text x="10" y="334" class="label">community.akamai.steamstatic.com</text>
<rect x="180" y="318" width="497.0" height="22" fill="#4c78a8" rx="3"/>
<text x="685.0" y="334" class="value">184.18</text>
<text x="10" y="366" class="label">battle.net</text>
<rect x="180" y="350" width="503.12" height="22" fill="#4c78a8" rx="3"/>
<text x="691.12" y="366" class="value">186.45</text>
<text x="10" y="398" class="label">steamcdn-a.akamaihd.net</text>
<rect x="180" y="382" width="513.24" height="22" fill="#4c78a8" rx="3"/>
<text x="701.24" y="398" class="value">190.20</text>
<text x="10" y="430" class="label">socialclub.rockstargames.com</text>
<rect x="180" y="414" width="544.06" height="22" fill="#4c78a8" rx="3"/>
<text x="732.06" y="430" class="value">201.62</text>
<text x="10" y="462" class="label">fortnite.com</text>
<rect x="180" y="446" width="565.13" height="22" fill="#4c78a8" rx="3"/>
<text x="753.13" y="462" class="value">209.43</text>
<text x="10" y="494" class="label">unrealengine.com</text>
<rect x="180" y="478" width="580.0" height="22" fill="#4c78a8" rx="3"/>
<text x="768.0" y="494" class="value">214.94</text>
<line x1="180" y1="30" x2="180" y2="520" stroke="#ccc"/>
<line x1="180" y1="520" x2="760" y2="520" stroke="#ccc"/>
</svg>