<svg xmlns="http://www.w3.org/2000/svg" width="800" height="540">
<style> .label{font-family:DejaVu Sans,Verdana,Geneva,sans-serif;font-size:12px;fill:#333} .value{font-family:DejaVu Sans,Verdana,Geneva,sans-serif;font-size:12px;fill:#555} </style>
<text x="10" y="20" class="label">延迟柱状图（越低越好，Top 15），单位 ms</text>
<text x="10" y="46" class="label">epicgames.com</text>
<rect x="180" y="30" width="224.74" height="22" fill="#4c78a8" rx="3"/>
<text x="412.74" y="46" class="value">77.09</text>
<text x="10" y="78" class="label">fortnite.com</text>
<rect x="180" y="62" width="271.68" height="22" fill="#4c78a8" rx="3"/>
<text x="459.68" y="78" class="value">93.19</text>
<text x="10" y="110" class="label">socialclub.rockstargames.com</text>
<rect x="180" y="94" width="303.66" height="22" fill="#4c78a8" rx="3"/>
<text x="491.66" y="110" class="value">104.16</text>
<text x="10" y="142" class="label">rockstargames.com</text>
<rect x="180" y="126" width="322.99" height="22" fill="#4c78a8" rx="3"/>
<text x="510.99" y="142" class="value">110.79</text>
<text x="10" y="174" class="label">battle.net</text>
<rect x="180" y="158" width="355.11" height="22" fill="#4c78a8" rx="3"/>
<text x="543.11" y="174" class="value">121.81</text>
<text x="10" y="206" class="label">blizzard.com</text>
<rect x="180" y="190" width="372.96" height="22" fill="#4c78a8" rx="3"/>
<text x="560.96" y="206" class="value">127.93</text>
<text x="10" y="238" class="label">ubi.com</text>
<rect x="180" y="222" width="408.81" height="22" fill="#4c78a8" rx="3"/>
<text x="596.81" y="238" class="value">140.23</text>
<text x="10" y="270" class="label">ea.com</text>
<rect x="180" y="254" width="448.78" height="22" fill="#4c78a8" rx="3"/>
<text x="636.78" y="270" class="value">153.94</text>
<text x="10" y="302" class="label">cdn.cloudflare.steamstatic.com</text>
<rect x="180" y="286" width="497.53" height="22" fill="#4c78a8" rx="3"/>
<text x="685.53" y="302" class="value">170.66</text>
<text x="10" y="334" class="label">unrealengine.com</text>
<rect x="180" y="318" width="516.36" height="22" fill="#4c78a8" rx="3"/>
<text x="704.36" y="334" class="value">177.12</text>
<text x="10" y="366" class="label">cdn.akamai.steamstatic.com</text>
<rect x="180" y="350" width="538.28" height="22" fill="#4c78a8" rx="3"/>
<text x="726.28" y="366" class="value">184.64</text>
<text x="10" y="398" class="label">origin.com</text>
<rect x="180" y="382" width="548.02" height="22" fill="#4c78a8" rx="3"/>
<text x="736.02" y="398" class="value">187.98</text>
<text x="10" y="430" class="label">community.akamai.steamstatic.com</text>
<rect x="180" y="414" width="555.02" height="22" fill="#4c78a8" rx="3"/>
<text x="743.02" y="430" class="value">190.38</text>
<text x="10" y="462" class="label">steam-chat.com</text>
<rect x="180" y="446" width="556.56" height="22" fill="#4c78a8" rx="3"/>
<text x="744.56" y="462" class="value">190.91</text>
<text x="10" y="494" class="label">ubisoft.com</text>
<rect x="180" y="478" width="580.0" height="22" fill="#4c78a8" rx="3"/>
<text x="768.0" y="494" class="value">198.95</text>
<line x1="180" y1="30" x2="180" y2="520" stroke="#ccc"/>
<line x1="180" y1="520" x2="760" y2="520" stroke="#ccc"/>
</svg>