<svg xmlns="http://www.w3.org/2000/svg" width="800" height="540">
<style> .label{font-family:DejaVu Sans,Verdana,Geneva,sans-serif;font-size:12px;fill:#333} .value{font-family:DejaVu Sans,Verdana,Geneva,sans-serif;font-size:12px;fill:#555} </style>
<text x="10" y="20" class="label">延迟柱状图（越低越好，Top 15），单位 ms</text>
<text x="10" y="46" class="label">rockstargames.com</text>
<rect x="180" y="30" width="249.62" height="22" fill="#4c78a8" rx="3"/>
<text x="437.62" y="46" class="value">110.20</text>
<text x="10" y="78" class="label">ubisoft.com</text>
<rect x="180" y="62" width="251.62" height="22" fill="#4c78a8" rx="3"/>
<text x="439.62" y="78" class="value">111.08</text>
<text x="10" y="110" class="label">community.akamai.steamstatic.com</text>
<rect x="180" y="94" width="331.71" height="22" fill="#4c78a8" rx="3"/>
<text x="519.71" y="110" class="value">146.44</text>
<text x="10" y="142" class="label">cdn.cloudflare.steamstatic.com</text>
<rect x="180" y="126" width="334.0" height="22" fill="#4c78a8" rx="3"/>
<text x="522.0" y="142" class="value">147.45</text>
<text x="10" y="174" class="label">steamcdn-a.akamaihd.net</text>
<rect x="180" y="158" width="352.3" height="22" fill="#4c78a8" rx="3"/>
<text x="540.3" y="174" class="value">155.53</text>
<text x="10" y="206" class="label">store.akamai.steamstatic.com</text>
<rect x="180" y="190" width="353.23" height="22" fill="#4c78a8" rx="3"/>
<text x="541.23" y="206" class="value">155.94</text>
<text x="10" y="238" class="label">eaassets-a.akamaihd.net</text>
<rect x="180" y="222" width="363.06" height="22" fill="#4c78a8" rx="3"/>
<text x="551.06" y="238" class="value">160.28</text>
<text x="10" y="270" class="label">easyanticheat.net</text>
<rect x="180" y="254" width="376.95" height="22" fill="#4c78a8" rx="3"/>
<text x="564.95" y="270" class="value">166.41</text>
<text x="10" y="302" class="label">steam-chat.com</text>
<rect x="180" y="286" width="466.36" height="22" fill="#4c78a8" rx="3"/>
<text x="654.36" y="302" class="value">205.88</text>
<text x="10" y="334" class="label">blizzard.com</text>
<rect x="180" y="318" width="468.24" height="22" fill="#4c78a8" rx="3"/>
<text x="656.24" y="334" class="value">206.71</text>
<text x="10" y="366" class="label">launcher-public-service-prod06.ol.epicgames.com</text>
<rect x="180" y="350" width="504.55" height="22" fill="#4c78a8" rx="3"/>
<text x="692.55" y="366" class="value">222.74</text>
<text x="10" y="398" class="label">ea.com</text>
<rect x="180" y="382" width="512.16" height="22" fill="#4c78a8" rx="3"/>
<text x="700.16" y="398" class="value">226.10</text>
<text x="10" y="430" class="label">socialclub.rockstargames.com</text>
<rect x="180" y="414" width="543.83" height="22" fill="#4c78a8" rx="3"/>
<text x="731.83" y="430" class="value">240.08</text>
<text x="10" y="462" class="label">ubi.com</text>
<rect x="180" y="446" width="572.68" height="22" fill="#4c78a8" rx="3"/>
<text x="760.68" y="462" class="value">252.82</text>
<text x="10" y="494" class="label">cdn.akamai.steamstatic.com</text>
<rect x="180" y="478" width="580.0" height="22" fill="#4c78a8" rx="3"/>
<text x="768.0" y="494" class="value">256.05</text>
<line x1="180" y1="30" x2="180" y2="520" stroke="#ccc"/>
<line x1="180" y1="520" x2="760" y2="520" stroke="#ccc"/>
</svg>