<svg xmlns="http://www.w3.org/2000/svg" width="800" height="540">
<style> .label{font-family:DejaVu Sans,Verdana,Geneva,sans-serif;font-size:12px;fill:#333} .value{font-family:DejaVu Sans,Verdana,Geneva,sans-serif;font-size:12px;fill:#555} </style>
<text x="10" y="20" class="label">延迟柱状图（越低越好，Top 15），单位 ms</text>
<text x="10" y="46" class="label">eaassets-a.akamaihd.net</text>
<rect x="180" y="30" width="146.12" height="22" fill="#4c78a8" rx="3"/>
<text x="334.12" y="46" class="value">63.44</text>
<text x="10" y="78" class="label">rockstargames.com</text>
<rect x="180" y="62" width="150.2" height="22" fill="#4c78a8" rx="3"/>
<text x="338.2" y="78" class="value">65.21</text>
<text x="10" y="110" class="label">ea.com</text>
<rect x="180" y="94" width="223.1" height="22" fill="#4c78a8" rx="3"/>
<text x="411.1" y="110" class="value">96.86</text>
<text x="10" y="142" class="label">community.akamai.steamstatic.com</text>
<rect x="180" y="126" width="244.24" height="22" fill="#4c78a8" rx="3"/>
<text x="432.24" y="142" class="value">106.04</text>
<text x="10" y="174" class="label">blizzard.com</text>
<rect x="180" y="158" width="272.78" height="22" fill="#4c78a8" rx="3"/>
<text x="460.78" y="174" class="value">118.43</text>
<text x="10" y="206" class="label">ubi.com</text>
<rect x="180" y="190" width="287.48" height="22" fill="#4c78a8" rx="3"/>
<text x="475.48" y="206" class="value">124.81</text>
<text x="10" y="238" class="label">battle.net</text>
<rect x="180" y="222" width="330.37" height="22" fill="#4c78a8" rx="3"/>
<text x="518.37" y="238" class="value">143.43</text>
<text x="10" y="270" class="label">socialclub.rockstargames.com</text>
<rect x="180" y="254" width="355.24" height="22" fill="#4c78a8" rx="3"/>
<text x="543.24" y="270" class="value">154.23</text>
<text x="10" y="302" class="label">steamcdn-a.akamaihd.net</text>
<rect x="180" y="286" width="443.69" height="22" fill="#4c78a8" rx="3"/>
<text x="631.69" y="302" class="value">192.63</text>
<text x="10" y="334" class="label">cdn.akamai.steamstatic.com</text>
<rect x="180" y="318" width="466.01" height="22" fill="#4c78a8" rx="3"/>
<text x="654.01" y="334" class="value">202.32</text>
<text x="10" y="366" class="label">static3.cdn.ubi.com</text>
<rect x="180" y="350" width="523.71" height="22" fill="#4c78a8" rx="3"/>
<text x="711.71" y="366" class="value">227.37</text>
<text x="10" y="398" class="label">steam-chat.com</text>
<rect x="180" y="382" width="528.45" height="22" fill="#4c78a8" rx="3"/>
<text x="716.45" y="398" class="value">229.43</text>
<text x="10" y="430" class="label">origin.com</text>
<rect x="180" y="414" width="548.56" height="22" fill="#4c78a8" rx="3"/>
<text x="736.56" y="430" class="value">238.16</text>
<text x="10" y="462" class="label">fortnite.com</text>
<rect x="180" y="446" width="560.74" height="22" fill="#4c78a8" rx="3"/>
<text x="748.74" y="462" class="value">243.45</text>
<text x="10" y="494" class="label">easyanticheat.net</text>
<rect x="180" y="478" width="580.0" height="22" fill="#4c78a8" rx="3"/>
<text x="768.0" y="494" class="value">251.81</text>
<line x1="180" y1="30" x2="180" y2="520" stroke="#ccc"/>
<line x1="180" y1="520" x2="760" y2="520" stroke="#ccc"/>
</svg>