<svg xmlns="http://www.w3.org/2000/svg" width="800" height="540">
<style> .label{font-family:DejaVu Sans,Verdana,Geneva,sans-serif;font-size:12px;fill:#333} .value{font-family:DejaVu Sans,Verdana,Geneva,sans-serif;font-size:12px;fill:#555} </style>
<text x="10" y="20" class="label">延迟柱状图（越低越好，Top 15），单位 ms</text>
<text x="10" y="46" class="label">rockstargames.com</text>
<rect x="180" y="30" width="169.33" height="22" fill="#4c78a8" rx="3"/>
<text x="357.33000000000004" y="46" class="value">54.92</text>
<text x="10" y="78" class="label">eaassets-a.akamaihd.net</text>
<rect x="180" y="62" width="219.77" height="22" fill="#4c78a8" rx="3"/>
<text x="407.77" y="78" class="value">71.28</text>
<text x="10" y="110" class="label">ubi.com</text>
<rect x="180" y="94" width="247.85" height="22" fill="#4c78a8" rx="3"/>
<text x="435.85" y="110" class="value">80.39</text>
<text x="10" y="142" class="label">battle.net</text>
<rect x="180" y="126" width="262.28" height="22" fill="#4c78a8" rx="3"/>
<text x="450.28" y="142" class="value">85.07</text>
<text x="10" y="174" class="label">fortnite.com</text>
<rect x="180" y="158" width="273.84" height="22" fill="#4c78a8" rx="3"/>
<text x="461.84" y="174" class="value">88.82</text>
<text x="10" y="206" class="label">socialclub.rockstargames.com</text>
<rect x="180" y="190" width="306.83" height="22" fill="#4c78a8" rx="3"/>
<text x="494.83" y="206" class="value">99.52</text>
<text x="10" y="238" class="label">blizzard.com</text>
<rect x="180" y="222" width="322.56" height="22" fill="#4c78a8" rx="3"/>
<text x="510.56" y="238" class="value">104.62</text>
<text x="10" y="270" class="label">epicgames.com</text>
<rect x="180" y="254" width="326.44" height="22" fill="#4c78a8" rx="3"/>
<text x="514.44" y="270" class="value">105.88</text>
<text x="10" y="302" class="label">ea.com</text>
<rect x="180" y="286" width="425.29" height="22" fill="#4c78a8" rx="3"/>
<text x="613.29" y="302" class="value">137.94</text>
<text x="10" y="334" class="label">cdn.akamai.steamstatic.com</text>
<rect x="180" y="318" width="433.06" height="22" fill="#4c78a8" rx="3"/>
<text x="621.06" y="334" class="value">140.46</text>
<text x="10" y="366" class="label">unrealengine.com</text>
<rect x="180" y="350" width="474.62" height="22" fill="#4c78a8" rx="3"/>
<text x="662.62" y="366" class="value">153.94</text>
<text x="10" y="398" class="label">store.akamai.steamstatic.com</text>
<rect x="180" y="382" width="521.14" height="22" fill="#4c78a8" rx="3"/>
<text x="709.14" y="398" class="value">169.03</text>
<text x="10" y="430" class="label">community.akamai.steamstatic.com</text>
<rect x="180" y="414" width="548.03" height="22" fill="#4c78a8" rx="3"/>
<text x="736.03" y="430" class="value">177.75</text>
<text x="10" y="462" class="label">launcher-public-service-prod06.ol.epicgames.com</text>
<rect x="180" y="446" width="578.43" height="22" fill="#4c78a8" rx="3"/>
<text x="766.43" y="462" class="value">187.61</text>
<text x="10" y="494" class="label">gog.com</text>
<rect x="180" y="478" width="580.0" height="22" fill="#4c78a8" rx="3"/>
<text x="768.0" y="494" class="value">188.12</text>
<line x1="180" y1="30" x2="180" y2="520" stroke="#ccc"/>
<line x1="180" y1="520" x2="760" y2="520" stroke="#ccc"/>
</svg>