<svg xmlns="http://www.w3.org/2000/svg" width="800" height="540">
<style> .label{font-family:DejaVu Sans,Verdana,Geneva,sans-serif;font-size:12px;fill:#333} .value{font-family:DejaVu Sans,Verdana,Geneva,sans-serif;font-size:12px;fill:#555} </style>
<text x="10" y="20" class="label">延迟柱状图（越低越好，Top 15），单位 ms</text>
<text x="10" y="46" class="label">api.steampowered.com</text>
<rect x="180" y="30" width="339.83" height="22" fill="#4c78a8" rx="3"/>
<text x="527.8299999999999" y="46" class="value">129.89</text>
<text x="10" y="78" class="label">rockstargames.com</text>
<rect x="180" y="62" width="381.09" height="22" fill="#4c78a8" rx="3"/>
<text x="569.0899999999999" y="78" class="value">145.66</text>
<text x="10" y="110" class="label">ubi.com</text>
<rect x="180" y="94" width="394.69" height="22" fill="#4c78a8" rx="3"/>
<text x="582.69" y="110" class="value">150.86</text>
<text x="10" y="142" class="label">steamcdn-a.akamaihd.net</text>
<rect x="180" y="126" width="397.23" height="22" fill="#4c78a8" rx="3"/>
<text x="585.23" y="142" class="value">151.83</text>
<text x="10" y="174" class="label">launcher-public-service-prod06.ol.epicgames.com</text>
<rect x="180" y="158" width="420.07" height="22" fill="#4c78a8" rx="3"/>
<text x="608.0699999999999" y="174" class="value">160.56</text>
<text x="10" y="206" class="label">easyanticheat.net</text>
<rect x="180" y="190" width="423.76" height="22" fill="#4c78a8" rx="3"/>
<text x="611.76" y="206" class="value">161.97</text>
<text x="10" y="238" class="label">origin.com</text>
<rect x="180" y="222" width="438.09" height="22" fill="#4c78a8" rx="3"/>
<text x="626.0899999999999" y="238" class="value">167.45</text>
<text x="10" y="270" class="label">eaassets-a.akamaihd.net</text>
<rect x="180" y="254" width="447.85" height="22" fill="#4c78a8" rx="3"/>
<text x="635.85" y="270" class="value">171.18</text>
<text x="10" y="302" class="label">blizzard.com</text>
<rect x="180" y="286" width="471.82" height="22" fill="#4c78a8" rx="3"/>
<text x="659.8199999999999" y="302" class="value">180.34</text>
<text x="10" y="334" class="label">ea.com</text>
<rect x="180" y="318" width="476.97" height="22" fill="#4c78a8" rx="3"/>
<text x="664.97" y="334" class="value">182.31</text>
<text x="10" y="366" class="label">unrealengine.com</text>
<rect x="180" y="350" width="491.28" height="22" fill="#4c78a8" rx="3"/>
<text x="679.28" y="366" class="value">187.78</text>
<text x="10" y="398" class="label">battle.net</text>
<rect x="180" y="382" width="513.08" height="22" fill="#4c78a8" rx="3"/>
<text x="701.08" y="398" class="value">196.11</text>
<text x="10" y="430" class="label">socialclub.rockstargames.com</text>
<rect x="180" y="414" width="548.45" height="22" fill="#4c78a8" rx="3"/>
<text x="736.45" y="430" class="value">209.63</text>
<text x="10" y="462" class="label">fortnite.com</text>
<rect x="180" y="446" width="554.62" height="22" fill="#4c78a8" rx="3"/>
<text x="742.62" y="462" class="value">211.99</text>
<text x="10" y="494" class="label">community.akamai.steamstatic.com</text>
<rect x="180" y="478" width="580.0" height="22" fill="#4c78a8" rx="3"/>
<text x="768.0" y="494" class="value">221.69</text>
<line x1="180" y1="30" x2="180" y2="520" stroke="#ccc"/>
<line x1="180" y1="520" x2="760" y2="520" stroke="#ccc"/>
</svg>