<svg xmlns="http://www.w3.org/2000/svg" width="800" height="540">
<style> .label{font-family:DejaVu Sans,Verdana,Geneva,sans-serif;font-size:12px;fill:#333} .value{font-family:DejaVu Sans,Verdana,Geneva,sans-serif;font-size:12px;fill:#555} </style>
<text x="10" y="20" class="label">延迟柱状图（越低越好，Top 15），单位 ms</text>
<text x="10" y="46" class="label">rockstargames.com</text>
<rect x="180" y="30" width="76.74" height="22" fill="#4c78a8" rx="3"/>
<text x="264.74" y="46" class="value">39.14</text>
<text x="10" y="78" class="label">eaassets-a.akamaihd.net</text>
<rect x="180" y="62" width="79.25" height="22" fill="#4c78a8" rx="3"/>
<text x="267.25" y="78" class="value">40.42</text>
<text x="10" y="110" class="label">ea.com</text>
<rect x="180" y="94" width="127.58" height="22" fill="#4c78a8" rx="3"/>
<text x="315.58" y="110" class="value">65.07</text>
<text x="10" y="142" class="label">ubisoft.com</text>
<rect x="180" y="126" width="185.12" height="22" fill="#4c78a8" rx="3"/>
<text x="373.12" y="142" class="value">94.42</text>
<text x="10" y="174" class="label">origin.com</text>
<rect x="180" y="158" width="287.05" height="22" fill="#4c78a8" rx="3"/>
<text x="475.05" y="174" class="value">146.41</text>
<text x="10" y="206" class="label">cdn.akamai.steamstatic.com</text>
<rect x="180" y="190" width="313.62" height="22" fill="#4c78a8" rx="3"/>
<text x="501.62" y="206" class="value">159.96</text>
<text x="10" y="238" class="label">community.akamai.steamstatic.com</text>
<rect x="180" y="222" width="329.54" height="22" fill="#4c78a8" rx="3"/>
<text x="517.54" y="238" class="value">168.08</text>
<text x="10" y="270" class="label">steamcdn-a.akamaihd.net</text>
<rect x="180" y="254" width="399.02" height="22" fill="#4c78a8" rx="3"/>
<text x="587.02" y="270" class="value">203.52</text>
<text x="10" y="302" class="label">cdn.cloudflare.steamstatic.com</text>
<rect x="180" y="286" width="401.65" height="22" fill="#4c78a8" rx="3"/>
<text x="589.65" y="302" class="value">204.86</text>
<text x="10" y="334" class="label">store.akamai.steamstatic.com</text>
<rect x="180" y="318" width="425.23" height="22" fill="#4c78a8" rx="3"/>
<text x="613.23" y="334" class="value">216.89</text>
<text x="10" y="366" class="label">easyanticheat.net</text>
<rect x="180" y="350" width="442.31" height="22" fill="#4c78a8" rx="3"/>
<text x="630.31" y="366" class="value">225.60</text>
<text x="10" y="398" class="label">api.steampowered.com</text>
<rect x="180" y="382" width="475.09" height="22" fill="#4c78a8" rx="3"/>
<text x="663.0899999999999" y="398" class="value">242.32</text>
<text x="10" y="430" class="label">steam-chat.com</text>
<rect x="180" y="414" width="476.32" height="22" fill="#4c78a8" rx="3"/>
<text x="664.3199999999999" y="430" class="value">242.95</text>
<text x="10" y="462" class="label">www.steamcommunity.com</text>
<rect x="180" y="446" width="525.99" height="22" fill="#4c78a8" rx="3"/>
<text x="713.99" y="462" class="value">268.28</text>
<text x="10" y="494" class="label">battle.net</text>
<rect x="180" y="478" width="580.0" height="22" fill="#4c78a8" rx="3"/>
<text x="768.0" y="494" class="value">295.83</text>
<line x1="180" y1="30" x2="180" y2="520" stroke="#ccc"/>
<line x1="180" y1="520" x2="760" y2="520" stroke="#ccc"/>
</svg>