<svg xmlns="http://www.w3.org/2000/svg" width="800" height="540">
<style> .label{font-family:DejaVu Sans,Verdana,Geneva,sans-serif;font-size:12px;fill:#333} .value{font-family:DejaVu Sans,Verdana,Geneva,sans-serif;font-size:12px;fill:#555} </style>
<text x="10" y="20" class="label">延迟柱状图（越低越好，Top 15），单位 ms</text>
<text x="10" y="46" class="label">rockstargames.com</text>
<rect x="180" y="30" width="175.36" height="22" fill="#4c78a8" rx="3"/>
<text x="363.36" y="46" class="value">67.40</text>
<text x="10" y="78" class="label">community.akamai.steamstatic.com</text>
<rect x="180" y="62" width="203.27" height="22" fill="#4c78a8" rx="3"/>
<text x="391.27" y="78" class="value">78.13</text>
<text x="10" y="110" class="label">eaassets-a.akamaihd.net</text>
<rect x="180" y="94" width="208.63" height="22" fill="#4c78a8" rx="3"/>
<text x="396.63" y="110" class="value">80.19</text>
<text x="10" y="142" class="label">ubisoft.com</text>
<rect x="180" y="126" width="234.99" height="22" fill="#4c78a8" rx="3"/>
<text x="422.99" y="142" class="value">90.32</text>
<text x="10" y="174" class="label">static3.cdn.ubi.com</text>
<rect x="180" y="158" width="286.03" height="22" fill="#4c78a8" rx="3"/>
<text x="474.03" y="174" class="value">109.94</text>
<text x="10" y="206" class="label">steamcdn-a.akamaihd.net</text>
<rect x="180" y="190" width="300.86" height="22" fill="#4c78a8" rx="3"/>
<text x="488.86" y="206" class="value">115.64</text>
<text x="10" y="238" class="label">ea.com</text>
<rect x="180" y="222" width="329.45" height="22" fill="#4c78a8" rx="3"/>
<text x="517.45" y="238" class="value">126.63</text>
<text x="10" y="270" class="label">blizzard.com</text>
<rect x="180" y="254" width="331.56" height="22" fill="#4c78a8" rx="3"/>
<text x="519.56" y="270" class="value">127.44</text>
<text x="10" y="302" class="label">battle.net</text>
<rect x="180" y="286" width="340.8" height="22" fill="#4c78a8" rx="3"/>
<text x="528.8" y="302" class="value">130.99</text>
<text x="10" y="334" class="label">socialclub.rockstargames.com</text>
<rect x="180" y="318" width="342.26" height="22" fill="#4c78a8" rx="3"/>
<text x="530.26" y="334" class="value">131.55</text>
<text x="10" y="366" class="label">easyanticheat.net</text>
<rect x="180" y="350" width="346.94" height="22" fill="#4c78a8" rx="3"/>
<text x="534.94" y="366" class="value">133.35</text>
<text x="10" y="398" class="label">ubi.com</text>
<rect x="180" y="382" width="347.46" height="22" fill="#4c78a8" rx="3"/>
<text x="535.46" y="398" class="value">133.55</text>
<text x="10" y="430" class="label">cdn.cloudflare.steamstatic.com</text>
<rect x="180" y="414" width="507.15" height="22" fill="#4c78a8" rx="3"/>
<text x="695.15" y="430" class="value">194.93</text>
<text x="10" y="462" class="label">cdn.akamai.steamstatic.com</text>
<rect x="180" y="446" width="518.0" height="22" fill="#4c78a8" rx="3"/>
<text x="706.0" y="462" class="value">199.10</text>
<text x="10" y="494" class="label">origin.com</text>
<rect x="180" y="478" width="580.0" height="22" fill="#4c78a8" rx="3"/>
<text x="768.0" y="494" class="value">222.93</text>
<line x1="180" y1="30" x2="180" y2="520" stroke="#ccc"/>
<line x1="180" y1="520" x2="760" y2="520" stroke="#ccc"/>
</svg>