<svg xmlns="http://www.w3.org/2000/svg" width="800" height="540">
<style> .label{font-family:DejaVu Sans,Verdana,Geneva,sans-serif;font-size:12px;fill:#333} .value{font-family:DejaVu Sans,Verdana,Geneva,sans-serif;font-size:12px;fill:#555} </style>
<text x="10" y="20" class="label">延迟柱状图（越低越好，Top 15），单位 ms</text>
<text x="10" y="46" class="label">rockstargames.com</text>
<rect x="180" y="30" width="202.49" height="22" fill="#4c78a8" rx="3"/>
<text x="390.49" y="46" class="value">66.31</text>
<text x="10" y="78" class="label">eaassets-a.akamaihd.net</text>
<rect x="180" y="62" width="216.3" height="22" fill="#4c78a8" rx="3"/>
<text x="404.3" y="78" class="value">70.83</text>
<text x="10" y="110" class="label">socialclub.rockstargames.com</text>
<rect x="180" y="94" width="253.49" height="22" fill="#4c78a8" rx="3"/>
<text x="441.49" y="110" class="value">83.01</text>
<text x="10" y="142" class="label">blizzard.com</text>
<rect x="180" y="126" width="276.49" height="22" fill="#4c78a8" rx="3"/>
<text x="464.49" y="142" class="value">90.54</text>
<text x="10" y="174" class="label">battle.net</text>
<rect x="180" y="158" width="299.88" height="22" fill="#4c78a8" rx="3"/>
<text x="487.88" y="174" class="value">98.20</text>
<text x="10" y="206" class="label">epicgames.com</text>
<rect x="180" y="190" width="313.83" height="22" fill="#4c78a8" rx="3"/>
<text x="501.83" y="206" class="value">102.77</text>
<text x="10" y="238" class="label">ubi.com</text>
<rect x="180" y="222" width="347.76" height="22" fill="#4c78a8" rx="3"/>
<text x="535.76" y="238" class="value">113.88</text>
<text x="10" y="270" class="label">ubisoft.com</text>
<rect x="180" y="254" width="382.48" height="22" fill="#4c78a8" rx="3"/>
<text x="570.48" y="270" class="value">125.25</text>
<text x="10" y="302" class="label">fortnite.com</text>
<rect x="180" y="286" width="399.8" height="22" fill="#4c78a8" rx="3"/>
<text x="587.8" y="302" class="value">130.92</text>
<text x="10" y="334" class="label">ea.com</text>
<rect x="180" y="318" width="470.03" height="22" fill="#4c78a8" rx="3"/>
<text x="658.03" y="334" class="value">153.92</text>
<text x="10" y="366" class="label">steamcdn-a.akamaihd.net</text>
<rect x="180" y="350" width="513.92" height="22" fill="#4c78a8" rx="3"/>
<text x="701.92" y="366" class="value">168.29</text>
<text x="10" y="398" class="label">static3.cdn.ubi.com</text>
<rect x="180" y="382" width="524.64" height="22" fill="#4c78a8" rx="3"/>
<text x="712.64" y="398" class="value">171.80</text>
<text x="10" y="430" class="label">unrealengine.com</text>
<rect x="180" y="414" width="554.2" height="22" fill="#4c78a8" rx="3"/>
<text x="742.2" y="430" class="value">181.48</text>
<text x="10" y="462" class="label">gog.com</text>
<rect x="180" y="446" width="573.53" height="22" fill="#4c78a8" rx="3"/>
<text x="761.53" y="462" class="value">187.81</text>
<text x="10" y="494" class="label">store.akamai.steamstatic.com</text>
<rect x="180" y="478" width="580.0" height="22" fill="#4c78a8" rx="3"/>
<text x="768.0" y="494" class="value">189.93</text>
<line x1="180" y1="30" x2="180" y2="520" stroke="#ccc"/>
<line x1="180" y1="520" x2="760" y2="520" stroke="#ccc"/>
</svg>