<svg xmlns="http://www.w3.org/2000/svg" width="800" height="540">
<style> .label{font-family:DejaVu Sans,Verdana,Geneva,sans-serif;font-size:12px;fill:#333} .value{font-family:DejaVu Sans,Verdana,Geneva,sans-serif;font-size:12px;fill:#555} </style>
<text x="10" y="20" class="label">延迟柱状图（越低越好，Top 15），单位 ms</text>
<text x="10" y="46" class="label">www.steamcommunity.com</text>
<rect x="180" y="30" width="52.4" height="22" fill="#4c78a8" rx="3"/>
<text x="240.4" y="46" class="value">97.92</text>
<text x="10" y="78" class="label">battlenet.com.cn</text>
<rect x="180" y="62" width="169.32" height="22" fill="#4c78a8" rx="3"/>
<text x="357.32" y="78" class="value">316.41</text>
<text x="10" y="110" class="label">steamcommunity.com</text>
<rect x="180" y="94" width="171.79" height="22" fill="#4c78a8" rx="3"/>
<text x="359.78999999999996" y="110" class="value">321.03</text>
<text x="10" y="142" class="label">gog.com</text>
<rect x="180" y="126" width="425.89" height="22" fill="#4c78a8" rx="3"/>
<text x="613.89" y="142" class="value">795.88</text>
<text x="10" y="174" class="label">easyanticheat.net</text>
<rect x="180" y="158" width="463.24" height="22" fill="#4c78a8" rx="3"/>
<text x="651.24" y="174" class="value">865.68</text>
<text x="10" y="206" class="label">launcher-public-service-prod06.ol.epicgames.com</text>
<rect x="180" y="190" width="476.41" height="22" fill="#4c78a8" rx="3"/>
<text x="664.4100000000001" y="206" class="value">890.28</text>
<text x="10" y="238" class="label">uplay.com</text>
<rect x="180" y="222" width="487.69" height="22" fill="#4c78a8" rx="3"/>
<text x="675.69" y="238" class="value">911.36</text>
<text x="10" y="270" class="label">fortnite.com</text>
<rect x="180" y="254" width="524.82" height="22" fill="#4c78a8" rx="3"/>
<text x="712.82" y="270" class="value">980.76</text>
<text x="10" y="302" class="label">ubi.com</text>
<rect x="180" y="286" width="529.65" height="22" fill="#4c78a8" rx="3"/>
<text x="717.65" y="302" class="value">989.78</text>
<text x="10" y="334" class="label">unrealengine.com</text>
<rect x="180" y="318" width="537.75" height="22" fill="#4c78a8" rx="3"/>
<text x="725.75" y="334" class="value">1004.92</text>
<text x="10" y="366" class="label">epicgames.com</text>
<rect x="180" y="350" width="540.41" height="22" fill="#4c78a8" rx="3"/>
<text x="728.41" y="366" class="value">1009.88</text>
<text x="10" y="398" class="label">ubisoft.com</text>
<rect x="180" y="382" width="549.54" height="22" fill="#4c78a8" rx="3"/>
<text x="737.54" y="398" class="value">1026.94</text>
<text x="10" y="430" class="label">steamcdn-a.akamaihd.net</text>
<rect x="180" y="414" width="571.67" height="22" fill="#4c78a8" rx="3"/>
<text x="759.67" y="430" class="value">1068.30</text>
<text x="10" y="462" class="label">cdn.cloudflare.steamstatic.com</text>
<rect x="180" y="446" width="574.48" height="22" fill="#4c78a8" rx="3"/>
<text x="762.48" y="462" class="value">1073.56</text>
<text x="10" y="494" class="label">blizzard.com</text>
<rect x="180" y="478" width="580.0" height="22" fill="#4c78a8" rx="3"/>
<text x="768.0" y="494" class="value">1083.87</text>
<line x1="180" y1="30" x2="180" y2="520" stroke="#ccc"/>
<line x1="180" y1="520" x2="760" y2="520" stroke="#ccc"/>
</svg>