<svg xmlns="http://www.w3.org/2000/svg" width="800" height="540">
<style> .label{font-family:DejaVu Sans,Verdana,Geneva,sans-serif;font-size:12px;fill:#333} .value{font-family:DejaVu Sans,Verdana,Geneva,sans-serif;font-size:12px;fill:#555} </style>
<text x="10" y="20" class="label">延迟柱状图（越低越好，Top 15），单位 ms</text>
<text x="10" y="46" class="label">eaassets-a.akamaihd.net</text>
<rect x="180" y="30" width="105.38" height="22" fill="#4c78a8" rx="3"/>
<text x="293.38" y="46" class="value">40.76</text>
<text x="10" y="78" class="label">ubisoft.com</text>
<rect x="180" y="62" width="253.01" height="22" fill="#4c78a8" rx="3"/>
<text x="441.01" y="78" class="value">97.86</text>
<text x="10" y="110" class="label">ea.com</text>
<rect x="180" y="94" width="257.13" height="22" fill="#4c78a8" rx="3"/>
<text x="445.13" y="110" class="value">99.45</text>
<text x="10" y="142" class="label">steamcdn-a.akamaihd.net</text>
<rect x="180" y="126" width="273.47" height="22" fill="#4c78a8" rx="3"/>
<text x="461.47" y="142" class="value">105.77</text>
<text x="10" y="174" class="label">origin.com</text>
<rect x="180" y="158" width="282.59" height="22" fill="#4c78a8" rx="3"/>
<text x="470.59" y="174" class="value">109.30</text>
<text x="10" y="206" class="label">ubi.com</text>
<rect x="180" y="190" width="320.08" height="22" fill="#4c78a8" rx="3"/>
<text x="508.08" y="206" class="value">123.80</text>
<text x="10" y="238" class="label">battle.net</text>
<rect x="180" y="222" width="323.13" height="22" fill="#4c78a8" rx="3"/>
<text x="511.13" y="238" class="value">124.98</text>
<text x="10" y="270" class="label">rockstargames.com</text>
<rect x="180" y="254" width="354.26" height="22" fill="#4c78a8" rx="3"/>
<text x="542.26" y="270" class="value">137.02</text>
<text x="10" y="302" class="label">blizzard.com</text>
<rect x="180" y="286" width="373.89" height="22" fill="#4c78a8" rx="3"/>
<text x="561.89" y="302" class="value">144.61</text>
<text x="10" y="334" class="label">cdn.akamai.steamstatic.com</text>
<rect x="180" y="318" width="379.32" height="22" fill="#4c78a8" rx="3"/>
<text x="567.3199999999999" y="334" class="value">146.71</text>
<text x="10" y="366" class="label">community.akamai.steamstatic.com</text>
<rect x="180" y="350" width="387.56" height="22" fill="#4c78a8" rx="3"/>
<text x="575.56" y="366" class="value">149.90</text>
<text x="10" y="398" class="label">socialclub.rockstargames.com</text>
<rect x="180" y="382" width="392.97" height="22" fill="#4c78a8" rx="3"/>
<text x="580.97" y="398" class="value">151.99</text>
<text x="10" y="430" class="label">cdn.cloudflare.steamstatic.com</text>
<rect x="180" y="414" width="507.76" height="22" fill="#4c78a8" rx="3"/>
<text x="695.76" y="430" class="value">196.39</text>
<text x="10" y="462" class="label">store.akamai.steamstatic.com</text>
<rect x="180" y="446" width="517.3" height="22" fill="#4c78a8" rx="3"/>
<text x="705.3" y="462" class="value">200.08</text>
<text x="10" y="494" class="label">launcher-public-service-prod06.ol.epicgames.com</text>
<rect x="180" y="478" width="580.0" height="22" fill="#4c78a8" rx="3"/>
<text x="768.0" y="494" class="value">224.33</text>
<line x1="180" y1="30" x2="180" y2="520" stroke="#ccc"/>
<line x1="180" y1="520" x2="760" y2="520" stroke="#ccc"/>
</svg>