<svg xmlns="http://www.w3.org/2000/svg" width="800" height="540">
<style> .label{font-family:DejaVu Sans,Verdana,Geneva,sans-serif;font-size:12px;fill:#333} .value{font-family:DejaVu Sans,Verdana,Geneva,sans-serif;font-size:12px;fill:#555} </style>
<text x="10" y="20" class="label">延迟柱状图（越低越好，Top 15），单位 ms</text>
<text x="10" y="46" class="label">eaassets-a.akamaihd.net</text>
<rect x="180" y="30" width="206.07" height="22" fill="#4c78a8" rx="3"/>
<text x="394.07" y="46" class="value">119.68</text>
<text x="10" y="78" class="label">community.akamai.steamstatic.com</text>
<rect x="180" y="62" width="207.72" height="22" fill="#4c78a8" rx="3"/>
<text x="395.72" y="78" class="value">120.64</text>
<text x="10" y="110" class="label">ea.com</text>
<rect x="180" y="94" width="211.23" height="22" fill="#4c78a8" rx="3"/>
<text x="399.23" y="110" class="value">122.68</text>
<text x="10" y="142" class="label">ubisoft.com</text>
<rect x="180" y="126" width="241.04" height="22" fill="#4c78a8" rx="3"/>
<text x="429.03999999999996" y="142" class="value">139.99</text>
<text x="10" y="174" class="label">rockstargames.com</text>
<rect x="180" y="158" width="294.98" height="22" fill="#4c78a8" rx="3"/>
<text x="482.98" y="174" class="value">171.32</text>
<text x="10" y="206" class="label">cdn.cloudflare.steamstatic.com</text>
<rect x="180" y="190" width="335.47" height="22" fill="#4c78a8" rx="3"/>
<text x="523.47" y="206" class="value">194.83</text>
<text x="10" y="238" class="label">ubi.com</text>
<rect x="180" y="222" width="384.02" height="22" fill="#4c78a8" rx="3"/>
<text x="572.02" y="238" class="value">223.03</text>
<text x="10" y="270" class="label">steamcdn-a.akamaihd.net</text>
<rect x="180" y="254" width="419.99" height="22" fill="#4c78a8" rx="3"/>
<text x="607.99" y="270" class="value">243.92</text>
<text x="10" y="302" class="label">origin.com</text>
<rect x="180" y="286" width="433.47" height="22" fill="#4c78a8" rx="3"/>
<text x="621.47" y="302" class="value">251.75</text>
<text x="10" y="334" class="label">socialclub.rockstargames.com</text>
<rect x="180" y="318" width="461.43" height="22" fill="#4c78a8" rx="3"/>
<text x="649.4300000000001" y="334" class="value">267.99</text>
<text x="10" y="366" class="label">cdn.akamai.steamstatic.com</text>
<rect x="180" y="350" width="502.97" height="22" fill="#4c78a8" rx="3"/>
<text x="690.97" y="366" class="value">292.11</text>
<text x="10" y="398" class="label">easyanticheat.net</text>
<rect x="180" y="382" width="517.95" height="22" fill="#4c78a8" rx="3"/>
<text x="705.95" y="398" class="value">300.81</text>
<text x="10" y="430" class="label">store.akamai.steamstatic.com</text>
<rect x="180" y="414" width="559.39" height="22" fill="#4c78a8" rx="3"/>
<text x="747.39" y="430" class="value">324.88</text>
<text x="10" y="462" class="label">launcher-public-service-prod06.ol.epicgames.com</text>
<rect x="180" y="446" width="562.97" height="22" fill="#4c78a8" rx="3"/>
<text x="750.97" y="462" class="value">326.96</text>
<text x="10" y="494" class="label">steam-chat.com</text>
<rect x="180" y="478" width="580.0" height="22" fill="#4c78a8" rx="3"/>
<text x="768.0" y="494" class="value">336.85</text>
<line x1="180" y1="30" x2="180" y2="520" stroke="#ccc"/>
<line x1="180" y1="520" x2="760" y2="520" stroke="#ccc"/>
</svg>