<svg xmlns="http://www.w3.org/2000/svg" width="800" height="540">
<style> .label{font-family:DejaVu Sans,Verdana,Geneva,sans-serif;font-size:12px;fill:#333} .value{font-family:DejaVu Sans,Verdana,Geneva,sans-serif;font-size:12px;fill:#555} </style>
<text x="10" y="20" class="label">延迟柱状图（越低越好，Top 15），单位 ms</text>
<text x="10" y="46" class="label">eaassets-a.akamaihd.net</text>
<rect x="180" y="30" width="237.02" height="22" fill="#4c78a8" rx="3"/>
<text x="425.02" y="46" class="value">80.99</text>
<text x="10" y="78" class="label">battle.net</text>
<rect x="180" y="62" width="283.61" height="22" fill="#4c78a8" rx="3"/>
<text x="471.61" y="78" class="value">96.91</text>
<text x="10" y="110" class="label">socialclub.rockstargames.com</text>
<rect x="180" y="94" width="316.76" height="22" fill="#4c78a8" rx="3"/>
<text x="504.76" y="110" class="value">108.24</text>
<text x="10" y="142" class="label">blizzard.com</text>
<rect x="180" y="126" width="329.73" height="22" fill="#4c78a8" rx="3"/>
<text x="517.73" y="142" class="value">112.67</text>
<text x="10" y="174" class="label">rockstargames.com</text>
<rect x="180" y="158" width="331.89" height="22" fill="#4c78a8" rx="3"/>
<text x="519.89" y="174" class="value">113.41</text>
<text x="10" y="206" class="label">ubi.com</text>
<rect x="180" y="190" width="378.28" height="22" fill="#4c78a8" rx="3"/>
<text x="566.28" y="206" class="value">129.26</text>
<text x="10" y="238" class="label">ubisoft.com</text>
<rect x="180" y="222" width="393.5" height="22" fill="#4c78a8" rx="3"/>
<text x="581.5" y="238" class="value">134.46</text>
<text x="10" y="270" class="label">ea.com</text>
<rect x="180" y="254" width="395.46" height="22" fill="#4c78a8" rx="3"/>
<text x="583.46" y="270" class="value">135.13</text>
<text x="10" y="302" class="label">unrealengine.com</text>
<rect x="180" y="286" width="430.16" height="22" fill="#4c78a8" rx="3"/>
<text x="618.1600000000001" y="302" class="value">146.99</text>
<text x="10" y="334" class="label">steamcdn-a.akamaihd.net</text>
<rect x="180" y="318" width="479.62" height="22" fill="#4c78a8" rx="3"/>
<text x="667.62" y="334" class="value">163.89</text>
<text x="10" y="366" class="label">epicgames.com</text>
<rect x="180" y="350" width="528.49" height="22" fill="#4c78a8" rx="3"/>
<text x="716.49" y="366" class="value">180.59</text>
<text x="10" y="398" class="label">cdn.akamai.steamstatic.com</text>
<rect x="180" y="382" width="546.9" height="22" fill="#4c78a8" rx="3"/>
<text x="734.9" y="398" class="value">186.88</text>
<text x="10" y="430" class="label">easyanticheat.net</text>
<rect x="180" y="414" width="554.28" height="22" fill="#4c78a8" rx="3"/>
<text x="742.28" y="430" class="value">189.40</text>
<text x="10" y="462" class="label">origin.com</text>
<rect x="180" y="446" width="576.72" height="22" fill="#4c78a8" rx="3"/>
<text x="764.72" y="462" class="value">197.07</text>
<text x="10" y="494" class="label">static3.cdn.ubi.com</text>
<rect x="180" y="478" width="580.0" height="22" fill="#4c78a8" rx="3"/>
<text x="768.0" y="494" class="value">198.19</text>
<line x1="180" y1="30" x2="180" y2="520" stroke="#ccc"/>
<line x1="180" y1="520" x2="760" y2="520" stroke="#ccc"/>
</svg>