<svg xmlns="http://www.w3.org/2000/svg" width="800" height="540">
<style> .label{font-family:DejaVu Sans,Verdana,Geneva,sans-serif;font-size:12px;fill:#333} .value{font-family:DejaVu Sans,Verdana,Geneva,sans-serif;font-size:12px;fill:#555} </style>
<text x="10" y="20" class="label">延迟柱状图（越低越好，Top 15），单位 ms</text>
<text x="10" y="46" class="label">rockstargames.com</text>
<rect x="180" y="30" width="224.38" height="22" fill="#4c78a8" rx="3"/>
<text x="412.38" y="46" class="value">80.11</text>
<text x="10" y="78" class="label">socialclub.rockstargames.com</text>
<rect x="180" y="62" width="243.37" height="22" fill="#4c78a8" rx="3"/>
<text x="431.37" y="78" class="value">86.89</text>
<text x="10" y="110" class="label">ubisoft.com</text>
<rect x="180" y="94" width="264.29" height="22" fill="#4c78a8" rx="3"/>
<text x="452.29" y="110" class="value">94.36</text>
<text x="10" y="142" class="label">battle.net</text>
<rect x="180" y="126" width="274.79" height="22" fill="#4c78a8" rx="3"/>
<text x="462.79" y="142" class="value">98.11</text>
<text x="10" y="174" class="label">eaassets-a.akamaihd.net</text>
<rect x="180" y="158" width="293.5" height="22" fill="#4c78a8" rx="3"/>
<text x="481.5" y="174" class="value">104.79</text>
<text x="10" y="206" class="label">ea.com</text>
<rect x="180" y="190" width="310.75" height="22" fill="#4c78a8" rx="3"/>
<text x="498.75" y="206" class="value">110.95</text>
<text x="10" y="238" class="label">ubi.com</text>
<rect x="180" y="222" width="341.06" height="22" fill="#4c78a8" rx="3"/>
<text x="529.06" y="238" class="value">121.77</text>
<text x="10" y="270" class="label">epicgames.com</text>
<rect x="180" y="254" width="352.57" height="22" fill="#4c78a8" rx="3"/>
<text x="540.5699999999999" y="270" class="value">125.88</text>
<text x="10" y="302" class="label">origin.com</text>
<rect x="180" y="286" width="358.2" height="22" fill="#4c78a8" rx="3"/>
<text x="546.2" y="302" class="value">127.89</text>
<text x="10" y="334" class="label">blizzard.com</text>
<rect x="180" y="318" width="462.7" height="22" fill="#4c78a8" rx="3"/>
<text x="650.7" y="334" class="value">165.20</text>
<text x="10" y="366" class="label">steamcdn-a.akamaihd.net</text>
<rect x="180" y="350" width="487.71" height="22" fill="#4c78a8" rx="3"/>
<text x="675.71" y="366" class="value">174.13</text>
<text x="10" y="398" class="label">store.akamai.steamstatic.com</text>
<rect x="180" y="382" width="499.2" height="22" fill="#4c78a8" rx="3"/>
<text x="687.2" y="398" class="value">178.23</text>
<text x="10" y="430" class="label">static3.cdn.ubi.com</text>
<rect x="180" y="414" width="509.59" height="22" fill="#4c78a8" rx="3"/>
<text x="697.5899999999999" y="430" class="value">181.94</text>
<text x="10" y="462" class="label">unrealengine.com</text>
<rect x="180" y="446" width="520.65" height="22" fill="#4c78a8" rx="3"/>
<text x="708.65" y="462" class="value">185.89</text>
<text x="10" y="494" class="label">www.steamcommunity.com</text>
<rect x="180" y="478" width="580.0" height="22" fill="#4c78a8" rx="3"/>
<text x="768.0" y="494" class="value">207.08</text>
<line x1="180" y1="30" x2="180" y2="520" stroke="#ccc"/>
<line x1="180" y1="520" x2="760" y2="520" stroke="#ccc"/>
</svg>