<svg xmlns="http://www.w3.org/2000/svg" width="800" height="540">
<style> .label{font-family:DejaVu Sans,Verdana,Geneva,sans-serif;font-size:12px;fill:#333} .value{font-family:DejaVu Sans,Verdana,Geneva,sans-serif;font-size:12px;fill:#555} </style>
<text x="10" y="20" class="label">延迟柱状图（越低越好，Top 15），单位 ms</text>
<text x="10" y="46" class="label">rockstargames.com</text>
<rect x="180" y="30" width="139.59" height="22" fill="#4c78a8" rx="3"/>
<text x="327.59000000000003" y="46" class="value">48.65</text>
<text x="10" y="78" class="label">ubi.com</text>
<rect x="180" y="62" width="199.7" height="22" fill="#4c78a8" rx="3"/>
<text x="387.7" y="78" class="value">69.60</text>
<text x="10" y="110" class="label">ea.com</text>
<rect x="180" y="94" width="232.24" height="22" fill="#4c78a8" rx="3"/>
<text x="420.24" y="110" class="value">80.94</text>
<text x="10" y="142" class="label">eaassets-a.akamaihd.net</text>
<rect x="180" y="126" width="235.45" height="22" fill="#4c78a8" rx="3"/>
<text x="423.45" y="142" class="value">82.06</text>
<text x="10" y="174" class="label">unrealengine.com</text>
<rect x="180" y="158" width="247.1" height="22" fill="#4c78a8" rx="3"/>
<text x="435.1" y="174" class="value">86.12</text>
<text x="10" y="206" class="label">battle.net</text>
<rect x="180" y="190" width="247.22" height="22" fill="#4c78a8" rx="3"/>
<text x="435.22" y="206" class="value">86.16</text>
<text x="10" y="238" class="label">cdn.akamai.steamstatic.com</text>
<rect x="180" y="222" width="248.34" height="22" fill="#4c78a8" rx="3"/>
<text x="436.34000000000003" y="238" class="value">86.55</text>
<text x="10" y="270" class="label">socialclub.rockstargames.com</text>
<rect x="180" y="254" width="266.5" height="22" fill="#4c78a8" rx="3"/>
<text x="454.5" y="270" class="value">92.88</text>
<text x="10" y="302" class="label">blizzard.com</text>
<rect x="180" y="286" width="274.22" height="22" fill="#4c78a8" rx="3"/>
<text x="462.22" y="302" class="value">95.57</text>
<text x="10" y="334" class="label">origin.com</text>
<rect x="180" y="318" width="304.4" height="22" fill="#4c78a8" rx="3"/>
<text x="492.4" y="334" class="value">106.09</text>
<text x="10" y="366" class="label">community.akamai.steamstatic.com</text>
<rect x="180" y="350" width="390.48" height="22" fill="#4c78a8" rx="3"/>
<text x="578.48" y="366" class="value">136.09</text>
<text x="10" y="398" class="label">fortnite.com</text>
<rect x="180" y="382" width="435.01" height="22" fill="#4c78a8" rx="3"/>
<text x="623.01" y="398" class="value">151.61</text>
<text x="10" y="430" class="label">store.akamai.steamstatic.com</text>
<rect x="180" y="414" width="455.82" height="22" fill="#4c78a8" rx="3"/>
<text x="643.8199999999999" y="430" class="value">158.86</text>
<text x="10" y="462" class="label">epicgames.com</text>
<rect x="180" y="446" width="501.67" height="22" fill="#4c78a8" rx="3"/>
<text x="689.6700000000001" y="462" class="value">174.84</text>
<text x="10" y="494" class="label">cdn.cloudflare.steamstatic.com</text>
<rect x="180" y="478" width="580.0" height="22" fill="#4c78a8" rx="3"/>
<text x="768.0" y="494" class="value">202.14</text>
<line x1="180" y1="30" x2="180" y2="520" stroke="#ccc"/>
<line x1="180" y1="520" x2="760" y2="520" stroke="#ccc"/>
</svg>