<svg xmlns="http://www.w3.org/2000/svg" width="800" height="540">
<style> .label{font-family:DejaVu Sans,Verdana,Geneva,sans-serif;font-size:12px;fill:#333} .value{font-family:DejaVu Sans,Verdana,Geneva,sans-serif;font-size:12px;fill:#555} </style>
<text x="10" y="20" class="label">延迟柱状图（越低越好，Top 15），单位 ms</text>
<text x="10" y="46" class="label">rockstargames.com</text>
<rect x="180" y="30" width="182.3" height="22" fill="#4c78a8" rx="3"/>
<text x="370.3" y="46" class="value">72.05</text>
<text x="10" y="78" class="label">socialclub.rockstargames.com</text>
<rect x="180" y="62" width="207.38" height="22" fill="#4c78a8" rx="3"/>
<text x="395.38" y="78" class="value">81.96</text>
<text x="10" y="110" class="label">eaassets-a.akamaihd.net</text>
<rect x="180" y="94" width="229.06" height="22" fill="#4c78a8" rx="3"/>
<text x="417.06" y="110" class="value">90.53</text>
<text x="10" y="142" class="label">origin.com</text>
<rect x="180" y="126" width="240.77" height="22" fill="#4c78a8" rx="3"/>
<text x="428.77" y="142" class="value">95.16</text>
<text x="10" y="174" class="label">ubi.com</text>
<rect x="180" y="158" width="244.09" height="22" fill="#4c78a8" rx="3"/>
<text x="432.09000000000003" y="174" class="value">96.47</text>
<text x="10" y="206" class="label">blizzard.com</text>
<rect x="180" y="190" width="264.46" height="22" fill="#4c78a8" rx="3"/>
<text x="452.46" y="206" class="value">104.52</text>
<text x="10" y="238" class="label">ubisoft.com</text>
<rect x="180" y="222" width="278.17" height="22" fill="#4c78a8" rx="3"/>
<text x="466.17" y="238" class="value">109.94</text>
<text x="10" y="270" class="label">battle.net</text>
<rect x="180" y="254" width="289.99" height="22" fill="#4c78a8" rx="3"/>
<text x="477.99" y="270" class="value">114.61</text>
<text x="10" y="302" class="label">cdn.cloudflare.steamstatic.com</text>
<rect x="180" y="286" width="296.52" height="22" fill="#4c78a8" rx="3"/>
<text x="484.52" y="302" class="value">117.19</text>
<text x="10" y="334" class="label">ea.com</text>
<rect x="180" y="318" width="303.35" height="22" fill="#4c78a8" rx="3"/>
<text x="491.35" y="334" class="value">119.89</text>
<text x="10" y="366" class="label">store.akamai.steamstatic.com</text>
<rect x="180" y="350" width="425.08" height="22" fill="#4c78a8" rx="3"/>
<text x="613.0799999999999" y="366" class="value">168.00</text>
<text x="10" y="398" class="label">launcher-public-service-prod06.ol.epicgames.com</text>
<rect x="180" y="382" width="439.62" height="22" fill="#4c78a8" rx="3"/>
<text x="627.62" y="398" class="value">173.75</text>
<text x="10" y="430" class="label">static3.cdn.ubi.com</text>
<rect x="180" y="414" width="488.48" height="22" fill="#4c78a8" rx="3"/>
<text x="676.48" y="430" class="value">193.06</text>
<text x="10" y="462" class="label">fortnite.com</text>
<rect x="180" y="446" width="562.14" height="22" fill="#4c78a8" rx="3"/>
<text x="750.14" y="462" class="value">222.17</text>
<text x="10" y="494" class="label">steamcdn-a.akamaihd.net</text>
<rect x="180" y="478" width="580.0" height="22" fill="#4c78a8" rx="3"/>
<text x="768.0" y="494" class="value">229.23</text>
<line x1="180" y1="30" x2="180" y2="520" stroke="#ccc"/>
<line x1="180" y1="520" x2="760" y2="520" stroke="#ccc"/>
</svg>