<svg xmlns="http://www.w3.org/2000/svg" width="800" height="540">
<style> .label{font-family:DejaVu Sans,Verdana,Geneva,sans-serif;font-size:12px;fill:#333} .value{font-family:DejaVu Sans,Verdana,Geneva,sans-serif;font-size:12px;fill:#555} </style>
<text x="10" y="20" class="label">延迟柱状图（越低越好，Top 15），单位 ms</text>
<text x="10" y="46" class="label">rockstargames.com</text>
<rect x="180" y="30" width="81.84" height="22" fill="#4c78a8" rx="3"/>
<text x="269.84000000000003" y="46" class="value">36.58</text>
<text x="10" y="78" class="label">ubisoft.com</text>
<rect x="180" y="62" width="176.28" height="22" fill="#4c78a8" rx="3"/>
<text x="364.28" y="78" class="value">78.79</text>
<text x="10" y="110" class="label">cdn.cloudflare.steamstatic.com</text>
<rect x="180" y="94" width="216.76" height="22" fill="#4c78a8" rx="3"/>
<text x="404.76" y="110" class="value">96.88</text>
<text x="10" y="142" class="label">community.akamai.steamstatic.com</text>
<rect x="180" y="126" width="246.7" height="22" fill="#4c78a8" rx="3"/>
<text x="434.7" y="142" class="value">110.26</text>
<text x="10" y="174" class="label">eaassets-a.akamaihd.net</text>
<rect x="180" y="158" width="248.31" height="22" fill="#4c78a8" rx="3"/>
<text x="436.31" y="174" class="value">110.98</text>
<text x="10" y="206" class="label">cdn.akamai.steamstatic.com</text>
<rect x="180" y="190" width="283.21" height="22" fill="#4c78a8" rx="3"/>
<text x="471.21" y="206" class="value">126.58</text>
<text x="10" y="238" class="label">ea.com</text>
<rect x="180" y="222" width="286.54" height="22" fill="#4c78a8" rx="3"/>
<text x="474.54" y="238" class="value">128.07</text>
<text x="10" y="270" class="label">steamcdn-a.akamaihd.net</text>
<rect x="180" y="254" width="323.53" height="22" fill="#4c78a8" rx="3"/>
<text x="511.53" y="270" class="value">144.60</text>
<text x="10" y="302" class="label">origin.com</text>
<rect x="180" y="286" width="327.47" height="22" fill="#4c78a8" rx="3"/>
<text x="515.47" y="302" class="value">146.36</text>
<text x="10" y="334" class="label">easyanticheat.net</text>
<rect x="180" y="318" width="356.55" height="22" fill="#4c78a8" rx="3"/>
<text x="544.55" y="334" class="value">159.36</text>
<text x="10" y="366" class="label">gog.com</text>
<rect x="180" y="350" width="452.16" height="22" fill="#4c78a8" rx="3"/>
<text x="640.1600000000001" y="366" class="value">202.09</text>
<text x="10" y="398" class="label">store.akamai.steamstatic.com</text>
<rect x="180" y="382" width="474.28" height="22" fill="#4c78a8" rx="3"/>
<text x="662.28" y="398" class="value">211.98</text>
<text x="10" y="430" class="label">www.steamcommunity.com</text>
<rect x="180" y="414" width="505.72" height="22" fill="#4c78a8" rx="3"/>
<text x="693.72" y="430" class="value">226.03</text>
<text x="10" y="462" class="label">launcher-public-service-prod06.ol.epicgames.com</text>
<rect x="180" y="446" width="535.27" height="22" fill="#4c78a8" rx="3"/>
<text x="723.27" y="462" class="value">239.24</text>
<text x="10" y="494" class="label">api.steampowered.com</text>
<rect x="180" y="478" width="580.0" height="22" fill="#4c78a8" rx="3"/>
<text x="768.0" y="494" class="value">259.23</text>
<line x1="180" y1="30" x2="180" y2="520" stroke="#ccc"/>
<line x1="180" y1="520" x2="760" y2="520" stroke="#ccc"/>
</svg>