<svg xmlns="http://www.w3.org/2000/svg" width="800" height="540">
<style> .label{font-family:DejaVu Sans,Verdana,Geneva,sans-serif;font-size:12px;fill:#333} .value{font-family:DejaVu Sans,Verdana,Geneva,sans-serif;font-size:12px;fill:#555} </style>
<text x="10" y="20" class="label">延迟柱状图（越低越好，Top 15），单位 ms</text>
<text x="10" y="46" class="label">eaassets-a.akamaihd.net</text>
<rect x="180" y="30" width="267.42" height="22" fill="#4c78a8" rx="3"/>
<text x="455.42" y="46" class="value">85.21</text>
<text x="10" y="78" class="label">socialclub.rockstargames.com</text>
<rect x="180" y="62" width="277.37" height="22" fill="#4c78a8" rx="3"/>
<text x="465.37" y="78" class="value">88.38</text>
<text x="10" y="110" class="label">rockstargames.com</text>
<rect x="180" y="94" width="287.07" height="22" fill="#4c78a8" rx="3"/>
<text x="475.07" y="110" class="value">91.47</text>
<text x="10" y="142" class="label">ubi.com</text>
<rect x="180" y="126" width="298.27" height="22" fill="#4c78a8" rx="3"/>
<text x="486.27" y="142" class="value">95.04</text>
<text x="10" y="174" class="label">battle.net</text>
<rect x="180" y="158" width="311.29" height="22" fill="#4c78a8" rx="3"/>
<text x="499.29" y="174" class="value">99.19</text>
<text x="10" y="206" class="label">unrealengine.com</text>
<rect x="180" y="190" width="313.49" height="22" fill="#4c78a8" rx="3"/>
<text x="501.49" y="206" class="value">99.89</text>
<text x="10" y="238" class="label">blizzard.com</text>
<rect x="180" y="222" width="316.72" height="22" fill="#4c78a8" rx="3"/>
<text x="504.72" y="238" class="value">100.92</text>
<text x="10" y="270" class="label">ea.com</text>
<rect x="180" y="254" width="360.41" height="22" fill="#4c78a8" rx="3"/>
<text x="548.4100000000001" y="270" class="value">114.84</text>
<text x="10" y="302" class="label">ubisoft.com</text>
<rect x="180" y="286" width="443.39" height="22" fill="#4c78a8" rx="3"/>
<text x="631.39" y="302" class="value">141.28</text>
<text x="10" y="334" class="label">origin.com</text>
<rect x="180" y="318" width="454.47" height="22" fill="#4c78a8" rx="3"/>
<text x="642.47" y="334" class="value">144.81</text>
<text x="10" y="366" class="label">fortnite.com</text>
<rect x="180" y="350" width="483.4" height="22" fill="#4c78a8" rx="3"/>
<text x="671.4" y="366" class="value">154.03</text>
<text x="10" y="398" class="label">epicgames.com</text>
<rect x="180" y="382" width="517.52" height="22" fill="#4c78a8" rx="3"/>
<text x="705.52" y="398" class="value">164.90</text>
<text x="10" y="430" class="label">static3.cdn.ubi.com</text>
<rect x="180" y="414" width="523.35" height="22" fill="#4c78a8" rx="3"/>
<text x="711.35" y="430" class="value">166.76</text>
<text x="10" y="462" class="label">cdn.akamai.steamstatic.com</text>
<rect x="180" y="446" width="579.22" height="22" fill="#4c78a8" rx="3"/>
<text x="767.22" y="462" class="value">184.56</text>
<text x="10" y="494" class="label">store.akamai.steamstatic.com</text>
<rect x="180" y="478" width="580.0" height="22" fill="#4c78a8" rx="3"/>
<text x="768.0" y="494" class="value">184.81</text>
<line x1="180" y1="30" x2="180" y2="520" stroke="#ccc"/>
<line x1="180" y1="520" x2="760" y2="520" stroke="#ccc"/>
</svg>