<svg xmlns="http://www.w3.org/2000/svg" width="800" height="540">
<style> .label{font-family:DejaVu Sans,Verdana,Geneva,sans-serif;font-size:12px;fill:#333} .value{font-family:DejaVu Sans,Verdana,Geneva,sans-serif;font-size:12px;fill:#555} </style>
<text x="10" y="20" class="label">延迟柱状图（越低越好，Top 15），单位 ms</text>
<text x="10" y="46" class="label">rockstargames.com</text>
<rect x="180" y="30" width="114.64" height="22" fill="#4c78a8" rx="3"/>
<text x="302.64" y="46" class="value">62.61</text>
<text x="10" y="78" class="label">eaassets-a.akamaihd.net</text>
<rect x="180" y="62" width="244.99" height="22" fill="#4c78a8" rx="3"/>
<text x="432.99" y="78" class="value">133.80</text>
<text x="10" y="110" class="label">ubisoft.com</text>
<rect x="180" y="94" width="250.1" height="22" fill="#4c78a8" rx="3"/>
<text x="438.1" y="110" class="value">136.59</text>
<text x="10" y="142" class="label">ea.com</text>
<rect x="180" y="126" width="279.51" height="22" fill="#4c78a8" rx="3"/>
<text x="467.51" y="142" class="value">152.65</text>
<text x="10" y="174" class="label">easyanticheat.net</text>
<rect x="180" y="158" width="312.12" height="22" fill="#4c78a8" rx="3"/>
<text x="500.12" y="174" class="value">170.46</text>
<text x="10" y="206" class="label">origin.com</text>
<rect x="180" y="190" width="315.27" height="22" fill="#4c78a8" rx="3"/>
<text x="503.27" y="206" class="value">172.18</text>
<text x="10" y="238" class="label">store.akamai.steamstatic.com</text>
<rect x="180" y="222" width="335.7" height="22" fill="#4c78a8" rx="3"/>
<text x="523.7" y="238" class="value">183.34</text>
<text x="10" y="270" class="label">community.akamai.steamstatic.com</text>
<rect x="180" y="254" width="348.72" height="22" fill="#4c78a8" rx="3"/>
<text x="536.72" y="270" class="value">190.45</text>
<text x="10" y="302" class="label">cdn.cloudflare.steamstatic.com</text>
<rect x="180" y="286" width="413.36" height="22" fill="#4c78a8" rx="3"/>
<text x="601.36" y="302" class="value">225.75</text>
<text x="10" y="334" class="label">ubi.com</text>
<rect x="180" y="318" width="434.56" height="22" fill="#4c78a8" rx="3"/>
<text x="622.56" y="334" class="value">237.33</text>
<text x="10" y="366" class="label">steamcdn-a.akamaihd.net</text>
<rect x="180" y="350" width="449.98" height="22" fill="#4c78a8" rx="3"/>
<text x="637.98" y="366" class="value">245.75</text>
<text x="10" y="398" class="label">cdn.akamai.steamstatic.com</text>
<rect x="180" y="382" width="459.48" height="22" fill="#4c78a8" rx="3"/>
<text x="647.48" y="398" class="value">250.94</text>
<text x="10" y="430" class="label">steamcommunity.com</text>
<rect x="180" y="414" width="517.67" height="22" fill="#4c78a8" rx="3"/>
<text x="705.67" y="430" class="value">282.72</text>
<text x="10" y="462" class="label">launcher-public-service-prod06.ol.epicgames.com</text>
<rect x="180" y="446" width="539.96" height="22" fill="#4c78a8" rx="3"/>
<text x="727.96" y="462" class="value">294.89</text>
<text x="10" y="494" class="label">static3.cdn.ubi.com</text>
<rect x="180" y="478" width="580.0" height="22" fill="#4c78a8" rx="3"/>
<text x="768.0" y="494" class="value">316.76</text>
<line x1="180" y1="30" x2="180" y2="520" stroke="#ccc"/>
<line x1="180" y1="520" x2="760" y2="520" stroke="#ccc"/>
</svg>