<svg xmlns="http://www.w3.org/2000/svg" width="800" height="540">
<style> .label{font-family:DejaVu Sans,Verdana,Geneva,sans-serif;font-size:12px;fill:#333} .value{font-family:DejaVu Sans,Verdana,Geneva,sans-serif;font-size:12px;fill:#555} </style>
<text x="10" y="20" class="label">延迟柱状图（越低越好，Top 15），单位 ms</text>
<text x="10" y="46" class="label">origin.com</text>
<rect x="180" y="30" width="192.62" height="22" fill="#4c78a8" rx="3"/>
<text x="380.62" y="46" class="value">67.50</text>
<text x="10" y="78" class="label">rockstargames.com</text>
<rect x="180" y="62" width="229.37" height="22" fill="#4c78a8" rx="3"/>
<text x="417.37" y="78" class="value">80.38</text>
<text x="10" y="110" class="label">battle.net</text>
<rect x="180" y="94" width="348.26" height="22" fill="#4c78a8" rx="3"/>
<text x="536.26" y="110" class="value">122.04</text>
<text x="10" y="142" class="label">ubi.com</text>
<rect x="180" y="126" width="363.1" height="22" fill="#4c78a8" rx="3"/>
<text x="551.1" y="142" class="value">127.24</text>
<text x="10" y="174" class="label">blizzard.com</text>
<rect x="180" y="158" width="366.78" height="22" fill="#4c78a8" rx="3"/>
<text x="554.78" y="174" class="value">128.53</text>
<text x="10" y="206" class="label">ea.com</text>
<rect x="180" y="190" width="369.4" height="22" fill="#4c78a8" rx="3"/>
<text x="557.4" y="206" class="value">129.45</text>
<text x="10" y="238" class="label">store.akamai.steamstatic.com</text>
<rect x="180" y="222" width="392.49" height="22" fill="#4c78a8" rx="3"/>
<text x="580.49" y="238" class="value">137.54</text>
<text x="10" y="270" class="label">socialclub.rockstargames.com</text>
<rect x="180" y="254" width="392.55" height="22" fill="#4c78a8" rx="3"/>
<text x="580.55" y="270" class="value">137.56</text>
<text x="10" y="302" class="label">ubisoft.com</text>
<rect x="180" y="286" width="456.07" height="22" fill="#4c78a8" rx="3"/>
<text x="644.0699999999999" y="302" class="value">159.82</text>
<text x="10" y="334" class="label">easyanticheat.net</text>
<rect x="180" y="318" width="482.09" height="22" fill="#4c78a8" rx="3"/>
<text x="670.0899999999999" y="334" class="value">168.94</text>
<text x="10" y="366" class="label">eaassets-a.akamaihd.net</text>
<rect x="180" y="350" width="501.5" height="22" fill="#4c78a8" rx="3"/>
<text x="689.5" y="366" class="value">175.74</text>
<text x="10" y="398" class="label">static3.cdn.ubi.com</text>
<rect x="180" y="382" width="525.32" height="22" fill="#4c78a8" rx="3"/>
<text x="713.32" y="398" class="value">184.09</text>
<text x="10" y="430" class="label">steamcdn-a.akamaihd.net</text>
<rect x="180" y="414" width="541.93" height="22" fill="#4c78a8" rx="3"/>
<text x="729.93" y="430" class="value">189.91</text>
<text x="10" y="462" class="label">community.akamai.steamstatic.com</text>
<rect x="180" y="446" width="556.69" height="22" fill="#4c78a8" rx="3"/>
<text x="744.69" y="462" class="value">195.08</text>
<text x="10" y="494" class="label">launcher-public-service-prod06.ol.epicgames.com</text>
<rect x="180" y="478" width="580.0" height="22" fill="#4c78a8" rx="3"/>
<text x="768.0" y="494" class="value">203.25</text>
<line x1="180" y1="30" x2="180" y2="520" stroke="#ccc"/>
<line x1="180" y1="520" x2="760" y2="520" stroke="#ccc"/>
</svg>