<svg xmlns="http://www.w3.org/2000/svg" width="800" height="540">
<style> .label{font-family:DejaVu Sans,Verdana,Geneva,sans-serif;font-size:12px;fill:#333} .value{font-family:DejaVu Sans,Verdana,Geneva,sans-serif;font-size:12px;fill:#555} </style>
<text x="10" y="20" class="label">延迟柱状图（越低越好，Top 15），单位 ms</text>
<text x="10" y="46" class="label">rockstargames.com</text>
<rect x="180" y="30" width="198.81" height="22" fill="#4c78a8" rx="3"/>
<text x="386.81" y="46" class="value">66.79</text>
<text x="10" y="78" class="label">eaassets-a.akamaihd.net</text>
<rect x="180" y="62" width="214.74" height="22" fill="#4c78a8" rx="3"/>
<text x="402.74" y="78" class="value">72.14</text>
<text x="10" y="110" class="label">steamcdn-a.akamaihd.net</text>
<rect x="180" y="94" width="274.54" height="22" fill="#4c78a8" rx="3"/>
<text x="462.54" y="110" class="value">92.23</text>
<text x="10" y="142" class="label">store.akamai.steamstatic.com</text>
<rect x="180" y="126" width="363.03" height="22" fill="#4c78a8" rx="3"/>
<text x="551.03" y="142" class="value">121.96</text>
<text x="10" y="174" class="label">community.akamai.steamstatic.com</text>
<rect x="180" y="158" width="393.22" height="22" fill="#4c78a8" rx="3"/>
<text x="581.22" y="174" class="value">132.10</text>
<text x="10" y="206" class="label">ea.com</text>
<rect x="180" y="190" width="403.63" height="22" fill="#4c78a8" rx="3"/>
<text x="591.63" y="206" class="value">135.60</text>
<text x="10" y="238" class="label">ubi.com</text>
<rect x="180" y="222" width="440.72" height="22" fill="#4c78a8" rx="3"/>
<text x="628.72" y="238" class="value">148.06</text>
<text x="10" y="270" class="label">ubisoft.com</text>
<rect x="180" y="254" width="444.53" height="22" fill="#4c78a8" rx="3"/>
<text x="632.53" y="270" class="value">149.34</text>
<text x="10" y="302" class="label">blizzard.com</text>
<rect x="180" y="286" width="449.12" height="22" fill="#4c78a8" rx="3"/>
<text x="637.12" y="302" class="value">150.88</text>
<text x="10" y="334" class="label">origin.com</text>
<rect x="180" y="318" width="451.94" height="22" fill="#4c78a8" rx="3"/>
<text x="639.94" y="334" class="value">151.83</text>
<text x="10" y="366" class="label">battle.net</text>
<rect x="180" y="350" width="476.41" height="22" fill="#4c78a8" rx="3"/>
<text x="664.4100000000001" y="366" class="value">160.05</text>
<text x="10" y="398" class="label">socialclub.rockstargames.com</text>
<rect x="180" y="382" width="493.56" height="22" fill="#4c78a8" rx="3"/>
<text x="681.56" y="398" class="value">165.81</text>
<text x="10" y="430" class="label">epicgames.com</text>
<rect x="180" y="414" width="559.37" height="22" fill="#4c78a8" rx="3"/>
<text x="747.37" y="430" class="value">187.92</text>
<text x="10" y="462" class="label">easyanticheat.net</text>
<rect x="180" y="446" width="569.08" height="22" fill="#4c78a8" rx="3"/>
<text x="757.08" y="462" class="value">191.18</text>
<text x="10" y="494" class="label">static3.cdn.ubi.com</text>
<rect x="180" y="478" width="580.0" height="22" fill="#4c78a8" rx="3"/>
<text x="768.0" y="494" class="value">194.85</text>
<line x1="180" y1="30" x2="180" y2="520" stroke="#ccc"/>
<line x1="180" y1="520" x2="760" y2="520" stroke="#ccc"/>
</svg>