<svg xmlns="http://www.w3.org/2000/svg" width="800" height="540">
<style> .label{font-family:DejaVu Sans,Verdana,Geneva,sans-serif;font-size:12px;fill:#333} .value{font-family:DejaVu Sans,Verdana,Geneva,sans-serif;font-size:12px;fill:#555} </style>
<text x="10" y="20" class="label">延迟柱状图（越低越好，Top 15），单位 ms</text>
<text x="10" y="46" class="label">eaassets-a.akamaihd.net</text>
<rect x="180" y="30" width="218.25" height="22" fill="#4c78a8" rx="3"/>
<text x="406.25" y="46" class="value">118.85</text>
<text x="10" y="78" class="label">ea.com</text>
<rect x="180" y="62" width="325.75" height="22" fill="#4c78a8" rx="3"/>
<text x="513.75" y="78" class="value">177.39</text>
<text x="10" y="110" class="label">steamcdn-a.akamaihd.net</text>
<rect x="180" y="94" width="327.08" height="22" fill="#4c78a8" rx="3"/>
<text x="515.0799999999999" y="110" class="value">178.11</text>
<text x="10" y="142" class="label">rockstargames.com</text>
<rect x="180" y="126" width="365.82" height="22" fill="#4c78a8" rx="3"/>
<text x="553.8199999999999" y="142" class="value">199.21</text>
<text x="10" y="174" class="label">cdn.cloudflare.steamstatic.com</text>
<rect x="180" y="158" width="409.36" height="22" fill="#4c78a8" rx="3"/>
<text x="597.36" y="174" class="value">222.92</text>
<text x="10" y="206" class="label">ubi.com</text>
<rect x="180" y="190" width="420.6" height="22" fill="#4c78a8" rx="3"/>
<text x="608.6" y="206" class="value">229.04</text>
<text x="10" y="238" class="label">ubisoft.com</text>
<rect x="180" y="222" width="440.78" height="22" fill="#4c78a8" rx="3"/>
<text x="628.78" y="238" class="value">240.03</text>
<text x="10" y="270" class="label">socialclub.rockstargames.com</text>
<rect x="180" y="254" width="494.44" height="22" fill="#4c78a8" rx="3"/>
<text x="682.44" y="270" class="value">269.25</text>
<text x="10" y="302" class="label">easyanticheat.net</text>
<rect x="180" y="286" width="501.95" height="22" fill="#4c78a8" rx="3"/>
<text x="689.95" y="302" class="value">273.34</text>
<text x="10" y="334" class="label">epicgames.com</text>
<rect x="180" y="318" width="527.61" height="22" fill="#4c78a8" rx="3"/>
<text x="715.61" y="334" class="value">287.31</text>
<text x="10" y="366" class="label">store.akamai.steamstatic.com</text>
<rect x="180" y="350" width="532.46" height="22" fill="#4c78a8" rx="3"/>
<text x="720.46" y="366" class="value">289.95</text>
<text x="10" y="398" class="label">launcher-public-service-prod06.ol.epicgames.com</text>
<rect x="180" y="382" width="542.1" height="22" fill="#4c78a8" rx="3"/>
<text x="730.1" y="398" class="value">295.20</text>
<text x="10" y="430" class="label">community.akamai.steamstatic.com</text>
<rect x="180" y="414" width="548.98" height="22" fill="#4c78a8" rx="3"/>
<text x="736.98" y="430" class="value">298.95</text>
<text x="10" y="462" class="label">static3.cdn.ubi.com</text>
<rect x="180" y="446" width="559.27" height="22" fill="#4c78a8" rx="3"/>
<text x="747.27" y="462" class="value">304.55</text>
<text x="10" y="494" class="label">cdn.akamai.steamstatic.com</text>
<rect x="180" y="478" width="580.0" height="22" fill="#4c78a8" rx="3"/>
<text x="768.0" y="494" class="value">315.84</text>
<line x1="180" y1="30" x2="180" y2="520" stroke="#ccc"/>
<line x1="180" y1="520" x2="760" y2="520" stroke="#ccc"/>
</svg>