<svg xmlns="http://www.w3.org/2000/svg" width="800" height="540">
<style> .label{font-family:DejaVu Sans,Verdana,Geneva,sans-serif;font-size:12px;fill:#333} .value{font-family:DejaVu Sans,Verdana,Geneva,sans-serif;font-size:12px;fill:#555} </style>
<text x="10" y="20" class="label">延迟柱状图（越低越好，Top 15），单位 ms</text>
<text x="10" y="46" class="label">socialclub.rockstargames.com</text>
<rect x="180" y="30" width="193.19" height="22" fill="#4c78a8" rx="3"/>
<text x="381.19" y="46" class="value">73.74</text>
<text x="10" y="78" class="label">rockstargames.com</text>
<rect x="180" y="62" width="202.81" height="22" fill="#4c78a8" rx="3"/>
<text x="390.81" y="78" class="value">77.41</text>
<text x="10" y="110" class="label">battle.net</text>
<rect x="180" y="94" width="210.12" height="22" fill="#4c78a8" rx="3"/>
<text x="398.12" y="110" class="value">80.20</text>
<text x="10" y="142" class="label">blizzard.com</text>
<rect x="180" y="126" width="213.71" height="22" fill="#4c78a8" rx="3"/>
<text x="401.71000000000004" y="142" class="value">81.57</text>
<text x="10" y="174" class="label">store.akamai.steamstatic.com</text>
<rect x="180" y="158" width="231.37" height="22" fill="#4c78a8" rx="3"/>
<text x="419.37" y="174" class="value">88.31</text>
<text x="10" y="206" class="label">eaassets-a.akamaihd.net</text>
<rect x="180" y="190" width="235.92" height="22" fill="#4c78a8" rx="3"/>
<text x="423.91999999999996" y="206" class="value">90.05</text>
<text x="10" y="238" class="label">ea.com</text>
<rect x="180" y="222" width="308.65" height="22" fill="#4c78a8" rx="3"/>
<text x="496.65" y="238" class="value">117.81</text>
<text x="10" y="270" class="label">ubi.com</text>
<rect x="180" y="254" width="324.56" height="22" fill="#4c78a8" rx="3"/>
<text x="512.56" y="270" class="value">123.88</text>
<text x="10" y="302" class="label">unrealengine.com</text>
<rect x="180" y="286" width="433.97" height="22" fill="#4c78a8" rx="3"/>
<text x="621.97" y="302" class="value">165.64</text>
<text x="10" y="334" class="label">epicgames.com</text>
<rect x="180" y="318" width="483.56" height="22" fill="#4c78a8" rx="3"/>
<text x="671.56" y="334" class="value">184.57</text>
<text x="10" y="366" class="label">steamcdn-a.akamaihd.net</text>
<rect x="180" y="350" width="502.66" height="22" fill="#4c78a8" rx="3"/>
<text x="690.6600000000001" y="366" class="value">191.86</text>
<text x="10" y="398" class="label">cdn.cloudflare.steamstatic.com</text>
<rect x="180" y="382" width="512.07" height="22" fill="#4c78a8" rx="3"/>
<text x="700.07" y="398" class="value">195.45</text>
<text x="10" y="430" class="label">fortnite.com</text>
<rect x="180" y="414" width="523.59" height="22" fill="#4c78a8" rx="3"/>
<text x="711.59" y="430" class="value">199.85</text>
<text x="10" y="462" class="label">www.steamcommunity.com</text>
<rect x="180" y="446" width="551.02" height="22" fill="#4c78a8" rx="3"/>
<text x="739.02" y="462" class="value">210.32</text>
<text x="10" y="494" class="label">steam-chat.com</text>
<rect x="180" y="478" width="580.0" height="22" fill="#4c78a8" rx="3"/>
<text x="768.0" y="494" class="value">221.38</text>
<line x1="180" y1="30" x2="180" y2="520" stroke="#ccc"/>
<line x1="180" y1="520" x2="760" y2="520" stroke="#ccc"/>
</svg>