<svg xmlns="http://www.w3.org/2000/svg" width="800" height="540">
<style> .label{font-family:DejaVu Sans,Verdana,Geneva,sans-serif;font-size:12px;fill:#333} .value{font-family:DejaVu Sans,Verdana,Geneva,sans-serif;font-size:12px;fill:#555} </style>
<text x="10" y="20" class="label">延迟柱状图（越低越好，Top 15），单位 ms</text>
<text x="10" y="46" class="label">ea.com</text>
<rect x="180" y="30" width="102.65" height="22" fill="#4c78a8" rx="3"/>
<text x="290.65" y="46" class="value">47.27</text>
<text x="10" y="78" class="label">eaassets-a.akamaihd.net</text>
<rect x="180" y="62" width="131.18" height="22" fill="#4c78a8" rx="3"/>
<text x="319.18" y="78" class="value">60.41</text>
<text x="10" y="110" class="label">rockstargames.com</text>
<rect x="180" y="94" width="133.63" height="22" fill="#4c78a8" rx="3"/>
<text x="321.63" y="110" class="value">61.54</text>
<text x="10" y="142" class="label">community.akamai.steamstatic.com</text>
<rect x="180" y="126" width="170.09" height="22" fill="#4c78a8" rx="3"/>
<text x="358.09000000000003" y="142" class="value">78.33</text>
<text x="10" y="174" class="label">ubisoft.com</text>
<rect x="180" y="158" width="241.92" height="22" fill="#4c78a8" rx="3"/>
<text x="429.91999999999996" y="174" class="value">111.41</text>
<text x="10" y="206" class="label">cdn.cloudflare.steamstatic.com</text>
<rect x="180" y="190" width="250.26" height="22" fill="#4c78a8" rx="3"/>
<text x="438.26" y="206" class="value">115.25</text>
<text x="10" y="238" class="label">origin.com</text>
<rect x="180" y="222" width="322.31" height="22" fill="#4c78a8" rx="3"/>
<text x="510.31" y="238" class="value">148.43</text>
<text x="10" y="270" class="label">store.akamai.steamstatic.com</text>
<rect x="180" y="254" width="334.3" height="22" fill="#4c78a8" rx="3"/>
<text x="522.3" y="270" class="value">153.95</text>
<text x="10" y="302" class="label">steamcdn-a.akamaihd.net</text>
<rect x="180" y="286" width="343.18" height="22" fill="#4c78a8" rx="3"/>
<text x="531.1800000000001" y="302" class="value">158.04</text>
<text x="10" y="334" class="label">cdn.akamai.steamstatic.com</text>
<rect x="180" y="318" width="408.52" height="22" fill="#4c78a8" rx="3"/>
<text x="596.52" y="334" class="value">188.13</text>
<text x="10" y="366" class="label">www.steamcommunity.com</text>
<rect x="180" y="350" width="431.78" height="22" fill="#4c78a8" rx="3"/>
<text x="619.78" y="366" class="value">198.84</text>
<text x="10" y="398" class="label">easyanticheat.net</text>
<rect x="180" y="382" width="451.41" height="22" fill="#4c78a8" rx="3"/>
<text x="639.4100000000001" y="398" class="value">207.88</text>
<text x="10" y="430" class="label">launcher-public-service-prod06.ol.epicgames.com</text>
<rect x="180" y="414" width="574.31" height="22" fill="#4c78a8" rx="3"/>
<text x="762.31" y="430" class="value">264.48</text>
<text x="10" y="462" class="label">api.steampowered.com</text>
<rect x="180" y="446" width="578.0" height="22" fill="#4c78a8" rx="3"/>
<text x="766.0" y="462" class="value">266.18</text>
<text x="10" y="494" class="label">steam-chat.com</text>
<rect x="180" y="478" width="580.0" height="22" fill="#4c78a8" rx="3"/>
<text x="768.0" y="494" class="value">267.10</text>
<line x1="180" y1="30" x2="180" y2="520" stroke="#ccc"/>
<line x1="180" y1="520" x2="760" y2="520" stroke="#ccc"/>
</svg>