<svg xmlns="http://www.w3.org/2000/svg" width="800" height="540">
<style> .label{font-family:DejaVu Sans,Verdana,Geneva,sans-serif;font-size:12px;fill:#333} .value{font-family:DejaVu Sans,Verdana,Geneva,sans-serif;font-size:12px;fill:#555} </style>
<text x="10" y="20" class="label">延迟柱状图（越低越好，Top 15），单位 ms</text>
<text x="10" y="46" class="label">eaassets-a.akamaihd.net</text>
<rect x="180" y="30" width="201.99" height="22" fill="#4c78a8" rx="3"/>
<text x="389.99" y="46" class="value">60.07</text>
<text x="10" y="78" class="label">rockstargames.com</text>
<rect x="180" y="62" width="220.55" height="22" fill="#4c78a8" rx="3"/>
<text x="408.55" y="78" class="value">65.59</text>
<text x="10" y="110" class="label">ubisoft.com</text>
<rect x="180" y="94" width="288.44" height="22" fill="#4c78a8" rx="3"/>
<text x="476.44" y="110" class="value">85.78</text>
<text x="10" y="142" class="label">community.akamai.steamstatic.com</text>
<rect x="180" y="126" width="317.15" height="22" fill="#4c78a8" rx="3"/>
<text x="505.15" y="142" class="value">94.32</text>
<text x="10" y="174" class="label">steamcdn-a.akamaihd.net</text>
<rect x="180" y="158" width="389.68" height="22" fill="#4c78a8" rx="3"/>
<text x="577.6800000000001" y="174" class="value">115.89</text>
<text x="10" y="206" class="label">origin.com</text>
<rect x="180" y="190" width="415.98" height="22" fill="#4c78a8" rx="3"/>
<text x="603.98" y="206" class="value">123.71</text>
<text x="10" y="238" class="label">ubi.com</text>
<rect x="180" y="222" width="448.86" height="22" fill="#4c78a8" rx="3"/>
<text x="636.86" y="238" class="value">133.49</text>
<text x="10" y="270" class="label">blizzard.com</text>
<rect x="180" y="254" width="455.65" height="22" fill="#4c78a8" rx="3"/>
<text x="643.65" y="270" class="value">135.51</text>
<text x="10" y="302" class="label">ea.com</text>
<rect x="180" y="286" width="455.79" height="22" fill="#4c78a8" rx="3"/>
<text x="643.79" y="302" class="value">135.55</text>
<text x="10" y="334" class="label">battle.net</text>
<rect x="180" y="318" width="467.93" height="22" fill="#4c78a8" rx="3"/>
<text x="655.9300000000001" y="334" class="value">139.16</text>
<text x="10" y="366" class="label">www.steamcommunity.com</text>
<rect x="180" y="350" width="509.29" height="22" fill="#4c78a8" rx="3"/>
<text x="697.29" y="366" class="value">151.46</text>
<text x="10" y="398" class="label">socialclub.rockstargames.com</text>
<rect x="180" y="382" width="511.54" height="22" fill="#4c78a8" rx="3"/>
<text x="699.54" y="398" class="value">152.13</text>
<text x="10" y="430" class="label">api.steampowered.com</text>
<rect x="180" y="414" width="517.19" height="22" fill="#4c78a8" rx="3"/>
<text x="705.19" y="430" class="value">153.81</text>
<text x="10" y="462" class="label">static3.cdn.ubi.com</text>
<rect x="180" y="446" width="539.31" height="22" fill="#4c78a8" rx="3"/>
<text x="727.31" y="462" class="value">160.39</text>
<text x="10" y="494" class="label">store.akamai.steamstatic.com</text>
<rect x="180" y="478" width="580.0" height="22" fill="#4c78a8" rx="3"/>
<text x="768.0" y="494" class="value">172.49</text>
<line x1="180" y1="30" x2="180" y2="520" stroke="#ccc"/>
<line x1="180" y1="520" x2="760" y2="520" stroke="#ccc"/>
</svg>