<svg xmlns="http://www.w3.org/2000/svg" width="800" height="540">
<style> .label{font-family:DejaVu Sans,Verdana,Geneva,sans-serif;font-size:12px;fill:#333} .value{font-family:DejaVu Sans,Verdana,Geneva,sans-serif;font-size:12px;fill:#555} </style>
<text x="10" y="20" class="label">延迟柱状图（越低越好，Top 15），单位 ms</text>
<text x="10" y="46" class="label">rockstargames.com</text>
<rect x="180" y="30" width="273.01" height="22" fill="#4c78a8" rx="3"/>
<text x="461.01" y="46" class="value">73.13</text>
<text x="10" y="78" class="label">eaassets-a.akamaihd.net</text>
<rect x="180" y="62" width="275.85" height="22" fill="#4c78a8" rx="3"/>
<text x="463.85" y="78" class="value">73.89</text>
<text x="10" y="110" class="label">battle.net</text>
<rect x="180" y="94" width="315.61" height="22" fill="#4c78a8" rx="3"/>
<text x="503.61" y="110" class="value">84.54</text>
<text x="10" y="142" class="label">cdn.cloudflare.steamstatic.com</text>
<rect x="180" y="126" width="320.05" height="22" fill="#4c78a8" rx="3"/>
<text x="508.05" y="142" class="value">85.73</text>
<text x="10" y="174" class="label">socialclub.rockstargames.com</text>
<rect x="180" y="158" width="324.57" height="22" fill="#4c78a8" rx="3"/>
<text x="512.5699999999999" y="174" class="value">86.94</text>
<text x="10" y="206" class="label">blizzard.com</text>
<rect x="180" y="190" width="360.15" height="22" fill="#4c78a8" rx="3"/>
<text x="548.15" y="206" class="value">96.47</text>
<text x="10" y="238" class="label">epicgames.com</text>
<rect x="180" y="222" width="379.49" height="22" fill="#4c78a8" rx="3"/>
<text x="567.49" y="238" class="value">101.65</text>
<text x="10" y="270" class="label">ubi.com</text>
<rect x="180" y="254" width="379.64" height="22" fill="#4c78a8" rx="3"/>
<text x="567.64" y="270" class="value">101.69</text>
<text x="10" y="302" class="label">store.akamai.steamstatic.com</text>
<rect x="180" y="286" width="411.67" height="22" fill="#4c78a8" rx="3"/>
<text x="599.6700000000001" y="302" class="value">110.27</text>
<text x="10" y="334" class="label">fortnite.com</text>
<rect x="180" y="318" width="451.8" height="22" fill="#4c78a8" rx="3"/>
<text x="639.8" y="334" class="value">121.02</text>
<text x="10" y="366" class="label">origin.com</text>
<rect x="180" y="350" width="452.88" height="22" fill="#4c78a8" rx="3"/>
<text x="640.88" y="366" class="value">121.31</text>
<text x="10" y="398" class="label">ea.com</text>
<rect x="180" y="382" width="464.53" height="22" fill="#4c78a8" rx="3"/>
<text x="652.53" y="398" class="value">124.43</text>
<text x="10" y="430" class="label">cdn.akamai.steamstatic.com</text>
<rect x="180" y="414" width="496.56" height="22" fill="#4c78a8" rx="3"/>
<text x="684.56" y="430" class="value">133.01</text>
<text x="10" y="462" class="label">unrealengine.com</text>
<rect x="180" y="446" width="544.38" height="22" fill="#4c78a8" rx="3"/>
<text x="732.38" y="462" class="value">145.82</text>
<text x="10" y="494" class="label">static3.cdn.ubi.com</text>
<rect x="180" y="478" width="580.0" height="22" fill="#4c78a8" rx="3"/>
<text x="768.0" y="494" class="value">155.36</text>
<line x1="180" y1="30" x2="180" y2="520" stroke="#ccc"/>
<line x1="180" y1="520" x2="760" y2="520" stroke="#ccc"/>
</svg>