<svg xmlns="http://www.w3.org/2000/svg" width="800" height="540">
<style> .label{font-family:DejaVu Sans,Verdana,Geneva,sans-serif;font-size:12px;fill:#333} .value{font-family:DejaVu Sans,Verdana,Geneva,sans-serif;font-size:12px;fill:#555} </style>
<text x="10" y="20" class="label">延迟柱状图（越低越好，Top 15），单位 ms</text>
<text x="10" y="46" class="label">rockstargames.com</text>
<rect x="180" y="30" width="165.64" height="22" fill="#4c78a8" rx="3"/>
<text x="353.64" y="46" class="value">51.80</text>
<text x="10" y="78" class="label">unrealengine.com</text>
<rect x="180" y="62" width="245.62" height="22" fill="#4c78a8" rx="3"/>
<text x="433.62" y="78" class="value">76.81</text>
<text x="10" y="110" class="label">socialclub.rockstargames.com</text>
<rect x="180" y="94" width="261.35" height="22" fill="#4c78a8" rx="3"/>
<text x="449.35" y="110" class="value">81.73</text>
<text x="10" y="142" class="label">blizzard.com</text>
<rect x="180" y="126" width="264.45" height="22" fill="#4c78a8" rx="3"/>
<text x="452.45" y="142" class="value">82.70</text>
<text x="10" y="174" class="label">battle.net</text>
<rect x="180" y="158" width="292.37" height="22" fill="#4c78a8" rx="3"/>
<text x="480.37" y="174" class="value">91.43</text>
<text x="10" y="206" class="label">ea.com</text>
<rect x="180" y="190" width="355.33" height="22" fill="#4c78a8" rx="3"/>
<text x="543.3299999999999" y="206" class="value">111.12</text>
<text x="10" y="238" class="label">fortnite.com</text>
<rect x="180" y="222" width="357.89" height="22" fill="#4c78a8" rx="3"/>
<text x="545.89" y="238" class="value">111.92</text>
<text x="10" y="270" class="label">eaassets-a.akamaihd.net</text>
<rect x="180" y="254" width="361.92" height="22" fill="#4c78a8" rx="3"/>
<text x="549.9200000000001" y="270" class="value">113.18</text>
<text x="10" y="302" class="label">ubisoft.com</text>
<rect x="180" y="286" width="370.01" height="22" fill="#4c78a8" rx="3"/>
<text x="558.01" y="302" class="value">115.71</text>
<text x="10" y="334" class="label">ubi.com</text>
<rect x="180" y="318" width="390.34" height="22" fill="#4c78a8" rx="3"/>
<text x="578.3399999999999" y="334" class="value">122.07</text>
<text x="10" y="366" class="label">cdn.akamai.steamstatic.com</text>
<rect x="180" y="350" width="436.68" height="22" fill="#4c78a8" rx="3"/>
<text x="624.6800000000001" y="366" class="value">136.56</text>
<text x="10" y="398" class="label">community.akamai.steamstatic.com</text>
<rect x="180" y="382" width="504.47" height="22" fill="#4c78a8" rx="3"/>
<text x="692.47" y="398" class="value">157.76</text>
<text x="10" y="430" class="label">store.akamai.steamstatic.com</text>
<rect x="180" y="414" width="510.58" height="22" fill="#4c78a8" rx="3"/>
<text x="698.5799999999999" y="430" class="value">159.67</text>
<text x="10" y="462" class="label">cdn.cloudflare.steamstatic.com</text>
<rect x="180" y="446" width="547.32" height="22" fill="#4c78a8" rx="3"/>
<text x="735.32" y="462" class="value">171.16</text>
<text x="10" y="494" class="label">epicgames.com</text>
<rect x="180" y="478" width="580.0" height="22" fill="#4c78a8" rx="3"/>
<text x="768.0" y="494" class="value">181.38</text>
<line x1="180" y1="30" x2="180" y2="520" stroke="#ccc"/>
<line x1="180" y1="520" x2="760" y2="520" stroke="#ccc"/>
</svg>