<svg xmlns="http://www.w3.org/2000/svg" width="800" height="540">
<style> .label{font-family:DejaVu Sans,Verdana,Geneva,sans-serif;font-size:12px;fill:#333} .value{font-family:DejaVu Sans,Verdana,Geneva,sans-serif;font-size:12px;fill:#555} </style>
<text x="10" y="20" class="label">延迟柱状图（越低越好，Top 15），单位 ms</text>
<text x="10" y="46" class="label">eaassets-a.akamaihd.net</text>
<rect x="180" y="30" width="226.94" height="22" fill="#4c78a8" rx="3"/>
<text x="414.94" y="46" class="value">119.58</text>
<text x="10" y="78" class="label">ubisoft.com</text>
<rect x="180" y="62" width="303.52" height="22" fill="#4c78a8" rx="3"/>
<text x="491.52" y="78" class="value">159.93</text>
<text x="10" y="110" class="label">ea.com</text>
<rect x="180" y="94" width="325.16" height="22" fill="#4c78a8" rx="3"/>
<text x="513.1600000000001" y="110" class="value">171.33</text>
<text x="10" y="142" class="label">community.akamai.steamstatic.com</text>
<rect x="180" y="126" width="333.0" height="22" fill="#4c78a8" rx="3"/>
<text x="521.0" y="142" class="value">175.46</text>
<text x="10" y="174" class="label">ubi.com</text>
<rect x="180" y="158" width="399.36" height="22" fill="#4c78a8" rx="3"/>
<text x="587.36" y="174" class="value">210.43</text>
<text x="10" y="206" class="label">easyanticheat.net</text>
<rect x="180" y="190" width="423.18" height="22" fill="#4c78a8" rx="3"/>
<text x="611.1800000000001" y="206" class="value">222.98</text>
<text x="10" y="238" class="label">steamcdn-a.akamaihd.net</text>
<rect x="180" y="222" width="427.83" height="22" fill="#4c78a8" rx="3"/>
<text x="615.8299999999999" y="238" class="value">225.43</text>
<text x="10" y="270" class="label">rockstargames.com</text>
<rect x="180" y="254" width="479.13" height="22" fill="#4c78a8" rx="3"/>
<text x="667.13" y="270" class="value">252.46</text>
<text x="10" y="302" class="label">store.akamai.steamstatic.com</text>
<rect x="180" y="286" width="495.22" height="22" fill="#4c78a8" rx="3"/>
<text x="683.22" y="302" class="value">260.94</text>
<text x="10" y="334" class="label">socialclub.rockstargames.com</text>
<rect x="180" y="318" width="539.48" height="22" fill="#4c78a8" rx="3"/>
<text x="727.48" y="334" class="value">284.26</text>
<text x="10" y="366" class="label">cdn.cloudflare.steamstatic.com</text>
<rect x="180" y="350" width="547.51" height="22" fill="#4c78a8" rx="3"/>
<text x="735.51" y="366" class="value">288.49</text>
<text x="10" y="398" class="label">steamcommunity.com</text>
<rect x="180" y="382" width="554.64" height="22" fill="#4c78a8" rx="3"/>
<text x="742.64" y="398" class="value">292.25</text>
<text x="10" y="430" class="label">launcher-public-service-prod06.ol.epicgames.com</text>
<rect x="180" y="414" width="574.38" height="22" fill="#4c78a8" rx="3"/>
<text x="762.38" y="430" class="value">302.65</text>
<text x="10" y="462" class="label">cdn.akamai.steamstatic.com</text>
<rect x="180" y="446" width="577.06" height="22" fill="#4c78a8" rx="3"/>
<text x="765.06" y="462" class="value">304.06</text>
<text x="10" y="494" class="label">origin.com</text>
<rect x="180" y="478" width="580.0" height="22" fill="#4c78a8" rx="3"/>
<text x="768.0" y="494" class="value">305.61</text>
<line x1="180" y1="30" x2="180" y2="520" stroke="#ccc"/>
<line x1="180" y1="520" x2="760" y2="520" stroke="#ccc"/>
</svg>