<svg xmlns="http://www.w3.org/2000/svg" width="800" height="540">
<style> .label{font-family:DejaVu Sans,Verdana,Geneva,sans-serif;font-size:12px;fill:#333} .value{font-family:DejaVu Sans,Verdana,Geneva,sans-serif;font-size:12px;fill:#555} </style>
<text x="10" y="20" class="label">延迟柱状图（越低越好，Top 15），单位 ms</text>
<text x="10" y="46" class="label">eaassets-a.akamaihd.net</text>
<rect x="180" y="30" width="246.53" height="22" fill="#4c78a8" rx="3"/>
<text x="434.53" y="46" class="value">112.56</text>
<text x="10" y="78" class="label">community.akamai.steamstatic.com</text>
<rect x="180" y="62" width="334.19" height="22" fill="#4c78a8" rx="3"/>
<text x="522.19" y="78" class="value">152.58</text>
<text x="10" y="110" class="label">rockstargames.com</text>
<rect x="180" y="94" width="382.9" height="22" fill="#4c78a8" rx="3"/>
<text x="570.9" y="110" class="value">174.82</text>
<text x="10" y="142" class="label">origin.com</text>
<rect x="180" y="126" width="391.84" height="22" fill="#4c78a8" rx="3"/>
<text x="579.8399999999999" y="142" class="value">178.90</text>
<text x="10" y="174" class="label">easyanticheat.net</text>
<rect x="180" y="158" width="419.08" height="22" fill="#4c78a8" rx="3"/>
<text x="607.0799999999999" y="174" class="value">191.34</text>
<text x="10" y="206" class="label">store.akamai.steamstatic.com</text>
<rect x="180" y="190" width="444.4" height="22" fill="#4c78a8" rx="3"/>
<text x="632.4" y="206" class="value">202.90</text>
<text x="10" y="238" class="label">www.steamcommunity.com</text>
<rect x="180" y="222" width="453.36" height="22" fill="#4c78a8" rx="3"/>
<text x="641.36" y="238" class="value">206.99</text>
<text x="10" y="270" class="label">ubi.com</text>
<rect x="180" y="254" width="455.37" height="22" fill="#4c78a8" rx="3"/>
<text x="643.37" y="270" class="value">207.91</text>
<text x="10" y="302" class="label">blizzard.com</text>
<rect x="180" y="286" width="463.15" height="22" fill="#4c78a8" rx="3"/>
<text x="651.15" y="302" class="value">211.46</text>
<text x="10" y="334" class="label">cdn.cloudflare.steamstatic.com</text>
<rect x="180" y="318" width="485.88" height="22" fill="#4c78a8" rx="3"/>
<text x="673.88" y="334" class="value">221.84</text>
<text x="10" y="366" class="label">steamcdn-a.akamaihd.net</text>
<rect x="180" y="350" width="510.66" height="22" fill="#4c78a8" rx="3"/>
<text x="698.6600000000001" y="366" class="value">233.15</text>
<text x="10" y="398" class="label">ubisoft.com</text>
<rect x="180" y="382" width="549.69" height="22" fill="#4c78a8" rx="3"/>
<text x="737.69" y="398" class="value">250.97</text>
<text x="10" y="430" class="label">ea.com</text>
<rect x="180" y="414" width="569.79" height="22" fill="#4c78a8" rx="3"/>
<text x="757.79" y="430" class="value">260.15</text>
<text x="10" y="462" class="label">steamcommunity.com</text>
<rect x="180" y="446" width="575.05" height="22" fill="#4c78a8" rx="3"/>
<text x="763.05" y="462" class="value">262.55</text>
<text x="10" y="494" class="label">socialclub.rockstargames.com</text>
<rect x="180" y="478" width="580.0" height="22" fill="#4c78a8" rx="3"/>
<text x="768.0" y="494" class="value">264.81</text>
<line x1="180" y1="30" x2="180" y2="520" stroke="#ccc"/>
<line x1="180" y1="520" x2="760" y2="520" stroke="#ccc"/>
</svg>