<svg xmlns="http://www.w3.org/2000/svg" width="800" height="540">
<style> .label{font-family:DejaVu Sans,Verdana,Geneva,sans-serif;font-size:12px;fill:#333} .value{font-family:DejaVu Sans,Verdana,Geneva,sans-serif;font-size:12px;fill:#555} </style>
<text x="10" y="20" class="label">延迟柱状图（越低越好，Top 15），单位 ms</text>
<text x="10" y="46" class="label">rockstargames.com</text>
<rect x="180" y="30" width="115.53" height="22" fill="#4c78a8" rx="3"/>
<text x="303.53" y="46" class="value">37.70</text>
<text x="10" y="78" class="label">eaassets-a.akamaihd.net</text>
<rect x="180" y="62" width="218.4" height="22" fill="#4c78a8" rx="3"/>
<text x="406.4" y="78" class="value">71.27</text>
<text x="10" y="110" class="label">socialclub.rockstargames.com</text>
<rect x="180" y="94" width="238.2" height="22" fill="#4c78a8" rx="3"/>
<text x="426.2" y="110" class="value">77.73</text>
<text x="10" y="142" class="label">blizzard.com</text>
<rect x="180" y="126" width="283.37" height="22" fill="#4c78a8" rx="3"/>
<text x="471.37" y="142" class="value">92.47</text>
<text x="10" y="174" class="label">battle.net</text>
<rect x="180" y="158" width="312.32" height="22" fill="#4c78a8" rx="3"/>
<text x="500.32" y="174" class="value">101.92</text>
<text x="10" y="206" class="label">ubi.com</text>
<rect x="180" y="190" width="352.93" height="22" fill="#4c78a8" rx="3"/>
<text x="540.9300000000001" y="206" class="value">115.17</text>
<text x="10" y="238" class="label">fortnite.com</text>
<rect x="180" y="222" width="384.12" height="22" fill="#4c78a8" rx="3"/>
<text x="572.12" y="238" class="value">125.35</text>
<text x="10" y="270" class="label">ea.com</text>
<rect x="180" y="254" width="397.88" height="22" fill="#4c78a8" rx="3"/>
<text x="585.88" y="270" class="value">129.84</text>
<text x="10" y="302" class="label">ubisoft.com</text>
<rect x="180" y="286" width="416.45" height="22" fill="#4c78a8" rx="3"/>
<text x="604.45" y="302" class="value">135.90</text>
<text x="10" y="334" class="label">origin.com</text>
<rect x="180" y="318" width="492.88" height="22" fill="#4c78a8" rx="3"/>
<text x="680.88" y="334" class="value">160.84</text>
<text x="10" y="366" class="label">cdn.cloudflare.steamstatic.com</text>
<rect x="180" y="350" width="498.03" height="22" fill="#4c78a8" rx="3"/>
<text x="686.03" y="366" class="value">162.52</text>
<text x="10" y="398" class="label">unrealengine.com</text>
<rect x="180" y="382" width="500.97" height="22" fill="#4c78a8" rx="3"/>
<text x="688.97" y="398" class="value">163.48</text>
<text x="10" y="430" class="label">store.akamai.steamstatic.com</text>
<rect x="180" y="414" width="544.76" height="22" fill="#4c78a8" rx="3"/>
<text x="732.76" y="430" class="value">177.77</text>
<text x="10" y="462" class="label">epicgames.com</text>
<rect x="180" y="446" width="564.62" height="22" fill="#4c78a8" rx="3"/>
<text x="752.62" y="462" class="value">184.25</text>
<text x="10" y="494" class="label">community.akamai.steamstatic.com</text>
<rect x="180" y="478" width="580.0" height="22" fill="#4c78a8" rx="3"/>
<text x="768.0" y="494" class="value">189.27</text>
<line x1="180" y1="30" x2="180" y2="520" stroke="#ccc"/>
<line x1="180" y1="520" x2="760" y2="520" stroke="#ccc"/>
</svg>