<svg xmlns="http://www.w3.org/2000/svg" width="800" height="540">
<style> .label{font-family:DejaVu Sans,Verdana,Geneva,sans-serif;font-size:12px;fill:#333} .value{font-family:DejaVu Sans,Verdana,Geneva,sans-serif;font-size:12px;fill:#555} </style>
<text x="10" y="20" class="label">延迟柱状图（越低越好，Top 15），单位 ms</text>
<text x="10" y="46" class="label">rockstargames.com</text>
<rect x="180" y="30" width="111.46" height="22" fill="#4c78a8" rx="3"/>
<text x="299.46" y="46" class="value">44.81</text>
<text x="10" y="78" class="label">eaassets-a.akamaihd.net</text>
<rect x="180" y="62" width="118.95" height="22" fill="#4c78a8" rx="3"/>
<text x="306.95" y="78" class="value">47.82</text>
<text x="10" y="110" class="label">socialclub.rockstargames.com</text>
<rect x="180" y="94" width="196.1" height="22" fill="#4c78a8" rx="3"/>
<text x="384.1" y="110" class="value">78.84</text>
<text x="10" y="142" class="label">ubisoft.com</text>
<rect x="180" y="126" width="230.23" height="22" fill="#4c78a8" rx="3"/>
<text x="418.23" y="142" class="value">92.56</text>
<text x="10" y="174" class="label">blizzard.com</text>
<rect x="180" y="158" width="257.71" height="22" fill="#4c78a8" rx="3"/>
<text x="445.71" y="174" class="value">103.61</text>
<text x="10" y="206" class="label">ubi.com</text>
<rect x="180" y="190" width="258.51" height="22" fill="#4c78a8" rx="3"/>
<text x="446.51" y="206" class="value">103.93</text>
<text x="10" y="238" class="label">battle.net</text>
<rect x="180" y="222" width="266.99" height="22" fill="#4c78a8" rx="3"/>
<text x="454.99" y="238" class="value">107.34</text>
<text x="10" y="270" class="label">ea.com</text>
<rect x="180" y="254" width="291.29" height="22" fill="#4c78a8" rx="3"/>
<text x="479.29" y="270" class="value">117.11</text>
<text x="10" y="302" class="label">epicgames.com</text>
<rect x="180" y="286" width="306.59" height="22" fill="#4c78a8" rx="3"/>
<text x="494.59" y="302" class="value">123.26</text>
<text x="10" y="334" class="label">fortnite.com</text>
<rect x="180" y="318" width="507.32" height="22" fill="#4c78a8" rx="3"/>
<text x="695.3199999999999" y="334" class="value">203.96</text>
<text x="10" y="366" class="label">unrealengine.com</text>
<rect x="180" y="350" width="514.88" height="22" fill="#4c78a8" rx="3"/>
<text x="702.88" y="366" class="value">207.00</text>
<text x="10" y="398" class="label">www.steamcommunity.com</text>
<rect x="180" y="382" width="544.53" height="22" fill="#4c78a8" rx="3"/>
<text x="732.53" y="398" class="value">218.92</text>
<text x="10" y="430" class="label">origin.com</text>
<rect x="180" y="414" width="549.16" height="22" fill="#4c78a8" rx="3"/>
<text x="737.16" y="430" class="value">220.78</text>
<text x="10" y="462" class="label">static3.cdn.ubi.com</text>
<rect x="180" y="446" width="569.85" height="22" fill="#4c78a8" rx="3"/>
<text x="757.85" y="462" class="value">229.10</text>
<text x="10" y="494" class="label">community.akamai.steamstatic.com</text>
<rect x="180" y="478" width="580.0" height="22" fill="#4c78a8" rx="3"/>
<text x="768.0" y="494" class="value">233.18</text>
<line x1="180" y1="30" x2="180" y2="520" stroke="#ccc"/>
<line x1="180" y1="520" x2="760" y2="520" stroke="#ccc"/>
</svg>