<svg xmlns="http://www.w3.org/2000/svg" width="800" height="540">
<style> .label{font-family:DejaVu Sans,Verdana,Geneva,sans-serif;font-size:12px;fill:#333} .value{font-family:DejaVu Sans,Verdana,Geneva,sans-serif;font-size:12px;fill:#555} </style>
<text x="10" y="20" class="label">延迟柱状图（越低越好，Top 15），单位 ms</text>
<text x="10" y="46" class="label">ubisoft.com</text>
<rect x="180" y="30" width="233.05" height="22" fill="#4c78a8" rx="3"/>
<text x="421.05" y="46" class="value">124.70</text>
<text x="10" y="78" class="label">ea.com</text>
<rect x="180" y="62" width="236.4" height="22" fill="#4c78a8" rx="3"/>
<text x="424.4" y="78" class="value">126.49</text>
<text x="10" y="110" class="label">rockstargames.com</text>
<rect x="180" y="94" width="237.67" height="22" fill="#4c78a8" rx="3"/>
<text x="425.66999999999996" y="110" class="value">127.17</text>
<text x="10" y="142" class="label">store.akamai.steamstatic.com</text>
<rect x="180" y="126" width="292.32" height="22" fill="#4c78a8" rx="3"/>
<text x="480.32" y="142" class="value">156.41</text>
<text x="10" y="174" class="label">steamcdn-a.akamaihd.net</text>
<rect x="180" y="158" width="299.08" height="22" fill="#4c78a8" rx="3"/>
<text x="487.08" y="174" class="value">160.03</text>
<text x="10" y="206" class="label">eaassets-a.akamaihd.net</text>
<rect x="180" y="190" width="319.72" height="22" fill="#4c78a8" rx="3"/>
<text x="507.72" y="206" class="value">171.07</text>
<text x="10" y="238" class="label">community.akamai.steamstatic.com</text>
<rect x="180" y="222" width="326.95" height="22" fill="#4c78a8" rx="3"/>
<text x="514.95" y="238" class="value">174.94</text>
<text x="10" y="270" class="label">origin.com</text>
<rect x="180" y="254" width="373.43" height="22" fill="#4c78a8" rx="3"/>
<text x="561.4300000000001" y="270" class="value">199.81</text>
<text x="10" y="302" class="label">cdn.akamai.steamstatic.com</text>
<rect x="180" y="286" width="446.54" height="22" fill="#4c78a8" rx="3"/>
<text x="634.54" y="302" class="value">238.93</text>
<text x="10" y="334" class="label">ubi.com</text>
<rect x="180" y="318" width="479.58" height="22" fill="#4c78a8" rx="3"/>
<text x="667.5799999999999" y="334" class="value">256.61</text>
<text x="10" y="366" class="label">steamcommunity.com</text>
<rect x="180" y="350" width="521.82" height="22" fill="#4c78a8" rx="3"/>
<text x="709.82" y="366" class="value">279.21</text>
<text x="10" y="398" class="label">cdn.cloudflare.steamstatic.com</text>
<rect x="180" y="382" width="528.85" height="22" fill="#4c78a8" rx="3"/>
<text x="716.85" y="398" class="value">282.97</text>
<text x="10" y="430" class="label">easyanticheat.net</text>
<rect x="180" y="414" width="560.77" height="22" fill="#4c78a8" rx="3"/>
<text x="748.77" y="430" class="value">300.05</text>
<text x="10" y="462" class="label">socialclub.rockstargames.com</text>
<rect x="180" y="446" width="574.19" height="22" fill="#4c78a8" rx="3"/>
<text x="762.19" y="462" class="value">307.23</text>
<text x="10" y="494" class="label">battle.net</text>
<rect x="180" y="478" width="580.0" height="22" fill="#4c78a8" rx="3"/>
<text x="768.0" y="494" class="value">310.34</text>
<line x1="180" y1="30" x2="180" y2="520" stroke="#ccc"/>
<line x1="180" y1="520" x2="760" y2="520" stroke="#ccc"/>
</svg>