<svg xmlns="http://www.w3.org/2000/svg" width="800" height="540">
<style> .label{font-family:DejaVu Sans,Verdana,Geneva,sans-serif;font-size:12px;fill:#333} .value{font-family:DejaVu Sans,Verdana,Geneva,sans-serif;font-size:12px;fill:#555} </style>
<text x="10" y="20" class="label">延迟柱状图（越低越好，Top 15），单位 ms</text>
<text x="10" y="46" class="label">rockstargames.com</text>
<rect x="180" y="30" width="98.93" height="22" fill="#4c78a8" rx="3"/>
<text x="286.93" y="46" class="value">43.56</text>
<text x="10" y="78" class="label">ea.com</text>
<rect x="180" y="62" width="158.29" height="22" fill="#4c78a8" rx="3"/>
<text x="346.28999999999996" y="78" class="value">69.70</text>
<text x="10" y="110" class="label">origin.com</text>
<rect x="180" y="94" width="168.01" height="22" fill="#4c78a8" rx="3"/>
<text x="356.01" y="110" class="value">73.98</text>
<text x="10" y="142" class="label">ubisoft.com</text>
<rect x="180" y="126" width="260.33" height="22" fill="#4c78a8" rx="3"/>
<text x="448.33" y="142" class="value">114.63</text>
<text x="10" y="174" class="label">community.akamai.steamstatic.com</text>
<rect x="180" y="158" width="281.47" height="22" fill="#4c78a8" rx="3"/>
<text x="469.47" y="174" class="value">123.94</text>
<text x="10" y="206" class="label">eaassets-a.akamaihd.net</text>
<rect x="180" y="190" width="284.17" height="22" fill="#4c78a8" rx="3"/>
<text x="472.17" y="206" class="value">125.13</text>
<text x="10" y="238" class="label">easyanticheat.net</text>
<rect x="180" y="222" width="310.86" height="22" fill="#4c78a8" rx="3"/>
<text x="498.86" y="238" class="value">136.88</text>
<text x="10" y="270" class="label">store.akamai.steamstatic.com</text>
<rect x="180" y="254" width="318.01" height="22" fill="#4c78a8" rx="3"/>
<text x="506.01" y="270" class="value">140.03</text>
<text x="10" y="302" class="label">cdn.akamai.steamstatic.com</text>
<rect x="180" y="286" width="351.08" height="22" fill="#4c78a8" rx="3"/>
<text x="539.0799999999999" y="302" class="value">154.59</text>
<text x="10" y="334" class="label">steamcdn-a.akamaihd.net</text>
<rect x="180" y="318" width="369.23" height="22" fill="#4c78a8" rx="3"/>
<text x="557.23" y="334" class="value">162.58</text>
<text x="10" y="366" class="label">cdn.cloudflare.steamstatic.com</text>
<rect x="180" y="350" width="437.61" height="22" fill="#4c78a8" rx="3"/>
<text x="625.61" y="366" class="value">192.69</text>
<text x="10" y="398" class="label">static3.cdn.ubi.com</text>
<rect x="180" y="382" width="486.07" height="22" fill="#4c78a8" rx="3"/>
<text x="674.0699999999999" y="398" class="value">214.03</text>
<text x="10" y="430" class="label">www.steamcommunity.com</text>
<rect x="180" y="414" width="496.95" height="22" fill="#4c78a8" rx="3"/>
<text x="684.95" y="430" class="value">218.82</text>
<text x="10" y="462" class="label">launcher-public-service-prod06.ol.epicgames.com</text>
<rect x="180" y="446" width="552.63" height="22" fill="#4c78a8" rx="3"/>
<text x="740.63" y="462" class="value">243.34</text>
<text x="10" y="494" class="label">steam-chat.com</text>
<rect x="180" y="478" width="580.0" height="22" fill="#4c78a8" rx="3"/>
<text x="768.0" y="494" class="value">255.39</text>
<line x1="180" y1="30" x2="180" y2="520" stroke="#ccc"/>
<line x1="180" y1="520" x2="760" y2="520" stroke="#ccc"/>
</svg>