<svg xmlns="http://www.w3.org/2000/svg" width="800" height="540">
<style> .label{font-family:DejaVu Sans,Verdana,Geneva,sans-serif;font-size:12px;fill:#333} .value{font-family:DejaVu Sans,Verdana,Geneva,sans-serif;font-size:12px;fill:#555} </style>
<text x="10" y="20" class="label">延迟柱状图（越低越好，Top 15），单位 ms</text>
<text x="10" y="46" class="label">eaassets-a.akamaihd.net</text>
<rect x="180" y="30" width="279.52" height="22" fill="#4c78a8" rx="3"/>
<text x="467.52" y="46" class="value">135.57</text>
<text x="10" y="78" class="label">ubisoft.com</text>
<rect x="180" y="62" width="314.65" height="22" fill="#4c78a8" rx="3"/>
<text x="502.65" y="78" class="value">152.61</text>
<text x="10" y="110" class="label">steamcdn-a.akamaihd.net</text>
<rect x="180" y="94" width="329.12" height="22" fill="#4c78a8" rx="3"/>
<text x="517.12" y="110" class="value">159.63</text>
<text x="10" y="142" class="label">ea.com</text>
<rect x="180" y="126" width="359.06" height="22" fill="#4c78a8" rx="3"/>
<text x="547.06" y="142" class="value">174.15</text>
<text x="10" y="174" class="label">origin.com</text>
<rect x="180" y="158" width="377.84" height="22" fill="#4c78a8" rx="3"/>
<text x="565.8399999999999" y="174" class="value">183.26</text>
<text x="10" y="206" class="label">cdn.akamai.steamstatic.com</text>
<rect x="180" y="190" width="382.89" height="22" fill="#4c78a8" rx="3"/>
<text x="570.89" y="206" class="value">185.71</text>
<text x="10" y="238" class="label">battle.net</text>
<rect x="180" y="222" width="386.91" height="22" fill="#4c78a8" rx="3"/>
<text x="574.9100000000001" y="238" class="value">187.66</text>
<text x="10" y="270" class="label">rockstargames.com</text>
<rect x="180" y="254" width="403.08" height="22" fill="#4c78a8" rx="3"/>
<text x="591.0799999999999" y="270" class="value">195.50</text>
<text x="10" y="302" class="label">ubi.com</text>
<rect x="180" y="286" width="443.12" height="22" fill="#4c78a8" rx="3"/>
<text x="631.12" y="302" class="value">214.92</text>
<text x="10" y="334" class="label">socialclub.rockstargames.com</text>
<rect x="180" y="318" width="547.42" height="22" fill="#4c78a8" rx="3"/>
<text x="735.42" y="334" class="value">265.51</text>
<text x="10" y="366" class="label">store.akamai.steamstatic.com</text>
<rect x="180" y="350" width="564.83" height="22" fill="#4c78a8" rx="3"/>
<text x="752.83" y="366" class="value">273.95</text>
<text x="10" y="398" class="label">api.steampowered.com</text>
<rect x="180" y="382" width="569.96" height="22" fill="#4c78a8" rx="3"/>
<text x="757.96" y="398" class="value">276.44</text>
<text x="10" y="430" class="label">steam-chat.com</text>
<rect x="180" y="414" width="571.67" height="22" fill="#4c78a8" rx="3"/>
<text x="759.67" y="430" class="value">277.27</text>
<text x="10" y="462" class="label">easyanticheat.net</text>
<rect x="180" y="446" width="572.72" height="22" fill="#4c78a8" rx="3"/>
<text x="760.72" y="462" class="value">277.78</text>
<text x="10" y="494" class="label">www.steamcommunity.com</text>
<rect x="180" y="478" width="580.0" height="22" fill="#4c78a8" rx="3"/>
<text x="768.0" y="494" class="value">281.31</text>
<line x1="180" y1="30" x2="180" y2="520" stroke="#ccc"/>
<line x1="180" y1="520" x2="760" y2="520" stroke="#ccc"/>
</svg>