<svg xmlns="http://www.w3.org/2000/svg" width="800" height="540">
<style> .label{font-family:DejaVu Sans,Verdana,Geneva,sans-serif;font-size:12px;fill:#333} .value{font-family:DejaVu Sans,Verdana,Geneva,sans-serif;font-size:12px;fill:#555} </style>
<text x="10" y="20" class="label">延迟柱状图（越低越好，Top 15），单位 ms</text>
<text x="10" y="46" class="label">community.akamai.steamstatic.com</text>
<rect x="180" y="30" width="234.95" height="22" fill="#4c78a8" rx="3"/>
<text x="422.95" y="46" class="value">98.81</text>
<text x="10" y="78" class="label">eaassets-a.akamaihd.net</text>
<rect x="180" y="62" width="331.9" height="22" fill="#4c78a8" rx="3"/>
<text x="519.9" y="78" class="value">139.58</text>
<text x="10" y="110" class="label">rockstargames.com</text>
<rect x="180" y="94" width="335.25" height="22" fill="#4c78a8" rx="3"/>
<text x="523.25" y="110" class="value">140.99</text>
<text x="10" y="142" class="label">cdn.akamai.steamstatic.com</text>
<rect x="180" y="126" width="358.84" height="22" fill="#4c78a8" rx="3"/>
<text x="546.8399999999999" y="142" class="value">150.91</text>
<text x="10" y="174" class="label">ea.com</text>
<rect x="180" y="158" width="413.29" height="22" fill="#4c78a8" rx="3"/>
<text x="601.29" y="174" class="value">173.81</text>
<text x="10" y="206" class="label">blizzard.com</text>
<rect x="180" y="190" width="416.9" height="22" fill="#4c78a8" rx="3"/>
<text x="604.9" y="206" class="value">175.33</text>
<text x="10" y="238" class="label">steamcdn-a.akamaihd.net</text>
<rect x="180" y="222" width="432.19" height="22" fill="#4c78a8" rx="3"/>
<text x="620.19" y="238" class="value">181.76</text>
<text x="10" y="270" class="label">easyanticheat.net</text>
<rect x="180" y="254" width="433.45" height="22" fill="#4c78a8" rx="3"/>
<text x="621.45" y="270" class="value">182.29</text>
<text x="10" y="302" class="label">socialclub.rockstargames.com</text>
<rect x="180" y="286" width="436.05" height="22" fill="#4c78a8" rx="3"/>
<text x="624.05" y="302" class="value">183.38</text>
<text x="10" y="334" class="label">ubi.com</text>
<rect x="180" y="318" width="447.15" height="22" fill="#4c78a8" rx="3"/>
<text x="635.15" y="334" class="value">188.05</text>
<text x="10" y="366" class="label">battle.net</text>
<rect x="180" y="350" width="457.71" height="22" fill="#4c78a8" rx="3"/>
<text x="645.71" y="366" class="value">192.49</text>
<text x="10" y="398" class="label">static3.cdn.ubi.com</text>
<rect x="180" y="382" width="491.76" height="22" fill="#4c78a8" rx="3"/>
<text x="679.76" y="398" class="value">206.81</text>
<text x="10" y="430" class="label">store.akamai.steamstatic.com</text>
<rect x="180" y="414" width="510.64" height="22" fill="#4c78a8" rx="3"/>
<text x="698.64" y="430" class="value">214.75</text>
<text x="10" y="462" class="label">cdn.cloudflare.steamstatic.com</text>
<rect x="180" y="446" width="522.69" height="22" fill="#4c78a8" rx="3"/>
<text x="710.69" y="462" class="value">219.82</text>
<text x="10" y="494" class="label">origin.com</text>
<rect x="180" y="478" width="580.0" height="22" fill="#4c78a8" rx="3"/>
<text x="768.0" y="494" class="value">243.92</text>
<line x1="180" y1="30" x2="180" y2="520" stroke="#ccc"/>
<line x1="180" y1="520" x2="760" y2="520" stroke="#ccc"/>
</svg>