<svg xmlns="http://www.w3.org/2000/svg" width="800" height="540">
<style> .label{font-family:DejaVu Sans,Verdana,Geneva,sans-serif;font-size:12px;fill:#333} .value{font-family:DejaVu Sans,Verdana,Geneva,sans-serif;font-size:12px;fill:#555} </style>
<text x="10" y="20" class="label">延迟柱状图（越低越好，Top 15），单位 ms</text>
<text x="10" y="46" class="label">ea.com</text>
<rect x="180" y="30" width="88.48" height="22" fill="#4c78a8" rx="3"/>
<text x="276.48" y="46" class="value">43.42</text>
<text x="10" y="78" class="label">rockstargames.com</text>
<rect x="180" y="62" width="97.47" height="22" fill="#4c78a8" rx="3"/>
<text x="285.47" y="78" class="value">47.83</text>
<text x="10" y="110" class="label">eaassets-a.akamaihd.net</text>
<rect x="180" y="94" width="137.23" height="22" fill="#4c78a8" rx="3"/>
<text x="325.23" y="110" class="value">67.34</text>
<text x="10" y="142" class="label">ubisoft.com</text>
<rect x="180" y="126" width="188.13" height="22" fill="#4c78a8" rx="3"/>
<text x="376.13" y="142" class="value">92.32</text>
<text x="10" y="174" class="label">easyanticheat.net</text>
<rect x="180" y="158" width="317.65" height="22" fill="#4c78a8" rx="3"/>
<text x="505.65" y="174" class="value">155.88</text>
<text x="10" y="206" class="label">cdn.akamai.steamstatic.com</text>
<rect x="180" y="190" width="320.06" height="22" fill="#4c78a8" rx="3"/>
<text x="508.06" y="206" class="value">157.06</text>
<text x="10" y="238" class="label">store.akamai.steamstatic.com</text>
<rect x="180" y="222" width="352.17" height="22" fill="#4c78a8" rx="3"/>
<text x="540.1700000000001" y="238" class="value">172.82</text>
<text x="10" y="270" class="label">origin.com</text>
<rect x="180" y="254" width="353.42" height="22" fill="#4c78a8" rx="3"/>
<text x="541.4200000000001" y="270" class="value">173.43</text>
<text x="10" y="302" class="label">community.akamai.steamstatic.com</text>
<rect x="180" y="286" width="380.54" height="22" fill="#4c78a8" rx="3"/>
<text x="568.54" y="302" class="value">186.74</text>
<text x="10" y="334" class="label">steam-chat.com</text>
<rect x="180" y="318" width="477.78" height="22" fill="#4c78a8" rx="3"/>
<text x="665.78" y="334" class="value">234.46</text>
<text x="10" y="366" class="label">steamcdn-a.akamaihd.net</text>
<rect x="180" y="350" width="488.4" height="22" fill="#4c78a8" rx="3"/>
<text x="676.4" y="366" class="value">239.67</text>
<text x="10" y="398" class="label">cdn.cloudflare.steamstatic.com</text>
<rect x="180" y="382" width="536.72" height="22" fill="#4c78a8" rx="3"/>
<text x="724.72" y="398" class="value">263.38</text>
<text x="10" y="430" class="label">api.steampowered.com</text>
<rect x="180" y="414" width="541.12" height="22" fill="#4c78a8" rx="3"/>
<text x="729.12" y="430" class="value">265.54</text>
<text x="10" y="462" class="label">steamcommunity.com</text>
<rect x="180" y="446" width="551.45" height="22" fill="#4c78a8" rx="3"/>
<text x="739.45" y="462" class="value">270.61</text>
<text x="10" y="494" class="label">www.steamcommunity.com</text>
<rect x="180" y="478" width="580.0" height="22" fill="#4c78a8" rx="3"/>
<text x="768.0" y="494" class="value">284.62</text>
<line x1="180" y1="30" x2="180" y2="520" stroke="#ccc"/>
<line x1="180" y1="520" x2="760" y2="520" stroke="#ccc"/>
</svg>