<svg xmlns="http://www.w3.org/2000/svg" width="800" height="540">
<style> .label{font-family:DejaVu Sans,Verdana,Geneva,sans-serif;font-size:12px;fill:#333} .value{font-family:DejaVu Sans,Verdana,Geneva,sans-serif;font-size:12px;fill:#555} </style>
<text x="10" y="20" class="label">延迟柱状图（越低越好，Top 15），单位 ms</text>
<text x="10" y="46" class="label">rockstargames.com</text>
<rect x="180" y="30" width="146.38" height="22" fill="#4c78a8" rx="3"/>
<text x="334.38" y="46" class="value">55.81</text>
<text x="10" y="78" class="label">fortnite.com</text>
<rect x="180" y="62" width="188.89" height="22" fill="#4c78a8" rx="3"/>
<text x="376.89" y="78" class="value">72.02</text>
<text x="10" y="110" class="label">eaassets-a.akamaihd.net</text>
<rect x="180" y="94" width="222.62" height="22" fill="#4c78a8" rx="3"/>
<text x="410.62" y="110" class="value">84.88</text>
<text x="10" y="142" class="label">socialclub.rockstargames.com</text>
<rect x="180" y="126" width="244.13" height="22" fill="#4c78a8" rx="3"/>
<text x="432.13" y="142" class="value">93.08</text>
<text x="10" y="174" class="label">ea.com</text>
<rect x="180" y="158" width="276.94" height="22" fill="#4c78a8" rx="3"/>
<text x="464.94" y="174" class="value">105.59</text>
<text x="10" y="206" class="label">battle.net</text>
<rect x="180" y="190" width="292.49" height="22" fill="#4c78a8" rx="3"/>
<text x="480.49" y="206" class="value">111.52</text>
<text x="10" y="238" class="label">blizzard.com</text>
<rect x="180" y="222" width="303.77" height="22" fill="#4c78a8" rx="3"/>
<text x="491.77" y="238" class="value">115.82</text>
<text x="10" y="270" class="label">ubi.com</text>
<rect x="180" y="254" width="315.91" height="22" fill="#4c78a8" rx="3"/>
<text x="503.91" y="270" class="value">120.45</text>
<text x="10" y="302" class="label">epicgames.com</text>
<rect x="180" y="286" width="389.77" height="22" fill="#4c78a8" rx="3"/>
<text x="577.77" y="302" class="value">148.61</text>
<text x="10" y="334" class="label">ubisoft.com</text>
<rect x="180" y="318" width="400.24" height="22" fill="#4c78a8" rx="3"/>
<text x="588.24" y="334" class="value">152.60</text>
<text x="10" y="366" class="label">static3.cdn.ubi.com</text>
<rect x="180" y="350" width="434.57" height="22" fill="#4c78a8" rx="3"/>
<text x="622.5699999999999" y="366" class="value">165.69</text>
<text x="10" y="398" class="label">store.akamai.steamstatic.com</text>
<rect x="180" y="382" width="514.64" height="22" fill="#4c78a8" rx="3"/>
<text x="702.64" y="398" class="value">196.22</text>
<text x="10" y="430" class="label">unrealengine.com</text>
<rect x="180" y="414" width="556.03" height="22" fill="#4c78a8" rx="3"/>
<text x="744.03" y="430" class="value">212.00</text>
<text x="10" y="462" class="label">cdn.akamai.steamstatic.com</text>
<rect x="180" y="446" width="576.22" height="22" fill="#4c78a8" rx="3"/>
<text x="764.22" y="462" class="value">219.70</text>
<text x="10" y="494" class="label">steamcdn-a.akamaihd.net</text>
<rect x="180" y="478" width="580.0" height="22" fill="#4c78a8" rx="3"/>
<text x="768.0" y="494" class="value">221.14</text>
<line x1="180" y1="30" x2="180" y2="520" stroke="#ccc"/>
<line x1="180" y1="520" x2="760" y2="520" stroke="#ccc"/>
</svg>