<svg xmlns="http://www.w3.org/2000/svg" width="800" height="540">
<style> .label{font-family:DejaVu Sans,Verdana,Geneva,sans-serif;font-size:12px;fill:#333} .value{font-family:DejaVu Sans,Verdana,Geneva,sans-serif;font-size:12px;fill:#555} </style>
<text x="10" y="20" class="label">延迟柱状图（越低越好，Top 15），单位 ms</text>
<text x="10" y="46" class="label">eaassets-a.akamaihd.net</text>
<rect x="180" y="30" width="90.85" height="22" fill="#4c78a8" rx="3"/>
<text x="278.85" y="46" class="value">46.68</text>
<text x="10" y="78" class="label">ea.com</text>
<rect x="180" y="62" width="95.21" height="22" fill="#4c78a8" rx="3"/>
<text x="283.21" y="78" class="value">48.92</text>
<text x="10" y="110" class="label">rockstargames.com</text>
<rect x="180" y="94" width="95.76" height="22" fill="#4c78a8" rx="3"/>
<text x="283.76" y="110" class="value">49.20</text>
<text x="10" y="142" class="label">store.akamai.steamstatic.com</text>
<rect x="180" y="126" width="228.5" height="22" fill="#4c78a8" rx="3"/>
<text x="416.5" y="142" class="value">117.40</text>
<text x="10" y="174" class="label">ubisoft.com</text>
<rect x="180" y="158" width="238.07" height="22" fill="#4c78a8" rx="3"/>
<text x="426.07" y="174" class="value">122.32</text>
<text x="10" y="206" class="label">steamcdn-a.akamaihd.net</text>
<rect x="180" y="190" width="273.61" height="22" fill="#4c78a8" rx="3"/>
<text x="461.61" y="206" class="value">140.58</text>
<text x="10" y="238" class="label">cdn.cloudflare.steamstatic.com</text>
<rect x="180" y="222" width="303.94" height="22" fill="#4c78a8" rx="3"/>
<text x="491.94" y="238" class="value">156.16</text>
<text x="10" y="270" class="label">cdn.akamai.steamstatic.com</text>
<rect x="180" y="254" width="361.45" height="22" fill="#4c78a8" rx="3"/>
<text x="549.45" y="270" class="value">185.71</text>
<text x="10" y="302" class="label">community.akamai.steamstatic.com</text>
<rect x="180" y="286" width="410.94" height="22" fill="#4c78a8" rx="3"/>
<text x="598.94" y="302" class="value">211.14</text>
<text x="10" y="334" class="label">origin.com</text>
<rect x="180" y="318" width="426.2" height="22" fill="#4c78a8" rx="3"/>
<text x="614.2" y="334" class="value">218.98</text>
<text x="10" y="366" class="label">easyanticheat.net</text>
<rect x="180" y="350" width="474.9" height="22" fill="#4c78a8" rx="3"/>
<text x="662.9" y="366" class="value">244.00</text>
<text x="10" y="398" class="label">www.steamcommunity.com</text>
<rect x="180" y="382" width="485.02" height="22" fill="#4c78a8" rx="3"/>
<text x="673.02" y="398" class="value">249.20</text>
<text x="10" y="430" class="label">api.steampowered.com</text>
<rect x="180" y="414" width="499.46" height="22" fill="#4c78a8" rx="3"/>
<text x="687.46" y="430" class="value">256.62</text>
<text x="10" y="462" class="label">steam-chat.com</text>
<rect x="180" y="446" width="522.04" height="22" fill="#4c78a8" rx="3"/>
<text x="710.04" y="462" class="value">268.22</text>
<text x="10" y="494" class="label">launcher-public-service-prod06.ol.epicgames.com</text>
<rect x="180" y="478" width="580.0" height="22" fill="#4c78a8" rx="3"/>
<text x="768.0" y="494" class="value">298.00</text>
<line x1="180" y1="30" x2="180" y2="520" stroke="#ccc"/>
<line x1="180" y1="520" x2="760" y2="520" stroke="#ccc"/>
</svg>