<svg xmlns="http://www.w3.org/2000/svg" width="800" height="540">
<style> .label{font-family:DejaVu Sans,Verdana,Geneva,sans-serif;font-size:12px;fill:#333} .value{font-family:DejaVu Sans,Verdana,Geneva,sans-serif;font-size:12px;fill:#555} </style>
<text x="10" y="20" class="label">延迟柱状图（越低越好，Top 15），单位 ms</text>
<text x="10" y="46" class="label">rockstargames.com</text>
<rect x="180" y="30" width="162.93" height="22" fill="#4c78a8" rx="3"/>
<text x="350.93" y="46" class="value">61.96</text>
<text x="10" y="78" class="label">eaassets-a.akamaihd.net</text>
<rect x="180" y="62" width="178.1" height="22" fill="#4c78a8" rx="3"/>
<text x="366.1" y="78" class="value">67.73</text>
<text x="10" y="110" class="label">socialclub.rockstargames.com</text>
<rect x="180" y="94" width="214.41" height="22" fill="#4c78a8" rx="3"/>
<text x="402.40999999999997" y="110" class="value">81.54</text>
<text x="10" y="142" class="label">battle.net</text>
<rect x="180" y="126" width="277.34" height="22" fill="#4c78a8" rx="3"/>
<text x="465.34" y="142" class="value">105.47</text>
<text x="10" y="174" class="label">blizzard.com</text>
<rect x="180" y="158" width="298.14" height="22" fill="#4c78a8" rx="3"/>
<text x="486.14" y="174" class="value">113.38</text>
<text x="10" y="206" class="label">ubi.com</text>
<rect x="180" y="190" width="304.32" height="22" fill="#4c78a8" rx="3"/>
<text x="492.32" y="206" class="value">115.73</text>
<text x="10" y="238" class="label">ea.com</text>
<rect x="180" y="222" width="324.88" height="22" fill="#4c78a8" rx="3"/>
<text x="512.88" y="238" class="value">123.55</text>
<text x="10" y="270" class="label">unrealengine.com</text>
<rect x="180" y="254" width="360.8" height="22" fill="#4c78a8" rx="3"/>
<text x="548.8" y="270" class="value">137.21</text>
<text x="10" y="302" class="label">cdn.akamai.steamstatic.com</text>
<rect x="180" y="286" width="423.78" height="22" fill="#4c78a8" rx="3"/>
<text x="611.78" y="302" class="value">161.16</text>
<text x="10" y="334" class="label">fortnite.com</text>
<rect x="180" y="318" width="458.41" height="22" fill="#4c78a8" rx="3"/>
<text x="646.4100000000001" y="334" class="value">174.33</text>
<text x="10" y="366" class="label">gog.com</text>
<rect x="180" y="350" width="499.64" height="22" fill="#4c78a8" rx="3"/>
<text x="687.64" y="366" class="value">190.01</text>
<text x="10" y="398" class="label">epicgames.com</text>
<rect x="180" y="382" width="511.79" height="22" fill="#4c78a8" rx="3"/>
<text x="699.79" y="398" class="value">194.63</text>
<text x="10" y="430" class="label">community.akamai.steamstatic.com</text>
<rect x="180" y="414" width="554.65" height="22" fill="#4c78a8" rx="3"/>
<text x="742.65" y="430" class="value">210.93</text>
<text x="10" y="462" class="label">easyanticheat.net</text>
<rect x="180" y="446" width="561.46" height="22" fill="#4c78a8" rx="3"/>
<text x="749.46" y="462" class="value">213.52</text>
<text x="10" y="494" class="label">store.akamai.steamstatic.com</text>
<rect x="180" y="478" width="580.0" height="22" fill="#4c78a8" rx="3"/>
<text x="768.0" y="494" class="value">220.57</text>
<line x1="180" y1="30" x2="180" y2="520" stroke="#ccc"/>
<line x1="180" y1="520" x2="760" y2="520" stroke="#ccc"/>
</svg>