<svg xmlns="http://www.w3.org/2000/svg" width="800" height="540">
<style> .label{font-family:DejaVu Sans,Verdana,Geneva,sans-serif;font-size:12px;fill:#333} .value{font-family:DejaVu Sans,Verdana,Geneva,sans-serif;font-size:12px;fill:#555} </style>
<text x="10" y="20" class="label">延迟柱状图（越低越好，Top 15），单位 ms</text>
<text x="10" y="46" class="label">rockstargames.com</text>
<rect x="180" y="30" width="177.45" height="22" fill="#4c78a8" rx="3"/>
<text x="365.45" y="46" class="value">66.29</text>
<text x="10" y="78" class="label">ea.com</text>
<rect x="180" y="62" width="228.55" height="22" fill="#4c78a8" rx="3"/>
<text x="416.55" y="78" class="value">85.38</text>
<text x="10" y="110" class="label">eaassets-a.akamaihd.net</text>
<rect x="180" y="94" width="241.67" height="22" fill="#4c78a8" rx="3"/>
<text x="429.66999999999996" y="110" class="value">90.28</text>
<text x="10" y="142" class="label">ubisoft.com</text>
<rect x="180" y="126" width="243.54" height="22" fill="#4c78a8" rx="3"/>
<text x="431.53999999999996" y="142" class="value">90.98</text>
<text x="10" y="174" class="label">socialclub.rockstargames.com</text>
<rect x="180" y="158" width="247.5" height="22" fill="#4c78a8" rx="3"/>
<text x="435.5" y="174" class="value">92.46</text>
<text x="10" y="206" class="label">community.akamai.steamstatic.com</text>
<rect x="180" y="190" width="261.02" height="22" fill="#4c78a8" rx="3"/>
<text x="449.02" y="206" class="value">97.51</text>
<text x="10" y="238" class="label">ubi.com</text>
<rect x="180" y="222" width="264.24" height="22" fill="#4c78a8" rx="3"/>
<text x="452.24" y="238" class="value">98.71</text>
<text x="10" y="270" class="label">battle.net</text>
<rect x="180" y="254" width="303.83" height="22" fill="#4c78a8" rx="3"/>
<text x="491.83" y="270" class="value">113.50</text>
<text x="10" y="302" class="label">blizzard.com</text>
<rect x="180" y="286" width="336.94" height="22" fill="#4c78a8" rx="3"/>
<text x="524.94" y="302" class="value">125.87</text>
<text x="10" y="334" class="label">launcher-public-service-prod06.ol.epicgames.com</text>
<rect x="180" y="318" width="481.06" height="22" fill="#4c78a8" rx="3"/>
<text x="669.06" y="334" class="value">179.71</text>
<text x="10" y="366" class="label">cdn.akamai.steamstatic.com</text>
<rect x="180" y="350" width="534.31" height="22" fill="#4c78a8" rx="3"/>
<text x="722.31" y="366" class="value">199.60</text>
<text x="10" y="398" class="label">store.akamai.steamstatic.com</text>
<rect x="180" y="382" width="551.41" height="22" fill="#4c78a8" rx="3"/>
<text x="739.41" y="398" class="value">205.99</text>
<text x="10" y="430" class="label">steamcdn-a.akamaihd.net</text>
<rect x="180" y="414" width="566.7" height="22" fill="#4c78a8" rx="3"/>
<text x="754.7" y="430" class="value">211.70</text>
<text x="10" y="462" class="label">epicgames.com</text>
<rect x="180" y="446" width="571.62" height="22" fill="#4c78a8" rx="3"/>
<text x="759.62" y="462" class="value">213.54</text>
<text x="10" y="494" class="label">fortnite.com</text>
<rect x="180" y="478" width="580.0" height="22" fill="#4c78a8" rx="3"/>
<text x="768.0" y="494" class="value">216.67</text>
<line x1="180" y1="30" x2="180" y2="520" stroke="#ccc"/>
<line x1="180" y1="520" x2="760" y2="520" stroke="#ccc"/>
</svg>