<svg xmlns="http://www.w3.org/2000/svg" width="800" height="540">
<style> .label{font-family:DejaVu Sans,Verdana,Geneva,sans-serif;font-size:12px;fill:#333} .value{font-family:DejaVu Sans,Verdana,Geneva,sans-serif;font-size:12px;fill:#555} </style>
<text x="10" y="20" class="label">延迟柱状图（越低越好，Top 15），单位 ms</text>
<text x="10" y="46" class="label">ea.com</text>
<rect x="180" y="30" width="242.36" height="22" fill="#4c78a8" rx="3"/>
<text x="430.36" y="46" class="value">83.89</text>
<text x="10" y="78" class="label">community.akamai.steamstatic.com</text>
<rect x="180" y="62" width="245.39" height="22" fill="#4c78a8" rx="3"/>
<text x="433.39" y="78" class="value">84.94</text>
<text x="10" y="110" class="label">eaassets-a.akamaihd.net</text>
<rect x="180" y="94" width="271.74" height="22" fill="#4c78a8" rx="3"/>
<text x="459.74" y="110" class="value">94.06</text>
<text x="10" y="142" class="label">rockstargames.com</text>
<rect x="180" y="126" width="273.97" height="22" fill="#4c78a8" rx="3"/>
<text x="461.97" y="142" class="value">94.83</text>
<text x="10" y="174" class="label">origin.com</text>
<rect x="180" y="158" width="286.39" height="22" fill="#4c78a8" rx="3"/>
<text x="474.39" y="174" class="value">99.13</text>
<text x="10" y="206" class="label">socialclub.rockstargames.com</text>
<rect x="180" y="190" width="365.61" height="22" fill="#4c78a8" rx="3"/>
<text x="553.61" y="206" class="value">126.55</text>
<text x="10" y="238" class="label">blizzard.com</text>
<rect x="180" y="222" width="406.02" height="22" fill="#4c78a8" rx="3"/>
<text x="594.02" y="238" class="value">140.54</text>
<text x="10" y="270" class="label">ubisoft.com</text>
<rect x="180" y="254" width="410.88" height="22" fill="#4c78a8" rx="3"/>
<text x="598.88" y="270" class="value">142.22</text>
<text x="10" y="302" class="label">battle.net</text>
<rect x="180" y="286" width="445.43" height="22" fill="#4c78a8" rx="3"/>
<text x="633.4300000000001" y="302" class="value">154.18</text>
<text x="10" y="334" class="label">ubi.com</text>
<rect x="180" y="318" width="472.7" height="22" fill="#4c78a8" rx="3"/>
<text x="660.7" y="334" class="value">163.62</text>
<text x="10" y="366" class="label">easyanticheat.net</text>
<rect x="180" y="350" width="491.51" height="22" fill="#4c78a8" rx="3"/>
<text x="679.51" y="366" class="value">170.13</text>
<text x="10" y="398" class="label">steam-chat.com</text>
<rect x="180" y="382" width="564.51" height="22" fill="#4c78a8" rx="3"/>
<text x="752.51" y="398" class="value">195.40</text>
<text x="10" y="430" class="label">store.akamai.steamstatic.com</text>
<rect x="180" y="414" width="567.72" height="22" fill="#4c78a8" rx="3"/>
<text x="755.72" y="430" class="value">196.51</text>
<text x="10" y="462" class="label">steamcdn-a.akamaihd.net</text>
<rect x="180" y="446" width="570.12" height="22" fill="#4c78a8" rx="3"/>
<text x="758.12" y="462" class="value">197.34</text>
<text x="10" y="494" class="label">static3.cdn.ubi.com</text>
<rect x="180" y="478" width="580.0" height="22" fill="#4c78a8" rx="3"/>
<text x="768.0" y="494" class="value">200.76</text>
<line x1="180" y1="30" x2="180" y2="520" stroke="#ccc"/>
<line x1="180" y1="520" x2="760" y2="520" stroke="#ccc"/>
</svg>