<svg xmlns="http://www.w3.org/2000/svg" width="800" height="540">
<style> .label{font-family:DejaVu Sans,Verdana,Geneva,sans-serif;font-size:12px;fill:#333} .value{font-family:DejaVu Sans,Verdana,Geneva,sans-serif;font-size:12px;fill:#555} </style>
<text x="10" y="20" class="label">延迟柱状图（越低越好，Top 15），单位 ms</text>
<text x="10" y="46" class="label">rockstargames.com</text>
<rect x="180" y="30" width="352.18" height="22" fill="#4c78a8" rx="3"/>
<text x="540.1800000000001" y="46" class="value">133.66</text>
<text x="10" y="78" class="label">eaassets-a.akamaihd.net</text>
<rect x="180" y="62" width="360.91" height="22" fill="#4c78a8" rx="3"/>
<text x="548.9100000000001" y="78" class="value">136.97</text>
<text x="10" y="110" class="label">store.akamai.steamstatic.com</text>
<rect x="180" y="94" width="371.92" height="22" fill="#4c78a8" rx="3"/>
<text x="559.9200000000001" y="110" class="value">141.15</text>
<text x="10" y="142" class="label">blizzard.com</text>
<rect x="180" y="126" width="398.08" height="22" fill="#4c78a8" rx="3"/>
<text x="586.0799999999999" y="142" class="value">151.08</text>
<text x="10" y="174" class="label">steamcdn-a.akamaihd.net</text>
<rect x="180" y="158" width="422.91" height="22" fill="#4c78a8" rx="3"/>
<text x="610.9100000000001" y="174" class="value">160.50</text>
<text x="10" y="206" class="label">ubi.com</text>
<rect x="180" y="190" width="430.36" height="22" fill="#4c78a8" rx="3"/>
<text x="618.36" y="206" class="value">163.33</text>
<text x="10" y="238" class="label">battle.net</text>
<rect x="180" y="222" width="439.01" height="22" fill="#4c78a8" rx="3"/>
<text x="627.01" y="238" class="value">166.61</text>
<text x="10" y="270" class="label">easyanticheat.net</text>
<rect x="180" y="254" width="452.44" height="22" fill="#4c78a8" rx="3"/>
<text x="640.44" y="270" class="value">171.71</text>
<text x="10" y="302" class="label">ubisoft.com</text>
<rect x="180" y="286" width="461.64" height="22" fill="#4c78a8" rx="3"/>
<text x="649.64" y="302" class="value">175.20</text>
<text x="10" y="334" class="label">community.akamai.steamstatic.com</text>
<rect x="180" y="318" width="468.6" height="22" fill="#4c78a8" rx="3"/>
<text x="656.6" y="334" class="value">177.84</text>
<text x="10" y="366" class="label">ea.com</text>
<rect x="180" y="350" width="502.24" height="22" fill="#4c78a8" rx="3"/>
<text x="690.24" y="366" class="value">190.61</text>
<text x="10" y="398" class="label">socialclub.rockstargames.com</text>
<rect x="180" y="382" width="522.32" height="22" fill="#4c78a8" rx="3"/>
<text x="710.32" y="398" class="value">198.23</text>
<text x="10" y="430" class="label">www.steamcommunity.com</text>
<rect x="180" y="414" width="528.36" height="22" fill="#4c78a8" rx="3"/>
<text x="716.36" y="430" class="value">200.52</text>
<text x="10" y="462" class="label">cdn.cloudflare.steamstatic.com</text>
<rect x="180" y="446" width="563.61" height="22" fill="#4c78a8" rx="3"/>
<text x="751.61" y="462" class="value">213.90</text>
<text x="10" y="494" class="label">fortnite.com</text>
<rect x="180" y="478" width="580.0" height="22" fill="#4c78a8" rx="3"/>
<text x="768.0" y="494" class="value">220.12</text>
<line x1="180" y1="30" x2="180" y2="520" stroke="#ccc"/>
<line x1="180" y1="520" x2="760" y2="520" stroke="#ccc"/>
</svg>