<svg xmlns="http://www.w3.org/2000/svg" width="800" height="540">
<style> .label{font-family:DejaVu Sans,Verdana,Geneva,sans-serif;font-size:12px;fill:#333} .value{font-family:DejaVu Sans,Verdana,Geneva,sans-serif;font-size:12px;fill:#555} </style>
<text x="10" y="20" class="label">延迟柱状图（越低越好，Top 15），单位 ms</text>
<text x="10" y="46" class="label">eaassets-a.akamaihd.net</text>
<rect x="180" y="30" width="180.61" height="22" fill="#4c78a8" rx="3"/>
<text x="368.61" y="46" class="value">65.49</text>
<text x="10" y="78" class="label">rockstargames.com</text>
<rect x="180" y="62" width="185.99" height="22" fill="#4c78a8" rx="3"/>
<text x="373.99" y="78" class="value">67.44</text>
<text x="10" y="110" class="label">socialclub.rockstargames.com</text>
<rect x="180" y="94" width="242.47" height="22" fill="#4c78a8" rx="3"/>
<text x="430.47" y="110" class="value">87.92</text>
<text x="10" y="142" class="label">ubisoft.com</text>
<rect x="180" y="126" width="296.61" height="22" fill="#4c78a8" rx="3"/>
<text x="484.61" y="142" class="value">107.55</text>
<text x="10" y="174" class="label">blizzard.com</text>
<rect x="180" y="158" width="313.48" height="22" fill="#4c78a8" rx="3"/>
<text x="501.48" y="174" class="value">113.67</text>
<text x="10" y="206" class="label">community.akamai.steamstatic.com</text>
<rect x="180" y="190" width="313.84" height="22" fill="#4c78a8" rx="3"/>
<text x="501.84" y="206" class="value">113.80</text>
<text x="10" y="238" class="label">epicgames.com</text>
<rect x="180" y="222" width="323.94" height="22" fill="#4c78a8" rx="3"/>
<text x="511.94" y="238" class="value">117.46</text>
<text x="10" y="270" class="label">battle.net</text>
<rect x="180" y="254" width="333.37" height="22" fill="#4c78a8" rx="3"/>
<text x="521.37" y="270" class="value">120.88</text>
<text x="10" y="302" class="label">unrealengine.com</text>
<rect x="180" y="286" width="375.34" height="22" fill="#4c78a8" rx="3"/>
<text x="563.3399999999999" y="302" class="value">136.10</text>
<text x="10" y="334" class="label">ubi.com</text>
<rect x="180" y="318" width="429.31" height="22" fill="#4c78a8" rx="3"/>
<text x="617.31" y="334" class="value">155.67</text>
<text x="10" y="366" class="label">ea.com</text>
<rect x="180" y="350" width="474.02" height="22" fill="#4c78a8" rx="3"/>
<text x="662.02" y="366" class="value">171.88</text>
<text x="10" y="398" class="label">fortnite.com</text>
<rect x="180" y="382" width="516.18" height="22" fill="#4c78a8" rx="3"/>
<text x="704.18" y="398" class="value">187.17</text>
<text x="10" y="430" class="label">origin.com</text>
<rect x="180" y="414" width="518.97" height="22" fill="#4c78a8" rx="3"/>
<text x="706.97" y="430" class="value">188.18</text>
<text x="10" y="462" class="label">cdn.cloudflare.steamstatic.com</text>
<rect x="180" y="446" width="558.32" height="22" fill="#4c78a8" rx="3"/>
<text x="746.32" y="462" class="value">202.45</text>
<text x="10" y="494" class="label">store.akamai.steamstatic.com</text>
<rect x="180" y="478" width="580.0" height="22" fill="#4c78a8" rx="3"/>
<text x="768.0" y="494" class="value">210.31</text>
<line x1="180" y1="30" x2="180" y2="520" stroke="#ccc"/>
<line x1="180" y1="520" x2="760" y2="520" stroke="#ccc"/>
</svg>