<svg xmlns="http://www.w3.org/2000/svg" width="800" height="540">
<style> .label{font-family:DejaVu Sans,Verdana,Geneva,sans-serif;font-size:12px;fill:#333} .value{font-family:DejaVu Sans,Verdana,Geneva,sans-serif;font-size:12px;fill:#555} </style>
<text x="10" y="20" class="label">延迟柱状图（越低越好，Top 15），单位 ms</text>
<text x="10" y="46" class="label">community.akamai.steamstatic.com</text>
<rect x="180" y="30" width="366.91" height="22" fill="#4c78a8" rx="3"/>
<text x="554.9100000000001" y="46" class="value">128.19</text>
<text x="10" y="78" class="label">rockstargames.com</text>
<rect x="180" y="62" width="405.15" height="22" fill="#4c78a8" rx="3"/>
<text x="593.15" y="78" class="value">141.55</text>
<text x="10" y="110" class="label">easyanticheat.net</text>
<rect x="180" y="94" width="420.63" height="22" fill="#4c78a8" rx="3"/>
<text x="608.63" y="110" class="value">146.96</text>
<text x="10" y="142" class="label">blizzard.com</text>
<rect x="180" y="126" width="435.37" height="22" fill="#4c78a8" rx="3"/>
<text x="623.37" y="142" class="value">152.11</text>
<text x="10" y="174" class="label">battle.net</text>
<rect x="180" y="158" width="440.92" height="22" fill="#4c78a8" rx="3"/>
<text x="628.9200000000001" y="174" class="value">154.05</text>
<text x="10" y="206" class="label">eaassets-a.akamaihd.net</text>
<rect x="180" y="190" width="451.46" height="22" fill="#4c78a8" rx="3"/>
<text x="639.46" y="206" class="value">157.73</text>
<text x="10" y="238" class="label">store.akamai.steamstatic.com</text>
<rect x="180" y="222" width="456.38" height="22" fill="#4c78a8" rx="3"/>
<text x="644.38" y="238" class="value">159.45</text>
<text x="10" y="270" class="label">ubi.com</text>
<rect x="180" y="254" width="457.41" height="22" fill="#4c78a8" rx="3"/>
<text x="645.4100000000001" y="270" class="value">159.81</text>
<text x="10" y="302" class="label">ea.com</text>
<rect x="180" y="286" width="507.13" height="22" fill="#4c78a8" rx="3"/>
<text x="695.13" y="302" class="value">177.18</text>
<text x="10" y="334" class="label">cdn.cloudflare.steamstatic.com</text>
<rect x="180" y="318" width="520.21" height="22" fill="#4c78a8" rx="3"/>
<text x="708.21" y="334" class="value">181.75</text>
<text x="10" y="366" class="label">socialclub.rockstargames.com</text>
<rect x="180" y="350" width="528.97" height="22" fill="#4c78a8" rx="3"/>
<text x="716.97" y="366" class="value">184.81</text>
<text x="10" y="398" class="label">api.steampowered.com</text>
<rect x="180" y="382" width="552.75" height="22" fill="#4c78a8" rx="3"/>
<text x="740.75" y="398" class="value">193.12</text>
<text x="10" y="430" class="label">unrealengine.com</text>
<rect x="180" y="414" width="562.74" height="22" fill="#4c78a8" rx="3"/>
<text x="750.74" y="430" class="value">196.61</text>
<text x="10" y="462" class="label">www.steamcommunity.com</text>
<rect x="180" y="446" width="564.29" height="22" fill="#4c78a8" rx="3"/>
<text x="752.29" y="462" class="value">197.15</text>
<text x="10" y="494" class="label">static3.cdn.ubi.com</text>
<rect x="180" y="478" width="580.0" height="22" fill="#4c78a8" rx="3"/>
<text x="768.0" y="494" class="value">202.64</text>
<line x1="180" y1="30" x2="180" y2="520" stroke="#ccc"/>
<line x1="180" y1="520" x2="760" y2="520" stroke="#ccc"/>
</svg>