<svg xmlns="http://www.w3.org/2000/svg" width="800" height="540">
<style> .label{font-family:DejaVu Sans,Verdana,Geneva,sans-serif;font-size:12px;fill:#333} .value{font-family:DejaVu Sans,Verdana,Geneva,sans-serif;font-size:12px;fill:#555} </style>
<text x="10" y="20" class="label">延迟柱状图（越低越好，Top 15），单位 ms</text>
<text x="10" y="46" class="label">eaassets-a.akamaihd.net</text>
<rect x="180" y="30" width="153.79" height="22" fill="#4c78a8" rx="3"/>
<text x="341.78999999999996" y="46" class="value">53.21</text>
<text x="10" y="78" class="label">ea.com</text>
<rect x="180" y="62" width="281.75" height="22" fill="#4c78a8" rx="3"/>
<text x="469.75" y="78" class="value">97.48</text>
<text x="10" y="110" class="label">origin.com</text>
<rect x="180" y="94" width="288.74" height="22" fill="#4c78a8" rx="3"/>
<text x="476.74" y="110" class="value">99.90</text>
<text x="10" y="142" class="label">rockstargames.com</text>
<rect x="180" y="126" width="295.74" height="22" fill="#4c78a8" rx="3"/>
<text x="483.74" y="142" class="value">102.32</text>
<text x="10" y="174" class="label">blizzard.com</text>
<rect x="180" y="158" width="355.65" height="22" fill="#4c78a8" rx="3"/>
<text x="543.65" y="174" class="value">123.05</text>
<text x="10" y="206" class="label">socialclub.rockstargames.com</text>
<rect x="180" y="190" width="395.28" height="22" fill="#4c78a8" rx="3"/>
<text x="583.28" y="206" class="value">136.76</text>
<text x="10" y="238" class="label">battle.net</text>
<rect x="180" y="222" width="418.78" height="22" fill="#4c78a8" rx="3"/>
<text x="606.78" y="238" class="value">144.89</text>
<text x="10" y="270" class="label">ubi.com</text>
<rect x="180" y="254" width="444.04" height="22" fill="#4c78a8" rx="3"/>
<text x="632.04" y="270" class="value">153.63</text>
<text x="10" y="302" class="label">cdn.akamai.steamstatic.com</text>
<rect x="180" y="286" width="445.11" height="22" fill="#4c78a8" rx="3"/>
<text x="633.11" y="302" class="value">154.00</text>
<text x="10" y="334" class="label">easyanticheat.net</text>
<rect x="180" y="318" width="480.89" height="22" fill="#4c78a8" rx="3"/>
<text x="668.89" y="334" class="value">166.38</text>
<text x="10" y="366" class="label">store.akamai.steamstatic.com</text>
<rect x="180" y="350" width="486.09" height="22" fill="#4c78a8" rx="3"/>
<text x="674.0899999999999" y="366" class="value">168.18</text>
<text x="10" y="398" class="label">steamcdn-a.akamaihd.net</text>
<rect x="180" y="382" width="504.85" height="22" fill="#4c78a8" rx="3"/>
<text x="692.85" y="398" class="value">174.67</text>
<text x="10" y="430" class="label">ubisoft.com</text>
<rect x="180" y="414" width="530.66" height="22" fill="#4c78a8" rx="3"/>
<text x="718.66" y="430" class="value">183.60</text>
<text x="10" y="462" class="label">community.akamai.steamstatic.com</text>
<rect x="180" y="446" width="574.31" height="22" fill="#4c78a8" rx="3"/>
<text x="762.31" y="462" class="value">198.70</text>
<text x="10" y="494" class="label">cdn.cloudflare.steamstatic.com</text>
<rect x="180" y="478" width="580.0" height="22" fill="#4c78a8" rx="3"/>
<text x="768.0" y="494" class="value">200.67</text>
<line x1="180" y1="30" x2="180" y2="520" stroke="#ccc"/>
<line x1="180" y1="520" x2="760" y2="520" stroke="#ccc"/>
</svg>