<svg xmlns="http://www.w3.org/2000/svg" width="800" height="540">
<style> .label{font-family:DejaVu Sans,Verdana,Geneva,sans-serif;font-size:12px;fill:#333} .value{font-family:DejaVu Sans,Verdana,Geneva,sans-serif;font-size:12px;fill:#555} </style>
<text x="10" y="20" class="label">延迟柱状图（越低越好，Top 15），单位 ms</text>
<text x="10" y="46" class="label">rockstargames.com</text>
<rect x="180" y="30" width="292.95" height="22" fill="#4c78a8" rx="3"/>
<text x="480.95" y="46" class="value">108.29</text>
<text x="10" y="78" class="label">ea.com</text>
<rect x="180" y="62" width="337.42" height="22" fill="#4c78a8" rx="3"/>
<text x="525.4200000000001" y="78" class="value">124.73</text>
<text x="10" y="110" class="label">eaassets-a.akamaihd.net</text>
<rect x="180" y="94" width="338.07" height="22" fill="#4c78a8" rx="3"/>
<text x="526.0699999999999" y="110" class="value">124.97</text>
<text x="10" y="142" class="label">ubisoft.com</text>
<rect x="180" y="126" width="439.9" height="22" fill="#4c78a8" rx="3"/>
<text x="627.9" y="142" class="value">162.61</text>
<text x="10" y="174" class="label">steamcdn-a.akamaihd.net</text>
<rect x="180" y="158" width="447.82" height="22" fill="#4c78a8" rx="3"/>
<text x="635.8199999999999" y="174" class="value">165.54</text>
<text x="10" y="206" class="label">store.akamai.steamstatic.com</text>
<rect x="180" y="190" width="462.49" height="22" fill="#4c78a8" rx="3"/>
<text x="650.49" y="206" class="value">170.96</text>
<text x="10" y="238" class="label">blizzard.com</text>
<rect x="180" y="222" width="466.89" height="22" fill="#4c78a8" rx="3"/>
<text x="654.89" y="238" class="value">172.59</text>
<text x="10" y="270" class="label">battle.net</text>
<rect x="180" y="254" width="472.09" height="22" fill="#4c78a8" rx="3"/>
<text x="660.0899999999999" y="270" class="value">174.51</text>
<text x="10" y="302" class="label">ubi.com</text>
<rect x="180" y="286" width="479.77" height="22" fill="#4c78a8" rx="3"/>
<text x="667.77" y="302" class="value">177.35</text>
<text x="10" y="334" class="label">easyanticheat.net</text>
<rect x="180" y="318" width="492.08" height="22" fill="#4c78a8" rx="3"/>
<text x="680.0799999999999" y="334" class="value">181.90</text>
<text x="10" y="366" class="label">cdn.akamai.steamstatic.com</text>
<rect x="180" y="350" width="500.17" height="22" fill="#4c78a8" rx="3"/>
<text x="688.1700000000001" y="366" class="value">184.89</text>
<text x="10" y="398" class="label">fortnite.com</text>
<rect x="180" y="382" width="528.22" height="22" fill="#4c78a8" rx="3"/>
<text x="716.22" y="398" class="value">195.26</text>
<text x="10" y="430" class="label">origin.com</text>
<rect x="180" y="414" width="548.4" height="22" fill="#4c78a8" rx="3"/>
<text x="736.4" y="430" class="value">202.72</text>
<text x="10" y="462" class="label">www.steamcommunity.com</text>
<rect x="180" y="446" width="569.15" height="22" fill="#4c78a8" rx="3"/>
<text x="757.15" y="462" class="value">210.39</text>
<text x="10" y="494" class="label">community.akamai.steamstatic.com</text>
<rect x="180" y="478" width="580.0" height="22" fill="#4c78a8" rx="3"/>
<text x="768.0" y="494" class="value">214.40</text>
<line x1="180" y1="30" x2="180" y2="520" stroke="#ccc"/>
<line x1="180" y1="520" x2="760" y2="520" stroke="#ccc"/>
</svg>