<svg xmlns="http://www.w3.org/2000/svg" width="800" height="540">
<style> .label{font-family:DejaVu Sans,Verdana,Geneva,sans-serif;font-size:12px;fill:#333} .value{font-family:DejaVu Sans,Verdana,Geneva,sans-serif;font-size:12px;fill:#555} </style>
<text x="10" y="20" class="label">延迟柱状图（越低越好，Top 15），单位 ms</text>
<text x="10" y="46" class="label">eaassets-a.akamaihd.net</text>
<rect x="180" y="30" width="268.35" height="22" fill="#4c78a8" rx="3"/>
<text x="456.35" y="46" class="value">118.98</text>
<text x="10" y="78" class="label">rockstargames.com</text>
<rect x="180" y="62" width="322.59" height="22" fill="#4c78a8" rx="3"/>
<text x="510.59" y="78" class="value">143.03</text>
<text x="10" y="110" class="label">ea.com</text>
<rect x="180" y="94" width="336.06" height="22" fill="#4c78a8" rx="3"/>
<text x="524.06" y="110" class="value">149.00</text>
<text x="10" y="142" class="label">steamcdn-a.akamaihd.net</text>
<rect x="180" y="126" width="375.93" height="22" fill="#4c78a8" rx="3"/>
<text x="563.9300000000001" y="142" class="value">166.68</text>
<text x="10" y="174" class="label">store.akamai.steamstatic.com</text>
<rect x="180" y="158" width="400.49" height="22" fill="#4c78a8" rx="3"/>
<text x="588.49" y="174" class="value">177.57</text>
<text x="10" y="206" class="label">cdn.akamai.steamstatic.com</text>
<rect x="180" y="190" width="418.51" height="22" fill="#4c78a8" rx="3"/>
<text x="606.51" y="206" class="value">185.56</text>
<text x="10" y="238" class="label">origin.com</text>
<rect x="180" y="222" width="431.28" height="22" fill="#4c78a8" rx="3"/>
<text x="619.28" y="238" class="value">191.22</text>
<text x="10" y="270" class="label">ubi.com</text>
<rect x="180" y="254" width="478.55" height="22" fill="#4c78a8" rx="3"/>
<text x="666.55" y="270" class="value">212.18</text>
<text x="10" y="302" class="label">ubisoft.com</text>
<rect x="180" y="286" width="535.05" height="22" fill="#4c78a8" rx="3"/>
<text x="723.05" y="302" class="value">237.23</text>
<text x="10" y="334" class="label">blizzard.com</text>
<rect x="180" y="318" width="544.82" height="22" fill="#4c78a8" rx="3"/>
<text x="732.82" y="334" class="value">241.56</text>
<text x="10" y="366" class="label">steam-chat.com</text>
<rect x="180" y="350" width="555.3" height="22" fill="#4c78a8" rx="3"/>
<text x="743.3" y="366" class="value">246.21</text>
<text x="10" y="398" class="label">battle.net</text>
<rect x="180" y="382" width="561.21" height="22" fill="#4c78a8" rx="3"/>
<text x="749.21" y="398" class="value">248.83</text>
<text x="10" y="430" class="label">community.akamai.steamstatic.com</text>
<rect x="180" y="414" width="562.61" height="22" fill="#4c78a8" rx="3"/>
<text x="750.61" y="430" class="value">249.45</text>
<text x="10" y="462" class="label">launcher-public-service-prod06.ol.epicgames.com</text>
<rect x="180" y="446" width="576.08" height="22" fill="#4c78a8" rx="3"/>
<text x="764.08" y="462" class="value">255.42</text>
<text x="10" y="494" class="label">fortnite.com</text>
<rect x="180" y="478" width="580.0" height="22" fill="#4c78a8" rx="3"/>
<text x="768.0" y="494" class="value">257.16</text>
<line x1="180" y1="30" x2="180" y2="520" stroke="#ccc"/>
<line x1="180" y1="520" x2="760" y2="520" stroke="#ccc"/>
</svg>