<svg xmlns="http://www.w3.org/2000/svg" width="800" height="540">
<style> .label{font-family:DejaVu Sans,Verdana,Geneva,sans-serif;font-size:12px;fill:#333} .value{font-family:DejaVu Sans,Verdana,Geneva,sans-serif;font-size:12px;fill:#555} </style>
<text x="10" y="20" class="label">延迟柱状图（越低越好，Top 15），单位 ms</text>
<text x="10" y="46" class="label">eaassets-a.akamaihd.net</text>
<rect x="180" y="30" width="115.62" height="22" fill="#4c78a8" rx="3"/>
<text x="303.62" y="46" class="value">48.90</text>
<text x="10" y="78" class="label">rockstargames.com</text>
<rect x="180" y="62" width="134.08" height="22" fill="#4c78a8" rx="3"/>
<text x="322.08000000000004" y="78" class="value">56.71</text>
<text x="10" y="110" class="label">store.akamai.steamstatic.com</text>
<rect x="180" y="94" width="212.53" height="22" fill="#4c78a8" rx="3"/>
<text x="400.53" y="110" class="value">89.89</text>
<text x="10" y="142" class="label">ea.com</text>
<rect x="180" y="126" width="253.65" height="22" fill="#4c78a8" rx="3"/>
<text x="441.65" y="142" class="value">107.28</text>
<text x="10" y="174" class="label">steamcdn-a.akamaihd.net</text>
<rect x="180" y="158" width="264.0" height="22" fill="#4c78a8" rx="3"/>
<text x="452.0" y="174" class="value">111.66</text>
<text x="10" y="206" class="label">origin.com</text>
<rect x="180" y="190" width="274.08" height="22" fill="#4c78a8" rx="3"/>
<text x="462.08" y="206" class="value">115.92</text>
<text x="10" y="238" class="label">blizzard.com</text>
<rect x="180" y="222" width="286.21" height="22" fill="#4c78a8" rx="3"/>
<text x="474.21" y="238" class="value">121.05</text>
<text x="10" y="270" class="label">socialclub.rockstargames.com</text>
<rect x="180" y="254" width="296.09" height="22" fill="#4c78a8" rx="3"/>
<text x="484.09" y="270" class="value">125.23</text>
<text x="10" y="302" class="label">ubisoft.com</text>
<rect x="180" y="286" width="299.54" height="22" fill="#4c78a8" rx="3"/>
<text x="487.54" y="302" class="value">126.69</text>
<text x="10" y="334" class="label">cdn.akamai.steamstatic.com</text>
<rect x="180" y="318" width="324.32" height="22" fill="#4c78a8" rx="3"/>
<text x="512.3199999999999" y="334" class="value">137.17</text>
<text x="10" y="366" class="label">battle.net</text>
<rect x="180" y="350" width="331.6" height="22" fill="#4c78a8" rx="3"/>
<text x="519.6" y="366" class="value">140.25</text>
<text x="10" y="398" class="label">ubi.com</text>
<rect x="180" y="382" width="332.19" height="22" fill="#4c78a8" rx="3"/>
<text x="520.19" y="398" class="value">140.50</text>
<text x="10" y="430" class="label">static3.cdn.ubi.com</text>
<rect x="180" y="414" width="350.75" height="22" fill="#4c78a8" rx="3"/>
<text x="538.75" y="430" class="value">148.35</text>
<text x="10" y="462" class="label">api.steampowered.com</text>
<rect x="180" y="446" width="431.07" height="22" fill="#4c78a8" rx="3"/>
<text x="619.0699999999999" y="462" class="value">182.32</text>
<text x="10" y="494" class="label">cdn.cloudflare.steamstatic.com</text>
<rect x="180" y="478" width="580.0" height="22" fill="#4c78a8" rx="3"/>
<text x="768.0" y="494" class="value">245.31</text>
<line x1="180" y1="30" x2="180" y2="520" stroke="#ccc"/>
<line x1="180" y1="520" x2="760" y2="520" stroke="#ccc"/>
</svg>