<svg xmlns="http://www.w3.org/2000/svg" width="800" height="540">
<style> .label{font-family:DejaVu Sans,Verdana,Geneva,sans-serif;font-size:12px;fill:#333} .value{font-family:DejaVu Sans,Verdana,Geneva,sans-serif;font-size:12px;fill:#555} </style>
<text x="10" y="20" class="label">延迟柱状图（越低越好，Top 15），单位 ms</text>
<text x="10" y="46" class="label">eaassets-a.akamaihd.net</text>
<rect x="180" y="30" width="212.5" height="22" fill="#4c78a8" rx="3"/>
<text x="400.5" y="46" class="value">86.32</text>
<text x="10" y="78" class="label">rockstargames.com</text>
<rect x="180" y="62" width="240.89" height="22" fill="#4c78a8" rx="3"/>
<text x="428.89" y="78" class="value">97.85</text>
<text x="10" y="110" class="label">cdn.akamai.steamstatic.com</text>
<rect x="180" y="94" width="268.34" height="22" fill="#4c78a8" rx="3"/>
<text x="456.34" y="110" class="value">109.00</text>
<text x="10" y="142" class="label">ea.com</text>
<rect x="180" y="126" width="343.3" height="22" fill="#4c78a8" rx="3"/>
<text x="531.3" y="142" class="value">139.45</text>
<text x="10" y="174" class="label">ubi.com</text>
<rect x="180" y="158" width="347.31" height="22" fill="#4c78a8" rx="3"/>
<text x="535.31" y="174" class="value">141.08</text>
<text x="10" y="206" class="label">static3.cdn.ubi.com</text>
<rect x="180" y="190" width="354.03" height="22" fill="#4c78a8" rx="3"/>
<text x="542.03" y="206" class="value">143.81</text>
<text x="10" y="238" class="label">battle.net</text>
<rect x="180" y="222" width="370.72" height="22" fill="#4c78a8" rx="3"/>
<text x="558.72" y="238" class="value">150.59</text>
<text x="10" y="270" class="label">blizzard.com</text>
<rect x="180" y="254" width="386.4" height="22" fill="#4c78a8" rx="3"/>
<text x="574.4" y="270" class="value">156.96</text>
<text x="10" y="302" class="label">socialclub.rockstargames.com</text>
<rect x="180" y="286" width="394.01" height="22" fill="#4c78a8" rx="3"/>
<text x="582.01" y="302" class="value">160.05</text>
<text x="10" y="334" class="label">ubisoft.com</text>
<rect x="180" y="318" width="413.83" height="22" fill="#4c78a8" rx="3"/>
<text x="601.8299999999999" y="334" class="value">168.10</text>
<text x="10" y="366" class="label">community.akamai.steamstatic.com</text>
<rect x="180" y="350" width="431.06" height="22" fill="#4c78a8" rx="3"/>
<text x="619.06" y="366" class="value">175.10</text>
<text x="10" y="398" class="label">cdn.cloudflare.steamstatic.com</text>
<rect x="180" y="382" width="475.47" height="22" fill="#4c78a8" rx="3"/>
<text x="663.47" y="398" class="value">193.14</text>
<text x="10" y="430" class="label">steamcommunity.com</text>
<rect x="180" y="414" width="495.86" height="22" fill="#4c78a8" rx="3"/>
<text x="683.86" y="430" class="value">201.42</text>
<text x="10" y="462" class="label">easyanticheat.net</text>
<rect x="180" y="446" width="577.64" height="22" fill="#4c78a8" rx="3"/>
<text x="765.64" y="462" class="value">234.64</text>
<text x="10" y="494" class="label">store.akamai.steamstatic.com</text>
<rect x="180" y="478" width="580.0" height="22" fill="#4c78a8" rx="3"/>
<text x="768.0" y="494" class="value">235.60</text>
<line x1="180" y1="30" x2="180" y2="520" stroke="#ccc"/>
<line x1="180" y1="520" x2="760" y2="520" stroke="#ccc"/>
</svg>