<svg xmlns="http://www.w3.org/2000/svg" width="800" height="540">
<style> .label{font-family:DejaVu Sans,Verdana,Geneva,sans-serif;font-size:12px;fill:#333} .value{font-family:DejaVu Sans,Verdana,Geneva,sans-serif;font-size:12px;fill:#555} </style>
<text x="10" y="20" class="label">延迟柱状图（越低越好，Top 15），单位 ms</text>
<text x="10" y="46" class="label">rockstargames.com</text>
<rect x="180" y="30" width="158.18" height="22" fill="#4c78a8" rx="3"/>
<text x="346.18" y="46" class="value">59.85</text>
<text x="10" y="78" class="label">socialclub.rockstargames.com</text>
<rect x="180" y="62" width="165.9" height="22" fill="#4c78a8" rx="3"/>
<text x="353.9" y="78" class="value">62.77</text>
<text x="10" y="110" class="label">unrealengine.com</text>
<rect x="180" y="94" width="200.26" height="22" fill="#4c78a8" rx="3"/>
<text x="388.26" y="110" class="value">75.77</text>
<text x="10" y="142" class="label">ea.com</text>
<rect x="180" y="126" width="223.94" height="22" fill="#4c78a8" rx="3"/>
<text x="411.94" y="142" class="value">84.73</text>
<text x="10" y="174" class="label">ubi.com</text>
<rect x="180" y="158" width="235.12" height="22" fill="#4c78a8" rx="3"/>
<text x="423.12" y="174" class="value">88.96</text>
<text x="10" y="206" class="label">blizzard.com</text>
<rect x="180" y="190" width="275.53" height="22" fill="#4c78a8" rx="3"/>
<text x="463.53" y="206" class="value">104.25</text>
<text x="10" y="238" class="label">eaassets-a.akamaihd.net</text>
<rect x="180" y="222" width="308.06" height="22" fill="#4c78a8" rx="3"/>
<text x="496.06" y="238" class="value">116.56</text>
<text x="10" y="270" class="label">epicgames.com</text>
<rect x="180" y="254" width="320.49" height="22" fill="#4c78a8" rx="3"/>
<text x="508.49" y="270" class="value">121.26</text>
<text x="10" y="302" class="label">battle.net</text>
<rect x="180" y="286" width="333.28" height="22" fill="#4c78a8" rx="3"/>
<text x="521.28" y="302" class="value">126.10</text>
<text x="10" y="334" class="label">ubisoft.com</text>
<rect x="180" y="318" width="405.7" height="22" fill="#4c78a8" rx="3"/>
<text x="593.7" y="334" class="value">153.50</text>
<text x="10" y="366" class="label">steamcdn-a.akamaihd.net</text>
<rect x="180" y="350" width="420.55" height="22" fill="#4c78a8" rx="3"/>
<text x="608.55" y="366" class="value">159.12</text>
<text x="10" y="398" class="label">fortnite.com</text>
<rect x="180" y="382" width="505.57" height="22" fill="#4c78a8" rx="3"/>
<text x="693.5699999999999" y="398" class="value">191.29</text>
<text x="10" y="430" class="label">origin.com</text>
<rect x="180" y="414" width="515.54" height="22" fill="#4c78a8" rx="3"/>
<text x="703.54" y="430" class="value">195.06</text>
<text x="10" y="462" class="label">launcher-public-service-prod06.ol.epicgames.com</text>
<rect x="180" y="446" width="556.98" height="22" fill="#4c78a8" rx="3"/>
<text x="744.98" y="462" class="value">210.74</text>
<text x="10" y="494" class="label">cdn.cloudflare.steamstatic.com</text>
<rect x="180" y="478" width="580.0" height="22" fill="#4c78a8" rx="3"/>
<text x="768.0" y="494" class="value">219.45</text>
<line x1="180" y1="30" x2="180" y2="520" stroke="#ccc"/>
<line x1="180" y1="520" x2="760" y2="520" stroke="#ccc"/>
</svg>