<svg xmlns="http://www.w3.org/2000/svg" width="800" height="540">
<style> .label{font-family:DejaVu Sans,Verdana,Geneva,sans-serif;font-size:12px;fill:#333} .value{font-family:DejaVu Sans,Verdana,Geneva,sans-serif;font-size:12px;fill:#555} </style>
<text x="10" y="20" class="label">延迟柱状图（越低越好，Top 15），单位 ms</text>
<text x="10" y="46" class="label">rockstargames.com</text>
<rect x="180" y="30" width="207.87" height="22" fill="#4c78a8" rx="3"/>
<text x="395.87" y="46" class="value">92.78</text>
<text x="10" y="78" class="label">store.akamai.steamstatic.com</text>
<rect x="180" y="62" width="220.02" height="22" fill="#4c78a8" rx="3"/>
<text x="408.02" y="78" class="value">98.20</text>
<text x="10" y="110" class="label">steamcdn-a.akamaihd.net</text>
<rect x="180" y="94" width="227.39" height="22" fill="#4c78a8" rx="3"/>
<text x="415.39" y="110" class="value">101.49</text>
<text x="10" y="142" class="label">eaassets-a.akamaihd.net</text>
<rect x="180" y="126" width="236.69" height="22" fill="#4c78a8" rx="3"/>
<text x="424.69" y="142" class="value">105.64</text>
<text x="10" y="174" class="label">ubisoft.com</text>
<rect x="180" y="158" width="246.25" height="22" fill="#4c78a8" rx="3"/>
<text x="434.25" y="174" class="value">109.91</text>
<text x="10" y="206" class="label">origin.com</text>
<rect x="180" y="190" width="288.24" height="22" fill="#4c78a8" rx="3"/>
<text x="476.24" y="206" class="value">128.65</text>
<text x="10" y="238" class="label">community.akamai.steamstatic.com</text>
<rect x="180" y="222" width="332.18" height="22" fill="#4c78a8" rx="3"/>
<text x="520.1800000000001" y="238" class="value">148.26</text>
<text x="10" y="270" class="label">easyanticheat.net</text>
<rect x="180" y="254" width="334.08" height="22" fill="#4c78a8" rx="3"/>
<text x="522.0799999999999" y="270" class="value">149.11</text>
<text x="10" y="302" class="label">cdn.akamai.steamstatic.com</text>
<rect x="180" y="286" width="349.45" height="22" fill="#4c78a8" rx="3"/>
<text x="537.45" y="302" class="value">155.97</text>
<text x="10" y="334" class="label">ea.com</text>
<rect x="180" y="318" width="364.62" height="22" fill="#4c78a8" rx="3"/>
<text x="552.62" y="334" class="value">162.74</text>
<text x="10" y="366" class="label">cdn.cloudflare.steamstatic.com</text>
<rect x="180" y="350" width="407.82" height="22" fill="#4c78a8" rx="3"/>
<text x="595.8199999999999" y="366" class="value">182.02</text>
<text x="10" y="398" class="label">api.steampowered.com</text>
<rect x="180" y="382" width="539.38" height="22" fill="#4c78a8" rx="3"/>
<text x="727.38" y="398" class="value">240.74</text>
<text x="10" y="430" class="label">launcher-public-service-prod06.ol.epicgames.com</text>
<rect x="180" y="414" width="542.09" height="22" fill="#4c78a8" rx="3"/>
<text x="730.09" y="430" class="value">241.95</text>
<text x="10" y="462" class="label">steam-chat.com</text>
<rect x="180" y="446" width="546.97" height="22" fill="#4c78a8" rx="3"/>
<text x="734.97" y="462" class="value">244.13</text>
<text x="10" y="494" class="label">ubi.com</text>
<rect x="180" y="478" width="580.0" height="22" fill="#4c78a8" rx="3"/>
<text x="768.0" y="494" class="value">258.87</text>
<line x1="180" y1="30" x2="180" y2="520" stroke="#ccc"/>
<line x1="180" y1="520" x2="760" y2="520" stroke="#ccc"/>
</svg>