<svg xmlns="http://www.w3.org/2000/svg" width="800" height="540">
<style> .label{font-family:DejaVu Sans,Verdana,Geneva,sans-serif;font-size:12px;fill:#333} .value{font-family:DejaVu Sans,Verdana,Geneva,sans-serif;font-size:12px;fill:#555} </style>
<text x="10" y="20" class="label">延迟柱状图（越低越好，Top 15），单位 ms</text>
<text x="10" y="46" class="label">eaassets-a.akamaihd.net</text>
<rect x="180" y="30" width="187.41" height="22" fill="#4c78a8" rx="3"/>
<text x="375.40999999999997" y="46" class="value">67.26</text>
<text x="10" y="78" class="label">socialclub.rockstargames.com</text>
<rect x="180" y="62" width="222.54" height="22" fill="#4c78a8" rx="3"/>
<text x="410.53999999999996" y="78" class="value">79.87</text>
<text x="10" y="110" class="label">blizzard.com</text>
<rect x="180" y="94" width="254.06" height="22" fill="#4c78a8" rx="3"/>
<text x="442.06" y="110" class="value">91.18</text>
<text x="10" y="142" class="label">battle.net</text>
<rect x="180" y="126" width="259.07" height="22" fill="#4c78a8" rx="3"/>
<text x="447.07" y="142" class="value">92.98</text>
<text x="10" y="174" class="label">rockstargames.com</text>
<rect x="180" y="158" width="262.16" height="22" fill="#4c78a8" rx="3"/>
<text x="450.16" y="174" class="value">94.09</text>
<text x="10" y="206" class="label">ubi.com</text>
<rect x="180" y="190" width="285.79" height="22" fill="#4c78a8" rx="3"/>
<text x="473.79" y="206" class="value">102.57</text>
<text x="10" y="238" class="label">epicgames.com</text>
<rect x="180" y="222" width="338.34" height="22" fill="#4c78a8" rx="3"/>
<text x="526.3399999999999" y="238" class="value">121.43</text>
<text x="10" y="270" class="label">ea.com</text>
<rect x="180" y="254" width="358.77" height="22" fill="#4c78a8" rx="3"/>
<text x="546.77" y="270" class="value">128.76</text>
<text x="10" y="302" class="label">store.akamai.steamstatic.com</text>
<rect x="180" y="286" width="417.39" height="22" fill="#4c78a8" rx="3"/>
<text x="605.39" y="302" class="value">149.80</text>
<text x="10" y="334" class="label">community.akamai.steamstatic.com</text>
<rect x="180" y="318" width="420.51" height="22" fill="#4c78a8" rx="3"/>
<text x="608.51" y="334" class="value">150.92</text>
<text x="10" y="366" class="label">unrealengine.com</text>
<rect x="180" y="350" width="445.23" height="22" fill="#4c78a8" rx="3"/>
<text x="633.23" y="366" class="value">159.79</text>
<text x="10" y="398" class="label">fortnite.com</text>
<rect x="180" y="382" width="527.65" height="22" fill="#4c78a8" rx="3"/>
<text x="715.65" y="398" class="value">189.37</text>
<text x="10" y="430" class="label">easyanticheat.net</text>
<rect x="180" y="414" width="547.62" height="22" fill="#4c78a8" rx="3"/>
<text x="735.62" y="430" class="value">196.54</text>
<text x="10" y="462" class="label">origin.com</text>
<rect x="180" y="446" width="558.94" height="22" fill="#4c78a8" rx="3"/>
<text x="746.94" y="462" class="value">200.60</text>
<text x="10" y="494" class="label">gog.com</text>
<rect x="180" y="478" width="580.0" height="22" fill="#4c78a8" rx="3"/>
<text x="768.0" y="494" class="value">208.16</text>
<line x1="180" y1="30" x2="180" y2="520" stroke="#ccc"/>
<line x1="180" y1="520" x2="760" y2="520" stroke="#ccc"/>
</svg>