<svg xmlns="http://www.w3.org/2000/svg" width="800" height="540">
<style> .label{font-family:DejaVu Sans,Verdana,Geneva,sans-serif;font-size:12px;fill:#333} .value{font-family:DejaVu Sans,Verdana,Geneva,sans-serif;font-size:12px;fill:#555} </style>
<text x="10" y="20" class="label">延迟柱状图（越低越好，Top 15），单位 ms</text>
<text x="10" y="46" class="label">eaassets-a.akamaihd.net</text>
<rect x="180" y="30" width="239.0" height="22" fill="#4c78a8" rx="3"/>
<text x="427.0" y="46" class="value">117.53</text>
<text x="10" y="78" class="label">rockstargames.com</text>
<rect x="180" y="62" width="253.64" height="22" fill="#4c78a8" rx="3"/>
<text x="441.64" y="78" class="value">124.73</text>
<text x="10" y="110" class="label">ea.com</text>
<rect x="180" y="94" width="337.4" height="22" fill="#4c78a8" rx="3"/>
<text x="525.4" y="110" class="value">165.92</text>
<text x="10" y="142" class="label">origin.com</text>
<rect x="180" y="126" width="342.2" height="22" fill="#4c78a8" rx="3"/>
<text x="530.2" y="142" class="value">168.28</text>
<text x="10" y="174" class="label">community.akamai.steamstatic.com</text>
<rect x="180" y="158" width="360.87" height="22" fill="#4c78a8" rx="3"/>
<text x="548.87" y="174" class="value">177.46</text>
<text x="10" y="206" class="label">cdn.cloudflare.steamstatic.com</text>
<rect x="180" y="190" width="363.13" height="22" fill="#4c78a8" rx="3"/>
<text x="551.13" y="206" class="value">178.57</text>
<text x="10" y="238" class="label">easyanticheat.net</text>
<rect x="180" y="222" width="393.32" height="22" fill="#4c78a8" rx="3"/>
<text x="581.3199999999999" y="238" class="value">193.42</text>
<text x="10" y="270" class="label">cdn.akamai.steamstatic.com</text>
<rect x="180" y="254" width="395.7" height="22" fill="#4c78a8" rx="3"/>
<text x="583.7" y="270" class="value">194.59</text>
<text x="10" y="302" class="label">api.steampowered.com</text>
<rect x="180" y="286" width="474.44" height="22" fill="#4c78a8" rx="3"/>
<text x="662.44" y="302" class="value">233.31</text>
<text x="10" y="334" class="label">ubi.com</text>
<rect x="180" y="318" width="478.14" height="22" fill="#4c78a8" rx="3"/>
<text x="666.14" y="334" class="value">235.13</text>
<text x="10" y="366" class="label">store.akamai.steamstatic.com</text>
<rect x="180" y="350" width="497.05" height="22" fill="#4c78a8" rx="3"/>
<text x="685.05" y="366" class="value">244.43</text>
<text x="10" y="398" class="label">steamcdn-a.akamaihd.net</text>
<rect x="180" y="382" width="510.05" height="22" fill="#4c78a8" rx="3"/>
<text x="698.05" y="398" class="value">250.82</text>
<text x="10" y="430" class="label">www.steamcommunity.com</text>
<rect x="180" y="414" width="514.76" height="22" fill="#4c78a8" rx="3"/>
<text x="702.76" y="430" class="value">253.14</text>
<text x="10" y="462" class="label">launcher-public-service-prod06.ol.epicgames.com</text>
<rect x="180" y="446" width="575.06" height="22" fill="#4c78a8" rx="3"/>
<text x="763.06" y="462" class="value">282.79</text>
<text x="10" y="494" class="label">steam-chat.com</text>
<rect x="180" y="478" width="580.0" height="22" fill="#4c78a8" rx="3"/>
<text x="768.0" y="494" class="value">285.22</text>
<line x1="180" y1="30" x2="180" y2="520" stroke="#ccc"/>
<line x1="180" y1="520" x2="760" y2="520" stroke="#ccc"/>
</svg>