<svg xmlns="http://www.w3.org/2000/svg" width="800" height="540">
<style> .label{font-family:DejaVu Sans,Verdana,Geneva,sans-serif;font-size:12px;fill:#333} .value{font-family:DejaVu Sans,Verdana,Geneva,sans-serif;font-size:12px;fill:#555} </style>
<text x="10" y="20" class="label">延迟柱状图（越低越好，Top 15），单位 ms</text>
<text x="10" y="46" class="label">rockstargames.com</text>
<rect x="180" y="30" width="197.91" height="22" fill="#4c78a8" rx="3"/>
<text x="385.90999999999997" y="46" class="value">75.05</text>
<text x="10" y="78" class="label">eaassets-a.akamaihd.net</text>
<rect x="180" y="62" width="218.3" height="22" fill="#4c78a8" rx="3"/>
<text x="406.3" y="78" class="value">82.78</text>
<text x="10" y="110" class="label">socialclub.rockstargames.com</text>
<rect x="180" y="94" width="221.81" height="22" fill="#4c78a8" rx="3"/>
<text x="409.81" y="110" class="value">84.11</text>
<text x="10" y="142" class="label">ubi.com</text>
<rect x="180" y="126" width="233.59" height="22" fill="#4c78a8" rx="3"/>
<text x="421.59000000000003" y="142" class="value">88.58</text>
<text x="10" y="174" class="label">battle.net</text>
<rect x="180" y="158" width="247.62" height="22" fill="#4c78a8" rx="3"/>
<text x="435.62" y="174" class="value">93.90</text>
<text x="10" y="206" class="label">blizzard.com</text>
<rect x="180" y="190" width="289.89" height="22" fill="#4c78a8" rx="3"/>
<text x="477.89" y="206" class="value">109.93</text>
<text x="10" y="238" class="label">cdn.cloudflare.steamstatic.com</text>
<rect x="180" y="222" width="346.57" height="22" fill="#4c78a8" rx="3"/>
<text x="534.5699999999999" y="238" class="value">131.42</text>
<text x="10" y="270" class="label">ubisoft.com</text>
<rect x="180" y="254" width="364.34" height="22" fill="#4c78a8" rx="3"/>
<text x="552.3399999999999" y="270" class="value">138.16</text>
<text x="10" y="302" class="label">static3.cdn.ubi.com</text>
<rect x="180" y="286" width="383.59" height="22" fill="#4c78a8" rx="3"/>
<text x="571.5899999999999" y="302" class="value">145.46</text>
<text x="10" y="334" class="label">ea.com</text>
<rect x="180" y="318" width="400.52" height="22" fill="#4c78a8" rx="3"/>
<text x="588.52" y="334" class="value">151.88</text>
<text x="10" y="366" class="label">epicgames.com</text>
<rect x="180" y="350" width="424.52" height="22" fill="#4c78a8" rx="3"/>
<text x="612.52" y="366" class="value">160.98</text>
<text x="10" y="398" class="label">unrealengine.com</text>
<rect x="180" y="382" width="492.05" height="22" fill="#4c78a8" rx="3"/>
<text x="680.05" y="398" class="value">186.59</text>
<text x="10" y="430" class="label">origin.com</text>
<rect x="180" y="414" width="497.3" height="22" fill="#4c78a8" rx="3"/>
<text x="685.3" y="430" class="value">188.58</text>
<text x="10" y="462" class="label">community.akamai.steamstatic.com</text>
<rect x="180" y="446" width="531.37" height="22" fill="#4c78a8" rx="3"/>
<text x="719.37" y="462" class="value">201.50</text>
<text x="10" y="494" class="label">fortnite.com</text>
<rect x="180" y="478" width="580.0" height="22" fill="#4c78a8" rx="3"/>
<text x="768.0" y="494" class="value">219.94</text>
<line x1="180" y1="30" x2="180" y2="520" stroke="#ccc"/>
<line x1="180" y1="520" x2="760" y2="520" stroke="#ccc"/>
</svg>