<svg xmlns="http://www.w3.org/2000/svg" width="800" height="540">
<style> .label{font-family:DejaVu Sans,Verdana,Geneva,sans-serif;font-size:12px;fill:#333} .value{font-family:DejaVu Sans,Verdana,Geneva,sans-serif;font-size:12px;fill:#555} </style>
<text x="10" y="20" class="label">延迟柱状图（越低越好，Top 15），单位 ms</text>
<text x="10" y="46" class="label">rockstargames.com</text>
<rect x="180" y="30" width="153.98" height="22" fill="#4c78a8" rx="3"/>
<text x="341.98" y="46" class="value">75.30</text>
<text x="10" y="78" class="label">ubisoft.com</text>
<rect x="180" y="62" width="204.02" height="22" fill="#4c78a8" rx="3"/>
<text x="392.02" y="78" class="value">99.77</text>
<text x="10" y="110" class="label">eaassets-a.akamaihd.net</text>
<rect x="180" y="94" width="244.16" height="22" fill="#4c78a8" rx="3"/>
<text x="432.15999999999997" y="110" class="value">119.40</text>
<text x="10" y="142" class="label">community.akamai.steamstatic.com</text>
<rect x="180" y="126" width="261.1" height="22" fill="#4c78a8" rx="3"/>
<text x="449.1" y="142" class="value">127.68</text>
<text x="10" y="174" class="label">ea.com</text>
<rect x="180" y="158" width="292.08" height="22" fill="#4c78a8" rx="3"/>
<text x="480.08" y="174" class="value">142.83</text>
<text x="10" y="206" class="label">store.akamai.steamstatic.com</text>
<rect x="180" y="190" width="310.44" height="22" fill="#4c78a8" rx="3"/>
<text x="498.44" y="206" class="value">151.81</text>
<text x="10" y="238" class="label">easyanticheat.net</text>
<rect x="180" y="222" width="311.91" height="22" fill="#4c78a8" rx="3"/>
<text x="499.91" y="238" class="value">152.53</text>
<text x="10" y="270" class="label">steamcdn-a.akamaihd.net</text>
<rect x="180" y="254" width="353.2" height="22" fill="#4c78a8" rx="3"/>
<text x="541.2" y="270" class="value">172.72</text>
<text x="10" y="302" class="label">origin.com</text>
<rect x="180" y="286" width="356.25" height="22" fill="#4c78a8" rx="3"/>
<text x="544.25" y="302" class="value">174.21</text>
<text x="10" y="334" class="label">cdn.akamai.steamstatic.com</text>
<rect x="180" y="318" width="369.03" height="22" fill="#4c78a8" rx="3"/>
<text x="557.03" y="334" class="value">180.46</text>
<text x="10" y="366" class="label">api.steampowered.com</text>
<rect x="180" y="350" width="485.28" height="22" fill="#4c78a8" rx="3"/>
<text x="673.28" y="366" class="value">237.31</text>
<text x="10" y="398" class="label">steam-chat.com</text>
<rect x="180" y="382" width="488.59" height="22" fill="#4c78a8" rx="3"/>
<text x="676.5899999999999" y="398" class="value">238.93</text>
<text x="10" y="430" class="label">launcher-public-service-prod06.ol.epicgames.com</text>
<rect x="180" y="414" width="501.0" height="22" fill="#4c78a8" rx="3"/>
<text x="689.0" y="430" class="value">245.00</text>
<text x="10" y="462" class="label">ubi.com</text>
<rect x="180" y="446" width="543.29" height="22" fill="#4c78a8" rx="3"/>
<text x="731.29" y="462" class="value">265.68</text>
<text x="10" y="494" class="label">epicgames.com</text>
<rect x="180" y="478" width="580.0" height="22" fill="#4c78a8" rx="3"/>
<text x="768.0" y="494" class="value">283.63</text>
<line x1="180" y1="30" x2="180" y2="520" stroke="#ccc"/>
<line x1="180" y1="520" x2="760" y2="520" stroke="#ccc"/>
</svg>