<svg xmlns="http://www.w3.org/2000/svg" width="800" height="540">
<style> .label{font-family:DejaVu Sans,Verdana,Geneva,sans-serif;font-size:12px;fill:#333} .value{font-family:DejaVu Sans,Verdana,Geneva,sans-serif;font-size:12px;fill:#555} </style>
<text x="10" y="20" class="label">延迟柱状图（越低越好，Top 15），单位 ms</text>
<text x="10" y="46" class="label">rockstargames.com</text>
<rect x="180" y="30" width="222.82" height="22" fill="#4c78a8" rx="3"/>
<text x="410.82" y="46" class="value">71.39</text>
<text x="10" y="78" class="label">socialclub.rockstargames.com</text>
<rect x="180" y="62" width="262.71" height="22" fill="#4c78a8" rx="3"/>
<text x="450.71" y="78" class="value">84.17</text>
<text x="10" y="110" class="label">unrealengine.com</text>
<rect x="180" y="94" width="274.19" height="22" fill="#4c78a8" rx="3"/>
<text x="462.19" y="110" class="value">87.85</text>
<text x="10" y="142" class="label">battle.net</text>
<rect x="180" y="126" width="359.74" height="22" fill="#4c78a8" rx="3"/>
<text x="547.74" y="142" class="value">115.26</text>
<text x="10" y="174" class="label">blizzard.com</text>
<rect x="180" y="158" width="387.21" height="22" fill="#4c78a8" rx="3"/>
<text x="575.21" y="174" class="value">124.06</text>
<text x="10" y="206" class="label">eaassets-a.akamaihd.net</text>
<rect x="180" y="190" width="388.42" height="22" fill="#4c78a8" rx="3"/>
<text x="576.4200000000001" y="206" class="value">124.45</text>
<text x="10" y="238" class="label">ubi.com</text>
<rect x="180" y="222" width="396.88" height="22" fill="#4c78a8" rx="3"/>
<text x="584.88" y="238" class="value">127.16</text>
<text x="10" y="270" class="label">ubisoft.com</text>
<rect x="180" y="254" width="418.64" height="22" fill="#4c78a8" rx="3"/>
<text x="606.64" y="270" class="value">134.13</text>
<text x="10" y="302" class="label">epicgames.com</text>
<rect x="180" y="286" width="425.82" height="22" fill="#4c78a8" rx="3"/>
<text x="613.8199999999999" y="302" class="value">136.43</text>
<text x="10" y="334" class="label">ea.com</text>
<rect x="180" y="318" width="486.62" height="22" fill="#4c78a8" rx="3"/>
<text x="674.62" y="334" class="value">155.91</text>
<text x="10" y="366" class="label">cdn.cloudflare.steamstatic.com</text>
<rect x="180" y="350" width="540.95" height="22" fill="#4c78a8" rx="3"/>
<text x="728.95" y="366" class="value">173.32</text>
<text x="10" y="398" class="label">static3.cdn.ubi.com</text>
<rect x="180" y="382" width="542.33" height="22" fill="#4c78a8" rx="3"/>
<text x="730.33" y="398" class="value">173.76</text>
<text x="10" y="430" class="label">origin.com</text>
<rect x="180" y="414" width="553.91" height="22" fill="#4c78a8" rx="3"/>
<text x="741.91" y="430" class="value">177.47</text>
<text x="10" y="462" class="label">fortnite.com</text>
<rect x="180" y="446" width="573.54" height="22" fill="#4c78a8" rx="3"/>
<text x="761.54" y="462" class="value">183.76</text>
<text x="10" y="494" class="label">store.akamai.steamstatic.com</text>
<rect x="180" y="478" width="580.0" height="22" fill="#4c78a8" rx="3"/>
<text x="768.0" y="494" class="value">185.83</text>
<line x1="180" y1="30" x2="180" y2="520" stroke="#ccc"/>
<line x1="180" y1="520" x2="760" y2="520" stroke="#ccc"/>
</svg>