<svg xmlns="http://www.w3.org/2000/svg" width="800" height="540">
<style> .label{font-family:DejaVu Sans,Verdana,Geneva,sans-serif;font-size:12px;fill:#333} .value{font-family:DejaVu Sans,Verdana,Geneva,sans-serif;font-size:12px;fill:#555} </style>
<text x="10" y="20" class="label">延迟柱状图（越低越好，Top 15），单位 ms</text>
<text x="10" y="46" class="label">rockstargames.com</text>
<rect x="180" y="30" width="129.74" height="22" fill="#4c78a8" rx="3"/>
<text x="317.74" y="46" class="value">45.33</text>
<text x="10" y="78" class="label">blizzard.com</text>
<rect x="180" y="62" width="215.9" height="22" fill="#4c78a8" rx="3"/>
<text x="403.9" y="78" class="value">75.43</text>
<text x="10" y="110" class="label">socialclub.rockstargames.com</text>
<rect x="180" y="94" width="223.28" height="22" fill="#4c78a8" rx="3"/>
<text x="411.28" y="110" class="value">78.01</text>
<text x="10" y="142" class="label">epicgames.com</text>
<rect x="180" y="126" width="233.84" height="22" fill="#4c78a8" rx="3"/>
<text x="421.84000000000003" y="142" class="value">81.70</text>
<text x="10" y="174" class="label">ubisoft.com</text>
<rect x="180" y="158" width="296.7" height="22" fill="#4c78a8" rx="3"/>
<text x="484.7" y="174" class="value">103.66</text>
<text x="10" y="206" class="label">battle.net</text>
<rect x="180" y="190" width="383.25" height="22" fill="#4c78a8" rx="3"/>
<text x="571.25" y="206" class="value">133.90</text>
<text x="10" y="238" class="label">unrealengine.com</text>
<rect x="180" y="222" width="414.51" height="22" fill="#4c78a8" rx="3"/>
<text x="602.51" y="238" class="value">144.82</text>
<text x="10" y="270" class="label">eaassets-a.akamaihd.net</text>
<rect x="180" y="254" width="421.92" height="22" fill="#4c78a8" rx="3"/>
<text x="609.9200000000001" y="270" class="value">147.41</text>
<text x="10" y="302" class="label">gog.com</text>
<rect x="180" y="286" width="425.04" height="22" fill="#4c78a8" rx="3"/>
<text x="613.04" y="302" class="value">148.50</text>
<text x="10" y="334" class="label">cdn.akamai.steamstatic.com</text>
<rect x="180" y="318" width="433.23" height="22" fill="#4c78a8" rx="3"/>
<text x="621.23" y="334" class="value">151.36</text>
<text x="10" y="366" class="label">static3.cdn.ubi.com</text>
<rect x="180" y="350" width="448.6" height="22" fill="#4c78a8" rx="3"/>
<text x="636.6" y="366" class="value">156.73</text>
<text x="10" y="398" class="label">ubi.com</text>
<rect x="180" y="382" width="460.56" height="22" fill="#4c78a8" rx="3"/>
<text x="648.56" y="398" class="value">160.91</text>
<text x="10" y="430" class="label">store.akamai.steamstatic.com</text>
<rect x="180" y="414" width="543.71" height="22" fill="#4c78a8" rx="3"/>
<text x="731.71" y="430" class="value">189.96</text>
<text x="10" y="462" class="label">steam-chat.com</text>
<rect x="180" y="446" width="565.72" height="22" fill="#4c78a8" rx="3"/>
<text x="753.72" y="462" class="value">197.65</text>
<text x="10" y="494" class="label">fortnite.com</text>
<rect x="180" y="478" width="580.0" height="22" fill="#4c78a8" rx="3"/>
<text x="768.0" y="494" class="value">202.64</text>
<line x1="180" y1="30" x2="180" y2="520" stroke="#ccc"/>
<line x1="180" y1="520" x2="760" y2="520" stroke="#ccc"/>
</svg>