<svg xmlns="http://www.w3.org/2000/svg" width="800" height="540">
<style> .label{font-family:DejaVu Sans,Verdana,Geneva,sans-serif;font-size:12px;fill:#333} .value{font-family:DejaVu Sans,Verdana,Geneva,sans-serif;font-size:12px;fill:#555} </style>
<text x="10" y="20" class="label">延迟柱状图（越低越好，Top 15），单位 ms</text>
<text x="10" y="46" class="label">rockstargames.com</text>
<rect x="180" y="30" width="177.65" height="22" fill="#4c78a8" rx="3"/>
<text x="365.65" y="46" class="value">59.66</text>
<text x="10" y="78" class="label">socialclub.rockstargames.com</text>
<rect x="180" y="62" width="208.35" height="22" fill="#4c78a8" rx="3"/>
<text x="396.35" y="78" class="value">69.97</text>
<text x="10" y="110" class="label">blizzard.com</text>
<rect x="180" y="94" width="244.35" height="22" fill="#4c78a8" rx="3"/>
<text x="432.35" y="110" class="value">82.06</text>
<text x="10" y="142" class="label">ubi.com</text>
<rect x="180" y="126" width="277.79" height="22" fill="#4c78a8" rx="3"/>
<text x="465.79" y="142" class="value">93.29</text>
<text x="10" y="174" class="label">battle.net</text>
<rect x="180" y="158" width="293.45" height="22" fill="#4c78a8" rx="3"/>
<text x="481.45" y="174" class="value">98.55</text>
<text x="10" y="206" class="label">ubisoft.com</text>
<rect x="180" y="190" width="307.12" height="22" fill="#4c78a8" rx="3"/>
<text x="495.12" y="206" class="value">103.14</text>
<text x="10" y="238" class="label">unrealengine.com</text>
<rect x="180" y="222" width="311.47" height="22" fill="#4c78a8" rx="3"/>
<text x="499.47" y="238" class="value">104.60</text>
<text x="10" y="270" class="label">fortnite.com</text>
<rect x="180" y="254" width="357.36" height="22" fill="#4c78a8" rx="3"/>
<text x="545.36" y="270" class="value">120.01</text>
<text x="10" y="302" class="label">eaassets-a.akamaihd.net</text>
<rect x="180" y="286" width="385.05" height="22" fill="#4c78a8" rx="3"/>
<text x="573.05" y="302" class="value">129.31</text>
<text x="10" y="334" class="label">origin.com</text>
<rect x="180" y="318" width="403.75" height="22" fill="#4c78a8" rx="3"/>
<text x="591.75" y="334" class="value">135.59</text>
<text x="10" y="366" class="label">epicgames.com</text>
<rect x="180" y="350" width="509.1" height="22" fill="#4c78a8" rx="3"/>
<text x="697.1" y="366" class="value">170.97</text>
<text x="10" y="398" class="label">store.akamai.steamstatic.com</text>
<rect x="180" y="382" width="515.03" height="22" fill="#4c78a8" rx="3"/>
<text x="703.03" y="398" class="value">172.96</text>
<text x="10" y="430" class="label">cdn.cloudflare.steamstatic.com</text>
<rect x="180" y="414" width="558.44" height="22" fill="#4c78a8" rx="3"/>
<text x="746.44" y="430" class="value">187.54</text>
<text x="10" y="462" class="label">steamcdn-a.akamaihd.net</text>
<rect x="180" y="446" width="571.96" height="22" fill="#4c78a8" rx="3"/>
<text x="759.96" y="462" class="value">192.08</text>
<text x="10" y="494" class="label">ea.com</text>
<rect x="180" y="478" width="580.0" height="22" fill="#4c78a8" rx="3"/>
<text x="768.0" y="494" class="value">194.78</text>
<line x1="180" y1="30" x2="180" y2="520" stroke="#ccc"/>
<line x1="180" y1="520" x2="760" y2="520" stroke="#ccc"/>
</svg>