<svg xmlns="http://www.w3.org/2000/svg" width="800" height="540">
<style> .label{font-family:DejaVu Sans,Verdana,Geneva,sans-serif;font-size:12px;fill:#333} .value{font-family:DejaVu Sans,Verdana,Geneva,sans-serif;font-size:12px;fill:#555} </style>
<text x="10" y="20" class="label">延迟柱状图（越低越好，Top 15），单位 ms</text>
<text x="10" y="46" class="label">rockstargames.com</text>
<rect x="180" y="30" width="135.89" height="22" fill="#4c78a8" rx="3"/>
<text x="323.89" y="46" class="value">48.25</text>
<text x="10" y="78" class="label">eaassets-a.akamaihd.net</text>
<rect x="180" y="62" width="220.52" height="22" fill="#4c78a8" rx="3"/>
<text x="408.52" y="78" class="value">78.30</text>
<text x="10" y="110" class="label">socialclub.rockstargames.com</text>
<rect x="180" y="94" width="253.75" height="22" fill="#4c78a8" rx="3"/>
<text x="441.75" y="110" class="value">90.10</text>
<text x="10" y="142" class="label">ubisoft.com</text>
<rect x="180" y="126" width="275.47" height="22" fill="#4c78a8" rx="3"/>
<text x="463.47" y="142" class="value">97.81</text>
<text x="10" y="174" class="label">blizzard.com</text>
<rect x="180" y="158" width="278.88" height="22" fill="#4c78a8" rx="3"/>
<text x="466.88" y="174" class="value">99.02</text>
<text x="10" y="206" class="label">ubi.com</text>
<rect x="180" y="190" width="311.8" height="22" fill="#4c78a8" rx="3"/>
<text x="499.8" y="206" class="value">110.71</text>
<text x="10" y="238" class="label">battle.net</text>
<rect x="180" y="222" width="330.05" height="22" fill="#4c78a8" rx="3"/>
<text x="518.05" y="238" class="value">117.19</text>
<text x="10" y="270" class="label">fortnite.com</text>
<rect x="180" y="254" width="334.1" height="22" fill="#4c78a8" rx="3"/>
<text x="522.1" y="270" class="value">118.63</text>
<text x="10" y="302" class="label">ea.com</text>
<rect x="180" y="286" width="346.89" height="22" fill="#4c78a8" rx="3"/>
<text x="534.89" y="302" class="value">123.17</text>
<text x="10" y="334" class="label">epicgames.com</text>
<rect x="180" y="318" width="414.0" height="22" fill="#4c78a8" rx="3"/>
<text x="602.0" y="334" class="value">147.00</text>
<text x="10" y="366" class="label">steamcdn-a.akamaihd.net</text>
<rect x="180" y="350" width="421.24" height="22" fill="#4c78a8" rx="3"/>
<text x="609.24" y="366" class="value">149.57</text>
<text x="10" y="398" class="label">community.akamai.steamstatic.com</text>
<rect x="180" y="382" width="492.89" height="22" fill="#4c78a8" rx="3"/>
<text x="680.89" y="398" class="value">175.01</text>
<text x="10" y="430" class="label">cdn.akamai.steamstatic.com</text>
<rect x="180" y="414" width="514.8" height="22" fill="#4c78a8" rx="3"/>
<text x="702.8" y="430" class="value">182.79</text>
<text x="10" y="462" class="label">gog.com</text>
<rect x="180" y="446" width="515.14" height="22" fill="#4c78a8" rx="3"/>
<text x="703.14" y="462" class="value">182.91</text>
<text x="10" y="494" class="label">origin.com</text>
<rect x="180" y="478" width="580.0" height="22" fill="#4c78a8" rx="3"/>
<text x="768.0" y="494" class="value">205.94</text>
<line x1="180" y1="30" x2="180" y2="520" stroke="#ccc"/>
<line x1="180" y1="520" x2="760" y2="520" stroke="#ccc"/>
</svg>