<svg xmlns="http://www.w3.org/2000/svg" width="800" height="540">
<style> .label{font-family:DejaVu Sans,Verdana,Geneva,sans-serif;font-size:12px;fill:#333} .value{font-family:DejaVu Sans,Verdana,Geneva,sans-serif;font-size:12px;fill:#555} </style>
<text x="10" y="20" class="label">延迟柱状图（越低越好，Top 15），单位 ms</text>
<text x="10" y="46" class="label">eaassets-a.akamaihd.net</text>
<rect x="180" y="30" width="139.17" height="22" fill="#4c78a8" rx="3"/>
<text x="327.16999999999996" y="46" class="value">53.37</text>
<text x="10" y="78" class="label">rockstargames.com</text>
<rect x="180" y="62" width="141.2" height="22" fill="#4c78a8" rx="3"/>
<text x="329.2" y="78" class="value">54.15</text>
<text x="10" y="110" class="label">battle.net</text>
<rect x="180" y="94" width="230.69" height="22" fill="#4c78a8" rx="3"/>
<text x="418.69" y="110" class="value">88.47</text>
<text x="10" y="142" class="label">unrealengine.com</text>
<rect x="180" y="126" width="234.37" height="22" fill="#4c78a8" rx="3"/>
<text x="422.37" y="142" class="value">89.88</text>
<text x="10" y="174" class="label">blizzard.com</text>
<rect x="180" y="158" width="262.32" height="22" fill="#4c78a8" rx="3"/>
<text x="450.32" y="174" class="value">100.60</text>
<text x="10" y="206" class="label">ubisoft.com</text>
<rect x="180" y="190" width="284.12" height="22" fill="#4c78a8" rx="3"/>
<text x="472.12" y="206" class="value">108.96</text>
<text x="10" y="238" class="label">ubi.com</text>
<rect x="180" y="222" width="302.45" height="22" fill="#4c78a8" rx="3"/>
<text x="490.45" y="238" class="value">115.99</text>
<text x="10" y="270" class="label">socialclub.rockstargames.com</text>
<rect x="180" y="254" width="314.65" height="22" fill="#4c78a8" rx="3"/>
<text x="502.65" y="270" class="value">120.67</text>
<text x="10" y="302" class="label">ea.com</text>
<rect x="180" y="286" width="315.67" height="22" fill="#4c78a8" rx="3"/>
<text x="503.67" y="302" class="value">121.06</text>
<text x="10" y="334" class="label">epicgames.com</text>
<rect x="180" y="318" width="343.68" height="22" fill="#4c78a8" rx="3"/>
<text x="531.6800000000001" y="334" class="value">131.80</text>
<text x="10" y="366" class="label">fortnite.com</text>
<rect x="180" y="350" width="394.03" height="22" fill="#4c78a8" rx="3"/>
<text x="582.03" y="366" class="value">151.11</text>
<text x="10" y="398" class="label">cdn.cloudflare.steamstatic.com</text>
<rect x="180" y="382" width="491.24" height="22" fill="#4c78a8" rx="3"/>
<text x="679.24" y="398" class="value">188.39</text>
<text x="10" y="430" class="label">steamcdn-a.akamaihd.net</text>
<rect x="180" y="414" width="549.83" height="22" fill="#4c78a8" rx="3"/>
<text x="737.83" y="430" class="value">210.86</text>
<text x="10" y="462" class="label">origin.com</text>
<rect x="180" y="446" width="566.1" height="22" fill="#4c78a8" rx="3"/>
<text x="754.1" y="462" class="value">217.10</text>
<text x="10" y="494" class="label">store.akamai.steamstatic.com</text>
<rect x="180" y="478" width="580.0" height="22" fill="#4c78a8" rx="3"/>
<text x="768.0" y="494" class="value">222.43</text>
<line x1="180" y1="30" x2="180" y2="520" stroke="#ccc"/>
<line x1="180" y1="520" x2="760" y2="520" stroke="#ccc"/>
</svg>