<svg xmlns="http://www.w3.org/2000/svg" width="800" height="540">
<style> .label{font-family:DejaVu Sans,Verdana,Geneva,sans-serif;font-size:12px;fill:#333} .value{font-family:DejaVu Sans,Verdana,Geneva,sans-serif;font-size:12px;fill:#555} </style>
<text x="10" y="20" class="label">延迟柱状图（越低越好，Top 15），单位 ms</text>
<text x="10" y="46" class="label">eaassets-a.akamaihd.net</text>
<rect x="180" y="30" width="263.13" height="22" fill="#4c78a8" rx="3"/>
<text x="451.13" y="46" class="value">127.09</text>
<text x="10" y="78" class="label">ea.com</text>
<rect x="180" y="62" width="322.77" height="22" fill="#4c78a8" rx="3"/>
<text x="510.77" y="78" class="value">155.90</text>
<text x="10" y="110" class="label">steamcdn-a.akamaihd.net</text>
<rect x="180" y="94" width="328.32" height="22" fill="#4c78a8" rx="3"/>
<text x="516.3199999999999" y="110" class="value">158.58</text>
<text x="10" y="142" class="label">cdn.cloudflare.steamstatic.com</text>
<rect x="180" y="126" width="378.67" height="22" fill="#4c78a8" rx="3"/>
<text x="566.6700000000001" y="142" class="value">182.90</text>
<text x="10" y="174" class="label">rockstargames.com</text>
<rect x="180" y="158" width="390.54" height="22" fill="#4c78a8" rx="3"/>
<text x="578.54" y="174" class="value">188.63</text>
<text x="10" y="206" class="label">ubi.com</text>
<rect x="180" y="190" width="444.37" height="22" fill="#4c78a8" rx="3"/>
<text x="632.37" y="206" class="value">214.63</text>
<text x="10" y="238" class="label">easyanticheat.net</text>
<rect x="180" y="222" width="456.83" height="22" fill="#4c78a8" rx="3"/>
<text x="644.8299999999999" y="238" class="value">220.65</text>
<text x="10" y="270" class="label">community.akamai.steamstatic.com</text>
<rect x="180" y="254" width="485.3" height="22" fill="#4c78a8" rx="3"/>
<text x="673.3" y="270" class="value">234.40</text>
<text x="10" y="302" class="label">cdn.akamai.steamstatic.com</text>
<rect x="180" y="286" width="493.69" height="22" fill="#4c78a8" rx="3"/>
<text x="681.69" y="302" class="value">238.45</text>
<text x="10" y="334" class="label">store.akamai.steamstatic.com</text>
<rect x="180" y="318" width="494.12" height="22" fill="#4c78a8" rx="3"/>
<text x="682.12" y="334" class="value">238.66</text>
<text x="10" y="366" class="label">socialclub.rockstargames.com</text>
<rect x="180" y="350" width="532.36" height="22" fill="#4c78a8" rx="3"/>
<text x="720.36" y="366" class="value">257.13</text>
<text x="10" y="398" class="label">epicgames.com</text>
<rect x="180" y="382" width="536.69" height="22" fill="#4c78a8" rx="3"/>
<text x="724.69" y="398" class="value">259.22</text>
<text x="10" y="430" class="label">static3.cdn.ubi.com</text>
<rect x="180" y="414" width="571.53" height="22" fill="#4c78a8" rx="3"/>
<text x="759.53" y="430" class="value">276.05</text>
<text x="10" y="462" class="label">steamcommunity.com</text>
<rect x="180" y="446" width="576.83" height="22" fill="#4c78a8" rx="3"/>
<text x="764.83" y="462" class="value">278.61</text>
<text x="10" y="494" class="label">ubisoft.com</text>
<rect x="180" y="478" width="580.0" height="22" fill="#4c78a8" rx="3"/>
<text x="768.0" y="494" class="value">280.14</text>
<line x1="180" y1="30" x2="180" y2="520" stroke="#ccc"/>
<line x1="180" y1="520" x2="760" y2="520" stroke="#ccc"/>
</svg>