<svg xmlns="http://www.w3.org/2000/svg" width="800" height="540">
<style> .label{font-family:DejaVu Sans,Verdana,Geneva,sans-serif;font-size:12px;fill:#333} .value{font-family:DejaVu Sans,Verdana,Geneva,sans-serif;font-size:12px;fill:#555} </style>
<text x="10" y="20" class="label">延迟柱状图（越低越好，Top 15），单位 ms</text>
<text x="10" y="46" class="label">eaassets-a.akamaihd.net</text>
<rect x="180" y="30" width="146.23" height="22" fill="#4c78a8" rx="3"/>
<text x="334.23" y="46" class="value">53.32</text>
<text x="10" y="78" class="label">rockstargames.com</text>
<rect x="180" y="62" width="225.05" height="22" fill="#4c78a8" rx="3"/>
<text x="413.05" y="78" class="value">82.06</text>
<text x="10" y="110" class="label">socialclub.rockstargames.com</text>
<rect x="180" y="94" width="243.36" height="22" fill="#4c78a8" rx="3"/>
<text x="431.36" y="110" class="value">88.74</text>
<text x="10" y="142" class="label">blizzard.com</text>
<rect x="180" y="126" width="252.14" height="22" fill="#4c78a8" rx="3"/>
<text x="440.14" y="142" class="value">91.94</text>
<text x="10" y="174" class="label">ubisoft.com</text>
<rect x="180" y="158" width="283.02" height="22" fill="#4c78a8" rx="3"/>
<text x="471.02" y="174" class="value">103.20</text>
<text x="10" y="206" class="label">battle.net</text>
<rect x="180" y="190" width="327.91" height="22" fill="#4c78a8" rx="3"/>
<text x="515.9100000000001" y="206" class="value">119.57</text>
<text x="10" y="238" class="label">ubi.com</text>
<rect x="180" y="222" width="393.4" height="22" fill="#4c78a8" rx="3"/>
<text x="581.4" y="238" class="value">143.45</text>
<text x="10" y="270" class="label">ea.com</text>
<rect x="180" y="254" width="407.14" height="22" fill="#4c78a8" rx="3"/>
<text x="595.14" y="270" class="value">148.46</text>
<text x="10" y="302" class="label">unrealengine.com</text>
<rect x="180" y="286" width="413.45" height="22" fill="#4c78a8" rx="3"/>
<text x="601.45" y="302" class="value">150.76</text>
<text x="10" y="334" class="label">static3.cdn.ubi.com</text>
<rect x="180" y="318" width="462.79" height="22" fill="#4c78a8" rx="3"/>
<text x="650.79" y="334" class="value">168.75</text>
<text x="10" y="366" class="label">fortnite.com</text>
<rect x="180" y="350" width="480.78" height="22" fill="#4c78a8" rx="3"/>
<text x="668.78" y="366" class="value">175.31</text>
<text x="10" y="398" class="label">steamcdn-a.akamaihd.net</text>
<rect x="180" y="382" width="516.95" height="22" fill="#4c78a8" rx="3"/>
<text x="704.95" y="398" class="value">188.50</text>
<text x="10" y="430" class="label">cdn.akamai.steamstatic.com</text>
<rect x="180" y="414" width="519.8" height="22" fill="#4c78a8" rx="3"/>
<text x="707.8" y="430" class="value">189.54</text>
<text x="10" y="462" class="label">store.akamai.steamstatic.com</text>
<rect x="180" y="446" width="564.09" height="22" fill="#4c78a8" rx="3"/>
<text x="752.09" y="462" class="value">205.69</text>
<text x="10" y="494" class="label">origin.com</text>
<rect x="180" y="478" width="580.0" height="22" fill="#4c78a8" rx="3"/>
<text x="768.0" y="494" class="value">211.49</text>
<line x1="180" y1="30" x2="180" y2="520" stroke="#ccc"/>
<line x1="180" y1="520" x2="760" y2="520" stroke="#ccc"/>
</svg>