<svg xmlns="http://www.w3.org/2000/svg" width="800" height="540">
<style> .label{font-family:DejaVu Sans,Verdana,Geneva,sans-serif;font-size:12px;fill:#333} .value{font-family:DejaVu Sans,Verdana,Geneva,sans-serif;font-size:12px;fill:#555} </style>
<text x="10" y="20" class="label">延迟柱状图（越低越好，Top 15），单位 ms</text>
<text x="10" y="46" class="label">eaassets-a.akamaihd.net</text>
<rect x="180" y="30" width="208.33" height="22" fill="#4c78a8" rx="3"/>
<text x="396.33000000000004" y="46" class="value">67.23</text>
<text x="10" y="78" class="label">ea.com</text>
<rect x="180" y="62" width="218.43" height="22" fill="#4c78a8" rx="3"/>
<text x="406.43" y="78" class="value">70.49</text>
<text x="10" y="110" class="label">cdn.akamai.steamstatic.com</text>
<rect x="180" y="94" width="223.76" height="22" fill="#4c78a8" rx="3"/>
<text x="411.76" y="110" class="value">72.21</text>
<text x="10" y="142" class="label">store.akamai.steamstatic.com</text>
<rect x="180" y="126" width="229.28" height="22" fill="#4c78a8" rx="3"/>
<text x="417.28" y="142" class="value">73.99</text>
<text x="10" y="174" class="label">rockstargames.com</text>
<rect x="180" y="158" width="240.47" height="22" fill="#4c78a8" rx="3"/>
<text x="428.47" y="174" class="value">77.60</text>
<text x="10" y="206" class="label">origin.com</text>
<rect x="180" y="190" width="241.77" height="22" fill="#4c78a8" rx="3"/>
<text x="429.77" y="206" class="value">78.02</text>
<text x="10" y="238" class="label">blizzard.com</text>
<rect x="180" y="222" width="426.39" height="22" fill="#4c78a8" rx="3"/>
<text x="614.39" y="238" class="value">137.60</text>
<text x="10" y="270" class="label">ubisoft.com</text>
<rect x="180" y="254" width="429.37" height="22" fill="#4c78a8" rx="3"/>
<text x="617.37" y="270" class="value">138.56</text>
<text x="10" y="302" class="label">battle.net</text>
<rect x="180" y="286" width="442.54" height="22" fill="#4c78a8" rx="3"/>
<text x="630.54" y="302" class="value">142.81</text>
<text x="10" y="334" class="label">ubi.com</text>
<rect x="180" y="318" width="456.3" height="22" fill="#4c78a8" rx="3"/>
<text x="644.3" y="334" class="value">147.25</text>
<text x="10" y="366" class="label">socialclub.rockstargames.com</text>
<rect x="180" y="350" width="467.36" height="22" fill="#4c78a8" rx="3"/>
<text x="655.36" y="366" class="value">150.82</text>
<text x="10" y="398" class="label">api.steampowered.com</text>
<rect x="180" y="382" width="487.28" height="22" fill="#4c78a8" rx="3"/>
<text x="675.28" y="398" class="value">157.25</text>
<text x="10" y="430" class="label">static3.cdn.ubi.com</text>
<rect x="180" y="414" width="516.16" height="22" fill="#4c78a8" rx="3"/>
<text x="704.16" y="430" class="value">166.57</text>
<text x="10" y="462" class="label">community.akamai.steamstatic.com</text>
<rect x="180" y="446" width="555.09" height="22" fill="#4c78a8" rx="3"/>
<text x="743.09" y="462" class="value">179.13</text>
<text x="10" y="494" class="label">cdn.cloudflare.steamstatic.com</text>
<rect x="180" y="478" width="580.0" height="22" fill="#4c78a8" rx="3"/>
<text x="768.0" y="494" class="value">187.17</text>
<line x1="180" y1="30" x2="180" y2="520" stroke="#ccc"/>
<line x1="180" y1="520" x2="760" y2="520" stroke="#ccc"/>
</svg>