<svg xmlns="http://www.w3.org/2000/svg" width="800" height="540">
<style> .label{font-family:DejaVu Sans,Verdana,Geneva,sans-serif;font-size:12px;fill:#333} .value{font-family:DejaVu Sans,Verdana,Geneva,sans-serif;font-size:12px;fill:#555} </style>
<text x="10" y="20" class="label">延迟柱状图（越低越好，Top 15），单位 ms</text>
<text x="10" y="46" class="label">rockstargames.com</text>
<rect x="180" y="30" width="179.01" height="22" fill="#4c78a8" rx="3"/>
<text x="367.01" y="46" class="value">66.93</text>
<text x="10" y="78" class="label">battle.net</text>
<rect x="180" y="62" width="238.45" height="22" fill="#4c78a8" rx="3"/>
<text x="426.45" y="78" class="value">89.15</text>
<text x="10" y="110" class="label">socialclub.rockstargames.com</text>
<rect x="180" y="94" width="243.18" height="22" fill="#4c78a8" rx="3"/>
<text x="431.18" y="110" class="value">90.92</text>
<text x="10" y="142" class="label">blizzard.com</text>
<rect x="180" y="126" width="247.73" height="22" fill="#4c78a8" rx="3"/>
<text x="435.73" y="142" class="value">92.62</text>
<text x="10" y="174" class="label">eaassets-a.akamaihd.net</text>
<rect x="180" y="158" width="267.23" height="22" fill="#4c78a8" rx="3"/>
<text x="455.23" y="174" class="value">99.91</text>
<text x="10" y="206" class="label">ubi.com</text>
<rect x="180" y="190" width="323.69" height="22" fill="#4c78a8" rx="3"/>
<text x="511.69" y="206" class="value">121.02</text>
<text x="10" y="238" class="label">static3.cdn.ubi.com</text>
<rect x="180" y="222" width="341.79" height="22" fill="#4c78a8" rx="3"/>
<text x="529.79" y="238" class="value">127.79</text>
<text x="10" y="270" class="label">ea.com</text>
<rect x="180" y="254" width="344.82" height="22" fill="#4c78a8" rx="3"/>
<text x="532.8199999999999" y="270" class="value">128.92</text>
<text x="10" y="302" class="label">unrealengine.com</text>
<rect x="180" y="286" width="346.37" height="22" fill="#4c78a8" rx="3"/>
<text x="534.37" y="302" class="value">129.50</text>
<text x="10" y="334" class="label">epicgames.com</text>
<rect x="180" y="318" width="355.3" height="22" fill="#4c78a8" rx="3"/>
<text x="543.3" y="334" class="value">132.84</text>
<text x="10" y="366" class="label">cdn.akamai.steamstatic.com</text>
<rect x="180" y="350" width="396.3" height="22" fill="#4c78a8" rx="3"/>
<text x="584.3" y="366" class="value">148.17</text>
<text x="10" y="398" class="label">ubisoft.com</text>
<rect x="180" y="382" width="401.55" height="22" fill="#4c78a8" rx="3"/>
<text x="589.55" y="398" class="value">150.13</text>
<text x="10" y="430" class="label">gog.com</text>
<rect x="180" y="414" width="530.04" height="22" fill="#4c78a8" rx="3"/>
<text x="718.04" y="430" class="value">198.17</text>
<text x="10" y="462" class="label">store.akamai.steamstatic.com</text>
<rect x="180" y="446" width="572.91" height="22" fill="#4c78a8" rx="3"/>
<text x="760.91" y="462" class="value">214.20</text>
<text x="10" y="494" class="label">fortnite.com</text>
<rect x="180" y="478" width="580.0" height="22" fill="#4c78a8" rx="3"/>
<text x="768.0" y="494" class="value">216.85</text>
<line x1="180" y1="30" x2="180" y2="520" stroke="#ccc"/>
<line x1="180" y1="520" x2="760" y2="520" stroke="#ccc"/>
</svg>