<svg xmlns="http://www.w3.org/2000/svg" width="800" height="540">
<style> .label{font-family:DejaVu Sans,Verdana,Geneva,sans-serif;font-size:12px;fill:#333} .value{font-family:DejaVu Sans,Verdana,Geneva,sans-serif;font-size:12px;fill:#555} </style>
<text x="10" y="20" class="label">延迟柱状图（越低越好，Top 15），单位 ms</text>
<text x="10" y="46" class="label">steamcdn-a.akamaihd.net</text>
<rect x="180" y="30" width="263.74" height="22" fill="#4c78a8" rx="3"/>
<text x="451.74" y="46" class="value">146.20</text>
<text x="10" y="78" class="label">eaassets-a.akamaihd.net</text>
<rect x="180" y="62" width="265.4" height="22" fill="#4c78a8" rx="3"/>
<text x="453.4" y="78" class="value">147.12</text>
<text x="10" y="110" class="label">ubisoft.com</text>
<rect x="180" y="94" width="309.69" height="22" fill="#4c78a8" rx="3"/>
<text x="497.69" y="110" class="value">171.67</text>
<text x="10" y="142" class="label">cdn.akamai.steamstatic.com</text>
<rect x="180" y="126" width="393.18" height="22" fill="#4c78a8" rx="3"/>
<text x="581.1800000000001" y="142" class="value">217.95</text>
<text x="10" y="174" class="label">rockstargames.com</text>
<rect x="180" y="158" width="423.5" height="22" fill="#4c78a8" rx="3"/>
<text x="611.5" y="174" class="value">234.76</text>
<text x="10" y="206" class="label">ubi.com</text>
<rect x="180" y="190" width="436.01" height="22" fill="#4c78a8" rx="3"/>
<text x="624.01" y="206" class="value">241.69</text>
<text x="10" y="238" class="label">store.akamai.steamstatic.com</text>
<rect x="180" y="222" width="456.84" height="22" fill="#4c78a8" rx="3"/>
<text x="644.8399999999999" y="238" class="value">253.24</text>
<text x="10" y="270" class="label">ea.com</text>
<rect x="180" y="254" width="471.56" height="22" fill="#4c78a8" rx="3"/>
<text x="659.56" y="270" class="value">261.40</text>
<text x="10" y="302" class="label">socialclub.rockstargames.com</text>
<rect x="180" y="286" width="491.21" height="22" fill="#4c78a8" rx="3"/>
<text x="679.21" y="302" class="value">272.29</text>
<text x="10" y="334" class="label">epicgames.com</text>
<rect x="180" y="318" width="527.0" height="22" fill="#4c78a8" rx="3"/>
<text x="715.0" y="334" class="value">292.13</text>
<text x="10" y="366" class="label">cdn.cloudflare.steamstatic.com</text>
<rect x="180" y="350" width="556.06" height="22" fill="#4c78a8" rx="3"/>
<text x="744.06" y="366" class="value">308.24</text>
<text x="10" y="398" class="label">api.steampowered.com</text>
<rect x="180" y="382" width="558.42" height="22" fill="#4c78a8" rx="3"/>
<text x="746.42" y="398" class="value">309.55</text>
<text x="10" y="430" class="label">easyanticheat.net</text>
<rect x="180" y="414" width="569.66" height="22" fill="#4c78a8" rx="3"/>
<text x="757.66" y="430" class="value">315.78</text>
<text x="10" y="462" class="label">static3.cdn.ubi.com</text>
<rect x="180" y="446" width="570.64" height="22" fill="#4c78a8" rx="3"/>
<text x="758.64" y="462" class="value">316.32</text>
<text x="10" y="494" class="label">steamcommunity.com</text>
<rect x="180" y="478" width="580.0" height="22" fill="#4c78a8" rx="3"/>
<text x="768.0" y="494" class="value">321.51</text>
<line x1="180" y1="30" x2="180" y2="520" stroke="#ccc"/>
<line x1="180" y1="520" x2="760" y2="520" stroke="#ccc"/>
</svg>