<svg xmlns="http://www.w3.org/2000/svg" width="800" height="540">
<style> .label{font-family:DejaVu Sans,Verdana,Geneva,sans-serif;font-size:12px;fill:#333} .value{font-family:DejaVu Sans,Verdana,Geneva,sans-serif;font-size:12px;fill:#555} </style>
<text x="10" y="20" class="label">延迟柱状图（越低越好，Top 15），单位 ms</text>
<text x="10" y="46" class="label">eaassets-a.akamaihd.net</text>
<rect x="180" y="30" width="291.61" height="22" fill="#4c78a8" rx="3"/>
<text x="479.61" y="46" class="value">128.52</text>
<text x="10" y="78" class="label">ubisoft.com</text>
<rect x="180" y="62" width="304.36" height="22" fill="#4c78a8" rx="3"/>
<text x="492.36" y="78" class="value">134.14</text>
<text x="10" y="110" class="label">community.akamai.steamstatic.com</text>
<rect x="180" y="94" width="387.2" height="22" fill="#4c78a8" rx="3"/>
<text x="575.2" y="110" class="value">170.65</text>
<text x="10" y="142" class="label">ea.com</text>
<rect x="180" y="126" width="387.36" height="22" fill="#4c78a8" rx="3"/>
<text x="575.36" y="142" class="value">170.72</text>
<text x="10" y="174" class="label">cdn.akamai.steamstatic.com</text>
<rect x="180" y="158" width="390.97" height="22" fill="#4c78a8" rx="3"/>
<text x="578.97" y="174" class="value">172.31</text>
<text x="10" y="206" class="label">cdn.cloudflare.steamstatic.com</text>
<rect x="180" y="190" width="399.14" height="22" fill="#4c78a8" rx="3"/>
<text x="587.14" y="206" class="value">175.91</text>
<text x="10" y="238" class="label">battle.net</text>
<rect x="180" y="222" width="424.14" height="22" fill="#4c78a8" rx="3"/>
<text x="612.14" y="238" class="value">186.93</text>
<text x="10" y="270" class="label">store.akamai.steamstatic.com</text>
<rect x="180" y="254" width="442.84" height="22" fill="#4c78a8" rx="3"/>
<text x="630.8399999999999" y="270" class="value">195.17</text>
<text x="10" y="302" class="label">origin.com</text>
<rect x="180" y="286" width="480.32" height="22" fill="#4c78a8" rx="3"/>
<text x="668.3199999999999" y="302" class="value">211.69</text>
<text x="10" y="334" class="label">ubi.com</text>
<rect x="180" y="318" width="494.91" height="22" fill="#4c78a8" rx="3"/>
<text x="682.9100000000001" y="334" class="value">218.12</text>
<text x="10" y="366" class="label">steamcdn-a.akamaihd.net</text>
<rect x="180" y="350" width="543.92" height="22" fill="#4c78a8" rx="3"/>
<text x="731.92" y="366" class="value">239.72</text>
<text x="10" y="398" class="label">socialclub.rockstargames.com</text>
<rect x="180" y="382" width="545.28" height="22" fill="#4c78a8" rx="3"/>
<text x="733.28" y="398" class="value">240.32</text>
<text x="10" y="430" class="label">launcher-public-service-prod06.ol.epicgames.com</text>
<rect x="180" y="414" width="553.73" height="22" fill="#4c78a8" rx="3"/>
<text x="741.73" y="430" class="value">244.04</text>
<text x="10" y="462" class="label">rockstargames.com</text>
<rect x="180" y="446" width="558.97" height="22" fill="#4c78a8" rx="3"/>
<text x="746.97" y="462" class="value">246.35</text>
<text x="10" y="494" class="label">www.steamcommunity.com</text>
<rect x="180" y="478" width="580.0" height="22" fill="#4c78a8" rx="3"/>
<text x="768.0" y="494" class="value">255.62</text>
<line x1="180" y1="30" x2="180" y2="520" stroke="#ccc"/>
<line x1="180" y1="520" x2="760" y2="520" stroke="#ccc"/>
</svg>