<svg xmlns="http://www.w3.org/2000/svg" width="800" height="540">
<style> .label{font-family:DejaVu Sans,Verdana,Geneva,sans-serif;font-size:12px;fill:#333} .value{font-family:DejaVu Sans,Verdana,Geneva,sans-serif;font-size:12px;fill:#555} </style>
<text x="10" y="20" class="label">延迟柱状图（越低越好，Top 15），单位 ms</text>
<text x="10" y="46" class="label">rockstargames.com</text>
<rect x="180" y="30" width="144.05" height="22" fill="#4c78a8" rx="3"/>
<text x="332.05" y="46" class="value">68.90</text>
<text x="10" y="78" class="label">eaassets-a.akamaihd.net</text>
<rect x="180" y="62" width="169.14" height="22" fill="#4c78a8" rx="3"/>
<text x="357.14" y="78" class="value">80.90</text>
<text x="10" y="110" class="label">ubisoft.com</text>
<rect x="180" y="94" width="242.44" height="22" fill="#4c78a8" rx="3"/>
<text x="430.44" y="110" class="value">115.96</text>
<text x="10" y="142" class="label">ea.com</text>
<rect x="180" y="126" width="255.88" height="22" fill="#4c78a8" rx="3"/>
<text x="443.88" y="142" class="value">122.39</text>
<text x="10" y="174" class="label">origin.com</text>
<rect x="180" y="158" width="337.38" height="22" fill="#4c78a8" rx="3"/>
<text x="525.38" y="174" class="value">161.37</text>
<text x="10" y="206" class="label">store.akamai.steamstatic.com</text>
<rect x="180" y="190" width="362.3" height="22" fill="#4c78a8" rx="3"/>
<text x="550.3" y="206" class="value">173.29</text>
<text x="10" y="238" class="label">community.akamai.steamstatic.com</text>
<rect x="180" y="222" width="376.49" height="22" fill="#4c78a8" rx="3"/>
<text x="564.49" y="238" class="value">180.08</text>
<text x="10" y="270" class="label">cdn.akamai.steamstatic.com</text>
<rect x="180" y="254" width="406.43" height="22" fill="#4c78a8" rx="3"/>
<text x="594.4300000000001" y="270" class="value">194.40</text>
<text x="10" y="302" class="label">steamcdn-a.akamaihd.net</text>
<rect x="180" y="286" width="409.32" height="22" fill="#4c78a8" rx="3"/>
<text x="597.3199999999999" y="302" class="value">195.78</text>
<text x="10" y="334" class="label">cdn.cloudflare.steamstatic.com</text>
<rect x="180" y="318" width="426.94" height="22" fill="#4c78a8" rx="3"/>
<text x="614.94" y="334" class="value">204.21</text>
<text x="10" y="366" class="label">api.steampowered.com</text>
<rect x="180" y="350" width="461.77" height="22" fill="#4c78a8" rx="3"/>
<text x="649.77" y="366" class="value">220.87</text>
<text x="10" y="398" class="label">easyanticheat.net</text>
<rect x="180" y="382" width="482.93" height="22" fill="#4c78a8" rx="3"/>
<text x="670.9300000000001" y="398" class="value">230.99</text>
<text x="10" y="430" class="label">steam-chat.com</text>
<rect x="180" y="414" width="506.8" height="22" fill="#4c78a8" rx="3"/>
<text x="694.8" y="430" class="value">242.41</text>
<text x="10" y="462" class="label">launcher-public-service-prod06.ol.epicgames.com</text>
<rect x="180" y="446" width="566.47" height="22" fill="#4c78a8" rx="3"/>
<text x="754.47" y="462" class="value">270.95</text>
<text x="10" y="494" class="label">steamcommunity.com</text>
<rect x="180" y="478" width="580.0" height="22" fill="#4c78a8" rx="3"/>
<text x="768.0" y="494" class="value">277.42</text>
<line x1="180" y1="30" x2="180" y2="520" stroke="#ccc"/>
<line x1="180" y1="520" x2="760" y2="520" stroke="#ccc"/>
</svg>