<svg xmlns="http://www.w3.org/2000/svg" width="800" height="540">
<style> .label{font-family:DejaVu Sans,Verdana,Geneva,sans-serif;font-size:12px;fill:#333} .value{font-family:DejaVu Sans,Verdana,Geneva,sans-serif;font-size:12px;fill:#555} </style>
<text x="10" y="20" class="label">延迟柱状图（越低越好，Top 15），单位 ms</text>
<text x="10" y="46" class="label">rockstargames.com</text>
<rect x="180" y="30" width="127.42" height="22" fill="#4c78a8" rx="3"/>
<text x="315.42" y="46" class="value">42.75</text>
<text x="10" y="78" class="label">eaassets-a.akamaihd.net</text>
<rect x="180" y="62" width="158.14" height="22" fill="#4c78a8" rx="3"/>
<text x="346.14" y="78" class="value">53.06</text>
<text x="10" y="110" class="label">socialclub.rockstargames.com</text>
<rect x="180" y="94" width="194.89" height="22" fill="#4c78a8" rx="3"/>
<text x="382.89" y="110" class="value">65.39</text>
<text x="10" y="142" class="label">blizzard.com</text>
<rect x="180" y="126" width="288.33" height="22" fill="#4c78a8" rx="3"/>
<text x="476.33" y="142" class="value">96.74</text>
<text x="10" y="174" class="label">ubi.com</text>
<rect x="180" y="158" width="308.72" height="22" fill="#4c78a8" rx="3"/>
<text x="496.72" y="174" class="value">103.58</text>
<text x="10" y="206" class="label">ea.com</text>
<rect x="180" y="190" width="313.81" height="22" fill="#4c78a8" rx="3"/>
<text x="501.81" y="206" class="value">105.29</text>
<text x="10" y="238" class="label">battle.net</text>
<rect x="180" y="222" width="441.26" height="22" fill="#4c78a8" rx="3"/>
<text x="629.26" y="238" class="value">148.05</text>
<text x="10" y="270" class="label">cdn.akamai.steamstatic.com</text>
<rect x="180" y="254" width="455.98" height="22" fill="#4c78a8" rx="3"/>
<text x="643.98" y="270" class="value">152.99</text>
<text x="10" y="302" class="label">community.akamai.steamstatic.com</text>
<rect x="180" y="286" width="470.14" height="22" fill="#4c78a8" rx="3"/>
<text x="658.14" y="302" class="value">157.74</text>
<text x="10" y="334" class="label">ubisoft.com</text>
<rect x="180" y="318" width="510.38" height="22" fill="#4c78a8" rx="3"/>
<text x="698.38" y="334" class="value">171.24</text>
<text x="10" y="366" class="label">steam-chat.com</text>
<rect x="180" y="350" width="542.95" height="22" fill="#4c78a8" rx="3"/>
<text x="730.95" y="366" class="value">182.17</text>
<text x="10" y="398" class="label">epicgames.com</text>
<rect x="180" y="382" width="563.79" height="22" fill="#4c78a8" rx="3"/>
<text x="751.79" y="398" class="value">189.16</text>
<text x="10" y="430" class="label">fortnite.com</text>
<rect x="180" y="414" width="567.63" height="22" fill="#4c78a8" rx="3"/>
<text x="755.63" y="430" class="value">190.45</text>
<text x="10" y="462" class="label">origin.com</text>
<rect x="180" y="446" width="568.14" height="22" fill="#4c78a8" rx="3"/>
<text x="756.14" y="462" class="value">190.62</text>
<text x="10" y="494" class="label">steamcdn-a.akamaihd.net</text>
<rect x="180" y="478" width="580.0" height="22" fill="#4c78a8" rx="3"/>
<text x="768.0" y="494" class="value">194.60</text>
<line x1="180" y1="30" x2="180" y2="520" stroke="#ccc"/>
<line x1="180" y1="520" x2="760" y2="520" stroke="#ccc"/>
</svg>