<svg xmlns="http://www.w3.org/2000/svg" width="800" height="540">
<style> .label{font-family:DejaVu Sans,Verdana,Geneva,sans-serif;font-size:12px;fill:#333} .value{font-family:DejaVu Sans,Verdana,Geneva,sans-serif;font-size:12px;fill:#555} </style>
<text x="10" y="20" class="label">延迟柱状图（越低越好，Top 15），单位 ms</text>
<text x="10" y="46" class="label">cdn.cloudflare.steamstatic.com</text>
<rect x="180" y="30" width="257.54" height="22" fill="#4c78a8" rx="3"/>
<text x="445.54" y="46" class="value">132.23</text>
<text x="10" y="78" class="label">ea.com</text>
<rect x="180" y="62" width="263.7" height="22" fill="#4c78a8" rx="3"/>
<text x="451.7" y="78" class="value">135.39</text>
<text x="10" y="110" class="label">eaassets-a.akamaihd.net</text>
<rect x="180" y="94" width="275.05" height="22" fill="#4c78a8" rx="3"/>
<text x="463.05" y="110" class="value">141.22</text>
<text x="10" y="142" class="label">socialclub.rockstargames.com</text>
<rect x="180" y="126" width="281.38" height="22" fill="#4c78a8" rx="3"/>
<text x="469.38" y="142" class="value">144.47</text>
<text x="10" y="174" class="label">rockstargames.com</text>
<rect x="180" y="158" width="287.17" height="22" fill="#4c78a8" rx="3"/>
<text x="475.17" y="174" class="value">147.44</text>
<text x="10" y="206" class="label">ubisoft.com</text>
<rect x="180" y="190" width="338.18" height="22" fill="#4c78a8" rx="3"/>
<text x="526.1800000000001" y="206" class="value">173.63</text>
<text x="10" y="238" class="label">blizzard.com</text>
<rect x="180" y="222" width="359.6" height="22" fill="#4c78a8" rx="3"/>
<text x="547.6" y="238" class="value">184.63</text>
<text x="10" y="270" class="label">battle.net</text>
<rect x="180" y="254" width="374.62" height="22" fill="#4c78a8" rx="3"/>
<text x="562.62" y="270" class="value">192.34</text>
<text x="10" y="302" class="label">ubi.com</text>
<rect x="180" y="286" width="404.59" height="22" fill="#4c78a8" rx="3"/>
<text x="592.5899999999999" y="302" class="value">207.73</text>
<text x="10" y="334" class="label">static3.cdn.ubi.com</text>
<rect x="180" y="318" width="451.69" height="22" fill="#4c78a8" rx="3"/>
<text x="639.69" y="334" class="value">231.91</text>
<text x="10" y="366" class="label">store.akamai.steamstatic.com</text>
<rect x="180" y="350" width="460.18" height="22" fill="#4c78a8" rx="3"/>
<text x="648.1800000000001" y="366" class="value">236.27</text>
<text x="10" y="398" class="label">steamcdn-a.akamaihd.net</text>
<rect x="180" y="382" width="501.94" height="22" fill="#4c78a8" rx="3"/>
<text x="689.94" y="398" class="value">257.71</text>
<text x="10" y="430" class="label">origin.com</text>
<rect x="180" y="414" width="523.79" height="22" fill="#4c78a8" rx="3"/>
<text x="711.79" y="430" class="value">268.93</text>
<text x="10" y="462" class="label">cdn.akamai.steamstatic.com</text>
<rect x="180" y="446" width="527.72" height="22" fill="#4c78a8" rx="3"/>
<text x="715.72" y="462" class="value">270.95</text>
<text x="10" y="494" class="label">unrealengine.com</text>
<rect x="180" y="478" width="580.0" height="22" fill="#4c78a8" rx="3"/>
<text x="768.0" y="494" class="value">297.79</text>
<line x1="180" y1="30" x2="180" y2="520" stroke="#ccc"/>
<line x1="180" y1="520" x2="760" y2="520" stroke="#ccc"/>
</svg>