<svg xmlns="http://www.w3.org/2000/svg" width="800" height="540">
<style> .label{font-family:DejaVu Sans,Verdana,Geneva,sans-serif;font-size:12px;fill:#333} .value{font-family:DejaVu Sans,Verdana,Geneva,sans-serif;font-size:12px;fill:#555} </style>
<text x="10" y="20" class="label">延迟柱状图（越低越好，Top 15），单位 ms</text>
<text x="10" y="46" class="label">eaassets-a.akamaihd.net</text>
<rect x="180" y="30" width="136.37" height="22" fill="#4c78a8" rx="3"/>
<text x="324.37" y="46" class="value">40.59</text>
<text x="10" y="78" class="label">rockstargames.com</text>
<rect x="180" y="62" width="181.56" height="22" fill="#4c78a8" rx="3"/>
<text x="369.56" y="78" class="value">54.04</text>
<text x="10" y="110" class="label">community.akamai.steamstatic.com</text>
<rect x="180" y="94" width="332.95" height="22" fill="#4c78a8" rx="3"/>
<text x="520.95" y="110" class="value">99.10</text>
<text x="10" y="142" class="label">ubi.com</text>
<rect x="180" y="126" width="403.41" height="22" fill="#4c78a8" rx="3"/>
<text x="591.4100000000001" y="142" class="value">120.07</text>
<text x="10" y="174" class="label">blizzard.com</text>
<rect x="180" y="158" width="461.7" height="22" fill="#4c78a8" rx="3"/>
<text x="649.7" y="174" class="value">137.42</text>
<text x="10" y="206" class="label">battle.net</text>
<rect x="180" y="190" width="495.4" height="22" fill="#4c78a8" rx="3"/>
<text x="683.4" y="206" class="value">147.45</text>
<text x="10" y="238" class="label">ubisoft.com</text>
<rect x="180" y="222" width="498.53" height="22" fill="#4c78a8" rx="3"/>
<text x="686.53" y="238" class="value">148.38</text>
<text x="10" y="270" class="label">ea.com</text>
<rect x="180" y="254" width="503.03" height="22" fill="#4c78a8" rx="3"/>
<text x="691.03" y="270" class="value">149.72</text>
<text x="10" y="302" class="label">socialclub.rockstargames.com</text>
<rect x="180" y="286" width="504.54" height="22" fill="#4c78a8" rx="3"/>
<text x="692.54" y="302" class="value">150.17</text>
<text x="10" y="334" class="label">easyanticheat.net</text>
<rect x="180" y="318" width="526.51" height="22" fill="#4c78a8" rx="3"/>
<text x="714.51" y="334" class="value">156.71</text>
<text x="10" y="366" class="label">static3.cdn.ubi.com</text>
<rect x="180" y="350" width="545.36" height="22" fill="#4c78a8" rx="3"/>
<text x="733.36" y="366" class="value">162.32</text>
<text x="10" y="398" class="label">cdn.akamai.steamstatic.com</text>
<rect x="180" y="382" width="572.34" height="22" fill="#4c78a8" rx="3"/>
<text x="760.34" y="398" class="value">170.35</text>
<text x="10" y="430" class="label">steamcdn-a.akamaihd.net</text>
<rect x="180" y="414" width="572.47" height="22" fill="#4c78a8" rx="3"/>
<text x="760.47" y="430" class="value">170.39</text>
<text x="10" y="462" class="label">gog.com</text>
<rect x="180" y="446" width="579.23" height="22" fill="#4c78a8" rx="3"/>
<text x="767.23" y="462" class="value">172.40</text>
<text x="10" y="494" class="label">cdn.cloudflare.steamstatic.com</text>
<rect x="180" y="478" width="580.0" height="22" fill="#4c78a8" rx="3"/>
<text x="768.0" y="494" class="value">172.63</text>
<line x1="180" y1="30" x2="180" y2="520" stroke="#ccc"/>
<line x1="180" y1="520" x2="760" y2="520" stroke="#ccc"/>
</svg>