<svg xmlns="http://www.w3.org/2000/svg" width="800" height="540">
<style> .label{font-family:DejaVu Sans,Verdana,Geneva,sans-serif;font-size:12px;fill:#333} .value{font-family:DejaVu Sans,Verdana,Geneva,sans-serif;font-size:12px;fill:#555} </style>
<text x="10" y="20" class="label">延迟柱状图（越低越好，Top 15），单位 ms</text>
<text x="10" y="46" class="label">eaassets-a.akamaihd.net</text>
<rect x="180" y="30" width="269.17" height="22" fill="#4c78a8" rx="3"/>
<text x="457.17" y="46" class="value">109.70</text>
<text x="10" y="78" class="label">rockstargames.com</text>
<rect x="180" y="62" width="284.41" height="22" fill="#4c78a8" rx="3"/>
<text x="472.41" y="78" class="value">115.91</text>
<text x="10" y="110" class="label">easyanticheat.net</text>
<rect x="180" y="94" width="367.36" height="22" fill="#4c78a8" rx="3"/>
<text x="555.36" y="110" class="value">149.72</text>
<text x="10" y="142" class="label">ubisoft.com</text>
<rect x="180" y="126" width="373.33" height="22" fill="#4c78a8" rx="3"/>
<text x="561.3299999999999" y="142" class="value">152.15</text>
<text x="10" y="174" class="label">launcher-public-service-prod06.ol.epicgames.com</text>
<rect x="180" y="158" width="398.33" height="22" fill="#4c78a8" rx="3"/>
<text x="586.3299999999999" y="174" class="value">162.34</text>
<text x="10" y="206" class="label">community.akamai.steamstatic.com</text>
<rect x="180" y="190" width="445.05" height="22" fill="#4c78a8" rx="3"/>
<text x="633.05" y="206" class="value">181.38</text>
<text x="10" y="238" class="label">ubi.com</text>
<rect x="180" y="222" width="445.44" height="22" fill="#4c78a8" rx="3"/>
<text x="633.44" y="238" class="value">181.54</text>
<text x="10" y="270" class="label">battle.net</text>
<rect x="180" y="254" width="451.67" height="22" fill="#4c78a8" rx="3"/>
<text x="639.6700000000001" y="270" class="value">184.08</text>
<text x="10" y="302" class="label">blizzard.com</text>
<rect x="180" y="286" width="455.89" height="22" fill="#4c78a8" rx="3"/>
<text x="643.89" y="302" class="value">185.80</text>
<text x="10" y="334" class="label">steam-chat.com</text>
<rect x="180" y="318" width="464.68" height="22" fill="#4c78a8" rx="3"/>
<text x="652.6800000000001" y="334" class="value">189.38</text>
<text x="10" y="366" class="label">unrealengine.com</text>
<rect x="180" y="350" width="497.58" height="22" fill="#4c78a8" rx="3"/>
<text x="685.5799999999999" y="366" class="value">202.79</text>
<text x="10" y="398" class="label">socialclub.rockstargames.com</text>
<rect x="180" y="382" width="514.51" height="22" fill="#4c78a8" rx="3"/>
<text x="702.51" y="398" class="value">209.69</text>
<text x="10" y="430" class="label">ea.com</text>
<rect x="180" y="414" width="525.06" height="22" fill="#4c78a8" rx="3"/>
<text x="713.06" y="430" class="value">213.99</text>
<text x="10" y="462" class="label">steamcdn-a.akamaihd.net</text>
<rect x="180" y="446" width="563.0" height="22" fill="#4c78a8" rx="3"/>
<text x="751.0" y="462" class="value">229.45</text>
<text x="10" y="494" class="label">origin.com</text>
<rect x="180" y="478" width="580.0" height="22" fill="#4c78a8" rx="3"/>
<text x="768.0" y="494" class="value">236.38</text>
<line x1="180" y1="30" x2="180" y2="520" stroke="#ccc"/>
<line x1="180" y1="520" x2="760" y2="520" stroke="#ccc"/>
</svg>