<svg xmlns="http://www.w3.org/2000/svg" width="800" height="540">
<style> .label{font-family:DejaVu Sans,Verdana,Geneva,sans-serif;font-size:12px;fill:#333} .value{font-family:DejaVu Sans,Verdana,Geneva,sans-serif;font-size:12px;fill:#555} </style>
<text x="10" y="20" class="label">延迟柱状图（越低越好，Top 15），单位 ms</text>
<text x="10" y="46" class="label">rockstargames.com</text>
<rect x="180" y="30" width="179.25" height="22" fill="#4c78a8" rx="3"/>
<text x="367.25" y="46" class="value">65.50</text>
<text x="10" y="78" class="label">eaassets-a.akamaihd.net</text>
<rect x="180" y="62" width="234.97" height="22" fill="#4c78a8" rx="3"/>
<text x="422.97" y="78" class="value">85.86</text>
<text x="10" y="110" class="label">socialclub.rockstargames.com</text>
<rect x="180" y="94" width="240.82" height="22" fill="#4c78a8" rx="3"/>
<text x="428.82" y="110" class="value">88.00</text>
<text x="10" y="142" class="label">ubi.com</text>
<rect x="180" y="126" width="242.52" height="22" fill="#4c78a8" rx="3"/>
<text x="430.52" y="142" class="value">88.62</text>
<text x="10" y="174" class="label">blizzard.com</text>
<rect x="180" y="158" width="268.68" height="22" fill="#4c78a8" rx="3"/>
<text x="456.68" y="174" class="value">98.18</text>
<text x="10" y="206" class="label">origin.com</text>
<rect x="180" y="190" width="268.79" height="22" fill="#4c78a8" rx="3"/>
<text x="456.79" y="206" class="value">98.22</text>
<text x="10" y="238" class="label">battle.net</text>
<rect x="180" y="222" width="272.21" height="22" fill="#4c78a8" rx="3"/>
<text x="460.21" y="238" class="value">99.47</text>
<text x="10" y="270" class="label">ea.com</text>
<rect x="180" y="254" width="296.6" height="22" fill="#4c78a8" rx="3"/>
<text x="484.6" y="270" class="value">108.38</text>
<text x="10" y="302" class="label">epicgames.com</text>
<rect x="180" y="286" width="389.42" height="22" fill="#4c78a8" rx="3"/>
<text x="577.4200000000001" y="302" class="value">142.30</text>
<text x="10" y="334" class="label">fortnite.com</text>
<rect x="180" y="318" width="452.99" height="22" fill="#4c78a8" rx="3"/>
<text x="640.99" y="334" class="value">165.53</text>
<text x="10" y="366" class="label">ubisoft.com</text>
<rect x="180" y="350" width="463.72" height="22" fill="#4c78a8" rx="3"/>
<text x="651.72" y="366" class="value">169.45</text>
<text x="10" y="398" class="label">unrealengine.com</text>
<rect x="180" y="382" width="538.05" height="22" fill="#4c78a8" rx="3"/>
<text x="726.05" y="398" class="value">196.61</text>
<text x="10" y="430" class="label">cdn.akamai.steamstatic.com</text>
<rect x="180" y="414" width="548.94" height="22" fill="#4c78a8" rx="3"/>
<text x="736.94" y="430" class="value">200.59</text>
<text x="10" y="462" class="label">community.akamai.steamstatic.com</text>
<rect x="180" y="446" width="557.4" height="22" fill="#4c78a8" rx="3"/>
<text x="745.4" y="462" class="value">203.68</text>
<text x="10" y="494" class="label">store.akamai.steamstatic.com</text>
<rect x="180" y="478" width="580.0" height="22" fill="#4c78a8" rx="3"/>
<text x="768.0" y="494" class="value">211.94</text>
<line x1="180" y1="30" x2="180" y2="520" stroke="#ccc"/>
<line x1="180" y1="520" x2="760" y2="520" stroke="#ccc"/>
</svg>