<svg xmlns="http://www.w3.org/2000/svg" width="800" height="540">
<style> .label{font-family:DejaVu Sans,Verdana,Geneva,sans-serif;font-size:12px;fill:#333} .value{font-family:DejaVu Sans,Verdana,Geneva,sans-serif;font-size:12px;fill:#555} </style>
<text x="10" y="20" class="label">延迟柱状图（越低越好，Top 15），单位 ms</text>
<text x="10" y="46" class="label">rockstargames.com</text>
<rect x="180" y="30" width="202.91" height="22" fill="#4c78a8" rx="3"/>
<text x="390.90999999999997" y="46" class="value">83.33</text>
<text x="10" y="78" class="label">cdn.akamai.steamstatic.com</text>
<rect x="180" y="62" width="290.6" height="22" fill="#4c78a8" rx="3"/>
<text x="478.6" y="78" class="value">119.34</text>
<text x="10" y="110" class="label">eaassets-a.akamaihd.net</text>
<rect x="180" y="94" width="306.08" height="22" fill="#4c78a8" rx="3"/>
<text x="494.08" y="110" class="value">125.70</text>
<text x="10" y="142" class="label">steamcdn-a.akamaihd.net</text>
<rect x="180" y="126" width="334.72" height="22" fill="#4c78a8" rx="3"/>
<text x="522.72" y="142" class="value">137.46</text>
<text x="10" y="174" class="label">ubisoft.com</text>
<rect x="180" y="158" width="367.98" height="22" fill="#4c78a8" rx="3"/>
<text x="555.98" y="174" class="value">151.12</text>
<text x="10" y="206" class="label">easyanticheat.net</text>
<rect x="180" y="190" width="370.12" height="22" fill="#4c78a8" rx="3"/>
<text x="558.12" y="206" class="value">152.00</text>
<text x="10" y="238" class="label">blizzard.com</text>
<rect x="180" y="222" width="415.88" height="22" fill="#4c78a8" rx="3"/>
<text x="603.88" y="238" class="value">170.79</text>
<text x="10" y="270" class="label">battle.net</text>
<rect x="180" y="254" width="417.0" height="22" fill="#4c78a8" rx="3"/>
<text x="605.0" y="270" class="value">171.25</text>
<text x="10" y="302" class="label">steam-chat.com</text>
<rect x="180" y="286" width="429.44" height="22" fill="#4c78a8" rx="3"/>
<text x="617.44" y="302" class="value">176.36</text>
<text x="10" y="334" class="label">unrealengine.com</text>
<rect x="180" y="318" width="491.92" height="22" fill="#4c78a8" rx="3"/>
<text x="679.9200000000001" y="334" class="value">202.02</text>
<text x="10" y="366" class="label">store.akamai.steamstatic.com</text>
<rect x="180" y="350" width="493.97" height="22" fill="#4c78a8" rx="3"/>
<text x="681.97" y="366" class="value">202.86</text>
<text x="10" y="398" class="label">ubi.com</text>
<rect x="180" y="382" width="495.02" height="22" fill="#4c78a8" rx="3"/>
<text x="683.02" y="398" class="value">203.29</text>
<text x="10" y="430" class="label">socialclub.rockstargames.com</text>
<rect x="180" y="414" width="526.67" height="22" fill="#4c78a8" rx="3"/>
<text x="714.67" y="430" class="value">216.29</text>
<text x="10" y="462" class="label">ea.com</text>
<rect x="180" y="446" width="540.53" height="22" fill="#4c78a8" rx="3"/>
<text x="728.53" y="462" class="value">221.98</text>
<text x="10" y="494" class="label">api.steampowered.com</text>
<rect x="180" y="478" width="580.0" height="22" fill="#4c78a8" rx="3"/>
<text x="768.0" y="494" class="value">238.19</text>
<line x1="180" y1="30" x2="180" y2="520" stroke="#ccc"/>
<line x1="180" y1="520" x2="760" y2="520" stroke="#ccc"/>
</svg>