<svg xmlns="http://www.w3.org/2000/svg" width="800" height="540">
<style> .label{font-family:DejaVu Sans,Verdana,Geneva,sans-serif;font-size:12px;fill:#333} .value{font-family:DejaVu Sans,Verdana,Geneva,sans-serif;font-size:12px;fill:#555} </style>
<text x="10" y="20" class="label">延迟柱状图（越低越好，Top 15），单位 ms</text>
<text x="10" y="46" class="label">rockstargames.com</text>
<rect x="180" y="30" width="153.8" height="22" fill="#4c78a8" rx="3"/>
<text x="341.8" y="46" class="value">54.16</text>
<text x="10" y="78" class="label">socialclub.rockstargames.com</text>
<rect x="180" y="62" width="246.84" height="22" fill="#4c78a8" rx="3"/>
<text x="434.84000000000003" y="78" class="value">86.92</text>
<text x="10" y="110" class="label">eaassets-a.akamaihd.net</text>
<rect x="180" y="94" width="255.3" height="22" fill="#4c78a8" rx="3"/>
<text x="443.3" y="110" class="value">89.90</text>
<text x="10" y="142" class="label">unrealengine.com</text>
<rect x="180" y="126" width="268.76" height="22" fill="#4c78a8" rx="3"/>
<text x="456.76" y="142" class="value">94.64</text>
<text x="10" y="174" class="label">ubisoft.com</text>
<rect x="180" y="158" width="283.38" height="22" fill="#4c78a8" rx="3"/>
<text x="471.38" y="174" class="value">99.79</text>
<text x="10" y="206" class="label">ea.com</text>
<rect x="180" y="190" width="287.93" height="22" fill="#4c78a8" rx="3"/>
<text x="475.93" y="206" class="value">101.39</text>
<text x="10" y="238" class="label">blizzard.com</text>
<rect x="180" y="222" width="309.79" height="22" fill="#4c78a8" rx="3"/>
<text x="497.79" y="238" class="value">109.09</text>
<text x="10" y="270" class="label">ubi.com</text>
<rect x="180" y="254" width="317.23" height="22" fill="#4c78a8" rx="3"/>
<text x="505.23" y="270" class="value">111.71</text>
<text x="10" y="302" class="label">cdn.akamai.steamstatic.com</text>
<rect x="180" y="286" width="357.59" height="22" fill="#4c78a8" rx="3"/>
<text x="545.5899999999999" y="302" class="value">125.92</text>
<text x="10" y="334" class="label">battle.net</text>
<rect x="180" y="318" width="385.28" height="22" fill="#4c78a8" rx="3"/>
<text x="573.28" y="334" class="value">135.67</text>
<text x="10" y="366" class="label">fortnite.com</text>
<rect x="180" y="350" width="403.36" height="22" fill="#4c78a8" rx="3"/>
<text x="591.36" y="366" class="value">142.04</text>
<text x="10" y="398" class="label">community.akamai.steamstatic.com</text>
<rect x="180" y="382" width="443.07" height="22" fill="#4c78a8" rx="3"/>
<text x="631.0699999999999" y="398" class="value">156.02</text>
<text x="10" y="430" class="label">launcher-public-service-prod06.ol.epicgames.com</text>
<rect x="180" y="414" width="496.2" height="22" fill="#4c78a8" rx="3"/>
<text x="684.2" y="430" class="value">174.73</text>
<text x="10" y="462" class="label">cdn.cloudflare.steamstatic.com</text>
<rect x="180" y="446" width="516.7" height="22" fill="#4c78a8" rx="3"/>
<text x="704.7" y="462" class="value">181.95</text>
<text x="10" y="494" class="label">epicgames.com</text>
<rect x="180" y="478" width="580.0" height="22" fill="#4c78a8" rx="3"/>
<text x="768.0" y="494" class="value">204.24</text>
<line x1="180" y1="30" x2="180" y2="520" stroke="#ccc"/>
<line x1="180" y1="520" x2="760" y2="520" stroke="#ccc"/>
</svg>