<svg xmlns="http://www.w3.org/2000/svg" width="800" height="540">
<style> .label{font-family:DejaVu Sans,Verdana,Geneva,sans-serif;font-size:12px;fill:#333} .value{font-family:DejaVu Sans,Verdana,Geneva,sans-serif;font-size:12px;fill:#555} </style>
<text x="10" y="20" class="label">延迟柱状图（越低越好，Top 15），单位 ms</text>
<text x="10" y="46" class="label">community.akamai.steamstatic.com</text>
<rect x="180" y="30" width="296.66" height="22" fill="#4c78a8" rx="3"/>
<text x="484.66" y="46" class="value">109.72</text>
<text x="10" y="78" class="label">ubisoft.com</text>
<rect x="180" y="62" width="379.78" height="22" fill="#4c78a8" rx="3"/>
<text x="567.78" y="78" class="value">140.46</text>
<text x="10" y="110" class="label">eaassets-a.akamaihd.net</text>
<rect x="180" y="94" width="384.24" height="22" fill="#4c78a8" rx="3"/>
<text x="572.24" y="110" class="value">142.11</text>
<text x="10" y="142" class="label">steamcdn-a.akamaihd.net</text>
<rect x="180" y="126" width="418.53" height="22" fill="#4c78a8" rx="3"/>
<text x="606.53" y="142" class="value">154.79</text>
<text x="10" y="174" class="label">cdn.cloudflare.steamstatic.com</text>
<rect x="180" y="158" width="429.83" height="22" fill="#4c78a8" rx="3"/>
<text x="617.8299999999999" y="174" class="value">158.97</text>
<text x="10" y="206" class="label">store.akamai.steamstatic.com</text>
<rect x="180" y="190" width="467.33" height="22" fill="#4c78a8" rx="3"/>
<text x="655.3299999999999" y="206" class="value">172.84</text>
<text x="10" y="238" class="label">ea.com</text>
<rect x="180" y="222" width="473.31" height="22" fill="#4c78a8" rx="3"/>
<text x="661.31" y="238" class="value">175.05</text>
<text x="10" y="270" class="label">rockstargames.com</text>
<rect x="180" y="254" width="502.02" height="22" fill="#4c78a8" rx="3"/>
<text x="690.02" y="270" class="value">185.67</text>
<text x="10" y="302" class="label">api.steampowered.com</text>
<rect x="180" y="286" width="502.26" height="22" fill="#4c78a8" rx="3"/>
<text x="690.26" y="302" class="value">185.76</text>
<text x="10" y="334" class="label">steam-chat.com</text>
<rect x="180" y="318" width="527.09" height="22" fill="#4c78a8" rx="3"/>
<text x="715.09" y="334" class="value">194.94</text>
<text x="10" y="366" class="label">battle.net</text>
<rect x="180" y="350" width="533.6" height="22" fill="#4c78a8" rx="3"/>
<text x="721.6" y="366" class="value">197.35</text>
<text x="10" y="398" class="label">easyanticheat.net</text>
<rect x="180" y="382" width="537.25" height="22" fill="#4c78a8" rx="3"/>
<text x="725.25" y="398" class="value">198.70</text>
<text x="10" y="430" class="label">www.steamcommunity.com</text>
<rect x="180" y="414" width="541.09" height="22" fill="#4c78a8" rx="3"/>
<text x="729.09" y="430" class="value">200.12</text>
<text x="10" y="462" class="label">blizzard.com</text>
<rect x="180" y="446" width="541.09" height="22" fill="#4c78a8" rx="3"/>
<text x="729.09" y="462" class="value">200.12</text>
<text x="10" y="494" class="label">ubi.com</text>
<rect x="180" y="478" width="580.0" height="22" fill="#4c78a8" rx="3"/>
<text x="768.0" y="494" class="value">214.51</text>
<line x1="180" y1="30" x2="180" y2="520" stroke="#ccc"/>
<line x1="180" y1="520" x2="760" y2="520" stroke="#ccc"/>
</svg>