<svg xmlns="http://www.w3.org/2000/svg" width="800" height="540">
<style> .label{font-family:DejaVu Sans,Verdana,Geneva,sans-serif;font-size:12px;fill:#333} .value{font-family:DejaVu Sans,Verdana,Geneva,sans-serif;font-size:12px;fill:#555} </style>
<text x="10" y="20" class="label">延迟柱状图（越低越好，Top 15），单位 ms</text>
<text x="10" y="46" class="label">eaassets-a.akamaihd.net</text>
<rect x="180" y="30" width="172.65" height="22" fill="#4c78a8" rx="3"/>
<text x="360.65" y="46" class="value">66.38</text>
<text x="10" y="78" class="label">rockstargames.com</text>
<rect x="180" y="62" width="202.43" height="22" fill="#4c78a8" rx="3"/>
<text x="390.43" y="78" class="value">77.83</text>
<text x="10" y="110" class="label">community.akamai.steamstatic.com</text>
<rect x="180" y="94" width="235.95" height="22" fill="#4c78a8" rx="3"/>
<text x="423.95" y="110" class="value">90.72</text>
<text x="10" y="142" class="label">ea.com</text>
<rect x="180" y="126" width="252.68" height="22" fill="#4c78a8" rx="3"/>
<text x="440.68" y="142" class="value">97.15</text>
<text x="10" y="174" class="label">socialclub.rockstargames.com</text>
<rect x="180" y="158" width="328.21" height="22" fill="#4c78a8" rx="3"/>
<text x="516.21" y="174" class="value">126.19</text>
<text x="10" y="206" class="label">ubi.com</text>
<rect x="180" y="190" width="352.53" height="22" fill="#4c78a8" rx="3"/>
<text x="540.53" y="206" class="value">135.54</text>
<text x="10" y="238" class="label">battle.net</text>
<rect x="180" y="222" width="368.16" height="22" fill="#4c78a8" rx="3"/>
<text x="556.1600000000001" y="238" class="value">141.55</text>
<text x="10" y="270" class="label">static3.cdn.ubi.com</text>
<rect x="180" y="254" width="383.71" height="22" fill="#4c78a8" rx="3"/>
<text x="571.71" y="270" class="value">147.53</text>
<text x="10" y="302" class="label">blizzard.com</text>
<rect x="180" y="286" width="391.8" height="22" fill="#4c78a8" rx="3"/>
<text x="579.8" y="302" class="value">150.64</text>
<text x="10" y="334" class="label">steamcdn-a.akamaihd.net</text>
<rect x="180" y="318" width="392.84" height="22" fill="#4c78a8" rx="3"/>
<text x="580.8399999999999" y="334" class="value">151.04</text>
<text x="10" y="366" class="label">ubisoft.com</text>
<rect x="180" y="350" width="433.67" height="22" fill="#4c78a8" rx="3"/>
<text x="621.6700000000001" y="366" class="value">166.74</text>
<text x="10" y="398" class="label">easyanticheat.net</text>
<rect x="180" y="382" width="488.89" height="22" fill="#4c78a8" rx="3"/>
<text x="676.89" y="398" class="value">187.97</text>
<text x="10" y="430" class="label">store.akamai.steamstatic.com</text>
<rect x="180" y="414" width="561.69" height="22" fill="#4c78a8" rx="3"/>
<text x="749.69" y="430" class="value">215.96</text>
<text x="10" y="462" class="label">origin.com</text>
<rect x="180" y="446" width="578.78" height="22" fill="#4c78a8" rx="3"/>
<text x="766.78" y="462" class="value">222.53</text>
<text x="10" y="494" class="label">api.steampowered.com</text>
<rect x="180" y="478" width="580.0" height="22" fill="#4c78a8" rx="3"/>
<text x="768.0" y="494" class="value">223.00</text>
<line x1="180" y1="30" x2="180" y2="520" stroke="#ccc"/>
<line x1="180" y1="520" x2="760" y2="520" stroke="#ccc"/>
</svg>