<svg xmlns="http://www.w3.org/2000/svg" width="800" height="540">
<style> .label{font-family:DejaVu Sans,Verdana,Geneva,sans-serif;font-size:12px;fill:#333} .value{font-family:DejaVu Sans,Verdana,Geneva,sans-serif;font-size:12px;fill:#555} </style>
<text x="10" y="20" class="label">延迟柱状图（越低越好，Top 15），单位 ms</text>
<text x="10" y="46" class="label">rockstargames.com</text>
<rect x="180" y="30" width="210.5" height="22" fill="#4c78a8" rx="3"/>
<text x="398.5" y="46" class="value">90.56</text>
<text x="10" y="78" class="label">cdn.akamai.steamstatic.com</text>
<rect x="180" y="62" width="249.04" height="22" fill="#4c78a8" rx="3"/>
<text x="437.03999999999996" y="78" class="value">107.14</text>
<text x="10" y="110" class="label">ubisoft.com</text>
<rect x="180" y="94" width="288.07" height="22" fill="#4c78a8" rx="3"/>
<text x="476.07" y="110" class="value">123.93</text>
<text x="10" y="142" class="label">eaassets-a.akamaihd.net</text>
<rect x="180" y="126" width="320.82" height="22" fill="#4c78a8" rx="3"/>
<text x="508.82" y="142" class="value">138.02</text>
<text x="10" y="174" class="label">battle.net</text>
<rect x="180" y="158" width="364.96" height="22" fill="#4c78a8" rx="3"/>
<text x="552.96" y="174" class="value">157.01</text>
<text x="10" y="206" class="label">easyanticheat.net</text>
<rect x="180" y="190" width="376.75" height="22" fill="#4c78a8" rx="3"/>
<text x="564.75" y="206" class="value">162.08</text>
<text x="10" y="238" class="label">ubi.com</text>
<rect x="180" y="222" width="402.46" height="22" fill="#4c78a8" rx="3"/>
<text x="590.46" y="238" class="value">173.14</text>
<text x="10" y="270" class="label">blizzard.com</text>
<rect x="180" y="254" width="406.41" height="22" fill="#4c78a8" rx="3"/>
<text x="594.4100000000001" y="270" class="value">174.84</text>
<text x="10" y="302" class="label">ea.com</text>
<rect x="180" y="286" width="448.11" height="22" fill="#4c78a8" rx="3"/>
<text x="636.11" y="302" class="value">192.78</text>
<text x="10" y="334" class="label">steamcdn-a.akamaihd.net</text>
<rect x="180" y="318" width="478.79" height="22" fill="#4c78a8" rx="3"/>
<text x="666.79" y="334" class="value">205.98</text>
<text x="10" y="366" class="label">socialclub.rockstargames.com</text>
<rect x="180" y="350" width="482.51" height="22" fill="#4c78a8" rx="3"/>
<text x="670.51" y="366" class="value">207.58</text>
<text x="10" y="398" class="label">store.akamai.steamstatic.com</text>
<rect x="180" y="382" width="491.37" height="22" fill="#4c78a8" rx="3"/>
<text x="679.37" y="398" class="value">211.39</text>
<text x="10" y="430" class="label">steam-chat.com</text>
<rect x="180" y="414" width="556.5" height="22" fill="#4c78a8" rx="3"/>
<text x="744.5" y="430" class="value">239.41</text>
<text x="10" y="462" class="label">epicgames.com</text>
<rect x="180" y="446" width="562.94" height="22" fill="#4c78a8" rx="3"/>
<text x="750.94" y="462" class="value">242.18</text>
<text x="10" y="494" class="label">www.steamcommunity.com</text>
<rect x="180" y="478" width="580.0" height="22" fill="#4c78a8" rx="3"/>
<text x="768.0" y="494" class="value">249.52</text>
<line x1="180" y1="30" x2="180" y2="520" stroke="#ccc"/>
<line x1="180" y1="520" x2="760" y2="520" stroke="#ccc"/>
</svg>