<svg xmlns="http://www.w3.org/2000/svg" width="800" height="540">
<style> .label{font-family:DejaVu Sans,Verdana,Geneva,sans-serif;font-size:12px;fill:#333} .value{font-family:DejaVu Sans,Verdana,Geneva,sans-serif;font-size:12px;fill:#555} </style>
<text x="10" y="20" class="label">延迟柱状图（越低越好，Top 15），单位 ms</text>
<text x="10" y="46" class="label">ea.com</text>
<rect x="180" y="30" width="244.21" height="22" fill="#4c78a8" rx="3"/>
<text x="432.21000000000004" y="46" class="value">148.45</text>
<text x="10" y="78" class="label">community.akamai.steamstatic.com</text>
<rect x="180" y="62" width="267.19" height="22" fill="#4c78a8" rx="3"/>
<text x="455.19" y="78" class="value">162.42</text>
<text x="10" y="110" class="label">eaassets-a.akamaihd.net</text>
<rect x="180" y="94" width="271.75" height="22" fill="#4c78a8" rx="3"/>
<text x="459.75" y="110" class="value">165.19</text>
<text x="10" y="142" class="label">ubisoft.com</text>
<rect x="180" y="126" width="289.45" height="22" fill="#4c78a8" rx="3"/>
<text x="477.45" y="142" class="value">175.95</text>
<text x="10" y="174" class="label">rockstargames.com</text>
<rect x="180" y="158" width="313.24" height="22" fill="#4c78a8" rx="3"/>
<text x="501.24" y="174" class="value">190.41</text>
<text x="10" y="206" class="label">origin.com</text>
<rect x="180" y="190" width="316.69" height="22" fill="#4c78a8" rx="3"/>
<text x="504.69" y="206" class="value">192.51</text>
<text x="10" y="238" class="label">battle.net</text>
<rect x="180" y="222" width="351.22" height="22" fill="#4c78a8" rx="3"/>
<text x="539.22" y="238" class="value">213.50</text>
<text x="10" y="270" class="label">blizzard.com</text>
<rect x="180" y="254" width="357.39" height="22" fill="#4c78a8" rx="3"/>
<text x="545.39" y="270" class="value">217.25</text>
<text x="10" y="302" class="label">ubi.com</text>
<rect x="180" y="286" width="368.35" height="22" fill="#4c78a8" rx="3"/>
<text x="556.35" y="302" class="value">223.91</text>
<text x="10" y="334" class="label">steamcommunity.com</text>
<rect x="180" y="318" width="406.15" height="22" fill="#4c78a8" rx="3"/>
<text x="594.15" y="334" class="value">246.89</text>
<text x="10" y="366" class="label">easyanticheat.net</text>
<rect x="180" y="350" width="410.71" height="22" fill="#4c78a8" rx="3"/>
<text x="598.71" y="366" class="value">249.66</text>
<text x="10" y="398" class="label">api.steampowered.com</text>
<rect x="180" y="382" width="431.7" height="22" fill="#4c78a8" rx="3"/>
<text x="619.7" y="398" class="value">262.42</text>
<text x="10" y="430" class="label">socialclub.rockstargames.com</text>
<rect x="180" y="414" width="442.93" height="22" fill="#4c78a8" rx="3"/>
<text x="630.9300000000001" y="430" class="value">269.25</text>
<text x="10" y="462" class="label">cdn.cloudflare.steamstatic.com</text>
<rect x="180" y="446" width="463.46" height="22" fill="#4c78a8" rx="3"/>
<text x="651.46" y="462" class="value">281.73</text>
<text x="10" y="494" class="label">www.steamcommunity.com</text>
<rect x="180" y="478" width="580.0" height="22" fill="#4c78a8" rx="3"/>
<text x="768.0" y="494" class="value">352.57</text>
<line x1="180" y1="30" x2="180" y2="520" stroke="#ccc"/>
<line x1="180" y1="520" x2="760" y2="520" stroke="#ccc"/>
</svg>