<svg xmlns="http://www.w3.org/2000/svg" width="800" height="540">
<style> .label{font-family:DejaVu Sans,Verdana,Geneva,sans-serif;font-size:12px;fill:#333} .value{font-family:DejaVu Sans,Verdana,Geneva,sans-serif;font-size:12px;fill:#555} </style>
<text x="10" y="20" class="label">延迟柱状图（越低越好，Top 15），单位 ms</text>
<text x="10" y="46" class="label">rockstargames.com</text>
<rect x="180" y="30" width="175.32" height="22" fill="#4c78a8" rx="3"/>
<text x="363.32" y="46" class="value">61.40</text>
<text x="10" y="78" class="label">ubi.com</text>
<rect x="180" y="62" width="216.35" height="22" fill="#4c78a8" rx="3"/>
<text x="404.35" y="78" class="value">75.77</text>
<text x="10" y="110" class="label">socialclub.rockstargames.com</text>
<rect x="180" y="94" width="234.05" height="22" fill="#4c78a8" rx="3"/>
<text x="422.05" y="110" class="value">81.97</text>
<text x="10" y="142" class="label">blizzard.com</text>
<rect x="180" y="126" width="238.5" height="22" fill="#4c78a8" rx="3"/>
<text x="426.5" y="142" class="value">83.53</text>
<text x="10" y="174" class="label">eaassets-a.akamaihd.net</text>
<rect x="180" y="158" width="271.57" height="22" fill="#4c78a8" rx="3"/>
<text x="459.57" y="174" class="value">95.11</text>
<text x="10" y="206" class="label">epicgames.com</text>
<rect x="180" y="190" width="275.71" height="22" fill="#4c78a8" rx="3"/>
<text x="463.71" y="206" class="value">96.56</text>
<text x="10" y="238" class="label">battle.net</text>
<rect x="180" y="222" width="314.51" height="22" fill="#4c78a8" rx="3"/>
<text x="502.51" y="238" class="value">110.15</text>
<text x="10" y="270" class="label">origin.com</text>
<rect x="180" y="254" width="337.27" height="22" fill="#4c78a8" rx="3"/>
<text x="525.27" y="270" class="value">118.12</text>
<text x="10" y="302" class="label">ea.com</text>
<rect x="180" y="286" width="447.31" height="22" fill="#4c78a8" rx="3"/>
<text x="635.31" y="302" class="value">156.66</text>
<text x="10" y="334" class="label">fortnite.com</text>
<rect x="180" y="318" width="495.51" height="22" fill="#4c78a8" rx="3"/>
<text x="683.51" y="334" class="value">173.54</text>
<text x="10" y="366" class="label">cdn.cloudflare.steamstatic.com</text>
<rect x="180" y="350" width="528.92" height="22" fill="#4c78a8" rx="3"/>
<text x="716.92" y="366" class="value">185.24</text>
<text x="10" y="398" class="label">unrealengine.com</text>
<rect x="180" y="382" width="547.71" height="22" fill="#4c78a8" rx="3"/>
<text x="735.71" y="398" class="value">191.82</text>
<text x="10" y="430" class="label">store.akamai.steamstatic.com</text>
<rect x="180" y="414" width="547.76" height="22" fill="#4c78a8" rx="3"/>
<text x="735.76" y="430" class="value">191.84</text>
<text x="10" y="462" class="label">ubisoft.com</text>
<rect x="180" y="446" width="576.37" height="22" fill="#4c78a8" rx="3"/>
<text x="764.37" y="462" class="value">201.86</text>
<text x="10" y="494" class="label">community.akamai.steamstatic.com</text>
<rect x="180" y="478" width="580.0" height="22" fill="#4c78a8" rx="3"/>
<text x="768.0" y="494" class="value">203.13</text>
<line x1="180" y1="30" x2="180" y2="520" stroke="#ccc"/>
<line x1="180" y1="520" x2="760" y2="520" stroke="#ccc"/>
</svg>