<svg xmlns="http://www.w3.org/2000/svg" width="800" height="540">
<style> .label{font-family:DejaVu Sans,Verdana,Geneva,sans-serif;font-size:12px;fill:#333} .value{font-family:DejaVu Sans,Verdana,Geneva,sans-serif;font-size:12px;fill:#555} </style>
<text x="10" y="20" class="label">延迟柱状图（越低越好，Top 15），单位 ms</text>
<text x="10" y="46" class="label">rockstargames.com</text>
<rect x="180" y="30" width="235.2" height="22" fill="#4c78a8" rx="3"/>
<text x="423.2" y="46" class="value">83.31</text>
<text x="10" y="78" class="label">blizzard.com</text>
<rect x="180" y="62" width="249.77" height="22" fill="#4c78a8" rx="3"/>
<text x="437.77" y="78" class="value">88.47</text>
<text x="10" y="110" class="label">eaassets-a.akamaihd.net</text>
<rect x="180" y="94" width="268.74" height="22" fill="#4c78a8" rx="3"/>
<text x="456.74" y="110" class="value">95.19</text>
<text x="10" y="142" class="label">steamcdn-a.akamaihd.net</text>
<rect x="180" y="126" width="270.58" height="22" fill="#4c78a8" rx="3"/>
<text x="458.58" y="142" class="value">95.84</text>
<text x="10" y="174" class="label">ubi.com</text>
<rect x="180" y="158" width="288.11" height="22" fill="#4c78a8" rx="3"/>
<text x="476.11" y="174" class="value">102.05</text>
<text x="10" y="206" class="label">socialclub.rockstargames.com</text>
<rect x="180" y="190" width="310.41" height="22" fill="#4c78a8" rx="3"/>
<text x="498.41" y="206" class="value">109.95</text>
<text x="10" y="238" class="label">battle.net</text>
<rect x="180" y="222" width="363.97" height="22" fill="#4c78a8" rx="3"/>
<text x="551.97" y="238" class="value">128.92</text>
<text x="10" y="270" class="label">ubisoft.com</text>
<rect x="180" y="254" width="371.7" height="22" fill="#4c78a8" rx="3"/>
<text x="559.7" y="270" class="value">131.66</text>
<text x="10" y="302" class="label">ea.com</text>
<rect x="180" y="286" width="446.04" height="22" fill="#4c78a8" rx="3"/>
<text x="634.04" y="302" class="value">157.99</text>
<text x="10" y="334" class="label">fortnite.com</text>
<rect x="180" y="318" width="457.87" height="22" fill="#4c78a8" rx="3"/>
<text x="645.87" y="334" class="value">162.18</text>
<text x="10" y="366" class="label">store.akamai.steamstatic.com</text>
<rect x="180" y="350" width="458.01" height="22" fill="#4c78a8" rx="3"/>
<text x="646.01" y="366" class="value">162.23</text>
<text x="10" y="398" class="label">unrealengine.com</text>
<rect x="180" y="382" width="487.74" height="22" fill="#4c78a8" rx="3"/>
<text x="675.74" y="398" class="value">172.76</text>
<text x="10" y="430" class="label">community.akamai.steamstatic.com</text>
<rect x="180" y="414" width="518.17" height="22" fill="#4c78a8" rx="3"/>
<text x="706.17" y="430" class="value">183.54</text>
<text x="10" y="462" class="label">epicgames.com</text>
<rect x="180" y="446" width="538.98" height="22" fill="#4c78a8" rx="3"/>
<text x="726.98" y="462" class="value">190.91</text>
<text x="10" y="494" class="label">easyanticheat.net</text>
<rect x="180" y="478" width="580.0" height="22" fill="#4c78a8" rx="3"/>
<text x="768.0" y="494" class="value">205.44</text>
<line x1="180" y1="30" x2="180" y2="520" stroke="#ccc"/>
<line x1="180" y1="520" x2="760" y2="520" stroke="#ccc"/>
</svg>