<svg xmlns="http://www.w3.org/2000/svg" width="800" height="540">
<style> .label{font-family:DejaVu Sans,Verdana,Geneva,sans-serif;font-size:12px;fill:#333} .value{font-family:DejaVu Sans,Verdana,Geneva,sans-serif;font-size:12px;fill:#555} </style>
<text x="10" y="20" class="label">延迟柱状图（越低越好，Top 15），单位 ms</text>
<text x="10" y="46" class="label">blizzard.com</text>
<rect x="180" y="30" width="124.36" height="22" fill="#4c78a8" rx="3"/>
<text x="312.36" y="46" class="value">50.92</text>
<text x="10" y="78" class="label">fortnite.com</text>
<rect x="180" y="62" width="168.4" height="22" fill="#4c78a8" rx="3"/>
<text x="356.4" y="78" class="value">68.95</text>
<text x="10" y="110" class="label">eaassets-a.akamaihd.net</text>
<rect x="180" y="94" width="190.04" height="22" fill="#4c78a8" rx="3"/>
<text x="378.03999999999996" y="110" class="value">77.81</text>
<text x="10" y="142" class="label">battle.net</text>
<rect x="180" y="126" width="225.82" height="22" fill="#4c78a8" rx="3"/>
<text x="413.82" y="142" class="value">92.46</text>
<text x="10" y="174" class="label">ubi.com</text>
<rect x="180" y="158" width="229.04" height="22" fill="#4c78a8" rx="3"/>
<text x="417.03999999999996" y="174" class="value">93.78</text>
<text x="10" y="206" class="label">rockstargames.com</text>
<rect x="180" y="190" width="243.99" height="22" fill="#4c78a8" rx="3"/>
<text x="431.99" y="206" class="value">99.90</text>
<text x="10" y="238" class="label">ea.com</text>
<rect x="180" y="222" width="272.61" height="22" fill="#4c78a8" rx="3"/>
<text x="460.61" y="238" class="value">111.62</text>
<text x="10" y="270" class="label">socialclub.rockstargames.com</text>
<rect x="180" y="254" width="303.38" height="22" fill="#4c78a8" rx="3"/>
<text x="491.38" y="270" class="value">124.22</text>
<text x="10" y="302" class="label">epicgames.com</text>
<rect x="180" y="286" width="412.24" height="22" fill="#4c78a8" rx="3"/>
<text x="600.24" y="302" class="value">168.79</text>
<text x="10" y="334" class="label">ubisoft.com</text>
<rect x="180" y="318" width="492.79" height="22" fill="#4c78a8" rx="3"/>
<text x="680.79" y="334" class="value">201.77</text>
<text x="10" y="366" class="label">unrealengine.com</text>
<rect x="180" y="350" width="541.19" height="22" fill="#4c78a8" rx="3"/>
<text x="729.19" y="366" class="value">221.59</text>
<text x="10" y="398" class="label">cdn.cloudflare.steamstatic.com</text>
<rect x="180" y="382" width="542.9" height="22" fill="#4c78a8" rx="3"/>
<text x="730.9" y="398" class="value">222.29</text>
<text x="10" y="430" class="label">origin.com</text>
<rect x="180" y="414" width="561.17" height="22" fill="#4c78a8" rx="3"/>
<text x="749.17" y="430" class="value">229.77</text>
<text x="10" y="462" class="label">community.akamai.steamstatic.com</text>
<rect x="180" y="446" width="562.24" height="22" fill="#4c78a8" rx="3"/>
<text x="750.24" y="462" class="value">230.21</text>
<text x="10" y="494" class="label">easyanticheat.net</text>
<rect x="180" y="478" width="580.0" height="22" fill="#4c78a8" rx="3"/>
<text x="768.0" y="494" class="value">237.48</text>
<line x1="180" y1="30" x2="180" y2="520" stroke="#ccc"/>
<line x1="180" y1="520" x2="760" y2="520" stroke="#ccc"/>
</svg>