<svg xmlns="http://www.w3.org/2000/svg" width="800" height="540">
<style> .label{font-family:DejaVu Sans,Verdana,Geneva,sans-serif;font-size:12px;fill:#333} .value{font-family:DejaVu Sans,Verdana,Geneva,sans-serif;font-size:12px;fill:#555} </style>
<text x="10" y="20" class="label">延迟柱状图（越低越好，Top 15），单位 ms</text>
<text x="10" y="46" class="label">eaassets-a.akamaihd.net</text>
<rect x="180" y="30" width="324.41" height="22" fill="#4c78a8" rx="3"/>
<text x="512.4100000000001" y="46" class="value">137.12</text>
<text x="10" y="78" class="label">rockstargames.com</text>
<rect x="180" y="62" width="332.57" height="22" fill="#4c78a8" rx="3"/>
<text x="520.5699999999999" y="78" class="value">140.57</text>
<text x="10" y="110" class="label">ubisoft.com</text>
<rect x="180" y="94" width="333.33" height="22" fill="#4c78a8" rx="3"/>
<text x="521.3299999999999" y="110" class="value">140.89</text>
<text x="10" y="142" class="label">store.akamai.steamstatic.com</text>
<rect x="180" y="126" width="383.18" height="22" fill="#4c78a8" rx="3"/>
<text x="571.1800000000001" y="142" class="value">161.96</text>
<text x="10" y="174" class="label">origin.com</text>
<rect x="180" y="158" width="388.48" height="22" fill="#4c78a8" rx="3"/>
<text x="576.48" y="174" class="value">164.20</text>
<text x="10" y="206" class="label">cdn.cloudflare.steamstatic.com</text>
<rect x="180" y="190" width="389.45" height="22" fill="#4c78a8" rx="3"/>
<text x="577.45" y="206" class="value">164.61</text>
<text x="10" y="238" class="label">www.steamcommunity.com</text>
<rect x="180" y="222" width="423.87" height="22" fill="#4c78a8" rx="3"/>
<text x="611.87" y="238" class="value">179.16</text>
<text x="10" y="270" class="label">ea.com</text>
<rect x="180" y="254" width="451.67" height="22" fill="#4c78a8" rx="3"/>
<text x="639.6700000000001" y="270" class="value">190.91</text>
<text x="10" y="302" class="label">easyanticheat.net</text>
<rect x="180" y="286" width="464.85" height="22" fill="#4c78a8" rx="3"/>
<text x="652.85" y="302" class="value">196.48</text>
<text x="10" y="334" class="label">community.akamai.steamstatic.com</text>
<rect x="180" y="318" width="490.85" height="22" fill="#4c78a8" rx="3"/>
<text x="678.85" y="334" class="value">207.47</text>
<text x="10" y="366" class="label">steamcdn-a.akamaihd.net</text>
<rect x="180" y="350" width="513.87" height="22" fill="#4c78a8" rx="3"/>
<text x="701.87" y="366" class="value">217.20</text>
<text x="10" y="398" class="label">ubi.com</text>
<rect x="180" y="382" width="529.13" height="22" fill="#4c78a8" rx="3"/>
<text x="717.13" y="398" class="value">223.65</text>
<text x="10" y="430" class="label">steamcommunity.com</text>
<rect x="180" y="414" width="567.2" height="22" fill="#4c78a8" rx="3"/>
<text x="755.2" y="430" class="value">239.74</text>
<text x="10" y="462" class="label">socialclub.rockstargames.com</text>
<rect x="180" y="446" width="568.9" height="22" fill="#4c78a8" rx="3"/>
<text x="756.9" y="462" class="value">240.46</text>
<text x="10" y="494" class="label">steam-chat.com</text>
<rect x="180" y="478" width="580.0" height="22" fill="#4c78a8" rx="3"/>
<text x="768.0" y="494" class="value">245.15</text>
<line x1="180" y1="30" x2="180" y2="520" stroke="#ccc"/>
<line x1="180" y1="520" x2="760" y2="520" stroke="#ccc"/>
</svg>