<svg xmlns="http://www.w3.org/2000/svg" width="800" height="540">
<style> .label{font-family:DejaVu Sans,Verdana,Geneva,sans-serif;font-size:12px;fill:#333} .value{font-family:DejaVu Sans,Verdana,Geneva,sans-serif;font-size:12px;fill:#555} </style>
<text x="10" y="20" class="label">延迟柱状图（越低越好，Top 15），单位 ms</text>
<text x="10" y="46" class="label">ea.com</text>
<rect x="180" y="30" width="240.88" height="22" fill="#4c78a8" rx="3"/>
<text x="428.88" y="46" class="value">135.11</text>
<text x="10" y="78" class="label">eaassets-a.akamaihd.net</text>
<rect x="180" y="62" width="260.28" height="22" fill="#4c78a8" rx="3"/>
<text x="448.28" y="78" class="value">145.99</text>
<text x="10" y="110" class="label">ubisoft.com</text>
<rect x="180" y="94" width="272.08" height="22" fill="#4c78a8" rx="3"/>
<text x="460.08" y="110" class="value">152.61</text>
<text x="10" y="142" class="label">store.akamai.steamstatic.com</text>
<rect x="180" y="126" width="302.62" height="22" fill="#4c78a8" rx="3"/>
<text x="490.62" y="142" class="value">169.74</text>
<text x="10" y="174" class="label">rockstargames.com</text>
<rect x="180" y="158" width="340.4" height="22" fill="#4c78a8" rx="3"/>
<text x="528.4" y="174" class="value">190.93</text>
<text x="10" y="206" class="label">cdn.cloudflare.steamstatic.com</text>
<rect x="180" y="190" width="427.05" height="22" fill="#4c78a8" rx="3"/>
<text x="615.05" y="206" class="value">239.53</text>
<text x="10" y="238" class="label">steamcdn-a.akamaihd.net</text>
<rect x="180" y="222" width="430.13" height="22" fill="#4c78a8" rx="3"/>
<text x="618.13" y="238" class="value">241.26</text>
<text x="10" y="270" class="label">ubi.com</text>
<rect x="180" y="254" width="472.26" height="22" fill="#4c78a8" rx="3"/>
<text x="660.26" y="270" class="value">264.89</text>
<text x="10" y="302" class="label">socialclub.rockstargames.com</text>
<rect x="180" y="286" width="478.54" height="22" fill="#4c78a8" rx="3"/>
<text x="666.54" y="302" class="value">268.41</text>
<text x="10" y="334" class="label">community.akamai.steamstatic.com</text>
<rect x="180" y="318" width="480.68" height="22" fill="#4c78a8" rx="3"/>
<text x="668.6800000000001" y="334" class="value">269.61</text>
<text x="10" y="366" class="label">easyanticheat.net</text>
<rect x="180" y="350" width="538.64" height="22" fill="#4c78a8" rx="3"/>
<text x="726.64" y="366" class="value">302.12</text>
<text x="10" y="398" class="label">cdn.akamai.steamstatic.com</text>
<rect x="180" y="382" width="544.11" height="22" fill="#4c78a8" rx="3"/>
<text x="732.11" y="398" class="value">305.19</text>
<text x="10" y="430" class="label">steamcommunity.com</text>
<rect x="180" y="414" width="555.09" height="22" fill="#4c78a8" rx="3"/>
<text x="743.09" y="430" class="value">311.35</text>
<text x="10" y="462" class="label">origin.com</text>
<rect x="180" y="446" width="576.9" height="22" fill="#4c78a8" rx="3"/>
<text x="764.9" y="462" class="value">323.58</text>
<text x="10" y="494" class="label">epicgames.com</text>
<rect x="180" y="478" width="580.0" height="22" fill="#4c78a8" rx="3"/>
<text x="768.0" y="494" class="value">325.32</text>
<line x1="180" y1="30" x2="180" y2="520" stroke="#ccc"/>
<line x1="180" y1="520" x2="760" y2="520" stroke="#ccc"/>
</svg>