<svg xmlns="http://www.w3.org/2000/svg" width="800" height="540">
<style> .label{font-family:DejaVu Sans,Verdana,Geneva,sans-serif;font-size:12px;fill:#333} .value{font-family:DejaVu Sans,Verdana,Geneva,sans-serif;font-size:12px;fill:#555} </style>
<text x="10" y="20" class="label">延迟柱状图（越低越好，Top 15），单位 ms</text>
<text x="10" y="46" class="label">ea.com</text>
<rect x="180" y="30" width="295.31" height="22" fill="#4c78a8" rx="3"/>
<text x="483.31" y="46" class="value">130.14</text>
<text x="10" y="78" class="label">eaassets-a.akamaihd.net</text>
<rect x="180" y="62" width="313.76" height="22" fill="#4c78a8" rx="3"/>
<text x="501.76" y="78" class="value">138.27</text>
<text x="10" y="110" class="label">ubisoft.com</text>
<rect x="180" y="94" width="323.36" height="22" fill="#4c78a8" rx="3"/>
<text x="511.36" y="110" class="value">142.50</text>
<text x="10" y="142" class="label">rockstargames.com</text>
<rect x="180" y="126" width="344.89" height="22" fill="#4c78a8" rx="3"/>
<text x="532.89" y="142" class="value">151.99</text>
<text x="10" y="174" class="label">cdn.akamai.steamstatic.com</text>
<rect x="180" y="158" width="371.55" height="22" fill="#4c78a8" rx="3"/>
<text x="559.55" y="174" class="value">163.74</text>
<text x="10" y="206" class="label">easyanticheat.net</text>
<rect x="180" y="190" width="474.08" height="22" fill="#4c78a8" rx="3"/>
<text x="662.0799999999999" y="206" class="value">208.92</text>
<text x="10" y="238" class="label">steamcdn-a.akamaihd.net</text>
<rect x="180" y="222" width="494.59" height="22" fill="#4c78a8" rx="3"/>
<text x="682.5899999999999" y="238" class="value">217.96</text>
<text x="10" y="270" class="label">blizzard.com</text>
<rect x="180" y="254" width="507.0" height="22" fill="#4c78a8" rx="3"/>
<text x="695.0" y="270" class="value">223.43</text>
<text x="10" y="302" class="label">launcher-public-service-prod06.ol.epicgames.com</text>
<rect x="180" y="286" width="510.88" height="22" fill="#4c78a8" rx="3"/>
<text x="698.88" y="302" class="value">225.14</text>
<text x="10" y="334" class="label">origin.com</text>
<rect x="180" y="318" width="532.14" height="22" fill="#4c78a8" rx="3"/>
<text x="720.14" y="334" class="value">234.51</text>
<text x="10" y="366" class="label">battle.net</text>
<rect x="180" y="350" width="538.32" height="22" fill="#4c78a8" rx="3"/>
<text x="726.32" y="366" class="value">237.23</text>
<text x="10" y="398" class="label">www.steamcommunity.com</text>
<rect x="180" y="382" width="549.23" height="22" fill="#4c78a8" rx="3"/>
<text x="737.23" y="398" class="value">242.04</text>
<text x="10" y="430" class="label">ubi.com</text>
<rect x="180" y="414" width="552.86" height="22" fill="#4c78a8" rx="3"/>
<text x="740.86" y="430" class="value">243.64</text>
<text x="10" y="462" class="label">store.akamai.steamstatic.com</text>
<rect x="180" y="446" width="574.26" height="22" fill="#4c78a8" rx="3"/>
<text x="762.26" y="462" class="value">253.07</text>
<text x="10" y="494" class="label">fortnite.com</text>
<rect x="180" y="478" width="580.0" height="22" fill="#4c78a8" rx="3"/>
<text x="768.0" y="494" class="value">255.60</text>
<line x1="180" y1="30" x2="180" y2="520" stroke="#ccc"/>
<line x1="180" y1="520" x2="760" y2="520" stroke="#ccc"/>
</svg>