<svg xmlns="http://www.w3.org/2000/svg" width="800" height="540">
<style> .label{font-family:DejaVu Sans,Verdana,Geneva,sans-serif;font-size:12px;fill:#333} .value{font-family:DejaVu Sans,Verdana,Geneva,sans-serif;font-size:12px;fill:#555} </style>
<text x="10" y="20" class="label">延迟柱状图（越低越好，Top 15），单位 ms</text>
<text x="10" y="46" class="label">rockstargames.com</text>
<rect x="180" y="30" width="93.74" height="22" fill="#4c78a8" rx="3"/>
<text x="281.74" y="46" class="value">49.27</text>
<text x="10" y="78" class="label">eaassets-a.akamaihd.net</text>
<rect x="180" y="62" width="109.95" height="22" fill="#4c78a8" rx="3"/>
<text x="297.95" y="78" class="value">57.79</text>
<text x="10" y="110" class="label">store.akamai.steamstatic.com</text>
<rect x="180" y="94" width="148.46" height="22" fill="#4c78a8" rx="3"/>
<text x="336.46000000000004" y="110" class="value">78.03</text>
<text x="10" y="142" class="label">ea.com</text>
<rect x="180" y="126" width="157.06" height="22" fill="#4c78a8" rx="3"/>
<text x="345.06" y="142" class="value">82.55</text>
<text x="10" y="174" class="label">community.akamai.steamstatic.com</text>
<rect x="180" y="158" width="179.07" height="22" fill="#4c78a8" rx="3"/>
<text x="367.07" y="174" class="value">94.12</text>
<text x="10" y="206" class="label">cdn.akamai.steamstatic.com</text>
<rect x="180" y="190" width="243.47" height="22" fill="#4c78a8" rx="3"/>
<text x="431.47" y="206" class="value">127.97</text>
<text x="10" y="238" class="label">cdn.cloudflare.steamstatic.com</text>
<rect x="180" y="222" width="261.05" height="22" fill="#4c78a8" rx="3"/>
<text x="449.05" y="238" class="value">137.21</text>
<text x="10" y="270" class="label">ubisoft.com</text>
<rect x="180" y="254" width="313.87" height="22" fill="#4c78a8" rx="3"/>
<text x="501.87" y="270" class="value">164.97</text>
<text x="10" y="302" class="label">easyanticheat.net</text>
<rect x="180" y="286" width="333.48" height="22" fill="#4c78a8" rx="3"/>
<text x="521.48" y="302" class="value">175.28</text>
<text x="10" y="334" class="label">steamcdn-a.akamaihd.net</text>
<rect x="180" y="318" width="401.82" height="22" fill="#4c78a8" rx="3"/>
<text x="589.8199999999999" y="334" class="value">211.20</text>
<text x="10" y="366" class="label">api.steampowered.com</text>
<rect x="180" y="350" width="423.49" height="22" fill="#4c78a8" rx="3"/>
<text x="611.49" y="366" class="value">222.59</text>
<text x="10" y="398" class="label">origin.com</text>
<rect x="180" y="382" width="433.84" height="22" fill="#4c78a8" rx="3"/>
<text x="621.8399999999999" y="398" class="value">228.03</text>
<text x="10" y="430" class="label">launcher-public-service-prod06.ol.epicgames.com</text>
<rect x="180" y="414" width="484.59" height="22" fill="#4c78a8" rx="3"/>
<text x="672.5899999999999" y="430" class="value">254.70</text>
<text x="10" y="462" class="label">www.steamcommunity.com</text>
<rect x="180" y="446" width="502.15" height="22" fill="#4c78a8" rx="3"/>
<text x="690.15" y="462" class="value">263.93</text>
<text x="10" y="494" class="label">blizzard.com</text>
<rect x="180" y="478" width="580.0" height="22" fill="#4c78a8" rx="3"/>
<text x="768.0" y="494" class="value">304.85</text>
<line x1="180" y1="30" x2="180" y2="520" stroke="#ccc"/>
<line x1="180" y1="520" x2="760" y2="520" stroke="#ccc"/>
</svg>