<svg xmlns="http://www.w3.org/2000/svg" width="800" height="540">
<style> .label{font-family:DejaVu Sans,Verdana,Geneva,sans-serif;font-size:12px;fill:#333} .value{font-family:DejaVu Sans,Verdana,Geneva,sans-serif;font-size:12px;fill:#555} </style>
<text x="10" y="20" class="label">延迟柱状图（越低越好，Top 15），单位 ms</text>
<text x="10" y="46" class="label">rockstargames.com</text>
<rect x="180" y="30" width="192.01" height="22" fill="#4c78a8" rx="3"/>
<text x="380.01" y="46" class="value">64.21</text>
<text x="10" y="78" class="label">eaassets-a.akamaihd.net</text>
<rect x="180" y="62" width="253.13" height="22" fill="#4c78a8" rx="3"/>
<text x="441.13" y="78" class="value">84.65</text>
<text x="10" y="110" class="label">socialclub.rockstargames.com</text>
<rect x="180" y="94" width="263.27" height="22" fill="#4c78a8" rx="3"/>
<text x="451.27" y="110" class="value">88.04</text>
<text x="10" y="142" class="label">fortnite.com</text>
<rect x="180" y="126" width="268.41" height="22" fill="#4c78a8" rx="3"/>
<text x="456.41" y="142" class="value">89.76</text>
<text x="10" y="174" class="label">battle.net</text>
<rect x="180" y="158" width="275.26" height="22" fill="#4c78a8" rx="3"/>
<text x="463.26" y="174" class="value">92.05</text>
<text x="10" y="206" class="label">ubisoft.com</text>
<rect x="180" y="190" width="315.96" height="22" fill="#4c78a8" rx="3"/>
<text x="503.96" y="206" class="value">105.66</text>
<text x="10" y="238" class="label">ubi.com</text>
<rect x="180" y="222" width="324.81" height="22" fill="#4c78a8" rx="3"/>
<text x="512.81" y="238" class="value">108.62</text>
<text x="10" y="270" class="label">community.akamai.steamstatic.com</text>
<rect x="180" y="254" width="414.61" height="22" fill="#4c78a8" rx="3"/>
<text x="602.61" y="270" class="value">138.65</text>
<text x="10" y="302" class="label">origin.com</text>
<rect x="180" y="286" width="427.29" height="22" fill="#4c78a8" rx="3"/>
<text x="615.29" y="302" class="value">142.89</text>
<text x="10" y="334" class="label">launcher-public-service-prod06.ol.epicgames.com</text>
<rect x="180" y="318" width="456.74" height="22" fill="#4c78a8" rx="3"/>
<text x="644.74" y="334" class="value">152.74</text>
<text x="10" y="366" class="label">ea.com</text>
<rect x="180" y="350" width="470.94" height="22" fill="#4c78a8" rx="3"/>
<text x="658.94" y="366" class="value">157.49</text>
<text x="10" y="398" class="label">unrealengine.com</text>
<rect x="180" y="382" width="493.52" height="22" fill="#4c78a8" rx="3"/>
<text x="681.52" y="398" class="value">165.04</text>
<text x="10" y="430" class="label">store.akamai.steamstatic.com</text>
<rect x="180" y="414" width="505.93" height="22" fill="#4c78a8" rx="3"/>
<text x="693.9300000000001" y="430" class="value">169.19</text>
<text x="10" y="462" class="label">gog.com</text>
<rect x="180" y="446" width="563.16" height="22" fill="#4c78a8" rx="3"/>
<text x="751.16" y="462" class="value">188.33</text>
<text x="10" y="494" class="label">cdn.akamai.steamstatic.com</text>
<rect x="180" y="478" width="580.0" height="22" fill="#4c78a8" rx="3"/>
<text x="768.0" y="494" class="value">193.96</text>
<line x1="180" y1="30" x2="180" y2="520" stroke="#ccc"/>
<line x1="180" y1="520" x2="760" y2="520" stroke="#ccc"/>
</svg>