<svg xmlns="http://www.w3.org/2000/svg" width="800" height="540">
<style> .label{font-family:DejaVu Sans,Verdana,Geneva,sans-serif;font-size:12px;fill:#333} .value{font-family:DejaVu Sans,Verdana,Geneva,sans-serif;font-size:12px;fill:#555} </style>
<text x="10" y="20" class="label">延迟柱状图（越低越好，Top 15），单位 ms</text>
<text x="10" y="46" class="label">ea.com</text>
<rect x="180" y="30" width="197.94" height="22" fill="#4c78a8" rx="3"/>
<text x="385.94" y="46" class="value">84.08</text>
<text x="10" y="78" class="label">rockstargames.com</text>
<rect x="180" y="62" width="228.9" height="22" fill="#4c78a8" rx="3"/>
<text x="416.9" y="78" class="value">97.23</text>
<text x="10" y="110" class="label">store.akamai.steamstatic.com</text>
<rect x="180" y="94" width="256.04" height="22" fill="#4c78a8" rx="3"/>
<text x="444.04" y="110" class="value">108.76</text>
<text x="10" y="142" class="label">eaassets-a.akamaihd.net</text>
<rect x="180" y="126" width="268.64" height="22" fill="#4c78a8" rx="3"/>
<text x="456.64" y="142" class="value">114.11</text>
<text x="10" y="174" class="label">ubisoft.com</text>
<rect x="180" y="158" width="300.89" height="22" fill="#4c78a8" rx="3"/>
<text x="488.89" y="174" class="value">127.81</text>
<text x="10" y="206" class="label">origin.com</text>
<rect x="180" y="190" width="308.37" height="22" fill="#4c78a8" rx="3"/>
<text x="496.37" y="206" class="value">130.99</text>
<text x="10" y="238" class="label">community.akamai.steamstatic.com</text>
<rect x="180" y="222" width="391.19" height="22" fill="#4c78a8" rx="3"/>
<text x="579.19" y="238" class="value">166.17</text>
<text x="10" y="270" class="label">cdn.cloudflare.steamstatic.com</text>
<rect x="180" y="254" width="413.89" height="22" fill="#4c78a8" rx="3"/>
<text x="601.89" y="270" class="value">175.81</text>
<text x="10" y="302" class="label">easyanticheat.net</text>
<rect x="180" y="286" width="428.63" height="22" fill="#4c78a8" rx="3"/>
<text x="616.63" y="302" class="value">182.07</text>
<text x="10" y="334" class="label">steamcdn-a.akamaihd.net</text>
<rect x="180" y="318" width="433.64" height="22" fill="#4c78a8" rx="3"/>
<text x="621.64" y="334" class="value">184.20</text>
<text x="10" y="366" class="label">cdn.akamai.steamstatic.com</text>
<rect x="180" y="350" width="439.67" height="22" fill="#4c78a8" rx="3"/>
<text x="627.6700000000001" y="366" class="value">186.76</text>
<text x="10" y="398" class="label">api.steampowered.com</text>
<rect x="180" y="382" width="444.02" height="22" fill="#4c78a8" rx="3"/>
<text x="632.02" y="398" class="value">188.61</text>
<text x="10" y="430" class="label">steam-chat.com</text>
<rect x="180" y="414" width="492.45" height="22" fill="#4c78a8" rx="3"/>
<text x="680.45" y="430" class="value">209.18</text>
<text x="10" y="462" class="label">www.steamcommunity.com</text>
<rect x="180" y="446" width="518.79" height="22" fill="#4c78a8" rx="3"/>
<text x="706.79" y="462" class="value">220.37</text>
<text x="10" y="494" class="label">gog.com</text>
<rect x="180" y="478" width="580.0" height="22" fill="#4c78a8" rx="3"/>
<text x="768.0" y="494" class="value">246.37</text>
<line x1="180" y1="30" x2="180" y2="520" stroke="#ccc"/>
<line x1="180" y1="520" x2="760" y2="520" stroke="#ccc"/>
</svg>