<svg xmlns="http://www.w3.org/2000/svg" width="800" height="540">
<style> .label{font-family:DejaVu Sans,Verdana,Geneva,sans-serif;font-size:12px;fill:#333} .value{font-family:DejaVu Sans,Verdana,Geneva,sans-serif;font-size:12px;fill:#555} </style>
<text x="10" y="20" class="label">延迟柱状图（越低越好，Top 15），单位 ms</text>
<text x="10" y="46" class="label">eaassets-a.akamaihd.net</text>
<rect x="180" y="30" width="210.49" height="22" fill="#4c78a8" rx="3"/>
<text x="398.49" y="46" class="value">88.18</text>
<text x="10" y="78" class="label">community.akamai.steamstatic.com</text>
<rect x="180" y="62" width="343.97" height="22" fill="#4c78a8" rx="3"/>
<text x="531.97" y="78" class="value">144.10</text>
<text x="10" y="110" class="label">rockstargames.com</text>
<rect x="180" y="94" width="360.75" height="22" fill="#4c78a8" rx="3"/>
<text x="548.75" y="110" class="value">151.13</text>
<text x="10" y="142" class="label">battle.net</text>
<rect x="180" y="126" width="376.39" height="22" fill="#4c78a8" rx="3"/>
<text x="564.39" y="142" class="value">157.68</text>
<text x="10" y="174" class="label">steamcdn-a.akamaihd.net</text>
<rect x="180" y="158" width="385.96" height="22" fill="#4c78a8" rx="3"/>
<text x="573.96" y="174" class="value">161.69</text>
<text x="10" y="206" class="label">ubi.com</text>
<rect x="180" y="190" width="403.84" height="22" fill="#4c78a8" rx="3"/>
<text x="591.8399999999999" y="206" class="value">169.18</text>
<text x="10" y="238" class="label">ea.com</text>
<rect x="180" y="222" width="444.56" height="22" fill="#4c78a8" rx="3"/>
<text x="632.56" y="238" class="value">186.24</text>
<text x="10" y="270" class="label">cdn.cloudflare.steamstatic.com</text>
<rect x="180" y="254" width="460.53" height="22" fill="#4c78a8" rx="3"/>
<text x="648.53" y="270" class="value">192.93</text>
<text x="10" y="302" class="label">easyanticheat.net</text>
<rect x="180" y="286" width="474.42" height="22" fill="#4c78a8" rx="3"/>
<text x="662.4200000000001" y="302" class="value">198.75</text>
<text x="10" y="334" class="label">ubisoft.com</text>
<rect x="180" y="318" width="478.19" height="22" fill="#4c78a8" rx="3"/>
<text x="666.19" y="334" class="value">200.33</text>
<text x="10" y="366" class="label">cdn.akamai.steamstatic.com</text>
<rect x="180" y="350" width="492.56" height="22" fill="#4c78a8" rx="3"/>
<text x="680.56" y="366" class="value">206.35</text>
<text x="10" y="398" class="label">blizzard.com</text>
<rect x="180" y="382" width="510.42" height="22" fill="#4c78a8" rx="3"/>
<text x="698.4200000000001" y="398" class="value">213.83</text>
<text x="10" y="430" class="label">launcher-public-service-prod06.ol.epicgames.com</text>
<rect x="180" y="414" width="512.61" height="22" fill="#4c78a8" rx="3"/>
<text x="700.61" y="430" class="value">214.75</text>
<text x="10" y="462" class="label">socialclub.rockstargames.com</text>
<rect x="180" y="446" width="563.77" height="22" fill="#4c78a8" rx="3"/>
<text x="751.77" y="462" class="value">236.18</text>
<text x="10" y="494" class="label">origin.com</text>
<rect x="180" y="478" width="580.0" height="22" fill="#4c78a8" rx="3"/>
<text x="768.0" y="494" class="value">242.98</text>
<line x1="180" y1="30" x2="180" y2="520" stroke="#ccc"/>
<line x1="180" y1="520" x2="760" y2="520" stroke="#ccc"/>
</svg>