<svg xmlns="http://www.w3.org/2000/svg" width="800" height="540">
<style> .label{font-family:DejaVu Sans,Verdana,Geneva,sans-serif;font-size:12px;fill:#333} .value{font-family:DejaVu Sans,Verdana,Geneva,sans-serif;font-size:12px;fill:#555} </style>
<text x="10" y="20" class="label">延迟柱状图（越低越好，Top 15），单位 ms</text>
<text x="10" y="46" class="label">socialclub.rockstargames.com</text>
<rect x="180" y="30" width="155.7" height="22" fill="#4c78a8" rx="3"/>
<text x="343.7" y="46" class="value">57.77</text>
<text x="10" y="78" class="label">rockstargames.com</text>
<rect x="180" y="62" width="164.41" height="22" fill="#4c78a8" rx="3"/>
<text x="352.40999999999997" y="78" class="value">61.00</text>
<text x="10" y="110" class="label">blizzard.com</text>
<rect x="180" y="94" width="258.55" height="22" fill="#4c78a8" rx="3"/>
<text x="446.55" y="110" class="value">95.93</text>
<text x="10" y="142" class="label">fortnite.com</text>
<rect x="180" y="126" width="302.05" height="22" fill="#4c78a8" rx="3"/>
<text x="490.05" y="142" class="value">112.07</text>
<text x="10" y="174" class="label">battle.net</text>
<rect x="180" y="158" width="333.42" height="22" fill="#4c78a8" rx="3"/>
<text x="521.4200000000001" y="174" class="value">123.71</text>
<text x="10" y="206" class="label">ea.com</text>
<rect x="180" y="190" width="347.43" height="22" fill="#4c78a8" rx="3"/>
<text x="535.4300000000001" y="206" class="value">128.91</text>
<text x="10" y="238" class="label">epicgames.com</text>
<rect x="180" y="222" width="353.66" height="22" fill="#4c78a8" rx="3"/>
<text x="541.6600000000001" y="238" class="value">131.22</text>
<text x="10" y="270" class="label">ubi.com</text>
<rect x="180" y="254" width="370.75" height="22" fill="#4c78a8" rx="3"/>
<text x="558.75" y="270" class="value">137.56</text>
<text x="10" y="302" class="label">steamcdn-a.akamaihd.net</text>
<rect x="180" y="286" width="388.21" height="22" fill="#4c78a8" rx="3"/>
<text x="576.21" y="302" class="value">144.04</text>
<text x="10" y="334" class="label">store.akamai.steamstatic.com</text>
<rect x="180" y="318" width="425.65" height="22" fill="#4c78a8" rx="3"/>
<text x="613.65" y="334" class="value">157.93</text>
<text x="10" y="366" class="label">ubisoft.com</text>
<rect x="180" y="350" width="438.18" height="22" fill="#4c78a8" rx="3"/>
<text x="626.1800000000001" y="366" class="value">162.58</text>
<text x="10" y="398" class="label">cdn.cloudflare.steamstatic.com</text>
<rect x="180" y="382" width="463.33" height="22" fill="#4c78a8" rx="3"/>
<text x="651.3299999999999" y="398" class="value">171.91</text>
<text x="10" y="430" class="label">cdn.akamai.steamstatic.com</text>
<rect x="180" y="414" width="476.13" height="22" fill="#4c78a8" rx="3"/>
<text x="664.13" y="430" class="value">176.66</text>
<text x="10" y="462" class="label">www.steamcommunity.com</text>
<rect x="180" y="446" width="531.86" height="22" fill="#4c78a8" rx="3"/>
<text x="719.86" y="462" class="value">197.34</text>
<text x="10" y="494" class="label">origin.com</text>
<rect x="180" y="478" width="580.0" height="22" fill="#4c78a8" rx="3"/>
<text x="768.0" y="494" class="value">215.20</text>
<line x1="180" y1="30" x2="180" y2="520" stroke="#ccc"/>
<line x1="180" y1="520" x2="760" y2="520" stroke="#ccc"/>
</svg>