<svg xmlns="http://www.w3.org/2000/svg" width="800" height="540">
<style> .label{font-family:DejaVu Sans,Verdana,Geneva,sans-serif;font-size:12px;fill:#333} .value{font-family:DejaVu Sans,Verdana,Geneva,sans-serif;font-size:12px;fill:#555} </style>
<text x="10" y="20" class="label">延迟柱状图（越低越好，Top 15），单位 ms</text>
<text x="10" y="46" class="label">community.akamai.steamstatic.com</text>
<rect x="180" y="30" width="351.02" height="22" fill="#4c78a8" rx="3"/>
<text x="539.02" y="46" class="value">140.94</text>
<text x="10" y="78" class="label">rockstargames.com</text>
<rect x="180" y="62" width="380.41" height="22" fill="#4c78a8" rx="3"/>
<text x="568.4100000000001" y="78" class="value">152.74</text>
<text x="10" y="110" class="label">eaassets-a.akamaihd.net</text>
<rect x="180" y="94" width="395.92" height="22" fill="#4c78a8" rx="3"/>
<text x="583.9200000000001" y="110" class="value">158.97</text>
<text x="10" y="142" class="label">blizzard.com</text>
<rect x="180" y="126" width="398.46" height="22" fill="#4c78a8" rx="3"/>
<text x="586.46" y="142" class="value">159.99</text>
<text x="10" y="174" class="label">battle.net</text>
<rect x="180" y="158" width="418.49" height="22" fill="#4c78a8" rx="3"/>
<text x="606.49" y="174" class="value">168.03</text>
<text x="10" y="206" class="label">easyanticheat.net</text>
<rect x="180" y="190" width="431.29" height="22" fill="#4c78a8" rx="3"/>
<text x="619.29" y="206" class="value">173.17</text>
<text x="10" y="238" class="label">www.steamcommunity.com</text>
<rect x="180" y="222" width="442.4" height="22" fill="#4c78a8" rx="3"/>
<text x="630.4" y="238" class="value">177.63</text>
<text x="10" y="270" class="label">ea.com</text>
<rect x="180" y="254" width="448.95" height="22" fill="#4c78a8" rx="3"/>
<text x="636.95" y="270" class="value">180.26</text>
<text x="10" y="302" class="label">ubi.com</text>
<rect x="180" y="286" width="457.49" height="22" fill="#4c78a8" rx="3"/>
<text x="645.49" y="302" class="value">183.69</text>
<text x="10" y="334" class="label">socialclub.rockstargames.com</text>
<rect x="180" y="318" width="462.37" height="22" fill="#4c78a8" rx="3"/>
<text x="650.37" y="334" class="value">185.65</text>
<text x="10" y="366" class="label">cdn.akamai.steamstatic.com</text>
<rect x="180" y="350" width="500.25" height="22" fill="#4c78a8" rx="3"/>
<text x="688.25" y="366" class="value">200.86</text>
<text x="10" y="398" class="label">steamcdn-a.akamaihd.net</text>
<rect x="180" y="382" width="502.72" height="22" fill="#4c78a8" rx="3"/>
<text x="690.72" y="398" class="value">201.85</text>
<text x="10" y="430" class="label">store.akamai.steamstatic.com</text>
<rect x="180" y="414" width="506.28" height="22" fill="#4c78a8" rx="3"/>
<text x="694.28" y="430" class="value">203.28</text>
<text x="10" y="462" class="label">origin.com</text>
<rect x="180" y="446" width="517.09" height="22" fill="#4c78a8" rx="3"/>
<text x="705.09" y="462" class="value">207.62</text>
<text x="10" y="494" class="label">ubisoft.com</text>
<rect x="180" y="478" width="580.0" height="22" fill="#4c78a8" rx="3"/>
<text x="768.0" y="494" class="value">232.88</text>
<line x1="180" y1="30" x2="180" y2="520" stroke="#ccc"/>
<line x1="180" y1="520" x2="760" y2="520" stroke="#ccc"/>
</svg>