<svg xmlns="http://www.w3.org/2000/svg" width="800" height="540">
<style> .label{font-family:DejaVu Sans,Verdana,Geneva,sans-serif;font-size:12px;fill:#333} .value{font-family:DejaVu Sans,Verdana,Geneva,sans-serif;font-size:12px;fill:#555} </style>
<text x="10" y="20" class="label">延迟柱状图（越低越好，Top 15），单位 ms</text>
<text x="10" y="46" class="label">rockstargames.com</text>
<rect x="180" y="30" width="101.73" height="22" fill="#4c78a8" rx="3"/>
<text x="289.73" y="46" class="value">46.69</text>
<text x="10" y="78" class="label">eaassets-a.akamaihd.net</text>
<rect x="180" y="62" width="118.49" height="22" fill="#4c78a8" rx="3"/>
<text x="306.49" y="78" class="value">54.38</text>
<text x="10" y="110" class="label">ea.com</text>
<rect x="180" y="94" width="154.42" height="22" fill="#4c78a8" rx="3"/>
<text x="342.41999999999996" y="110" class="value">70.87</text>
<text x="10" y="142" class="label">cdn.cloudflare.steamstatic.com</text>
<rect x="180" y="126" width="190.65" height="22" fill="#4c78a8" rx="3"/>
<text x="378.65" y="142" class="value">87.50</text>
<text x="10" y="174" class="label">ubisoft.com</text>
<rect x="180" y="158" width="224.12" height="22" fill="#4c78a8" rx="3"/>
<text x="412.12" y="174" class="value">102.86</text>
<text x="10" y="206" class="label">cdn.akamai.steamstatic.com</text>
<rect x="180" y="190" width="252.29" height="22" fill="#4c78a8" rx="3"/>
<text x="440.28999999999996" y="206" class="value">115.79</text>
<text x="10" y="238" class="label">origin.com</text>
<rect x="180" y="222" width="262.91" height="22" fill="#4c78a8" rx="3"/>
<text x="450.91" y="238" class="value">120.66</text>
<text x="10" y="270" class="label">store.akamai.steamstatic.com</text>
<rect x="180" y="254" width="309.47" height="22" fill="#4c78a8" rx="3"/>
<text x="497.47" y="270" class="value">142.03</text>
<text x="10" y="302" class="label">community.akamai.steamstatic.com</text>
<rect x="180" y="286" width="364.33" height="22" fill="#4c78a8" rx="3"/>
<text x="552.3299999999999" y="302" class="value">167.21</text>
<text x="10" y="334" class="label">www.steamcommunity.com</text>
<rect x="180" y="318" width="433.06" height="22" fill="#4c78a8" rx="3"/>
<text x="621.06" y="334" class="value">198.75</text>
<text x="10" y="366" class="label">steamcdn-a.akamaihd.net</text>
<rect x="180" y="350" width="439.55" height="22" fill="#4c78a8" rx="3"/>
<text x="627.55" y="366" class="value">201.73</text>
<text x="10" y="398" class="label">gog.com</text>
<rect x="180" y="382" width="468.9" height="22" fill="#4c78a8" rx="3"/>
<text x="656.9" y="398" class="value">215.20</text>
<text x="10" y="430" class="label">easyanticheat.net</text>
<rect x="180" y="414" width="499.82" height="22" fill="#4c78a8" rx="3"/>
<text x="687.8199999999999" y="430" class="value">229.39</text>
<text x="10" y="462" class="label">steam-chat.com</text>
<rect x="180" y="446" width="512.15" height="22" fill="#4c78a8" rx="3"/>
<text x="700.15" y="462" class="value">235.05</text>
<text x="10" y="494" class="label">api.steampowered.com</text>
<rect x="180" y="478" width="580.0" height="22" fill="#4c78a8" rx="3"/>
<text x="768.0" y="494" class="value">266.19</text>
<line x1="180" y1="30" x2="180" y2="520" stroke="#ccc"/>
<line x1="180" y1="520" x2="760" y2="520" stroke="#ccc"/>
</svg>