<svg xmlns="http://www.w3.org/2000/svg" width="800" height="540">
<style> .label{font-family:DejaVu Sans,Verdana,Geneva,sans-serif;font-size:12px;fill:#333} .value{font-family:DejaVu Sans,Verdana,Geneva,sans-serif;font-size:12px;fill:#555} </style>
<text x="10" y="20" class="label">延迟柱状图（越低越好，Top 15），单位 ms</text>
<text x="10" y="46" class="label">rockstargames.com</text>
<rect x="180" y="30" width="80.63" height="22" fill="#4c78a8" rx="3"/>
<text x="268.63" y="46" class="value">38.40</text>
<text x="10" y="78" class="label">ea.com</text>
<rect x="180" y="62" width="155.88" height="22" fill="#4c78a8" rx="3"/>
<text x="343.88" y="78" class="value">74.24</text>
<text x="10" y="110" class="label">eaassets-a.akamaihd.net</text>
<rect x="180" y="94" width="167.37" height="22" fill="#4c78a8" rx="3"/>
<text x="355.37" y="110" class="value">79.71</text>
<text x="10" y="142" class="label">community.akamai.steamstatic.com</text>
<rect x="180" y="126" width="172.32" height="22" fill="#4c78a8" rx="3"/>
<text x="360.32" y="142" class="value">82.07</text>
<text x="10" y="174" class="label">cdn.cloudflare.steamstatic.com</text>
<rect x="180" y="158" width="175.39" height="22" fill="#4c78a8" rx="3"/>
<text x="363.39" y="174" class="value">83.53</text>
<text x="10" y="206" class="label">store.akamai.steamstatic.com</text>
<rect x="180" y="190" width="222.13" height="22" fill="#4c78a8" rx="3"/>
<text x="410.13" y="206" class="value">105.79</text>
<text x="10" y="238" class="label">origin.com</text>
<rect x="180" y="222" width="280.1" height="22" fill="#4c78a8" rx="3"/>
<text x="468.1" y="238" class="value">133.40</text>
<text x="10" y="270" class="label">ubisoft.com</text>
<rect x="180" y="254" width="326.65" height="22" fill="#4c78a8" rx="3"/>
<text x="514.65" y="270" class="value">155.57</text>
<text x="10" y="302" class="label">cdn.akamai.steamstatic.com</text>
<rect x="180" y="286" width="385.19" height="22" fill="#4c78a8" rx="3"/>
<text x="573.19" y="302" class="value">183.45</text>
<text x="10" y="334" class="label">steamcdn-a.akamaihd.net</text>
<rect x="180" y="318" width="420.15" height="22" fill="#4c78a8" rx="3"/>
<text x="608.15" y="334" class="value">200.10</text>
<text x="10" y="366" class="label">www.steamcommunity.com</text>
<rect x="180" y="350" width="449.34" height="22" fill="#4c78a8" rx="3"/>
<text x="637.3399999999999" y="366" class="value">214.00</text>
<text x="10" y="398" class="label">easyanticheat.net</text>
<rect x="180" y="382" width="511.4" height="22" fill="#4c78a8" rx="3"/>
<text x="699.4" y="398" class="value">243.56</text>
<text x="10" y="430" class="label">api.steampowered.com</text>
<rect x="180" y="414" width="562.4" height="22" fill="#4c78a8" rx="3"/>
<text x="750.4" y="430" class="value">267.85</text>
<text x="10" y="462" class="label">steam-chat.com</text>
<rect x="180" y="446" width="573.7" height="22" fill="#4c78a8" rx="3"/>
<text x="761.7" y="462" class="value">273.23</text>
<text x="10" y="494" class="label">steamcommunity.com</text>
<rect x="180" y="478" width="580.0" height="22" fill="#4c78a8" rx="3"/>
<text x="768.0" y="494" class="value">276.23</text>
<line x1="180" y1="30" x2="180" y2="520" stroke="#ccc"/>
<line x1="180" y1="520" x2="760" y2="520" stroke="#ccc"/>
</svg>