<svg xmlns="http://www.w3.org/2000/svg" width="800" height="540">
<style> .label{font-family:DejaVu Sans,Verdana,Geneva,sans-serif;font-size:12px;fill:#333} .value{font-family:DejaVu Sans,Verdana,Geneva,sans-serif;font-size:12px;fill:#555} </style>
<text x="10" y="20" class="label">延迟柱状图（越低越好，Top 15），单位 ms</text>
<text x="10" y="46" class="label">socialclub.rockstargames.com</text>
<rect x="180" y="30" width="191.46" height="22" fill="#4c78a8" rx="3"/>
<text x="379.46000000000004" y="46" class="value">61.69</text>
<text x="10" y="78" class="label">epicgames.com</text>
<rect x="180" y="62" width="288.17" height="22" fill="#4c78a8" rx="3"/>
<text x="476.17" y="78" class="value">92.85</text>
<text x="10" y="110" class="label">ubi.com</text>
<rect x="180" y="94" width="309.24" height="22" fill="#4c78a8" rx="3"/>
<text x="497.24" y="110" class="value">99.64</text>
<text x="10" y="142" class="label">battle.net</text>
<rect x="180" y="126" width="337.27" height="22" fill="#4c78a8" rx="3"/>
<text x="525.27" y="142" class="value">108.67</text>
<text x="10" y="174" class="label">rockstargames.com</text>
<rect x="180" y="158" width="342.54" height="22" fill="#4c78a8" rx="3"/>
<text x="530.54" y="174" class="value">110.37</text>
<text x="10" y="206" class="label">fortnite.com</text>
<rect x="180" y="190" width="351.61" height="22" fill="#4c78a8" rx="3"/>
<text x="539.61" y="206" class="value">113.29</text>
<text x="10" y="238" class="label">ea.com</text>
<rect x="180" y="222" width="360.95" height="22" fill="#4c78a8" rx="3"/>
<text x="548.95" y="238" class="value">116.30</text>
<text x="10" y="270" class="label">eaassets-a.akamaihd.net</text>
<rect x="180" y="254" width="385.9" height="22" fill="#4c78a8" rx="3"/>
<text x="573.9" y="270" class="value">124.34</text>
<text x="10" y="302" class="label">ubisoft.com</text>
<rect x="180" y="286" width="394.68" height="22" fill="#4c78a8" rx="3"/>
<text x="582.6800000000001" y="302" class="value">127.17</text>
<text x="10" y="334" class="label">cdn.cloudflare.steamstatic.com</text>
<rect x="180" y="318" width="395.8" height="22" fill="#4c78a8" rx="3"/>
<text x="583.8" y="334" class="value">127.53</text>
<text x="10" y="366" class="label">community.akamai.steamstatic.com</text>
<rect x="180" y="350" width="406.54" height="22" fill="#4c78a8" rx="3"/>
<text x="594.54" y="366" class="value">130.99</text>
<text x="10" y="398" class="label">unrealengine.com</text>
<rect x="180" y="382" width="479.13" height="22" fill="#4c78a8" rx="3"/>
<text x="667.13" y="398" class="value">154.38</text>
<text x="10" y="430" class="label">blizzard.com</text>
<rect x="180" y="414" width="550.8" height="22" fill="#4c78a8" rx="3"/>
<text x="738.8" y="430" class="value">177.47</text>
<text x="10" y="462" class="label">easyanticheat.net</text>
<rect x="180" y="446" width="551.6" height="22" fill="#4c78a8" rx="3"/>
<text x="739.6" y="462" class="value">177.73</text>
<text x="10" y="494" class="label">steamcdn-a.akamaihd.net</text>
<rect x="180" y="478" width="580.0" height="22" fill="#4c78a8" rx="3"/>
<text x="768.0" y="494" class="value">186.88</text>
<line x1="180" y1="30" x2="180" y2="520" stroke="#ccc"/>
<line x1="180" y1="520" x2="760" y2="520" stroke="#ccc"/>
</svg>