<svg xmlns="http://www.w3.org/2000/svg" width="800" height="540">
<style> .label{font-family:DejaVu Sans,Verdana,Geneva,sans-serif;font-size:12px;fill:#333} .value{font-family:DejaVu Sans,Verdana,Geneva,sans-serif;font-size:12px;fill:#555} </style>
<text x="10" y="20" class="label">延迟柱状图（越低越好，Top 15），单位 ms</text>
<text x="10" y="46" class="label">rockstargames.com</text>
<rect x="180" y="30" width="146.25" height="22" fill="#4c78a8" rx="3"/>
<text x="334.25" y="46" class="value">55.43</text>
<text x="10" y="78" class="label">blizzard.com</text>
<rect x="180" y="62" width="198.58" height="22" fill="#4c78a8" rx="3"/>
<text x="386.58000000000004" y="78" class="value">75.26</text>
<text x="10" y="110" class="label">ubi.com</text>
<rect x="180" y="94" width="203.69" height="22" fill="#4c78a8" rx="3"/>
<text x="391.69" y="110" class="value">77.20</text>
<text x="10" y="142" class="label">battle.net</text>
<rect x="180" y="126" width="204.59" height="22" fill="#4c78a8" rx="3"/>
<text x="392.59000000000003" y="142" class="value">77.54</text>
<text x="10" y="174" class="label">epicgames.com</text>
<rect x="180" y="158" width="209.42" height="22" fill="#4c78a8" rx="3"/>
<text x="397.41999999999996" y="174" class="value">79.37</text>
<text x="10" y="206" class="label">socialclub.rockstargames.com</text>
<rect x="180" y="190" width="217.15" height="22" fill="#4c78a8" rx="3"/>
<text x="405.15" y="206" class="value">82.30</text>
<text x="10" y="238" class="label">ea.com</text>
<rect x="180" y="222" width="247.97" height="22" fill="#4c78a8" rx="3"/>
<text x="435.97" y="238" class="value">93.98</text>
<text x="10" y="270" class="label">eaassets-a.akamaihd.net</text>
<rect x="180" y="254" width="274.43" height="22" fill="#4c78a8" rx="3"/>
<text x="462.43" y="270" class="value">104.01</text>
<text x="10" y="302" class="label">community.akamai.steamstatic.com</text>
<rect x="180" y="286" width="323.59" height="22" fill="#4c78a8" rx="3"/>
<text x="511.59" y="302" class="value">122.64</text>
<text x="10" y="334" class="label">fortnite.com</text>
<rect x="180" y="318" width="419.26" height="22" fill="#4c78a8" rx="3"/>
<text x="607.26" y="334" class="value">158.90</text>
<text x="10" y="366" class="label">cdn.akamai.steamstatic.com</text>
<rect x="180" y="350" width="479.95" height="22" fill="#4c78a8" rx="3"/>
<text x="667.95" y="366" class="value">181.90</text>
<text x="10" y="398" class="label">ubisoft.com</text>
<rect x="180" y="382" width="515.51" height="22" fill="#4c78a8" rx="3"/>
<text x="703.51" y="398" class="value">195.38</text>
<text x="10" y="430" class="label">store.akamai.steamstatic.com</text>
<rect x="180" y="414" width="554.09" height="22" fill="#4c78a8" rx="3"/>
<text x="742.09" y="430" class="value">210.00</text>
<text x="10" y="462" class="label">origin.com</text>
<rect x="180" y="446" width="567.31" height="22" fill="#4c78a8" rx="3"/>
<text x="755.31" y="462" class="value">215.01</text>
<text x="10" y="494" class="label">unrealengine.com</text>
<rect x="180" y="478" width="580.0" height="22" fill="#4c78a8" rx="3"/>
<text x="768.0" y="494" class="value">219.82</text>
<line x1="180" y1="30" x2="180" y2="520" stroke="#ccc"/>
<line x1="180" y1="520" x2="760" y2="520" stroke="#ccc"/>
</svg>