<svg xmlns="http://www.w3.org/2000/svg" width="800" height="540">
<style> .label{font-family:DejaVu Sans,Verdana,Geneva,sans-serif;font-size:12px;fill:#333} .value{font-family:DejaVu Sans,Verdana,Geneva,sans-serif;font-size:12px;fill:#555} </style>
<text x="10" y="20" class="label">延迟柱状图（越低越好，Top 15），单位 ms</text>
<text x="10" y="46" class="label">rockstargames.com</text>
<rect x="180" y="30" width="155.48" height="22" fill="#4c78a8" rx="3"/>
<text x="343.48" y="46" class="value">58.18</text>
<text x="10" y="78" class="label">eaassets-a.akamaihd.net</text>
<rect x="180" y="62" width="177.74" height="22" fill="#4c78a8" rx="3"/>
<text x="365.74" y="78" class="value">66.51</text>
<text x="10" y="110" class="label">socialclub.rockstargames.com</text>
<rect x="180" y="94" width="237.92" height="22" fill="#4c78a8" rx="3"/>
<text x="425.91999999999996" y="110" class="value">89.03</text>
<text x="10" y="142" class="label">blizzard.com</text>
<rect x="180" y="126" width="286.04" height="22" fill="#4c78a8" rx="3"/>
<text x="474.04" y="142" class="value">107.04</text>
<text x="10" y="174" class="label">ubisoft.com</text>
<rect x="180" y="158" width="304.64" height="22" fill="#4c78a8" rx="3"/>
<text x="492.64" y="174" class="value">114.00</text>
<text x="10" y="206" class="label">ea.com</text>
<rect x="180" y="190" width="347.13" height="22" fill="#4c78a8" rx="3"/>
<text x="535.13" y="206" class="value">129.90</text>
<text x="10" y="238" class="label">ubi.com</text>
<rect x="180" y="222" width="371.37" height="22" fill="#4c78a8" rx="3"/>
<text x="559.37" y="238" class="value">138.97</text>
<text x="10" y="270" class="label">battle.net</text>
<rect x="180" y="254" width="408.68" height="22" fill="#4c78a8" rx="3"/>
<text x="596.6800000000001" y="270" class="value">152.93</text>
<text x="10" y="302" class="label">unrealengine.com</text>
<rect x="180" y="286" width="462.82" height="22" fill="#4c78a8" rx="3"/>
<text x="650.8199999999999" y="302" class="value">173.19</text>
<text x="10" y="334" class="label">steamcdn-a.akamaihd.net</text>
<rect x="180" y="318" width="477.17" height="22" fill="#4c78a8" rx="3"/>
<text x="665.1700000000001" y="334" class="value">178.56</text>
<text x="10" y="366" class="label">epicgames.com</text>
<rect x="180" y="350" width="515.12" height="22" fill="#4c78a8" rx="3"/>
<text x="703.12" y="366" class="value">192.76</text>
<text x="10" y="398" class="label">fortnite.com</text>
<rect x="180" y="382" width="535.64" height="22" fill="#4c78a8" rx="3"/>
<text x="723.64" y="398" class="value">200.44</text>
<text x="10" y="430" class="label">cdn.cloudflare.steamstatic.com</text>
<rect x="180" y="414" width="546.09" height="22" fill="#4c78a8" rx="3"/>
<text x="734.09" y="430" class="value">204.35</text>
<text x="10" y="462" class="label">easyanticheat.net</text>
<rect x="180" y="446" width="561.56" height="22" fill="#4c78a8" rx="3"/>
<text x="749.56" y="462" class="value">210.14</text>
<text x="10" y="494" class="label">origin.com</text>
<rect x="180" y="478" width="580.0" height="22" fill="#4c78a8" rx="3"/>
<text x="768.0" y="494" class="value">217.04</text>
<line x1="180" y1="30" x2="180" y2="520" stroke="#ccc"/>
<line x1="180" y1="520" x2="760" y2="520" stroke="#ccc"/>
</svg>