<svg xmlns="http://www.w3.org/2000/svg" width="800" height="540">
<style> .label{font-family:DejaVu Sans,Verdana,Geneva,sans-serif;font-size:12px;fill:#333} .value{font-family:DejaVu Sans,Verdana,Geneva,sans-serif;font-size:12px;fill:#555} </style>
<text x="10" y="20" class="label">延迟柱状图（越低越好，Top 15），单位 ms</text>
<text x="10" y="46" class="label">eaassets-a.akamaihd.net</text>
<rect x="180" y="30" width="155.43" height="22" fill="#4c78a8" rx="3"/>
<text x="343.43" y="46" class="value">45.88</text>
<text x="10" y="78" class="label">rockstargames.com</text>
<rect x="180" y="62" width="251.06" height="22" fill="#4c78a8" rx="3"/>
<text x="439.06" y="78" class="value">74.11</text>
<text x="10" y="110" class="label">ubisoft.com</text>
<rect x="180" y="94" width="303.77" height="22" fill="#4c78a8" rx="3"/>
<text x="491.77" y="110" class="value">89.67</text>
<text x="10" y="142" class="label">ea.com</text>
<rect x="180" y="126" width="329.69" height="22" fill="#4c78a8" rx="3"/>
<text x="517.69" y="142" class="value">97.32</text>
<text x="10" y="174" class="label">store.akamai.steamstatic.com</text>
<rect x="180" y="158" width="364.21" height="22" fill="#4c78a8" rx="3"/>
<text x="552.21" y="174" class="value">107.51</text>
<text x="10" y="206" class="label">community.akamai.steamstatic.com</text>
<rect x="180" y="190" width="410.35" height="22" fill="#4c78a8" rx="3"/>
<text x="598.35" y="206" class="value">121.13</text>
<text x="10" y="238" class="label">steamcdn-a.akamaihd.net</text>
<rect x="180" y="222" width="437.35" height="22" fill="#4c78a8" rx="3"/>
<text x="625.35" y="238" class="value">129.10</text>
<text x="10" y="270" class="label">ubi.com</text>
<rect x="180" y="254" width="450.9" height="22" fill="#4c78a8" rx="3"/>
<text x="638.9" y="270" class="value">133.10</text>
<text x="10" y="302" class="label">blizzard.com</text>
<rect x="180" y="286" width="451.88" height="22" fill="#4c78a8" rx="3"/>
<text x="639.88" y="302" class="value">133.39</text>
<text x="10" y="334" class="label">battle.net</text>
<rect x="180" y="318" width="463.7" height="22" fill="#4c78a8" rx="3"/>
<text x="651.7" y="334" class="value">136.88</text>
<text x="10" y="366" class="label">socialclub.rockstargames.com</text>
<rect x="180" y="350" width="464.62" height="22" fill="#4c78a8" rx="3"/>
<text x="652.62" y="366" class="value">137.15</text>
<text x="10" y="398" class="label">www.steamcommunity.com</text>
<rect x="180" y="382" width="480.3" height="22" fill="#4c78a8" rx="3"/>
<text x="668.3" y="398" class="value">141.78</text>
<text x="10" y="430" class="label">cdn.akamai.steamstatic.com</text>
<rect x="180" y="414" width="572.58" height="22" fill="#4c78a8" rx="3"/>
<text x="760.58" y="430" class="value">169.02</text>
<text x="10" y="462" class="label">cdn.cloudflare.steamstatic.com</text>
<rect x="180" y="446" width="574.17" height="22" fill="#4c78a8" rx="3"/>
<text x="762.17" y="462" class="value">169.49</text>
<text x="10" y="494" class="label">origin.com</text>
<rect x="180" y="478" width="580.0" height="22" fill="#4c78a8" rx="3"/>
<text x="768.0" y="494" class="value">171.21</text>
<line x1="180" y1="30" x2="180" y2="520" stroke="#ccc"/>
<line x1="180" y1="520" x2="760" y2="520" stroke="#ccc"/>
</svg>