<svg xmlns="http://www.w3.org/2000/svg" width="800" height="540">
<style> .label{font-family:DejaVu Sans,Verdana,Geneva,sans-serif;font-size:12px;fill:#333} .value{font-family:DejaVu Sans,Verdana,Geneva,sans-serif;font-size:12px;fill:#555} </style>
<text x="10" y="20" class="label">延迟柱状图（越低越好，Top 15），单位 ms</text>
<text x="10" y="46" class="label">eaassets-a.akamaihd.net</text>
<rect x="180" y="30" width="238.39" height="22" fill="#4c78a8" rx="3"/>
<text x="426.39" y="46" class="value">78.81</text>
<text x="10" y="78" class="label">rockstargames.com</text>
<rect x="180" y="62" width="311.11" height="22" fill="#4c78a8" rx="3"/>
<text x="499.11" y="78" class="value">102.85</text>
<text x="10" y="110" class="label">ea.com</text>
<rect x="180" y="94" width="312.57" height="22" fill="#4c78a8" rx="3"/>
<text x="500.57" y="110" class="value">103.33</text>
<text x="10" y="142" class="label">origin.com</text>
<rect x="180" y="126" width="358.39" height="22" fill="#4c78a8" rx="3"/>
<text x="546.39" y="142" class="value">118.48</text>
<text x="10" y="174" class="label">community.akamai.steamstatic.com</text>
<rect x="180" y="158" width="385.77" height="22" fill="#4c78a8" rx="3"/>
<text x="573.77" y="174" class="value">127.53</text>
<text x="10" y="206" class="label">blizzard.com</text>
<rect x="180" y="190" width="393.69" height="22" fill="#4c78a8" rx="3"/>
<text x="581.69" y="206" class="value">130.15</text>
<text x="10" y="238" class="label">socialclub.rockstargames.com</text>
<rect x="180" y="222" width="427.94" height="22" fill="#4c78a8" rx="3"/>
<text x="615.94" y="238" class="value">141.47</text>
<text x="10" y="270" class="label">easyanticheat.net</text>
<rect x="180" y="254" width="438.37" height="22" fill="#4c78a8" rx="3"/>
<text x="626.37" y="270" class="value">144.92</text>
<text x="10" y="302" class="label">steamcdn-a.akamaihd.net</text>
<rect x="180" y="286" width="441.16" height="22" fill="#4c78a8" rx="3"/>
<text x="629.1600000000001" y="302" class="value">145.84</text>
<text x="10" y="334" class="label">battle.net</text>
<rect x="180" y="318" width="456.43" height="22" fill="#4c78a8" rx="3"/>
<text x="644.4300000000001" y="334" class="value">150.89</text>
<text x="10" y="366" class="label">ubi.com</text>
<rect x="180" y="350" width="490.04" height="22" fill="#4c78a8" rx="3"/>
<text x="678.04" y="366" class="value">162.00</text>
<text x="10" y="398" class="label">ubisoft.com</text>
<rect x="180" y="382" width="507.25" height="22" fill="#4c78a8" rx="3"/>
<text x="695.25" y="398" class="value">167.69</text>
<text x="10" y="430" class="label">store.akamai.steamstatic.com</text>
<rect x="180" y="414" width="509.22" height="22" fill="#4c78a8" rx="3"/>
<text x="697.22" y="430" class="value">168.34</text>
<text x="10" y="462" class="label">api.steampowered.com</text>
<rect x="180" y="446" width="510.18" height="22" fill="#4c78a8" rx="3"/>
<text x="698.1800000000001" y="462" class="value">168.66</text>
<text x="10" y="494" class="label">gog.com</text>
<rect x="180" y="478" width="580.0" height="22" fill="#4c78a8" rx="3"/>
<text x="768.0" y="494" class="value">191.74</text>
<line x1="180" y1="30" x2="180" y2="520" stroke="#ccc"/>
<line x1="180" y1="520" x2="760" y2="520" stroke="#ccc"/>
</svg>