<svg xmlns="http://www.w3.org/2000/svg" width="800" height="540">
<style> .label{font-family:DejaVu Sans,Verdana,Geneva,sans-serif;font-size:12px;fill:#333} .value{font-family:DejaVu Sans,Verdana,Geneva,sans-serif;font-size:12px;fill:#555} </style>
<text x="10" y="20" class="label">延迟柱状图（越低越好，Top 15），单位 ms</text>
<text x="10" y="46" class="label">rockstargames.com</text>
<rect x="180" y="30" width="84.74" height="22" fill="#4c78a8" rx="3"/>
<text x="272.74" y="46" class="value">33.99</text>
<text x="10" y="78" class="label">ea.com</text>
<rect x="180" y="62" width="224.41" height="22" fill="#4c78a8" rx="3"/>
<text x="412.40999999999997" y="78" class="value">90.01</text>
<text x="10" y="110" class="label">ubisoft.com</text>
<rect x="180" y="94" width="282.6" height="22" fill="#4c78a8" rx="3"/>
<text x="470.6" y="110" class="value">113.35</text>
<text x="10" y="142" class="label">community.akamai.steamstatic.com</text>
<rect x="180" y="126" width="287.61" height="22" fill="#4c78a8" rx="3"/>
<text x="475.61" y="142" class="value">115.36</text>
<text x="10" y="174" class="label">eaassets-a.akamaihd.net</text>
<rect x="180" y="158" width="292.84" height="22" fill="#4c78a8" rx="3"/>
<text x="480.84" y="174" class="value">117.46</text>
<text x="10" y="206" class="label">origin.com</text>
<rect x="180" y="190" width="323.68" height="22" fill="#4c78a8" rx="3"/>
<text x="511.68" y="206" class="value">129.83</text>
<text x="10" y="238" class="label">cdn.akamai.steamstatic.com</text>
<rect x="180" y="222" width="335.7" height="22" fill="#4c78a8" rx="3"/>
<text x="523.7" y="238" class="value">134.65</text>
<text x="10" y="270" class="label">cdn.cloudflare.steamstatic.com</text>
<rect x="180" y="254" width="372.25" height="22" fill="#4c78a8" rx="3"/>
<text x="560.25" y="270" class="value">149.31</text>
<text x="10" y="302" class="label">store.akamai.steamstatic.com</text>
<rect x="180" y="286" width="373.07" height="22" fill="#4c78a8" rx="3"/>
<text x="561.0699999999999" y="302" class="value">149.64</text>
<text x="10" y="334" class="label">steamcdn-a.akamaihd.net</text>
<rect x="180" y="318" width="399.95" height="22" fill="#4c78a8" rx="3"/>
<text x="587.95" y="334" class="value">160.42</text>
<text x="10" y="366" class="label">easyanticheat.net</text>
<rect x="180" y="350" width="423.01" height="22" fill="#4c78a8" rx="3"/>
<text x="611.01" y="366" class="value">169.67</text>
<text x="10" y="398" class="label">steam-chat.com</text>
<rect x="180" y="382" width="513.16" height="22" fill="#4c78a8" rx="3"/>
<text x="701.16" y="398" class="value">205.83</text>
<text x="10" y="430" class="label">api.steampowered.com</text>
<rect x="180" y="414" width="533.55" height="22" fill="#4c78a8" rx="3"/>
<text x="721.55" y="430" class="value">214.01</text>
<text x="10" y="462" class="label">www.steamcommunity.com</text>
<rect x="180" y="446" width="569.43" height="22" fill="#4c78a8" rx="3"/>
<text x="757.43" y="462" class="value">228.40</text>
<text x="10" y="494" class="label">launcher-public-service-prod06.ol.epicgames.com</text>
<rect x="180" y="478" width="580.0" height="22" fill="#4c78a8" rx="3"/>
<text x="768.0" y="494" class="value">232.64</text>
<line x1="180" y1="30" x2="180" y2="520" stroke="#ccc"/>
<line x1="180" y1="520" x2="760" y2="520" stroke="#ccc"/>
</svg>