<svg xmlns="http://www.w3.org/2000/svg" width="800" height="540">
<style> .label{font-family:DejaVu Sans,Verdana,Geneva,sans-serif;font-size:12px;fill:#333} .value{font-family:DejaVu Sans,Verdana,Geneva,sans-serif;font-size:12px;fill:#555} </style>
<text x="10" y="20" class="label">延迟柱状图（越低越好，Top 15），单位 ms</text>
<text x="10" y="46" class="label">rockstargames.com</text>
<rect x="180" y="30" width="214.22" height="22" fill="#4c78a8" rx="3"/>
<text x="402.22" y="46" class="value">62.55</text>
<text x="10" y="78" class="label">battle.net</text>
<rect x="180" y="62" width="224.64" height="22" fill="#4c78a8" rx="3"/>
<text x="412.64" y="78" class="value">65.59</text>
<text x="10" y="110" class="label">eaassets-a.akamaihd.net</text>
<rect x="180" y="94" width="227.75" height="22" fill="#4c78a8" rx="3"/>
<text x="415.75" y="110" class="value">66.50</text>
<text x="10" y="142" class="label">socialclub.rockstargames.com</text>
<rect x="180" y="126" width="252.1" height="22" fill="#4c78a8" rx="3"/>
<text x="440.1" y="142" class="value">73.61</text>
<text x="10" y="174" class="label">ea.com</text>
<rect x="180" y="158" width="354.1" height="22" fill="#4c78a8" rx="3"/>
<text x="542.1" y="174" class="value">103.39</text>
<text x="10" y="206" class="label">epicgames.com</text>
<rect x="180" y="190" width="361.77" height="22" fill="#4c78a8" rx="3"/>
<text x="549.77" y="206" class="value">105.63</text>
<text x="10" y="238" class="label">ubisoft.com</text>
<rect x="180" y="222" width="389.24" height="22" fill="#4c78a8" rx="3"/>
<text x="577.24" y="238" class="value">113.65</text>
<text x="10" y="270" class="label">ubi.com</text>
<rect x="180" y="254" width="389.89" height="22" fill="#4c78a8" rx="3"/>
<text x="577.89" y="270" class="value">113.84</text>
<text x="10" y="302" class="label">blizzard.com</text>
<rect x="180" y="286" width="409.68" height="22" fill="#4c78a8" rx="3"/>
<text x="597.6800000000001" y="302" class="value">119.62</text>
<text x="10" y="334" class="label">cdn.akamai.steamstatic.com</text>
<rect x="180" y="318" width="453.35" height="22" fill="#4c78a8" rx="3"/>
<text x="641.35" y="334" class="value">132.37</text>
<text x="10" y="366" class="label">fortnite.com</text>
<rect x="180" y="350" width="481.88" height="22" fill="#4c78a8" rx="3"/>
<text x="669.88" y="366" class="value">140.70</text>
<text x="10" y="398" class="label">static3.cdn.ubi.com</text>
<rect x="180" y="382" width="524.55" height="22" fill="#4c78a8" rx="3"/>
<text x="712.55" y="398" class="value">153.16</text>
<text x="10" y="430" class="label">community.akamai.steamstatic.com</text>
<rect x="180" y="414" width="545.75" height="22" fill="#4c78a8" rx="3"/>
<text x="733.75" y="430" class="value">159.35</text>
<text x="10" y="462" class="label">steamcdn-a.akamaihd.net</text>
<rect x="180" y="446" width="565.31" height="22" fill="#4c78a8" rx="3"/>
<text x="753.31" y="462" class="value">165.06</text>
<text x="10" y="494" class="label">unrealengine.com</text>
<rect x="180" y="478" width="580.0" height="22" fill="#4c78a8" rx="3"/>
<text x="768.0" y="494" class="value">169.35</text>
<line x1="180" y1="30" x2="180" y2="520" stroke="#ccc"/>
<line x1="180" y1="520" x2="760" y2="520" stroke="#ccc"/>
</svg>