<svg xmlns="http://www.w3.org/2000/svg" width="800" height="540">
<style> .label{font-family:DejaVu Sans,Verdana,Geneva,sans-serif;font-size:12px;fill:#333} .value{font-family:DejaVu Sans,Verdana,Geneva,sans-serif;font-size:12px;fill:#555} </style>
<text x="10" y="20" class="label">延迟柱状图（越低越好，Top 15），单位 ms</text>
<text x="10" y="46" class="label">rockstargames.com</text>
<rect x="180" y="30" width="113.5" height="22" fill="#4c78a8" rx="3"/>
<text x="301.5" y="46" class="value">51.38</text>
<text x="10" y="78" class="label">eaassets-a.akamaihd.net</text>
<rect x="180" y="62" width="145.79" height="22" fill="#4c78a8" rx="3"/>
<text x="333.78999999999996" y="78" class="value">66.00</text>
<text x="10" y="110" class="label">socialclub.rockstargames.com</text>
<rect x="180" y="94" width="184.23" height="22" fill="#4c78a8" rx="3"/>
<text x="372.23" y="110" class="value">83.40</text>
<text x="10" y="142" class="label">fortnite.com</text>
<rect x="180" y="126" width="200.75" height="22" fill="#4c78a8" rx="3"/>
<text x="388.75" y="142" class="value">90.88</text>
<text x="10" y="174" class="label">ubi.com</text>
<rect x="180" y="158" width="212.83" height="22" fill="#4c78a8" rx="3"/>
<text x="400.83000000000004" y="174" class="value">96.35</text>
<text x="10" y="206" class="label">battle.net</text>
<rect x="180" y="190" width="212.94" height="22" fill="#4c78a8" rx="3"/>
<text x="400.94" y="206" class="value">96.40</text>
<text x="10" y="238" class="label">blizzard.com</text>
<rect x="180" y="222" width="253.94" height="22" fill="#4c78a8" rx="3"/>
<text x="441.94" y="238" class="value">114.96</text>
<text x="10" y="270" class="label">origin.com</text>
<rect x="180" y="254" width="253.98" height="22" fill="#4c78a8" rx="3"/>
<text x="441.98" y="270" class="value">114.98</text>
<text x="10" y="302" class="label">ubisoft.com</text>
<rect x="180" y="286" width="313.18" height="22" fill="#4c78a8" rx="3"/>
<text x="501.18" y="302" class="value">141.78</text>
<text x="10" y="334" class="label">epicgames.com</text>
<rect x="180" y="318" width="328.38" height="22" fill="#4c78a8" rx="3"/>
<text x="516.38" y="334" class="value">148.66</text>
<text x="10" y="366" class="label">cdn.akamai.steamstatic.com</text>
<rect x="180" y="350" width="354.22" height="22" fill="#4c78a8" rx="3"/>
<text x="542.22" y="366" class="value">160.36</text>
<text x="10" y="398" class="label">ea.com</text>
<rect x="180" y="382" width="386.39" height="22" fill="#4c78a8" rx="3"/>
<text x="574.39" y="398" class="value">174.92</text>
<text x="10" y="430" class="label">cdn.cloudflare.steamstatic.com</text>
<rect x="180" y="414" width="503.44" height="22" fill="#4c78a8" rx="3"/>
<text x="691.44" y="430" class="value">227.91</text>
<text x="10" y="462" class="label">community.akamai.steamstatic.com</text>
<rect x="180" y="446" width="535.36" height="22" fill="#4c78a8" rx="3"/>
<text x="723.36" y="462" class="value">242.36</text>
<text x="10" y="494" class="label">steamcdn-a.akamaihd.net</text>
<rect x="180" y="478" width="580.0" height="22" fill="#4c78a8" rx="3"/>
<text x="768.0" y="494" class="value">262.57</text>
<line x1="180" y1="30" x2="180" y2="520" stroke="#ccc"/>
<line x1="180" y1="520" x2="760" y2="520" stroke="#ccc"/>
</svg>