<svg xmlns="http://www.w3.org/2000/svg" width="800" height="540">
<style> .label{font-family:DejaVu Sans,Verdana,Geneva,sans-serif;font-size:12px;fill:#333} .value{font-family:DejaVu Sans,Verdana,Geneva,sans-serif;font-size:12px;fill:#555} </style>
<text x="10" y="20" class="label">延迟柱状图（越低越好，Top 15），单位 ms</text>
<text x="10" y="46" class="label">ubisoft.com</text>
<rect x="180" y="30" width="144.31" height="22" fill="#4c78a8" rx="3"/>
<text x="332.31" y="46" class="value">72.05</text>
<text x="10" y="78" class="label">store.akamai.steamstatic.com</text>
<rect x="180" y="62" width="150.44" height="22" fill="#4c78a8" rx="3"/>
<text x="338.44" y="78" class="value">75.11</text>
<text x="10" y="110" class="label">rockstargames.com</text>
<rect x="180" y="94" width="179.52" height="22" fill="#4c78a8" rx="3"/>
<text x="367.52" y="110" class="value">89.63</text>
<text x="10" y="142" class="label">steamcdn-a.akamaihd.net</text>
<rect x="180" y="126" width="193.3" height="22" fill="#4c78a8" rx="3"/>
<text x="381.3" y="142" class="value">96.51</text>
<text x="10" y="174" class="label">ea.com</text>
<rect x="180" y="158" width="193.7" height="22" fill="#4c78a8" rx="3"/>
<text x="381.7" y="174" class="value">96.71</text>
<text x="10" y="206" class="label">origin.com</text>
<rect x="180" y="190" width="229.71" height="22" fill="#4c78a8" rx="3"/>
<text x="417.71000000000004" y="206" class="value">114.69</text>
<text x="10" y="238" class="label">eaassets-a.akamaihd.net</text>
<rect x="180" y="222" width="252.85" height="22" fill="#4c78a8" rx="3"/>
<text x="440.85" y="238" class="value">126.24</text>
<text x="10" y="270" class="label">easyanticheat.net</text>
<rect x="180" y="254" width="367.89" height="22" fill="#4c78a8" rx="3"/>
<text x="555.89" y="270" class="value">183.68</text>
<text x="10" y="302" class="label">community.akamai.steamstatic.com</text>
<rect x="180" y="286" width="400.28" height="22" fill="#4c78a8" rx="3"/>
<text x="588.28" y="302" class="value">199.85</text>
<text x="10" y="334" class="label">cdn.akamai.steamstatic.com</text>
<rect x="180" y="318" width="415.68" height="22" fill="#4c78a8" rx="3"/>
<text x="603.6800000000001" y="334" class="value">207.54</text>
<text x="10" y="366" class="label">www.steamcommunity.com</text>
<rect x="180" y="350" width="438.07" height="22" fill="#4c78a8" rx="3"/>
<text x="626.0699999999999" y="366" class="value">218.72</text>
<text x="10" y="398" class="label">ubi.com</text>
<rect x="180" y="382" width="483.48" height="22" fill="#4c78a8" rx="3"/>
<text x="671.48" y="398" class="value">241.39</text>
<text x="10" y="430" class="label">api.steampowered.com</text>
<rect x="180" y="414" width="553.22" height="22" fill="#4c78a8" rx="3"/>
<text x="741.22" y="430" class="value">276.21</text>
<text x="10" y="462" class="label">steam-chat.com</text>
<rect x="180" y="446" width="570.79" height="22" fill="#4c78a8" rx="3"/>
<text x="758.79" y="462" class="value">284.98</text>
<text x="10" y="494" class="label">steamcommunity.com</text>
<rect x="180" y="478" width="580.0" height="22" fill="#4c78a8" rx="3"/>
<text x="768.0" y="494" class="value">289.58</text>
<line x1="180" y1="30" x2="180" y2="520" stroke="#ccc"/>
<line x1="180" y1="520" x2="760" y2="520" stroke="#ccc"/>
</svg>