<svg xmlns="http://www.w3.org/2000/svg" width="800" height="540">
<style> .label{font-family:DejaVu Sans,Verdana,Geneva,sans-serif;font-size:12px;fill:#333} .value{font-family:DejaVu Sans,Verdana,Geneva,sans-serif;font-size:12px;fill:#555} </style>
<text x="10" y="20" class="label">延迟柱状图（越低越好，Top 15），单位 ms</text>
<text x="10" y="46" class="label">rockstargames.com</text>
<rect x="180" y="30" width="180.33" height="22" fill="#4c78a8" rx="3"/>
<text x="368.33000000000004" y="46" class="value">60.62</text>
<text x="10" y="78" class="label">socialclub.rockstargames.com</text>
<rect x="180" y="62" width="290.55" height="22" fill="#4c78a8" rx="3"/>
<text x="478.55" y="78" class="value">97.67</text>
<text x="10" y="110" class="label">ubi.com</text>
<rect x="180" y="94" width="312.68" height="22" fill="#4c78a8" rx="3"/>
<text x="500.68" y="110" class="value">105.11</text>
<text x="10" y="142" class="label">blizzard.com</text>
<rect x="180" y="126" width="324.52" height="22" fill="#4c78a8" rx="3"/>
<text x="512.52" y="142" class="value">109.09</text>
<text x="10" y="174" class="label">eaassets-a.akamaihd.net</text>
<rect x="180" y="158" width="343.71" height="22" fill="#4c78a8" rx="3"/>
<text x="531.71" y="174" class="value">115.54</text>
<text x="10" y="206" class="label">battle.net</text>
<rect x="180" y="190" width="360.31" height="22" fill="#4c78a8" rx="3"/>
<text x="548.31" y="206" class="value">121.12</text>
<text x="10" y="238" class="label">ubisoft.com</text>
<rect x="180" y="222" width="362.18" height="22" fill="#4c78a8" rx="3"/>
<text x="550.1800000000001" y="238" class="value">121.75</text>
<text x="10" y="270" class="label">cdn.akamai.steamstatic.com</text>
<rect x="180" y="254" width="447.89" height="22" fill="#4c78a8" rx="3"/>
<text x="635.89" y="270" class="value">150.56</text>
<text x="10" y="302" class="label">ea.com</text>
<rect x="180" y="286" width="500.22" height="22" fill="#4c78a8" rx="3"/>
<text x="688.22" y="302" class="value">168.15</text>
<text x="10" y="334" class="label">epicgames.com</text>
<rect x="180" y="318" width="500.57" height="22" fill="#4c78a8" rx="3"/>
<text x="688.5699999999999" y="334" class="value">168.27</text>
<text x="10" y="366" class="label">unrealengine.com</text>
<rect x="180" y="350" width="516.28" height="22" fill="#4c78a8" rx="3"/>
<text x="704.28" y="366" class="value">173.55</text>
<text x="10" y="398" class="label">store.akamai.steamstatic.com</text>
<rect x="180" y="382" width="539.54" height="22" fill="#4c78a8" rx="3"/>
<text x="727.54" y="398" class="value">181.37</text>
<text x="10" y="430" class="label">origin.com</text>
<rect x="180" y="414" width="540.85" height="22" fill="#4c78a8" rx="3"/>
<text x="728.85" y="430" class="value">181.81</text>
<text x="10" y="462" class="label">fortnite.com</text>
<rect x="180" y="446" width="560.63" height="22" fill="#4c78a8" rx="3"/>
<text x="748.63" y="462" class="value">188.46</text>
<text x="10" y="494" class="label">static3.cdn.ubi.com</text>
<rect x="180" y="478" width="580.0" height="22" fill="#4c78a8" rx="3"/>
<text x="768.0" y="494" class="value">194.97</text>
<line x1="180" y1="30" x2="180" y2="520" stroke="#ccc"/>
<line x1="180" y1="520" x2="760" y2="520" stroke="#ccc"/>
</svg>