<svg xmlns="http://www.w3.org/2000/svg" width="800" height="540">
<style> .label{font-family:DejaVu Sans,Verdana,Geneva,sans-serif;font-size:12px;fill:#333} .value{font-family:DejaVu Sans,Verdana,Geneva,sans-serif;font-size:12px;fill:#555} </style>
<text x="10" y="20" class="label">延迟柱状图（越低越好，Top 15），单位 ms</text>
<text x="10" y="46" class="label">ea.com</text>
<rect x="180" y="30" width="153.95" height="22" fill="#4c78a8" rx="3"/>
<text x="341.95" y="46" class="value">71.50</text>
<text x="10" y="78" class="label">rockstargames.com</text>
<rect x="180" y="62" width="169.65" height="22" fill="#4c78a8" rx="3"/>
<text x="357.65" y="78" class="value">78.79</text>
<text x="10" y="110" class="label">steamcdn-a.akamaihd.net</text>
<rect x="180" y="94" width="177.08" height="22" fill="#4c78a8" rx="3"/>
<text x="365.08000000000004" y="110" class="value">82.24</text>
<text x="10" y="142" class="label">eaassets-a.akamaihd.net</text>
<rect x="180" y="126" width="194.63" height="22" fill="#4c78a8" rx="3"/>
<text x="382.63" y="142" class="value">90.39</text>
<text x="10" y="174" class="label">origin.com</text>
<rect x="180" y="158" width="232.07" height="22" fill="#4c78a8" rx="3"/>
<text x="420.07" y="174" class="value">107.78</text>
<text x="10" y="206" class="label">cdn.cloudflare.steamstatic.com</text>
<rect x="180" y="190" width="268.91" height="22" fill="#4c78a8" rx="3"/>
<text x="456.91" y="206" class="value">124.89</text>
<text x="10" y="238" class="label">ubisoft.com</text>
<rect x="180" y="222" width="268.95" height="22" fill="#4c78a8" rx="3"/>
<text x="456.95" y="238" class="value">124.91</text>
<text x="10" y="270" class="label">easyanticheat.net</text>
<rect x="180" y="254" width="326.64" height="22" fill="#4c78a8" rx="3"/>
<text x="514.64" y="270" class="value">151.70</text>
<text x="10" y="302" class="label">store.akamai.steamstatic.com</text>
<rect x="180" y="286" width="330.86" height="22" fill="#4c78a8" rx="3"/>
<text x="518.86" y="302" class="value">153.66</text>
<text x="10" y="334" class="label">community.akamai.steamstatic.com</text>
<rect x="180" y="318" width="382.68" height="22" fill="#4c78a8" rx="3"/>
<text x="570.6800000000001" y="334" class="value">177.73</text>
<text x="10" y="366" class="label">cdn.akamai.steamstatic.com</text>
<rect x="180" y="350" width="404.15" height="22" fill="#4c78a8" rx="3"/>
<text x="592.15" y="366" class="value">187.70</text>
<text x="10" y="398" class="label">gog.com</text>
<rect x="180" y="382" width="422.84" height="22" fill="#4c78a8" rx="3"/>
<text x="610.8399999999999" y="398" class="value">196.38</text>
<text x="10" y="430" class="label">steam-chat.com</text>
<rect x="180" y="414" width="439.98" height="22" fill="#4c78a8" rx="3"/>
<text x="627.98" y="430" class="value">204.34</text>
<text x="10" y="462" class="label">www.steamcommunity.com</text>
<rect x="180" y="446" width="515.08" height="22" fill="#4c78a8" rx="3"/>
<text x="703.08" y="462" class="value">239.22</text>
<text x="10" y="494" class="label">api.steampowered.com</text>
<rect x="180" y="478" width="580.0" height="22" fill="#4c78a8" rx="3"/>
<text x="768.0" y="494" class="value">269.37</text>
<line x1="180" y1="30" x2="180" y2="520" stroke="#ccc"/>
<line x1="180" y1="520" x2="760" y2="520" stroke="#ccc"/>
</svg>