<svg xmlns="http://www.w3.org/2000/svg" width="800" height="540">
<style> .label{font-family:DejaVu Sans,Verdana,Geneva,sans-serif;font-size:12px;fill:#333} .value{font-family:DejaVu Sans,Verdana,Geneva,sans-serif;font-size:12px;fill:#555} </style>
<text x="10" y="20" class="label">延迟柱状图（越低越好，Top 15），单位 ms</text>
<text x="10" y="46" class="label">rockstargames.com</text>
<rect x="180" y="30" width="180.06" height="22" fill="#4c78a8" rx="3"/>
<text x="368.06" y="46" class="value">52.46</text>
<text x="10" y="78" class="label">socialclub.rockstargames.com</text>
<rect x="180" y="62" width="335.31" height="22" fill="#4c78a8" rx="3"/>
<text x="523.31" y="78" class="value">97.69</text>
<text x="10" y="110" class="label">epicgames.com</text>
<rect x="180" y="94" width="343.72" height="22" fill="#4c78a8" rx="3"/>
<text x="531.72" y="110" class="value">100.14</text>
<text x="10" y="142" class="label">eaassets-a.akamaihd.net</text>
<rect x="180" y="126" width="347.97" height="22" fill="#4c78a8" rx="3"/>
<text x="535.97" y="142" class="value">101.38</text>
<text x="10" y="174" class="label">ubi.com</text>
<rect x="180" y="158" width="353.22" height="22" fill="#4c78a8" rx="3"/>
<text x="541.22" y="174" class="value">102.91</text>
<text x="10" y="206" class="label">blizzard.com</text>
<rect x="180" y="190" width="354.05" height="22" fill="#4c78a8" rx="3"/>
<text x="542.05" y="206" class="value">103.15</text>
<text x="10" y="238" class="label">ea.com</text>
<rect x="180" y="222" width="381.54" height="22" fill="#4c78a8" rx="3"/>
<text x="569.54" y="238" class="value">111.16</text>
<text x="10" y="270" class="label">store.akamai.steamstatic.com</text>
<rect x="180" y="254" width="398.26" height="22" fill="#4c78a8" rx="3"/>
<text x="586.26" y="270" class="value">116.03</text>
<text x="10" y="302" class="label">battle.net</text>
<rect x="180" y="286" width="421.32" height="22" fill="#4c78a8" rx="3"/>
<text x="609.3199999999999" y="302" class="value">122.75</text>
<text x="10" y="334" class="label">fortnite.com</text>
<rect x="180" y="318" width="428.56" height="22" fill="#4c78a8" rx="3"/>
<text x="616.56" y="334" class="value">124.86</text>
<text x="10" y="366" class="label">origin.com</text>
<rect x="180" y="350" width="431.24" height="22" fill="#4c78a8" rx="3"/>
<text x="619.24" y="366" class="value">125.64</text>
<text x="10" y="398" class="label">community.akamai.steamstatic.com</text>
<rect x="180" y="382" width="439.03" height="22" fill="#4c78a8" rx="3"/>
<text x="627.03" y="398" class="value">127.91</text>
<text x="10" y="430" class="label">unrealengine.com</text>
<rect x="180" y="414" width="446.65" height="22" fill="#4c78a8" rx="3"/>
<text x="634.65" y="430" class="value">130.13</text>
<text x="10" y="462" class="label">ubisoft.com</text>
<rect x="180" y="446" width="551.89" height="22" fill="#4c78a8" rx="3"/>
<text x="739.89" y="462" class="value">160.79</text>
<text x="10" y="494" class="label">steamcdn-a.akamaihd.net</text>
<rect x="180" y="478" width="580.0" height="22" fill="#4c78a8" rx="3"/>
<text x="768.0" y="494" class="value">168.98</text>
<line x1="180" y1="30" x2="180" y2="520" stroke="#ccc"/>
<line x1="180" y1="520" x2="760" y2="520" stroke="#ccc"/>
</svg>