<svg xmlns="http://www.w3.org/2000/svg" width="800" height="540">
<style> .label{font-family:DejaVu Sans,Verdana,Geneva,sans-serif;font-size:12px;fill:#333} .value{font-family:DejaVu Sans,Verdana,Geneva,sans-serif;font-size:12px;fill:#555} </style>
<text x="10" y="20" class="label">延迟柱状图（越低越好，Top 15），单位 ms</text>
<text x="10" y="46" class="label">rockstargames.com</text>
<rect x="180" y="30" width="114.24" height="22" fill="#4c78a8" rx="3"/>
<text x="302.24" y="46" class="value">41.69</text>
<text x="10" y="78" class="label">socialclub.rockstargames.com</text>
<rect x="180" y="62" width="201.71" height="22" fill="#4c78a8" rx="3"/>
<text x="389.71000000000004" y="78" class="value">73.61</text>
<text x="10" y="110" class="label">eaassets-a.akamaihd.net</text>
<rect x="180" y="94" width="224.97" height="22" fill="#4c78a8" rx="3"/>
<text x="412.97" y="110" class="value">82.10</text>
<text x="10" y="142" class="label">fortnite.com</text>
<rect x="180" y="126" width="262.3" height="22" fill="#4c78a8" rx="3"/>
<text x="450.3" y="142" class="value">95.72</text>
<text x="10" y="174" class="label">blizzard.com</text>
<rect x="180" y="158" width="295.92" height="22" fill="#4c78a8" rx="3"/>
<text x="483.92" y="174" class="value">107.99</text>
<text x="10" y="206" class="label">ubi.com</text>
<rect x="180" y="190" width="305.84" height="22" fill="#4c78a8" rx="3"/>
<text x="493.84" y="206" class="value">111.61</text>
<text x="10" y="238" class="label">unrealengine.com</text>
<rect x="180" y="222" width="312.03" height="22" fill="#4c78a8" rx="3"/>
<text x="500.03" y="238" class="value">113.87</text>
<text x="10" y="270" class="label">ea.com</text>
<rect x="180" y="254" width="312.99" height="22" fill="#4c78a8" rx="3"/>
<text x="500.99" y="270" class="value">114.22</text>
<text x="10" y="302" class="label">battle.net</text>
<rect x="180" y="286" width="338.26" height="22" fill="#4c78a8" rx="3"/>
<text x="526.26" y="302" class="value">123.44</text>
<text x="10" y="334" class="label">ubisoft.com</text>
<rect x="180" y="318" width="343.74" height="22" fill="#4c78a8" rx="3"/>
<text x="531.74" y="334" class="value">125.44</text>
<text x="10" y="366" class="label">community.akamai.steamstatic.com</text>
<rect x="180" y="350" width="466.61" height="22" fill="#4c78a8" rx="3"/>
<text x="654.61" y="366" class="value">170.28</text>
<text x="10" y="398" class="label">origin.com</text>
<rect x="180" y="382" width="492.34" height="22" fill="#4c78a8" rx="3"/>
<text x="680.3399999999999" y="398" class="value">179.67</text>
<text x="10" y="430" class="label">epicgames.com</text>
<rect x="180" y="414" width="502.67" height="22" fill="#4c78a8" rx="3"/>
<text x="690.6700000000001" y="430" class="value">183.44</text>
<text x="10" y="462" class="label">cdn.akamai.steamstatic.com</text>
<rect x="180" y="446" width="565.86" height="22" fill="#4c78a8" rx="3"/>
<text x="753.86" y="462" class="value">206.50</text>
<text x="10" y="494" class="label">static3.cdn.ubi.com</text>
<rect x="180" y="478" width="580.0" height="22" fill="#4c78a8" rx="3"/>
<text x="768.0" y="494" class="value">211.66</text>
<line x1="180" y1="30" x2="180" y2="520" stroke="#ccc"/>
<line x1="180" y1="520" x2="760" y2="520" stroke="#ccc"/>
</svg>