<svg xmlns="http://www.w3.org/2000/svg" width="800" height="540">
<style> .label{font-family:DejaVu Sans,Verdana,Geneva,sans-serif;font-size:12px;fill:#333} .value{font-family:DejaVu Sans,Verdana,Geneva,sans-serif;font-size:12px;fill:#555} </style>
<text x="10" y="20" class="label">延迟柱状图（越低越好，Top 15），单位 ms</text>
<text x="10" y="46" class="label">rockstargames.com</text>
<rect x="180" y="30" width="185.8" height="22" fill="#4c78a8" rx="3"/>
<text x="373.8" y="46" class="value">87.07</text>
<text x="10" y="78" class="label">steamcdn-a.akamaihd.net</text>
<rect x="180" y="62" width="215.53" height="22" fill="#4c78a8" rx="3"/>
<text x="403.53" y="78" class="value">101.00</text>
<text x="10" y="110" class="label">community.akamai.steamstatic.com</text>
<rect x="180" y="94" width="217.43" height="22" fill="#4c78a8" rx="3"/>
<text x="405.43" y="110" class="value">101.89</text>
<text x="10" y="142" class="label">store.akamai.steamstatic.com</text>
<rect x="180" y="126" width="218.0" height="22" fill="#4c78a8" rx="3"/>
<text x="406.0" y="142" class="value">102.16</text>
<text x="10" y="174" class="label">origin.com</text>
<rect x="180" y="158" width="224.21" height="22" fill="#4c78a8" rx="3"/>
<text x="412.21000000000004" y="174" class="value">105.07</text>
<text x="10" y="206" class="label">ubisoft.com</text>
<rect x="180" y="190" width="232.02" height="22" fill="#4c78a8" rx="3"/>
<text x="420.02" y="206" class="value">108.73</text>
<text x="10" y="238" class="label">easyanticheat.net</text>
<rect x="180" y="222" width="296.64" height="22" fill="#4c78a8" rx="3"/>
<text x="484.64" y="238" class="value">139.01</text>
<text x="10" y="270" class="label">cdn.akamai.steamstatic.com</text>
<rect x="180" y="254" width="304.89" height="22" fill="#4c78a8" rx="3"/>
<text x="492.89" y="270" class="value">142.88</text>
<text x="10" y="302" class="label">ea.com</text>
<rect x="180" y="286" width="345.82" height="22" fill="#4c78a8" rx="3"/>
<text x="533.8199999999999" y="302" class="value">162.06</text>
<text x="10" y="334" class="label">cdn.cloudflare.steamstatic.com</text>
<rect x="180" y="318" width="374.12" height="22" fill="#4c78a8" rx="3"/>
<text x="562.12" y="334" class="value">175.32</text>
<text x="10" y="366" class="label">www.steamcommunity.com</text>
<rect x="180" y="350" width="471.58" height="22" fill="#4c78a8" rx="3"/>
<text x="659.5799999999999" y="366" class="value">220.99</text>
<text x="10" y="398" class="label">steamcommunity.com</text>
<rect x="180" y="382" width="497.55" height="22" fill="#4c78a8" rx="3"/>
<text x="685.55" y="398" class="value">233.16</text>
<text x="10" y="430" class="label">steam-chat.com</text>
<rect x="180" y="414" width="518.44" height="22" fill="#4c78a8" rx="3"/>
<text x="706.44" y="430" class="value">242.95</text>
<text x="10" y="462" class="label">ubi.com</text>
<rect x="180" y="446" width="526.14" height="22" fill="#4c78a8" rx="3"/>
<text x="714.14" y="462" class="value">246.56</text>
<text x="10" y="494" class="label">epicgames.com</text>
<rect x="180" y="478" width="580.0" height="22" fill="#4c78a8" rx="3"/>
<text x="768.0" y="494" class="value">271.80</text>
<line x1="180" y1="30" x2="180" y2="520" stroke="#ccc"/>
<line x1="180" y1="520" x2="760" y2="520" stroke="#ccc"/>
</svg>