<svg xmlns="http://www.w3.org/2000/svg" width="800" height="540">
<style> .label{font-family:DejaVu Sans,Verdana,Geneva,sans-serif;font-size:12px;fill:#333} .value{font-family:DejaVu Sans,Verdana,Geneva,sans-serif;font-size:12px;fill:#555} </style>
<text x="10" y="20" class="label">延迟柱状图（越低越好，Top 15），单位 ms</text>
<text x="10" y="46" class="label">rockstargames.com</text>
<rect x="180" y="30" width="196.61" height="22" fill="#4c78a8" rx="3"/>
<text x="384.61" y="46" class="value">73.30</text>
<text x="10" y="78" class="label">socialclub.rockstargames.com</text>
<rect x="180" y="62" width="225.09" height="22" fill="#4c78a8" rx="3"/>
<text x="413.09000000000003" y="78" class="value">83.92</text>
<text x="10" y="110" class="label">ubi.com</text>
<rect x="180" y="94" width="230.51" height="22" fill="#4c78a8" rx="3"/>
<text x="418.51" y="110" class="value">85.94</text>
<text x="10" y="142" class="label">eaassets-a.akamaihd.net</text>
<rect x="180" y="126" width="239.74" height="22" fill="#4c78a8" rx="3"/>
<text x="427.74" y="142" class="value">89.38</text>
<text x="10" y="174" class="label">blizzard.com</text>
<rect x="180" y="158" width="241.1" height="22" fill="#4c78a8" rx="3"/>
<text x="429.1" y="174" class="value">89.89</text>
<text x="10" y="206" class="label">ea.com</text>
<rect x="180" y="190" width="252.53" height="22" fill="#4c78a8" rx="3"/>
<text x="440.53" y="206" class="value">94.15</text>
<text x="10" y="238" class="label">battle.net</text>
<rect x="180" y="222" width="280.91" height="22" fill="#4c78a8" rx="3"/>
<text x="468.91" y="238" class="value">104.73</text>
<text x="10" y="270" class="label">store.akamai.steamstatic.com</text>
<rect x="180" y="254" width="283.72" height="22" fill="#4c78a8" rx="3"/>
<text x="471.72" y="270" class="value">105.78</text>
<text x="10" y="302" class="label">fortnite.com</text>
<rect x="180" y="286" width="302.53" height="22" fill="#4c78a8" rx="3"/>
<text x="490.53" y="302" class="value">112.79</text>
<text x="10" y="334" class="label">steamcdn-a.akamaihd.net</text>
<rect x="180" y="318" width="410.7" height="22" fill="#4c78a8" rx="3"/>
<text x="598.7" y="334" class="value">153.12</text>
<text x="10" y="366" class="label">epicgames.com</text>
<rect x="180" y="350" width="450.23" height="22" fill="#4c78a8" rx="3"/>
<text x="638.23" y="366" class="value">167.86</text>
<text x="10" y="398" class="label">cdn.akamai.steamstatic.com</text>
<rect x="180" y="382" width="458.36" height="22" fill="#4c78a8" rx="3"/>
<text x="646.36" y="398" class="value">170.89</text>
<text x="10" y="430" class="label">unrealengine.com</text>
<rect x="180" y="414" width="547.46" height="22" fill="#4c78a8" rx="3"/>
<text x="735.46" y="430" class="value">204.11</text>
<text x="10" y="462" class="label">ubisoft.com</text>
<rect x="180" y="446" width="574.8" height="22" fill="#4c78a8" rx="3"/>
<text x="762.8" y="462" class="value">214.30</text>
<text x="10" y="494" class="label">origin.com</text>
<rect x="180" y="478" width="580.0" height="22" fill="#4c78a8" rx="3"/>
<text x="768.0" y="494" class="value">216.24</text>
<line x1="180" y1="30" x2="180" y2="520" stroke="#ccc"/>
<line x1="180" y1="520" x2="760" y2="520" stroke="#ccc"/>
</svg>