<svg xmlns="http://www.w3.org/2000/svg" width="800" height="540">
<style> .label{font-family:DejaVu Sans,Verdana,Geneva,sans-serif;font-size:12px;fill:#333} .value{font-family:DejaVu Sans,Verdana,Geneva,sans-serif;font-size:12px;fill:#555} </style>
<text x="10" y="20" class="label">延迟柱状图（越低越好，Top 15），单位 ms</text>
<text x="10" y="46" class="label">rockstargames.com</text>
<rect x="180" y="30" width="130.81" height="22" fill="#4c78a8" rx="3"/>
<text x="318.81" y="46" class="value">78.77</text>
<text x="10" y="78" class="label">eaassets-a.akamaihd.net</text>
<rect x="180" y="62" width="140.21" height="22" fill="#4c78a8" rx="3"/>
<text x="328.21000000000004" y="78" class="value">84.43</text>
<text x="10" y="110" class="label">ubisoft.com</text>
<rect x="180" y="94" width="182.46" height="22" fill="#4c78a8" rx="3"/>
<text x="370.46000000000004" y="110" class="value">109.87</text>
<text x="10" y="142" class="label">steamcdn-a.akamaihd.net</text>
<rect x="180" y="126" width="198.58" height="22" fill="#4c78a8" rx="3"/>
<text x="386.58000000000004" y="142" class="value">119.58</text>
<text x="10" y="174" class="label">origin.com</text>
<rect x="180" y="158" width="248.97" height="22" fill="#4c78a8" rx="3"/>
<text x="436.97" y="174" class="value">149.92</text>
<text x="10" y="206" class="label">community.akamai.steamstatic.com</text>
<rect x="180" y="190" width="257.48" height="22" fill="#4c78a8" rx="3"/>
<text x="445.48" y="206" class="value">155.05</text>
<text x="10" y="238" class="label">ea.com</text>
<rect x="180" y="222" width="322.28" height="22" fill="#4c78a8" rx="3"/>
<text x="510.28" y="238" class="value">194.07</text>
<text x="10" y="270" class="label">store.akamai.steamstatic.com</text>
<rect x="180" y="254" width="332.46" height="22" fill="#4c78a8" rx="3"/>
<text x="520.46" y="270" class="value">200.20</text>
<text x="10" y="302" class="label">cdn.cloudflare.steamstatic.com</text>
<rect x="180" y="286" width="344.57" height="22" fill="#4c78a8" rx="3"/>
<text x="532.5699999999999" y="302" class="value">207.49</text>
<text x="10" y="334" class="label">easyanticheat.net</text>
<rect x="180" y="318" width="356.53" height="22" fill="#4c78a8" rx="3"/>
<text x="544.53" y="334" class="value">214.69</text>
<text x="10" y="366" class="label">ubi.com</text>
<rect x="180" y="350" width="417.75" height="22" fill="#4c78a8" rx="3"/>
<text x="605.75" y="366" class="value">251.56</text>
<text x="10" y="398" class="label">cdn.akamai.steamstatic.com</text>
<rect x="180" y="382" width="459.85" height="22" fill="#4c78a8" rx="3"/>
<text x="647.85" y="398" class="value">276.91</text>
<text x="10" y="430" class="label">steam-chat.com</text>
<rect x="180" y="414" width="481.57" height="22" fill="#4c78a8" rx="3"/>
<text x="669.5699999999999" y="430" class="value">289.99</text>
<text x="10" y="462" class="label">socialclub.rockstargames.com</text>
<rect x="180" y="446" width="511.78" height="22" fill="#4c78a8" rx="3"/>
<text x="699.78" y="462" class="value">308.18</text>
<text x="10" y="494" class="label">unrealengine.com</text>
<rect x="180" y="478" width="580.0" height="22" fill="#4c78a8" rx="3"/>
<text x="768.0" y="494" class="value">349.26</text>
<line x1="180" y1="30" x2="180" y2="520" stroke="#ccc"/>
<line x1="180" y1="520" x2="760" y2="520" stroke="#ccc"/>
</svg>