<svg xmlns="http://www.w3.org/2000/svg" width="800" height="540">
<style> .label{font-family:DejaVu Sans,Verdana,Geneva,sans-serif;font-size:12px;fill:#333} .value{font-family:DejaVu Sans,Verdana,Geneva,sans-serif;font-size:12px;fill:#555} </style>
<text x="10" y="20" class="label">延迟柱状图（越低越好，Top 15），单位 ms</text>
<text x="10" y="46" class="label">eaassets-a.akamaihd.net</text>
<rect x="180" y="30" width="123.14" height="22" fill="#4c78a8" rx="3"/>
<text x="311.14" y="46" class="value">41.02</text>
<text x="10" y="78" class="label">rockstargames.com</text>
<rect x="180" y="62" width="171.27" height="22" fill="#4c78a8" rx="3"/>
<text x="359.27" y="78" class="value">57.05</text>
<text x="10" y="110" class="label">ea.com</text>
<rect x="180" y="94" width="271.48" height="22" fill="#4c78a8" rx="3"/>
<text x="459.48" y="110" class="value">90.43</text>
<text x="10" y="142" class="label">origin.com</text>
<rect x="180" y="126" width="297.3" height="22" fill="#4c78a8" rx="3"/>
<text x="485.3" y="142" class="value">99.03</text>
<text x="10" y="174" class="label">blizzard.com</text>
<rect x="180" y="158" width="341.16" height="22" fill="#4c78a8" rx="3"/>
<text x="529.1600000000001" y="174" class="value">113.64</text>
<text x="10" y="206" class="label">store.akamai.steamstatic.com</text>
<rect x="180" y="190" width="346.8" height="22" fill="#4c78a8" rx="3"/>
<text x="534.8" y="206" class="value">115.52</text>
<text x="10" y="238" class="label">battle.net</text>
<rect x="180" y="222" width="379.43" height="22" fill="#4c78a8" rx="3"/>
<text x="567.4300000000001" y="238" class="value">126.39</text>
<text x="10" y="270" class="label">ubi.com</text>
<rect x="180" y="254" width="423.11" height="22" fill="#4c78a8" rx="3"/>
<text x="611.11" y="270" class="value">140.94</text>
<text x="10" y="302" class="label">community.akamai.steamstatic.com</text>
<rect x="180" y="286" width="428.79" height="22" fill="#4c78a8" rx="3"/>
<text x="616.79" y="302" class="value">142.83</text>
<text x="10" y="334" class="label">static3.cdn.ubi.com</text>
<rect x="180" y="318" width="468.29" height="22" fill="#4c78a8" rx="3"/>
<text x="656.29" y="334" class="value">155.99</text>
<text x="10" y="366" class="label">ubisoft.com</text>
<rect x="180" y="350" width="469.49" height="22" fill="#4c78a8" rx="3"/>
<text x="657.49" y="366" class="value">156.39</text>
<text x="10" y="398" class="label">socialclub.rockstargames.com</text>
<rect x="180" y="382" width="505.25" height="22" fill="#4c78a8" rx="3"/>
<text x="693.25" y="398" class="value">168.30</text>
<text x="10" y="430" class="label">steamcdn-a.akamaihd.net</text>
<rect x="180" y="414" width="558.78" height="22" fill="#4c78a8" rx="3"/>
<text x="746.78" y="430" class="value">186.13</text>
<text x="10" y="462" class="label">gog.com</text>
<rect x="180" y="446" width="562.89" height="22" fill="#4c78a8" rx="3"/>
<text x="750.89" y="462" class="value">187.50</text>
<text x="10" y="494" class="label">cdn.cloudflare.steamstatic.com</text>
<rect x="180" y="478" width="580.0" height="22" fill="#4c78a8" rx="3"/>
<text x="768.0" y="494" class="value">193.20</text>
<line x1="180" y1="30" x2="180" y2="520" stroke="#ccc"/>
<line x1="180" y1="520" x2="760" y2="520" stroke="#ccc"/>
</svg>