<svg xmlns="http://www.w3.org/2000/svg" width="800" height="540">
<style> .label{font-family:DejaVu Sans,Verdana,Geneva,sans-serif;font-size:12px;fill:#333} .value{font-family:DejaVu Sans,Verdana,Geneva,sans-serif;font-size:12px;fill:#555} </style>
<text x="10" y="20" class="label">延迟柱状图（越低越好，Top 15），单位 ms</text>
<text x="10" y="46" class="label">rockstargames.com</text>
<rect x="180" y="30" width="199.73" height="22" fill="#4c78a8" rx="3"/>
<text x="387.73" y="46" class="value">67.25</text>
<text x="10" y="78" class="label">blizzard.com</text>
<rect x="180" y="62" width="254.52" height="22" fill="#4c78a8" rx="3"/>
<text x="442.52" y="78" class="value">85.70</text>
<text x="10" y="110" class="label">socialclub.rockstargames.com</text>
<rect x="180" y="94" width="266.11" height="22" fill="#4c78a8" rx="3"/>
<text x="454.11" y="110" class="value">89.60</text>
<text x="10" y="142" class="label">battle.net</text>
<rect x="180" y="126" width="290.58" height="22" fill="#4c78a8" rx="3"/>
<text x="478.58" y="142" class="value">97.84</text>
<text x="10" y="174" class="label">ubisoft.com</text>
<rect x="180" y="158" width="325.48" height="22" fill="#4c78a8" rx="3"/>
<text x="513.48" y="174" class="value">109.59</text>
<text x="10" y="206" class="label">ubi.com</text>
<rect x="180" y="190" width="325.98" height="22" fill="#4c78a8" rx="3"/>
<text x="513.98" y="206" class="value">109.76</text>
<text x="10" y="238" class="label">unrealengine.com</text>
<rect x="180" y="222" width="332.28" height="22" fill="#4c78a8" rx="3"/>
<text x="520.28" y="238" class="value">111.88</text>
<text x="10" y="270" class="label">eaassets-a.akamaihd.net</text>
<rect x="180" y="254" width="335.84" height="22" fill="#4c78a8" rx="3"/>
<text x="523.8399999999999" y="270" class="value">113.08</text>
<text x="10" y="302" class="label">fortnite.com</text>
<rect x="180" y="286" width="449.38" height="22" fill="#4c78a8" rx="3"/>
<text x="637.38" y="302" class="value">151.31</text>
<text x="10" y="334" class="label">ea.com</text>
<rect x="180" y="318" width="478.43" height="22" fill="#4c78a8" rx="3"/>
<text x="666.4300000000001" y="334" class="value">161.09</text>
<text x="10" y="366" class="label">static3.cdn.ubi.com</text>
<rect x="180" y="350" width="535.63" height="22" fill="#4c78a8" rx="3"/>
<text x="723.63" y="366" class="value">180.35</text>
<text x="10" y="398" class="label">store.akamai.steamstatic.com</text>
<rect x="180" y="382" width="538.18" height="22" fill="#4c78a8" rx="3"/>
<text x="726.18" y="398" class="value">181.21</text>
<text x="10" y="430" class="label">epicgames.com</text>
<rect x="180" y="414" width="558.32" height="22" fill="#4c78a8" rx="3"/>
<text x="746.32" y="430" class="value">187.99</text>
<text x="10" y="462" class="label">easyanticheat.net</text>
<rect x="180" y="446" width="568.09" height="22" fill="#4c78a8" rx="3"/>
<text x="756.09" y="462" class="value">191.28</text>
<text x="10" y="494" class="label">steamcdn-a.akamaihd.net</text>
<rect x="180" y="478" width="580.0" height="22" fill="#4c78a8" rx="3"/>
<text x="768.0" y="494" class="value">195.29</text>
<line x1="180" y1="30" x2="180" y2="520" stroke="#ccc"/>
<line x1="180" y1="520" x2="760" y2="520" stroke="#ccc"/>
</svg>