<svg xmlns="http://www.w3.org/2000/svg" width="800" height="540">
<style> .label{font-family:DejaVu Sans,Verdana,Geneva,sans-serif;font-size:12px;fill:#333} .value{font-family:DejaVu Sans,Verdana,Geneva,sans-serif;font-size:12px;fill:#555} </style>
<text x="10" y="20" class="label">延迟柱状图（越低越好，Top 15），单位 ms</text>
<text x="10" y="46" class="label">rockstargames.com</text>
<rect x="180" y="30" width="181.65" height="22" fill="#4c78a8" rx="3"/>
<text x="369.65" y="46" class="value">52.90</text>
<text x="10" y="78" class="label">eaassets-a.akamaihd.net</text>
<rect x="180" y="62" width="194.56" height="22" fill="#4c78a8" rx="3"/>
<text x="382.56" y="78" class="value">56.66</text>
<text x="10" y="110" class="label">socialclub.rockstargames.com</text>
<rect x="180" y="94" width="284.25" height="22" fill="#4c78a8" rx="3"/>
<text x="472.25" y="110" class="value">82.78</text>
<text x="10" y="142" class="label">blizzard.com</text>
<rect x="180" y="126" width="304.3" height="22" fill="#4c78a8" rx="3"/>
<text x="492.3" y="142" class="value">88.62</text>
<text x="10" y="174" class="label">fortnite.com</text>
<rect x="180" y="158" width="318.52" height="22" fill="#4c78a8" rx="3"/>
<text x="506.52" y="174" class="value">92.76</text>
<text x="10" y="206" class="label">ubi.com</text>
<rect x="180" y="190" width="343.62" height="22" fill="#4c78a8" rx="3"/>
<text x="531.62" y="206" class="value">100.07</text>
<text x="10" y="238" class="label">battle.net</text>
<rect x="180" y="222" width="351.76" height="22" fill="#4c78a8" rx="3"/>
<text x="539.76" y="238" class="value">102.44</text>
<text x="10" y="270" class="label">unrealengine.com</text>
<rect x="180" y="254" width="390.35" height="22" fill="#4c78a8" rx="3"/>
<text x="578.35" y="270" class="value">113.68</text>
<text x="10" y="302" class="label">ubisoft.com</text>
<rect x="180" y="286" width="410.37" height="22" fill="#4c78a8" rx="3"/>
<text x="598.37" y="302" class="value">119.51</text>
<text x="10" y="334" class="label">cdn.akamai.steamstatic.com</text>
<rect x="180" y="318" width="420.81" height="22" fill="#4c78a8" rx="3"/>
<text x="608.81" y="334" class="value">122.55</text>
<text x="10" y="366" class="label">ea.com</text>
<rect x="180" y="350" width="459.3" height="22" fill="#4c78a8" rx="3"/>
<text x="647.3" y="366" class="value">133.76</text>
<text x="10" y="398" class="label">steamcdn-a.akamaihd.net</text>
<rect x="180" y="382" width="499.72" height="22" fill="#4c78a8" rx="3"/>
<text x="687.72" y="398" class="value">145.53</text>
<text x="10" y="430" class="label">store.akamai.steamstatic.com</text>
<rect x="180" y="414" width="514.35" height="22" fill="#4c78a8" rx="3"/>
<text x="702.35" y="430" class="value">149.79</text>
<text x="10" y="462" class="label">epicgames.com</text>
<rect x="180" y="446" width="526.78" height="22" fill="#4c78a8" rx="3"/>
<text x="714.78" y="462" class="value">153.41</text>
<text x="10" y="494" class="label">community.akamai.steamstatic.com</text>
<rect x="180" y="478" width="580.0" height="22" fill="#4c78a8" rx="3"/>
<text x="768.0" y="494" class="value">168.91</text>
<line x1="180" y1="30" x2="180" y2="520" stroke="#ccc"/>
<line x1="180" y1="520" x2="760" y2="520" stroke="#ccc"/>
</svg>