<svg xmlns="http://www.w3.org/2000/svg" width="800" height="540">
<style> .label{font-family:DejaVu Sans,Verdana,Geneva,sans-serif;font-size:12px;fill:#333} .value{font-family:DejaVu Sans,Verdana,Geneva,sans-serif;font-size:12px;fill:#555} </style>
<text x="10" y="20" class="label">延迟柱状图（越低越好，Top 15），单位 ms</text>
<text x="10" y="46" class="label">socialclub.rockstargames.com</text>
<rect x="180" y="30" width="231.86" height="22" fill="#4c78a8" rx="3"/>
<text x="419.86" y="46" class="value">87.93</text>
<text x="10" y="78" class="label">battle.net</text>
<rect x="180" y="62" width="244.65" height="22" fill="#4c78a8" rx="3"/>
<text x="432.65" y="78" class="value">92.78</text>
<text x="10" y="110" class="label">blizzard.com</text>
<rect x="180" y="94" width="263.68" height="22" fill="#4c78a8" rx="3"/>
<text x="451.68" y="110" class="value">100.00</text>
<text x="10" y="142" class="label">rockstargames.com</text>
<rect x="180" y="126" width="290.69" height="22" fill="#4c78a8" rx="3"/>
<text x="478.69" y="142" class="value">110.24</text>
<text x="10" y="174" class="label">eaassets-a.akamaihd.net</text>
<rect x="180" y="158" width="305.03" height="22" fill="#4c78a8" rx="3"/>
<text x="493.03" y="174" class="value">115.68</text>
<text x="10" y="206" class="label">ea.com</text>
<rect x="180" y="190" width="336.38" height="22" fill="#4c78a8" rx="3"/>
<text x="524.38" y="206" class="value">127.57</text>
<text x="10" y="238" class="label">ubi.com</text>
<rect x="180" y="222" width="372.8" height="22" fill="#4c78a8" rx="3"/>
<text x="560.8" y="238" class="value">141.38</text>
<text x="10" y="270" class="label">cdn.cloudflare.steamstatic.com</text>
<rect x="180" y="254" width="399.24" height="22" fill="#4c78a8" rx="3"/>
<text x="587.24" y="270" class="value">151.41</text>
<text x="10" y="302" class="label">epicgames.com</text>
<rect x="180" y="286" width="401.96" height="22" fill="#4c78a8" rx="3"/>
<text x="589.96" y="302" class="value">152.44</text>
<text x="10" y="334" class="label">unrealengine.com</text>
<rect x="180" y="318" width="454.46" height="22" fill="#4c78a8" rx="3"/>
<text x="642.46" y="334" class="value">172.35</text>
<text x="10" y="366" class="label">ubisoft.com</text>
<rect x="180" y="350" width="498.97" height="22" fill="#4c78a8" rx="3"/>
<text x="686.97" y="366" class="value">189.23</text>
<text x="10" y="398" class="label">store.akamai.steamstatic.com</text>
<rect x="180" y="382" width="511.89" height="22" fill="#4c78a8" rx="3"/>
<text x="699.89" y="398" class="value">194.13</text>
<text x="10" y="430" class="label">fortnite.com</text>
<rect x="180" y="414" width="530.11" height="22" fill="#4c78a8" rx="3"/>
<text x="718.11" y="430" class="value">201.04</text>
<text x="10" y="462" class="label">launcher-public-service-prod06.ol.epicgames.com</text>
<rect x="180" y="446" width="530.72" height="22" fill="#4c78a8" rx="3"/>
<text x="718.72" y="462" class="value">201.27</text>
<text x="10" y="494" class="label">steamcdn-a.akamaihd.net</text>
<rect x="180" y="478" width="580.0" height="22" fill="#4c78a8" rx="3"/>
<text x="768.0" y="494" class="value">219.96</text>
<line x1="180" y1="30" x2="180" y2="520" stroke="#ccc"/>
<line x1="180" y1="520" x2="760" y2="520" stroke="#ccc"/>
</svg>