<svg xmlns="http://www.w3.org/2000/svg" width="800" height="540">
<style> .label{font-family:DejaVu Sans,Verdana,Geneva,sans-serif;font-size:12px;fill:#333} .value{font-family:DejaVu Sans,Verdana,Geneva,sans-serif;font-size:12px;fill:#555} </style>
<text x="10" y="20" class="label">延迟柱状图（越低越好，Top 15），单位 ms</text>
<text x="10" y="46" class="label">rockstargames.com</text>
<rect x="180" y="30" width="111.59" height="22" fill="#4c78a8" rx="3"/>
<text x="299.59000000000003" y="46" class="value">40.38</text>
<text x="10" y="78" class="label">socialclub.rockstargames.com</text>
<rect x="180" y="62" width="169.69" height="22" fill="#4c78a8" rx="3"/>
<text x="357.69" y="78" class="value">61.40</text>
<text x="10" y="110" class="label">ubisoft.com</text>
<rect x="180" y="94" width="229.52" height="22" fill="#4c78a8" rx="3"/>
<text x="417.52" y="110" class="value">83.05</text>
<text x="10" y="142" class="label">eaassets-a.akamaihd.net</text>
<rect x="180" y="126" width="280.7" height="22" fill="#4c78a8" rx="3"/>
<text x="468.7" y="142" class="value">101.57</text>
<text x="10" y="174" class="label">blizzard.com</text>
<rect x="180" y="158" width="301.79" height="22" fill="#4c78a8" rx="3"/>
<text x="489.79" y="174" class="value">109.20</text>
<text x="10" y="206" class="label">unrealengine.com</text>
<rect x="180" y="190" width="343.1" height="22" fill="#4c78a8" rx="3"/>
<text x="531.1" y="206" class="value">124.15</text>
<text x="10" y="238" class="label">community.akamai.steamstatic.com</text>
<rect x="180" y="222" width="345.09" height="22" fill="#4c78a8" rx="3"/>
<text x="533.0899999999999" y="238" class="value">124.87</text>
<text x="10" y="270" class="label">ea.com</text>
<rect x="180" y="254" width="347.91" height="22" fill="#4c78a8" rx="3"/>
<text x="535.9100000000001" y="270" class="value">125.89</text>
<text x="10" y="302" class="label">ubi.com</text>
<rect x="180" y="286" width="411.56" height="22" fill="#4c78a8" rx="3"/>
<text x="599.56" y="302" class="value">148.92</text>
<text x="10" y="334" class="label">battle.net</text>
<rect x="180" y="318" width="426.26" height="22" fill="#4c78a8" rx="3"/>
<text x="614.26" y="334" class="value">154.24</text>
<text x="10" y="366" class="label">epicgames.com</text>
<rect x="180" y="350" width="465.97" height="22" fill="#4c78a8" rx="3"/>
<text x="653.97" y="366" class="value">168.61</text>
<text x="10" y="398" class="label">fortnite.com</text>
<rect x="180" y="382" width="490.76" height="22" fill="#4c78a8" rx="3"/>
<text x="678.76" y="398" class="value">177.58</text>
<text x="10" y="430" class="label">origin.com</text>
<rect x="180" y="414" width="509.75" height="22" fill="#4c78a8" rx="3"/>
<text x="697.75" y="430" class="value">184.45</text>
<text x="10" y="462" class="label">store.akamai.steamstatic.com</text>
<rect x="180" y="446" width="548.11" height="22" fill="#4c78a8" rx="3"/>
<text x="736.11" y="462" class="value">198.33</text>
<text x="10" y="494" class="label">steamcdn-a.akamaihd.net</text>
<rect x="180" y="478" width="580.0" height="22" fill="#4c78a8" rx="3"/>
<text x="768.0" y="494" class="value">209.87</text>
<line x1="180" y1="30" x2="180" y2="520" stroke="#ccc"/>
<line x1="180" y1="520" x2="760" y2="520" stroke="#ccc"/>
</svg>