<svg xmlns="http://www.w3.org/2000/svg" width="800" height="540">
<style> .label{font-family:DejaVu Sans,Verdana,Geneva,sans-serif;font-size:12px;fill:#333} .value{font-family:DejaVu Sans,Verdana,Geneva,sans-serif;font-size:12px;fill:#555} </style>
<text x="10" y="20" class="label">延迟柱状图（越低越好，Top 15），单位 ms</text>
<text x="10" y="46" class="label">rockstargames.com</text>
<rect x="180" y="30" width="77.72" height="22" fill="#4c78a8" rx="3"/>
<text x="265.72" y="46" class="value">34.88</text>
<text x="10" y="78" class="label">eaassets-a.akamaihd.net</text>
<rect x="180" y="62" width="80.73" height="22" fill="#4c78a8" rx="3"/>
<text x="268.73" y="78" class="value">36.23</text>
<text x="10" y="110" class="label">cdn.cloudflare.steamstatic.com</text>
<rect x="180" y="94" width="232.51" height="22" fill="#4c78a8" rx="3"/>
<text x="420.51" y="110" class="value">104.35</text>
<text x="10" y="142" class="label">ea.com</text>
<rect x="180" y="126" width="233.07" height="22" fill="#4c78a8" rx="3"/>
<text x="421.07" y="142" class="value">104.60</text>
<text x="10" y="174" class="label">store.akamai.steamstatic.com</text>
<rect x="180" y="158" width="256.38" height="22" fill="#4c78a8" rx="3"/>
<text x="444.38" y="174" class="value">115.06</text>
<text x="10" y="206" class="label">community.akamai.steamstatic.com</text>
<rect x="180" y="190" width="309.9" height="22" fill="#4c78a8" rx="3"/>
<text x="497.9" y="206" class="value">139.08</text>
<text x="10" y="238" class="label">steamcdn-a.akamaihd.net</text>
<rect x="180" y="222" width="314.51" height="22" fill="#4c78a8" rx="3"/>
<text x="502.51" y="238" class="value">141.15</text>
<text x="10" y="270" class="label">cdn.akamai.steamstatic.com</text>
<rect x="180" y="254" width="338.46" height="22" fill="#4c78a8" rx="3"/>
<text x="526.46" y="270" class="value">151.90</text>
<text x="10" y="302" class="label">origin.com</text>
<rect x="180" y="286" width="361.64" height="22" fill="#4c78a8" rx="3"/>
<text x="549.64" y="302" class="value">162.30</text>
<text x="10" y="334" class="label">static3.cdn.ubi.com</text>
<rect x="180" y="318" width="362.26" height="22" fill="#4c78a8" rx="3"/>
<text x="550.26" y="334" class="value">162.58</text>
<text x="10" y="366" class="label">easyanticheat.net</text>
<rect x="180" y="350" width="433.67" height="22" fill="#4c78a8" rx="3"/>
<text x="621.6700000000001" y="366" class="value">194.63</text>
<text x="10" y="398" class="label">steam-chat.com</text>
<rect x="180" y="382" width="447.24" height="22" fill="#4c78a8" rx="3"/>
<text x="635.24" y="398" class="value">200.72</text>
<text x="10" y="430" class="label">api.steampowered.com</text>
<rect x="180" y="414" width="487.0" height="22" fill="#4c78a8" rx="3"/>
<text x="675.0" y="430" class="value">218.56</text>
<text x="10" y="462" class="label">ubisoft.com</text>
<rect x="180" y="446" width="564.74" height="22" fill="#4c78a8" rx="3"/>
<text x="752.74" y="462" class="value">253.45</text>
<text x="10" y="494" class="label">launcher-public-service-prod06.ol.epicgames.com</text>
<rect x="180" y="478" width="580.0" height="22" fill="#4c78a8" rx="3"/>
<text x="768.0" y="494" class="value">260.30</text>
<line x1="180" y1="30" x2="180" y2="520" stroke="#ccc"/>
<line x1="180" y1="520" x2="760" y2="520" stroke="#ccc"/>
</svg>