<svg xmlns="http://www.w3.org/2000/svg" width="800" height="540">
<style> .label{font-family:DejaVu Sans,Verdana,Geneva,sans-serif;font-size:12px;fill:#333} .value{font-family:DejaVu Sans,Verdana,Geneva,sans-serif;font-size:12px;fill:#555} </style>
<text x="10" y="20" class="label">延迟柱状图（越低越好，Top 15），单位 ms</text>
<text x="10" y="46" class="label">rockstargames.com</text>
<rect x="180" y="30" width="231.67" height="22" fill="#4c78a8" rx="3"/>
<text x="419.66999999999996" y="46" class="value">102.73</text>
<text x="10" y="78" class="label">origin.com</text>
<rect x="180" y="62" width="278.46" height="22" fill="#4c78a8" rx="3"/>
<text x="466.46" y="78" class="value">123.48</text>
<text x="10" y="110" class="label">eaassets-a.akamaihd.net</text>
<rect x="180" y="94" width="286.83" height="22" fill="#4c78a8" rx="3"/>
<text x="474.83" y="110" class="value">127.19</text>
<text x="10" y="142" class="label">steamcdn-a.akamaihd.net</text>
<rect x="180" y="126" width="296.08" height="22" fill="#4c78a8" rx="3"/>
<text x="484.08" y="142" class="value">131.29</text>
<text x="10" y="174" class="label">ea.com</text>
<rect x="180" y="158" width="323.82" height="22" fill="#4c78a8" rx="3"/>
<text x="511.82" y="174" class="value">143.59</text>
<text x="10" y="206" class="label">store.akamai.steamstatic.com</text>
<rect x="180" y="190" width="339.11" height="22" fill="#4c78a8" rx="3"/>
<text x="527.11" y="206" class="value">150.37</text>
<text x="10" y="238" class="label">easyanticheat.net</text>
<rect x="180" y="222" width="381.62" height="22" fill="#4c78a8" rx="3"/>
<text x="569.62" y="238" class="value">169.22</text>
<text x="10" y="270" class="label">cdn.akamai.steamstatic.com</text>
<rect x="180" y="254" width="384.39" height="22" fill="#4c78a8" rx="3"/>
<text x="572.39" y="270" class="value">170.45</text>
<text x="10" y="302" class="label">ubisoft.com</text>
<rect x="180" y="286" width="392.51" height="22" fill="#4c78a8" rx="3"/>
<text x="580.51" y="302" class="value">174.05</text>
<text x="10" y="334" class="label">cdn.cloudflare.steamstatic.com</text>
<rect x="180" y="318" width="430.24" height="22" fill="#4c78a8" rx="3"/>
<text x="618.24" y="334" class="value">190.78</text>
<text x="10" y="366" class="label">api.steampowered.com</text>
<rect x="180" y="350" width="507.7" height="22" fill="#4c78a8" rx="3"/>
<text x="695.7" y="366" class="value">225.13</text>
<text x="10" y="398" class="label">launcher-public-service-prod06.ol.epicgames.com</text>
<rect x="180" y="382" width="528.7" height="22" fill="#4c78a8" rx="3"/>
<text x="716.7" y="398" class="value">234.44</text>
<text x="10" y="430" class="label">ubi.com</text>
<rect x="180" y="414" width="529.35" height="22" fill="#4c78a8" rx="3"/>
<text x="717.35" y="430" class="value">234.73</text>
<text x="10" y="462" class="label">community.akamai.steamstatic.com</text>
<rect x="180" y="446" width="533.9" height="22" fill="#4c78a8" rx="3"/>
<text x="721.9" y="462" class="value">236.75</text>
<text x="10" y="494" class="label">steamcommunity.com</text>
<rect x="180" y="478" width="580.0" height="22" fill="#4c78a8" rx="3"/>
<text x="768.0" y="494" class="value">257.19</text>
<line x1="180" y1="30" x2="180" y2="520" stroke="#ccc"/>
<line x1="180" y1="520" x2="760" y2="520" stroke="#ccc"/>
</svg>