<svg xmlns="http://www.w3.org/2000/svg" width="800" height="540">
<style> .label{font-family:DejaVu Sans,Verdana,Geneva,sans-serif;font-size:12px;fill:#333} .value{font-family:DejaVu Sans,Verdana,Geneva,sans-serif;font-size:12px;fill:#555} </style>
<text x="10" y="20" class="label">延迟柱状图（越低越好，Top 15），单位 ms</text>
<text x="10" y="46" class="label">origin.com</text>
<rect x="180" y="30" width="248.1" height="22" fill="#4c78a8" rx="3"/>
<text x="436.1" y="46" class="value">93.36</text>
<text x="10" y="78" class="label">steamcdn-a.akamaihd.net</text>
<rect x="180" y="62" width="282.68" height="22" fill="#4c78a8" rx="3"/>
<text x="470.68" y="78" class="value">106.37</text>
<text x="10" y="110" class="label">ea.com</text>
<rect x="180" y="94" width="289.46" height="22" fill="#4c78a8" rx="3"/>
<text x="477.46" y="110" class="value">108.92</text>
<text x="10" y="142" class="label">community.akamai.steamstatic.com</text>
<rect x="180" y="126" width="295.54" height="22" fill="#4c78a8" rx="3"/>
<text x="483.54" y="142" class="value">111.21</text>
<text x="10" y="174" class="label">eaassets-a.akamaihd.net</text>
<rect x="180" y="158" width="317.09" height="22" fill="#4c78a8" rx="3"/>
<text x="505.09" y="174" class="value">119.32</text>
<text x="10" y="206" class="label">rockstargames.com</text>
<rect x="180" y="190" width="323.26" height="22" fill="#4c78a8" rx="3"/>
<text x="511.26" y="206" class="value">121.64</text>
<text x="10" y="238" class="label">socialclub.rockstargames.com</text>
<rect x="180" y="222" width="362.67" height="22" fill="#4c78a8" rx="3"/>
<text x="550.6700000000001" y="238" class="value">136.47</text>
<text x="10" y="270" class="label">battle.net</text>
<rect x="180" y="254" width="454.88" height="22" fill="#4c78a8" rx="3"/>
<text x="642.88" y="270" class="value">171.17</text>
<text x="10" y="302" class="label">blizzard.com</text>
<rect x="180" y="286" width="467.75" height="22" fill="#4c78a8" rx="3"/>
<text x="655.75" y="302" class="value">176.01</text>
<text x="10" y="334" class="label">ubi.com</text>
<rect x="180" y="318" width="470.3" height="22" fill="#4c78a8" rx="3"/>
<text x="658.3" y="334" class="value">176.97</text>
<text x="10" y="366" class="label">ubisoft.com</text>
<rect x="180" y="350" width="502.77" height="22" fill="#4c78a8" rx="3"/>
<text x="690.77" y="366" class="value">189.19</text>
<text x="10" y="398" class="label">gog.com</text>
<rect x="180" y="382" width="536.31" height="22" fill="#4c78a8" rx="3"/>
<text x="724.31" y="398" class="value">201.81</text>
<text x="10" y="430" class="label">www.steamcommunity.com</text>
<rect x="180" y="414" width="558.55" height="22" fill="#4c78a8" rx="3"/>
<text x="746.55" y="430" class="value">210.18</text>
<text x="10" y="462" class="label">cdn.akamai.steamstatic.com</text>
<rect x="180" y="446" width="560.2" height="22" fill="#4c78a8" rx="3"/>
<text x="748.2" y="462" class="value">210.80</text>
<text x="10" y="494" class="label">static3.cdn.ubi.com</text>
<rect x="180" y="478" width="580.0" height="22" fill="#4c78a8" rx="3"/>
<text x="768.0" y="494" class="value">218.25</text>
<line x1="180" y1="30" x2="180" y2="520" stroke="#ccc"/>
<line x1="180" y1="520" x2="760" y2="520" stroke="#ccc"/>
</svg>