<svg xmlns="http://www.w3.org/2000/svg" width="800" height="540">
<style> .label{font-family:DejaVu Sans,Verdana,Geneva,sans-serif;font-size:12px;fill:#333} .value{font-family:DejaVu Sans,Verdana,Geneva,sans-serif;font-size:12px;fill:#555} </style>
<text x="10" y="20" class="label">延迟柱状图（越低越好，Top 15），单位 ms</text>
<text x="10" y="46" class="label">rockstargames.com</text>
<rect x="180" y="30" width="192.32" height="22" fill="#4c78a8" rx="3"/>
<text x="380.32" y="46" class="value">72.47</text>
<text x="10" y="78" class="label">socialclub.rockstargames.com</text>
<rect x="180" y="62" width="244.82" height="22" fill="#4c78a8" rx="3"/>
<text x="432.82" y="78" class="value">92.25</text>
<text x="10" y="110" class="label">battle.net</text>
<rect x="180" y="94" width="251.72" height="22" fill="#4c78a8" rx="3"/>
<text x="439.72" y="110" class="value">94.85</text>
<text x="10" y="142" class="label">blizzard.com</text>
<rect x="180" y="126" width="263.02" height="22" fill="#4c78a8" rx="3"/>
<text x="451.02" y="142" class="value">99.11</text>
<text x="10" y="174" class="label">ubisoft.com</text>
<rect x="180" y="158" width="270.72" height="22" fill="#4c78a8" rx="3"/>
<text x="458.72" y="174" class="value">102.01</text>
<text x="10" y="206" class="label">epicgames.com</text>
<rect x="180" y="190" width="281.02" height="22" fill="#4c78a8" rx="3"/>
<text x="469.02" y="206" class="value">105.89</text>
<text x="10" y="238" class="label">community.akamai.steamstatic.com</text>
<rect x="180" y="222" width="308.62" height="22" fill="#4c78a8" rx="3"/>
<text x="496.62" y="238" class="value">116.29</text>
<text x="10" y="270" class="label">ubi.com</text>
<rect x="180" y="254" width="331.44" height="22" fill="#4c78a8" rx="3"/>
<text x="519.44" y="270" class="value">124.89</text>
<text x="10" y="302" class="label">eaassets-a.akamaihd.net</text>
<rect x="180" y="286" width="378.81" height="22" fill="#4c78a8" rx="3"/>
<text x="566.81" y="302" class="value">142.74</text>
<text x="10" y="334" class="label">cdn.akamai.steamstatic.com</text>
<rect x="180" y="318" width="506.65" height="22" fill="#4c78a8" rx="3"/>
<text x="694.65" y="334" class="value">190.91</text>
<text x="10" y="366" class="label">ea.com</text>
<rect x="180" y="350" width="536.64" height="22" fill="#4c78a8" rx="3"/>
<text x="724.64" y="366" class="value">202.21</text>
<text x="10" y="398" class="label">steamcdn-a.akamaihd.net</text>
<rect x="180" y="382" width="551.82" height="22" fill="#4c78a8" rx="3"/>
<text x="739.82" y="398" class="value">207.93</text>
<text x="10" y="430" class="label">origin.com</text>
<rect x="180" y="414" width="556.01" height="22" fill="#4c78a8" rx="3"/>
<text x="744.01" y="430" class="value">209.51</text>
<text x="10" y="462" class="label">fortnite.com</text>
<rect x="180" y="446" width="558.74" height="22" fill="#4c78a8" rx="3"/>
<text x="746.74" y="462" class="value">210.54</text>
<text x="10" y="494" class="label">store.akamai.steamstatic.com</text>
<rect x="180" y="478" width="580.0" height="22" fill="#4c78a8" rx="3"/>
<text x="768.0" y="494" class="value">218.55</text>
<line x1="180" y1="30" x2="180" y2="520" stroke="#ccc"/>
<line x1="180" y1="520" x2="760" y2="520" stroke="#ccc"/>
</svg>