<svg xmlns="http://www.w3.org/2000/svg" width="800" height="540">
<style> .label{font-family:DejaVu Sans,Verdana,Geneva,sans-serif;font-size:12px;fill:#333} .value{font-family:DejaVu Sans,Verdana,Geneva,sans-serif;font-size:12px;fill:#555} </style>
<text x="10" y="20" class="label">延迟柱状图（越低越好，Top 15），单位 ms</text>
<text x="10" y="46" class="label">ea.com</text>
<rect x="180" y="30" width="337.54" height="22" fill="#4c78a8" rx="3"/>
<text x="525.54" y="46" class="value">140.52</text>
<text x="10" y="78" class="label">eaassets-a.akamaihd.net</text>
<rect x="180" y="62" width="379.72" height="22" fill="#4c78a8" rx="3"/>
<text x="567.72" y="78" class="value">158.08</text>
<text x="10" y="110" class="label">cdn.akamai.steamstatic.com</text>
<rect x="180" y="94" width="395.93" height="22" fill="#4c78a8" rx="3"/>
<text x="583.9300000000001" y="110" class="value">164.83</text>
<text x="10" y="142" class="label">steamcdn-a.akamaihd.net</text>
<rect x="180" y="126" width="419.37" height="22" fill="#4c78a8" rx="3"/>
<text x="607.37" y="142" class="value">174.59</text>
<text x="10" y="174" class="label">community.akamai.steamstatic.com</text>
<rect x="180" y="158" width="468.02" height="22" fill="#4c78a8" rx="3"/>
<text x="656.02" y="174" class="value">194.84</text>
<text x="10" y="206" class="label">origin.com</text>
<rect x="180" y="190" width="472.17" height="22" fill="#4c78a8" rx="3"/>
<text x="660.1700000000001" y="206" class="value">196.57</text>
<text x="10" y="238" class="label">store.akamai.steamstatic.com</text>
<rect x="180" y="222" width="505.51" height="22" fill="#4c78a8" rx="3"/>
<text x="693.51" y="238" class="value">210.45</text>
<text x="10" y="270" class="label">cdn.cloudflare.steamstatic.com</text>
<rect x="180" y="254" width="514.52" height="22" fill="#4c78a8" rx="3"/>
<text x="702.52" y="270" class="value">214.20</text>
<text x="10" y="302" class="label">easyanticheat.net</text>
<rect x="180" y="286" width="522.69" height="22" fill="#4c78a8" rx="3"/>
<text x="710.69" y="302" class="value">217.60</text>
<text x="10" y="334" class="label">blizzard.com</text>
<rect x="180" y="318" width="522.88" height="22" fill="#4c78a8" rx="3"/>
<text x="710.88" y="334" class="value">217.68</text>
<text x="10" y="366" class="label">ubisoft.com</text>
<rect x="180" y="350" width="524.2" height="22" fill="#4c78a8" rx="3"/>
<text x="712.2" y="366" class="value">218.23</text>
<text x="10" y="398" class="label">battle.net</text>
<rect x="180" y="382" width="534.94" height="22" fill="#4c78a8" rx="3"/>
<text x="722.94" y="398" class="value">222.70</text>
<text x="10" y="430" class="label">api.steampowered.com</text>
<rect x="180" y="414" width="541.66" height="22" fill="#4c78a8" rx="3"/>
<text x="729.66" y="430" class="value">225.50</text>
<text x="10" y="462" class="label">launcher-public-service-prod06.ol.epicgames.com</text>
<rect x="180" y="446" width="559.01" height="22" fill="#4c78a8" rx="3"/>
<text x="747.01" y="462" class="value">232.72</text>
<text x="10" y="494" class="label">ubi.com</text>
<rect x="180" y="478" width="580.0" height="22" fill="#4c78a8" rx="3"/>
<text x="768.0" y="494" class="value">241.46</text>
<line x1="180" y1="30" x2="180" y2="520" stroke="#ccc"/>
<line x1="180" y1="520" x2="760" y2="520" stroke="#ccc"/>
</svg>