<svg xmlns="http://www.w3.org/2000/svg" width="800" height="540">
<style> .label{font-family:DejaVu Sans,Verdana,Geneva,sans-serif;font-size:12px;fill:#333} .value{font-family:DejaVu Sans,Verdana,Geneva,sans-serif;font-size:12px;fill:#555} </style>
<text x="10" y="20" class="label">延迟柱状图（越低越好，Top 15），单位 ms</text>
<text x="10" y="46" class="label">eaassets-a.akamaihd.net</text>
<rect x="180" y="30" width="93.07" height="22" fill="#4c78a8" rx="3"/>
<text x="281.07" y="46" class="value">45.05</text>
<text x="10" y="78" class="label">rockstargames.com</text>
<rect x="180" y="62" width="93.52" height="22" fill="#4c78a8" rx="3"/>
<text x="281.52" y="78" class="value">45.27</text>
<text x="10" y="110" class="label">ea.com</text>
<rect x="180" y="94" width="101.02" height="22" fill="#4c78a8" rx="3"/>
<text x="289.02" y="110" class="value">48.90</text>
<text x="10" y="142" class="label">steamcdn-a.akamaihd.net</text>
<rect x="180" y="126" width="197.5" height="22" fill="#4c78a8" rx="3"/>
<text x="385.5" y="142" class="value">95.60</text>
<text x="10" y="174" class="label">community.akamai.steamstatic.com</text>
<rect x="180" y="158" width="204.77" height="22" fill="#4c78a8" rx="3"/>
<text x="392.77" y="174" class="value">99.12</text>
<text x="10" y="206" class="label">store.akamai.steamstatic.com</text>
<rect x="180" y="190" width="267.43" height="22" fill="#4c78a8" rx="3"/>
<text x="455.43" y="206" class="value">129.45</text>
<text x="10" y="238" class="label">ubisoft.com</text>
<rect x="180" y="222" width="268.86" height="22" fill="#4c78a8" rx="3"/>
<text x="456.86" y="238" class="value">130.14</text>
<text x="10" y="270" class="label">origin.com</text>
<rect x="180" y="254" width="355.56" height="22" fill="#4c78a8" rx="3"/>
<text x="543.56" y="270" class="value">172.11</text>
<text x="10" y="302" class="label">cdn.akamai.steamstatic.com</text>
<rect x="180" y="286" width="356.95" height="22" fill="#4c78a8" rx="3"/>
<text x="544.95" y="302" class="value">172.78</text>
<text x="10" y="334" class="label">cdn.cloudflare.steamstatic.com</text>
<rect x="180" y="318" width="381.45" height="22" fill="#4c78a8" rx="3"/>
<text x="569.45" y="334" class="value">184.64</text>
<text x="10" y="366" class="label">easyanticheat.net</text>
<rect x="180" y="350" width="496.62" height="22" fill="#4c78a8" rx="3"/>
<text x="684.62" y="366" class="value">240.39</text>
<text x="10" y="398" class="label">api.steampowered.com</text>
<rect x="180" y="382" width="509.04" height="22" fill="#4c78a8" rx="3"/>
<text x="697.04" y="398" class="value">246.40</text>
<text x="10" y="430" class="label">launcher-public-service-prod06.ol.epicgames.com</text>
<rect x="180" y="414" width="556.78" height="22" fill="#4c78a8" rx="3"/>
<text x="744.78" y="430" class="value">269.51</text>
<text x="10" y="462" class="label">steamcommunity.com</text>
<rect x="180" y="446" width="568.55" height="22" fill="#4c78a8" rx="3"/>
<text x="756.55" y="462" class="value">275.21</text>
<text x="10" y="494" class="label">steam-chat.com</text>
<rect x="180" y="478" width="580.0" height="22" fill="#4c78a8" rx="3"/>
<text x="768.0" y="494" class="value">280.75</text>
<line x1="180" y1="30" x2="180" y2="520" stroke="#ccc"/>
<line x1="180" y1="520" x2="760" y2="520" stroke="#ccc"/>
</svg>