<svg xmlns="http://www.w3.org/2000/svg" width="800" height="540">
<style> .label{font-family:DejaVu Sans,Verdana,Geneva,sans-serif;font-size:12px;fill:#333} .value{font-family:DejaVu Sans,Verdana,Geneva,sans-serif;font-size:12px;fill:#555} </style>
<text x="10" y="20" class="label">延迟柱状图（越低越好，Top 15），单位 ms</text>
<text x="10" y="46" class="label">ubisoft.com</text>
<rect x="180" y="30" width="132.01" height="22" fill="#4c78a8" rx="3"/>
<text x="320.01" y="46" class="value">77.46</text>
<text x="10" y="78" class="label">eaassets-a.akamaihd.net</text>
<rect x="180" y="62" width="140.57" height="22" fill="#4c78a8" rx="3"/>
<text x="328.57" y="78" class="value">82.48</text>
<text x="10" y="110" class="label">rockstargames.com</text>
<rect x="180" y="94" width="257.96" height="22" fill="#4c78a8" rx="3"/>
<text x="445.96" y="110" class="value">151.36</text>
<text x="10" y="142" class="label">steamcdn-a.akamaihd.net</text>
<rect x="180" y="126" width="259.34" height="22" fill="#4c78a8" rx="3"/>
<text x="447.34" y="142" class="value">152.17</text>
<text x="10" y="174" class="label">ea.com</text>
<rect x="180" y="158" width="318.97" height="22" fill="#4c78a8" rx="3"/>
<text x="506.97" y="174" class="value">187.16</text>
<text x="10" y="206" class="label">store.akamai.steamstatic.com</text>
<rect x="180" y="190" width="355.89" height="22" fill="#4c78a8" rx="3"/>
<text x="543.89" y="206" class="value">208.82</text>
<text x="10" y="238" class="label">cdn.cloudflare.steamstatic.com</text>
<rect x="180" y="222" width="364.56" height="22" fill="#4c78a8" rx="3"/>
<text x="552.56" y="238" class="value">213.91</text>
<text x="10" y="270" class="label">community.akamai.steamstatic.com</text>
<rect x="180" y="254" width="394.98" height="22" fill="#4c78a8" rx="3"/>
<text x="582.98" y="270" class="value">231.76</text>
<text x="10" y="302" class="label">cdn.akamai.steamstatic.com</text>
<rect x="180" y="286" width="399.36" height="22" fill="#4c78a8" rx="3"/>
<text x="587.36" y="302" class="value">234.33</text>
<text x="10" y="334" class="label">origin.com</text>
<rect x="180" y="318" width="425.88" height="22" fill="#4c78a8" rx="3"/>
<text x="613.88" y="334" class="value">249.89</text>
<text x="10" y="366" class="label">easyanticheat.net</text>
<rect x="180" y="350" width="427.35" height="22" fill="#4c78a8" rx="3"/>
<text x="615.35" y="366" class="value">250.75</text>
<text x="10" y="398" class="label">ubi.com</text>
<rect x="180" y="382" width="519.82" height="22" fill="#4c78a8" rx="3"/>
<text x="707.82" y="398" class="value">305.01</text>
<text x="10" y="430" class="label">launcher-public-service-prod06.ol.epicgames.com</text>
<rect x="180" y="414" width="541.79" height="22" fill="#4c78a8" rx="3"/>
<text x="729.79" y="430" class="value">317.90</text>
<text x="10" y="462" class="label">socialclub.rockstargames.com</text>
<rect x="180" y="446" width="560.49" height="22" fill="#4c78a8" rx="3"/>
<text x="748.49" y="462" class="value">328.87</text>
<text x="10" y="494" class="label">static3.cdn.ubi.com</text>
<rect x="180" y="478" width="580.0" height="22" fill="#4c78a8" rx="3"/>
<text x="768.0" y="494" class="value">340.32</text>
<line x1="180" y1="30" x2="180" y2="520" stroke="#ccc"/>
<line x1="180" y1="520" x2="760" y2="520" stroke="#ccc"/>
</svg>