<svg xmlns="http://www.w3.org/2000/svg" width="800" height="540">
<style> .label{font-family:DejaVu Sans,Verdana,Geneva,sans-serif;font-size:12px;fill:#333} .value{font-family:DejaVu Sans,Verdana,Geneva,sans-serif;font-size:12px;fill:#555} </style>
<text x="10" y="20" class="label">延迟柱状图（越低越好，Top 15），单位 ms</text>
<text x="10" y="46" class="label">eaassets-a.akamaihd.net</text>
<rect x="180" y="30" width="158.27" height="22" fill="#4c78a8" rx="3"/>
<text x="346.27" y="46" class="value">64.46</text>
<text x="10" y="78" class="label">socialclub.rockstargames.com</text>
<rect x="180" y="62" width="196.92" height="22" fill="#4c78a8" rx="3"/>
<text x="384.91999999999996" y="78" class="value">80.20</text>
<text x="10" y="110" class="label">blizzard.com</text>
<rect x="180" y="94" width="204.41" height="22" fill="#4c78a8" rx="3"/>
<text x="392.40999999999997" y="110" class="value">83.25</text>
<text x="10" y="142" class="label">ubisoft.com</text>
<rect x="180" y="126" width="233.18" height="22" fill="#4c78a8" rx="3"/>
<text x="421.18" y="142" class="value">94.97</text>
<text x="10" y="174" class="label">battle.net</text>
<rect x="180" y="158" width="238.76" height="22" fill="#4c78a8" rx="3"/>
<text x="426.76" y="174" class="value">97.24</text>
<text x="10" y="206" class="label">origin.com</text>
<rect x="180" y="190" width="247.01" height="22" fill="#4c78a8" rx="3"/>
<text x="435.01" y="206" class="value">100.60</text>
<text x="10" y="238" class="label">rockstargames.com</text>
<rect x="180" y="222" width="265.27" height="22" fill="#4c78a8" rx="3"/>
<text x="453.27" y="238" class="value">108.04</text>
<text x="10" y="270" class="label">ubi.com</text>
<rect x="180" y="254" width="266.5" height="22" fill="#4c78a8" rx="3"/>
<text x="454.5" y="270" class="value">108.54</text>
<text x="10" y="302" class="label">fortnite.com</text>
<rect x="180" y="286" width="416.06" height="22" fill="#4c78a8" rx="3"/>
<text x="604.06" y="302" class="value">169.45</text>
<text x="10" y="334" class="label">ea.com</text>
<rect x="180" y="318" width="439.63" height="22" fill="#4c78a8" rx="3"/>
<text x="627.63" y="334" class="value">179.05</text>
<text x="10" y="366" class="label">unrealengine.com</text>
<rect x="180" y="350" width="471.35" height="22" fill="#4c78a8" rx="3"/>
<text x="659.35" y="366" class="value">191.97</text>
<text x="10" y="398" class="label">steamcdn-a.akamaihd.net</text>
<rect x="180" y="382" width="508.5" height="22" fill="#4c78a8" rx="3"/>
<text x="696.5" y="398" class="value">207.10</text>
<text x="10" y="430" class="label">cdn.akamai.steamstatic.com</text>
<rect x="180" y="414" width="552.23" height="22" fill="#4c78a8" rx="3"/>
<text x="740.23" y="430" class="value">224.91</text>
<text x="10" y="462" class="label">community.akamai.steamstatic.com</text>
<rect x="180" y="446" width="554.54" height="22" fill="#4c78a8" rx="3"/>
<text x="742.54" y="462" class="value">225.85</text>
<text x="10" y="494" class="label">store.akamai.steamstatic.com</text>
<rect x="180" y="478" width="580.0" height="22" fill="#4c78a8" rx="3"/>
<text x="768.0" y="494" class="value">236.22</text>
<line x1="180" y1="30" x2="180" y2="520" stroke="#ccc"/>
<line x1="180" y1="520" x2="760" y2="520" stroke="#ccc"/>
</svg>