<svg xmlns="http://www.w3.org/2000/svg" width="800" height="540">
<style> .label{font-family:DejaVu Sans,Verdana,Geneva,sans-serif;font-size:12px;fill:#333} .value{font-family:DejaVu Sans,Verdana,Geneva,sans-serif;font-size:12px;fill:#555} </style>
<text x="10" y="20" class="label">延迟柱状图（越低越好，Top 15），单位 ms</text>
<text x="10" y="46" class="label">rockstargames.com</text>
<rect x="180" y="30" width="200.9" height="22" fill="#4c78a8" rx="3"/>
<text x="388.9" y="46" class="value">61.07</text>
<text x="10" y="78" class="label">eaassets-a.akamaihd.net</text>
<rect x="180" y="62" width="287.09" height="22" fill="#4c78a8" rx="3"/>
<text x="475.09" y="78" class="value">87.27</text>
<text x="10" y="110" class="label">socialclub.rockstargames.com</text>
<rect x="180" y="94" width="292.81" height="22" fill="#4c78a8" rx="3"/>
<text x="480.81" y="110" class="value">89.01</text>
<text x="10" y="142" class="label">unrealengine.com</text>
<rect x="180" y="126" width="317.02" height="22" fill="#4c78a8" rx="3"/>
<text x="505.02" y="142" class="value">96.37</text>
<text x="10" y="174" class="label">ubisoft.com</text>
<rect x="180" y="158" width="326.63" height="22" fill="#4c78a8" rx="3"/>
<text x="514.63" y="174" class="value">99.29</text>
<text x="10" y="206" class="label">fortnite.com</text>
<rect x="180" y="190" width="357.78" height="22" fill="#4c78a8" rx="3"/>
<text x="545.78" y="206" class="value">108.76</text>
<text x="10" y="238" class="label">blizzard.com</text>
<rect x="180" y="222" width="390.45" height="22" fill="#4c78a8" rx="3"/>
<text x="578.45" y="238" class="value">118.69</text>
<text x="10" y="270" class="label">community.akamai.steamstatic.com</text>
<rect x="180" y="254" width="412.98" height="22" fill="#4c78a8" rx="3"/>
<text x="600.98" y="270" class="value">125.54</text>
<text x="10" y="302" class="label">epicgames.com</text>
<rect x="180" y="286" width="414.69" height="22" fill="#4c78a8" rx="3"/>
<text x="602.69" y="302" class="value">126.06</text>
<text x="10" y="334" class="label">battle.net</text>
<rect x="180" y="318" width="424.46" height="22" fill="#4c78a8" rx="3"/>
<text x="612.46" y="334" class="value">129.03</text>
<text x="10" y="366" class="label">origin.com</text>
<rect x="180" y="350" width="438.48" height="22" fill="#4c78a8" rx="3"/>
<text x="626.48" y="366" class="value">133.29</text>
<text x="10" y="398" class="label">ubi.com</text>
<rect x="180" y="382" width="458.84" height="22" fill="#4c78a8" rx="3"/>
<text x="646.8399999999999" y="398" class="value">139.48</text>
<text x="10" y="430" class="label">ea.com</text>
<rect x="180" y="414" width="487.43" height="22" fill="#4c78a8" rx="3"/>
<text x="675.4300000000001" y="430" class="value">148.17</text>
<text x="10" y="462" class="label">launcher-public-service-prod06.ol.epicgames.com</text>
<rect x="180" y="446" width="539.93" height="22" fill="#4c78a8" rx="3"/>
<text x="727.93" y="462" class="value">164.13</text>
<text x="10" y="494" class="label">store.akamai.steamstatic.com</text>
<rect x="180" y="478" width="580.0" height="22" fill="#4c78a8" rx="3"/>
<text x="768.0" y="494" class="value">176.31</text>
<line x1="180" y1="30" x2="180" y2="520" stroke="#ccc"/>
<line x1="180" y1="520" x2="760" y2="520" stroke="#ccc"/>
</svg>