<svg xmlns="http://www.w3.org/2000/svg" width="800" height="540">
<style> .label{font-family:DejaVu Sans,Verdana,Geneva,sans-serif;font-size:12px;fill:#333} .value{font-family:DejaVu Sans,Verdana,Geneva,sans-serif;font-size:12px;fill:#555} </style>
<text x="10" y="20" class="label">延迟柱状图（越低越好，Top 15），单位 ms</text>
<text x="10" y="46" class="label">steamcdn-a.akamaihd.net</text>
<rect x="180" y="30" width="305.5" height="22" fill="#4c78a8" rx="3"/>
<text x="493.5" y="46" class="value">125.53</text>
<text x="10" y="78" class="label">cdn.akamai.steamstatic.com</text>
<rect x="180" y="62" width="313.02" height="22" fill="#4c78a8" rx="3"/>
<text x="501.02" y="78" class="value">128.62</text>
<text x="10" y="110" class="label">ubisoft.com</text>
<rect x="180" y="94" width="316.41" height="22" fill="#4c78a8" rx="3"/>
<text x="504.41" y="110" class="value">130.01</text>
<text x="10" y="142" class="label">cdn.cloudflare.steamstatic.com</text>
<rect x="180" y="126" width="396.21" height="22" fill="#4c78a8" rx="3"/>
<text x="584.21" y="142" class="value">162.80</text>
<text x="10" y="174" class="label">eaassets-a.akamaihd.net</text>
<rect x="180" y="158" width="402.1" height="22" fill="#4c78a8" rx="3"/>
<text x="590.1" y="174" class="value">165.22</text>
<text x="10" y="206" class="label">rockstargames.com</text>
<rect x="180" y="190" width="412.59" height="22" fill="#4c78a8" rx="3"/>
<text x="600.5899999999999" y="206" class="value">169.53</text>
<text x="10" y="238" class="label">easyanticheat.net</text>
<rect x="180" y="222" width="449.53" height="22" fill="#4c78a8" rx="3"/>
<text x="637.53" y="238" class="value">184.71</text>
<text x="10" y="270" class="label">ea.com</text>
<rect x="180" y="254" width="459.04" height="22" fill="#4c78a8" rx="3"/>
<text x="647.04" y="270" class="value">188.62</text>
<text x="10" y="302" class="label">www.steamcommunity.com</text>
<rect x="180" y="286" width="470.34" height="22" fill="#4c78a8" rx="3"/>
<text x="658.3399999999999" y="302" class="value">193.26</text>
<text x="10" y="334" class="label">api.steampowered.com</text>
<rect x="180" y="318" width="483.75" height="22" fill="#4c78a8" rx="3"/>
<text x="671.75" y="334" class="value">198.77</text>
<text x="10" y="366" class="label">fortnite.com</text>
<rect x="180" y="350" width="502.9" height="22" fill="#4c78a8" rx="3"/>
<text x="690.9" y="366" class="value">206.64</text>
<text x="10" y="398" class="label">launcher-public-service-prod06.ol.epicgames.com</text>
<rect x="180" y="382" width="510.74" height="22" fill="#4c78a8" rx="3"/>
<text x="698.74" y="398" class="value">209.86</text>
<text x="10" y="430" class="label">ubi.com</text>
<rect x="180" y="414" width="516.77" height="22" fill="#4c78a8" rx="3"/>
<text x="704.77" y="430" class="value">212.34</text>
<text x="10" y="462" class="label">blizzard.com</text>
<rect x="180" y="446" width="577.49" height="22" fill="#4c78a8" rx="3"/>
<text x="765.49" y="462" class="value">237.29</text>
<text x="10" y="494" class="label">battle.net</text>
<rect x="180" y="478" width="580.0" height="22" fill="#4c78a8" rx="3"/>
<text x="768.0" y="494" class="value">238.32</text>
<line x1="180" y1="30" x2="180" y2="520" stroke="#ccc"/>
<line x1="180" y1="520" x2="760" y2="520" stroke="#ccc"/>
</svg>