<svg xmlns="http://www.w3.org/2000/svg" width="800" height="540">
<style> .label{font-family:DejaVu Sans,Verdana,Geneva,sans-serif;font-size:12px;fill:#333} .value{font-family:DejaVu Sans,Verdana,Geneva,sans-serif;font-size:12px;fill:#555} </style>
<text x="10" y="20" class="label">延迟柱状图（越低越好，Top 15），单位 ms</text>
<text x="10" y="46" class="label">eaassets-a.akamaihd.net</text>
<rect x="180" y="30" width="249.83" height="22" fill="#4c78a8" rx="3"/>
<text x="437.83000000000004" y="46" class="value">129.99</text>
<text x="10" y="78" class="label">rockstargames.com</text>
<rect x="180" y="62" width="268.28" height="22" fill="#4c78a8" rx="3"/>
<text x="456.28" y="78" class="value">139.59</text>
<text x="10" y="110" class="label">ubisoft.com</text>
<rect x="180" y="94" width="299.19" height="22" fill="#4c78a8" rx="3"/>
<text x="487.19" y="110" class="value">155.67</text>
<text x="10" y="142" class="label">blizzard.com</text>
<rect x="180" y="126" width="349.31" height="22" fill="#4c78a8" rx="3"/>
<text x="537.31" y="142" class="value">181.75</text>
<text x="10" y="174" class="label">battle.net</text>
<rect x="180" y="158" width="360.46" height="22" fill="#4c78a8" rx="3"/>
<text x="548.46" y="174" class="value">187.55</text>
<text x="10" y="206" class="label">store.akamai.steamstatic.com</text>
<rect x="180" y="190" width="407.51" height="22" fill="#4c78a8" rx="3"/>
<text x="595.51" y="206" class="value">212.03</text>
<text x="10" y="238" class="label">origin.com</text>
<rect x="180" y="222" width="408.68" height="22" fill="#4c78a8" rx="3"/>
<text x="596.6800000000001" y="238" class="value">212.64</text>
<text x="10" y="270" class="label">ubi.com</text>
<rect x="180" y="254" width="467.36" height="22" fill="#4c78a8" rx="3"/>
<text x="655.36" y="270" class="value">243.17</text>
<text x="10" y="302" class="label">ea.com</text>
<rect x="180" y="286" width="484.94" height="22" fill="#4c78a8" rx="3"/>
<text x="672.94" y="302" class="value">252.32</text>
<text x="10" y="334" class="label">easyanticheat.net</text>
<rect x="180" y="318" width="488.57" height="22" fill="#4c78a8" rx="3"/>
<text x="676.5699999999999" y="334" class="value">254.21</text>
<text x="10" y="366" class="label">steamcdn-a.akamaihd.net</text>
<rect x="180" y="350" width="493.69" height="22" fill="#4c78a8" rx="3"/>
<text x="681.69" y="366" class="value">256.87</text>
<text x="10" y="398" class="label">socialclub.rockstargames.com</text>
<rect x="180" y="382" width="513.23" height="22" fill="#4c78a8" rx="3"/>
<text x="701.23" y="398" class="value">267.04</text>
<text x="10" y="430" class="label">cdn.akamai.steamstatic.com</text>
<rect x="180" y="414" width="525.4" height="22" fill="#4c78a8" rx="3"/>
<text x="713.4" y="430" class="value">273.37</text>
<text x="10" y="462" class="label">community.akamai.steamstatic.com</text>
<rect x="180" y="446" width="552.15" height="22" fill="#4c78a8" rx="3"/>
<text x="740.15" y="462" class="value">287.29</text>
<text x="10" y="494" class="label">steamcommunity.com</text>
<rect x="180" y="478" width="580.0" height="22" fill="#4c78a8" rx="3"/>
<text x="768.0" y="494" class="value">301.78</text>
<line x1="180" y1="30" x2="180" y2="520" stroke="#ccc"/>
<line x1="180" y1="520" x2="760" y2="520" stroke="#ccc"/>
</svg>