<svg xmlns="http://www.w3.org/2000/svg" width="800" height="540">
<style> .label{font-family:DejaVu Sans,Verdana,Geneva,sans-serif;font-size:12px;fill:#333} .value{font-family:DejaVu Sans,Verdana,Geneva,sans-serif;font-size:12px;fill:#555} </style>
<text x="10" y="20" class="label">延迟柱状图（越低越好，Top 15），单位 ms</text>
<text x="10" y="46" class="label">ea.com</text>
<rect x="180" y="30" width="254.5" height="22" fill="#4c78a8" rx="3"/>
<text x="442.5" y="46" class="value">88.49</text>
<text x="10" y="78" class="label">eaassets-a.akamaihd.net</text>
<rect x="180" y="62" width="272.21" height="22" fill="#4c78a8" rx="3"/>
<text x="460.21" y="78" class="value">94.65</text>
<text x="10" y="110" class="label">rockstargames.com</text>
<rect x="180" y="94" width="293.98" height="22" fill="#4c78a8" rx="3"/>
<text x="481.98" y="110" class="value">102.22</text>
<text x="10" y="142" class="label">socialclub.rockstargames.com</text>
<rect x="180" y="126" width="359.44" height="22" fill="#4c78a8" rx="3"/>
<text x="547.44" y="142" class="value">124.98</text>
<text x="10" y="174" class="label">ubi.com</text>
<rect x="180" y="158" width="363.12" height="22" fill="#4c78a8" rx="3"/>
<text x="551.12" y="174" class="value">126.26</text>
<text x="10" y="206" class="label">steamcdn-a.akamaihd.net</text>
<rect x="180" y="190" width="379.89" height="22" fill="#4c78a8" rx="3"/>
<text x="567.89" y="206" class="value">132.09</text>
<text x="10" y="238" class="label">origin.com</text>
<rect x="180" y="222" width="404.74" height="22" fill="#4c78a8" rx="3"/>
<text x="592.74" y="238" class="value">140.73</text>
<text x="10" y="270" class="label">cdn.akamai.steamstatic.com</text>
<rect x="180" y="254" width="411.09" height="22" fill="#4c78a8" rx="3"/>
<text x="599.0899999999999" y="270" class="value">142.94</text>
<text x="10" y="302" class="label">community.akamai.steamstatic.com</text>
<rect x="180" y="286" width="431.34" height="22" fill="#4c78a8" rx="3"/>
<text x="619.3399999999999" y="302" class="value">149.98</text>
<text x="10" y="334" class="label">battle.net</text>
<rect x="180" y="318" width="447.85" height="22" fill="#4c78a8" rx="3"/>
<text x="635.85" y="334" class="value">155.72</text>
<text x="10" y="366" class="label">blizzard.com</text>
<rect x="180" y="350" width="461.83" height="22" fill="#4c78a8" rx="3"/>
<text x="649.8299999999999" y="366" class="value">160.58</text>
<text x="10" y="398" class="label">ubisoft.com</text>
<rect x="180" y="382" width="476.32" height="22" fill="#4c78a8" rx="3"/>
<text x="664.3199999999999" y="398" class="value">165.62</text>
<text x="10" y="430" class="label">store.akamai.steamstatic.com</text>
<rect x="180" y="414" width="531.86" height="22" fill="#4c78a8" rx="3"/>
<text x="719.86" y="430" class="value">184.93</text>
<text x="10" y="462" class="label">epicgames.com</text>
<rect x="180" y="446" width="575.6" height="22" fill="#4c78a8" rx="3"/>
<text x="763.6" y="462" class="value">200.14</text>
<text x="10" y="494" class="label">www.steamcommunity.com</text>
<rect x="180" y="478" width="580.0" height="22" fill="#4c78a8" rx="3"/>
<text x="768.0" y="494" class="value">201.67</text>
<line x1="180" y1="30" x2="180" y2="520" stroke="#ccc"/>
<line x1="180" y1="520" x2="760" y2="520" stroke="#ccc"/>
</svg>