<svg xmlns="http://www.w3.org/2000/svg" width="800" height="540">
<style> .label{font-family:DejaVu Sans,Verdana,Geneva,sans-serif;font-size:12px;fill:#333} .value{font-family:DejaVu Sans,Verdana,Geneva,sans-serif;font-size:12px;fill:#555} </style>
<text x="10" y="20" class="label">延迟柱状图（越低越好，Top 15），单位 ms</text>
<text x="10" y="46" class="label">rockstargames.com</text>
<rect x="180" y="30" width="201.74" height="22" fill="#4c78a8" rx="3"/>
<text x="389.74" y="46" class="value">64.71</text>
<text x="10" y="78" class="label">eaassets-a.akamaihd.net</text>
<rect x="180" y="62" width="237.5" height="22" fill="#4c78a8" rx="3"/>
<text x="425.5" y="78" class="value">76.18</text>
<text x="10" y="110" class="label">ea.com</text>
<rect x="180" y="94" width="263.25" height="22" fill="#4c78a8" rx="3"/>
<text x="451.25" y="110" class="value">84.44</text>
<text x="10" y="142" class="label">origin.com</text>
<rect x="180" y="126" width="275.78" height="22" fill="#4c78a8" rx="3"/>
<text x="463.78" y="142" class="value">88.46</text>
<text x="10" y="174" class="label">blizzard.com</text>
<rect x="180" y="158" width="350.36" height="22" fill="#4c78a8" rx="3"/>
<text x="538.36" y="174" class="value">112.38</text>
<text x="10" y="206" class="label">cdn.akamai.steamstatic.com</text>
<rect x="180" y="190" width="351.2" height="22" fill="#4c78a8" rx="3"/>
<text x="539.2" y="206" class="value">112.65</text>
<text x="10" y="238" class="label">cdn.cloudflare.steamstatic.com</text>
<rect x="180" y="222" width="353.63" height="22" fill="#4c78a8" rx="3"/>
<text x="541.63" y="238" class="value">113.43</text>
<text x="10" y="270" class="label">socialclub.rockstargames.com</text>
<rect x="180" y="254" width="423.31" height="22" fill="#4c78a8" rx="3"/>
<text x="611.31" y="270" class="value">135.78</text>
<text x="10" y="302" class="label">battle.net</text>
<rect x="180" y="286" width="450.74" height="22" fill="#4c78a8" rx="3"/>
<text x="638.74" y="302" class="value">144.58</text>
<text x="10" y="334" class="label">ubisoft.com</text>
<rect x="180" y="318" width="477.93" height="22" fill="#4c78a8" rx="3"/>
<text x="665.9300000000001" y="334" class="value">153.30</text>
<text x="10" y="366" class="label">ubi.com</text>
<rect x="180" y="350" width="523.66" height="22" fill="#4c78a8" rx="3"/>
<text x="711.66" y="366" class="value">167.97</text>
<text x="10" y="398" class="label">unrealengine.com</text>
<rect x="180" y="382" width="530.4" height="22" fill="#4c78a8" rx="3"/>
<text x="718.4" y="398" class="value">170.13</text>
<text x="10" y="430" class="label">www.steamcommunity.com</text>
<rect x="180" y="414" width="530.55" height="22" fill="#4c78a8" rx="3"/>
<text x="718.55" y="430" class="value">170.18</text>
<text x="10" y="462" class="label">store.akamai.steamstatic.com</text>
<rect x="180" y="446" width="575.64" height="22" fill="#4c78a8" rx="3"/>
<text x="763.64" y="462" class="value">184.64</text>
<text x="10" y="494" class="label">easyanticheat.net</text>
<rect x="180" y="478" width="580.0" height="22" fill="#4c78a8" rx="3"/>
<text x="768.0" y="494" class="value">186.04</text>
<line x1="180" y1="30" x2="180" y2="520" stroke="#ccc"/>
<line x1="180" y1="520" x2="760" y2="520" stroke="#ccc"/>
</svg>