<svg xmlns="http://www.w3.org/2000/svg" width="800" height="540">
<style> .label{font-family:DejaVu Sans,Verdana,Geneva,sans-serif;font-size:12px;fill:#333} .value{font-family:DejaVu Sans,Verdana,Geneva,sans-serif;font-size:12px;fill:#555} </style>
<text x="10" y="20" class="label">延迟柱状图（越低越好，Top 15），单位 ms</text>
<text x="10" y="46" class="label">rockstargames.com</text>
<rect x="180" y="30" width="86.42" height="22" fill="#4c78a8" rx="3"/>
<text x="274.42" y="46" class="value">38.20</text>
<text x="10" y="78" class="label">ea.com</text>
<rect x="180" y="62" width="152.82" height="22" fill="#4c78a8" rx="3"/>
<text x="340.82" y="78" class="value">67.55</text>
<text x="10" y="110" class="label">community.akamai.steamstatic.com</text>
<rect x="180" y="94" width="245.7" height="22" fill="#4c78a8" rx="3"/>
<text x="433.7" y="110" class="value">108.61</text>
<text x="10" y="142" class="label">origin.com</text>
<rect x="180" y="126" width="262.13" height="22" fill="#4c78a8" rx="3"/>
<text x="450.13" y="142" class="value">115.87</text>
<text x="10" y="174" class="label">eaassets-a.akamaihd.net</text>
<rect x="180" y="158" width="287.47" height="22" fill="#4c78a8" rx="3"/>
<text x="475.47" y="174" class="value">127.07</text>
<text x="10" y="206" class="label">cdn.akamai.steamstatic.com</text>
<rect x="180" y="190" width="303.51" height="22" fill="#4c78a8" rx="3"/>
<text x="491.51" y="206" class="value">134.16</text>
<text x="10" y="238" class="label">ubisoft.com</text>
<rect x="180" y="222" width="314.86" height="22" fill="#4c78a8" rx="3"/>
<text x="502.86" y="238" class="value">139.18</text>
<text x="10" y="270" class="label">store.akamai.steamstatic.com</text>
<rect x="180" y="254" width="332.64" height="22" fill="#4c78a8" rx="3"/>
<text x="520.64" y="270" class="value">147.04</text>
<text x="10" y="302" class="label">steamcdn-a.akamaihd.net</text>
<rect x="180" y="286" width="334.59" height="22" fill="#4c78a8" rx="3"/>
<text x="522.5899999999999" y="302" class="value">147.90</text>
<text x="10" y="334" class="label">easyanticheat.net</text>
<rect x="180" y="318" width="479.08" height="22" fill="#4c78a8" rx="3"/>
<text x="667.0799999999999" y="334" class="value">211.77</text>
<text x="10" y="366" class="label">www.steamcommunity.com</text>
<rect x="180" y="350" width="489.31" height="22" fill="#4c78a8" rx="3"/>
<text x="677.31" y="366" class="value">216.29</text>
<text x="10" y="398" class="label">cdn.cloudflare.steamstatic.com</text>
<rect x="180" y="382" width="521.77" height="22" fill="#4c78a8" rx="3"/>
<text x="709.77" y="398" class="value">230.64</text>
<text x="10" y="430" class="label">gog.com</text>
<rect x="180" y="414" width="532.04" height="22" fill="#4c78a8" rx="3"/>
<text x="720.04" y="430" class="value">235.18</text>
<text x="10" y="462" class="label">api.steampowered.com</text>
<rect x="180" y="446" width="577.62" height="22" fill="#4c78a8" rx="3"/>
<text x="765.62" y="462" class="value">255.33</text>
<text x="10" y="494" class="label">launcher-public-service-prod06.ol.epicgames.com</text>
<rect x="180" y="478" width="580.0" height="22" fill="#4c78a8" rx="3"/>
<text x="768.0" y="494" class="value">256.38</text>
<line x1="180" y1="30" x2="180" y2="520" stroke="#ccc"/>
<line x1="180" y1="520" x2="760" y2="520" stroke="#ccc"/>
</svg>