<svg xmlns="http://www.w3.org/2000/svg" width="800" height="540">
<style> .label{font-family:DejaVu Sans,Verdana,Geneva,sans-serif;font-size:12px;fill:#333} .value{font-family:DejaVu Sans,Verdana,Geneva,sans-serif;font-size:12px;fill:#555} </style>
<text x="10" y="20" class="label">延迟柱状图（越低越好，Top 15），单位 ms</text>
<text x="10" y="46" class="label">socialclub.rockstargames.com</text>
<rect x="180" y="30" width="228.67" height="22" fill="#4c78a8" rx="3"/>
<text x="416.66999999999996" y="46" class="value">83.74</text>
<text x="10" y="78" class="label">rockstargames.com</text>
<rect x="180" y="62" width="244.42" height="22" fill="#4c78a8" rx="3"/>
<text x="432.41999999999996" y="78" class="value">89.51</text>
<text x="10" y="110" class="label">unrealengine.com</text>
<rect x="180" y="94" width="255.76" height="22" fill="#4c78a8" rx="3"/>
<text x="443.76" y="110" class="value">93.66</text>
<text x="10" y="142" class="label">blizzard.com</text>
<rect x="180" y="126" width="258.65" height="22" fill="#4c78a8" rx="3"/>
<text x="446.65" y="142" class="value">94.72</text>
<text x="10" y="174" class="label">epicgames.com</text>
<rect x="180" y="158" width="271.68" height="22" fill="#4c78a8" rx="3"/>
<text x="459.68" y="174" class="value">99.49</text>
<text x="10" y="206" class="label">ubi.com</text>
<rect x="180" y="190" width="280.55" height="22" fill="#4c78a8" rx="3"/>
<text x="468.55" y="206" class="value">102.74</text>
<text x="10" y="238" class="label">battle.net</text>
<rect x="180" y="222" width="294.01" height="22" fill="#4c78a8" rx="3"/>
<text x="482.01" y="238" class="value">107.67</text>
<text x="10" y="270" class="label">eaassets-a.akamaihd.net</text>
<rect x="180" y="254" width="296.47" height="22" fill="#4c78a8" rx="3"/>
<text x="484.47" y="270" class="value">108.57</text>
<text x="10" y="302" class="label">ubisoft.com</text>
<rect x="180" y="286" width="334.84" height="22" fill="#4c78a8" rx="3"/>
<text x="522.8399999999999" y="302" class="value">122.62</text>
<text x="10" y="334" class="label">ea.com</text>
<rect x="180" y="318" width="336.45" height="22" fill="#4c78a8" rx="3"/>
<text x="524.45" y="334" class="value">123.21</text>
<text x="10" y="366" class="label">cdn.akamai.steamstatic.com</text>
<rect x="180" y="350" width="379.48" height="22" fill="#4c78a8" rx="3"/>
<text x="567.48" y="366" class="value">138.97</text>
<text x="10" y="398" class="label">fortnite.com</text>
<rect x="180" y="382" width="465.56" height="22" fill="#4c78a8" rx="3"/>
<text x="653.56" y="398" class="value">170.49</text>
<text x="10" y="430" class="label">cdn.cloudflare.steamstatic.com</text>
<rect x="180" y="414" width="534.4" height="22" fill="#4c78a8" rx="3"/>
<text x="722.4" y="430" class="value">195.70</text>
<text x="10" y="462" class="label">steamcdn-a.akamaihd.net</text>
<rect x="180" y="446" width="577.08" height="22" fill="#4c78a8" rx="3"/>
<text x="765.08" y="462" class="value">211.33</text>
<text x="10" y="494" class="label">static3.cdn.ubi.com</text>
<rect x="180" y="478" width="580.0" height="22" fill="#4c78a8" rx="3"/>
<text x="768.0" y="494" class="value">212.40</text>
<line x1="180" y1="30" x2="180" y2="520" stroke="#ccc"/>
<line x1="180" y1="520" x2="760" y2="520" stroke="#ccc"/>
</svg>