<svg xmlns="http://www.w3.org/2000/svg" width="800" height="540">
<style> .label{font-family:DejaVu Sans,Verdana,Geneva,sans-serif;font-size:12px;fill:#333} .value{font-family:DejaVu Sans,Verdana,Geneva,sans-serif;font-size:12px;fill:#555} </style>
<text x="10" y="20" class="label">延迟柱状图（越低越好，Top 15），单位 ms</text>
<text x="10" y="46" class="label">rockstargames.com</text>
<rect x="180" y="30" width="89.64" height="22" fill="#4c78a8" rx="3"/>
<text x="277.64" y="46" class="value">37.54</text>
<text x="10" y="78" class="label">origin.com</text>
<rect x="180" y="62" width="168.6" height="22" fill="#4c78a8" rx="3"/>
<text x="356.6" y="78" class="value">70.61</text>
<text x="10" y="110" class="label">cdn.akamai.steamstatic.com</text>
<rect x="180" y="94" width="206.14" height="22" fill="#4c78a8" rx="3"/>
<text x="394.14" y="110" class="value">86.33</text>
<text x="10" y="142" class="label">eaassets-a.akamaihd.net</text>
<rect x="180" y="126" width="209.44" height="22" fill="#4c78a8" rx="3"/>
<text x="397.44" y="142" class="value">87.71</text>
<text x="10" y="174" class="label">store.akamai.steamstatic.com</text>
<rect x="180" y="158" width="213.69" height="22" fill="#4c78a8" rx="3"/>
<text x="401.69" y="174" class="value">89.49</text>
<text x="10" y="206" class="label">ea.com</text>
<rect x="180" y="190" width="258.39" height="22" fill="#4c78a8" rx="3"/>
<text x="446.39" y="206" class="value">108.21</text>
<text x="10" y="238" class="label">steamcdn-a.akamaihd.net</text>
<rect x="180" y="222" width="270.16" height="22" fill="#4c78a8" rx="3"/>
<text x="458.16" y="238" class="value">113.14</text>
<text x="10" y="270" class="label">easyanticheat.net</text>
<rect x="180" y="254" width="336.54" height="22" fill="#4c78a8" rx="3"/>
<text x="524.54" y="270" class="value">140.94</text>
<text x="10" y="302" class="label">cdn.cloudflare.steamstatic.com</text>
<rect x="180" y="286" width="342.25" height="22" fill="#4c78a8" rx="3"/>
<text x="530.25" y="302" class="value">143.33</text>
<text x="10" y="334" class="label">www.steamcommunity.com</text>
<rect x="180" y="318" width="455.05" height="22" fill="#4c78a8" rx="3"/>
<text x="643.05" y="334" class="value">190.57</text>
<text x="10" y="366" class="label">community.akamai.steamstatic.com</text>
<rect x="180" y="350" width="461.13" height="22" fill="#4c78a8" rx="3"/>
<text x="649.13" y="366" class="value">193.12</text>
<text x="10" y="398" class="label">steam-chat.com</text>
<rect x="180" y="382" width="554.9" height="22" fill="#4c78a8" rx="3"/>
<text x="742.9" y="398" class="value">232.39</text>
<text x="10" y="430" class="label">steamcommunity.com</text>
<rect x="180" y="414" width="570.97" height="22" fill="#4c78a8" rx="3"/>
<text x="758.97" y="430" class="value">239.12</text>
<text x="10" y="462" class="label">api.steampowered.com</text>
<rect x="180" y="446" width="574.34" height="22" fill="#4c78a8" rx="3"/>
<text x="762.34" y="462" class="value">240.53</text>
<text x="10" y="494" class="label">launcher-public-service-prod06.ol.epicgames.com</text>
<rect x="180" y="478" width="580.0" height="22" fill="#4c78a8" rx="3"/>
<text x="768.0" y="494" class="value">242.90</text>
<line x1="180" y1="30" x2="180" y2="520" stroke="#ccc"/>
<line x1="180" y1="520" x2="760" y2="520" stroke="#ccc"/>
</svg>