<svg xmlns="http://www.w3.org/2000/svg" width="800" height="540">
<style> .label{font-family:DejaVu Sans,Verdana,Geneva,sans-serif;font-size:12px;fill:#333} .value{font-family:DejaVu Sans,Verdana,Geneva,sans-serif;font-size:12px;fill:#555} </style>
<text x="10" y="20" class="label">延迟柱状图（越低越好，Top 15），单位 ms</text>
<text x="10" y="46" class="label">eaassets-a.akamaihd.net</text>
<rect x="180" y="30" width="175.52" height="22" fill="#4c78a8" rx="3"/>
<text x="363.52" y="46" class="value">80.70</text>
<text x="10" y="78" class="label">rockstargames.com</text>
<rect x="180" y="62" width="225.65" height="22" fill="#4c78a8" rx="3"/>
<text x="413.65" y="78" class="value">103.75</text>
<text x="10" y="110" class="label">origin.com</text>
<rect x="180" y="94" width="275.16" height="22" fill="#4c78a8" rx="3"/>
<text x="463.16" y="110" class="value">126.51</text>
<text x="10" y="142" class="label">ubi.com</text>
<rect x="180" y="126" width="328.96" height="22" fill="#4c78a8" rx="3"/>
<text x="516.96" y="142" class="value">151.25</text>
<text x="10" y="174" class="label">socialclub.rockstargames.com</text>
<rect x="180" y="158" width="368.18" height="22" fill="#4c78a8" rx="3"/>
<text x="556.1800000000001" y="174" class="value">169.28</text>
<text x="10" y="206" class="label">blizzard.com</text>
<rect x="180" y="190" width="371.51" height="22" fill="#4c78a8" rx="3"/>
<text x="559.51" y="206" class="value">170.81</text>
<text x="10" y="238" class="label">ubisoft.com</text>
<rect x="180" y="222" width="396.98" height="22" fill="#4c78a8" rx="3"/>
<text x="584.98" y="238" class="value">182.52</text>
<text x="10" y="270" class="label">battle.net</text>
<rect x="180" y="254" width="399.98" height="22" fill="#4c78a8" rx="3"/>
<text x="587.98" y="270" class="value">183.90</text>
<text x="10" y="302" class="label">static3.cdn.ubi.com</text>
<rect x="180" y="286" width="407.11" height="22" fill="#4c78a8" rx="3"/>
<text x="595.11" y="302" class="value">187.18</text>
<text x="10" y="334" class="label">ea.com</text>
<rect x="180" y="318" width="426.14" height="22" fill="#4c78a8" rx="3"/>
<text x="614.14" y="334" class="value">195.93</text>
<text x="10" y="366" class="label">easyanticheat.net</text>
<rect x="180" y="350" width="448.87" height="22" fill="#4c78a8" rx="3"/>
<text x="636.87" y="366" class="value">206.38</text>
<text x="10" y="398" class="label">cdn.akamai.steamstatic.com</text>
<rect x="180" y="382" width="480.52" height="22" fill="#4c78a8" rx="3"/>
<text x="668.52" y="398" class="value">220.93</text>
<text x="10" y="430" class="label">store.akamai.steamstatic.com</text>
<rect x="180" y="414" width="481.91" height="22" fill="#4c78a8" rx="3"/>
<text x="669.9100000000001" y="430" class="value">221.57</text>
<text x="10" y="462" class="label">cdn.cloudflare.steamstatic.com</text>
<rect x="180" y="446" width="540.76" height="22" fill="#4c78a8" rx="3"/>
<text x="728.76" y="462" class="value">248.63</text>
<text x="10" y="494" class="label">community.akamai.steamstatic.com</text>
<rect x="180" y="478" width="580.0" height="22" fill="#4c78a8" rx="3"/>
<text x="768.0" y="494" class="value">266.67</text>
<line x1="180" y1="30" x2="180" y2="520" stroke="#ccc"/>
<line x1="180" y1="520" x2="760" y2="520" stroke="#ccc"/>
</svg>