<svg xmlns="http://www.w3.org/2000/svg" width="800" height="540">
<style> .label{font-family:DejaVu Sans,Verdana,Geneva,sans-serif;font-size:12px;fill:#333} .value{font-family:DejaVu Sans,Verdana,Geneva,sans-serif;font-size:12px;fill:#555} </style>
<text x="10" y="20" class="label">延迟柱状图（越低越好，Top 15），单位 ms</text>
<text x="10" y="46" class="label">rockstargames.com</text>
<rect x="180" y="30" width="176.15" height="22" fill="#4c78a8" rx="3"/>
<text x="364.15" y="46" class="value">70.49</text>
<text x="10" y="78" class="label">store.akamai.steamstatic.com</text>
<rect x="180" y="62" width="274.08" height="22" fill="#4c78a8" rx="3"/>
<text x="462.08" y="78" class="value">109.68</text>
<text x="10" y="110" class="label">origin.com</text>
<rect x="180" y="94" width="309.42" height="22" fill="#4c78a8" rx="3"/>
<text x="497.42" y="110" class="value">123.82</text>
<text x="10" y="142" class="label">community.akamai.steamstatic.com</text>
<rect x="180" y="126" width="329.76" height="22" fill="#4c78a8" rx="3"/>
<text x="517.76" y="142" class="value">131.96</text>
<text x="10" y="174" class="label">eaassets-a.akamaihd.net</text>
<rect x="180" y="158" width="341.6" height="22" fill="#4c78a8" rx="3"/>
<text x="529.6" y="174" class="value">136.70</text>
<text x="10" y="206" class="label">easyanticheat.net</text>
<rect x="180" y="190" width="375.16" height="22" fill="#4c78a8" rx="3"/>
<text x="563.1600000000001" y="206" class="value">150.13</text>
<text x="10" y="238" class="label">ubi.com</text>
<rect x="180" y="222" width="392.93" height="22" fill="#4c78a8" rx="3"/>
<text x="580.9300000000001" y="238" class="value">157.24</text>
<text x="10" y="270" class="label">cdn.cloudflare.steamstatic.com</text>
<rect x="180" y="254" width="398.73" height="22" fill="#4c78a8" rx="3"/>
<text x="586.73" y="270" class="value">159.56</text>
<text x="10" y="302" class="label">blizzard.com</text>
<rect x="180" y="286" width="437.59" height="22" fill="#4c78a8" rx="3"/>
<text x="625.5899999999999" y="302" class="value">175.11</text>
<text x="10" y="334" class="label">battle.net</text>
<rect x="180" y="318" width="455.33" height="22" fill="#4c78a8" rx="3"/>
<text x="643.3299999999999" y="334" class="value">182.21</text>
<text x="10" y="366" class="label">cdn.akamai.steamstatic.com</text>
<rect x="180" y="350" width="480.29" height="22" fill="#4c78a8" rx="3"/>
<text x="668.29" y="366" class="value">192.20</text>
<text x="10" y="398" class="label">launcher-public-service-prod06.ol.epicgames.com</text>
<rect x="180" y="382" width="497.21" height="22" fill="#4c78a8" rx="3"/>
<text x="685.21" y="398" class="value">198.97</text>
<text x="10" y="430" class="label">steamcdn-a.akamaihd.net</text>
<rect x="180" y="414" width="511.9" height="22" fill="#4c78a8" rx="3"/>
<text x="699.9" y="430" class="value">204.85</text>
<text x="10" y="462" class="label">socialclub.rockstargames.com</text>
<rect x="180" y="446" width="515.85" height="22" fill="#4c78a8" rx="3"/>
<text x="703.85" y="462" class="value">206.43</text>
<text x="10" y="494" class="label">ea.com</text>
<rect x="180" y="478" width="580.0" height="22" fill="#4c78a8" rx="3"/>
<text x="768.0" y="494" class="value">232.10</text>
<line x1="180" y1="30" x2="180" y2="520" stroke="#ccc"/>
<line x1="180" y1="520" x2="760" y2="520" stroke="#ccc"/>
</svg>