<svg xmlns="http://www.w3.org/2000/svg" width="800" height="540">
<style> .label{font-family:DejaVu Sans,Verdana,Geneva,sans-serif;font-size:12px;fill:#333} .value{font-family:DejaVu Sans,Verdana,Geneva,sans-serif;font-size:12px;fill:#555} </style>
<text x="10" y="20" class="label">延迟柱状图（越低越好，Top 15），单位 ms</text>
<text x="10" y="46" class="label">origin.com</text>
<rect x="180" y="30" width="265.11" height="22" fill="#4c78a8" rx="3"/>
<text x="453.11" y="46" class="value">128.05</text>
<text x="10" y="78" class="label">ubisoft.com</text>
<rect x="180" y="62" width="266.87" height="22" fill="#4c78a8" rx="3"/>
<text x="454.87" y="78" class="value">128.90</text>
<text x="10" y="110" class="label">store.akamai.steamstatic.com</text>
<rect x="180" y="94" width="291.64" height="22" fill="#4c78a8" rx="3"/>
<text x="479.64" y="110" class="value">140.86</text>
<text x="10" y="142" class="label">eaassets-a.akamaihd.net</text>
<rect x="180" y="126" width="296.71" height="22" fill="#4c78a8" rx="3"/>
<text x="484.71" y="142" class="value">143.31</text>
<text x="10" y="174" class="label">community.akamai.steamstatic.com</text>
<rect x="180" y="158" width="326.54" height="22" fill="#4c78a8" rx="3"/>
<text x="514.54" y="174" class="value">157.72</text>
<text x="10" y="206" class="label">steamcdn-a.akamaihd.net</text>
<rect x="180" y="190" width="344.87" height="22" fill="#4c78a8" rx="3"/>
<text x="532.87" y="206" class="value">166.57</text>
<text x="10" y="238" class="label">api.steampowered.com</text>
<rect x="180" y="222" width="387.33" height="22" fill="#4c78a8" rx="3"/>
<text x="575.3299999999999" y="238" class="value">187.08</text>
<text x="10" y="270" class="label">rockstargames.com</text>
<rect x="180" y="254" width="396.94" height="22" fill="#4c78a8" rx="3"/>
<text x="584.94" y="270" class="value">191.72</text>
<text x="10" y="302" class="label">cdn.akamai.steamstatic.com</text>
<rect x="180" y="286" width="410.43" height="22" fill="#4c78a8" rx="3"/>
<text x="598.4300000000001" y="302" class="value">198.24</text>
<text x="10" y="334" class="label">easyanticheat.net</text>
<rect x="180" y="318" width="453.73" height="22" fill="#4c78a8" rx="3"/>
<text x="641.73" y="334" class="value">219.15</text>
<text x="10" y="366" class="label">steam-chat.com</text>
<rect x="180" y="350" width="504.68" height="22" fill="#4c78a8" rx="3"/>
<text x="692.6800000000001" y="366" class="value">243.76</text>
<text x="10" y="398" class="label">ubi.com</text>
<rect x="180" y="382" width="513.35" height="22" fill="#4c78a8" rx="3"/>
<text x="701.35" y="398" class="value">247.95</text>
<text x="10" y="430" class="label">fortnite.com</text>
<rect x="180" y="414" width="557.76" height="22" fill="#4c78a8" rx="3"/>
<text x="745.76" y="430" class="value">269.40</text>
<text x="10" y="462" class="label">socialclub.rockstargames.com</text>
<rect x="180" y="446" width="565.49" height="22" fill="#4c78a8" rx="3"/>
<text x="753.49" y="462" class="value">273.13</text>
<text x="10" y="494" class="label">cdn.cloudflare.steamstatic.com</text>
<rect x="180" y="478" width="580.0" height="22" fill="#4c78a8" rx="3"/>
<text x="768.0" y="494" class="value">280.14</text>
<line x1="180" y1="30" x2="180" y2="520" stroke="#ccc"/>
<line x1="180" y1="520" x2="760" y2="520" stroke="#ccc"/>
</svg>