<svg xmlns="http://www.w3.org/2000/svg" width="800" height="540">
<style> .label{font-family:DejaVu Sans,Verdana,Geneva,sans-serif;font-size:12px;fill:#333} .value{font-family:DejaVu Sans,Verdana,Geneva,sans-serif;font-size:12px;fill:#555} </style>
<text x="10" y="20" class="label">延迟柱状图（越低越好，Top 15），单位 ms</text>
<text x="10" y="46" class="label">blizzard.com</text>
<rect x="180" y="30" width="219.37" height="22" fill="#4c78a8" rx="3"/>
<text x="407.37" y="46" class="value">67.76</text>
<text x="10" y="78" class="label">rockstargames.com</text>
<rect x="180" y="62" width="264.6" height="22" fill="#4c78a8" rx="3"/>
<text x="452.6" y="78" class="value">81.73</text>
<text x="10" y="110" class="label">socialclub.rockstargames.com</text>
<rect x="180" y="94" width="290.7" height="22" fill="#4c78a8" rx="3"/>
<text x="478.7" y="110" class="value">89.79</text>
<text x="10" y="142" class="label">battle.net</text>
<rect x="180" y="126" width="331.42" height="22" fill="#4c78a8" rx="3"/>
<text x="519.4200000000001" y="142" class="value">102.37</text>
<text x="10" y="174" class="label">community.akamai.steamstatic.com</text>
<rect x="180" y="158" width="346.7" height="22" fill="#4c78a8" rx="3"/>
<text x="534.7" y="174" class="value">107.09</text>
<text x="10" y="206" class="label">epicgames.com</text>
<rect x="180" y="190" width="347.55" height="22" fill="#4c78a8" rx="3"/>
<text x="535.55" y="206" class="value">107.35</text>
<text x="10" y="238" class="label">unrealengine.com</text>
<rect x="180" y="222" width="362.21" height="22" fill="#4c78a8" rx="3"/>
<text x="550.21" y="238" class="value">111.88</text>
<text x="10" y="270" class="label">ubi.com</text>
<rect x="180" y="254" width="367.59" height="22" fill="#4c78a8" rx="3"/>
<text x="555.5899999999999" y="270" class="value">113.54</text>
<text x="10" y="302" class="label">eaassets-a.akamaihd.net</text>
<rect x="180" y="286" width="386.88" height="22" fill="#4c78a8" rx="3"/>
<text x="574.88" y="302" class="value">119.50</text>
<text x="10" y="334" class="label">fortnite.com</text>
<rect x="180" y="318" width="409.09" height="22" fill="#4c78a8" rx="3"/>
<text x="597.0899999999999" y="334" class="value">126.36</text>
<text x="10" y="366" class="label">store.akamai.steamstatic.com</text>
<rect x="180" y="350" width="461.38" height="22" fill="#4c78a8" rx="3"/>
<text x="649.38" y="366" class="value">142.51</text>
<text x="10" y="398" class="label">origin.com</text>
<rect x="180" y="382" width="491.81" height="22" fill="#4c78a8" rx="3"/>
<text x="679.81" y="398" class="value">151.91</text>
<text x="10" y="430" class="label">launcher-public-service-prod06.ol.epicgames.com</text>
<rect x="180" y="414" width="516.48" height="22" fill="#4c78a8" rx="3"/>
<text x="704.48" y="430" class="value">159.53</text>
<text x="10" y="462" class="label">gog.com</text>
<rect x="180" y="446" width="574.17" height="22" fill="#4c78a8" rx="3"/>
<text x="762.17" y="462" class="value">177.35</text>
<text x="10" y="494" class="label">ea.com</text>
<rect x="180" y="478" width="580.0" height="22" fill="#4c78a8" rx="3"/>
<text x="768.0" y="494" class="value">179.15</text>
<line x1="180" y1="30" x2="180" y2="520" stroke="#ccc"/>
<line x1="180" y1="520" x2="760" y2="520" stroke="#ccc"/>
</svg>