<svg xmlns="http://www.w3.org/2000/svg" width="800" height="540">
<style> .label{font-family:DejaVu Sans,Verdana,Geneva,sans-serif;font-size:12px;fill:#333} .value{font-family:DejaVu Sans,Verdana,Geneva,sans-serif;font-size:12px;fill:#555} </style>
<text x="10" y="20" class="label">延迟柱状图（越低越好，Top 15），单位 ms</text>
<text x="10" y="46" class="label">rockstargames.com</text>
<rect x="180" y="30" width="75.33" height="22" fill="#4c78a8" rx="3"/>
<text x="263.33" y="46" class="value">38.34</text>
<text x="10" y="78" class="label">eaassets-a.akamaihd.net</text>
<rect x="180" y="62" width="159.61" height="22" fill="#4c78a8" rx="3"/>
<text x="347.61" y="78" class="value">81.24</text>
<text x="10" y="110" class="label">ea.com</text>
<rect x="180" y="94" width="182.87" height="22" fill="#4c78a8" rx="3"/>
<text x="370.87" y="110" class="value">93.08</text>
<text x="10" y="142" class="label">cdn.cloudflare.steamstatic.com</text>
<rect x="180" y="126" width="202.34" height="22" fill="#4c78a8" rx="3"/>
<text x="390.34000000000003" y="142" class="value">102.99</text>
<text x="10" y="174" class="label">steamcdn-a.akamaihd.net</text>
<rect x="180" y="158" width="306.14" height="22" fill="#4c78a8" rx="3"/>
<text x="494.14" y="174" class="value">155.82</text>
<text x="10" y="206" class="label">community.akamai.steamstatic.com</text>
<rect x="180" y="190" width="341.7" height="22" fill="#4c78a8" rx="3"/>
<text x="529.7" y="206" class="value">173.92</text>
<text x="10" y="238" class="label">store.akamai.steamstatic.com</text>
<rect x="180" y="222" width="385.53" height="22" fill="#4c78a8" rx="3"/>
<text x="573.53" y="238" class="value">196.23</text>
<text x="10" y="270" class="label">cdn.akamai.steamstatic.com</text>
<rect x="180" y="254" width="394.14" height="22" fill="#4c78a8" rx="3"/>
<text x="582.14" y="270" class="value">200.61</text>
<text x="10" y="302" class="label">origin.com</text>
<rect x="180" y="286" width="417.17" height="22" fill="#4c78a8" rx="3"/>
<text x="605.1700000000001" y="302" class="value">212.33</text>
<text x="10" y="334" class="label">easyanticheat.net</text>
<rect x="180" y="318" width="450.41" height="22" fill="#4c78a8" rx="3"/>
<text x="638.4100000000001" y="334" class="value">229.25</text>
<text x="10" y="366" class="label">www.steamcommunity.com</text>
<rect x="180" y="350" width="453.79" height="22" fill="#4c78a8" rx="3"/>
<text x="641.79" y="366" class="value">230.97</text>
<text x="10" y="398" class="label">api.steampowered.com</text>
<rect x="180" y="382" width="511.12" height="22" fill="#4c78a8" rx="3"/>
<text x="699.12" y="398" class="value">260.15</text>
<text x="10" y="430" class="label">blizzard.com</text>
<rect x="180" y="414" width="555.62" height="22" fill="#4c78a8" rx="3"/>
<text x="743.62" y="430" class="value">282.80</text>
<text x="10" y="462" class="label">static3.cdn.ubi.com</text>
<rect x="180" y="446" width="575.56" height="22" fill="#4c78a8" rx="3"/>
<text x="763.56" y="462" class="value">292.95</text>
<text x="10" y="494" class="label">launcher-public-service-prod06.ol.epicgames.com</text>
<rect x="180" y="478" width="580.0" height="22" fill="#4c78a8" rx="3"/>
<text x="768.0" y="494" class="value">295.21</text>
<line x1="180" y1="30" x2="180" y2="520" stroke="#ccc"/>
<line x1="180" y1="520" x2="760" y2="520" stroke="#ccc"/>
</svg>