<svg xmlns="http://www.w3.org/2000/svg" width="800" height="540">
<style> .label{font-family:DejaVu Sans,Verdana,Geneva,sans-serif;font-size:12px;fill:#333} .value{font-family:DejaVu Sans,Verdana,Geneva,sans-serif;font-size:12px;fill:#555} </style>
<text x="10" y="20" class="label">延迟柱状图（越低越好，Top 15），单位 ms</text>
<text x="10" y="46" class="label">eaassets-a.akamaihd.net</text>
<rect x="180" y="30" width="194.91" height="22" fill="#4c78a8" rx="3"/>
<text x="382.90999999999997" y="46" class="value">71.70</text>
<text x="10" y="78" class="label">rockstargames.com</text>
<rect x="180" y="62" width="202.25" height="22" fill="#4c78a8" rx="3"/>
<text x="390.25" y="78" class="value">74.40</text>
<text x="10" y="110" class="label">blizzard.com</text>
<rect x="180" y="94" width="230.19" height="22" fill="#4c78a8" rx="3"/>
<text x="418.19" y="110" class="value">84.68</text>
<text x="10" y="142" class="label">socialclub.rockstargames.com</text>
<rect x="180" y="126" width="248.11" height="22" fill="#4c78a8" rx="3"/>
<text x="436.11" y="142" class="value">91.27</text>
<text x="10" y="174" class="label">ubisoft.com</text>
<rect x="180" y="158" width="291.71" height="22" fill="#4c78a8" rx="3"/>
<text x="479.71" y="174" class="value">107.31</text>
<text x="10" y="206" class="label">unrealengine.com</text>
<rect x="180" y="190" width="314.36" height="22" fill="#4c78a8" rx="3"/>
<text x="502.36" y="206" class="value">115.64</text>
<text x="10" y="238" class="label">ubi.com</text>
<rect x="180" y="222" width="317.51" height="22" fill="#4c78a8" rx="3"/>
<text x="505.51" y="238" class="value">116.80</text>
<text x="10" y="270" class="label">epicgames.com</text>
<rect x="180" y="254" width="331.65" height="22" fill="#4c78a8" rx="3"/>
<text x="519.65" y="270" class="value">122.00</text>
<text x="10" y="302" class="label">battle.net</text>
<rect x="180" y="286" width="358.83" height="22" fill="#4c78a8" rx="3"/>
<text x="546.8299999999999" y="302" class="value">132.00</text>
<text x="10" y="334" class="label">static3.cdn.ubi.com</text>
<rect x="180" y="318" width="442.53" height="22" fill="#4c78a8" rx="3"/>
<text x="630.53" y="334" class="value">162.79</text>
<text x="10" y="366" class="label">ea.com</text>
<rect x="180" y="350" width="481.27" height="22" fill="#4c78a8" rx="3"/>
<text x="669.27" y="366" class="value">177.04</text>
<text x="10" y="398" class="label">steamcdn-a.akamaihd.net</text>
<rect x="180" y="382" width="493.88" height="22" fill="#4c78a8" rx="3"/>
<text x="681.88" y="398" class="value">181.68</text>
<text x="10" y="430" class="label">fortnite.com</text>
<rect x="180" y="414" width="502.34" height="22" fill="#4c78a8" rx="3"/>
<text x="690.3399999999999" y="430" class="value">184.79</text>
<text x="10" y="462" class="label">cdn.akamai.steamstatic.com</text>
<rect x="180" y="446" width="567.85" height="22" fill="#4c78a8" rx="3"/>
<text x="755.85" y="462" class="value">208.89</text>
<text x="10" y="494" class="label">origin.com</text>
<rect x="180" y="478" width="580.0" height="22" fill="#4c78a8" rx="3"/>
<text x="768.0" y="494" class="value">213.36</text>
<line x1="180" y1="30" x2="180" y2="520" stroke="#ccc"/>
<line x1="180" y1="520" x2="760" y2="520" stroke="#ccc"/>
</svg>