<svg xmlns="http://www.w3.org/2000/svg" width="800" height="540">
<style> .label{font-family:DejaVu Sans,Verdana,Geneva,sans-serif;font-size:12px;fill:#333} .value{font-family:DejaVu Sans,Verdana,Geneva,sans-serif;font-size:12px;fill:#555} </style>
<text x="10" y="20" class="label">延迟柱状图（越低越好，Top 15），单位 ms</text>
<text x="10" y="46" class="label">rockstargames.com</text>
<rect x="180" y="30" width="275.11" height="22" fill="#4c78a8" rx="3"/>
<text x="463.11" y="46" class="value">81.19</text>
<text x="10" y="78" class="label">blizzard.com</text>
<rect x="180" y="62" width="283.34" height="22" fill="#4c78a8" rx="3"/>
<text x="471.34" y="78" class="value">83.62</text>
<text x="10" y="110" class="label">cdn.akamai.steamstatic.com</text>
<rect x="180" y="94" width="299.95" height="22" fill="#4c78a8" rx="3"/>
<text x="487.95" y="110" class="value">88.52</text>
<text x="10" y="142" class="label">ubisoft.com</text>
<rect x="180" y="126" width="321.09" height="22" fill="#4c78a8" rx="3"/>
<text x="509.09" y="142" class="value">94.76</text>
<text x="10" y="174" class="label">socialclub.rockstargames.com</text>
<rect x="180" y="158" width="323.02" height="22" fill="#4c78a8" rx="3"/>
<text x="511.02" y="174" class="value">95.33</text>
<text x="10" y="206" class="label">fortnite.com</text>
<rect x="180" y="190" width="340.78" height="22" fill="#4c78a8" rx="3"/>
<text x="528.78" y="206" class="value">100.57</text>
<text x="10" y="238" class="label">eaassets-a.akamaihd.net</text>
<rect x="180" y="222" width="351.35" height="22" fill="#4c78a8" rx="3"/>
<text x="539.35" y="238" class="value">103.69</text>
<text x="10" y="270" class="label">cdn.cloudflare.steamstatic.com</text>
<rect x="180" y="254" width="420.95" height="22" fill="#4c78a8" rx="3"/>
<text x="608.95" y="270" class="value">124.23</text>
<text x="10" y="302" class="label">battle.net</text>
<rect x="180" y="286" width="422.74" height="22" fill="#4c78a8" rx="3"/>
<text x="610.74" y="302" class="value">124.76</text>
<text x="10" y="334" class="label">ubi.com</text>
<rect x="180" y="318" width="450.09" height="22" fill="#4c78a8" rx="3"/>
<text x="638.0899999999999" y="334" class="value">132.83</text>
<text x="10" y="366" class="label">community.akamai.steamstatic.com</text>
<rect x="180" y="350" width="495.7" height="22" fill="#4c78a8" rx="3"/>
<text x="683.7" y="366" class="value">146.29</text>
<text x="10" y="398" class="label">static3.cdn.ubi.com</text>
<rect x="180" y="382" width="543.57" height="22" fill="#4c78a8" rx="3"/>
<text x="731.57" y="398" class="value">160.42</text>
<text x="10" y="430" class="label">unrealengine.com</text>
<rect x="180" y="414" width="568.51" height="22" fill="#4c78a8" rx="3"/>
<text x="756.51" y="430" class="value">167.78</text>
<text x="10" y="462" class="label">steamcdn-a.akamaihd.net</text>
<rect x="180" y="446" width="571.02" height="22" fill="#4c78a8" rx="3"/>
<text x="759.02" y="462" class="value">168.52</text>
<text x="10" y="494" class="label">ea.com</text>
<rect x="180" y="478" width="580.0" height="22" fill="#4c78a8" rx="3"/>
<text x="768.0" y="494" class="value">171.17</text>
<line x1="180" y1="30" x2="180" y2="520" stroke="#ccc"/>
<line x1="180" y1="520" x2="760" y2="520" stroke="#ccc"/>
</svg>