<svg xmlns="http://www.w3.org/2000/svg" width="800" height="540">
<style> .label{font-family:DejaVu Sans,Verdana,Geneva,sans-serif;font-size:12px;fill:#333} .value{font-family:DejaVu Sans,Verdana,Geneva,sans-serif;font-size:12px;fill:#555} </style>
<text x="10" y="20" class="label">延迟柱状图（越低越好，Top 15），单位 ms</text>
<text x="10" y="46" class="label">rockstargames.com</text>
<rect x="180" y="30" width="172.34" height="22" fill="#4c78a8" rx="3"/>
<text x="360.34000000000003" y="46" class="value">60.29</text>
<text x="10" y="78" class="label">eaassets-a.akamaihd.net</text>
<rect x="180" y="62" width="203.21" height="22" fill="#4c78a8" rx="3"/>
<text x="391.21000000000004" y="78" class="value">71.09</text>
<text x="10" y="110" class="label">socialclub.rockstargames.com</text>
<rect x="180" y="94" width="264.44" height="22" fill="#4c78a8" rx="3"/>
<text x="452.44" y="110" class="value">92.51</text>
<text x="10" y="142" class="label">battle.net</text>
<rect x="180" y="126" width="291.8" height="22" fill="#4c78a8" rx="3"/>
<text x="479.8" y="142" class="value">102.08</text>
<text x="10" y="174" class="label">ubisoft.com</text>
<rect x="180" y="158" width="297.8" height="22" fill="#4c78a8" rx="3"/>
<text x="485.8" y="174" class="value">104.18</text>
<text x="10" y="206" class="label">blizzard.com</text>
<rect x="180" y="190" width="298.26" height="22" fill="#4c78a8" rx="3"/>
<text x="486.26" y="206" class="value">104.34</text>
<text x="10" y="238" class="label">ubi.com</text>
<rect x="180" y="222" width="300.61" height="22" fill="#4c78a8" rx="3"/>
<text x="488.61" y="238" class="value">105.16</text>
<text x="10" y="270" class="label">unrealengine.com</text>
<rect x="180" y="254" width="313.01" height="22" fill="#4c78a8" rx="3"/>
<text x="501.01" y="270" class="value">109.50</text>
<text x="10" y="302" class="label">ea.com</text>
<rect x="180" y="286" width="478.98" height="22" fill="#4c78a8" rx="3"/>
<text x="666.98" y="302" class="value">167.56</text>
<text x="10" y="334" class="label">launcher-public-service-prod06.ol.epicgames.com</text>
<rect x="180" y="318" width="484.1" height="22" fill="#4c78a8" rx="3"/>
<text x="672.1" y="334" class="value">169.35</text>
<text x="10" y="366" class="label">epicgames.com</text>
<rect x="180" y="350" width="499.25" height="22" fill="#4c78a8" rx="3"/>
<text x="687.25" y="366" class="value">174.65</text>
<text x="10" y="398" class="label">static3.cdn.ubi.com</text>
<rect x="180" y="382" width="504.68" height="22" fill="#4c78a8" rx="3"/>
<text x="692.6800000000001" y="398" class="value">176.55</text>
<text x="10" y="430" class="label">cdn.akamai.steamstatic.com</text>
<rect x="180" y="414" width="568.37" height="22" fill="#4c78a8" rx="3"/>
<text x="756.37" y="430" class="value">198.83</text>
<text x="10" y="462" class="label">community.akamai.steamstatic.com</text>
<rect x="180" y="446" width="569.91" height="22" fill="#4c78a8" rx="3"/>
<text x="757.91" y="462" class="value">199.37</text>
<text x="10" y="494" class="label">fortnite.com</text>
<rect x="180" y="478" width="580.0" height="22" fill="#4c78a8" rx="3"/>
<text x="768.0" y="494" class="value">202.90</text>
<line x1="180" y1="30" x2="180" y2="520" stroke="#ccc"/>
<line x1="180" y1="520" x2="760" y2="520" stroke="#ccc"/>
</svg>