<svg xmlns="http://www.w3.org/2000/svg" width="800" height="540">
<style> .label{font-family:DejaVu Sans,Verdana,Geneva,sans-serif;font-size:12px;fill:#333} .value{font-family:DejaVu Sans,Verdana,Geneva,sans-serif;font-size:12px;fill:#555} </style>
<text x="10" y="20" class="label">延迟柱状图（越低越好，Top 15），单位 ms</text>
<text x="10" y="46" class="label">rockstargames.com</text>
<rect x="180" y="30" width="105.4" height="22" fill="#4c78a8" rx="3"/>
<text x="293.4" y="46" class="value">32.92</text>
<text x="10" y="78" class="label">socialclub.rockstargames.com</text>
<rect x="180" y="62" width="260.19" height="22" fill="#4c78a8" rx="3"/>
<text x="448.19" y="78" class="value">81.27</text>
<text x="10" y="110" class="label">eaassets-a.akamaihd.net</text>
<rect x="180" y="94" width="338.82" height="22" fill="#4c78a8" rx="3"/>
<text x="526.8199999999999" y="110" class="value">105.83</text>
<text x="10" y="142" class="label">ea.com</text>
<rect x="180" y="126" width="358.39" height="22" fill="#4c78a8" rx="3"/>
<text x="546.39" y="142" class="value">111.94</text>
<text x="10" y="174" class="label">ubisoft.com</text>
<rect x="180" y="158" width="365.05" height="22" fill="#4c78a8" rx="3"/>
<text x="553.05" y="174" class="value">114.02</text>
<text x="10" y="206" class="label">ubi.com</text>
<rect x="180" y="190" width="391.55" height="22" fill="#4c78a8" rx="3"/>
<text x="579.55" y="206" class="value">122.30</text>
<text x="10" y="238" class="label">epicgames.com</text>
<rect x="180" y="222" width="397.57" height="22" fill="#4c78a8" rx="3"/>
<text x="585.5699999999999" y="238" class="value">124.18</text>
<text x="10" y="270" class="label">blizzard.com</text>
<rect x="180" y="254" width="466.38" height="22" fill="#4c78a8" rx="3"/>
<text x="654.38" y="270" class="value">145.67</text>
<text x="10" y="302" class="label">cdn.akamai.steamstatic.com</text>
<rect x="180" y="286" width="472.97" height="22" fill="#4c78a8" rx="3"/>
<text x="660.97" y="302" class="value">147.73</text>
<text x="10" y="334" class="label">unrealengine.com</text>
<rect x="180" y="318" width="515.2" height="22" fill="#4c78a8" rx="3"/>
<text x="703.2" y="334" class="value">160.92</text>
<text x="10" y="366" class="label">battle.net</text>
<rect x="180" y="350" width="520.64" height="22" fill="#4c78a8" rx="3"/>
<text x="708.64" y="366" class="value">162.62</text>
<text x="10" y="398" class="label">fortnite.com</text>
<rect x="180" y="382" width="523.84" height="22" fill="#4c78a8" rx="3"/>
<text x="711.84" y="398" class="value">163.62</text>
<text x="10" y="430" class="label">store.akamai.steamstatic.com</text>
<rect x="180" y="414" width="546.61" height="22" fill="#4c78a8" rx="3"/>
<text x="734.61" y="430" class="value">170.73</text>
<text x="10" y="462" class="label">static3.cdn.ubi.com</text>
<rect x="180" y="446" width="554.52" height="22" fill="#4c78a8" rx="3"/>
<text x="742.52" y="462" class="value">173.20</text>
<text x="10" y="494" class="label">origin.com</text>
<rect x="180" y="478" width="580.0" height="22" fill="#4c78a8" rx="3"/>
<text x="768.0" y="494" class="value">181.16</text>
<line x1="180" y1="30" x2="180" y2="520" stroke="#ccc"/>
<line x1="180" y1="520" x2="760" y2="520" stroke="#ccc"/>
</svg>