<svg xmlns="http://www.w3.org/2000/svg" width="800" height="540">
<style> .label{font-family:DejaVu Sans,Verdana,Geneva,sans-serif;font-size:12px;fill:#333} .value{font-family:DejaVu Sans,Verdana,Geneva,sans-serif;font-size:12px;fill:#555} </style>
<text x="10" y="20" class="label">延迟柱状图（越低越好，Top 15），单位 ms</text>
<text x="10" y="46" class="label">rockstargames.com</text>
<rect x="180" y="30" width="257.21" height="22" fill="#4c78a8" rx="3"/>
<text x="445.21" y="46" class="value">101.82</text>
<text x="10" y="78" class="label">cdn.cloudflare.steamstatic.com</text>
<rect x="180" y="62" width="297.7" height="22" fill="#4c78a8" rx="3"/>
<text x="485.7" y="78" class="value">117.85</text>
<text x="10" y="110" class="label">steamcdn-a.akamaihd.net</text>
<rect x="180" y="94" width="317.94" height="22" fill="#4c78a8" rx="3"/>
<text x="505.94" y="110" class="value">125.86</text>
<text x="10" y="142" class="label">store.akamai.steamstatic.com</text>
<rect x="180" y="126" width="341.13" height="22" fill="#4c78a8" rx="3"/>
<text x="529.13" y="142" class="value">135.04</text>
<text x="10" y="174" class="label">ea.com</text>
<rect x="180" y="158" width="385.54" height="22" fill="#4c78a8" rx="3"/>
<text x="573.54" y="174" class="value">152.62</text>
<text x="10" y="206" class="label">eaassets-a.akamaihd.net</text>
<rect x="180" y="190" width="400.04" height="22" fill="#4c78a8" rx="3"/>
<text x="588.04" y="206" class="value">158.36</text>
<text x="10" y="238" class="label">community.akamai.steamstatic.com</text>
<rect x="180" y="222" width="425.78" height="22" fill="#4c78a8" rx="3"/>
<text x="613.78" y="238" class="value">168.55</text>
<text x="10" y="270" class="label">battle.net</text>
<rect x="180" y="254" width="431.03" height="22" fill="#4c78a8" rx="3"/>
<text x="619.03" y="270" class="value">170.63</text>
<text x="10" y="302" class="label">blizzard.com</text>
<rect x="180" y="286" width="462.74" height="22" fill="#4c78a8" rx="3"/>
<text x="650.74" y="302" class="value">183.18</text>
<text x="10" y="334" class="label">ubi.com</text>
<rect x="180" y="318" width="480.04" height="22" fill="#4c78a8" rx="3"/>
<text x="668.04" y="334" class="value">190.03</text>
<text x="10" y="366" class="label">easyanticheat.net</text>
<rect x="180" y="350" width="501.03" height="22" fill="#4c78a8" rx="3"/>
<text x="689.03" y="366" class="value">198.34</text>
<text x="10" y="398" class="label">socialclub.rockstargames.com</text>
<rect x="180" y="382" width="525.28" height="22" fill="#4c78a8" rx="3"/>
<text x="713.28" y="398" class="value">207.94</text>
<text x="10" y="430" class="label">ubisoft.com</text>
<rect x="180" y="414" width="530.51" height="22" fill="#4c78a8" rx="3"/>
<text x="718.51" y="430" class="value">210.01</text>
<text x="10" y="462" class="label">fortnite.com</text>
<rect x="180" y="446" width="547.51" height="22" fill="#4c78a8" rx="3"/>
<text x="735.51" y="462" class="value">216.74</text>
<text x="10" y="494" class="label">epicgames.com</text>
<rect x="180" y="478" width="580.0" height="22" fill="#4c78a8" rx="3"/>
<text x="768.0" y="494" class="value">229.60</text>
<line x1="180" y1="30" x2="180" y2="520" stroke="#ccc"/>
<line x1="180" y1="520" x2="760" y2="520" stroke="#ccc"/>
</svg>