<svg xmlns="http://www.w3.org/2000/svg" width="800" height="540">
<style> .label{font-family:DejaVu Sans,Verdana,Geneva,sans-serif;font-size:12px;fill:#333} .value{font-family:DejaVu Sans,Verdana,Geneva,sans-serif;font-size:12px;fill:#555} </style>
<text x="10" y="20" class="label">延迟柱状图（越低越好，Top 15），单位 ms</text>
<text x="10" y="46" class="label">eaassets-a.akamaihd.net</text>
<rect x="180" y="30" width="168.12" height="22" fill="#4c78a8" rx="3"/>
<text x="356.12" y="46" class="value">69.58</text>
<text x="10" y="78" class="label">rockstargames.com</text>
<rect x="180" y="62" width="172.54" height="22" fill="#4c78a8" rx="3"/>
<text x="360.53999999999996" y="78" class="value">71.41</text>
<text x="10" y="110" class="label">ubi.com</text>
<rect x="180" y="94" width="178.72" height="22" fill="#4c78a8" rx="3"/>
<text x="366.72" y="110" class="value">73.97</text>
<text x="10" y="142" class="label">battle.net</text>
<rect x="180" y="126" width="218.4" height="22" fill="#4c78a8" rx="3"/>
<text x="406.4" y="142" class="value">90.39</text>
<text x="10" y="174" class="label">blizzard.com</text>
<rect x="180" y="158" width="240.65" height="22" fill="#4c78a8" rx="3"/>
<text x="428.65" y="174" class="value">99.60</text>
<text x="10" y="206" class="label">socialclub.rockstargames.com</text>
<rect x="180" y="190" width="259.98" height="22" fill="#4c78a8" rx="3"/>
<text x="447.98" y="206" class="value">107.60</text>
<text x="10" y="238" class="label">epicgames.com</text>
<rect x="180" y="222" width="297.62" height="22" fill="#4c78a8" rx="3"/>
<text x="485.62" y="238" class="value">123.18</text>
<text x="10" y="270" class="label">unrealengine.com</text>
<rect x="180" y="254" width="308.13" height="22" fill="#4c78a8" rx="3"/>
<text x="496.13" y="270" class="value">127.53</text>
<text x="10" y="302" class="label">fortnite.com</text>
<rect x="180" y="286" width="309.0" height="22" fill="#4c78a8" rx="3"/>
<text x="497.0" y="302" class="value">127.89</text>
<text x="10" y="334" class="label">cdn.akamai.steamstatic.com</text>
<rect x="180" y="318" width="312.72" height="22" fill="#4c78a8" rx="3"/>
<text x="500.72" y="334" class="value">129.43</text>
<text x="10" y="366" class="label">ea.com</text>
<rect x="180" y="350" width="496.3" height="22" fill="#4c78a8" rx="3"/>
<text x="684.3" y="366" class="value">205.41</text>
<text x="10" y="398" class="label">ubisoft.com</text>
<rect x="180" y="382" width="503.07" height="22" fill="#4c78a8" rx="3"/>
<text x="691.0699999999999" y="398" class="value">208.21</text>
<text x="10" y="430" class="label">community.akamai.steamstatic.com</text>
<rect x="180" y="414" width="562.58" height="22" fill="#4c78a8" rx="3"/>
<text x="750.58" y="430" class="value">232.84</text>
<text x="10" y="462" class="label">www.steamcommunity.com</text>
<rect x="180" y="446" width="570.58" height="22" fill="#4c78a8" rx="3"/>
<text x="758.58" y="462" class="value">236.15</text>
<text x="10" y="494" class="label">api.steampowered.com</text>
<rect x="180" y="478" width="580.0" height="22" fill="#4c78a8" rx="3"/>
<text x="768.0" y="494" class="value">240.05</text>
<line x1="180" y1="30" x2="180" y2="520" stroke="#ccc"/>
<line x1="180" y1="520" x2="760" y2="520" stroke="#ccc"/>
</svg>