<svg xmlns="http://www.w3.org/2000/svg" width="800" height="540">
<style> .label{font-family:DejaVu Sans,Verdana,Geneva,sans-serif;font-size:12px;fill:#333} .value{font-family:DejaVu Sans,Verdana,Geneva,sans-serif;font-size:12px;fill:#555} </style>
<text x="10" y="20" class="label">延迟柱状图（越低越好，Top 15），单位 ms</text>
<text x="10" y="46" class="label">rockstargames.com</text>
<rect x="180" y="30" width="95.52" height="22" fill="#4c78a8" rx="3"/>
<text x="283.52" y="46" class="value">42.36</text>
<text x="10" y="78" class="label">eaassets-a.akamaihd.net</text>
<rect x="180" y="62" width="192.33" height="22" fill="#4c78a8" rx="3"/>
<text x="380.33000000000004" y="78" class="value">85.29</text>
<text x="10" y="110" class="label">origin.com</text>
<rect x="180" y="94" width="197.56" height="22" fill="#4c78a8" rx="3"/>
<text x="385.56" y="110" class="value">87.61</text>
<text x="10" y="142" class="label">steamcdn-a.akamaihd.net</text>
<rect x="180" y="126" width="219.61" height="22" fill="#4c78a8" rx="3"/>
<text x="407.61" y="142" class="value">97.39</text>
<text x="10" y="174" class="label">store.akamai.steamstatic.com</text>
<rect x="180" y="158" width="229.87" height="22" fill="#4c78a8" rx="3"/>
<text x="417.87" y="174" class="value">101.94</text>
<text x="10" y="206" class="label">ubisoft.com</text>
<rect x="180" y="190" width="234.45" height="22" fill="#4c78a8" rx="3"/>
<text x="422.45" y="206" class="value">103.97</text>
<text x="10" y="238" class="label">ea.com</text>
<rect x="180" y="222" width="263.49" height="22" fill="#4c78a8" rx="3"/>
<text x="451.49" y="238" class="value">116.85</text>
<text x="10" y="270" class="label">easyanticheat.net</text>
<rect x="180" y="254" width="407.5" height="22" fill="#4c78a8" rx="3"/>
<text x="595.5" y="270" class="value">180.71</text>
<text x="10" y="302" class="label">steam-chat.com</text>
<rect x="180" y="286" width="465.29" height="22" fill="#4c78a8" rx="3"/>
<text x="653.29" y="302" class="value">206.34</text>
<text x="10" y="334" class="label">launcher-public-service-prod06.ol.epicgames.com</text>
<rect x="180" y="318" width="466.28" height="22" fill="#4c78a8" rx="3"/>
<text x="654.28" y="334" class="value">206.78</text>
<text x="10" y="366" class="label">cdn.akamai.steamstatic.com</text>
<rect x="180" y="350" width="497.69" height="22" fill="#4c78a8" rx="3"/>
<text x="685.69" y="366" class="value">220.71</text>
<text x="10" y="398" class="label">community.akamai.steamstatic.com</text>
<rect x="180" y="382" width="514.36" height="22" fill="#4c78a8" rx="3"/>
<text x="702.36" y="398" class="value">228.10</text>
<text x="10" y="430" class="label">gog.com</text>
<rect x="180" y="414" width="543.65" height="22" fill="#4c78a8" rx="3"/>
<text x="731.65" y="430" class="value">241.09</text>
<text x="10" y="462" class="label">api.steampowered.com</text>
<rect x="180" y="446" width="554.99" height="22" fill="#4c78a8" rx="3"/>
<text x="742.99" y="462" class="value">246.12</text>
<text x="10" y="494" class="label">www.steamcommunity.com</text>
<rect x="180" y="478" width="580.0" height="22" fill="#4c78a8" rx="3"/>
<text x="768.0" y="494" class="value">257.21</text>
<line x1="180" y1="30" x2="180" y2="520" stroke="#ccc"/>
<line x1="180" y1="520" x2="760" y2="520" stroke="#ccc"/>
</svg>