<svg xmlns="http://www.w3.org/2000/svg" width="800" height="540">
<style> .label{font-family:DejaVu Sans,Verdana,Geneva,sans-serif;font-size:12px;fill:#333} .value{font-family:DejaVu Sans,Verdana,Geneva,sans-serif;font-size:12px;fill:#555} </style>
<text x="10" y="20" class="label">延迟柱状图（越低越好，Top 15），单位 ms</text>
<text x="10" y="46" class="label">rockstargames.com</text>
<rect x="180" y="30" width="115.13" height="22" fill="#4c78a8" rx="3"/>
<text x="303.13" y="46" class="value">50.32</text>
<text x="10" y="78" class="label">eaassets-a.akamaihd.net</text>
<rect x="180" y="62" width="133.27" height="22" fill="#4c78a8" rx="3"/>
<text x="321.27" y="78" class="value">58.25</text>
<text x="10" y="110" class="label">ea.com</text>
<rect x="180" y="94" width="275.64" height="22" fill="#4c78a8" rx="3"/>
<text x="463.64" y="110" class="value">120.48</text>
<text x="10" y="142" class="label">store.akamai.steamstatic.com</text>
<rect x="180" y="126" width="285.05" height="22" fill="#4c78a8" rx="3"/>
<text x="473.05" y="142" class="value">124.59</text>
<text x="10" y="174" class="label">steamcdn-a.akamaihd.net</text>
<rect x="180" y="158" width="293.6" height="22" fill="#4c78a8" rx="3"/>
<text x="481.6" y="174" class="value">128.33</text>
<text x="10" y="206" class="label">static3.cdn.ubi.com</text>
<rect x="180" y="190" width="352.01" height="22" fill="#4c78a8" rx="3"/>
<text x="540.01" y="206" class="value">153.86</text>
<text x="10" y="238" class="label">cdn.cloudflare.steamstatic.com</text>
<rect x="180" y="222" width="386.56" height="22" fill="#4c78a8" rx="3"/>
<text x="574.56" y="238" class="value">168.96</text>
<text x="10" y="270" class="label">ubisoft.com</text>
<rect x="180" y="254" width="388.55" height="22" fill="#4c78a8" rx="3"/>
<text x="576.55" y="270" class="value">169.83</text>
<text x="10" y="302" class="label">origin.com</text>
<rect x="180" y="286" width="418.91" height="22" fill="#4c78a8" rx="3"/>
<text x="606.9100000000001" y="302" class="value">183.10</text>
<text x="10" y="334" class="label">community.akamai.steamstatic.com</text>
<rect x="180" y="318" width="482.7" height="22" fill="#4c78a8" rx="3"/>
<text x="670.7" y="334" class="value">210.98</text>
<text x="10" y="366" class="label">cdn.akamai.steamstatic.com</text>
<rect x="180" y="350" width="502.85" height="22" fill="#4c78a8" rx="3"/>
<text x="690.85" y="366" class="value">219.79</text>
<text x="10" y="398" class="label">easyanticheat.net</text>
<rect x="180" y="382" width="520.26" height="22" fill="#4c78a8" rx="3"/>
<text x="708.26" y="398" class="value">227.40</text>
<text x="10" y="430" class="label">www.steamcommunity.com</text>
<rect x="180" y="414" width="525.71" height="22" fill="#4c78a8" rx="3"/>
<text x="713.71" y="430" class="value">229.78</text>
<text x="10" y="462" class="label">api.steampowered.com</text>
<rect x="180" y="446" width="531.18" height="22" fill="#4c78a8" rx="3"/>
<text x="719.18" y="462" class="value">232.17</text>
<text x="10" y="494" class="label">store.steampowered.com</text>
<rect x="180" y="478" width="580.0" height="22" fill="#4c78a8" rx="3"/>
<text x="768.0" y="494" class="value">253.51</text>
<line x1="180" y1="30" x2="180" y2="520" stroke="#ccc"/>
<line x1="180" y1="520" x2="760" y2="520" stroke="#ccc"/>
</svg>