<svg xmlns="http://www.w3.org/2000/svg" width="800" height="540">
<style> .label{font-family:DejaVu Sans,Verdana,Geneva,sans-serif;font-size:12px;fill:#333} .value{font-family:DejaVu Sans,Verdana,Geneva,sans-serif;font-size:12px;fill:#555} </style>
<text x="10" y="20" class="label">延迟柱状图（越低越好，Top 15），单位 ms</text>
<text x="10" y="46" class="label">eaassets-a.akamaihd.net</text>
<rect x="180" y="30" width="80.73" height="22" fill="#4c78a8" rx="3"/>
<text x="268.73" y="46" class="value">42.19</text>
<text x="10" y="78" class="label">rockstargames.com</text>
<rect x="180" y="62" width="139.12" height="22" fill="#4c78a8" rx="3"/>
<text x="327.12" y="78" class="value">72.70</text>
<text x="10" y="110" class="label">store.akamai.steamstatic.com</text>
<rect x="180" y="94" width="189.21" height="22" fill="#4c78a8" rx="3"/>
<text x="377.21000000000004" y="110" class="value">98.88</text>
<text x="10" y="142" class="label">ea.com</text>
<rect x="180" y="126" width="205.96" height="22" fill="#4c78a8" rx="3"/>
<text x="393.96000000000004" y="142" class="value">107.63</text>
<text x="10" y="174" class="label">origin.com</text>
<rect x="180" y="158" width="249.66" height="22" fill="#4c78a8" rx="3"/>
<text x="437.65999999999997" y="174" class="value">130.47</text>
<text x="10" y="206" class="label">steamcdn-a.akamaihd.net</text>
<rect x="180" y="190" width="262.14" height="22" fill="#4c78a8" rx="3"/>
<text x="450.14" y="206" class="value">136.99</text>
<text x="10" y="238" class="label">ubisoft.com</text>
<rect x="180" y="222" width="285.5" height="22" fill="#4c78a8" rx="3"/>
<text x="473.5" y="238" class="value">149.20</text>
<text x="10" y="270" class="label">cdn.cloudflare.steamstatic.com</text>
<rect x="180" y="254" width="312.24" height="22" fill="#4c78a8" rx="3"/>
<text x="500.24" y="270" class="value">163.17</text>
<text x="10" y="302" class="label">cdn.akamai.steamstatic.com</text>
<rect x="180" y="286" width="376.86" height="22" fill="#4c78a8" rx="3"/>
<text x="564.86" y="302" class="value">196.94</text>
<text x="10" y="334" class="label">community.akamai.steamstatic.com</text>
<rect x="180" y="318" width="423.13" height="22" fill="#4c78a8" rx="3"/>
<text x="611.13" y="334" class="value">221.12</text>
<text x="10" y="366" class="label">easyanticheat.net</text>
<rect x="180" y="350" width="462.76" height="22" fill="#4c78a8" rx="3"/>
<text x="650.76" y="366" class="value">241.83</text>
<text x="10" y="398" class="label">api.steampowered.com</text>
<rect x="180" y="382" width="468.75" height="22" fill="#4c78a8" rx="3"/>
<text x="656.75" y="398" class="value">244.96</text>
<text x="10" y="430" class="label">steam-chat.com</text>
<rect x="180" y="414" width="521.87" height="22" fill="#4c78a8" rx="3"/>
<text x="709.87" y="430" class="value">272.72</text>
<text x="10" y="462" class="label">www.steamcommunity.com</text>
<rect x="180" y="446" width="543.99" height="22" fill="#4c78a8" rx="3"/>
<text x="731.99" y="462" class="value">284.28</text>
<text x="10" y="494" class="label">steamcommunity.com</text>
<rect x="180" y="478" width="580.0" height="22" fill="#4c78a8" rx="3"/>
<text x="768.0" y="494" class="value">303.10</text>
<line x1="180" y1="30" x2="180" y2="520" stroke="#ccc"/>
<line x1="180" y1="520" x2="760" y2="520" stroke="#ccc"/>
</svg>