<svg xmlns="http://www.w3.org/2000/svg" width="800" height="540">
<style> .label{font-family:DejaVu Sans,Verdana,Geneva,sans-serif;font-size:12px;fill:#333} .value{font-family:DejaVu Sans,Verdana,Geneva,sans-serif;font-size:12px;fill:#555} </style>
<text x="10" y="20" class="label">延迟柱状图（越低越好，Top 15），单位 ms</text>
<text x="10" y="46" class="label">rockstargames.com</text>
<rect x="180" y="30" width="194.31" height="22" fill="#4c78a8" rx="3"/>
<text x="382.31" y="46" class="value">75.91</text>
<text x="10" y="78" class="label">eaassets-a.akamaihd.net</text>
<rect x="180" y="62" width="243.99" height="22" fill="#4c78a8" rx="3"/>
<text x="431.99" y="78" class="value">95.32</text>
<text x="10" y="110" class="label">ea.com</text>
<rect x="180" y="94" width="251.28" height="22" fill="#4c78a8" rx="3"/>
<text x="439.28" y="110" class="value">98.17</text>
<text x="10" y="142" class="label">steamcdn-a.akamaihd.net</text>
<rect x="180" y="126" width="258.09" height="22" fill="#4c78a8" rx="3"/>
<text x="446.09" y="142" class="value">100.83</text>
<text x="10" y="174" class="label">blizzard.com</text>
<rect x="180" y="158" width="349.86" height="22" fill="#4c78a8" rx="3"/>
<text x="537.86" y="174" class="value">136.68</text>
<text x="10" y="206" class="label">socialclub.rockstargames.com</text>
<rect x="180" y="190" width="378.81" height="22" fill="#4c78a8" rx="3"/>
<text x="566.81" y="206" class="value">147.99</text>
<text x="10" y="238" class="label">ubisoft.com</text>
<rect x="180" y="222" width="442.6" height="22" fill="#4c78a8" rx="3"/>
<text x="630.6" y="238" class="value">172.91</text>
<text x="10" y="270" class="label">ubi.com</text>
<rect x="180" y="254" width="444.46" height="22" fill="#4c78a8" rx="3"/>
<text x="632.46" y="270" class="value">173.64</text>
<text x="10" y="302" class="label">easyanticheat.net</text>
<rect x="180" y="286" width="480.07" height="22" fill="#4c78a8" rx="3"/>
<text x="668.0699999999999" y="302" class="value">187.55</text>
<text x="10" y="334" class="label">battle.net</text>
<rect x="180" y="318" width="480.2" height="22" fill="#4c78a8" rx="3"/>
<text x="668.2" y="334" class="value">187.60</text>
<text x="10" y="366" class="label">origin.com</text>
<rect x="180" y="350" width="505.67" height="22" fill="#4c78a8" rx="3"/>
<text x="693.6700000000001" y="366" class="value">197.55</text>
<text x="10" y="398" class="label">static3.cdn.ubi.com</text>
<rect x="180" y="382" width="513.42" height="22" fill="#4c78a8" rx="3"/>
<text x="701.42" y="398" class="value">200.58</text>
<text x="10" y="430" class="label">community.akamai.steamstatic.com</text>
<rect x="180" y="414" width="563.67" height="22" fill="#4c78a8" rx="3"/>
<text x="751.67" y="430" class="value">220.21</text>
<text x="10" y="462" class="label">api.steampowered.com</text>
<rect x="180" y="446" width="572.12" height="22" fill="#4c78a8" rx="3"/>
<text x="760.12" y="462" class="value">223.51</text>
<text x="10" y="494" class="label">cdn.akamai.steamstatic.com</text>
<rect x="180" y="478" width="580.0" height="22" fill="#4c78a8" rx="3"/>
<text x="768.0" y="494" class="value">226.59</text>
<line x1="180" y1="30" x2="180" y2="520" stroke="#ccc"/>
<line x1="180" y1="520" x2="760" y2="520" stroke="#ccc"/>
</svg>