<svg xmlns="http://www.w3.org/2000/svg" width="800" height="540">
<style> .label{font-family:DejaVu Sans,Verdana,Geneva,sans-serif;font-size:12px;fill:#333} .value{font-family:DejaVu Sans,Verdana,Geneva,sans-serif;font-size:12px;fill:#555} </style>
<text x="10" y="20" class="label">延迟柱状图（越低越好，Top 15），单位 ms</text>
<text x="10" y="46" class="label">easyanticheat.net</text>
<rect x="180" y="30" width="346.73" height="22" fill="#4c78a8" rx="3"/>
<text x="534.73" y="46" class="value">136.93</text>
<text x="10" y="78" class="label">rockstargames.com</text>
<rect x="180" y="62" width="352.53" height="22" fill="#4c78a8" rx="3"/>
<text x="540.53" y="78" class="value">139.22</text>
<text x="10" y="110" class="label">store.akamai.steamstatic.com</text>
<rect x="180" y="94" width="353.32" height="22" fill="#4c78a8" rx="3"/>
<text x="541.3199999999999" y="110" class="value">139.53</text>
<text x="10" y="142" class="label">eaassets-a.akamaihd.net</text>
<rect x="180" y="126" width="365.12" height="22" fill="#4c78a8" rx="3"/>
<text x="553.12" y="142" class="value">144.19</text>
<text x="10" y="174" class="label">ea.com</text>
<rect x="180" y="158" width="402.24" height="22" fill="#4c78a8" rx="3"/>
<text x="590.24" y="174" class="value">158.85</text>
<text x="10" y="206" class="label">ubisoft.com</text>
<rect x="180" y="190" width="445.08" height="22" fill="#4c78a8" rx="3"/>
<text x="633.0799999999999" y="206" class="value">175.77</text>
<text x="10" y="238" class="label">cdn.akamai.steamstatic.com</text>
<rect x="180" y="222" width="462.63" height="22" fill="#4c78a8" rx="3"/>
<text x="650.63" y="238" class="value">182.70</text>
<text x="10" y="270" class="label">blizzard.com</text>
<rect x="180" y="254" width="465.54" height="22" fill="#4c78a8" rx="3"/>
<text x="653.54" y="270" class="value">183.85</text>
<text x="10" y="302" class="label">battle.net</text>
<rect x="180" y="286" width="465.9" height="22" fill="#4c78a8" rx="3"/>
<text x="653.9" y="302" class="value">183.99</text>
<text x="10" y="334" class="label">socialclub.rockstargames.com</text>
<rect x="180" y="318" width="493.88" height="22" fill="#4c78a8" rx="3"/>
<text x="681.88" y="334" class="value">195.04</text>
<text x="10" y="366" class="label">ubi.com</text>
<rect x="180" y="350" width="500.29" height="22" fill="#4c78a8" rx="3"/>
<text x="688.29" y="366" class="value">197.57</text>
<text x="10" y="398" class="label">epicgames.com</text>
<rect x="180" y="382" width="519.4" height="22" fill="#4c78a8" rx="3"/>
<text x="707.4" y="398" class="value">205.12</text>
<text x="10" y="430" class="label">launcher-public-service-prod06.ol.epicgames.com</text>
<rect x="180" y="414" width="527.13" height="22" fill="#4c78a8" rx="3"/>
<text x="715.13" y="430" class="value">208.17</text>
<text x="10" y="462" class="label">cdn.cloudflare.steamstatic.com</text>
<rect x="180" y="446" width="579.59" height="22" fill="#4c78a8" rx="3"/>
<text x="767.59" y="462" class="value">228.89</text>
<text x="10" y="494" class="label">api.steampowered.com</text>
<rect x="180" y="478" width="580.0" height="22" fill="#4c78a8" rx="3"/>
<text x="768.0" y="494" class="value">229.05</text>
<line x1="180" y1="30" x2="180" y2="520" stroke="#ccc"/>
<line x1="180" y1="520" x2="760" y2="520" stroke="#ccc"/>
</svg>