<svg xmlns="http://www.w3.org/2000/svg" width="800" height="540">
<style> .label{font-family:DejaVu Sans,Verdana,Geneva,sans-serif;font-size:12px;fill:#333} .value{font-family:DejaVu Sans,Verdana,Geneva,sans-serif;font-size:12px;fill:#555} </style>
<text x="10" y="20" class="label">延迟柱状图（越低越好，Top 15），单位 ms</text>
<text x="10" y="46" class="label">ea.com</text>
<rect x="180" y="30" width="228.28" height="22" fill="#4c78a8" rx="3"/>
<text x="416.28" y="46" class="value">137.43</text>
<text x="10" y="78" class="label">rockstargames.com</text>
<rect x="180" y="62" width="253.1" height="22" fill="#4c78a8" rx="3"/>
<text x="441.1" y="78" class="value">152.37</text>
<text x="10" y="110" class="label">cdn.akamai.steamstatic.com</text>
<rect x="180" y="94" width="287.43" height="22" fill="#4c78a8" rx="3"/>
<text x="475.43" y="110" class="value">173.04</text>
<text x="10" y="142" class="label">ubisoft.com</text>
<rect x="180" y="126" width="339.74" height="22" fill="#4c78a8" rx="3"/>
<text x="527.74" y="142" class="value">204.53</text>
<text x="10" y="174" class="label">eaassets-a.akamaihd.net</text>
<rect x="180" y="158" width="347.22" height="22" fill="#4c78a8" rx="3"/>
<text x="535.22" y="174" class="value">209.03</text>
<text x="10" y="206" class="label">store.akamai.steamstatic.com</text>
<rect x="180" y="190" width="349.23" height="22" fill="#4c78a8" rx="3"/>
<text x="537.23" y="206" class="value">210.24</text>
<text x="10" y="238" class="label">ubi.com</text>
<rect x="180" y="222" width="375.92" height="22" fill="#4c78a8" rx="3"/>
<text x="563.9200000000001" y="238" class="value">226.31</text>
<text x="10" y="270" class="label">socialclub.rockstargames.com</text>
<rect x="180" y="254" width="402.02" height="22" fill="#4c78a8" rx="3"/>
<text x="590.02" y="270" class="value">242.02</text>
<text x="10" y="302" class="label">easyanticheat.net</text>
<rect x="180" y="286" width="431.47" height="22" fill="#4c78a8" rx="3"/>
<text x="619.47" y="302" class="value">259.75</text>
<text x="10" y="334" class="label">steamcommunity.com</text>
<rect x="180" y="318" width="468.69" height="22" fill="#4c78a8" rx="3"/>
<text x="656.69" y="334" class="value">282.16</text>
<text x="10" y="366" class="label">community.akamai.steamstatic.com</text>
<rect x="180" y="350" width="479.17" height="22" fill="#4c78a8" rx="3"/>
<text x="667.1700000000001" y="366" class="value">288.47</text>
<text x="10" y="398" class="label">static3.cdn.ubi.com</text>
<rect x="180" y="382" width="480.88" height="22" fill="#4c78a8" rx="3"/>
<text x="668.88" y="398" class="value">289.50</text>
<text x="10" y="430" class="label">cdn.cloudflare.steamstatic.com</text>
<rect x="180" y="414" width="488.23" height="22" fill="#4c78a8" rx="3"/>
<text x="676.23" y="430" class="value">293.92</text>
<text x="10" y="462" class="label">launcher-public-service-prod06.ol.epicgames.com</text>
<rect x="180" y="446" width="563.09" height="22" fill="#4c78a8" rx="3"/>
<text x="751.09" y="462" class="value">338.99</text>
<text x="10" y="494" class="label">fortnite.com</text>
<rect x="180" y="478" width="580.0" height="22" fill="#4c78a8" rx="3"/>
<text x="768.0" y="494" class="value">349.17</text>
<line x1="180" y1="30" x2="180" y2="520" stroke="#ccc"/>
<line x1="180" y1="520" x2="760" y2="520" stroke="#ccc"/>
</svg>