<svg xmlns="http://www.w3.org/2000/svg" width="800" height="540">
<style> .label{font-family:DejaVu Sans,Verdana,Geneva,sans-serif;font-size:12px;fill:#333} .value{font-family:DejaVu Sans,Verdana,Geneva,sans-serif;font-size:12px;fill:#555} </style>
<text x="10" y="20" class="label">延迟柱状图（越低越好，Top 15），单位 ms</text>
<text x="10" y="46" class="label">epicgames.com</text>
<rect x="180" y="30" width="220.18" height="22" fill="#4c78a8" rx="3"/>
<text x="408.18" y="46" class="value">81.14</text>
<text x="10" y="78" class="label">unrealengine.com</text>
<rect x="180" y="62" width="243.27" height="22" fill="#4c78a8" rx="3"/>
<text x="431.27" y="78" class="value">89.65</text>
<text x="10" y="110" class="label">ea.com</text>
<rect x="180" y="94" width="259.55" height="22" fill="#4c78a8" rx="3"/>
<text x="447.55" y="110" class="value">95.65</text>
<text x="10" y="142" class="label">rockstargames.com</text>
<rect x="180" y="126" width="276.32" height="22" fill="#4c78a8" rx="3"/>
<text x="464.32" y="142" class="value">101.83</text>
<text x="10" y="174" class="label">socialclub.rockstargames.com</text>
<rect x="180" y="158" width="284.76" height="22" fill="#4c78a8" rx="3"/>
<text x="472.76" y="174" class="value">104.94</text>
<text x="10" y="206" class="label">cdn.akamai.steamstatic.com</text>
<rect x="180" y="190" width="304.9" height="22" fill="#4c78a8" rx="3"/>
<text x="492.9" y="206" class="value">112.36</text>
<text x="10" y="238" class="label">eaassets-a.akamaihd.net</text>
<rect x="180" y="222" width="308.29" height="22" fill="#4c78a8" rx="3"/>
<text x="496.29" y="238" class="value">113.61</text>
<text x="10" y="270" class="label">steamcdn-a.akamaihd.net</text>
<rect x="180" y="254" width="318.98" height="22" fill="#4c78a8" rx="3"/>
<text x="506.98" y="270" class="value">117.55</text>
<text x="10" y="302" class="label">blizzard.com</text>
<rect x="180" y="286" width="324.65" height="22" fill="#4c78a8" rx="3"/>
<text x="512.65" y="302" class="value">119.64</text>
<text x="10" y="334" class="label">battle.net</text>
<rect x="180" y="318" width="326.66" height="22" fill="#4c78a8" rx="3"/>
<text x="514.6600000000001" y="334" class="value">120.38</text>
<text x="10" y="366" class="label">ubi.com</text>
<rect x="180" y="350" width="425.98" height="22" fill="#4c78a8" rx="3"/>
<text x="613.98" y="366" class="value">156.98</text>
<text x="10" y="398" class="label">community.akamai.steamstatic.com</text>
<rect x="180" y="382" width="469.2" height="22" fill="#4c78a8" rx="3"/>
<text x="657.2" y="398" class="value">172.91</text>
<text x="10" y="430" class="label">ubisoft.com</text>
<rect x="180" y="414" width="485.3" height="22" fill="#4c78a8" rx="3"/>
<text x="673.3" y="430" class="value">178.84</text>
<text x="10" y="462" class="label">fortnite.com</text>
<rect x="180" y="446" width="551.72" height="22" fill="#4c78a8" rx="3"/>
<text x="739.72" y="462" class="value">203.32</text>
<text x="10" y="494" class="label">api.steampowered.com</text>
<rect x="180" y="478" width="580.0" height="22" fill="#4c78a8" rx="3"/>
<text x="768.0" y="494" class="value">213.74</text>
<line x1="180" y1="30" x2="180" y2="520" stroke="#ccc"/>
<line x1="180" y1="520" x2="760" y2="520" stroke="#ccc"/>
</svg>