<svg xmlns="http://www.w3.org/2000/svg" width="800" height="540">
<style> .label{font-family:DejaVu Sans,Verdana,Geneva,sans-serif;font-size:12px;fill:#333} .value{font-family:DejaVu Sans,Verdana,Geneva,sans-serif;font-size:12px;fill:#555} </style>
<text x="10" y="20" class="label">延迟柱状图（越低越好，Top 15），单位 ms</text>
<text x="10" y="46" class="label">rockstargames.com</text>
<rect x="180" y="30" width="175.71" height="22" fill="#4c78a8" rx="3"/>
<text x="363.71000000000004" y="46" class="value">86.89</text>
<text x="10" y="78" class="label">ubisoft.com</text>
<rect x="180" y="62" width="218.67" height="22" fill="#4c78a8" rx="3"/>
<text x="406.66999999999996" y="78" class="value">108.13</text>
<text x="10" y="110" class="label">eaassets-a.akamaihd.net</text>
<rect x="180" y="94" width="234.84" height="22" fill="#4c78a8" rx="3"/>
<text x="422.84000000000003" y="110" class="value">116.13</text>
<text x="10" y="142" class="label">cdn.akamai.steamstatic.com</text>
<rect x="180" y="126" width="252.78" height="22" fill="#4c78a8" rx="3"/>
<text x="440.78" y="142" class="value">125.00</text>
<text x="10" y="174" class="label">steamcdn-a.akamaihd.net</text>
<rect x="180" y="158" width="278.75" height="22" fill="#4c78a8" rx="3"/>
<text x="466.75" y="174" class="value">137.84</text>
<text x="10" y="206" class="label">community.akamai.steamstatic.com</text>
<rect x="180" y="190" width="342.41" height="22" fill="#4c78a8" rx="3"/>
<text x="530.4100000000001" y="206" class="value">169.32</text>
<text x="10" y="238" class="label">ea.com</text>
<rect x="180" y="222" width="353.97" height="22" fill="#4c78a8" rx="3"/>
<text x="541.97" y="238" class="value">175.04</text>
<text x="10" y="270" class="label">origin.com</text>
<rect x="180" y="254" width="374.22" height="22" fill="#4c78a8" rx="3"/>
<text x="562.22" y="270" class="value">185.05</text>
<text x="10" y="302" class="label">store.akamai.steamstatic.com</text>
<rect x="180" y="286" width="486.65" height="22" fill="#4c78a8" rx="3"/>
<text x="674.65" y="302" class="value">240.65</text>
<text x="10" y="334" class="label">api.steampowered.com</text>
<rect x="180" y="318" width="503.11" height="22" fill="#4c78a8" rx="3"/>
<text x="691.11" y="334" class="value">248.79</text>
<text x="10" y="366" class="label">steamcommunity.com</text>
<rect x="180" y="350" width="537.63" height="22" fill="#4c78a8" rx="3"/>
<text x="725.63" y="366" class="value">265.86</text>
<text x="10" y="398" class="label">ubi.com</text>
<rect x="180" y="382" width="555.69" height="22" fill="#4c78a8" rx="3"/>
<text x="743.69" y="398" class="value">274.79</text>
<text x="10" y="430" class="label">easyanticheat.net</text>
<rect x="180" y="414" width="558.36" height="22" fill="#4c78a8" rx="3"/>
<text x="746.36" y="430" class="value">276.11</text>
<text x="10" y="462" class="label">steam-chat.com</text>
<rect x="180" y="446" width="572.13" height="22" fill="#4c78a8" rx="3"/>
<text x="760.13" y="462" class="value">282.92</text>
<text x="10" y="494" class="label">launcher-public-service-prod06.ol.epicgames.com</text>
<rect x="180" y="478" width="580.0" height="22" fill="#4c78a8" rx="3"/>
<text x="768.0" y="494" class="value">286.81</text>
<line x1="180" y1="30" x2="180" y2="520" stroke="#ccc"/>
<line x1="180" y1="520" x2="760" y2="520" stroke="#ccc"/>
</svg>