<svg xmlns="http://www.w3.org/2000/svg" width="800" height="540">
<style> .label{font-family:DejaVu Sans,Verdana,Geneva,sans-serif;font-size:12px;fill:#333} .value{font-family:DejaVu Sans,Verdana,Geneva,sans-serif;font-size:12px;fill:#555} </style>
<text x="10" y="20" class="label">延迟柱状图（越低越好，Top 15），单位 ms</text>
<text x="10" y="46" class="label">ubisoft.com</text>
<rect x="180" y="30" width="163.68" height="22" fill="#4c78a8" rx="3"/>
<text x="351.68" y="46" class="value">88.51</text>
<text x="10" y="78" class="label">rockstargames.com</text>
<rect x="180" y="62" width="192.23" height="22" fill="#4c78a8" rx="3"/>
<text x="380.23" y="78" class="value">103.95</text>
<text x="10" y="110" class="label">eaassets-a.akamaihd.net</text>
<rect x="180" y="94" width="207.69" height="22" fill="#4c78a8" rx="3"/>
<text x="395.69" y="110" class="value">112.31</text>
<text x="10" y="142" class="label">origin.com</text>
<rect x="180" y="126" width="232.36" height="22" fill="#4c78a8" rx="3"/>
<text x="420.36" y="142" class="value">125.65</text>
<text x="10" y="174" class="label">socialclub.rockstargames.com</text>
<rect x="180" y="158" width="254.96" height="22" fill="#4c78a8" rx="3"/>
<text x="442.96000000000004" y="174" class="value">137.87</text>
<text x="10" y="206" class="label">community.akamai.steamstatic.com</text>
<rect x="180" y="190" width="286.58" height="22" fill="#4c78a8" rx="3"/>
<text x="474.58" y="206" class="value">154.97</text>
<text x="10" y="238" class="label">store.akamai.steamstatic.com</text>
<rect x="180" y="222" width="293.88" height="22" fill="#4c78a8" rx="3"/>
<text x="481.88" y="238" class="value">158.92</text>
<text x="10" y="270" class="label">ubi.com</text>
<rect x="180" y="254" width="327.8" height="22" fill="#4c78a8" rx="3"/>
<text x="515.8" y="270" class="value">177.26</text>
<text x="10" y="302" class="label">blizzard.com</text>
<rect x="180" y="286" width="370.26" height="22" fill="#4c78a8" rx="3"/>
<text x="558.26" y="302" class="value">200.22</text>
<text x="10" y="334" class="label">battle.net</text>
<rect x="180" y="318" width="392.98" height="22" fill="#4c78a8" rx="3"/>
<text x="580.98" y="334" class="value">212.51</text>
<text x="10" y="366" class="label">ea.com</text>
<rect x="180" y="350" width="462.04" height="22" fill="#4c78a8" rx="3"/>
<text x="650.04" y="366" class="value">249.85</text>
<text x="10" y="398" class="label">cdn.akamai.steamstatic.com</text>
<rect x="180" y="382" width="499.24" height="22" fill="#4c78a8" rx="3"/>
<text x="687.24" y="398" class="value">269.97</text>
<text x="10" y="430" class="label">easyanticheat.net</text>
<rect x="180" y="414" width="511.76" height="22" fill="#4c78a8" rx="3"/>
<text x="699.76" y="430" class="value">276.74</text>
<text x="10" y="462" class="label">steamcdn-a.akamaihd.net</text>
<rect x="180" y="446" width="524.0" height="22" fill="#4c78a8" rx="3"/>
<text x="712.0" y="462" class="value">283.36</text>
<text x="10" y="494" class="label">steam-chat.com</text>
<rect x="180" y="478" width="580.0" height="22" fill="#4c78a8" rx="3"/>
<text x="768.0" y="494" class="value">313.64</text>
<line x1="180" y1="30" x2="180" y2="520" stroke="#ccc"/>
<line x1="180" y1="520" x2="760" y2="520" stroke="#ccc"/>
</svg>