<svg xmlns="http://www.w3.org/2000/svg" width="800" height="540">
<style> .label{font-family:DejaVu Sans,Verdana,Geneva,sans-serif;font-size:12px;fill:#333} .value{font-family:DejaVu Sans,Verdana,Geneva,sans-serif;font-size:12px;fill:#555} </style>
<text x="10" y="20" class="label">延迟柱状图（越低越好，Top 15），单位 ms</text>
<text x="10" y="46" class="label">ea.com</text>
<rect x="180" y="30" width="172.41" height="22" fill="#4c78a8" rx="3"/>
<text x="360.40999999999997" y="46" class="value">66.20</text>
<text x="10" y="78" class="label">origin.com</text>
<rect x="180" y="62" width="217.62" height="22" fill="#4c78a8" rx="3"/>
<text x="405.62" y="78" class="value">83.56</text>
<text x="10" y="110" class="label">steamcdn-a.akamaihd.net</text>
<rect x="180" y="94" width="236.43" height="22" fill="#4c78a8" rx="3"/>
<text x="424.43" y="110" class="value">90.78</text>
<text x="10" y="142" class="label">rockstargames.com</text>
<rect x="180" y="126" width="248.49" height="22" fill="#4c78a8" rx="3"/>
<text x="436.49" y="142" class="value">95.41</text>
<text x="10" y="174" class="label">eaassets-a.akamaihd.net</text>
<rect x="180" y="158" width="280.7" height="22" fill="#4c78a8" rx="3"/>
<text x="468.7" y="174" class="value">107.78</text>
<text x="10" y="206" class="label">cdn.akamai.steamstatic.com</text>
<rect x="180" y="190" width="294.45" height="22" fill="#4c78a8" rx="3"/>
<text x="482.45" y="206" class="value">113.06</text>
<text x="10" y="238" class="label">ubi.com</text>
<rect x="180" y="222" width="314.35" height="22" fill="#4c78a8" rx="3"/>
<text x="502.35" y="238" class="value">120.70</text>
<text x="10" y="270" class="label">community.akamai.steamstatic.com</text>
<rect x="180" y="254" width="364.36" height="22" fill="#4c78a8" rx="3"/>
<text x="552.36" y="270" class="value">139.90</text>
<text x="10" y="302" class="label">socialclub.rockstargames.com</text>
<rect x="180" y="286" width="365.89" height="22" fill="#4c78a8" rx="3"/>
<text x="553.89" y="302" class="value">140.49</text>
<text x="10" y="334" class="label">battle.net</text>
<rect x="180" y="318" width="438.09" height="22" fill="#4c78a8" rx="3"/>
<text x="626.0899999999999" y="334" class="value">168.21</text>
<text x="10" y="366" class="label">blizzard.com</text>
<rect x="180" y="350" width="444.13" height="22" fill="#4c78a8" rx="3"/>
<text x="632.13" y="366" class="value">170.53</text>
<text x="10" y="398" class="label">store.akamai.steamstatic.com</text>
<rect x="180" y="382" width="501.45" height="22" fill="#4c78a8" rx="3"/>
<text x="689.45" y="398" class="value">192.54</text>
<text x="10" y="430" class="label">static3.cdn.ubi.com</text>
<rect x="180" y="414" width="521.66" height="22" fill="#4c78a8" rx="3"/>
<text x="709.66" y="430" class="value">200.30</text>
<text x="10" y="462" class="label">fortnite.com</text>
<rect x="180" y="446" width="522.6" height="22" fill="#4c78a8" rx="3"/>
<text x="710.6" y="462" class="value">200.66</text>
<text x="10" y="494" class="label">cdn.cloudflare.steamstatic.com</text>
<rect x="180" y="478" width="580.0" height="22" fill="#4c78a8" rx="3"/>
<text x="768.0" y="494" class="value">222.70</text>
<line x1="180" y1="30" x2="180" y2="520" stroke="#ccc"/>
<line x1="180" y1="520" x2="760" y2="520" stroke="#ccc"/>
</svg>