<svg xmlns="http://www.w3.org/2000/svg" width="800" height="540">
<style> .label{font-family:DejaVu Sans,Verdana,Geneva,sans-serif;font-size:12px;fill:#333} .value{font-family:DejaVu Sans,Verdana,Geneva,sans-serif;font-size:12px;fill:#555} </style>
<text x="10" y="20" class="label">延迟柱状图（越低越好，Top 15），单位 ms</text>
<text x="10" y="46" class="label">rockstargames.com</text>
<rect x="180" y="30" width="90.76" height="22" fill="#4c78a8" rx="3"/>
<text x="278.76" y="46" class="value">45.16</text>
<text x="10" y="78" class="label">eaassets-a.akamaihd.net</text>
<rect x="180" y="62" width="142.91" height="22" fill="#4c78a8" rx="3"/>
<text x="330.90999999999997" y="78" class="value">71.11</text>
<text x="10" y="110" class="label">ubisoft.com</text>
<rect x="180" y="94" width="184.84" height="22" fill="#4c78a8" rx="3"/>
<text x="372.84000000000003" y="110" class="value">91.97</text>
<text x="10" y="142" class="label">origin.com</text>
<rect x="180" y="126" width="188.92" height="22" fill="#4c78a8" rx="3"/>
<text x="376.91999999999996" y="142" class="value">94.00</text>
<text x="10" y="174" class="label">ea.com</text>
<rect x="180" y="158" width="210.02" height="22" fill="#4c78a8" rx="3"/>
<text x="398.02" y="174" class="value">104.50</text>
<text x="10" y="206" class="label">community.akamai.steamstatic.com</text>
<rect x="180" y="190" width="248.93" height="22" fill="#4c78a8" rx="3"/>
<text x="436.93" y="206" class="value">123.86</text>
<text x="10" y="238" class="label">cdn.cloudflare.steamstatic.com</text>
<rect x="180" y="222" width="320.74" height="22" fill="#4c78a8" rx="3"/>
<text x="508.74" y="238" class="value">159.59</text>
<text x="10" y="270" class="label">steamcdn-a.akamaihd.net</text>
<rect x="180" y="254" width="374.24" height="22" fill="#4c78a8" rx="3"/>
<text x="562.24" y="270" class="value">186.21</text>
<text x="10" y="302" class="label">cdn.akamai.steamstatic.com</text>
<rect x="180" y="286" width="383.69" height="22" fill="#4c78a8" rx="3"/>
<text x="571.69" y="302" class="value">190.91</text>
<text x="10" y="334" class="label">store.akamai.steamstatic.com</text>
<rect x="180" y="318" width="399.22" height="22" fill="#4c78a8" rx="3"/>
<text x="587.22" y="334" class="value">198.64</text>
<text x="10" y="366" class="label">easyanticheat.net</text>
<rect x="180" y="350" width="413.21" height="22" fill="#4c78a8" rx="3"/>
<text x="601.21" y="366" class="value">205.60</text>
<text x="10" y="398" class="label">steam-chat.com</text>
<rect x="180" y="382" width="469.0" height="22" fill="#4c78a8" rx="3"/>
<text x="657.0" y="398" class="value">233.36</text>
<text x="10" y="430" class="label">www.steamcommunity.com</text>
<rect x="180" y="414" width="470.75" height="22" fill="#4c78a8" rx="3"/>
<text x="658.75" y="430" class="value">234.23</text>
<text x="10" y="462" class="label">api.steampowered.com</text>
<rect x="180" y="446" width="525.07" height="22" fill="#4c78a8" rx="3"/>
<text x="713.07" y="462" class="value">261.26</text>
<text x="10" y="494" class="label">blizzard.com</text>
<rect x="180" y="478" width="580.0" height="22" fill="#4c78a8" rx="3"/>
<text x="768.0" y="494" class="value">288.59</text>
<line x1="180" y1="30" x2="180" y2="520" stroke="#ccc"/>
<line x1="180" y1="520" x2="760" y2="520" stroke="#ccc"/>
</svg>