<svg xmlns="http://www.w3.org/2000/svg" width="800" height="540">
<style> .label{font-family:DejaVu Sans,Verdana,Geneva,sans-serif;font-size:12px;fill:#333} .value{font-family:DejaVu Sans,Verdana,Geneva,sans-serif;font-size:12px;fill:#555} </style>
<text x="10" y="20" class="label">延迟柱状图（越低越好，Top 15），单位 ms</text>
<text x="10" y="46" class="label">eaassets-a.akamaihd.net</text>
<rect x="180" y="30" width="156.59" height="22" fill="#4c78a8" rx="3"/>
<text x="344.59000000000003" y="46" class="value">71.28</text>
<text x="10" y="78" class="label">rockstargames.com</text>
<rect x="180" y="62" width="188.89" height="22" fill="#4c78a8" rx="3"/>
<text x="376.89" y="78" class="value">85.98</text>
<text x="10" y="110" class="label">ea.com</text>
<rect x="180" y="94" width="214.92" height="22" fill="#4c78a8" rx="3"/>
<text x="402.91999999999996" y="110" class="value">97.83</text>
<text x="10" y="142" class="label">community.akamai.steamstatic.com</text>
<rect x="180" y="126" width="242.1" height="22" fill="#4c78a8" rx="3"/>
<text x="430.1" y="142" class="value">110.20</text>
<text x="10" y="174" class="label">cdn.cloudflare.steamstatic.com</text>
<rect x="180" y="158" width="277.69" height="22" fill="#4c78a8" rx="3"/>
<text x="465.69" y="174" class="value">126.40</text>
<text x="10" y="206" class="label">steamcdn-a.akamaihd.net</text>
<rect x="180" y="190" width="289.35" height="22" fill="#4c78a8" rx="3"/>
<text x="477.35" y="206" class="value">131.71</text>
<text x="10" y="238" class="label">ubisoft.com</text>
<rect x="180" y="222" width="319.52" height="22" fill="#4c78a8" rx="3"/>
<text x="507.52" y="238" class="value">145.44</text>
<text x="10" y="270" class="label">cdn.akamai.steamstatic.com</text>
<rect x="180" y="254" width="347.15" height="22" fill="#4c78a8" rx="3"/>
<text x="535.15" y="270" class="value">158.02</text>
<text x="10" y="302" class="label">store.akamai.steamstatic.com</text>
<rect x="180" y="286" width="395.35" height="22" fill="#4c78a8" rx="3"/>
<text x="583.35" y="302" class="value">179.96</text>
<text x="10" y="334" class="label">origin.com</text>
<rect x="180" y="318" width="419.69" height="22" fill="#4c78a8" rx="3"/>
<text x="607.69" y="334" class="value">191.04</text>
<text x="10" y="366" class="label">steam-chat.com</text>
<rect x="180" y="350" width="431.38" height="22" fill="#4c78a8" rx="3"/>
<text x="619.38" y="366" class="value">196.36</text>
<text x="10" y="398" class="label">static3.cdn.ubi.com</text>
<rect x="180" y="382" width="487.93" height="22" fill="#4c78a8" rx="3"/>
<text x="675.9300000000001" y="398" class="value">222.10</text>
<text x="10" y="430" class="label">launcher-public-service-prod06.ol.epicgames.com</text>
<rect x="180" y="414" width="548.74" height="22" fill="#4c78a8" rx="3"/>
<text x="736.74" y="430" class="value">249.78</text>
<text x="10" y="462" class="label">api.steampowered.com</text>
<rect x="180" y="446" width="567.26" height="22" fill="#4c78a8" rx="3"/>
<text x="755.26" y="462" class="value">258.21</text>
<text x="10" y="494" class="label">www.steamcommunity.com</text>
<rect x="180" y="478" width="580.0" height="22" fill="#4c78a8" rx="3"/>
<text x="768.0" y="494" class="value">264.01</text>
<line x1="180" y1="30" x2="180" y2="520" stroke="#ccc"/>
<line x1="180" y1="520" x2="760" y2="520" stroke="#ccc"/>
</svg>