<svg xmlns="http://www.w3.org/2000/svg" width="800" height="540">
<style> .label{font-family:DejaVu Sans,Verdana,Geneva,sans-serif;font-size:12px;fill:#333} .value{font-family:DejaVu Sans,Verdana,Geneva,sans-serif;font-size:12px;fill:#555} </style>
<text x="10" y="20" class="label">延迟柱状图（越低越好，Top 15），单位 ms</text>
<text x="10" y="46" class="label">eaassets-a.akamaihd.net</text>
<rect x="180" y="30" width="230.17" height="22" fill="#4c78a8" rx="3"/>
<text x="418.16999999999996" y="46" class="value">112.68</text>
<text x="10" y="78" class="label">ubisoft.com</text>
<rect x="180" y="62" width="281.5" height="22" fill="#4c78a8" rx="3"/>
<text x="469.5" y="78" class="value">137.81</text>
<text x="10" y="110" class="label">rockstargames.com</text>
<rect x="180" y="94" width="316.25" height="22" fill="#4c78a8" rx="3"/>
<text x="504.25" y="110" class="value">154.82</text>
<text x="10" y="142" class="label">ea.com</text>
<rect x="180" y="126" width="350.24" height="22" fill="#4c78a8" rx="3"/>
<text x="538.24" y="142" class="value">171.46</text>
<text x="10" y="174" class="label">easyanticheat.net</text>
<rect x="180" y="158" width="391.99" height="22" fill="#4c78a8" rx="3"/>
<text x="579.99" y="174" class="value">191.90</text>
<text x="10" y="206" class="label">cdn.cloudflare.steamstatic.com</text>
<rect x="180" y="190" width="439.93" height="22" fill="#4c78a8" rx="3"/>
<text x="627.9300000000001" y="206" class="value">215.37</text>
<text x="10" y="238" class="label">ubi.com</text>
<rect x="180" y="222" width="449.13" height="22" fill="#4c78a8" rx="3"/>
<text x="637.13" y="238" class="value">219.87</text>
<text x="10" y="270" class="label">steamcdn-a.akamaihd.net</text>
<rect x="180" y="254" width="454.31" height="22" fill="#4c78a8" rx="3"/>
<text x="642.31" y="270" class="value">222.41</text>
<text x="10" y="302" class="label">socialclub.rockstargames.com</text>
<rect x="180" y="286" width="483.91" height="22" fill="#4c78a8" rx="3"/>
<text x="671.9100000000001" y="302" class="value">236.90</text>
<text x="10" y="334" class="label">store.akamai.steamstatic.com</text>
<rect x="180" y="318" width="495.04" height="22" fill="#4c78a8" rx="3"/>
<text x="683.04" y="334" class="value">242.35</text>
<text x="10" y="366" class="label">api.steampowered.com</text>
<rect x="180" y="350" width="519.11" height="22" fill="#4c78a8" rx="3"/>
<text x="707.11" y="366" class="value">254.13</text>
<text x="10" y="398" class="label">origin.com</text>
<rect x="180" y="382" width="520.86" height="22" fill="#4c78a8" rx="3"/>
<text x="708.86" y="398" class="value">254.99</text>
<text x="10" y="430" class="label">community.akamai.steamstatic.com</text>
<rect x="180" y="414" width="523.36" height="22" fill="#4c78a8" rx="3"/>
<text x="711.36" y="430" class="value">256.21</text>
<text x="10" y="462" class="label">steam-chat.com</text>
<rect x="180" y="446" width="523.36" height="22" fill="#4c78a8" rx="3"/>
<text x="711.36" y="462" class="value">256.21</text>
<text x="10" y="494" class="label">unrealengine.com</text>
<rect x="180" y="478" width="580.0" height="22" fill="#4c78a8" rx="3"/>
<text x="768.0" y="494" class="value">283.94</text>
<line x1="180" y1="30" x2="180" y2="520" stroke="#ccc"/>
<line x1="180" y1="520" x2="760" y2="520" stroke="#ccc"/>
</svg>