<svg xmlns="http://www.w3.org/2000/svg" width="800" height="540">
<style> .label{font-family:DejaVu Sans,Verdana,Geneva,sans-serif;font-size:12px;fill:#333} .value{font-family:DejaVu Sans,Verdana,Geneva,sans-serif;font-size:12px;fill:#555} </style>
<text x="10" y="20" class="label">延迟柱状图（越低越好，Top 15），单位 ms</text>
<text x="10" y="46" class="label">rockstargames.com</text>
<rect x="180" y="30" width="226.14" height="22" fill="#4c78a8" rx="3"/>
<text x="414.14" y="46" class="value">61.69</text>
<text x="10" y="78" class="label">socialclub.rockstargames.com</text>
<rect x="180" y="62" width="289.67" height="22" fill="#4c78a8" rx="3"/>
<text x="477.67" y="78" class="value">79.02</text>
<text x="10" y="110" class="label">blizzard.com</text>
<rect x="180" y="94" width="291.47" height="22" fill="#4c78a8" rx="3"/>
<text x="479.47" y="110" class="value">79.51</text>
<text x="10" y="142" class="label">origin.com</text>
<rect x="180" y="126" width="340.0" height="22" fill="#4c78a8" rx="3"/>
<text x="528.0" y="142" class="value">92.75</text>
<text x="10" y="174" class="label">battle.net</text>
<rect x="180" y="158" width="351.07" height="22" fill="#4c78a8" rx="3"/>
<text x="539.0699999999999" y="174" class="value">95.77</text>
<text x="10" y="206" class="label">ubi.com</text>
<rect x="180" y="190" width="371.34" height="22" fill="#4c78a8" rx="3"/>
<text x="559.3399999999999" y="206" class="value">101.30</text>
<text x="10" y="238" class="label">store.akamai.steamstatic.com</text>
<rect x="180" y="222" width="371.45" height="22" fill="#4c78a8" rx="3"/>
<text x="559.45" y="238" class="value">101.33</text>
<text x="10" y="270" class="label">unrealengine.com</text>
<rect x="180" y="254" width="385.27" height="22" fill="#4c78a8" rx="3"/>
<text x="573.27" y="270" class="value">105.10</text>
<text x="10" y="302" class="label">cdn.cloudflare.steamstatic.com</text>
<rect x="180" y="286" width="390.11" height="22" fill="#4c78a8" rx="3"/>
<text x="578.11" y="302" class="value">106.42</text>
<text x="10" y="334" class="label">eaassets-a.akamaihd.net</text>
<rect x="180" y="318" width="391.07" height="22" fill="#4c78a8" rx="3"/>
<text x="579.0699999999999" y="334" class="value">106.68</text>
<text x="10" y="366" class="label">ubisoft.com</text>
<rect x="180" y="350" width="399.75" height="22" fill="#4c78a8" rx="3"/>
<text x="587.75" y="366" class="value">109.05</text>
<text x="10" y="398" class="label">fortnite.com</text>
<rect x="180" y="382" width="476.04" height="22" fill="#4c78a8" rx="3"/>
<text x="664.04" y="398" class="value">129.86</text>
<text x="10" y="430" class="label">ea.com</text>
<rect x="180" y="414" width="497.63" height="22" fill="#4c78a8" rx="3"/>
<text x="685.63" y="430" class="value">135.75</text>
<text x="10" y="462" class="label">epicgames.com</text>
<rect x="180" y="446" width="546.38" height="22" fill="#4c78a8" rx="3"/>
<text x="734.38" y="462" class="value">149.05</text>
<text x="10" y="494" class="label">easyanticheat.net</text>
<rect x="180" y="478" width="580.0" height="22" fill="#4c78a8" rx="3"/>
<text x="768.0" y="494" class="value">158.22</text>
<line x1="180" y1="30" x2="180" y2="520" stroke="#ccc"/>
<line x1="180" y1="520" x2="760" y2="520" stroke="#ccc"/>
</svg>