<svg xmlns="http://www.w3.org/2000/svg" width="800" height="540">
<style> .label{font-family:DejaVu Sans,Verdana,Geneva,sans-serif;font-size:12px;fill:#333} .value{font-family:DejaVu Sans,Verdana,Geneva,sans-serif;font-size:12px;fill:#555} </style>
<text x="10" y="20" class="label">延迟柱状图（越低越好，Top 15），单位 ms</text>
<text x="10" y="46" class="label">rockstargames.com</text>
<rect x="180" y="30" width="169.36" height="22" fill="#4c78a8" rx="3"/>
<text x="357.36" y="46" class="value">57.78</text>
<text x="10" y="78" class="label">eaassets-a.akamaihd.net</text>
<rect x="180" y="62" width="199.14" height="22" fill="#4c78a8" rx="3"/>
<text x="387.14" y="78" class="value">67.94</text>
<text x="10" y="110" class="label">blizzard.com</text>
<rect x="180" y="94" width="214.38" height="22" fill="#4c78a8" rx="3"/>
<text x="402.38" y="110" class="value">73.14</text>
<text x="10" y="142" class="label">socialclub.rockstargames.com</text>
<rect x="180" y="126" width="242.37" height="22" fill="#4c78a8" rx="3"/>
<text x="430.37" y="142" class="value">82.69</text>
<text x="10" y="174" class="label">ubi.com</text>
<rect x="180" y="158" width="245.42" height="22" fill="#4c78a8" rx="3"/>
<text x="433.41999999999996" y="174" class="value">83.73</text>
<text x="10" y="206" class="label">ea.com</text>
<rect x="180" y="190" width="272.44" height="22" fill="#4c78a8" rx="3"/>
<text x="460.44" y="206" class="value">92.95</text>
<text x="10" y="238" class="label">battle.net</text>
<rect x="180" y="222" width="274.26" height="22" fill="#4c78a8" rx="3"/>
<text x="462.26" y="238" class="value">93.57</text>
<text x="10" y="270" class="label">fortnite.com</text>
<rect x="180" y="254" width="323.68" height="22" fill="#4c78a8" rx="3"/>
<text x="511.68" y="270" class="value">110.43</text>
<text x="10" y="302" class="label">unrealengine.com</text>
<rect x="180" y="286" width="346.75" height="22" fill="#4c78a8" rx="3"/>
<text x="534.75" y="302" class="value">118.30</text>
<text x="10" y="334" class="label">cdn.akamai.steamstatic.com</text>
<rect x="180" y="318" width="382.33" height="22" fill="#4c78a8" rx="3"/>
<text x="570.3299999999999" y="334" class="value">130.44</text>
<text x="10" y="366" class="label">static3.cdn.ubi.com</text>
<rect x="180" y="350" width="437.87" height="22" fill="#4c78a8" rx="3"/>
<text x="625.87" y="366" class="value">149.39</text>
<text x="10" y="398" class="label">community.akamai.steamstatic.com</text>
<rect x="180" y="382" width="496.32" height="22" fill="#4c78a8" rx="3"/>
<text x="684.3199999999999" y="398" class="value">169.33</text>
<text x="10" y="430" class="label">steamcdn-a.akamaihd.net</text>
<rect x="180" y="414" width="496.85" height="22" fill="#4c78a8" rx="3"/>
<text x="684.85" y="430" class="value">169.51</text>
<text x="10" y="462" class="label">epicgames.com</text>
<rect x="180" y="446" width="509.74" height="22" fill="#4c78a8" rx="3"/>
<text x="697.74" y="462" class="value">173.91</text>
<text x="10" y="494" class="label">launcher-public-service-prod06.ol.epicgames.com</text>
<rect x="180" y="478" width="580.0" height="22" fill="#4c78a8" rx="3"/>
<text x="768.0" y="494" class="value">197.88</text>
<line x1="180" y1="30" x2="180" y2="520" stroke="#ccc"/>
<line x1="180" y1="520" x2="760" y2="520" stroke="#ccc"/>
</svg>