<svg xmlns="http://www.w3.org/2000/svg" width="800" height="540">
<style> .label{font-family:DejaVu Sans,Verdana,Geneva,sans-serif;font-size:12px;fill:#333} .value{font-family:DejaVu Sans,Verdana,Geneva,sans-serif;font-size:12px;fill:#555} </style>
<text x="10" y="20" class="label">延迟柱状图（越低越好，Top 15），单位 ms</text>
<text x="10" y="46" class="label">rockstargames.com</text>
<rect x="180" y="30" width="227.96" height="22" fill="#4c78a8" rx="3"/>
<text x="415.96000000000004" y="46" class="value">84.01</text>
<text x="10" y="78" class="label">battle.net</text>
<rect x="180" y="62" width="244.45" height="22" fill="#4c78a8" rx="3"/>
<text x="432.45" y="78" class="value">90.09</text>
<text x="10" y="110" class="label">blizzard.com</text>
<rect x="180" y="94" width="249.91" height="22" fill="#4c78a8" rx="3"/>
<text x="437.90999999999997" y="110" class="value">92.10</text>
<text x="10" y="142" class="label">socialclub.rockstargames.com</text>
<rect x="180" y="126" width="257.64" height="22" fill="#4c78a8" rx="3"/>
<text x="445.64" y="142" class="value">94.95</text>
<text x="10" y="174" class="label">steamcdn-a.akamaihd.net</text>
<rect x="180" y="158" width="264.26" height="22" fill="#4c78a8" rx="3"/>
<text x="452.26" y="174" class="value">97.39</text>
<text x="10" y="206" class="label">ubisoft.com</text>
<rect x="180" y="190" width="266.19" height="22" fill="#4c78a8" rx="3"/>
<text x="454.19" y="206" class="value">98.10</text>
<text x="10" y="238" class="label">unrealengine.com</text>
<rect x="180" y="222" width="328.38" height="22" fill="#4c78a8" rx="3"/>
<text x="516.38" y="238" class="value">121.02</text>
<text x="10" y="270" class="label">ubi.com</text>
<rect x="180" y="254" width="339.29" height="22" fill="#4c78a8" rx="3"/>
<text x="527.29" y="270" class="value">125.04</text>
<text x="10" y="302" class="label">fortnite.com</text>
<rect x="180" y="286" width="447.2" height="22" fill="#4c78a8" rx="3"/>
<text x="635.2" y="302" class="value">164.81</text>
<text x="10" y="334" class="label">eaassets-a.akamaihd.net</text>
<rect x="180" y="318" width="455.75" height="22" fill="#4c78a8" rx="3"/>
<text x="643.75" y="334" class="value">167.96</text>
<text x="10" y="366" class="label">community.akamai.steamstatic.com</text>
<rect x="180" y="350" width="475.15" height="22" fill="#4c78a8" rx="3"/>
<text x="663.15" y="366" class="value">175.11</text>
<text x="10" y="398" class="label">cdn.akamai.steamstatic.com</text>
<rect x="180" y="382" width="493.25" height="22" fill="#4c78a8" rx="3"/>
<text x="681.25" y="398" class="value">181.78</text>
<text x="10" y="430" class="label">static3.cdn.ubi.com</text>
<rect x="180" y="414" width="564.21" height="22" fill="#4c78a8" rx="3"/>
<text x="752.21" y="430" class="value">207.93</text>
<text x="10" y="462" class="label">store.akamai.steamstatic.com</text>
<rect x="180" y="446" width="564.4" height="22" fill="#4c78a8" rx="3"/>
<text x="752.4" y="462" class="value">208.00</text>
<text x="10" y="494" class="label">epicgames.com</text>
<rect x="180" y="478" width="580.0" height="22" fill="#4c78a8" rx="3"/>
<text x="768.0" y="494" class="value">213.75</text>
<line x1="180" y1="30" x2="180" y2="520" stroke="#ccc"/>
<line x1="180" y1="520" x2="760" y2="520" stroke="#ccc"/>
</svg>