<svg xmlns="http://www.w3.org/2000/svg" width="800" height="540">
<style> .label{font-family:DejaVu Sans,Verdana,Geneva,sans-serif;font-size:12px;fill:#333} .value{font-family:DejaVu Sans,Verdana,Geneva,sans-serif;font-size:12px;fill:#555} </style>
<text x="10" y="20" class="label">延迟柱状图（越低越好，Top 15），单位 ms</text>
<text x="10" y="46" class="label">rockstargames.com</text>
<rect x="180" y="30" width="108.12" height="22" fill="#4c78a8" rx="3"/>
<text x="296.12" y="46" class="value">44.00</text>
<text x="10" y="78" class="label">eaassets-a.akamaihd.net</text>
<rect x="180" y="62" width="123.33" height="22" fill="#4c78a8" rx="3"/>
<text x="311.33" y="78" class="value">50.19</text>
<text x="10" y="110" class="label">ea.com</text>
<rect x="180" y="94" width="202.68" height="22" fill="#4c78a8" rx="3"/>
<text x="390.68" y="110" class="value">82.48</text>
<text x="10" y="142" class="label">cdn.akamai.steamstatic.com</text>
<rect x="180" y="126" width="248.12" height="22" fill="#4c78a8" rx="3"/>
<text x="436.12" y="142" class="value">100.97</text>
<text x="10" y="174" class="label">ubisoft.com</text>
<rect x="180" y="158" width="326.41" height="22" fill="#4c78a8" rx="3"/>
<text x="514.4100000000001" y="174" class="value">132.83</text>
<text x="10" y="206" class="label">origin.com</text>
<rect x="180" y="190" width="351.3" height="22" fill="#4c78a8" rx="3"/>
<text x="539.3" y="206" class="value">142.96</text>
<text x="10" y="238" class="label">community.akamai.steamstatic.com</text>
<rect x="180" y="222" width="388.48" height="22" fill="#4c78a8" rx="3"/>
<text x="576.48" y="238" class="value">158.09</text>
<text x="10" y="270" class="label">static3.cdn.ubi.com</text>
<rect x="180" y="254" width="398.45" height="22" fill="#4c78a8" rx="3"/>
<text x="586.45" y="270" class="value">162.15</text>
<text x="10" y="302" class="label">steamcdn-a.akamaihd.net</text>
<rect x="180" y="286" width="412.39" height="22" fill="#4c78a8" rx="3"/>
<text x="600.39" y="302" class="value">167.82</text>
<text x="10" y="334" class="label">www.steamcommunity.com</text>
<rect x="180" y="318" width="515.54" height="22" fill="#4c78a8" rx="3"/>
<text x="703.54" y="334" class="value">209.80</text>
<text x="10" y="366" class="label">gog.com</text>
<rect x="180" y="350" width="529.38" height="22" fill="#4c78a8" rx="3"/>
<text x="717.38" y="366" class="value">215.43</text>
<text x="10" y="398" class="label">steam-chat.com</text>
<rect x="180" y="382" width="531.27" height="22" fill="#4c78a8" rx="3"/>
<text x="719.27" y="398" class="value">216.20</text>
<text x="10" y="430" class="label">store.akamai.steamstatic.com</text>
<rect x="180" y="414" width="562.75" height="22" fill="#4c78a8" rx="3"/>
<text x="750.75" y="430" class="value">229.01</text>
<text x="10" y="462" class="label">easyanticheat.net</text>
<rect x="180" y="446" width="569.09" height="22" fill="#4c78a8" rx="3"/>
<text x="757.09" y="462" class="value">231.59</text>
<text x="10" y="494" class="label">api.steampowered.com</text>
<rect x="180" y="478" width="580.0" height="22" fill="#4c78a8" rx="3"/>
<text x="768.0" y="494" class="value">236.03</text>
<line x1="180" y1="30" x2="180" y2="520" stroke="#ccc"/>
<line x1="180" y1="520" x2="760" y2="520" stroke="#ccc"/>
</svg>