<svg xmlns="http://www.w3.org/2000/svg" width="800" height="540">
<style> .label{font-family:DejaVu Sans,Verdana,Geneva,sans-serif;font-size:12px;fill:#333} .value{font-family:DejaVu Sans,Verdana,Geneva,sans-serif;font-size:12px;fill:#555} </style>
<text x="10" y="20" class="label">延迟柱状图（越低越好，Top 15），单位 ms</text>
<text x="10" y="46" class="label">ubisoft.com</text>
<rect x="180" y="30" width="230.81" height="22" fill="#4c78a8" rx="3"/>
<text x="418.81" y="46" class="value">111.73</text>
<text x="10" y="78" class="label">store.akamai.steamstatic.com</text>
<rect x="180" y="62" width="248.82" height="22" fill="#4c78a8" rx="3"/>
<text x="436.82" y="78" class="value">120.45</text>
<text x="10" y="110" class="label">origin.com</text>
<rect x="180" y="94" width="253.94" height="22" fill="#4c78a8" rx="3"/>
<text x="441.94" y="110" class="value">122.93</text>
<text x="10" y="142" class="label">cdn.cloudflare.steamstatic.com</text>
<rect x="180" y="126" width="272.29" height="22" fill="#4c78a8" rx="3"/>
<text x="460.29" y="142" class="value">131.81</text>
<text x="10" y="174" class="label">steamcdn-a.akamaihd.net</text>
<rect x="180" y="158" width="274.35" height="22" fill="#4c78a8" rx="3"/>
<text x="462.35" y="174" class="value">132.81</text>
<text x="10" y="206" class="label">community.akamai.steamstatic.com</text>
<rect x="180" y="190" width="289.18" height="22" fill="#4c78a8" rx="3"/>
<text x="477.18" y="206" class="value">139.99</text>
<text x="10" y="238" class="label">cdn.akamai.steamstatic.com</text>
<rect x="180" y="222" width="305.75" height="22" fill="#4c78a8" rx="3"/>
<text x="493.75" y="238" class="value">148.01</text>
<text x="10" y="270" class="label">ea.com</text>
<rect x="180" y="254" width="336.45" height="22" fill="#4c78a8" rx="3"/>
<text x="524.45" y="270" class="value">162.87</text>
<text x="10" y="302" class="label">eaassets-a.akamaihd.net</text>
<rect x="180" y="286" width="360.82" height="22" fill="#4c78a8" rx="3"/>
<text x="548.8199999999999" y="302" class="value">174.67</text>
<text x="10" y="334" class="label">easyanticheat.net</text>
<rect x="180" y="318" width="388.53" height="22" fill="#4c78a8" rx="3"/>
<text x="576.53" y="334" class="value">188.08</text>
<text x="10" y="366" class="label">api.steampowered.com</text>
<rect x="180" y="350" width="466.94" height="22" fill="#4c78a8" rx="3"/>
<text x="654.94" y="366" class="value">226.04</text>
<text x="10" y="398" class="label">ubi.com</text>
<rect x="180" y="382" width="529.16" height="22" fill="#4c78a8" rx="3"/>
<text x="717.16" y="398" class="value">256.16</text>
<text x="10" y="430" class="label">www.steamcommunity.com</text>
<rect x="180" y="414" width="532.28" height="22" fill="#4c78a8" rx="3"/>
<text x="720.28" y="430" class="value">257.67</text>
<text x="10" y="462" class="label">launcher-public-service-prod06.ol.epicgames.com</text>
<rect x="180" y="446" width="551.12" height="22" fill="#4c78a8" rx="3"/>
<text x="739.12" y="462" class="value">266.79</text>
<text x="10" y="494" class="label">unrealengine.com</text>
<rect x="180" y="478" width="580.0" height="22" fill="#4c78a8" rx="3"/>
<text x="768.0" y="494" class="value">280.77</text>
<line x1="180" y1="30" x2="180" y2="520" stroke="#ccc"/>
<line x1="180" y1="520" x2="760" y2="520" stroke="#ccc"/>
</svg>