<svg xmlns="http://www.w3.org/2000/svg" width="800" height="540">
<style> .label{font-family:DejaVu Sans,Verdana,Geneva,sans-serif;font-size:12px;fill:#333} .value{font-family:DejaVu Sans,Verdana,Geneva,sans-serif;font-size:12px;fill:#555} </style>
<text x="10" y="20" class="label">延迟柱状图（越低越好，Top 15），单位 ms</text>
<text x="10" y="46" class="label">rockstargames.com</text>
<rect x="180" y="30" width="190.43" height="22" fill="#4c78a8" rx="3"/>
<text x="378.43" y="46" class="value">84.97</text>
<text x="10" y="78" class="label">eaassets-a.akamaihd.net</text>
<rect x="180" y="62" width="198.23" height="22" fill="#4c78a8" rx="3"/>
<text x="386.23" y="78" class="value">88.45</text>
<text x="10" y="110" class="label">community.akamai.steamstatic.com</text>
<rect x="180" y="94" width="202.42" height="22" fill="#4c78a8" rx="3"/>
<text x="390.41999999999996" y="110" class="value">90.32</text>
<text x="10" y="142" class="label">ubisoft.com</text>
<rect x="180" y="126" width="220.84" height="22" fill="#4c78a8" rx="3"/>
<text x="408.84000000000003" y="142" class="value">98.54</text>
<text x="10" y="174" class="label">ea.com</text>
<rect x="180" y="158" width="270.77" height="22" fill="#4c78a8" rx="3"/>
<text x="458.77" y="174" class="value">120.82</text>
<text x="10" y="206" class="label">steamcdn-a.akamaihd.net</text>
<rect x="180" y="190" width="281.13" height="22" fill="#4c78a8" rx="3"/>
<text x="469.13" y="206" class="value">125.44</text>
<text x="10" y="238" class="label">store.akamai.steamstatic.com</text>
<rect x="180" y="222" width="369.07" height="22" fill="#4c78a8" rx="3"/>
<text x="557.0699999999999" y="238" class="value">164.68</text>
<text x="10" y="270" class="label">origin.com</text>
<rect x="180" y="254" width="380.83" height="22" fill="#4c78a8" rx="3"/>
<text x="568.8299999999999" y="270" class="value">169.93</text>
<text x="10" y="302" class="label">cdn.cloudflare.steamstatic.com</text>
<rect x="180" y="286" width="401.47" height="22" fill="#4c78a8" rx="3"/>
<text x="589.47" y="302" class="value">179.14</text>
<text x="10" y="334" class="label">easyanticheat.net</text>
<rect x="180" y="318" width="469.0" height="22" fill="#4c78a8" rx="3"/>
<text x="657.0" y="334" class="value">209.27</text>
<text x="10" y="366" class="label">steam-chat.com</text>
<rect x="180" y="350" width="482.24" height="22" fill="#4c78a8" rx="3"/>
<text x="670.24" y="366" class="value">215.18</text>
<text x="10" y="398" class="label">cdn.akamai.steamstatic.com</text>
<rect x="180" y="382" width="502.95" height="22" fill="#4c78a8" rx="3"/>
<text x="690.95" y="398" class="value">224.42</text>
<text x="10" y="430" class="label">api.steampowered.com</text>
<rect x="180" y="414" width="513.39" height="22" fill="#4c78a8" rx="3"/>
<text x="701.39" y="430" class="value">229.08</text>
<text x="10" y="462" class="label">ubi.com</text>
<rect x="180" y="446" width="557.52" height="22" fill="#4c78a8" rx="3"/>
<text x="745.52" y="462" class="value">248.77</text>
<text x="10" y="494" class="label">steamcommunity.com</text>
<rect x="180" y="478" width="580.0" height="22" fill="#4c78a8" rx="3"/>
<text x="768.0" y="494" class="value">258.80</text>
<line x1="180" y1="30" x2="180" y2="520" stroke="#ccc"/>
<line x1="180" y1="520" x2="760" y2="520" stroke="#ccc"/>
</svg>