<svg xmlns="http://www.w3.org/2000/svg" width="800" height="540">
<style> .label{font-family:DejaVu Sans,Verdana,Geneva,sans-serif;font-size:12px;fill:#333} .value{font-family:DejaVu Sans,Verdana,Geneva,sans-serif;font-size:12px;fill:#555} </style>
<text x="10" y="20" class="label">延迟柱状图（越低越好，Top 15），单位 ms</text>
<text x="10" y="46" class="label">socialclub.rockstargames.com</text>
<rect x="180" y="30" width="219.12" height="22" fill="#4c78a8" rx="3"/>
<text x="407.12" y="46" class="value">69.64</text>
<text x="10" y="78" class="label">ubi.com</text>
<rect x="180" y="62" width="276.64" height="22" fill="#4c78a8" rx="3"/>
<text x="464.64" y="78" class="value">87.92</text>
<text x="10" y="110" class="label">rockstargames.com</text>
<rect x="180" y="94" width="289.86" height="22" fill="#4c78a8" rx="3"/>
<text x="477.86" y="110" class="value">92.12</text>
<text x="10" y="142" class="label">ea.com</text>
<rect x="180" y="126" width="315.35" height="22" fill="#4c78a8" rx="3"/>
<text x="503.35" y="142" class="value">100.22</text>
<text x="10" y="174" class="label">unrealengine.com</text>
<rect x="180" y="158" width="351.0" height="22" fill="#4c78a8" rx="3"/>
<text x="539.0" y="174" class="value">111.55</text>
<text x="10" y="206" class="label">battle.net</text>
<rect x="180" y="190" width="358.23" height="22" fill="#4c78a8" rx="3"/>
<text x="546.23" y="206" class="value">113.85</text>
<text x="10" y="238" class="label">fortnite.com</text>
<rect x="180" y="222" width="459.36" height="22" fill="#4c78a8" rx="3"/>
<text x="647.36" y="238" class="value">145.99</text>
<text x="10" y="270" class="label">epicgames.com</text>
<rect x="180" y="254" width="471.76" height="22" fill="#4c78a8" rx="3"/>
<text x="659.76" y="270" class="value">149.93</text>
<text x="10" y="302" class="label">origin.com</text>
<rect x="180" y="286" width="473.55" height="22" fill="#4c78a8" rx="3"/>
<text x="661.55" y="302" class="value">150.50</text>
<text x="10" y="334" class="label">blizzard.com</text>
<rect x="180" y="318" width="485.95" height="22" fill="#4c78a8" rx="3"/>
<text x="673.95" y="334" class="value">154.44</text>
<text x="10" y="366" class="label">eaassets-a.akamaihd.net</text>
<rect x="180" y="350" width="512.1" height="22" fill="#4c78a8" rx="3"/>
<text x="700.1" y="366" class="value">162.75</text>
<text x="10" y="398" class="label">store.akamai.steamstatic.com</text>
<rect x="180" y="382" width="554.2" height="22" fill="#4c78a8" rx="3"/>
<text x="742.2" y="398" class="value">176.13</text>
<text x="10" y="430" class="label">community.akamai.steamstatic.com</text>
<rect x="180" y="414" width="571.63" height="22" fill="#4c78a8" rx="3"/>
<text x="759.63" y="430" class="value">181.67</text>
<text x="10" y="462" class="label">steamcdn-a.akamaihd.net</text>
<rect x="180" y="446" width="578.21" height="22" fill="#4c78a8" rx="3"/>
<text x="766.21" y="462" class="value">183.76</text>
<text x="10" y="494" class="label">cdn.cloudflare.steamstatic.com</text>
<rect x="180" y="478" width="580.0" height="22" fill="#4c78a8" rx="3"/>
<text x="768.0" y="494" class="value">184.33</text>
<line x1="180" y1="30" x2="180" y2="520" stroke="#ccc"/>
<line x1="180" y1="520" x2="760" y2="520" stroke="#ccc"/>
</svg>