<svg xmlns="http://www.w3.org/2000/svg" width="800" height="540">
<style> .label{font-family:DejaVu Sans,Verdana,Geneva,sans-serif;font-size:12px;fill:#333} .value{font-family:DejaVu Sans,Verdana,Geneva,sans-serif;font-size:12px;fill:#555} </style>
<text x="10" y="20" class="label">延迟柱状图（越低越好，Top 15），单位 ms</text>
<text x="10" y="46" class="label">eaassets-a.akamaihd.net</text>
<rect x="180" y="30" width="183.49" height="22" fill="#4c78a8" rx="3"/>
<text x="371.49" y="46" class="value">82.07</text>
<text x="10" y="78" class="label">ubisoft.com</text>
<rect x="180" y="62" width="233.03" height="22" fill="#4c78a8" rx="3"/>
<text x="421.03" y="78" class="value">104.23</text>
<text x="10" y="110" class="label">rockstargames.com</text>
<rect x="180" y="94" width="237.1" height="22" fill="#4c78a8" rx="3"/>
<text x="425.1" y="110" class="value">106.05</text>
<text x="10" y="142" class="label">steamcdn-a.akamaihd.net</text>
<rect x="180" y="126" width="239.85" height="22" fill="#4c78a8" rx="3"/>
<text x="427.85" y="142" class="value">107.28</text>
<text x="10" y="174" class="label">ea.com</text>
<rect x="180" y="158" width="289.06" height="22" fill="#4c78a8" rx="3"/>
<text x="477.06" y="174" class="value">129.29</text>
<text x="10" y="206" class="label">cdn.akamai.steamstatic.com</text>
<rect x="180" y="190" width="316.49" height="22" fill="#4c78a8" rx="3"/>
<text x="504.49" y="206" class="value">141.56</text>
<text x="10" y="238" class="label">community.akamai.steamstatic.com</text>
<rect x="180" y="222" width="330.31" height="22" fill="#4c78a8" rx="3"/>
<text x="518.31" y="238" class="value">147.74</text>
<text x="10" y="270" class="label">store.akamai.steamstatic.com</text>
<rect x="180" y="254" width="378.27" height="22" fill="#4c78a8" rx="3"/>
<text x="566.27" y="270" class="value">169.19</text>
<text x="10" y="302" class="label">api.steampowered.com</text>
<rect x="180" y="286" width="411.29" height="22" fill="#4c78a8" rx="3"/>
<text x="599.29" y="302" class="value">183.96</text>
<text x="10" y="334" class="label">origin.com</text>
<rect x="180" y="318" width="423.12" height="22" fill="#4c78a8" rx="3"/>
<text x="611.12" y="334" class="value">189.25</text>
<text x="10" y="366" class="label">cdn.cloudflare.steamstatic.com</text>
<rect x="180" y="350" width="427.25" height="22" fill="#4c78a8" rx="3"/>
<text x="615.25" y="366" class="value">191.10</text>
<text x="10" y="398" class="label">easyanticheat.net</text>
<rect x="180" y="382" width="482.48" height="22" fill="#4c78a8" rx="3"/>
<text x="670.48" y="398" class="value">215.80</text>
<text x="10" y="430" class="label">gog.com</text>
<rect x="180" y="414" width="506.8" height="22" fill="#4c78a8" rx="3"/>
<text x="694.8" y="430" class="value">226.68</text>
<text x="10" y="462" class="label">steam-chat.com</text>
<rect x="180" y="446" width="573.61" height="22" fill="#4c78a8" rx="3"/>
<text x="761.61" y="462" class="value">256.56</text>
<text x="10" y="494" class="label">www.steamcommunity.com</text>
<rect x="180" y="478" width="580.0" height="22" fill="#4c78a8" rx="3"/>
<text x="768.0" y="494" class="value">259.42</text>
<line x1="180" y1="30" x2="180" y2="520" stroke="#ccc"/>
<line x1="180" y1="520" x2="760" y2="520" stroke="#ccc"/>
</svg>