<svg xmlns="http://www.w3.org/2000/svg" width="800" height="540">
<style> .label{font-family:DejaVu Sans,Verdana,Geneva,sans-serif;font-size:12px;fill:#333} .value{font-family:DejaVu Sans,Verdana,Geneva,sans-serif;font-size:12px;fill:#555} </style>
<text x="10" y="20" class="label">延迟柱状图（越低越好，Top 15），单位 ms</text>
<text x="10" y="46" class="label">rockstargames.com</text>
<rect x="180" y="30" width="110.7" height="22" fill="#4c78a8" rx="3"/>
<text x="298.7" y="46" class="value">51.64</text>
<text x="10" y="78" class="label">eaassets-a.akamaihd.net</text>
<rect x="180" y="62" width="171.82" height="22" fill="#4c78a8" rx="3"/>
<text x="359.82" y="78" class="value">80.15</text>
<text x="10" y="110" class="label">origin.com</text>
<rect x="180" y="94" width="197.09" height="22" fill="#4c78a8" rx="3"/>
<text x="385.09000000000003" y="110" class="value">91.94</text>
<text x="10" y="142" class="label">store.akamai.steamstatic.com</text>
<rect x="180" y="126" width="217.03" height="22" fill="#4c78a8" rx="3"/>
<text x="405.03" y="142" class="value">101.24</text>
<text x="10" y="174" class="label">ubisoft.com</text>
<rect x="180" y="158" width="264.98" height="22" fill="#4c78a8" rx="3"/>
<text x="452.98" y="174" class="value">123.61</text>
<text x="10" y="206" class="label">community.akamai.steamstatic.com</text>
<rect x="180" y="190" width="280.91" height="22" fill="#4c78a8" rx="3"/>
<text x="468.91" y="206" class="value">131.04</text>
<text x="10" y="238" class="label">easyanticheat.net</text>
<rect x="180" y="222" width="286.91" height="22" fill="#4c78a8" rx="3"/>
<text x="474.91" y="238" class="value">133.84</text>
<text x="10" y="270" class="label">cdn.cloudflare.steamstatic.com</text>
<rect x="180" y="254" width="299.37" height="22" fill="#4c78a8" rx="3"/>
<text x="487.37" y="270" class="value">139.65</text>
<text x="10" y="302" class="label">ea.com</text>
<rect x="180" y="286" width="305.39" height="22" fill="#4c78a8" rx="3"/>
<text x="493.39" y="302" class="value">142.46</text>
<text x="10" y="334" class="label">cdn.akamai.steamstatic.com</text>
<rect x="180" y="318" width="373.11" height="22" fill="#4c78a8" rx="3"/>
<text x="561.11" y="334" class="value">174.05</text>
<text x="10" y="366" class="label">api.steampowered.com</text>
<rect x="180" y="350" width="399.69" height="22" fill="#4c78a8" rx="3"/>
<text x="587.69" y="366" class="value">186.45</text>
<text x="10" y="398" class="label">steamcdn-a.akamaihd.net</text>
<rect x="180" y="382" width="416.11" height="22" fill="#4c78a8" rx="3"/>
<text x="604.11" y="398" class="value">194.11</text>
<text x="10" y="430" class="label">www.steamcommunity.com</text>
<rect x="180" y="414" width="547.5" height="22" fill="#4c78a8" rx="3"/>
<text x="735.5" y="430" class="value">255.40</text>
<text x="10" y="462" class="label">steam-chat.com</text>
<rect x="180" y="446" width="568.62" height="22" fill="#4c78a8" rx="3"/>
<text x="756.62" y="462" class="value">265.25</text>
<text x="10" y="494" class="label">launcher-public-service-prod06.ol.epicgames.com</text>
<rect x="180" y="478" width="580.0" height="22" fill="#4c78a8" rx="3"/>
<text x="768.0" y="494" class="value">270.56</text>
<line x1="180" y1="30" x2="180" y2="520" stroke="#ccc"/>
<line x1="180" y1="520" x2="760" y2="520" stroke="#ccc"/>
</svg>