<svg xmlns="http://www.w3.org/2000/svg" width="800" height="540">
<style> .label{font-family:DejaVu Sans,Verdana,Geneva,sans-serif;font-size:12px;fill:#333} .value{font-family:DejaVu Sans,Verdana,Geneva,sans-serif;font-size:12px;fill:#555} </style>
<text x="10" y="20" class="label">延迟柱状图（越低越好，Top 15），单位 ms</text>
<text x="10" y="46" class="label">rockstargames.com</text>
<rect x="180" y="30" width="103.15" height="22" fill="#4c78a8" rx="3"/>
<text x="291.15" y="46" class="value">37.32</text>
<text x="10" y="78" class="label">eaassets-a.akamaihd.net</text>
<rect x="180" y="62" width="181.09" height="22" fill="#4c78a8" rx="3"/>
<text x="369.09000000000003" y="78" class="value">65.52</text>
<text x="10" y="110" class="label">socialclub.rockstargames.com</text>
<rect x="180" y="94" width="183.88" height="22" fill="#4c78a8" rx="3"/>
<text x="371.88" y="110" class="value">66.53</text>
<text x="10" y="142" class="label">ubi.com</text>
<rect x="180" y="126" width="265.42" height="22" fill="#4c78a8" rx="3"/>
<text x="453.42" y="142" class="value">96.03</text>
<text x="10" y="174" class="label">steamcdn-a.akamaihd.net</text>
<rect x="180" y="158" width="305.6" height="22" fill="#4c78a8" rx="3"/>
<text x="493.6" y="174" class="value">110.57</text>
<text x="10" y="206" class="label">blizzard.com</text>
<rect x="180" y="190" width="395.84" height="22" fill="#4c78a8" rx="3"/>
<text x="583.8399999999999" y="206" class="value">143.22</text>
<text x="10" y="238" class="label">ea.com</text>
<rect x="180" y="222" width="404.41" height="22" fill="#4c78a8" rx="3"/>
<text x="592.4100000000001" y="238" class="value">146.32</text>
<text x="10" y="270" class="label">static3.cdn.ubi.com</text>
<rect x="180" y="254" width="457.92" height="22" fill="#4c78a8" rx="3"/>
<text x="645.9200000000001" y="270" class="value">165.68</text>
<text x="10" y="302" class="label">epicgames.com</text>
<rect x="180" y="286" width="465.6" height="22" fill="#4c78a8" rx="3"/>
<text x="653.6" y="302" class="value">168.46</text>
<text x="10" y="334" class="label">cdn.akamai.steamstatic.com</text>
<rect x="180" y="318" width="514.0" height="22" fill="#4c78a8" rx="3"/>
<text x="702.0" y="334" class="value">185.97</text>
<text x="10" y="366" class="label">fortnite.com</text>
<rect x="180" y="350" width="518.81" height="22" fill="#4c78a8" rx="3"/>
<text x="706.81" y="366" class="value">187.71</text>
<text x="10" y="398" class="label">cdn.cloudflare.steamstatic.com</text>
<rect x="180" y="382" width="548.38" height="22" fill="#4c78a8" rx="3"/>
<text x="736.38" y="398" class="value">198.41</text>
<text x="10" y="430" class="label">origin.com</text>
<rect x="180" y="414" width="570.13" height="22" fill="#4c78a8" rx="3"/>
<text x="758.13" y="430" class="value">206.28</text>
<text x="10" y="462" class="label">ubisoft.com</text>
<rect x="180" y="446" width="572.59" height="22" fill="#4c78a8" rx="3"/>
<text x="760.59" y="462" class="value">207.17</text>
<text x="10" y="494" class="label">unrealengine.com</text>
<rect x="180" y="478" width="580.0" height="22" fill="#4c78a8" rx="3"/>
<text x="768.0" y="494" class="value">209.85</text>
<line x1="180" y1="30" x2="180" y2="520" stroke="#ccc"/>
<line x1="180" y1="520" x2="760" y2="520" stroke="#ccc"/>
</svg>