<svg xmlns="http://www.w3.org/2000/svg" width="800" height="540">
<style> .label{font-family:DejaVu Sans,Verdana,Geneva,sans-serif;font-size:12px;fill:#333} .value{font-family:DejaVu Sans,Verdana,Geneva,sans-serif;font-size:12px;fill:#555} </style>
<text x="10" y="20" class="label">延迟柱状图（越低越好，Top 15），单位 ms</text>
<text x="10" y="46" class="label">rockstargames.com</text>
<rect x="180" y="30" width="145.47" height="22" fill="#4c78a8" rx="3"/>
<text x="333.47" y="46" class="value">53.89</text>
<text x="10" y="78" class="label">socialclub.rockstargames.com</text>
<rect x="180" y="62" width="191.6" height="22" fill="#4c78a8" rx="3"/>
<text x="379.6" y="78" class="value">70.98</text>
<text x="10" y="110" class="label">ea.com</text>
<rect x="180" y="94" width="200.72" height="22" fill="#4c78a8" rx="3"/>
<text x="388.72" y="110" class="value">74.36</text>
<text x="10" y="142" class="label">ubi.com</text>
<rect x="180" y="126" width="232.01" height="22" fill="#4c78a8" rx="3"/>
<text x="420.01" y="142" class="value">85.95</text>
<text x="10" y="174" class="label">battle.net</text>
<rect x="180" y="158" width="237.27" height="22" fill="#4c78a8" rx="3"/>
<text x="425.27" y="174" class="value">87.90</text>
<text x="10" y="206" class="label">origin.com</text>
<rect x="180" y="190" width="238.19" height="22" fill="#4c78a8" rx="3"/>
<text x="426.19" y="206" class="value">88.24</text>
<text x="10" y="238" class="label">blizzard.com</text>
<rect x="180" y="222" width="244.99" height="22" fill="#4c78a8" rx="3"/>
<text x="432.99" y="238" class="value">90.76</text>
<text x="10" y="270" class="label">eaassets-a.akamaihd.net</text>
<rect x="180" y="254" width="294.17" height="22" fill="#4c78a8" rx="3"/>
<text x="482.17" y="270" class="value">108.98</text>
<text x="10" y="302" class="label">epicgames.com</text>
<rect x="180" y="286" width="337.04" height="22" fill="#4c78a8" rx="3"/>
<text x="525.04" y="302" class="value">124.86</text>
<text x="10" y="334" class="label">unrealengine.com</text>
<rect x="180" y="318" width="339.9" height="22" fill="#4c78a8" rx="3"/>
<text x="527.9" y="334" class="value">125.92</text>
<text x="10" y="366" class="label">fortnite.com</text>
<rect x="180" y="350" width="390.59" height="22" fill="#4c78a8" rx="3"/>
<text x="578.5899999999999" y="366" class="value">144.70</text>
<text x="10" y="398" class="label">store.akamai.steamstatic.com</text>
<rect x="180" y="382" width="394.29" height="22" fill="#4c78a8" rx="3"/>
<text x="582.29" y="398" class="value">146.07</text>
<text x="10" y="430" class="label">steamcdn-a.akamaihd.net</text>
<rect x="180" y="414" width="469.41" height="22" fill="#4c78a8" rx="3"/>
<text x="657.4100000000001" y="430" class="value">173.90</text>
<text x="10" y="462" class="label">ubisoft.com</text>
<rect x="180" y="446" width="487.44" height="22" fill="#4c78a8" rx="3"/>
<text x="675.44" y="462" class="value">180.58</text>
<text x="10" y="494" class="label">launcher-public-service-prod06.ol.epicgames.com</text>
<rect x="180" y="478" width="580.0" height="22" fill="#4c78a8" rx="3"/>
<text x="768.0" y="494" class="value">214.87</text>
<line x1="180" y1="30" x2="180" y2="520" stroke="#ccc"/>
<line x1="180" y1="520" x2="760" y2="520" stroke="#ccc"/>
</svg>