<svg xmlns="http://www.w3.org/2000/svg" width="800" height="540">
<style> .label{font-family:DejaVu Sans,Verdana,Geneva,sans-serif;font-size:12px;fill:#333} .value{font-family:DejaVu Sans,Verdana,Geneva,sans-serif;font-size:12px;fill:#555} </style>
<text x="10" y="20" class="label">延迟柱状图（越低越好，Top 15），单位 ms</text>
<text x="10" y="46" class="label">rockstargames.com</text>
<rect x="180" y="30" width="168.92" height="22" fill="#4c78a8" rx="3"/>
<text x="356.91999999999996" y="46" class="value">73.85</text>
<text x="10" y="78" class="label">eaassets-a.akamaihd.net</text>
<rect x="180" y="62" width="191.06" height="22" fill="#4c78a8" rx="3"/>
<text x="379.06" y="78" class="value">83.53</text>
<text x="10" y="110" class="label">store.akamai.steamstatic.com</text>
<rect x="180" y="94" width="192.27" height="22" fill="#4c78a8" rx="3"/>
<text x="380.27" y="110" class="value">84.06</text>
<text x="10" y="142" class="label">ubisoft.com</text>
<rect x="180" y="126" width="221.32" height="22" fill="#4c78a8" rx="3"/>
<text x="409.32" y="142" class="value">96.76</text>
<text x="10" y="174" class="label">cdn.akamai.steamstatic.com</text>
<rect x="180" y="158" width="223.31" height="22" fill="#4c78a8" rx="3"/>
<text x="411.31" y="174" class="value">97.63</text>
<text x="10" y="206" class="label">ea.com</text>
<rect x="180" y="190" width="244.04" height="22" fill="#4c78a8" rx="3"/>
<text x="432.03999999999996" y="206" class="value">106.69</text>
<text x="10" y="238" class="label">community.akamai.steamstatic.com</text>
<rect x="180" y="222" width="257.76" height="22" fill="#4c78a8" rx="3"/>
<text x="445.76" y="238" class="value">112.69</text>
<text x="10" y="270" class="label">origin.com</text>
<rect x="180" y="254" width="273.7" height="22" fill="#4c78a8" rx="3"/>
<text x="461.7" y="270" class="value">119.66</text>
<text x="10" y="302" class="label">cdn.cloudflare.steamstatic.com</text>
<rect x="180" y="286" width="332.33" height="22" fill="#4c78a8" rx="3"/>
<text x="520.3299999999999" y="302" class="value">145.29</text>
<text x="10" y="334" class="label">steamcdn-a.akamaihd.net</text>
<rect x="180" y="318" width="338.3" height="22" fill="#4c78a8" rx="3"/>
<text x="526.3" y="334" class="value">147.90</text>
<text x="10" y="366" class="label">easyanticheat.net</text>
<rect x="180" y="350" width="452.66" height="22" fill="#4c78a8" rx="3"/>
<text x="640.6600000000001" y="366" class="value">197.90</text>
<text x="10" y="398" class="label">www.steamcommunity.com</text>
<rect x="180" y="382" width="510.35" height="22" fill="#4c78a8" rx="3"/>
<text x="698.35" y="398" class="value">223.12</text>
<text x="10" y="430" class="label">api.steampowered.com</text>
<rect x="180" y="414" width="513.32" height="22" fill="#4c78a8" rx="3"/>
<text x="701.32" y="430" class="value">224.42</text>
<text x="10" y="462" class="label">steam-chat.com</text>
<rect x="180" y="446" width="576.64" height="22" fill="#4c78a8" rx="3"/>
<text x="764.64" y="462" class="value">252.10</text>
<text x="10" y="494" class="label">launcher-public-service-prod06.ol.epicgames.com</text>
<rect x="180" y="478" width="580.0" height="22" fill="#4c78a8" rx="3"/>
<text x="768.0" y="494" class="value">253.57</text>
<line x1="180" y1="30" x2="180" y2="520" stroke="#ccc"/>
<line x1="180" y1="520" x2="760" y2="520" stroke="#ccc"/>
</svg>