<svg xmlns="http://www.w3.org/2000/svg" width="800" height="540">
<style> .label{font-family:DejaVu Sans,Verdana,Geneva,sans-serif;font-size:12px;fill:#333} .value{font-family:DejaVu Sans,Verdana,Geneva,sans-serif;font-size:12px;fill:#555} </style>
<text x="10" y="20" class="label">延迟柱状图（越低越好，Top 15），单位 ms</text>
<text x="10" y="46" class="label">rockstargames.com</text>
<rect x="180" y="30" width="150.6" height="22" fill="#4c78a8" rx="3"/>
<text x="338.6" y="46" class="value">66.68</text>
<text x="10" y="78" class="label">ea.com</text>
<rect x="180" y="62" width="257.94" height="22" fill="#4c78a8" rx="3"/>
<text x="445.94" y="78" class="value">114.21</text>
<text x="10" y="110" class="label">steamcdn-a.akamaihd.net</text>
<rect x="180" y="94" width="268.13" height="22" fill="#4c78a8" rx="3"/>
<text x="456.13" y="110" class="value">118.72</text>
<text x="10" y="142" class="label">store.akamai.steamstatic.com</text>
<rect x="180" y="126" width="285.77" height="22" fill="#4c78a8" rx="3"/>
<text x="473.77" y="142" class="value">126.53</text>
<text x="10" y="174" class="label">eaassets-a.akamaihd.net</text>
<rect x="180" y="158" width="298.48" height="22" fill="#4c78a8" rx="3"/>
<text x="486.48" y="174" class="value">132.16</text>
<text x="10" y="206" class="label">origin.com</text>
<rect x="180" y="190" width="348.62" height="22" fill="#4c78a8" rx="3"/>
<text x="536.62" y="206" class="value">154.36</text>
<text x="10" y="238" class="label">cdn.cloudflare.steamstatic.com</text>
<rect x="180" y="222" width="352.66" height="22" fill="#4c78a8" rx="3"/>
<text x="540.6600000000001" y="238" class="value">156.15</text>
<text x="10" y="270" class="label">cdn.akamai.steamstatic.com</text>
<rect x="180" y="254" width="354.33" height="22" fill="#4c78a8" rx="3"/>
<text x="542.3299999999999" y="270" class="value">156.89</text>
<text x="10" y="302" class="label">community.akamai.steamstatic.com</text>
<rect x="180" y="286" width="376.92" height="22" fill="#4c78a8" rx="3"/>
<text x="564.9200000000001" y="302" class="value">166.89</text>
<text x="10" y="334" class="label">easyanticheat.net</text>
<rect x="180" y="318" width="418.45" height="22" fill="#4c78a8" rx="3"/>
<text x="606.45" y="334" class="value">185.28</text>
<text x="10" y="366" class="label">www.steamcommunity.com</text>
<rect x="180" y="350" width="553.89" height="22" fill="#4c78a8" rx="3"/>
<text x="741.89" y="366" class="value">245.25</text>
<text x="10" y="398" class="label">ubi.com</text>
<rect x="180" y="382" width="555.41" height="22" fill="#4c78a8" rx="3"/>
<text x="743.41" y="398" class="value">245.92</text>
<text x="10" y="430" class="label">api.steampowered.com</text>
<rect x="180" y="414" width="577.04" height="22" fill="#4c78a8" rx="3"/>
<text x="765.04" y="430" class="value">255.50</text>
<text x="10" y="462" class="label">launcher-public-service-prod06.ol.epicgames.com</text>
<rect x="180" y="446" width="579.39" height="22" fill="#4c78a8" rx="3"/>
<text x="767.39" y="462" class="value">256.54</text>
<text x="10" y="494" class="label">ubisoft.com</text>
<rect x="180" y="478" width="580.0" height="22" fill="#4c78a8" rx="3"/>
<text x="768.0" y="494" class="value">256.81</text>
<line x1="180" y1="30" x2="180" y2="520" stroke="#ccc"/>
<line x1="180" y1="520" x2="760" y2="520" stroke="#ccc"/>
</svg>