<svg xmlns="http://www.w3.org/2000/svg" width="800" height="540">
<style> .label{font-family:DejaVu Sans,Verdana,Geneva,sans-serif;font-size:12px;fill:#333} .value{font-family:DejaVu Sans,Verdana,Geneva,sans-serif;font-size:12px;fill:#555} </style>
<text x="10" y="20" class="label">延迟柱状图（越低越好，Top 15），单位 ms</text>
<text x="10" y="46" class="label">rockstargames.com</text>
<rect x="180" y="30" width="186.36" height="22" fill="#4c78a8" rx="3"/>
<text x="374.36" y="46" class="value">71.63</text>
<text x="10" y="78" class="label">eaassets-a.akamaihd.net</text>
<rect x="180" y="62" width="228.38" height="22" fill="#4c78a8" rx="3"/>
<text x="416.38" y="78" class="value">87.78</text>
<text x="10" y="110" class="label">ea.com</text>
<rect x="180" y="94" width="229.13" height="22" fill="#4c78a8" rx="3"/>
<text x="417.13" y="110" class="value">88.07</text>
<text x="10" y="142" class="label">origin.com</text>
<rect x="180" y="126" width="282.57" height="22" fill="#4c78a8" rx="3"/>
<text x="470.57" y="142" class="value">108.61</text>
<text x="10" y="174" class="label">blizzard.com</text>
<rect x="180" y="158" width="322.95" height="22" fill="#4c78a8" rx="3"/>
<text x="510.95" y="174" class="value">124.13</text>
<text x="10" y="206" class="label">community.akamai.steamstatic.com</text>
<rect x="180" y="190" width="338.98" height="22" fill="#4c78a8" rx="3"/>
<text x="526.98" y="206" class="value">130.29</text>
<text x="10" y="238" class="label">ubi.com</text>
<rect x="180" y="222" width="373.35" height="22" fill="#4c78a8" rx="3"/>
<text x="561.35" y="238" class="value">143.50</text>
<text x="10" y="270" class="label">socialclub.rockstargames.com</text>
<rect x="180" y="254" width="408.1" height="22" fill="#4c78a8" rx="3"/>
<text x="596.1" y="270" class="value">156.86</text>
<text x="10" y="302" class="label">cdn.akamai.steamstatic.com</text>
<rect x="180" y="286" width="416.56" height="22" fill="#4c78a8" rx="3"/>
<text x="604.56" y="302" class="value">160.11</text>
<text x="10" y="334" class="label">battle.net</text>
<rect x="180" y="318" width="440.31" height="22" fill="#4c78a8" rx="3"/>
<text x="628.31" y="334" class="value">169.24</text>
<text x="10" y="366" class="label">ubisoft.com</text>
<rect x="180" y="350" width="447.86" height="22" fill="#4c78a8" rx="3"/>
<text x="635.86" y="366" class="value">172.14</text>
<text x="10" y="398" class="label">steamcdn-a.akamaihd.net</text>
<rect x="180" y="382" width="459.07" height="22" fill="#4c78a8" rx="3"/>
<text x="647.0699999999999" y="398" class="value">176.45</text>
<text x="10" y="430" class="label">store.akamai.steamstatic.com</text>
<rect x="180" y="414" width="465.34" height="22" fill="#4c78a8" rx="3"/>
<text x="653.3399999999999" y="430" class="value">178.86</text>
<text x="10" y="462" class="label">static3.cdn.ubi.com</text>
<rect x="180" y="446" width="479.44" height="22" fill="#4c78a8" rx="3"/>
<text x="667.44" y="462" class="value">184.28</text>
<text x="10" y="494" class="label">steamcommunity.com</text>
<rect x="180" y="478" width="580.0" height="22" fill="#4c78a8" rx="3"/>
<text x="768.0" y="494" class="value">222.93</text>
<line x1="180" y1="30" x2="180" y2="520" stroke="#ccc"/>
<line x1="180" y1="520" x2="760" y2="520" stroke="#ccc"/>
</svg>