<svg xmlns="http://www.w3.org/2000/svg" width="800" height="540">
<style> .label{font-family:DejaVu Sans,Verdana,Geneva,sans-serif;font-size:12px;fill:#333} .value{font-family:DejaVu Sans,Verdana,Geneva,sans-serif;font-size:12px;fill:#555} </style>
<text x="10" y="20" class="label">延迟柱状图（越低越好，Top 15），单位 ms</text>
<text x="10" y="46" class="label">eaassets-a.akamaihd.net</text>
<rect x="180" y="30" width="147.6" height="22" fill="#4c78a8" rx="3"/>
<text x="335.6" y="46" class="value">69.87</text>
<text x="10" y="78" class="label">rockstargames.com</text>
<rect x="180" y="62" width="149.23" height="22" fill="#4c78a8" rx="3"/>
<text x="337.23" y="78" class="value">70.64</text>
<text x="10" y="110" class="label">cdn.akamai.steamstatic.com</text>
<rect x="180" y="94" width="197.76" height="22" fill="#4c78a8" rx="3"/>
<text x="385.76" y="110" class="value">93.61</text>
<text x="10" y="142" class="label">steamcdn-a.akamaihd.net</text>
<rect x="180" y="126" width="237.2" height="22" fill="#4c78a8" rx="3"/>
<text x="425.2" y="142" class="value">112.28</text>
<text x="10" y="174" class="label">community.akamai.steamstatic.com</text>
<rect x="180" y="158" width="257.03" height="22" fill="#4c78a8" rx="3"/>
<text x="445.03" y="174" class="value">121.67</text>
<text x="10" y="206" class="label">ea.com</text>
<rect x="180" y="190" width="273.98" height="22" fill="#4c78a8" rx="3"/>
<text x="461.98" y="206" class="value">129.69</text>
<text x="10" y="238" class="label">store.akamai.steamstatic.com</text>
<rect x="180" y="222" width="295.61" height="22" fill="#4c78a8" rx="3"/>
<text x="483.61" y="238" class="value">139.93</text>
<text x="10" y="270" class="label">ubisoft.com</text>
<rect x="180" y="254" width="303.68" height="22" fill="#4c78a8" rx="3"/>
<text x="491.68" y="270" class="value">143.75</text>
<text x="10" y="302" class="label">easyanticheat.net</text>
<rect x="180" y="286" width="340.01" height="22" fill="#4c78a8" rx="3"/>
<text x="528.01" y="302" class="value">160.95</text>
<text x="10" y="334" class="label">origin.com</text>
<rect x="180" y="318" width="340.23" height="22" fill="#4c78a8" rx="3"/>
<text x="528.23" y="334" class="value">161.05</text>
<text x="10" y="366" class="label">cdn.cloudflare.steamstatic.com</text>
<rect x="180" y="350" width="370.48" height="22" fill="#4c78a8" rx="3"/>
<text x="558.48" y="366" class="value">175.37</text>
<text x="10" y="398" class="label">steam-chat.com</text>
<rect x="180" y="382" width="373.48" height="22" fill="#4c78a8" rx="3"/>
<text x="561.48" y="398" class="value">176.79</text>
<text x="10" y="430" class="label">www.steamcommunity.com</text>
<rect x="180" y="414" width="491.04" height="22" fill="#4c78a8" rx="3"/>
<text x="679.04" y="430" class="value">232.44</text>
<text x="10" y="462" class="label">steamcommunity.com</text>
<rect x="180" y="446" width="531.16" height="22" fill="#4c78a8" rx="3"/>
<text x="719.16" y="462" class="value">251.43</text>
<text x="10" y="494" class="label">launcher-public-service-prod06.ol.epicgames.com</text>
<rect x="180" y="478" width="580.0" height="22" fill="#4c78a8" rx="3"/>
<text x="768.0" y="494" class="value">274.55</text>
<line x1="180" y1="30" x2="180" y2="520" stroke="#ccc"/>
<line x1="180" y1="520" x2="760" y2="520" stroke="#ccc"/>
</svg>