<svg xmlns="http://www.w3.org/2000/svg" width="800" height="540">
<style> .label{font-family:DejaVu Sans,Verdana,Geneva,sans-serif;font-size:12px;fill:#333} .value{font-family:DejaVu Sans,Verdana,Geneva,sans-serif;font-size:12px;fill:#555} </style>
<text x="10" y="20" class="label">延迟柱状图（越低越好，Top 15），单位 ms</text>
<text x="10" y="46" class="label">eaassets-a.akamaihd.net</text>
<rect x="180" y="30" width="215.62" height="22" fill="#4c78a8" rx="3"/>
<text x="403.62" y="46" class="value">69.02</text>
<text x="10" y="78" class="label">rockstargames.com</text>
<rect x="180" y="62" width="222.33" height="22" fill="#4c78a8" rx="3"/>
<text x="410.33000000000004" y="78" class="value">71.17</text>
<text x="10" y="110" class="label">socialclub.rockstargames.com</text>
<rect x="180" y="94" width="233.24" height="22" fill="#4c78a8" rx="3"/>
<text x="421.24" y="110" class="value">74.66</text>
<text x="10" y="142" class="label">epicgames.com</text>
<rect x="180" y="126" width="243.52" height="22" fill="#4c78a8" rx="3"/>
<text x="431.52" y="142" class="value">77.95</text>
<text x="10" y="174" class="label">battle.net</text>
<rect x="180" y="158" width="257.98" height="22" fill="#4c78a8" rx="3"/>
<text x="445.98" y="174" class="value">82.58</text>
<text x="10" y="206" class="label">blizzard.com</text>
<rect x="180" y="190" width="263.29" height="22" fill="#4c78a8" rx="3"/>
<text x="451.29" y="206" class="value">84.28</text>
<text x="10" y="238" class="label">ubisoft.com</text>
<rect x="180" y="222" width="317.21" height="22" fill="#4c78a8" rx="3"/>
<text x="505.21" y="238" class="value">101.54</text>
<text x="10" y="270" class="label">cdn.akamai.steamstatic.com</text>
<rect x="180" y="254" width="327.52" height="22" fill="#4c78a8" rx="3"/>
<text x="515.52" y="270" class="value">104.84</text>
<text x="10" y="302" class="label">fortnite.com</text>
<rect x="180" y="286" width="349.48" height="22" fill="#4c78a8" rx="3"/>
<text x="537.48" y="302" class="value">111.87</text>
<text x="10" y="334" class="label">unrealengine.com</text>
<rect x="180" y="318" width="377.72" height="22" fill="#4c78a8" rx="3"/>
<text x="565.72" y="334" class="value">120.91</text>
<text x="10" y="366" class="label">ubi.com</text>
<rect x="180" y="350" width="427.67" height="22" fill="#4c78a8" rx="3"/>
<text x="615.6700000000001" y="366" class="value">136.90</text>
<text x="10" y="398" class="label">ea.com</text>
<rect x="180" y="382" width="472.57" height="22" fill="#4c78a8" rx="3"/>
<text x="660.5699999999999" y="398" class="value">151.27</text>
<text x="10" y="430" class="label">store.akamai.steamstatic.com</text>
<rect x="180" y="414" width="489.84" height="22" fill="#4c78a8" rx="3"/>
<text x="677.8399999999999" y="430" class="value">156.80</text>
<text x="10" y="462" class="label">community.akamai.steamstatic.com</text>
<rect x="180" y="446" width="569.07" height="22" fill="#4c78a8" rx="3"/>
<text x="757.07" y="462" class="value">182.16</text>
<text x="10" y="494" class="label">steamcdn-a.akamaihd.net</text>
<rect x="180" y="478" width="580.0" height="22" fill="#4c78a8" rx="3"/>
<text x="768.0" y="494" class="value">185.66</text>
<line x1="180" y1="30" x2="180" y2="520" stroke="#ccc"/>
<line x1="180" y1="520" x2="760" y2="520" stroke="#ccc"/>
</svg>