<svg xmlns="http://www.w3.org/2000/svg" width="800" height="540">
<style> .label{font-family:DejaVu Sans,Verdana,Geneva,sans-serif;font-size:12px;fill:#333} .value{font-family:DejaVu Sans,Verdana,Geneva,sans-serif;font-size:12px;fill:#555} </style>
<text x="10" y="20" class="label">延迟柱状图（越低越好，Top 15），单位 ms</text>
<text x="10" y="46" class="label">ea.com</text>
<rect x="180" y="30" width="169.24" height="22" fill="#4c78a8" rx="3"/>
<text x="357.24" y="46" class="value">67.57</text>
<text x="10" y="78" class="label">origin.com</text>
<rect x="180" y="62" width="203.75" height="22" fill="#4c78a8" rx="3"/>
<text x="391.75" y="78" class="value">81.35</text>
<text x="10" y="110" class="label">rockstargames.com</text>
<rect x="180" y="94" width="215.85" height="22" fill="#4c78a8" rx="3"/>
<text x="403.85" y="110" class="value">86.18</text>
<text x="10" y="142" class="label">eaassets-a.akamaihd.net</text>
<rect x="180" y="126" width="223.39" height="22" fill="#4c78a8" rx="3"/>
<text x="411.39" y="142" class="value">89.19</text>
<text x="10" y="174" class="label">store.akamai.steamstatic.com</text>
<rect x="180" y="158" width="303.56" height="22" fill="#4c78a8" rx="3"/>
<text x="491.56" y="174" class="value">121.20</text>
<text x="10" y="206" class="label">blizzard.com</text>
<rect x="180" y="190" width="306.57" height="22" fill="#4c78a8" rx="3"/>
<text x="494.57" y="206" class="value">122.40</text>
<text x="10" y="238" class="label">battle.net</text>
<rect x="180" y="222" width="325.3" height="22" fill="#4c78a8" rx="3"/>
<text x="513.3" y="238" class="value">129.88</text>
<text x="10" y="270" class="label">socialclub.rockstargames.com</text>
<rect x="180" y="254" width="350.1" height="22" fill="#4c78a8" rx="3"/>
<text x="538.1" y="270" class="value">139.78</text>
<text x="10" y="302" class="label">ubi.com</text>
<rect x="180" y="286" width="379.98" height="22" fill="#4c78a8" rx="3"/>
<text x="567.98" y="302" class="value">151.71</text>
<text x="10" y="334" class="label">cdn.akamai.steamstatic.com</text>
<rect x="180" y="318" width="505.74" height="22" fill="#4c78a8" rx="3"/>
<text x="693.74" y="334" class="value">201.92</text>
<text x="10" y="366" class="label">gog.com</text>
<rect x="180" y="350" width="516.26" height="22" fill="#4c78a8" rx="3"/>
<text x="704.26" y="366" class="value">206.12</text>
<text x="10" y="398" class="label">static3.cdn.ubi.com</text>
<rect x="180" y="382" width="537.12" height="22" fill="#4c78a8" rx="3"/>
<text x="725.12" y="398" class="value">214.45</text>
<text x="10" y="430" class="label">community.akamai.steamstatic.com</text>
<rect x="180" y="414" width="546.01" height="22" fill="#4c78a8" rx="3"/>
<text x="734.01" y="430" class="value">218.00</text>
<text x="10" y="462" class="label">steamcdn-a.akamaihd.net</text>
<rect x="180" y="446" width="546.91" height="22" fill="#4c78a8" rx="3"/>
<text x="734.91" y="462" class="value">218.36</text>
<text x="10" y="494" class="label">ubisoft.com</text>
<rect x="180" y="478" width="580.0" height="22" fill="#4c78a8" rx="3"/>
<text x="768.0" y="494" class="value">231.57</text>
<line x1="180" y1="30" x2="180" y2="520" stroke="#ccc"/>
<line x1="180" y1="520" x2="760" y2="520" stroke="#ccc"/>
</svg>