<svg xmlns="http://www.w3.org/2000/svg" width="800" height="540">
<style> .label{font-family:DejaVu Sans,Verdana,Geneva,sans-serif;font-size:12px;fill:#333} .value{font-family:DejaVu Sans,Verdana,Geneva,sans-serif;font-size:12px;fill:#555} </style>
<text x="10" y="20" class="label">延迟柱状图（越低越好，Top 15），单位 ms</text>
<text x="10" y="46" class="label">eaassets-a.akamaihd.net</text>
<rect x="180" y="30" width="174.86" height="22" fill="#4c78a8" rx="3"/>
<text x="362.86" y="46" class="value">55.01</text>
<text x="10" y="78" class="label">rockstargames.com</text>
<rect x="180" y="62" width="200.95" height="22" fill="#4c78a8" rx="3"/>
<text x="388.95" y="78" class="value">63.22</text>
<text x="10" y="110" class="label">steamcdn-a.akamaihd.net</text>
<rect x="180" y="94" width="290.68" height="22" fill="#4c78a8" rx="3"/>
<text x="478.68" y="110" class="value">91.45</text>
<text x="10" y="142" class="label">origin.com</text>
<rect x="180" y="126" width="330.48" height="22" fill="#4c78a8" rx="3"/>
<text x="518.48" y="142" class="value">103.97</text>
<text x="10" y="174" class="label">ubi.com</text>
<rect x="180" y="158" width="382.13" height="22" fill="#4c78a8" rx="3"/>
<text x="570.13" y="174" class="value">120.22</text>
<text x="10" y="206" class="label">socialclub.rockstargames.com</text>
<rect x="180" y="190" width="443.29" height="22" fill="#4c78a8" rx="3"/>
<text x="631.29" y="206" class="value">139.46</text>
<text x="10" y="238" class="label">cdn.akamai.steamstatic.com</text>
<rect x="180" y="222" width="445.74" height="22" fill="#4c78a8" rx="3"/>
<text x="633.74" y="238" class="value">140.23</text>
<text x="10" y="270" class="label">battle.net</text>
<rect x="180" y="254" width="449.96" height="22" fill="#4c78a8" rx="3"/>
<text x="637.96" y="270" class="value">141.56</text>
<text x="10" y="302" class="label">blizzard.com</text>
<rect x="180" y="286" width="450.22" height="22" fill="#4c78a8" rx="3"/>
<text x="638.22" y="302" class="value">141.64</text>
<text x="10" y="334" class="label">community.akamai.steamstatic.com</text>
<rect x="180" y="318" width="454.13" height="22" fill="#4c78a8" rx="3"/>
<text x="642.13" y="334" class="value">142.87</text>
<text x="10" y="366" class="label">store.akamai.steamstatic.com</text>
<rect x="180" y="350" width="463.92" height="22" fill="#4c78a8" rx="3"/>
<text x="651.9200000000001" y="366" class="value">145.95</text>
<text x="10" y="398" class="label">static3.cdn.ubi.com</text>
<rect x="180" y="382" width="468.62" height="22" fill="#4c78a8" rx="3"/>
<text x="656.62" y="398" class="value">147.43</text>
<text x="10" y="430" class="label">ea.com</text>
<rect x="180" y="414" width="469.64" height="22" fill="#4c78a8" rx="3"/>
<text x="657.64" y="430" class="value">147.75</text>
<text x="10" y="462" class="label">easyanticheat.net</text>
<rect x="180" y="446" width="561.37" height="22" fill="#4c78a8" rx="3"/>
<text x="749.37" y="462" class="value">176.61</text>
<text x="10" y="494" class="label">ubisoft.com</text>
<rect x="180" y="478" width="580.0" height="22" fill="#4c78a8" rx="3"/>
<text x="768.0" y="494" class="value">182.47</text>
<line x1="180" y1="30" x2="180" y2="520" stroke="#ccc"/>
<line x1="180" y1="520" x2="760" y2="520" stroke="#ccc"/>
</svg>