<svg xmlns="http://www.w3.org/2000/svg" width="800" height="540">
<style> .label{font-family:DejaVu Sans,Verdana,Geneva,sans-serif;font-size:12px;fill:#333} .value{font-family:DejaVu Sans,Verdana,Geneva,sans-serif;font-size:12px;fill:#555} </style>
<text x="10" y="20" class="label">延迟柱状图（越低越好，Top 15），单位 ms</text>
<text x="10" y="46" class="label">rockstargames.com</text>
<rect x="180" y="30" width="142.94" height="22" fill="#4c78a8" rx="3"/>
<text x="330.94" y="46" class="value">65.53</text>
<text x="10" y="78" class="label">eaassets-a.akamaihd.net</text>
<rect x="180" y="62" width="238.5" height="22" fill="#4c78a8" rx="3"/>
<text x="426.5" y="78" class="value">109.34</text>
<text x="10" y="110" class="label">ea.com</text>
<rect x="180" y="94" width="267.75" height="22" fill="#4c78a8" rx="3"/>
<text x="455.75" y="110" class="value">122.75</text>
<text x="10" y="142" class="label">steamcdn-a.akamaihd.net</text>
<rect x="180" y="126" width="273.71" height="22" fill="#4c78a8" rx="3"/>
<text x="461.71" y="142" class="value">125.48</text>
<text x="10" y="174" class="label">store.akamai.steamstatic.com</text>
<rect x="180" y="158" width="279.44" height="22" fill="#4c78a8" rx="3"/>
<text x="467.44" y="174" class="value">128.11</text>
<text x="10" y="206" class="label">origin.com</text>
<rect x="180" y="190" width="349.29" height="22" fill="#4c78a8" rx="3"/>
<text x="537.29" y="206" class="value">160.13</text>
<text x="10" y="238" class="label">cdn.cloudflare.steamstatic.com</text>
<rect x="180" y="222" width="356.18" height="22" fill="#4c78a8" rx="3"/>
<text x="544.1800000000001" y="238" class="value">163.29</text>
<text x="10" y="270" class="label">community.akamai.steamstatic.com</text>
<rect x="180" y="254" width="357.1" height="22" fill="#4c78a8" rx="3"/>
<text x="545.1" y="270" class="value">163.71</text>
<text x="10" y="302" class="label">cdn.akamai.steamstatic.com</text>
<rect x="180" y="286" width="452.92" height="22" fill="#4c78a8" rx="3"/>
<text x="640.9200000000001" y="302" class="value">207.64</text>
<text x="10" y="334" class="label">easyanticheat.net</text>
<rect x="180" y="318" width="457.39" height="22" fill="#4c78a8" rx="3"/>
<text x="645.39" y="334" class="value">209.69</text>
<text x="10" y="366" class="label">steam-chat.com</text>
<rect x="180" y="350" width="495.82" height="22" fill="#4c78a8" rx="3"/>
<text x="683.8199999999999" y="366" class="value">227.31</text>
<text x="10" y="398" class="label">ubi.com</text>
<rect x="180" y="382" width="510.48" height="22" fill="#4c78a8" rx="3"/>
<text x="698.48" y="398" class="value">234.03</text>
<text x="10" y="430" class="label">ubisoft.com</text>
<rect x="180" y="414" width="537.84" height="22" fill="#4c78a8" rx="3"/>
<text x="725.84" y="430" class="value">246.57</text>
<text x="10" y="462" class="label">steamcommunity.com</text>
<rect x="180" y="446" width="541.11" height="22" fill="#4c78a8" rx="3"/>
<text x="729.11" y="462" class="value">248.07</text>
<text x="10" y="494" class="label">launcher-public-service-prod06.ol.epicgames.com</text>
<rect x="180" y="478" width="580.0" height="22" fill="#4c78a8" rx="3"/>
<text x="768.0" y="494" class="value">265.90</text>
<line x1="180" y1="30" x2="180" y2="520" stroke="#ccc"/>
<line x1="180" y1="520" x2="760" y2="520" stroke="#ccc"/>
</svg>