<svg xmlns="http://www.w3.org/2000/svg" width="800" height="540">
<style> .label{font-family:DejaVu Sans,Verdana,Geneva,sans-serif;font-size:12px;fill:#333} .value{font-family:DejaVu Sans,Verdana,Geneva,sans-serif;font-size:12px;fill:#555} </style>
<text x="10" y="20" class="label">延迟柱状图（越低越好，Top 15），单位 ms</text>
<text x="10" y="46" class="label">rockstargames.com</text>
<rect x="180" y="30" width="213.12" height="22" fill="#4c78a8" rx="3"/>
<text x="401.12" y="46" class="value">70.30</text>
<text x="10" y="78" class="label">eaassets-a.akamaihd.net</text>
<rect x="180" y="62" width="219.12" height="22" fill="#4c78a8" rx="3"/>
<text x="407.12" y="78" class="value">72.28</text>
<text x="10" y="110" class="label">ubi.com</text>
<rect x="180" y="94" width="257.47" height="22" fill="#4c78a8" rx="3"/>
<text x="445.47" y="110" class="value">84.93</text>
<text x="10" y="142" class="label">ubisoft.com</text>
<rect x="180" y="126" width="284.79" height="22" fill="#4c78a8" rx="3"/>
<text x="472.79" y="142" class="value">93.94</text>
<text x="10" y="174" class="label">origin.com</text>
<rect x="180" y="158" width="293.91" height="22" fill="#4c78a8" rx="3"/>
<text x="481.91" y="174" class="value">96.95</text>
<text x="10" y="206" class="label">socialclub.rockstargames.com</text>
<rect x="180" y="190" width="329.71" height="22" fill="#4c78a8" rx="3"/>
<text x="517.71" y="206" class="value">108.76</text>
<text x="10" y="238" class="label">battle.net</text>
<rect x="180" y="222" width="363.73" height="22" fill="#4c78a8" rx="3"/>
<text x="551.73" y="238" class="value">119.98</text>
<text x="10" y="270" class="label">blizzard.com</text>
<rect x="180" y="254" width="389.16" height="22" fill="#4c78a8" rx="3"/>
<text x="577.1600000000001" y="270" class="value">128.37</text>
<text x="10" y="302" class="label">epicgames.com</text>
<rect x="180" y="286" width="411.2" height="22" fill="#4c78a8" rx="3"/>
<text x="599.2" y="302" class="value">135.64</text>
<text x="10" y="334" class="label">unrealengine.com</text>
<rect x="180" y="318" width="465.32" height="22" fill="#4c78a8" rx="3"/>
<text x="653.3199999999999" y="334" class="value">153.49</text>
<text x="10" y="366" class="label">ea.com</text>
<rect x="180" y="350" width="485.26" height="22" fill="#4c78a8" rx="3"/>
<text x="673.26" y="366" class="value">160.07</text>
<text x="10" y="398" class="label">store.akamai.steamstatic.com</text>
<rect x="180" y="382" width="541.35" height="22" fill="#4c78a8" rx="3"/>
<text x="729.35" y="398" class="value">178.57</text>
<text x="10" y="430" class="label">api.steampowered.com</text>
<rect x="180" y="414" width="554.78" height="22" fill="#4c78a8" rx="3"/>
<text x="742.78" y="430" class="value">183.00</text>
<text x="10" y="462" class="label">community.akamai.steamstatic.com</text>
<rect x="180" y="446" width="569.51" height="22" fill="#4c78a8" rx="3"/>
<text x="757.51" y="462" class="value">187.86</text>
<text x="10" y="494" class="label">static3.cdn.ubi.com</text>
<rect x="180" y="478" width="580.0" height="22" fill="#4c78a8" rx="3"/>
<text x="768.0" y="494" class="value">191.32</text>
<line x1="180" y1="30" x2="180" y2="520" stroke="#ccc"/>
<line x1="180" y1="520" x2="760" y2="520" stroke="#ccc"/>
</svg>