<svg xmlns="http://www.w3.org/2000/svg" width="800" height="540">
<style> .label{font-family:DejaVu Sans,Verdana,Geneva,sans-serif;font-size:12px;fill:#333} .value{font-family:DejaVu Sans,Verdana,Geneva,sans-serif;font-size:12px;fill:#555} </style>
<text x="10" y="20" class="label">延迟柱状图（越低越好，Top 15），单位 ms</text>
<text x="10" y="46" class="label">rockstargames.com</text>
<rect x="180" y="30" width="83.5" height="22" fill="#4c78a8" rx="3"/>
<text x="271.5" y="46" class="value">37.99</text>
<text x="10" y="78" class="label">eaassets-a.akamaihd.net</text>
<rect x="180" y="62" width="108.03" height="22" fill="#4c78a8" rx="3"/>
<text x="296.03" y="78" class="value">49.15</text>
<text x="10" y="110" class="label">ea.com</text>
<rect x="180" y="94" width="151.64" height="22" fill="#4c78a8" rx="3"/>
<text x="339.64" y="110" class="value">68.99</text>
<text x="10" y="142" class="label">ubisoft.com</text>
<rect x="180" y="126" width="179.41" height="22" fill="#4c78a8" rx="3"/>
<text x="367.40999999999997" y="142" class="value">81.62</text>
<text x="10" y="174" class="label">steamcdn-a.akamaihd.net</text>
<rect x="180" y="158" width="357.93" height="22" fill="#4c78a8" rx="3"/>
<text x="545.9300000000001" y="174" class="value">162.84</text>
<text x="10" y="206" class="label">cdn.cloudflare.steamstatic.com</text>
<rect x="180" y="190" width="364.37" height="22" fill="#4c78a8" rx="3"/>
<text x="552.37" y="206" class="value">165.77</text>
<text x="10" y="238" class="label">origin.com</text>
<rect x="180" y="222" width="364.94" height="22" fill="#4c78a8" rx="3"/>
<text x="552.94" y="238" class="value">166.03</text>
<text x="10" y="270" class="label">easyanticheat.net</text>
<rect x="180" y="254" width="377.16" height="22" fill="#4c78a8" rx="3"/>
<text x="565.1600000000001" y="270" class="value">171.59</text>
<text x="10" y="302" class="label">community.akamai.steamstatic.com</text>
<rect x="180" y="286" width="398.29" height="22" fill="#4c78a8" rx="3"/>
<text x="586.29" y="302" class="value">181.20</text>
<text x="10" y="334" class="label">cdn.akamai.steamstatic.com</text>
<rect x="180" y="318" width="438.91" height="22" fill="#4c78a8" rx="3"/>
<text x="626.9100000000001" y="334" class="value">199.68</text>
<text x="10" y="366" class="label">store.akamai.steamstatic.com</text>
<rect x="180" y="350" width="459.99" height="22" fill="#4c78a8" rx="3"/>
<text x="647.99" y="366" class="value">209.27</text>
<text x="10" y="398" class="label">www.steamcommunity.com</text>
<rect x="180" y="382" width="507.68" height="22" fill="#4c78a8" rx="3"/>
<text x="695.6800000000001" y="398" class="value">230.97</text>
<text x="10" y="430" class="label">launcher-public-service-prod06.ol.epicgames.com</text>
<rect x="180" y="414" width="541.14" height="22" fill="#4c78a8" rx="3"/>
<text x="729.14" y="430" class="value">246.19</text>
<text x="10" y="462" class="label">api.steampowered.com</text>
<rect x="180" y="446" width="546.08" height="22" fill="#4c78a8" rx="3"/>
<text x="734.08" y="462" class="value">248.44</text>
<text x="10" y="494" class="label">steam-chat.com</text>
<rect x="180" y="478" width="580.0" height="22" fill="#4c78a8" rx="3"/>
<text x="768.0" y="494" class="value">263.87</text>
<line x1="180" y1="30" x2="180" y2="520" stroke="#ccc"/>
<line x1="180" y1="520" x2="760" y2="520" stroke="#ccc"/>
</svg>