<svg xmlns="http://www.w3.org/2000/svg" width="800" height="540">
<style> .label{font-family:DejaVu Sans,Verdana,Geneva,sans-serif;font-size:12px;fill:#333} .value{font-family:DejaVu Sans,Verdana,Geneva,sans-serif;font-size:12px;fill:#555} </style>
<text x="10" y="20" class="label">延迟柱状图（越低越好，Top 15），单位 ms</text>
<text x="10" y="46" class="label">easyanticheat.net</text>
<rect x="180" y="30" width="346.43" height="22" fill="#4c78a8" rx="3"/>
<text x="534.4300000000001" y="46" class="value">122.76</text>
<text x="10" y="78" class="label">rockstargames.com</text>
<rect x="180" y="62" width="382.18" height="22" fill="#4c78a8" rx="3"/>
<text x="570.1800000000001" y="78" class="value">135.43</text>
<text x="10" y="110" class="label">steamcdn-a.akamaihd.net</text>
<rect x="180" y="94" width="388.61" height="22" fill="#4c78a8" rx="3"/>
<text x="576.61" y="110" class="value">137.71</text>
<text x="10" y="142" class="label">unrealengine.com</text>
<rect x="180" y="126" width="423.86" height="22" fill="#4c78a8" rx="3"/>
<text x="611.86" y="142" class="value">150.20</text>
<text x="10" y="174" class="label">store.akamai.steamstatic.com</text>
<rect x="180" y="158" width="434.95" height="22" fill="#4c78a8" rx="3"/>
<text x="622.95" y="174" class="value">154.13</text>
<text x="10" y="206" class="label">fortnite.com</text>
<rect x="180" y="190" width="451.12" height="22" fill="#4c78a8" rx="3"/>
<text x="639.12" y="206" class="value">159.86</text>
<text x="10" y="238" class="label">eaassets-a.akamaihd.net</text>
<rect x="180" y="222" width="476.07" height="22" fill="#4c78a8" rx="3"/>
<text x="664.0699999999999" y="238" class="value">168.70</text>
<text x="10" y="270" class="label">epicgames.com</text>
<rect x="180" y="254" width="494.18" height="22" fill="#4c78a8" rx="3"/>
<text x="682.1800000000001" y="270" class="value">175.12</text>
<text x="10" y="302" class="label">ubi.com</text>
<rect x="180" y="286" width="499.29" height="22" fill="#4c78a8" rx="3"/>
<text x="687.29" y="302" class="value">176.93</text>
<text x="10" y="334" class="label">cdn.akamai.steamstatic.com</text>
<rect x="180" y="318" width="541.28" height="22" fill="#4c78a8" rx="3"/>
<text x="729.28" y="334" class="value">191.81</text>
<text x="10" y="366" class="label">socialclub.rockstargames.com</text>
<rect x="180" y="350" width="547.69" height="22" fill="#4c78a8" rx="3"/>
<text x="735.69" y="366" class="value">194.08</text>
<text x="10" y="398" class="label">launcher-public-service-prod06.ol.epicgames.com</text>
<rect x="180" y="382" width="550.06" height="22" fill="#4c78a8" rx="3"/>
<text x="738.06" y="398" class="value">194.92</text>
<text x="10" y="430" class="label">battle.net</text>
<rect x="180" y="414" width="554.86" height="22" fill="#4c78a8" rx="3"/>
<text x="742.86" y="430" class="value">196.62</text>
<text x="10" y="462" class="label">blizzard.com</text>
<rect x="180" y="446" width="574.36" height="22" fill="#4c78a8" rx="3"/>
<text x="762.36" y="462" class="value">203.53</text>
<text x="10" y="494" class="label">cdn.cloudflare.steamstatic.com</text>
<rect x="180" y="478" width="580.0" height="22" fill="#4c78a8" rx="3"/>
<text x="768.0" y="494" class="value">205.53</text>
<line x1="180" y1="30" x2="180" y2="520" stroke="#ccc"/>
<line x1="180" y1="520" x2="760" y2="520" stroke="#ccc"/>
</svg>