<svg xmlns="http://www.w3.org/2000/svg" width="800" height="540">
<style> .label{font-family:DejaVu Sans,Verdana,Geneva,sans-serif;font-size:12px;fill:#333} .value{font-family:DejaVu Sans,Verdana,Geneva,sans-serif;font-size:12px;fill:#555} </style>
<text x="10" y="20" class="label">延迟柱状图（越低越好，Top 15），单位 ms</text>
<text x="10" y="46" class="label">eaassets-a.akamaihd.net</text>
<rect x="180" y="30" width="147.66" height="22" fill="#4c78a8" rx="3"/>
<text x="335.65999999999997" y="46" class="value">55.27</text>
<text x="10" y="78" class="label">rockstargames.com</text>
<rect x="180" y="62" width="156.37" height="22" fill="#4c78a8" rx="3"/>
<text x="344.37" y="78" class="value">58.53</text>
<text x="10" y="110" class="label">socialclub.rockstargames.com</text>
<rect x="180" y="94" width="221.95" height="22" fill="#4c78a8" rx="3"/>
<text x="409.95" y="110" class="value">83.08</text>
<text x="10" y="142" class="label">unrealengine.com</text>
<rect x="180" y="126" width="226.36" height="22" fill="#4c78a8" rx="3"/>
<text x="414.36" y="142" class="value">84.73</text>
<text x="10" y="174" class="label">blizzard.com</text>
<rect x="180" y="158" width="246.85" height="22" fill="#4c78a8" rx="3"/>
<text x="434.85" y="174" class="value">92.40</text>
<text x="10" y="206" class="label">battle.net</text>
<rect x="180" y="190" width="254.57" height="22" fill="#4c78a8" rx="3"/>
<text x="442.57" y="206" class="value">95.29</text>
<text x="10" y="238" class="label">ubi.com</text>
<rect x="180" y="222" width="264.14" height="22" fill="#4c78a8" rx="3"/>
<text x="452.14" y="238" class="value">98.87</text>
<text x="10" y="270" class="label">ea.com</text>
<rect x="180" y="254" width="370.9" height="22" fill="#4c78a8" rx="3"/>
<text x="558.9" y="270" class="value">138.83</text>
<text x="10" y="302" class="label">origin.com</text>
<rect x="180" y="286" width="386.36" height="22" fill="#4c78a8" rx="3"/>
<text x="574.36" y="302" class="value">144.62</text>
<text x="10" y="334" class="label">epicgames.com</text>
<rect x="180" y="318" width="399.16" height="22" fill="#4c78a8" rx="3"/>
<text x="587.1600000000001" y="334" class="value">149.41</text>
<text x="10" y="366" class="label">fortnite.com</text>
<rect x="180" y="350" width="471.75" height="22" fill="#4c78a8" rx="3"/>
<text x="659.75" y="366" class="value">176.58</text>
<text x="10" y="398" class="label">community.akamai.steamstatic.com</text>
<rect x="180" y="382" width="485.48" height="22" fill="#4c78a8" rx="3"/>
<text x="673.48" y="398" class="value">181.72</text>
<text x="10" y="430" class="label">store.akamai.steamstatic.com</text>
<rect x="180" y="414" width="539.29" height="22" fill="#4c78a8" rx="3"/>
<text x="727.29" y="430" class="value">201.86</text>
<text x="10" y="462" class="label">ubisoft.com</text>
<rect x="180" y="446" width="563.22" height="22" fill="#4c78a8" rx="3"/>
<text x="751.22" y="462" class="value">210.82</text>
<text x="10" y="494" class="label">gog.com</text>
<rect x="180" y="478" width="580.0" height="22" fill="#4c78a8" rx="3"/>
<text x="768.0" y="494" class="value">217.10</text>
<line x1="180" y1="30" x2="180" y2="520" stroke="#ccc"/>
<line x1="180" y1="520" x2="760" y2="520" stroke="#ccc"/>
</svg>