<svg xmlns="http://www.w3.org/2000/svg" width="800" height="540">
<style> .label{font-family:DejaVu Sans,Verdana,Geneva,sans-serif;font-size:12px;fill:#333} .value{font-family:DejaVu Sans,Verdana,Geneva,sans-serif;font-size:12px;fill:#555} </style>
<text x="10" y="20" class="label">延迟柱状图（越低越好，Top 15），单位 ms</text>
<text x="10" y="46" class="label">rockstargames.com</text>
<rect x="180" y="30" width="145.05" height="22" fill="#4c78a8" rx="3"/>
<text x="333.05" y="46" class="value">71.13</text>
<text x="10" y="78" class="label">ubisoft.com</text>
<rect x="180" y="62" width="207.79" height="22" fill="#4c78a8" rx="3"/>
<text x="395.78999999999996" y="78" class="value">101.90</text>
<text x="10" y="110" class="label">eaassets-a.akamaihd.net</text>
<rect x="180" y="94" width="241.74" height="22" fill="#4c78a8" rx="3"/>
<text x="429.74" y="110" class="value">118.55</text>
<text x="10" y="142" class="label">community.akamai.steamstatic.com</text>
<rect x="180" y="126" width="379.86" height="22" fill="#4c78a8" rx="3"/>
<text x="567.86" y="142" class="value">186.28</text>
<text x="10" y="174" class="label">ea.com</text>
<rect x="180" y="158" width="384.38" height="22" fill="#4c78a8" rx="3"/>
<text x="572.38" y="174" class="value">188.50</text>
<text x="10" y="206" class="label">origin.com</text>
<rect x="180" y="190" width="393.05" height="22" fill="#4c78a8" rx="3"/>
<text x="581.05" y="206" class="value">192.75</text>
<text x="10" y="238" class="label">cdn.akamai.steamstatic.com</text>
<rect x="180" y="222" width="397.33" height="22" fill="#4c78a8" rx="3"/>
<text x="585.3299999999999" y="238" class="value">194.85</text>
<text x="10" y="270" class="label">steamcdn-a.akamaihd.net</text>
<rect x="180" y="254" width="409.79" height="22" fill="#4c78a8" rx="3"/>
<text x="597.79" y="270" class="value">200.96</text>
<text x="10" y="302" class="label">cdn.cloudflare.steamstatic.com</text>
<rect x="180" y="286" width="410.34" height="22" fill="#4c78a8" rx="3"/>
<text x="598.3399999999999" y="302" class="value">201.23</text>
<text x="10" y="334" class="label">store.akamai.steamstatic.com</text>
<rect x="180" y="318" width="453.61" height="22" fill="#4c78a8" rx="3"/>
<text x="641.61" y="334" class="value">222.45</text>
<text x="10" y="366" class="label">easyanticheat.net</text>
<rect x="180" y="350" width="499.19" height="22" fill="#4c78a8" rx="3"/>
<text x="687.19" y="366" class="value">244.80</text>
<text x="10" y="398" class="label">www.steamcommunity.com</text>
<rect x="180" y="382" width="541.56" height="22" fill="#4c78a8" rx="3"/>
<text x="729.56" y="398" class="value">265.58</text>
<text x="10" y="430" class="label">steam-chat.com</text>
<rect x="180" y="414" width="561.81" height="22" fill="#4c78a8" rx="3"/>
<text x="749.81" y="430" class="value">275.51</text>
<text x="10" y="462" class="label">api.steampowered.com</text>
<rect x="180" y="446" width="578.37" height="22" fill="#4c78a8" rx="3"/>
<text x="766.37" y="462" class="value">283.63</text>
<text x="10" y="494" class="label">ubi.com</text>
<rect x="180" y="478" width="580.0" height="22" fill="#4c78a8" rx="3"/>
<text x="768.0" y="494" class="value">284.43</text>
<line x1="180" y1="30" x2="180" y2="520" stroke="#ccc"/>
<line x1="180" y1="520" x2="760" y2="520" stroke="#ccc"/>
</svg>