<svg xmlns="http://www.w3.org/2000/svg" width="800" height="540">
<style> .label{font-family:DejaVu Sans,Verdana,Geneva,sans-serif;font-size:12px;fill:#333} .value{font-family:DejaVu Sans,Verdana,Geneva,sans-serif;font-size:12px;fill:#555} </style>
<text x="10" y="20" class="label">延迟柱状图（越低越好，Top 15），单位 ms</text>
<text x="10" y="46" class="label">ea.com</text>
<rect x="180" y="30" width="114.29" height="22" fill="#4c78a8" rx="3"/>
<text x="302.29" y="46" class="value">56.74</text>
<text x="10" y="78" class="label">rockstargames.com</text>
<rect x="180" y="62" width="124.88" height="22" fill="#4c78a8" rx="3"/>
<text x="312.88" y="78" class="value">62.00</text>
<text x="10" y="110" class="label">eaassets-a.akamaihd.net</text>
<rect x="180" y="94" width="228.68" height="22" fill="#4c78a8" rx="3"/>
<text x="416.68" y="110" class="value">113.53</text>
<text x="10" y="142" class="label">ubisoft.com</text>
<rect x="180" y="126" width="230.09" height="22" fill="#4c78a8" rx="3"/>
<text x="418.09000000000003" y="142" class="value">114.23</text>
<text x="10" y="174" class="label">origin.com</text>
<rect x="180" y="158" width="233.99" height="22" fill="#4c78a8" rx="3"/>
<text x="421.99" y="174" class="value">116.17</text>
<text x="10" y="206" class="label">store.akamai.steamstatic.com</text>
<rect x="180" y="190" width="236.59" height="22" fill="#4c78a8" rx="3"/>
<text x="424.59000000000003" y="206" class="value">117.46</text>
<text x="10" y="238" class="label">steamcdn-a.akamaihd.net</text>
<rect x="180" y="222" width="302.74" height="22" fill="#4c78a8" rx="3"/>
<text x="490.74" y="238" class="value">150.30</text>
<text x="10" y="270" class="label">cdn.akamai.steamstatic.com</text>
<rect x="180" y="254" width="349.27" height="22" fill="#4c78a8" rx="3"/>
<text x="537.27" y="270" class="value">173.40</text>
<text x="10" y="302" class="label">cdn.cloudflare.steamstatic.com</text>
<rect x="180" y="286" width="349.71" height="22" fill="#4c78a8" rx="3"/>
<text x="537.71" y="302" class="value">173.62</text>
<text x="10" y="334" class="label">easyanticheat.net</text>
<rect x="180" y="318" width="395.44" height="22" fill="#4c78a8" rx="3"/>
<text x="583.44" y="334" class="value">196.32</text>
<text x="10" y="366" class="label">community.akamai.steamstatic.com</text>
<rect x="180" y="350" width="465.45" height="22" fill="#4c78a8" rx="3"/>
<text x="653.45" y="366" class="value">231.08</text>
<text x="10" y="398" class="label">steam-chat.com</text>
<rect x="180" y="382" width="491.53" height="22" fill="#4c78a8" rx="3"/>
<text x="679.53" y="398" class="value">244.03</text>
<text x="10" y="430" class="label">api.steampowered.com</text>
<rect x="180" y="414" width="537.48" height="22" fill="#4c78a8" rx="3"/>
<text x="725.48" y="430" class="value">266.84</text>
<text x="10" y="462" class="label">ubi.com</text>
<rect x="180" y="446" width="574.7" height="22" fill="#4c78a8" rx="3"/>
<text x="762.7" y="462" class="value">285.32</text>
<text x="10" y="494" class="label">battle.net</text>
<rect x="180" y="478" width="580.0" height="22" fill="#4c78a8" rx="3"/>
<text x="768.0" y="494" class="value">287.95</text>
<line x1="180" y1="30" x2="180" y2="520" stroke="#ccc"/>
<line x1="180" y1="520" x2="760" y2="520" stroke="#ccc"/>
</svg>