<svg xmlns="http://www.w3.org/2000/svg" width="800" height="540">
<style> .label{font-family:DejaVu Sans,Verdana,Geneva,sans-serif;font-size:12px;fill:#333} .value{font-family:DejaVu Sans,Verdana,Geneva,sans-serif;font-size:12px;fill:#555} </style>
<text x="10" y="20" class="label">延迟柱状图（越低越好，Top 15），单位 ms</text>
<text x="10" y="46" class="label">rockstargames.com</text>
<rect x="180" y="30" width="144.72" height="22" fill="#4c78a8" rx="3"/>
<text x="332.72" y="46" class="value">48.59</text>
<text x="10" y="78" class="label">eaassets-a.akamaihd.net</text>
<rect x="180" y="62" width="200.08" height="22" fill="#4c78a8" rx="3"/>
<text x="388.08000000000004" y="78" class="value">67.18</text>
<text x="10" y="110" class="label">socialclub.rockstargames.com</text>
<rect x="180" y="94" width="205.59" height="22" fill="#4c78a8" rx="3"/>
<text x="393.59000000000003" y="110" class="value">69.03</text>
<text x="10" y="142" class="label">battle.net</text>
<rect x="180" y="126" width="264.03" height="22" fill="#4c78a8" rx="3"/>
<text x="452.03" y="142" class="value">88.65</text>
<text x="10" y="174" class="label">fortnite.com</text>
<rect x="180" y="158" width="349.69" height="22" fill="#4c78a8" rx="3"/>
<text x="537.69" y="174" class="value">117.41</text>
<text x="10" y="206" class="label">epicgames.com</text>
<rect x="180" y="190" width="350.31" height="22" fill="#4c78a8" rx="3"/>
<text x="538.31" y="206" class="value">117.62</text>
<text x="10" y="238" class="label">ubi.com</text>
<rect x="180" y="222" width="376.55" height="22" fill="#4c78a8" rx="3"/>
<text x="564.55" y="238" class="value">126.43</text>
<text x="10" y="270" class="label">blizzard.com</text>
<rect x="180" y="254" width="376.58" height="22" fill="#4c78a8" rx="3"/>
<text x="564.5799999999999" y="270" class="value">126.44</text>
<text x="10" y="302" class="label">unrealengine.com</text>
<rect x="180" y="286" width="380.99" height="22" fill="#4c78a8" rx="3"/>
<text x="568.99" y="302" class="value">127.92</text>
<text x="10" y="334" class="label">ubisoft.com</text>
<rect x="180" y="318" width="387.54" height="22" fill="#4c78a8" rx="3"/>
<text x="575.54" y="334" class="value">130.12</text>
<text x="10" y="366" class="label">ea.com</text>
<rect x="180" y="350" width="388.82" height="22" fill="#4c78a8" rx="3"/>
<text x="576.8199999999999" y="366" class="value">130.55</text>
<text x="10" y="398" class="label">store.akamai.steamstatic.com</text>
<rect x="180" y="382" width="418.6" height="22" fill="#4c78a8" rx="3"/>
<text x="606.6" y="398" class="value">140.55</text>
<text x="10" y="430" class="label">origin.com</text>
<rect x="180" y="414" width="430.01" height="22" fill="#4c78a8" rx="3"/>
<text x="618.01" y="430" class="value">144.38</text>
<text x="10" y="462" class="label">community.akamai.steamstatic.com</text>
<rect x="180" y="446" width="461.28" height="22" fill="#4c78a8" rx="3"/>
<text x="649.28" y="462" class="value">154.88</text>
<text x="10" y="494" class="label">launcher-public-service-prod06.ol.epicgames.com</text>
<rect x="180" y="478" width="580.0" height="22" fill="#4c78a8" rx="3"/>
<text x="768.0" y="494" class="value">194.74</text>
<line x1="180" y1="30" x2="180" y2="520" stroke="#ccc"/>
<line x1="180" y1="520" x2="760" y2="520" stroke="#ccc"/>
</svg>