<svg xmlns="http://www.w3.org/2000/svg" width="800" height="540">
<style> .label{font-family:DejaVu Sans,Verdana,Geneva,sans-serif;font-size:12px;fill:#333} .value{font-family:DejaVu Sans,Verdana,Geneva,sans-serif;font-size:12px;fill:#555} </style>
<text x="10" y="20" class="label">延迟柱状图（越低越好，Top 15），单位 ms</text>
<text x="10" y="46" class="label">rockstargames.com</text>
<rect x="180" y="30" width="196.48" height="22" fill="#4c78a8" rx="3"/>
<text x="384.48" y="46" class="value">66.85</text>
<text x="10" y="78" class="label">socialclub.rockstargames.com</text>
<rect x="180" y="62" width="265.02" height="22" fill="#4c78a8" rx="3"/>
<text x="453.02" y="78" class="value">90.17</text>
<text x="10" y="110" class="label">blizzard.com</text>
<rect x="180" y="94" width="312.66" height="22" fill="#4c78a8" rx="3"/>
<text x="500.66" y="110" class="value">106.38</text>
<text x="10" y="142" class="label">eaassets-a.akamaihd.net</text>
<rect x="180" y="126" width="319.86" height="22" fill="#4c78a8" rx="3"/>
<text x="507.86" y="142" class="value">108.83</text>
<text x="10" y="174" class="label">battle.net</text>
<rect x="180" y="158" width="351.1" height="22" fill="#4c78a8" rx="3"/>
<text x="539.1" y="174" class="value">119.46</text>
<text x="10" y="206" class="label">ea.com</text>
<rect x="180" y="190" width="352.28" height="22" fill="#4c78a8" rx="3"/>
<text x="540.28" y="206" class="value">119.86</text>
<text x="10" y="238" class="label">store.akamai.steamstatic.com</text>
<rect x="180" y="222" width="466.73" height="22" fill="#4c78a8" rx="3"/>
<text x="654.73" y="238" class="value">158.80</text>
<text x="10" y="270" class="label">ubi.com</text>
<rect x="180" y="254" width="473.75" height="22" fill="#4c78a8" rx="3"/>
<text x="661.75" y="270" class="value">161.19</text>
<text x="10" y="302" class="label">community.akamai.steamstatic.com</text>
<rect x="180" y="286" width="475.05" height="22" fill="#4c78a8" rx="3"/>
<text x="663.05" y="302" class="value">161.63</text>
<text x="10" y="334" class="label">fortnite.com</text>
<rect x="180" y="318" width="525.45" height="22" fill="#4c78a8" rx="3"/>
<text x="713.45" y="334" class="value">178.78</text>
<text x="10" y="366" class="label">epicgames.com</text>
<rect x="180" y="350" width="529.59" height="22" fill="#4c78a8" rx="3"/>
<text x="717.59" y="366" class="value">180.19</text>
<text x="10" y="398" class="label">ubisoft.com</text>
<rect x="180" y="382" width="533.77" height="22" fill="#4c78a8" rx="3"/>
<text x="721.77" y="398" class="value">181.61</text>
<text x="10" y="430" class="label">unrealengine.com</text>
<rect x="180" y="414" width="574.86" height="22" fill="#4c78a8" rx="3"/>
<text x="762.86" y="430" class="value">195.59</text>
<text x="10" y="462" class="label">cdn.akamai.steamstatic.com</text>
<rect x="180" y="446" width="579.18" height="22" fill="#4c78a8" rx="3"/>
<text x="767.18" y="462" class="value">197.06</text>
<text x="10" y="494" class="label">gog.com</text>
<rect x="180" y="478" width="580.0" height="22" fill="#4c78a8" rx="3"/>
<text x="768.0" y="494" class="value">197.34</text>
<line x1="180" y1="30" x2="180" y2="520" stroke="#ccc"/>
<line x1="180" y1="520" x2="760" y2="520" stroke="#ccc"/>
</svg>