<svg xmlns="http://www.w3.org/2000/svg" width="800" height="540">
<style> .label{font-family:DejaVu Sans,Verdana,Geneva,sans-serif;font-size:12px;fill:#333} .value{font-family:DejaVu Sans,Verdana,Geneva,sans-serif;font-size:12px;fill:#555} </style>
<text x="10" y="20" class="label">延迟柱状图（越低越好，Top 15），单位 ms</text>
<text x="10" y="46" class="label">rockstargames.com</text>
<rect x="180" y="30" width="220.21" height="22" fill="#4c78a8" rx="3"/>
<text x="408.21000000000004" y="46" class="value">84.80</text>
<text x="10" y="78" class="label">eaassets-a.akamaihd.net</text>
<rect x="180" y="62" width="260.64" height="22" fill="#4c78a8" rx="3"/>
<text x="448.64" y="78" class="value">100.37</text>
<text x="10" y="110" class="label">ubisoft.com</text>
<rect x="180" y="94" width="282.51" height="22" fill="#4c78a8" rx="3"/>
<text x="470.51" y="110" class="value">108.79</text>
<text x="10" y="142" class="label">steamcdn-a.akamaihd.net</text>
<rect x="180" y="126" width="303.7" height="22" fill="#4c78a8" rx="3"/>
<text x="491.7" y="142" class="value">116.95</text>
<text x="10" y="174" class="label">blizzard.com</text>
<rect x="180" y="158" width="419.36" height="22" fill="#4c78a8" rx="3"/>
<text x="607.36" y="174" class="value">161.49</text>
<text x="10" y="206" class="label">cdn.akamai.steamstatic.com</text>
<rect x="180" y="190" width="420.3" height="22" fill="#4c78a8" rx="3"/>
<text x="608.3" y="206" class="value">161.85</text>
<text x="10" y="238" class="label">battle.net</text>
<rect x="180" y="222" width="425.75" height="22" fill="#4c78a8" rx="3"/>
<text x="613.75" y="238" class="value">163.95</text>
<text x="10" y="270" class="label">ea.com</text>
<rect x="180" y="254" width="468.91" height="22" fill="#4c78a8" rx="3"/>
<text x="656.9100000000001" y="270" class="value">180.57</text>
<text x="10" y="302" class="label">store.akamai.steamstatic.com</text>
<rect x="180" y="286" width="492.57" height="22" fill="#4c78a8" rx="3"/>
<text x="680.5699999999999" y="302" class="value">189.68</text>
<text x="10" y="334" class="label">origin.com</text>
<rect x="180" y="318" width="511.34" height="22" fill="#4c78a8" rx="3"/>
<text x="699.3399999999999" y="334" class="value">196.91</text>
<text x="10" y="366" class="label">easyanticheat.net</text>
<rect x="180" y="350" width="513.86" height="22" fill="#4c78a8" rx="3"/>
<text x="701.86" y="366" class="value">197.88</text>
<text x="10" y="398" class="label">launcher-public-service-prod06.ol.epicgames.com</text>
<rect x="180" y="382" width="548.45" height="22" fill="#4c78a8" rx="3"/>
<text x="736.45" y="398" class="value">211.20</text>
<text x="10" y="430" class="label">static3.cdn.ubi.com</text>
<rect x="180" y="414" width="554.16" height="22" fill="#4c78a8" rx="3"/>
<text x="742.16" y="430" class="value">213.40</text>
<text x="10" y="462" class="label">community.akamai.steamstatic.com</text>
<rect x="180" y="446" width="566.29" height="22" fill="#4c78a8" rx="3"/>
<text x="754.29" y="462" class="value">218.07</text>
<text x="10" y="494" class="label">socialclub.rockstargames.com</text>
<rect x="180" y="478" width="580.0" height="22" fill="#4c78a8" rx="3"/>
<text x="768.0" y="494" class="value">223.35</text>
<line x1="180" y1="30" x2="180" y2="520" stroke="#ccc"/>
<line x1="180" y1="520" x2="760" y2="520" stroke="#ccc"/>
</svg>