<svg xmlns="http://www.w3.org/2000/svg" width="800" height="540">
<style> .label{font-family:DejaVu Sans,Verdana,Geneva,sans-serif;font-size:12px;fill:#333} .value{font-family:DejaVu Sans,Verdana,Geneva,sans-serif;font-size:12px;fill:#555} </style>
<text x="10" y="20" class="label">延迟柱状图（越低越好，Top 15），单位 ms</text>
<text x="10" y="46" class="label">rockstargames.com</text>
<rect x="180" y="30" width="211.35" height="22" fill="#4c78a8" rx="3"/>
<text x="399.35" y="46" class="value">72.05</text>
<text x="10" y="78" class="label">battle.net</text>
<rect x="180" y="62" width="376.36" height="22" fill="#4c78a8" rx="3"/>
<text x="564.36" y="78" class="value">128.30</text>
<text x="10" y="110" class="label">socialclub.rockstargames.com</text>
<rect x="180" y="94" width="381.29" height="22" fill="#4c78a8" rx="3"/>
<text x="569.29" y="110" class="value">129.98</text>
<text x="10" y="142" class="label">community.akamai.steamstatic.com</text>
<rect x="180" y="126" width="404.14" height="22" fill="#4c78a8" rx="3"/>
<text x="592.14" y="142" class="value">137.77</text>
<text x="10" y="174" class="label">blizzard.com</text>
<rect x="180" y="158" width="406.96" height="22" fill="#4c78a8" rx="3"/>
<text x="594.96" y="174" class="value">138.73</text>
<text x="10" y="206" class="label">store.akamai.steamstatic.com</text>
<rect x="180" y="190" width="410.15" height="22" fill="#4c78a8" rx="3"/>
<text x="598.15" y="206" class="value">139.82</text>
<text x="10" y="238" class="label">steam-chat.com</text>
<rect x="180" y="222" width="413.41" height="22" fill="#4c78a8" rx="3"/>
<text x="601.4100000000001" y="238" class="value">140.93</text>
<text x="10" y="270" class="label">eaassets-a.akamaihd.net</text>
<rect x="180" y="254" width="420.27" height="22" fill="#4c78a8" rx="3"/>
<text x="608.27" y="270" class="value">143.27</text>
<text x="10" y="302" class="label">cdn.akamai.steamstatic.com</text>
<rect x="180" y="286" width="433.86" height="22" fill="#4c78a8" rx="3"/>
<text x="621.86" y="302" class="value">147.90</text>
<text x="10" y="334" class="label">ubi.com</text>
<rect x="180" y="318" width="445.71" height="22" fill="#4c78a8" rx="3"/>
<text x="633.71" y="334" class="value">151.94</text>
<text x="10" y="366" class="label">origin.com</text>
<rect x="180" y="350" width="469.23" height="22" fill="#4c78a8" rx="3"/>
<text x="657.23" y="366" class="value">159.96</text>
<text x="10" y="398" class="label">cdn.cloudflare.steamstatic.com</text>
<rect x="180" y="382" width="478.12" height="22" fill="#4c78a8" rx="3"/>
<text x="666.12" y="398" class="value">162.99</text>
<text x="10" y="430" class="label">steamcdn-a.akamaihd.net</text>
<rect x="180" y="414" width="479.94" height="22" fill="#4c78a8" rx="3"/>
<text x="667.94" y="430" class="value">163.61</text>
<text x="10" y="462" class="label">static3.cdn.ubi.com</text>
<rect x="180" y="446" width="526.79" height="22" fill="#4c78a8" rx="3"/>
<text x="714.79" y="462" class="value">179.58</text>
<text x="10" y="494" class="label">ea.com</text>
<rect x="180" y="478" width="580.0" height="22" fill="#4c78a8" rx="3"/>
<text x="768.0" y="494" class="value">197.72</text>
<line x1="180" y1="30" x2="180" y2="520" stroke="#ccc"/>
<line x1="180" y1="520" x2="760" y2="520" stroke="#ccc"/>
</svg>