<svg xmlns="http://www.w3.org/2000/svg" width="800" height="540">
<style> .label{font-family:DejaVu Sans,Verdana,Geneva,sans-serif;font-size:12px;fill:#333} .value{font-family:DejaVu Sans,Verdana,Geneva,sans-serif;font-size:12px;fill:#555} </style>
<text x="10" y="20" class="label">延迟柱状图（越低越好，Top 15），单位 ms</text>
<text x="10" y="46" class="label">rockstargames.com</text>
<rect x="180" y="30" width="143.2" height="22" fill="#4c78a8" rx="3"/>
<text x="331.2" y="46" class="value">46.02</text>
<text x="10" y="78" class="label">eaassets-a.akamaihd.net</text>
<rect x="180" y="62" width="206.67" height="22" fill="#4c78a8" rx="3"/>
<text x="394.66999999999996" y="78" class="value">66.42</text>
<text x="10" y="110" class="label">socialclub.rockstargames.com</text>
<rect x="180" y="94" width="227.71" height="22" fill="#4c78a8" rx="3"/>
<text x="415.71000000000004" y="110" class="value">73.18</text>
<text x="10" y="142" class="label">battle.net</text>
<rect x="180" y="126" width="245.19" height="22" fill="#4c78a8" rx="3"/>
<text x="433.19" y="142" class="value">78.80</text>
<text x="10" y="174" class="label">blizzard.com</text>
<rect x="180" y="158" width="269.34" height="22" fill="#4c78a8" rx="3"/>
<text x="457.34" y="174" class="value">86.56</text>
<text x="10" y="206" class="label">ubi.com</text>
<rect x="180" y="190" width="328.8" height="22" fill="#4c78a8" rx="3"/>
<text x="516.8" y="206" class="value">105.67</text>
<text x="10" y="238" class="label">cdn.akamai.steamstatic.com</text>
<rect x="180" y="222" width="361.07" height="22" fill="#4c78a8" rx="3"/>
<text x="549.0699999999999" y="238" class="value">116.04</text>
<text x="10" y="270" class="label">ea.com</text>
<rect x="180" y="254" width="369.16" height="22" fill="#4c78a8" rx="3"/>
<text x="557.1600000000001" y="270" class="value">118.64</text>
<text x="10" y="302" class="label">steamcdn-a.akamaihd.net</text>
<rect x="180" y="286" width="383.29" height="22" fill="#4c78a8" rx="3"/>
<text x="571.29" y="302" class="value">123.18</text>
<text x="10" y="334" class="label">origin.com</text>
<rect x="180" y="318" width="442.97" height="22" fill="#4c78a8" rx="3"/>
<text x="630.97" y="334" class="value">142.36</text>
<text x="10" y="366" class="label">unrealengine.com</text>
<rect x="180" y="350" width="490.23" height="22" fill="#4c78a8" rx="3"/>
<text x="678.23" y="366" class="value">157.55</text>
<text x="10" y="398" class="label">fortnite.com</text>
<rect x="180" y="382" width="529.69" height="22" fill="#4c78a8" rx="3"/>
<text x="717.69" y="398" class="value">170.23</text>
<text x="10" y="430" class="label">store.akamai.steamstatic.com</text>
<rect x="180" y="414" width="542.26" height="22" fill="#4c78a8" rx="3"/>
<text x="730.26" y="430" class="value">174.27</text>
<text x="10" y="462" class="label">epicgames.com</text>
<rect x="180" y="446" width="549.66" height="22" fill="#4c78a8" rx="3"/>
<text x="737.66" y="462" class="value">176.65</text>
<text x="10" y="494" class="label">cdn.cloudflare.steamstatic.com</text>
<rect x="180" y="478" width="580.0" height="22" fill="#4c78a8" rx="3"/>
<text x="768.0" y="494" class="value">186.40</text>
<line x1="180" y1="30" x2="180" y2="520" stroke="#ccc"/>
<line x1="180" y1="520" x2="760" y2="520" stroke="#ccc"/>
</svg>