<svg xmlns="http://www.w3.org/2000/svg" width="800" height="540">
<style> .label{font-family:DejaVu Sans,Verdana,Geneva,sans-serif;font-size:12px;fill:#333} .value{font-family:DejaVu Sans,Verdana,Geneva,sans-serif;font-size:12px;fill:#555} </style>
<text x="10" y="20" class="label">延迟柱状图（越低越好，Top 15），单位 ms</text>
<text x="10" y="46" class="label">rockstargames.com</text>
<rect x="180" y="30" width="146.53" height="22" fill="#4c78a8" rx="3"/>
<text x="334.53" y="46" class="value">60.68</text>
<text x="10" y="78" class="label">eaassets-a.akamaihd.net</text>
<rect x="180" y="62" width="172.35" height="22" fill="#4c78a8" rx="3"/>
<text x="360.35" y="78" class="value">71.37</text>
<text x="10" y="110" class="label">blizzard.com</text>
<rect x="180" y="94" width="179.69" height="22" fill="#4c78a8" rx="3"/>
<text x="367.69" y="110" class="value">74.41</text>
<text x="10" y="142" class="label">socialclub.rockstargames.com</text>
<rect x="180" y="126" width="209.44" height="22" fill="#4c78a8" rx="3"/>
<text x="397.44" y="142" class="value">86.73</text>
<text x="10" y="174" class="label">ubi.com</text>
<rect x="180" y="158" width="284.4" height="22" fill="#4c78a8" rx="3"/>
<text x="472.4" y="174" class="value">117.77</text>
<text x="10" y="206" class="label">ea.com</text>
<rect x="180" y="190" width="338.88" height="22" fill="#4c78a8" rx="3"/>
<text x="526.88" y="206" class="value">140.33</text>
<text x="10" y="238" class="label">community.akamai.steamstatic.com</text>
<rect x="180" y="222" width="385.85" height="22" fill="#4c78a8" rx="3"/>
<text x="573.85" y="238" class="value">159.78</text>
<text x="10" y="270" class="label">cdn.akamai.steamstatic.com</text>
<rect x="180" y="254" width="494.39" height="22" fill="#4c78a8" rx="3"/>
<text x="682.39" y="270" class="value">204.73</text>
<text x="10" y="302" class="label">ubisoft.com</text>
<rect x="180" y="286" width="497.32" height="22" fill="#4c78a8" rx="3"/>
<text x="685.3199999999999" y="302" class="value">205.94</text>
<text x="10" y="334" class="label">epicgames.com</text>
<rect x="180" y="318" width="504.9" height="22" fill="#4c78a8" rx="3"/>
<text x="692.9" y="334" class="value">209.08</text>
<text x="10" y="366" class="label">fortnite.com</text>
<rect x="180" y="350" width="534.02" height="22" fill="#4c78a8" rx="3"/>
<text x="722.02" y="366" class="value">221.14</text>
<text x="10" y="398" class="label">store.akamai.steamstatic.com</text>
<rect x="180" y="382" width="536.46" height="22" fill="#4c78a8" rx="3"/>
<text x="724.46" y="398" class="value">222.15</text>
<text x="10" y="430" class="label">origin.com</text>
<rect x="180" y="414" width="557.88" height="22" fill="#4c78a8" rx="3"/>
<text x="745.88" y="430" class="value">231.02</text>
<text x="10" y="462" class="label">unrealengine.com</text>
<rect x="180" y="446" width="566.24" height="22" fill="#4c78a8" rx="3"/>
<text x="754.24" y="462" class="value">234.48</text>
<text x="10" y="494" class="label">steamcommunity.com</text>
<rect x="180" y="478" width="580.0" height="22" fill="#4c78a8" rx="3"/>
<text x="768.0" y="494" class="value">240.18</text>
<line x1="180" y1="30" x2="180" y2="520" stroke="#ccc"/>
<line x1="180" y1="520" x2="760" y2="520" stroke="#ccc"/>
</svg>