<svg xmlns="http://www.w3.org/2000/svg" width="800" height="540">
<style> .label{font-family:DejaVu Sans,Verdana,Geneva,sans-serif;font-size:12px;fill:#333} .value{font-family:DejaVu Sans,Verdana,Geneva,sans-serif;font-size:12px;fill:#555} </style>
<text x="10" y="20" class="label">延迟柱状图（越低越好，Top 15），单位 ms</text>
<text x="10" y="46" class="label">rockstargames.com</text>
<rect x="180" y="30" width="205.7" height="22" fill="#4c78a8" rx="3"/>
<text x="393.7" y="46" class="value">75.37</text>
<text x="10" y="78" class="label">eaassets-a.akamaihd.net</text>
<rect x="180" y="62" width="237.16" height="22" fill="#4c78a8" rx="3"/>
<text x="425.15999999999997" y="78" class="value">86.90</text>
<text x="10" y="110" class="label">cdn.akamai.steamstatic.com</text>
<rect x="180" y="94" width="252.2" height="22" fill="#4c78a8" rx="3"/>
<text x="440.2" y="110" class="value">92.41</text>
<text x="10" y="142" class="label">community.akamai.steamstatic.com</text>
<rect x="180" y="126" width="344.47" height="22" fill="#4c78a8" rx="3"/>
<text x="532.47" y="142" class="value">126.22</text>
<text x="10" y="174" class="label">battle.net</text>
<rect x="180" y="158" width="370.95" height="22" fill="#4c78a8" rx="3"/>
<text x="558.95" y="174" class="value">135.92</text>
<text x="10" y="206" class="label">ubi.com</text>
<rect x="180" y="190" width="375.5" height="22" fill="#4c78a8" rx="3"/>
<text x="563.5" y="206" class="value">137.59</text>
<text x="10" y="238" class="label">origin.com</text>
<rect x="180" y="222" width="380.94" height="22" fill="#4c78a8" rx="3"/>
<text x="568.94" y="238" class="value">139.58</text>
<text x="10" y="270" class="label">blizzard.com</text>
<rect x="180" y="254" width="394.61" height="22" fill="#4c78a8" rx="3"/>
<text x="582.61" y="270" class="value">144.59</text>
<text x="10" y="302" class="label">ea.com</text>
<rect x="180" y="286" width="400.91" height="22" fill="#4c78a8" rx="3"/>
<text x="588.9100000000001" y="302" class="value">146.90</text>
<text x="10" y="334" class="label">socialclub.rockstargames.com</text>
<rect x="180" y="318" width="415.62" height="22" fill="#4c78a8" rx="3"/>
<text x="603.62" y="334" class="value">152.29</text>
<text x="10" y="366" class="label">static3.cdn.ubi.com</text>
<rect x="180" y="350" width="486.85" height="22" fill="#4c78a8" rx="3"/>
<text x="674.85" y="366" class="value">178.39</text>
<text x="10" y="398" class="label">steam-chat.com</text>
<rect x="180" y="382" width="557.4" height="22" fill="#4c78a8" rx="3"/>
<text x="745.4" y="398" class="value">204.24</text>
<text x="10" y="430" class="label">store.akamai.steamstatic.com</text>
<rect x="180" y="414" width="567.91" height="22" fill="#4c78a8" rx="3"/>
<text x="755.91" y="430" class="value">208.09</text>
<text x="10" y="462" class="label">steamcdn-a.akamaihd.net</text>
<rect x="180" y="446" width="579.81" height="22" fill="#4c78a8" rx="3"/>
<text x="767.81" y="462" class="value">212.45</text>
<text x="10" y="494" class="label">easyanticheat.net</text>
<rect x="180" y="478" width="580.0" height="22" fill="#4c78a8" rx="3"/>
<text x="768.0" y="494" class="value">212.52</text>
<line x1="180" y1="30" x2="180" y2="520" stroke="#ccc"/>
<line x1="180" y1="520" x2="760" y2="520" stroke="#ccc"/>
</svg>