<svg xmlns="http://www.w3.org/2000/svg" width="800" height="540">
<style> .label{font-family:DejaVu Sans,Verdana,Geneva,sans-serif;font-size:12px;fill:#333} .value{font-family:DejaVu Sans,Verdana,Geneva,sans-serif;font-size:12px;fill:#555} </style>
<text x="10" y="20" class="label">延迟柱状图（越低越好，Top 15），单位 ms</text>
<text x="10" y="46" class="label">eaassets-a.akamaihd.net</text>
<rect x="180" y="30" width="287.25" height="22" fill="#4c78a8" rx="3"/>
<text x="475.25" y="46" class="value">138.51</text>
<text x="10" y="78" class="label">ubisoft.com</text>
<rect x="180" y="62" width="299.86" height="22" fill="#4c78a8" rx="3"/>
<text x="487.86" y="78" class="value">144.59</text>
<text x="10" y="110" class="label">store.akamai.steamstatic.com</text>
<rect x="180" y="94" width="302.14" height="22" fill="#4c78a8" rx="3"/>
<text x="490.14" y="110" class="value">145.69</text>
<text x="10" y="142" class="label">ea.com</text>
<rect x="180" y="126" width="373.09" height="22" fill="#4c78a8" rx="3"/>
<text x="561.0899999999999" y="142" class="value">179.90</text>
<text x="10" y="174" class="label">cdn.cloudflare.steamstatic.com</text>
<rect x="180" y="158" width="385.6" height="22" fill="#4c78a8" rx="3"/>
<text x="573.6" y="174" class="value">185.93</text>
<text x="10" y="206" class="label">ubi.com</text>
<rect x="180" y="190" width="468.8" height="22" fill="#4c78a8" rx="3"/>
<text x="656.8" y="206" class="value">226.05</text>
<text x="10" y="238" class="label">battle.net</text>
<rect x="180" y="222" width="496.75" height="22" fill="#4c78a8" rx="3"/>
<text x="684.75" y="238" class="value">239.53</text>
<text x="10" y="270" class="label">community.akamai.steamstatic.com</text>
<rect x="180" y="254" width="497.61" height="22" fill="#4c78a8" rx="3"/>
<text x="685.61" y="270" class="value">239.94</text>
<text x="10" y="302" class="label">blizzard.com</text>
<rect x="180" y="286" width="514.59" height="22" fill="#4c78a8" rx="3"/>
<text x="702.59" y="302" class="value">248.13</text>
<text x="10" y="334" class="label">cdn.akamai.steamstatic.com</text>
<rect x="180" y="318" width="524.57" height="22" fill="#4c78a8" rx="3"/>
<text x="712.57" y="334" class="value">252.94</text>
<text x="10" y="366" class="label">steamcdn-a.akamaihd.net</text>
<rect x="180" y="350" width="530.06" height="22" fill="#4c78a8" rx="3"/>
<text x="718.06" y="366" class="value">255.59</text>
<text x="10" y="398" class="label">socialclub.rockstargames.com</text>
<rect x="180" y="382" width="531.62" height="22" fill="#4c78a8" rx="3"/>
<text x="719.62" y="398" class="value">256.34</text>
<text x="10" y="430" class="label">origin.com</text>
<rect x="180" y="414" width="539.39" height="22" fill="#4c78a8" rx="3"/>
<text x="727.39" y="430" class="value">260.09</text>
<text x="10" y="462" class="label">www.steamcommunity.com</text>
<rect x="180" y="446" width="573.82" height="22" fill="#4c78a8" rx="3"/>
<text x="761.82" y="462" class="value">276.69</text>
<text x="10" y="494" class="label">easyanticheat.net</text>
<rect x="180" y="478" width="580.0" height="22" fill="#4c78a8" rx="3"/>
<text x="768.0" y="494" class="value">279.67</text>
<line x1="180" y1="30" x2="180" y2="520" stroke="#ccc"/>
<line x1="180" y1="520" x2="760" y2="520" stroke="#ccc"/>
</svg>