<svg xmlns="http://www.w3.org/2000/svg" width="800" height="540">
<style> .label{font-family:DejaVu Sans,Verdana,Geneva,sans-serif;font-size:12px;fill:#333} .value{font-family:DejaVu Sans,Verdana,Geneva,sans-serif;font-size:12px;fill:#555} </style>
<text x="10" y="20" class="label">延迟柱状图（越低越好，Top 15），单位 ms</text>
<text x="10" y="46" class="label">steamcdn-a.akamaihd.net</text>
<rect x="180" y="30" width="243.18" height="22" fill="#4c78a8" rx="3"/>
<text x="431.18" y="46" class="value">121.15</text>
<text x="10" y="78" class="label">origin.com</text>
<rect x="180" y="62" width="287.74" height="22" fill="#4c78a8" rx="3"/>
<text x="475.74" y="78" class="value">143.35</text>
<text x="10" y="110" class="label">rockstargames.com</text>
<rect x="180" y="94" width="289.11" height="22" fill="#4c78a8" rx="3"/>
<text x="477.11" y="110" class="value">144.03</text>
<text x="10" y="142" class="label">ubisoft.com</text>
<rect x="180" y="126" width="291.19" height="22" fill="#4c78a8" rx="3"/>
<text x="479.19" y="142" class="value">145.07</text>
<text x="10" y="174" class="label">eaassets-a.akamaihd.net</text>
<rect x="180" y="158" width="386.54" height="22" fill="#4c78a8" rx="3"/>
<text x="574.54" y="174" class="value">192.57</text>
<text x="10" y="206" class="label">cdn.akamai.steamstatic.com</text>
<rect x="180" y="190" width="450.37" height="22" fill="#4c78a8" rx="3"/>
<text x="638.37" y="206" class="value">224.37</text>
<text x="10" y="238" class="label">blizzard.com</text>
<rect x="180" y="222" width="508.0" height="22" fill="#4c78a8" rx="3"/>
<text x="696.0" y="238" class="value">253.08</text>
<text x="10" y="270" class="label">socialclub.rockstargames.com</text>
<rect x="180" y="254" width="509.81" height="22" fill="#4c78a8" rx="3"/>
<text x="697.81" y="270" class="value">253.98</text>
<text x="10" y="302" class="label">launcher-public-service-prod06.ol.epicgames.com</text>
<rect x="180" y="286" width="527.85" height="22" fill="#4c78a8" rx="3"/>
<text x="715.85" y="302" class="value">262.97</text>
<text x="10" y="334" class="label">steamcommunity.com</text>
<rect x="180" y="318" width="530.48" height="22" fill="#4c78a8" rx="3"/>
<text x="718.48" y="334" class="value">264.28</text>
<text x="10" y="366" class="label">battle.net</text>
<rect x="180" y="350" width="537.33" height="22" fill="#4c78a8" rx="3"/>
<text x="725.33" y="366" class="value">267.69</text>
<text x="10" y="398" class="label">ubi.com</text>
<rect x="180" y="382" width="540.3" height="22" fill="#4c78a8" rx="3"/>
<text x="728.3" y="398" class="value">269.17</text>
<text x="10" y="430" class="label">steam-chat.com</text>
<rect x="180" y="414" width="566.77" height="22" fill="#4c78a8" rx="3"/>
<text x="754.77" y="430" class="value">282.36</text>
<text x="10" y="462" class="label">store.akamai.steamstatic.com</text>
<rect x="180" y="446" width="573.68" height="22" fill="#4c78a8" rx="3"/>
<text x="761.68" y="462" class="value">285.80</text>
<text x="10" y="494" class="label">easyanticheat.net</text>
<rect x="180" y="478" width="580.0" height="22" fill="#4c78a8" rx="3"/>
<text x="768.0" y="494" class="value">288.95</text>
<line x1="180" y1="30" x2="180" y2="520" stroke="#ccc"/>
<line x1="180" y1="520" x2="760" y2="520" stroke="#ccc"/>
</svg>