<svg xmlns="http://www.w3.org/2000/svg" width="800" height="540">
<style> .label{font-family:DejaVu Sans,Verdana,Geneva,sans-serif;font-size:12px;fill:#333} .value{font-family:DejaVu Sans,Verdana,Geneva,sans-serif;font-size:12px;fill:#555} </style>
<text x="10" y="20" class="label">延迟柱状图（越低越好，Top 15），单位 ms</text>
<text x="10" y="46" class="label">eaassets-a.akamaihd.net</text>
<rect x="180" y="30" width="235.27" height="22" fill="#4c78a8" rx="3"/>
<text x="423.27" y="46" class="value">110.80</text>
<text x="10" y="78" class="label">ea.com</text>
<rect x="180" y="62" width="271.28" height="22" fill="#4c78a8" rx="3"/>
<text x="459.28" y="78" class="value">127.76</text>
<text x="10" y="110" class="label">store.akamai.steamstatic.com</text>
<rect x="180" y="94" width="295.57" height="22" fill="#4c78a8" rx="3"/>
<text x="483.57" y="110" class="value">139.20</text>
<text x="10" y="142" class="label">steamcdn-a.akamaihd.net</text>
<rect x="180" y="126" width="340.02" height="22" fill="#4c78a8" rx="3"/>
<text x="528.02" y="142" class="value">160.13</text>
<text x="10" y="174" class="label">cdn.akamai.steamstatic.com</text>
<rect x="180" y="158" width="373.52" height="22" fill="#4c78a8" rx="3"/>
<text x="561.52" y="174" class="value">175.91</text>
<text x="10" y="206" class="label">rockstargames.com</text>
<rect x="180" y="190" width="444.8" height="22" fill="#4c78a8" rx="3"/>
<text x="632.8" y="206" class="value">209.48</text>
<text x="10" y="238" class="label">ubi.com</text>
<rect x="180" y="222" width="447.63" height="22" fill="#4c78a8" rx="3"/>
<text x="635.63" y="238" class="value">210.81</text>
<text x="10" y="270" class="label">community.akamai.steamstatic.com</text>
<rect x="180" y="254" width="454.3" height="22" fill="#4c78a8" rx="3"/>
<text x="642.3" y="270" class="value">213.95</text>
<text x="10" y="302" class="label">battle.net</text>
<rect x="180" y="286" width="476.83" height="22" fill="#4c78a8" rx="3"/>
<text x="664.8299999999999" y="302" class="value">224.56</text>
<text x="10" y="334" class="label">ubisoft.com</text>
<rect x="180" y="318" width="508.59" height="22" fill="#4c78a8" rx="3"/>
<text x="696.5899999999999" y="334" class="value">239.52</text>
<text x="10" y="366" class="label">socialclub.rockstargames.com</text>
<rect x="180" y="350" width="511.16" height="22" fill="#4c78a8" rx="3"/>
<text x="699.1600000000001" y="366" class="value">240.73</text>
<text x="10" y="398" class="label">epicgames.com</text>
<rect x="180" y="382" width="539.63" height="22" fill="#4c78a8" rx="3"/>
<text x="727.63" y="398" class="value">254.14</text>
<text x="10" y="430" class="label">blizzard.com</text>
<rect x="180" y="414" width="555.81" height="22" fill="#4c78a8" rx="3"/>
<text x="743.81" y="430" class="value">261.76</text>
<text x="10" y="462" class="label">gog.com</text>
<rect x="180" y="446" width="564.52" height="22" fill="#4c78a8" rx="3"/>
<text x="752.52" y="462" class="value">265.86</text>
<text x="10" y="494" class="label">cdn.cloudflare.steamstatic.com</text>
<rect x="180" y="478" width="580.0" height="22" fill="#4c78a8" rx="3"/>
<text x="768.0" y="494" class="value">273.15</text>
<line x1="180" y1="30" x2="180" y2="520" stroke="#ccc"/>
<line x1="180" y1="520" x2="760" y2="520" stroke="#ccc"/>
</svg>