<svg xmlns="http://www.w3.org/2000/svg" width="800" height="540">
<style> .label{font-family:DejaVu Sans,Verdana,Geneva,sans-serif;font-size:12px;fill:#333} .value{font-family:DejaVu Sans,Verdana,Geneva,sans-serif;font-size:12px;fill:#555} </style>
<text x="10" y="20" class="label">延迟柱状图（越低越好，Top 15），单位 ms</text>
<text x="10" y="46" class="label">rockstargames.com</text>
<rect x="180" y="30" width="84.5" height="22" fill="#4c78a8" rx="3"/>
<text x="272.5" y="46" class="value">39.08</text>
<text x="10" y="78" class="label">eaassets-a.akamaihd.net</text>
<rect x="180" y="62" width="105.09" height="22" fill="#4c78a8" rx="3"/>
<text x="293.09000000000003" y="78" class="value">48.60</text>
<text x="10" y="110" class="label">community.akamai.steamstatic.com</text>
<rect x="180" y="94" width="192.58" height="22" fill="#4c78a8" rx="3"/>
<text x="380.58000000000004" y="110" class="value">89.06</text>
<text x="10" y="142" class="label">ubisoft.com</text>
<rect x="180" y="126" width="209.49" height="22" fill="#4c78a8" rx="3"/>
<text x="397.49" y="142" class="value">96.88</text>
<text x="10" y="174" class="label">ea.com</text>
<rect x="180" y="158" width="229.44" height="22" fill="#4c78a8" rx="3"/>
<text x="417.44" y="174" class="value">106.11</text>
<text x="10" y="206" class="label">origin.com</text>
<rect x="180" y="190" width="255.65" height="22" fill="#4c78a8" rx="3"/>
<text x="443.65" y="206" class="value">118.23</text>
<text x="10" y="238" class="label">store.akamai.steamstatic.com</text>
<rect x="180" y="222" width="267.31" height="22" fill="#4c78a8" rx="3"/>
<text x="455.31" y="238" class="value">123.62</text>
<text x="10" y="270" class="label">cdn.akamai.steamstatic.com</text>
<rect x="180" y="254" width="318.03" height="22" fill="#4c78a8" rx="3"/>
<text x="506.03" y="270" class="value">147.08</text>
<text x="10" y="302" class="label">steamcdn-a.akamaihd.net</text>
<rect x="180" y="286" width="320.05" height="22" fill="#4c78a8" rx="3"/>
<text x="508.05" y="302" class="value">148.01</text>
<text x="10" y="334" class="label">cdn.cloudflare.steamstatic.com</text>
<rect x="180" y="318" width="372.11" height="22" fill="#4c78a8" rx="3"/>
<text x="560.11" y="334" class="value">172.09</text>
<text x="10" y="366" class="label">easyanticheat.net</text>
<rect x="180" y="350" width="398.91" height="22" fill="#4c78a8" rx="3"/>
<text x="586.9100000000001" y="366" class="value">184.48</text>
<text x="10" y="398" class="label">gog.com</text>
<rect x="180" y="382" width="434.15" height="22" fill="#4c78a8" rx="3"/>
<text x="622.15" y="398" class="value">200.78</text>
<text x="10" y="430" class="label">api.steampowered.com</text>
<rect x="180" y="414" width="542.81" height="22" fill="#4c78a8" rx="3"/>
<text x="730.81" y="430" class="value">251.03</text>
<text x="10" y="462" class="label">www.steamcommunity.com</text>
<rect x="180" y="446" width="573.69" height="22" fill="#4c78a8" rx="3"/>
<text x="761.69" y="462" class="value">265.31</text>
<text x="10" y="494" class="label">launcher-public-service-prod06.ol.epicgames.com</text>
<rect x="180" y="478" width="580.0" height="22" fill="#4c78a8" rx="3"/>
<text x="768.0" y="494" class="value">268.23</text>
<line x1="180" y1="30" x2="180" y2="520" stroke="#ccc"/>
<line x1="180" y1="520" x2="760" y2="520" stroke="#ccc"/>
</svg>