<svg xmlns="http://www.w3.org/2000/svg" width="800" height="540">
<style> .label{font-family:DejaVu Sans,Verdana,Geneva,sans-serif;font-size:12px;fill:#333} .value{font-family:DejaVu Sans,Verdana,Geneva,sans-serif;font-size:12px;fill:#555} </style>
<text x="10" y="20" class="label">延迟柱状图（越低越好，Top 15），单位 ms</text>
<text x="10" y="46" class="label">rockstargames.com</text>
<rect x="180" y="30" width="195.95" height="22" fill="#4c78a8" rx="3"/>
<text x="383.95" y="46" class="value">93.51</text>
<text x="10" y="78" class="label">origin.com</text>
<rect x="180" y="62" width="264.97" height="22" fill="#4c78a8" rx="3"/>
<text x="452.97" y="78" class="value">126.45</text>
<text x="10" y="110" class="label">socialclub.rockstargames.com</text>
<rect x="180" y="94" width="312.24" height="22" fill="#4c78a8" rx="3"/>
<text x="500.24" y="110" class="value">149.01</text>
<text x="10" y="142" class="label">blizzard.com</text>
<rect x="180" y="126" width="333.43" height="22" fill="#4c78a8" rx="3"/>
<text x="521.4300000000001" y="142" class="value">159.12</text>
<text x="10" y="174" class="label">ubi.com</text>
<rect x="180" y="158" width="368.97" height="22" fill="#4c78a8" rx="3"/>
<text x="556.97" y="174" class="value">176.08</text>
<text x="10" y="206" class="label">cdn.akamai.steamstatic.com</text>
<rect x="180" y="190" width="421.65" height="22" fill="#4c78a8" rx="3"/>
<text x="609.65" y="206" class="value">201.22</text>
<text x="10" y="238" class="label">static3.cdn.ubi.com</text>
<rect x="180" y="222" width="456.6" height="22" fill="#4c78a8" rx="3"/>
<text x="644.6" y="238" class="value">217.90</text>
<text x="10" y="270" class="label">battle.net</text>
<rect x="180" y="254" width="457.31" height="22" fill="#4c78a8" rx="3"/>
<text x="645.31" y="270" class="value">218.24</text>
<text x="10" y="302" class="label">steam-chat.com</text>
<rect x="180" y="286" width="477.41" height="22" fill="#4c78a8" rx="3"/>
<text x="665.4100000000001" y="302" class="value">227.83</text>
<text x="10" y="334" class="label">community.akamai.steamstatic.com</text>
<rect x="180" y="318" width="487.53" height="22" fill="#4c78a8" rx="3"/>
<text x="675.53" y="334" class="value">232.66</text>
<text x="10" y="366" class="label">steamcdn-a.akamaihd.net</text>
<rect x="180" y="350" width="487.72" height="22" fill="#4c78a8" rx="3"/>
<text x="675.72" y="366" class="value">232.75</text>
<text x="10" y="398" class="label">store.akamai.steamstatic.com</text>
<rect x="180" y="382" width="500.54" height="22" fill="#4c78a8" rx="3"/>
<text x="688.54" y="398" class="value">238.87</text>
<text x="10" y="430" class="label">ubisoft.com</text>
<rect x="180" y="414" width="528.16" height="22" fill="#4c78a8" rx="3"/>
<text x="716.16" y="430" class="value">252.05</text>
<text x="10" y="462" class="label">cdn.cloudflare.steamstatic.com</text>
<rect x="180" y="446" width="575.6" height="22" fill="#4c78a8" rx="3"/>
<text x="763.6" y="462" class="value">274.69</text>
<text x="10" y="494" class="label">ea.com</text>
<rect x="180" y="478" width="580.0" height="22" fill="#4c78a8" rx="3"/>
<text x="768.0" y="494" class="value">276.79</text>
<line x1="180" y1="30" x2="180" y2="520" stroke="#ccc"/>
<line x1="180" y1="520" x2="760" y2="520" stroke="#ccc"/>
</svg>