<svg xmlns="http://www.w3.org/2000/svg" width="800" height="540">
<style> .label{font-family:DejaVu Sans,Verdana,Geneva,sans-serif;font-size:12px;fill:#333} .value{font-family:DejaVu Sans,Verdana,Geneva,sans-serif;font-size:12px;fill:#555} </style>
<text x="10" y="20" class="label">延迟柱状图（越低越好，Top 15），单位 ms</text>
<text x="10" y="46" class="label">rockstargames.com</text>
<rect x="180" y="30" width="83.81" height="22" fill="#4c78a8" rx="3"/>
<text x="271.81" y="46" class="value">39.74</text>
<text x="10" y="78" class="label">ea.com</text>
<rect x="180" y="62" width="144.31" height="22" fill="#4c78a8" rx="3"/>
<text x="332.31" y="78" class="value">68.43</text>
<text x="10" y="110" class="label">eaassets-a.akamaihd.net</text>
<rect x="180" y="94" width="271.05" height="22" fill="#4c78a8" rx="3"/>
<text x="459.05" y="110" class="value">128.53</text>
<text x="10" y="142" class="label">cdn.akamai.steamstatic.com</text>
<rect x="180" y="126" width="288.53" height="22" fill="#4c78a8" rx="3"/>
<text x="476.53" y="142" class="value">136.82</text>
<text x="10" y="174" class="label">cdn.cloudflare.steamstatic.com</text>
<rect x="180" y="158" width="298.51" height="22" fill="#4c78a8" rx="3"/>
<text x="486.51" y="174" class="value">141.55</text>
<text x="10" y="206" class="label">ubisoft.com</text>
<rect x="180" y="190" width="326.09" height="22" fill="#4c78a8" rx="3"/>
<text x="514.0899999999999" y="206" class="value">154.63</text>
<text x="10" y="238" class="label">origin.com</text>
<rect x="180" y="222" width="356.36" height="22" fill="#4c78a8" rx="3"/>
<text x="544.36" y="238" class="value">168.98</text>
<text x="10" y="270" class="label">api.steampowered.com</text>
<rect x="180" y="254" width="384.0" height="22" fill="#4c78a8" rx="3"/>
<text x="572.0" y="270" class="value">182.09</text>
<text x="10" y="302" class="label">easyanticheat.net</text>
<rect x="180" y="286" width="401.89" height="22" fill="#4c78a8" rx="3"/>
<text x="589.89" y="302" class="value">190.57</text>
<text x="10" y="334" class="label">steamcdn-a.akamaihd.net</text>
<rect x="180" y="318" width="460.89" height="22" fill="#4c78a8" rx="3"/>
<text x="648.89" y="334" class="value">218.55</text>
<text x="10" y="366" class="label">store.akamai.steamstatic.com</text>
<rect x="180" y="350" width="467.66" height="22" fill="#4c78a8" rx="3"/>
<text x="655.6600000000001" y="366" class="value">221.76</text>
<text x="10" y="398" class="label">community.akamai.steamstatic.com</text>
<rect x="180" y="382" width="485.48" height="22" fill="#4c78a8" rx="3"/>
<text x="673.48" y="398" class="value">230.21</text>
<text x="10" y="430" class="label">www.steamcommunity.com</text>
<rect x="180" y="414" width="491.28" height="22" fill="#4c78a8" rx="3"/>
<text x="679.28" y="430" class="value">232.96</text>
<text x="10" y="462" class="label">steam-chat.com</text>
<rect x="180" y="446" width="565.05" height="22" fill="#4c78a8" rx="3"/>
<text x="753.05" y="462" class="value">267.94</text>
<text x="10" y="494" class="label">launcher-public-service-prod06.ol.epicgames.com</text>
<rect x="180" y="478" width="580.0" height="22" fill="#4c78a8" rx="3"/>
<text x="768.0" y="494" class="value">275.03</text>
<line x1="180" y1="30" x2="180" y2="520" stroke="#ccc"/>
<line x1="180" y1="520" x2="760" y2="520" stroke="#ccc"/>
</svg>