<svg xmlns="http://www.w3.org/2000/svg" width="800" height="540">
<style> .label{font-family:DejaVu Sans,Verdana,Geneva,sans-serif;font-size:12px;fill:#333} .value{font-family:DejaVu Sans,Verdana,Geneva,sans-serif;font-size:12px;fill:#555} </style>
<text x="10" y="20" class="label">延迟柱状图（越低越好，Top 15），单位 ms</text>
<text x="10" y="46" class="label">eaassets-a.akamaihd.net</text>
<rect x="180" y="30" width="178.26" height="22" fill="#4c78a8" rx="3"/>
<text x="366.26" y="46" class="value">66.99</text>
<text x="10" y="78" class="label">rockstargames.com</text>
<rect x="180" y="62" width="178.82" height="22" fill="#4c78a8" rx="3"/>
<text x="366.82" y="78" class="value">67.20</text>
<text x="10" y="110" class="label">steamcdn-a.akamaihd.net</text>
<rect x="180" y="94" width="225.36" height="22" fill="#4c78a8" rx="3"/>
<text x="413.36" y="110" class="value">84.69</text>
<text x="10" y="142" class="label">ea.com</text>
<rect x="180" y="126" width="236.86" height="22" fill="#4c78a8" rx="3"/>
<text x="424.86" y="142" class="value">89.01</text>
<text x="10" y="174" class="label">ubisoft.com</text>
<rect x="180" y="158" width="308.02" height="22" fill="#4c78a8" rx="3"/>
<text x="496.02" y="174" class="value">115.75</text>
<text x="10" y="206" class="label">blizzard.com</text>
<rect x="180" y="190" width="338.06" height="22" fill="#4c78a8" rx="3"/>
<text x="526.06" y="206" class="value">127.04</text>
<text x="10" y="238" class="label">static3.cdn.ubi.com</text>
<rect x="180" y="222" width="358.47" height="22" fill="#4c78a8" rx="3"/>
<text x="546.47" y="238" class="value">134.71</text>
<text x="10" y="270" class="label">cdn.akamai.steamstatic.com</text>
<rect x="180" y="254" width="359.37" height="22" fill="#4c78a8" rx="3"/>
<text x="547.37" y="270" class="value">135.05</text>
<text x="10" y="302" class="label">store.akamai.steamstatic.com</text>
<rect x="180" y="286" width="360.73" height="22" fill="#4c78a8" rx="3"/>
<text x="548.73" y="302" class="value">135.56</text>
<text x="10" y="334" class="label">socialclub.rockstargames.com</text>
<rect x="180" y="318" width="366.74" height="22" fill="#4c78a8" rx="3"/>
<text x="554.74" y="334" class="value">137.82</text>
<text x="10" y="366" class="label">battle.net</text>
<rect x="180" y="350" width="378.53" height="22" fill="#4c78a8" rx="3"/>
<text x="566.53" y="366" class="value">142.25</text>
<text x="10" y="398" class="label">ubi.com</text>
<rect x="180" y="382" width="382.18" height="22" fill="#4c78a8" rx="3"/>
<text x="570.1800000000001" y="398" class="value">143.62</text>
<text x="10" y="430" class="label">cdn.cloudflare.steamstatic.com</text>
<rect x="180" y="414" width="408.2" height="22" fill="#4c78a8" rx="3"/>
<text x="596.2" y="430" class="value">153.40</text>
<text x="10" y="462" class="label">community.akamai.steamstatic.com</text>
<rect x="180" y="446" width="454.77" height="22" fill="#4c78a8" rx="3"/>
<text x="642.77" y="462" class="value">170.90</text>
<text x="10" y="494" class="label">origin.com</text>
<rect x="180" y="478" width="580.0" height="22" fill="#4c78a8" rx="3"/>
<text x="768.0" y="494" class="value">217.96</text>
<line x1="180" y1="30" x2="180" y2="520" stroke="#ccc"/>
<line x1="180" y1="520" x2="760" y2="520" stroke="#ccc"/>
</svg>