<svg xmlns="http://www.w3.org/2000/svg" width="800" height="540">
<style> .label{font-family:DejaVu Sans,Verdana,Geneva,sans-serif;font-size:12px;fill:#333} .value{font-family:DejaVu Sans,Verdana,Geneva,sans-serif;font-size:12px;fill:#555} </style>
<text x="10" y="20" class="label">延迟柱状图（越低越好，Top 15），单位 ms</text>
<text x="10" y="46" class="label">rockstargames.com</text>
<rect x="180" y="30" width="106.61" height="22" fill="#4c78a8" rx="3"/>
<text x="294.61" y="46" class="value">35.94</text>
<text x="10" y="78" class="label">steamcdn-a.akamaihd.net</text>
<rect x="180" y="62" width="311.8" height="22" fill="#4c78a8" rx="3"/>
<text x="499.8" y="78" class="value">105.11</text>
<text x="10" y="110" class="label">ea.com</text>
<rect x="180" y="94" width="333.76" height="22" fill="#4c78a8" rx="3"/>
<text x="521.76" y="110" class="value">112.51</text>
<text x="10" y="142" class="label">store.akamai.steamstatic.com</text>
<rect x="180" y="126" width="347.25" height="22" fill="#4c78a8" rx="3"/>
<text x="535.25" y="142" class="value">117.06</text>
<text x="10" y="174" class="label">eaassets-a.akamaihd.net</text>
<rect x="180" y="158" width="363.0" height="22" fill="#4c78a8" rx="3"/>
<text x="551.0" y="174" class="value">122.37</text>
<text x="10" y="206" class="label">socialclub.rockstargames.com</text>
<rect x="180" y="190" width="374.93" height="22" fill="#4c78a8" rx="3"/>
<text x="562.9300000000001" y="206" class="value">126.39</text>
<text x="10" y="238" class="label">battle.net</text>
<rect x="180" y="222" width="381.43" height="22" fill="#4c78a8" rx="3"/>
<text x="569.4300000000001" y="238" class="value">128.58</text>
<text x="10" y="270" class="label">blizzard.com</text>
<rect x="180" y="254" width="392.22" height="22" fill="#4c78a8" rx="3"/>
<text x="580.22" y="270" class="value">132.22</text>
<text x="10" y="302" class="label">ubi.com</text>
<rect x="180" y="286" width="416.34" height="22" fill="#4c78a8" rx="3"/>
<text x="604.3399999999999" y="302" class="value">140.35</text>
<text x="10" y="334" class="label">community.akamai.steamstatic.com</text>
<rect x="180" y="318" width="460.19" height="22" fill="#4c78a8" rx="3"/>
<text x="648.19" y="334" class="value">155.13</text>
<text x="10" y="366" class="label">static3.cdn.ubi.com</text>
<rect x="180" y="350" width="488.66" height="22" fill="#4c78a8" rx="3"/>
<text x="676.6600000000001" y="366" class="value">164.73</text>
<text x="10" y="398" class="label">ubisoft.com</text>
<rect x="180" y="382" width="493.47" height="22" fill="#4c78a8" rx="3"/>
<text x="681.47" y="398" class="value">166.35</text>
<text x="10" y="430" class="label">origin.com</text>
<rect x="180" y="414" width="494.3" height="22" fill="#4c78a8" rx="3"/>
<text x="682.3" y="430" class="value">166.63</text>
<text x="10" y="462" class="label">cdn.cloudflare.steamstatic.com</text>
<rect x="180" y="446" width="571.37" height="22" fill="#4c78a8" rx="3"/>
<text x="759.37" y="462" class="value">192.61</text>
<text x="10" y="494" class="label">gog.com</text>
<rect x="180" y="478" width="580.0" height="22" fill="#4c78a8" rx="3"/>
<text x="768.0" y="494" class="value">195.52</text>
<line x1="180" y1="30" x2="180" y2="520" stroke="#ccc"/>
<line x1="180" y1="520" x2="760" y2="520" stroke="#ccc"/>
</svg>