<svg xmlns="http://www.w3.org/2000/svg" width="800" height="540">
<style> .label{font-family:DejaVu Sans,Verdana,Geneva,sans-serif;font-size:12px;fill:#333} .value{font-family:DejaVu Sans,Verdana,Geneva,sans-serif;font-size:12px;fill:#555} </style>
<text x="10" y="20" class="label">延迟柱状图（越低越好，Top 15），单位 ms</text>
<text x="10" y="46" class="label">rockstargames.com</text>
<rect x="180" y="30" width="159.23" height="22" fill="#4c78a8" rx="3"/>
<text x="347.23" y="46" class="value">51.92</text>
<text x="10" y="78" class="label">blizzard.com</text>
<rect x="180" y="62" width="291.01" height="22" fill="#4c78a8" rx="3"/>
<text x="479.01" y="78" class="value">94.89</text>
<text x="10" y="110" class="label">socialclub.rockstargames.com</text>
<rect x="180" y="94" width="316.5" height="22" fill="#4c78a8" rx="3"/>
<text x="504.5" y="110" class="value">103.20</text>
<text x="10" y="142" class="label">battle.net</text>
<rect x="180" y="126" width="343.49" height="22" fill="#4c78a8" rx="3"/>
<text x="531.49" y="142" class="value">112.00</text>
<text x="10" y="174" class="label">epicgames.com</text>
<rect x="180" y="158" width="366.3" height="22" fill="#4c78a8" rx="3"/>
<text x="554.3" y="174" class="value">119.44</text>
<text x="10" y="206" class="label">ubi.com</text>
<rect x="180" y="190" width="409.88" height="22" fill="#4c78a8" rx="3"/>
<text x="597.88" y="206" class="value">133.65</text>
<text x="10" y="238" class="label">static3.cdn.ubi.com</text>
<rect x="180" y="222" width="448.06" height="22" fill="#4c78a8" rx="3"/>
<text x="636.06" y="238" class="value">146.10</text>
<text x="10" y="270" class="label">unrealengine.com</text>
<rect x="180" y="254" width="464.84" height="22" fill="#4c78a8" rx="3"/>
<text x="652.8399999999999" y="270" class="value">151.57</text>
<text x="10" y="302" class="label">fortnite.com</text>
<rect x="180" y="286" width="482.08" height="22" fill="#4c78a8" rx="3"/>
<text x="670.0799999999999" y="302" class="value">157.19</text>
<text x="10" y="334" class="label">ubisoft.com</text>
<rect x="180" y="318" width="500.38" height="22" fill="#4c78a8" rx="3"/>
<text x="688.38" y="334" class="value">163.16</text>
<text x="10" y="366" class="label">origin.com</text>
<rect x="180" y="350" width="550.62" height="22" fill="#4c78a8" rx="3"/>
<text x="738.62" y="366" class="value">179.54</text>
<text x="10" y="398" class="label">cdn.akamai.steamstatic.com</text>
<rect x="180" y="382" width="555.65" height="22" fill="#4c78a8" rx="3"/>
<text x="743.65" y="398" class="value">181.18</text>
<text x="10" y="430" class="label">gog.com</text>
<rect x="180" y="414" width="556.26" height="22" fill="#4c78a8" rx="3"/>
<text x="744.26" y="430" class="value">181.38</text>
<text x="10" y="462" class="label">ea.com</text>
<rect x="180" y="446" width="570.68" height="22" fill="#4c78a8" rx="3"/>
<text x="758.68" y="462" class="value">186.08</text>
<text x="10" y="494" class="label">community.akamai.steamstatic.com</text>
<rect x="180" y="478" width="580.0" height="22" fill="#4c78a8" rx="3"/>
<text x="768.0" y="494" class="value">189.12</text>
<line x1="180" y1="30" x2="180" y2="520" stroke="#ccc"/>
<line x1="180" y1="520" x2="760" y2="520" stroke="#ccc"/>
</svg>