<svg xmlns="http://www.w3.org/2000/svg" width="800" height="540">
<style> .label{font-family:DejaVu Sans,Verdana,Geneva,sans-serif;font-size:12px;fill:#333} .value{font-family:DejaVu Sans,Verdana,Geneva,sans-serif;font-size:12px;fill:#555} </style>
<text x="10" y="20" class="label">延迟柱状图（越低越好，Top 15），单位 ms</text>
<text x="10" y="46" class="label">rockstargames.com</text>
<rect x="180" y="30" width="205.84" height="22" fill="#4c78a8" rx="3"/>
<text x="393.84000000000003" y="46" class="value">72.77</text>
<text x="10" y="78" class="label">eaassets-a.akamaihd.net</text>
<rect x="180" y="62" width="218.03" height="22" fill="#4c78a8" rx="3"/>
<text x="406.03" y="78" class="value">77.08</text>
<text x="10" y="110" class="label">ea.com</text>
<rect x="180" y="94" width="221.79" height="22" fill="#4c78a8" rx="3"/>
<text x="409.78999999999996" y="110" class="value">78.41</text>
<text x="10" y="142" class="label">blizzard.com</text>
<rect x="180" y="126" width="334.37" height="22" fill="#4c78a8" rx="3"/>
<text x="522.37" y="142" class="value">118.21</text>
<text x="10" y="174" class="label">socialclub.rockstargames.com</text>
<rect x="180" y="158" width="361.27" height="22" fill="#4c78a8" rx="3"/>
<text x="549.27" y="174" class="value">127.72</text>
<text x="10" y="206" class="label">battle.net</text>
<rect x="180" y="190" width="392.24" height="22" fill="#4c78a8" rx="3"/>
<text x="580.24" y="206" class="value">138.67</text>
<text x="10" y="238" class="label">origin.com</text>
<rect x="180" y="222" width="394.02" height="22" fill="#4c78a8" rx="3"/>
<text x="582.02" y="238" class="value">139.30</text>
<text x="10" y="270" class="label">store.akamai.steamstatic.com</text>
<rect x="180" y="254" width="424.23" height="22" fill="#4c78a8" rx="3"/>
<text x="612.23" y="270" class="value">149.98</text>
<text x="10" y="302" class="label">ubi.com</text>
<rect x="180" y="286" width="450.45" height="22" fill="#4c78a8" rx="3"/>
<text x="638.45" y="302" class="value">159.25</text>
<text x="10" y="334" class="label">cdn.akamai.steamstatic.com</text>
<rect x="180" y="318" width="469.29" height="22" fill="#4c78a8" rx="3"/>
<text x="657.29" y="334" class="value">165.91</text>
<text x="10" y="366" class="label">steamcdn-a.akamaihd.net</text>
<rect x="180" y="350" width="478.51" height="22" fill="#4c78a8" rx="3"/>
<text x="666.51" y="366" class="value">169.17</text>
<text x="10" y="398" class="label">ubisoft.com</text>
<rect x="180" y="382" width="482.58" height="22" fill="#4c78a8" rx="3"/>
<text x="670.5799999999999" y="398" class="value">170.61</text>
<text x="10" y="430" class="label">static3.cdn.ubi.com</text>
<rect x="180" y="414" width="532.85" height="22" fill="#4c78a8" rx="3"/>
<text x="720.85" y="430" class="value">188.38</text>
<text x="10" y="462" class="label">epicgames.com</text>
<rect x="180" y="446" width="579.07" height="22" fill="#4c78a8" rx="3"/>
<text x="767.07" y="462" class="value">204.72</text>
<text x="10" y="494" class="label">community.akamai.steamstatic.com</text>
<rect x="180" y="478" width="580.0" height="22" fill="#4c78a8" rx="3"/>
<text x="768.0" y="494" class="value">205.05</text>
<line x1="180" y1="30" x2="180" y2="520" stroke="#ccc"/>
<line x1="180" y1="520" x2="760" y2="520" stroke="#ccc"/>
</svg>