<svg xmlns="http://www.w3.org/2000/svg" width="800" height="540">
<style> .label{font-family:DejaVu Sans,Verdana,Geneva,sans-serif;font-size:12px;fill:#333} .value{font-family:DejaVu Sans,Verdana,Geneva,sans-serif;font-size:12px;fill:#555} </style>
<text x="10" y="20" class="label">延迟柱状图（越低越好，Top 15），单位 ms</text>
<text x="10" y="46" class="label">rockstargames.com</text>
<rect x="180" y="30" width="89.26" height="22" fill="#4c78a8" rx="3"/>
<text x="277.26" y="46" class="value">40.58</text>
<text x="10" y="78" class="label">origin.com</text>
<rect x="180" y="62" width="173.71" height="22" fill="#4c78a8" rx="3"/>
<text x="361.71000000000004" y="78" class="value">78.97</text>
<text x="10" y="110" class="label">ea.com</text>
<rect x="180" y="94" width="184.15" height="22" fill="#4c78a8" rx="3"/>
<text x="372.15" y="110" class="value">83.72</text>
<text x="10" y="142" class="label">eaassets-a.akamaihd.net</text>
<rect x="180" y="126" width="188.55" height="22" fill="#4c78a8" rx="3"/>
<text x="376.55" y="142" class="value">85.72</text>
<text x="10" y="174" class="label">steamcdn-a.akamaihd.net</text>
<rect x="180" y="158" width="205.38" height="22" fill="#4c78a8" rx="3"/>
<text x="393.38" y="174" class="value">93.37</text>
<text x="10" y="206" class="label">cdn.cloudflare.steamstatic.com</text>
<rect x="180" y="190" width="233.93" height="22" fill="#4c78a8" rx="3"/>
<text x="421.93" y="206" class="value">106.35</text>
<text x="10" y="238" class="label">ubisoft.com</text>
<rect x="180" y="222" width="249.0" height="22" fill="#4c78a8" rx="3"/>
<text x="437.0" y="238" class="value">113.20</text>
<text x="10" y="270" class="label">store.akamai.steamstatic.com</text>
<rect x="180" y="254" width="314.75" height="22" fill="#4c78a8" rx="3"/>
<text x="502.75" y="270" class="value">143.09</text>
<text x="10" y="302" class="label">community.akamai.steamstatic.com</text>
<rect x="180" y="286" width="422.51" height="22" fill="#4c78a8" rx="3"/>
<text x="610.51" y="302" class="value">192.08</text>
<text x="10" y="334" class="label">gog.com</text>
<rect x="180" y="318" width="430.36" height="22" fill="#4c78a8" rx="3"/>
<text x="618.36" y="334" class="value">195.65</text>
<text x="10" y="366" class="label">cdn.akamai.steamstatic.com</text>
<rect x="180" y="350" width="453.34" height="22" fill="#4c78a8" rx="3"/>
<text x="641.3399999999999" y="366" class="value">206.10</text>
<text x="10" y="398" class="label">launcher-public-service-prod06.ol.epicgames.com</text>
<rect x="180" y="382" width="525.54" height="22" fill="#4c78a8" rx="3"/>
<text x="713.54" y="398" class="value">238.92</text>
<text x="10" y="430" class="label">api.steampowered.com</text>
<rect x="180" y="414" width="538.18" height="22" fill="#4c78a8" rx="3"/>
<text x="726.18" y="430" class="value">244.67</text>
<text x="10" y="462" class="label">easyanticheat.net</text>
<rect x="180" y="446" width="541.0" height="22" fill="#4c78a8" rx="3"/>
<text x="729.0" y="462" class="value">245.95</text>
<text x="10" y="494" class="label">steam-chat.com</text>
<rect x="180" y="478" width="580.0" height="22" fill="#4c78a8" rx="3"/>
<text x="768.0" y="494" class="value">263.68</text>
<line x1="180" y1="30" x2="180" y2="520" stroke="#ccc"/>
<line x1="180" y1="520" x2="760" y2="520" stroke="#ccc"/>
</svg>