<svg xmlns="http://www.w3.org/2000/svg" width="800" height="540">
<style> .label{font-family:DejaVu Sans,Verdana,Geneva,sans-serif;font-size:12px;fill:#333} .value{font-family:DejaVu Sans,Verdana,Geneva,sans-serif;font-size:12px;fill:#555} </style>
<text x="10" y="20" class="label">延迟柱状图（越低越好，Top 15），单位 ms</text>
<text x="10" y="46" class="label">rockstargames.com</text>
<rect x="180" y="30" width="217.12" height="22" fill="#4c78a8" rx="3"/>
<text x="405.12" y="46" class="value">69.97</text>
<text x="10" y="78" class="label">ea.com</text>
<rect x="180" y="62" width="265.41" height="22" fill="#4c78a8" rx="3"/>
<text x="453.41" y="78" class="value">85.53</text>
<text x="10" y="110" class="label">ubisoft.com</text>
<rect x="180" y="94" width="278.1" height="22" fill="#4c78a8" rx="3"/>
<text x="466.1" y="110" class="value">89.62</text>
<text x="10" y="142" class="label">eaassets-a.akamaihd.net</text>
<rect x="180" y="126" width="279.31" height="22" fill="#4c78a8" rx="3"/>
<text x="467.31" y="142" class="value">90.01</text>
<text x="10" y="174" class="label">ubi.com</text>
<rect x="180" y="158" width="295.14" height="22" fill="#4c78a8" rx="3"/>
<text x="483.14" y="174" class="value">95.11</text>
<text x="10" y="206" class="label">blizzard.com</text>
<rect x="180" y="190" width="297.84" height="22" fill="#4c78a8" rx="3"/>
<text x="485.84" y="206" class="value">95.98</text>
<text x="10" y="238" class="label">battle.net</text>
<rect x="180" y="222" width="300.38" height="22" fill="#4c78a8" rx="3"/>
<text x="488.38" y="238" class="value">96.80</text>
<text x="10" y="270" class="label">steamcdn-a.akamaihd.net</text>
<rect x="180" y="254" width="340.56" height="22" fill="#4c78a8" rx="3"/>
<text x="528.56" y="270" class="value">109.75</text>
<text x="10" y="302" class="label">fortnite.com</text>
<rect x="180" y="286" width="417.34" height="22" fill="#4c78a8" rx="3"/>
<text x="605.3399999999999" y="302" class="value">134.49</text>
<text x="10" y="334" class="label">easyanticheat.net</text>
<rect x="180" y="318" width="478.31" height="22" fill="#4c78a8" rx="3"/>
<text x="666.31" y="334" class="value">154.14</text>
<text x="10" y="366" class="label">launcher-public-service-prod06.ol.epicgames.com</text>
<rect x="180" y="350" width="480.3" height="22" fill="#4c78a8" rx="3"/>
<text x="668.3" y="366" class="value">154.78</text>
<text x="10" y="398" class="label">store.akamai.steamstatic.com</text>
<rect x="180" y="382" width="493.05" height="22" fill="#4c78a8" rx="3"/>
<text x="681.05" y="398" class="value">158.89</text>
<text x="10" y="430" class="label">community.akamai.steamstatic.com</text>
<rect x="180" y="414" width="545.46" height="22" fill="#4c78a8" rx="3"/>
<text x="733.46" y="430" class="value">175.78</text>
<text x="10" y="462" class="label">epicgames.com</text>
<rect x="180" y="446" width="557.56" height="22" fill="#4c78a8" rx="3"/>
<text x="745.56" y="462" class="value">179.68</text>
<text x="10" y="494" class="label">unrealengine.com</text>
<rect x="180" y="478" width="580.0" height="22" fill="#4c78a8" rx="3"/>
<text x="768.0" y="494" class="value">186.91</text>
<line x1="180" y1="30" x2="180" y2="520" stroke="#ccc"/>
<line x1="180" y1="520" x2="760" y2="520" stroke="#ccc"/>
</svg>