<svg xmlns="http://www.w3.org/2000/svg" width="800" height="540">
<style> .label{font-family:DejaVu Sans,Verdana,Geneva,sans-serif;font-size:12px;fill:#333} .value{font-family:DejaVu Sans,Verdana,Geneva,sans-serif;font-size:12px;fill:#555} </style>
<text x="10" y="20" class="label">延迟柱状图（越低越好，Top 15），单位 ms</text>
<text x="10" y="46" class="label">rockstargames.com</text>
<rect x="180" y="30" width="164.4" height="22" fill="#4c78a8" rx="3"/>
<text x="352.4" y="46" class="value">45.85</text>
<text x="10" y="78" class="label">socialclub.rockstargames.com</text>
<rect x="180" y="62" width="219.94" height="22" fill="#4c78a8" rx="3"/>
<text x="407.94" y="78" class="value">61.34</text>
<text x="10" y="110" class="label">ea.com</text>
<rect x="180" y="94" width="311.44" height="22" fill="#4c78a8" rx="3"/>
<text x="499.44" y="110" class="value">86.86</text>
<text x="10" y="142" class="label">blizzard.com</text>
<rect x="180" y="126" width="331.84" height="22" fill="#4c78a8" rx="3"/>
<text x="519.8399999999999" y="142" class="value">92.55</text>
<text x="10" y="174" class="label">ubi.com</text>
<rect x="180" y="158" width="334.1" height="22" fill="#4c78a8" rx="3"/>
<text x="522.1" y="174" class="value">93.18</text>
<text x="10" y="206" class="label">battle.net</text>
<rect x="180" y="190" width="365.62" height="22" fill="#4c78a8" rx="3"/>
<text x="553.62" y="206" class="value">101.97</text>
<text x="10" y="238" class="label">ubisoft.com</text>
<rect x="180" y="222" width="372.58" height="22" fill="#4c78a8" rx="3"/>
<text x="560.5799999999999" y="238" class="value">103.91</text>
<text x="10" y="270" class="label">cdn.akamai.steamstatic.com</text>
<rect x="180" y="254" width="374.44" height="22" fill="#4c78a8" rx="3"/>
<text x="562.44" y="270" class="value">104.43</text>
<text x="10" y="302" class="label">unrealengine.com</text>
<rect x="180" y="286" width="394.16" height="22" fill="#4c78a8" rx="3"/>
<text x="582.1600000000001" y="302" class="value">109.93</text>
<text x="10" y="334" class="label">eaassets-a.akamaihd.net</text>
<rect x="180" y="318" width="402.26" height="22" fill="#4c78a8" rx="3"/>
<text x="590.26" y="334" class="value">112.19</text>
<text x="10" y="366" class="label">store.akamai.steamstatic.com</text>
<rect x="180" y="350" width="434.61" height="22" fill="#4c78a8" rx="3"/>
<text x="622.61" y="366" class="value">121.21</text>
<text x="10" y="398" class="label">origin.com</text>
<rect x="180" y="382" width="436.47" height="22" fill="#4c78a8" rx="3"/>
<text x="624.47" y="398" class="value">121.73</text>
<text x="10" y="430" class="label">epicgames.com</text>
<rect x="180" y="414" width="536.76" height="22" fill="#4c78a8" rx="3"/>
<text x="724.76" y="430" class="value">149.70</text>
<text x="10" y="462" class="label">community.akamai.steamstatic.com</text>
<rect x="180" y="446" width="548.3" height="22" fill="#4c78a8" rx="3"/>
<text x="736.3" y="462" class="value">152.92</text>
<text x="10" y="494" class="label">fortnite.com</text>
<rect x="180" y="478" width="580.0" height="22" fill="#4c78a8" rx="3"/>
<text x="768.0" y="494" class="value">161.76</text>
<line x1="180" y1="30" x2="180" y2="520" stroke="#ccc"/>
<line x1="180" y1="520" x2="760" y2="520" stroke="#ccc"/>
</svg>