<svg xmlns="http://www.w3.org/2000/svg" width="800" height="540">
<style> .label{font-family:DejaVu Sans,Verdana,Geneva,sans-serif;font-size:12px;fill:#333} .value{font-family:DejaVu Sans,Verdana,Geneva,sans-serif;font-size:12px;fill:#555} </style>
<text x="10" y="20" class="label">延迟柱状图（越低越好，Top 15），单位 ms</text>
<text x="10" y="46" class="label">cdn.akamai.steamstatic.com</text>
<rect x="180" y="30" width="181.99" height="22" fill="#4c78a8" rx="3"/>
<text x="369.99" y="46" class="value">82.78</text>
<text x="10" y="78" class="label">store.akamai.steamstatic.com</text>
<rect x="180" y="62" width="229.83" height="22" fill="#4c78a8" rx="3"/>
<text x="417.83000000000004" y="78" class="value">104.54</text>
<text x="10" y="110" class="label">eaassets-a.akamaihd.net</text>
<rect x="180" y="94" width="238.45" height="22" fill="#4c78a8" rx="3"/>
<text x="426.45" y="110" class="value">108.46</text>
<text x="10" y="142" class="label">community.akamai.steamstatic.com</text>
<rect x="180" y="126" width="263.31" height="22" fill="#4c78a8" rx="3"/>
<text x="451.31" y="142" class="value">119.77</text>
<text x="10" y="174" class="label">rockstargames.com</text>
<rect x="180" y="158" width="265.31" height="22" fill="#4c78a8" rx="3"/>
<text x="453.31" y="174" class="value">120.68</text>
<text x="10" y="206" class="label">cdn.cloudflare.steamstatic.com</text>
<rect x="180" y="190" width="266.52" height="22" fill="#4c78a8" rx="3"/>
<text x="454.52" y="206" class="value">121.23</text>
<text x="10" y="238" class="label">steamcdn-a.akamaihd.net</text>
<rect x="180" y="222" width="285.1" height="22" fill="#4c78a8" rx="3"/>
<text x="473.1" y="238" class="value">129.68</text>
<text x="10" y="270" class="label">ubisoft.com</text>
<rect x="180" y="254" width="314.86" height="22" fill="#4c78a8" rx="3"/>
<text x="502.86" y="270" class="value">143.22</text>
<text x="10" y="302" class="label">easyanticheat.net</text>
<rect x="180" y="286" width="358.59" height="22" fill="#4c78a8" rx="3"/>
<text x="546.5899999999999" y="302" class="value">163.11</text>
<text x="10" y="334" class="label">origin.com</text>
<rect x="180" y="318" width="382.2" height="22" fill="#4c78a8" rx="3"/>
<text x="570.2" y="334" class="value">173.85</text>
<text x="10" y="366" class="label">ea.com</text>
<rect x="180" y="350" width="388.51" height="22" fill="#4c78a8" rx="3"/>
<text x="576.51" y="366" class="value">176.72</text>
<text x="10" y="398" class="label">api.steampowered.com</text>
<rect x="180" y="382" width="468.85" height="22" fill="#4c78a8" rx="3"/>
<text x="656.85" y="398" class="value">213.26</text>
<text x="10" y="430" class="label">ubi.com</text>
<rect x="180" y="414" width="546.41" height="22" fill="#4c78a8" rx="3"/>
<text x="734.41" y="430" class="value">248.54</text>
<text x="10" y="462" class="label">steam-chat.com</text>
<rect x="180" y="446" width="553.46" height="22" fill="#4c78a8" rx="3"/>
<text x="741.46" y="462" class="value">251.75</text>
<text x="10" y="494" class="label">steamcommunity.com</text>
<rect x="180" y="478" width="580.0" height="22" fill="#4c78a8" rx="3"/>
<text x="768.0" y="494" class="value">263.82</text>
<line x1="180" y1="30" x2="180" y2="520" stroke="#ccc"/>
<line x1="180" y1="520" x2="760" y2="520" stroke="#ccc"/>
</svg>