<svg xmlns="http://www.w3.org/2000/svg" width="800" height="540">
<style> .label{font-family:DejaVu Sans,Verdana,Geneva,sans-serif;font-size:12px;fill:#333} .value{font-family:DejaVu Sans,Verdana,Geneva,sans-serif;font-size:12px;fill:#555} </style>
<text x="10" y="20" class="label">延迟柱状图（越低越好，Top 15），单位 ms</text>
<text x="10" y="46" class="label">eaassets-a.akamaihd.net</text>
<rect x="180" y="30" width="194.5" height="22" fill="#4c78a8" rx="3"/>
<text x="382.5" y="46" class="value">68.59</text>
<text x="10" y="78" class="label">rockstargames.com</text>
<rect x="180" y="62" width="225.26" height="22" fill="#4c78a8" rx="3"/>
<text x="413.26" y="78" class="value">79.44</text>
<text x="10" y="110" class="label">ea.com</text>
<rect x="180" y="94" width="272.99" height="22" fill="#4c78a8" rx="3"/>
<text x="460.99" y="110" class="value">96.27</text>
<text x="10" y="142" class="label">origin.com</text>
<rect x="180" y="126" width="308.77" height="22" fill="#4c78a8" rx="3"/>
<text x="496.77" y="142" class="value">108.89</text>
<text x="10" y="174" class="label">steamcdn-a.akamaihd.net</text>
<rect x="180" y="158" width="364.63" height="22" fill="#4c78a8" rx="3"/>
<text x="552.63" y="174" class="value">128.59</text>
<text x="10" y="206" class="label">blizzard.com</text>
<rect x="180" y="190" width="366.14" height="22" fill="#4c78a8" rx="3"/>
<text x="554.14" y="206" class="value">129.12</text>
<text x="10" y="238" class="label">socialclub.rockstargames.com</text>
<rect x="180" y="222" width="372.32" height="22" fill="#4c78a8" rx="3"/>
<text x="560.3199999999999" y="238" class="value">131.30</text>
<text x="10" y="270" class="label">battle.net</text>
<rect x="180" y="254" width="381.11" height="22" fill="#4c78a8" rx="3"/>
<text x="569.11" y="270" class="value">134.40</text>
<text x="10" y="302" class="label">cdn.cloudflare.steamstatic.com</text>
<rect x="180" y="286" width="412.07" height="22" fill="#4c78a8" rx="3"/>
<text x="600.0699999999999" y="302" class="value">145.32</text>
<text x="10" y="334" class="label">ubi.com</text>
<rect x="180" y="318" width="435.75" height="22" fill="#4c78a8" rx="3"/>
<text x="623.75" y="334" class="value">153.67</text>
<text x="10" y="366" class="label">store.akamai.steamstatic.com</text>
<rect x="180" y="350" width="478.14" height="22" fill="#4c78a8" rx="3"/>
<text x="666.14" y="366" class="value">168.62</text>
<text x="10" y="398" class="label">static3.cdn.ubi.com</text>
<rect x="180" y="382" width="504.6" height="22" fill="#4c78a8" rx="3"/>
<text x="692.6" y="398" class="value">177.95</text>
<text x="10" y="430" class="label">ubisoft.com</text>
<rect x="180" y="414" width="505.73" height="22" fill="#4c78a8" rx="3"/>
<text x="693.73" y="430" class="value">178.35</text>
<text x="10" y="462" class="label">api.steampowered.com</text>
<rect x="180" y="446" width="509.68" height="22" fill="#4c78a8" rx="3"/>
<text x="697.6800000000001" y="462" class="value">179.74</text>
<text x="10" y="494" class="label">easyanticheat.net</text>
<rect x="180" y="478" width="580.0" height="22" fill="#4c78a8" rx="3"/>
<text x="768.0" y="494" class="value">204.54</text>
<line x1="180" y1="30" x2="180" y2="520" stroke="#ccc"/>
<line x1="180" y1="520" x2="760" y2="520" stroke="#ccc"/>
</svg>