<svg xmlns="http://www.w3.org/2000/svg" width="800" height="540">
<style> .label{font-family:DejaVu Sans,Verdana,Geneva,sans-serif;font-size:12px;fill:#333} .value{font-family:DejaVu Sans,Verdana,Geneva,sans-serif;font-size:12px;fill:#555} </style>
<text x="10" y="20" class="label">延迟柱状图（越低越好，Top 15），单位 ms</text>
<text x="10" y="46" class="label">rockstargames.com</text>
<rect x="180" y="30" width="187.41" height="22" fill="#4c78a8" rx="3"/>
<text x="375.40999999999997" y="46" class="value">75.44</text>
<text x="10" y="78" class="label">socialclub.rockstargames.com</text>
<rect x="180" y="62" width="203.63" height="22" fill="#4c78a8" rx="3"/>
<text x="391.63" y="78" class="value">81.97</text>
<text x="10" y="110" class="label">ubi.com</text>
<rect x="180" y="94" width="206.22" height="22" fill="#4c78a8" rx="3"/>
<text x="394.22" y="110" class="value">83.01</text>
<text x="10" y="142" class="label">blizzard.com</text>
<rect x="180" y="126" width="215.98" height="22" fill="#4c78a8" rx="3"/>
<text x="403.98" y="142" class="value">86.94</text>
<text x="10" y="174" class="label">battle.net</text>
<rect x="180" y="158" width="245.32" height="22" fill="#4c78a8" rx="3"/>
<text x="433.32" y="174" class="value">98.75</text>
<text x="10" y="206" class="label">ea.com</text>
<rect x="180" y="190" width="256.38" height="22" fill="#4c78a8" rx="3"/>
<text x="444.38" y="206" class="value">103.20</text>
<text x="10" y="238" class="label">fortnite.com</text>
<rect x="180" y="222" width="291.43" height="22" fill="#4c78a8" rx="3"/>
<text x="479.43" y="238" class="value">117.31</text>
<text x="10" y="270" class="label">origin.com</text>
<rect x="180" y="254" width="304.07" height="22" fill="#4c78a8" rx="3"/>
<text x="492.07" y="270" class="value">122.40</text>
<text x="10" y="302" class="label">ubisoft.com</text>
<rect x="180" y="286" width="343.08" height="22" fill="#4c78a8" rx="3"/>
<text x="531.0799999999999" y="302" class="value">138.10</text>
<text x="10" y="334" class="label">cdn.akamai.steamstatic.com</text>
<rect x="180" y="318" width="347.27" height="22" fill="#4c78a8" rx="3"/>
<text x="535.27" y="334" class="value">139.79</text>
<text x="10" y="366" class="label">epicgames.com</text>
<rect x="180" y="350" width="372.69" height="22" fill="#4c78a8" rx="3"/>
<text x="560.69" y="366" class="value">150.02</text>
<text x="10" y="398" class="label">unrealengine.com</text>
<rect x="180" y="382" width="501.45" height="22" fill="#4c78a8" rx="3"/>
<text x="689.45" y="398" class="value">201.85</text>
<text x="10" y="430" class="label">community.akamai.steamstatic.com</text>
<rect x="180" y="414" width="540.53" height="22" fill="#4c78a8" rx="3"/>
<text x="728.53" y="430" class="value">217.58</text>
<text x="10" y="462" class="label">static3.cdn.ubi.com</text>
<rect x="180" y="446" width="561.14" height="22" fill="#4c78a8" rx="3"/>
<text x="749.14" y="462" class="value">225.88</text>
<text x="10" y="494" class="label">steamcdn-a.akamaihd.net</text>
<rect x="180" y="478" width="580.0" height="22" fill="#4c78a8" rx="3"/>
<text x="768.0" y="494" class="value">233.47</text>
<line x1="180" y1="30" x2="180" y2="520" stroke="#ccc"/>
<line x1="180" y1="520" x2="760" y2="520" stroke="#ccc"/>
</svg>