<svg xmlns="http://www.w3.org/2000/svg" width="800" height="540">
<style> .label{font-family:DejaVu Sans,Verdana,Geneva,sans-serif;font-size:12px;fill:#333} .value{font-family:DejaVu Sans,Verdana,Geneva,sans-serif;font-size:12px;fill:#555} </style>
<text x="10" y="20" class="label">延迟柱状图（越低越好，Top 15），单位 ms</text>
<text x="10" y="46" class="label">rockstargames.com</text>
<rect x="180" y="30" width="173.56" height="22" fill="#4c78a8" rx="3"/>
<text x="361.56" y="46" class="value">70.43</text>
<text x="10" y="78" class="label">ubisoft.com</text>
<rect x="180" y="62" width="191.4" height="22" fill="#4c78a8" rx="3"/>
<text x="379.4" y="78" class="value">77.67</text>
<text x="10" y="110" class="label">ea.com</text>
<rect x="180" y="94" width="205.87" height="22" fill="#4c78a8" rx="3"/>
<text x="393.87" y="110" class="value">83.54</text>
<text x="10" y="142" class="label">steamcdn-a.akamaihd.net</text>
<rect x="180" y="126" width="219.55" height="22" fill="#4c78a8" rx="3"/>
<text x="407.55" y="142" class="value">89.09</text>
<text x="10" y="174" class="label">community.akamai.steamstatic.com</text>
<rect x="180" y="158" width="255.77" height="22" fill="#4c78a8" rx="3"/>
<text x="443.77" y="174" class="value">103.79</text>
<text x="10" y="206" class="label">store.akamai.steamstatic.com</text>
<rect x="180" y="190" width="270.01" height="22" fill="#4c78a8" rx="3"/>
<text x="458.01" y="206" class="value">109.57</text>
<text x="10" y="238" class="label">cdn.akamai.steamstatic.com</text>
<rect x="180" y="222" width="298.3" height="22" fill="#4c78a8" rx="3"/>
<text x="486.3" y="238" class="value">121.05</text>
<text x="10" y="270" class="label">battle.net</text>
<rect x="180" y="254" width="313.85" height="22" fill="#4c78a8" rx="3"/>
<text x="501.85" y="270" class="value">127.36</text>
<text x="10" y="302" class="label">blizzard.com</text>
<rect x="180" y="286" width="331.1" height="22" fill="#4c78a8" rx="3"/>
<text x="519.1" y="302" class="value">134.36</text>
<text x="10" y="334" class="label">socialclub.rockstargames.com</text>
<rect x="180" y="318" width="332.95" height="22" fill="#4c78a8" rx="3"/>
<text x="520.95" y="334" class="value">135.11</text>
<text x="10" y="366" class="label">ubi.com</text>
<rect x="180" y="350" width="356.88" height="22" fill="#4c78a8" rx="3"/>
<text x="544.88" y="366" class="value">144.82</text>
<text x="10" y="398" class="label">unrealengine.com</text>
<rect x="180" y="382" width="410.9" height="22" fill="#4c78a8" rx="3"/>
<text x="598.9" y="398" class="value">166.74</text>
<text x="10" y="430" class="label">origin.com</text>
<rect x="180" y="414" width="462.01" height="22" fill="#4c78a8" rx="3"/>
<text x="650.01" y="430" class="value">187.48</text>
<text x="10" y="462" class="label">static3.cdn.ubi.com</text>
<rect x="180" y="446" width="465.63" height="22" fill="#4c78a8" rx="3"/>
<text x="653.63" y="462" class="value">188.95</text>
<text x="10" y="494" class="label">steam-chat.com</text>
<rect x="180" y="478" width="580.0" height="22" fill="#4c78a8" rx="3"/>
<text x="768.0" y="494" class="value">235.36</text>
<line x1="180" y1="30" x2="180" y2="520" stroke="#ccc"/>
<line x1="180" y1="520" x2="760" y2="520" stroke="#ccc"/>
</svg>