<svg xmlns="http://www.w3.org/2000/svg" width="800" height="540">
<style> .label{font-family:DejaVu Sans,Verdana,Geneva,sans-serif;font-size:12px;fill:#333} .value{font-family:DejaVu Sans,Verdana,Geneva,sans-serif;font-size:12px;fill:#555} </style>
<text x="10" y="20" class="label">延迟柱状图（越低越好，Top 15），单位 ms</text>
<text x="10" y="46" class="label">ubisoft.com</text>
<rect x="180" y="30" width="320.57" height="22" fill="#4c78a8" rx="3"/>
<text x="508.57" y="46" class="value">145.13</text>
<text x="10" y="78" class="label">cdn.cloudflare.steamstatic.com</text>
<rect x="180" y="62" width="414.36" height="22" fill="#4c78a8" rx="3"/>
<text x="602.36" y="78" class="value">187.59</text>
<text x="10" y="110" class="label">origin.com</text>
<rect x="180" y="94" width="415.73" height="22" fill="#4c78a8" rx="3"/>
<text x="603.73" y="110" class="value">188.21</text>
<text x="10" y="142" class="label">rockstargames.com</text>
<rect x="180" y="126" width="418.0" height="22" fill="#4c78a8" rx="3"/>
<text x="606.0" y="142" class="value">189.24</text>
<text x="10" y="174" class="label">community.akamai.steamstatic.com</text>
<rect x="180" y="158" width="423.7" height="22" fill="#4c78a8" rx="3"/>
<text x="611.7" y="174" class="value">191.82</text>
<text x="10" y="206" class="label">ubi.com</text>
<rect x="180" y="190" width="446.43" height="22" fill="#4c78a8" rx="3"/>
<text x="634.4300000000001" y="206" class="value">202.11</text>
<text x="10" y="238" class="label">steamcdn-a.akamaihd.net</text>
<rect x="180" y="222" width="446.61" height="22" fill="#4c78a8" rx="3"/>
<text x="634.61" y="238" class="value">202.19</text>
<text x="10" y="270" class="label">store.akamai.steamstatic.com</text>
<rect x="180" y="254" width="469.27" height="22" fill="#4c78a8" rx="3"/>
<text x="657.27" y="270" class="value">212.45</text>
<text x="10" y="302" class="label">battle.net</text>
<rect x="180" y="286" width="470.49" height="22" fill="#4c78a8" rx="3"/>
<text x="658.49" y="302" class="value">213.00</text>
<text x="10" y="334" class="label">steam-chat.com</text>
<rect x="180" y="318" width="482.04" height="22" fill="#4c78a8" rx="3"/>
<text x="670.04" y="334" class="value">218.23</text>
<text x="10" y="366" class="label">blizzard.com</text>
<rect x="180" y="350" width="493.21" height="22" fill="#4c78a8" rx="3"/>
<text x="681.21" y="366" class="value">223.29</text>
<text x="10" y="398" class="label">eaassets-a.akamaihd.net</text>
<rect x="180" y="382" width="540.42" height="22" fill="#4c78a8" rx="3"/>
<text x="728.42" y="398" class="value">244.66</text>
<text x="10" y="430" class="label">easyanticheat.net</text>
<rect x="180" y="414" width="547.15" height="22" fill="#4c78a8" rx="3"/>
<text x="735.15" y="430" class="value">247.71</text>
<text x="10" y="462" class="label">cdn.akamai.steamstatic.com</text>
<rect x="180" y="446" width="563.12" height="22" fill="#4c78a8" rx="3"/>
<text x="751.12" y="462" class="value">254.94</text>
<text x="10" y="494" class="label">unrealengine.com</text>
<rect x="180" y="478" width="580.0" height="22" fill="#4c78a8" rx="3"/>
<text x="768.0" y="494" class="value">262.58</text>
<line x1="180" y1="30" x2="180" y2="520" stroke="#ccc"/>
<line x1="180" y1="520" x2="760" y2="520" stroke="#ccc"/>
</svg>