<svg xmlns="http://www.w3.org/2000/svg" width="800" height="540">
<style> .label{font-family:DejaVu Sans,Verdana,Geneva,sans-serif;font-size:12px;fill:#333} .value{font-family:DejaVu Sans,Verdana,Geneva,sans-serif;font-size:12px;fill:#555} </style>
<text x="10" y="20" class="label">延迟柱状图（越低越好，Top 15），单位 ms</text>
<text x="10" y="46" class="label">ea.com</text>
<rect x="180" y="30" width="207.89" height="22" fill="#4c78a8" rx="3"/>
<text x="395.89" y="46" class="value">85.51</text>
<text x="10" y="78" class="label">rockstargames.com</text>
<rect x="180" y="62" width="225.85" height="22" fill="#4c78a8" rx="3"/>
<text x="413.85" y="78" class="value">92.90</text>
<text x="10" y="110" class="label">store.akamai.steamstatic.com</text>
<rect x="180" y="94" width="246.74" height="22" fill="#4c78a8" rx="3"/>
<text x="434.74" y="110" class="value">101.49</text>
<text x="10" y="142" class="label">eaassets-a.akamaihd.net</text>
<rect x="180" y="126" width="286.29" height="22" fill="#4c78a8" rx="3"/>
<text x="474.29" y="142" class="value">117.76</text>
<text x="10" y="174" class="label">steamcdn-a.akamaihd.net</text>
<rect x="180" y="158" width="292.2" height="22" fill="#4c78a8" rx="3"/>
<text x="480.2" y="174" class="value">120.19</text>
<text x="10" y="206" class="label">ubisoft.com</text>
<rect x="180" y="190" width="299.06" height="22" fill="#4c78a8" rx="3"/>
<text x="487.06" y="206" class="value">123.01</text>
<text x="10" y="238" class="label">cdn.akamai.steamstatic.com</text>
<rect x="180" y="222" width="353.98" height="22" fill="#4c78a8" rx="3"/>
<text x="541.98" y="238" class="value">145.60</text>
<text x="10" y="270" class="label">community.akamai.steamstatic.com</text>
<rect x="180" y="254" width="369.54" height="22" fill="#4c78a8" rx="3"/>
<text x="557.54" y="270" class="value">152.00</text>
<text x="10" y="302" class="label">cdn.cloudflare.steamstatic.com</text>
<rect x="180" y="286" width="428.13" height="22" fill="#4c78a8" rx="3"/>
<text x="616.13" y="302" class="value">176.10</text>
<text x="10" y="334" class="label">static3.cdn.ubi.com</text>
<rect x="180" y="318" width="437.68" height="22" fill="#4c78a8" rx="3"/>
<text x="625.6800000000001" y="334" class="value">180.03</text>
<text x="10" y="366" class="label">origin.com</text>
<rect x="180" y="350" width="470.5" height="22" fill="#4c78a8" rx="3"/>
<text x="658.5" y="366" class="value">193.53</text>
<text x="10" y="398" class="label">www.steamcommunity.com</text>
<rect x="180" y="382" width="485.11" height="22" fill="#4c78a8" rx="3"/>
<text x="673.11" y="398" class="value">199.54</text>
<text x="10" y="430" class="label">easyanticheat.net</text>
<rect x="180" y="414" width="541.03" height="22" fill="#4c78a8" rx="3"/>
<text x="729.03" y="430" class="value">222.54</text>
<text x="10" y="462" class="label">api.steampowered.com</text>
<rect x="180" y="446" width="561.45" height="22" fill="#4c78a8" rx="3"/>
<text x="749.45" y="462" class="value">230.94</text>
<text x="10" y="494" class="label">gog.com</text>
<rect x="180" y="478" width="580.0" height="22" fill="#4c78a8" rx="3"/>
<text x="768.0" y="494" class="value">238.57</text>
<line x1="180" y1="30" x2="180" y2="520" stroke="#ccc"/>
<line x1="180" y1="520" x2="760" y2="520" stroke="#ccc"/>
</svg>