<svg xmlns="http://www.w3.org/2000/svg" width="800" height="540">
<style> .label{font-family:DejaVu Sans,Verdana,Geneva,sans-serif;font-size:12px;fill:#333} .value{font-family:DejaVu Sans,Verdana,Geneva,sans-serif;font-size:12px;fill:#555} </style>
<text x="10" y="20" class="label">延迟柱状图（越低越好，Top 15），单位 ms</text>
<text x="10" y="46" class="label">socialclub.rockstargames.com</text>
<rect x="180" y="30" width="205.03" height="22" fill="#4c78a8" rx="3"/>
<text x="393.03" y="46" class="value">66.54</text>
<text x="10" y="78" class="label">rockstargames.com</text>
<rect x="180" y="62" width="212.55" height="22" fill="#4c78a8" rx="3"/>
<text x="400.55" y="78" class="value">68.98</text>
<text x="10" y="110" class="label">battle.net</text>
<rect x="180" y="94" width="276.67" height="22" fill="#4c78a8" rx="3"/>
<text x="464.67" y="110" class="value">89.79</text>
<text x="10" y="142" class="label">blizzard.com</text>
<rect x="180" y="126" width="280.77" height="22" fill="#4c78a8" rx="3"/>
<text x="468.77" y="142" class="value">91.12</text>
<text x="10" y="174" class="label">ea.com</text>
<rect x="180" y="158" width="317.35" height="22" fill="#4c78a8" rx="3"/>
<text x="505.35" y="174" class="value">102.99</text>
<text x="10" y="206" class="label">ubisoft.com</text>
<rect x="180" y="190" width="344.06" height="22" fill="#4c78a8" rx="3"/>
<text x="532.06" y="206" class="value">111.66</text>
<text x="10" y="238" class="label">store.akamai.steamstatic.com</text>
<rect x="180" y="222" width="366.0" height="22" fill="#4c78a8" rx="3"/>
<text x="554.0" y="238" class="value">118.78</text>
<text x="10" y="270" class="label">community.akamai.steamstatic.com</text>
<rect x="180" y="254" width="385.63" height="22" fill="#4c78a8" rx="3"/>
<text x="573.63" y="270" class="value">125.15</text>
<text x="10" y="302" class="label">unrealengine.com</text>
<rect x="180" y="286" width="397.49" height="22" fill="#4c78a8" rx="3"/>
<text x="585.49" y="302" class="value">129.00</text>
<text x="10" y="334" class="label">cdn.cloudflare.steamstatic.com</text>
<rect x="180" y="318" width="400.39" height="22" fill="#4c78a8" rx="3"/>
<text x="588.39" y="334" class="value">129.94</text>
<text x="10" y="366" class="label">cdn.akamai.steamstatic.com</text>
<rect x="180" y="350" width="493.54" height="22" fill="#4c78a8" rx="3"/>
<text x="681.54" y="366" class="value">160.17</text>
<text x="10" y="398" class="label">ubi.com</text>
<rect x="180" y="382" width="505.09" height="22" fill="#4c78a8" rx="3"/>
<text x="693.0899999999999" y="398" class="value">163.92</text>
<text x="10" y="430" class="label">static3.cdn.ubi.com</text>
<rect x="180" y="414" width="530.79" height="22" fill="#4c78a8" rx="3"/>
<text x="718.79" y="430" class="value">172.26</text>
<text x="10" y="462" class="label">fortnite.com</text>
<rect x="180" y="446" width="577.84" height="22" fill="#4c78a8" rx="3"/>
<text x="765.84" y="462" class="value">187.53</text>
<text x="10" y="494" class="label">epicgames.com</text>
<rect x="180" y="478" width="580.0" height="22" fill="#4c78a8" rx="3"/>
<text x="768.0" y="494" class="value">188.23</text>
<line x1="180" y1="30" x2="180" y2="520" stroke="#ccc"/>
<line x1="180" y1="520" x2="760" y2="520" stroke="#ccc"/>
</svg>