<svg xmlns="http://www.w3.org/2000/svg" width="800" height="540">
<style> .label{font-family:DejaVu Sans,Verdana,Geneva,sans-serif;font-size:12px;fill:#333} .value{font-family:DejaVu Sans,Verdana,Geneva,sans-serif;font-size:12px;fill:#555} </style>
<text x="10" y="20" class="label">延迟柱状图（越低越好，Top 15），单位 ms</text>
<text x="10" y="46" class="label">eaassets-a.akamaihd.net</text>
<rect x="180" y="30" width="219.73" height="22" fill="#4c78a8" rx="3"/>
<text x="407.73" y="46" class="value">78.25</text>
<text x="10" y="78" class="label">origin.com</text>
<rect x="180" y="62" width="338.93" height="22" fill="#4c78a8" rx="3"/>
<text x="526.9300000000001" y="78" class="value">120.70</text>
<text x="10" y="110" class="label">cdn.akamai.steamstatic.com</text>
<rect x="180" y="94" width="353.53" height="22" fill="#4c78a8" rx="3"/>
<text x="541.53" y="110" class="value">125.90</text>
<text x="10" y="142" class="label">blizzard.com</text>
<rect x="180" y="126" width="402.11" height="22" fill="#4c78a8" rx="3"/>
<text x="590.11" y="142" class="value">143.20</text>
<text x="10" y="174" class="label">battle.net</text>
<rect x="180" y="158" width="408.43" height="22" fill="#4c78a8" rx="3"/>
<text x="596.4300000000001" y="174" class="value">145.45</text>
<text x="10" y="206" class="label">steamcdn-a.akamaihd.net</text>
<rect x="180" y="190" width="418.45" height="22" fill="#4c78a8" rx="3"/>
<text x="606.45" y="206" class="value">149.02</text>
<text x="10" y="238" class="label">store.akamai.steamstatic.com</text>
<rect x="180" y="222" width="448.78" height="22" fill="#4c78a8" rx="3"/>
<text x="636.78" y="238" class="value">159.82</text>
<text x="10" y="270" class="label">ea.com</text>
<rect x="180" y="254" width="475.4" height="22" fill="#4c78a8" rx="3"/>
<text x="663.4" y="270" class="value">169.30</text>
<text x="10" y="302" class="label">cdn.cloudflare.steamstatic.com</text>
<rect x="180" y="286" width="477.62" height="22" fill="#4c78a8" rx="3"/>
<text x="665.62" y="302" class="value">170.09</text>
<text x="10" y="334" class="label">ubi.com</text>
<rect x="180" y="318" width="482.67" height="22" fill="#4c78a8" rx="3"/>
<text x="670.6700000000001" y="334" class="value">171.89</text>
<text x="10" y="366" class="label">community.akamai.steamstatic.com</text>
<rect x="180" y="350" width="498.48" height="22" fill="#4c78a8" rx="3"/>
<text x="686.48" y="366" class="value">177.52</text>
<text x="10" y="398" class="label">rockstargames.com</text>
<rect x="180" y="382" width="502.84" height="22" fill="#4c78a8" rx="3"/>
<text x="690.8399999999999" y="398" class="value">179.07</text>
<text x="10" y="430" class="label">api.steampowered.com</text>
<rect x="180" y="414" width="529.88" height="22" fill="#4c78a8" rx="3"/>
<text x="717.88" y="430" class="value">188.70</text>
<text x="10" y="462" class="label">ubisoft.com</text>
<rect x="180" y="446" width="549.93" height="22" fill="#4c78a8" rx="3"/>
<text x="737.93" y="462" class="value">195.84</text>
<text x="10" y="494" class="label">easyanticheat.net</text>
<rect x="180" y="478" width="580.0" height="22" fill="#4c78a8" rx="3"/>
<text x="768.0" y="494" class="value">206.55</text>
<line x1="180" y1="30" x2="180" y2="520" stroke="#ccc"/>
<line x1="180" y1="520" x2="760" y2="520" stroke="#ccc"/>
</svg>