<svg xmlns="http://www.w3.org/2000/svg" width="800" height="540">
<style> .label{font-family:DejaVu Sans,Verdana,Geneva,sans-serif;font-size:12px;fill:#333} .value{font-family:DejaVu Sans,Verdana,Geneva,sans-serif;font-size:12px;fill:#555} </style>
<text x="10" y="20" class="label">延迟柱状图（越低越好，Top 15），单位 ms</text>
<text x="10" y="46" class="label">rockstargames.com</text>
<rect x="180" y="30" width="113.01" height="22" fill="#4c78a8" rx="3"/>
<text x="301.01" y="46" class="value">49.05</text>
<text x="10" y="78" class="label">eaassets-a.akamaihd.net</text>
<rect x="180" y="62" width="170.26" height="22" fill="#4c78a8" rx="3"/>
<text x="358.26" y="78" class="value">73.90</text>
<text x="10" y="110" class="label">ea.com</text>
<rect x="180" y="94" width="183.21" height="22" fill="#4c78a8" rx="3"/>
<text x="371.21000000000004" y="110" class="value">79.52</text>
<text x="10" y="142" class="label">origin.com</text>
<rect x="180" y="126" width="243.09" height="22" fill="#4c78a8" rx="3"/>
<text x="431.09000000000003" y="142" class="value">105.51</text>
<text x="10" y="174" class="label">ubisoft.com</text>
<rect x="180" y="158" width="285.92" height="22" fill="#4c78a8" rx="3"/>
<text x="473.92" y="174" class="value">124.10</text>
<text x="10" y="206" class="label">store.akamai.steamstatic.com</text>
<rect x="180" y="190" width="293.85" height="22" fill="#4c78a8" rx="3"/>
<text x="481.85" y="206" class="value">127.54</text>
<text x="10" y="238" class="label">cdn.cloudflare.steamstatic.com</text>
<rect x="180" y="222" width="354.79" height="22" fill="#4c78a8" rx="3"/>
<text x="542.79" y="238" class="value">153.99</text>
<text x="10" y="270" class="label">api.steampowered.com</text>
<rect x="180" y="254" width="360.89" height="22" fill="#4c78a8" rx="3"/>
<text x="548.89" y="270" class="value">156.64</text>
<text x="10" y="302" class="label">steamcdn-a.akamaihd.net</text>
<rect x="180" y="286" width="384.23" height="22" fill="#4c78a8" rx="3"/>
<text x="572.23" y="302" class="value">166.77</text>
<text x="10" y="334" class="label">cdn.akamai.steamstatic.com</text>
<rect x="180" y="318" width="396.26" height="22" fill="#4c78a8" rx="3"/>
<text x="584.26" y="334" class="value">171.99</text>
<text x="10" y="366" class="label">community.akamai.steamstatic.com</text>
<rect x="180" y="350" width="412.94" height="22" fill="#4c78a8" rx="3"/>
<text x="600.94" y="366" class="value">179.23</text>
<text x="10" y="398" class="label">steam-chat.com</text>
<rect x="180" y="382" width="458.33" height="22" fill="#4c78a8" rx="3"/>
<text x="646.3299999999999" y="398" class="value">198.93</text>
<text x="10" y="430" class="label">www.steamcommunity.com</text>
<rect x="180" y="414" width="468.37" height="22" fill="#4c78a8" rx="3"/>
<text x="656.37" y="430" class="value">203.29</text>
<text x="10" y="462" class="label">easyanticheat.net</text>
<rect x="180" y="446" width="517.63" height="22" fill="#4c78a8" rx="3"/>
<text x="705.63" y="462" class="value">224.67</text>
<text x="10" y="494" class="label">gog.com</text>
<rect x="180" y="478" width="580.0" height="22" fill="#4c78a8" rx="3"/>
<text x="768.0" y="494" class="value">251.74</text>
<line x1="180" y1="30" x2="180" y2="520" stroke="#ccc"/>
<line x1="180" y1="520" x2="760" y2="520" stroke="#ccc"/>
</svg>