<svg xmlns="http://www.w3.org/2000/svg" width="800" height="540">
<style> .label{font-family:DejaVu Sans,Verdana,Geneva,sans-serif;font-size:12px;fill:#333} .value{font-family:DejaVu Sans,Verdana,Geneva,sans-serif;font-size:12px;fill:#555} </style>
<text x="10" y="20" class="label">延迟柱状图（越低越好，Top 15），单位 ms</text>
<text x="10" y="46" class="label">eaassets-a.akamaihd.net</text>
<rect x="180" y="30" width="314.42" height="22" fill="#4c78a8" rx="3"/>
<text x="502.42" y="46" class="value">168.46</text>
<text x="10" y="78" class="label">steamcdn-a.akamaihd.net</text>
<rect x="180" y="62" width="364.01" height="22" fill="#4c78a8" rx="3"/>
<text x="552.01" y="78" class="value">195.03</text>
<text x="10" y="110" class="label">rockstargames.com</text>
<rect x="180" y="94" width="372.15" height="22" fill="#4c78a8" rx="3"/>
<text x="560.15" y="110" class="value">199.39</text>
<text x="10" y="142" class="label">ubi.com</text>
<rect x="180" y="126" width="401.32" height="22" fill="#4c78a8" rx="3"/>
<text x="589.3199999999999" y="142" class="value">215.02</text>
<text x="10" y="174" class="label">community.akamai.steamstatic.com</text>
<rect x="180" y="158" width="415.1" height="22" fill="#4c78a8" rx="3"/>
<text x="603.1" y="174" class="value">222.40</text>
<text x="10" y="206" class="label">cdn.akamai.steamstatic.com</text>
<rect x="180" y="190" width="470.07" height="22" fill="#4c78a8" rx="3"/>
<text x="658.0699999999999" y="206" class="value">251.85</text>
<text x="10" y="238" class="label">store.akamai.steamstatic.com</text>
<rect x="180" y="222" width="485.35" height="22" fill="#4c78a8" rx="3"/>
<text x="673.35" y="238" class="value">260.04</text>
<text x="10" y="270" class="label">www.steamcommunity.com</text>
<rect x="180" y="254" width="486.23" height="22" fill="#4c78a8" rx="3"/>
<text x="674.23" y="270" class="value">260.51</text>
<text x="10" y="302" class="label">cdn.cloudflare.steamstatic.com</text>
<rect x="180" y="286" width="487.82" height="22" fill="#4c78a8" rx="3"/>
<text x="675.8199999999999" y="302" class="value">261.36</text>
<text x="10" y="334" class="label">socialclub.rockstargames.com</text>
<rect x="180" y="318" width="503.03" height="22" fill="#4c78a8" rx="3"/>
<text x="691.03" y="334" class="value">269.51</text>
<text x="10" y="366" class="label">ubisoft.com</text>
<rect x="180" y="350" width="509.32" height="22" fill="#4c78a8" rx="3"/>
<text x="697.3199999999999" y="366" class="value">272.88</text>
<text x="10" y="398" class="label">ea.com</text>
<rect x="180" y="382" width="551.72" height="22" fill="#4c78a8" rx="3"/>
<text x="739.72" y="398" class="value">295.60</text>
<text x="10" y="430" class="label">steamcommunity.com</text>
<rect x="180" y="414" width="553.5" height="22" fill="#4c78a8" rx="3"/>
<text x="741.5" y="430" class="value">296.55</text>
<text x="10" y="462" class="label">static3.cdn.ubi.com</text>
<rect x="180" y="446" width="563.16" height="22" fill="#4c78a8" rx="3"/>
<text x="751.16" y="462" class="value">301.73</text>
<text x="10" y="494" class="label">launcher-public-service-prod06.ol.epicgames.com</text>
<rect x="180" y="478" width="580.0" height="22" fill="#4c78a8" rx="3"/>
<text x="768.0" y="494" class="value">310.75</text>
<line x1="180" y1="30" x2="180" y2="520" stroke="#ccc"/>
<line x1="180" y1="520" x2="760" y2="520" stroke="#ccc"/>
</svg>