<svg xmlns="http://www.w3.org/2000/svg" width="800" height="540">
<style> .label{font-family:DejaVu Sans,Verdana,Geneva,sans-serif;font-size:12px;fill:#333} .value{font-family:DejaVu Sans,Verdana,Geneva,sans-serif;font-size:12px;fill:#555} </style>
<text x="10" y="20" class="label">延迟柱状图（越低越好，Top 15），单位 ms</text>
<text x="10" y="46" class="label">rockstargames.com</text>
<rect x="180" y="30" width="65.41" height="22" fill="#4c78a8" rx="3"/>
<text x="253.41" y="46" class="value">32.69</text>
<text x="10" y="78" class="label">eaassets-a.akamaihd.net</text>
<rect x="180" y="62" width="76.47" height="22" fill="#4c78a8" rx="3"/>
<text x="264.47" y="78" class="value">38.22</text>
<text x="10" y="110" class="label">store.akamai.steamstatic.com</text>
<rect x="180" y="94" width="165.53" height="22" fill="#4c78a8" rx="3"/>
<text x="353.53" y="110" class="value">82.73</text>
<text x="10" y="142" class="label">steamcdn-a.akamaihd.net</text>
<rect x="180" y="126" width="179.62" height="22" fill="#4c78a8" rx="3"/>
<text x="367.62" y="142" class="value">89.77</text>
<text x="10" y="174" class="label">ea.com</text>
<rect x="180" y="158" width="229.54" height="22" fill="#4c78a8" rx="3"/>
<text x="417.53999999999996" y="174" class="value">114.72</text>
<text x="10" y="206" class="label">origin.com</text>
<rect x="180" y="190" width="254.23" height="22" fill="#4c78a8" rx="3"/>
<text x="442.23" y="206" class="value">127.06</text>
<text x="10" y="238" class="label">cdn.cloudflare.steamstatic.com</text>
<rect x="180" y="222" width="300.79" height="22" fill="#4c78a8" rx="3"/>
<text x="488.79" y="238" class="value">150.33</text>
<text x="10" y="270" class="label">community.akamai.steamstatic.com</text>
<rect x="180" y="254" width="336.39" height="22" fill="#4c78a8" rx="3"/>
<text x="524.39" y="270" class="value">168.12</text>
<text x="10" y="302" class="label">cdn.akamai.steamstatic.com</text>
<rect x="180" y="286" width="337.67" height="22" fill="#4c78a8" rx="3"/>
<text x="525.6700000000001" y="302" class="value">168.76</text>
<text x="10" y="334" class="label">ubisoft.com</text>
<rect x="180" y="318" width="393.7" height="22" fill="#4c78a8" rx="3"/>
<text x="581.7" y="334" class="value">196.76</text>
<text x="10" y="366" class="label">easyanticheat.net</text>
<rect x="180" y="350" width="442.74" height="22" fill="#4c78a8" rx="3"/>
<text x="630.74" y="366" class="value">221.27</text>
<text x="10" y="398" class="label">steamcommunity.com</text>
<rect x="180" y="382" width="538.66" height="22" fill="#4c78a8" rx="3"/>
<text x="726.66" y="398" class="value">269.21</text>
<text x="10" y="430" class="label">steam-chat.com</text>
<rect x="180" y="414" width="544.34" height="22" fill="#4c78a8" rx="3"/>
<text x="732.34" y="430" class="value">272.05</text>
<text x="10" y="462" class="label">blizzard.com</text>
<rect x="180" y="446" width="577.36" height="22" fill="#4c78a8" rx="3"/>
<text x="765.36" y="462" class="value">288.55</text>
<text x="10" y="494" class="label">ubi.com</text>
<rect x="180" y="478" width="580.0" height="22" fill="#4c78a8" rx="3"/>
<text x="768.0" y="494" class="value">289.87</text>
<line x1="180" y1="30" x2="180" y2="520" stroke="#ccc"/>
<line x1="180" y1="520" x2="760" y2="520" stroke="#ccc"/>
</svg>