<svg xmlns="http://www.w3.org/2000/svg" width="800" height="540">
<style> .label{font-family:DejaVu Sans,Verdana,Geneva,sans-serif;font-size:12px;fill:#333} .value{font-family:DejaVu Sans,Verdana,Geneva,sans-serif;font-size:12px;fill:#555} </style>
<text x="10" y="20" class="label">延迟柱状图（越低越好，Top 15），单位 ms</text>
<text x="10" y="46" class="label">rockstargames.com</text>
<rect x="180" y="30" width="187.14" height="22" fill="#4c78a8" rx="3"/>
<text x="375.14" y="46" class="value">71.66</text>
<text x="10" y="78" class="label">socialclub.rockstargames.com</text>
<rect x="180" y="62" width="211.11" height="22" fill="#4c78a8" rx="3"/>
<text x="399.11" y="78" class="value">80.84</text>
<text x="10" y="110" class="label">battle.net</text>
<rect x="180" y="94" width="251.51" height="22" fill="#4c78a8" rx="3"/>
<text x="439.51" y="110" class="value">96.31</text>
<text x="10" y="142" class="label">blizzard.com</text>
<rect x="180" y="126" width="260.15" height="22" fill="#4c78a8" rx="3"/>
<text x="448.15" y="142" class="value">99.62</text>
<text x="10" y="174" class="label">ubi.com</text>
<rect x="180" y="158" width="284.91" height="22" fill="#4c78a8" rx="3"/>
<text x="472.91" y="174" class="value">109.10</text>
<text x="10" y="206" class="label">eaassets-a.akamaihd.net</text>
<rect x="180" y="190" width="332.23" height="22" fill="#4c78a8" rx="3"/>
<text x="520.23" y="206" class="value">127.22</text>
<text x="10" y="238" class="label">ea.com</text>
<rect x="180" y="222" width="333.43" height="22" fill="#4c78a8" rx="3"/>
<text x="521.4300000000001" y="238" class="value">127.68</text>
<text x="10" y="270" class="label">cdn.akamai.steamstatic.com</text>
<rect x="180" y="254" width="359.78" height="22" fill="#4c78a8" rx="3"/>
<text x="547.78" y="270" class="value">137.77</text>
<text x="10" y="302" class="label">epicgames.com</text>
<rect x="180" y="286" width="403.21" height="22" fill="#4c78a8" rx="3"/>
<text x="591.21" y="302" class="value">154.40</text>
<text x="10" y="334" class="label">community.akamai.steamstatic.com</text>
<rect x="180" y="318" width="476.98" height="22" fill="#4c78a8" rx="3"/>
<text x="664.98" y="334" class="value">182.65</text>
<text x="10" y="366" class="label">static3.cdn.ubi.com</text>
<rect x="180" y="350" width="482.1" height="22" fill="#4c78a8" rx="3"/>
<text x="670.1" y="366" class="value">184.61</text>
<text x="10" y="398" class="label">unrealengine.com</text>
<rect x="180" y="382" width="485.67" height="22" fill="#4c78a8" rx="3"/>
<text x="673.6700000000001" y="398" class="value">185.98</text>
<text x="10" y="430" class="label">store.akamai.steamstatic.com</text>
<rect x="180" y="414" width="501.84" height="22" fill="#4c78a8" rx="3"/>
<text x="689.8399999999999" y="430" class="value">192.17</text>
<text x="10" y="462" class="label">fortnite.com</text>
<rect x="180" y="446" width="508.26" height="22" fill="#4c78a8" rx="3"/>
<text x="696.26" y="462" class="value">194.63</text>
<text x="10" y="494" class="label">cdn.cloudflare.steamstatic.com</text>
<rect x="180" y="478" width="580.0" height="22" fill="#4c78a8" rx="3"/>
<text x="768.0" y="494" class="value">222.10</text>
<line x1="180" y1="30" x2="180" y2="520" stroke="#ccc"/>
<line x1="180" y1="520" x2="760" y2="520" stroke="#ccc"/>
</svg>