<svg xmlns="http://www.w3.org/2000/svg" width="800" height="540">
<style> .label{font-family:DejaVu Sans,Verdana,Geneva,sans-serif;font-size:12px;fill:#333} .value{font-family:DejaVu Sans,Verdana,Geneva,sans-serif;font-size:12px;fill:#555} </style>
<text x="10" y="20" class="label">延迟柱状图（越低越好，Top 15），单位 ms</text>
<text x="10" y="46" class="label">eaassets-a.akamaihd.net</text>
<rect x="180" y="30" width="182.88" height="22" fill="#4c78a8" rx="3"/>
<text x="370.88" y="46" class="value">51.51</text>
<text x="10" y="78" class="label">steamcdn-a.akamaihd.net</text>
<rect x="180" y="62" width="187.04" height="22" fill="#4c78a8" rx="3"/>
<text x="375.03999999999996" y="78" class="value">52.68</text>
<text x="10" y="110" class="label">ea.com</text>
<rect x="180" y="94" width="233.33" height="22" fill="#4c78a8" rx="3"/>
<text x="421.33000000000004" y="110" class="value">65.72</text>
<text x="10" y="142" class="label">rockstargames.com</text>
<rect x="180" y="126" width="237.7" height="22" fill="#4c78a8" rx="3"/>
<text x="425.7" y="142" class="value">66.95</text>
<text x="10" y="174" class="label">ubisoft.com</text>
<rect x="180" y="158" width="258.86" height="22" fill="#4c78a8" rx="3"/>
<text x="446.86" y="174" class="value">72.91</text>
<text x="10" y="206" class="label">origin.com</text>
<rect x="180" y="190" width="275.8" height="22" fill="#4c78a8" rx="3"/>
<text x="463.8" y="206" class="value">77.68</text>
<text x="10" y="238" class="label">community.akamai.steamstatic.com</text>
<rect x="180" y="222" width="338.93" height="22" fill="#4c78a8" rx="3"/>
<text x="526.9300000000001" y="238" class="value">95.46</text>
<text x="10" y="270" class="label">store.akamai.steamstatic.com</text>
<rect x="180" y="254" width="393.03" height="22" fill="#4c78a8" rx="3"/>
<text x="581.03" y="270" class="value">110.70</text>
<text x="10" y="302" class="label">cdn.cloudflare.steamstatic.com</text>
<rect x="180" y="286" width="412.35" height="22" fill="#4c78a8" rx="3"/>
<text x="600.35" y="302" class="value">116.14</text>
<text x="10" y="334" class="label">blizzard.com</text>
<rect x="180" y="318" width="472.24" height="22" fill="#4c78a8" rx="3"/>
<text x="660.24" y="334" class="value">133.01</text>
<text x="10" y="366" class="label">battle.net</text>
<rect x="180" y="350" width="477.5" height="22" fill="#4c78a8" rx="3"/>
<text x="665.5" y="366" class="value">134.49</text>
<text x="10" y="398" class="label">ubi.com</text>
<rect x="180" y="382" width="483.96" height="22" fill="#4c78a8" rx="3"/>
<text x="671.96" y="398" class="value">136.31</text>
<text x="10" y="430" class="label">socialclub.rockstargames.com</text>
<rect x="180" y="414" width="514.35" height="22" fill="#4c78a8" rx="3"/>
<text x="702.35" y="430" class="value">144.87</text>
<text x="10" y="462" class="label">easyanticheat.net</text>
<rect x="180" y="446" width="571.66" height="22" fill="#4c78a8" rx="3"/>
<text x="759.66" y="462" class="value">161.01</text>
<text x="10" y="494" class="label">epicgames.com</text>
<rect x="180" y="478" width="580.0" height="22" fill="#4c78a8" rx="3"/>
<text x="768.0" y="494" class="value">163.36</text>
<line x1="180" y1="30" x2="180" y2="520" stroke="#ccc"/>
<line x1="180" y1="520" x2="760" y2="520" stroke="#ccc"/>
</svg>