<svg xmlns="http://www.w3.org/2000/svg" width="800" height="540">
<style> .label{font-family:DejaVu Sans,Verdana,Geneva,sans-serif;font-size:12px;fill:#333} .value{font-family:DejaVu Sans,Verdana,Geneva,sans-serif;font-size:12px;fill:#555} </style>
<text x="10" y="20" class="label">延迟柱状图（越低越好，Top 15），单位 ms</text>
<text x="10" y="46" class="label">rockstargames.com</text>
<rect x="180" y="30" width="226.85" height="22" fill="#4c78a8" rx="3"/>
<text x="414.85" y="46" class="value">76.58</text>
<text x="10" y="78" class="label">ea.com</text>
<rect x="180" y="62" width="247.76" height="22" fill="#4c78a8" rx="3"/>
<text x="435.76" y="78" class="value">83.64</text>
<text x="10" y="110" class="label">community.akamai.steamstatic.com</text>
<rect x="180" y="94" width="298.56" height="22" fill="#4c78a8" rx="3"/>
<text x="486.56" y="110" class="value">100.79</text>
<text x="10" y="142" class="label">eaassets-a.akamaihd.net</text>
<rect x="180" y="126" width="315.65" height="22" fill="#4c78a8" rx="3"/>
<text x="503.65" y="142" class="value">106.56</text>
<text x="10" y="174" class="label">ubisoft.com</text>
<rect x="180" y="158" width="348.53" height="22" fill="#4c78a8" rx="3"/>
<text x="536.53" y="174" class="value">117.66</text>
<text x="10" y="206" class="label">socialclub.rockstargames.com</text>
<rect x="180" y="190" width="400.13" height="22" fill="#4c78a8" rx="3"/>
<text x="588.13" y="206" class="value">135.08</text>
<text x="10" y="238" class="label">cdn.cloudflare.steamstatic.com</text>
<rect x="180" y="222" width="458.16" height="22" fill="#4c78a8" rx="3"/>
<text x="646.1600000000001" y="238" class="value">154.67</text>
<text x="10" y="270" class="label">battle.net</text>
<rect x="180" y="254" width="472.06" height="22" fill="#4c78a8" rx="3"/>
<text x="660.06" y="270" class="value">159.36</text>
<text x="10" y="302" class="label">cdn.akamai.steamstatic.com</text>
<rect x="180" y="286" width="489.3" height="22" fill="#4c78a8" rx="3"/>
<text x="677.3" y="302" class="value">165.18</text>
<text x="10" y="334" class="label">ubi.com</text>
<rect x="180" y="318" width="490.27" height="22" fill="#4c78a8" rx="3"/>
<text x="678.27" y="334" class="value">165.51</text>
<text x="10" y="366" class="label">blizzard.com</text>
<rect x="180" y="350" width="532.28" height="22" fill="#4c78a8" rx="3"/>
<text x="720.28" y="366" class="value">179.69</text>
<text x="10" y="398" class="label">static3.cdn.ubi.com</text>
<rect x="180" y="382" width="541.2" height="22" fill="#4c78a8" rx="3"/>
<text x="729.2" y="398" class="value">182.70</text>
<text x="10" y="430" class="label">steamcdn-a.akamaihd.net</text>
<rect x="180" y="414" width="544.63" height="22" fill="#4c78a8" rx="3"/>
<text x="732.63" y="430" class="value">183.86</text>
<text x="10" y="462" class="label">steam-chat.com</text>
<rect x="180" y="446" width="547.77" height="22" fill="#4c78a8" rx="3"/>
<text x="735.77" y="462" class="value">184.92</text>
<text x="10" y="494" class="label">store.akamai.steamstatic.com</text>
<rect x="180" y="478" width="580.0" height="22" fill="#4c78a8" rx="3"/>
<text x="768.0" y="494" class="value">195.80</text>
<line x1="180" y1="30" x2="180" y2="520" stroke="#ccc"/>
<line x1="180" y1="520" x2="760" y2="520" stroke="#ccc"/>
</svg>