<svg xmlns="http://www.w3.org/2000/svg" width="800" height="540">
<style> .label{font-family:DejaVu Sans,Verdana,Geneva,sans-serif;font-size:12px;fill:#333} .value{font-family:DejaVu Sans,Verdana,Geneva,sans-serif;font-size:12px;fill:#555} </style>
<text x="10" y="20" class="label">延迟柱状图（越低越好，Top 15），单位 ms</text>
<text x="10" y="46" class="label">rockstargames.com</text>
<rect x="180" y="30" width="147.72" height="22" fill="#4c78a8" rx="3"/>
<text x="335.72" y="46" class="value">55.26</text>
<text x="10" y="78" class="label">eaassets-a.akamaihd.net</text>
<rect x="180" y="62" width="161.09" height="22" fill="#4c78a8" rx="3"/>
<text x="349.09000000000003" y="78" class="value">60.26</text>
<text x="10" y="110" class="label">socialclub.rockstargames.com</text>
<rect x="180" y="94" width="261.62" height="22" fill="#4c78a8" rx="3"/>
<text x="449.62" y="110" class="value">97.87</text>
<text x="10" y="142" class="label">ubi.com</text>
<rect x="180" y="126" width="267.72" height="22" fill="#4c78a8" rx="3"/>
<text x="455.72" y="142" class="value">100.15</text>
<text x="10" y="174" class="label">ea.com</text>
<rect x="180" y="158" width="284.27" height="22" fill="#4c78a8" rx="3"/>
<text x="472.27" y="174" class="value">106.34</text>
<text x="10" y="206" class="label">blizzard.com</text>
<rect x="180" y="190" width="289.29" height="22" fill="#4c78a8" rx="3"/>
<text x="477.29" y="206" class="value">108.22</text>
<text x="10" y="238" class="label">battle.net</text>
<rect x="180" y="222" width="345.27" height="22" fill="#4c78a8" rx="3"/>
<text x="533.27" y="238" class="value">129.16</text>
<text x="10" y="270" class="label">cdn.akamai.steamstatic.com</text>
<rect x="180" y="254" width="399.19" height="22" fill="#4c78a8" rx="3"/>
<text x="587.19" y="270" class="value">149.33</text>
<text x="10" y="302" class="label">ubisoft.com</text>
<rect x="180" y="286" width="440.62" height="22" fill="#4c78a8" rx="3"/>
<text x="628.62" y="302" class="value">164.83</text>
<text x="10" y="334" class="label">origin.com</text>
<rect x="180" y="318" width="463.42" height="22" fill="#4c78a8" rx="3"/>
<text x="651.4200000000001" y="334" class="value">173.36</text>
<text x="10" y="366" class="label">store.akamai.steamstatic.com</text>
<rect x="180" y="350" width="561.85" height="22" fill="#4c78a8" rx="3"/>
<text x="749.85" y="366" class="value">210.18</text>
<text x="10" y="398" class="label">fortnite.com</text>
<rect x="180" y="382" width="564.95" height="22" fill="#4c78a8" rx="3"/>
<text x="752.95" y="398" class="value">211.34</text>
<text x="10" y="430" class="label">epicgames.com</text>
<rect x="180" y="414" width="569.25" height="22" fill="#4c78a8" rx="3"/>
<text x="757.25" y="430" class="value">212.95</text>
<text x="10" y="462" class="label">unrealengine.com</text>
<rect x="180" y="446" width="575.3" height="22" fill="#4c78a8" rx="3"/>
<text x="763.3" y="462" class="value">215.21</text>
<text x="10" y="494" class="label">cdn.cloudflare.steamstatic.com</text>
<rect x="180" y="478" width="580.0" height="22" fill="#4c78a8" rx="3"/>
<text x="768.0" y="494" class="value">216.97</text>
<line x1="180" y1="30" x2="180" y2="520" stroke="#ccc"/>
<line x1="180" y1="520" x2="760" y2="520" stroke="#ccc"/>
</svg>