<svg xmlns="http://www.w3.org/2000/svg" width="800" height="540">
<style> .label{font-family:DejaVu Sans,Verdana,Geneva,sans-serif;font-size:12px;fill:#333} .value{font-family:DejaVu Sans,Verdana,Geneva,sans-serif;font-size:12px;fill:#555} </style>
<text x="10" y="20" class="label">延迟柱状图（越低越好，Top 15），单位 ms</text>
<text x="10" y="46" class="label">eaassets-a.akamaihd.net</text>
<rect x="180" y="30" width="166.89" height="22" fill="#4c78a8" rx="3"/>
<text x="354.89" y="46" class="value">60.09</text>
<text x="10" y="78" class="label">rockstargames.com</text>
<rect x="180" y="62" width="206.8" height="22" fill="#4c78a8" rx="3"/>
<text x="394.8" y="78" class="value">74.46</text>
<text x="10" y="110" class="label">origin.com</text>
<rect x="180" y="94" width="282.54" height="22" fill="#4c78a8" rx="3"/>
<text x="470.54" y="110" class="value">101.73</text>
<text x="10" y="142" class="label">ubisoft.com</text>
<rect x="180" y="126" width="294.74" height="22" fill="#4c78a8" rx="3"/>
<text x="482.74" y="142" class="value">106.12</text>
<text x="10" y="174" class="label">store.akamai.steamstatic.com</text>
<rect x="180" y="158" width="367.14" height="22" fill="#4c78a8" rx="3"/>
<text x="555.14" y="174" class="value">132.19</text>
<text x="10" y="206" class="label">socialclub.rockstargames.com</text>
<rect x="180" y="190" width="383.44" height="22" fill="#4c78a8" rx="3"/>
<text x="571.44" y="206" class="value">138.06</text>
<text x="10" y="238" class="label">ubi.com</text>
<rect x="180" y="222" width="383.47" height="22" fill="#4c78a8" rx="3"/>
<text x="571.47" y="238" class="value">138.07</text>
<text x="10" y="270" class="label">ea.com</text>
<rect x="180" y="254" width="389.5" height="22" fill="#4c78a8" rx="3"/>
<text x="577.5" y="270" class="value">140.24</text>
<text x="10" y="302" class="label">battle.net</text>
<rect x="180" y="286" width="411.25" height="22" fill="#4c78a8" rx="3"/>
<text x="599.25" y="302" class="value">148.07</text>
<text x="10" y="334" class="label">blizzard.com</text>
<rect x="180" y="318" width="421.19" height="22" fill="#4c78a8" rx="3"/>
<text x="609.19" y="334" class="value">151.65</text>
<text x="10" y="366" class="label">www.steamcommunity.com</text>
<rect x="180" y="350" width="485.35" height="22" fill="#4c78a8" rx="3"/>
<text x="673.35" y="366" class="value">174.75</text>
<text x="10" y="398" class="label">static3.cdn.ubi.com</text>
<rect x="180" y="382" width="529.51" height="22" fill="#4c78a8" rx="3"/>
<text x="717.51" y="398" class="value">190.65</text>
<text x="10" y="430" class="label">community.akamai.steamstatic.com</text>
<rect x="180" y="414" width="540.78" height="22" fill="#4c78a8" rx="3"/>
<text x="728.78" y="430" class="value">194.71</text>
<text x="10" y="462" class="label">steamcommunity.com</text>
<rect x="180" y="446" width="560.61" height="22" fill="#4c78a8" rx="3"/>
<text x="748.61" y="462" class="value">201.85</text>
<text x="10" y="494" class="label">steam-chat.com</text>
<rect x="180" y="478" width="580.0" height="22" fill="#4c78a8" rx="3"/>
<text x="768.0" y="494" class="value">208.83</text>
<line x1="180" y1="30" x2="180" y2="520" stroke="#ccc"/>
<line x1="180" y1="520" x2="760" y2="520" stroke="#ccc"/>
</svg>