<svg xmlns="http://www.w3.org/2000/svg" width="800" height="540">
<style> .label{font-family:DejaVu Sans,Verdana,Geneva,sans-serif;font-size:12px;fill:#333} .value{font-family:DejaVu Sans,Verdana,Geneva,sans-serif;font-size:12px;fill:#555} </style>
<text x="10" y="20" class="label">延迟柱状图（越低越好，Top 15），单位 ms</text>
<text x="10" y="46" class="label">rockstargames.com</text>
<rect x="180" y="30" width="131.04" height="22" fill="#4c78a8" rx="3"/>
<text x="319.03999999999996" y="46" class="value">61.67</text>
<text x="10" y="78" class="label">community.akamai.steamstatic.com</text>
<rect x="180" y="62" width="216.49" height="22" fill="#4c78a8" rx="3"/>
<text x="404.49" y="78" class="value">101.88</text>
<text x="10" y="110" class="label">eaassets-a.akamaihd.net</text>
<rect x="180" y="94" width="218.34" height="22" fill="#4c78a8" rx="3"/>
<text x="406.34000000000003" y="110" class="value">102.75</text>
<text x="10" y="142" class="label">ubisoft.com</text>
<rect x="180" y="126" width="235.74" height="22" fill="#4c78a8" rx="3"/>
<text x="423.74" y="142" class="value">110.94</text>
<text x="10" y="174" class="label">steamcdn-a.akamaihd.net</text>
<rect x="180" y="158" width="254.21" height="22" fill="#4c78a8" rx="3"/>
<text x="442.21000000000004" y="174" class="value">119.63</text>
<text x="10" y="206" class="label">origin.com</text>
<rect x="180" y="190" width="278.13" height="22" fill="#4c78a8" rx="3"/>
<text x="466.13" y="206" class="value">130.89</text>
<text x="10" y="238" class="label">store.akamai.steamstatic.com</text>
<rect x="180" y="222" width="289.22" height="22" fill="#4c78a8" rx="3"/>
<text x="477.22" y="238" class="value">136.11</text>
<text x="10" y="270" class="label">ea.com</text>
<rect x="180" y="254" width="316.57" height="22" fill="#4c78a8" rx="3"/>
<text x="504.57" y="270" class="value">148.98</text>
<text x="10" y="302" class="label">cdn.akamai.steamstatic.com</text>
<rect x="180" y="286" width="329.05" height="22" fill="#4c78a8" rx="3"/>
<text x="517.05" y="302" class="value">154.85</text>
<text x="10" y="334" class="label">easyanticheat.net</text>
<rect x="180" y="318" width="414.26" height="22" fill="#4c78a8" rx="3"/>
<text x="602.26" y="334" class="value">194.95</text>
<text x="10" y="366" class="label">cdn.cloudflare.steamstatic.com</text>
<rect x="180" y="350" width="489.71" height="22" fill="#4c78a8" rx="3"/>
<text x="677.71" y="366" class="value">230.46</text>
<text x="10" y="398" class="label">gog.com</text>
<rect x="180" y="382" width="531.66" height="22" fill="#4c78a8" rx="3"/>
<text x="719.66" y="398" class="value">250.20</text>
<text x="10" y="430" class="label">api.steampowered.com</text>
<rect x="180" y="414" width="537.74" height="22" fill="#4c78a8" rx="3"/>
<text x="725.74" y="430" class="value">253.06</text>
<text x="10" y="462" class="label">steam-chat.com</text>
<rect x="180" y="446" width="538.67" height="22" fill="#4c78a8" rx="3"/>
<text x="726.67" y="462" class="value">253.50</text>
<text x="10" y="494" class="label">ubi.com</text>
<rect x="180" y="478" width="580.0" height="22" fill="#4c78a8" rx="3"/>
<text x="768.0" y="494" class="value">272.95</text>
<line x1="180" y1="30" x2="180" y2="520" stroke="#ccc"/>
<line x1="180" y1="520" x2="760" y2="520" stroke="#ccc"/>
</svg>