<svg xmlns="http://www.w3.org/2000/svg" width="800" height="540">
<style> .label{font-family:DejaVu Sans,Verdana,Geneva,sans-serif;font-size:12px;fill:#333} .value{font-family:DejaVu Sans,Verdana,Geneva,sans-serif;font-size:12px;fill:#555} </style>
<text x="10" y="20" class="label">延迟柱状图（越低越好，Top 15），单位 ms</text>
<text x="10" y="46" class="label">rockstargames.com</text>
<rect x="180" y="30" width="300.36" height="22" fill="#4c78a8" rx="3"/>
<text x="488.36" y="46" class="value">101.90</text>
<text x="10" y="78" class="label">origin.com</text>
<rect x="180" y="62" width="355.48" height="22" fill="#4c78a8" rx="3"/>
<text x="543.48" y="78" class="value">120.60</text>
<text x="10" y="110" class="label">eaassets-a.akamaihd.net</text>
<rect x="180" y="94" width="360.61" height="22" fill="#4c78a8" rx="3"/>
<text x="548.61" y="110" class="value">122.34</text>
<text x="10" y="142" class="label">easyanticheat.net</text>
<rect x="180" y="126" width="386.31" height="22" fill="#4c78a8" rx="3"/>
<text x="574.31" y="142" class="value">131.06</text>
<text x="10" y="174" class="label">cdn.akamai.steamstatic.com</text>
<rect x="180" y="158" width="391.41" height="22" fill="#4c78a8" rx="3"/>
<text x="579.4100000000001" y="174" class="value">132.79</text>
<text x="10" y="206" class="label">battle.net</text>
<rect x="180" y="190" width="441.58" height="22" fill="#4c78a8" rx="3"/>
<text x="629.5799999999999" y="206" class="value">149.81</text>
<text x="10" y="238" class="label">community.akamai.steamstatic.com</text>
<rect x="180" y="222" width="453.93" height="22" fill="#4c78a8" rx="3"/>
<text x="641.9300000000001" y="238" class="value">154.00</text>
<text x="10" y="270" class="label">steam-chat.com</text>
<rect x="180" y="254" width="461.8" height="22" fill="#4c78a8" rx="3"/>
<text x="649.8" y="270" class="value">156.67</text>
<text x="10" y="302" class="label">ubisoft.com</text>
<rect x="180" y="286" width="465.87" height="22" fill="#4c78a8" rx="3"/>
<text x="653.87" y="302" class="value">158.05</text>
<text x="10" y="334" class="label">steamcdn-a.akamaihd.net</text>
<rect x="180" y="318" width="477.54" height="22" fill="#4c78a8" rx="3"/>
<text x="665.54" y="334" class="value">162.01</text>
<text x="10" y="366" class="label">launcher-public-service-prod06.ol.epicgames.com</text>
<rect x="180" y="350" width="483.08" height="22" fill="#4c78a8" rx="3"/>
<text x="671.0799999999999" y="366" class="value">163.89</text>
<text x="10" y="398" class="label">ea.com</text>
<rect x="180" y="382" width="487.53" height="22" fill="#4c78a8" rx="3"/>
<text x="675.53" y="398" class="value">165.40</text>
<text x="10" y="430" class="label">ubi.com</text>
<rect x="180" y="414" width="500.74" height="22" fill="#4c78a8" rx="3"/>
<text x="688.74" y="430" class="value">169.88</text>
<text x="10" y="462" class="label">static3.cdn.ubi.com</text>
<rect x="180" y="446" width="567.86" height="22" fill="#4c78a8" rx="3"/>
<text x="755.86" y="462" class="value">192.65</text>
<text x="10" y="494" class="label">socialclub.rockstargames.com</text>
<rect x="180" y="478" width="580.0" height="22" fill="#4c78a8" rx="3"/>
<text x="768.0" y="494" class="value">196.77</text>
<line x1="180" y1="30" x2="180" y2="520" stroke="#ccc"/>
<line x1="180" y1="520" x2="760" y2="520" stroke="#ccc"/>
</svg>