<svg xmlns="http://www.w3.org/2000/svg" width="800" height="540">
<style> .label{font-family:DejaVu Sans,Verdana,Geneva,sans-serif;font-size:12px;fill:#333} .value{font-family:DejaVu Sans,Verdana,Geneva,sans-serif;font-size:12px;fill:#555} </style>
<text x="10" y="20" class="label">延迟柱状图（越低越好，Top 15），单位 ms</text>
<text x="10" y="46" class="label">rockstargames.com</text>
<rect x="180" y="30" width="192.39" height="22" fill="#4c78a8" rx="3"/>
<text x="380.39" y="46" class="value">50.86</text>
<text x="10" y="78" class="label">socialclub.rockstargames.com</text>
<rect x="180" y="62" width="298.79" height="22" fill="#4c78a8" rx="3"/>
<text x="486.79" y="78" class="value">78.99</text>
<text x="10" y="110" class="label">eaassets-a.akamaihd.net</text>
<rect x="180" y="94" width="300.65" height="22" fill="#4c78a8" rx="3"/>
<text x="488.65" y="110" class="value">79.48</text>
<text x="10" y="142" class="label">store.akamai.steamstatic.com</text>
<rect x="180" y="126" width="323.38" height="22" fill="#4c78a8" rx="3"/>
<text x="511.38" y="142" class="value">85.49</text>
<text x="10" y="174" class="label">ubi.com</text>
<rect x="180" y="158" width="329.74" height="22" fill="#4c78a8" rx="3"/>
<text x="517.74" y="174" class="value">87.17</text>
<text x="10" y="206" class="label">battle.net</text>
<rect x="180" y="190" width="338.32" height="22" fill="#4c78a8" rx="3"/>
<text x="526.3199999999999" y="206" class="value">89.44</text>
<text x="10" y="238" class="label">blizzard.com</text>
<rect x="180" y="222" width="371.04" height="22" fill="#4c78a8" rx="3"/>
<text x="559.04" y="238" class="value">98.09</text>
<text x="10" y="270" class="label">static3.cdn.ubi.com</text>
<rect x="180" y="254" width="389.2" height="22" fill="#4c78a8" rx="3"/>
<text x="577.2" y="270" class="value">102.89</text>
<text x="10" y="302" class="label">ubisoft.com</text>
<rect x="180" y="286" width="408.91" height="22" fill="#4c78a8" rx="3"/>
<text x="596.9100000000001" y="302" class="value">108.10</text>
<text x="10" y="334" class="label">epicgames.com</text>
<rect x="180" y="318" width="457.97" height="22" fill="#4c78a8" rx="3"/>
<text x="645.97" y="334" class="value">121.07</text>
<text x="10" y="366" class="label">ea.com</text>
<rect x="180" y="350" width="474.73" height="22" fill="#4c78a8" rx="3"/>
<text x="662.73" y="366" class="value">125.50</text>
<text x="10" y="398" class="label">cdn.cloudflare.steamstatic.com</text>
<rect x="180" y="382" width="520.01" height="22" fill="#4c78a8" rx="3"/>
<text x="708.01" y="398" class="value">137.47</text>
<text x="10" y="430" class="label">community.akamai.steamstatic.com</text>
<rect x="180" y="414" width="521.03" height="22" fill="#4c78a8" rx="3"/>
<text x="709.03" y="430" class="value">137.74</text>
<text x="10" y="462" class="label">unrealengine.com</text>
<rect x="180" y="446" width="561.31" height="22" fill="#4c78a8" rx="3"/>
<text x="749.31" y="462" class="value">148.39</text>
<text x="10" y="494" class="label">origin.com</text>
<rect x="180" y="478" width="580.0" height="22" fill="#4c78a8" rx="3"/>
<text x="768.0" y="494" class="value">153.33</text>
<line x1="180" y1="30" x2="180" y2="520" stroke="#ccc"/>
<line x1="180" y1="520" x2="760" y2="520" stroke="#ccc"/>
</svg>