<svg xmlns="http://www.w3.org/2000/svg" width="800" height="540">
<style> .label{font-family:DejaVu Sans,Verdana,Geneva,sans-serif;font-size:12px;fill:#333} .value{font-family:DejaVu Sans,Verdana,Geneva,sans-serif;font-size:12px;fill:#555} </style>
<text x="10" y="20" class="label">延迟柱状图（越低越好，Top 15），单位 ms</text>
<text x="10" y="46" class="label">blizzard.com</text>
<rect x="180" y="30" width="198.93" height="22" fill="#4c78a8" rx="3"/>
<text x="386.93" y="46" class="value">70.94</text>
<text x="10" y="78" class="label">battle.net</text>
<rect x="180" y="62" width="262.22" height="22" fill="#4c78a8" rx="3"/>
<text x="450.22" y="78" class="value">93.51</text>
<text x="10" y="110" class="label">socialclub.rockstargames.com</text>
<rect x="180" y="94" width="291.42" height="22" fill="#4c78a8" rx="3"/>
<text x="479.42" y="110" class="value">103.92</text>
<text x="10" y="142" class="label">ubi.com</text>
<rect x="180" y="126" width="295.26" height="22" fill="#4c78a8" rx="3"/>
<text x="483.26" y="142" class="value">105.29</text>
<text x="10" y="174" class="label">ea.com</text>
<rect x="180" y="158" width="354.96" height="22" fill="#4c78a8" rx="3"/>
<text x="542.96" y="174" class="value">126.58</text>
<text x="10" y="206" class="label">ubisoft.com</text>
<rect x="180" y="190" width="439.12" height="22" fill="#4c78a8" rx="3"/>
<text x="627.12" y="206" class="value">156.59</text>
<text x="10" y="238" class="label">eaassets-a.akamaihd.net</text>
<rect x="180" y="222" width="441.39" height="22" fill="#4c78a8" rx="3"/>
<text x="629.39" y="238" class="value">157.40</text>
<text x="10" y="270" class="label">origin.com</text>
<rect x="180" y="254" width="453.81" height="22" fill="#4c78a8" rx="3"/>
<text x="641.81" y="270" class="value">161.83</text>
<text x="10" y="302" class="label">store.akamai.steamstatic.com</text>
<rect x="180" y="286" width="468.67" height="22" fill="#4c78a8" rx="3"/>
<text x="656.6700000000001" y="302" class="value">167.13</text>
<text x="10" y="334" class="label">unrealengine.com</text>
<rect x="180" y="318" width="472.93" height="22" fill="#4c78a8" rx="3"/>
<text x="660.9300000000001" y="334" class="value">168.65</text>
<text x="10" y="366" class="label">steamcdn-a.akamaihd.net</text>
<rect x="180" y="350" width="492.03" height="22" fill="#4c78a8" rx="3"/>
<text x="680.03" y="366" class="value">175.46</text>
<text x="10" y="398" class="label">fortnite.com</text>
<rect x="180" y="382" width="492.4" height="22" fill="#4c78a8" rx="3"/>
<text x="680.4" y="398" class="value">175.59</text>
<text x="10" y="430" class="label">community.akamai.steamstatic.com</text>
<rect x="180" y="414" width="516.43" height="22" fill="#4c78a8" rx="3"/>
<text x="704.43" y="430" class="value">184.16</text>
<text x="10" y="462" class="label">epicgames.com</text>
<rect x="180" y="446" width="529.08" height="22" fill="#4c78a8" rx="3"/>
<text x="717.08" y="462" class="value">188.67</text>
<text x="10" y="494" class="label">rockstargames.com</text>
<rect x="180" y="478" width="580.0" height="22" fill="#4c78a8" rx="3"/>
<text x="768.0" y="494" class="value">206.83</text>
<line x1="180" y1="30" x2="180" y2="520" stroke="#ccc"/>
<line x1="180" y1="520" x2="760" y2="520" stroke="#ccc"/>
</svg>