<svg xmlns="http://www.w3.org/2000/svg" width="800" height="540">
<style> .label{font-family:DejaVu Sans,Verdana,Geneva,sans-serif;font-size:12px;fill:#333} .value{font-family:DejaVu Sans,Verdana,Geneva,sans-serif;font-size:12px;fill:#555} </style>
<text x="10" y="20" class="label">延迟柱状图（越低越好，Top 15），单位 ms</text>
<text x="10" y="46" class="label">eaassets-a.akamaihd.net</text>
<rect x="180" y="30" width="284.35" height="22" fill="#4c78a8" rx="3"/>
<text x="472.35" y="46" class="value">108.74</text>
<text x="10" y="78" class="label">rockstargames.com</text>
<rect x="180" y="62" width="433.82" height="22" fill="#4c78a8" rx="3"/>
<text x="621.8199999999999" y="78" class="value">165.90</text>
<text x="10" y="110" class="label">ea.com</text>
<rect x="180" y="94" width="461.2" height="22" fill="#4c78a8" rx="3"/>
<text x="649.2" y="110" class="value">176.37</text>
<text x="10" y="142" class="label">cdn.cloudflare.steamstatic.com</text>
<rect x="180" y="126" width="482.67" height="22" fill="#4c78a8" rx="3"/>
<text x="670.6700000000001" y="142" class="value">184.58</text>
<text x="10" y="174" class="label">easyanticheat.net</text>
<rect x="180" y="158" width="498.2" height="22" fill="#4c78a8" rx="3"/>
<text x="686.2" y="174" class="value">190.52</text>
<text x="10" y="206" class="label">socialclub.rockstargames.com</text>
<rect x="180" y="190" width="508.35" height="22" fill="#4c78a8" rx="3"/>
<text x="696.35" y="206" class="value">194.40</text>
<text x="10" y="238" class="label">store.akamai.steamstatic.com</text>
<rect x="180" y="222" width="513.37" height="22" fill="#4c78a8" rx="3"/>
<text x="701.37" y="238" class="value">196.32</text>
<text x="10" y="270" class="label">blizzard.com</text>
<rect x="180" y="254" width="531.73" height="22" fill="#4c78a8" rx="3"/>
<text x="719.73" y="270" class="value">203.34</text>
<text x="10" y="302" class="label">ubi.com</text>
<rect x="180" y="286" width="536.98" height="22" fill="#4c78a8" rx="3"/>
<text x="724.98" y="302" class="value">205.35</text>
<text x="10" y="334" class="label">steamcommunity.com</text>
<rect x="180" y="318" width="540.44" height="22" fill="#4c78a8" rx="3"/>
<text x="728.44" y="334" class="value">206.67</text>
<text x="10" y="366" class="label">steamcdn-a.akamaihd.net</text>
<rect x="180" y="350" width="543.83" height="22" fill="#4c78a8" rx="3"/>
<text x="731.83" y="366" class="value">207.97</text>
<text x="10" y="398" class="label">battle.net</text>
<rect x="180" y="382" width="556.81" height="22" fill="#4c78a8" rx="3"/>
<text x="744.81" y="398" class="value">212.93</text>
<text x="10" y="430" class="label">steam-chat.com</text>
<rect x="180" y="414" width="575.45" height="22" fill="#4c78a8" rx="3"/>
<text x="763.45" y="430" class="value">220.06</text>
<text x="10" y="462" class="label">ubisoft.com</text>
<rect x="180" y="446" width="576.16" height="22" fill="#4c78a8" rx="3"/>
<text x="764.16" y="462" class="value">220.33</text>
<text x="10" y="494" class="label">community.akamai.steamstatic.com</text>
<rect x="180" y="478" width="580.0" height="22" fill="#4c78a8" rx="3"/>
<text x="768.0" y="494" class="value">221.80</text>
<line x1="180" y1="30" x2="180" y2="520" stroke="#ccc"/>
<line x1="180" y1="520" x2="760" y2="520" stroke="#ccc"/>
</svg>