<svg xmlns="http://www.w3.org/2000/svg" width="800" height="540">
<style> .label{font-family:DejaVu Sans,Verdana,Geneva,sans-serif;font-size:12px;fill:#333} .value{font-family:DejaVu Sans,Verdana,Geneva,sans-serif;font-size:12px;fill:#555} </style>
<text x="10" y="20" class="label">延迟柱状图（越低越好，Top 15），单位 ms</text>
<text x="10" y="46" class="label">ea.com</text>
<rect x="180" y="30" width="315.02" height="22" fill="#4c78a8" rx="3"/>
<text x="503.02" y="46" class="value">110.61</text>
<text x="10" y="78" class="label">easyanticheat.net</text>
<rect x="180" y="62" width="386.53" height="22" fill="#4c78a8" rx="3"/>
<text x="574.53" y="78" class="value">135.72</text>
<text x="10" y="110" class="label">community.akamai.steamstatic.com</text>
<rect x="180" y="94" width="388.64" height="22" fill="#4c78a8" rx="3"/>
<text x="576.64" y="110" class="value">136.46</text>
<text x="10" y="142" class="label">rockstargames.com</text>
<rect x="180" y="126" width="401.77" height="22" fill="#4c78a8" rx="3"/>
<text x="589.77" y="142" class="value">141.07</text>
<text x="10" y="174" class="label">steamcdn-a.akamaihd.net</text>
<rect x="180" y="158" width="408.52" height="22" fill="#4c78a8" rx="3"/>
<text x="596.52" y="174" class="value">143.44</text>
<text x="10" y="206" class="label">ubi.com</text>
<rect x="180" y="190" width="422.3" height="22" fill="#4c78a8" rx="3"/>
<text x="610.3" y="206" class="value">148.28</text>
<text x="10" y="238" class="label">eaassets-a.akamaihd.net</text>
<rect x="180" y="222" width="438.54" height="22" fill="#4c78a8" rx="3"/>
<text x="626.54" y="238" class="value">153.98</text>
<text x="10" y="270" class="label">battle.net</text>
<rect x="180" y="254" width="499.06" height="22" fill="#4c78a8" rx="3"/>
<text x="687.06" y="270" class="value">175.23</text>
<text x="10" y="302" class="label">launcher-public-service-prod06.ol.epicgames.com</text>
<rect x="180" y="286" width="500.88" height="22" fill="#4c78a8" rx="3"/>
<text x="688.88" y="302" class="value">175.87</text>
<text x="10" y="334" class="label">steam-chat.com</text>
<rect x="180" y="318" width="514.55" height="22" fill="#4c78a8" rx="3"/>
<text x="702.55" y="334" class="value">180.67</text>
<text x="10" y="366" class="label">blizzard.com</text>
<rect x="180" y="350" width="517.57" height="22" fill="#4c78a8" rx="3"/>
<text x="705.57" y="366" class="value">181.73</text>
<text x="10" y="398" class="label">unrealengine.com</text>
<rect x="180" y="382" width="535.14" height="22" fill="#4c78a8" rx="3"/>
<text x="723.14" y="398" class="value">187.90</text>
<text x="10" y="430" class="label">origin.com</text>
<rect x="180" y="414" width="557.98" height="22" fill="#4c78a8" rx="3"/>
<text x="745.98" y="430" class="value">195.92</text>
<text x="10" y="462" class="label">socialclub.rockstargames.com</text>
<rect x="180" y="446" width="562.51" height="22" fill="#4c78a8" rx="3"/>
<text x="750.51" y="462" class="value">197.51</text>
<text x="10" y="494" class="label">store.akamai.steamstatic.com</text>
<rect x="180" y="478" width="580.0" height="22" fill="#4c78a8" rx="3"/>
<text x="768.0" y="494" class="value">203.65</text>
<line x1="180" y1="30" x2="180" y2="520" stroke="#ccc"/>
<line x1="180" y1="520" x2="760" y2="520" stroke="#ccc"/>
</svg>