<svg xmlns="http://www.w3.org/2000/svg" width="800" height="540">
<style> .label{font-family:DejaVu Sans,Verdana,Geneva,sans-serif;font-size:12px;fill:#333} .value{font-family:DejaVu Sans,Verdana,Geneva,sans-serif;font-size:12px;fill:#555} </style>
<text x="10" y="20" class="label">延迟柱状图（越低越好，Top 15），单位 ms</text>
<text x="10" y="46" class="label">rockstargames.com</text>
<rect x="180" y="30" width="168.26" height="22" fill="#4c78a8" rx="3"/>
<text x="356.26" y="46" class="value">67.14</text>
<text x="10" y="78" class="label">eaassets-a.akamaihd.net</text>
<rect x="180" y="62" width="180.42" height="22" fill="#4c78a8" rx="3"/>
<text x="368.41999999999996" y="78" class="value">71.99</text>
<text x="10" y="110" class="label">ea.com</text>
<rect x="180" y="94" width="204.05" height="22" fill="#4c78a8" rx="3"/>
<text x="392.05" y="110" class="value">81.42</text>
<text x="10" y="142" class="label">origin.com</text>
<rect x="180" y="126" width="265.43" height="22" fill="#4c78a8" rx="3"/>
<text x="453.43" y="142" class="value">105.91</text>
<text x="10" y="174" class="label">store.akamai.steamstatic.com</text>
<rect x="180" y="158" width="314.62" height="22" fill="#4c78a8" rx="3"/>
<text x="502.62" y="174" class="value">125.54</text>
<text x="10" y="206" class="label">socialclub.rockstargames.com</text>
<rect x="180" y="190" width="317.78" height="22" fill="#4c78a8" rx="3"/>
<text x="505.78" y="206" class="value">126.80</text>
<text x="10" y="238" class="label">ubi.com</text>
<rect x="180" y="222" width="333.32" height="22" fill="#4c78a8" rx="3"/>
<text x="521.3199999999999" y="238" class="value">133.00</text>
<text x="10" y="270" class="label">blizzard.com</text>
<rect x="180" y="254" width="388.65" height="22" fill="#4c78a8" rx="3"/>
<text x="576.65" y="270" class="value">155.08</text>
<text x="10" y="302" class="label">ubisoft.com</text>
<rect x="180" y="286" width="397.08" height="22" fill="#4c78a8" rx="3"/>
<text x="585.0799999999999" y="302" class="value">158.44</text>
<text x="10" y="334" class="label">battle.net</text>
<rect x="180" y="318" width="408.88" height="22" fill="#4c78a8" rx="3"/>
<text x="596.88" y="334" class="value">163.15</text>
<text x="10" y="366" class="label">steam-chat.com</text>
<rect x="180" y="350" width="474.79" height="22" fill="#4c78a8" rx="3"/>
<text x="662.79" y="366" class="value">189.45</text>
<text x="10" y="398" class="label">fortnite.com</text>
<rect x="180" y="382" width="558.35" height="22" fill="#4c78a8" rx="3"/>
<text x="746.35" y="398" class="value">222.79</text>
<text x="10" y="430" class="label">static3.cdn.ubi.com</text>
<rect x="180" y="414" width="562.11" height="22" fill="#4c78a8" rx="3"/>
<text x="750.11" y="430" class="value">224.29</text>
<text x="10" y="462" class="label">www.steamcommunity.com</text>
<rect x="180" y="446" width="571.45" height="22" fill="#4c78a8" rx="3"/>
<text x="759.45" y="462" class="value">228.02</text>
<text x="10" y="494" class="label">unrealengine.com</text>
<rect x="180" y="478" width="580.0" height="22" fill="#4c78a8" rx="3"/>
<text x="768.0" y="494" class="value">231.43</text>
<line x1="180" y1="30" x2="180" y2="520" stroke="#ccc"/>
<line x1="180" y1="520" x2="760" y2="520" stroke="#ccc"/>
</svg>