<svg xmlns="http://www.w3.org/2000/svg" width="800" height="540">
<style> .label{font-family:DejaVu Sans,Verdana,Geneva,sans-serif;font-size:12px;fill:#333} .value{font-family:DejaVu Sans,Verdana,Geneva,sans-serif;font-size:12px;fill:#555} </style>
<text x="10" y="20" class="label">延迟柱状图（越低越好，Top 15），单位 ms</text>
<text x="10" y="46" class="label">eaassets-a.akamaihd.net</text>
<rect x="180" y="30" width="323.8" height="22" fill="#4c78a8" rx="3"/>
<text x="511.8" y="46" class="value">137.56</text>
<text x="10" y="78" class="label">community.akamai.steamstatic.com</text>
<rect x="180" y="62" width="344.56" height="22" fill="#4c78a8" rx="3"/>
<text x="532.56" y="78" class="value">146.38</text>
<text x="10" y="110" class="label">origin.com</text>
<rect x="180" y="94" width="362.74" height="22" fill="#4c78a8" rx="3"/>
<text x="550.74" y="110" class="value">154.10</text>
<text x="10" y="142" class="label">ea.com</text>
<rect x="180" y="126" width="373.59" height="22" fill="#4c78a8" rx="3"/>
<text x="561.5899999999999" y="142" class="value">158.71</text>
<text x="10" y="174" class="label">rockstargames.com</text>
<rect x="180" y="158" width="450.61" height="22" fill="#4c78a8" rx="3"/>
<text x="638.61" y="174" class="value">191.43</text>
<text x="10" y="206" class="label">ubi.com</text>
<rect x="180" y="190" width="454.75" height="22" fill="#4c78a8" rx="3"/>
<text x="642.75" y="206" class="value">193.19</text>
<text x="10" y="238" class="label">cdn.cloudflare.steamstatic.com</text>
<rect x="180" y="222" width="494.2" height="22" fill="#4c78a8" rx="3"/>
<text x="682.2" y="238" class="value">209.95</text>
<text x="10" y="270" class="label">cdn.akamai.steamstatic.com</text>
<rect x="180" y="254" width="504.51" height="22" fill="#4c78a8" rx="3"/>
<text x="692.51" y="270" class="value">214.33</text>
<text x="10" y="302" class="label">ubisoft.com</text>
<rect x="180" y="286" width="510.16" height="22" fill="#4c78a8" rx="3"/>
<text x="698.1600000000001" y="302" class="value">216.73</text>
<text x="10" y="334" class="label">easyanticheat.net</text>
<rect x="180" y="318" width="535.91" height="22" fill="#4c78a8" rx="3"/>
<text x="723.91" y="334" class="value">227.67</text>
<text x="10" y="366" class="label">www.steamcommunity.com</text>
<rect x="180" y="350" width="556.74" height="22" fill="#4c78a8" rx="3"/>
<text x="744.74" y="366" class="value">236.52</text>
<text x="10" y="398" class="label">steamcdn-a.akamaihd.net</text>
<rect x="180" y="382" width="556.93" height="22" fill="#4c78a8" rx="3"/>
<text x="744.93" y="398" class="value">236.60</text>
<text x="10" y="430" class="label">fortnite.com</text>
<rect x="180" y="414" width="557.71" height="22" fill="#4c78a8" rx="3"/>
<text x="745.71" y="430" class="value">236.93</text>
<text x="10" y="462" class="label">blizzard.com</text>
<rect x="180" y="446" width="576.38" height="22" fill="#4c78a8" rx="3"/>
<text x="764.38" y="462" class="value">244.86</text>
<text x="10" y="494" class="label">battle.net</text>
<rect x="180" y="478" width="580.0" height="22" fill="#4c78a8" rx="3"/>
<text x="768.0" y="494" class="value">246.40</text>
<line x1="180" y1="30" x2="180" y2="520" stroke="#ccc"/>
<line x1="180" y1="520" x2="760" y2="520" stroke="#ccc"/>
</svg>