<svg xmlns="http://www.w3.org/2000/svg" width="800" height="540">
<style> .label{font-family:DejaVu Sans,Verdana,Geneva,sans-serif;font-size:12px;fill:#333} .value{font-family:DejaVu Sans,Verdana,Geneva,sans-serif;font-size:12px;fill:#555} </style>
<text x="10" y="20" class="label">延迟柱状图（越低越好，Top 15），单位 ms</text>
<text x="10" y="46" class="label">eaassets-a.akamaihd.net</text>
<rect x="180" y="30" width="126.11" height="22" fill="#4c78a8" rx="3"/>
<text x="314.11" y="46" class="value">49.69</text>
<text x="10" y="78" class="label">rockstargames.com</text>
<rect x="180" y="62" width="172.83" height="22" fill="#4c78a8" rx="3"/>
<text x="360.83000000000004" y="78" class="value">68.10</text>
<text x="10" y="110" class="label">cdn.akamai.steamstatic.com</text>
<rect x="180" y="94" width="179.45" height="22" fill="#4c78a8" rx="3"/>
<text x="367.45" y="110" class="value">70.71</text>
<text x="10" y="142" class="label">ea.com</text>
<rect x="180" y="126" width="289.01" height="22" fill="#4c78a8" rx="3"/>
<text x="477.01" y="142" class="value">113.88</text>
<text x="10" y="174" class="label">battle.net</text>
<rect x="180" y="158" width="335.94" height="22" fill="#4c78a8" rx="3"/>
<text x="523.94" y="174" class="value">132.37</text>
<text x="10" y="206" class="label">ubi.com</text>
<rect x="180" y="190" width="381.46" height="22" fill="#4c78a8" rx="3"/>
<text x="569.46" y="206" class="value">150.31</text>
<text x="10" y="238" class="label">socialclub.rockstargames.com</text>
<rect x="180" y="222" width="385.63" height="22" fill="#4c78a8" rx="3"/>
<text x="573.63" y="238" class="value">151.95</text>
<text x="10" y="270" class="label">blizzard.com</text>
<rect x="180" y="254" width="390.25" height="22" fill="#4c78a8" rx="3"/>
<text x="578.25" y="270" class="value">153.77</text>
<text x="10" y="302" class="label">community.akamai.steamstatic.com</text>
<rect x="180" y="286" width="393.32" height="22" fill="#4c78a8" rx="3"/>
<text x="581.3199999999999" y="302" class="value">154.98</text>
<text x="10" y="334" class="label">launcher-public-service-prod06.ol.epicgames.com</text>
<rect x="180" y="318" width="401.97" height="22" fill="#4c78a8" rx="3"/>
<text x="589.97" y="334" class="value">158.39</text>
<text x="10" y="366" class="label">origin.com</text>
<rect x="180" y="350" width="450.72" height="22" fill="#4c78a8" rx="3"/>
<text x="638.72" y="366" class="value">177.60</text>
<text x="10" y="398" class="label">epicgames.com</text>
<rect x="180" y="382" width="458.03" height="22" fill="#4c78a8" rx="3"/>
<text x="646.03" y="398" class="value">180.48</text>
<text x="10" y="430" class="label">www.steamcommunity.com</text>
<rect x="180" y="414" width="478.61" height="22" fill="#4c78a8" rx="3"/>
<text x="666.61" y="430" class="value">188.59</text>
<text x="10" y="462" class="label">api.steampowered.com</text>
<rect x="180" y="446" width="566.7" height="22" fill="#4c78a8" rx="3"/>
<text x="754.7" y="462" class="value">223.30</text>
<text x="10" y="494" class="label">static3.cdn.ubi.com</text>
<rect x="180" y="478" width="580.0" height="22" fill="#4c78a8" rx="3"/>
<text x="768.0" y="494" class="value">228.54</text>
<line x1="180" y1="30" x2="180" y2="520" stroke="#ccc"/>
<line x1="180" y1="520" x2="760" y2="520" stroke="#ccc"/>
</svg>