<svg xmlns="http://www.w3.org/2000/svg" width="800" height="540">
<style> .label{font-family:DejaVu Sans,Verdana,Geneva,sans-serif;font-size:12px;fill:#333} .value{font-family:DejaVu Sans,Verdana,Geneva,sans-serif;font-size:12px;fill:#555} </style>
<text x="10" y="20" class="label">延迟柱状图（越低越好，Top 15），单位 ms</text>
<text x="10" y="46" class="label">fortnite.com</text>
<rect x="180" y="30" width="182.5" height="22" fill="#4c78a8" rx="3"/>
<text x="370.5" y="46" class="value">52.82</text>
<text x="10" y="78" class="label">rockstargames.com</text>
<rect x="180" y="62" width="208.03" height="22" fill="#4c78a8" rx="3"/>
<text x="396.03" y="78" class="value">60.21</text>
<text x="10" y="110" class="label">store.akamai.steamstatic.com</text>
<rect x="180" y="94" width="312.27" height="22" fill="#4c78a8" rx="3"/>
<text x="500.27" y="110" class="value">90.38</text>
<text x="10" y="142" class="label">ea.com</text>
<rect x="180" y="126" width="318.73" height="22" fill="#4c78a8" rx="3"/>
<text x="506.73" y="142" class="value">92.25</text>
<text x="10" y="174" class="label">socialclub.rockstargames.com</text>
<rect x="180" y="158" width="335.97" height="22" fill="#4c78a8" rx="3"/>
<text x="523.97" y="174" class="value">97.24</text>
<text x="10" y="206" class="label">ubi.com</text>
<rect x="180" y="190" width="339.94" height="22" fill="#4c78a8" rx="3"/>
<text x="527.94" y="206" class="value">98.39</text>
<text x="10" y="238" class="label">eaassets-a.akamaihd.net</text>
<rect x="180" y="222" width="390.39" height="22" fill="#4c78a8" rx="3"/>
<text x="578.39" y="238" class="value">112.99</text>
<text x="10" y="270" class="label">blizzard.com</text>
<rect x="180" y="254" width="394.81" height="22" fill="#4c78a8" rx="3"/>
<text x="582.81" y="270" class="value">114.27</text>
<text x="10" y="302" class="label">community.akamai.steamstatic.com</text>
<rect x="180" y="286" width="410.63" height="22" fill="#4c78a8" rx="3"/>
<text x="598.63" y="302" class="value">118.85</text>
<text x="10" y="334" class="label">battle.net</text>
<rect x="180" y="318" width="479.35" height="22" fill="#4c78a8" rx="3"/>
<text x="667.35" y="334" class="value">138.74</text>
<text x="10" y="366" class="label">cdn.cloudflare.steamstatic.com</text>
<rect x="180" y="350" width="487.23" height="22" fill="#4c78a8" rx="3"/>
<text x="675.23" y="366" class="value">141.02</text>
<text x="10" y="398" class="label">epicgames.com</text>
<rect x="180" y="382" width="488.58" height="22" fill="#4c78a8" rx="3"/>
<text x="676.5799999999999" y="398" class="value">141.41</text>
<text x="10" y="430" class="label">origin.com</text>
<rect x="180" y="414" width="500.71" height="22" fill="#4c78a8" rx="3"/>
<text x="688.71" y="430" class="value">144.92</text>
<text x="10" y="462" class="label">static3.cdn.ubi.com</text>
<rect x="180" y="446" width="564.87" height="22" fill="#4c78a8" rx="3"/>
<text x="752.87" y="462" class="value">163.49</text>
<text x="10" y="494" class="label">steamcdn-a.akamaihd.net</text>
<rect x="180" y="478" width="580.0" height="22" fill="#4c78a8" rx="3"/>
<text x="768.0" y="494" class="value">167.87</text>
<line x1="180" y1="30" x2="180" y2="520" stroke="#ccc"/>
<line x1="180" y1="520" x2="760" y2="520" stroke="#ccc"/>
</svg>