<svg xmlns="http://www.w3.org/2000/svg" width="800" height="540">
<style> .label{font-family:DejaVu Sans,Verdana,Geneva,sans-serif;font-size:12px;fill:#333} .value{font-family:DejaVu Sans,Verdana,Geneva,sans-serif;font-size:12px;fill:#555} </style>
<text x="10" y="20" class="label">延迟柱状图（越低越好，Top 15），单位 ms</text>
<text x="10" y="46" class="label">blizzard.com</text>
<rect x="180" y="30" width="249.17" height="22" fill="#4c78a8" rx="3"/>
<text x="437.16999999999996" y="46" class="value">74.40</text>
<text x="10" y="78" class="label">rockstargames.com</text>
<rect x="180" y="62" width="251.59" height="22" fill="#4c78a8" rx="3"/>
<text x="439.59000000000003" y="78" class="value">75.12</text>
<text x="10" y="110" class="label">socialclub.rockstargames.com</text>
<rect x="180" y="94" width="319.44" height="22" fill="#4c78a8" rx="3"/>
<text x="507.44" y="110" class="value">95.38</text>
<text x="10" y="142" class="label">ubi.com</text>
<rect x="180" y="126" width="369.17" height="22" fill="#4c78a8" rx="3"/>
<text x="557.1700000000001" y="142" class="value">110.23</text>
<text x="10" y="174" class="label">eaassets-a.akamaihd.net</text>
<rect x="180" y="158" width="413.98" height="22" fill="#4c78a8" rx="3"/>
<text x="601.98" y="174" class="value">123.61</text>
<text x="10" y="206" class="label">battle.net</text>
<rect x="180" y="190" width="417.0" height="22" fill="#4c78a8" rx="3"/>
<text x="605.0" y="206" class="value">124.51</text>
<text x="10" y="238" class="label">ubisoft.com</text>
<rect x="180" y="222" width="418.91" height="22" fill="#4c78a8" rx="3"/>
<text x="606.9100000000001" y="238" class="value">125.08</text>
<text x="10" y="270" class="label">unrealengine.com</text>
<rect x="180" y="254" width="428.75" height="22" fill="#4c78a8" rx="3"/>
<text x="616.75" y="270" class="value">128.02</text>
<text x="10" y="302" class="label">epicgames.com</text>
<rect x="180" y="286" width="459.57" height="22" fill="#4c78a8" rx="3"/>
<text x="647.5699999999999" y="302" class="value">137.22</text>
<text x="10" y="334" class="label">ea.com</text>
<rect x="180" y="318" width="468.31" height="22" fill="#4c78a8" rx="3"/>
<text x="656.31" y="334" class="value">139.83</text>
<text x="10" y="366" class="label">origin.com</text>
<rect x="180" y="350" width="527.08" height="22" fill="#4c78a8" rx="3"/>
<text x="715.08" y="366" class="value">157.38</text>
<text x="10" y="398" class="label">community.akamai.steamstatic.com</text>
<rect x="180" y="382" width="531.71" height="22" fill="#4c78a8" rx="3"/>
<text x="719.71" y="398" class="value">158.76</text>
<text x="10" y="430" class="label">launcher-public-service-prod06.ol.epicgames.com</text>
<rect x="180" y="414" width="531.97" height="22" fill="#4c78a8" rx="3"/>
<text x="719.97" y="430" class="value">158.84</text>
<text x="10" y="462" class="label">store.akamai.steamstatic.com</text>
<rect x="180" y="446" width="537.9" height="22" fill="#4c78a8" rx="3"/>
<text x="725.9" y="462" class="value">160.61</text>
<text x="10" y="494" class="label">cdn.cloudflare.steamstatic.com</text>
<rect x="180" y="478" width="580.0" height="22" fill="#4c78a8" rx="3"/>
<text x="768.0" y="494" class="value">173.18</text>
<line x1="180" y1="30" x2="180" y2="520" stroke="#ccc"/>
<line x1="180" y1="520" x2="760" y2="520" stroke="#ccc"/>
</svg>