<svg xmlns="http://www.w3.org/2000/svg" width="800" height="540">
<style> .label{font-family:DejaVu Sans,Verdana,Geneva,sans-serif;font-size:12px;fill:#333} .value{font-family:DejaVu Sans,Verdana,Geneva,sans-serif;font-size:12px;fill:#555} </style>
<text x="10" y="20" class="label">延迟柱状图（越低越好，Top 15），单位 ms</text>
<text x="10" y="46" class="label">eaassets-a.akamaihd.net</text>
<rect x="180" y="30" width="134.94" height="22" fill="#4c78a8" rx="3"/>
<text x="322.94" y="46" class="value">46.97</text>
<text x="10" y="78" class="label">rockstargames.com</text>
<rect x="180" y="62" width="178.47" height="22" fill="#4c78a8" rx="3"/>
<text x="366.47" y="78" class="value">62.12</text>
<text x="10" y="110" class="label">ea.com</text>
<rect x="180" y="94" width="201.94" height="22" fill="#4c78a8" rx="3"/>
<text x="389.94" y="110" class="value">70.29</text>
<text x="10" y="142" class="label">community.akamai.steamstatic.com</text>
<rect x="180" y="126" width="250.96" height="22" fill="#4c78a8" rx="3"/>
<text x="438.96000000000004" y="142" class="value">87.35</text>
<text x="10" y="174" class="label">ubisoft.com</text>
<rect x="180" y="158" width="258.86" height="22" fill="#4c78a8" rx="3"/>
<text x="446.86" y="174" class="value">90.10</text>
<text x="10" y="206" class="label">store.akamai.steamstatic.com</text>
<rect x="180" y="190" width="312.52" height="22" fill="#4c78a8" rx="3"/>
<text x="500.52" y="206" class="value">108.78</text>
<text x="10" y="238" class="label">socialclub.rockstargames.com</text>
<rect x="180" y="222" width="371.85" height="22" fill="#4c78a8" rx="3"/>
<text x="559.85" y="238" class="value">129.43</text>
<text x="10" y="270" class="label">blizzard.com</text>
<rect x="180" y="254" width="377.66" height="22" fill="#4c78a8" rx="3"/>
<text x="565.6600000000001" y="270" class="value">131.45</text>
<text x="10" y="302" class="label">battle.net</text>
<rect x="180" y="286" width="385.99" height="22" fill="#4c78a8" rx="3"/>
<text x="573.99" y="302" class="value">134.35</text>
<text x="10" y="334" class="label">steamcdn-a.akamaihd.net</text>
<rect x="180" y="318" width="411.7" height="22" fill="#4c78a8" rx="3"/>
<text x="599.7" y="334" class="value">143.30</text>
<text x="10" y="366" class="label">ubi.com</text>
<rect x="180" y="350" width="446.84" height="22" fill="#4c78a8" rx="3"/>
<text x="634.8399999999999" y="366" class="value">155.53</text>
<text x="10" y="398" class="label">static3.cdn.ubi.com</text>
<rect x="180" y="382" width="463.47" height="22" fill="#4c78a8" rx="3"/>
<text x="651.47" y="398" class="value">161.32</text>
<text x="10" y="430" class="label">easyanticheat.net</text>
<rect x="180" y="414" width="526.53" height="22" fill="#4c78a8" rx="3"/>
<text x="714.53" y="430" class="value">183.27</text>
<text x="10" y="462" class="label">steamcommunity.com</text>
<rect x="180" y="446" width="554.29" height="22" fill="#4c78a8" rx="3"/>
<text x="742.29" y="462" class="value">192.93</text>
<text x="10" y="494" class="label">cdn.cloudflare.steamstatic.com</text>
<rect x="180" y="478" width="580.0" height="22" fill="#4c78a8" rx="3"/>
<text x="768.0" y="494" class="value">201.88</text>
<line x1="180" y1="30" x2="180" y2="520" stroke="#ccc"/>
<line x1="180" y1="520" x2="760" y2="520" stroke="#ccc"/>
</svg>