<svg xmlns="http://www.w3.org/2000/svg" width="800" height="540">
<style> .label{font-family:DejaVu Sans,Verdana,Geneva,sans-serif;font-size:12px;fill:#333} .value{font-family:DejaVu Sans,Verdana,Geneva,sans-serif;font-size:12px;fill:#555} </style>
<text x="10" y="20" class="label">延迟柱状图（越低越好，Top 15），单位 ms</text>
<text x="10" y="46" class="label">rockstargames.com</text>
<rect x="180" y="30" width="169.95" height="22" fill="#4c78a8" rx="3"/>
<text x="357.95" y="46" class="value">61.84</text>
<text x="10" y="78" class="label">eaassets-a.akamaihd.net</text>
<rect x="180" y="62" width="174.29" height="22" fill="#4c78a8" rx="3"/>
<text x="362.28999999999996" y="78" class="value">63.42</text>
<text x="10" y="110" class="label">socialclub.rockstargames.com</text>
<rect x="180" y="94" width="201.11" height="22" fill="#4c78a8" rx="3"/>
<text x="389.11" y="110" class="value">73.18</text>
<text x="10" y="142" class="label">blizzard.com</text>
<rect x="180" y="126" width="228.62" height="22" fill="#4c78a8" rx="3"/>
<text x="416.62" y="142" class="value">83.19</text>
<text x="10" y="174" class="label">unrealengine.com</text>
<rect x="180" y="158" width="231.95" height="22" fill="#4c78a8" rx="3"/>
<text x="419.95" y="174" class="value">84.40</text>
<text x="10" y="206" class="label">battle.net</text>
<rect x="180" y="190" width="235.49" height="22" fill="#4c78a8" rx="3"/>
<text x="423.49" y="206" class="value">85.69</text>
<text x="10" y="238" class="label">ea.com</text>
<rect x="180" y="222" width="281.27" height="22" fill="#4c78a8" rx="3"/>
<text x="469.27" y="238" class="value">102.35</text>
<text x="10" y="270" class="label">ubisoft.com</text>
<rect x="180" y="254" width="359.9" height="22" fill="#4c78a8" rx="3"/>
<text x="547.9" y="270" class="value">130.96</text>
<text x="10" y="302" class="label">ubi.com</text>
<rect x="180" y="286" width="362.13" height="22" fill="#4c78a8" rx="3"/>
<text x="550.13" y="302" class="value">131.77</text>
<text x="10" y="334" class="label">origin.com</text>
<rect x="180" y="318" width="451.83" height="22" fill="#4c78a8" rx="3"/>
<text x="639.8299999999999" y="334" class="value">164.41</text>
<text x="10" y="366" class="label">epicgames.com</text>
<rect x="180" y="350" width="510.0" height="22" fill="#4c78a8" rx="3"/>
<text x="698.0" y="366" class="value">185.58</text>
<text x="10" y="398" class="label">cdn.akamai.steamstatic.com</text>
<rect x="180" y="382" width="518.0" height="22" fill="#4c78a8" rx="3"/>
<text x="706.0" y="398" class="value">188.49</text>
<text x="10" y="430" class="label">static3.cdn.ubi.com</text>
<rect x="180" y="414" width="530.97" height="22" fill="#4c78a8" rx="3"/>
<text x="718.97" y="430" class="value">193.21</text>
<text x="10" y="462" class="label">steamcdn-a.akamaihd.net</text>
<rect x="180" y="446" width="567.44" height="22" fill="#4c78a8" rx="3"/>
<text x="755.44" y="462" class="value">206.48</text>
<text x="10" y="494" class="label">fortnite.com</text>
<rect x="180" y="478" width="580.0" height="22" fill="#4c78a8" rx="3"/>
<text x="768.0" y="494" class="value">211.05</text>
<line x1="180" y1="30" x2="180" y2="520" stroke="#ccc"/>
<line x1="180" y1="520" x2="760" y2="520" stroke="#ccc"/>
</svg>