<svg xmlns="http://www.w3.org/2000/svg" width="800" height="540">
<style> .label{font-family:DejaVu Sans,Verdana,Geneva,sans-serif;font-size:12px;fill:#333} .value{font-family:DejaVu Sans,Verdana,Geneva,sans-serif;font-size:12px;fill:#555} </style>
<text x="10" y="20" class="label">延迟柱状图（越低越好，Top 15），单位 ms</text>
<text x="10" y="46" class="label">ubi.com</text>
<rect x="180" y="30" width="205.58" height="22" fill="#4c78a8" rx="3"/>
<text x="393.58000000000004" y="46" class="value">71.99</text>
<text x="10" y="78" class="label">rockstargames.com</text>
<rect x="180" y="62" width="210.18" height="22" fill="#4c78a8" rx="3"/>
<text x="398.18" y="78" class="value">73.60</text>
<text x="10" y="110" class="label">blizzard.com</text>
<rect x="180" y="94" width="279.78" height="22" fill="#4c78a8" rx="3"/>
<text x="467.78" y="110" class="value">97.97</text>
<text x="10" y="142" class="label">socialclub.rockstargames.com</text>
<rect x="180" y="126" width="286.8" height="22" fill="#4c78a8" rx="3"/>
<text x="474.8" y="142" class="value">100.43</text>
<text x="10" y="174" class="label">fortnite.com</text>
<rect x="180" y="158" width="287.14" height="22" fill="#4c78a8" rx="3"/>
<text x="475.14" y="174" class="value">100.55</text>
<text x="10" y="206" class="label">battle.net</text>
<rect x="180" y="190" width="305.91" height="22" fill="#4c78a8" rx="3"/>
<text x="493.91" y="206" class="value">107.12</text>
<text x="10" y="238" class="label">ubisoft.com</text>
<rect x="180" y="222" width="360.37" height="22" fill="#4c78a8" rx="3"/>
<text x="548.37" y="238" class="value">126.19</text>
<text x="10" y="270" class="label">ea.com</text>
<rect x="180" y="254" width="395.55" height="22" fill="#4c78a8" rx="3"/>
<text x="583.55" y="270" class="value">138.51</text>
<text x="10" y="302" class="label">static3.cdn.ubi.com</text>
<rect x="180" y="286" width="420.34" height="22" fill="#4c78a8" rx="3"/>
<text x="608.3399999999999" y="302" class="value">147.19</text>
<text x="10" y="334" class="label">unrealengine.com</text>
<rect x="180" y="318" width="514.8" height="22" fill="#4c78a8" rx="3"/>
<text x="702.8" y="334" class="value">180.27</text>
<text x="10" y="366" class="label">gog.com</text>
<rect x="180" y="350" width="534.05" height="22" fill="#4c78a8" rx="3"/>
<text x="722.05" y="366" class="value">187.01</text>
<text x="10" y="398" class="label">store.akamai.steamstatic.com</text>
<rect x="180" y="382" width="569.01" height="22" fill="#4c78a8" rx="3"/>
<text x="757.01" y="398" class="value">199.25</text>
<text x="10" y="430" class="label">origin.com</text>
<rect x="180" y="414" width="573.37" height="22" fill="#4c78a8" rx="3"/>
<text x="761.37" y="430" class="value">200.78</text>
<text x="10" y="462" class="label">community.akamai.steamstatic.com</text>
<rect x="180" y="446" width="577.03" height="22" fill="#4c78a8" rx="3"/>
<text x="765.03" y="462" class="value">202.06</text>
<text x="10" y="494" class="label">epicgames.com</text>
<rect x="180" y="478" width="580.0" height="22" fill="#4c78a8" rx="3"/>
<text x="768.0" y="494" class="value">203.10</text>
<line x1="180" y1="30" x2="180" y2="520" stroke="#ccc"/>
<line x1="180" y1="520" x2="760" y2="520" stroke="#ccc"/>
</svg>