<svg xmlns="http://www.w3.org/2000/svg" width="800" height="540">
<style> .label{font-family:DejaVu Sans,Verdana,Geneva,sans-serif;font-size:12px;fill:#333} .value{font-family:DejaVu Sans,Verdana,Geneva,sans-serif;font-size:12px;fill:#555} </style>
<text x="10" y="20" class="label">延迟柱状图（越低越好，Top 15），单位 ms</text>
<text x="10" y="46" class="label">rockstargames.com</text>
<rect x="180" y="30" width="164.15" height="22" fill="#4c78a8" rx="3"/>
<text x="352.15" y="46" class="value">59.03</text>
<text x="10" y="78" class="label">socialclub.rockstargames.com</text>
<rect x="180" y="62" width="181.08" height="22" fill="#4c78a8" rx="3"/>
<text x="369.08000000000004" y="78" class="value">65.12</text>
<text x="10" y="110" class="label">ubi.com</text>
<rect x="180" y="94" width="213.61" height="22" fill="#4c78a8" rx="3"/>
<text x="401.61" y="110" class="value">76.82</text>
<text x="10" y="142" class="label">battle.net</text>
<rect x="180" y="126" width="245.76" height="22" fill="#4c78a8" rx="3"/>
<text x="433.76" y="142" class="value">88.38</text>
<text x="10" y="174" class="label">cdn.akamai.steamstatic.com</text>
<rect x="180" y="158" width="288.44" height="22" fill="#4c78a8" rx="3"/>
<text x="476.44" y="174" class="value">103.73</text>
<text x="10" y="206" class="label">eaassets-a.akamaihd.net</text>
<rect x="180" y="190" width="292.95" height="22" fill="#4c78a8" rx="3"/>
<text x="480.95" y="206" class="value">105.35</text>
<text x="10" y="238" class="label">ubisoft.com</text>
<rect x="180" y="222" width="298.26" height="22" fill="#4c78a8" rx="3"/>
<text x="486.26" y="238" class="value">107.26</text>
<text x="10" y="270" class="label">blizzard.com</text>
<rect x="180" y="254" width="300.96" height="22" fill="#4c78a8" rx="3"/>
<text x="488.96" y="270" class="value">108.23</text>
<text x="10" y="302" class="label">ea.com</text>
<rect x="180" y="286" width="306.55" height="22" fill="#4c78a8" rx="3"/>
<text x="494.55" y="302" class="value">110.24</text>
<text x="10" y="334" class="label">epicgames.com</text>
<rect x="180" y="318" width="349.37" height="22" fill="#4c78a8" rx="3"/>
<text x="537.37" y="334" class="value">125.64</text>
<text x="10" y="366" class="label">fortnite.com</text>
<rect x="180" y="350" width="362.72" height="22" fill="#4c78a8" rx="3"/>
<text x="550.72" y="366" class="value">130.44</text>
<text x="10" y="398" class="label">unrealengine.com</text>
<rect x="180" y="382" width="528.17" height="22" fill="#4c78a8" rx="3"/>
<text x="716.17" y="398" class="value">189.94</text>
<text x="10" y="430" class="label">community.akamai.steamstatic.com</text>
<rect x="180" y="414" width="548.41" height="22" fill="#4c78a8" rx="3"/>
<text x="736.41" y="430" class="value">197.22</text>
<text x="10" y="462" class="label">origin.com</text>
<rect x="180" y="446" width="573.1" height="22" fill="#4c78a8" rx="3"/>
<text x="761.1" y="462" class="value">206.10</text>
<text x="10" y="494" class="label">gog.com</text>
<rect x="180" y="478" width="580.0" height="22" fill="#4c78a8" rx="3"/>
<text x="768.0" y="494" class="value">208.58</text>
<line x1="180" y1="30" x2="180" y2="520" stroke="#ccc"/>
<line x1="180" y1="520" x2="760" y2="520" stroke="#ccc"/>
</svg>