<svg xmlns="http://www.w3.org/2000/svg" width="800" height="540">
<style> .label{font-family:DejaVu Sans,Verdana,Geneva,sans-serif;font-size:12px;fill:#333} .value{font-family:DejaVu Sans,Verdana,Geneva,sans-serif;font-size:12px;fill:#555} </style>
<text x="10" y="20" class="label">延迟柱状图（越低越好，Top 15），单位 ms</text>
<text x="10" y="46" class="label">rockstargames.com</text>
<rect x="180" y="30" width="110.28" height="22" fill="#4c78a8" rx="3"/>
<text x="298.28" y="46" class="value">43.76</text>
<text x="10" y="78" class="label">socialclub.rockstargames.com</text>
<rect x="180" y="62" width="173.48" height="22" fill="#4c78a8" rx="3"/>
<text x="361.48" y="78" class="value">68.84</text>
<text x="10" y="110" class="label">blizzard.com</text>
<rect x="180" y="94" width="183.16" height="22" fill="#4c78a8" rx="3"/>
<text x="371.15999999999997" y="110" class="value">72.68</text>
<text x="10" y="142" class="label">eaassets-a.akamaihd.net</text>
<rect x="180" y="126" width="226.61" height="22" fill="#4c78a8" rx="3"/>
<text x="414.61" y="142" class="value">89.92</text>
<text x="10" y="174" class="label">ea.com</text>
<rect x="180" y="158" width="257.98" height="22" fill="#4c78a8" rx="3"/>
<text x="445.98" y="174" class="value">102.37</text>
<text x="10" y="206" class="label">ubi.com</text>
<rect x="180" y="190" width="267.48" height="22" fill="#4c78a8" rx="3"/>
<text x="455.48" y="206" class="value">106.14</text>
<text x="10" y="238" class="label">community.akamai.steamstatic.com</text>
<rect x="180" y="222" width="276.4" height="22" fill="#4c78a8" rx="3"/>
<text x="464.4" y="238" class="value">109.68</text>
<text x="10" y="270" class="label">origin.com</text>
<rect x="180" y="254" width="375.27" height="22" fill="#4c78a8" rx="3"/>
<text x="563.27" y="270" class="value">148.91</text>
<text x="10" y="302" class="label">cdn.akamai.steamstatic.com</text>
<rect x="180" y="286" width="468.49" height="22" fill="#4c78a8" rx="3"/>
<text x="656.49" y="302" class="value">185.90</text>
<text x="10" y="334" class="label">unrealengine.com</text>
<rect x="180" y="318" width="496.51" height="22" fill="#4c78a8" rx="3"/>
<text x="684.51" y="334" class="value">197.02</text>
<text x="10" y="366" class="label">epicgames.com</text>
<rect x="180" y="350" width="503.94" height="22" fill="#4c78a8" rx="3"/>
<text x="691.94" y="366" class="value">199.97</text>
<text x="10" y="398" class="label">fortnite.com</text>
<rect x="180" y="382" width="547.74" height="22" fill="#4c78a8" rx="3"/>
<text x="735.74" y="398" class="value">217.35</text>
<text x="10" y="430" class="label">static3.cdn.ubi.com</text>
<rect x="180" y="414" width="551.9" height="22" fill="#4c78a8" rx="3"/>
<text x="739.9" y="430" class="value">219.00</text>
<text x="10" y="462" class="label">store.akamai.steamstatic.com</text>
<rect x="180" y="446" width="559.76" height="22" fill="#4c78a8" rx="3"/>
<text x="747.76" y="462" class="value">222.12</text>
<text x="10" y="494" class="label">www.steamcommunity.com</text>
<rect x="180" y="478" width="580.0" height="22" fill="#4c78a8" rx="3"/>
<text x="768.0" y="494" class="value">230.15</text>
<line x1="180" y1="30" x2="180" y2="520" stroke="#ccc"/>
<line x1="180" y1="520" x2="760" y2="520" stroke="#ccc"/>
</svg>