<svg xmlns="http://www.w3.org/2000/svg" width="800" height="540">
<style> .label{font-family:DejaVu Sans,Verdana,Geneva,sans-serif;font-size:12px;fill:#333} .value{font-family:DejaVu Sans,Verdana,Geneva,sans-serif;font-size:12px;fill:#555} </style>
<text x="10" y="20" class="label">延迟柱状图（越低越好，Top 15），单位 ms</text>
<text x="10" y="46" class="label">store.akamai.steamstatic.com</text>
<rect x="180" y="30" width="118.18" height="22" fill="#4c78a8" rx="3"/>
<text x="306.18" y="46" class="value">44.51</text>
<text x="10" y="78" class="label">steamcdn-a.akamaihd.net</text>
<rect x="180" y="62" width="208.64" height="22" fill="#4c78a8" rx="3"/>
<text x="396.64" y="78" class="value">78.58</text>
<text x="10" y="110" class="label">eaassets-a.akamaihd.net</text>
<rect x="180" y="94" width="230.01" height="22" fill="#4c78a8" rx="3"/>
<text x="418.01" y="110" class="value">86.63</text>
<text x="10" y="142" class="label">ea.com</text>
<rect x="180" y="126" width="269.94" height="22" fill="#4c78a8" rx="3"/>
<text x="457.94" y="142" class="value">101.67</text>
<text x="10" y="174" class="label">rockstargames.com</text>
<rect x="180" y="158" width="311.86" height="22" fill="#4c78a8" rx="3"/>
<text x="499.86" y="174" class="value">117.46</text>
<text x="10" y="206" class="label">socialclub.rockstargames.com</text>
<rect x="180" y="190" width="370.57" height="22" fill="#4c78a8" rx="3"/>
<text x="558.5699999999999" y="206" class="value">139.57</text>
<text x="10" y="238" class="label">battle.net</text>
<rect x="180" y="222" width="391.33" height="22" fill="#4c78a8" rx="3"/>
<text x="579.3299999999999" y="238" class="value">147.39</text>
<text x="10" y="270" class="label">ubisoft.com</text>
<rect x="180" y="254" width="398.98" height="22" fill="#4c78a8" rx="3"/>
<text x="586.98" y="270" class="value">150.27</text>
<text x="10" y="302" class="label">blizzard.com</text>
<rect x="180" y="286" width="422.61" height="22" fill="#4c78a8" rx="3"/>
<text x="610.61" y="302" class="value">159.17</text>
<text x="10" y="334" class="label">easyanticheat.net</text>
<rect x="180" y="318" width="452.74" height="22" fill="#4c78a8" rx="3"/>
<text x="640.74" y="334" class="value">170.52</text>
<text x="10" y="366" class="label">community.akamai.steamstatic.com</text>
<rect x="180" y="350" width="468.04" height="22" fill="#4c78a8" rx="3"/>
<text x="656.04" y="366" class="value">176.28</text>
<text x="10" y="398" class="label">ubi.com</text>
<rect x="180" y="382" width="490.21" height="22" fill="#4c78a8" rx="3"/>
<text x="678.21" y="398" class="value">184.63</text>
<text x="10" y="430" class="label">api.steampowered.com</text>
<rect x="180" y="414" width="503.37" height="22" fill="#4c78a8" rx="3"/>
<text x="691.37" y="430" class="value">189.59</text>
<text x="10" y="462" class="label">static3.cdn.ubi.com</text>
<rect x="180" y="446" width="579.26" height="22" fill="#4c78a8" rx="3"/>
<text x="767.26" y="462" class="value">218.17</text>
<text x="10" y="494" class="label">steamcommunity.com</text>
<rect x="180" y="478" width="580.0" height="22" fill="#4c78a8" rx="3"/>
<text x="768.0" y="494" class="value">218.45</text>
<line x1="180" y1="30" x2="180" y2="520" stroke="#ccc"/>
<line x1="180" y1="520" x2="760" y2="520" stroke="#ccc"/>
</svg>