<svg xmlns="http://www.w3.org/2000/svg" width="800" height="540">
<style> .label{font-family:DejaVu Sans,Verdana,Geneva,sans-serif;font-size:12px;fill:#333} .value{font-family:DejaVu Sans,Verdana,Geneva,sans-serif;font-size:12px;fill:#555} </style>
<text x="10" y="20" class="label">延迟柱状图（越低越好，Top 15），单位 ms</text>
<text x="10" y="46" class="label">eaassets-a.akamaihd.net</text>
<rect x="180" y="30" width="162.58" height="22" fill="#4c78a8" rx="3"/>
<text x="350.58000000000004" y="46" class="value">56.71</text>
<text x="10" y="78" class="label">steamcdn-a.akamaihd.net</text>
<rect x="180" y="62" width="262.95" height="22" fill="#4c78a8" rx="3"/>
<text x="450.95" y="78" class="value">91.72</text>
<text x="10" y="110" class="label">rockstargames.com</text>
<rect x="180" y="94" width="279.55" height="22" fill="#4c78a8" rx="3"/>
<text x="467.55" y="110" class="value">97.51</text>
<text x="10" y="142" class="label">cdn.akamai.steamstatic.com</text>
<rect x="180" y="126" width="280.58" height="22" fill="#4c78a8" rx="3"/>
<text x="468.58" y="142" class="value">97.87</text>
<text x="10" y="174" class="label">origin.com</text>
<rect x="180" y="158" width="382.87" height="22" fill="#4c78a8" rx="3"/>
<text x="570.87" y="174" class="value">133.55</text>
<text x="10" y="206" class="label">ubi.com</text>
<rect x="180" y="190" width="390.38" height="22" fill="#4c78a8" rx="3"/>
<text x="578.38" y="206" class="value">136.17</text>
<text x="10" y="238" class="label">socialclub.rockstargames.com</text>
<rect x="180" y="222" width="414.09" height="22" fill="#4c78a8" rx="3"/>
<text x="602.0899999999999" y="238" class="value">144.44</text>
<text x="10" y="270" class="label">community.akamai.steamstatic.com</text>
<rect x="180" y="254" width="432.73" height="22" fill="#4c78a8" rx="3"/>
<text x="620.73" y="270" class="value">150.94</text>
<text x="10" y="302" class="label">cdn.cloudflare.steamstatic.com</text>
<rect x="180" y="286" width="441.24" height="22" fill="#4c78a8" rx="3"/>
<text x="629.24" y="302" class="value">153.91</text>
<text x="10" y="334" class="label">static3.cdn.ubi.com</text>
<rect x="180" y="318" width="443.74" height="22" fill="#4c78a8" rx="3"/>
<text x="631.74" y="334" class="value">154.78</text>
<text x="10" y="366" class="label">battle.net</text>
<rect x="180" y="350" width="446.03" height="22" fill="#4c78a8" rx="3"/>
<text x="634.03" y="366" class="value">155.58</text>
<text x="10" y="398" class="label">blizzard.com</text>
<rect x="180" y="382" width="474.15" height="22" fill="#4c78a8" rx="3"/>
<text x="662.15" y="398" class="value">165.39</text>
<text x="10" y="430" class="label">store.akamai.steamstatic.com</text>
<rect x="180" y="414" width="534.99" height="22" fill="#4c78a8" rx="3"/>
<text x="722.99" y="430" class="value">186.61</text>
<text x="10" y="462" class="label">ubisoft.com</text>
<rect x="180" y="446" width="553.34" height="22" fill="#4c78a8" rx="3"/>
<text x="741.34" y="462" class="value">193.01</text>
<text x="10" y="494" class="label">api.steampowered.com</text>
<rect x="180" y="478" width="580.0" height="22" fill="#4c78a8" rx="3"/>
<text x="768.0" y="494" class="value">202.31</text>
<line x1="180" y1="30" x2="180" y2="520" stroke="#ccc"/>
<line x1="180" y1="520" x2="760" y2="520" stroke="#ccc"/>
</svg>