<svg xmlns="http://www.w3.org/2000/svg" width="800" height="540">
<style> .label{font-family:DejaVu Sans,Verdana,Geneva,sans-serif;font-size:12px;fill:#333} .value{font-family:DejaVu Sans,Verdana,Geneva,sans-serif;font-size:12px;fill:#555} </style>
<text x="10" y="20" class="label">延迟柱状图（越低越好，Top 15），单位 ms</text>
<text x="10" y="46" class="label">eaassets-a.akamaihd.net</text>
<rect x="180" y="30" width="75.4" height="22" fill="#4c78a8" rx="3"/>
<text x="263.4" y="46" class="value">37.29</text>
<text x="10" y="78" class="label">ea.com</text>
<rect x="180" y="62" width="84.68" height="22" fill="#4c78a8" rx="3"/>
<text x="272.68" y="78" class="value">41.88</text>
<text x="10" y="110" class="label">rockstargames.com</text>
<rect x="180" y="94" width="164.06" height="22" fill="#4c78a8" rx="3"/>
<text x="352.06" y="110" class="value">81.14</text>
<text x="10" y="142" class="label">ubisoft.com</text>
<rect x="180" y="126" width="228.74" height="22" fill="#4c78a8" rx="3"/>
<text x="416.74" y="142" class="value">113.13</text>
<text x="10" y="174" class="label">steamcdn-a.akamaihd.net</text>
<rect x="180" y="158" width="237.4" height="22" fill="#4c78a8" rx="3"/>
<text x="425.4" y="174" class="value">117.41</text>
<text x="10" y="206" class="label">community.akamai.steamstatic.com</text>
<rect x="180" y="190" width="259.15" height="22" fill="#4c78a8" rx="3"/>
<text x="447.15" y="206" class="value">128.17</text>
<text x="10" y="238" class="label">origin.com</text>
<rect x="180" y="222" width="273.47" height="22" fill="#4c78a8" rx="3"/>
<text x="461.47" y="238" class="value">135.25</text>
<text x="10" y="270" class="label">store.akamai.steamstatic.com</text>
<rect x="180" y="254" width="281.15" height="22" fill="#4c78a8" rx="3"/>
<text x="469.15" y="270" class="value">139.05</text>
<text x="10" y="302" class="label">easyanticheat.net</text>
<rect x="180" y="286" width="311.0" height="22" fill="#4c78a8" rx="3"/>
<text x="499.0" y="302" class="value">153.81</text>
<text x="10" y="334" class="label">cdn.cloudflare.steamstatic.com</text>
<rect x="180" y="318" width="354.98" height="22" fill="#4c78a8" rx="3"/>
<text x="542.98" y="334" class="value">175.56</text>
<text x="10" y="366" class="label">www.steamcommunity.com</text>
<rect x="180" y="350" width="433.95" height="22" fill="#4c78a8" rx="3"/>
<text x="621.95" y="366" class="value">214.62</text>
<text x="10" y="398" class="label">steam-chat.com</text>
<rect x="180" y="382" width="438.81" height="22" fill="#4c78a8" rx="3"/>
<text x="626.81" y="398" class="value">217.02</text>
<text x="10" y="430" class="label">api.steampowered.com</text>
<rect x="180" y="414" width="501.24" height="22" fill="#4c78a8" rx="3"/>
<text x="689.24" y="430" class="value">247.90</text>
<text x="10" y="462" class="label">ubi.com</text>
<rect x="180" y="446" width="575.69" height="22" fill="#4c78a8" rx="3"/>
<text x="763.69" y="462" class="value">284.72</text>
<text x="10" y="494" class="label">launcher-public-service-prod06.ol.epicgames.com</text>
<rect x="180" y="478" width="580.0" height="22" fill="#4c78a8" rx="3"/>
<text x="768.0" y="494" class="value">286.85</text>
<line x1="180" y1="30" x2="180" y2="520" stroke="#ccc"/>
<line x1="180" y1="520" x2="760" y2="520" stroke="#ccc"/>
</svg>