<svg xmlns="http://www.w3.org/2000/svg" width="800" height="540">
<style> .label{font-family:DejaVu Sans,Verdana,Geneva,sans-serif;font-size:12px;fill:#333} .value{font-family:DejaVu Sans,Verdana,Geneva,sans-serif;font-size:12px;fill:#555} </style>
<text x="10" y="20" class="label">延迟柱状图（越低越好，Top 15），单位 ms</text>
<text x="10" y="46" class="label">rockstargames.com</text>
<rect x="180" y="30" width="159.57" height="22" fill="#4c78a8" rx="3"/>
<text x="347.57" y="46" class="value">51.86</text>
<text x="10" y="78" class="label">eaassets-a.akamaihd.net</text>
<rect x="180" y="62" width="166.15" height="22" fill="#4c78a8" rx="3"/>
<text x="354.15" y="78" class="value">54.00</text>
<text x="10" y="110" class="label">blizzard.com</text>
<rect x="180" y="94" width="224.77" height="22" fill="#4c78a8" rx="3"/>
<text x="412.77" y="110" class="value">73.05</text>
<text x="10" y="142" class="label">battle.net</text>
<rect x="180" y="126" width="265.6" height="22" fill="#4c78a8" rx="3"/>
<text x="453.6" y="142" class="value">86.32</text>
<text x="10" y="174" class="label">ubisoft.com</text>
<rect x="180" y="158" width="270.37" height="22" fill="#4c78a8" rx="3"/>
<text x="458.37" y="174" class="value">87.87</text>
<text x="10" y="206" class="label">socialclub.rockstargames.com</text>
<rect x="180" y="190" width="283.38" height="22" fill="#4c78a8" rx="3"/>
<text x="471.38" y="206" class="value">92.10</text>
<text x="10" y="238" class="label">ea.com</text>
<rect x="180" y="222" width="304.0" height="22" fill="#4c78a8" rx="3"/>
<text x="492.0" y="238" class="value">98.80</text>
<text x="10" y="270" class="label">unrealengine.com</text>
<rect x="180" y="254" width="376.58" height="22" fill="#4c78a8" rx="3"/>
<text x="564.5799999999999" y="270" class="value">122.39</text>
<text x="10" y="302" class="label">epicgames.com</text>
<rect x="180" y="286" width="409.75" height="22" fill="#4c78a8" rx="3"/>
<text x="597.75" y="302" class="value">133.17</text>
<text x="10" y="334" class="label">store.akamai.steamstatic.com</text>
<rect x="180" y="318" width="413.88" height="22" fill="#4c78a8" rx="3"/>
<text x="601.88" y="334" class="value">134.51</text>
<text x="10" y="366" class="label">fortnite.com</text>
<rect x="180" y="350" width="434.03" height="22" fill="#4c78a8" rx="3"/>
<text x="622.03" y="366" class="value">141.06</text>
<text x="10" y="398" class="label">static3.cdn.ubi.com</text>
<rect x="180" y="382" width="440.62" height="22" fill="#4c78a8" rx="3"/>
<text x="628.62" y="398" class="value">143.20</text>
<text x="10" y="430" class="label">ubi.com</text>
<rect x="180" y="414" width="441.48" height="22" fill="#4c78a8" rx="3"/>
<text x="629.48" y="430" class="value">143.48</text>
<text x="10" y="462" class="label">launcher-public-service-prod06.ol.epicgames.com</text>
<rect x="180" y="446" width="527.51" height="22" fill="#4c78a8" rx="3"/>
<text x="715.51" y="462" class="value">171.44</text>
<text x="10" y="494" class="label">cdn.akamai.steamstatic.com</text>
<rect x="180" y="478" width="580.0" height="22" fill="#4c78a8" rx="3"/>
<text x="768.0" y="494" class="value">188.50</text>
<line x1="180" y1="30" x2="180" y2="520" stroke="#ccc"/>
<line x1="180" y1="520" x2="760" y2="520" stroke="#ccc"/>
</svg>