<svg xmlns="http://www.w3.org/2000/svg" width="800" height="540">
<style> .label{font-family:DejaVu Sans,Verdana,Geneva,sans-serif;font-size:12px;fill:#333} .value{font-family:DejaVu Sans,Verdana,Geneva,sans-serif;font-size:12px;fill:#555} </style>
<text x="10" y="20" class="label">延迟柱状图（越低越好，Top 15），单位 ms</text>
<text x="10" y="46" class="label">rockstargames.com</text>
<rect x="180" y="30" width="142.09" height="22" fill="#4c78a8" rx="3"/>
<text x="330.09000000000003" y="46" class="value">54.35</text>
<text x="10" y="78" class="label">socialclub.rockstargames.com</text>
<rect x="180" y="62" width="200.15" height="22" fill="#4c78a8" rx="3"/>
<text x="388.15" y="78" class="value">76.56</text>
<text x="10" y="110" class="label">eaassets-a.akamaihd.net</text>
<rect x="180" y="94" width="217.43" height="22" fill="#4c78a8" rx="3"/>
<text x="405.43" y="110" class="value">83.17</text>
<text x="10" y="142" class="label">battle.net</text>
<rect x="180" y="126" width="239.28" height="22" fill="#4c78a8" rx="3"/>
<text x="427.28" y="142" class="value">91.53</text>
<text x="10" y="174" class="label">ubi.com</text>
<rect x="180" y="158" width="268.17" height="22" fill="#4c78a8" rx="3"/>
<text x="456.17" y="174" class="value">102.58</text>
<text x="10" y="206" class="label">community.akamai.steamstatic.com</text>
<rect x="180" y="190" width="289.66" height="22" fill="#4c78a8" rx="3"/>
<text x="477.66" y="206" class="value">110.80</text>
<text x="10" y="238" class="label">epicgames.com</text>
<rect x="180" y="222" width="290.37" height="22" fill="#4c78a8" rx="3"/>
<text x="478.37" y="238" class="value">111.07</text>
<text x="10" y="270" class="label">blizzard.com</text>
<rect x="180" y="254" width="306.63" height="22" fill="#4c78a8" rx="3"/>
<text x="494.63" y="270" class="value">117.29</text>
<text x="10" y="302" class="label">unrealengine.com</text>
<rect x="180" y="286" width="415.09" height="22" fill="#4c78a8" rx="3"/>
<text x="603.0899999999999" y="302" class="value">158.78</text>
<text x="10" y="334" class="label">ea.com</text>
<rect x="180" y="318" width="461.7" height="22" fill="#4c78a8" rx="3"/>
<text x="649.7" y="334" class="value">176.61</text>
<text x="10" y="366" class="label">ubisoft.com</text>
<rect x="180" y="350" width="462.25" height="22" fill="#4c78a8" rx="3"/>
<text x="650.25" y="366" class="value">176.82</text>
<text x="10" y="398" class="label">fortnite.com</text>
<rect x="180" y="382" width="547.4" height="22" fill="#4c78a8" rx="3"/>
<text x="735.4" y="398" class="value">209.39</text>
<text x="10" y="430" class="label">cdn.akamai.steamstatic.com</text>
<rect x="180" y="414" width="569.91" height="22" fill="#4c78a8" rx="3"/>
<text x="757.91" y="430" class="value">218.00</text>
<text x="10" y="462" class="label">origin.com</text>
<rect x="180" y="446" width="576.63" height="22" fill="#4c78a8" rx="3"/>
<text x="764.63" y="462" class="value">220.57</text>
<text x="10" y="494" class="label">gog.com</text>
<rect x="180" y="478" width="580.0" height="22" fill="#4c78a8" rx="3"/>
<text x="768.0" y="494" class="value">221.86</text>
<line x1="180" y1="30" x2="180" y2="520" stroke="#ccc"/>
<line x1="180" y1="520" x2="760" y2="520" stroke="#ccc"/>
</svg>