<svg xmlns="http://www.w3.org/2000/svg" width="800" height="540">
<style> .label{font-family:DejaVu Sans,Verdana,Geneva,sans-serif;font-size:12px;fill:#333} .value{font-family:DejaVu Sans,Verdana,Geneva,sans-serif;font-size:12px;fill:#555} </style>
<text x="10" y="20" class="label">延迟柱状图（越低越好，Top 15），单位 ms</text>
<text x="10" y="46" class="label">ea.com</text>
<rect x="180" y="30" width="226.96" height="22" fill="#4c78a8" rx="3"/>
<text x="414.96000000000004" y="46" class="value">81.43</text>
<text x="10" y="78" class="label">eaassets-a.akamaihd.net</text>
<rect x="180" y="62" width="239.8" height="22" fill="#4c78a8" rx="3"/>
<text x="427.8" y="78" class="value">86.04</text>
<text x="10" y="110" class="label">rockstargames.com</text>
<rect x="180" y="94" width="276.04" height="22" fill="#4c78a8" rx="3"/>
<text x="464.04" y="110" class="value">99.04</text>
<text x="10" y="142" class="label">origin.com</text>
<rect x="180" y="126" width="381.64" height="22" fill="#4c78a8" rx="3"/>
<text x="569.64" y="142" class="value">136.93</text>
<text x="10" y="174" class="label">battle.net</text>
<rect x="180" y="158" width="388.08" height="22" fill="#4c78a8" rx="3"/>
<text x="576.0799999999999" y="174" class="value">139.24</text>
<text x="10" y="206" class="label">blizzard.com</text>
<rect x="180" y="190" width="395.88" height="22" fill="#4c78a8" rx="3"/>
<text x="583.88" y="206" class="value">142.04</text>
<text x="10" y="238" class="label">socialclub.rockstargames.com</text>
<rect x="180" y="222" width="409.07" height="22" fill="#4c78a8" rx="3"/>
<text x="597.0699999999999" y="238" class="value">146.77</text>
<text x="10" y="270" class="label">ubi.com</text>
<rect x="180" y="254" width="422.95" height="22" fill="#4c78a8" rx="3"/>
<text x="610.95" y="270" class="value">151.75</text>
<text x="10" y="302" class="label">static3.cdn.ubi.com</text>
<rect x="180" y="286" width="442.99" height="22" fill="#4c78a8" rx="3"/>
<text x="630.99" y="302" class="value">158.94</text>
<text x="10" y="334" class="label">easyanticheat.net</text>
<rect x="180" y="318" width="462.63" height="22" fill="#4c78a8" rx="3"/>
<text x="650.63" y="334" class="value">165.99</text>
<text x="10" y="366" class="label">store.akamai.steamstatic.com</text>
<rect x="180" y="350" width="466.42" height="22" fill="#4c78a8" rx="3"/>
<text x="654.4200000000001" y="366" class="value">167.35</text>
<text x="10" y="398" class="label">steamcdn-a.akamaihd.net</text>
<rect x="180" y="382" width="489.75" height="22" fill="#4c78a8" rx="3"/>
<text x="677.75" y="398" class="value">175.72</text>
<text x="10" y="430" class="label">ubisoft.com</text>
<rect x="180" y="414" width="506.06" height="22" fill="#4c78a8" rx="3"/>
<text x="694.06" y="430" class="value">181.57</text>
<text x="10" y="462" class="label">community.akamai.steamstatic.com</text>
<rect x="180" y="446" width="515.51" height="22" fill="#4c78a8" rx="3"/>
<text x="703.51" y="462" class="value">184.96</text>
<text x="10" y="494" class="label">cdn.cloudflare.steamstatic.com</text>
<rect x="180" y="478" width="580.0" height="22" fill="#4c78a8" rx="3"/>
<text x="768.0" y="494" class="value">208.10</text>
<line x1="180" y1="30" x2="180" y2="520" stroke="#ccc"/>
<line x1="180" y1="520" x2="760" y2="520" stroke="#ccc"/>
</svg>