<svg xmlns="http://www.w3.org/2000/svg" width="800" height="540">
<style> .label{font-family:DejaVu Sans,Verdana,Geneva,sans-serif;font-size:12px;fill:#333} .value{font-family:DejaVu Sans,Verdana,Geneva,sans-serif;font-size:12px;fill:#555} </style>
<text x="10" y="20" class="label">延迟柱状图（越低越好，Top 15），单位 ms</text>
<text x="10" y="46" class="label">rockstargames.com</text>
<rect x="180" y="30" width="117.51" height="22" fill="#4c78a8" rx="3"/>
<text x="305.51" y="46" class="value">44.13</text>
<text x="10" y="78" class="label">socialclub.rockstargames.com</text>
<rect x="180" y="62" width="172.12" height="22" fill="#4c78a8" rx="3"/>
<text x="360.12" y="78" class="value">64.64</text>
<text x="10" y="110" class="label">blizzard.com</text>
<rect x="180" y="94" width="191.19" height="22" fill="#4c78a8" rx="3"/>
<text x="379.19" y="110" class="value">71.80</text>
<text x="10" y="142" class="label">eaassets-a.akamaihd.net</text>
<rect x="180" y="126" width="222.02" height="22" fill="#4c78a8" rx="3"/>
<text x="410.02" y="142" class="value">83.38</text>
<text x="10" y="174" class="label">battle.net</text>
<rect x="180" y="158" width="244.44" height="22" fill="#4c78a8" rx="3"/>
<text x="432.44" y="174" class="value">91.80</text>
<text x="10" y="206" class="label">epicgames.com</text>
<rect x="180" y="190" width="280.97" height="22" fill="#4c78a8" rx="3"/>
<text x="468.97" y="206" class="value">105.52</text>
<text x="10" y="238" class="label">ubisoft.com</text>
<rect x="180" y="222" width="307.84" height="22" fill="#4c78a8" rx="3"/>
<text x="495.84" y="238" class="value">115.61</text>
<text x="10" y="270" class="label">ea.com</text>
<rect x="180" y="254" width="353.4" height="22" fill="#4c78a8" rx="3"/>
<text x="541.4" y="270" class="value">132.72</text>
<text x="10" y="302" class="label">community.akamai.steamstatic.com</text>
<rect x="180" y="286" width="358.41" height="22" fill="#4c78a8" rx="3"/>
<text x="546.4100000000001" y="302" class="value">134.60</text>
<text x="10" y="334" class="label">fortnite.com</text>
<rect x="180" y="318" width="360.59" height="22" fill="#4c78a8" rx="3"/>
<text x="548.5899999999999" y="334" class="value">135.42</text>
<text x="10" y="366" class="label">ubi.com</text>
<rect x="180" y="350" width="366.42" height="22" fill="#4c78a8" rx="3"/>
<text x="554.4200000000001" y="366" class="value">137.61</text>
<text x="10" y="398" class="label">unrealengine.com</text>
<rect x="180" y="382" width="370.42" height="22" fill="#4c78a8" rx="3"/>
<text x="558.4200000000001" y="398" class="value">139.11</text>
<text x="10" y="430" class="label">origin.com</text>
<rect x="180" y="414" width="472.16" height="22" fill="#4c78a8" rx="3"/>
<text x="660.1600000000001" y="430" class="value">177.32</text>
<text x="10" y="462" class="label">easyanticheat.net</text>
<rect x="180" y="446" width="576.01" height="22" fill="#4c78a8" rx="3"/>
<text x="764.01" y="462" class="value">216.32</text>
<text x="10" y="494" class="label">www.steamcommunity.com</text>
<rect x="180" y="478" width="580.0" height="22" fill="#4c78a8" rx="3"/>
<text x="768.0" y="494" class="value">217.82</text>
<line x1="180" y1="30" x2="180" y2="520" stroke="#ccc"/>
<line x1="180" y1="520" x2="760" y2="520" stroke="#ccc"/>
</svg>