<svg xmlns="http://www.w3.org/2000/svg" width="800" height="540">
<style> .label{font-family:DejaVu Sans,Verdana,Geneva,sans-serif;font-size:12px;fill:#333} .value{font-family:DejaVu Sans,Verdana,Geneva,sans-serif;font-size:12px;fill:#555} </style>
<text x="10" y="20" class="label">延迟柱状图（越低越好，Top 15），单位 ms</text>
<text x="10" y="46" class="label">rockstargames.com</text>
<rect x="180" y="30" width="166.22" height="22" fill="#4c78a8" rx="3"/>
<text x="354.22" y="46" class="value">57.81</text>
<text x="10" y="78" class="label">socialclub.rockstargames.com</text>
<rect x="180" y="62" width="241.84" height="22" fill="#4c78a8" rx="3"/>
<text x="429.84000000000003" y="78" class="value">84.11</text>
<text x="10" y="110" class="label">fortnite.com</text>
<rect x="180" y="94" width="242.39" height="22" fill="#4c78a8" rx="3"/>
<text x="430.39" y="110" class="value">84.30</text>
<text x="10" y="142" class="label">battle.net</text>
<rect x="180" y="126" width="250.49" height="22" fill="#4c78a8" rx="3"/>
<text x="438.49" y="142" class="value">87.12</text>
<text x="10" y="174" class="label">origin.com</text>
<rect x="180" y="158" width="253.63" height="22" fill="#4c78a8" rx="3"/>
<text x="441.63" y="174" class="value">88.21</text>
<text x="10" y="206" class="label">blizzard.com</text>
<rect x="180" y="190" width="261.53" height="22" fill="#4c78a8" rx="3"/>
<text x="449.53" y="206" class="value">90.96</text>
<text x="10" y="238" class="label">eaassets-a.akamaihd.net</text>
<rect x="180" y="222" width="269.93" height="22" fill="#4c78a8" rx="3"/>
<text x="457.93" y="238" class="value">93.88</text>
<text x="10" y="270" class="label">ubi.com</text>
<rect x="180" y="254" width="288.56" height="22" fill="#4c78a8" rx="3"/>
<text x="476.56" y="270" class="value">100.36</text>
<text x="10" y="302" class="label">ubisoft.com</text>
<rect x="180" y="286" width="344.54" height="22" fill="#4c78a8" rx="3"/>
<text x="532.54" y="302" class="value">119.83</text>
<text x="10" y="334" class="label">cdn.cloudflare.steamstatic.com</text>
<rect x="180" y="318" width="441.24" height="22" fill="#4c78a8" rx="3"/>
<text x="629.24" y="334" class="value">153.46</text>
<text x="10" y="366" class="label">ea.com</text>
<rect x="180" y="350" width="453.92" height="22" fill="#4c78a8" rx="3"/>
<text x="641.9200000000001" y="366" class="value">157.87</text>
<text x="10" y="398" class="label">unrealengine.com</text>
<rect x="180" y="382" width="494.98" height="22" fill="#4c78a8" rx="3"/>
<text x="682.98" y="398" class="value">172.15</text>
<text x="10" y="430" class="label">store.akamai.steamstatic.com</text>
<rect x="180" y="414" width="508.03" height="22" fill="#4c78a8" rx="3"/>
<text x="696.03" y="430" class="value">176.69</text>
<text x="10" y="462" class="label">community.akamai.steamstatic.com</text>
<rect x="180" y="446" width="517.29" height="22" fill="#4c78a8" rx="3"/>
<text x="705.29" y="462" class="value">179.91</text>
<text x="10" y="494" class="label">steamcdn-a.akamaihd.net</text>
<rect x="180" y="478" width="580.0" height="22" fill="#4c78a8" rx="3"/>
<text x="768.0" y="494" class="value">201.72</text>
<line x1="180" y1="30" x2="180" y2="520" stroke="#ccc"/>
<line x1="180" y1="520" x2="760" y2="520" stroke="#ccc"/>
</svg>