<svg xmlns="http://www.w3.org/2000/svg" width="800" height="540">
<style> .label{font-family:DejaVu Sans,Verdana,Geneva,sans-serif;font-size:12px;fill:#333} .value{font-family:DejaVu Sans,Verdana,Geneva,sans-serif;font-size:12px;fill:#555} </style>
<text x="10" y="20" class="label">延迟柱状图（越低越好，Top 15），单位 ms</text>
<text x="10" y="46" class="label">rockstargames.com</text>
<rect x="180" y="30" width="144.7" height="22" fill="#4c78a8" rx="3"/>
<text x="332.7" y="46" class="value">58.36</text>
<text x="10" y="78" class="label">socialclub.rockstargames.com</text>
<rect x="180" y="62" width="176.44" height="22" fill="#4c78a8" rx="3"/>
<text x="364.44" y="78" class="value">71.16</text>
<text x="10" y="110" class="label">ubi.com</text>
<rect x="180" y="94" width="195.66" height="22" fill="#4c78a8" rx="3"/>
<text x="383.65999999999997" y="110" class="value">78.91</text>
<text x="10" y="142" class="label">epicgames.com</text>
<rect x="180" y="126" width="233.86" height="22" fill="#4c78a8" rx="3"/>
<text x="421.86" y="142" class="value">94.32</text>
<text x="10" y="174" class="label">eaassets-a.akamaihd.net</text>
<rect x="180" y="158" width="268.23" height="22" fill="#4c78a8" rx="3"/>
<text x="456.23" y="174" class="value">108.18</text>
<text x="10" y="206" class="label">ubisoft.com</text>
<rect x="180" y="190" width="287.94" height="22" fill="#4c78a8" rx="3"/>
<text x="475.94" y="206" class="value">116.13</text>
<text x="10" y="238" class="label">blizzard.com</text>
<rect x="180" y="222" width="317.1" height="22" fill="#4c78a8" rx="3"/>
<text x="505.1" y="238" class="value">127.89</text>
<text x="10" y="270" class="label">battle.net</text>
<rect x="180" y="254" width="333.94" height="22" fill="#4c78a8" rx="3"/>
<text x="521.94" y="270" class="value">134.68</text>
<text x="10" y="302" class="label">ea.com</text>
<rect x="180" y="286" width="336.22" height="22" fill="#4c78a8" rx="3"/>
<text x="524.22" y="302" class="value">135.60</text>
<text x="10" y="334" class="label">cdn.akamai.steamstatic.com</text>
<rect x="180" y="318" width="404.01" height="22" fill="#4c78a8" rx="3"/>
<text x="592.01" y="334" class="value">162.94</text>
<text x="10" y="366" class="label">launcher-public-service-prod06.ol.epicgames.com</text>
<rect x="180" y="350" width="464.63" height="22" fill="#4c78a8" rx="3"/>
<text x="652.63" y="366" class="value">187.39</text>
<text x="10" y="398" class="label">community.akamai.steamstatic.com</text>
<rect x="180" y="382" width="494.81" height="22" fill="#4c78a8" rx="3"/>
<text x="682.81" y="398" class="value">199.56</text>
<text x="10" y="430" class="label">unrealengine.com</text>
<rect x="180" y="414" width="531.72" height="22" fill="#4c78a8" rx="3"/>
<text x="719.72" y="430" class="value">214.45</text>
<text x="10" y="462" class="label">steamcdn-a.akamaihd.net</text>
<rect x="180" y="446" width="535.77" height="22" fill="#4c78a8" rx="3"/>
<text x="723.77" y="462" class="value">216.08</text>
<text x="10" y="494" class="label">origin.com</text>
<rect x="180" y="478" width="580.0" height="22" fill="#4c78a8" rx="3"/>
<text x="768.0" y="494" class="value">233.92</text>
<line x1="180" y1="30" x2="180" y2="520" stroke="#ccc"/>
<line x1="180" y1="520" x2="760" y2="520" stroke="#ccc"/>
</svg>