<svg xmlns="http://www.w3.org/2000/svg" width="800" height="540">
<style> .label{font-family:DejaVu Sans,Verdana,Geneva,sans-serif;font-size:12px;fill:#333} .value{font-family:DejaVu Sans,Verdana,Geneva,sans-serif;font-size:12px;fill:#555} </style>
<text x="10" y="20" class="label">延迟柱状图（越低越好，Top 15），单位 ms</text>
<text x="10" y="46" class="label">ea.com</text>
<rect x="180" y="30" width="136.09" height="22" fill="#4c78a8" rx="3"/>
<text x="324.09000000000003" y="46" class="value">56.66</text>
<text x="10" y="78" class="label">rockstargames.com</text>
<rect x="180" y="62" width="221.6" height="22" fill="#4c78a8" rx="3"/>
<text x="409.6" y="78" class="value">92.26</text>
<text x="10" y="110" class="label">ubisoft.com</text>
<rect x="180" y="94" width="249.3" height="22" fill="#4c78a8" rx="3"/>
<text x="437.3" y="110" class="value">103.79</text>
<text x="10" y="142" class="label">eaassets-a.akamaihd.net</text>
<rect x="180" y="126" width="276.03" height="22" fill="#4c78a8" rx="3"/>
<text x="464.03" y="142" class="value">114.92</text>
<text x="10" y="174" class="label">origin.com</text>
<rect x="180" y="158" width="302.89" height="22" fill="#4c78a8" rx="3"/>
<text x="490.89" y="174" class="value">126.10</text>
<text x="10" y="206" class="label">api.steampowered.com</text>
<rect x="180" y="190" width="402.9" height="22" fill="#4c78a8" rx="3"/>
<text x="590.9" y="206" class="value">167.74</text>
<text x="10" y="238" class="label">community.akamai.steamstatic.com</text>
<rect x="180" y="222" width="449.21" height="22" fill="#4c78a8" rx="3"/>
<text x="637.21" y="238" class="value">187.02</text>
<text x="10" y="270" class="label">cdn.akamai.steamstatic.com</text>
<rect x="180" y="254" width="459.64" height="22" fill="#4c78a8" rx="3"/>
<text x="647.64" y="270" class="value">191.36</text>
<text x="10" y="302" class="label">cdn.cloudflare.steamstatic.com</text>
<rect x="180" y="286" width="462.95" height="22" fill="#4c78a8" rx="3"/>
<text x="650.95" y="302" class="value">192.74</text>
<text x="10" y="334" class="label">steamcdn-a.akamaihd.net</text>
<rect x="180" y="318" width="466.46" height="22" fill="#4c78a8" rx="3"/>
<text x="654.46" y="334" class="value">194.20</text>
<text x="10" y="366" class="label">www.steamcommunity.com</text>
<rect x="180" y="350" width="515.75" height="22" fill="#4c78a8" rx="3"/>
<text x="703.75" y="366" class="value">214.72</text>
<text x="10" y="398" class="label">store.akamai.steamstatic.com</text>
<rect x="180" y="382" width="555.36" height="22" fill="#4c78a8" rx="3"/>
<text x="743.36" y="398" class="value">231.21</text>
<text x="10" y="430" class="label">static3.cdn.ubi.com</text>
<rect x="180" y="414" width="558.77" height="22" fill="#4c78a8" rx="3"/>
<text x="746.77" y="430" class="value">232.63</text>
<text x="10" y="462" class="label">steam-chat.com</text>
<rect x="180" y="446" width="567.32" height="22" fill="#4c78a8" rx="3"/>
<text x="755.32" y="462" class="value">236.19</text>
<text x="10" y="494" class="label">easyanticheat.net</text>
<rect x="180" y="478" width="580.0" height="22" fill="#4c78a8" rx="3"/>
<text x="768.0" y="494" class="value">241.47</text>
<line x1="180" y1="30" x2="180" y2="520" stroke="#ccc"/>
<line x1="180" y1="520" x2="760" y2="520" stroke="#ccc"/>
</svg>