<svg xmlns="http://www.w3.org/2000/svg" width="800" height="540">
<style> .label{font-family:DejaVu Sans,Verdana,Geneva,sans-serif;font-size:12px;fill:#333} .value{font-family:DejaVu Sans,Verdana,Geneva,sans-serif;font-size:12px;fill:#555} </style>
<text x="10" y="20" class="label">延迟柱状图（越低越好，Top 15），单位 ms</text>
<text x="10" y="46" class="label">rockstargames.com</text>
<rect x="180" y="30" width="106.47" height="22" fill="#4c78a8" rx="3"/>
<text x="294.47" y="46" class="value">50.69</text>
<text x="10" y="78" class="label">ea.com</text>
<rect x="180" y="62" width="205.73" height="22" fill="#4c78a8" rx="3"/>
<text x="393.73" y="78" class="value">97.95</text>
<text x="10" y="110" class="label">steamcdn-a.akamaihd.net</text>
<rect x="180" y="94" width="219.87" height="22" fill="#4c78a8" rx="3"/>
<text x="407.87" y="110" class="value">104.68</text>
<text x="10" y="142" class="label">eaassets-a.akamaihd.net</text>
<rect x="180" y="126" width="244.88" height="22" fill="#4c78a8" rx="3"/>
<text x="432.88" y="142" class="value">116.59</text>
<text x="10" y="174" class="label">origin.com</text>
<rect x="180" y="158" width="262.21" height="22" fill="#4c78a8" rx="3"/>
<text x="450.21" y="174" class="value">124.84</text>
<text x="10" y="206" class="label">ubisoft.com</text>
<rect x="180" y="190" width="279.2" height="22" fill="#4c78a8" rx="3"/>
<text x="467.2" y="206" class="value">132.93</text>
<text x="10" y="238" class="label">community.akamai.steamstatic.com</text>
<rect x="180" y="222" width="317.22" height="22" fill="#4c78a8" rx="3"/>
<text x="505.22" y="238" class="value">151.03</text>
<text x="10" y="270" class="label">store.akamai.steamstatic.com</text>
<rect x="180" y="254" width="320.5" height="22" fill="#4c78a8" rx="3"/>
<text x="508.5" y="270" class="value">152.59</text>
<text x="10" y="302" class="label">easyanticheat.net</text>
<rect x="180" y="286" width="391.53" height="22" fill="#4c78a8" rx="3"/>
<text x="579.53" y="302" class="value">186.41</text>
<text x="10" y="334" class="label">cdn.akamai.steamstatic.com</text>
<rect x="180" y="318" width="423.61" height="22" fill="#4c78a8" rx="3"/>
<text x="611.61" y="334" class="value">201.68</text>
<text x="10" y="366" class="label">api.steampowered.com</text>
<rect x="180" y="350" width="443.43" height="22" fill="#4c78a8" rx="3"/>
<text x="631.4300000000001" y="366" class="value">211.12</text>
<text x="10" y="398" class="label">launcher-public-service-prod06.ol.epicgames.com</text>
<rect x="180" y="382" width="493.76" height="22" fill="#4c78a8" rx="3"/>
<text x="681.76" y="398" class="value">235.08</text>
<text x="10" y="430" class="label">cdn.cloudflare.steamstatic.com</text>
<rect x="180" y="414" width="518.88" height="22" fill="#4c78a8" rx="3"/>
<text x="706.88" y="430" class="value">247.04</text>
<text x="10" y="462" class="label">steam-chat.com</text>
<rect x="180" y="446" width="524.72" height="22" fill="#4c78a8" rx="3"/>
<text x="712.72" y="462" class="value">249.82</text>
<text x="10" y="494" class="label">gog.com</text>
<rect x="180" y="478" width="580.0" height="22" fill="#4c78a8" rx="3"/>
<text x="768.0" y="494" class="value">276.14</text>
<line x1="180" y1="30" x2="180" y2="520" stroke="#ccc"/>
<line x1="180" y1="520" x2="760" y2="520" stroke="#ccc"/>
</svg>