<svg xmlns="http://www.w3.org/2000/svg" width="800" height="540">
<style> .label{font-family:DejaVu Sans,Verdana,Geneva,sans-serif;font-size:12px;fill:#333} .value{font-family:DejaVu Sans,Verdana,Geneva,sans-serif;font-size:12px;fill:#555} </style>
<text x="10" y="20" class="label">延迟柱状图（越低越好，Top 15），单位 ms</text>
<text x="10" y="46" class="label">eaassets-a.akamaihd.net</text>
<rect x="180" y="30" width="241.25" height="22" fill="#4c78a8" rx="3"/>
<text x="429.25" y="46" class="value">111.84</text>
<text x="10" y="78" class="label">ea.com</text>
<rect x="180" y="62" width="301.99" height="22" fill="#4c78a8" rx="3"/>
<text x="489.99" y="78" class="value">140.00</text>
<text x="10" y="110" class="label">ubisoft.com</text>
<rect x="180" y="94" width="330.04" height="22" fill="#4c78a8" rx="3"/>
<text x="518.04" y="110" class="value">153.00</text>
<text x="10" y="142" class="label">cdn.akamai.steamstatic.com</text>
<rect x="180" y="126" width="339.94" height="22" fill="#4c78a8" rx="3"/>
<text x="527.94" y="142" class="value">157.59</text>
<text x="10" y="174" class="label">steamcdn-a.akamaihd.net</text>
<rect x="180" y="158" width="351.52" height="22" fill="#4c78a8" rx="3"/>
<text x="539.52" y="174" class="value">162.96</text>
<text x="10" y="206" class="label">rockstargames.com</text>
<rect x="180" y="190" width="380.53" height="22" fill="#4c78a8" rx="3"/>
<text x="568.53" y="206" class="value">176.41</text>
<text x="10" y="238" class="label">easyanticheat.net</text>
<rect x="180" y="222" width="404.48" height="22" fill="#4c78a8" rx="3"/>
<text x="592.48" y="238" class="value">187.51</text>
<text x="10" y="270" class="label">community.akamai.steamstatic.com</text>
<rect x="180" y="254" width="417.98" height="22" fill="#4c78a8" rx="3"/>
<text x="605.98" y="270" class="value">193.77</text>
<text x="10" y="302" class="label">www.steamcommunity.com</text>
<rect x="180" y="286" width="432.17" height="22" fill="#4c78a8" rx="3"/>
<text x="620.1700000000001" y="302" class="value">200.35</text>
<text x="10" y="334" class="label">store.akamai.steamstatic.com</text>
<rect x="180" y="318" width="432.3" height="22" fill="#4c78a8" rx="3"/>
<text x="620.3" y="334" class="value">200.41</text>
<text x="10" y="366" class="label">steam-chat.com</text>
<rect x="180" y="350" width="451.59" height="22" fill="#4c78a8" rx="3"/>
<text x="639.5899999999999" y="366" class="value">209.35</text>
<text x="10" y="398" class="label">cdn.cloudflare.steamstatic.com</text>
<rect x="180" y="382" width="466.71" height="22" fill="#4c78a8" rx="3"/>
<text x="654.71" y="398" class="value">216.36</text>
<text x="10" y="430" class="label">ubi.com</text>
<rect x="180" y="414" width="469.6" height="22" fill="#4c78a8" rx="3"/>
<text x="657.6" y="430" class="value">217.70</text>
<text x="10" y="462" class="label">epicgames.com</text>
<rect x="180" y="446" width="577.56" height="22" fill="#4c78a8" rx="3"/>
<text x="765.56" y="462" class="value">267.75</text>
<text x="10" y="494" class="label">steamcommunity.com</text>
<rect x="180" y="478" width="580.0" height="22" fill="#4c78a8" rx="3"/>
<text x="768.0" y="494" class="value">268.88</text>
<line x1="180" y1="30" x2="180" y2="520" stroke="#ccc"/>
<line x1="180" y1="520" x2="760" y2="520" stroke="#ccc"/>
</svg>