<svg xmlns="http://www.w3.org/2000/svg" width="800" height="540">
<style> .label{font-family:DejaVu Sans,Verdana,Geneva,sans-serif;font-size:12px;fill:#333} .value{font-family:DejaVu Sans,Verdana,Geneva,sans-serif;font-size:12px;fill:#555} </style>
<text x="10" y="20" class="label">延迟柱状图（越低越好，Top 15），单位 ms</text>
<text x="10" y="46" class="label">ubisoft.com</text>
<rect x="180" y="30" width="311.85" height="22" fill="#4c78a8" rx="3"/>
<text x="499.85" y="46" class="value">146.13</text>
<text x="10" y="78" class="label">ea.com</text>
<rect x="180" y="62" width="319.26" height="22" fill="#4c78a8" rx="3"/>
<text x="507.26" y="78" class="value">149.60</text>
<text x="10" y="110" class="label">origin.com</text>
<rect x="180" y="94" width="364.78" height="22" fill="#4c78a8" rx="3"/>
<text x="552.78" y="110" class="value">170.93</text>
<text x="10" y="142" class="label">store.akamai.steamstatic.com</text>
<rect x="180" y="126" width="373.76" height="22" fill="#4c78a8" rx="3"/>
<text x="561.76" y="142" class="value">175.14</text>
<text x="10" y="174" class="label">community.akamai.steamstatic.com</text>
<rect x="180" y="158" width="393.97" height="22" fill="#4c78a8" rx="3"/>
<text x="581.97" y="174" class="value">184.61</text>
<text x="10" y="206" class="label">rockstargames.com</text>
<rect x="180" y="190" width="395.23" height="22" fill="#4c78a8" rx="3"/>
<text x="583.23" y="206" class="value">185.20</text>
<text x="10" y="238" class="label">battle.net</text>
<rect x="180" y="222" width="431.83" height="22" fill="#4c78a8" rx="3"/>
<text x="619.8299999999999" y="238" class="value">202.35</text>
<text x="10" y="270" class="label">ubi.com</text>
<rect x="180" y="254" width="474.04" height="22" fill="#4c78a8" rx="3"/>
<text x="662.04" y="270" class="value">222.13</text>
<text x="10" y="302" class="label">easyanticheat.net</text>
<rect x="180" y="286" width="492.25" height="22" fill="#4c78a8" rx="3"/>
<text x="680.25" y="302" class="value">230.66</text>
<text x="10" y="334" class="label">steam-chat.com</text>
<rect x="180" y="318" width="498.88" height="22" fill="#4c78a8" rx="3"/>
<text x="686.88" y="334" class="value">233.77</text>
<text x="10" y="366" class="label">unrealengine.com</text>
<rect x="180" y="350" width="499.01" height="22" fill="#4c78a8" rx="3"/>
<text x="687.01" y="366" class="value">233.83</text>
<text x="10" y="398" class="label">socialclub.rockstargames.com</text>
<rect x="180" y="382" width="540.35" height="22" fill="#4c78a8" rx="3"/>
<text x="728.35" y="398" class="value">253.20</text>
<text x="10" y="430" class="label">epicgames.com</text>
<rect x="180" y="414" width="557.19" height="22" fill="#4c78a8" rx="3"/>
<text x="745.19" y="430" class="value">261.09</text>
<text x="10" y="462" class="label">fortnite.com</text>
<rect x="180" y="446" width="558.08" height="22" fill="#4c78a8" rx="3"/>
<text x="746.08" y="462" class="value">261.51</text>
<text x="10" y="494" class="label">steamcommunity.com</text>
<rect x="180" y="478" width="580.0" height="22" fill="#4c78a8" rx="3"/>
<text x="768.0" y="494" class="value">271.78</text>
<line x1="180" y1="30" x2="180" y2="520" stroke="#ccc"/>
<line x1="180" y1="520" x2="760" y2="520" stroke="#ccc"/>
</svg>