<svg xmlns="http://www.w3.org/2000/svg" width="800" height="540">
<style> .label{font-family:DejaVu Sans,Verdana,Geneva,sans-serif;font-size:12px;fill:#333} .value{font-family:DejaVu Sans,Verdana,Geneva,sans-serif;font-size:12px;fill:#555} </style>
<text x="10" y="20" class="label">延迟柱状图（越低越好，Top 15），单位 ms</text>
<text x="10" y="46" class="label">socialclub.rockstargames.com</text>
<rect x="180" y="30" width="193.94" height="22" fill="#4c78a8" rx="3"/>
<text x="381.94" y="46" class="value">63.70</text>
<text x="10" y="78" class="label">blizzard.com</text>
<rect x="180" y="62" width="220.89" height="22" fill="#4c78a8" rx="3"/>
<text x="408.89" y="78" class="value">72.55</text>
<text x="10" y="110" class="label">rockstargames.com</text>
<rect x="180" y="94" width="247.28" height="22" fill="#4c78a8" rx="3"/>
<text x="435.28" y="110" class="value">81.22</text>
<text x="10" y="142" class="label">community.akamai.steamstatic.com</text>
<rect x="180" y="126" width="319.72" height="22" fill="#4c78a8" rx="3"/>
<text x="507.72" y="142" class="value">105.01</text>
<text x="10" y="174" class="label">ea.com</text>
<rect x="180" y="158" width="331.5" height="22" fill="#4c78a8" rx="3"/>
<text x="519.5" y="174" class="value">108.88</text>
<text x="10" y="206" class="label">ubisoft.com</text>
<rect x="180" y="190" width="336.61" height="22" fill="#4c78a8" rx="3"/>
<text x="524.61" y="206" class="value">110.56</text>
<text x="10" y="238" class="label">battle.net</text>
<rect x="180" y="222" width="353.57" height="22" fill="#4c78a8" rx="3"/>
<text x="541.5699999999999" y="238" class="value">116.13</text>
<text x="10" y="270" class="label">ubi.com</text>
<rect x="180" y="254" width="375.34" height="22" fill="#4c78a8" rx="3"/>
<text x="563.3399999999999" y="270" class="value">123.28</text>
<text x="10" y="302" class="label">origin.com</text>
<rect x="180" y="286" width="402.5" height="22" fill="#4c78a8" rx="3"/>
<text x="590.5" y="302" class="value">132.20</text>
<text x="10" y="334" class="label">epicgames.com</text>
<rect x="180" y="318" width="495.09" height="22" fill="#4c78a8" rx="3"/>
<text x="683.0899999999999" y="334" class="value">162.61</text>
<text x="10" y="366" class="label">launcher-public-service-prod06.ol.epicgames.com</text>
<rect x="180" y="350" width="503.06" height="22" fill="#4c78a8" rx="3"/>
<text x="691.06" y="366" class="value">165.23</text>
<text x="10" y="398" class="label">api.steampowered.com</text>
<rect x="180" y="382" width="557.29" height="22" fill="#4c78a8" rx="3"/>
<text x="745.29" y="398" class="value">183.04</text>
<text x="10" y="430" class="label">store.akamai.steamstatic.com</text>
<rect x="180" y="414" width="561.67" height="22" fill="#4c78a8" rx="3"/>
<text x="749.67" y="430" class="value">184.48</text>
<text x="10" y="462" class="label">fortnite.com</text>
<rect x="180" y="446" width="572.21" height="22" fill="#4c78a8" rx="3"/>
<text x="760.21" y="462" class="value">187.94</text>
<text x="10" y="494" class="label">unrealengine.com</text>
<rect x="180" y="478" width="580.0" height="22" fill="#4c78a8" rx="3"/>
<text x="768.0" y="494" class="value">190.50</text>
<line x1="180" y1="30" x2="180" y2="520" stroke="#ccc"/>
<line x1="180" y1="520" x2="760" y2="520" stroke="#ccc"/>
</svg>