<svg xmlns="http://www.w3.org/2000/svg" width="800" height="540">
<style> .label{font-family:DejaVu Sans,Verdana,Geneva,sans-serif;font-size:12px;fill:#333} .value{font-family:DejaVu Sans,Verdana,Geneva,sans-serif;font-size:12px;fill:#555} </style>
<text x="10" y="20" class="label">延迟柱状图（越低越好，Top 15），单位 ms</text>
<text x="10" y="46" class="label">eaassets-a.akamaihd.net</text>
<rect x="180" y="30" width="85.21" height="22" fill="#4c78a8" rx="3"/>
<text x="273.21" y="46" class="value">36.58</text>
<text x="10" y="78" class="label">rockstargames.com</text>
<rect x="180" y="62" width="109.81" height="22" fill="#4c78a8" rx="3"/>
<text x="297.81" y="78" class="value">47.14</text>
<text x="10" y="110" class="label">cdn.cloudflare.steamstatic.com</text>
<rect x="180" y="94" width="196.51" height="22" fill="#4c78a8" rx="3"/>
<text x="384.51" y="110" class="value">84.36</text>
<text x="10" y="142" class="label">community.akamai.steamstatic.com</text>
<rect x="180" y="126" width="245.54" height="22" fill="#4c78a8" rx="3"/>
<text x="433.53999999999996" y="142" class="value">105.41</text>
<text x="10" y="174" class="label">cdn.akamai.steamstatic.com</text>
<rect x="180" y="158" width="254.84" height="22" fill="#4c78a8" rx="3"/>
<text x="442.84000000000003" y="174" class="value">109.40</text>
<text x="10" y="206" class="label">ea.com</text>
<rect x="180" y="190" width="306.64" height="22" fill="#4c78a8" rx="3"/>
<text x="494.64" y="206" class="value">131.64</text>
<text x="10" y="238" class="label">origin.com</text>
<rect x="180" y="222" width="307.2" height="22" fill="#4c78a8" rx="3"/>
<text x="495.2" y="238" class="value">131.88</text>
<text x="10" y="270" class="label">store.akamai.steamstatic.com</text>
<rect x="180" y="254" width="346.8" height="22" fill="#4c78a8" rx="3"/>
<text x="534.8" y="270" class="value">148.88</text>
<text x="10" y="302" class="label">steamcdn-a.akamaihd.net</text>
<rect x="180" y="286" width="387.33" height="22" fill="#4c78a8" rx="3"/>
<text x="575.3299999999999" y="302" class="value">166.28</text>
<text x="10" y="334" class="label">ubisoft.com</text>
<rect x="180" y="318" width="407.39" height="22" fill="#4c78a8" rx="3"/>
<text x="595.39" y="334" class="value">174.89</text>
<text x="10" y="366" class="label">easyanticheat.net</text>
<rect x="180" y="350" width="417.08" height="22" fill="#4c78a8" rx="3"/>
<text x="605.0799999999999" y="366" class="value">179.05</text>
<text x="10" y="398" class="label">api.steampowered.com</text>
<rect x="180" y="382" width="494.07" height="22" fill="#4c78a8" rx="3"/>
<text x="682.0699999999999" y="398" class="value">212.10</text>
<text x="10" y="430" class="label">steamcommunity.com</text>
<rect x="180" y="414" width="568.63" height="22" fill="#4c78a8" rx="3"/>
<text x="756.63" y="430" class="value">244.11</text>
<text x="10" y="462" class="label">launcher-public-service-prod06.ol.epicgames.com</text>
<rect x="180" y="446" width="576.65" height="22" fill="#4c78a8" rx="3"/>
<text x="764.65" y="462" class="value">247.55</text>
<text x="10" y="494" class="label">steam-chat.com</text>
<rect x="180" y="478" width="580.0" height="22" fill="#4c78a8" rx="3"/>
<text x="768.0" y="494" class="value">248.99</text>
<line x1="180" y1="30" x2="180" y2="520" stroke="#ccc"/>
<line x1="180" y1="520" x2="760" y2="520" stroke="#ccc"/>
</svg>