<svg xmlns="http://www.w3.org/2000/svg" width="800" height="540">
<style> .label{font-family:DejaVu Sans,Verdana,Geneva,sans-serif;font-size:12px;fill:#333} .value{font-family:DejaVu Sans,Verdana,Geneva,sans-serif;font-size:12px;fill:#555} </style>
<text x="10" y="20" class="label">延迟柱状图（越低越好，Top 15），单位 ms</text>
<text x="10" y="46" class="label">rockstargames.com</text>
<rect x="180" y="30" width="149.77" height="22" fill="#4c78a8" rx="3"/>
<text x="337.77" y="46" class="value">56.96</text>
<text x="10" y="78" class="label">unrealengine.com</text>
<rect x="180" y="62" width="210.7" height="22" fill="#4c78a8" rx="3"/>
<text x="398.7" y="78" class="value">80.13</text>
<text x="10" y="110" class="label">epicgames.com</text>
<rect x="180" y="94" width="220.85" height="22" fill="#4c78a8" rx="3"/>
<text x="408.85" y="110" class="value">83.99</text>
<text x="10" y="142" class="label">eaassets-a.akamaihd.net</text>
<rect x="180" y="126" width="226.76" height="22" fill="#4c78a8" rx="3"/>
<text x="414.76" y="142" class="value">86.24</text>
<text x="10" y="174" class="label">socialclub.rockstargames.com</text>
<rect x="180" y="158" width="229.76" height="22" fill="#4c78a8" rx="3"/>
<text x="417.76" y="174" class="value">87.38</text>
<text x="10" y="206" class="label">blizzard.com</text>
<rect x="180" y="190" width="240.44" height="22" fill="#4c78a8" rx="3"/>
<text x="428.44" y="206" class="value">91.44</text>
<text x="10" y="238" class="label">ubi.com</text>
<rect x="180" y="222" width="253.95" height="22" fill="#4c78a8" rx="3"/>
<text x="441.95" y="238" class="value">96.58</text>
<text x="10" y="270" class="label">cdn.akamai.steamstatic.com</text>
<rect x="180" y="254" width="266.81" height="22" fill="#4c78a8" rx="3"/>
<text x="454.81" y="270" class="value">101.47</text>
<text x="10" y="302" class="label">ea.com</text>
<rect x="180" y="286" width="295.5" height="22" fill="#4c78a8" rx="3"/>
<text x="483.5" y="302" class="value">112.38</text>
<text x="10" y="334" class="label">ubisoft.com</text>
<rect x="180" y="318" width="426.18" height="22" fill="#4c78a8" rx="3"/>
<text x="614.1800000000001" y="334" class="value">162.08</text>
<text x="10" y="366" class="label">steamcdn-a.akamaihd.net</text>
<rect x="180" y="350" width="436.46" height="22" fill="#4c78a8" rx="3"/>
<text x="624.46" y="366" class="value">165.99</text>
<text x="10" y="398" class="label">easyanticheat.net</text>
<rect x="180" y="382" width="483.92" height="22" fill="#4c78a8" rx="3"/>
<text x="671.9200000000001" y="398" class="value">184.04</text>
<text x="10" y="430" class="label">gog.com</text>
<rect x="180" y="414" width="492.23" height="22" fill="#4c78a8" rx="3"/>
<text x="680.23" y="430" class="value">187.20</text>
<text x="10" y="462" class="label">origin.com</text>
<rect x="180" y="446" width="509.43" height="22" fill="#4c78a8" rx="3"/>
<text x="697.4300000000001" y="462" class="value">193.74</text>
<text x="10" y="494" class="label">launcher-public-service-prod06.ol.epicgames.com</text>
<rect x="180" y="478" width="580.0" height="22" fill="#4c78a8" rx="3"/>
<text x="768.0" y="494" class="value">220.58</text>
<line x1="180" y1="30" x2="180" y2="520" stroke="#ccc"/>
<line x1="180" y1="520" x2="760" y2="520" stroke="#ccc"/>
</svg>