<svg xmlns="http://www.w3.org/2000/svg" width="800" height="540">
<style> .label{font-family:DejaVu Sans,Verdana,Geneva,sans-serif;font-size:12px;fill:#333} .value{font-family:DejaVu Sans,Verdana,Geneva,sans-serif;font-size:12px;fill:#555} </style>
<text x="10" y="20" class="label">延迟柱状图（越低越好，Top 15），单位 ms</text>
<text x="10" y="46" class="label">rockstargames.com</text>
<rect x="180" y="30" width="71.49" height="22" fill="#4c78a8" rx="3"/>
<text x="259.49" y="46" class="value">37.27</text>
<text x="10" y="78" class="label">eaassets-a.akamaihd.net</text>
<rect x="180" y="62" width="82.92" height="22" fill="#4c78a8" rx="3"/>
<text x="270.92" y="78" class="value">43.23</text>
<text x="10" y="110" class="label">ea.com</text>
<rect x="180" y="94" width="243.72" height="22" fill="#4c78a8" rx="3"/>
<text x="431.72" y="110" class="value">127.06</text>
<text x="10" y="142" class="label">store.akamai.steamstatic.com</text>
<rect x="180" y="126" width="257.93" height="22" fill="#4c78a8" rx="3"/>
<text x="445.93" y="142" class="value">134.47</text>
<text x="10" y="174" class="label">community.akamai.steamstatic.com</text>
<rect x="180" y="158" width="310.62" height="22" fill="#4c78a8" rx="3"/>
<text x="498.62" y="174" class="value">161.94</text>
<text x="10" y="206" class="label">cdn.akamai.steamstatic.com</text>
<rect x="180" y="190" width="342.06" height="22" fill="#4c78a8" rx="3"/>
<text x="530.06" y="206" class="value">178.33</text>
<text x="10" y="238" class="label">easyanticheat.net</text>
<rect x="180" y="222" width="395.5" height="22" fill="#4c78a8" rx="3"/>
<text x="583.5" y="238" class="value">206.19</text>
<text x="10" y="270" class="label">steamcdn-a.akamaihd.net</text>
<rect x="180" y="254" width="405.82" height="22" fill="#4c78a8" rx="3"/>
<text x="593.8199999999999" y="270" class="value">211.57</text>
<text x="10" y="302" class="label">origin.com</text>
<rect x="180" y="286" width="410.73" height="22" fill="#4c78a8" rx="3"/>
<text x="598.73" y="302" class="value">214.13</text>
<text x="10" y="334" class="label">cdn.cloudflare.steamstatic.com</text>
<rect x="180" y="318" width="443.2" height="22" fill="#4c78a8" rx="3"/>
<text x="631.2" y="334" class="value">231.06</text>
<text x="10" y="366" class="label">steam-chat.com</text>
<rect x="180" y="350" width="486.28" height="22" fill="#4c78a8" rx="3"/>
<text x="674.28" y="366" class="value">253.52</text>
<text x="10" y="398" class="label">ubisoft.com</text>
<rect x="180" y="382" width="502.58" height="22" fill="#4c78a8" rx="3"/>
<text x="690.5799999999999" y="398" class="value">262.02</text>
<text x="10" y="430" class="label">api.steampowered.com</text>
<rect x="180" y="414" width="503.99" height="22" fill="#4c78a8" rx="3"/>
<text x="691.99" y="430" class="value">262.75</text>
<text x="10" y="462" class="label">launcher-public-service-prod06.ol.epicgames.com</text>
<rect x="180" y="446" width="569.6" height="22" fill="#4c78a8" rx="3"/>
<text x="757.6" y="462" class="value">296.96</text>
<text x="10" y="494" class="label">battle.net</text>
<rect x="180" y="478" width="580.0" height="22" fill="#4c78a8" rx="3"/>
<text x="768.0" y="494" class="value">302.38</text>
<line x1="180" y1="30" x2="180" y2="520" stroke="#ccc"/>
<line x1="180" y1="520" x2="760" y2="520" stroke="#ccc"/>
</svg>