<svg xmlns="http://www.w3.org/2000/svg" width="800" height="540">
<style> .label{font-family:DejaVu Sans,Verdana,Geneva,sans-serif;font-size:12px;fill:#333} .value{font-family:DejaVu Sans,Verdana,Geneva,sans-serif;font-size:12px;fill:#555} </style>
<text x="10" y="20" class="label">延迟柱状图（越低越好，Top 15），单位 ms</text>
<text x="10" y="46" class="label">ubisoft.com</text>
<rect x="180" y="30" width="200.85" height="22" fill="#4c78a8" rx="3"/>
<text x="388.85" y="46" class="value">86.57</text>
<text x="10" y="78" class="label">rockstargames.com</text>
<rect x="180" y="62" width="232.29" height="22" fill="#4c78a8" rx="3"/>
<text x="420.28999999999996" y="78" class="value">100.12</text>
<text x="10" y="110" class="label">community.akamai.steamstatic.com</text>
<rect x="180" y="94" width="280.52" height="22" fill="#4c78a8" rx="3"/>
<text x="468.52" y="110" class="value">120.91</text>
<text x="10" y="142" class="label">origin.com</text>
<rect x="180" y="126" width="294.21" height="22" fill="#4c78a8" rx="3"/>
<text x="482.21" y="142" class="value">126.81</text>
<text x="10" y="174" class="label">ea.com</text>
<rect x="180" y="158" width="294.37" height="22" fill="#4c78a8" rx="3"/>
<text x="482.37" y="174" class="value">126.88</text>
<text x="10" y="206" class="label">socialclub.rockstargames.com</text>
<rect x="180" y="190" width="313.14" height="22" fill="#4c78a8" rx="3"/>
<text x="501.14" y="206" class="value">134.97</text>
<text x="10" y="238" class="label">blizzard.com</text>
<rect x="180" y="222" width="350.4" height="22" fill="#4c78a8" rx="3"/>
<text x="538.4" y="238" class="value">151.03</text>
<text x="10" y="270" class="label">ubi.com</text>
<rect x="180" y="254" width="350.43" height="22" fill="#4c78a8" rx="3"/>
<text x="538.4300000000001" y="270" class="value">151.04</text>
<text x="10" y="302" class="label">battle.net</text>
<rect x="180" y="286" width="352.91" height="22" fill="#4c78a8" rx="3"/>
<text x="540.9100000000001" y="302" class="value">152.11</text>
<text x="10" y="334" class="label">easyanticheat.net</text>
<rect x="180" y="318" width="396.71" height="22" fill="#4c78a8" rx="3"/>
<text x="584.71" y="334" class="value">170.99</text>
<text x="10" y="366" class="label">store.akamai.steamstatic.com</text>
<rect x="180" y="350" width="440.7" height="22" fill="#4c78a8" rx="3"/>
<text x="628.7" y="366" class="value">189.95</text>
<text x="10" y="398" class="label">cdn.cloudflare.steamstatic.com</text>
<rect x="180" y="382" width="516.99" height="22" fill="#4c78a8" rx="3"/>
<text x="704.99" y="398" class="value">222.83</text>
<text x="10" y="430" class="label">cdn.akamai.steamstatic.com</text>
<rect x="180" y="414" width="552.14" height="22" fill="#4c78a8" rx="3"/>
<text x="740.14" y="430" class="value">237.98</text>
<text x="10" y="462" class="label">epicgames.com</text>
<rect x="180" y="446" width="567.94" height="22" fill="#4c78a8" rx="3"/>
<text x="755.94" y="462" class="value">244.79</text>
<text x="10" y="494" class="label">static3.cdn.ubi.com</text>
<rect x="180" y="478" width="580.0" height="22" fill="#4c78a8" rx="3"/>
<text x="768.0" y="494" class="value">249.99</text>
<line x1="180" y1="30" x2="180" y2="520" stroke="#ccc"/>
<line x1="180" y1="520" x2="760" y2="520" stroke="#ccc"/>
</svg>