<svg xmlns="http://www.w3.org/2000/svg" width="800" height="540">
<style> .label{font-family:DejaVu Sans,Verdana,Geneva,sans-serif;font-size:12px;fill:#333} .value{font-family:DejaVu Sans,Verdana,Geneva,sans-serif;font-size:12px;fill:#555} </style>
<text x="10" y="20" class="label">延迟柱状图（越低越好，Top 15），单位 ms</text>
<text x="10" y="46" class="label">rockstargames.com</text>
<rect x="180" y="30" width="127.86" height="22" fill="#4c78a8" rx="3"/>
<text x="315.86" y="46" class="value">60.61</text>
<text x="10" y="78" class="label">eaassets-a.akamaihd.net</text>
<rect x="180" y="62" width="178.6" height="22" fill="#4c78a8" rx="3"/>
<text x="366.6" y="78" class="value">84.66</text>
<text x="10" y="110" class="label">ubisoft.com</text>
<rect x="180" y="94" width="201.68" height="22" fill="#4c78a8" rx="3"/>
<text x="389.68" y="110" class="value">95.60</text>
<text x="10" y="142" class="label">ea.com</text>
<rect x="180" y="126" width="232.44" height="22" fill="#4c78a8" rx="3"/>
<text x="420.44" y="142" class="value">110.18</text>
<text x="10" y="174" class="label">store.akamai.steamstatic.com</text>
<rect x="180" y="158" width="282.06" height="22" fill="#4c78a8" rx="3"/>
<text x="470.06" y="174" class="value">133.70</text>
<text x="10" y="206" class="label">community.akamai.steamstatic.com</text>
<rect x="180" y="190" width="282.1" height="22" fill="#4c78a8" rx="3"/>
<text x="470.1" y="206" class="value">133.72</text>
<text x="10" y="238" class="label">cdn.akamai.steamstatic.com</text>
<rect x="180" y="222" width="282.94" height="22" fill="#4c78a8" rx="3"/>
<text x="470.94" y="238" class="value">134.12</text>
<text x="10" y="270" class="label">steamcdn-a.akamaihd.net</text>
<rect x="180" y="254" width="287.25" height="22" fill="#4c78a8" rx="3"/>
<text x="475.25" y="270" class="value">136.16</text>
<text x="10" y="302" class="label">cdn.cloudflare.steamstatic.com</text>
<rect x="180" y="286" width="333.13" height="22" fill="#4c78a8" rx="3"/>
<text x="521.13" y="302" class="value">157.91</text>
<text x="10" y="334" class="label">easyanticheat.net</text>
<rect x="180" y="318" width="352.39" height="22" fill="#4c78a8" rx="3"/>
<text x="540.39" y="334" class="value">167.04</text>
<text x="10" y="366" class="label">origin.com</text>
<rect x="180" y="350" width="377.5" height="22" fill="#4c78a8" rx="3"/>
<text x="565.5" y="366" class="value">178.94</text>
<text x="10" y="398" class="label">static3.cdn.ubi.com</text>
<rect x="180" y="382" width="394.08" height="22" fill="#4c78a8" rx="3"/>
<text x="582.0799999999999" y="398" class="value">186.80</text>
<text x="10" y="430" class="label">api.steampowered.com</text>
<rect x="180" y="414" width="532.51" height="22" fill="#4c78a8" rx="3"/>
<text x="720.51" y="430" class="value">252.42</text>
<text x="10" y="462" class="label">www.steamcommunity.com</text>
<rect x="180" y="446" width="555.3" height="22" fill="#4c78a8" rx="3"/>
<text x="743.3" y="462" class="value">263.22</text>
<text x="10" y="494" class="label">launcher-public-service-prod06.ol.epicgames.com</text>
<rect x="180" y="478" width="580.0" height="22" fill="#4c78a8" rx="3"/>
<text x="768.0" y="494" class="value">274.93</text>
<line x1="180" y1="30" x2="180" y2="520" stroke="#ccc"/>
<line x1="180" y1="520" x2="760" y2="520" stroke="#ccc"/>
</svg>