<svg xmlns="http://www.w3.org/2000/svg" width="800" height="540">
<style> .label{font-family:DejaVu Sans,Verdana,Geneva,sans-serif;font-size:12px;fill:#333} .value{font-family:DejaVu Sans,Verdana,Geneva,sans-serif;font-size:12px;fill:#555} </style>
<text x="10" y="20" class="label">延迟柱状图（越低越好，Top 15），单位 ms</text>
<text x="10" y="46" class="label">eaassets-a.akamaihd.net</text>
<rect x="180" y="30" width="184.88" height="22" fill="#4c78a8" rx="3"/>
<text x="372.88" y="46" class="value">77.07</text>
<text x="10" y="78" class="label">cdn.akamai.steamstatic.com</text>
<rect x="180" y="62" width="185.41" height="22" fill="#4c78a8" rx="3"/>
<text x="373.40999999999997" y="78" class="value">77.29</text>
<text x="10" y="110" class="label">rockstargames.com</text>
<rect x="180" y="94" width="229.19" height="22" fill="#4c78a8" rx="3"/>
<text x="417.19" y="110" class="value">95.54</text>
<text x="10" y="142" class="label">ubisoft.com</text>
<rect x="180" y="126" width="238.28" height="22" fill="#4c78a8" rx="3"/>
<text x="426.28" y="142" class="value">99.33</text>
<text x="10" y="174" class="label">ea.com</text>
<rect x="180" y="158" width="240.13" height="22" fill="#4c78a8" rx="3"/>
<text x="428.13" y="174" class="value">100.10</text>
<text x="10" y="206" class="label">origin.com</text>
<rect x="180" y="190" width="248.69" height="22" fill="#4c78a8" rx="3"/>
<text x="436.69" y="206" class="value">103.67</text>
<text x="10" y="238" class="label">cdn.cloudflare.steamstatic.com</text>
<rect x="180" y="222" width="263.8" height="22" fill="#4c78a8" rx="3"/>
<text x="451.8" y="238" class="value">109.97</text>
<text x="10" y="270" class="label">steamcdn-a.akamaihd.net</text>
<rect x="180" y="254" width="316.05" height="22" fill="#4c78a8" rx="3"/>
<text x="504.05" y="270" class="value">131.75</text>
<text x="10" y="302" class="label">store.akamai.steamstatic.com</text>
<rect x="180" y="286" width="352.42" height="22" fill="#4c78a8" rx="3"/>
<text x="540.4200000000001" y="302" class="value">146.91</text>
<text x="10" y="334" class="label">community.akamai.steamstatic.com</text>
<rect x="180" y="318" width="379.65" height="22" fill="#4c78a8" rx="3"/>
<text x="567.65" y="334" class="value">158.26</text>
<text x="10" y="366" class="label">easyanticheat.net</text>
<rect x="180" y="350" width="498.65" height="22" fill="#4c78a8" rx="3"/>
<text x="686.65" y="366" class="value">207.87</text>
<text x="10" y="398" class="label">www.steamcommunity.com</text>
<rect x="180" y="382" width="511.68" height="22" fill="#4c78a8" rx="3"/>
<text x="699.6800000000001" y="398" class="value">213.30</text>
<text x="10" y="430" class="label">launcher-public-service-prod06.ol.epicgames.com</text>
<rect x="180" y="414" width="552.6" height="22" fill="#4c78a8" rx="3"/>
<text x="740.6" y="430" class="value">230.36</text>
<text x="10" y="462" class="label">api.steampowered.com</text>
<rect x="180" y="446" width="561.31" height="22" fill="#4c78a8" rx="3"/>
<text x="749.31" y="462" class="value">233.99</text>
<text x="10" y="494" class="label">ubi.com</text>
<rect x="180" y="478" width="580.0" height="22" fill="#4c78a8" rx="3"/>
<text x="768.0" y="494" class="value">241.78</text>
<line x1="180" y1="30" x2="180" y2="520" stroke="#ccc"/>
<line x1="180" y1="520" x2="760" y2="520" stroke="#ccc"/>
</svg>