<svg xmlns="http://www.w3.org/2000/svg" width="800" height="540">
<style> .label{font-family:DejaVu Sans,Verdana,Geneva,sans-serif;font-size:12px;fill:#333} .value{font-family:DejaVu Sans,Verdana,Geneva,sans-serif;font-size:12px;fill:#555} </style>
<text x="10" y="20" class="label">延迟柱状图（越低越好，Top 15），单位 ms</text>
<text x="10" y="46" class="label">ea.com</text>
<rect x="180" y="30" width="161.23" height="22" fill="#4c78a8" rx="3"/>
<text x="349.23" y="46" class="value">66.62</text>
<text x="10" y="78" class="label">community.akamai.steamstatic.com</text>
<rect x="180" y="62" width="201.65" height="22" fill="#4c78a8" rx="3"/>
<text x="389.65" y="78" class="value">83.32</text>
<text x="10" y="110" class="label">eaassets-a.akamaihd.net</text>
<rect x="180" y="94" width="202.52" height="22" fill="#4c78a8" rx="3"/>
<text x="390.52" y="110" class="value">83.68</text>
<text x="10" y="142" class="label">rockstargames.com</text>
<rect x="180" y="126" width="207.51" height="22" fill="#4c78a8" rx="3"/>
<text x="395.51" y="142" class="value">85.74</text>
<text x="10" y="174" class="label">ubisoft.com</text>
<rect x="180" y="158" width="267.96" height="22" fill="#4c78a8" rx="3"/>
<text x="455.96" y="174" class="value">110.72</text>
<text x="10" y="206" class="label">steamcdn-a.akamaihd.net</text>
<rect x="180" y="190" width="307.95" height="22" fill="#4c78a8" rx="3"/>
<text x="495.95" y="206" class="value">127.24</text>
<text x="10" y="238" class="label">store.akamai.steamstatic.com</text>
<rect x="180" y="222" width="350.88" height="22" fill="#4c78a8" rx="3"/>
<text x="538.88" y="238" class="value">144.98</text>
<text x="10" y="270" class="label">origin.com</text>
<rect x="180" y="254" width="351.22" height="22" fill="#4c78a8" rx="3"/>
<text x="539.22" y="270" class="value">145.12</text>
<text x="10" y="302" class="label">cdn.cloudflare.steamstatic.com</text>
<rect x="180" y="286" width="354.24" height="22" fill="#4c78a8" rx="3"/>
<text x="542.24" y="302" class="value">146.37</text>
<text x="10" y="334" class="label">easyanticheat.net</text>
<rect x="180" y="318" width="389.43" height="22" fill="#4c78a8" rx="3"/>
<text x="577.4300000000001" y="334" class="value">160.91</text>
<text x="10" y="366" class="label">cdn.akamai.steamstatic.com</text>
<rect x="180" y="350" width="451.37" height="22" fill="#4c78a8" rx="3"/>
<text x="639.37" y="366" class="value">186.50</text>
<text x="10" y="398" class="label">api.steampowered.com</text>
<rect x="180" y="382" width="491.35" height="22" fill="#4c78a8" rx="3"/>
<text x="679.35" y="398" class="value">203.02</text>
<text x="10" y="430" class="label">www.steamcommunity.com</text>
<rect x="180" y="414" width="546.43" height="22" fill="#4c78a8" rx="3"/>
<text x="734.43" y="430" class="value">225.78</text>
<text x="10" y="462" class="label">launcher-public-service-prod06.ol.epicgames.com</text>
<rect x="180" y="446" width="554.15" height="22" fill="#4c78a8" rx="3"/>
<text x="742.15" y="462" class="value">228.97</text>
<text x="10" y="494" class="label">steam-chat.com</text>
<rect x="180" y="478" width="580.0" height="22" fill="#4c78a8" rx="3"/>
<text x="768.0" y="494" class="value">239.65</text>
<line x1="180" y1="30" x2="180" y2="520" stroke="#ccc"/>
<line x1="180" y1="520" x2="760" y2="520" stroke="#ccc"/>
</svg>