<svg xmlns="http://www.w3.org/2000/svg" width="800" height="540">
<style> .label{font-family:DejaVu Sans,Verdana,Geneva,sans-serif;font-size:12px;fill:#333} .value{font-family:DejaVu Sans,Verdana,Geneva,sans-serif;font-size:12px;fill:#555} </style>
<text x="10" y="20" class="label">延迟柱状图（越低越好，Top 15），单位 ms</text>
<text x="10" y="46" class="label">rockstargames.com</text>
<rect x="180" y="30" width="98.7" height="22" fill="#4c78a8" rx="3"/>
<text x="286.7" y="46" class="value">47.03</text>
<text x="10" y="78" class="label">ea.com</text>
<rect x="180" y="62" width="142.09" height="22" fill="#4c78a8" rx="3"/>
<text x="330.09000000000003" y="78" class="value">67.71</text>
<text x="10" y="110" class="label">ubisoft.com</text>
<rect x="180" y="94" width="205.39" height="22" fill="#4c78a8" rx="3"/>
<text x="393.39" y="110" class="value">97.87</text>
<text x="10" y="142" class="label">eaassets-a.akamaihd.net</text>
<rect x="180" y="126" width="241.0" height="22" fill="#4c78a8" rx="3"/>
<text x="429.0" y="142" class="value">114.84</text>
<text x="10" y="174" class="label">steamcdn-a.akamaihd.net</text>
<rect x="180" y="158" width="280.22" height="22" fill="#4c78a8" rx="3"/>
<text x="468.22" y="174" class="value">133.53</text>
<text x="10" y="206" class="label">store.akamai.steamstatic.com</text>
<rect x="180" y="190" width="283.52" height="22" fill="#4c78a8" rx="3"/>
<text x="471.52" y="206" class="value">135.10</text>
<text x="10" y="238" class="label">community.akamai.steamstatic.com</text>
<rect x="180" y="222" width="296.13" height="22" fill="#4c78a8" rx="3"/>
<text x="484.13" y="238" class="value">141.11</text>
<text x="10" y="270" class="label">origin.com</text>
<rect x="180" y="254" width="296.48" height="22" fill="#4c78a8" rx="3"/>
<text x="484.48" y="270" class="value">141.28</text>
<text x="10" y="302" class="label">cdn.cloudflare.steamstatic.com</text>
<rect x="180" y="286" width="341.79" height="22" fill="#4c78a8" rx="3"/>
<text x="529.79" y="302" class="value">162.87</text>
<text x="10" y="334" class="label">cdn.akamai.steamstatic.com</text>
<rect x="180" y="318" width="342.46" height="22" fill="#4c78a8" rx="3"/>
<text x="530.46" y="334" class="value">163.19</text>
<text x="10" y="366" class="label">launcher-public-service-prod06.ol.epicgames.com</text>
<rect x="180" y="350" width="393.0" height="22" fill="#4c78a8" rx="3"/>
<text x="581.0" y="366" class="value">187.27</text>
<text x="10" y="398" class="label">easyanticheat.net</text>
<rect x="180" y="382" width="397.36" height="22" fill="#4c78a8" rx="3"/>
<text x="585.36" y="398" class="value">189.35</text>
<text x="10" y="430" class="label">steam-chat.com</text>
<rect x="180" y="414" width="469.28" height="22" fill="#4c78a8" rx="3"/>
<text x="657.28" y="430" class="value">223.62</text>
<text x="10" y="462" class="label">www.steamcommunity.com</text>
<rect x="180" y="446" width="521.62" height="22" fill="#4c78a8" rx="3"/>
<text x="709.62" y="462" class="value">248.56</text>
<text x="10" y="494" class="label">api.steampowered.com</text>
<rect x="180" y="478" width="580.0" height="22" fill="#4c78a8" rx="3"/>
<text x="768.0" y="494" class="value">276.38</text>
<line x1="180" y1="30" x2="180" y2="520" stroke="#ccc"/>
<line x1="180" y1="520" x2="760" y2="520" stroke="#ccc"/>
</svg>