<svg xmlns="http://www.w3.org/2000/svg" width="800" height="540">
<style> .label{font-family:DejaVu Sans,Verdana,Geneva,sans-serif;font-size:12px;fill:#333} .value{font-family:DejaVu Sans,Verdana,Geneva,sans-serif;font-size:12px;fill:#555} </style>
<text x="10" y="20" class="label">延迟柱状图（越低越好，Top 15），单位 ms</text>
<text x="10" y="46" class="label">rockstargames.com</text>
<rect x="180" y="30" width="102.8" height="22" fill="#4c78a8" rx="3"/>
<text x="290.8" y="46" class="value">47.66</text>
<text x="10" y="78" class="label">ea.com</text>
<rect x="180" y="62" width="133.02" height="22" fill="#4c78a8" rx="3"/>
<text x="321.02" y="78" class="value">61.67</text>
<text x="10" y="110" class="label">eaassets-a.akamaihd.net</text>
<rect x="180" y="94" width="210.14" height="22" fill="#4c78a8" rx="3"/>
<text x="398.14" y="110" class="value">97.42</text>
<text x="10" y="142" class="label">store.akamai.steamstatic.com</text>
<rect x="180" y="126" width="224.35" height="22" fill="#4c78a8" rx="3"/>
<text x="412.35" y="142" class="value">104.01</text>
<text x="10" y="174" class="label">ubisoft.com</text>
<rect x="180" y="158" width="234.92" height="22" fill="#4c78a8" rx="3"/>
<text x="422.91999999999996" y="174" class="value">108.91</text>
<text x="10" y="206" class="label">origin.com</text>
<rect x="180" y="190" width="239.82" height="22" fill="#4c78a8" rx="3"/>
<text x="427.82" y="206" class="value">111.18</text>
<text x="10" y="238" class="label">easyanticheat.net</text>
<rect x="180" y="222" width="280.84" height="22" fill="#4c78a8" rx="3"/>
<text x="468.84" y="238" class="value">130.20</text>
<text x="10" y="270" class="label">steamcdn-a.akamaihd.net</text>
<rect x="180" y="254" width="345.62" height="22" fill="#4c78a8" rx="3"/>
<text x="533.62" y="270" class="value">160.23</text>
<text x="10" y="302" class="label">cdn.akamai.steamstatic.com</text>
<rect x="180" y="286" width="402.37" height="22" fill="#4c78a8" rx="3"/>
<text x="590.37" y="302" class="value">186.54</text>
<text x="10" y="334" class="label">community.akamai.steamstatic.com</text>
<rect x="180" y="318" width="443.59" height="22" fill="#4c78a8" rx="3"/>
<text x="631.5899999999999" y="334" class="value">205.65</text>
<text x="10" y="366" class="label">cdn.cloudflare.steamstatic.com</text>
<rect x="180" y="350" width="468.94" height="22" fill="#4c78a8" rx="3"/>
<text x="656.94" y="366" class="value">217.40</text>
<text x="10" y="398" class="label">www.steamcommunity.com</text>
<rect x="180" y="382" width="471.8" height="22" fill="#4c78a8" rx="3"/>
<text x="659.8" y="398" class="value">218.73</text>
<text x="10" y="430" class="label">steam-chat.com</text>
<rect x="180" y="414" width="512.64" height="22" fill="#4c78a8" rx="3"/>
<text x="700.64" y="430" class="value">237.66</text>
<text x="10" y="462" class="label">api.steampowered.com</text>
<rect x="180" y="446" width="562.01" height="22" fill="#4c78a8" rx="3"/>
<text x="750.01" y="462" class="value">260.55</text>
<text x="10" y="494" class="label">launcher-public-service-prod06.ol.epicgames.com</text>
<rect x="180" y="478" width="580.0" height="22" fill="#4c78a8" rx="3"/>
<text x="768.0" y="494" class="value">268.89</text>
<line x1="180" y1="30" x2="180" y2="520" stroke="#ccc"/>
<line x1="180" y1="520" x2="760" y2="520" stroke="#ccc"/>
</svg>