<svg xmlns="http://www.w3.org/2000/svg" width="800" height="540">
<style> .label{font-family:DejaVu Sans,Verdana,Geneva,sans-serif;font-size:12px;fill:#333} .value{font-family:DejaVu Sans,Verdana,Geneva,sans-serif;font-size:12px;fill:#555} </style>
<text x="10" y="20" class="label">延迟柱状图（越低越好，Top 15），单位 ms</text>
<text x="10" y="46" class="label">rockstargames.com</text>
<rect x="180" y="30" width="132.79" height="22" fill="#4c78a8" rx="3"/>
<text x="320.78999999999996" y="46" class="value">62.50</text>
<text x="10" y="78" class="label">eaassets-a.akamaihd.net</text>
<rect x="180" y="62" width="224.0" height="22" fill="#4c78a8" rx="3"/>
<text x="412.0" y="78" class="value">105.43</text>
<text x="10" y="110" class="label">ea.com</text>
<rect x="180" y="94" width="236.28" height="22" fill="#4c78a8" rx="3"/>
<text x="424.28" y="110" class="value">111.21</text>
<text x="10" y="142" class="label">store.akamai.steamstatic.com</text>
<rect x="180" y="126" width="240.91" height="22" fill="#4c78a8" rx="3"/>
<text x="428.90999999999997" y="142" class="value">113.39</text>
<text x="10" y="174" class="label">ubisoft.com</text>
<rect x="180" y="158" width="257.97" height="22" fill="#4c78a8" rx="3"/>
<text x="445.97" y="174" class="value">121.42</text>
<text x="10" y="206" class="label">steamcdn-a.akamaihd.net</text>
<rect x="180" y="190" width="286.59" height="22" fill="#4c78a8" rx="3"/>
<text x="474.59" y="206" class="value">134.89</text>
<text x="10" y="238" class="label">cdn.cloudflare.steamstatic.com</text>
<rect x="180" y="222" width="301.55" height="22" fill="#4c78a8" rx="3"/>
<text x="489.55" y="238" class="value">141.93</text>
<text x="10" y="270" class="label">cdn.akamai.steamstatic.com</text>
<rect x="180" y="254" width="348.71" height="22" fill="#4c78a8" rx="3"/>
<text x="536.71" y="270" class="value">164.13</text>
<text x="10" y="302" class="label">community.akamai.steamstatic.com</text>
<rect x="180" y="286" width="459.64" height="22" fill="#4c78a8" rx="3"/>
<text x="647.64" y="302" class="value">216.34</text>
<text x="10" y="334" class="label">origin.com</text>
<rect x="180" y="318" width="494.8" height="22" fill="#4c78a8" rx="3"/>
<text x="682.8" y="334" class="value">232.89</text>
<text x="10" y="366" class="label">gog.com</text>
<rect x="180" y="350" width="500.48" height="22" fill="#4c78a8" rx="3"/>
<text x="688.48" y="366" class="value">235.56</text>
<text x="10" y="398" class="label">steam-chat.com</text>
<rect x="180" y="382" width="523.23" height="22" fill="#4c78a8" rx="3"/>
<text x="711.23" y="398" class="value">246.27</text>
<text x="10" y="430" class="label">www.steamcommunity.com</text>
<rect x="180" y="414" width="573.48" height="22" fill="#4c78a8" rx="3"/>
<text x="761.48" y="430" class="value">269.92</text>
<text x="10" y="462" class="label">api.steampowered.com</text>
<rect x="180" y="446" width="573.52" height="22" fill="#4c78a8" rx="3"/>
<text x="761.52" y="462" class="value">269.94</text>
<text x="10" y="494" class="label">easyanticheat.net</text>
<rect x="180" y="478" width="580.0" height="22" fill="#4c78a8" rx="3"/>
<text x="768.0" y="494" class="value">272.99</text>
<line x1="180" y1="30" x2="180" y2="520" stroke="#ccc"/>
<line x1="180" y1="520" x2="760" y2="520" stroke="#ccc"/>
</svg>