<svg xmlns="http://www.w3.org/2000/svg" width="800" height="540">
<style> .label{font-family:DejaVu Sans,Verdana,Geneva,sans-serif;font-size:12px;fill:#333} .value{font-family:DejaVu Sans,Verdana,Geneva,sans-serif;font-size:12px;fill:#555} </style>
<text x="10" y="20" class="label">延迟柱状图（越低越好，Top 15），单位 ms</text>
<text x="10" y="46" class="label">rockstargames.com</text>
<rect x="180" y="30" width="123.31" height="22" fill="#4c78a8" rx="3"/>
<text x="311.31" y="46" class="value">52.70</text>
<text x="10" y="78" class="label">ea.com</text>
<rect x="180" y="62" width="189.85" height="22" fill="#4c78a8" rx="3"/>
<text x="377.85" y="78" class="value">81.14</text>
<text x="10" y="110" class="label">eaassets-a.akamaihd.net</text>
<rect x="180" y="94" width="197.2" height="22" fill="#4c78a8" rx="3"/>
<text x="385.2" y="110" class="value">84.28</text>
<text x="10" y="142" class="label">cdn.cloudflare.steamstatic.com</text>
<rect x="180" y="126" width="252.89" height="22" fill="#4c78a8" rx="3"/>
<text x="440.89" y="142" class="value">108.08</text>
<text x="10" y="174" class="label">ubisoft.com</text>
<rect x="180" y="158" width="256.7" height="22" fill="#4c78a8" rx="3"/>
<text x="444.7" y="174" class="value">109.71</text>
<text x="10" y="206" class="label">origin.com</text>
<rect x="180" y="190" width="296.04" height="22" fill="#4c78a8" rx="3"/>
<text x="484.04" y="206" class="value">126.52</text>
<text x="10" y="238" class="label">community.akamai.steamstatic.com</text>
<rect x="180" y="222" width="322.57" height="22" fill="#4c78a8" rx="3"/>
<text x="510.57" y="238" class="value">137.86</text>
<text x="10" y="270" class="label">store.akamai.steamstatic.com</text>
<rect x="180" y="254" width="396.39" height="22" fill="#4c78a8" rx="3"/>
<text x="584.39" y="270" class="value">169.41</text>
<text x="10" y="302" class="label">cdn.akamai.steamstatic.com</text>
<rect x="180" y="286" width="406.92" height="22" fill="#4c78a8" rx="3"/>
<text x="594.9200000000001" y="302" class="value">173.91</text>
<text x="10" y="334" class="label">easyanticheat.net</text>
<rect x="180" y="318" width="428.54" height="22" fill="#4c78a8" rx="3"/>
<text x="616.54" y="334" class="value">183.15</text>
<text x="10" y="366" class="label">steamcdn-a.akamaihd.net</text>
<rect x="180" y="350" width="503.23" height="22" fill="#4c78a8" rx="3"/>
<text x="691.23" y="366" class="value">215.07</text>
<text x="10" y="398" class="label">gog.com</text>
<rect x="180" y="382" width="516.61" height="22" fill="#4c78a8" rx="3"/>
<text x="704.61" y="398" class="value">220.79</text>
<text x="10" y="430" class="label">steam-chat.com</text>
<rect x="180" y="414" width="540.39" height="22" fill="#4c78a8" rx="3"/>
<text x="728.39" y="430" class="value">230.95</text>
<text x="10" y="462" class="label">api.steampowered.com</text>
<rect x="180" y="446" width="575.84" height="22" fill="#4c78a8" rx="3"/>
<text x="763.84" y="462" class="value">246.10</text>
<text x="10" y="494" class="label">www.steamcommunity.com</text>
<rect x="180" y="478" width="580.0" height="22" fill="#4c78a8" rx="3"/>
<text x="768.0" y="494" class="value">247.88</text>
<line x1="180" y1="30" x2="180" y2="520" stroke="#ccc"/>
<line x1="180" y1="520" x2="760" y2="520" stroke="#ccc"/>
</svg>